<svg width="20" height="20" fill="none" xmlns="http://www.w3.org/2000/svg"><path d="M11.767 4.088a2.932 2.932 0 0 1 4.147 4.146L14.359 9.79a.73.73 0 0 0 1.03 1.031l1.556-1.554a4.39 4.39 0 1 0-6.209-6.209l-2.68 2.679a4.39 4.39 0 0 0 1.065 6.993.73.73 0 1 0 .679-1.291 2.931 2.931 0 0 1-.712-4.671l2.68-2.68Z" fill="#000"/><path d="M8.234 15.912a2.932 2.932 0 0 1-4.146-4.147l1.555-1.554A.73.73 0 0 0 4.612 9.18l-1.555 1.554a4.39 4.39 0 0 0 6.209 6.209l2.679-2.679a4.39 4.39 0 0 0-1.065-6.993.73.73 0 1 0-.678 1.291 2.932 2.932 0 0 1 .712 4.671l-2.68 2.68Z" fill="#000"/></svg>