<svg width="48" height="48" viewBox="0 0 48 48" fill="none" xmlns="http://www.w3.org/2000/svg">
<path fill-rule="evenodd" clip-rule="evenodd" d="M41.6632 37.7164C42.2623 38.241 42.335 39.155 41.8186 39.7612L41.804 39.7783C38.75 43.3628 34.6106 46.0605 29.7344 47.2909C24.8583 48.5214 19.9544 48.1057 15.5991 46.3909V46.3909C14.852 46.0967 14.4815 45.2555 14.7688 44.5058L14.7793 44.4784C15.065 43.7327 15.904 43.3631 16.6471 43.6557V43.6557C20.4636 45.1584 24.7577 45.5229 29.0352 44.4435C33.3128 43.3641 36.9372 41.0014 39.6134 37.8603V37.8603C40.1338 37.2496 41.0595 37.1879 41.6632 37.7164V37.7164Z" fill="#A0A7FE" style="fill:#A0A7FE;fill:color(display-p3 0.6275 0.6549 0.9961);fill-opacity:1;"/>
<path fill-rule="evenodd" clip-rule="evenodd" d="M24 42C20.6334 42 17.4827 41.0758 14.7878 39.4672V36.4776C14.7878 34.5535 13.228 32.9938 11.3039 32.9938C10.4027 32.9938 9.58147 33.3359 8.96295 33.8974C7.09007 31.0577 6 27.6562 6 24C6 14.0589 14.0589 6 24 6C33.9411 6 42 14.0589 42 24C42 33.9411 33.9411 42 24 42Z" fill="#D2D8FE" style="fill:#D2D8FE;fill:color(display-p3 0.8235 0.8471 0.9961);fill-opacity:1;"/>
<path d="M21.7344 14.6949L21.3405 28.6994C21.3393 28.7264 21.3387 28.7535 21.3387 28.7806C21.3387 29.7213 22.0536 30.4839 22.9355 30.4839C22.9708 30.4839 23.0061 30.4826 23.0411 30.4801L32.4275 30.063C33.072 30.0343 33.5807 29.4687 33.5807 28.7806C33.5807 28.0926 33.072 27.5269 32.4275 27.4983L24.4868 27.1454L24.1366 14.6949C24.1171 14.0023 23.5851 13.4516 22.9355 13.4516C22.2859 13.4516 21.7539 14.0023 21.7344 14.6949Z" fill="#3C46FE" style="fill:#3C46FE;fill:color(display-p3 0.2353 0.2745 0.9961);fill-opacity:1;"/>
<path fill-rule="evenodd" clip-rule="evenodd" d="M39.7783 6.196C43.3628 9.24998 46.0605 13.3894 47.2909 18.2656C48.5214 23.1417 48.1057 28.0456 46.3909 32.4009V32.4009C46.0967 33.148 45.2555 33.5185 44.5057 33.2312L44.4784 33.2208C43.7327 32.935 43.3631 32.096 43.6557 31.3529V31.3529C45.1584 27.5364 45.5229 23.2423 44.4435 18.9648C43.3641 14.6872 41.0014 11.0628 37.8603 8.38663V8.38663C37.2496 7.86624 37.1879 6.94051 37.7164 6.33679V6.33679C38.241 5.73768 39.155 5.66498 39.7612 6.1814L39.7783 6.196Z" fill="#3B45FD" style="fill:#3B45FD;fill:color(display-p3 0.2314 0.2706 0.9922);fill-opacity:1;"/>
<path fill-rule="evenodd" clip-rule="evenodd" d="M33.2208 3.52162C32.935 4.26734 32.096 4.63692 31.3529 4.34434V4.34434C27.5364 2.84162 23.2424 2.47708 18.9648 3.55649C14.6872 4.63589 11.0628 6.99857 8.38663 10.1397V10.1397C7.86624 10.7504 6.94051 10.8121 6.33679 10.2836V10.2836C5.73768 9.75902 5.66498 8.84496 6.1814 8.23883L6.196 8.22169C9.24998 4.63717 13.3894 1.93954 18.2656 0.709095C23.1417 -0.521353 28.0456 -0.105728 32.4009 1.60914V1.60914C33.148 1.9033 33.5185 2.7445 33.2312 3.49425L33.2208 3.52162Z" fill="#A0A7FE" style="fill:#A0A7FE;fill:color(display-p3 0.6275 0.6549 0.9961);fill-opacity:1;"/>
<path fill-rule="evenodd" clip-rule="evenodd" d="M10.8298 35.0029C11.4761 35.0029 12 35.5292 12 36.1783V41.5654C12 42.2146 11.4761 42.7408 10.8298 42.7408H4.92984C4.28353 42.7408 3.7596 42.2146 3.7596 41.5654C3.7596 40.9163 4.28353 40.3901 4.92984 40.3901H9.65953V36.1783C9.65953 35.5292 10.1835 35.0029 10.8298 35.0029Z" fill="#3B45FD" style="fill:#3B45FD;fill:color(display-p3 0.2314 0.2706 0.9922);fill-opacity:1;"/>
<path fill-rule="evenodd" clip-rule="evenodd" d="M3.49754 14.3501C4.2506 14.6439 4.62397 15.4952 4.33146 16.2516C2.8332 20.1259 2.46974 24.485 3.54594 28.8274C4.62215 33.1698 6.97783 36.8491 10.1096 39.5658L11.2166 40.5262L9.30437 42.75L8.19732 41.7897C4.62343 38.6894 1.93379 34.4872 0.706992 29.5372C-0.519808 24.5872 -0.105413 19.6089 1.60437 15.1877C1.89687 14.4313 2.74447 14.0563 3.49754 14.3501Z" fill="#3B45FD" style="fill:#3B45FD;fill:color(display-p3 0.2314 0.2706 0.9922);fill-opacity:1;"/>
</svg>
