<svg xmlns="http://www.w3.org/2000/svg" width="32" height="32" viewBox="0 0 32 32" fill="none">
  <path d="M16.0001 4.38645C9.58605 4.38645 4.38645 9.58605 4.38645 16.0001C4.38645 18.9786 5.50643 21.6937 7.35037 23.75L7.95575 23.1447C8.47875 22.6217 9.37218 22.8665 9.55548 23.5831L10.5215 27.3591C10.7012 28.0617 10.0627 28.7002 9.36012 28.5205L5.58404 27.5545C4.86748 27.3712 4.62264 26.4778 5.14564 25.9548L5.7735 25.3269C3.52938 22.8675 2.15918 19.5929 2.15918 16.0001C2.15918 8.35597 8.35597 2.15918 16.0001 2.15918C23.6442 2.15918 29.841 8.35597 29.841 16.0001C29.841 23.6442 23.6442 29.841 16.0001 29.841C15.385 29.841 14.8865 29.3424 14.8865 28.7274C14.8865 28.1123 15.385 27.6137 16.0001 27.6137C22.4141 27.6137 27.6137 22.4141 27.6137 16.0001C27.6137 9.58605 22.4141 4.38645 16.0001 4.38645Z" fill="black" style="fill:black;fill-opacity:1;"/>
  <path d="M14.8027 16.1104C14.8449 16.8834 15.2524 17.3051 15.9973 17.3051C16.7282 17.3051 17.1357 16.8975 17.1639 16.1104L17.3747 11.36C17.4028 10.5308 16.7984 9.95459 15.9833 9.95459C15.1681 9.95459 14.5778 10.5168 14.62 11.346L14.8027 16.1104Z" fill="black" style="fill:black;fill-opacity:1;"/>
  <path d="M14.4092 20.2846C14.4092 21.1138 15.0978 21.7603 15.9973 21.7603C16.8687 21.7603 17.5714 21.1279 17.5714 20.2846C17.5714 19.4273 16.8828 18.7948 15.9973 18.7948C15.0978 18.7948 14.4092 19.4273 14.4092 20.2846Z" fill="black" style="fill:black;fill-opacity:1;"/>
</svg>