<svg width="48" height="48" viewBox="0 0 48 48" fill="none" xmlns="http://www.w3.org/2000/svg">
<path fill-rule="evenodd" clip-rule="evenodd" d="M41.8897 37.9412C42.4982 38.4532 42.5649 39.366 42.0374 39.961V39.961C38.9298 43.4659 34.7178 46.1036 29.7561 47.3067C24.7944 48.5098 19.8044 48.1034 15.3728 46.4266V46.4266C14.6199 46.1418 14.2445 45.294 14.5426 44.5463V44.5463C14.8334 43.8172 15.6548 43.4554 16.389 43.7332L16.4392 43.7522C20.3226 45.2215 24.692 45.578 29.0446 44.5225C33.3973 43.4671 37.0852 41.157 39.8083 38.0857L39.8297 38.0615C40.3535 37.4709 41.2525 37.4051 41.8565 37.9133L41.8897 37.9412Z" fill="#9CA4EF" style="fill:#9CA4EF;fill:color(display-p3 0.6115 0.6440 0.9362);fill-opacity:1;"/>
<path fill-rule="evenodd" clip-rule="evenodd" d="M24 42C20.6334 42 17.4827 41.0758 14.7878 39.4672V36.4776C14.7878 34.5535 13.228 32.9938 11.3039 32.9938C10.4027 32.9938 9.58147 33.3359 8.96295 33.8974C7.09007 31.0577 6 27.6562 6 24C6 14.0589 14.0589 6 24 6C33.9411 6 42 14.0589 42 24C42 33.9411 33.9411 42 24 42Z" fill="#D2D8FE" style="fill:#D2D8FE;fill:color(display-p3 0.8235 0.8471 0.9961);fill-opacity:1;"/>
<path fill-rule="evenodd" clip-rule="evenodd" d="M28.7145 16.6128C29.0838 15.9945 29.851 15.8141 30.428 16.2098C31.0051 16.6055 31.1735 17.4275 30.8042 18.0457L23.4321 30.3874C23.2153 30.7503 22.8478 30.9781 22.4461 30.9985C22.0443 31.0189 21.6583 30.8294 21.4104 30.49L17.2637 24.8129C16.8414 24.2348 16.9365 23.3995 17.476 22.9471C18.0155 22.4947 18.7952 22.5966 19.2174 23.1746L22.2858 27.3753L28.7145 16.6128Z" fill="#666EE5" style="fill:#666EE5;fill:color(display-p3 0.4004 0.4332 0.8982);fill-opacity:1;"/>
<path fill-rule="evenodd" clip-rule="evenodd" d="M39.961 5.9626C43.4659 9.07016 46.1036 13.2822 47.3067 18.2439C48.5098 23.2056 48.1034 28.1956 46.4266 32.6272V32.6272C46.1418 33.3801 45.294 33.7555 44.5463 33.4574V33.4574C43.8172 33.1666 43.4554 32.3452 43.7332 31.611L43.7522 31.5608C45.2215 27.6774 45.578 23.308 44.5225 18.9554C43.4671 14.6027 41.157 10.9148 38.0857 8.19166L38.0615 8.17026C37.4709 7.64654 37.4051 6.74752 37.9133 6.14345L37.9412 6.11028C38.4532 5.50181 39.366 5.43506 39.961 5.9626V5.9626Z" fill="#666EE5" style="fill:#666EE5;fill:color(display-p3 0.4004 0.4332 0.8982);fill-opacity:1;"/>
<path fill-rule="evenodd" clip-rule="evenodd" d="M33.4574 3.45366C33.1666 4.18284 32.3452 4.54457 31.611 4.26678L31.5608 4.2478C27.6774 2.77847 23.308 2.42204 18.9554 3.47745C14.6027 4.53287 10.9148 6.84305 8.19165 9.91433L8.17026 9.93846C7.64654 10.5291 6.74752 10.5949 6.14345 10.0867L6.11028 10.0588C5.50181 9.54684 5.43506 8.63397 5.9626 8.03899V8.03899C9.07016 4.53412 13.2822 1.89644 18.2439 0.693337C23.2056 -0.509767 28.1956 -0.103378 32.6272 1.57338V1.57338C33.3801 1.85822 33.7555 2.70599 33.4574 3.45366V3.45366Z" fill="#9CA4EF" style="fill:#9CA4EF;fill:color(display-p3 0.6115 0.6440 0.9362);fill-opacity:1;"/>
<path fill-rule="evenodd" clip-rule="evenodd" d="M10.8298 35.117C11.4761 35.117 12 35.6525 12 36.313V41.7947C12 42.4552 11.4761 42.9906 10.8298 42.9906H4.92984C4.28353 42.9906 3.7596 42.4552 3.7596 41.7947C3.7596 41.1341 4.28353 40.5986 4.92984 40.5986H9.65953V36.313C9.65953 35.6525 10.1835 35.117 10.8298 35.117Z" fill="#666EE5" style="fill:#666EE5;fill:color(display-p3 0.4004 0.4332 0.8982);fill-opacity:1;"/>
<path fill-rule="evenodd" clip-rule="evenodd" d="M3.49754 14.1018C4.2506 14.4008 4.62397 15.267 4.33146 16.0367C2.8332 19.979 2.46974 24.4146 3.54594 28.8332C4.62215 33.2517 6.97783 36.9956 10.1096 39.76L11.2166 40.7372L9.30437 43L8.19732 42.0228C4.62343 38.8682 1.93379 34.5923 0.706992 29.5554C-0.519808 24.5185 -0.105413 19.4529 1.60437 14.9541C1.89687 14.1845 2.74447 13.8029 3.49754 14.1018Z" fill="#666EE5" style="fill:#666EE5;fill:color(display-p3 0.4004 0.4332 0.8982);fill-opacity:1;"/>
</svg>
