<svg width="20" height="20" viewBox="0 0 20 20" fill="none" xmlns="http://www.w3.org/2000/svg">
<path d="M10.0002 2.50016C5.85803 2.50016 2.50016 5.85803 2.50016 10.0002C2.50016 11.8841 3.19389 13.6047 4.34133 14.9225L4.65934 14.6045C5.05886 14.205 5.74134 14.392 5.88136 14.9394L6.51385 17.4118C6.65114 17.9485 6.16341 18.4363 5.62672 18.299L3.15428 17.6665C2.60691 17.5265 2.41988 16.844 2.81939 16.4445L3.16053 16.1033C1.71395 14.4831 0.833496 12.3438 0.833496 10.0002C0.833496 4.93755 4.93755 0.833496 10.0002 0.833496C15.0628 0.833496 19.1668 4.93755 19.1668 10.0002C19.1668 15.0628 15.0628 19.1668 10.0002 19.1668C9.53992 19.1668 9.16683 18.7937 9.16683 18.3335C9.16683 17.8733 9.53992 17.5002 10.0002 17.5002C14.1423 17.5002 17.5002 14.1423 17.5002 10.0002C17.5002 5.85803 14.1423 2.50016 10.0002 2.50016Z" fill="#2C6BED"/>
<path d="M8.84768 4.3577C8.8609 3.96086 9.18644 3.646 9.5835 3.646C9.98056 3.646 10.3061 3.96086 10.3193 4.3577L10.4914 9.52006L13.9824 9.67874C14.377 9.69668 14.6877 10.0218 14.6877 10.4168C14.6877 10.8118 14.377 11.137 13.9824 11.1549L9.65504 11.3516C9.63134 11.3534 9.60747 11.3543 9.5835 11.3543C9.06573 11.3543 8.646 10.9346 8.646 10.4168C8.646 10.3992 8.64648 10.3817 8.64746 10.3643L8.84768 4.3577Z" fill="#2C6BED"/>
</svg>
