<svg width="16" height="16" fill="none" xmlns="http://www.w3.org/2000/svg"><path fill-rule="evenodd" clip-rule="evenodd" d="M8.6 5.059c0-1.438.986-2.709 2.4-2.709s2.4 1.27 2.4 2.709a3.15 3.15 0 0 1-.652 1.938c-.411.52-1.023.903-1.748.903-.725 0-1.337-.382-1.748-.903A3.147 3.147 0 0 1 8.6 5.06ZM11 3.65c-.52 0-1.1.499-1.1 1.409 0 .446.15.85.373 1.133.222.281.485.408.727.408s.505-.127.727-.408c.223-.282.373-.687.373-1.133 0-.91-.58-1.409-1.1-1.409Z" fill="#000"/><path d="M5 8.6c.698 0 1.37.14 1.977.395-.35.309-.66.66-.917 1.049A3.898 3.898 0 0 0 5 9.9c-1.76 0-3.09 1.121-3.316 2.45h3.582a5.089 5.089 0 0 0 .065 1.3H1.26a.905.905 0 0 1-.911-.9C.35 10.38 2.516 8.6 5 8.6Z" fill="#000"/><path fill-rule="evenodd" clip-rule="evenodd" d="M11 8.6c-2.484 0-4.65 1.78-4.65 4.15 0 .534.445.9.91.9h7.48c.465 0 .91-.366.91-.9 0-2.37-2.166-4.15-4.65-4.15Zm0 1.3c1.76 0 3.09 1.122 3.316 2.45H7.684C7.909 11.022 9.24 9.9 11 9.9ZM5 2.35c-1.414 0-2.4 1.27-2.4 2.709 0 .727.241 1.418.652 1.938.411.52 1.023.903 1.748.903.725 0 1.337-.382 1.748-.903A3.15 3.15 0 0 0 7.4 5.059C7.4 3.62 6.414 2.35 5 2.35ZM3.9 5.059c0-.91.58-1.409 1.1-1.409.52 0 1.1.499 1.1 1.409 0 .446-.15.85-.373 1.133-.222.281-.485.408-.727.408s-.505-.127-.727-.408A1.848 1.848 0 0 1 3.9 5.059Z" fill="#000"/></svg>