<svg width="23" height="13" viewBox="0 0 23 13" fill="none" xmlns="http://www.w3.org/2000/svg">
<path d="M5.61311 11.0185C5.59151 11.2346 5.58071 11.429 5.58071 11.6019C5.58071 11.7747 5.59151 11.9691 5.61311 12.1852H0.991819C0.797374 12.1852 0.622374 12.1398 0.466819 12.0491C0.315584 11.9583 0.198917 11.8352 0.116819 11.6796C0.0390408 11.5241 0.00879385 11.3491 0.0260778 11.1546C0.108177 10.3509 0.38472 9.61853 0.855707 8.95742C1.33102 8.29198 1.94244 7.76698 2.68997 7.38242C3.44182 6.99785 4.25416 6.80556 5.127 6.80556C5.5591 6.80556 5.97824 6.85526 6.38441 6.95464C6.7949 7.05402 7.18379 7.19661 7.55108 7.38242C7.23997 7.646 6.9591 7.94414 6.70849 8.27686C6.20293 8.07377 5.67577 7.97223 5.127 7.97223C4.45293 7.97223 3.82639 8.11914 3.24737 8.41297C2.66836 8.7068 2.19521 9.10433 1.82793 9.60556C1.46497 10.1068 1.25324 10.6577 1.19274 11.2583C1.19707 11.254 1.18626 11.2389 1.16034 11.213C1.13441 11.1827 1.10632 11.1525 1.07608 11.1222C1.05447 11.0963 1.03503 11.0747 1.01774 11.0574C1.00046 11.0358 0.991819 11.0228 0.991819 11.0185H5.61311ZM15.7307 11.0185C15.735 11.0185 15.7285 11.0293 15.7113 11.0509C15.694 11.0682 15.6724 11.0898 15.6464 11.1157C15.6162 11.1503 15.5881 11.1827 15.5622 11.213C15.5363 11.2389 15.5255 11.254 15.5298 11.2583C15.4693 10.6577 15.2554 10.1068 14.8881 9.60556C14.5252 9.10001 14.0542 8.70248 13.4752 8.41297C12.9005 8.11914 12.2782 7.97223 11.6085 7.97223C10.9344 7.97223 10.3079 8.11914 9.72886 8.41297C9.15416 8.7068 8.68534 9.10649 8.32237 9.61205C7.95941 10.1133 7.74984 10.6642 7.69367 11.2648C7.68935 11.2519 7.67639 11.2346 7.65478 11.213C7.63318 11.187 7.60941 11.1611 7.58349 11.1352C7.55756 11.1049 7.53379 11.079 7.51219 11.0574C7.49058 11.0315 7.4841 11.0185 7.49274 11.0185H15.7307ZM7.49274 12.1852C7.29398 12.1852 7.11682 12.1398 6.96126 12.0491C6.81003 11.9583 6.69552 11.833 6.61774 11.6732C6.53997 11.5176 6.50972 11.3426 6.527 11.1482C6.60478 10.3445 6.87916 9.61205 7.35015 8.95093C7.82114 8.2855 8.4304 7.76266 9.17793 7.38242C9.92546 6.99785 10.7356 6.80556 11.6085 6.80556C12.477 6.80556 13.285 6.99785 14.0326 7.38242C14.7844 7.76698 15.3958 8.29198 15.8668 8.95742C16.3421 9.62285 16.6187 10.3553 16.6964 11.1546C16.7094 11.3491 16.677 11.5241 16.5992 11.6796C16.5214 11.8395 16.4048 11.9627 16.2492 12.0491C16.098 12.1398 15.9252 12.1852 15.7307 12.1852H7.49274ZM5.127 4.86112C5.36034 4.86112 5.58071 4.7747 5.78811 4.60186C5.99984 4.4247 6.16836 4.18921 6.29367 3.89538C6.4233 3.59723 6.48811 3.27532 6.48811 2.92964C6.48811 2.59692 6.42546 2.29661 6.30015 2.02871C6.17916 1.75649 6.01281 1.54476 5.80108 1.39353C5.59367 1.24229 5.36898 1.16668 5.127 1.16668C4.88503 1.16668 4.65818 1.24229 4.44645 1.39353C4.23904 1.54044 4.07268 1.75001 3.94737 2.02223C3.82639 2.29013 3.76589 2.5926 3.76589 2.92964C3.76589 3.27532 3.82855 3.59723 3.95386 3.89538C4.08349 4.18921 4.252 4.4247 4.45941 4.60186C4.67114 4.7747 4.89367 4.86112 5.127 4.86112ZM5.127 6.02779C4.65602 6.02779 4.22608 5.88519 3.83719 5.60001C3.45262 5.3105 3.15015 4.9281 2.92978 4.45279C2.70941 3.97316 2.59923 3.46544 2.59923 2.92964C2.59923 2.38952 2.70941 1.89692 2.92978 1.45186C3.15447 1.00248 3.4591 0.648157 3.84367 0.388898C4.23256 0.129639 4.66034 9.53674e-06 5.127 9.53674e-06C5.59367 9.53674e-06 6.01929 0.129639 6.40386 0.388898C6.79274 0.648157 7.09737 1.00248 7.31774 1.45186C7.54244 1.89692 7.65478 2.38952 7.65478 2.92964C7.65478 3.46544 7.5446 3.971 7.32423 4.44631C7.10386 4.92161 6.79923 5.30402 6.41034 5.59353C6.02577 5.88303 5.59799 6.02779 5.127 6.02779ZM11.6085 4.86112C11.8418 4.86112 12.0622 4.7747 12.2696 4.60186C12.4813 4.4247 12.6498 4.18921 12.7752 3.89538C12.9048 3.59723 12.9696 3.27532 12.9696 2.92964C12.9696 2.59692 12.9069 2.29661 12.7816 2.02871C12.6606 1.75649 12.4943 1.54476 12.2826 1.39353C12.0752 1.24229 11.8505 1.16668 11.6085 1.16668C11.3665 1.16668 11.1397 1.24229 10.9279 1.39353C10.7205 1.54044 10.5542 1.75001 10.4289 2.02223C10.3079 2.29013 10.2474 2.5926 10.2474 2.92964C10.2474 3.27532 10.31 3.59723 10.4353 3.89538C10.565 4.18921 10.7335 4.4247 10.9409 4.60186C11.1526 4.7747 11.3752 4.86112 11.6085 4.86112ZM11.6085 6.02779C11.1375 6.02779 10.7076 5.88519 10.3187 5.60001C9.9341 5.3105 9.63163 4.9281 9.41126 4.45279C9.19089 3.97316 9.08071 3.46544 9.08071 2.92964C9.08071 2.38952 9.19089 1.89692 9.41126 1.45186C9.63595 1.00248 9.94058 0.648157 10.3252 0.388898C10.714 0.129639 11.1418 9.53674e-06 11.6085 9.53674e-06C12.0752 9.53674e-06 12.5008 0.129639 12.8853 0.388898C13.2742 0.648157 13.5789 1.00248 13.7992 1.45186C14.0239 1.89692 14.1363 2.38952 14.1363 2.92964C14.1363 3.46544 14.0261 3.971 13.8057 4.44631C13.5853 4.92161 13.2807 5.30402 12.8918 5.59353C12.5073 5.88303 12.0795 6.02779 11.6085 6.02779ZM17.5326 8.77594C17.4764 8.82779 17.4116 8.86884 17.3381 8.89908C17.269 8.92933 17.1955 8.94445 17.1177 8.94445C16.9579 8.94445 16.8196 8.88828 16.7029 8.77594C16.5906 8.65927 16.5344 8.521 16.5344 8.36112C16.5344 8.28334 16.5495 8.20989 16.5798 8.14075C16.61 8.06729 16.6511 8.00248 16.7029 7.94631L21.564 3.08519C21.6202 3.03334 21.6829 2.99229 21.752 2.96205C21.8255 2.9318 21.9011 2.91668 21.9789 2.91668C22.1431 2.91668 22.2813 2.97285 22.3937 3.08519C22.506 3.19754 22.5622 3.33581 22.5622 3.50001C22.5622 3.57779 22.5471 3.6534 22.5168 3.72686C22.4866 3.796 22.4455 3.85865 22.3937 3.91482L17.5326 8.77594ZM22.3937 7.94631C22.4455 8.00248 22.4866 8.06729 22.5168 8.14075C22.5471 8.20989 22.5622 8.28334 22.5622 8.36112C22.5622 8.521 22.506 8.65927 22.3937 8.77594C22.2813 8.88828 22.1431 8.94445 21.9789 8.94445C21.9011 8.94445 21.8255 8.92933 21.752 8.89908C21.6829 8.86884 21.6202 8.82779 21.564 8.77594L16.7029 3.91482C16.6511 3.85865 16.61 3.796 16.5798 3.72686C16.5495 3.6534 16.5344 3.57779 16.5344 3.50001C16.5344 3.33581 16.5906 3.19754 16.7029 3.08519C16.8196 2.97285 16.9579 2.91668 17.1177 2.91668C17.1955 2.91668 17.269 2.9318 17.3381 2.96205C17.4116 2.99229 17.4764 3.03334 17.5326 3.08519L22.3937 7.94631Z" fill="#000"/>
</svg>
