<svg width="22" height="16" viewBox="0 0 22 16" fill="none" xmlns="http://www.w3.org/2000/svg">
<path fill-rule="evenodd" clip-rule="evenodd" d="M6.97709 8.9949C6.37045 8.74041 5.69775 8.6 4.99998 8.6C2.5161 8.6 0.349976 10.3792 0.349976 12.75C0.349976 13.2841 0.794682 13.65 1.26029 13.65H5.33077C5.27778 13.3604 5.24998 13.0601 5.24998 12.7501C5.24998 12.6148 5.25527 12.4814 5.26563 12.35H1.68382C1.90938 11.0216 3.23994 9.9 4.99998 9.9C5.37503 9.9 5.73058 9.95093 6.06009 10.0439C6.31688 9.65538 6.62656 9.30394 6.97709 8.9949Z" fill="black" style="fill:black;fill-opacity:1;"/>
<path fill-rule="evenodd" clip-rule="evenodd" d="M7.68382 12.35H14.3161C14.0906 11.0216 12.76 9.9 11 9.9C9.23994 9.9 7.90938 11.0216 7.68382 12.35ZM6.34998 12.75C6.34998 10.3792 8.51609 8.6 11 8.6C13.4839 8.6 15.65 10.3792 15.65 12.75C15.65 13.2841 15.2053 13.65 14.7397 13.65H7.26029C6.79468 13.65 6.34998 13.2841 6.34998 12.75Z" fill="black" style="fill:black;fill-opacity:1;"/>
<path fill-rule="evenodd" clip-rule="evenodd" d="M11 3.65C10.4806 3.65 9.89998 4.14904 9.89998 5.05859C9.89998 5.50517 10.0502 5.90977 10.2727 6.19164C10.4952 6.47343 10.7582 6.6 11 6.6C11.2417 6.6 11.5048 6.47343 11.7272 6.19164C11.9498 5.90977 12.1 5.50517 12.1 5.05859C12.1 4.14904 11.5194 3.65 11 3.65ZM8.59998 5.05859C8.59998 3.62093 9.5864 2.35 11 2.35C12.4135 2.35 13.4 3.62093 13.4 5.05859C13.4 5.78562 13.1584 6.47673 12.7476 6.99716C12.3367 7.51767 11.7247 7.9 11 7.9C10.2752 7.9 9.66327 7.51767 9.25236 6.99716C8.8415 6.47673 8.59998 5.78562 8.59998 5.05859Z" fill="black" style="fill:black;fill-opacity:1;"/>
<path fill-rule="evenodd" clip-rule="evenodd" d="M4.99998 3.65C4.48055 3.65 3.89998 4.14904 3.89998 5.05859C3.89998 5.50517 4.0502 5.90977 4.27272 6.19164C4.49518 6.47343 4.75824 6.6 4.99998 6.6C5.24172 6.6 5.50477 6.47343 5.72723 6.19164C5.94975 5.90977 6.09998 5.50517 6.09998 5.05859C6.09998 4.14904 5.5194 3.65 4.99998 3.65ZM2.59998 5.05859C2.59998 3.62093 3.5864 2.35 4.99998 2.35C6.41355 2.35 7.39998 3.62093 7.39998 5.05859C7.39998 5.78562 7.15845 6.47673 6.74759 6.99716C6.33668 7.51767 5.72473 7.9 4.99998 7.9C4.27522 7.9 3.66327 7.51767 3.25236 6.99716C2.8415 6.47673 2.59998 5.78562 2.59998 5.05859Z" fill="black" style="fill:black;fill-opacity:1;"/>
<path fill-rule="evenodd" clip-rule="evenodd" d="M16.9953 3.98568C17.4081 3.71538 17.924 3.6 18.5 3.6C19.1867 3.6 19.7834 3.77836 20.2169 4.12822C20.6583 4.48435 20.9 4.99502 20.9 5.58C20.9 6.05249 20.7642 6.41287 20.5533 6.70699C20.3667 6.96716 20.1246 7.16734 19.9252 7.3323C19.9119 7.34333 19.8987 7.3542 19.8858 7.36492C19.6656 7.54761 19.4925 7.6988 19.3662 7.88968C19.248 8.06841 19.1609 8.29902 19.1609 8.64912V8.73913C19.1609 9.10412 18.865 9.4 18.5 9.4C18.135 9.4 17.8391 9.10412 17.8391 8.73913V8.64912C17.8391 8.12483 17.9659 7.71609 18.1693 7.38236C18.368 7.05617 18.6278 6.82253 18.8525 6.63519C18.8882 6.60549 18.9224 6.57708 18.9554 6.54978C19.3755 6.20161 19.5782 6.03361 19.5782 5.66667C19.5782 5.33553 19.4634 5.12445 19.3011 4.98892C19.1289 4.84513 18.8595 4.75088 18.5 4.75088C18.1491 4.75088 17.9156 4.82823 17.7629 4.93683C17.6155 5.04169 17.5065 5.20163 17.4496 5.44448C17.3844 5.72298 17.1375 5.98 16.7918 5.98C16.4134 5.98 16.0555 5.63298 16.1657 5.19555C16.297 4.67464 16.5742 4.26141 16.9953 3.98568Z" fill="black" style="fill:black;fill-opacity:1;"/>
<path fill-rule="evenodd" clip-rule="evenodd" d="M17.75 11C17.75 10.5858 18.0858 10.25 18.5 10.25C18.9142 10.25 19.25 10.5858 19.25 11C19.25 11.4142 18.9142 11.75 18.5 11.75C18.0858 11.75 17.75 11.4142 17.75 11Z" fill="black" style="fill:black;fill-opacity:1;"/>
</svg>