<svg xmlns="http://www.w3.org/2000/svg" width="20" height="20" fill="none"><g clip-path="url(#a)"><path fill="#000" fill-rule="evenodd" d="M10 19.063A9.062 9.062 0 1 0 10 .938a9.062 9.062 0 0 0 0 18.125Zm0-16.667c-.148 0-.376.077-.67.41-.294.33-.592.851-.857 1.557-.235.627-.433 1.37-.58 2.2h4.215a12.632 12.632 0 0 0-.581-2.2c-.265-.706-.563-1.227-.856-1.558-.295-.332-.523-.41-.671-.41Zm2.304 5.625H7.696c-.06.63-.092 1.293-.092 1.979 0 .686.032 1.349.092 1.98h4.608c.06-.631.092-1.294.092-1.98 0-.686-.032-1.349-.092-1.98Zm1.464 3.958a22.564 22.564 0 0 0 0-3.958h3.576c.17.63.26 1.294.26 1.979s-.09 1.348-.26 1.98h-3.576Zm-1.66 1.459H7.893c.147.829.345 1.572.58 2.198.265.707.563 1.227.856 1.559.295.332.523.41.671.41.148 0 .376-.078.67-.41.294-.332.592-.852.857-1.559.235-.626.433-1.37.58-2.198Zm.304 3.775c.178-.325.337-.683.48-1.064a14.4 14.4 0 0 0 .695-2.712h3.198a7.628 7.628 0 0 1-4.373 3.777Zm0-14.427a7.627 7.627 0 0 1 4.373 3.776h-3.198a14.4 14.4 0 0 0-.695-2.71 8.425 8.425 0 0 0-.48-1.065ZM7.587 17.215a8.437 8.437 0 0 1-.48-1.065 14.404 14.404 0 0 1-.694-2.712H3.215a7.627 7.627 0 0 0 4.372 3.777ZM6.232 11.98a22.572 22.572 0 0 1 0-3.958H2.656A7.614 7.614 0 0 0 2.396 10c0 .685.09 1.348.26 1.98h3.576Zm.181-5.416c.165-1.01.4-1.928.695-2.712a8.2 8.2 0 0 1 .48-1.064 7.627 7.627 0 0 0-4.373 3.776h3.198Z" clip-rule="evenodd"/></g><defs><clipPath id="a"><path fill="#fff" d="M0 0h20v20H0z"/></clipPath></defs></svg>