<svg width="16" height="16" fill="none" xmlns="http://www.w3.org/2000/svg"><path d="M11.045 5.354a.65.65 0 0 0-1.09-.708L7.203 8.88l-1.19-1.53a.65.65 0 1 0-1.026.799l1.75 2.25a.65.65 0 0 0 1.058-.045l3.25-5Z" fill="#000"/><path fill-rule="evenodd" clip-rule="evenodd" d="M6.644 14.736a2.15 2.15 0 0 0 2.712 0l2.424-1.97a6.65 6.65 0 0 0 2.43-4.56l.33-3.63a2.15 2.15 0 0 0-1.461-2.235L9.47 1.138a4.65 4.65 0 0 0-2.94 0L2.92 2.341a2.15 2.15 0 0 0-1.46 2.234l.33 3.632a6.65 6.65 0 0 0 2.429 4.559l2.424 1.97Zm1.892-1.01a.85.85 0 0 1-1.072 0l-2.425-1.969a5.35 5.35 0 0 1-1.954-3.668l-.33-3.631a.85.85 0 0 1 .578-.884L6.94 2.372a3.35 3.35 0 0 1 2.118 0l3.608 1.202a.85.85 0 0 1 .578.884l-.33 3.631a5.35 5.35 0 0 1-1.954 3.668l-2.425 1.97Z" fill="#000"/></svg>