<svg width="20" height="20" fill="none" xmlns="http://www.w3.org/2000/svg"><path d="M13.952 6.636a.73.73 0 1 0-1.237-.773l-3.622 5.795-1.857-2.322a.73.73 0 0 0-1.139.911l2.5 3.125a.729.729 0 0 0 1.188-.069l4.167-6.667Z" fill="#000"/><path fill-rule="evenodd" clip-rule="evenodd" d="M8.477 18.857a2.396 2.396 0 0 0 3.046 0l3.322-2.736a9.062 9.062 0 0 0 3.268-6.21l.414-4.767a2.396 2.396 0 0 0-1.665-2.492L11.725 1.03a5.73 5.73 0 0 0-3.45 0L3.138 2.652a2.396 2.396 0 0 0-1.665 2.492l.414 4.766a9.062 9.062 0 0 0 3.267 6.21l3.323 2.737Zm2.119-1.126a.937.937 0 0 1-1.192 0L6.08 14.995a7.604 7.604 0 0 1-2.74-5.211l-.415-4.766a.938.938 0 0 1 .652-.975L8.714 2.42a4.27 4.27 0 0 1 2.572 0l5.137 1.622c.419.132.69.537.651.975l-.414 4.766a7.605 7.605 0 0 1-2.742 5.211l-3.322 2.736Z" fill="#000"/></svg>