<svg width="20" height="20" fill="none" xmlns="http://www.w3.org/2000/svg"><path d="M18.219 9.583h.582c.484 0 .785.527.538.944l-1.301 2.196a.625.625 0 0 1-1.076 0l-1.3-2.196a.625.625 0 0 1 .537-.944h.56a6.771 6.771 0 1 0-1.837 5.067.73.73 0 1 1 1.06 1.002 8.23 8.23 0 1 1 2.238-6.069Z" fill="#000"/><path d="M10.308 6.042c-.19 0-.36.085-.476.216a1.65 1.65 0 0 1-.532.417c-.187.088-.41.145-.715.182a.64.64 0 0 0-.564.634c0 .35.284.634.634.634h.824v5.104a.73.73 0 0 0 1.459 0V6.671a.63.63 0 0 0-.63-.63Z" fill="#000"/></svg>