<svg width="20" height="20" fill="none" xmlns="http://www.w3.org/2000/svg"><path d="M9.063 2.524a.73.73 0 0 1 .708-.75 8.17 8.17 0 0 1 .457 0 .73.73 0 1 1-.04 1.458 6.709 6.709 0 0 0-.375 0 .73.73 0 0 1-.75-.708Zm0 14.957a.73.73 0 0 1 .749-.709c.124.004.25.003.376 0a.73.73 0 1 1 .041 1.458 8.209 8.209 0 0 1-.457 0 .73.73 0 0 1-.71-.749Zm8.415-8.416a.73.73 0 0 1 .75.708c.004.153.004.305 0 .457a.73.73 0 0 1-1.458-.04 6.73 6.73 0 0 0 0-.375.73.73 0 0 1 .708-.75Zm-14.957 0a.73.73 0 0 1 .709.749c-.004.124-.003.25 0 .376a.73.73 0 0 1-1.458.041 8.172 8.172 0 0 1 0-.457.73.73 0 0 1 .749-.71ZM17.01 5.69a.73.73 0 1 0-1.24.765 7 7 0 0 1 .187.325.73.73 0 1 0 1.283-.694 8.112 8.112 0 0 0-.23-.396ZM4.043 13.224a.73.73 0 1 0-1.283.694 8.2 8.2 0 0 0 .23.396.73.73 0 1 0 1.24-.765 6.733 6.733 0 0 1-.187-.325Zm8.885-10.167a.73.73 0 0 1 .987-.295c.135.073.267.149.397.228a.73.73 0 1 1-.764 1.243 6.707 6.707 0 0 0-.325-.188.73.73 0 0 1-.296-.988ZM5.449 16.01a.73.73 0 0 1 1.003-.24c.106.066.215.129.325.189a.73.73 0 0 1-.692 1.283 8.219 8.219 0 0 1-.397-.229.73.73 0 0 1-.24-1.003Zm.239-13.019a.73.73 0 1 0 .765 1.242c.107-.066.215-.129.325-.188a.73.73 0 0 0-.694-1.283 8.164 8.164 0 0 0-.396.23Zm7.534 12.969a.73.73 0 1 0 .694 1.282c.134-.073.266-.149.396-.23a.73.73 0 1 0-.765-1.24 6.75 6.75 0 0 1-.325.187ZM3.055 7.075a.73.73 0 0 1-.295-.988 8.18 8.18 0 0 1 .229-.397.73.73 0 0 1 1.242.764 6.712 6.712 0 0 0-.188.325.73.73 0 0 1-.988.296Zm12.954 7.478a.73.73 0 0 1-.24-1.003 6.68 6.68 0 0 0 .188-.325.73.73 0 0 1 1.283.692 8.136 8.136 0 0 1-.228.397.73.73 0 0 1-1.003.24ZM9.831 6.258a.63.63 0 0 1 1.106.413v6.558a.73.73 0 1 1-1.458 0V8.125h-.824a.634.634 0 0 1-.634-.634.64.64 0 0 1 .564-.634c.304-.037.528-.094.714-.182a1.63 1.63 0 0 0 .532-.417Z" fill="#000"/></svg>