<svg width="20" height="20" fill="none" xmlns="http://www.w3.org/2000/svg"><path d="M2.713 5.954a8.333 8.333 0 0 0 11.333 11.333l-1.239-1.238a6.667 6.667 0 0 1-8.856-8.856l-1.238-1.24Z" fill="#000"/><path d="M9.375 12.616v.613a.833.833 0 0 0 1.302.69l-1.302-1.303ZM11.041 7.8 9.588 6.349c.058-.05.114-.103.168-.163a.734.734 0 0 1 1.285.486v1.13Z" fill="#000"/><path d="M7.192 3.952 5.954 2.713a8.334 8.334 0 0 1 12.363 6.766h.484a.73.73 0 0 1 .627 1.101l-1.3 2.195a.73.73 0 0 1-1.255 0l-1.301-2.195a.73.73 0 0 1 .627-1.1h.447a6.667 6.667 0 0 0-9.454-5.528ZM2.327 2.327a.833.833 0 0 1 1.179 0L17.648 16.47a.833.833 0 0 1-1.179 1.178L2.327 3.506a.833.833 0 0 1 0-1.179Z" fill="#000"/></svg>