<svg width="20" height="20" fill="none" xmlns="http://www.w3.org/2000/svg"><path d="M8.959 2.527a.833.833 0 0 1 .809-.857c.155-.004.31-.004.463 0a.833.833 0 1 1-.045 1.666 6.605 6.605 0 0 0-.37 0 .833.833 0 0 1-.857-.81Zm0 14.951a.833.833 0 0 1 .856-.81c.123.003.246.003.37 0a.833.833 0 0 1 .047 1.666c-.155.004-.31.004-.463 0a.833.833 0 0 1-.81-.856Zm8.516-8.518c.46-.013.844.35.857.81.005.155.005.31 0 .463a.833.833 0 1 1-1.666-.046 6.615 6.615 0 0 0 0-.37.833.833 0 0 1 .81-.856Zm-14.951 0c.46.013.823.396.81.856a6.616 6.616 0 0 0 0 .37.833.833 0 1 1-1.666.048 8.275 8.275 0 0 1 0-.463.833.833 0 0 1 .856-.81ZM17.1 5.635a.833.833 0 0 0-1.42.874c.066.106.127.213.186.32a.833.833 0 1 0 1.466-.793 8.305 8.305 0 0 0-.232-.401ZM4.134 13.174a.833.833 0 1 0-1.465.794 7.7 7.7 0 0 0 .232.401.833.833 0 0 0 1.419-.874 6.646 6.646 0 0 1-.186-.32Zm8.702-10.166a.833.833 0 0 1 1.13-.338c.136.074.27.151.4.232a.833.833 0 0 1-.872 1.42 6.58 6.58 0 0 0-.32-.185.833.833 0 0 1-.338-1.13ZM5.36 15.956a.833.833 0 0 1 1.147-.274c.104.064.211.126.32.185a.833.833 0 0 1-.792 1.466 8.234 8.234 0 0 1-.4-.23.833.833 0 0 1-.275-1.147Zm.273-13.054a.833.833 0 0 0 .875 1.42c.105-.066.212-.127.32-.186a.833.833 0 0 0-.794-1.465c-.135.073-.269.15-.4.231Zm7.54 12.966a.833.833 0 0 0 .793 1.465c.136-.073.27-.15.401-.232a.833.833 0 1 0-.874-1.418 6.706 6.706 0 0 1-.32.185ZM3.006 7.166a.833.833 0 0 1-.337-1.129c.073-.136.15-.27.23-.401a.833.833 0 1 1 1.421.872 6.617 6.617 0 0 0-.185.32.833.833 0 0 1-1.129.338Zm12.948 7.476a.833.833 0 0 1-.274-1.146 6.65 6.65 0 0 0 .185-.32.833.833 0 0 1 1.467.79 7.926 7.926 0 0 1-.232.402.833.833 0 0 1-1.146.274Zm-5.646-8.705c-.222 0-.418.1-.552.248-.315.35-.681.496-1.287.569a.744.744 0 0 0-.656.737c0 .407.33.738.738.738h.824v5a.833.833 0 1 0 1.667 0V6.671a.734.734 0 0 0-.734-.734Z" fill="#000"/></svg>