<svg width="20" height="20" fill="none" xmlns="http://www.w3.org/2000/svg"><path d="M5.417 7.292a.625.625 0 1 0 0 1.25h.416a.625.625 0 1 0 0-1.25h-.416Zm2.291.625c0-.345.28-.625.625-.625h.417a.625.625 0 1 1 0 1.25h-.417a.625.625 0 0 1-.625-.625Zm2.929.003a.625.625 0 0 1 .736-.491l.416.083a.625.625 0 1 1-.245 1.226l-.417-.083a.625.625 0 0 1-.49-.736Zm3.309 1.916a.625.625 0 1 0-1.226.245l.084.417a.625.625 0 1 0 1.226-.246l-.084-.416Zm-.404 2.456c.345 0 .625.28.625.625v.416a.625.625 0 0 1-1.25 0v-.416c0-.345.28-.625.625-.625Z" fill="#000"/><path fill-rule="evenodd" clip-rule="evenodd" d="M6.719 2.604c-.79 0-1.428 0-1.944.042-.532.044-.998.136-1.43.356A3.646 3.646 0 0 0 1.75 4.595c-.22.432-.311.899-.355 1.43-.042.516-.042 1.154-.042 1.944v4.062c0 .79 0 1.428.042 1.944.044.532.135.998.356 1.43a3.646 3.646 0 0 0 1.593 1.594c.432.22.898.311 1.43.355.516.042 1.153.042 1.944.042h6.562c.79 0 1.428 0 1.944-.042.531-.044.998-.136 1.43-.355a3.646 3.646 0 0 0 1.593-1.594c.22-.432.312-.898.356-1.43.042-.516.042-1.153.042-1.944V7.97c0-.79 0-1.428-.042-1.944-.044-.531-.136-.998-.356-1.43a3.646 3.646 0 0 0-1.593-1.593c-.432-.22-.899-.312-1.43-.356-.516-.042-1.154-.042-1.944-.042H6.72ZM4.007 4.301c.192-.098.445-.165.887-.201.45-.037 1.027-.037 1.856-.037h6.5c.829 0 1.406 0 1.856.037.441.036.695.103.887.2.412.21.746.545.956.957.098.192.165.445.201.887.037.45.038 1.027.038 1.856v4c0 .829-.001 1.406-.038 1.856-.036.442-.103.695-.201.887-.21.412-.544.746-.956.956-.192.098-.446.165-.887.201-.261.022-.567.03-.94.035v-.102a.625.625 0 1 0-1.25 0v.104H6.75c-.829 0-1.407 0-1.856-.037-.442-.036-.695-.103-.887-.2a2.187 2.187 0 0 1-.956-.957c-.098-.192-.165-.445-.201-.887-.037-.45-.038-1.027-.038-1.856V8.542h.105a.625.625 0 0 0 0-1.25h-.103c.002-.47.01-.84.036-1.148.036-.442.103-.695.2-.887.21-.412.545-.746.957-.956Z" fill="#000"/></svg>