<svg width="20" height="20" fill="none" xmlns="http://www.w3.org/2000/svg"><path d="M9.792 2.708a.625.625 0 0 0 0 1.25h.416a.625.625 0 1 0 0-1.25h-.416Z" fill="#000"/><path fill-rule="evenodd" clip-rule="evenodd" d="M5.387 7.187c-.558 0-1.02 0-1.398.031-.393.032-.756.101-1.1.276-.528.27-.959.7-1.228 1.23-.175.342-.244.706-.276 1.098-.03.378-.03.84-.03 1.398v2.143c0 .558 0 1.02.03 1.398.032.393.101.756.276 1.1.27.528.7.959 1.229 1.228.343.175.706.244 1.099.276.377.03.84.03 1.398.03h4.643c.558 0 1.02 0 1.398-.03.392-.032.756-.101 1.099-.276.529-.27.96-.7 1.229-1.229.175-.343.244-.707.276-1.099.03-.377.03-.84.03-1.398V11.22c0-.558 0-1.02-.03-1.398-.032-.392-.101-.756-.276-1.099-.27-.53-.7-.96-1.23-1.229-.342-.175-.706-.244-1.098-.276-.378-.03-.84-.03-1.398-.03H5.387ZM3.552 8.793c.103-.052.253-.097.556-.121.31-.026.713-.026 1.309-.026H10c.595 0 .998 0 1.309.026.302.024.453.069.556.121.255.13.462.337.591.592.053.103.098.254.122.556.026.31.026.714.026 1.309v2.083c0 .596 0 .998-.026 1.31-.024.302-.069.452-.121.555a1.36 1.36 0 0 1-.592.592c-.103.052-.254.097-.556.122-.31.025-.714.025-1.309.025H5.417c-.596 0-.998 0-1.31-.025-.302-.025-.452-.07-.555-.122a1.354 1.354 0 0 1-.592-.592c-.052-.103-.097-.253-.122-.556-.025-.31-.026-.713-.026-1.309V11.25c0-.595.001-.998.026-1.309.025-.302.07-.453.122-.556.13-.255.337-.462.592-.592Z" fill="#000"/><path d="M12.083 3.333c0-.345.28-.625.625-.625h.417a.625.625 0 1 1 0 1.25h-.417a.625.625 0 0 1-.625-.625Zm-4.791-.625a.625.625 0 0 1 0 1.25h-.417a.625.625 0 1 1 0-1.25h.417Zm7.72.628a.625.625 0 0 1 .736-.49l.416.083a.625.625 0 0 1-.245 1.225l-.417-.083a.625.625 0 0 1-.49-.735Zm-10.76-.491a.625.625 0 1 1 .246 1.226l-.417.083a.625.625 0 0 1-.245-1.225l.416-.084Zm13.334 1.917a.625.625 0 0 1 .735.49l.083.417a.625.625 0 1 1-1.225.245l-.083-.416a.625.625 0 0 1 .49-.736Zm-15.907.49a.625.625 0 1 1 1.226.246l-.084.416a.625.625 0 1 1-1.226-.245l.084-.417Zm16.238 2.456c.345 0 .625.28.625.625v.417a.625.625 0 0 1-1.25 0v-.417c0-.345.28-.625.625-.625Zm-2.169 9.446a.625.625 0 0 1-.246-1.225l.417-.084a.625.625 0 1 1 .245 1.226l-.416.083Zm1.838-1.916a.625.625 0 0 0 .735-.49l.083-.417a.625.625 0 1 0-1.225-.245l-.083.416a.625.625 0 0 0 .49.736Zm.956-3.571a.625.625 0 0 1-1.25 0v-.417a.625.625 0 1 1 1.25 0v.417Z" fill="#000"/></svg>