<svg width="20" height="20" fill="none" xmlns="http://www.w3.org/2000/svg"><path d="M7.085 14.062a1.25 1.25 0 1 0-2.5 0 1.25 1.25 0 0 0 2.5 0Z" fill="#000"/><path d="M14.756 1.77c-.304 0-.596.122-.81.337l-5.42 5.426a5.731 5.731 0 0 0-7.092 7.282 5.731 5.731 0 1 0 10.829-3.75l.749-.752h1.156c.633 0 1.146-.514 1.146-1.146v-1.77h1.77c.632 0 1.145-.513 1.145-1.146V2.917c0-.633-.513-1.146-1.146-1.146h-2.327Zm.13 1.46h1.885v2.709H15c-.633 0-1.146.513-1.146 1.145v1.77h-.973c-.306 0-.598.122-.813.338l-1.543 1.552.218.462A4.27 4.27 0 1 1 8.45 9.05l.446.177 5.99-5.997Z" fill="#000"/></svg>