<svg width="20" height="20" fill="none" xmlns="http://www.w3.org/2000/svg"><path d="M11.183 1.85c-.877-.76-2.24-.137-2.24 1.023v1.89c-4.111.56-7.676 4.039-7.676 8.341 0 1.614.455 3.123 1.243 4.405.343.558.956.513 1.28.369.318-.142.674-.49.674-1.006 0-1.141.336-2.207 1.103-2.995.667-.685 1.73-1.231 3.375-1.38v1.713c0 1.16 1.364 1.783 2.241 1.024l6.545-5.669a1.354 1.354 0 0 0 0-2.047L11.183 1.85Zm-.782 1.25 6.282 5.44-6.282 5.441v-2.254A.73.73 0 0 0 9.659 11c-2.348.04-4.037.731-5.137 1.86-.741.762-1.174 1.68-1.376 2.634a6.947 6.947 0 0 1-.42-2.389c0-3.664 3.259-6.745 6.986-6.95a.73.73 0 0 0 .689-.729V3.101Z" fill="#000"/></svg>