<svg width="16" height="16" fill="none" xmlns="http://www.w3.org/2000/svg"><path fill-rule="evenodd" clip-rule="evenodd" d="M9.378 1.704c-.745-.645-1.903-.116-1.903.87v1.323c-3.365.406-6.307 3.237-6.307 6.753 0 1.303.368 2.523 1.005 3.559.298.485.83.444 1.107.321.271-.12.579-.42.579-.866 0-.915.273-1.775.895-2.405.535-.542 1.39-.977 2.72-1.084v1.252c0 .985 1.159 1.514 1.904.869l5.11-4.427a1.15 1.15 0 0 0 0-1.738l-5.11-4.427Zm-.603 1.198L13.507 7l-4.732 4.098V9.5a.65.65 0 0 0-.65-.65c-1.957 0-3.372.56-4.296 1.495a4.324 4.324 0 0 0-1.103 1.974 5.5 5.5 0 0 1-.258-1.67c0-2.94 2.665-5.413 5.675-5.5a.65.65 0 0 0 .632-.649V2.902Z" fill="#000"/></svg>