<svg width="16" height="16" fill="none" xmlns="http://www.w3.org/2000/svg"><g clip-path="url(#official-compact__a)"><path fill-rule="evenodd" clip-rule="evenodd" d="M6.911.71a1.4 1.4 0 0 1 2.178 0l.667.826a.6.6 0 0 0 .623.202l1.025-.275a1.4 1.4 0 0 1 1.761 1.28l.055 1.06a.6.6 0 0 0 .385.53l.991.379a1.4 1.4 0 0 1 .673 2.071l-.579.89a.6.6 0 0 0 0 .654l.58.89a1.4 1.4 0 0 1-.674 2.071l-.991.38a.6.6 0 0 0-.385.53l-.055 1.06a1.4 1.4 0 0 1-1.761 1.28l-1.025-.276a.6.6 0 0 0-.623.202l-.667.825a1.4 1.4 0 0 1-2.178 0l-.667-.825a.6.6 0 0 0-.623-.202l-1.025.275a1.4 1.4 0 0 1-1.761-1.28l-.055-1.06a.6.6 0 0 0-.385-.53l-.991-.379a1.4 1.4 0 0 1-.673-2.07l.579-.89a.6.6 0 0 0 0-.655l-.579-.89a1.4 1.4 0 0 1 .673-2.071l.991-.38a.6.6 0 0 0 .385-.529l.055-1.06a1.4 1.4 0 0 1 1.761-1.28l1.025.275a.6.6 0 0 0 .623-.202L6.91.711Zm4.009 5.27a.65.65 0 1 0-1.09-.71L7.078 9.506l-1.19-1.53a.65.65 0 0 0-1.026.8l1.75 2.25a.65.65 0 0 0 1.058-.046l3.25-5Z" fill="#000"/></g><defs><clipPath id="official-compact__a"><path fill="#fff" d="M0 0h16v16H0z"/></clipPath></defs></svg>