<svg width="16" height="16" viewBox="0 0 16 16" fill="none" xmlns="http://www.w3.org/2000/svg">
<path fill-rule="evenodd" clip-rule="evenodd" d="M6.71684 1.55346C7.37724 0.736493 8.6228 0.736493 9.2832 1.55346L9.71883 2.09237C9.80587 2.20004 9.9482 2.24629 10.0819 2.21034L10.7511 2.03041C11.7656 1.75764 12.7733 2.48976 12.8273 3.53888L12.863 4.23092C12.8701 4.36919 12.9581 4.49026 13.0874 4.53977L13.7345 4.78755C14.7156 5.16317 15.1005 6.34777 14.5276 7.22831L14.1497 7.80915C14.0742 7.9252 14.0742 8.07485 14.1497 8.1909L14.5276 8.77174C15.1005 9.65228 14.7156 10.8369 13.7345 11.2125L13.0874 11.4603C12.9581 11.5098 12.8701 11.6309 12.863 11.7691L12.8273 12.4612C12.7733 13.5103 11.7656 14.2424 10.7511 13.9696L10.0819 13.7897C9.9482 13.7538 9.80587 13.8 9.71884 13.9077L9.2832 14.4466C8.6228 15.2636 7.37724 15.2636 6.71684 14.4466L6.2812 13.9077C6.19417 13.8 6.05184 13.7538 5.91814 13.7897L5.24894 13.9696C4.23446 14.2424 3.22678 13.5103 3.17271 12.4612L3.13703 11.7691C3.12991 11.6309 3.04194 11.5098 2.91265 11.4603L2.2655 11.2125C1.28444 10.8369 0.899538 9.65228 1.47245 8.77174L1.85036 8.1909C1.92587 8.07485 1.92587 7.9252 1.85036 7.80915L1.47245 7.22831C0.899538 6.34777 1.28444 5.16317 2.2655 4.78755L2.91264 4.53977C3.04194 4.49026 3.12991 4.36919 3.13703 4.23092L3.17271 3.53888C3.22678 2.48977 4.23446 1.75764 5.24894 2.03041L5.91814 2.21034C6.05184 2.24629 6.19417 2.20004 6.2812 2.09237L6.71684 1.55346ZM8.27221 2.37071C8.13212 2.19741 7.86792 2.19741 7.72783 2.37071L7.2922 2.90961C6.88188 3.41721 6.2109 3.63522 5.58059 3.46575L4.9114 3.28582C4.6962 3.22796 4.48245 3.38326 4.47098 3.6058L4.43531 4.29784C4.40171 4.94968 3.98703 5.52044 3.37748 5.75383L2.73033 6.0016C2.52223 6.08128 2.44058 6.33256 2.56211 6.51934L2.94002 7.10018C3.29598 7.64728 3.29598 8.35278 2.94002 8.89987L2.56211 9.48071C2.44058 9.66749 2.52223 9.91877 2.73033 9.99845L3.37748 10.2462C3.98703 10.4796 4.40171 11.0504 4.43531 11.7022L4.47098 12.3943C4.48245 12.6168 4.6962 12.7721 4.9114 12.7142L5.58059 12.5343C6.21091 12.3648 6.88188 12.5828 7.2922 13.0904L7.72783 13.6293C7.86792 13.8026 8.13212 13.8026 8.27221 13.6293L8.70784 13.0904C9.11816 12.5828 9.78914 12.3648 10.4194 12.5343L11.0886 12.7142C11.3038 12.7721 11.5176 12.6168 11.5291 12.3943L11.5647 11.7022C11.5983 11.0504 12.013 10.4796 12.6226 10.2462L13.2697 9.99845C13.4778 9.91877 13.5595 9.66749 13.4379 9.48071L13.06 8.89987C12.7041 8.35278 12.7041 7.64727 13.06 7.10018L13.4379 6.51934C13.5595 6.33256 13.4778 6.08128 13.2697 6.0016L12.6226 5.75382C12.013 5.52044 11.5983 4.94968 11.5647 4.29784L11.5291 3.6058C11.5176 3.38326 11.3038 3.22796 11.0886 3.28582L10.4194 3.46575C9.78913 3.63522 9.11816 3.41721 8.70784 2.90961L8.27221 2.37071Z" fill="black" style="fill:black;fill-opacity:1;"/>
<path fill-rule="evenodd" clip-rule="evenodd" d="M10.3543 5.45504C10.6553 5.65068 10.7407 6.05328 10.545 6.35427L7.62001 10.8543C7.50541 11.0306 7.31261 11.1405 7.10253 11.1494C6.89245 11.1583 6.69104 11.0651 6.56194 10.8991L4.98694 8.87409C4.76655 8.59072 4.81759 8.18234 5.10096 7.96195C5.38432 7.74155 5.7927 7.7926 6.0131 8.07597L7.02759 9.38031L9.45503 5.64578C9.65067 5.3448 10.0533 5.2594 10.3543 5.45504Z" fill="black" style="fill:black;fill-opacity:1;"/>
</svg>