<svg width="20" height="20" fill="none" xmlns="http://www.w3.org/2000/svg"><path fill-rule="evenodd" clip-rule="evenodd" d="M8.704 1.357a1.667 1.667 0 0 1 2.592 0l.738.913a.833.833 0 0 0 .864.28l1.133-.304A1.667 1.667 0 0 1 16.13 3.77l.06 1.172a.833.833 0 0 0 .534.735l1.096.42a1.666 1.666 0 0 1 .801 2.465l-.64.984a.833.833 0 0 0 0 .909l.64.983c.579.89.19 2.086-.8 2.465l-1.097.42a.833.833 0 0 0-.534.735l-.06 1.172a1.667 1.667 0 0 1-2.098 1.524l-1.133-.305a.833.833 0 0 0-.864.281l-.738.913a1.667 1.667 0 0 1-2.592 0l-.738-.913a.833.833 0 0 0-.864-.28l-1.134.304a1.667 1.667 0 0 1-2.097-1.524l-.06-1.172a.833.833 0 0 0-.534-.735l-1.096-.42a1.667 1.667 0 0 1-.801-2.465l.64-.984a.833.833 0 0 0 0-.908l-.64-.984a1.667 1.667 0 0 1 .8-2.465l1.097-.42a.833.833 0 0 0 .534-.735l.06-1.172a1.667 1.667 0 0 1 2.097-1.524l1.134.305a.833.833 0 0 0 .864-.281l.738-.913Zm5.248 5.904a.73.73 0 0 0-1.237-.772l-3.622 5.794-1.857-2.322a.73.73 0 0 0-1.139.911l2.5 3.125a.729.729 0 0 0 1.188-.069l4.167-6.667Z" fill="#000"/></svg>