<svg width="20" height="20" fill="none" xmlns="http://www.w3.org/2000/svg"><path d="M19.063 7.47c0-.558 0-1.02-.031-1.398-.032-.392-.101-.756-.276-1.099a2.81 2.81 0 0 0-1.23-1.229c-.342-.175-.706-.244-1.098-.276-.378-.03-.84-.03-1.398-.03H4.97c-.558 0-1.02 0-1.398.03-.392.032-.756.101-1.099.276-.529.27-.96.7-1.229 1.23-.175.342-.244.706-.276 1.098-.03.378-.03.84-.03 1.398v5.06c0 .558 0 1.02.03 1.398.032.392.101.756.276 1.099.27.53.7.96 1.23 1.229.342.175.706.244 1.098.276.378.03.84.03 1.398.03h10.06c.558 0 1.02 0 1.398-.03.392-.032.756-.101 1.099-.276.53-.27.96-.7 1.229-1.23.175-.342.244-.706.276-1.098.03-.378.03-.84.03-1.398V7.47Zm-1.606-1.835c.052.103.096.254.121.556.017.21.023.463.025.788H2.397c.002-.325.008-.578.025-.788.024-.302.069-.453.121-.556.13-.255.337-.462.592-.592.103-.052.254-.096.556-.121.31-.026.714-.026 1.309-.026h10c.595 0 .998 0 1.309.026.302.025.453.069.556.121.255.13.462.337.592.592ZM2.396 12.5V8.854h15.208V12.5c0 .595 0 .998-.026 1.309-.024.302-.069.453-.121.556-.13.255-.337.462-.592.592-.103.052-.254.096-.556.121-.31.026-.714.026-1.309.026H5c-.595 0-.998 0-1.309-.026-.302-.024-.453-.069-.556-.121a1.355 1.355 0 0 1-.592-.592c-.052-.103-.097-.254-.121-.556-.026-.31-.026-.714-.026-1.309Z" fill="#000"/></svg>