<svg width="16" height="16" fill="none" xmlns="http://www.w3.org/2000/svg"><path fill-rule="evenodd" clip-rule="evenodd" d="M2.475 4.93C2.475 3.415 3.525 2.1 5 2.1c1.476 0 2.525 1.315 2.525 2.83C7.525 6.387 6.523 7.9 5 7.9S2.475 6.387 2.475 4.93ZM5 3.4c-.595 0-1.225.559-1.225 1.53 0 1.027.677 1.67 1.225 1.67s1.225-.643 1.225-1.67c0-.971-.63-1.53-1.225-1.53ZM.1 12.75C.1 10.346 2.418 8.6 5 8.6c2.583 0 4.9 1.746 4.9 4.15 0 .536-.447.9-.91.9H1.01a.904.904 0 0 1-.91-.9Zm8.463-.4C8.321 11.045 6.918 9.9 5 9.9c-1.918 0-3.321 1.145-3.563 2.45h7.126Z" fill="#000"/><path d="M15.545 5.354a.65.65 0 0 0-1.09-.708l-2.59 3.984-1.102-1.417a.65.65 0 0 0-1.026.799l1.662 2.137a.65.65 0 0 0 1.059-.045l3.087-4.75Z" fill="#000"/></svg>