<svg width="16" height="16" fill="none" xmlns="http://www.w3.org/2000/svg"><path fill-rule="evenodd" clip-rule="evenodd" d="M8 .85c-1.693 0-2.9 1.535-2.9 3.314 0 .899.297 1.75.798 2.389C6.398 7.19 7.135 7.65 8 7.65c.865 0 1.602-.459 2.102-1.097.501-.639.798-1.49.798-2.389C10.9 2.385 9.693.85 8 .85ZM6.4 4.164c0-1.259.808-2.014 1.6-2.014s1.6.755 1.6 2.014c0 .62-.207 1.187-.52 1.586-.314.4-.702.6-1.08.6-.378 0-.766-.2-1.08-.6-.313-.4-.52-.966-.52-1.586ZM8 8.35c-2.84 0-5.348 1.631-5.994 3.99-.138.503.018.977.32 1.306.294.319.723.504 1.174.504h9c.451 0 .88-.185 1.174-.505a1.37 1.37 0 0 0 .32-1.305C13.348 9.981 10.84 8.35 8 8.35Zm-4.74 4.333C3.715 11.023 5.595 9.65 8 9.65c2.405 0 4.285 1.373 4.74 3.033a.073.073 0 0 1 .003.04.105.105 0 0 1-.026.043.3.3 0 0 1-.217.084h-9a.3.3 0 0 1-.217-.084.104.104 0 0 1-.026-.042c-.001-.006-.003-.018.003-.04Z" fill="#000"/></svg>