<svg width="16" height="16" fill="none" xmlns="http://www.w3.org/2000/svg"><path fill-rule="evenodd" clip-rule="evenodd" d="M8.475 4.93c0-1.515 1.05-2.83 2.525-2.83 1.476 0 2.525 1.315 2.525 2.83 0 1.457-1.002 2.97-2.525 2.97S8.475 6.387 8.475 4.93ZM11 3.4c-.595 0-1.225.559-1.225 1.53 0 1.027.677 1.67 1.225 1.67s1.225-.643 1.225-1.67c0-.971-.63-1.53-1.225-1.53Zm-4.9 9.35c0-2.404 2.318-4.15 4.9-4.15 2.582 0 4.9 1.746 4.9 4.15 0 .536-.447.9-.91.9H7.01a.904.904 0 0 1-.91-.9Zm8.463-.4C14.321 11.045 12.918 9.9 11 9.9c-1.918 0-3.321 1.145-3.563 2.45h7.126Z" fill="#000"/><path d="M6 8.15a.65.65 0 0 0 0-1.3H1.5a.65.65 0 1 0 0 1.3H6Z" fill="#000"/></svg>