<svg width="16" height="16" fill="none" xmlns="http://www.w3.org/2000/svg"><path fill-rule="evenodd" clip-rule="evenodd" d="M11 2.1c-1.476 0-2.525 1.315-2.525 2.83C8.475 6.387 9.477 7.9 11 7.9s2.525-1.513 2.525-2.97c0-1.515-1.049-2.83-2.525-2.83ZM9.775 4.93c0-.971.63-1.53 1.225-1.53.595 0 1.225.559 1.225 1.53 0 1.027-.677 1.67-1.225 1.67s-1.225-.643-1.225-1.67ZM11 8.6c-2.582 0-4.9 1.746-4.9 4.15 0 .536.447.9.911.9h7.978c.464 0 .911-.364.911-.9 0-2.404-2.318-4.15-4.9-4.15Zm0 1.3c1.918 0 3.321 1.145 3.563 2.45H7.437C7.68 11.045 9.082 9.9 11 9.9Z" fill="#000"/><path d="M3.75 4.1a.65.65 0 0 1 .65.65v2.1h2.1a.65.65 0 0 1 0 1.3H4.4v2.1a.65.65 0 1 1-1.3 0v-2.1H1a.65.65 0 0 1 0-1.3h2.1v-2.1a.65.65 0 0 1 .65-.65Z" fill="#000"/></svg>