<svg width="16" height="16" viewBox="0 0 16 16" fill="none" xmlns="http://www.w3.org/2000/svg">
<path fill-rule="evenodd" clip-rule="evenodd" d="M4.99998 3.39998C4.40487 3.39998 3.77498 3.95875 3.77498 4.92966C3.77498 5.95712 4.45204 6.59998 4.99998 6.59998C5.54791 6.59998 6.22498 5.95712 6.22498 4.92966C6.22498 3.95875 5.59508 3.39998 4.99998 3.39998ZM2.47498 4.92966C2.47498 3.4153 3.52401 2.09998 4.99998 2.09998C6.47594 2.09998 7.52498 3.4153 7.52498 4.92966C7.52498 6.38749 6.52311 7.89998 4.99998 7.89998C3.47684 7.89998 2.47498 6.38749 2.47498 4.92966Z" fill="black" style="fill:black;fill-opacity:1;"/>
<path fill-rule="evenodd" clip-rule="evenodd" d="M1.43699 12.35H8.56296C8.32128 11.0449 6.91792 9.89998 4.99998 9.89998C3.08203 9.89998 1.67867 11.0449 1.43699 12.35ZM0.0999756 12.75C0.0999756 10.3456 2.41754 8.59998 4.99998 8.59998C7.58241 8.59998 9.89997 10.3456 9.89997 12.75C9.89997 13.2864 9.4526 13.65 8.989 13.65H1.01095C0.547352 13.65 0.0999756 13.2864 0.0999756 12.75Z" fill="black" style="fill:black;fill-opacity:1;"/>
<path fill-rule="evenodd" clip-rule="evenodd" d="M10.9953 3.98566C11.4081 3.71536 11.924 3.59998 12.5 3.59998C13.1867 3.59998 13.7834 3.77834 14.2169 4.12819C14.6583 4.48433 14.9 4.995 14.9 5.57998C14.9 6.05247 14.7642 6.41285 14.5533 6.70697C14.3667 6.96713 14.1246 7.16732 13.9252 7.33228C13.9119 7.3433 13.8987 7.35417 13.8858 7.36489C13.6656 7.54758 13.4925 7.69878 13.3662 7.88966C13.248 8.06839 13.1608 8.29899 13.1608 8.6491V8.73911C13.1608 9.10409 12.865 9.39998 12.5 9.39998C12.135 9.39998 11.8391 9.10409 11.8391 8.73911V8.6491C11.8391 8.12481 11.9659 7.71606 12.1692 7.38234C12.368 7.05615 12.6278 6.82251 12.8525 6.63516C12.8882 6.60547 12.9224 6.57706 12.9554 6.54976C13.3755 6.20159 13.5782 6.03359 13.5782 5.66664C13.5782 5.33551 13.4634 5.12442 13.3011 4.9889C13.1289 4.84511 12.8594 4.75085 12.5 4.75085C12.1491 4.75085 11.9156 4.82821 11.7629 4.93681C11.6155 5.04167 11.5065 5.20161 11.4496 5.44446C11.3844 5.72295 11.1375 5.97998 10.7918 5.97998C10.4134 5.97998 10.0555 5.63296 10.1657 5.19553C10.297 4.67462 10.5742 4.26139 10.9953 3.98566Z" fill="black" style="fill:black;fill-opacity:1;"/>
<path fill-rule="evenodd" clip-rule="evenodd" d="M11.75 11C11.75 10.5858 12.0858 10.25 12.5 10.25C12.9142 10.25 13.25 10.5858 13.25 11C13.25 11.4142 12.9142 11.75 12.5 11.75C12.0858 11.75 11.75 11.4142 11.75 11Z" fill="black" style="fill:black;fill-opacity:1;"/>
</svg>