<svg width="20" height="20" fill="none" xmlns="http://www.w3.org/2000/svg"><path fill-rule="evenodd" clip-rule="evenodd" d="M10 .938c-2.184 0-3.75 2.01-3.75 4.361 0 1.19.387 2.315 1.037 3.156.65.842 1.6 1.44 2.713 1.44 1.112 0 2.063-.598 2.713-1.44.65-.841 1.037-1.967 1.037-3.156 0-2.35-1.567-4.362-3.75-4.362Zm-2.292 4.36c0-1.79 1.139-2.903 2.292-2.903 1.153 0 2.291 1.113 2.291 2.903 0 .883-.289 1.691-.732 2.265-.444.575-1.003.873-1.56.873-.556 0-1.114-.298-1.558-.873-.443-.574-.733-1.382-.733-2.265ZM10 10.938c-3.825 0-7.166 2.34-7.731 5.608-.17.985.66 1.683 1.48 1.683h12.5c.822 0 1.652-.698 1.482-1.683-.566-3.268-3.907-5.608-7.731-5.608Zm-6.288 5.825c.43-2.375 2.987-4.367 6.288-4.367 3.3 0 5.858 1.992 6.288 4.367a.097.097 0 0 1-.038.008H3.75a.096.096 0 0 1-.038-.008Z" fill="#000"/></svg>