<svg width="16" height="16" fill="none" xmlns="http://www.w3.org/2000/svg"><g clip-path="url(#person-circle-compact__a)" fill-rule="evenodd" clip-rule="evenodd" fill="#000"><path d="M5.475 6.555c0-1.515 1.049-2.83 2.525-2.83s2.525 1.315 2.525 2.83c0 1.458-1.002 2.97-2.525 2.97s-2.525-1.512-2.525-2.97ZM8 5.025c-.595 0-1.225.559-1.225 1.53 0 1.027.677 1.67 1.225 1.67s1.225-.643 1.225-1.67c0-.971-.63-1.53-1.225-1.53Z"/><path d="M.85 8a7.15 7.15 0 1 1 14.3 0A7.15 7.15 0 0 1 .85 8ZM8 2.15a5.85 5.85 0 0 0-4.242 9.878c.202-.221.43-.423.68-.603.936-.677 2.198-1.075 3.562-1.075 1.364 0 2.626.398 3.563 1.075.248.18.477.382.68.603A5.85 5.85 0 0 0 8 2.15Zm3.248 10.717a3.145 3.145 0 0 0-.447-.388c-.691-.5-1.68-.829-2.801-.829-1.121 0-2.11.33-2.801.829a3.147 3.147 0 0 0-.447.388c.93.62 2.046.983 3.248.983a5.823 5.823 0 0 0 3.248-.983Z"/></g><defs><clipPath id="person-circle-compact__a"><path fill="#fff" d="M0 0h16v16H0z"/></clipPath></defs></svg>