<svg width="24" height="24" viewBox="0 0 24 24" fill="none" xmlns="http://www.w3.org/2000/svg">
<path fill-rule="evenodd" clip-rule="evenodd" d="M7.75 4.75C6.77687 4.75 5.75 5.72686 5.75 7.39062C5.75 8.20404 6.01052 8.94584 6.40454 9.46896C6.79952 9.99337 7.28423 10.25 7.75 10.25C8.21577 10.25 8.70048 9.99337 9.09546 9.46896C9.48948 8.94584 9.75 8.20404 9.75 7.39062C9.75 5.72686 8.72313 4.75 7.75 4.75ZM4.25 7.39062C4.25 5.18839 5.68556 3.25 7.75 3.25C9.81444 3.25 11.25 5.18839 11.25 7.39062C11.25 8.5102 10.8949 9.57309 10.2936 10.3714C9.69331 11.1684 8.80301 11.75 7.75 11.75C6.69699 11.75 5.80669 11.1684 5.20638 10.3714C4.60509 9.57309 4.25 8.5102 4.25 7.39062Z" fill="black" style="fill:black;fill-opacity:1;"/>
<path fill-rule="evenodd" clip-rule="evenodd" d="M1.89305 19.25H13.5216C13.2924 16.9479 10.9043 14.9421 7.70732 14.9421C4.51036 14.9421 2.1222 16.9479 1.89305 19.25ZM0.375 19.6128C0.375 16.0752 3.80059 13.4421 7.70732 13.4421C11.614 13.4421 15.0396 16.0752 15.0396 19.6128C15.0396 20.2877 14.4763 20.75 13.8854 20.75H1.5292C0.938363 20.75 0.375 20.2877 0.375 19.6128Z" fill="black" style="fill:black;fill-opacity:1;"/>
<path fill-rule="evenodd" clip-rule="evenodd" d="M16.7958 6.71595C17.3229 6.39327 17.9883 6.25 18.75 6.25C19.6611 6.25 20.4361 6.47344 20.9929 6.89822C21.5586 7.3298 21.875 7.95292 21.875 8.679C21.875 9.84723 21.1717 10.3971 20.5956 10.8474C20.5755 10.8631 20.5555 10.8787 20.5358 10.8942C20.2336 11.1313 19.9776 11.3409 19.7896 11.6097C19.6102 11.8661 19.4837 12.191 19.4837 12.6689V12.7663C19.4837 13.1715 19.1552 13.5 18.75 13.5C18.3448 13.5 18.0163 13.1715 18.0163 12.7663V12.6689C18.0163 12.0082 18.185 11.5003 18.4497 11.0895C18.7092 10.6868 19.0495 10.3963 19.3548 10.1556C19.4189 10.1051 19.4804 10.0575 19.5394 10.0118C19.7763 9.82823 19.9716 9.67691 20.1276 9.49989C20.3042 9.29938 20.4076 9.08755 20.4076 8.79167C20.4076 8.33101 20.2371 8.01536 19.9717 7.80578C19.6946 7.58706 19.2773 7.45614 18.75 7.45614C18.242 7.45614 17.8801 7.56169 17.6312 7.72751C17.3889 7.88893 17.2225 8.12794 17.1371 8.46296C17.0585 8.77158 16.7839 9.054 16.4037 9.054C15.9817 9.054 15.5857 8.6649 15.7185 8.18363C15.896 7.54046 16.2597 7.04414 16.7958 6.71595Z" fill="black" style="fill:black;fill-opacity:1;"/>
<path fill-rule="evenodd" clip-rule="evenodd" d="M17.875 16.125C17.875 15.6418 18.2668 15.25 18.75 15.25C19.2332 15.25 19.625 15.6418 19.625 16.125C19.625 16.6082 19.2332 17 18.75 17C18.2668 17 17.875 16.6082 17.875 16.125Z" fill="black" style="fill:black;fill-opacity:1;"/>
</svg>