<svg width="20" height="20" fill="none" xmlns="http://www.w3.org/2000/svg"><path fill-rule="evenodd" clip-rule="evenodd" d="M2.5 5.313h8.224a2.71 2.71 0 0 0 5.218 0H17.5a.73.73 0 0 0 0-1.459h-1.558a2.71 2.71 0 0 0-5.218 0H2.5a.73.73 0 1 0 0 1.458Zm10.833-2.188a1.458 1.458 0 1 0 0 2.917 1.458 1.458 0 0 0 0-2.917ZM9.276 10.73a2.71 2.71 0 0 1-5.218 0H2.5a.73.73 0 0 1 0-1.46h1.558a2.71 2.71 0 0 1 5.218 0H17.5a.73.73 0 0 1 0 1.46H9.276ZM5.208 10a1.458 1.458 0 1 1 2.917 0 1.458 1.458 0 0 1-2.917 0Zm10.734 6.146H17.5a.73.73 0 1 0 0-1.459h-1.558a2.71 2.71 0 0 0-5.218 0H2.5a.73.73 0 0 0 0 1.459h8.224a2.71 2.71 0 0 0 5.218 0Zm-4.067-.73a1.458 1.458 0 1 1 2.917 0 1.458 1.458 0 0 1-2.917 0Z" fill="#000"/></svg>