<svg width="20" height="20" fill="none" xmlns="http://www.w3.org/2000/svg"><g clip-path="url(#info__a)" fill="#000"><path d="M10.938 13.438V9.341c0-.077 0-.158-.006-.227a.735.735 0 0 0-.074-.28.729.729 0 0 0-.319-.318.736.736 0 0 0-.279-.074 2.93 2.93 0 0 0-.227-.005H8.75a.625.625 0 1 0 0 1.25h.73v3.75h-.938a.625.625 0 1 0 0 1.25h3.333a.625.625 0 1 0 0-1.25h-.938ZM8.853 6.043a1.147 1.147 0 1 1 2.294 0 1.147 1.147 0 0 1-2.294 0Z"/><path d="M.938 10a9.063 9.063 0 1 1 18.125 0A9.063 9.063 0 0 1 .938 10ZM10 2.396a7.604 7.604 0 1 0 0 15.208 7.604 7.604 0 0 0 0-15.208Z"/></g><defs><clipPath id="info__a"><path fill="#fff" d="M0 0h20v20H0z"/></clipPath></defs></svg>