<svg width="16" height="16" fill="none" xmlns="http://www.w3.org/2000/svg"><g clip-path="url(#info-compact__a)" fill="#000"><path d="M7.475 10.85V7.775h-.662a.587.587 0 1 1 0-1.175h1.232a.903.903 0 0 1 .281.032.65.65 0 0 1 .417.417.893.893 0 0 1 .032.281v3.52h.913a.587.587 0 1 1 0 1.175H6.563a.587.587 0 1 1 0-1.175h.912Zm-.5-6.162a.962.962 0 1 1 1.925 0 .962.962 0 0 1-1.925 0Z"/><path fill-rule="evenodd" clip-rule="evenodd" d="M.85 8a7.15 7.15 0 1 1 14.3 0A7.15 7.15 0 0 1 .85 8ZM8 2.15a5.85 5.85 0 1 0 0 11.7 5.85 5.85 0 0 0 0-11.7Z"/></g><defs><clipPath id="info-compact__a"><path fill="#fff" d="M0 0h16v16H0z"/></clipPath></defs></svg>