<svg width="24" height="24" viewBox="0 0 24 24" fill="none" xmlns="http://www.w3.org/2000/svg">
<path d="M2.61872 1.38128C2.27701 1.03957 1.72299 1.03957 1.38128 1.38128C1.03957 1.72299 1.03957 2.27701 1.38128 2.61872L21.3813 22.6187C21.723 22.9604 22.277 22.9604 22.6187 22.6187C22.9604 22.277 22.9604 21.723 22.6187 21.3813L2.61872 1.38128Z" fill="black"/>
<path d="M3.62507 6.98384L3.625 16.7368C3.62499 17.5456 3.62498 18.2056 3.66878 18.7417C3.71407 19.296 3.81053 19.7944 4.04735 20.2592C4.41886 20.9884 5.01166 21.5812 5.74079 21.9527C6.20556 22.1895 6.70399 22.2859 7.25835 22.3312C7.79438 22.375 8.45431 22.375 9.2631 22.375H14.7368C15.5456 22.375 16.2056 22.375 16.7416 22.3312C17.296 22.2859 17.7944 22.1895 18.2592 21.9527C18.3326 21.9153 18.4046 21.8757 18.4751 21.8339L17.148 20.5068C17.0069 20.541 16.8304 20.5682 16.5991 20.587C16.1428 20.6243 15.5545 20.625 14.7 20.625H9.3C8.44548 20.625 7.85722 20.6243 7.40086 20.587C6.95471 20.5506 6.71223 20.4836 6.53527 20.3934C6.13543 20.1897 5.81034 19.8646 5.60661 19.4647C5.51645 19.2878 5.44942 19.0453 5.41297 18.5992C5.37568 18.1428 5.375 17.5545 5.375 16.7V8.73377L3.62507 6.98384Z" fill="black"/>
<path fill-rule="evenodd" clip-rule="evenodd" d="M18.625 15.2663V10.375H17.2632C16.4544 10.375 15.7944 10.375 15.2584 10.3312C14.704 10.2859 14.2056 10.1895 13.7408 9.95265C13.0117 9.58114 12.4189 8.98834 12.0473 8.25921C11.8105 7.79444 11.7141 7.29601 11.6688 6.74165C11.625 6.2056 11.625 5.54562 11.625 4.73679V3.37501H9.3C8.44548 3.37501 7.85722 3.37569 7.40086 3.41298C7.16961 3.43187 6.99307 3.45898 6.85202 3.49327L5.5249 2.16615C5.59542 2.12437 5.66742 2.08475 5.74079 2.04736C6.20556 1.81055 6.70399 1.71409 7.25835 1.66879C7.7944 1.62499 8.45438 1.625 9.26322 1.62501L12.3224 1.62496C12.6229 1.6246 12.9067 1.62427 13.1831 1.69063C13.4254 1.74881 13.6571 1.84477 13.8696 1.97499C14.112 2.12354 14.3125 2.32445 14.5247 2.53717L19.4628 7.47534C19.6756 7.68755 19.8765 7.888 20.025 8.1304C20.1552 8.3429 20.2512 8.57456 20.3094 8.8169C20.3757 9.09334 20.3754 9.37714 20.3751 9.67762L20.3749 17.0162L18.625 15.2663ZM13.375 3.86245L18.1376 8.625H17.3C16.4455 8.625 15.8572 8.62432 15.4009 8.58703C14.9547 8.55058 14.7122 8.48355 14.5353 8.39339C14.1354 8.18966 13.8103 7.86457 13.6066 7.46473C13.5164 7.28777 13.4494 7.04529 13.413 6.59914C13.3757 6.14278 13.375 5.55452 13.375 4.7V3.86245Z" fill="black"/>
</svg>
