<svg width="20" height="20" fill="none" xmlns="http://www.w3.org/2000/svg"><path d="M10.57 1.409c.201.048.394.128.571.237.202.124.37.291.546.468l4.532 4.532c.177.177.345.344.468.546.109.177.189.37.237.572.056.23.056.467.055.717v5.466c0 .674 0 1.224-.036 1.671-.038.462-.118.877-.316 1.265a3.23 3.23 0 0 1-1.411 1.41c-.387.198-.803.279-1.265.316-.446.037-.996.037-1.67.037H7.719c-.674 0-1.224 0-1.67-.037-.462-.037-.878-.118-1.265-.315a3.23 3.23 0 0 1-1.411-1.411c-.198-.388-.278-.803-.316-1.265-.036-.447-.036-.997-.036-1.67V6.052c0-.674 0-1.224.036-1.671.038-.462.118-.877.316-1.265a3.23 3.23 0 0 1 1.411-1.41c.387-.198.803-.279 1.265-.316.446-.037.996-.037 1.67-.037h2.133c.25 0 .487 0 .717.055Zm-1.3 1.403H7.75c-.712 0-1.202.001-1.583.032-.371.03-.573.086-.721.161a1.77 1.77 0 0 0-.774.774c-.075.148-.13.35-.161.722-.031.38-.032.87-.032 1.582v7.834c0 .712 0 1.202.032 1.582.03.372.086.574.161.722.17.333.44.604.774.773.148.076.35.131.721.162.38.03.87.032 1.583.032h4.5c.712 0 1.202-.001 1.583-.032.371-.03.573-.086.72-.162.334-.17.605-.44.775-.773.075-.148.13-.35.161-.722.031-.38.032-.87.032-1.582V9.062h-1.552c-.674 0-1.224 0-1.67-.036-.462-.038-.878-.118-1.265-.315a3.23 3.23 0 0 1-1.411-1.412c-.198-.387-.278-.802-.316-1.264-.036-.447-.036-.997-.036-1.671V2.812Zm6.011 4.792-1.104-.937-2.49-2.49-.958-1.125v1.281c0 .712 0 1.203.032 1.583.03.372.086.574.161.721.17.333.44.604.774.774.148.075.35.131.721.162.38.03.87.031 1.583.031h1.281Z" fill="#000"/></svg>