<svg width="20" height="20" fill="none" xmlns="http://www.w3.org/2000/svg"><g clip-path="url(#recent__a)" fill="#000"><path fill-rule="evenodd" clip-rule="evenodd" d="M10 .938a9.063 9.063 0 1 0 0 18.125A9.063 9.063 0 0 0 10 .938ZM2.396 10a7.604 7.604 0 1 1 15.208 0 7.604 7.604 0 0 1-15.208 0Z"/><path d="m11.041 4.353.208 6.02.001.045c0 .458-.371.83-.83.832h-.006c-.02 0-.039 0-.058-.002l-4.344-.207a.625.625 0 0 1 0-1.249l3.598-.171.182-5.268a.625.625 0 0 1 1.25 0Z"/></g><defs><clipPath id="recent__a"><path fill="#fff" d="M0 0h20v20H0z"/></clipPath></defs></svg>