<svg width="24" height="24" viewBox="0 0 24 24" fill="none" xmlns="http://www.w3.org/2000/svg">
<path fill-rule="evenodd" clip-rule="evenodd" d="M7.94995 1.25C5.87888 1.25 4.19995 2.92893 4.19995 5C4.19995 7.07107 5.87888 8.75 7.94995 8.75C10.021 8.75 11.7 7.07107 11.7 5C11.7 2.92893 10.021 1.25 7.94995 1.25ZM5.94995 5C5.94995 3.89543 6.84538 3 7.94995 3C9.05452 3 9.94995 3.89543 9.94995 5C9.94995 6.10457 9.05452 7 7.94995 7C6.84538 7 5.94995 6.10457 5.94995 5Z" fill="black"/>
<path fill-rule="evenodd" clip-rule="evenodd" d="M7.94995 15.25C5.87888 15.25 4.19995 16.9289 4.19995 19C4.19995 21.0711 5.87888 22.75 7.94995 22.75C10.021 22.75 11.7 21.0711 11.7 19C11.7 16.9289 10.021 15.25 7.94995 15.25ZM5.94995 19C5.94995 17.8954 6.84538 17 7.94995 17C9.05452 17 9.94995 17.8954 9.94995 19C9.94995 20.1046 9.05452 21 7.94995 21C6.84538 21 5.94995 20.1046 5.94995 19Z" fill="black"/>
<path fill-rule="evenodd" clip-rule="evenodd" d="M12.3 5C12.3 2.92893 13.979 1.25 16.05 1.25C18.1211 1.25 19.8 2.92893 19.8 5C19.8 7.07107 18.1211 8.75 16.05 8.75C13.979 8.75 12.3 7.07107 12.3 5ZM16.05 3C14.9455 3 14.05 3.89543 14.05 5C14.05 6.10457 14.9455 7 16.05 7C17.1546 7 18.05 6.10457 18.05 5C18.05 3.89543 17.1546 3 16.05 3Z" fill="black"/>
<path fill-rule="evenodd" clip-rule="evenodd" d="M16.05 15.25C13.979 15.25 12.3 16.9289 12.3 19C12.3 21.0711 13.979 22.75 16.05 22.75C18.1211 22.75 19.8 21.0711 19.8 19C19.8 16.9289 18.1211 15.25 16.05 15.25ZM14.05 19C14.05 17.8954 14.9455 17 16.05 17C17.1546 17 18.05 17.8954 18.05 19C18.05 20.1046 17.1546 21 16.05 21C14.9455 21 14.05 20.1046 14.05 19Z" fill="black"/>
<path fill-rule="evenodd" clip-rule="evenodd" d="M16.375 12C16.375 9.92893 18.0539 8.25 20.125 8.25C22.1961 8.25 23.875 9.92893 23.875 12C23.875 14.0711 22.1961 15.75 20.125 15.75C18.0539 15.75 16.375 14.0711 16.375 12ZM20.125 10C19.0204 10 18.125 10.8954 18.125 12C18.125 13.1046 19.0204 14 20.125 14C21.2296 14 22.125 13.1046 22.125 12C22.125 10.8954 21.2296 10 20.125 10Z" fill="black"/>
<path fill-rule="evenodd" clip-rule="evenodd" d="M3.875 8.25C1.80393 8.25 0.125 9.92893 0.125 12C0.125 14.0711 1.80393 15.75 3.875 15.75C5.94607 15.75 7.625 14.0711 7.625 12C7.625 9.92893 5.94607 8.25 3.875 8.25ZM1.875 12C1.875 10.8954 2.77043 10 3.875 10C4.97957 10 5.875 10.8954 5.875 12C5.875 13.1046 4.97957 14 3.875 14C2.77043 14 1.875 13.1046 1.875 12Z" fill="black"/>
</svg>
