<svg width="40" height="40" fill="none" xmlns="http://www.w3.org/2000/svg"><path fill-rule="evenodd" clip-rule="evenodd" d="M13.5 2.5a6 6 0 1 0 0 12 6 6 0 0 0 0-12Zm-4 6a4 4 0 1 1 8 0 4 4 0 0 1-8 0Zm4 17a6 6 0 1 0 0 12 6 6 0 0 0 0-12Zm-4 6a4 4 0 1 1 8 0 4 4 0 0 1-8 0Zm11-23a6 6 0 1 1 12 0 6 6 0 0 1-12 0Zm6-4a4 4 0 1 0 0 8 4 4 0 0 0 0-8Zm0 21a6 6 0 1 0 0 12 6 6 0 0 0 0-12Zm-4 6a4 4 0 1 1 8 0 4 4 0 0 1-8 0Z" fill="#000"/><path fill-rule="evenodd" clip-rule="evenodd" d="M27 20a6 6 0 1 1 12 0 6 6 0 0 1-12 0Zm6-4a4 4 0 1 0 0 8 4 4 0 0 0 0-8ZM7 14a6 6 0 1 0 0 12 6 6 0 0 0 0-12Zm-4 6a4 4 0 1 1 8 0 4 4 0 0 1-8 0Z" fill="#000"/></svg>