<svg width="20" height="20" fill="none" xmlns="http://www.w3.org/2000/svg"><path d="M2.91 7.244A16.082 16.082 0 0 1 10 5.608c2.543 0 4.95.588 7.09 1.636 1.586.776 2.39 2.47 2.39 4.178v.506a1.98 1.98 0 0 1-2.247 1.96l-2.917-.397a1.98 1.98 0 0 1-1.712-1.96V9.685c-.115-.178-.443-.252-.627-.304-.493-.141-1.192-.232-1.977-.232-.785 0-1.484.091-1.976.232-.185.052-.512.126-.628.304v1.844a1.98 1.98 0 0 1-1.712 1.961l-2.916.398a1.98 1.98 0 0 1-2.248-1.96v-.506c0-1.707.804-3.402 2.39-4.178Z" fill="#000"/></svg>