<svg width="16" height="16" fill="none" xmlns="http://www.w3.org/2000/svg"><path d="M2.918 1.926a1.966 1.966 0 0 1 2.955.2L7.28 3.977c.595.783.52 1.885-.175 2.58l-.644.644c.02.05.051.114.095.193.173.312.487.724.906 1.144.42.419.832.733 1.144.906.079.044.143.074.193.095l.644-.644a1.966 1.966 0 0 1 2.58-.175l1.85 1.407a1.966 1.966 0 0 1 .201 2.955l-.283.283c-1.034 1.034-2.584 1.608-4.082 1.095a13.102 13.102 0 0 1-5.027-3.142A13.103 13.103 0 0 1 1.54 6.291c-.513-1.498.06-3.048 1.095-4.083l.283-.282Zm1.92.987a.666.666 0 0 0-1.001-.068l-.283.283c-.773.773-1.1 1.822-.784 2.742a11.802 11.802 0 0 0 2.83 4.529 11.802 11.802 0 0 0 4.53 2.831c.919.315 1.968-.011 2.741-.785l.283-.282a.666.666 0 0 0-.068-1.001l-1.85-1.407a.666.666 0 0 0-.875.06l-.806.805c-.297.298-.686.272-.892.232a2.41 2.41 0 0 1-.689-.271c-.445-.248-.952-.644-1.432-1.124-.48-.48-.876-.987-1.124-1.432a2.41 2.41 0 0 1-.27-.69c-.04-.205-.067-.594.23-.891l.807-.806a.666.666 0 0 0 .059-.874l-1.407-1.85Z" fill="#000"/></svg>