<svg width="20" height="20" fill="none" xmlns="http://www.w3.org/2000/svg"><path d="M6.935 2.707a2.108 2.108 0 0 0-3.168-.215l-.363.363C2.159 4.1 1.5 5.931 2.097 7.67a16.415 16.415 0 0 0 3.936 6.298 16.416 16.416 0 0 0 6.298 3.936c1.739.596 3.569-.062 4.814-1.307l.363-.363a2.108 2.108 0 0 0-.215-3.168l-2.378-1.807a2.108 2.108 0 0 0-2.765.188l-1.297 1.296c-.201-.012-.404-.127-.576-.222-.444-.247-1.004-.676-1.562-1.235-.559-.558-.988-1.118-1.235-1.562-.095-.172-.21-.375-.222-.576L8.554 7.85a2.108 2.108 0 0 0 .188-2.765L6.935 2.707Z" fill="#000"/></svg>