<svg width="20" height="20" fill="none" xmlns="http://www.w3.org/2000/svg"><path d="M3.546 2.271a2.42 2.42 0 0 1 3.638.247L8.99 4.896a2.42 2.42 0 0 1-.216 3.175l-.875.876c.027.078.075.187.152.325.229.413.639.95 1.182 1.493.544.544 1.081.954 1.494 1.183.138.077.247.125.325.152l.875-.875a2.42 2.42 0 0 1 3.176-.216l2.378 1.807a2.42 2.42 0 0 1 .247 3.638l-.363.363c-1.308 1.308-3.259 2.025-5.136 1.382a16.727 16.727 0 0 1-6.418-4.011 16.726 16.726 0 0 1-4.01-6.418c-.644-1.877.073-3.828 1.38-5.136l.364-.363Zm2.476 1.13a.962.962 0 0 0-1.445-.098l-.363.363C3.199 4.68 2.76 6.069 3.18 7.298a15.269 15.269 0 0 0 3.662 5.859 15.269 15.269 0 0 0 5.86 3.662c1.228.421 2.617-.018 3.631-1.033l.363-.363a.962.962 0 0 0-.098-1.446l-2.377-1.806a.962.962 0 0 0-1.262.085l-1.035 1.035c-.345.344-.798.318-1.052.269a2.99 2.99 0 0 1-.854-.337c-.56-.312-1.204-.815-1.816-1.426-.611-.612-1.114-1.255-1.426-1.816a2.992 2.992 0 0 1-.337-.854c-.049-.254-.075-.707.269-1.052L7.744 7.04a.962.962 0 0 0 .086-1.262L6.022 3.401Z" fill="#000"/></svg>