<svg width="20" height="20" fill="none" xmlns="http://www.w3.org/2000/svg"><path d="M2.773 6.963A16.394 16.394 0 0 1 10 5.296c2.592 0 5.045.599 7.227 1.667 1.718.841 2.565 2.663 2.565 4.459v.506a2.292 2.292 0 0 1-2.602 2.27l-2.916-.397a2.292 2.292 0 0 1-1.982-2.27v-1.278a1.96 1.96 0 0 0-.401-.154c-.458-.13-1.127-.22-1.89-.22-.765 0-1.434.09-1.892.22a1.96 1.96 0 0 0-.4.154v1.277a2.292 2.292 0 0 1-1.983 2.27l-2.916.4a2.292 2.292 0 0 1-2.602-2.271v-.506c0-1.796.847-3.618 2.565-4.459ZM10 6.546c-2.397 0-4.662.554-6.678 1.54-1.189.582-1.864 1.895-1.864 3.336v.506c0 .631.557 1.117 1.183 1.032l2.917-.398c.516-.07.9-.51.9-1.032v-1.443c0-.432.302-.705.505-.842.224-.152.508-.264.803-.348.598-.17 1.388-.268 2.234-.268.847 0 1.636.097 2.234.268.295.084.579.196.803.348.203.137.505.41.505.842v1.443c0 .521.385.962.9 1.032l2.917.398c.626.085 1.183-.4 1.183-1.032v-.506c0-1.44-.675-2.754-1.864-3.336A15.144 15.144 0 0 0 10 6.546Z" fill="#000"/></svg>