<svg width="20" height="20" fill="none" xmlns="http://www.w3.org/2000/svg"><path d="M15.625 2.083a.625.625 0 1 0-1.25 0v2.292h-2.292a.625.625 0 1 0 0 1.25h2.292v2.292a.625.625 0 1 0 1.25 0V5.625h2.292a.625.625 0 0 0 0-1.25h-2.292V2.083ZM6.776 3.188a2.27 2.27 0 0 0-3.413-.231l-.353.353C1.755 4.565 1.073 6.43 1.686 8.22a16.191 16.191 0 0 0 3.882 6.212 16.19 16.19 0 0 0 6.212 3.882c1.79.613 3.655-.069 4.91-1.324l.353-.353a2.27 2.27 0 0 0-.231-3.413l-2.314-1.758a2.27 2.27 0 0 0-2.978.202l-.889.888a1.949 1.949 0 0 1-.38-.17c-.41-.228-.94-.632-1.472-1.165-.533-.533-.937-1.061-1.165-1.471a1.957 1.957 0 0 1-.17-.381l.888-.889a2.27 2.27 0 0 0 .202-2.978L6.776 3.188Zm-2.529.652a1.02 1.02 0 0 1 1.534.105l1.758 2.313c.308.406.27.978-.091 1.339L6.44 8.604c-.305.304-.284.709-.238.947.05.264.171.54.318.806.299.537.783 1.157 1.374 1.748.591.591 1.21 1.075 1.748 1.374.265.147.542.267.806.318.238.046.643.067.947-.238l1.007-1.007c.361-.36.933-.4 1.339-.09l2.313 1.757a1.02 1.02 0 0 1 .105 1.534l-.354.353c-1.004 1.004-2.388 1.448-3.62 1.026a14.941 14.941 0 0 1-5.734-3.584 14.94 14.94 0 0 1-3.584-5.733c-.422-1.233.022-2.617 1.026-3.621l.353-.354Z" fill="#000"/></svg>