<svg width="24" height="24" viewBox="0 0 24 24" fill="none" xmlns="http://www.w3.org/2000/svg">
<path d="M18.9998 2.5C18.9998 1.94772 18.5521 1.5 17.9998 1.5C17.4475 1.5 16.9998 1.94772 16.9998 2.5V5H14.4998C13.9475 5 13.4998 5.44772 13.4998 6C13.4998 6.55228 13.9475 7 14.4998 7H16.9998V9.5C16.9998 10.0523 17.4475 10.5 17.9998 10.5C18.5521 10.5 18.9998 10.0523 18.9998 9.5V7H21.4998C22.0521 7 22.4998 6.55228 22.4998 6C22.4998 5.44772 22.0521 5 21.4998 5H18.9998V2.5Z" fill="black"/>
<path fill-rule="evenodd" clip-rule="evenodd" d="M8.32982 3.6746C7.23927 2.23966 5.13324 2.09673 3.85881 3.37116L3.435 3.79497C1.87849 5.35148 1.01247 7.6866 1.78645 9.94502C2.73212 12.7044 4.3058 15.2956 6.50503 17.4948C8.70426 19.694 11.2954 21.2677 14.0548 22.2134C16.3132 22.9874 18.6483 22.1213 20.2049 20.5648L20.6287 20.141C21.9031 18.8666 21.7602 16.7606 20.3252 15.67L17.5492 13.5602C16.365 12.6602 14.6981 12.7734 13.6464 13.8251L12.6929 14.7786C12.621 14.7484 12.5307 14.7052 12.4216 14.6446C11.9551 14.3854 11.3393 13.9167 10.7112 13.2886C10.0831 12.6606 9.61438 12.0447 9.35524 11.5783C9.29464 11.4692 9.25143 11.3788 9.22122 11.3069L10.1748 10.3534C11.2265 9.30169 11.3396 7.63481 10.4396 6.45067L8.32982 3.6746ZM5.27302 4.78538C5.69046 4.36793 6.38029 4.41475 6.7375 4.88477L8.84732 7.66084C9.14209 8.0487 9.10504 8.59469 8.76056 8.93917L7.552 10.1477C7.09678 10.6029 7.13727 11.1969 7.19765 11.5086C7.26603 11.8617 7.42416 12.2206 7.60693 12.5495C7.97934 13.2199 8.57585 13.9817 9.29696 14.7029C10.0181 15.424 10.7799 16.0205 11.4503 16.3929C11.7793 16.5757 12.1381 16.7338 12.4912 16.8022C12.8029 16.8626 13.3969 16.903 13.8521 16.4478L15.0607 15.2393C15.4051 14.8948 15.9511 14.8577 16.339 15.1525L19.1151 17.2623C19.5851 17.6195 19.6319 18.3094 19.2144 18.7268L18.7906 19.1506C17.6362 20.305 16.0715 20.7903 14.7032 20.3214C12.2258 19.4724 9.89825 18.0596 7.91924 16.0806C5.94023 14.1016 4.52745 11.774 3.67843 9.29663C3.20949 7.92828 3.69479 6.36361 4.84921 5.20918L5.27302 4.78538ZM12.8935 14.8419C12.8935 14.8419 12.8896 14.8419 12.8807 14.8403C12.8888 14.8409 12.8935 14.8419 12.8935 14.8419ZM9.15793 11.1063C9.15793 11.1063 9.15892 11.111 9.15948 11.1192C9.15797 11.1102 9.15793 11.1063 9.15793 11.1063Z" fill="black"/>
</svg>
