<?xml version="1.0" encoding="UTF-8" standalone="no"?>
<!-- Created with Sodipodi ("http://www.sodipodi.com/") -->

<svg
   xmlns:dc="http://purl.org/dc/elements/1.1/"
   xmlns:cc="http://creativecommons.org/ns#"
   xmlns:rdf="http://www.w3.org/1999/02/22-rdf-syntax-ns#"
   xmlns:svg="http://www.w3.org/2000/svg"
   xmlns="http://www.w3.org/2000/svg"
   xmlns:xlink="http://www.w3.org/1999/xlink"
   xmlns:sodipodi="http://sodipodi.sourceforge.net/DTD/sodipodi-0.dtd"
   xmlns:inkscape="http://www.inkscape.org/namespaces/inkscape"
   width="512"
   height="512"
   id="svg548"
   sodipodi:version="0.33pre"
   sodipodi:docname="al.svg"
   version="1.1"
   inkscape:version="0.48.1 r9760">
  <metadata
     id="metadata4578">
    <rdf:RDF>
      <cc:Work
         rdf:about="">
        <dc:format>image/svg+xml</dc:format>
        <dc:type
           rdf:resource="http://purl.org/dc/dcmitype/StillImage" />
      </cc:Work>
    </rdf:RDF>
  </metadata>
  <defs
     id="defs1065">
    <linearGradient
       id="linearGradient1070">
      <stop
         style="stop-color:#000;stop-opacity:1;"
         offset="0"
         id="stop1071" />
      <stop
         style="stop-color:#fff;stop-opacity:1;"
         offset="1"
         id="stop1072" />
    </linearGradient>
    <linearGradient
       xlink:href="#linearGradient1070"
       id="linearGradient1073" />
    <radialGradient
       xlink:href="#linearGradient1070"
       id="radialGradient1074"
       cx="0.5"
       cy="0.5"
       r="0.5"
       fx="0.5"
       fy="0.5" />
  </defs>
  <sodipodi:namedview
     id="base"
     showgrid="false"
     inkscape:zoom="0.98242188"
     inkscape:cx="256"
     inkscape:cy="256"
     inkscape:window-width="1280"
     inkscape:window-height="723"
     inkscape:window-x="0"
     inkscape:window-y="24"
     inkscape:window-maximized="1"
     inkscape:current-layer="svg548" />
  <g
     id="flag"
     inkscape:label="#g5140">
    <rect
       width="512"
       y="1.5258789e-05"
       x="0"
       height="512"
       id="rect1066"
       style="font-size:12px;fill:#de2110;fill-opacity:1;fill-rule:evenodd;stroke-width:1pt" />
    <path
       inkscape:connector-curvature="0"
       sodipodi:nodetypes="ccscccccccccccccccccccccccccccccccccccccccccccccccsscccccccccccccccccccccccccccccsscccccccccccccccccccccccccccccccccsccccccccccccccsccsscccccccscccccssc"
       id="path552"
       d="m 167.47563,127.30069 c 7.3531,-0.71781 8.84663,-0.62179 14.24585,0.77593 -6.93441,3.17266 -15.13322,1.58727 -20.2179,-2.91999 -7.6843,-6.9767 -25.98497,-19.04099 -19.44092,-8.76123 33.9534,37.62515 63.19498,12.18614 80.97781,33.8507 6.05745,7.37872 11.40667,17.28457 8.21964,27.01357 -1.08943,3.32994 -5.02636,11.16401 -9.78608,9.17263 -6.23243,-2.60712 1.18108,-23.08727 -3.35576,-29.75068 -10.30059,-15.12863 -28.96454,-11.08213 -44.27898,-12.71669 -4.4431,12.04825 -15.14571,10.23289 -24.98595,4.15481 -12.56213,-7.75741 -12.18365,-26.8363 -23.41076,-33.13726 -11.69914,-6.56613 -9.79233,15.42526 -7.90781,20.65033 8.16652,22.64192 32.21219,31.10464 54.22149,27.0794 -16.2893,25.22195 -42.107,-16.327 -54.89494,-6.15098 -8.11465,6.45697 6.21806,18.20401 11.18338,20.89925 13.73675,7.45704 30.24268,3.71154 43.71156,-2.25009 -7.69055,8.35274 -21.84057,13.47825 -33.32849,11.78287 -5.93288,-0.8755 -17.81886,-8.33108 -23.2235,-3.36243 -8.3442,7.67118 12.02701,16.76944 16.97441,17.84574 16.67674,3.62801 28.48753,-5.17175 41.66061,-13.768 -8.27171,8.26713 -17.10168,19.58674 -29.16243,22.06138 -7.52182,1.54331 -24.12211,-6.13307 -28.98245,1.83556 -5.81186,9.52882 9.59819,15.55753 16.48427,14.9622 16.3143,-1.41042 31.46209,-14.53747 43.74364,-24.27793 -8.44044,11.97347 -21.46771,24.64288 -35.41152,30.05292 -7.31872,2.83938 -19.90106,-1.55435 -25.4111,4.8218 -8.48834,9.82274 10.2004,15.62002 17.07898,13.94735 20.07833,-4.88408 30.78927,-26.85443 49.99273,-34.24085 -13.02519,11.99721 -26.82318,30.58305 -41.84808,39.47551 -7.46516,4.42019 -19.63964,-0.99569 -25.54337,5.52419 -13.34514,14.73744 20.08895,17.88698 29.53446,10.07979 15.82061,-13.07519 23.40493,-31.81892 42.02305,-42.58131 -12.41694,16.88713 -28.14382,42.10429 -43.93736,55.73564 -7.51891,6.48864 -24.02734,0.79572 -28.78873,8.01134 -9.56548,14.49164 21.28399,16.98086 28.97412,11.85869 25.24633,-16.81005 26.6253,-55.77314 58.33318,-65.19052 -8.98411,19.24304 -17.94947,45.29133 -39.57757,52.07576 3.24536,9.77566 14.71869,10.62971 22.09262,3.50366 12.65441,-12.22531 10.04229,-40.05668 32.06617,-40.99821 l -15.88311,22.26343 c 0.84363,9.09451 17.14334,-3.10371 22.1322,-11.84827 l 2.08303,0 c -8.67791,20.70115 -23.99651,32.25989 -43.74364,41.6606 0.38744,12.34196 -7.86969,18.69937 -18.74727,22.91334 -5.85332,-10.76094 -21.45105,-18.76602 -29.16243,-6.24909 6.11994,0.82488 11.5879,1.97471 12.49818,8.33212 -9.70442,-3.50366 -17.3633,-5.16383 -20.8303,6.24909 11.37001,-1.86639 15.25403,-1.45187 17.185,3.51616 -7.77137,8.95078 -6.50426,22.56546 7.81136,23.88819 -3.99316,-2.885 -6.68444,-4.79514 -4.49101,-8.65708 3.17454,-4.21605 6.93233,0.05 8.77372,-2.46214 3.43701,-5.01593 0.34162,-3.26411 4.72432,-1.24565 3.59114,2.57046 9.43196,-8.18631 17.74742,9.95689 10.00063,-7.19479 0.37911,-18.56605 -3.84111,-27.0794 l 31.24546,-6.24909 35.41151,-33.32849 2.08303,2.08303 c -11.44625,18.00988 -27.91885,33.47222 -49.99273,35.41152 7.38851,13.40013 21.88432,6.49072 33.32849,2.08303 -4.97636,9.709 -17.89531,9.76316 -22.23218,17.79741 -8.89246,16.47886 28.26047,-0.50826 30.5643,-1.13317 -2.96832,10.45682 -14.67078,12.55234 -17.71201,21.41564 -2.36215,6.88233 7.28019,7.56348 11.37543,5.56586 7.90302,-3.85778 13.06894,-14.32917 18.83476,-20.73241 -2.6996,12.49819 2.41424,22.39258 -11.35043,36.84465 l 21.11568,25.97122 24.10483,-26.00247 c -13.3064,-11.51291 -5.13467,-24.97762 -7.70097,-37.4633 5.63668,6.60945 7.55516,17.45788 15.56441,21.38231 3.73487,1.8289 11.44417,1.88722 10.5068,-4.26397 -1.32689,-8.70915 -14.12294,-13.1835 -16.8288,-22.71753 2.66628,0.88113 38.68188,17.77242 30.39766,1.13317 -3.92651,-7.88427 -17.21416,-8.33212 -22.06554,-17.79741 11.5754,4.45769 23.45909,10.0777 33.32849,0 -18.34525,-6.37407 -45.63295,-17.23083 -47.9097,-39.57758 l 36.00518,31.00174 30.65179,10.65887 0,2.08303 c -7.46974,7.7822 -11.79412,13.21058 -5.59918,22.71753 l 7.61764,2.28092 c -4.88262,-5.38255 -3.25369,-8.16131 0,-10.28809 5.5117,-2.6267 8.82788,2.47256 10.96091,-2.78918 0.9686,-2.55379 1.30814,-3.7557 1.79973,-0.6374 0.54367,5.52211 8.19465,1.27481 10.86926,1.99554 4.1848,4.12232 -2.04137,8.24463 -2.73502,11.71705 11.83578,-4.14732 14.07295,-11.40876 10.41515,-22.91334 0.78114,-4.36186 3.51615,-6.44489 6.24909,-6.24909 3.10372,0.3687 5.55544,1.38938 8.33212,2.08303 -4.06399,-10.61512 -11.23586,-10.2131 -20.8303,-6.24909 0.86862,-6.35741 4.014,-9.46112 10.41515,-8.33212 -4.80972,-14.43332 -22.20302,-2.8475 -27.0794,6.24909 -11.32751,-3.75779 -22.17177,-9.8944 -18.74727,-22.91334 -19.14097,-9.11117 -36.95712,-20.39703 -43.74364,-41.6606 l 2.08303,0 c 4.98886,8.74456 20.96362,14.75827 19.85337,6.6407 l -13.60428,-17.05586 c 29.29574,1.25815 17.62661,54.51291 54.15879,43.74364 l 0,-4.16606 c -21.02194,-11.70871 -29.65818,-32.91396 -39.57757,-54.15879 31.18088,9.26324 32.21198,47.93678 56.43554,64.82599 7.74679,5.4013 40.35247,3.95359 30.76636,-11.49416 -4.31187,-6.94899 -21.50729,-1.93305 -28.79373,-8.01134 -15.8227,-13.19808 -31.73705,-38.86164 -43.82696,-55.73564 19.13472,12.16031 28.2938,36.653 47.91178,46.47657 8.28421,4.1494 27.92094,3.53074 25.1026,-10.7651 -2.00387,-10.17352 -18.32025,-4.50143 -25.07344,-7.39684 -15.15404,-6.49697 -31.62873,-29.18784 -43.77488,-40.81281 18.18694,7.98779 28.97079,28.33525 47.9097,34.05129 6.96982,2.10387 24.96929,-1.0311 19.98251,-12.31925 -3.54323,-8.01966 -19.40551,-3.69612 -26.2316,-6.15431 -15.00824,-5.40442 -26.54197,-19.20741 -37.49455,-30.15895 14.69995,8.45523 27.99593,22.75815 45.82667,24.27793 6.88442,0.58679 24.7464,-7.58306 15.36652,-16.29617 -6.1012,-5.6673 -18.43691,0.6572 -25.78167,-0.17685 -11.83161,-1.34355 -21.78017,-11.77683 -29.16243,-20.30309 17.20583,10.57013 70.61057,15.07281 61.2536,-7.03023 -6.49489,-5.404 -13.59178,4.00817 -26.367,4.36291 -13.38556,0.0308 -26.66071,-3.14433 -37.61953,-11.58852 13.9563,4.71202 29.97272,9.71234 44.3623,2.97123 5.11592,-2.39611 23.42992,-17.56973 11.59414,-22.77835 -9.22782,-4.06066 -18.73894,9.01494 -26.14411,12.323 -9.17783,4.10003 -19.88669,1.11171 -29.16243,-1.17337 l 0,-2.08303 c 19.02432,-1.00986 37.91532,-2.09137 50.43225,-18.83081 4.10982,-5.49753 14.82285,-28.01176 2.85584,-31.67935 -4.77639,-1.46374 -8.47794,3.30452 -10.46723,6.88858 -5.84498,10.53597 -31.90994,52.37884 -42.82086,22.79127 -15.34568,1.63789 -33.93465,-2.39986 -44.28106,12.71669 -4.591,6.7084 2.49964,27.29333 -3.69529,29.75068 -17.50579,6.94315 -5.81374,-31.31066 -1.57061,-36.1862 18.86392,-21.68455 69.87109,-3.0156 78.70939,-33.36056 0.96028,-8.04696 -10.50889,6.35303 -15.90811,9.84357 -5.84914,3.60405 -13.27515,3.83923 -19.50341,2.65461 6.60737,-3.46096 11.91285,-2.36528 16.07891,-3.05956 -3.90985,-6.87004 -12.87729,-5.99829 -15.16862,-9.80357 -2.99124,-5.4013 -14.92075,-6.97565 -21.69893,-5.90539 -12.89188,2.84875 -17.85157,6.69402 -41.70227,0.0213 l 10.41515,12.49818 -14.927,6.23742 6.59488,4.17773 -12.49818,8.33212 c 2.08303,0.69428 7.04272,0.69823 6.70944,2.65837 l -10.06937,17.12459 c -2.08928,-3.58969 -8.9612,-12.98895 -9.92981,-16.5953 -0.48534,-1.60935 2.42048,-2.3607 6.35116,-3.07247 l -11.8087,-8.44731 7.63223,-4.45893 -15.96435,-5.95622 8.33212,-12.49818 c -13.28348,8.86121 -24.68599,-3.52428 -40.065,0.0979 -6.55738,1.49061 -11.85245,8.79205 -18.02655,7.57369 -5.20758,-0.89071 -11.27753,2.2053 -14.92908,8.99265 z"
       style="fill:#000000;stroke:none" />
    <path
       inkscape:connector-curvature="0"
       sodipodi:nodetypes="cccc"
       id="path1069"
       d="m 132.344,331.2967 c 0.651,0.3125 1.848,0.1562 2.03,0.8593 -1.224,0.4428 -2.682,0.4949 -3.906,0.3908 0.573,-1.3021 1.225,-0.8074 1.876,-1.2501 z"
       style="fill:#de2110;fill-opacity:1;fill-rule:evenodd;stroke:#de2110;stroke-width:0;stroke-linecap:butt;stroke-linejoin:miter;stroke-opacity:1;stroke-dasharray:none" />
    <path
       inkscape:connector-curvature="0"
       sodipodi:nodetypes="cccc"
       id="path1075"
       d="m 188.202,331.5309 c -0.65,0.3125 -1.847,0.1562 -2.029,0.8593 1.224,0.4428 2.682,0.4949 3.905,0.3908 -0.572,-1.3021 -1.225,-0.8074 -1.876,-1.2501 z"
       style="fill:#de2110;fill-opacity:1;fill-rule:evenodd;stroke:#de2110;stroke-width:0;stroke-linecap:butt;stroke-linejoin:miter;stroke-opacity:1;stroke-dasharray:none" />
  </g>
</svg>
