<?xml version="1.0" encoding="UTF-8" standalone="no"?>
<!-- Created with Sodipodi ("http://www.sodipodi.com/") -->

<!-- /Creative Commons Public Domain -->

<!--
<rdf:RDF xmlns="http://web.resource.org/cc/"
     xmlns:dc="http://purl.org/dc/elements/1.1/"
     xmlns:rdf="http://www.w3.org/1999/02/22-rdf-syntax-ns#">
<Work rdf:about="">
    <dc:title>New Zealand, Australia, United Kingdom, United States, 
Bosnia and Herzegovina, Azerbaijan, Armenia, Bahamas, Belgium, Benin, 
Bulgaria, Estonia, Finland, Gabon, Gambia, Germany, Greece, Greenland, 
Guinea, Honduras, Israel, Jamaica, Jordan, and Romania Flags</dc:title>
    <dc:rights><Agent>
       <dc:title>Daniel McRae</dc:title>
    </Agent></dc:rights>
    <license rdf:resource="http://web.resource.org/cc/PublicDomain" />
</Work>

<License rdf:about="http://web.resource.org/cc/PublicDomain">
    <permits rdf:resource="http://web.resource.org/cc/Reproduction" />
    <permits rdf:resource="http://web.resource.org/cc/Distribution" />
    <permits rdf:resource="http://web.resource.org/cc/DerivativeWorks" />
</License>
</rdf:RDF>
-->

<svg
   xmlns:dc="http://purl.org/dc/elements/1.1/"
   xmlns:cc="http://creativecommons.org/ns#"
   xmlns:rdf="http://www.w3.org/1999/02/22-rdf-syntax-ns#"
   xmlns:svg="http://www.w3.org/2000/svg"
   xmlns="http://www.w3.org/2000/svg"
   xmlns:sodipodi="http://sodipodi.sourceforge.net/DTD/sodipodi-0.dtd"
   xmlns:inkscape="http://www.inkscape.org/namespaces/inkscape"
   version="1.0"
   x="0"
   y="0"
   width="512"
   height="512"
   id="svg609"
   inkscape:version="0.48.1 r9760"
   sodipodi:docname="ba.svg"
   viewBox="0 0 512 512">
  <sodipodi:namedview
     pagecolor="#ffffff"
     bordercolor="#666666"
     borderopacity="1"
     objecttolerance="10"
     gridtolerance="10"
     guidetolerance="10"
     inkscape:pageopacity="0"
     inkscape:pageshadow="2"
     inkscape:window-width="1280"
     inkscape:window-height="723"
     id="namedview3229"
     showgrid="false"
     inkscape:zoom="0.98242188"
     inkscape:cx="256"
     inkscape:cy="256"
     inkscape:window-x="0"
     inkscape:window-y="24"
     inkscape:window-maximized="1"
     inkscape:current-layer="svg609" />
  <metadata
     id="metadata3231">
    <rdf:RDF>
      <cc:Work
         rdf:about="">
        <dc:format>image/svg+xml</dc:format>
        <dc:type
           rdf:resource="http://purl.org/dc/dcmitype/StillImage" />
      </cc:Work>
    </rdf:RDF>
  </metadata>
  <defs
     id="defs611">
    <clipPath
       clipPathUnits="userSpaceOnUse"
       id="clipPath3684">
      <rect
         style="fill:#808080;fill-opacity:1;stroke:none"
         id="rect3686"
         width="512"
         height="512"
         x="0"
         y="0" />
    </clipPath>
    <clipPath
       id="clipPath5084"
       clipPathUnits="userSpaceOnUse">
      <rect
         y="0"
         width="512"
         style="fill:#000000;fill-opacity:0.67000002;stroke:none"
         x="0"
         height="512"
         id="rect5086" />
    </clipPath>
  </defs>
  <g
     clip-path="url(#clipPath5084)"
     id="flag">
    <rect
       inkscape:label="#rect614"
       id="rect614"
       style="font-size:12px;fill:#000099;fill-rule:evenodd;stroke:none"
       y="1.5258789e-05"
       x="0"
       height="512"
       width="512" />
    <path
       inkscape:connector-curvature="0"
       id="path615"
       style="font-size:12px;fill:#ffcc00;fill-rule:evenodd;stroke:none"
       d="M 77,0.00646783 513.91353,436.92 l 0,-436.91353217 -436.91353,0 z" />
    <g
       transform="matrix(0.43691353,0,0,0.43691353,-93.246296,54.432642)"
       id="g629"
       style="font-size:12px;stroke:none">
      <polygon
         points="304.671,-43.3566 326,-109 326,-109 347.329,-43.3566 416.35,-43.3566 360.511,-2.78677 381.84,62.8566 326,22.2868 270.16,62.8566 291.489,-2.78677 235.65,-43.3566 "
         style="fill:#ffffff;fill-rule:evenodd;stroke:none"
         id="polygon621" />
      <polygon
         points="304.671,-43.3566 326,-109 326,-109 347.329,-43.3566 416.35,-43.3566 360.511,-2.78677 381.84,62.8566 326,22.2868 270.16,62.8566 291.489,-2.78677 235.65,-43.3566 "
         transform="translate(125,125)"
         style="fill:#ffffff;fill-rule:evenodd;stroke:none"
         id="polygon622" />
      <polygon
         points="304.671,-43.3566 326,-109 326,-109 347.329,-43.3566 416.35,-43.3566 360.511,-2.78677 381.84,62.8566 326,22.2868 270.16,62.8566 291.489,-2.78677 235.65,-43.3566 "
         transform="translate(250,250)"
         style="fill:#ffffff;fill-rule:evenodd;stroke:none"
         id="polygon616" />
      <polygon
         points="304.671,-43.3566 326,-109 326,-109 347.329,-43.3566 416.35,-43.3566 360.511,-2.78677 381.84,62.8566 326,22.2868 270.16,62.8566 291.489,-2.78677 235.65,-43.3566 "
         transform="translate(375,375)"
         style="fill:#ffffff;fill-rule:evenodd;stroke:none"
         id="polygon623" />
      <polygon
         points="304.671,-43.3566 326,-109 326,-109 347.329,-43.3566 416.35,-43.3566 360.511,-2.78677 381.84,62.8566 326,22.2868 270.16,62.8566 291.489,-2.78677 235.65,-43.3566 "
         transform="translate(500,500)"
         style="fill:#ffffff;fill-rule:evenodd;stroke:none"
         id="polygon624" />
      <polygon
         points="304.671,-43.3566 326,-109 326,-109 347.329,-43.3566 416.35,-43.3566 360.511,-2.78677 381.84,62.8566 326,22.2868 270.16,62.8566 291.489,-2.78677 235.65,-43.3566 "
         transform="translate(625,625)"
         style="fill:#ffffff;fill-rule:evenodd;stroke:none"
         id="polygon625" />
      <polygon
         points="304.671,-43.3566 326,-109 326,-109 347.329,-43.3566 416.35,-43.3566 360.511,-2.78677 381.84,62.8566 326,22.2868 270.16,62.8566 291.489,-2.78677 235.65,-43.3566 "
         transform="translate(750,750)"
         style="fill:#ffffff;fill-rule:evenodd;stroke:none"
         id="polygon626" />
      <polygon
         points="304.671,-43.3566 326,-109 326,-109 347.329,-43.3566 416.35,-43.3566 360.511,-2.78677 381.84,62.8566 326,22.2868 270.16,62.8566 291.489,-2.78677 235.65,-43.3566 "
         transform="translate(875,875)"
         style="fill:#ffffff;fill-rule:evenodd;stroke:none"
         id="polygon627" />
      <polygon
         points="304.671,-43.3566 326,-109 326,-109 347.329,-43.3566 416.35,-43.3566 360.511,-2.78677 381.84,62.8566 326,22.2868 270.16,62.8566 291.489,-2.78677 235.65,-43.3566 "
         transform="translate(1000,1000)"
         style="fill:#ffffff;fill-rule:evenodd;stroke:none"
         id="polygon628" />
    </g>
  </g>
</svg>
