<?xml version="1.0" encoding="UTF-8" standalone="no"?>
<!-- /Creative Commons Public Domain -->

<!--

<rdf:RDF xmlns="http://web.resource.org/cc/"
    xmlns:dc="http://purl.org/dc/elements/1.1/"
    xmlns:rdf="http://www.w3.org/1999/02/22-rdf-syntax-ns#">
<Work rdf:about="">
   <dc:title>SVG graphic of Brunei Darussalam flag</dc:title>
   <dc:rights><Agent>
      <dc:title>Gustav Broberg</dc:title>
   </Agent></dc:rights>
   <license rdf:resource="http://web.resource.org/cc/PublicDomain" />
</Work>

<License rdf:about="http://web.resource.org/cc/PublicDomain">
   <permits rdf:resource="http://web.resource.org/cc/Reproduction" />
   <permits rdf:resource="http://web.resource.org/cc/Distribution" />
   <permits rdf:resource="http://web.resource.org/cc/DerivativeWorks" />
</License>
</rdf:RDF>
-->

<!-- Created with Inkscape ("http://www.inkscape.org/") -->

<svg
   xmlns:dc="http://purl.org/dc/elements/1.1/"
   xmlns:cc="http://creativecommons.org/ns#"
   xmlns:rdf="http://www.w3.org/1999/02/22-rdf-syntax-ns#"
   xmlns:svg="http://www.w3.org/2000/svg"
   xmlns="http://www.w3.org/2000/svg"
   xmlns:xlink="http://www.w3.org/1999/xlink"
   xmlns:sodipodi="http://sodipodi.sourceforge.net/DTD/sodipodi-0.dtd"
   xmlns:inkscape="http://www.inkscape.org/namespaces/inkscape"
   id="svg647"
   width="512"
   height="512"
   inkscape:version="0.48.1 r9760"
   docbase="."
   sodipodi:version="0.32"
   sodipodi:docname="bn.svg"
   version="1.1">
  <metadata
     id="metadata3116">
    <rdf:RDF>
      <cc:Work
         rdf:about="">
        <dc:format>image/svg+xml</dc:format>
        <dc:type
           rdf:resource="http://purl.org/dc/dcmitype/StillImage" />
      </cc:Work>
    </rdf:RDF>
  </metadata>
  <sodipodi:namedview
     id="namedview129"
     showgrid="false"
     inkscape:zoom="0.33060318"
     inkscape:cx="496.06299"
     inkscape:cy="248.03149"
     inkscape:window-width="1280"
     inkscape:window-height="723"
     inkscape:window-x="0"
     inkscape:window-y="24"
     inkscape:window-maximized="1"
     inkscape:current-layer="svg647" />
  <defs
     id="defs649">
    <linearGradient
       id="linearGradient651">
      <stop
         style="stop-color:#000;stop-opacity:1;"
         offset="0"
         id="stop652" />
      <stop
         style="stop-color:#fff;stop-opacity:1;"
         offset="1"
         id="stop653" />
    </linearGradient>
    <linearGradient
       xlink:href="#linearGradient651"
       id="linearGradient654" />
    <linearGradient
       xlink:href="#linearGradient651"
       id="linearGradient655" />
    <linearGradient
       xlink:href="#linearGradient651"
       id="linearGradient656" />
    <linearGradient
       xlink:href="#linearGradient651"
       id="linearGradient657" />
    <linearGradient
       xlink:href="#linearGradient651"
       id="linearGradient658" />
    <linearGradient
       xlink:href="#linearGradient651"
       id="linearGradient659" />
    <linearGradient
       xlink:href="#linearGradient651"
       id="linearGradient660" />
    <linearGradient
       xlink:href="#linearGradient651"
       id="linearGradient661" />
    <linearGradient
       xlink:href="#linearGradient651"
       id="linearGradient662" />
    <linearGradient
       xlink:href="#linearGradient651"
       id="linearGradient663" />
    <linearGradient
       xlink:href="#linearGradient651"
       id="linearGradient664" />
    <linearGradient
       xlink:href="#linearGradient651"
       id="linearGradient665" />
    <linearGradient
       xlink:href="#linearGradient651"
       id="linearGradient666" />
    <linearGradient
       xlink:href="#linearGradient651"
       id="linearGradient667" />
    <linearGradient
       xlink:href="#linearGradient651"
       id="linearGradient668" />
    <linearGradient
       xlink:href="#linearGradient651"
       id="linearGradient669" />
    <linearGradient
       xlink:href="#linearGradient651"
       id="linearGradient670" />
    <linearGradient
       xlink:href="#linearGradient651"
       id="linearGradient671" />
    <linearGradient
       xlink:href="#linearGradient651"
       id="linearGradient672" />
    <linearGradient
       xlink:href="#linearGradient651"
       id="linearGradient673" />
    <linearGradient
       xlink:href="#linearGradient651"
       id="linearGradient674" />
    <linearGradient
       xlink:href="#linearGradient651"
       id="linearGradient675" />
    <linearGradient
       xlink:href="#linearGradient651"
       id="linearGradient676" />
    <linearGradient
       xlink:href="#linearGradient651"
       id="linearGradient677" />
    <linearGradient
       xlink:href="#linearGradient651"
       id="linearGradient678" />
    <linearGradient
       xlink:href="#linearGradient651"
       id="linearGradient679" />
    <linearGradient
       xlink:href="#linearGradient651"
       id="linearGradient680" />
    <linearGradient
       xlink:href="#linearGradient651"
       id="linearGradient681" />
    <linearGradient
       xlink:href="#linearGradient651"
       id="linearGradient682" />
    <linearGradient
       xlink:href="#linearGradient651"
       id="linearGradient683" />
    <linearGradient
       xlink:href="#linearGradient651"
       id="linearGradient684" />
    <linearGradient
       xlink:href="#linearGradient651"
       id="linearGradient685" />
    <clipPath
       clipPathUnits="userSpaceOnUse"
       id="clipPath3811">
      <rect
         style="fill:#808080;fill-opacity:1;stroke:none"
         id="rect3813"
         width="512"
         height="512"
         x="6"
         y="0" />
    </clipPath>
  </defs>
  <namedview
     id="base"
     gridoriginx="0mm"
     showgrid="false"
     snaptogrid="false"
     gridspacingy="9.72mm"
     snaptoguides="false" />
  <g
     id="flag"
     transform="translate(-6,0)"
     clip-path="url(#clipPath3811)"
     inkscape:label="#g3712">
    <g
       transform="matrix(1.032128,0,0,1.032128,-214.75505,-16.449546)"
       id="g3706">
      <path
         inkscape:connector-curvature="0"
         nodetypes="ccccc"
         id="path1456"
         d="M -0.12206612,50.188297 -1.1252e-7,168.185 992.12589,374.201 l 0,-117.142 L -0.12206612,50.188297 z"
         style="font-size:12px;fill:#ffffff;fill-rule:evenodd;stroke-width:1pt" />
      <path
         inkscape:connector-curvature="0"
         nodetypes="ccccc"
         id="path654"
         d="m 0,270.84301 0,241.157 992.126,0 0,-34.441 L 0,270.84301 z"
         style="font-size:12px;fill:#fdd114;fill-opacity:1;fill-rule:evenodd;stroke-width:1pt" />
      <path
         inkscape:connector-curvature="0"
         nodetypes="ccccc"
         id="path656"
         d="m 992.126,257.09451 0,-241.157 -992.126,0 0,34.441 992.126,206.716 z"
         style="font-size:12px;fill:#fdd114;fill-rule:evenodd;stroke-width:1pt" />
      <path
         inkscape:connector-curvature="0"
         nodetypes="ccccc"
         id="path658"
         d="M 0,167.55519 0,270.91346 992.447,477.55898 992.126,374.20068 0,167.55519 z"
         style="font-size:12px;fill-rule:evenodd;stroke-width:1pt" />
    </g>
    <g
       transform="translate(-223.83333,4.961787)"
       id="g1129">
      <rect
         style="font-size:12px;fill:#cf1126;fill-rule:evenodd;stroke:#000000;stroke-width:1.56230998"
         id="rect694"
         width="9.5388994"
         height="25.460136"
         x="274.57245"
         y="617.6059"
         transform="matrix(0.939784,0,0,0.939884,233.0741,-374.0643)" />
      <path
         style="font-size:12px;fill:#cf1126;fill-rule:evenodd;stroke:#000000;stroke-width:3.20735002"
         d="m 415.123,645.682 c -0.241,-33.566 1.125,-65.845 3.766,-75.002 2.641,-9.157 6.556,-11.06 11.416,-15.608 -11.512,-1.043 -24.218,8.647 -30.06,21.408 -3.707,-14.398 -10.639,-24.156 -16.739,-29.056 -6.099,4.9 -13.292,14.808 -16.568,29.183 -6.01,-10.712 -16.555,-22.588 -29.028,-21.254 4.434,4.62 8.481,6.332 11.178,15.285 2.697,8.953 4.044,41.016 3.075,74.6"
         id="path611"
         nodetypes="cscccccsc"
         transform="matrix(0.428238,0,0,0.489397,331.2799,-46.41895)"
         inkscape:connector-curvature="0" />
      <path
         style="font-size:12px;fill:#cf1126;fill-rule:evenodd;stroke:#000000;stroke-width:2.80363989"
         d="m 414.444,641.956 c -0.241,-33.565 1.37,-62.22 3.677,-71.327 2.309,-9.106 5.993,-10.806 11.258,-14.746 -11.512,-1.043 -22.481,1.756 -28.902,17.355 -3.592,-14.5 -10.639,-21.623 -16.739,-26.523 -6.099,4.9 -13.292,12.274 -16.568,26.649 -7.053,-15.474 -16.903,-18.94 -29.376,-17.606 5.186,4.316 9.262,5.927 11.8,14.855 2.538,8.928 2.859,37.315 1.89,70.899"
         id="path610"
         nodetypes="cscccccsc"
         transform="matrix(0.466978,0,0,0.587353,316.3158,-66.36977)"
         inkscape:connector-curvature="0" />
      <path
         style="font-size:12px;fill:#cf1126;fill-rule:evenodd;stroke:#000000;stroke-width:2.5"
         d="m 417.496,590.829 c -0.312,-7.812 0.76,-18.303 2.535,-22.357 1.776,-4.055 4.254,-7.016 6.754,-10.453 -10.722,-1.546 -21.625,-0.757 -27.414,14.968 -3.75,-14.375 -9.375,-21.875 -15.475,-26.775 -6.099,4.9 -11.396,12.4 -15.146,26.775 -5.789,-15.725 -16.745,-16.678 -27.796,-14.968 2.5,3.437 5.074,6.398 6.945,10.453 1.871,4.054 3.039,14.545 2.726,22.357"
         id="path609"
         nodetypes="cscccccsc"
         transform="matrix(0.5873,0,0,0.587353,270.1049,-25.41902)"
         inkscape:connector-curvature="0" />
      <path
         style="font-size:12px;fill:#cf1126;fill-rule:evenodd;stroke:#000000;stroke-width:2.5"
         d="m 378.953,610.77 0,32.211 11.369,0 0,-32.211 -11.369,0 z"
         id="path689"
         transform="matrix(0.5873,0,0,0.587353,269.6894,-198.8207)"
         inkscape:connector-curvature="0" />
      <path
         style="font-size:12px;opacity:0.98999999;fill:#cf1126;fill-rule:evenodd;stroke:#000000;stroke-width:2.5;stroke-linejoin:bevel"
         d="m 457.893,1168.67 c 2.813,1.88 14.035,3.85 34.376,0.31 35.513,-6.22 35.216,-41.25 90.529,-25 -2.5,-5 -11.25,-20.31 -32.813,-20.93 2.188,-7.19 3.75,-17.81 -0.312,-24.38 -4.167,9.27 -10.618,13.58 -15.296,16.61 -1.441,-0.78 -9.8,-7.61 -10.706,-17.9 -1.256,-20.4 -11.211,-24 -12.268,-23.46 -6.39,-0.18 -44.87,60.65 -127.269,61.05 -81.189,0.39 -121.822,-60.51 -126.406,-61.05 -1.057,-0.54 -11.012,3.06 -12.268,23.46 -0.906,10.29 -9.363,16.82 -10.784,17.73 -4.658,-2.9 -11.051,-7.17 -15.218,-16.44 -4.062,6.57 -2.5,17.19 -0.312,24.38 -21.563,0.62 -30.313,15.93 -32.813,20.93 55.313,-16.25 55.424,18.78 90.937,25 20.341,3.54 30.886,1.88 33.699,0.01"
         id="path660"
         transform="matrix(0.5873,0,0,0.587353,269.6894,-293.1643)"
         inkscape:connector-curvature="0" />
      <path
         style="font-size:12px;opacity:0.98999999;fill:#cf1126;fill-rule:evenodd;stroke:#000000;stroke-width:2.5;stroke-linejoin:bevel"
         d="m 286.282,1151.19 c -19.265,-0.77 -56.848,-30.07 -51.514,-36.1 1.693,-1.71 9.973,0.05 24.308,10.08 21.275,14.5 39.529,60.22 124.877,59.87 86.98,-0.35 104.827,-45.37 126.102,-59.87 14.335,-10.03 23.279,-11.63 24.288,-9.67 5.12,5.78 -32.499,35.01 -51.764,35.78"
         id="path661"
         transform="matrix(0.5873,0,0,0.587353,269.6894,-293.1643)"
         inkscape:connector-curvature="0" />
      <path
         style="font-size:12px;fill:#cf1126;fill-rule:evenodd;stroke:#000000;stroke-width:2.5"
         d="m 259.195,399.543 c -76.11,80.185 -35.168,264.359 123.016,267.018 159.036,1.782 205.433,-184.264 126.41,-267.374 m -234.016,3.103 c -40.49,68.178 1.604,187.645 109.881,187.645 109.168,0 149.18,-120.329 109.085,-188.046"
         id="path590"
         nodetypes="cccccc"
         transform="matrix(0.5873,0,0,0.587353,270.1049,-25.41902)"
         inkscape:connector-curvature="0" />
      <path
         style="font-size:12px;fill:#fdd114;fill-rule:evenodd;stroke:#cf1126;stroke-width:0.220247"
         d="m 512.192,379.898 c 3.25,0.722 6.215,4.078 5.021,7.527 -1.326,4.112 -6.221,5.111 -8.071,4.811 -1.99,-1.194 -0.797,-2.918 5.306,-3.582 3.979,-1.459 0.355,-4.15 -2.653,-5.439 -1.635,-0.701 -1.129,-3.656 0.397,-3.317 z"
         id="path596"
         nodetypes="ccccss"
         inkscape:connector-curvature="0" />
      <path
         style="font-size:12px;fill:#fdd114;fill-rule:evenodd;stroke:#cf1126;stroke-width:0.220247"
         d="m 502.111,378.837 c 1.511,-1.719 2.739,3.55 3.075,7.204 0.44,3.567 0.486,7.967 -0.952,8.185 -0.877,0.147 -0.141,-4.096 -1.047,-7.989 -1.183,-4.507 -1.693,-6.644 -1.076,-7.4 z"
         id="path597"
         nodetypes="cssss"
         inkscape:connector-curvature="0" />
      <path
         style="font-size:12px;fill:#fdd114;fill-rule:evenodd;stroke:#cb4f46;stroke-width:0.220247"
         d="m 498.642,385.337 c 3.794,3.677 -2.633,14.328 -16.694,9.685 -0.796,-1.459 5.584,-0.016 10.081,-0.796 8.558,-1.351 4.886,-10.52 6.613,-8.889 z"
         id="path598"
         nodetypes="ccss"
         inkscape:connector-curvature="0" />
      <path
         style="font-size:12px;fill:#fdd114;fill-rule:evenodd;stroke:#cf1126;stroke-width:0.220247"
         d="m 491.764,378.041 c 1.512,-1.719 0.631,3.723 0.946,7.379 0.308,3.435 -0.076,7.616 -1.706,7.075 -0.883,-0.426 0.564,-4.284 -0.342,-7.911 -0.971,-4.558 -0.045,-5.389 1.102,-6.543 z"
         id="path599"
         nodetypes="cssss"
         inkscape:connector-curvature="0" />
      <path
         style="font-size:12px;fill:#fdd114;fill-rule:evenodd;stroke:#cf1126;stroke-width:0.220247"
         d="m 482.109,376.582 c 2.683,-0.017 1.964,0.736 1.773,7.903 -0.21,8.032 -6.993,8.931 -8.605,6.727 -1.355,-1.729 -0.858,-2.249 -6.92,-1.67 -1.356,-0.683 -1.304,-2.136 -5.733,-1.764 -1.145,0.211 -1.107,-1.961 -3.173,-3.259 -3.602,-2.152 -4.801,1.587 -11.669,-2.37 -0.429,-0.24 -3.216,-2.006 -2.707,-5.497 0.531,-4.411 -3.492,0.539 -7.913,-1.386 -0.855,-0.382 -3.446,-1.46 -5.732,-3.466 -3.227,-2.775 0.152,-3.336 4.512,-0.507 2.692,1.707 6.646,-2.221 6.753,-6.152 0.241,-4.16 -1.829,-5.254 1.379,-5.151 1.789,0.053 1.364,7.269 -1.676,10.463 -4.068,4.397 -1.323,3.549 0.13,3.328 1.515,-0.379 8.407,-8.919 9.556,-8.186 1.79,1.216 -5.373,6.676 -3.769,11.844 0.766,2.304 5.036,4.511 8.551,4.868 4.133,0.688 4.145,-4.924 5.82,-3.861 2.318,1.521 -4.43,4.385 2.655,6.474 1.565,0.469 2.469,-3.516 3.395,-3.343 2.223,0.363 -1.453,4.654 2.522,5.336 2.771,0.461 2.012,-4.007 3.73,-3.735 1.988,-0.127 0.122,7.147 5.633,6.405 2.323,-0.304 -1.311,-12.985 1.488,-13.001 z"
         id="path600"
         nodetypes="csscsssssssssssssssssssss"
         inkscape:connector-curvature="0" />
      <path
         style="font-size:12px;fill:#fdd114;fill-rule:evenodd;stroke:#cf1126;stroke-width:0.220247"
         d="m 432.159,367.137 c 1.596,-0.341 4.331,-1.823 4.445,-4.217 0.228,-2.621 -3.419,-3.533 -7.75,-2.849 -2.279,0.342 -6.153,-1.14 -8.433,-3.078 -2.279,-2.849 -2.279,-6.039 -5.014,-4.672 -2.051,0.911 2.849,6.154 5.242,7.408 2.394,1.254 6.269,1.14 6.496,2.963 0.228,1.824 -0.912,4.673 5.014,4.445 z"
         id="path601"
         nodetypes="cccccccc"
         inkscape:connector-curvature="0" />
      <path
         style="font-size:12px;fill:#fdd114;fill-rule:evenodd;stroke:#cf1126;stroke-width:0.220247"
         d="m 529.144,379.374 c -0.88,0.426 -1.594,8.39 3.379,8.562 6.247,0.223 9.388,-2.945 10.953,-4.071 2.599,-1.975 7.283,-5.923 5.115,-9.327 -1.085,-1.236 -1.684,2.274 -2.935,4.328 -1.702,3.012 -7.529,6.586 -11.992,6.099 -5.467,-0.336 -3.407,-5.876 -4.52,-5.591 z"
         id="path604"
         nodetypes="csscsss"
         inkscape:connector-curvature="0" />
      <path
         style="font-size:12px;fill:#fdd114;fill-rule:evenodd;stroke:#cf1126;stroke-width:0.220247"
         d="m 541.982,375.685 c -1.271,-0.961 2.826,-2.534 3.25,-4.021 0.425,-1.487 -1.81,-2.888 -0.567,-4.517 1.303,-2.145 1.374,4.043 3.03,4.221 4.586,0.478 1.312,3.44 -0.418,2.868 -1.958,-0.584 -4.528,2.172 -5.295,1.449 z"
         id="path605"
         nodetypes="csssss"
         inkscape:connector-curvature="0" />
      <path
         style="font-size:12px;fill:#fdd114;fill-rule:evenodd;stroke:#cf1126;stroke-width:0.220247"
         d="m 538.433,366.308 c -0.295,2.066 0.959,2.582 1.329,1.402 0.442,-2.214 -0.813,-3.247 -1.329,-1.402 z"
         id="path606"
         nodetypes="ccc"
         inkscape:connector-curvature="0" />
      <path
         style="font-size:12px;fill:#fdd114;fill-rule:evenodd;stroke:#cf1126;stroke-width:0.220247"
         d="m 541.753,364.169 c -0.738,0.058 -0.841,2.621 0.12,2.692 1.037,0.082 0.558,1.831 1.429,1.808 1.036,-0.027 1.115,-2.934 -0.057,-2.961 -1.09,-0.027 -0.833,-1.527 -1.492,-1.539 z"
         id="path607"
         nodetypes="cssss"
         inkscape:connector-curvature="0" />
      <path
         style="font-size:12px;fill:#fdd114;fill-rule:evenodd;stroke:#cf1126;stroke-width:0.220247"
         d="m 550.05,363.677 c -0.877,1.11 -2.542,-4.277 3.06,-5.048 2.663,0.235 4.934,4.621 4.699,8.85 -0.089,1.564 -0.156,5.091 -1.017,6.814 -0.706,1.645 -3.29,7.05 -4.543,6.58 -1.253,-0.471 0.328,-2.734 2.428,-5.875 1.698,-2.572 2.35,-9.712 1.488,-10.965 -0.862,-1.253 -1.729,3.133 -3.524,4.073 -1.494,0.783 -3.054,-1.482 -3.289,-2.578 -0.186,-1.3 0.998,-2.1 1.8,-0.555 0.64,1.161 2.607,-1.143 2.561,-2.789 0.052,-2.662 -1.713,-0.551 -3.663,1.493 z"
         id="path608"
         nodetypes="ccsccscsssss"
         inkscape:connector-curvature="0" />
      <path
         style="font-size:12px;fill:#fdd114;fill-rule:evenodd;stroke:#cf1126;stroke-width:0.220247"
         d="m 562.117,351.658 c -0.705,1.019 -3.132,3.29 -3.602,4.23 -0.47,0.94 -0.549,2.584 0.234,4.151 0.784,1.566 2.428,4.072 2.115,6.344 -0.314,2.271 -1.88,6.97 -1.018,6.579 0.861,-0.392 2.976,-5.013 2.506,-8.538 -0.47,-3.524 -2.115,-5.482 -1.802,-6.657 0.313,-1.174 2.271,-3.367 2.663,-4.855 0.392,-1.489 -0.235,-5.483 -0.783,-5.796 -0.548,-0.313 -2.506,0.392 -1.88,1.723 0.627,1.332 1.958,0.548 1.567,2.819 z"
         id="path614"
         nodetypes="ccccccccccc"
         inkscape:connector-curvature="0" />
      <path
         style="font-size:12px;fill:#fdd114;fill-rule:evenodd;stroke:#cf1126;stroke-width:0.20733701"
         d="m 565.343,353.485 c -0.88,0.801 -0.442,5.164 0.767,3.606 1.099,-1.518 -0.063,-4.319 -0.767,-3.606 z"
         id="path615"
         nodetypes="css"
         inkscape:connector-curvature="0" />
      <path
         style="font-size:12px;fill:#fdd114;fill-rule:evenodd;stroke:#cf1126;stroke-width:0.25044"
         d="m 542.322,385.881 c -0.412,1.91 1.469,2.514 1.986,1.423 0.618,-2.046 -1.264,-3.128 -1.986,-1.423 z"
         id="path616"
         nodetypes="ccc"
         inkscape:connector-curvature="0" />
      <path
         style="font-size:12px;fill:#fdd114;fill-rule:evenodd;stroke:#cf1126;stroke-width:0.27616599"
         d="m 545.202,384.262 c -0.611,1.567 2.115,1.704 2.881,0.809 0.916,-1.679 -1.811,-2.208 -2.881,-0.809 z"
         id="path620"
         nodetypes="ccc"
         inkscape:connector-curvature="0" />
      <path
         style="font-size:12px;fill:#cf1126;fill-opacity:1;fill-rule:evenodd;stroke:#cf1126;stroke-width:0.220247"
         d="m 431.817,361.667 c -1.458,-0.652 -1.367,2.279 -0.683,3.077 0.683,0.798 4.659,-1.248 0.683,-3.077 z"
         id="path603"
         nodetypes="ccs"
         inkscape:connector-curvature="0" />
      <path
         style="font-size:12px;fill:#cf1126;fill-rule:evenodd;stroke:#000000;stroke-width:2.5;stroke-linecap:round"
         d="m 385.652,680.278 c -24.945,4.993 -42.073,19.615 -34.043,24.588 4.917,3.278 28.013,-5.728 32.886,-13.373 8.861,13.523 32.9,18.624 38.706,15.592"
         id="path676"
         nodetypes="cscc"
         transform="matrix(0.5873,0,0,0.587353,269.6894,-198.8207)"
         inkscape:connector-curvature="0" />
      <path
         style="font-size:12px;fill:#cf1126;fill-rule:evenodd;stroke-width:1pt"
         d="m 256.274,672.278 c 4.14,6.398 25.59,21.827 41.019,22.956 15.43,1.129 50.427,8.279 57.201,5.268 6.774,-3.01 25.966,-16.182 30.858,-13.924 4.893,2.258 33.493,18.064 44.03,17.687 10.537,-0.376 78.651,-19.568 80.909,-23.331 2.258,-3.764 -13.548,-13.548 -23.708,-13.548 -10.161,0 -230.309,5.269 -230.309,4.892 z"
         id="path696"
         transform="matrix(0.5873,0,0,0.587353,269.6894,-198.8207)"
         inkscape:connector-curvature="0" />
      <path
         style="font-size:12px;fill:#cf1126;fill-rule:evenodd;stroke:#000000;stroke-width:2.5;stroke-linecap:round"
         d="m 316.201,703.328 c 0.124,3.846 3.081,6.627 10.173,6.7 11.91,0.248 32.057,-5.385 44.091,-18.907"
         id="path675"
         transform="matrix(0.5873,0,0,0.587353,269.6894,-198.8207)"
         inkscape:connector-curvature="0" />
      <path
         style="font-size:12px;fill:#cf1126;fill-rule:evenodd;stroke:#000000;stroke-width:2.5;stroke-linecap:round"
         d="m 280.47,697.621 c -0.62,3.226 4.715,7.444 15.136,7.568 10.421,0.124 46.772,-4.342 58.434,-16.5"
         id="path674"
         transform="matrix(0.5873,0,0,0.587353,269.6894,-198.8207)"
         inkscape:connector-curvature="0" />
      <path
         style="font-size:12px;fill:#cf1126;fill-rule:evenodd;stroke:#000000;stroke-width:2.5;stroke-linecap:round"
         d="m 255.86,687.848 c -5.583,7.195 12.204,9.774 22.873,9.649 10.67,-0.124 38.206,-0.266 50.539,-9.446"
         id="path673"
         transform="matrix(0.5873,0,0,0.587353,269.6894,-198.8207)"
         inkscape:connector-curvature="0" />
      <path
         style="font-size:12px;fill:#cf1126;fill-rule:evenodd;stroke:#000000;stroke-width:2.5;stroke-linecap:round"
         d="m 236.367,675.778 c -5.335,7.072 12.591,13.283 34.426,12.787 20.098,-0.496 40.569,-7.444 40.569,-7.444"
         id="path672"
         transform="matrix(0.5873,0,0,0.587353,269.6894,-198.8207)"
         inkscape:connector-curvature="0" />
      <path
         style="font-size:12px;fill:#cf1126;fill-rule:evenodd;stroke:#000000;stroke-width:2.5;stroke-linecap:round"
         d="m 452.476,703.328 c -0.124,3.846 -3.081,6.627 -10.173,6.7 -11.91,0.248 -32.057,-5.385 -44.091,-18.907"
         id="path680"
         transform="matrix(0.5873,0,0,0.587353,269.6894,-198.8207)"
         inkscape:connector-curvature="0" />
      <path
         style="font-size:12px;fill:#cf1126;fill-rule:evenodd;stroke:#000000;stroke-width:2.5;stroke-linecap:round"
         d="m 488.207,697.621 c 0.62,3.226 -4.715,7.444 -15.136,7.568 -10.421,0.124 -46.772,-4.342 -58.434,-16.5"
         id="path679"
         transform="matrix(0.5873,0,0,0.587353,269.6894,-198.8207)"
         inkscape:connector-curvature="0" />
      <path
         style="font-size:12px;fill:#cf1126;fill-rule:evenodd;stroke:#000000;stroke-width:2.5;stroke-linecap:round"
         d="m 512.661,688.004 c 5.583,7.196 -12.048,9.618 -22.717,9.493 -10.67,-0.124 -38.206,-0.266 -50.539,-9.446"
         id="path678"
         transform="matrix(0.5873,0,0,0.587353,269.6894,-198.8207)"
         inkscape:connector-curvature="0" />
      <path
         style="font-size:12px;fill:#cf1126;fill-rule:evenodd;stroke:#000000;stroke-width:2.5;stroke-linecap:round"
         d="m 532.37,675.657 c 5.335,7.072 -12.651,13.404 -34.486,12.908 -20.098,-0.496 -40.569,-7.444 -40.569,-7.444"
         id="path677"
         transform="matrix(0.5873,0,0,0.587353,269.6894,-198.8207)"
         inkscape:connector-curvature="0" />
      <path
         style="font-size:12px;fill:#cf1126;fill-rule:evenodd;stroke:#000000;stroke-width:2.5;stroke-linecap:round"
         d="m 279.214,675.125 c -27.735,4.005 -40.51,1.964 -46.045,-0.682 -6.915,-3.043 -18.757,-12.309 -1.265,-12.646 11.59,-0.226 17.431,0.659 30.607,0.59 33.705,-0.422 82.36,-27.036 97.11,-27.145 13.701,-0.101 17.336,6.233 25.147,6.362 7.998,0.093 10.587,-6.463 24.288,-6.362 14.75,0.109 63.405,26.723 97.11,27.145 13.176,0.069 19.017,-0.816 30.607,-0.59 17.492,0.337 5.65,9.603 -1.265,12.646 -5.535,2.646 -18.31,4.687 -46.045,0.682"
         id="path681"
         transform="matrix(0.5873,0,0,0.587353,269.6894,-198.8207)"
         inkscape:connector-curvature="0" />
      <path
         style="font-size:12px;fill:#cf1126;fill-rule:evenodd;stroke:#000000;stroke-width:2.5"
         d="m 383.546,280.288 c -13.048,0.655 -31.007,-1.574 -36.774,12.977 -8.783,16.647 -6.306,35.518 -2.36,35.916 7.065,0.779 7.737,-18.847 10.749,-18.876 3.149,-0.036 3.146,17.041 9.307,16.91 4.588,-0.131 7.472,-17.172 8.914,-17.041 1.442,0.131 4.457,16.385 10.26,16.385 6.197,0 8.818,-16.254 10.26,-16.385 1.442,-0.131 4.326,16.91 8.914,17.041 6.161,0.131 6.158,-16.946 9.307,-16.91 3.012,0.029 4.339,19.524 11.404,18.745 3.946,-0.398 5.899,-19.138 -2.884,-35.785 -5.767,-14.551 -24.119,-12.322 -37.097,-12.977 z"
         id="path618"
         nodetypes="ccccccccccccc"
         transform="matrix(0.5873,0,0,0.587353,270.1049,-25.41902)"
         inkscape:connector-curvature="0" />
      <path
         style="font-size:12px;fill:#cf1126;fill-rule:evenodd;stroke:#000000;stroke-width:2.5"
         d="m 352.22,286.251 c 3.504,5.887 30.835,5.747 32.377,5.747 1.542,0 25.369,0.28 30.975,-5.466"
         id="path619"
         nodetypes="ccc"
         transform="matrix(0.5873,0,0,0.587353,270.1049,-25.41902)"
         inkscape:connector-curvature="0" />
      <path
         style="font-size:12px;fill:#cf1126;fill-rule:evenodd;stroke:#000000;stroke-width:2.5"
         d="m 378.616,224.864 0,58.032 c 0,0 0.314,3.24 5.124,3.345 4.81,0.105 5.541,-2.718 5.541,-3.137 l -0.209,-58.345"
         id="path628"
         nodetypes="ccccc"
         transform="matrix(0.5873,0,0,0.587353,270.1049,-25.41902)"
         inkscape:connector-curvature="0" />
      <path
         style="font-size:12px;fill:#cf1126;fill-rule:evenodd;stroke:#000000;stroke-width:2.5"
         d="m 384.246,231.589 c 21.864,-1.121 28.383,11.774 34.55,14.577 6.167,2.803 8.97,3.924 17.38,3.363 8.409,-0.56 -14.577,14.017 -14.577,14.577 l 8.41,15.137 c -7.849,1.121 -22.713,-6.125 -28.592,-10.091 -6.65,-3.927 -14.016,-1.682 -16.819,-2.243 l -0.352,-35.32 z"
         id="path625"
         nodetypes="cccccscc"
         transform="matrix(0.5873,0,0,0.587353,270.1049,-25.41902)"
         inkscape:connector-curvature="0" />
      <path
         style="font-size:12px;fill:#cf1126;fill-rule:evenodd;stroke:#000000;stroke-width:1.67439997"
         d="m 313.396,264.666 c 0,4.333 -3.893,7.849 -8.689,7.849 -4.797,0 -8.69,-3.516 -8.69,-7.849 0,-4.332 3.893,-7.848 8.69,-7.848 4.796,0 8.689,3.516 8.689,7.848 z"
         id="path690"
         transform="matrix(0.852533,0,0,0.902007,235.713,-138.4982)"
         inkscape:connector-curvature="0" />
      <g
         id="g796"
         style="font-size:12px;fill:#fdd114;stroke:#cf1126;stroke-width:0.375"
         transform="matrix(0.5873,0,0,0.587353,269.6894,-202.364)">
        <path
           style="font-size:12px;fill:#fdd114;fill-opacity:1;fill-rule:evenodd;stroke:#cf1126;stroke-width:0.375;stroke-linecap:butt;stroke-linejoin:miter;stroke-opacity:1;stroke-dasharray:none"
           d="m 249.321,508.254 c -1.666,2.331 -3.103,-3.799 -8.827,0.499 -3.228,2.759 -4.521,6.987 -4.498,15.822 0.02,7.491 4.331,12.492 6.83,11.992 3.83,-0.5 1.831,-9.66 5.995,-11.325 5.996,-2.832 14.49,1.498 15.989,6.994 1.499,5.496 -2.832,11.492 -7.495,10.826 -2.665,-0.999 1.499,-4.829 1.832,-6.495 0.333,-1.665 0.832,-7.162 -3.165,-8.66 -3.997,-1.499 -3.33,3.997 -3.497,5.496 -0.166,1.499 -2.998,6.162 -6.162,5.995 -3.164,-0.166 -8.193,-0.149 -13.158,-5.495 -2.632,-2.743 -5.829,-10.16 -2.997,-19.487 2.831,-9.326 7.661,-10.159 10.326,-10.326 2.664,-0.166 9.493,1.499 8.827,4.164 z"
           id="path621"
           nodetypes="cssccccccccsccc"
           transform="translate(0,295.1666)"
           inkscape:connector-curvature="0" />
        <path
           style="font-size:12px;fill:#fdd114;fill-opacity:1;fill-rule:evenodd;stroke:#cf1126;stroke-width:0.375;stroke-linecap:butt;stroke-linejoin:miter;stroke-opacity:1;stroke-dasharray:none"
           d="m 242.492,547.059 c -2.779,-1.485 1.045,-6.896 -6.162,-4.996 -2.9,0.808 4.33,9.16 7.494,9.494 3.498,-0.334 2.523,-2.604 -1.332,-4.498 z"
           id="path622"
           nodetypes="cscs"
           transform="translate(0,295.1666)"
           inkscape:connector-curvature="0" />
        <path
           style="font-size:12px;fill:#fdd114;fill-opacity:1;fill-rule:evenodd;stroke:#cf1126;stroke-width:0.375;stroke-linecap:butt;stroke-linejoin:miter;stroke-opacity:1;stroke-dasharray:none"
           d="m 250.154,551.557 c 1.498,6.828 2.917,6.249 3.164,9.659 0.124,4.356 -7.329,2.498 -8.328,4.496 -0.999,1.999 -2.331,7.162 2.498,7.495 4.83,0.333 11.762,-1.523 13.157,1.832 3.761,9.443 11.782,8.074 15.522,6.605 4.23,-1.693 14.185,-10.664 16.455,-11.435 3.38,-1.238 -3.164,-3.664 -6.994,-0.333 -0.999,1 -9.327,9.494 -13.657,9.66 -3.163,0.352 -8.063,-7.666 -7.828,-10.492 0.333,-1.999 7.62,-0.35 8.661,-4.497 0.775,-2.963 0.832,-6.163 -1.499,-6.329 -2.332,-0.167 -13.324,1.332 -13.657,-0.333 -1.999,-4.83 1.999,-6.828 0.5,-8.161 -1.666,-0.666 -7.828,-1.665 -7.994,1.833 z"
           id="path623"
           nodetypes="csccssscssscccc"
           transform="translate(0,295.1666)"
           inkscape:connector-curvature="0" />
        <path
           style="font-size:12px;fill:#fdd114;fill-opacity:1;fill-rule:evenodd;stroke:#cf1126;stroke-width:0.375;stroke-linecap:butt;stroke-linejoin:miter;stroke-opacity:1;stroke-dasharray:none"
           d="m 287.182,578.04 c -3.524,3.691 -12.801,9.6 -12.801,13.774 0,2.366 2.589,6.075 4.73,6.957 3.196,1.259 8.098,0.944 11.827,-1.948 4.217,-3.426 6.114,-6.899 4.314,-7.513 -6.378,-1.823 -6.539,6.968 -9.601,7.235 -2.925,0.243 -7.374,-4.453 -1.53,-10.297 5.843,-5.843 13.914,-11.687 13.635,-13.357 -0.278,-1.669 -8.045,2.6 -10.574,5.149 z"
           id="path638"
           nodetypes="csssssccs"
           transform="translate(0,295.1666)"
           inkscape:connector-curvature="0" />
        <path
           style="font-size:12px;fill:#fdd114;fill-opacity:1;fill-rule:evenodd;stroke:#cf1126;stroke-width:0.375;stroke-linecap:butt;stroke-linejoin:miter;stroke-opacity:1;stroke-dasharray:none"
           d="m 259.354,585.692 c -0.261,2.351 5.983,2.365 7.096,0.278 0.834,-1.53 -6.818,-2.643 -7.096,-0.278 z"
           id="path639"
           nodetypes="ccs"
           transform="translate(12.66161,312.0024)"
           inkscape:connector-curvature="0" />
        <path
           style="font-size:12px;fill:#fdd114;fill-opacity:1;fill-rule:evenodd;stroke:#cf1126;stroke-width:0.375;stroke-linecap:butt;stroke-linejoin:miter;stroke-opacity:1;stroke-dasharray:none"
           d="m 273.842,583.058 c -3.524,3.691 0.417,7.887 3.109,11.326 1.491,1.837 4.915,3.627 7.056,4.509 3.196,1.259 9.566,0.822 13.295,-2.07 4.217,-3.426 4.55,-9.443 1.989,-9.471 -6.619,-0.074 -2.011,8.804 -5.073,9.071 -2.925,0.243 -11.126,-1.606 -15.115,-10.053 -2.279,-4.979 4.202,-5.931 3.232,-8.094 -0.988,-2.324 -5.964,2.233 -8.493,4.782 z"
           id="path640"
           nodetypes="cssssssss"
           transform="translate(19.20111,316.1765)"
           inkscape:connector-curvature="0" />
        <path
           style="font-size:12px;fill:#fdd114;fill-opacity:1;fill-rule:evenodd;stroke:#cf1126;stroke-width:0.375;stroke-linecap:butt;stroke-linejoin:miter;stroke-opacity:1;stroke-dasharray:none"
           d="m 259.354,585.692 c -0.261,2.351 5.983,2.365 7.096,0.278 0.834,-1.53 -6.818,-2.643 -7.096,-0.278 z"
           id="path641"
           nodetypes="ccs"
           transform="matrix(0.746044,-0.665897,0.665897,0.746044,-273.2715,634.658)"
           inkscape:connector-curvature="0" />
        <path
           style="font-size:12px;fill:#fdd114;fill-opacity:1;fill-rule:evenodd;stroke:#cf1126;stroke-width:0.375;stroke-linecap:butt;stroke-linejoin:miter;stroke-opacity:1;stroke-dasharray:none"
           d="m 319.557,621.309 c -0.19,2.708 0.612,6.364 -2.57,6.487 -3.182,0.122 -7.221,-4.162 -10.403,-4.039 -3.182,0.122 -4.529,2.57 -4.162,3.917 0.367,1.346 5.875,2.937 15.299,2.325 9.424,-0.612 7.343,5.14 13.952,4.65 6.609,-0.489 7.588,-2.692 7.099,-4.16 -0.49,-1.469 -6.119,-0.49 -8.2,-0.857 -2.081,-0.368 -5.752,-3.672 -6.242,-6.487 -0.489,-2.815 -0.489,-7.667 1.958,-7.71 4.529,-0.079 2.437,4.115 2.61,5.587 0.153,1.303 1.634,2.654 3.632,0.287 2.653,-3.141 1.224,-8.078 -1.346,-9.791 -2.57,-1.713 -11.148,3.2 -11.627,9.791 z"
           id="path642"
           nodetypes="cccccccccssscs"
           transform="translate(0,295.1666)"
           inkscape:connector-curvature="0" />
        <path
           style="font-size:12px;fill:#fdd114;fill-opacity:1;fill-rule:evenodd;stroke:#cf1126;stroke-width:0.375;stroke-linecap:butt;stroke-linejoin:miter;stroke-opacity:1;stroke-dasharray:none"
           d="m 342.933,621.799 c -0.482,4.853 -3.955,5.206 -3.549,6.976 0.502,2.034 1.759,2.672 2.57,7.71 0.459,2.484 3.549,3.537 7.466,3.305 3.201,-0.088 5.389,-4.424 7.465,-4.284 2.935,0.157 0.49,6.801 7.344,6.732 5.507,-0.052 6.854,-4.774 8.812,-4.896 1.958,-0.123 1.713,5.507 6.242,5.507 4.528,0 6.486,-5.14 8.567,-5.262 2.203,0.122 2.203,5.507 8.934,5.14 6.732,-0.368 11.75,-1.346 13.341,-2.692 1.591,-1.347 2.325,-5.753 4.528,-5.998 2.203,-0.244 5.63,4.161 8.69,4.161 3.06,0 9.423,-7.709 11.381,-7.832 1.959,-0.122 3.55,4.773 7.956,4.773 6.854,-0.122 7.655,-9.033 10.847,-9.454 5.754,-0.56 5.981,-2.907 6.287,-3.519 0.612,-1.714 -0.044,-9.749 -1.351,-13.418 -0.635,-1.936 -7.95,-18.281 -11.254,-18.648 -3.305,-0.367 -2.326,4.406 -0.368,7.221 1.959,2.815 11.994,15.91 10.648,19.704 -1.346,3.795 -8.445,-1.591 -14.075,-1.591 -7.833,0 -12.592,15.836 -18.114,16.4 -2.425,0.26 -5.017,-2.08 -4.16,-3.794 1.591,-2.447 3.426,-8.322 -2.693,-7.465 -6.119,0.856 -12.361,3.671 -11.382,6.976 0.979,3.304 4.651,6.609 0.612,7.955 -4.039,1.346 -11.015,1.714 -14.442,0.612 -3.427,-1.101 -1.347,-8.812 -3.427,-8.812 -2.325,0 -2.447,9.057 -5.752,9.302 -3.304,0.244 -6.242,-1.102 -6.976,-3.672 -0.735,-2.57 1.224,-5.752 -0.979,-6.119 -2.203,-0.368 -4.407,10.158 -7.711,9.913 -3.304,-0.245 -3.427,-0.979 -5.385,-3.06 -1.958,-2.08 1.713,-9.179 -1.591,-9.791 -3.305,-0.612 -6.61,10.526 -8.812,10.404 -2.204,-0.123 -5.508,-0.245 -6.487,-2.448 -0.49,-1.102 -0.353,-7.993 -0.243,-10.787 -0.061,-1.322 -3.182,-0.741 -2.939,0.751 z"
           id="path643"
           nodetypes="cssssscccccccccscsccccsccccccsccsscscss"
           transform="translate(0,295.1666)"
           inkscape:connector-curvature="0" />
        <path
           style="font-size:12px;fill:#fdd114;fill-opacity:1;fill-rule:evenodd;stroke:#cf1126;stroke-width:0.375;stroke-linecap:butt;stroke-linejoin:miter;stroke-opacity:1;stroke-dasharray:none"
           d="m 454.185,591.813 c 6.031,9.131 11.463,21.479 14.809,22.152 2.228,0.327 -6.977,-16.521 -10.036,-20.316 -2.57,-3.916 -9.961,-9.795 -4.773,-1.836 z"
           id="path644"
           nodetypes="cscs"
           transform="translate(0,295.1666)"
           inkscape:connector-curvature="0" />
        <path
           style="font-size:12px;fill:#fdd114;fill-opacity:1;fill-rule:evenodd;stroke:#cf1126;stroke-width:0.375;stroke-linecap:butt;stroke-linejoin:miter;stroke-opacity:1;stroke-dasharray:none"
           d="m 342.157,613.741 c -1.144,2.287 -0.735,4.493 1.225,4.166 1.96,-0.327 4.492,-4.166 3.839,-4.901 -0.653,-0.735 -3.512,-1.388 -5.064,0.735 z"
           id="path645"
           transform="matrix(0.787223,0,0,0.968727,73.0213,314.6675)"
           inkscape:connector-curvature="0" />
        <path
           style="font-size:12px;fill:#fdd114;fill-opacity:1;fill-rule:evenodd;stroke:#cf1126;stroke-width:0.375;stroke-linecap:butt;stroke-linejoin:miter;stroke-opacity:1;stroke-dasharray:none"
           d="m 471.9,595.862 c -0.021,4.951 3.485,10.551 10.009,10.198 6.525,-0.352 13.679,-7.568 14.208,-14.974 0.529,-7.406 -8.612,-12.843 -10.904,-11.256 -2.293,1.587 0.86,7.11 6.716,7.451 2.508,0.152 1.689,5.056 -3.116,8.936 -5.035,3.98 -12.489,3.904 -14.312,1.158 -1.41,-3.88 -2.694,-3.907 -2.601,-1.513 z"
           id="path646"
           nodetypes="ccccsscs"
           transform="translate(0,295.1666)"
           inkscape:connector-curvature="0" />
        <path
           style="font-size:12px;fill:#fdd114;fill-opacity:1;fill-rule:evenodd;stroke:#cf1126;stroke-width:0.375;stroke-linecap:butt;stroke-linejoin:miter;stroke-opacity:1;stroke-dasharray:none"
           d="m 475.832,580.855 c -0.954,1.961 1.035,6.481 3.192,6.281 2.187,-0.214 -2.492,-7.579 -3.192,-6.281 z"
           id="path647"
           nodetypes="css"
           transform="translate(0,295.1666)"
           inkscape:connector-curvature="0" />
        <path
           style="font-size:12px;fill:#fdd114;fill-opacity:1;fill-rule:evenodd;stroke:#cf1126;stroke-width:0.375;stroke-linecap:butt;stroke-linejoin:miter;stroke-opacity:1;stroke-dasharray:none"
           d="m 494.985,577.354 c 1.27,2.937 2.78,7.414 5.457,7.414 2.678,0 4.84,0.721 4.84,2.986 0,2.265 -6.98,9.806 -7.208,12.357 -0.389,4.348 2.78,4.119 4.325,1.75 1.544,-2.368 5.721,-13.507 6.59,-16.579 0.378,-2.428 3.38,-6.992 3.501,-11.742 -0.192,-5.352 4.736,-1.026 7.105,-0.82 2.17,0.095 4.531,-3.913 4.84,-6.796 0.309,-2.884 -2.266,-3.398 -2.266,-5.972 0,-1.442 2.754,-6.076 2.883,-9.165 0.307,-2.732 -5.354,-10.606 -7.722,-10.503 -1.957,0.103 -0.309,2.986 0.824,4.222 1.132,1.236 4.015,3.81 2.986,6.075 -1.854,4.428 -10.916,5.561 -11.327,10.298 -0.412,3.398 0.411,14.107 -2.369,14.107 -2.78,0 -5.056,-6.69 -9.37,-6.694 -4.838,-0.129 -4.092,6.825 -3.089,9.062 z"
           id="path648"
           nodetypes="cccscsssssscccccss"
           transform="translate(0,295.1666)"
           inkscape:connector-curvature="0" />
        <path
           style="font-size:12px;fill:#fdd114;fill-opacity:1;fill-rule:evenodd;stroke:#cf1126;stroke-width:0.375;stroke-linecap:butt;stroke-linejoin:miter;stroke-opacity:1;stroke-dasharray:none"
           d="m 502.09,536.68 c 0.133,1.907 4.119,10.194 6.487,10.194 3.398,0 -1.545,-3.912 -1.236,-5.354 0.309,-1.442 5.177,-3.614 3.192,-4.119 -3.55,-1.087 -8.619,-3.242 -8.443,-0.721 z"
           id="path651"
           nodetypes="cssss"
           transform="translate(0,295.1666)"
           inkscape:connector-curvature="0" />
        <path
           style="font-size:12px;fill:#fdd114;fill-opacity:1;fill-rule:evenodd;stroke:#cf1126;stroke-width:0.375;stroke-linecap:butt;stroke-linejoin:miter;stroke-opacity:1;stroke-dasharray:none"
           d="m 501.781,525.971 c 0.721,2.677 11.738,6.693 16.475,8.032 4.737,1.339 10.503,7.002 12.666,5.148 2.162,-1.853 -14.519,-8.443 -16.99,-9.37 -2.471,-0.927 -12.666,-6.487 -12.151,-3.81 z"
           id="path652"
           nodetypes="ccccc"
           transform="translate(0,295.1666)"
           inkscape:connector-curvature="0" />
        <path
           style="font-size:12px;fill:#fdd114;fill-opacity:1;fill-rule:evenodd;stroke:#cf1126;stroke-width:0.375;stroke-linecap:butt;stroke-linejoin:miter;stroke-opacity:1;stroke-dasharray:none"
           d="m 535.041,543.271 c 4.119,0.102 1.853,-8.033 0.823,-9.989 -1.029,-1.957 -2.574,3.707 -2.368,5.355 0.206,1.647 0.309,4.531 1.545,4.634 z"
           id="path718"
           nodetypes="cccc"
           transform="translate(0,295.1666)"
           inkscape:connector-curvature="0" />
        <path
           style="font-size:12px;fill:#fdd114;fill-opacity:1;fill-rule:evenodd;stroke:#cf1126;stroke-width:0.375;stroke-linecap:butt;stroke-linejoin:miter;stroke-opacity:1;stroke-dasharray:none"
           d="m 511.048,502.803 c -0.035,1.843 11.379,0.535 16.682,1.956 2.288,0.641 10.091,4.839 11.532,3.81 1.648,-2.163 -10.606,-6.796 -17.608,-6.796 -2.267,0.034 -10.566,-1.143 -10.606,1.03 z"
           id="path655"
           nodetypes="cscss"
           transform="translate(0,295.1666)"
           inkscape:connector-curvature="0" />
        <path
           style="font-size:12px;fill:#fdd114;fill-opacity:1;fill-rule:evenodd;stroke:#cf1126;stroke-width:0.375;stroke-linecap:butt;stroke-linejoin:miter;stroke-opacity:1;stroke-dasharray:none"
           d="m 508.062,508.054 c -2.043,2.187 6.884,4.633 14.828,4.942 7.913,0.309 13.041,5.063 12.357,8.547 -1.133,5.87 -11.018,2.059 -9.782,5.252 0.72,2.471 5.067,1.564 5.56,4.222 0.341,2.678 3.131,3.149 2.982,-0.152 -0.016,-2.627 6.131,-6.954 5.977,-8.189 -0.309,-2.471 -4.016,-11.121 -13.49,-12.048 -9.473,-0.926 -15.824,-5.491 -18.432,-2.574 z"
           id="path720"
           nodetypes="csscsssss"
           transform="translate(0,295.1666)"
           inkscape:connector-curvature="0" />
      </g>
      <path
         style="font-size:12px;fill:#cf1126;fill-rule:evenodd;stroke:#cf1126;stroke-width:0.0734158"
         d="m 419.371,303.328 c -0.746,-0.431 -3.405,1.959 -2.451,2.492 1.81,1.025 3.585,-1.858 2.451,-2.492 z"
         id="path629"
         nodetypes="css"
         inkscape:connector-curvature="0" />
      <path
         style="font-size:12px;fill:#cf1126;fill-rule:evenodd;stroke:#cf1126;stroke-width:0.0734158"
         d="m 425.083,300.49 c -1.291,-0.161 -1.915,2.58 -0.835,2.743 2.744,0.379 3.285,-2.447 0.835,-2.743 z"
         id="path634"
         nodetypes="css"
         inkscape:connector-curvature="0" />
      <path
         style="font-size:12px;fill:#cf1126;fill-rule:evenodd;stroke:#cf1126;stroke-width:0.0734158"
         d="m 564.264,308.178 c -0.611,-0.003 -2.54,0.847 -1.874,2.178 0.665,1.33 2.574,1.362 3.447,0.605 0.778,-0.737 0.602,-2.77 -1.573,-2.783 z"
         id="path649"
         nodetypes="csss"
         inkscape:connector-curvature="0" />
      <path
         style="font-size:12px;fill:#cf1126;fill-rule:evenodd;stroke:#cf1126;stroke-width:0.0734158"
         d="m 571.824,302.372 c 0.195,1.463 1.265,1.226 2.116,0.907 0.968,-0.423 1.25,-1.703 0.303,-2.177 -0.988,-0.494 -2.619,0.226 -2.419,1.27 z"
         id="path650"
         nodetypes="csss"
         inkscape:connector-curvature="0" />
      <path
         style="font-size:12px;fill:#cf1126;fill-rule:evenodd;stroke:#cf1126;stroke-width:0.0734158"
         d="m 528.119,336.582 c -1.303,2.878 -0.181,5.693 1.897,5.151 2.078,-0.542 4.157,-4.519 2.621,-5.784 -1.536,-1.265 -3.653,-1.279 -4.518,0.633 z"
         id="path657"
         nodetypes="cccs"
         inkscape:connector-curvature="0" />
      <g
         id="g919"
         transform="matrix(0.5873,0,0,0.587353,269.6894,-198.8207)"
         style="font-size:12px;fill:#cf1126">
        <path
           style="font-size:12px;fill:#cf1126;fill-opacity:1;fill-rule:evenodd;stroke-width:1pt"
           d="m 140.719,708.258 c -8.256,-0.75 -27.018,-4.503 -27.769,-0.75 -0.75,3.752 10.132,47.657 15.761,53.285 5.628,5.629 31.896,17.637 34.523,16.136 2.626,-1.501 -5.254,-28.894 -8.256,-33.772 -3.002,-4.879 -12.008,-22.515 -11.257,-23.266 0.75,-0.75 -3.378,-11.633 -3.002,-11.633 z"
           id="path697"
           transform="translate(0.750504,-3.051758e-5)"
           nodetypes="ccccccc"
           inkscape:connector-curvature="0" />
        <path
           style="font-size:12px;fill:#cf1126;fill-opacity:1;fill-rule:evenodd;stroke:#000000;stroke-width:2.5;stroke-dasharray:none"
           d="m 124.242,411.536 c 2.012,-10.563 14.294,2.08 13.078,15.841 -0.599,4.669 2.012,9.812 4.527,12.327"
           id="path632"
           nodetypes="ccc"
           transform="translate(0.70755,295.2256)"
           inkscape:connector-curvature="0" />
        <path
           style="font-size:12px;fill:#cf1126;fill-opacity:1;fill-rule:evenodd;stroke:#000000;stroke-width:2.5;stroke-dasharray:none"
           d="m 134.805,412.039 -0.461,0.614 c 6.16,-10.424 12.116,4.416 13.036,21.518"
           id="path633"
           nodetypes="ccc"
           transform="translate(0.70755,295.2256)"
           inkscape:connector-curvature="0" />
        <path
           style="font-size:12px;fill:#cf1126;fill-opacity:1;fill-rule:evenodd;stroke:#000000;stroke-width:2.5;stroke-dasharray:none"
           d="m 113.615,410.414 c -0.356,-8.536 13.509,-10.988 12.651,19.87 6.045,3.912 13.16,18.85 13.515,24.186 4.537,1.067 12.093,6.646 13.933,11.27"
           id="path631"
           nodetypes="cccc"
           transform="translate(0.70755,295.2256)"
           inkscape:connector-curvature="0" />
        <path
           style="font-size:12px;fill:#cf1126;fill-opacity:1;fill-rule:evenodd;stroke:#000000;stroke-width:2.5;stroke-dasharray:none"
           d="m 147.625,581.395 c 0.648,-23.495 1.018,-73.806 -1.442,-79.264 -4.326,-10.103 -26.09,-21.818 -32.722,-37.702 -6.639,-16.804 -12.299,-55.134 -9.604,-59.754 3.529,-6.659 15.295,8.181 12.094,24.542 14.228,16.717 11.237,26.675 13.871,28.81 8.774,6.757 22.171,11.382 24.541,17.428 4.877,10.817 -1.066,-15.295 -4.979,-20.63 -3.912,-5.335 -10.67,-17.072 -6.046,-19.917 4.623,-2.846 12.804,4.624 13.871,6.758 1.067,2.134 12.093,14.227 15.294,17.072 5.691,4.268 20.064,13.809 19.778,21.988 -0.015,13.222 1.159,100.212 1.159,100.212"
           id="path630"
           nodetypes="cssscssccccsc"
           transform="translate(0.70755,295.2256)"
           inkscape:connector-curvature="0" />
        <path
           style="font-size:12px;fill:#cf1126;fill-opacity:1;fill-rule:evenodd;stroke:#000000;stroke-width:2.5;stroke-dasharray:none"
           d="m 144.968,612.374 c 0,0 -0.09,9.457 -0.089,9.635 4.104,4.996 21.234,5.552 25.068,5.531 3.752,-0.11 19.87,0.178 23.617,-5.977 0.089,-0.178 0.232,-8.033 0.232,-10.192"
           id="path581"
           nodetypes="ccscc"
           transform="translate(0.70755,295.2256)"
           inkscape:connector-curvature="0" />
        <path
           style="font-size:12px;fill:#cf1126;fill-opacity:1;fill-rule:evenodd;stroke:#000000;stroke-width:2.5;stroke-dasharray:none"
           d="m 144.202,585.22 c -4.745,1.055 -5.985,6.852 -2.637,11.073 2.715,3.424 13.973,7.381 26.891,7.646 12.917,0.262 30.054,-4.219 30.844,-11.337 0.264,-7.118 -6.421,-6.684 -5.63,-6.42"
           id="path637"
           nodetypes="csccc"
           transform="translate(0.70755,308.4084)"
           inkscape:connector-curvature="0" />
        <path
           style="font-size:12px;fill:#cf1126;fill-opacity:1;fill-rule:evenodd;stroke:#000000;stroke-width:2.5;stroke-dasharray:none"
           d="m 144.202,585.306 c -4.745,1.055 -5.632,7.03 -2.284,11.251 2.715,3.424 14.147,8.172 27.065,8.436 12.917,0.263 29.263,-5.009 30.053,-12.127 0.264,-7.118 -4.652,-6.505 -5.009,-6.327"
           id="path636"
           nodetypes="csccc"
           transform="translate(0.70755,295.2256)"
           inkscape:connector-curvature="0" />
        <path
           style="font-size:12px;fill:#cf1126;fill-opacity:1;fill-rule:evenodd;stroke:#000000;stroke-width:2.5;stroke-dasharray:none"
           d="m 171.092,592.602 c 17.135,0.264 28.208,-8.172 28.208,-12.653 0,-4.482 -5.536,-4.746 -8.964,-3.428 -3.427,1.318 -8.699,4.665 -19.771,4.745 -11.334,0.345 -21.354,-7.908 -24.781,-7.645 -3.427,0.264 -6.112,3.98 -5.009,7.909 1.357,3.897 13.445,11.599 30.317,11.072 z"
           id="path635"
           nodetypes="cccscsc"
           transform="translate(0.70755,295.2256)"
           inkscape:connector-curvature="0" />
      </g>
      <g
         id="g929"
         transform="matrix(0.5873,0,0,0.587353,269.6894,-198.8207)"
         style="font-size:12px;fill:#cf1126">
        <path
           style="font-size:12px;fill:#cf1126;fill-opacity:1;fill-rule:evenodd;stroke-width:1pt"
           d="m 140.719,708.258 c -8.256,-0.75 -27.018,-4.503 -27.769,-0.75 -0.75,3.752 10.132,47.657 15.761,53.285 5.628,5.629 31.896,17.637 34.523,16.136 2.626,-1.501 -5.254,-28.894 -8.256,-33.772 -3.002,-4.879 -12.008,-22.515 -11.257,-23.266 0.75,-0.75 -3.378,-11.633 -3.002,-11.633 z"
           id="path869"
           transform="matrix(-1,0,0,1,770.0846,-6.103516e-5)"
           nodetypes="ccccccc"
           inkscape:connector-curvature="0" />
        <path
           style="font-size:12px;fill:#cf1126;fill-opacity:1;fill-rule:evenodd;stroke:#000000;stroke-width:2.5;stroke-dasharray:none"
           d="m 124.242,411.536 c 2.012,-10.563 14.294,2.08 13.078,15.841 -0.599,4.669 2.012,9.812 4.527,12.327"
           id="path870"
           nodetypes="ccc"
           transform="matrix(-1,0,0,1,770.1276,295.2256)"
           inkscape:connector-curvature="0" />
        <path
           style="font-size:12px;fill:#cf1126;fill-opacity:1;fill-rule:evenodd;stroke:#000000;stroke-width:2.5;stroke-dasharray:none"
           d="m 134.805,412.039 -0.461,0.614 c 6.16,-10.424 12.116,4.416 13.036,21.518"
           id="path871"
           nodetypes="ccc"
           transform="matrix(-1,0,0,1,770.1276,295.2256)"
           inkscape:connector-curvature="0" />
        <path
           style="font-size:12px;fill:#cf1126;fill-opacity:1;fill-rule:evenodd;stroke:#000000;stroke-width:2.5;stroke-dasharray:none"
           d="m 113.615,410.414 c -0.356,-8.536 13.509,-10.988 12.651,19.87 6.045,3.912 13.16,18.85 13.515,24.186 4.537,1.067 12.093,6.646 13.933,11.27"
           id="path872"
           nodetypes="cccc"
           transform="matrix(-1,0,0,1,770.1276,295.2256)"
           inkscape:connector-curvature="0" />
        <path
           style="font-size:12px;fill:#cf1126;fill-opacity:1;fill-rule:evenodd;stroke:#000000;stroke-width:2.5;stroke-dasharray:none"
           d="m 147.625,581.395 c 0.648,-23.495 1.018,-73.806 -1.442,-79.264 -4.326,-10.103 -26.09,-21.818 -32.722,-37.702 -6.639,-16.804 -12.299,-55.134 -9.604,-59.754 3.529,-6.659 15.295,8.181 12.094,24.542 14.228,16.717 11.237,26.675 13.871,28.81 8.774,6.757 22.171,11.382 24.541,17.428 4.877,10.817 -1.066,-15.295 -4.979,-20.63 -3.912,-5.335 -10.67,-17.072 -6.046,-19.917 4.623,-2.846 12.804,4.624 13.871,6.758 1.067,2.134 12.093,14.227 15.294,17.072 5.691,4.268 20.064,13.809 19.778,21.988 -0.015,13.222 1.159,100.212 1.159,100.212"
           id="path873"
           nodetypes="cssscssccccsc"
           transform="matrix(-1,0,0,1,770.1276,295.2256)"
           inkscape:connector-curvature="0" />
        <path
           style="font-size:12px;fill:#cf1126;fill-opacity:1;fill-rule:evenodd;stroke:#000000;stroke-width:2.5;stroke-dasharray:none"
           d="m 144.968,612.374 c 0,0 -0.09,9.457 -0.089,9.635 4.104,4.996 21.234,5.552 25.068,5.531 3.752,-0.11 19.87,0.178 23.617,-5.977 0.089,-0.178 0.232,-8.033 0.232,-10.192"
           id="path874"
           nodetypes="ccscc"
           transform="matrix(-1,0,0,1,770.1276,295.2256)"
           inkscape:connector-curvature="0" />
        <path
           style="font-size:12px;fill:#cf1126;fill-opacity:1;fill-rule:evenodd;stroke:#000000;stroke-width:2.5;stroke-dasharray:none"
           d="m 144.202,585.22 c -4.745,1.055 -5.985,6.852 -2.637,11.073 2.715,3.424 13.973,7.381 26.891,7.646 12.917,0.262 30.054,-4.219 30.844,-11.337 0.264,-7.118 -6.421,-6.684 -5.63,-6.42"
           id="path876"
           nodetypes="csccc"
           transform="matrix(-1,0,0,1,770.1276,308.4084)"
           inkscape:connector-curvature="0" />
        <path
           style="font-size:12px;fill:#cf1126;fill-opacity:1;fill-rule:evenodd;stroke:#000000;stroke-width:2.5;stroke-dasharray:none"
           d="m 144.202,585.306 c -4.745,1.055 -5.632,7.03 -2.284,11.251 2.715,3.424 14.147,8.172 27.065,8.436 12.917,0.263 29.263,-5.009 30.053,-12.127 0.264,-7.118 -4.652,-6.505 -5.009,-6.327"
           id="path877"
           nodetypes="csccc"
           transform="matrix(-1,0,0,1,770.1276,295.2256)"
           inkscape:connector-curvature="0" />
        <path
           style="font-size:12px;fill:#cf1126;fill-opacity:1;fill-rule:evenodd;stroke:#000000;stroke-width:2.5;stroke-dasharray:none"
           d="m 171.092,592.602 c 17.135,0.264 28.208,-8.172 28.208,-12.653 0,-4.482 -5.536,-4.746 -8.964,-3.428 -3.427,1.318 -8.699,4.665 -19.771,4.745 -11.334,0.345 -21.354,-7.908 -24.781,-7.645 -3.427,0.264 -6.112,3.98 -5.009,7.909 1.357,3.897 13.445,11.599 30.317,11.072 z"
           id="path878"
           nodetypes="cccscsc"
           transform="matrix(-1,0,0,1,770.1276,295.2256)"
           inkscape:connector-curvature="0" />
      </g>
    </g>
  </g>
</svg>
