<?xml version="1.0" encoding="UTF-8" standalone="no"?>
<!-- Created with Sodipodi ("http://www.sodipodi.com/") -->

<svg
   xmlns:dc="http://purl.org/dc/elements/1.1/"
   xmlns:cc="http://creativecommons.org/ns#"
   xmlns:rdf="http://www.w3.org/1999/02/22-rdf-syntax-ns#"
   xmlns:svg="http://www.w3.org/2000/svg"
   xmlns="http://www.w3.org/2000/svg"
   xmlns:sodipodi="http://sodipodi.sourceforge.net/DTD/sodipodi-0.dtd"
   xmlns:inkscape="http://www.inkscape.org/namespaces/inkscape"
   style="fill:#28ff09; fill-opacity:14.1176%; stroke:none; "
   width="512"
   height="512"
   id="canada"
   sodipodi:docname="ca.svg"
   sodipodi:version="0.32"
   version="1.1"
   inkscape:version="0.48.1 r9760">
  <sodipodi:namedview
     id="base"
     gridtolerance="10px"
     guidetolerance="5.000000"
     guidecolor="#0000ff"
     guideopacity="0.494118"
     guidehicolor="#ff0000"
     guidehiopacity="0.494118"
     showgrid="false"
     snaptogrid="true"
     inkscape:zoom="0.33060318"
     inkscape:cx="-30.247737"
     inkscape:cy="248.03149"
     inkscape:window-width="1280"
     inkscape:window-height="723"
     inkscape:window-x="0"
     inkscape:window-y="24"
     inkscape:window-maximized="1"
     inkscape:current-layer="canada">
    <inkscape:grid
       id="GridFromPre046Settings"
       type="xygrid"
       originx="0px"
       originy="0.000000"
       spacingx="35mm"
       spacingy="35mm"
       color="#000aff"
       empcolor="#0000ff"
       opacity="1.000000"
       empopacity="0.4"
       empspacing="5"
       units="mm"
       visible="true"
       enabled="true"
       snapvisiblegridlinesonly="true" />
  </sodipodi:namedview>
  <metadata
     id="metadata3503">
    <rdf:RDF>
      <cc:Work
         rdf:about="">
        <dc:format>image/svg+xml</dc:format>
        <dc:type
           rdf:resource="http://purl.org/dc/dcmitype/StillImage" />
      </cc:Work>
    </rdf:RDF>
  </metadata>
  <defs
     id="defs3">
    <clipPath
       clipPathUnits="userSpaceOnUse"
       id="clipPath3091">
      <rect
         id="rect3093"
         height="512"
         x="0.18245015"
         style="fill:#000000;fill-opacity:0.67000002;stroke:none"
         width="512"
         y="3.0247784" />
    </clipPath>
  </defs>
  <g
     y="0"
     x="0"
     height="512"
     width="512"
     transform="translate(-0.18245015,-3.0247784)"
     id="flag"
     clip-path="url(#clipPath3091)"
     inkscape:label="#g3536">
    <g
       id="g3531"
       transform="matrix(0.70756578,0,0,1,79.961499,3.0247743)">
      <rect
         style="fill:#ffffff;fill-opacity:1"
         id="mat"
         width="512"
         height="512"
         x="1.9189688"
         y="0" />
      <rect
         style="fill:#bf0a30;fill-opacity:1"
         id="left"
         x="-254.08104"
         y="0"
         width="256"
         height="512" />
      <rect
         style="fill:#bf0a30;fill-opacity:1"
         id="right"
         x="513.91901"
         y="0"
         width="256"
         height="512" />
    </g>
    <path
       inkscape:connector-curvature="0"
       id="leaf"
       d="m 135.49493,250.43781 -14.06714,4.8081 65.45643,57.44626 c 4.95172,14.76401 -1.71843,19.11628 -5.96829,26.8592 l 71.06006,-9.01925 -1.85081,71.51214 14.7178,-0.42336 -3.20956,-70.91769 71.12999,8.43229 c -4.40223,-9.2965 -8.31989,-14.23324 -4.24736,-29.0984 l 65.41272,-54.42527 -11.44704,-4.14371 c -9.35895,-7.22215 4.0438,-34.78447 6.06571,-52.1777 0,0 -38.1951,13.13463 -40.69781,6.26216 l -9.72612,-18.68493 -34.74824,38.17212 c -3.79653,0.90916 -5.41381,-0.60195 -6.30424,-3.80902 l 16.05283,-79.76611 -25.41927,14.29668 c -2.12806,0.90992 -4.25611,0.12489 -5.65858,-2.35522 l -24.44516,-49.07328 -25.20947,50.95156 c -1.90076,1.82571 -3.80277,2.03727 -5.38133,0.79578 l -24.20413,-13.57759 14.52922,79.14279 c -1.15519,3.14214 -3.92391,4.02633 -7.17968,2.32538 l -33.2159,-37.73702 c -4.34478,6.96152 -7.28959,18.336 -13.03309,20.88492 -5.74351,2.38657 -24.97967,-4.82309 -37.87289,-7.63776 4.40472,15.89522 18.17589,42.30234 9.46135,50.95693 z"
       style="fill:#bf0a30;fill-opacity:1" />
  </g>
</svg>
