<?xml version="1.0" encoding="UTF-8" standalone="no"?>
<!-- Created with Sodipodi ("http://www.sodipodi.com/") -->

<svg
   xmlns:dc="http://purl.org/dc/elements/1.1/"
   xmlns:cc="http://creativecommons.org/ns#"
   xmlns:rdf="http://www.w3.org/1999/02/22-rdf-syntax-ns#"
   xmlns:svg="http://www.w3.org/2000/svg"
   xmlns="http://www.w3.org/2000/svg"
   xmlns:xlink="http://www.w3.org/1999/xlink"
   xmlns:sodipodi="http://sodipodi.sourceforge.net/DTD/sodipodi-0.dtd"
   xmlns:inkscape="http://www.inkscape.org/namespaces/inkscape"
   id="svg1"
   sodipodi:version="0.32"
   width="512"
   height="512"
   sodipodi:docname="ck.svg"
   version="1.1"
   inkscape:version="0.48.1 r9760">
  <sodipodi:namedview
     id="base"
     showgrid="false"
     inkscape:zoom="0.33060318"
     inkscape:cx="496.06299"
     inkscape:cy="248.03149"
     inkscape:window-width="1280"
     inkscape:window-height="723"
     inkscape:window-x="0"
     inkscape:window-y="24"
     inkscape:window-maximized="1"
     inkscape:current-layer="svg1" />
  <metadata
     id="metadata3075">
    <rdf:RDF>
      <cc:Work
         rdf:about="">
        <dc:format>image/svg+xml</dc:format>
        <dc:type
           rdf:resource="http://purl.org/dc/dcmitype/StillImage" />
      </cc:Work>
    </rdf:RDF>
  </metadata>
  <defs
     id="defs3">
    <linearGradient
       id="linearGradient1108">
      <stop
         id="stop1109"
         offset="0"
         style="stop-color:#000;stop-opacity:1;" />
      <stop
         id="stop1110"
         offset="1"
         style="stop-color:#fff;stop-opacity:1;" />
    </linearGradient>
    <linearGradient
       id="linearGradient1111"
       xlink:href="#linearGradient1108" />
    <linearGradient
       id="linearGradient1112"
       xlink:href="#linearGradient1108" />
    <linearGradient
       id="linearGradient1113"
       xlink:href="#linearGradient1108" />
    <linearGradient
       id="linearGradient1114"
       xlink:href="#linearGradient1108" />
    <linearGradient
       id="linearGradient1115"
       xlink:href="#linearGradient1108" />
    <linearGradient
       id="linearGradient1116"
       xlink:href="#linearGradient1108" />
    <linearGradient
       id="linearGradient1117"
       xlink:href="#linearGradient1108" />
    <linearGradient
       id="linearGradient1118"
       xlink:href="#linearGradient1108" />
    <linearGradient
       id="linearGradient1119"
       xlink:href="#linearGradient1108" />
    <linearGradient
       id="linearGradient1120"
       xlink:href="#linearGradient1108" />
    <linearGradient
       id="linearGradient1121"
       xlink:href="#linearGradient1108" />
    <linearGradient
       id="linearGradient1122"
       xlink:href="#linearGradient1108" />
    <linearGradient
       id="linearGradient1123"
       xlink:href="#linearGradient1108" />
    <linearGradient
       id="linearGradient1124"
       xlink:href="#linearGradient1108" />
    <linearGradient
       id="linearGradient1125"
       xlink:href="#linearGradient1108" />
    <linearGradient
       id="linearGradient1126"
       xlink:href="#linearGradient1108" />
    <linearGradient
       id="linearGradient1127"
       xlink:href="#linearGradient1108" />
    <linearGradient
       id="linearGradient1128"
       xlink:href="#linearGradient1108" />
    <linearGradient
       id="linearGradient1129"
       xlink:href="#linearGradient1108" />
    <linearGradient
       id="linearGradient1130"
       xlink:href="#linearGradient1108" />
    <linearGradient
       id="linearGradient1131"
       xlink:href="#linearGradient1108" />
    <linearGradient
       id="linearGradient1132"
       xlink:href="#linearGradient1108" />
    <linearGradient
       id="linearGradient1133"
       xlink:href="#linearGradient1108" />
    <linearGradient
       id="linearGradient1134"
       xlink:href="#linearGradient1108" />
    <linearGradient
       id="linearGradient1135"
       xlink:href="#linearGradient1108" />
    <linearGradient
       id="linearGradient1136"
       xlink:href="#linearGradient1108" />
    <linearGradient
       id="linearGradient1137"
       xlink:href="#linearGradient1108" />
    <linearGradient
       id="linearGradient1138"
       xlink:href="#linearGradient1108" />
    <linearGradient
       id="linearGradient1139"
       xlink:href="#linearGradient1108" />
    <linearGradient
       id="linearGradient1140"
       xlink:href="#linearGradient1108" />
    <linearGradient
       id="linearGradient1141"
       xlink:href="#linearGradient1108" />
    <linearGradient
       id="linearGradient1142"
       xlink:href="#linearGradient1108" />
    <linearGradient
       id="linearGradient1143"
       xlink:href="#linearGradient1108" />
    <linearGradient
       id="linearGradient1144"
       xlink:href="#linearGradient1108" />
    <linearGradient
       id="linearGradient1145"
       xlink:href="#linearGradient1108" />
    <linearGradient
       id="linearGradient1146"
       xlink:href="#linearGradient1108" />
    <linearGradient
       id="linearGradient1147"
       xlink:href="#linearGradient1108" />
    <linearGradient
       id="linearGradient1148"
       xlink:href="#linearGradient1108" />
    <linearGradient
       id="linearGradient1149"
       xlink:href="#linearGradient1108" />
    <linearGradient
       id="linearGradient1150"
       xlink:href="#linearGradient1108" />
    <linearGradient
       id="linearGradient1151"
       xlink:href="#linearGradient1108" />
    <linearGradient
       id="linearGradient1152"
       xlink:href="#linearGradient1108" />
    <linearGradient
       id="linearGradient1153"
       xlink:href="#linearGradient1108" />
    <linearGradient
       id="linearGradient1154"
       xlink:href="#linearGradient1108" />
    <linearGradient
       id="linearGradient1155"
       xlink:href="#linearGradient1108" />
    <linearGradient
       id="linearGradient1156"
       xlink:href="#linearGradient1108" />
    <linearGradient
       id="linearGradient1157"
       xlink:href="#linearGradient1108" />
    <linearGradient
       id="linearGradient1158"
       xlink:href="#linearGradient1108" />
    <linearGradient
       id="linearGradient1159"
       xlink:href="#linearGradient1108" />
    <linearGradient
       id="linearGradient1160"
       xlink:href="#linearGradient1108" />
    <linearGradient
       id="linearGradient1161"
       xlink:href="#linearGradient1108" />
    <linearGradient
       id="linearGradient1162"
       xlink:href="#linearGradient1108" />
    <linearGradient
       id="linearGradient1163"
       xlink:href="#linearGradient1108" />
    <linearGradient
       id="linearGradient1164"
       xlink:href="#linearGradient1108" />
    <linearGradient
       id="linearGradient1165"
       xlink:href="#linearGradient1108" />
    <linearGradient
       id="linearGradient1166"
       xlink:href="#linearGradient1108" />
    <linearGradient
       id="linearGradient1167"
       xlink:href="#linearGradient1108" />
    <linearGradient
       id="linearGradient1168"
       xlink:href="#linearGradient1108" />
    <linearGradient
       id="linearGradient1169"
       xlink:href="#linearGradient1108" />
    <linearGradient
       id="linearGradient1170"
       xlink:href="#linearGradient1108" />
    <linearGradient
       id="linearGradient1171"
       xlink:href="#linearGradient1108" />
    <linearGradient
       id="linearGradient1172"
       xlink:href="#linearGradient1108" />
  </defs>
  <g
     id="flag"
     inkscape:label="#g3338">
    <rect
       inkscape:label="#rect124"
       style="font-size:12px;fill:#000066;stroke-width:1pt"
       id="rect124"
       x="0"
       y="-4.9737992e-14"
       width="512"
       height="512" />
    <g
       id="g584"
       transform="matrix(6.099961,0,0,6.099961,0,2.288818e-5)"
       style="font-size:12px">
      <path
         inkscape:connector-curvature="0"
         style="font-size:12px;fill:#ffffff;stroke-width:1pt"
         d="M 0,0 0,3.3541 53.2918,30 60,30 60,26.6459 6.7082,0 0,0 z M 60,0 60,3.35405 6.7082,30 0,30 0,26.6458 53.2918,0 60,0 z"
         id="path146" />
      <path
         inkscape:connector-curvature="0"
         style="font-size:12px;fill:#ffffff;stroke-width:1pt"
         d="M 25,0 25,30 35,30 35,0 25,0 z M 0,10 0,20 60,20 60,10 0,10 z"
         id="path136" />
      <path
         inkscape:connector-curvature="0"
         style="font-size:12px;fill:#cc0000;stroke-width:1pt"
         d="m 0,12 0,6 60,0 0,-6 -60,0 z m 27,-12 0,30 6,0 0,-30 -6,0 z"
         id="path141" />
      <path
         inkscape:connector-curvature="0"
         style="font-size:12px;fill:#cc0000;stroke-width:1pt"
         d="M 0,30 20,20 24.4721,20 4.47214,30 0,30 z M 0,0 20,10 15.5279,10 0,2.23607 0,0 z m 35.5279,10 20,-10 L 60,0 40,10 35.5279,10 z M 60,30 40,20 44.4721,20 60,27.7639 60,30 z"
         id="path150" />
    </g>
    <g
       id="g808"
       transform="matrix(0.76757666,0,0,0.77858381,-234.74694,154.36649)">
      <polygon
         inkscape:randomized="0"
         inkscape:rounded="0"
         inkscape:flatsided="false"
         sodipodi:type="star"
         style="font-size:12px;fill:#ffffff;fill-opacity:1;fill-rule:evenodd;stroke:none"
         id="polygon791"
         sodipodi:sides="5"
         sodipodi:cx="683.58209"
         sodipodi:cy="150.74628"
         sodipodi:r1="43.051365"
         sodipodi:r2="17.220547"
         sodipodi:arg1="2.1587994"
         sodipodi:arg2="2.787118"
         points="659.701,186.567 667.432,156.723 642.135,139.104 672.907,137.234 681.847,107.73 693.134,136.418 723.957,135.803 700.161,155.403 710.27,184.527 684.276,167.953 659.701,186.567 "
         transform="matrix(0.818718,0.03817616,-0.03719042,0.797578,211.4686,-51.03146)"
         d="m 659.70147,186.56717 7.73069,-29.84368 -25.29727,-17.61977 30.77193,-1.86988 8.94011,-29.50395 11.28741,28.68803 30.82257,-0.61468 -23.79593,19.60006 10.10929,29.12406 -25.99411,-16.57453 z" />
      <polygon
         inkscape:randomized="0"
         inkscape:rounded="0"
         inkscape:flatsided="false"
         sodipodi:type="star"
         style="font-size:12px;fill:#ffffff;fill-opacity:1;fill-rule:evenodd;stroke:none"
         id="polygon794"
         sodipodi:sides="5"
         sodipodi:cx="683.58209"
         sodipodi:cy="150.74628"
         sodipodi:r1="43.051365"
         sodipodi:r2="17.220547"
         sodipodi:arg1="2.1587994"
         sodipodi:arg2="2.787118"
         points="659.701,186.567 667.432,156.723 642.135,139.104 672.907,137.234 681.847,107.73 693.134,136.418 723.957,135.803 700.161,155.403 710.27,184.527 684.276,167.953 659.701,186.567 "
         transform="matrix(0.758488,0.310568,-0.302549,0.738903,360.2272,-215.1602)"
         d="m 659.70147,186.56717 7.73069,-29.84368 -25.29727,-17.61977 30.77193,-1.86988 8.94011,-29.50395 11.28741,28.68803 30.82257,-0.61468 -23.79593,19.60006 10.10929,29.12406 -25.99411,-16.57453 z" />
      <polygon
         inkscape:randomized="0"
         inkscape:rounded="0"
         inkscape:flatsided="false"
         sodipodi:type="star"
         style="font-size:12px;fill:#ffffff;fill-opacity:1;fill-rule:evenodd;stroke:none"
         id="polygon795"
         sodipodi:sides="5"
         sodipodi:cx="683.58209"
         sodipodi:cy="150.74628"
         sodipodi:r1="43.051365"
         sodipodi:r2="17.220547"
         sodipodi:arg1="2.1587994"
         sodipodi:arg2="2.787118"
         points="659.701,186.567 667.432,156.723 642.135,139.104 672.907,137.234 681.847,107.73 693.134,136.418 723.957,135.803 700.161,155.403 710.27,184.527 684.276,167.953 659.701,186.567 "
         transform="matrix(0.782988,-0.242252,0.235997,0.76277,127.0784,160.0798)"
         d="m 659.70147,186.56717 7.73069,-29.84368 -25.29727,-17.61977 30.77193,-1.86988 8.94011,-29.50395 11.28741,28.68803 30.82257,-0.61468 -23.79593,19.60006 10.10929,29.12406 -25.99411,-16.57453 z" />
      <polygon
         inkscape:randomized="0"
         inkscape:rounded="0"
         inkscape:flatsided="false"
         sodipodi:type="star"
         style="font-size:12px;fill:#ffffff;fill-opacity:1;fill-rule:evenodd;stroke:none"
         id="polygon796"
         sodipodi:sides="5"
         sodipodi:cx="683.58209"
         sodipodi:cy="150.74628"
         sodipodi:r1="43.051365"
         sodipodi:r2="17.220547"
         sodipodi:arg1="2.1587994"
         sodipodi:arg2="2.787118"
         points="659.701,186.567 667.432,156.723 642.135,139.104 672.907,137.234 681.847,107.73 693.134,136.418 723.957,135.803 700.161,155.403 710.27,184.527 684.276,167.953 659.701,186.567 "
         transform="matrix(0.627278,-0.527521,0.5139,0.61108,136.0141,414.0626)"
         d="m 659.70147,186.56717 7.73069,-29.84368 -25.29727,-17.61977 30.77193,-1.86988 8.94011,-29.50395 11.28741,28.68803 30.82257,-0.61468 -23.79593,19.60006 10.10929,29.12406 -25.99411,-16.57453 z" />
      <polygon
         inkscape:randomized="0"
         inkscape:rounded="0"
         inkscape:flatsided="false"
         sodipodi:type="star"
         style="font-size:12px;fill:#ffffff;fill-opacity:1;fill-rule:evenodd;stroke:none"
         id="polygon797"
         sodipodi:sides="5"
         sodipodi:cx="683.58209"
         sodipodi:cy="150.74628"
         sodipodi:r1="43.051365"
         sodipodi:r2="17.220547"
         sodipodi:arg1="2.1587994"
         sodipodi:arg2="2.787118"
         points="659.701,186.567 667.432,156.723 642.135,139.104 672.907,137.234 681.847,107.73 693.134,136.418 723.957,135.803 700.161,155.403 710.27,184.527 684.276,167.953 659.701,186.567 "
         transform="matrix(0.340585,-0.745492,0.726242,0.33179,266.3795,664.0245)"
         d="m 659.70147,186.56717 7.73069,-29.84368 -25.29727,-17.61977 30.77193,-1.86988 8.94011,-29.50395 11.28741,28.68803 30.82257,-0.61468 -23.79593,19.60006 10.10929,29.12406 -25.99411,-16.57453 z" />
      <polygon
         inkscape:randomized="0"
         inkscape:rounded="0"
         inkscape:flatsided="false"
         sodipodi:type="star"
         style="font-size:12px;fill:#ffffff;fill-opacity:1;fill-rule:evenodd;stroke:none"
         id="polygon798"
         sodipodi:sides="5"
         sodipodi:cx="683.58209"
         sodipodi:cy="150.74628"
         sodipodi:r1="43.051365"
         sodipodi:r2="17.220547"
         sodipodi:arg1="2.1587994"
         sodipodi:arg2="2.787118"
         points="659.701,186.567 667.432,156.723 642.135,139.104 672.907,137.234 681.847,107.73 693.134,136.418 723.957,135.803 700.161,155.403 710.27,184.527 684.276,167.953 659.701,186.567 "
         transform="matrix(0.01584355,-0.819454,0.798294,0.01543402,466.7071,832.5574)"
         d="m 659.70147,186.56717 7.73069,-29.84368 -25.29727,-17.61977 30.77193,-1.86988 8.94011,-29.50395 11.28741,28.68803 30.82257,-0.61468 -23.79593,19.60006 10.10929,29.12406 -25.99411,-16.57453 z" />
      <polygon
         inkscape:randomized="0"
         inkscape:rounded="0"
         inkscape:flatsided="false"
         sodipodi:type="star"
         style="font-size:12px;fill:#ffffff;fill-opacity:1;fill-rule:evenodd;stroke:none"
         id="polygon799"
         sodipodi:sides="5"
         sodipodi:cx="683.58209"
         sodipodi:cy="150.74628"
         sodipodi:r1="43.051365"
         sodipodi:r2="17.220547"
         sodipodi:arg1="2.1587994"
         sodipodi:arg2="2.787118"
         points="659.701,186.567 667.432,156.723 642.135,139.104 672.907,137.234 681.847,107.73 693.134,136.418 723.957,135.803 700.161,155.403 710.27,184.527 684.276,167.953 659.701,186.567 "
         transform="matrix(-0.317066,-0.755795,0.736278,-0.308879,725.6567,902.3774)"
         d="m 659.70147,186.56717 7.73069,-29.84368 -25.29727,-17.61977 30.77193,-1.86988 8.94011,-29.50395 11.28741,28.68803 30.82257,-0.61468 -23.79593,19.60006 10.10929,29.12406 -25.99411,-16.57453 z" />
      <polygon
         inkscape:randomized="0"
         inkscape:rounded="0"
         inkscape:flatsided="false"
         sodipodi:type="star"
         style="font-size:12px;fill:#ffffff;fill-opacity:1;fill-rule:evenodd;stroke:none"
         id="polygon800"
         sodipodi:sides="5"
         sodipodi:cx="683.58209"
         sodipodi:cy="150.74628"
         sodipodi:r1="43.051365"
         sodipodi:r2="17.220547"
         sodipodi:arg1="2.1587994"
         sodipodi:arg2="2.787118"
         points="659.701,186.567 667.432,156.723 642.135,139.104 672.907,137.234 681.847,107.73 693.134,136.418 723.957,135.803 700.161,155.403 710.27,184.527 684.276,167.953 659.701,186.567 "
         transform="matrix(-0.558515,-0.599848,0.584358,-0.544093,956.2336,884.0917)"
         d="m 659.70147,186.56717 7.73069,-29.84368 -25.29727,-17.61977 30.77193,-1.86988 8.94011,-29.50395 11.28741,28.68803 30.82257,-0.61468 -23.79593,19.60006 10.10929,29.12406 -25.99411,-16.57453 z" />
      <polygon
         inkscape:randomized="0"
         inkscape:rounded="0"
         inkscape:flatsided="false"
         sodipodi:type="star"
         style="font-size:12px;fill:#ffffff;fill-opacity:1;fill-rule:evenodd;stroke:none"
         id="polygon801"
         sodipodi:sides="5"
         sodipodi:cx="683.58209"
         sodipodi:cy="150.74628"
         sodipodi:r1="43.051365"
         sodipodi:r2="17.220547"
         sodipodi:arg1="2.1587994"
         sodipodi:arg2="2.787118"
         points="659.701,186.567 667.432,156.723 642.135,139.104 672.907,137.234 681.847,107.73 693.134,136.418 723.957,135.803 700.161,155.403 710.27,184.527 684.276,167.953 659.701,186.567 "
         transform="matrix(-0.795614,-0.196862,0.191778,-0.77507,1238.307,669.3665)"
         d="m 659.70147,186.56717 7.73069,-29.84368 -25.29727,-17.61977 30.77193,-1.86988 8.94011,-29.50395 11.28741,28.68803 30.82257,-0.61468 -23.79593,19.60006 10.10929,29.12406 -25.99411,-16.57453 z" />
      <polygon
         inkscape:randomized="0"
         inkscape:rounded="0"
         inkscape:flatsided="false"
         sodipodi:type="star"
         style="font-size:12px;fill:#ffffff;fill-opacity:1;fill-rule:evenodd;stroke:none"
         id="polygon802"
         sodipodi:sides="5"
         sodipodi:cx="683.58209"
         sodipodi:cy="150.74628"
         sodipodi:r1="43.051365"
         sodipodi:r2="17.220547"
         sodipodi:arg1="2.1587994"
         sodipodi:arg2="2.787118"
         points="659.701,186.567 667.432,156.723 642.135,139.104 672.907,137.234 681.847,107.73 693.134,136.418 723.957,135.803 700.161,155.403 710.27,184.527 684.276,167.953 659.701,186.567 "
         transform="matrix(-0.798057,0.186712,-0.181891,-0.77745,1368.536,407.8535)"
         d="m 659.70147,186.56717 7.73069,-29.84368 -25.29727,-17.61977 30.77193,-1.86988 8.94011,-29.50395 11.28741,28.68803 30.82257,-0.61468 -23.79593,19.60006 10.10929,29.12406 -25.99411,-16.57453 z" />
      <polygon
         inkscape:randomized="0"
         inkscape:rounded="0"
         inkscape:flatsided="false"
         sodipodi:type="star"
         style="font-size:12px;fill:#ffffff;fill-opacity:1;fill-rule:evenodd;stroke:none"
         id="polygon803"
         sodipodi:sides="5"
         sodipodi:cx="683.58209"
         sodipodi:cy="150.74628"
         sodipodi:r1="43.051365"
         sodipodi:r2="17.220547"
         sodipodi:arg1="2.1587994"
         sodipodi:arg2="2.787118"
         points="659.701,186.567 667.432,156.723 642.135,139.104 672.907,137.234 681.847,107.73 693.134,136.418 723.957,135.803 700.161,155.403 710.27,184.527 684.276,167.953 659.701,186.567 "
         transform="matrix(-0.425137,0.700725,-0.682632,-0.414158,1277.556,-266.6207)"
         d="m 659.70147,186.56717 7.73069,-29.84368 -25.29727,-17.61977 30.77193,-1.86988 8.94011,-29.50395 11.28741,28.68803 30.82257,-0.61468 -23.79593,19.60006 10.10929,29.12406 -25.99411,-16.57453 z" />
      <polygon
         inkscape:randomized="0"
         inkscape:rounded="0"
         inkscape:flatsided="false"
         sodipodi:type="star"
         style="font-size:12px;fill:#ffffff;fill-opacity:1;fill-rule:evenodd;stroke:none"
         id="polygon804"
         sodipodi:sides="5"
         sodipodi:cx="683.58209"
         sodipodi:cy="150.74628"
         sodipodi:r1="43.051365"
         sodipodi:r2="17.220547"
         sodipodi:arg1="2.1587994"
         sodipodi:arg2="2.787118"
         points="659.701,186.567 667.432,156.723 642.135,139.104 672.907,137.234 681.847,107.73 693.134,136.418 723.957,135.803 700.161,155.403 710.27,184.527 684.276,167.953 659.701,186.567 "
         transform="matrix(-0.685666,0.44902,-0.437427,-0.66796,1454.923,1.48613)"
         d="m 659.70147,186.56717 7.73069,-29.84368 -25.29727,-17.61977 30.77193,-1.86988 8.94011,-29.50395 11.28741,28.68803 30.82257,-0.61468 -23.79593,19.60006 10.10929,29.12406 -25.99411,-16.57453 z" />
      <polygon
         inkscape:randomized="0"
         inkscape:rounded="0"
         inkscape:flatsided="false"
         sodipodi:type="star"
         style="font-size:12px;fill:#ffffff;fill-opacity:1;fill-rule:evenodd;stroke:none"
         id="polygon805"
         sodipodi:sides="5"
         sodipodi:cx="683.58209"
         sodipodi:cy="150.74628"
         sodipodi:r1="43.051365"
         sodipodi:r2="17.220547"
         sodipodi:arg1="2.1587994"
         sodipodi:arg2="2.787118"
         points="659.701,186.567 667.432,156.723 642.135,139.104 672.907,137.234 681.847,107.73 693.134,136.418 723.957,135.803 700.161,155.403 710.27,184.527 684.276,167.953 659.701,186.567 "
         transform="matrix(-0.811223,0.116937,-0.113919,-0.790275,1496.591,313.6963)"
         d="m 659.70147,186.56717 7.73069,-29.84368 -25.29727,-17.61977 30.77193,-1.86988 8.94011,-29.50395 11.28741,28.68803 30.82257,-0.61468 -23.79593,19.60006 10.10929,29.12406 -25.99411,-16.57453 z" />
      <polygon
         inkscape:randomized="0"
         inkscape:rounded="0"
         inkscape:flatsided="false"
         sodipodi:type="star"
         style="font-size:12px;fill:#ffffff;fill-opacity:1;fill-rule:evenodd;stroke:none"
         id="polygon806"
         sodipodi:sides="5"
         sodipodi:cx="683.58209"
         sodipodi:cy="150.74628"
         sodipodi:r1="43.051365"
         sodipodi:r2="17.220547"
         sodipodi:arg1="2.1587994"
         sodipodi:arg2="2.787118"
         points="659.701,186.567 667.432,156.723 642.135,139.104 672.907,137.234 681.847,107.73 693.134,136.418 723.957,135.803 700.161,155.403 710.27,184.527 684.276,167.953 659.701,186.567 "
         transform="matrix(-0.801995,-0.169001,0.164635,-0.781286,1424.992,574.3793)"
         d="m 659.70147,186.56717 7.73069,-29.84368 -25.29727,-17.61977 30.77193,-1.86988 8.94011,-29.50395 11.28741,28.68803 30.82257,-0.61468 -23.79593,19.60006 10.10929,29.12406 -25.99411,-16.57453 z" />
      <polygon
         inkscape:randomized="0"
         inkscape:rounded="0"
         inkscape:flatsided="false"
         sodipodi:type="star"
         style="font-size:12px;fill:#ffffff;fill-opacity:1;fill-rule:evenodd;stroke:none"
         id="polygon807"
         sodipodi:sides="5"
         sodipodi:cx="683.58209"
         sodipodi:cy="150.74628"
         sodipodi:r1="43.051365"
         sodipodi:r2="17.220547"
         sodipodi:arg1="2.1587994"
         sodipodi:arg2="2.787118"
         points="659.701,186.567 667.432,156.723 642.135,139.104 672.907,137.234 681.847,107.73 693.134,136.418 723.957,135.803 700.161,155.403 710.27,184.527 684.276,167.953 659.701,186.567 "
         transform="matrix(-0.594733,-0.563959,0.549395,-0.579377,1179.569,862.8326)"
         d="m 659.70147,186.56717 7.73069,-29.84368 -25.29727,-17.61977 30.77193,-1.86988 8.94011,-29.50395 11.28741,28.68803 30.82257,-0.61468 -23.79593,19.60006 10.10929,29.12406 -25.99411,-16.57453 z" />
    </g>
  </g>
</svg>
