<?xml version="1.0" encoding="UTF-8" standalone="no"?>
<!-- Created with Sodipodi ("http://www.sodipodi.com/") -->

<svg
   xmlns:dc="http://purl.org/dc/elements/1.1/"
   xmlns:cc="http://creativecommons.org/ns#"
   xmlns:rdf="http://www.w3.org/1999/02/22-rdf-syntax-ns#"
   xmlns:svg="http://www.w3.org/2000/svg"
   xmlns="http://www.w3.org/2000/svg"
   xmlns:sodipodi="http://sodipodi.sourceforge.net/DTD/sodipodi-0.dtd"
   xmlns:inkscape="http://www.inkscape.org/namespaces/inkscape"
   id="svg697"
   sodipodi:version="0.33pre"
   width="512"
   height="512"
   sodipodi:docname="cx.svg"
   version="1.1"
   inkscape:version="0.48.1 r9760">
  <sodipodi:namedview
     id="base"
     showgrid="true"
     snaptogrid="false"
     inkscape:zoom="0.33060318"
     inkscape:cx="496.06299"
     inkscape:cy="248.03149"
     inkscape:window-width="1280"
     inkscape:window-height="723"
     inkscape:window-x="0"
     inkscape:window-y="24"
     inkscape:window-maximized="1"
     inkscape:current-layer="svg697" />
  <metadata
     id="metadata3022">
    <rdf:RDF>
      <cc:Work
         rdf:about="">
        <dc:format>image/svg+xml</dc:format>
        <dc:type
           rdf:resource="http://purl.org/dc/dcmitype/StillImage" />
      </cc:Work>
    </rdf:RDF>
  </metadata>
  <defs
     id="defs699" />
  <g
     id="flag"
     inkscape:label="#g3370">
    <rect
       inkscape:label="#rect3447"
       style="font-size:12px;fill:#0021ad;fill-opacity:1;fill-rule:evenodd;stroke-width:1pt"
       id="rect3447"
       width="512"
       height="512"
       x="0"
       y="0" />
    <path
       inkscape:connector-curvature="0"
       style="font-size:12px;fill:#1c8a42;fill-opacity:1;fill-rule:evenodd;stroke:none"
       d="M 1.2756676e-6,-5.7672449e-6 512,512 511.7069,0.37930928 1.2756676e-6,-5.7672449e-6 z"
       id="path3446"
       sodipodi:nodetypes="cccc" />
    <path
       sodipodi:type="arc"
       style="fill:#ffc639;fill-opacity:1;fill-rule:evenodd;stroke:none"
       id="path733"
       d="m 227.50007,97.283752 a 34.921883,34.921875 0 1 1 -69.84377,0 34.921883,34.921875 0 1 1 69.84377,0 z"
       sodipodi:cx="192.57819"
       sodipodi:cy="97.283752"
       sodipodi:rx="34.921883"
       sodipodi:ry="34.921875"
       transform="matrix(2.6484934,0,0,2.6484923,-257.1517,1.0897114)" />
    <path
       inkscape:connector-curvature="0"
       style="fill:#1c8a42;fill-opacity:1;fill-rule:evenodd;stroke:none"
       d="m 195.39036,217.47497 c 6.32694,8.68844 15.91024,23.23524 23.62435,19.44114 6.01214,0.0196 9.12194,0.44588 9.93732,4.44434 14.19381,2.41931 38.05039,-3.57013 52.88412,-22.89567 0,0 1.25403,0.16204 0.81744,-7.18567 0.0826,-3.20475 4.37725,-2.55761 4.48047,-1.52445 0.60069,1.59154 0.49232,2.78571 1.29738,2.82493 1.83512,-0.61411 4.3308,-4.70856 6.42293,-7.30746 0.57283,-1.14669 0.26112,-2.35944 0.39427,-3.79719 1.10231,-2.71862 3.85602,-2.12515 4.43918,-0.70494 0.52122,0.91653 0.52948,1.62353 1.0507,2.54006 2.795,1.86196 7.8452,0.12386 8.23947,0.12386 0.49542,-2.27688 1.96104,-2.06323 1.96104,-2.06323 1.86196,-0.41181 1.13534,-0.24564 2.35428,0.39221 -1.07857,12.29263 2.41828,12.8345 2.12928,19.14596 0.12489,7.03394 -2.12928,9.0342 -2.12928,11.72805 0.71527,3.27288 11.09743,3.38641 7.44267,6.16283 -3.21095,1.71643 0.0176,4.92841 -4.82107,6.17212 -14.05034,7.13613 -16.74419,13.25664 -16.74419,13.25664 0,0 -3.52987,6.6696 -3.92208,6.6696 -2.35944,4.4495 -5.34229,2.01781 -6.99679,4.18941 -0.8288,2.72585 -1.75978,8.76069 -0.10321,11.89939 0.82673,4.31223 -0.10322,6.66444 -1.13947,10.97977 -0.93098,8.99808 -4.49698,10.36152 -4.9088,13.52602 -1.65656,3.37299 0.34783,19.2213 -1.21997,19.2213 -10.4668,0.20642 -18.48849,-2.00233 -22.62732,-2.82803 4.03562,-17.38308 2.47298,-32.66682 2.47298,-34.23462 -1.03626,-12.43506 -18.63505,-9.40783 -21.32271,-11.06233 -2.23559,-0.47478 -3.63928,-2.29339 -4.42576,-3.07884 -2.48536,-0.26113 -3.41634,-0.83396 -5.9017,-1.09302 -1.24268,0.61928 -0.49336,1.26332 -3.26256,2.1138 -7.01433,0.84634 -10.11794,-6.11536 -10.11794,-6.11536 0.34267,-2.34705 -15.77399,0.47788 -24.53572,-1.55541 -3.59283,2.00232 -5.16063,7.92364 -8.10632,8.62961 -0.0836,1.83512 -4.83655,-1.50794 -5.7954,-3.31416 -0.20539,-5.25456 4.57955,-7.58303 4.57955,-7.58303 3.79307,-2.66702 6.0493,-3.10567 7.87719,-4.94596 0.91653,-4.57645 0.45311,-7.95976 2.40383,-11.39984 1.65037,-2.6247 4.08412,-1.39337 5.7345,-2.57206 1.77938,-1.17559 2.52664,-8.87216 0.89278,-10.98183 0,0 -7.10309,-6.40847 -7.49427,-6.79965 -2.31299,-6.62935 2.70005,-10.89823 4.13883,-10.41829 z"
       id="path732"
       sodipodi:nodetypes="cccccccccccccccccccccccccccccccccccccccccc" />
    <path
       inkscape:connector-curvature="0"
       style="fill:#ffc639;fill-opacity:1;fill-rule:evenodd;stroke:none"
       d="m 455.5055,64.507043 c -2.43655,-9.639569 -24.23947,-30.400796 -40.62452,-43.612028 -3.91431,-2.665021 -6.46365,-1.077696 -5.95427,2.721961 2.04176,3.402586 3.57052,7.143744 5.61348,10.546269 0.56699,2.267831 1.64396,3.855156 2.21096,6.122987 0,0 0.16919,3.912034 0.51178,4.252227 5.1017,5.615277 5.78208,10.376773 5.78208,10.376773 2.94833,5.670477 5.55588,9.809007 10.71697,14.458124 5.78326,3.628719 1.52876,14.912682 1.69976,20.923942 0,3.799124 -2.72034,3.34553 -5.10229,2.890742 -18.76759,-17.237026 -37.36598,-17.292826 -53.75403,-22.282318 -6.40546,-0.680983 -6.51946,2.381347 -4.4213,4.081112 11.45315,12.248136 22.22771,20.583158 36.403,27.557406 2.38135,1.47477 4.7615,2.94893 7.14345,4.4237 2.72214,2.26735 5.44248,4.5353 8.16462,6.80326 6.29386,4.0829 6.80505,7.82562 6.80505,8.16401 0.1686,7.65524 -3.91372,13.60831 -5.10469,15.99025 -2.14915,8.11842 -6.46246,9.526 -6.46246,9.526 -35.04103,23.64488 -53.41383,29.76775 -110.22779,22.45331 -0.85018,-0.45359 -6.29446,0.45358 0,2.72214 14.46029,4.8191 49.9783,12.54572 84.34076,-3.72713 8.25042,-5.78446 13.7703,-3.88671 19.74677,-7.34923 9.81219,-6.05147 23.83027,-13.58791 26.38142,-14.43809 7.65463,-4.08291 29.08677,-8.67581 34.02046,-12.75872 5.66987,-0.45419 11.54375,-1.19757 11.94094,-6.07367 1.86476,-1.20237 4.5845,-0.32518 6.60945,-4.2941 4.4897,-0.78178 3.73372,-2.39095 3.73372,-2.39095 -1.13337,-3.17393 -5.33028,-4.47891 -8.33381,-6.80265 -4.42371,-1.47537 -7.48424,-1.92836 -10.71757,-0.3414 -1.02058,0.45479 -2.04116,0.90779 -3.06173,1.36138 0,0 -4.7627,-0.67979 -4.7627,-1.01998 -10.58437,-0.58078 -9.55419,-35.656026 -13.29751,-50.285327 z"
       id="path3443"
       sodipodi:nodetypes="cccccccccccccccccccccscccccccccc" />
    <path
       sodipodi:type="arc"
       style="fill:#1c8a42;fill-opacity:1;fill-rule:evenodd;stroke:none"
       id="path3445"
       d="m 354.375,73.88562 a 2.070312,1.367188 0 1 1 -4.14062,0 2.070312,1.367188 0 1 1 4.14062,0 z"
       sodipodi:cx="352.30469"
       sodipodi:cy="73.88562"
       sodipodi:rx="2.070312"
       sodipodi:ry="1.367188"
       transform="matrix(1.2043063,0.37821974,-0.40442957,1.1262576,83.42566,-95.322448)" />
    <polygon
       d="m 73.826341,356.02127 -13.802536,-12.92086 -13.96742,12.74244 1.496193,-18.84728 -18.670985,-2.97538 15.668257,-10.58132 -9.314917,-16.45269 18.041805,5.6526 7.055472,-17.54078 6.829506,17.62999 18.112948,-5.42031 -9.525551,16.33164 15.531004,10.78177 -18.707674,2.73523 z"
       inkscape:randomized="0"
       inkscape:rounded="0"
       inkscape:flatsided="false"
       sodipodi:type="star"
       style="font-size:12px;fill:#ffffff;fill-opacity:1;fill-rule:evenodd;stroke-width:1pt"
       id="polygon3449"
       sodipodi:sides="7"
       sodipodi:cx="60.126606"
       sodipodi:cy="327.09961"
       sodipodi:r1="32.00227"
       sodipodi:r2="16.001135"
       sodipodi:arg1="1.1284221"
       sodipodi:arg2="1.577221"
       points="73.8263,356.021 60.0238,343.1 46.0564,355.843 47.5526,336.996 28.8816,334.02 44.5499,323.439 35.2349,306.986 53.2767,312.639 60.3322,295.098 67.1617,312.728 85.2747,307.308 75.7491,323.639 91.2801,334.421 72.5724,337.156 73.8263,356.021 "
       transform="matrix(0.85241564,0,0,0.85241564,-10.028765,88.758416)" />
    <polygon
       d="m 73.826341,356.02127 -13.802536,-12.92086 -13.96742,12.74244 1.496193,-18.84728 -18.670985,-2.97538 15.668257,-10.58132 -9.314917,-16.45269 18.041805,5.6526 7.055472,-17.54078 6.829506,17.62999 18.112948,-5.42031 -9.525551,16.33164 15.531004,10.78177 -18.707674,2.73523 z"
       inkscape:randomized="0"
       inkscape:rounded="0"
       inkscape:flatsided="false"
       sodipodi:type="star"
       style="font-size:12px;fill:#ffffff;fill-opacity:1;fill-rule:evenodd;stroke-width:1pt"
       id="polygon3451"
       sodipodi:sides="7"
       sodipodi:cx="60.126606"
       sodipodi:cy="327.09961"
       sodipodi:r1="32.00227"
       sodipodi:r2="16.001135"
       sodipodi:arg1="1.1284221"
       sodipodi:arg2="1.577221"
       points="73.8263,356.021 60.0238,343.1 46.0564,355.843 47.5526,336.996 28.8816,334.02 44.5499,323.439 35.2349,306.986 53.2767,312.639 60.3322,295.098 67.1617,312.728 85.2747,307.308 75.7491,323.639 91.2801,334.421 72.5724,337.156 73.8263,356.021 "
       transform="matrix(0.67138387,0,0,0.67138302,82.91728,59.462416)" />
    <polygon
       d="m 240.50642,428.32541 -23.60735,-11.90224 -9.43503,24.69717 -8.27677,-25.10907 -24.13511,10.79197 11.90224,-23.60735 -24.69718,-9.43504 25.10907,-8.27676 -10.79196,-24.13512 23.60735,11.90224 9.43503,-24.69718 8.27677,25.10908 24.13511,-10.79197 -11.90224,23.60735 24.69718,9.43504 -25.10907,8.27676 z"
       inkscape:randomized="0"
       inkscape:rounded="0"
       inkscape:flatsided="false"
       sodipodi:type="star"
       style="font-size:12px;fill:#ffffff;fill-opacity:1;fill-rule:evenodd;stroke-width:1pt"
       id="polygon3452"
       sodipodi:sides="8"
       sodipodi:cx="208.54037"
       sodipodi:cy="394.83719"
       sodipodi:r1="46.29567"
       sodipodi:r2="23.147835"
       sodipodi:arg1="0.80864948"
       sodipodi:arg2="1.2013485"
       points="240.506,428.325 216.899,416.423 207.464,441.12 199.187,416.011 175.052,426.803 186.954,403.196 162.257,393.761 187.366,385.484 176.574,361.349 200.182,373.251 209.617,348.554 217.893,373.663 242.029,362.871 230.126,386.478 254.824,395.914 229.714,404.19 240.506,428.325 "
       transform="matrix(0.65617166,0,0,0.65617166,-13.220362,216.19813)" />
    <polygon
       d="m 269.57019,243.43115 -13.75475,-0.61336 -6.8041,11.9697 -6.34619,-12.21864 -13.76811,0.0923 7.40856,-11.60528 -6.96402,-11.87737 13.75476,0.61336 6.80409,-11.9697 6.34619,12.21864 13.76811,-0.0923 -7.40856,11.60528 z"
       inkscape:randomized="0"
       inkscape:rounded="0"
       inkscape:flatsided="false"
       sodipodi:type="star"
       style="font-size:12px;fill:#ffffff;fill-opacity:1;fill-rule:evenodd;stroke-width:1pt"
       id="polygon3455"
       sodipodi:sides="6"
       sodipodi:cx="249.45589"
       sodipodi:cy="231.30484"
       sodipodi:r1="23.486862"
       sodipodi:r2="13.152642"
       sodipodi:arg1="0.5425272"
       sodipodi:arg2="1.066126"
       points="269.57,243.431 255.815,242.818 249.011,254.787 242.665,242.569 228.897,242.661 236.306,231.056 229.342,219.179 243.096,219.792 249.9,207.822 256.247,220.041 270.015,219.949 262.606,231.554 269.57,243.431 "
       transform="matrix(0.85232355,-0.01251636,0.01251636,0.85232355,-17.440816,176.57934)" />
    <polygon
       d="m 159.75957,320.13498 -12.93016,-8.8571 -12.58938,9.33513 4.42796,-15.03431 -12.76857,-9.0885 15.66679,-0.43461 4.69798,-14.95213 5.25464,14.7657 15.67208,-0.15243 -12.41924,9.56032 z"
       inkscape:randomized="0"
       inkscape:rounded="0"
       inkscape:flatsided="false"
       sodipodi:type="star"
       style="font-size:12px;fill:#ffffff;fill-opacity:1;fill-rule:evenodd;stroke-width:1pt"
       id="polygon3461"
       sodipodi:sides="5"
       sodipodi:cx="146.67082"
       sodipodi:cy="302.81168"
       sodipodi:r1="21.712027"
       sodipodi:r2="8.4676905"
       sodipodi:arg1="0.92374814"
       sodipodi:arg2="1.5520667"
       points="159.76,320.135 146.829,311.278 134.24,320.613 138.668,305.579 125.899,296.49 141.566,296.056 146.264,281.103 151.519,295.869 167.191,295.717 154.772,305.277 159.76,320.135 "
       transform="matrix(0.77294408,0,0,0.75274865,17.671557,171.66675)" />
  </g>
</svg>
