<?xml version="1.0" encoding="UTF-8" standalone="no"?>
<!-- Created with Sodipodi ("http://www.sodipodi.com/") -->

<svg
   xmlns:dc="http://purl.org/dc/elements/1.1/"
   xmlns:cc="http://creativecommons.org/ns#"
   xmlns:rdf="http://www.w3.org/1999/02/22-rdf-syntax-ns#"
   xmlns:svg="http://www.w3.org/2000/svg"
   xmlns="http://www.w3.org/2000/svg"
   xmlns:sodipodi="http://sodipodi.sourceforge.net/DTD/sodipodi-0.dtd"
   xmlns:inkscape="http://www.inkscape.org/namespaces/inkscape"
   id="svg559"
   sodipodi:version="0.32"
   width="512"
   height="512"
   sodipodi:docname="cy.svg"
   version="1.1"
   inkscape:version="0.48.1 r9760">
  <sodipodi:namedview
     id="base"
     showgrid="false"
     inkscape:zoom="0.47939383"
     inkscape:cx="326.95871"
     inkscape:cy="-22.140139"
     inkscape:window-width="1280"
     inkscape:window-height="723"
     inkscape:window-x="0"
     inkscape:window-y="24"
     inkscape:window-maximized="1"
     inkscape:current-layer="svg559" />
  <metadata
     id="metadata3056">
    <rdf:RDF>
      <cc:Work
         rdf:about="">
        <dc:format>image/svg+xml</dc:format>
        <dc:type
           rdf:resource="http://purl.org/dc/dcmitype/StillImage" />
      </cc:Work>
    </rdf:RDF>
  </metadata>
  <defs
     id="defs561" />
  <g
     id="flag"
     inkscape:label="#g3383">
    <rect
       inkscape:label="#rect4964"
       y="2.0859675"
       width="512"
       style="fill:#ffffff;fill-opacity:1;stroke:none"
       x="-2.0859675"
       height="512"
       id="rect4964" />
    <polygon
       inkscape:randomized="0"
       inkscape:rounded="0"
       inkscape:flatsided="false"
       d="m 699.33337,498.1459 3.01619,-3.97839 -1.56739,-4.74007 4.71573,1.63917 4.02372,-2.95543 -0.1017,4.99145 4.05419,2.91351 -4.77859,1.44572 -1.5181,4.75608 -2.85162,-4.09795 z"
       points="699.333,498.146 702.35,494.168 700.782,489.427 705.498,491.067 709.522,488.111 709.42,493.103 713.474,496.016 708.695,497.462 707.177,502.218 704.326,498.12 699.333,498.146 "
       sodipodi:arg2="3.3062637"
       sodipodi:arg1="2.6779451"
       sodipodi:r2="3.7590344"
       sodipodi:r1="7.5180688"
       sodipodi:cy="494.78372"
       sodipodi:cx="706.05774"
       sodipodi:sides="5"
       id="polygon565"
       style="font-size:12px;fill:#808080;fill-rule:evenodd;stroke-width:1pt"
       sodipodi:type="star"
       transform="matrix(0.45610408,0,0,0.45610408,-63.822727,10.872645)" />
    <path
       inkscape:connector-curvature="0"
       id="path568"
       d="m 128.27038,257.87831 c 0.0834,0 0.16686,0 0.2503,0 -0.66806,0 -0.31706,-0.0509 0.75149,0.76487 0.87367,0.35544 1.64244,0.51011 3.00538,0.51011 1.19489,0.0867 2.22887,0.25475 3.50659,0.25475 1.17522,0.50465 1.84448,0.96563 2.75509,1.27436 0.40167,0.6193 1.27772,2.00648 1.7533,2.54935 0.882,0.66053 1.94638,1.06389 2.75509,1.78447 1.00775,0.27963 1.649,0.71573 2.75509,1.52912 0.83253,0.40153 1.61979,0.7321 2.75508,1.27496 1.09,0.38334 2.28131,0.89649 3.25569,1.27438 0.85817,0.20562 2.00538,0.55681 2.75509,1.01961 1.06437,0.23534 1.9577,0.53741 3.25627,0.76487 1.32601,0.16073 1.99526,0.51738 3.2557,0.76485 1.13171,0.5829 2.01373,1.01779 3.25628,1.52973 0.50418,0.75454 0.93744,1.43328 2.0036,1.78386 0.54767,0.6751 1.45591,0.85464 2.00359,1.52973 0.80691,0.38879 1.69548,0.64659 2.75508,1.01961 1.27713,0.0928 2.19847,0.4622 3.50659,0.51011 1.16866,0 2.33791,0 3.50658,0 1.16867,0 2.33792,0 3.50658,0 1.11801,0.13527 2.37011,0.31359 3.25569,0.50951 1.22587,0 2.42076,0.0212 3.50659,-0.25475 1.40168,-0.0169 2.05543,-0.4161 3.25629,-0.51012 1.33969,0.21654 2.24852,0.097 2.75509,1.27498 0.83015,0.84492 1.33493,1.67226 1.50238,2.80409 0.26402,0.8061 0.2509,2.1387 0.2509,3.31359 0,1.10756 0.006,2.31399 0.2503,3.05945 0.79739,0.78305 1.41896,1.01414 2.50479,1.27436 0.80513,0.27295 2.28845,0.51133 3.00539,1.01961 0.59178,0.63204 0.88141,1.63588 1.75329,2.29458 0.76222,0.59564 2.03697,0.71999 3.25569,0.76426 1.16926,0 2.33792,0 3.50658,0 1.09477,0 2.54771,0.10611 3.25629,-0.25475 1.08463,-0.40154 1.3695,-1.1482 2.75509,-1.27436 1.30514,0.20015 1.27831,0.82915 2.25388,1.27436 0.62099,0.91105 1.20979,1.28711 2.0036,1.78448 0.51491,0.74909 1.18833,1.33077 2.25449,1.52972 1.30513,-0.13465 2.48571,-0.52406 3.50658,-0.76485 0.35698,-0.90983 0.7944,-1.53762 1.2521,-2.2946 0.33969,-0.58472 0.5006,-0.73513 0.5006,-1.78447 0.37485,-0.76183 0.32837,-2.31157 0,-3.31359 -0.0471,-1.29741 -0.34506,-1.98282 -0.5006,-3.3142 0,-1.23555 0.0579,-2.41165 0.2503,-3.31359 0.5149,-0.60474 0.84983,-1.59403 1.25269,-2.29459 0.68297,-0.83401 1.31586,-1.14759 2.25389,-1.52912 0.79261,-0.2687 2.10133,-0.25536 3.25629,-0.25536 0.61264,-0.18681 1.62992,-0.12497 1.25209,-0.5095 -0.32479,0.33057 -1.57093,0.43489 -0.2503,0.5095 0.71872,-0.49616 2.02981,-0.72422 2.75509,-1.01961 1.06974,-0.16377 1.71098,-0.53376 2.75509,-0.76425 0.7807,-0.46523 1.65436,-0.68784 2.75508,-1.02023 0.90705,-0.35119 1.92731,-0.6945 3.00539,-1.0196 1.15318,-0.55136 1.86414,-0.86253 3.0054,-1.01963 0.78546,-0.42155 1.77176,-0.5095 3.00598,-0.5095 1.15734,0.75516 1.76461,1.34716 2.75508,2.29398 0.4732,0.70906 0.89691,1.13547 1.2521,2.03923 0.80156,0.55499 1.23005,0.96441 2.75509,1.01961 1.20621,0 1.68476,0.20987 2.00359,-0.76425 0.65913,-0.59806 1.0006,-1.65589 1.7533,-2.29459 0.74732,-0.74726 1.67045,-1.12697 2.50479,-1.52911 0.9404,-0.26142 1.70024,-0.60717 3.00538,-0.76487 0.8689,-0.32329 1.76699,-0.39183 2.75509,0.25475 0.7354,1.04509 1.56556,2.11202 2.50479,3.31421 0.63706,0.41973 1.41718,0.5095 2.50419,0.5095 0.76461,-0.3888 2.34209,-0.25475 3.50658,-0.25475 1.02564,0.30024 1.47379,0.98807 2.50479,1.27436 0.57629,0.0589 0.88678,0.25475 1.50299,0.25475 1.83197,0.24201 2.59418,0.0582 4.00719,-0.25475 1.16866,0 2.33792,0 3.50659,0 1.23063,0.0467 1.89393,0.25475 3.25568,0.25475 0.76104,0.47008 2.06557,0.68844 3.00598,1.02023 1.18535,0.28386 1.41181,0.74181 2.5042,1.27436 0.70858,0.36029 2.16152,0.25475 3.25629,0.25475 1.30751,-0.15831 2.17641,-0.38455 3.25568,-0.76486 0.95054,-0.23595 1.35281,-0.48039 1.75329,-1.27436 0.62277,-0.43066 1.48214,-1.1203 2.00419,-1.78448 0.68773,-0.47614 1.28487,-1.08391 1.7527,-1.78448 0.67462,-0.4531 1.80871,-1.60736 2.25449,-2.29398 0.64005,-0.52163 1.3242,-1.61404 1.75328,-2.29458 0.54947,-0.83098 1.24316,-1.31257 1.75329,-2.54874 0.39036,-1.19187 0.44161,-2.12596 0.7515,-3.31419 0.25805,-0.96321 0.73183,-1.77841 1.0018,-3.05884 0.50894,-1.11606 0.91657,-2.20482 1.2521,-3.05945 0.61502,-0.70177 1.02265,-1.55035 1.75329,-2.29397 0.41896,-0.65933 0.97736,-0.99476 1.50299,-1.52973 0.59654,-0.57865 1.49644,-1.00688 2.5042,-1.27437 1.03457,-0.2869 1.48212,-0.74848 2.00358,-1.52972 0.94698,-0.32087 1.50538,-0.73636 2.75509,-1.01962 1.09894,-0.33117 1.99883,-0.54164 3.00599,-0.76486 1.16866,0 2.33732,0 3.50658,0 1.26282,0 2.35043,0.11522 3.50599,0.25536 1.14185,0.33178 2.21337,0.62111 3.25628,0.76487 0.71694,0.34513 1.90944,0.97593 2.50479,1.52911 0.74792,0.50283 1.56497,1.3144 2.0036,2.03923 0.32717,1.00021 0.85935,1.44177 1.50238,2.29458 0.66926,0.88617 1.23243,1.44663 2.50479,2.03923 1.01372,0.23899 1.84389,0.67388 3.0054,0.76486 1.33075,0 2.13589,0.16742 3.25628,0.25475 1.22528,0 2.42076,0.0212 3.50659,-0.25475 1.09356,-0.64294 1.4857,-0.8146 2.25388,-1.78448 1.01014,-0.50586 1.74376,-0.90739 3.00599,-1.01961 0.82956,-0.18378 1.85759,-0.25475 3.00539,-0.25475 0.65018,0.45371 1.3403,0.62475 1.75329,1.27436 0.65972,0.47554 0.70323,0.73332 1.7533,0.76487 0.71633,0.4264 1.77116,0.6296 2.75509,0.76486 1.16866,0 2.33732,0 3.50598,0 l -3.50598,0 c 1.16866,0 2.33732,0 3.50598,0 0.96008,-0.82067 1.25269,-0.72725 1.25269,-1.78448 0.77534,-0.63202 1.15972,-1.51879 2.00359,-2.54934 0.45769,-0.75636 0.89512,-1.38475 1.2521,-2.29458 0.27354,-0.83522 0.61382,-2.11625 0.7515,-3.05884 0.31645,-0.84554 0.61502,-2.14538 0.7515,-3.31359 0.30333,-1.17792 0.50119,-2.23089 0.50119,-3.56896 0,-1.18944 0,-2.37949 0,-3.56894 -0.0149,-1.26042 -0.20084,-2.14174 -0.50119,-3.05884 -0.39692,-1.12637 -1.06081,-1.94946 -1.503,-2.80409 -0.74137,-0.59625 -1.65675,-1.43207 -2.25389,-2.03923 -1.13887,-0.69875 -2.0018,-1.20764 -3.00539,-1.78448 -1.09715,-0.69146 -2.15079,-1.29135 -3.00599,-1.78448 -0.50238,-0.57197 -1.31884,-1.35746 -1.75269,-1.78446 -0.34327,-0.69815 -0.34327,-2.36132 0,-3.05884 0.0292,-1.06148 0.14004,-1.67288 0.75089,-2.2946 1.14126,-0.4167 1.90229,-0.96563 2.75509,-1.52971 0.55364,-0.78852 1.42135,-0.94017 2.50479,-1.78388 1.08404,-0.48402 1.69847,-0.73817 2.50479,-1.52972 1.17165,-0.3979 2.26521,-1.20825 3.2557,-1.52972 0.53635,-0.65993 1.54053,-1.20583 2.75508,-1.52913 0.86889,-0.60229 1.90884,-1.24282 2.75509,-1.52971 1.17939,-0.63628 2.05544,-0.8601 3.25628,-1.52973 1.22468,-0.31115 2.31826,-0.87162 3.50659,-1.27436 0.30453,-0.3791 0.66806,-0.65993 1.2521,-0.76487 1.559,-0.094 2.85878,-0.26445 3.75687,-1.01961 1.00716,-0.36332 1.11146,-1.09907 1.7533,-1.78448 0.46067,-0.84311 0.96366,-1.21674 1.2521,-2.29398 0.79678,-0.871 0.35637,-1.12636 -1.0018,-1.27496 -0.4273,-0.43491 -0.81288,0.004 -1.0018,-0.76426 -0.89869,-0.41064 -1.13349,-1.12334 -1.75329,-1.78448 -0.37842,-1.05358 -0.36949,-1.5273 0.75149,-2.03983 0.69846,-0.48281 1.69251,-0.64538 2.25449,-1.27437 1.04351,-0.16013 1.83613,-0.61868 2.75509,-1.01961 1.36116,-0.0989 2.08524,-0.41185 3.2557,-0.76486 0.99642,-0.54165 1.64363,-0.85948 2.50478,-1.27437 1.0298,-0.4537 2.25747,-1.09422 3.25569,-1.52972 0.8981,-0.60897 2.03876,-1.20461 3.25628,-1.52912 0.89691,-0.46401 2.00002,-0.82855 3.00538,-1.27498 0.85818,-0.20561 2.00539,-0.5562 2.7551,-1.0196 1.15436,-0.22382 2.40407,-0.6478 3.25628,-1.01961 0.83792,-0.38517 1.82481,-0.8698 2.5042,-1.27438 1.03754,-0.45673 1.77832,-1.00323 2.75568,-1.27496 0.59178,-0.57441 1.38916,-0.9814 2.2539,-1.27437 0.705,-0.66599 2.20442,-1.58613 3.00538,-2.03923 0.75984,-0.36636 1.64781,-0.73938 2.25449,-1.27497 0.58284,-0.0656 0.41836,-0.18863 1.00179,-0.25475 1.82541,-0.55924 2.75747,-0.76729 3.75689,-1.78448 0.77653,-0.37424 1.57511,-0.78062 2.2539,-1.27436 0.83551,-0.67509 1.50119,-1.28649 2.00358,-2.03923 0.91181,-0.32936 1.41121,-0.9723 2.25449,-1.52972 0.87366,-0.35544 1.64304,-0.51011 3.00539,-0.51011 1.09536,0 2.54769,0.10611 3.25629,-0.25475 1.57151,-0.0189 1.98035,-0.40275 3.00538,-1.01962 0.33909,-0.97291 1.06317,-1.45937 2.00359,-2.03922 0.55423,-0.51497 1.95532,-1.2859 2.50479,-1.78448 1.08404,-0.52831 1.55245,-1.20219 2.50479,-2.03923 0.73541,-0.80551 1.65675,-1.55035 2.5042,-2.03923 1.05304,-0.46703 1.80752,-0.6769 2.75508,-1.01961 1.18595,-0.21532 2.37785,-0.43671 3.50419,-0.76486 1.2813,-0.10008 1.73422,-0.48161 2.75927,-0.76487 0.70919,-0.68844 1.13827,-1.03537 2.0024,-2.03921 0.42312,-1.17126 1.04887,-1.60009 2.2527,-1.78448 1.20979,-0.64356 2.18119,-0.71998 3.00956,-1.52973 0.84625,-0.86313 1.43029,-1.83421 2.25271,-2.80409 0.46483,-1.09846 0.89988,-1.759 1.00119,-3.05884 -0.0178,-1.56429 -0.35161,-1.78933 -1.00119,-2.80409 -0.62577,-0.91347 -1.01909,-1.49454 -1.50181,-2.29458 -0.78069,-0.44885 -1.88917,-0.89466 -2.75926,-1.27437 -1.19191,0.0934 -1.92492,0.36575 -2.7533,0.76487 -0.85221,0.70116 -1.4422,1.27739 -2.0024,2.29397 -0.38141,0.82127 -0.63767,1.72565 -1.0012,2.8041 -0.47677,0.69328 -1.61503,1.35139 -2.50897,1.78446 -1.04887,0.46705 -1.79977,0.67692 -2.75329,1.01962 -1.18594,0.41731 -1.73899,0.77821 -3.00479,1.27497 -0.74078,0.35665 -1.76581,0.90498 -2.50479,1.27437 -1.0894,0.65993 -2.13291,1.17428 -3.00539,1.52972 -1.11086,0.64173 -1.74555,0.99414 -2.75509,1.27437 -1.13887,0.68964 -2.24137,1.21249 -3.25629,1.78448 -0.84207,0.42094 -1.66389,0.96744 -2.75508,1.52971 -0.88558,0.19592 -2.13827,0.37424 -3.25569,0.5095 -1.25269,0 -2.50479,0 -3.75748,0 -1.07033,-0.2511 -2.34388,-0.47007 -3.50598,-1.0196 -1.24733,-0.65751 -1.85759,-1.0736 -2.75509,-1.78448 -0.54888,-1.08755 -0.73422,-1.60737 -0.7515,-3.05884 -0.77832,-0.39608 -1.8552,-0.49556 -3.00539,-0.51011 -1.27057,0 -2.44877,-0.048 -3.25629,0.51011 -1.09059,0.16499 -2.00716,0.61383 -2.75509,1.27436 -1.15316,0.55803 -1.90644,1.2307 -2.75508,1.78448 -0.88261,0.54165 -2.02445,1.35261 -3.00539,1.78448 -0.92194,0.40214 -2.36355,0.84249 -3.50659,1.27436 -1.47081,0.43005 -2.53458,0.90437 -4.00717,1.02022 -1.25746,0.57865 -2.24317,0.75091 -3.50659,1.27436 -1.28249,0.48525 -2.18833,0.84311 -3.50659,1.27437 -0.86949,0.45006 -2.43983,1.20219 -3.25627,1.78448 -1.49585,0.76122 -2.59062,1.4078 -3.75689,2.03922 -1.17224,0.50102 -2.02147,0.97655 -3.25569,1.52973 -0.60668,0.55013 -1.80871,0.9814 -2.50479,1.52973 -1.11741,0.28446 -2.40109,0.75333 -3.00538,1.27436 -0.9881,0.12073 -1.53697,0.38576 -2.0036,1.01962 -0.89273,1.08997 -0.50239,1.01961 -1.50299,1.01961 -0.85579,0.52891 -2.18655,0.5101 -3.50659,0.5101 -1.33613,-0.0364 -2.38798,-0.25535 -3.75687,-0.25535 -1.17522,-0.2135 -2.24913,-0.46402 -3.50659,-0.50951 -1.16866,0 -2.33733,0 -3.50659,0 -1.16866,0 -2.33732,0 -3.50599,0 -1.16926,0 -2.33792,0 -3.50658,0 -1.33613,0 -2.67166,0 -4.00778,0 -1.16866,0 -2.33733,0 -3.50599,0 -1.16926,0 -2.33792,0 -3.50659,0 -1.33076,0 -2.13589,0.1674 -3.25627,0.25476 -1.24615,0.091 -2.21755,0.36696 -3.2557,0.5101 -1.12873,0.17287 -1.64482,0.60473 -2.50479,1.01962 -0.79083,0.38152 -1.58821,0.76546 -2.50479,1.01961 -1.22944,0.66175 -2.64423,1.00869 -4.00717,1.27436 -1.02862,0.48586 -2.4893,0.74546 -3.25629,1.27498 -1.17403,0.0916 -1.94221,0.41427 -3.25569,0.5095 -1.11562,0.51375 -2.03458,0.78731 -3.00599,1.01962 -0.90047,0.3057 -1.76699,0.49494 -3.00538,0.51011 -1.15853,0.15952 -1.79739,0.49131 -3.00539,0.76486 -0.42968,0.36817 -1.11562,0.63021 -1.75329,0.76425 -1.47141,0.70967 -1.95353,0.76487 -3.50659,0.76487 -1.16866,0 -2.33732,0 -3.50658,0 -1.67046,-0.16499 -3.32839,-0.37728 -5.00898,-0.76487 -1.71455,-0.0837 -3.34985,-0.30388 -5.00958,-0.5095 -1.25209,0 -2.50419,0 -3.75688,0 -1.2521,0 -2.50419,0 -3.75689,0 -1.16866,0 -2.33732,0 -3.50658,0 -1.32361,-0.0479 -2.49883,-0.3057 -3.75688,-0.51011 -1.17761,-0.21412 -2.42196,-0.31784 -3.50599,-0.76425 -1.55782,-0.0837 -3.13352,-0.29843 -4.50839,-0.76487 -1.25269,-0.22745 -2.45353,-0.65568 -3.75687,-0.76486 -0.72349,-0.44703 -2.14245,-0.59564 -2.75509,-1.01961 -1.14542,-0.0898 -2.09716,-0.45188 -2.75509,-1.01962 -1.17165,-0.17711 -1.85044,-0.70299 -3.00599,-1.01961 -1.04053,-0.64113 -2.2968,-0.85584 -3.75688,-1.52973 -1.24375,-0.27112 -2.4887,-0.71875 -3.75688,-1.01961 -0.99882,-0.3518 -2.21636,-0.68661 -3.0054,-1.27437 -1.10728,-0.30751 -1.74256,-0.6393 -3.00539,-1.02021 -0.58998,-0.53437 -1.7509,-1.09422 -2.50478,-1.52913 -0.54768,-0.49676 -1.98691,-1.35017 -2.75509,-1.78446 -0.81586,-0.96138 -1.63887,-1.90944 -2.75509,-3.05884 -0.77474,-0.8601 -1.65912,-1.55157 -2.50479,-2.03985 -1.08582,-0.46036 -2.31587,-1.11848 -3.00538,-1.52911 -0.94876,-0.26324 -1.71456,-0.85038 -2.25449,-1.52973 -0.85399,-0.49251 -1.41121,-0.93165 -2.25389,-1.52911 -1.30872,0.50466 -1.44638,0.25475 -2.75509,0.25475 -1.49286,-0.12497 -2.5912,-0.17166 -4.00718,0 -1.22468,0.14679 -2.42255,0.25476 -3.75748,0.25476 -1.16866,0 -2.33733,0 -3.50599,0 -1.58464,0.0194 -1.8409,0.22806 -2.25449,1.52972 -0.72885,0.81581 -1.03338,1.77113 -1.7533,2.29397 -0.61799,0.79763 -1.50954,1.34049 -2.50478,1.78448 -1.2366,0.8704 -1.60967,1.1852 -2.25389,2.29459 -0.82003,0.73151 -1.50359,1.7778 -2.0036,2.54873 -0.4547,0.79154 -0.75983,1.52488 -1.00179,2.80409 0,1.21978 0.0983,2.50323 -0.2503,3.56895 0,1.21977 0.0983,2.50324 -0.2509,3.56895 0,1.18945 0,2.37889 0,3.56896 0,1.18944 0,2.37889 0,3.56894 0.52205,0.78124 1.22528,1.08088 1.50299,2.29398 0.37128,1.00749 -0.31644,0.64659 -1.00179,1.27436 -1.16866,0 -2.33792,0 -3.50659,0 -1.16866,0 -2.33792,0 -3.50658,0 -1.27712,0 -2.3111,-0.16801 -3.50658,-0.25475 -1.01194,-0.18378 -2.49347,-0.2511 -3.25569,-0.5095 -1.16926,0 -2.33792,0 -3.50658,0 -1.24614,-0.091 -2.21754,-0.36697 -3.25629,-0.51011 -1.45055,-0.28143 -2.45414,-0.70845 -3.75689,-1.52972 -1.33374,-0.29054 -2.35222,-0.80186 -3.50658,-1.52912 -1.24376,-0.33178 -2.22945,-0.99656 -3.50598,-1.27497 -0.85937,-0.41367 -1.4738,-0.8146 -2.50479,-1.27436 -0.60609,-0.84433 -1.19072,-1.31501 -2.50479,-1.52973 -1.00776,-0.52649 -1.86176,-0.5095 -3.2557,-0.5095 -1.30513,0.1577 -2.06497,0.50343 -3.00597,0.76486 -1.04352,0.48039 -2.40407,0.88921 -3.25569,1.27437 -0.85162,0.34694 -1.62516,0.81278 -2.50479,1.27436 -0.67343,0.88192 -1.06735,1.40902 -1.503,2.29458 -0.33372,0 -0.2503,-0.0849 -0.2503,0.25476 -1.34923,0.0491 -2.76819,0 -4.25747,0 -0.70681,0.35969 -2.08168,0.43733 -3.00599,0.5101 -0.73362,0.57744 -1.60132,1.07785 -2.25389,1.52913 -0.43207,0.87949 -0.73422,1.11363 -0.7515,2.54933 0.0536,1.52306 0.59118,1.96584 1.0018,3.05884 -0.30156,1.39022 -0.83732,1.50547 -2.0036,1.78448 -0.88618,0.19591 -2.04173,0.25475 -3.25628,0.25475 -1.25209,0 -2.50419,0 -3.75688,0 -1.2521,0 -2.5042,0 -3.75689,0 -1.4428,0 -2.121,0.0164 -2.75509,-0.76425 -0.43564,-0.86434 -0.47676,-1.96584 -0.7515,-2.80409 -0.74612,-1.03297 -1.07926,-1.72625 -2.25389,-2.54934 -0.25863,-0.78973 -0.87903,-1.94885 -1.25209,-2.8041 -0.40168,-0.86191 -0.71156,-1.62312 -1.50299,-2.29458 -0.83255,-0.7867 -1.77594,-1.29741 -2.50479,-2.03922 -0.83792,-0.54711 -1.51074,-1.00143 -3.00539,-1.01962 -1.21395,0 -2.3701,0.0589 -3.25629,0.25475 -0.61025,0.53923 -1.63111,1.11485 -2.50418,1.78448 -0.69251,0.93954 -1.30634,1.62496 -2.25449,2.54934 -1.06855,0.99716 -2.13173,1.60251 -3.00539,2.03923 -0.80037,0.4076 -1.61682,0.91043 -2.25449,1.78447 -0.74375,0.32997 -1.10489,0.88375 -1.5024,1.78447 -0.65375,0.59321 -1.02861,1.58128 -1.25269,2.54934 -0.40823,1.24768 -0.46424,2.68096 -0.50059,4.07846 0,1.18944 0,2.3795 0,3.56894 -0.39632,0.47919 -0.61027,0.98869 -1.2521,1.52973 -0.61324,0.5556 -1.53518,1.16336 -2.25449,1.52912 -0.69786,0.91347 -1.1329,1.44966 -1.2521,2.80409 0,1.11424 -0.10367,2.593 0.2503,3.3142 0.50656,0.72179 1.52862,1.22038 2.50479,1.78447 0.93803,0.33846 1.42492,1.07845 2.0036,2.03923 1.07271,0.49009 0.9404,0.9438 2.25388,1.01961 0.7956,0.63627 2.01611,0.83583 3.00599,1.27436 1.00239,0.27841 1.5018,0.74182 2.50419,1.01963 0.64899,0.86008 1.36413,1.41811 1.75329,2.80408 0.10546,0.89102 0.45173,1.78387 0,2.54934 -1.02027,0.61807 -2.38918,1.01173 -3.00539,1.52973 -0.8105,0.0431 -0.7503,0.23473 -1.25209,0.5095 -0.0103,1.7038 -0.23362,2.57238 -0.5012,3.8237 -0.0858,1.14031 -0.2503,1.95977 -0.2503,3.3142 0,1.18945 0,2.3795 0,3.56895 0.53278,1.13243 1.2366,1.34351 2.00359,2.03923 0.76342,0.55499 1.00121,1.20886 1.2521,2.29398 0.42968,0.99717 0.88737,1.82874 1.25269,2.80409 0.4565,0.97655 0.7515,1.86272 0.7515,3.31419 -0.1251,1.39567 -0.69846,1.63588 -1.75329,2.29398 -0.5602,0.69026 -0.37605,1.91185 -0.7515,3.05944 0,1.1749 -0.0137,2.5075 0.2503,3.31361 0.42908,0.58229 0.32479,0.82612 0.5012,1.78446 z"
       style="fill:#ffce00;fill-opacity:1;fill-rule:evenodd;stroke:none" />
    <g
       style="fill:#009a00;fill-opacity:1;stroke:none"
       transform="matrix(0.59595244,0,0,0.60655184,-117.78239,-72.872672)"
       id="g588">
      <path
         inkscape:connector-curvature="0"
         id="path569"
         d="m 460.164,634.917 c -0.228,-0.228 -0.455,-0.455 -0.683,-0.683 1.55,1.549 0.802,0.981 -0.683,-2.731 -0.145,-3.936 -1.098,-4.57 -3.413,-6.145 -2.715,-0.904 -3.875,-2.064 -4.779,-4.779 -1.736,-1.433 -3.042,-3.351 -4.097,-5.462 -1.876,-1.275 -3.503,-2.903 -4.779,-4.779 -1.876,-1.276 -3.503,-2.903 -4.779,-4.779 -2.594,-0.906 -4.306,-2.751 -7.51,-4.096 -1.803,-1.719 -3.497,-2.567 -6.145,-4.097 -2.963,-1.419 -3.132,-2.446 -6.827,-2.731 -1.13,1.244 -2.92,0.755 -3.414,2.731 0.15,4.046 0.955,4.894 2.731,8.193 0.138,3.729 1.14,5.484 2.731,8.193 1.939,1.357 3.431,3.769 5.462,5.462 2.168,1.474 3.03,3.04 6.145,4.779 1.627,2.035 4.347,3.126 6.827,4.779 3.054,1.178 5.559,2.087 7.51,3.414 2.74,0.644 4.611,1.681 6.827,2.731 3.277,0.307 4.611,0.673 8.876,0 z"
         style="fill:#009a00;fill-opacity:1;fill-rule:evenodd;stroke:none" />
      <path
         inkscape:connector-curvature="0"
         id="path570"
         d="m 474.501,654.033 c -0.227,-0.227 -0.455,-0.455 -0.682,-0.682 1.621,1.621 0.848,0.958 -1.366,-2.731 -2.524,-2.39 -3.07,-4.221 -6.827,-4.78 -2.006,-0.802 -5.262,-1.298 -7.51,-2.048 -3.887,0 -5.668,-0.415 -8.876,-1.365 -2.293,-0.626 -5.194,-1.738 -7.51,-2.731 -2.746,-0.408 -5.589,-1.482 -8.193,-2.048 -3.186,0 -6.372,0 -9.558,0 -3.067,0.721 -4.793,0.753 -5.462,4.096 1.4,1.695 3.248,3.173 4.779,4.779 0.863,2.999 2.946,3.714 4.779,5.462 3.161,1.094 3.803,1.911 7.51,2.048 3.143,1.048 5.428,1.324 8.876,1.366 3.657,0 6.287,0.742 9.558,1.365 2.724,0.368 5.396,0.683 8.876,0.683 2.966,0 6.197,-0.017 8.193,-0.683 4.302,-3.441 3.413,-4.188 3.413,0.683 0.456,0.455 0.911,0.91 1.366,1.365"
         style="fill:#009a00;fill-opacity:1;fill-rule:evenodd;stroke:none" />
      <path
         inkscape:connector-curvature="0"
         id="path571"
         d="m 497.714,664.274 c -0.227,0 -0.455,0 -0.682,0 1.843,0 0.907,0.045 -2.731,-0.682 -3.405,-0.973 -5.339,-1.918 -8.876,-2.049 -2.101,-1.228 -4.68,-1.365 -8.193,-1.365 -3.186,0 -6.372,0 -9.558,0 -3.38,0.26 -4.813,1.105 -8.193,1.365 -1.794,1.05 -5.358,1.912 -7.51,2.731 -1.92,1.306 -3.559,2.929 -6.145,4.097 0.596,3.391 2.479,4.668 4.78,6.144 2.31,0.925 4.685,1.798 8.192,2.049 3.355,0.124 5.163,0.682 8.876,0.682 3.479,0 6.152,-0.314 8.876,-0.682 2.266,-1.074 4.194,-2.199 7.51,-2.731 1.653,-1.433 4.073,-2.433 6.144,-3.414 1.834,-0.868 4.329,-1.669 6.145,-2.731 l -6.145,2.731 c 1.834,-0.868 4.329,-1.669 7.51,-6.145 z"
         style="fill:#009a00;fill-opacity:1;fill-rule:evenodd;stroke:none" />
      <path
         inkscape:connector-curvature="0"
         transform="matrix(1,0,0,0.851573,1.188736,101.0965)"
         id="path573"
         d="m 529.803,679.977 c 0,-0.227 0,-0.455 0,-0.682 0,1.908 0.085,0.894 -1.365,-2.731 -2.527,-1.332 -5.559,-2.273 -7.511,-3.414 -2.984,0 -6.944,-0.283 -8.875,0.683 -3.448,0.041 -5.733,0.318 -8.876,1.365 -2.996,0.452 -4.723,1.5 -6.827,2.731 -2.378,1.283 -5.824,2.934 -8.876,4.096 -2.698,1.881 -3.612,2.984 -6.827,4.78 -2.025,2.219 -4.098,3.552 -5.462,5.462 -0.606,2.304 0.039,5.022 2.731,6.144 1.702,1.406 4.316,2.14 6.827,2.731 3.187,-0.118 6.001,-0.56 8.193,-2.048 3.383,-0.448 5.393,-1.44 8.193,-2.048 2.396,-0.851 4.69,-1.667 7.51,-2.049 1.953,-1.324 5.416,-2.467 7.51,-3.413 3.43,-1.389 5.621,-3.221 8.193,-4.779 1.226,-1.419 2.862,-2.951 4.779,-3.414 l -4.779,3.414 c 1.226,-1.419 2.862,-2.951 5.462,-6.828 z"
         style="fill:#009a00;fill-opacity:1;fill-rule:evenodd;stroke:none" />
      <path
         inkscape:connector-curvature="0"
         transform="matrix(1,0,0,0.888389,0,76.96011)"
         id="path574"
         d="m 557.112,693.632 c -0.127,-0.032 -3.176,-1.365 -5.461,-1.365 -2.024,-1.184 -5.299,-1.422 -8.193,-2.731 -3.731,0 -6.271,0.418 -8.193,2.048 -2.838,0.383 -5.375,1.217 -7.51,2.731 -2.658,0.625 -5.07,1.21 -7.51,2.731 -3.294,1.382 -4.744,2.679 -6.828,4.096 -1.405,1.701 -4.441,2.652 -6.144,4.097 -1.529,1.851 -1.526,4.299 -0.683,6.827 1.748,1.076 4.736,2.144 6.827,3.414 3.052,0.545 6.162,0.682 9.559,0.682 3.031,-0.233 5.588,-0.741 7.51,-2.048 3.434,-1.654 4.348,-2.876 6.827,-4.779 1.434,-1.736 3.833,-3.133 6.145,-4.096 1.742,-1.51 3.856,-2.614 6.827,-3.414 1.663,-1.585 3.194,-3.117 4.779,-4.779 1.909,0 0.598,0.211 2.048,-3.414 z"
         style="fill:#009a00;fill-opacity:1;fill-rule:evenodd;stroke:none" />
      <path
         inkscape:connector-curvature="0"
         transform="matrix(1,0,0,0.866411,-0.594368,95.81036)"
         id="path575"
         d="m 587.153,696.363 c -0.164,-0.025 -3.855,-0.683 -6.145,-0.683 -1.931,-0.965 -5.891,-0.683 -8.875,-0.683 -3.762,0.14 -4.925,0.917 -6.828,2.731 -1.935,1.191 -4.271,2.261 -6.144,4.097 -2.394,1.467 -4.551,3.489 -6.828,4.779 -2.505,1.073 -4.664,2.302 -7.51,2.731 -1.372,1.661 -3.778,3.096 -5.462,4.779 -1.874,1.406 -2.669,2.082 -2.731,5.462 -1.39,1.121 -2.329,3.322 -2.048,4.096 2.763,1.419 5.047,2.003 8.876,2.049 3.647,0.043 6.208,0.837 9.558,0 3.414,-1.012 4.778,-1.72 8.193,-2.731 1.743,-2.271 3.052,-3.791 5.462,-5.462 1.302,-1.915 2.862,-3.677 5.462,-4.779 1.948,-1.772 4.83,-3.729 6.827,-4.78 1.221,-1.709 3.602,-3.527 5.462,-4.779 1.368,-2.315 1.757,-2.7 2.731,-6.827 z"
         style="fill:#009a00;fill-opacity:1;fill-rule:evenodd;stroke:none" />
      <path
         inkscape:connector-curvature="0"
         id="path577"
         d="m 589.884,693.632 c 0,-1.532 0,-7.319 0,-10.924 0,-3.186 0,-6.372 0,-9.558 -3.17,-1.875 -3.645,-2.997 -4.779,-6.827 -1.683,-2.73 -2.969,-4.447 -4.097,-6.828 -1.581,-1.659 -2.884,-3.812 -3.414,-6.827 -1.304,-2.528 -2.113,-5.07 -4.779,-6.145 -2.415,-0.525 -5.565,-0.683 -8.875,-0.683 -4.522,0.168 -4.097,0.965 -4.097,5.462 0.318,3.497 1.433,4.412 2.731,7.51 1.003,2.118 2.092,4.294 3.414,6.145 1.021,2.262 2.623,5.174 4.096,6.827 1.196,2.511 2.915,4.786 3.414,7.511 1.871,2.374 3.164,4.451 4.779,6.144 1.337,2.791 2.343,4.37 4.779,5.462 1.393,2.088 3.748,2.26 6.828,2.731 z"
         style="fill:#009a00;fill-opacity:1;fill-rule:evenodd;stroke:none" />
      <path
         inkscape:connector-curvature="0"
         id="path578"
         d="m 557.112,682.708 c 0.228,0 0.456,0 0.683,0 -1.908,0 -0.894,0.085 2.731,-1.365 0.966,-1.932 0.683,-5.891 0.683,-8.876 0,-3.887 -0.643,-5.542 -1.366,-8.193 -1.242,-2.965 -2.255,-4.355 -2.731,-7.51 -1.021,-2.156 -2.049,-4.329 -2.731,-6.827 -1.227,-1.806 -2.104,-4.529 -2.73,-6.827 -2.305,-1.306 -4.433,-2.616 -6.828,-3.414 -2.171,-1.028 -4.193,-2.561 -6.827,-3.414 -3.425,0.627 -3.812,1.756 -4.097,5.462 -0.787,2.754 0.293,5.244 1.366,7.51 1.128,2.694 1.801,5.426 3.414,7.51 0.984,3.063 1.986,4.131 2.048,7.51 1.175,2.01 1.666,4.969 2.731,7.51 1.371,3.171 2.647,4.538 4.779,6.828 2.915,1.982 3.916,2.814 8.875,4.096 z"
         style="fill:#009a00;fill-opacity:1;fill-rule:evenodd;stroke:none" />
      <path
         inkscape:connector-curvature="0"
         id="path579"
         d="m 529.803,673.833 c 0,-0.327 2.168,-1.67 3.414,-3.414 1.02,-2.041 0.894,-6.191 0,-8.876 -1.295,-3.199 -2.706,-5.597 -3.414,-8.192 -0.72,-2.16 -0.683,-5.728 -0.683,-8.876 -0.623,-2.868 -1.649,-4.988 -2.731,-8.193 -0.882,-2.206 -2.602,-4.966 -3.413,-7.51 -1.065,-1.006 -2.269,-3.071 -3.414,-4.096 -1.335,-1.092 -1.382,-1.366 -4.096,-1.366 -3.629,0.135 -5.455,0.47 -7.511,2.731 -0.719,2.16 -0.682,5.728 -0.682,8.876 0.045,3.762 0.395,5.541 2.048,8.193 1.206,2.869 3.736,5.663 5.462,8.192 1.415,2.396 2.316,4.675 4.096,6.145 0.464,3.076 1.621,4.484 2.731,6.827 0.464,3.076 1.621,4.484 2.731,6.828 1.786,0.198 0.952,0.634 2.048,1.365 l -2.048,-1.365 c 1.786,0.198 0.952,0.634 5.462,2.731 z"
         style="fill:#009a00;fill-opacity:1;fill-rule:evenodd;stroke:none" />
      <path
         inkscape:connector-curvature="0"
         id="path581"
         d="m 502.494,653.351 c 0.417,-0.939 2.951,-4.593 3.413,-6.828 -0.046,-3.872 -0.497,-6.515 -2.731,-8.875 -0.554,-2.389 -1.894,-5.998 -2.731,-8.193 0,-3.148 0.038,-6.716 -0.682,-8.876 0,-3.587 -0.496,-5.742 -1.366,-8.193 -1.542,-2.267 -3.203,-2.931 -6.827,-4.096 -2.937,-0.979 -4.967,-0.273 -8.193,0.683 0,3.186 0,6.372 0,9.558 0.043,3.613 0.688,6.193 2.048,8.193 1.11,2.342 2.182,4.016 3.414,6.827 0.132,3.711 1.116,5.629 1.365,8.876 0.269,3.491 0.597,5.298 2.731,7.51 2.907,1.374 3.794,2.703 6.145,3.414 l -6.145,-3.414 c 2.907,1.374 3.794,2.703 9.559,3.414 z"
         style="fill:#009a00;fill-opacity:1;fill-rule:evenodd;stroke:none" />
      <path
         inkscape:connector-curvature="0"
         id="path582"
         d="m 477.915,638.33 c 0,-0.227 0,-0.455 0,-0.682 0,1.908 -0.084,0.894 1.366,-2.731 0.739,-2.96 0.682,-6.218 0.682,-9.559 -0.211,-2.751 -0.61,-5.928 -1.365,-8.192 -0.624,-3.495 -1.339,-5.682 -2.048,-8.876 -0.488,-2.773 -2.366,-5.834 -3.414,-8.193 -0.67,-2.01 -1.353,-6.2 -2.048,-8.193 -0.489,-2.552 -1.715,-3.355 -4.097,-4.096 -1.869,-0.935 -6.323,-0.935 -8.193,0 -2.009,0.696 -2.006,2.284 -2.73,4.096 -0.253,3.533 -0.854,6.143 0,9.559 1.155,1.975 2.377,4.071 3.413,6.144 1.342,2.423 2.687,6.059 4.097,8.193 1.027,3.467 1.407,5.068 3.413,8.193 0.738,2.213 1.902,4.873 3.414,6.827 0.972,2.43 2.39,4.152 3.414,6.828 1.842,0 0.461,-0.045 4.096,0.682 z"
         style="fill:#009a00;fill-opacity:1;fill-rule:evenodd;stroke:none" />
      <path
         inkscape:connector-curvature="0"
         id="path583"
         d="m 618.131,711.133 c -0.198,0 -0.396,0 -0.594,0 0.792,0 -1.585,0 -2.378,0 -2.774,0 -5.547,0 -8.321,0 -1.735,1.648 -2.339,2.595 -5.349,2.972 -1.52,1.317 -2.96,2.534 -5.349,2.971 -2.103,0.458 -4.845,0.595 -7.727,0.595 -3.523,-0.043 -4.733,0.109 -5.349,-2.972 0.056,-3.063 0.2,-3.234 2.972,-3.566 1.484,-1.226 3.971,-1.807 6.538,-2.377 1.962,-0.697 4.365,-1.311 6.538,-1.784 2.107,-0.748 4.118,-1.512 5.943,-2.377 -0.454,-1.815 -1.921,-1.417 -3.566,-0.594 -2.135,0 -4.682,0.162 -5.944,-0.595 -1.483,-2.204 -2.286,-2.927 -5.943,-2.971 -3.47,-0.042 -4.062,-0.953 -7.132,-1.189 -2.94,-0.036 -4.995,-0.476 -7.133,-1.189 -3.138,-0.224 -5.246,-0.702 -7.726,-1.783 -0.797,-0.797 1.094,-0.962 2.377,-1.189 1.758,-1.195 3.617,-1.675 6.538,-1.783 2.774,0 5.547,0 8.321,0 3.049,0 5.395,0.49 8.321,0.595 2.385,0.825 4.891,1.257 6.538,2.377 2.151,0.717 3.505,1.978 4.755,3.566 2.091,0.571 4.195,1.274 6.538,1.783 2.74,0 5.846,-0.032 7.726,0.595 1.361,2.268 0.285,5.986 -0.594,8.915 z"
         style="fill:#009a00;fill-opacity:1;fill-rule:evenodd;stroke:none" />
    </g>
    <g
       style="fill:#009a00;fill-opacity:1;stroke:none"
       transform="matrix(-0.59595244,0,0,0.60655184,620.40455,-72.512167)"
       id="g601">
      <path
         inkscape:connector-curvature="0"
         id="path602"
         d="m 460.164,634.917 c -0.228,-0.228 -0.455,-0.455 -0.683,-0.683 1.55,1.549 0.802,0.981 -0.683,-2.731 -0.145,-3.936 -1.098,-4.57 -3.413,-6.145 -2.715,-0.904 -3.875,-2.064 -4.779,-4.779 -1.736,-1.433 -3.042,-3.351 -4.097,-5.462 -1.876,-1.275 -3.503,-2.903 -4.779,-4.779 -1.876,-1.276 -3.503,-2.903 -4.779,-4.779 -2.594,-0.906 -4.306,-2.751 -7.51,-4.096 -1.803,-1.719 -3.497,-2.567 -6.145,-4.097 -2.963,-1.419 -3.132,-2.446 -6.827,-2.731 -1.13,1.244 -2.92,0.755 -3.414,2.731 0.15,4.046 0.955,4.894 2.731,8.193 0.138,3.729 1.14,5.484 2.731,8.193 1.939,1.357 3.431,3.769 5.462,5.462 2.168,1.474 3.03,3.04 6.145,4.779 1.627,2.035 4.347,3.126 6.827,4.779 3.054,1.178 5.559,2.087 7.51,3.414 2.74,0.644 4.611,1.681 6.827,2.731 3.277,0.307 4.611,0.673 8.876,0 z"
         style="fill:#009a00;fill-opacity:1;fill-rule:evenodd;stroke:none" />
      <path
         inkscape:connector-curvature="0"
         id="path603"
         d="m 474.501,654.033 c -0.227,-0.227 -0.455,-0.455 -0.682,-0.682 1.621,1.621 0.848,0.958 -1.366,-2.731 -2.524,-2.39 -3.07,-4.221 -6.827,-4.78 -2.006,-0.802 -5.262,-1.298 -7.51,-2.048 -3.887,0 -5.668,-0.415 -8.876,-1.365 -2.293,-0.626 -5.194,-1.738 -7.51,-2.731 -2.746,-0.408 -5.589,-1.482 -8.193,-2.048 -3.186,0 -6.372,0 -9.558,0 -3.067,0.721 -4.793,0.753 -5.462,4.096 1.4,1.695 3.248,3.173 4.779,4.779 0.863,2.999 2.946,3.714 4.779,5.462 3.161,1.094 3.803,1.911 7.51,2.048 3.143,1.048 5.428,1.324 8.876,1.366 3.657,0 6.287,0.742 9.558,1.365 2.724,0.368 5.396,0.683 8.876,0.683 2.966,0 6.197,-0.017 8.193,-0.683 4.302,-3.441 3.413,-4.188 3.413,0.683 0.456,0.455 0.911,0.91 1.366,1.365"
         style="fill:#009a00;fill-opacity:1;fill-rule:evenodd;stroke:none" />
      <path
         inkscape:connector-curvature="0"
         id="path604"
         d="m 497.714,664.274 c -0.227,0 -0.455,0 -0.682,0 1.843,0 0.907,0.045 -2.731,-0.682 -3.405,-0.973 -5.339,-1.918 -8.876,-2.049 -2.101,-1.228 -4.68,-1.365 -8.193,-1.365 -3.186,0 -6.372,0 -9.558,0 -3.38,0.26 -4.813,1.105 -8.193,1.365 -1.794,1.05 -5.358,1.912 -7.51,2.731 -1.92,1.306 -3.559,2.929 -6.145,4.097 0.596,3.391 2.479,4.668 4.78,6.144 2.31,0.925 4.685,1.798 8.192,2.049 3.355,0.124 5.163,0.682 8.876,0.682 3.479,0 6.152,-0.314 8.876,-0.682 2.266,-1.074 4.194,-2.199 7.51,-2.731 1.653,-1.433 4.073,-2.433 6.144,-3.414 1.834,-0.868 4.329,-1.669 6.145,-2.731 l -6.145,2.731 c 1.834,-0.868 4.329,-1.669 7.51,-6.145 z"
         style="fill:#009a00;fill-opacity:1;fill-rule:evenodd;stroke:none" />
      <path
         inkscape:connector-curvature="0"
         transform="matrix(1,0,0,0.851573,1.188736,101.0965)"
         id="path605"
         d="m 529.803,679.977 c 0,-0.227 0,-0.455 0,-0.682 0,1.908 0.085,0.894 -1.365,-2.731 -2.527,-1.332 -5.559,-2.273 -7.511,-3.414 -2.984,0 -6.944,-0.283 -8.875,0.683 -3.448,0.041 -5.733,0.318 -8.876,1.365 -2.996,0.452 -4.723,1.5 -6.827,2.731 -2.378,1.283 -5.824,2.934 -8.876,4.096 -2.698,1.881 -3.612,2.984 -6.827,4.78 -2.025,2.219 -4.098,3.552 -5.462,5.462 -0.606,2.304 0.039,5.022 2.731,6.144 1.702,1.406 4.316,2.14 6.827,2.731 3.187,-0.118 6.001,-0.56 8.193,-2.048 3.383,-0.448 5.393,-1.44 8.193,-2.048 2.396,-0.851 4.69,-1.667 7.51,-2.049 1.953,-1.324 5.416,-2.467 7.51,-3.413 3.43,-1.389 5.621,-3.221 8.193,-4.779 1.226,-1.419 2.862,-2.951 4.779,-3.414 l -4.779,3.414 c 1.226,-1.419 2.862,-2.951 5.462,-6.828 z"
         style="fill:#009a00;fill-opacity:1;fill-rule:evenodd;stroke:none" />
      <path
         inkscape:connector-curvature="0"
         transform="matrix(1,0,0,0.888389,0,76.96011)"
         id="path606"
         d="m 557.112,693.632 c -0.127,-0.032 -3.176,-1.365 -5.461,-1.365 -2.024,-1.184 -5.299,-1.422 -8.193,-2.731 -3.731,0 -6.271,0.418 -8.193,2.048 -2.838,0.383 -5.375,1.217 -7.51,2.731 -2.658,0.625 -5.07,1.21 -7.51,2.731 -3.294,1.382 -4.744,2.679 -6.828,4.096 -1.405,1.701 -4.441,2.652 -6.144,4.097 -1.529,1.851 -1.526,4.299 -0.683,6.827 1.748,1.076 4.736,2.144 6.827,3.414 3.052,0.545 6.162,0.682 9.559,0.682 3.031,-0.233 5.588,-0.741 7.51,-2.048 3.434,-1.654 4.348,-2.876 6.827,-4.779 1.434,-1.736 3.833,-3.133 6.145,-4.096 1.742,-1.51 3.856,-2.614 6.827,-3.414 1.663,-1.585 3.194,-3.117 4.779,-4.779 1.909,0 0.598,0.211 2.048,-3.414 z"
         style="fill:#009a00;fill-opacity:1;fill-rule:evenodd;stroke:none" />
      <path
         inkscape:connector-curvature="0"
         transform="matrix(1,0,0,0.866411,-0.594368,95.81036)"
         id="path607"
         d="m 587.153,696.363 c -0.164,-0.025 -3.855,-0.683 -6.145,-0.683 -1.931,-0.965 -5.891,-0.683 -8.875,-0.683 -3.762,0.14 -4.925,0.917 -6.828,2.731 -1.935,1.191 -4.271,2.261 -6.144,4.097 -2.394,1.467 -4.551,3.489 -6.828,4.779 -2.505,1.073 -4.664,2.302 -7.51,2.731 -1.372,1.661 -3.778,3.096 -5.462,4.779 -1.874,1.406 -2.669,2.082 -2.731,5.462 -1.39,1.121 -2.329,3.322 -2.048,4.096 2.763,1.419 5.047,2.003 8.876,2.049 3.647,0.043 6.208,0.837 9.558,0 3.414,-1.012 4.778,-1.72 8.193,-2.731 1.743,-2.271 3.052,-3.791 5.462,-5.462 1.302,-1.915 2.862,-3.677 5.462,-4.779 1.948,-1.772 4.83,-3.729 6.827,-4.78 1.221,-1.709 3.602,-3.527 5.462,-4.779 1.368,-2.315 1.757,-2.7 2.731,-6.827 z"
         style="fill:#009a00;fill-opacity:1;fill-rule:evenodd;stroke:none" />
      <path
         inkscape:connector-curvature="0"
         id="path608"
         d="m 589.884,693.632 c 0,-1.532 0,-7.319 0,-10.924 0,-3.186 0,-6.372 0,-9.558 -3.17,-1.875 -3.645,-2.997 -4.779,-6.827 -1.683,-2.73 -2.969,-4.447 -4.097,-6.828 -1.581,-1.659 -2.884,-3.812 -3.414,-6.827 -1.304,-2.528 -2.113,-5.07 -4.779,-6.145 -2.415,-0.525 -5.565,-0.683 -8.875,-0.683 -4.522,0.168 -4.097,0.965 -4.097,5.462 0.318,3.497 1.433,4.412 2.731,7.51 1.003,2.118 2.092,4.294 3.414,6.145 1.021,2.262 2.623,5.174 4.096,6.827 1.196,2.511 2.915,4.786 3.414,7.511 1.871,2.374 3.164,4.451 4.779,6.144 1.337,2.791 2.343,4.37 4.779,5.462 1.393,2.088 3.748,2.26 6.828,2.731 z"
         style="fill:#009a00;fill-opacity:1;fill-rule:evenodd;stroke:none" />
      <path
         inkscape:connector-curvature="0"
         id="path609"
         d="m 557.112,682.708 c 0.228,0 0.456,0 0.683,0 -1.908,0 -0.894,0.085 2.731,-1.365 0.966,-1.932 0.683,-5.891 0.683,-8.876 0,-3.887 -0.643,-5.542 -1.366,-8.193 -1.242,-2.965 -2.255,-4.355 -2.731,-7.51 -1.021,-2.156 -2.049,-4.329 -2.731,-6.827 -1.227,-1.806 -2.104,-4.529 -2.73,-6.827 -2.305,-1.306 -4.433,-2.616 -6.828,-3.414 -2.171,-1.028 -4.193,-2.561 -6.827,-3.414 -3.425,0.627 -3.812,1.756 -4.097,5.462 -0.787,2.754 0.293,5.244 1.366,7.51 1.128,2.694 1.801,5.426 3.414,7.51 0.984,3.063 1.986,4.131 2.048,7.51 1.175,2.01 1.666,4.969 2.731,7.51 1.371,3.171 2.647,4.538 4.779,6.828 2.915,1.982 3.916,2.814 8.875,4.096 z"
         style="fill:#009a00;fill-opacity:1;fill-rule:evenodd;stroke:none" />
      <path
         inkscape:connector-curvature="0"
         id="path610"
         d="m 529.803,673.833 c 0,-0.327 2.168,-1.67 3.414,-3.414 1.02,-2.041 0.894,-6.191 0,-8.876 -1.295,-3.199 -2.706,-5.597 -3.414,-8.192 -0.72,-2.16 -0.683,-5.728 -0.683,-8.876 -0.623,-2.868 -1.649,-4.988 -2.731,-8.193 -0.882,-2.206 -2.602,-4.966 -3.413,-7.51 -1.065,-1.006 -2.269,-3.071 -3.414,-4.096 -1.335,-1.092 -1.382,-1.366 -4.096,-1.366 -3.629,0.135 -5.455,0.47 -7.511,2.731 -0.719,2.16 -0.682,5.728 -0.682,8.876 0.045,3.762 0.395,5.541 2.048,8.193 1.206,2.869 3.736,5.663 5.462,8.192 1.415,2.396 2.316,4.675 4.096,6.145 0.464,3.076 1.621,4.484 2.731,6.827 0.464,3.076 1.621,4.484 2.731,6.828 1.786,0.198 0.952,0.634 2.048,1.365 l -2.048,-1.365 c 1.786,0.198 0.952,0.634 5.462,2.731 z"
         style="fill:#009a00;fill-opacity:1;fill-rule:evenodd;stroke:none" />
      <path
         inkscape:connector-curvature="0"
         id="path611"
         d="m 502.494,653.351 c 0.417,-0.939 2.951,-4.593 3.413,-6.828 -0.046,-3.872 -0.497,-6.515 -2.731,-8.875 -0.554,-2.389 -1.894,-5.998 -2.731,-8.193 0,-3.148 0.038,-6.716 -0.682,-8.876 0,-3.587 -0.496,-5.742 -1.366,-8.193 -1.542,-2.267 -3.203,-2.931 -6.827,-4.096 -2.937,-0.979 -4.967,-0.273 -8.193,0.683 0,3.186 0,6.372 0,9.558 0.043,3.613 0.688,6.193 2.048,8.193 1.11,2.342 2.182,4.016 3.414,6.827 0.132,3.711 1.116,5.629 1.365,8.876 0.269,3.491 0.597,5.298 2.731,7.51 2.907,1.374 3.794,2.703 6.145,3.414 l -6.145,-3.414 c 2.907,1.374 3.794,2.703 9.559,3.414 z"
         style="fill:#009a00;fill-opacity:1;fill-rule:evenodd;stroke:none" />
      <path
         inkscape:connector-curvature="0"
         id="path612"
         d="m 477.915,638.33 c 0,-0.227 0,-0.455 0,-0.682 0,1.908 -0.084,0.894 1.366,-2.731 0.739,-2.96 0.682,-6.218 0.682,-9.559 -0.211,-2.751 -0.61,-5.928 -1.365,-8.192 -0.624,-3.495 -1.339,-5.682 -2.048,-8.876 -0.488,-2.773 -2.366,-5.834 -3.414,-8.193 -0.67,-2.01 -1.353,-6.2 -2.048,-8.193 -0.489,-2.552 -1.715,-3.355 -4.097,-4.096 -1.869,-0.935 -6.323,-0.935 -8.193,0 -2.009,0.696 -2.006,2.284 -2.73,4.096 -0.253,3.533 -0.854,6.143 0,9.559 1.155,1.975 2.377,4.071 3.413,6.144 1.342,2.423 2.687,6.059 4.097,8.193 1.027,3.467 1.407,5.068 3.413,8.193 0.738,2.213 1.902,4.873 3.414,6.827 0.972,2.43 2.39,4.152 3.414,6.828 1.842,0 0.461,-0.045 4.096,0.682 z"
         style="fill:#009a00;fill-opacity:1;fill-rule:evenodd;stroke:none" />
      <path
         inkscape:connector-curvature="0"
         id="path613"
         d="m 618.131,711.133 c -0.198,0 -0.396,0 -0.594,0 0.792,0 -1.585,0 -2.378,0 -2.774,0 -5.547,0 -8.321,0 -1.735,1.648 -2.339,2.595 -5.349,2.972 -1.52,1.317 -2.96,2.534 -5.349,2.971 -2.103,0.458 -4.845,0.595 -7.727,0.595 -3.523,-0.043 -4.733,0.109 -5.349,-2.972 0.056,-3.063 0.2,-3.234 2.972,-3.566 1.484,-1.226 3.971,-1.807 6.538,-2.377 1.962,-0.697 4.365,-1.311 6.538,-1.784 2.107,-0.748 4.118,-1.512 5.943,-2.377 -0.454,-1.815 -1.921,-1.417 -3.566,-0.594 -2.135,0 -4.682,0.162 -5.944,-0.595 -1.483,-2.204 -2.286,-2.927 -5.943,-2.971 -3.47,-0.042 -4.062,-0.953 -7.132,-1.189 -2.94,-0.036 -4.995,-0.476 -7.133,-1.189 -3.138,-0.224 -5.246,-0.702 -7.726,-1.783 -0.797,-0.797 1.094,-0.962 2.377,-1.189 1.758,-1.195 3.617,-1.675 6.538,-1.783 2.774,0 5.547,0 8.321,0 3.049,0 5.395,0.49 8.321,0.595 2.385,0.825 4.891,1.257 6.538,2.377 2.151,0.717 3.505,1.978 4.755,3.566 2.091,0.571 4.195,1.274 6.538,1.783 2.74,0 5.846,-0.032 7.726,0.595 1.361,2.268 0.285,5.986 -0.594,8.915 z"
         style="fill:#009a00;fill-opacity:1;fill-rule:evenodd;stroke:none" />
    </g>
  </g>
</svg>
