<?xml version="1.0" encoding="UTF-8" standalone="no"?>
<!-- Created with Sodipodi ("http://www.sodipodi.com/") -->

<svg
   xmlns:dc="http://purl.org/dc/elements/1.1/"
   xmlns:cc="http://creativecommons.org/ns#"
   xmlns:rdf="http://www.w3.org/1999/02/22-rdf-syntax-ns#"
   xmlns:svg="http://www.w3.org/2000/svg"
   xmlns="http://www.w3.org/2000/svg"
   xmlns:sodipodi="http://sodipodi.sourceforge.net/DTD/sodipodi-0.dtd"
   xmlns:inkscape="http://www.inkscape.org/namespaces/inkscape"
   version="1"
   x="0.00000000"
   y="0.00000000"
   width="512"
   height="512"
   id="svg5907"
   inkscape:version="0.48.1 r9760"
   sodipodi:docname="dm.svg">
  <sodipodi:namedview
     pagecolor="#ffffff"
     bordercolor="#666666"
     borderopacity="1"
     objecttolerance="10"
     gridtolerance="10"
     guidetolerance="10"
     inkscape:pageopacity="0"
     inkscape:pageshadow="2"
     inkscape:window-width="1280"
     inkscape:window-height="723"
     id="namedview3142"
     showgrid="false"
     inkscape:zoom="0.98242188"
     inkscape:cx="256"
     inkscape:cy="256"
     inkscape:window-x="0"
     inkscape:window-y="24"
     inkscape:window-maximized="1"
     inkscape:current-layer="svg5907" />
  <metadata
     id="metadata3144">
    <rdf:RDF>
      <cc:Work
         rdf:about="">
        <dc:format>image/svg+xml</dc:format>
        <dc:type
           rdf:resource="http://purl.org/dc/dcmitype/StillImage" />
      </cc:Work>
    </rdf:RDF>
  </metadata>
  <defs
     id="defs5909">
    <clipPath
       id="clipPath58417"
       clipPathUnits="userSpaceOnUse">
      <rect
         y="1.6195631"
         width="494.44339"
         style="fill:#000000;fill-opacity:0.67000002;stroke:none"
         x="249.41412"
         height="494.44339"
         id="rect58419" />
    </clipPath>
    <clipPath
       clipPathUnits="userSpaceOnUse"
       id="clipPath3921">
      <rect
         id="rect3923"
         height="512"
         x="0"
         style="fill:#000000;fill-opacity:0.67000002;stroke:none"
         width="512"
         y="0" />
    </clipPath>
    <clipPath
       clipPathUnits="userSpaceOnUse"
       id="clipPath4826">
      <rect
         id="rect4828"
         height="512"
         x="0"
         style="fill:#000000;fill-opacity:0.67000002;stroke:none"
         width="512"
         y="0" />
    </clipPath>
  </defs>
  <g
     id="flag"
     clip-path="url(#clipPath4826)"
     inkscape:label="#g4373">
    <rect
       width="1027.4592"
       height="512"
       x="-258.27026"
       y="3.8146973e-06"
       style="font-size:12px;fill:#108c00;fill-rule:evenodd;stroke-width:1pt"
       id="rect8587" />
    <rect
       width="1032.6483"
       height="50.162148"
       x="-260"
       y="178.16229"
       style="font-size:12px;fill:#ffd600;fill-rule:evenodd;stroke-width:1pt"
       id="rect8594" />
    <rect
       width="48.432411"
       height="512"
       x="181.08095"
       y="0"
       style="font-size:12px;fill:#ffd600;fill-rule:evenodd;stroke-width:1pt"
       id="rect8595" />
    <rect
       width="48.432411"
       height="512"
       x="227.78366"
       y="0"
       style="font-size:12px;fill-rule:evenodd;stroke-width:1pt"
       id="rect8596" />
    <rect
       width="1032.6483"
       height="50.162148"
       x="-260"
       y="226.59468"
       style="font-size:12px;fill-rule:evenodd;stroke-width:1pt"
       id="rect8597" />
    <rect
       width="1032.6483"
       height="50.162148"
       x="-260"
       y="276.75684"
       style="font-size:12px;fill:#ffffff;fill-rule:evenodd;stroke-width:1pt"
       id="rect8598" />
    <rect
       width="48.432411"
       height="512"
       x="276.21609"
       y="-5.6028366e-06"
       style="font-size:12px;fill:#ffffff;fill-rule:evenodd;stroke-width:1pt"
       id="rect8599" />
    <rect
       width="273.74509"
       height="275.02695"
       ry="137.51347"
       x="-394.55579"
       y="-393.87256"
       transform="scale(-1,-1)"
       style="font-size:12px;fill:#e72910;fill-rule:evenodd;stroke-width:1pt"
       id="rect8601" />
    <g
       style="font-size:12px"
       transform="matrix(0.35308745,0,0,0.35308745,82.476205,178.9215)"
       id="g597">
      <path
         d="m 130.3,124.25 c 0,-0.83 18.259,-51.4559 18.259,-51.4559 l 16.599,50.6259 c 0,0 55.606,1.66 55.606,0.83 0,-0.83 -43.987,33.198 -43.987,33.198 0,0 20.748,58.096 19.919,56.436 -0.83,-1.66 -48.137,-34.858 -48.137,-34.858 0,0 -48.136,33.198 -47.306,33.198 0.83,0 18.258,-54.776 18.258,-54.776 L 76.3544,125.08 130.3,124.25 z"
         transform="matrix(0.869967,0,0,0.880476,362.5389,-228.3465)"
         style="fill-rule:evenodd;stroke-width:1pt"
         id="path598"
         inkscape:connector-curvature="0" />
      <g
         transform="translate(27.9599,-31.86637)"
         id="g599">
        <rect
           width="1.6704102"
           height="0"
           x="233.85831"
           y="177.01344"
           style="fill:#108c00;fill-rule:evenodd;stroke-width:1pt"
           id="rect600" />
        <path
           d="m 130.3,124.25 c 0,-0.83 18.259,-51.4559 18.259,-51.4559 l 16.599,50.6259 c 0,0 55.606,1.66 55.606,0.83 0,-0.83 -43.987,33.198 -43.987,33.198 0,0 20.748,58.096 19.919,56.436 -0.83,-1.66 -48.137,-34.858 -48.137,-34.858 0,0 -48.136,33.198 -47.306,33.198 0.83,0 18.258,-54.776 18.258,-54.776 L 76.3544,125.08 130.3,124.25 z"
           transform="matrix(0.753475,0,0,0.762576,351.9197,-179.5669)"
           style="fill:#ffe700;fill-rule:evenodd;stroke-width:1pt"
           id="path601"
           inkscape:connector-curvature="0" />
        <path
           d="m 130.3,124.25 c 0,-0.83 18.259,-51.4559 18.259,-51.4559 l 16.599,50.6259 c 0,0 55.606,1.66 55.606,0.83 0,-0.83 -43.987,33.198 -43.987,33.198 0,0 20.748,58.096 19.919,56.436 -0.83,-1.66 -48.137,-34.858 -48.137,-34.858 0,0 -48.136,33.198 -47.306,33.198 0.83,0 18.258,-54.776 18.258,-54.776 L 76.3544,125.08 130.3,124.25 z"
           transform="matrix(0.434443,0,0,0.439691,399.3148,-133.0273)"
           style="fill:#108c00;fill-rule:evenodd;stroke-width:1pt"
           id="path602"
           inkscape:connector-curvature="0" />
      </g>
    </g>
    <g
       style="font-size:12px"
       transform="matrix(0.35308745,0,0,0.35308745,188.84326,253.80279)"
       id="g625">
      <path
         d="m 130.3,124.25 c 0,-0.83 18.259,-51.4559 18.259,-51.4559 l 16.599,50.6259 c 0,0 55.606,1.66 55.606,0.83 0,-0.83 -43.987,33.198 -43.987,33.198 0,0 20.748,58.096 19.919,56.436 -0.83,-1.66 -48.137,-34.858 -48.137,-34.858 0,0 -48.136,33.198 -47.306,33.198 0.83,0 18.258,-54.776 18.258,-54.776 L 76.3544,125.08 130.3,124.25 z"
         transform="matrix(0.869967,0,0,0.880476,362.5389,-228.3465)"
         style="fill-rule:evenodd;stroke-width:1pt"
         id="path626"
         inkscape:connector-curvature="0" />
      <g
         transform="translate(27.9599,-31.86637)"
         id="g627">
        <rect
           width="1.6704102"
           height="0"
           x="233.85831"
           y="177.01344"
           style="fill:#108c00;fill-rule:evenodd;stroke-width:1pt"
           id="rect628" />
        <path
           d="m 130.3,124.25 c 0,-0.83 18.259,-51.4559 18.259,-51.4559 l 16.599,50.6259 c 0,0 55.606,1.66 55.606,0.83 0,-0.83 -43.987,33.198 -43.987,33.198 0,0 20.748,58.096 19.919,56.436 -0.83,-1.66 -48.137,-34.858 -48.137,-34.858 0,0 -48.136,33.198 -47.306,33.198 0.83,0 18.258,-54.776 18.258,-54.776 L 76.3544,125.08 130.3,124.25 z"
           transform="matrix(0.753475,0,0,0.762576,351.9197,-179.5669)"
           style="fill:#ffe700;fill-rule:evenodd;stroke-width:1pt"
           id="path629"
           inkscape:connector-curvature="0" />
        <path
           d="m 130.3,124.25 c 0,-0.83 18.259,-51.4559 18.259,-51.4559 l 16.599,50.6259 c 0,0 55.606,1.66 55.606,0.83 0,-0.83 -43.987,33.198 -43.987,33.198 0,0 20.748,58.096 19.919,56.436 -0.83,-1.66 -48.137,-34.858 -48.137,-34.858 0,0 -48.136,33.198 -47.306,33.198 0.83,0 18.258,-54.776 18.258,-54.776 L 76.3544,125.08 130.3,124.25 z"
           transform="matrix(0.434443,0,0,0.439691,399.3148,-133.0273)"
           style="fill:#108c00;fill-rule:evenodd;stroke-width:1pt"
           id="path630"
           inkscape:connector-curvature="0" />
      </g>
    </g>
    <g
       style="font-size:12px"
       transform="matrix(0.35308745,0,0,0.35308745,157.84367,372.65123)"
       id="g631">
      <path
         d="m 130.3,124.25 c 0,-0.83 18.259,-51.4559 18.259,-51.4559 l 16.599,50.6259 c 0,0 55.606,1.66 55.606,0.83 0,-0.83 -43.987,33.198 -43.987,33.198 0,0 20.748,58.096 19.919,56.436 -0.83,-1.66 -48.137,-34.858 -48.137,-34.858 0,0 -48.136,33.198 -47.306,33.198 0.83,0 18.258,-54.776 18.258,-54.776 L 76.3544,125.08 130.3,124.25 z"
         transform="matrix(0.869967,0,0,0.880476,362.5389,-228.3465)"
         style="fill-rule:evenodd;stroke-width:1pt"
         id="path632"
         inkscape:connector-curvature="0" />
      <g
         transform="translate(27.9599,-31.86637)"
         id="g633">
        <rect
           width="1.6704102"
           height="0"
           x="233.85831"
           y="177.01344"
           style="fill:#108c00;fill-rule:evenodd;stroke-width:1pt"
           id="rect634" />
        <path
           d="m 130.3,124.25 c 0,-0.83 18.259,-51.4559 18.259,-51.4559 l 16.599,50.6259 c 0,0 55.606,1.66 55.606,0.83 0,-0.83 -43.987,33.198 -43.987,33.198 0,0 20.748,58.096 19.919,56.436 -0.83,-1.66 -48.137,-34.858 -48.137,-34.858 0,0 -48.136,33.198 -47.306,33.198 0.83,0 18.258,-54.776 18.258,-54.776 L 76.3544,125.08 130.3,124.25 z"
           transform="matrix(0.753475,0,0,0.762576,351.9197,-179.5669)"
           style="fill:#ffe700;fill-rule:evenodd;stroke-width:1pt"
           id="path635"
           inkscape:connector-curvature="0" />
        <path
           d="m 130.3,124.25 c 0,-0.83 18.259,-51.4559 18.259,-51.4559 l 16.599,50.6259 c 0,0 55.606,1.66 55.606,0.83 0,-0.83 -43.987,33.198 -43.987,33.198 0,0 20.748,58.096 19.919,56.436 -0.83,-1.66 -48.137,-34.858 -48.137,-34.858 0,0 -48.136,33.198 -47.306,33.198 0.83,0 18.258,-54.776 18.258,-54.776 L 76.3544,125.08 130.3,124.25 z"
           transform="matrix(0.434443,0,0,0.439691,399.3148,-133.0273)"
           style="fill:#108c00;fill-rule:evenodd;stroke-width:1pt"
           id="path636"
           inkscape:connector-curvature="0" />
      </g>
    </g>
    <g
       style="font-size:12px"
       transform="matrix(0.35308745,0,0,0.35308745,9.1320157,372.65123)"
       id="g637">
      <path
         d="m 130.3,124.25 c 0,-0.83 18.259,-51.4559 18.259,-51.4559 l 16.599,50.6259 c 0,0 55.606,1.66 55.606,0.83 0,-0.83 -43.987,33.198 -43.987,33.198 0,0 20.748,58.096 19.919,56.436 -0.83,-1.66 -48.137,-34.858 -48.137,-34.858 0,0 -48.136,33.198 -47.306,33.198 0.83,0 18.258,-54.776 18.258,-54.776 L 76.3544,125.08 130.3,124.25 z"
         transform="matrix(0.869967,0,0,0.880476,362.5389,-228.3465)"
         style="fill-rule:evenodd;stroke-width:1pt"
         id="path638"
         inkscape:connector-curvature="0" />
      <g
         transform="translate(27.9599,-31.86637)"
         id="g639">
        <rect
           width="1.6704102"
           height="0"
           x="233.85831"
           y="177.01344"
           style="fill:#108c00;fill-rule:evenodd;stroke-width:1pt"
           id="rect640" />
        <path
           d="m 130.3,124.25 c 0,-0.83 18.259,-51.4559 18.259,-51.4559 l 16.599,50.6259 c 0,0 55.606,1.66 55.606,0.83 0,-0.83 -43.987,33.198 -43.987,33.198 0,0 20.748,58.096 19.919,56.436 -0.83,-1.66 -48.137,-34.858 -48.137,-34.858 0,0 -48.136,33.198 -47.306,33.198 0.83,0 18.258,-54.776 18.258,-54.776 L 76.3544,125.08 130.3,124.25 z"
           transform="matrix(0.753475,0,0,0.762576,351.9197,-179.5669)"
           style="fill:#ffe700;fill-rule:evenodd;stroke-width:1pt"
           id="path641"
           inkscape:connector-curvature="0" />
        <path
           d="m 130.3,124.25 c 0,-0.83 18.259,-51.4559 18.259,-51.4559 l 16.599,50.6259 c 0,0 55.606,1.66 55.606,0.83 0,-0.83 -43.987,33.198 -43.987,33.198 0,0 20.748,58.096 19.919,56.436 -0.83,-1.66 -48.137,-34.858 -48.137,-34.858 0,0 -48.136,33.198 -47.306,33.198 0.83,0 18.258,-54.776 18.258,-54.776 L 76.3544,125.08 130.3,124.25 z"
           transform="matrix(0.434443,0,0,0.439691,399.3148,-133.0273)"
           style="fill:#108c00;fill-rule:evenodd;stroke-width:1pt"
           id="path642"
           inkscape:connector-curvature="0" />
      </g>
    </g>
    <g
       style="font-size:12px"
       transform="matrix(0.35308745,0,0,0.35308745,-18.024694,250.735)"
       id="g643">
      <path
         d="m 130.3,124.25 c 0,-0.83 18.259,-51.4559 18.259,-51.4559 l 16.599,50.6259 c 0,0 55.606,1.66 55.606,0.83 0,-0.83 -43.987,33.198 -43.987,33.198 0,0 20.748,58.096 19.919,56.436 -0.83,-1.66 -48.137,-34.858 -48.137,-34.858 0,0 -48.136,33.198 -47.306,33.198 0.83,0 18.258,-54.776 18.258,-54.776 L 76.3544,125.08 130.3,124.25 z"
         transform="matrix(0.869967,0,0,0.880476,362.5389,-228.3465)"
         style="fill-rule:evenodd;stroke-width:1pt"
         id="path644"
         inkscape:connector-curvature="0" />
      <g
         transform="translate(27.9599,-31.86637)"
         id="g645">
        <rect
           width="1.6704102"
           height="0"
           x="233.85831"
           y="177.01344"
           style="fill:#108c00;fill-rule:evenodd;stroke-width:1pt"
           id="rect646" />
        <path
           d="m 130.3,124.25 c 0,-0.83 18.259,-51.4559 18.259,-51.4559 l 16.599,50.6259 c 0,0 55.606,1.66 55.606,0.83 0,-0.83 -43.987,33.198 -43.987,33.198 0,0 20.748,58.096 19.919,56.436 -0.83,-1.66 -48.137,-34.858 -48.137,-34.858 0,0 -48.136,33.198 -47.306,33.198 0.83,0 18.258,-54.776 18.258,-54.776 L 76.3544,125.08 130.3,124.25 z"
           transform="matrix(0.753475,0,0,0.762576,351.9197,-179.5669)"
           style="fill:#ffe700;fill-rule:evenodd;stroke-width:1pt"
           id="path647"
           inkscape:connector-curvature="0" />
        <path
           d="m 130.3,124.25 c 0,-0.83 18.259,-51.4559 18.259,-51.4559 l 16.599,50.6259 c 0,0 55.606,1.66 55.606,0.83 0,-0.83 -43.987,33.198 -43.987,33.198 0,0 20.748,58.096 19.919,56.436 -0.83,-1.66 -48.137,-34.858 -48.137,-34.858 0,0 -48.136,33.198 -47.306,33.198 0.83,0 18.258,-54.776 18.258,-54.776 L 76.3544,125.08 130.3,124.25 z"
           transform="matrix(0.434443,0,0,0.439691,399.3148,-133.0273)"
           style="fill:#108c00;fill-rule:evenodd;stroke-width:1pt"
           id="path648"
           inkscape:connector-curvature="0" />
      </g>
    </g>
    <g
       style="font-size:12px"
       transform="matrix(-0.35308745,0,0,-0.35308745,492.6512,132.14119)"
       id="g649">
      <path
         d="m 130.3,124.25 c 0,-0.83 18.259,-51.4559 18.259,-51.4559 l 16.599,50.6259 c 0,0 55.606,1.66 55.606,0.83 0,-0.83 -43.987,33.198 -43.987,33.198 0,0 20.748,58.096 19.919,56.436 -0.83,-1.66 -48.137,-34.858 -48.137,-34.858 0,0 -48.136,33.198 -47.306,33.198 0.83,0 18.258,-54.776 18.258,-54.776 L 76.3544,125.08 130.3,124.25 z"
         transform="matrix(0.869967,0,0,0.880476,362.5389,-228.3465)"
         style="fill-rule:evenodd;stroke-width:1pt"
         id="path650"
         inkscape:connector-curvature="0" />
      <g
         transform="translate(27.9599,-31.86637)"
         id="g651">
        <rect
           width="1.6704102"
           height="0"
           x="233.85831"
           y="177.01344"
           style="fill:#108c00;fill-rule:evenodd;stroke-width:1pt"
           id="rect652" />
        <path
           d="m 130.3,124.25 c 0,-0.83 18.259,-51.4559 18.259,-51.4559 l 16.599,50.6259 c 0,0 55.606,1.66 55.606,0.83 0,-0.83 -43.987,33.198 -43.987,33.198 0,0 20.748,58.096 19.919,56.436 -0.83,-1.66 -48.137,-34.858 -48.137,-34.858 0,0 -48.136,33.198 -47.306,33.198 0.83,0 18.258,-54.776 18.258,-54.776 L 76.3544,125.08 130.3,124.25 z"
           transform="matrix(0.753475,0,0,0.762576,351.9197,-179.5669)"
           style="fill:#ffe700;fill-rule:evenodd;stroke-width:1pt"
           id="path653"
           inkscape:connector-curvature="0" />
        <path
           d="m 130.3,124.25 c 0,-0.83 18.259,-51.4559 18.259,-51.4559 l 16.599,50.6259 c 0,0 55.606,1.66 55.606,0.83 0,-0.83 -43.987,33.198 -43.987,33.198 0,0 20.748,58.096 19.919,56.436 -0.83,-1.66 -48.137,-34.858 -48.137,-34.858 0,0 -48.136,33.198 -47.306,33.198 0.83,0 18.258,-54.776 18.258,-54.776 L 76.3544,125.08 130.3,124.25 z"
           transform="matrix(0.434443,0,0,0.439691,399.3148,-133.0273)"
           style="fill:#108c00;fill-rule:evenodd;stroke-width:1pt"
           id="path654"
           inkscape:connector-curvature="0" />
      </g>
    </g>
    <g
       style="font-size:12px"
       transform="matrix(-0.35308745,0,0,-0.35308745,535.35005,248.28198)"
       id="g595">
      <path
         d="m 130.3,124.25 c 0,-0.83 18.259,-51.4559 18.259,-51.4559 l 16.599,50.6259 c 0,0 55.606,1.66 55.606,0.83 0,-0.83 -43.987,33.198 -43.987,33.198 0,0 20.748,58.096 19.919,56.436 -0.83,-1.66 -48.137,-34.858 -48.137,-34.858 0,0 -48.136,33.198 -47.306,33.198 0.83,0 18.258,-54.776 18.258,-54.776 L 76.3544,125.08 130.3,124.25 z"
         transform="matrix(0.869967,0,0,0.880476,362.5389,-228.3465)"
         style="fill-rule:evenodd;stroke-width:1pt"
         id="path596"
         inkscape:connector-curvature="0" />
      <g
         transform="translate(27.9599,-31.86637)"
         id="g598">
        <rect
           width="1.6704102"
           height="0"
           x="233.85831"
           y="177.01344"
           style="fill:#108c00;fill-rule:evenodd;stroke-width:1pt"
           id="rect599" />
        <path
           d="m 130.3,124.25 c 0,-0.83 18.259,-51.4559 18.259,-51.4559 l 16.599,50.6259 c 0,0 55.606,1.66 55.606,0.83 0,-0.83 -43.987,33.198 -43.987,33.198 0,0 20.748,58.096 19.919,56.436 -0.83,-1.66 -48.137,-34.858 -48.137,-34.858 0,0 -48.136,33.198 -47.306,33.198 0.83,0 18.258,-54.776 18.258,-54.776 L 76.3544,125.08 130.3,124.25 z"
           transform="matrix(0.753475,0,0,0.762576,351.9197,-179.5669)"
           style="fill:#ffe700;fill-rule:evenodd;stroke-width:1pt"
           id="path600"
           inkscape:connector-curvature="0" />
        <path
           d="m 130.3,124.25 c 0,-0.83 18.259,-51.4559 18.259,-51.4559 l 16.599,50.6259 c 0,0 55.606,1.66 55.606,0.83 0,-0.83 -43.987,33.198 -43.987,33.198 0,0 20.748,58.096 19.919,56.436 -0.83,-1.66 -48.137,-34.858 -48.137,-34.858 0,0 -48.136,33.198 -47.306,33.198 0.83,0 18.258,-54.776 18.258,-54.776 L 76.3544,125.08 130.3,124.25 z"
           transform="matrix(0.434443,0,0,0.439691,399.3148,-133.0273)"
           style="fill:#108c00;fill-rule:evenodd;stroke-width:1pt"
           id="path603"
           inkscape:connector-curvature="0" />
      </g>
    </g>
    <g
       style="font-size:12px"
       transform="matrix(-0.35308745,0,0,-0.35308745,429.45695,333.25265)"
       id="g604">
      <path
         d="m 130.3,124.25 c 0,-0.83 18.259,-51.4559 18.259,-51.4559 l 16.599,50.6259 c 0,0 55.606,1.66 55.606,0.83 0,-0.83 -43.987,33.198 -43.987,33.198 0,0 20.748,58.096 19.919,56.436 -0.83,-1.66 -48.137,-34.858 -48.137,-34.858 0,0 -48.136,33.198 -47.306,33.198 0.83,0 18.258,-54.776 18.258,-54.776 L 76.3544,125.08 130.3,124.25 z"
         transform="matrix(0.869967,0,0,0.880476,362.5389,-228.3465)"
         style="fill-rule:evenodd;stroke-width:1pt"
         id="path605"
         inkscape:connector-curvature="0" />
      <g
         transform="translate(27.9599,-31.86637)"
         id="g606">
        <rect
           width="1.6704102"
           height="0"
           x="233.85831"
           y="177.01344"
           style="fill:#108c00;fill-rule:evenodd;stroke-width:1pt"
           id="rect607" />
        <path
           d="m 130.3,124.25 c 0,-0.83 18.259,-51.4559 18.259,-51.4559 l 16.599,50.6259 c 0,0 55.606,1.66 55.606,0.83 0,-0.83 -43.987,33.198 -43.987,33.198 0,0 20.748,58.096 19.919,56.436 -0.83,-1.66 -48.137,-34.858 -48.137,-34.858 0,0 -48.136,33.198 -47.306,33.198 0.83,0 18.258,-54.776 18.258,-54.776 L 76.3544,125.08 130.3,124.25 z"
           transform="matrix(0.753475,0,0,0.762576,351.9197,-179.5669)"
           style="fill:#ffe700;fill-rule:evenodd;stroke-width:1pt"
           id="path608"
           inkscape:connector-curvature="0" />
        <path
           d="m 130.3,124.25 c 0,-0.83 18.259,-51.4559 18.259,-51.4559 l 16.599,50.6259 c 0,0 55.606,1.66 55.606,0.83 0,-0.83 -43.987,33.198 -43.987,33.198 0,0 20.748,58.096 19.919,56.436 -0.83,-1.66 -48.137,-34.858 -48.137,-34.858 0,0 -48.136,33.198 -47.306,33.198 0.83,0 18.258,-54.776 18.258,-54.776 L 76.3544,125.08 130.3,124.25 z"
           transform="matrix(0.434443,0,0,0.439691,399.3148,-133.0273)"
           style="fill:#108c00;fill-rule:evenodd;stroke-width:1pt"
           id="path609"
           inkscape:connector-curvature="0" />
      </g>
    </g>
    <g
       style="font-size:12px"
       transform="matrix(-0.35308745,0,0,-0.35308745,329.96868,248.28198)"
       id="g610">
      <path
         d="m 130.3,124.25 c 0,-0.83 18.259,-51.4559 18.259,-51.4559 l 16.599,50.6259 c 0,0 55.606,1.66 55.606,0.83 0,-0.83 -43.987,33.198 -43.987,33.198 0,0 20.748,58.096 19.919,56.436 -0.83,-1.66 -48.137,-34.858 -48.137,-34.858 0,0 -48.136,33.198 -47.306,33.198 0.83,0 18.258,-54.776 18.258,-54.776 L 76.3544,125.08 130.3,124.25 z"
         transform="matrix(0.869967,0,0,0.880476,362.5389,-228.3465)"
         style="fill-rule:evenodd;stroke-width:1pt"
         id="path611"
         inkscape:connector-curvature="0" />
      <g
         transform="translate(27.9599,-31.86637)"
         id="g612">
        <rect
           width="1.6704102"
           height="0"
           x="233.85831"
           y="177.01344"
           style="fill:#108c00;fill-rule:evenodd;stroke-width:1pt"
           id="rect613" />
        <path
           d="m 130.3,124.25 c 0,-0.83 18.259,-51.4559 18.259,-51.4559 l 16.599,50.6259 c 0,0 55.606,1.66 55.606,0.83 0,-0.83 -43.987,33.198 -43.987,33.198 0,0 20.748,58.096 19.919,56.436 -0.83,-1.66 -48.137,-34.858 -48.137,-34.858 0,0 -48.136,33.198 -47.306,33.198 0.83,0 18.258,-54.776 18.258,-54.776 L 76.3544,125.08 130.3,124.25 z"
           transform="matrix(0.753475,0,0,0.762576,351.9197,-179.5669)"
           style="fill:#ffe700;fill-rule:evenodd;stroke-width:1pt"
           id="path614"
           inkscape:connector-curvature="0" />
        <path
           d="m 130.3,124.25 c 0,-0.83 18.259,-51.4559 18.259,-51.4559 l 16.599,50.6259 c 0,0 55.606,1.66 55.606,0.83 0,-0.83 -43.987,33.198 -43.987,33.198 0,0 20.748,58.096 19.919,56.436 -0.83,-1.66 -48.137,-34.858 -48.137,-34.858 0,0 -48.136,33.198 -47.306,33.198 0.83,0 18.258,-54.776 18.258,-54.776 L 76.3544,125.08 130.3,124.25 z"
           transform="matrix(0.434443,0,0,0.439691,399.3148,-133.0273)"
           style="fill:#108c00;fill-rule:evenodd;stroke-width:1pt"
           id="path615"
           inkscape:connector-curvature="0" />
      </g>
    </g>
    <g
       style="font-size:12px"
       transform="matrix(-0.35308745,0,0,-0.35308745,366.68965,133.84916)"
       id="g616">
      <path
         d="m 130.3,124.25 c 0,-0.83 18.259,-51.4559 18.259,-51.4559 l 16.599,50.6259 c 0,0 55.606,1.66 55.606,0.83 0,-0.83 -43.987,33.198 -43.987,33.198 0,0 20.748,58.096 19.919,56.436 -0.83,-1.66 -48.137,-34.858 -48.137,-34.858 0,0 -48.136,33.198 -47.306,33.198 0.83,0 18.258,-54.776 18.258,-54.776 L 76.3544,125.08 130.3,124.25 z"
         transform="matrix(0.869967,0,0,0.880476,362.5389,-228.3465)"
         style="fill-rule:evenodd;stroke-width:1pt"
         id="path617"
         inkscape:connector-curvature="0" />
      <g
         transform="translate(27.9599,-31.86637)"
         id="g618">
        <rect
           width="1.6704102"
           height="0"
           x="233.85831"
           y="177.01344"
           style="fill:#108c00;fill-rule:evenodd;stroke-width:1pt"
           id="rect619" />
        <path
           d="m 130.3,124.25 c 0,-0.83 18.259,-51.4559 18.259,-51.4559 l 16.599,50.6259 c 0,0 55.606,1.66 55.606,0.83 0,-0.83 -43.987,33.198 -43.987,33.198 0,0 20.748,58.096 19.919,56.436 -0.83,-1.66 -48.137,-34.858 -48.137,-34.858 0,0 -48.136,33.198 -47.306,33.198 0.83,0 18.258,-54.776 18.258,-54.776 L 76.3544,125.08 130.3,124.25 z"
           transform="matrix(0.753475,0,0,0.762576,351.9197,-179.5669)"
           style="fill:#ffe700;fill-rule:evenodd;stroke-width:1pt"
           id="path620"
           inkscape:connector-curvature="0" />
        <path
           d="m 130.3,124.25 c 0,-0.83 18.259,-51.4559 18.259,-51.4559 l 16.599,50.6259 c 0,0 55.606,1.66 55.606,0.83 0,-0.83 -43.987,33.198 -43.987,33.198 0,0 20.748,58.096 19.919,56.436 -0.83,-1.66 -48.137,-34.858 -48.137,-34.858 0,0 -48.136,33.198 -47.306,33.198 0.83,0 18.258,-54.776 18.258,-54.776 L 76.3544,125.08 130.3,124.25 z"
           transform="matrix(0.434443,0,0,0.439691,399.3148,-133.0273)"
           style="fill:#108c00;fill-rule:evenodd;stroke-width:1pt"
           id="path621"
           inkscape:connector-curvature="0" />
      </g>
    </g>
    <g
       style="font-size:12px"
       transform="matrix(1.0355078,0,0,1.0355078,-250.60343,359.43091)"
       id="g1112">
      <g
         transform="matrix(0.163503,-0.01627543,0.01182242,0.184363,429.835,-215.6278)"
         id="g1014">
        <ellipse
           cx="680.20569"
           cy="586.12573"
           rx="30.804932"
           ry="189.82486"
           transform="matrix(1.405124,-0.00581216,0.00816695,0.999983,-534.2869,263.7234)"
           style="fill:#009200;fill-rule:evenodd;stroke:#000000;stroke-width:2.5"
           id="path1011"
           d="m 711.01062,586.12573 c 0,104.83738 -13.79184,189.82486 -30.80493,189.82486 -17.0131,0 -30.80493,-84.98748 -30.80493,-189.82486 0,-104.83737 13.79183,-189.82486 30.80493,-189.82486 17.01309,0 30.80493,84.98749 30.80493,189.82486 z"
           sodipodi:cx="680.20569"
           sodipodi:cy="586.12573"
           sodipodi:rx="30.804932"
           sodipodi:ry="189.82486" />
        <ellipse
           cx="680.20569"
           cy="586.12573"
           rx="30.804932"
           ry="189.82486"
           transform="matrix(1.486152,-0.00581216,0.0086379,0.999983,-547.2176,267.0538)"
           style="fill:#009200;fill-rule:evenodd;stroke:#000000;stroke-width:2.5"
           id="path1012"
           d="m 711.01062,586.12573 c 0,104.83738 -13.79184,189.82486 -30.80493,189.82486 -17.0131,0 -30.80493,-84.98748 -30.80493,-189.82486 0,-104.83737 13.79183,-189.82486 30.80493,-189.82486 17.01309,0 30.80493,84.98749 30.80493,189.82486 z"
           sodipodi:cx="680.20569"
           sodipodi:cy="586.12573"
           sodipodi:rx="30.804932"
           sodipodi:ry="189.82486" />
        <ellipse
           cx="680.20569"
           cy="586.12573"
           rx="30.804932"
           ry="189.82486"
           transform="matrix(1.18905,-0.00642398,0.00691106,1.105246,-364.9289,214.0982)"
           style="fill:#009200;fill-rule:evenodd;stroke:#000000;stroke-width:2.5"
           id="path1013"
           d="m 711.01062,586.12573 c 0,104.83738 -13.79184,189.82486 -30.80493,189.82486 -17.0131,0 -30.80493,-84.98748 -30.80493,-189.82486 0,-104.83737 13.79183,-189.82486 30.80493,-189.82486 17.01309,0 30.80493,84.98749 30.80493,189.82486 z"
           sodipodi:cx="680.20569"
           sodipodi:cy="586.12573"
           sodipodi:rx="30.804932"
           sodipodi:ry="189.82486" />
      </g>
      <g
         transform="translate(72.86526,-9.797035)"
         id="g1105">
        <path
           d="m 238.342,971.79 c 29.972,-1.665 16.651,-16.652 31.637,-24.977 14.986,-8.326 36.633,-3.33 43.293,6.66 6.661,9.991 1.666,19.982 9.991,19.982 8.326,0 234.556,-12.675 242.881,-4.349 8.326,8.325 9.991,24.977 1.665,31.634 -8.325,6.66 -294.5,14.34 -304.49,7.68 -9.991,-6.66 -24.977,-34.965 -24.977,-36.63 z"
           transform="matrix(0.202443,0.00348629,-0.00393666,0.21385,340.8638,-247.3115)"
           style="fill:#a95600;fill-rule:evenodd;stroke:#000000;stroke-width:2.50539994"
           id="path1010"
           inkscape:connector-curvature="0" />
        <path
           d="m 529.59,405.459 c 0,39.983 45.562,27.879 46.81,61.249 -0.724,35.408 -76.706,3.467 -78.635,-61.249 1.929,-64.716 75.107,-97.929 76.705,-61.011 1.246,30.686 -44.88,21.028 -44.88,61.011 z"
           transform="matrix(0.147992,0.00195143,-0.00275484,0.114586,340.4216,-81.69088)"
           style="fill:#ffff00;fill-rule:evenodd;stroke:#000000;stroke-width:3.85272002"
           id="path1506"
           inkscape:connector-curvature="0" />
        <path
           d="m 529.59,405.459 c 0,39.983 45.562,27.879 46.81,61.249 -0.724,35.408 -76.706,3.467 -78.635,-61.249 1.929,-64.716 75.107,-97.929 76.705,-61.011 1.246,30.686 -44.88,21.028 -44.88,61.011 z"
           transform="matrix(0.147992,0.00195143,-0.00275484,0.114586,344.4198,-81.63816)"
           style="fill:#ffff00;fill-rule:evenodd;stroke:#000000;stroke-width:3.85272002"
           id="path1507"
           inkscape:connector-curvature="0" />
        <path
           d="m 529.59,405.459 c 0,39.983 45.562,27.879 46.81,61.249 -0.724,35.408 -76.706,3.467 -78.635,-61.249 1.929,-64.716 75.107,-97.929 76.705,-61.011 1.246,30.686 -44.88,21.028 -44.88,61.011 z"
           transform="matrix(0.147992,0.00195143,-0.00275484,0.114586,348.7088,-81.79968)"
           style="fill:#ffff00;fill-rule:evenodd;stroke:#000000;stroke-width:3.85272002"
           id="path1508"
           inkscape:connector-curvature="0" />
        <path
           d="m 529.59,405.459 c 0,39.983 45.562,27.879 46.81,61.249 -0.724,35.408 -76.706,3.467 -78.635,-61.249 1.929,-64.716 75.107,-97.929 76.705,-61.011 1.246,30.686 -44.88,21.028 -44.88,61.011 z"
           transform="matrix(0.147992,0.00195143,-0.00275484,0.114586,352.7069,-81.74693)"
           style="fill:#ffff00;fill-rule:evenodd;stroke:#000000;stroke-width:3.85272002"
           id="path1509"
           inkscape:connector-curvature="0" />
        <ellipse
           cx="478.38174"
           cy="-41.085754"
           rx="3.533875"
           ry="3.402977"
           transform="matrix(1.094549,0.01648336,-0.02428555,1.153662,-75.5714,4.677567)"
           style="fill:#a95600;fill-rule:evenodd;stroke:#000000;stroke-width:0.39908299"
           id="path1091"
           d="m 481.91562,-41.085754 c 0,1.879412 -1.58217,3.402977 -3.53388,3.402977 -1.9517,0 -3.53387,-1.523565 -3.53387,-3.402977 0,-1.879413 1.58217,-3.402977 3.53387,-3.402977 1.95171,0 3.53388,1.523564 3.53388,3.402977 z"
           sodipodi:cx="478.38174"
           sodipodi:cy="-41.085754"
           sodipodi:rx="3.533875"
           sodipodi:ry="3.402977" />
      </g>
      <g
         transform="matrix(0.994885,-0.101022,0.101022,0.994885,66.68384,66.33841)"
         id="g1048">
        <ellipse
           cx="427.1059"
           cy="904.99817"
           rx="20.814133"
           ry="24.144409"
           transform="matrix(0.166193,-0.0080728,0.00168754,0.315205,369.7997,-361.6541)"
           style="fill:#009200;fill-rule:evenodd;stroke:#000000;stroke-width:2.5"
           id="path1049"
           d="m 447.92003,904.99817 c 0,13.33459 -9.31881,24.14441 -20.81413,24.14441 -11.49533,0 -20.81414,-10.80982 -20.81414,-24.14441 0,-13.33459 9.31881,-24.14441 20.81414,-24.14441 11.49532,0 20.81413,10.80982 20.81413,24.14441 z"
           sodipodi:cx="427.1059"
           sodipodi:cy="904.99817"
           sodipodi:rx="20.814133"
           sodipodi:ry="24.144409" />
        <ellipse
           cx="427.1059"
           cy="904.99817"
           rx="20.814133"
           ry="24.144409"
           transform="matrix(0.166193,-0.0080728,0.00168754,0.315205,364.0408,-362.7012)"
           style="fill:#009200;fill-rule:evenodd;stroke:#000000;stroke-width:2.5"
           id="path1050"
           d="m 447.92003,904.99817 c 0,13.33459 -9.31881,24.14441 -20.81413,24.14441 -11.49533,0 -20.81414,-10.80982 -20.81414,-24.14441 0,-13.33459 9.31881,-24.14441 20.81414,-24.14441 11.49532,0 20.81413,10.80982 20.81413,24.14441 z"
           sodipodi:cx="427.1059"
           sodipodi:cy="904.99817"
           sodipodi:rx="20.814133"
           sodipodi:ry="24.144409" />
        <ellipse
           cx="427.1059"
           cy="904.99817"
           rx="20.814133"
           ry="24.144409"
           transform="matrix(0.166193,-0.00807278,0.00168754,0.315204,360.6378,-370.5537)"
           style="fill:#009200;fill-rule:evenodd;stroke:#000000;stroke-width:2.5"
           id="path1052"
           d="m 447.92003,904.99817 c 0,13.33459 -9.31881,24.14441 -20.81413,24.14441 -11.49533,0 -20.81414,-10.80982 -20.81414,-24.14441 0,-13.33459 9.31881,-24.14441 20.81414,-24.14441 11.49532,0 20.81413,10.80982 20.81413,24.14441 z"
           sodipodi:cx="427.1059"
           sodipodi:cy="904.99817"
           sodipodi:rx="20.814133"
           sodipodi:ry="24.144409" />
        <ellipse
           cx="427.1059"
           cy="904.99817"
           rx="20.814133"
           ry="24.144409"
           transform="matrix(0.159905,-0.00890557,0.00162369,0.347721,369.2988,-399.3517)"
           style="fill:#009200;fill-rule:evenodd;stroke:#000000;stroke-width:2.5"
           id="path1053"
           d="m 447.92003,904.99817 c 0,13.33459 -9.31881,24.14441 -20.81413,24.14441 -11.49533,0 -20.81414,-10.80982 -20.81414,-24.14441 0,-13.33459 9.31881,-24.14441 20.81414,-24.14441 11.49532,0 20.81413,10.80982 20.81413,24.14441 z"
           sodipodi:cx="427.1059"
           sodipodi:cy="904.99817"
           sodipodi:rx="20.814133"
           sodipodi:ry="24.144409" />
        <ellipse
           cx="427.1059"
           cy="904.99817"
           rx="20.814133"
           ry="24.144409"
           transform="matrix(0.159905,-0.00835037,0.00162369,0.326043,377.4103,-379.0724)"
           style="fill:#009200;fill-rule:evenodd;stroke:#000000;stroke-width:2.5"
           id="path1054"
           d="m 447.92003,904.99817 c 0,13.33459 -9.31881,24.14441 -20.81413,24.14441 -11.49533,0 -20.81414,-10.80982 -20.81414,-24.14441 0,-13.33459 9.31881,-24.14441 20.81414,-24.14441 11.49532,0 20.81413,10.80982 20.81413,24.14441 z"
           sodipodi:cx="427.1059"
           sodipodi:cy="904.99817"
           sodipodi:rx="20.814133"
           sodipodi:ry="24.144409" />
        <ellipse
           cx="427.1059"
           cy="904.99817"
           rx="20.814133"
           ry="24.144409"
           transform="matrix(0.159905,-0.00835037,0.00162369,0.326043,373.222,-382.2137)"
           style="fill:#009200;fill-rule:evenodd;stroke:#000000;stroke-width:2.5"
           id="path1055"
           d="m 447.92003,904.99817 c 0,13.33459 -9.31881,24.14441 -20.81413,24.14441 -11.49533,0 -20.81414,-10.80982 -20.81414,-24.14441 0,-13.33459 9.31881,-24.14441 20.81414,-24.14441 11.49532,0 20.81413,10.80982 20.81413,24.14441 z"
           sodipodi:cx="427.1059"
           sodipodi:cy="904.99817"
           sodipodi:rx="20.814133"
           sodipodi:ry="24.144409" />
        <ellipse
           cx="427.1059"
           cy="904.99817"
           rx="20.814133"
           ry="24.144409"
           transform="matrix(0.159905,-0.00835037,0.00162369,0.326043,367.9866,-386.6638)"
           style="fill:#009200;fill-rule:evenodd;stroke:#000000;stroke-width:2.5"
           id="path1056"
           d="m 447.92003,904.99817 c 0,13.33459 -9.31881,24.14441 -20.81413,24.14441 -11.49533,0 -20.81414,-10.80982 -20.81414,-24.14441 0,-13.33459 9.31881,-24.14441 20.81414,-24.14441 11.49532,0 20.81413,10.80982 20.81413,24.14441 z"
           sodipodi:cx="427.1059"
           sodipodi:cy="904.99817"
           sodipodi:rx="20.814133"
           sodipodi:ry="24.144409" />
        <ellipse
           cx="427.1059"
           cy="904.99817"
           rx="20.814133"
           ry="24.144409"
           transform="matrix(0.159905,-0.00835037,0.00162369,0.326043,363.0129,-389.5432)"
           style="fill:#009200;fill-rule:evenodd;stroke:#000000;stroke-width:2.5"
           id="path1057"
           d="m 447.92003,904.99817 c 0,13.33459 -9.31881,24.14441 -20.81413,24.14441 -11.49533,0 -20.81414,-10.80982 -20.81414,-24.14441 0,-13.33459 9.31881,-24.14441 20.81414,-24.14441 11.49532,0 20.81413,10.80982 20.81413,24.14441 z"
           sodipodi:cx="427.1059"
           sodipodi:cy="904.99817"
           sodipodi:rx="20.814133"
           sodipodi:ry="24.144409" />
      </g>
      <path
         d="m 173.174,346.347 c 0,0 -54.198,64.893 -21.252,208.815 33.958,144.59 178.965,189.783 178.965,189.783 0,0 26.496,-47.423 1.726,-164.041 C 292.65,411.061 216.467,346.347 216.467,346.347 l -43.293,0 z"
         transform="matrix(0.176889,0.03219125,-0.03142231,0.182359,461.7877,-208.6117)"
         style="fill:#804bff;fill-rule:evenodd;stroke:#000000;stroke-width:2.5"
         id="path851"
         inkscape:connector-curvature="0" />
      <g
         transform="matrix(0.996961,0.07791016,-0.07791016,0.996961,60.53158,-11.75977)"
         id="g1026">
        <ellipse
           cx="427.1059"
           cy="904.99817"
           rx="20.814133"
           ry="24.144409"
           transform="matrix(0.166193,-0.0080728,0.00168754,0.315205,369.7997,-361.6541)"
           style="fill:#009200;fill-rule:evenodd;stroke:#000000;stroke-width:2.5"
           id="path1025"
           d="m 447.92003,904.99817 c 0,13.33459 -9.31881,24.14441 -20.81413,24.14441 -11.49533,0 -20.81414,-10.80982 -20.81414,-24.14441 0,-13.33459 9.31881,-24.14441 20.81414,-24.14441 11.49532,0 20.81413,10.80982 20.81413,24.14441 z"
           sodipodi:cx="427.1059"
           sodipodi:cy="904.99817"
           sodipodi:rx="20.814133"
           sodipodi:ry="24.144409" />
        <ellipse
           cx="427.1059"
           cy="904.99817"
           rx="20.814133"
           ry="24.144409"
           transform="matrix(0.166193,-0.0080728,0.00168754,0.315205,364.0408,-362.7012)"
           style="fill:#009200;fill-rule:evenodd;stroke:#000000;stroke-width:2.5"
           id="path1017"
           d="m 447.92003,904.99817 c 0,13.33459 -9.31881,24.14441 -20.81413,24.14441 -11.49533,0 -20.81414,-10.80982 -20.81414,-24.14441 0,-13.33459 9.31881,-24.14441 20.81414,-24.14441 11.49532,0 20.81413,10.80982 20.81413,24.14441 z"
           sodipodi:cx="427.1059"
           sodipodi:cy="904.99817"
           sodipodi:rx="20.814133"
           sodipodi:ry="24.144409" />
        <ellipse
           cx="427.1059"
           cy="904.99817"
           rx="20.814133"
           ry="24.144409"
           transform="matrix(0.166193,-0.00807278,0.00168754,0.315204,360.6378,-370.5537)"
           style="fill:#009200;fill-rule:evenodd;stroke:#000000;stroke-width:2.5"
           id="path1016"
           d="m 447.92003,904.99817 c 0,13.33459 -9.31881,24.14441 -20.81413,24.14441 -11.49533,0 -20.81414,-10.80982 -20.81414,-24.14441 0,-13.33459 9.31881,-24.14441 20.81414,-24.14441 11.49532,0 20.81413,10.80982 20.81413,24.14441 z"
           sodipodi:cx="427.1059"
           sodipodi:cy="904.99817"
           sodipodi:rx="20.814133"
           sodipodi:ry="24.144409" />
        <ellipse
           cx="427.1059"
           cy="904.99817"
           rx="20.814133"
           ry="24.144409"
           transform="matrix(0.159905,-0.00890557,0.00162369,0.347721,369.2988,-399.3517)"
           style="fill:#009200;fill-rule:evenodd;stroke:#000000;stroke-width:2.5"
           id="path1018"
           d="m 447.92003,904.99817 c 0,13.33459 -9.31881,24.14441 -20.81413,24.14441 -11.49533,0 -20.81414,-10.80982 -20.81414,-24.14441 0,-13.33459 9.31881,-24.14441 20.81414,-24.14441 11.49532,0 20.81413,10.80982 20.81413,24.14441 z"
           sodipodi:cx="427.1059"
           sodipodi:cy="904.99817"
           sodipodi:rx="20.814133"
           sodipodi:ry="24.144409" />
        <ellipse
           cx="427.1059"
           cy="904.99817"
           rx="20.814133"
           ry="24.144409"
           transform="matrix(0.159905,-0.00835037,0.00162369,0.326043,377.4103,-379.0724)"
           style="fill:#009200;fill-rule:evenodd;stroke:#000000;stroke-width:2.5"
           id="path1020"
           d="m 447.92003,904.99817 c 0,13.33459 -9.31881,24.14441 -20.81413,24.14441 -11.49533,0 -20.81414,-10.80982 -20.81414,-24.14441 0,-13.33459 9.31881,-24.14441 20.81414,-24.14441 11.49532,0 20.81413,10.80982 20.81413,24.14441 z"
           sodipodi:cx="427.1059"
           sodipodi:cy="904.99817"
           sodipodi:rx="20.814133"
           sodipodi:ry="24.144409" />
        <ellipse
           cx="427.1059"
           cy="904.99817"
           rx="20.814133"
           ry="24.144409"
           transform="matrix(0.159905,-0.00835037,0.00162369,0.326043,373.222,-382.2137)"
           style="fill:#009200;fill-rule:evenodd;stroke:#000000;stroke-width:2.5"
           id="path1019"
           d="m 447.92003,904.99817 c 0,13.33459 -9.31881,24.14441 -20.81413,24.14441 -11.49533,0 -20.81414,-10.80982 -20.81414,-24.14441 0,-13.33459 9.31881,-24.14441 20.81414,-24.14441 11.49532,0 20.81413,10.80982 20.81413,24.14441 z"
           sodipodi:cx="427.1059"
           sodipodi:cy="904.99817"
           sodipodi:rx="20.814133"
           sodipodi:ry="24.144409" />
        <ellipse
           cx="427.1059"
           cy="904.99817"
           rx="20.814133"
           ry="24.144409"
           transform="matrix(0.159905,-0.00835037,0.00162369,0.326043,367.9866,-386.6638)"
           style="fill:#009200;fill-rule:evenodd;stroke:#000000;stroke-width:2.5"
           id="path1005"
           d="m 447.92003,904.99817 c 0,13.33459 -9.31881,24.14441 -20.81413,24.14441 -11.49533,0 -20.81414,-10.80982 -20.81414,-24.14441 0,-13.33459 9.31881,-24.14441 20.81414,-24.14441 11.49532,0 20.81413,10.80982 20.81413,24.14441 z"
           sodipodi:cx="427.1059"
           sodipodi:cy="904.99817"
           sodipodi:rx="20.814133"
           sodipodi:ry="24.144409" />
        <ellipse
           cx="427.1059"
           cy="904.99817"
           rx="20.814133"
           ry="24.144409"
           transform="matrix(0.159905,-0.00835037,0.00162369,0.326043,363.0129,-389.5432)"
           style="fill:#009200;fill-rule:evenodd;stroke:#000000;stroke-width:2.5"
           id="path988"
           d="m 447.92003,904.99817 c 0,13.33459 -9.31881,24.14441 -20.81413,24.14441 -11.49533,0 -20.81414,-10.80982 -20.81414,-24.14441 0,-13.33459 9.31881,-24.14441 20.81414,-24.14441 11.49532,0 20.81413,10.80982 20.81413,24.14441 z"
           sodipodi:cx="427.1059"
           sodipodi:cy="904.99817"
           sodipodi:rx="20.814133"
           sodipodi:ry="24.144409" />
      </g>
      <ellipse
         cx="624.42383"
         cy="606.1073"
         rx="58.279541"
         ry="186.49458"
         transform="matrix(0.156948,-0.06062813,0.06364226,0.148405,369.6128,-145.0546)"
         style="fill:#c90000;fill-rule:evenodd;stroke:#000000;stroke-width:1pt"
         id="path985"
         d="m 682.70337,606.1073 c 0,102.99811 -26.09264,186.49458 -58.27954,186.49458 -32.1869,0 -58.27954,-83.49647 -58.27954,-186.49458 0,-102.99811 26.09264,-186.49458 58.27954,-186.49458 32.1869,0 58.27954,83.49647 58.27954,186.49458 z"
         sodipodi:cx="624.42383"
         sodipodi:cy="606.1073"
         sodipodi:rx="58.279541"
         sodipodi:ry="186.49458" />
      <g
         transform="matrix(0.999842,0.01780211,-0.01780211,0.999842,-34.81445,-4.628464)"
         id="g1072">
        <ellipse
           cx="218.13208"
           cy="356.75403"
           rx="10.823341"
           ry="12.90477"
           transform="matrix(0.395296,0,0,0.292704,445.0725,-230.5263)"
           style="fill:#009200;fill-rule:evenodd;stroke:#000000;stroke-width:1.46349001"
           id="path872"
           d="m 228.95542,356.75403 c 0,7.12711 -4.84577,12.90477 -10.82334,12.90477 -5.97757,0 -10.82334,-5.77766 -10.82334,-12.90477 0,-7.12711 4.84577,-12.90477 10.82334,-12.90477 5.97757,0 10.82334,5.77766 10.82334,12.90477 z"
           sodipodi:cx="218.13208"
           sodipodi:cy="356.75403"
           sodipodi:rx="10.823341"
           sodipodi:ry="12.90477" />
        <ellipse
           cx="218.13208"
           cy="356.75403"
           rx="10.823341"
           ry="12.90477"
           transform="matrix(0.35412,0,0,0.292704,457.1741,-235.9224)"
           style="fill:#009200;fill-rule:evenodd;stroke:#000000;stroke-width:1.54622996"
           id="path888"
           d="m 228.95542,356.75403 c 0,7.12711 -4.84577,12.90477 -10.82334,12.90477 -5.97757,0 -10.82334,-5.77766 -10.82334,-12.90477 0,-7.12711 4.84577,-12.90477 10.82334,-12.90477 5.97757,0 10.82334,5.77766 10.82334,12.90477 z"
           sodipodi:cx="218.13208"
           sodipodi:cy="356.75403"
           sodipodi:rx="10.823341"
           sodipodi:ry="12.90477" />
        <ellipse
           cx="218.13208"
           cy="356.75403"
           rx="10.823341"
           ry="12.90477"
           transform="matrix(0.35412,0,0,0.292704,452.0043,-235.9224)"
           style="fill:#009200;fill-rule:evenodd;stroke:#000000;stroke-width:1.54622996"
           id="path887"
           d="m 228.95542,356.75403 c 0,7.12711 -4.84577,12.90477 -10.82334,12.90477 -5.97757,0 -10.82334,-5.77766 -10.82334,-12.90477 0,-7.12711 4.84577,-12.90477 10.82334,-12.90477 5.97757,0 10.82334,5.77766 10.82334,12.90477 z"
           sodipodi:cx="218.13208"
           sodipodi:cy="356.75403"
           sodipodi:rx="10.823341"
           sodipodi:ry="12.90477" />
        <ellipse
           cx="218.13208"
           cy="356.75403"
           rx="10.823341"
           ry="12.90477"
           transform="matrix(0.370591,0,0,0.274783,449.4811,-233.4606)"
           style="fill:#009200;fill-rule:evenodd;stroke:#000000;stroke-width:1.55999005"
           id="path879"
           d="m 228.95542,356.75403 c 0,7.12711 -4.84577,12.90477 -10.82334,12.90477 -5.97757,0 -10.82334,-5.77766 -10.82334,-12.90477 0,-7.12711 4.84577,-12.90477 10.82334,-12.90477 5.97757,0 10.82334,5.77766 10.82334,12.90477 z"
           sodipodi:cx="218.13208"
           sodipodi:cy="356.75403"
           sodipodi:rx="10.823341"
           sodipodi:ry="12.90477" />
        <ellipse
           cx="218.13208"
           cy="356.75403"
           rx="10.823341"
           ry="12.90477"
           transform="matrix(0.370591,0,0,0.274783,448.9463,-237.9316)"
           style="fill:#009200;fill-rule:evenodd;stroke:#000000;stroke-width:1.55999005"
           id="path878"
           d="m 228.95542,356.75403 c 0,7.12711 -4.84577,12.90477 -10.82334,12.90477 -5.97757,0 -10.82334,-5.77766 -10.82334,-12.90477 0,-7.12711 4.84577,-12.90477 10.82334,-12.90477 5.97757,0 10.82334,5.77766 10.82334,12.90477 z"
           sodipodi:cx="218.13208"
           sodipodi:cy="356.75403"
           sodipodi:rx="10.823341"
           sodipodi:ry="12.90477" />
        <ellipse
           cx="218.13208"
           cy="356.75403"
           rx="10.823341"
           ry="12.90477"
           transform="matrix(0.35412,0,0,0.292704,447.0128,-238.8517)"
           style="fill:#009200;fill-rule:evenodd;stroke:#000000;stroke-width:1.54622996"
           id="path867"
           d="m 228.95542,356.75403 c 0,7.12711 -4.84577,12.90477 -10.82334,12.90477 -5.97757,0 -10.82334,-5.77766 -10.82334,-12.90477 0,-7.12711 4.84577,-12.90477 10.82334,-12.90477 5.97757,0 10.82334,5.77766 10.82334,12.90477 z"
           sodipodi:cx="218.13208"
           sodipodi:cy="356.75403"
           sodipodi:rx="10.823341"
           sodipodi:ry="12.90477" />
        <ellipse
           cx="218.13208"
           cy="356.75403"
           rx="10.823341"
           ry="12.90477"
           transform="matrix(0.35412,0,0,0.28673,448.0824,-241.577)"
           style="fill:#009200;fill-rule:evenodd;stroke:#000000;stroke-width:1.56226003"
           id="path877"
           d="m 228.95542,356.75403 c 0,7.12711 -4.84577,12.90477 -10.82334,12.90477 -5.97757,0 -10.82334,-5.77766 -10.82334,-12.90477 0,-7.12711 4.84577,-12.90477 10.82334,-12.90477 5.97757,0 10.82334,5.77766 10.82334,12.90477 z"
           sodipodi:cx="218.13208"
           sodipodi:cy="356.75403"
           sodipodi:rx="10.823341"
           sodipodi:ry="12.90477" />
        <ellipse
           cx="218.13208"
           cy="356.75403"
           rx="10.823341"
           ry="12.90477"
           transform="matrix(0.395296,0,0,0.292704,432.772,-243.4769)"
           style="fill:#009200;fill-rule:evenodd;stroke:#000000;stroke-width:1.46349001"
           id="path876"
           d="m 228.95542,356.75403 c 0,7.12711 -4.84577,12.90477 -10.82334,12.90477 -5.97757,0 -10.82334,-5.77766 -10.82334,-12.90477 0,-7.12711 4.84577,-12.90477 10.82334,-12.90477 5.97757,0 10.82334,5.77766 10.82334,12.90477 z"
           sodipodi:cx="218.13208"
           sodipodi:cy="356.75403"
           sodipodi:rx="10.823341"
           sodipodi:ry="12.90477" />
        <ellipse
           cx="218.13208"
           cy="356.75403"
           rx="10.823341"
           ry="12.90477"
           transform="matrix(0.370591,0,0,0.274783,445.9157,-243.4819)"
           style="fill:#009200;fill-rule:evenodd;stroke:#000000;stroke-width:1.55999005"
           id="path874"
           d="m 228.95542,356.75403 c 0,7.12711 -4.84577,12.90477 -10.82334,12.90477 -5.97757,0 -10.82334,-5.77766 -10.82334,-12.90477 0,-7.12711 4.84577,-12.90477 10.82334,-12.90477 5.97757,0 10.82334,5.77766 10.82334,12.90477 z"
           sodipodi:cx="218.13208"
           sodipodi:cy="356.75403"
           sodipodi:rx="10.823341"
           sodipodi:ry="12.90477" />
        <ellipse
           cx="218.13208"
           cy="356.75403"
           rx="10.823341"
           ry="12.90477"
           transform="matrix(0.35412,0,0,0.28673,444.1605,-246.9731)"
           style="fill:#009200;fill-rule:evenodd;stroke:#000000;stroke-width:1.56226003"
           id="path873"
           d="m 228.95542,356.75403 c 0,7.12711 -4.84577,12.90477 -10.82334,12.90477 -5.97757,0 -10.82334,-5.77766 -10.82334,-12.90477 0,-7.12711 4.84577,-12.90477 10.82334,-12.90477 5.97757,0 10.82334,5.77766 10.82334,12.90477 z"
           sodipodi:cx="218.13208"
           sodipodi:cy="356.75403"
           sodipodi:rx="10.823341"
           sodipodi:ry="12.90477" />
        <ellipse
           cx="218.13208"
           cy="356.75403"
           rx="10.823341"
           ry="12.90477"
           transform="matrix(0.35412,0,0,0.292704,436.1385,-243.1686)"
           style="fill:#009200;fill-rule:evenodd;stroke:#000000;stroke-width:1.54622996"
           id="path871"
           d="m 228.95542,356.75403 c 0,7.12711 -4.84577,12.90477 -10.82334,12.90477 -5.97757,0 -10.82334,-5.77766 -10.82334,-12.90477 0,-7.12711 4.84577,-12.90477 10.82334,-12.90477 5.97757,0 10.82334,5.77766 10.82334,12.90477 z"
           sodipodi:cx="218.13208"
           sodipodi:cy="356.75403"
           sodipodi:rx="10.823341"
           sodipodi:ry="12.90477" />
        <ellipse
           cx="218.13208"
           cy="356.75403"
           rx="10.823341"
           ry="12.90477"
           transform="matrix(0.35412,0,0,0.28673,437.4203,-243.8784)"
           style="fill:#009200;fill-rule:evenodd;stroke:#000000;stroke-width:1.56226003"
           id="path1070"
           d="m 228.95542,356.75403 c 0,7.12711 -4.84577,12.90477 -10.82334,12.90477 -5.97757,0 -10.82334,-5.77766 -10.82334,-12.90477 0,-7.12711 4.84577,-12.90477 10.82334,-12.90477 5.97757,0 10.82334,5.77766 10.82334,12.90477 z"
           sodipodi:cx="218.13208"
           sodipodi:cy="356.75403"
           sodipodi:rx="10.823341"
           sodipodi:ry="12.90477" />
        <ellipse
           cx="218.13208"
           cy="356.75403"
           rx="10.823341"
           ry="12.90477"
           transform="matrix(0.35412,0,0,0.28673,438.9908,-247.0197)"
           style="fill:#009200;fill-rule:evenodd;stroke:#000000;stroke-width:1.56226003"
           id="path869"
           d="m 228.95542,356.75403 c 0,7.12711 -4.84577,12.90477 -10.82334,12.90477 -5.97757,0 -10.82334,-5.77766 -10.82334,-12.90477 0,-7.12711 4.84577,-12.90477 10.82334,-12.90477 5.97757,0 10.82334,5.77766 10.82334,12.90477 z"
           sodipodi:cx="218.13208"
           sodipodi:cy="356.75403"
           sodipodi:rx="10.823341"
           sodipodi:ry="12.90477" />
      </g>
      <g
         transform="matrix(0.179609,-0.00452106,0.00419262,0.185123,420.9863,-216.8024)"
         id="g946">
        <ellipse
           cx="528.67889"
           cy="564.479"
           rx="67.437759"
           ry="205.6436"
           transform="matrix(0.97574,-0.307929,0.363045,0.874481,-245.8061,324.3975)"
           style="fill:#009200;fill-rule:evenodd;stroke:#000000;stroke-width:2.54485989"
           id="path889"
           d="m 596.11665,564.479 c 0,113.57383 -30.19291,205.6436 -67.43776,205.6436 -37.24484,0 -67.43776,-92.06977 -67.43776,-205.6436 0,-113.57382 30.19292,-205.6436 67.43776,-205.6436 37.24485,0 67.43776,92.06978 67.43776,205.6436 z"
           sodipodi:cx="528.67889"
           sodipodi:cy="564.479"
           sodipodi:rx="67.437759"
           sodipodi:ry="205.6436" />
        <ellipse
           cx="528.67883"
           cy="646.07043"
           rx="13.321075"
           ry="40.795685"
           transform="matrix(0.917882,-0.396852,0.396852,0.917882,-210.4826,304.4884)"
           style="fill:#009200;fill-rule:evenodd;stroke:#000000;stroke-width:2.5"
           id="path894"
           d="m 541.99991,646.07043 c 0,22.53084 -5.96405,40.79569 -13.32108,40.79569 -7.35702,0 -13.32107,-18.26485 -13.32107,-40.79569 0,-22.53083 5.96405,-40.79568 13.32107,-40.79568 7.35703,0 13.32108,18.26485 13.32108,40.79568 z"
           sodipodi:cx="528.67883"
           sodipodi:cy="646.07043"
           sodipodi:rx="13.321075"
           sodipodi:ry="40.795685" />
        <path
           d="m 139.87,643.988 c 0,57.677 -18.755,86.171 -34.551,110.315 7.517,-32.47 12.905,-52.637 12.905,-110.314 0,-57.677 29.579,-85.337 40.379,-101.989 -4.186,16.652 -18.733,44.312 -18.733,101.988 z"
           transform="matrix(1.882818,-0.455977,0.953423,1.182187,-352.2551,-10.01956)"
           style="fill:#009200;fill-rule:evenodd;stroke:#000000;stroke-width:1.53268003"
           id="path893"
           inkscape:connector-curvature="0" />
        <path
           d="m 139.87,643.988 c 0,57.677 -18.755,86.171 -34.551,110.315 7.517,-32.47 12.905,-52.637 12.905,-110.314 0,-57.677 29.579,-85.337 40.379,-101.989 -4.186,16.652 -18.733,44.312 -18.733,101.988 z"
           transform="matrix(1.882818,-0.455977,0.953423,1.182187,-348.4234,44.05751)"
           style="fill:#009200;fill-rule:evenodd;stroke:#000000;stroke-width:1.53268003"
           id="path892"
           inkscape:connector-curvature="0" />
        <path
           d="m 139.87,643.988 c 0,57.677 -18.755,86.171 -34.551,110.315 7.517,-32.47 12.905,-52.637 12.905,-110.314 0,-57.677 29.579,-85.337 40.379,-101.989 -4.186,16.652 -18.733,44.312 -18.733,101.988 z"
           transform="matrix(1.87302,-0.494682,0.977582,1.162287,-361.9242,105.7834)"
           style="fill:#009200;fill-rule:evenodd;stroke:#000000;stroke-width:1.53268003"
           id="path891"
           inkscape:connector-curvature="0" />
        <ellipse
           cx="528.67883"
           cy="646.07043"
           rx="13.321075"
           ry="40.795685"
           transform="matrix(1.810478,-0.400515,0.699068,1.635286,-915.63,-221.0144)"
           style="fill:#009200;fill-rule:evenodd;stroke:#000000;stroke-width:1.38874996"
           id="path895"
           d="m 541.99991,646.07043 c 0,22.53084 -5.96405,40.79569 -13.32108,40.79569 -7.35702,0 -13.32107,-18.26485 -13.32107,-40.79569 0,-22.53083 5.96405,-40.79568 13.32107,-40.79568 7.35703,0 13.32108,18.26485 13.32108,40.79568 z"
           sodipodi:cx="528.67883"
           sodipodi:cy="646.07043"
           sodipodi:rx="13.321075"
           sodipodi:ry="40.795685" />
        <ellipse
           cx="528.67883"
           cy="646.07043"
           rx="13.321075"
           ry="40.795685"
           transform="matrix(1.625675,-0.230684,0.541575,1.352842,-739.4891,-91.77486)"
           style="fill:#009200;fill-rule:evenodd;stroke:#000000;stroke-width:1.63984001"
           id="path896"
           d="m 541.99991,646.07043 c 0,22.53084 -5.96405,40.79569 -13.32108,40.79569 -7.35702,0 -13.32107,-18.26485 -13.32107,-40.79569 0,-22.53083 5.96405,-40.79568 13.32107,-40.79568 7.35703,0 13.32108,18.26485 13.32108,40.79568 z"
           sodipodi:cx="528.67883"
           sodipodi:cy="646.07043"
           sodipodi:rx="13.321075"
           sodipodi:ry="40.795685" />
        <ellipse
           cx="528.67883"
           cy="646.07043"
           rx="13.321075"
           ry="40.795685"
           transform="matrix(1.630439,-0.197194,0.512514,1.363529,-750.6206,-91.82552)"
           style="fill:#009200;fill-rule:evenodd;stroke:#000000;stroke-width:1.63984001"
           id="path897"
           d="m 541.99991,646.07043 c 0,22.53084 -5.96405,40.79569 -13.32108,40.79569 -7.35702,0 -13.32107,-18.26485 -13.32107,-40.79569 0,-22.53083 5.96405,-40.79568 13.32107,-40.79568 7.35703,0 13.32108,18.26485 13.32108,40.79568 z"
           sodipodi:cx="528.67883"
           sodipodi:cy="646.07043"
           sodipodi:rx="13.321075"
           sodipodi:ry="40.795685" />
        <ellipse
           cx="528.67883"
           cy="646.07043"
           rx="13.321075"
           ry="40.795685"
           transform="matrix(1.31445,-0.200604,0.468889,1.010117,-531.0563,47.56802)"
           style="fill:#009200;fill-rule:evenodd;stroke:#000000;stroke-width:2.09662008"
           id="path898"
           d="m 541.99991,646.07043 c 0,22.53084 -5.96405,40.79569 -13.32108,40.79569 -7.35702,0 -13.32107,-18.26485 -13.32107,-40.79569 0,-22.53083 5.96405,-40.79568 13.32107,-40.79568 7.35703,0 13.32108,18.26485 13.32108,40.79568 z"
           sodipodi:cx="528.67883"
           sodipodi:cy="646.07043"
           sodipodi:rx="13.321075"
           sodipodi:ry="40.795685" />
        <ellipse
           cx="528.67883"
           cy="646.07043"
           rx="13.321075"
           ry="40.795685"
           transform="matrix(1.325781,-0.130444,0.403422,1.032739,-517.8685,12.21143)"
           style="fill:#009200;fill-rule:evenodd;stroke:#000000;stroke-width:2.09662008"
           id="path899"
           d="m 541.99991,646.07043 c 0,22.53084 -5.96405,40.79569 -13.32108,40.79569 -7.35702,0 -13.32107,-18.26485 -13.32107,-40.79569 0,-22.53083 5.96405,-40.79568 13.32107,-40.79568 7.35703,0 13.32108,18.26485 13.32108,40.79568 z"
           sodipodi:cx="528.67883"
           sodipodi:cy="646.07043"
           sodipodi:rx="13.321075"
           sodipodi:ry="40.795685" />
        <path
           d="m 145.698,569.474 c 0,34.006 -6.712,61.61 -14.985,61.61 -8.272,0 -14.986,-27.604 -14.986,-61.61"
           transform="matrix(1.025425,-0.492771,0.464381,1.177331,12.76656,-14.519)"
           style="fill:#009200;fill-rule:evenodd;stroke:#000000;stroke-width:2.08615994"
           id="path945"
           inkscape:connector-curvature="0" />
        <ellipse
           cx="528.67883"
           cy="646.07043"
           rx="13.321075"
           ry="40.795685"
           transform="matrix(1.325781,-0.130444,0.403422,1.032739,-519.5336,-34.41226)"
           style="fill:#009200;fill-rule:evenodd;stroke:#000000;stroke-width:2.09662008"
           id="path902"
           d="m 541.99991,646.07043 c 0,22.53084 -5.96405,40.79569 -13.32108,40.79569 -7.35702,0 -13.32107,-18.26485 -13.32107,-40.79569 0,-22.53083 5.96405,-40.79568 13.32107,-40.79568 7.35703,0 13.32108,18.26485 13.32108,40.79568 z"
           sodipodi:cx="528.67883"
           sodipodi:cy="646.07043"
           sodipodi:rx="13.321075"
           sodipodi:ry="40.795685" />
        <ellipse
           cx="528.67883"
           cy="646.07043"
           rx="13.321075"
           ry="40.795685"
           transform="matrix(1.328753,-0.105107,0.379547,1.040012,-533.9751,-40.12073)"
           style="fill:#009200;fill-rule:evenodd;stroke:#000000;stroke-width:2.09662008"
           id="path903"
           d="m 541.99991,646.07043 c 0,22.53084 -5.96405,40.79569 -13.32108,40.79569 -7.35702,0 -13.32107,-18.26485 -13.32107,-40.79569 0,-22.53083 5.96405,-40.79568 13.32107,-40.79568 7.35703,0 13.32108,18.26485 13.32108,40.79568 z"
           sodipodi:cx="528.67883"
           sodipodi:cy="646.07043"
           sodipodi:rx="13.321075"
           sodipodi:ry="40.795685" />
        <path
           d="m 145.698,569.474 c 0,34.006 -6.712,61.61 -14.985,61.61 -8.272,0 -14.986,-27.604 -14.986,-61.61"
           transform="matrix(0.672197,-0.471822,0.458936,0.799103,39.48589,143.278)"
           style="fill:#009200;fill-rule:evenodd;stroke:#000000;stroke-width:2.8796699"
           id="path909"
           inkscape:connector-curvature="0" />
        <path
           d="m 145.698,569.474 c 0,34.006 -6.712,61.61 -14.985,61.61 -8.272,0 -14.986,-27.604 -14.986,-61.61"
           transform="matrix(0.672197,-0.471822,0.458936,0.799103,51.14178,125.7941)"
           style="fill:#009200;fill-rule:evenodd;stroke:#000000;stroke-width:2.8796699"
           id="path906"
           inkscape:connector-curvature="0" />
        <path
           d="m 145.698,569.474 c 0,34.006 -6.712,61.61 -14.985,61.61 -8.272,0 -14.986,-27.604 -14.986,-61.61"
           transform="matrix(0.937396,-0.644677,0.639998,1.091861,-40.19822,-10.74352)"
           style="fill:#009200;fill-rule:evenodd;stroke:#000000;stroke-width:2.08615994"
           id="path907"
           inkscape:connector-curvature="0" />
        <path
           d="m 145.698,569.474 c 0,34.006 -6.712,61.61 -14.985,61.61 -8.272,0 -14.986,-27.604 -14.986,-61.61"
           transform="matrix(0.672197,-0.520221,0.458936,0.881076,68.62559,71.17856)"
           style="fill:#009200;fill-rule:evenodd;stroke:#000000;stroke-width:2.74245"
           id="path908"
           inkscape:connector-curvature="0" />
      </g>
      <g
         transform="matrix(1.101444,0.275869,-0.265588,0.974374,-85.41525,-157.9016)"
         id="g919">
        <path
           d="m 276.266,345.409 c -12.278,9.174 0.409,25.144 12.022,30.679 13.06,7.672 86.603,58.185 136.317,11.999 -40.795,0.833 -118.663,-63.183 -148.339,-42.678 z"
           transform="matrix(0.134413,-0.0304485,0.04851113,0.216811,448.7474,-184.9145)"
           style="fill:#804bff;fill-rule:evenodd;stroke:#000000;stroke-width:2.5"
           id="path875"
           inkscape:connector-curvature="0" />
        <path
           d="m 276.266,345.409 c -12.278,9.174 0.409,25.144 12.022,30.679 13.06,7.672 86.603,58.185 136.317,11.999 -40.795,0.833 -118.663,-63.183 -148.339,-42.678 z"
           transform="matrix(0.134413,-0.0304485,0.04851113,0.216811,446.2043,-190.218)"
           style="fill:#804bff;fill-rule:evenodd;stroke:#000000;stroke-width:2.5"
           id="path870"
           inkscape:connector-curvature="0" />
        <path
           d="m 276.266,345.409 c -12.278,9.174 0.409,25.144 12.022,30.679 13.06,7.672 86.603,58.185 136.317,11.999 -40.795,0.833 -118.663,-63.183 -148.339,-42.678 z"
           transform="matrix(0.134413,-0.0304485,0.04851113,0.216811,443.3872,-195.1923)"
           style="fill:#804bff;fill-rule:evenodd;stroke:#000000;stroke-width:2.5"
           id="path868"
           inkscape:connector-curvature="0" />
        <path
           d="m 276.266,345.409 c -12.278,9.174 0.409,25.144 12.022,30.679 13.06,7.672 86.603,58.185 136.317,11.999 -40.795,0.833 -118.663,-63.183 -148.339,-42.678 z"
           transform="matrix(0.134413,-0.0304485,0.04851113,0.216811,438.6063,-200.4414)"
           style="fill:#804bff;fill-rule:evenodd;stroke:#000000;stroke-width:2.5"
           id="path866"
           inkscape:connector-curvature="0" />
      </g>
      <g
         transform="matrix(0.999842,0.01780211,-0.01780211,0.999842,12.04015,10.60534)"
         id="g907">
        <path
           d="m 211.167,247.301 c 21.773,-12.065 56.618,-9.749 79.734,11.165 19.36,16.943 45.307,75.194 70.322,92.834 -20.227,0.019 -31.298,-5.769 -42.241,-15.18 -28.767,15.442 -38.127,16.724 -63.89,15.632 -35.881,-1.334 -62.459,-17.654 -68.178,-40.604 -6.166,-21.804 4.925,-52.498 24.253,-63.847 z"
           transform="matrix(0.208828,-0.04091126,0.04730467,0.180604,407.8048,-213.6359)"
           style="fill:#804bff;fill-rule:evenodd;stroke:#000000;stroke-width:2.5"
           id="path852"
           inkscape:connector-curvature="0" />
        <ellipse
           cx="287.23499"
           cy="323.03516"
           rx="14.15361"
           ry="14.98616"
           transform="matrix(0.24521,0,0,0.134333,401.8211,-215.1804)"
           style="fill:#ff0000;fill-rule:evenodd;stroke:#000000;stroke-width:2.5"
           id="path1051"
           d="m 301.3886,323.03516 c 0,8.27662 -6.33679,14.98616 -14.15361,14.98616 -7.81683,0 -14.15361,-6.70954 -14.15361,-14.98616 0,-8.27663 6.33678,-14.98616 14.15361,-14.98616 7.81682,0 14.15361,6.70953 14.15361,14.98616 z"
           sodipodi:cx="287.23499"
           sodipodi:cy="323.03516"
           sodipodi:rx="14.15361"
           sodipodi:ry="14.98616" />
        <ellipse
           cx="204.57761"
           cy="348.26199"
           rx="23.254143"
           ry="15.895233"
           transform="matrix(0.19364,-0.07598685,0.06759024,0.17273,398.6623,-208.0622)"
           style="fill:#ffff00;fill-rule:evenodd;stroke:#000000;stroke-width:2.5"
           id="path1062"
           d="m 227.83175,348.26199 c 0,8.7787 -10.41124,15.89524 -23.25414,15.89524 -12.84291,0 -23.25415,-7.11654 -23.25415,-15.89524 0,-8.77869 10.41124,-15.89523 23.25415,-15.89523 12.8429,0 23.25414,7.11654 23.25414,15.89523 z"
           sodipodi:cx="204.57761"
           sodipodi:cy="348.26199"
           sodipodi:rx="23.254143"
           sodipodi:ry="15.895233" />
        <ellipse
           cx="283.90472"
           cy="333.85846"
           rx="5.8279572"
           ry="5.8279419"
           transform="matrix(0.214119,0,0,0.18518,411.2866,-233.7407)"
           style="fill-rule:evenodd;stroke-width:1pt"
           id="path1059"
           d="m 289.73268,333.85846 c 0,3.21868 -2.60926,5.82794 -5.82796,5.82794 -3.21869,0 -5.82795,-2.60926 -5.82795,-5.82794 0,-3.21868 2.60926,-5.82794 5.82795,-5.82794 3.2187,0 5.82796,2.60926 5.82796,5.82794 z"
           sodipodi:cx="283.90472"
           sodipodi:cy="333.85846"
           sodipodi:rx="5.8279572"
           sodipodi:ry="5.8279419" />
        <path
           d="m 516.796,260.294 c 4.425,18.107 -6.674,43.083 -33.133,52.609 -26.775,13.173 -46.079,41.831 -55.641,88.017 -47.244,-103.27 -23.107,-148.275 20.6,-160.346 37.377,-14.363 60.42,-13.371 68.174,19.72 z"
           transform="matrix(0.09228922,8.874689e-4,-0.00339705,0.08481727,417.8523,-191.4926)"
           style="fill:#ffff00;fill-rule:evenodd;stroke:#000000;stroke-width:6.55976009"
           id="path1061"
           inkscape:connector-curvature="0" />
        <ellipse
           cx="198.98488"
           cy="362.39093"
           rx="4.709702"
           ry="4.709702"
           transform="matrix(0.186968,-0.01313064,0.01398806,0.19143,418.6864,-234.9767)"
           style="fill-rule:evenodd;stroke-width:1pt"
           id="path1113"
           d="m 203.69458,362.39093 c 0,2.6011 -2.1086,4.7097 -4.7097,4.7097 -2.6011,0 -4.7097,-2.1086 -4.7097,-4.7097 0,-2.6011 2.1086,-4.7097 4.7097,-4.7097 2.6011,0 4.7097,2.1086 4.7097,4.7097 z"
           sodipodi:cx="198.98488"
           sodipodi:cy="362.39093"
           sodipodi:rx="4.709702"
           sodipodi:ry="4.709702" />
      </g>
    </g>
  </g>
</svg>
