<?xml version="1.0" encoding="UTF-8" standalone="no"?>
<!-- Created with Sodipodi ("http://www.sodipodi.com/") -->

<svg
   xmlns:dc="http://purl.org/dc/elements/1.1/"
   xmlns:cc="http://creativecommons.org/ns#"
   xmlns:rdf="http://www.w3.org/1999/02/22-rdf-syntax-ns#"
   xmlns:svg="http://www.w3.org/2000/svg"
   xmlns="http://www.w3.org/2000/svg"
   xmlns:sodipodi="http://sodipodi.sourceforge.net/DTD/sodipodi-0.dtd"
   xmlns:inkscape="http://www.inkscape.org/namespaces/inkscape"
   id="svg986"
   sodipodi:version="0.33pre"
   width="512"
   height="512"
   sodipodi:docname="fm.svg"
   version="1.1"
   inkscape:version="0.48.1 r9760">
  <sodipodi:namedview
     id="base"
     showgrid="true"
     snaptogrid="true"
     inkscape:zoom="0.33060318"
     inkscape:cx="496.06299"
     inkscape:cy="248.03149"
     inkscape:window-width="1280"
     inkscape:window-height="723"
     inkscape:window-x="0"
     inkscape:window-y="24"
     inkscape:window-maximized="1"
     inkscape:current-layer="svg986" />
  <metadata
     id="metadata3160">
    <rdf:RDF>
      <cc:Work
         rdf:about="">
        <dc:format>image/svg+xml</dc:format>
        <dc:type
           rdf:resource="http://purl.org/dc/dcmitype/StillImage" />
      </cc:Work>
    </rdf:RDF>
  </metadata>
  <defs
     id="defs988">
    <clipPath
       clipPathUnits="userSpaceOnUse"
       id="clipPath3257">
      <rect
         id="rect3259"
         height="496.06299"
         x="244.15601"
         style="fill:#000000;fill-opacity:0.67000002;stroke:none"
         width="496.06299"
         y="-1.1475813e-05" />
    </clipPath>
  </defs>
  <g
     transform="matrix(1.032127,0,0,1.032127,-252,1.1844497e-5)"
     id="flag"
     clip-path="url(#clipPath3257)"
     inkscape:label="#g3223">
    <rect
       style="font-size:12px;fill:#6797d6;fill-opacity:1;fill-rule:evenodd;stroke-width:1pt"
       id="rect1390"
       width="992.12598"
       height="496.06299"
       x="0"
       y="-1.5260001e-05" />
    <polygon
       points="555.613,324.281 626.445,324.23 569.104,365.812 591.041,433.161 591.041,433.161 533.774,391.476 476.501,433.151 498.449,365.806 441.115,324.214 511.946,324.278 533.785,256.897 "
       style="font-size:12px;fill:#ffffff;fill-opacity:1;fill-rule:evenodd;stroke-width:1pt"
       id="polygon1351"
       transform="matrix(0.548832,0,0,0.516507,202.9095,-83.04544)" />
    <polygon
       points="555.613,324.281 626.445,324.23 569.104,365.812 591.041,433.161 591.041,433.161 533.774,391.476 476.501,433.151 498.449,365.806 441.115,324.214 511.946,324.278 533.785,256.897 "
       style="font-size:12px;fill:#ffffff;fill-opacity:1;fill-rule:evenodd;stroke-width:1pt"
       id="polygon1387"
       transform="matrix(0.548832,0,0,-0.516507,202.9095,580.1127)" />
    <polygon
       points="555.613,324.281 626.445,324.23 569.104,365.812 591.041,433.161 591.041,433.161 533.774,391.476 476.501,433.151 498.449,365.806 441.115,324.214 511.946,324.278 533.785,256.897 "
       style="font-size:12px;fill:#ffffff;fill-opacity:1;fill-rule:evenodd;stroke-width:1pt"
       id="polygon1388"
       transform="matrix(0.524851,-0.160463,0.151012,0.493938,5.498581,159.0778)" />
    <polygon
       points="555.613,324.281 626.445,324.23 569.104,365.812 591.041,433.161 591.041,433.161 533.774,391.476 476.501,433.151 498.449,365.806 441.115,324.214 511.946,324.278 533.785,256.897 "
       style="font-size:12px;fill:#ffffff;fill-opacity:1;fill-rule:evenodd;stroke-width:1pt"
       id="polygon1389"
       transform="matrix(-0.524851,-0.160463,-0.151012,0.493938,986.1252,159.0778)" />
  </g>
</svg>
