<?xml version="1.0" encoding="UTF-8" standalone="no"?>
<!-- Created with Sodipodi ("http://www.sodipodi.com/") -->

<!-- /Creative Commons Public Domain -->

<!--

<rdf:RDF xmlns="http://web.resource.org/cc/"
     xmlns:dc="http://purl.org/dc/elements/1.1/"
     xmlns:rdf="http://www.w3.org/1999/02/22-rdf-syntax-ns#">
<Work rdf:about="">
    <dc:title>New Zealand, Australia, United Kingdom, United States, 
Bosnia and Herzegovina, Azerbaijan, Armenia, Bahamas, Belgium, Benin, 
Bulgaria, Estonia, Finland, Gabon, Gambia, Germany, Greece, Greenland, 
Guinea, Honduras, Israel, Jamaica, Jordan, and Romania Flags</dc:title>
    <dc:rights><Agent>
       <dc:title>Daniel McRae</dc:title>
    </Agent></dc:rights>
    <license rdf:resource="http://web.resource.org/cc/PublicDomain" />
</Work>

<License rdf:about="http://web.resource.org/cc/PublicDomain">
    <permits rdf:resource="http://web.resource.org/cc/Reproduction" />
    <permits rdf:resource="http://web.resource.org/cc/Distribution" />
    <permits rdf:resource="http://web.resource.org/cc/DerivativeWorks" />
</License>
</rdf:RDF>
-->

<svg
   xmlns:dc="http://purl.org/dc/elements/1.1/"
   xmlns:cc="http://creativecommons.org/ns#"
   xmlns:rdf="http://www.w3.org/1999/02/22-rdf-syntax-ns#"
   xmlns:svg="http://www.w3.org/2000/svg"
   xmlns="http://www.w3.org/2000/svg"
   xmlns:sodipodi="http://sodipodi.sourceforge.net/DTD/sodipodi-0.dtd"
   xmlns:inkscape="http://www.inkscape.org/namespaces/inkscape"
   id="svg1"
   sodipodi:version="0.33pre"
   width="512"
   height="512"
   sodipodi:docname="gb.svg"
   version="1.1"
   inkscape:version="0.48.1 r9760">
  <sodipodi:namedview
     id="base"
     showgrid="false"
     inkscape:zoom="0.328"
     inkscape:cx="500"
     inkscape:cy="250"
     inkscape:window-width="1280"
     inkscape:window-height="723"
     inkscape:window-x="0"
     inkscape:window-y="24"
     inkscape:window-maximized="1"
     inkscape:current-layer="svg1" />
  <metadata
     id="metadata2995">
    <rdf:RDF>
      <cc:Work
         rdf:about="">
        <dc:format>image/svg+xml</dc:format>
        <dc:type
           rdf:resource="http://purl.org/dc/dcmitype/StillImage" />
      </cc:Work>
    </rdf:RDF>
  </metadata>
  <defs
     id="defs3">
    <clipPath
       clipPathUnits="userSpaceOnUse"
       id="clipPath3224">
      <rect
         id="rect3226"
         height="500.00009"
         x="250.00005"
         style="fill:#000000;fill-opacity:0.67000002;stroke:none"
         width="500.00009"
         y="2.343731e-06" />
    </clipPath>
  </defs>
  <g
     transform="matrix(1.0239998,0,0,1.0239998,-256,-2.39998e-6)"
     id="flag"
     clip-path="url(#clipPath3224)"
     inkscape:label="#g3190">
    <g
       id="g578"
       transform="scale(16.66667,16.66667)">
      <rect
         style="font-size:12px;fill:#000066;stroke-width:1pt"
         id="rect124"
         x="0"
         width="60"
         height="30"
         y="0" />
      <g
         id="g584"
         style="font-size:12px">
        <path
           inkscape:connector-curvature="0"
           style="font-size:12px;fill:#ffffff;stroke-width:1pt"
           d="M 0,0 0,3.3541 53.2918,30 60,30 60,26.6459 6.7082,0 0,0 z M 60,0 60,3.35405 6.7082,30 0,30 0,26.6458 53.2918,0 60,0 z"
           id="path146" />
        <path
           inkscape:connector-curvature="0"
           style="font-size:12px;fill:#ffffff;stroke-width:1pt"
           d="M 25,0 25,30 35,30 35,0 25,0 z M 0,10 0,20 60,20 60,10 0,10 z"
           id="path136" />
        <path
           inkscape:connector-curvature="0"
           style="font-size:12px;fill:#cc0000;stroke-width:1pt"
           d="m 0,12 0,6 60,0 0,-6 -60,0 z m 27,-12 0,30 6,0 0,-30 -6,0 z"
           id="path141" />
        <path
           inkscape:connector-curvature="0"
           style="font-size:12px;fill:#cc0000;stroke-width:1pt"
           d="M 0,30 20,20 24.4721,20 4.47214,30 0,30 z M 0,0 20,10 15.5279,10 0,2.23607 0,0 z m 35.5279,10 20,-10 L 60,0 40,10 35.5279,10 z M 60,30 40,20 44.4721,20 60,27.7639 60,30 z"
           id="path150" />
      </g>
    </g>
  </g>
</svg>
