<?xml version="1.0" encoding="UTF-8" standalone="no"?>
<!-- Created with Sodipodi ("http://www.sodipodi.com/") -->

<svg
   xmlns:dc="http://purl.org/dc/elements/1.1/"
   xmlns:cc="http://creativecommons.org/ns#"
   xmlns:rdf="http://www.w3.org/1999/02/22-rdf-syntax-ns#"
   xmlns:svg="http://www.w3.org/2000/svg"
   xmlns="http://www.w3.org/2000/svg"
   xmlns:sodipodi="http://sodipodi.sourceforge.net/DTD/sodipodi-0.dtd"
   xmlns:inkscape="http://www.inkscape.org/namespaces/inkscape"
   id="svg603"
   sodipodi:version="0.32"
   width="512"
   height="512"
   sodipodi:docname="gt.svg"
   version="1.1"
   inkscape:version="0.48.1 r9760">
  <sodipodi:namedview
     id="base"
     showgrid="false"
     inkscape:zoom="0.41325396"
     inkscape:cx="396.8504"
     inkscape:cy="248.03149"
     inkscape:window-width="1280"
     inkscape:window-height="723"
     inkscape:window-x="0"
     inkscape:window-y="24"
     inkscape:window-maximized="1"
     inkscape:current-layer="svg603" />
  <metadata
     id="metadata3530">
    <rdf:RDF>
      <cc:Work
         rdf:about="">
        <dc:format>image/svg+xml</dc:format>
        <dc:type
           rdf:resource="http://purl.org/dc/dcmitype/StillImage" />
      </cc:Work>
    </rdf:RDF>
  </metadata>
  <defs
     id="defs605" />
  <g
     id="flag"
     inkscape:label="#g3992">
    <g
       id="g1399"
       transform="matrix(0.64505728,0,0,1.0320823,0,-9.2033094e-6)">
      <rect
         style="font-size:12px;fill:#0066ff;fill-rule:evenodd;stroke-width:1pt"
         id="rect606"
         height="496.07001"
         x="0"
         y="0"
         width="793.72797" />
      <rect
         style="font-size:12px;fill:#ffffff;fill-rule:evenodd;stroke-width:1pt"
         id="rect607"
         height="496.08447"
         y="0"
         x="264.57599"
         width="264.57599" />
    </g>
    <g
       id="g1400"
       transform="matrix(1.0320596,0,0,1.0320276,-124.8686,0.75881358)">
      <path
         inkscape:connector-curvature="0"
         style="font-size:12px;fill:none;stroke:#000000;stroke-width:0.5"
         d="m 401.816,305.021 c -1.76,-1.831 -11.128,-4.69 -17.788,-5.264 -5.755,-0.454 -9.467,-4.238 -12.877,-4.612 -9.856,-9.91 -22.741,-13.697 -31.167,-32.99 -1.602,-5.79 -2.741,-12.841 -2.912,-19.585 3.18,-22.53 5.238,-21.922 9.985,-36.818"
         id="path998"
         sodipodi:nodetypes="cccccc"
         transform="matrix(-1,0,0,1,768.246,1.217338)" />
      <path
         inkscape:connector-curvature="0"
         style="font-size:12px;fill:#0c5c1d;fill-rule:evenodd;stroke-width:0.375"
         d="m 378.399,303.291 c -0.172,1.662 -5.25,7.793 -14.02,6.715 0.784,-1.692 2.689,-2.906 5.422,-5.453 1.251,-1.289 8.661,-2.048 8.598,-1.262 z"
         id="path999"
         sodipodi:nodetypes="ccss"
         transform="matrix(-1,0,0,1,762.4661,-0.135392)" />
      <path
         inkscape:connector-curvature="0"
         style="font-size:12px;fill:#0c5c1d;fill-rule:evenodd;stroke-width:0.375"
         d="m 379.497,302.996 c 1.02,0.089 1.927,0.696 0.184,2.227 -2.94,2.471 -13.486,4.744 -15.075,1.607 4.668,-0.63 7.78,-1.619 8.26,-1.601 2.168,-0.71 4.963,-2.39 6.631,-2.233 z"
         id="path1000"
         sodipodi:nodetypes="ccccs"
         transform="matrix(-1,0,0,1,774.0138,-1.58799)" />
      <path
         inkscape:connector-curvature="0"
         style="font-size:12px;fill:#0c5c1d;fill-rule:evenodd;stroke-width:0.25"
         d="m 378.996,299.441 c -2.127,-1.463 -3.775,-1.342 -5.151,-1.631 -3.524,-0.244 -5.934,0.24 -7.409,0.85 -2.183,0.94 -5.363,3.293 -5.766,5.002 3.241,-0.061 5.389,-2.507 9.562,-3.434 2.129,-0.184 6.064,-0.458 8.764,-0.787 z"
         id="path1001"
         sodipodi:nodetypes="cccccc"
         transform="matrix(-1,0,0,1,768.246,1.217338)" />
      <path
         inkscape:connector-curvature="0"
         style="font-size:12px;fill:#0c5c1d;fill-rule:evenodd;stroke-width:0.25"
         d="m 380.788,299.841 c -6.462,-3.216 -12.889,-9.6 -14.135,-16.765 8.185,5.294 14.148,13.466 14.135,16.765 z"
         id="path1002"
         sodipodi:nodetypes="ccc"
         transform="matrix(-0.995961,0.08978587,0.08978587,0.995961,735.9479,-32.79963)" />
      <path
         inkscape:connector-curvature="0"
         style="font-size:12px;fill:#0c5c1d;fill-rule:evenodd;stroke-width:0.25"
         d="m 381.157,298.734 c -5.198,-2.255 -12.24,-7.306 -13.095,-17.811 7.132,4.489 9.413,11.127 13.095,17.811 z"
         id="path1003"
         sodipodi:nodetypes="ccc"
         transform="matrix(-1,0,0,1,768.246,1.217324)" />
      <path
         inkscape:connector-curvature="0"
         style="font-size:12px;fill:#0c5c1d;fill-rule:evenodd;stroke-width:0.25"
         d="m 370.685,297.109 c 0.401,-2.965 -6.719,-18.458 -10.873,-22.446 -0.454,5.964 5.346,22.714 10.873,22.446 z"
         id="path1004"
         sodipodi:nodetypes="ccc"
         transform="matrix(-1,0,0,1,768.7379,-2.22596)" />
      <path
         inkscape:connector-curvature="0"
         style="font-size:12px;fill:#0c5c1d;fill-rule:evenodd;stroke-width:0.25"
         d="m 365.727,295.857 c -1.081,4.595 -12.833,5.788 -16.627,0.401 4.724,-0.788 10.564,-1.247 16.627,-0.401 z"
         id="path1005"
         sodipodi:nodetypes="ccc"
         transform="matrix(-1,0,0,1,763.573,-0.381325)" />
      <path
         inkscape:connector-curvature="0"
         style="font-size:12px;fill:#0c5c1d;fill-rule:evenodd;stroke-width:0.25"
         d="m 367.181,296.304 c -4.065,3.969 -15.966,4.352 -23.778,0.491 9.328,-5.144 22.903,-2.062 23.778,-0.491 z"
         id="path1006"
         sodipodi:nodetypes="ccc"
         transform="matrix(-0.97776,0.209725,0.209725,0.97776,699.8756,-74.39114)" />
      <path
         inkscape:connector-curvature="0"
         style="font-size:12px;fill:#0c5c1d;fill-rule:evenodd;stroke-width:0.25"
         d="m 357.568,287.685 c -0.763,-3.339 -10.65,-9.933 -17.027,-9.568 4.051,5.498 5.44,4.557 7.55,6.996 1.442,1.809 6.474,3.138 9.477,2.572 z"
         id="path1008"
         sodipodi:nodetypes="ccsc"
         transform="matrix(-1,0,0,1,769.8447,-1.980065)" />
      <path
         inkscape:connector-curvature="0"
         style="font-size:12px;fill:#0c5c1d;fill-rule:evenodd;stroke-width:0.25"
         d="m 351.73,280.549 c 3.41,-1.526 1.996,-11.444 -0.599,-15.364 -2.016,5.636 -2.104,14.229 0.599,15.364 z"
         id="path1010"
         sodipodi:nodetypes="ccc"
         transform="matrix(-0.998026,0.06280386,0.06351756,1.009367,748.7443,-27.1642)" />
      <path
         inkscape:connector-curvature="0"
         style="font-size:12px;fill:#0c5c1d;fill-rule:evenodd;stroke-width:0.25"
         d="m 346.418,275.013 c 4.658,-2.591 2.979,-15.262 0.497,-18.815 -1.946,3.784 -2.967,16.974 -0.497,18.815 z"
         id="path1011"
         sodipodi:nodetypes="ccc"
         transform="matrix(-1,0,0,1,766.7703,-0.627259)" />
      <path
         inkscape:connector-curvature="0"
         style="font-size:12px;fill:#0c5c1d;fill-rule:evenodd;stroke-width:0.25"
         d="m 347.212,274.081 c 3.454,-3.657 1.325,-12.808 -1.279,-16.402 -3.151,5.422 -1.67,12.166 1.279,16.402 z"
         id="path1012"
         sodipodi:nodetypes="ccc"
         transform="matrix(-0.24558,-0.969377,-0.969377,0.24558,773.0885,543.5364)" />
      <path
         inkscape:connector-curvature="0"
         style="font-size:12px;fill:#0c5c1d;fill-rule:evenodd;stroke-width:0.25"
         d="m 343.086,271.805 c 3.881,-6.068 1.471,-9.284 -0.898,-16.797 -1.146,6.38 -0.222,13.112 0.898,16.797 z"
         id="path1015"
         sodipodi:nodetypes="ccc"
         transform="matrix(-1,0,0,1,768,-0.258378)" />
      <path
         inkscape:connector-curvature="0"
         style="font-size:12px;fill:#0c5c1d;fill-rule:evenodd;stroke-width:0.25"
         d="m 343.212,270.951 c 3.746,-4.249 2.327,-9.818 -0.095,-15.424 -2.284,3.658 -3.957,8.51 0.095,15.424 z"
         id="path1016"
         sodipodi:nodetypes="ccc"
         transform="matrix(-0.666936,-0.745115,-0.745115,0.666936,860.6224,333.1057)" />
      <path
         inkscape:connector-curvature="0"
         style="font-size:12px;fill:#0c5c1d;fill-rule:evenodd;stroke-width:0.25"
         d="m 343.631,269.733 c 4.331,-4.369 1.2,-9.241 -2.192,-13.771 0.404,3.541 -0.639,9.217 2.192,13.771 z"
         id="path1017"
         sodipodi:nodetypes="ccc"
         transform="matrix(-0.813801,0.581143,0.581143,0.813801,551.3445,-158.0544)" />
      <path
         inkscape:connector-curvature="0"
         style="font-size:12px;fill:#0c5c1d;fill-rule:evenodd;stroke-width:0.25"
         d="m 344.367,272.341 c 2.171,-3.115 1.796,-12.942 -3.477,-17.716 -1.18,5.7 1.1,13.626 3.477,17.716 z"
         id="path1018"
         sodipodi:nodetypes="ccc"
         transform="matrix(0.97567,-0.219246,0.219246,0.97567,31.20223,61.13845)" />
      <path
         inkscape:connector-curvature="0"
         style="font-size:12px;fill:#0c5c1d;fill-rule:evenodd;stroke-width:0.25"
         d="m 343.447,273.405 c -0.291,-2.258 -0.558,-3.439 -1.13,-6.371 -0.926,-5.323 0.08,-3.346 -1.356,-9.875 -3.405,5.89 -2.251,14.376 2.486,16.246 z"
         id="path1020"
         sodipodi:nodetypes="cscc"
         transform="matrix(-0.963162,-0.268923,-0.268923,0.963162,834.6649,78.33263)" />
      <path
         inkscape:connector-curvature="0"
         style="font-size:12px;fill:#0c5c1d;fill-rule:evenodd;stroke-width:0.25"
         d="m 343,271.086 c 2.741,-3.924 1.716,-8.316 -2.295,-14.611 -0.95,4.732 0.882,9.269 2.295,14.611 z"
         id="path1022"
         sodipodi:nodetypes="ccc"
         transform="matrix(-0.107837,0.994169,0.994169,0.107837,198.2263,-138.5849)" />
      <path
         inkscape:connector-curvature="0"
         style="font-size:12px;fill:#0c5c1d;fill-rule:evenodd;stroke-width:0.25"
         d="m 345.651,276.294 c -2.752,-8.259 -2.364,-10.27 -5.894,-18.852 -1.807,6.377 1.235,15.289 5.894,18.852 z"
         id="path1023"
         sodipodi:nodetypes="ccc"
         transform="matrix(0.817281,0.57624,-0.57624,0.817281,306.3139,-195.6658)" />
      <path
         inkscape:connector-curvature="0"
         style="font-size:12px;fill:#0c5c1d;fill-rule:evenodd;stroke-width:0.25"
         d="m 345.273,271.565 c -2.016,-6.688 -0.254,-11.202 -4.404,-16.492 -1.301,1.938 0.258,15.343 4.404,16.492 z"
         id="path1024"
         sodipodi:nodetypes="ccc"
         transform="matrix(0.796084,-0.605186,0.605186,0.796084,-10.5597,221.5299)" />
      <path
         inkscape:connector-curvature="0"
         style="font-size:12px;fill:#0c5c1d;fill-rule:evenodd;stroke-width:0.25"
         d="m 343.674,271.113 c -0.155,-5.759 0.478,-9.883 -1.813,-15.702 -2.635,4.879 -2.689,14.838 1.813,15.702 z"
         id="path1025"
         sodipodi:nodetypes="ccc"
         transform="matrix(0.796084,-0.605186,0.605186,0.796084,-10.47437,215.2106)" />
      <path
         inkscape:connector-curvature="0"
         style="font-size:12px;fill:#0c5c1d;fill-rule:evenodd;stroke-width:0.25"
         d="m 343.674,271.113 c 3.708,-5.181 -1.54,-12.25 -2.605,-16.304 -2.635,4.879 -1.029,12.838 2.605,16.304 z"
         id="path1026"
         sodipodi:nodetypes="ccc"
         transform="matrix(0.904622,-0.426215,0.426215,0.904622,-6.098021,114.2594)" />
      <path
         inkscape:connector-curvature="0"
         style="font-size:12px;fill:#0c5c1d;fill-rule:evenodd;stroke-width:0.25"
         d="m 343.465,269.858 c 3.472,-4.803 -0.141,-10.016 -1.636,-13.538 -1.336,5.36 -2.317,11.021 1.636,13.538 z"
         id="path1027"
         sodipodi:nodetypes="ccc"
         transform="matrix(0.950097,-0.311955,0.311955,0.950097,9.7906,56.5718)" />
      <path
         inkscape:connector-curvature="0"
         style="font-size:12px;fill:#0c5c1d;fill-rule:evenodd;stroke-width:0.25"
         d="m 343.461,270.523 c 1.942,-3.799 0.037,-12.024 -1.67,-15.419 -1.646,2.059 -1.512,15.004 1.67,15.419 z"
         id="path1028"
         sodipodi:nodetypes="ccc"
         transform="matrix(0.997048,0.07678157,-0.07678157,0.997048,105.9512,-79.06041)" />
      <path
         inkscape:connector-curvature="0"
         style="font-size:12px;fill:#0c5c1d;fill-rule:evenodd;stroke-width:0.25"
         d="m 343.71,268.925 c 1.978,-4.73 0.006,-9.295 -1.881,-12.605 -1.005,5.368 -1.585,10.487 1.881,12.605 z"
         id="path1029"
         sodipodi:nodetypes="ccc"
         transform="matrix(0.992935,0.118654,-0.118654,0.992935,114.8022,-98.16853)" />
      <path
         inkscape:connector-curvature="0"
         style="font-size:12px;fill:#0c5c1d;fill-rule:evenodd;stroke-width:0.25"
         d="m 343.931,270.683 c 2.95,-2.357 1.155,-10.408 -4.679,-15.035 1.181,6.558 2.723,9.083 4.679,15.035 z"
         id="path1063"
         sodipodi:nodetypes="ccc"
         transform="matrix(0.854297,0.519786,-0.519786,0.854297,276.2044,-165.0276)" />
      <path
         inkscape:connector-curvature="0"
         style="font-size:12px;fill:#0c5c1d;fill-rule:evenodd;stroke-width:0.25"
         d="m 343,271.086 c 3.068,-3.517 1.716,-8.316 -2.295,-14.611 -0.434,4.54 3.519,10.05 2.295,14.611 z"
         id="path1062"
         sodipodi:nodetypes="ccc"
         transform="matrix(0.618011,0.78617,-0.78617,0.618011,429.5117,-206.0435)" />
      <path
         inkscape:connector-curvature="0"
         style="font-size:12px;fill:#0c5c1d;fill-rule:evenodd;stroke-width:0.25"
         d="m 343.931,270.683 c 4.064,-1.641 1.503,-13.524 -4.834,-16.736 1.236,7.973 2.324,10.91 4.834,16.736 z"
         id="path1019"
         sodipodi:nodetypes="ccc"
         transform="matrix(-0.81459,0.580038,0.580038,0.81459,554.6663,-173.0924)" />
      <path
         inkscape:connector-curvature="0"
         style="font-size:12px;fill:#0c5c1d;fill-rule:evenodd;stroke-width:0.25"
         d="m 347.212,274.081 c 3.767,-2.08 1.488,-11.004 -1.038,-14.952 -1.433,4.49 -0.448,12.121 1.038,14.952 z"
         id="path1013"
         sodipodi:nodetypes="ccc"
         transform="matrix(-0.359777,-0.933039,-0.93304,0.359777,807.6245,488.6201)" />
      <path
         inkscape:connector-curvature="0"
         style="font-size:12px;fill:#0c5c1d;fill-rule:evenodd;stroke-width:0.25"
         d="m 347.728,275.836 c -0.228,-3.294 3.665,-5.04 -1.917,-17.473 -1.114,9.701 1.239,15.694 1.917,17.473 z"
         id="path1014"
         sodipodi:nodetypes="ccc"
         transform="matrix(0.68077,0.909169,-0.835657,0.625724,418.5937,-218.7071)" />
      <path
         inkscape:connector-curvature="0"
         style="font-size:12px;fill:none;stroke:#000000;stroke-width:0.5"
         d="m 399.555,306.238 c -1.412,-2.005 -8.867,-4.168 -15.527,-4.742 -5.755,0.242 -11.032,-1.107 -15.833,-3.568 -9.857,-9.91 -20.828,-16.48 -29.254,-35.773 -1.602,-5.79 -2.568,-11.102 -2.739,-17.846 3.18,-22.53 3.499,-24.704 12.246,-39.6"
         id="path609"
         sodipodi:nodetypes="cccccc"
         transform="translate(-26.78044,-1.525879e-5)" />
      <path
         inkscape:connector-curvature="0"
         style="font-size:12px;fill:#0c5c1d;fill-rule:evenodd;stroke-width:0.375"
         d="m 378.399,303.291 c -0.172,1.662 -5.988,6.809 -14.02,6.715 0.784,-1.692 8.683,-3.504 10.833,-6.56 0.636,-0.92 3.25,-0.941 3.187,-0.155 z"
         id="path612"
         sodipodi:nodetypes="ccss"
         transform="translate(-26.78044,-3.051758e-5)" />
      <path
         inkscape:connector-curvature="0"
         style="font-size:12px;fill:#0c5c1d;fill-rule:evenodd;stroke-width:0.375"
         d="m 379.497,302.996 c 1.01,-0.17 1.558,0.327 -0.185,1.858 -2.94,2.471 -7.952,3.637 -15.321,4.927 2.455,-2.474 8.395,-4.57 8.875,-4.552 2.168,-0.71 4.717,-1.898 6.631,-2.233 z"
         id="path619"
         sodipodi:nodetypes="ccccs"
         transform="translate(-33.77805,-2.06752)" />
      <path
         inkscape:connector-curvature="0"
         style="font-size:12px;fill:#0c5c1d;fill-rule:evenodd;stroke-width:0.25"
         d="m 376.782,300.671 c -0.774,-1.709 -1.561,-2.572 -2.937,-2.861 -3.524,-0.244 -6.303,0.363 -7.409,0.85 -1.199,0.694 -4.994,3.17 -5.397,4.879 2.872,-0.799 4.774,-2.999 8.947,-3.557 2.006,-0.676 4.834,-0.581 6.796,0.689 z"
         id="path627"
         sodipodi:nodetypes="cccccc"
         transform="translate(-26.78044,-3.051758e-5)" />
      <path
         inkscape:connector-curvature="0"
         style="font-size:12px;fill:#0c5c1d;fill-rule:evenodd;stroke-width:0.25"
         d="m 380.788,299.841 c -6.462,-3.216 -10.742,-7.695 -11.988,-14.86 8.185,5.294 12.001,11.561 11.988,14.86 z"
         id="path576"
         sodipodi:nodetypes="ccc"
         transform="matrix(0.995962,0.08978587,-0.08978595,0.995961,5.517642,-34.01699)" />
      <path
         inkscape:connector-curvature="0"
         style="font-size:12px;fill:#0c5c1d;fill-rule:evenodd;stroke-width:0.25"
         d="m 380.788,299.841 c -5.813,-2.501 -7.936,-7.183 -11.988,-14.86 7.255,3.628 10.274,7.438 11.988,14.86 z"
         id="path575"
         sodipodi:nodetypes="ccc"
         transform="translate(-26.78044,-3.051758e-5)" />
      <path
         inkscape:connector-curvature="0"
         style="font-size:12px;fill:#0c5c1d;fill-rule:evenodd;stroke-width:0.25"
         d="m 367.734,297.232 c 1.261,-5.179 -0.94,-12.801 -4.725,-16.543 -0.331,5.841 0.796,15.581 4.725,16.543 z"
         id="path580"
         sodipodi:nodetypes="ccc"
         transform="translate(-26.78044,-3.051758e-5)" />
      <path
         inkscape:connector-curvature="0"
         style="font-size:12px;fill:#0c5c1d;fill-rule:evenodd;stroke-width:0.25"
         d="m 365.727,295.857 c -1.081,4.595 -13.079,4.681 -16.627,0.401 3.617,0.811 11.548,0.967 16.627,-0.401 z"
         id="path581"
         sodipodi:nodetypes="ccc"
         transform="translate(-26.78044,-1.525879e-5)" />
      <path
         inkscape:connector-curvature="0"
         style="font-size:12px;fill:#0c5c1d;fill-rule:evenodd;stroke-width:0.25"
         d="m 367.181,296.304 c -3.034,3.496 -18.577,2.145 -19.303,-0.343 1.865,-0.651 18.428,-1.228 19.303,0.343 z"
         id="path583"
         sodipodi:nodetypes="ccc"
         transform="matrix(0.977761,0.209725,-0.209725,0.97776,38.88451,-74.50172)" />
      <path
         inkscape:connector-curvature="0"
         style="font-size:12px;fill:#0c5c1d;fill-rule:evenodd;stroke-width:0.25"
         d="m 361.459,291.252 c 2.162,-4.27 -3.784,-17.784 -6.162,-17.676 1.405,10.108 3.946,14.703 6.162,17.676 z"
         id="path584"
         sodipodi:nodetypes="ccc"
         transform="translate(-26.78044,-3.051758e-5)" />
      <path
         inkscape:connector-curvature="0"
         style="font-size:12px;fill:#0c5c1d;fill-rule:evenodd;stroke-width:0.25"
         d="m 357.568,287.685 c -1.378,-3.216 -11.757,-8.703 -17.027,-9.568 4.297,4.514 7.062,3.88 8.534,6.75 1.073,1.932 5.736,2.277 8.493,2.818 z"
         id="path585"
         sodipodi:nodetypes="ccsc"
         transform="translate(-26.78044,-1.525879e-5)" />
      <path
         inkscape:connector-curvature="0"
         style="font-size:12px;fill:#0c5c1d;fill-rule:evenodd;stroke-width:0.25"
         d="m 355.622,285.252 c 1.081,-4.054 0.54,-5.676 -2.109,-8.595 -0.27,4.27 0.271,5.946 2.109,8.595 z"
         id="path586"
         sodipodi:nodetypes="ccc"
         transform="translate(-26.78044,-1.525879e-5)" />
      <path
         inkscape:connector-curvature="0"
         style="font-size:12px;fill:#0c5c1d;fill-rule:evenodd;stroke-width:0.25"
         d="m 351.73,280.549 c 2.918,-1.891 1.135,-11.566 -1.46,-14.27 -0.54,6.974 -1.243,13.135 1.46,14.27 z"
         id="path587"
         sodipodi:nodetypes="ccc"
         transform="matrix(1.000001,0,0,1.011364,-26.78044,-3.026001)" />
      <path
         inkscape:connector-curvature="0"
         style="font-size:12px;fill:#0c5c1d;fill-rule:evenodd;stroke-width:0.25"
         d="m 346.541,273.414 c 5.027,-1.73 1.134,-11.081 -0.487,-14.756 -1.946,3.783 1.46,5.783 0.487,14.756 z"
         id="path588"
         sodipodi:nodetypes="ccc"
         transform="translate(-26.78044,-1.525879e-5)" />
      <path
         inkscape:connector-curvature="0"
         style="font-size:12px;fill:#0c5c1d;fill-rule:evenodd;stroke-width:0.25"
         d="m 347.212,274.081 c 2.853,-5.027 1.327,-12.301 -1.277,-15.895 -0.408,5.234 0.42,12.905 1.277,15.895 z"
         id="path589"
         sodipodi:nodetypes="ccc"
         transform="matrix(0.24558,-0.969377,0.969378,0.24558,-32.11484,543.303)" />
      <path
         inkscape:connector-curvature="0"
         style="font-size:12px;fill:#0c5c1d;fill-rule:evenodd;stroke-width:0.25"
         d="m 347.212,274.081 c 3.767,-2.08 1.488,-11.004 -1.038,-14.952 -1.433,4.49 -0.448,12.121 1.038,14.952 z"
         id="path590"
         sodipodi:nodetypes="ccc"
         transform="matrix(0.24558,-0.969377,0.969378,0.24558,-36.4932,534.384)" />
      <path
         inkscape:connector-curvature="0"
         style="font-size:12px;fill:#0c5c1d;fill-rule:evenodd;stroke-width:0.25"
         d="m 347.728,275.836 c -0.228,-3.294 3.665,-5.04 -1.917,-17.473 -1.114,9.701 1.239,15.694 1.917,17.473 z"
         id="path591"
         sodipodi:nodetypes="ccc"
         transform="matrix(-0.68077,0.909169,0.835657,0.625724,323.579,-217.096)" />
      <path
         inkscape:connector-curvature="0"
         style="font-size:12px;fill:#0c5c1d;fill-rule:evenodd;stroke-width:0.25"
         d="m 343.086,271.805 c 3.881,-6.068 1.471,-9.284 -0.898,-16.797 -1.146,6.38 -0.222,13.112 0.898,16.797 z"
         id="path593"
         sodipodi:nodetypes="ccc"
         transform="translate(-26.78044,-1.525879e-5)" />
      <path
         inkscape:connector-curvature="0"
         style="font-size:12px;fill:#0c5c1d;fill-rule:evenodd;stroke-width:0.25"
         d="m 343.212,270.951 c 3.326,-4.534 1.917,-10.276 -1.093,-14.695 -1.112,2.939 0.765,6.594 1.093,14.695 z"
         id="path594"
         sodipodi:nodetypes="ccc"
         transform="matrix(0.666937,-0.745115,0.745116,0.666936,-120.3868,332.9951)" />
      <path
         inkscape:connector-curvature="0"
         style="font-size:12px;fill:#0c5c1d;fill-rule:evenodd;stroke-width:0.25"
         d="m 343.631,269.733 c 4.331,-4.369 1.2,-9.241 -2.192,-13.771 0.404,3.541 -0.639,9.217 2.192,13.771 z"
         id="path595"
         sodipodi:nodetypes="ccc"
         transform="matrix(0.765428,0.643522,-0.643523,0.765427,221.8573,-166.817)" />
      <path
         inkscape:connector-curvature="0"
         style="font-size:12px;fill:#0c5c1d;fill-rule:evenodd;stroke-width:0.25"
         d="m 343.557,270.899 c 3.128,-1.766 2.297,-10.687 -2.604,-14.873 1.604,7.334 2.791,9.468 2.604,14.873 z"
         id="path597"
         sodipodi:nodetypes="ccc"
         transform="matrix(0.817282,0.57624,-0.576241,0.817281,186.5739,-165.8271)" />
      <path
         inkscape:connector-curvature="0"
         style="font-size:12px;fill:#0c5c1d;fill-rule:evenodd;stroke-width:0.25"
         d="m 343.931,270.683 c 2.95,-2.357 1.155,-10.408 -4.679,-15.035 2.382,6.403 4.701,8.312 4.679,15.035 z"
         id="path598"
         sodipodi:nodetypes="ccc"
         transform="matrix(0.817282,0.57624,-0.576241,0.817281,184.6208,-172.4674)" />
      <path
         inkscape:connector-curvature="0"
         style="font-size:12px;fill:#0c5c1d;fill-rule:evenodd;stroke-width:0.25"
         d="m 342.841,273.746 c -0.528,-2.324 0.474,-3.896 -0.524,-6.712 -1.769,-5.048 0.039,-7.316 -2.626,-10.357 -0.948,9.895 0.251,14.564 3.15,17.069 z"
         id="path599"
         sodipodi:nodetypes="cscc"
         transform="matrix(-0.817282,0.57624,0.576241,0.817281,431.5237,-170.944)" />
      <path
         inkscape:connector-curvature="0"
         style="font-size:12px;fill:#0c5c1d;fill-rule:evenodd;stroke-width:0.25"
         d="m 348.308,277.665 c -7.072,-12.851 -5.858,-6.117 -8.617,-20.988 -2.832,12.305 6.855,21.534 8.617,20.988 z"
         id="path600"
         sodipodi:nodetypes="ccc"
         transform="matrix(-0.817282,0.57624,0.576241,0.817281,434.0649,-182.9317)" />
      <path
         inkscape:connector-curvature="0"
         style="font-size:12px;fill:#0c5c1d;fill-rule:evenodd;stroke-width:0.25"
         d="m 343,271.086 c 3.068,-3.517 1.716,-8.316 -2.295,-14.611 -0.434,4.54 3.519,10.05 2.295,14.611 z"
         id="path601"
         sodipodi:nodetypes="ccc"
         transform="matrix(-0.796085,-0.605186,-0.605187,0.796084,746.9366,230.3114)" />
      <path
         inkscape:connector-curvature="0"
         style="font-size:12px;fill:#0c5c1d;fill-rule:evenodd;stroke-width:0.25"
         d="m 345.651,276.294 c -2.752,-8.259 -2.364,-10.27 -5.894,-18.852 -1.807,6.377 1.235,15.289 5.894,18.852 z"
         id="path602"
         sodipodi:nodetypes="ccc"
         transform="matrix(-0.817282,0.57624,0.576241,0.817281,434.7831,-197.1291)" />
      <path
         inkscape:connector-curvature="0"
         style="font-size:12px;fill:#0c5c1d;fill-rule:evenodd;stroke-width:0.25"
         d="m 345.273,271.565 c -2.016,-6.688 -0.254,-11.202 -4.404,-16.492 -1.301,1.938 0.258,15.343 4.404,16.492 z"
         id="path603"
         sodipodi:nodetypes="ccc"
         transform="matrix(-0.796085,-0.605186,-0.605187,0.796084,753.0097,220.3125)" />
      <path
         inkscape:connector-curvature="0"
         style="font-size:12px;fill:#0c5c1d;fill-rule:evenodd;stroke-width:0.25"
         d="m 343.674,271.113 c -0.155,-5.759 0.478,-9.883 -1.813,-15.702 -2.635,4.879 -2.689,14.838 1.813,15.702 z"
         id="path604"
         sodipodi:nodetypes="ccc"
         transform="matrix(-0.796085,-0.605186,-0.605187,0.796084,751.0798,215.8378)" />
      <path
         inkscape:connector-curvature="0"
         style="font-size:12px;fill:#0c5c1d;fill-rule:evenodd;stroke-width:0.25"
         d="m 343.674,271.113 c 3.708,-5.181 -1.54,-12.25 -2.605,-16.304 -2.635,4.879 -1.029,12.838 2.605,16.304 z"
         id="path605"
         sodipodi:nodetypes="ccc"
         transform="matrix(-0.796085,-0.605186,-0.605187,0.796084,759.311,201.7509)" />
      <path
         inkscape:connector-curvature="0"
         style="font-size:12px;fill:#0c5c1d;fill-rule:evenodd;stroke-width:0.25"
         d="m 343.465,269.858 c 3.472,-4.803 -0.141,-10.016 -1.636,-13.538 -1.336,5.36 -2.317,11.021 1.636,13.538 z"
         id="path606"
         sodipodi:nodetypes="ccc"
         transform="matrix(-0.906894,-0.421361,-0.421361,0.906893,746.1479,105.2011)" />
      <path
         inkscape:connector-curvature="0"
         style="font-size:12px;fill:#0c5c1d;fill-rule:evenodd;stroke-width:0.25"
         d="m 343.461,270.523 c 1.942,-3.799 0.037,-12.024 -1.67,-15.419 -1.646,2.059 -1.512,15.004 1.67,15.419 z"
         id="path607"
         sodipodi:nodetypes="ccc"
         transform="matrix(-0.997049,0.07678157,0.07678165,0.997048,635.1461,-81.50752)" />
      <path
         inkscape:connector-curvature="0"
         style="font-size:12px;fill:#0c5c1d;fill-rule:evenodd;stroke-width:0.25"
         d="m 343.71,268.925 c 1.978,-4.73 0.006,-9.295 -1.881,-12.605 -1.005,5.368 -1.585,10.487 1.881,12.605 z"
         id="path608"
         sodipodi:nodetypes="ccc"
         transform="matrix(-0.999684,-0.02516794,-0.02516796,0.999683,667.732,-50.74591)" />
      <path
         inkscape:connector-curvature="0"
         style="font-size:12px;fill:#6f8593;fill-rule:evenodd;stroke-width:0.25"
         d="m 374.103,288.35 c 16.942,-16.572 31.673,-30.935 55.244,-45.741 -38.155,29.721 -36.976,32.041 -53.034,46.957 -0.663,-0.553 -1.547,-0.663 -2.21,-1.216 z"
         id="path1073"
         sodipodi:nodetypes="cccc"
         transform="translate(-26.78044,-1.525879e-5)" />
      <path
         inkscape:connector-curvature="0"
         style="font-size:12px;fill:#6a0d06;fill-rule:evenodd;stroke-width:0.25"
         d="m 343.949,292.257 6.312,6.936 19.13,-29.043 8.051,-8.554 -1.949,-2.836 -12.363,12.086 -1.422,2.833 -17.759,18.578 z"
         id="path1066"
         sodipodi:nodetypes="cccccccc"
         transform="translate(-26.78044,-1.525879e-5)" />
      <path
         inkscape:connector-curvature="0"
         style="font-size:12px;fill:#6a0d06;fill-rule:evenodd;stroke-width:0.25"
         d="m 343.286,292.257 8.08,7.157 18.025,-29.264 10.482,-11.427 -2.833,-1.952 -13.91,14.075 -1.422,2.833 -18.422,18.578 z"
         id="path1069"
         sodipodi:nodetypes="cccccccc"
         transform="matrix(-1.000001,0,0,1,764.8805,0.441956)" />
      <path
         inkscape:connector-curvature="0"
         style="font-size:12px;fill:#bbcdcd;fill-rule:evenodd;stroke-width:0.25"
         d="m 369.463,274.595 c -0.166,-1.05 -1.545,-3.093 1.548,-5.856 -0.074,-1.473 -1.583,-3.001 -2.763,-3.756 -0.994,0 -3.866,2.006 -5.137,4.253 -0.719,1.566 -1.087,3.996 -0.166,5.856 0.682,1.031 1.473,2.228 2.32,2.707 0.405,0.294 1.308,0.202 2.044,-0.111 1.16,-0.589 2.044,-2.283 2.154,-3.093 z"
         id="path1071"
         sodipodi:nodetypes="cccccccc"
         transform="matrix(-1.000001,0,0,1,764.9295,0.390686)" />
      <path
         inkscape:connector-curvature="0"
         style="font-size:12px;fill-rule:evenodd;stroke-width:0.25"
         d="m 409.484,224.968 14.106,-14.237 0.845,0.034 0.293,0.94 0.453,1.307 1.671,1.571 22.033,-20.663 -20.72,22.601 -0.978,0.011 -3.023,-3.146 -1.273,0.296 -10.389,12.167 -3.018,-0.881 z"
         id="path1068"
         sodipodi:nodetypes="ccccccccccccc"
         transform="matrix(-1.000001,0,0,1,766.2926,-1.674667)" />
      <path
         inkscape:connector-curvature="0"
         style="font-size:12px;fill-rule:evenodd;stroke-width:0.25"
         d="m 402.001,310.363 c 25.814,-41.923 48.301,-70.815 7.108,-107.865 -1.541,-1.551 -6.862,-6.463 -10.195,-7.521 -0.464,-3.001 1.81,-7.74 -4.001,-8.132 -2.471,0.131 -3.691,1.014 -3.641,3.245 0.005,1.734 0.921,2.493 0.449,4.044 -0.174,0.775 -2.099,2.543 -1.981,4.798 0.748,4.804 2.603,5.98 3.166,6.664 1.008,1.002 1.611,1.708 4.571,2.93 0.328,0.394 1.202,1.129 1.651,1.623 5.439,1.164 10.397,0.57 13.911,2.322 1.532,0.472 3.989,3.072 4.788,4.374 9.925,10.882 14.22,28.345 -0.956,46.782 3.04,0.249 10.316,-12.207 11.978,-22.785 -2.325,15.777 -7.471,21.287 -10.021,26.002 5.098,-3.396 9.201,-15.355 10.156,-17.812 -4.042,21.768 -24.973,48.646 -38.142,54.289 11.92,-2.764 19.917,-14.643 24.158,-18.899 -4.13,8.518 -12.625,20.572 -12.999,25.941 z"
         id="path1110"
         sodipodi:nodetypes="ccsccssccccsccccccc"
         transform="translate(-26.78044,-2.212082)" />
      <path
         inkscape:connector-curvature="0"
         style="font-size:12px;fill:#6f8593;fill-rule:evenodd;stroke-width:0.25"
         d="m 374.103,288.35 c 16.5,-16.682 42.832,-41.873 55.907,-44.636 -20.367,13.148 -38.302,30.826 -53.697,45.852 -0.663,-0.553 -1.547,-0.663 -2.21,-1.216 z"
         id="path1075"
         sodipodi:nodetypes="cccc"
         transform="matrix(-1.000001,0,0,1,767.0586,1.104874)" />
      <path
         inkscape:connector-curvature="0"
         style="font-size:12px;fill-rule:evenodd;stroke-width:0.25"
         d="m 408.073,226.076 15.517,-15.345 0.845,0.034 0.293,0.94 0.453,1.307 1.671,1.571 22.033,-20.663 -20.72,22.601 -0.978,0.011 -3.023,-3.146 -1.273,0.296 -13.21,14.636 -1.608,-2.242 z"
         id="path1265"
         sodipodi:nodetypes="ccccccccccccc"
         transform="translate(-25.44213,-1.674667)" />
      <path
         inkscape:connector-curvature="0"
         style="font-size:12px;fill:#e3cf6e;fill-rule:evenodd;stroke-width:0.25"
         d="m 368.358,218.745 c 0.811,-4.42 2.173,-7.624 6.74,-8.397 11.969,-0.516 23.055,-0.59 35.576,-0.332 3.572,2.836 -0.147,8.655 -3.867,8.95 5.709,9.869 13.517,17.419 14.585,29.057 0.368,6.114 -1.785,10.077 -3.948,12.278 -16.454,0.401 -24.426,2.449 -38.18,3.515 -3.842,0.462 -6.731,-4.007 -6.694,-7.727 0.022,-3.845 1.603,-6.852 5.875,-7.384 1.326,-0.144 3.172,-0.056 4.829,-0.019 -3.204,-9.575 -15.578,-20.918 -14.916,-29.941 z"
         id="path1076"
         sodipodi:nodetypes="ccccccccccc"
         transform="translate(-26.78044,-1.525879e-5)" />
      <path
         inkscape:connector-curvature="0"
         style="font-size:12px;fill:#336446;fill-rule:evenodd;stroke-width:0.25"
         d="m 390.195,196.436 c -1.42,4.56 2.148,8.476 2.711,9.16 1.008,1.002 1.666,1.819 4.626,3.041 0.328,0.394 4.564,2.809 5.17,3.381 4.505,1.181 6.898,-0.843 12.028,0.416 -1.32,-3.26 -15.025,-16.63 -24.535,-15.998 z"
         id="path1114"
         transform="translate(-27.01523,-1.251312)"
         sodipodi:nodetypes="cccccc" />
      <path
         inkscape:connector-curvature="0"
         style="font-size:12px;fill:#402e08;fill-rule:evenodd;stroke-width:0.25"
         d="m 390.078,197.257 c -1.38,2.255 2.265,7.655 2.828,8.339 1.008,1.002 1.666,1.819 4.626,3.041 0.328,0.394 1.795,1.136 2.01,1.395 l 3.88,0.71 c -1.32,-3.26 -8.817,-14.538 -13.344,-13.485 z"
         id="path1113"
         transform="translate(-26.78044,-1.525879e-5)"
         sodipodi:nodetypes="cccccc" />
      <path
         inkscape:connector-curvature="0"
         style="fill:#000000;fill-opacity:1;fill-rule:evenodd;stroke:none"
         d="m 391.704,190.528 -0.922,0.671 1.342,0.671 -0.42,-1.342 z"
         id="path1141"
         transform="translate(-26.9368,-0.978256)" />
      <path
         inkscape:connector-curvature="0"
         style="font-size:12px;fill:#8c361d;fill-rule:evenodd;stroke-width:0.25"
         d="m 389.727,198.838 c 0.748,4.804 2.537,6.111 3.14,6.758 0.968,1.039 1.705,1.702 4.665,3.041 1.188,0.98 1.639,1.254 2.558,1.747 l 3.134,0.466 c -1.32,-3.26 -9.136,-10.687 -13.497,-12.012 z"
         id="path1112"
         transform="translate(-26.78044,-1.525879e-5)"
         sodipodi:nodetypes="cscccc" />
      <path
         inkscape:connector-curvature="0"
         style="font-size:12px;fill:#bbcdcd;fill-rule:evenodd;stroke-width:0.25"
         d="m 369.463,274.595 c -0.166,-1.05 -1.545,-3.093 1.548,-5.856 -0.074,-1.473 -1.583,-3.001 -2.763,-3.756 -0.994,0 -3.866,2.006 -5.137,4.253 -0.719,1.566 -1.087,3.996 -0.166,5.856 0.682,1.031 1.473,2.228 2.32,2.707 0.405,0.294 1.308,0.202 2.044,-0.111 1.16,-0.589 2.044,-2.283 2.154,-3.093 z"
         id="path1070"
         sodipodi:nodetypes="cccccccc"
         transform="translate(-26.78044,-1.525879e-5)" />
      <path
         inkscape:connector-curvature="0"
         style="font-size:12px;fill:#d4be72;fill-rule:evenodd;stroke-width:0.25"
         d="m 371.673,289.896 c -1.4,1.621 -6.886,4.788 -7.955,5.857 -0.884,1.178 1.215,2.799 2.541,2.983 2.357,-1.768 4.714,-4.199 6.849,-5.634 2.979,-2.752 2.782,-2.978 7.625,-1.548 -0.7,-2.578 -5.598,-4.603 -8.397,-5.192 -4.715,0.515 -6.888,2.467 -7.845,5.192 3.13,-2.357 5.267,-3.499 7.182,-1.658 z"
         id="path1072"
         sodipodi:nodetypes="cccccccc"
         transform="translate(-26.78044,-1.525879e-5)" />
      <path
         inkscape:connector-curvature="0"
         style="font-size:12px;fill:#ffffff;fill-rule:evenodd;stroke-width:0.25"
         d="m 368.789,274.589 c -0.088,-0.504 -0.371,-0.776 -0.379,-1.766 -1.033,1.486 -1.526,2.242 -2.869,4.129 0.484,0.646 1.182,0.341 1.84,0.028 0.613,-0.393 1.493,-1.659 1.408,-2.391 z"
         id="path1132"
         sodipodi:nodetypes="ccccc"
         transform="matrix(-1.000001,0,0,1,765.0705,0.331787)" />
      <path
         inkscape:connector-curvature="0"
         style="font-size:12px;fill:#ffffff;fill-rule:evenodd;stroke-width:0.25"
         d="m 368.789,274.589 c -0.088,-0.504 -0.371,-0.776 -0.379,-1.766 -1.033,1.486 -1.526,2.242 -2.869,4.129 0.484,0.646 1.182,0.341 1.84,0.028 0.613,-0.393 1.493,-1.659 1.408,-2.391 z"
         id="path1130"
         sodipodi:nodetypes="ccccc"
         transform="translate(-26.78044,-1.525879e-5)" />
      <path
         inkscape:connector-curvature="0"
         style="font-size:12px;fill:#d4be72;fill-rule:evenodd;stroke-width:0.25"
         d="m 371.673,289.896 c -1.4,1.621 -6.886,4.788 -7.955,5.857 -0.884,1.178 1.215,2.799 2.541,2.983 2.357,-1.768 4.714,-4.199 6.849,-5.634 2.441,-2.932 3.5,-2.799 7.625,-1.548 -0.7,-2.578 -5.598,-4.603 -8.397,-5.192 -4.715,0.515 -6.888,2.467 -7.845,5.192 3.13,-2.357 5.267,-3.499 7.182,-1.658 z"
         id="path1074"
         sodipodi:nodetypes="cccccccc"
         transform="matrix(-1.000001,0,0,1,766.0745,1.104874)" />
      <path
         inkscape:connector-curvature="0"
         style="font-size:12px;fill-rule:evenodd;stroke-width:0.25"
         d="m 383.205,248.719 c 1.172,1.68 2.148,5.39 2.305,7.773 0.208,4.609 -4.467,6.953 -6.056,6.758 -3.02,-0.365 -5.495,-2.643 -5.742,-6.172 0.481,-4.114 2.213,-6.394 5.078,-6.563 1.876,0.326 3.985,2.566 3.985,5.274 -0.052,2.24 -0.69,4.479 -2.071,4.531 -3.359,-0.26 -3.164,-2.2 -3.711,-3.242 -0.143,-0.768 -0.263,-2.847 0.118,-3.359 0.501,-0.622 2.812,-1.445 3.944,0.156 1.224,1.249 -1.809,-0.664 -3.007,0.194 -0.612,0.873 -0.208,2.292 -0.039,2.852 0.209,0.56 0.183,2.409 2.5,2.305 0.847,-0.129 1.146,-1.863 1.211,-3.555 0.131,-1.158 -1.497,-3.489 -3.125,-3.984 -1.133,-0.182 -3.906,2.135 -3.789,5.391 0.222,3.698 3.255,4.974 4.883,4.726 1.653,-0.442 5.104,-1.744 4.961,-5.429 -0.365,-4.063 -1.121,-5.743 -2.423,-7.696 0.508,0 0.47,0 0.978,0.04 z"
         id="path1140"
         sodipodi:nodetypes="ccccccccsccccccccccc"
         transform="translate(-26.78044,-1.525879e-5)" />
      <path
         inkscape:connector-curvature="0"
         style="font-size:12px;fill-rule:evenodd;stroke-width:0.25"
         d="m 407.423,220.008 -0.704,-1.133 -15.156,0 c -4.297,0.391 -10.841,1.042 -13.093,2.018 -5.768,2.839 -7.339,-2.174 -7.652,-3.424 -0.335,-1.146 0.381,-3.216 1.501,-3.945 0.443,-0.847 2.919,-1.774 4.416,-1.214 1.693,0.716 2.429,2.853 2.159,4.299 -0.508,2.149 -4.574,3.476 -3.128,1.289 0.182,-0.961 0.914,-3.633 -0.375,-5.547 l -1.18,0.234 c 1.64,3.415 0.135,5.109 0.057,6.085 -0.077,1.641 1.325,1.498 2.411,1.456 0.742,-0.039 1.994,-0.978 2.502,-1.486 0.611,-0.533 0.705,-1.567 0.78,-2.772 0.192,-3.18 -2.721,-5.443 -4.687,-5.157 -5.976,1.485 -6.12,6.471 -4.766,9.062 0.755,1.302 1.628,2.097 3.086,2.852 1.224,0.365 3.075,0.156 4.531,-0.391 2.883,-1.035 7.555,-1.953 13.376,-2.096 l 15.922,-0.13 z"
         id="path1139"
         sodipodi:nodetypes="ccccccccccccccscccscc"
         transform="translate(-26.78044,-1.525879e-5)" />
    </g>
    <g
       id="g738"
       transform="matrix(0.4895604,0,0.24749469,0.44056844,-70.057522,-5.2697477)"
       style="fill:#8c361d;fill-opacity:1">
      <path
         inkscape:connector-curvature="0"
         style="font-size:12px;font-weight:bold;fill:#8c361d;fill-opacity:1;stroke-width:1pt;font-family:Times New Roman"
         d="m 400.497,402.913 0.239,2.137 -0.21,0.023 c -0.179,-0.479 -0.357,-0.817 -0.532,-1.013 -0.175,-0.201 -0.402,-0.351 -0.681,-0.449 -0.154,-0.053 -0.417,-0.059 -0.785,-0.018 l -0.589,0.066 0.681,6.091 c 0.045,0.403 0.094,0.653 0.148,0.749 0.058,0.096 0.155,0.176 0.292,0.239 0.14,0.059 0.322,0.076 0.548,0.05 l 0.262,-0.029 0.024,0.216 -4.134,0.462 -0.024,-0.216 0.261,-0.029 c 0.23,-0.026 0.409,-0.087 0.54,-0.184 0.095,-0.066 0.165,-0.168 0.208,-0.306 0.032,-0.098 0.026,-0.345 -0.018,-0.741 l -0.68,-6.091 -0.571,0.064 c -0.532,0.059 -0.905,0.215 -1.122,0.466 -0.302,0.353 -0.465,0.825 -0.489,1.417 l -0.222,0.025 -0.239,-2.137 7.093,-0.792 z"
         id="path668"
         transform="translate(-8.838844,144.073)" />
      <path
         inkscape:connector-curvature="0"
         style="font-size:12px;font-weight:bold;fill:#8c361d;fill-opacity:1;stroke-width:1pt;font-family:Times New Roman"
         d="m 379.707,405.695 0.359,3.214 0.157,-0.017 c 0.5,-0.056 0.847,-0.254 1.036,-0.594 0.191,-0.339 0.282,-0.819 0.276,-1.44 l 0.221,-0.024 0.461,4.134 -0.22,0.025 c -0.097,-0.445 -0.238,-0.803 -0.421,-1.073 -0.18,-0.271 -0.374,-0.445 -0.583,-0.519 -0.209,-0.079 -0.502,-0.098 -0.879,-0.056 l 0.249,2.226 c 0.048,0.434 0.096,0.698 0.142,0.791 0.049,0.093 0.128,0.165 0.236,0.216 0.107,0.05 0.274,0.063 0.499,0.038 l 0.472,-0.053 c 0.738,-0.082 1.309,-0.318 1.713,-0.71 0.408,-0.391 0.67,-0.947 0.787,-1.667 l 0.215,-0.024 -0.075,2.549 -6.825,0.762 -0.024,-0.216 0.263,-0.029 c 0.228,-0.025 0.409,-0.087 0.539,-0.184 0.095,-0.066 0.162,-0.167 0.202,-0.305 0.032,-0.098 0.026,-0.345 -0.018,-0.741 l -0.581,-5.194 c -0.039,-0.357 -0.074,-0.576 -0.102,-0.655 -0.054,-0.132 -0.138,-0.228 -0.251,-0.291 -0.16,-0.092 -0.368,-0.124 -0.623,-0.095 l -0.262,0.029 -0.024,-0.215 6.608,-0.738 0.261,2.334 -0.22,0.025 c -0.177,-0.558 -0.382,-0.949 -0.616,-1.175 -0.229,-0.226 -0.537,-0.377 -0.922,-0.451 -0.226,-0.045 -0.637,-0.035 -1.235,0.032 l -0.815,0.091 z"
         id="path671"
         transform="translate(-8.838844,144.073)" />
      <path
         inkscape:connector-curvature="0"
         style="font-size:12px;font-weight:bold;fill:#8c361d;fill-opacity:1;stroke-width:1pt;font-family:Times New Roman"
         d="m 369.036,414.203 0.024,0.216 -4.128,0.461 -0.024,-0.216 0.262,-0.029 c 0.229,-0.026 0.409,-0.087 0.539,-0.184 0.095,-0.066 0.162,-0.167 0.202,-0.305 0.033,-0.099 0.026,-0.345 -0.018,-0.741 l -0.58,-5.195 c -0.045,-0.403 -0.094,-0.653 -0.148,-0.75 -0.054,-0.095 -0.152,-0.173 -0.292,-0.232 -0.137,-0.064 -0.316,-0.083 -0.537,-0.059 l -0.262,0.03 -0.024,-0.215 4.128,-0.461 0.024,0.215 -0.261,0.029 c -0.23,0.025 -0.409,0.087 -0.54,0.184 -0.095,0.066 -0.164,0.168 -0.207,0.307 -0.033,0.097 -0.027,0.345 0.017,0.74 l 0.58,5.195 c 0.045,0.404 0.095,0.654 0.149,0.749 0.058,0.096 0.156,0.176 0.292,0.239 0.14,0.059 0.321,0.076 0.543,0.051 l 0.261,-0.029 z"
         id="path675"
         transform="translate(-8.838844,144.073)" />
      <path
         inkscape:connector-curvature="0"
         style="font-size:12px;font-weight:bold;fill:#8c361d;fill-opacity:1;stroke-width:1pt;font-family:Times New Roman"
         d="m 363.958,412.182 0.013,2.805 -7.011,0.783 -0.024,-0.215 0.262,-0.03 c 0.229,-0.025 0.409,-0.086 0.54,-0.184 0.094,-0.066 0.162,-0.167 0.201,-0.305 0.032,-0.098 0.027,-0.345 -0.017,-0.741 l -0.581,-5.194 c -0.045,-0.404 -0.095,-0.654 -0.149,-0.75 -0.054,-0.096 -0.151,-0.174 -0.29,-0.232 -0.137,-0.065 -0.317,-0.084 -0.538,-0.059 l -0.262,0.029 -0.024,-0.215 4.21,-0.47 0.024,0.215 -0.344,0.038 c -0.228,0.026 -0.408,0.087 -0.539,0.184 -0.095,0.066 -0.164,0.168 -0.208,0.307 -0.032,0.097 -0.026,0.345 0.019,0.741 l 0.561,5.03 c 0.046,0.405 0.097,0.66 0.157,0.768 0.058,0.103 0.159,0.174 0.301,0.214 0.101,0.024 0.338,0.015 0.711,-0.026 l 0.658,-0.074 c 0.419,-0.047 0.76,-0.16 1.022,-0.338 0.264,-0.179 0.479,-0.439 0.645,-0.78 0.17,-0.341 0.311,-0.832 0.425,-1.474 l 0.238,-0.027 z"
         id="path676"
         transform="translate(-8.838844,144.073)" />
      <path
         inkscape:connector-curvature="0"
         style="font-size:12px;font-weight:bold;fill:#8c361d;fill-opacity:1;stroke-width:1pt;font-family:Times New Roman"
         d="m 401.741,553.854 -0.024,-0.215 0.261,-0.03 c 0.23,-0.025 0.401,-0.08 0.513,-0.163 0.116,-0.088 0.196,-0.196 0.24,-0.327 0.026,-0.086 0.017,-0.332 -0.029,-0.74 l -0.58,-5.194 c -0.045,-0.404 -0.095,-0.654 -0.149,-0.75 -0.054,-0.096 -0.15,-0.174 -0.291,-0.232 -0.137,-0.065 -0.316,-0.084 -0.538,-0.059 l -0.261,0.029 -0.024,-0.215 3.534,-0.394 c 0.944,-0.106 1.717,-0.062 2.32,0.129 0.738,0.237 1.323,0.652 1.755,1.249 0.436,0.595 0.699,1.295 0.789,2.099 0.062,0.555 0.03,1.078 -0.096,1.568 -0.127,0.485 -0.315,0.897 -0.564,1.236 -0.249,0.334 -0.55,0.615 -0.902,0.843 -0.349,0.223 -0.785,0.416 -1.31,0.577 -0.231,0.072 -0.601,0.138 -1.11,0.195 l -3.534,0.394 z m 2.178,-7.784 0.688,6.161 c 0.037,0.326 0.075,0.524 0.114,0.595 0.039,0.07 0.098,0.12 0.176,0.151 0.112,0.046 0.266,0.058 0.464,0.036 0.648,-0.072 1.118,-0.348 1.411,-0.829 0.399,-0.65 0.528,-1.604 0.387,-2.861 -0.113,-1.014 -0.362,-1.805 -0.748,-2.376 -0.305,-0.445 -0.665,-0.731 -1.081,-0.857 -0.293,-0.09 -0.763,-0.096 -1.411,-0.02 z"
         id="path724" />
      <path
         inkscape:connector-curvature="0"
         style="font-size:12px;font-weight:bold;fill:#8c361d;fill-opacity:1;stroke-width:1pt;font-family:Times New Roman"
         d="m 397.682,552.032 -2.79,0.311 -0.246,0.807 c -0.08,0.267 -0.111,0.485 -0.092,0.652 0.024,0.221 0.132,0.374 0.322,0.459 0.112,0.051 0.376,0.069 0.79,0.053 l 0.025,0.216 -2.627,0.293 -0.024,-0.215 c 0.278,-0.075 0.499,-0.217 0.66,-0.427 0.161,-0.215 0.341,-0.638 0.542,-1.27 l 2.121,-6.615 0.11,-0.013 3.57,6.157 c 0.341,0.583 0.607,0.944 0.8,1.084 0.145,0.105 0.34,0.155 0.583,0.147 l 0.024,0.216 -3.82,0.427 -0.025,-0.216 0.157,-0.018 c 0.308,-0.034 0.518,-0.101 0.633,-0.2 0.078,-0.071 0.11,-0.165 0.097,-0.282 -0.007,-0.07 -0.026,-0.141 -0.058,-0.211 -0.012,-0.034 -0.086,-0.174 -0.223,-0.418 l -0.529,-0.937 z m -0.247,-0.408 -1.48,-2.589 -0.907,2.855 2.387,-0.266 z"
         id="path727" />
      <path
         inkscape:connector-curvature="0"
         style="font-size:12px;font-weight:bold;fill:#8c361d;fill-opacity:1;stroke-width:1pt;font-family:Times New Roman"
         d="m 379.17,552.732 0.247,2.212 c 0.048,0.427 0.103,0.695 0.166,0.802 0.067,0.102 0.17,0.179 0.309,0.231 0.139,0.051 0.389,0.056 0.751,0.015 l 0.024,0.216 -4.042,0.452 -0.024,-0.216 c 0.365,-0.041 0.608,-0.101 0.728,-0.181 0.125,-0.085 0.206,-0.185 0.245,-0.299 0.041,-0.114 0.039,-0.386 -0.009,-0.813 l -0.572,-5.124 c -0.048,-0.428 -0.105,-0.692 -0.171,-0.794 -0.063,-0.108 -0.165,-0.187 -0.304,-0.238 -0.139,-0.051 -0.39,-0.057 -0.751,-0.017 l -0.024,-0.214 3.669,-0.41 c 0.955,-0.107 1.661,-0.119 2.118,-0.036 0.457,0.082 0.847,0.286 1.166,0.612 0.318,0.323 0.505,0.722 0.558,1.199 0.065,0.583 -0.091,1.087 -0.468,1.515 -0.241,0.27 -0.596,0.493 -1.063,0.667 l 2.197,2.461 c 0.287,0.317 0.488,0.513 0.602,0.587 0.173,0.102 0.364,0.147 0.575,0.136 l 0.024,0.216 -2.486,0.277 -2.946,-3.314 -0.519,0.058 z m -0.433,-3.873 0.387,3.459 0.332,-0.037 c 0.539,-0.06 0.937,-0.154 1.195,-0.281 0.256,-0.13 0.446,-0.333 0.569,-0.606 0.126,-0.277 0.166,-0.623 0.119,-1.039 -0.067,-0.602 -0.259,-1.03 -0.574,-1.286 -0.311,-0.256 -0.779,-0.35 -1.405,-0.28 l -0.623,0.07 z"
         id="path730" />
      <path
         inkscape:connector-curvature="0"
         style="font-size:12px;font-weight:bold;fill:#8c361d;fill-opacity:1;stroke-width:1pt;font-family:Times New Roman"
         d="m 365.333,553.682 c 0.769,0.091 1.318,0.244 1.649,0.458 0.474,0.305 0.742,0.739 0.805,1.302 0.067,0.593 -0.117,1.111 -0.552,1.553 -0.534,0.536 -1.359,0.865 -2.477,0.99 l -4.012,0.448 -0.024,-0.215 c 0.365,-0.041 0.607,-0.102 0.728,-0.181 0.124,-0.086 0.205,-0.185 0.244,-0.299 0.042,-0.115 0.039,-0.386 -0.009,-0.813 l -0.572,-5.125 c -0.048,-0.427 -0.105,-0.691 -0.171,-0.793 -0.064,-0.108 -0.164,-0.187 -0.304,-0.238 -0.139,-0.051 -0.389,-0.057 -0.75,-0.017 l -0.024,-0.215 3.784,-0.422 c 0.905,-0.101 1.555,-0.092 1.95,0.029 0.394,0.117 0.718,0.325 0.971,0.622 0.253,0.295 0.399,0.622 0.44,0.984 0.042,0.379 -0.057,0.735 -0.3,1.065 -0.242,0.325 -0.701,0.614 -1.376,0.867 z m -2.138,0.079 c 0.551,-0.061 0.95,-0.169 1.196,-0.322 0.25,-0.154 0.433,-0.35 0.548,-0.592 0.114,-0.241 0.152,-0.536 0.113,-0.885 -0.039,-0.35 -0.141,-0.627 -0.305,-0.833 -0.161,-0.209 -0.376,-0.359 -0.646,-0.446 -0.269,-0.088 -0.687,-0.098 -1.253,-0.031 l 0.347,3.109 z m 0.051,0.455 0.283,2.533 0.027,0.292 c 0.023,0.209 0.094,0.363 0.21,0.459 0.121,0.093 0.286,0.127 0.496,0.104 0.31,-0.035 0.587,-0.134 0.832,-0.299 0.249,-0.169 0.429,-0.392 0.539,-0.667 0.11,-0.28 0.147,-0.581 0.111,-0.903 -0.041,-0.369 -0.163,-0.689 -0.367,-0.962 -0.203,-0.276 -0.461,-0.455 -0.773,-0.538 -0.311,-0.083 -0.765,-0.09 -1.358,-0.019 z"
         id="path734" />
    </g>
    <g
       id="g747"
       transform="matrix(0.4895604,0,0.23063284,0.44056844,-54.480294,-6.0760966)"
       style="fill:#8c361d;fill-opacity:1">
      <path
         inkscape:connector-curvature="0"
         style="font-size:12px;font-weight:bold;fill:#8c361d;fill-opacity:1;stroke-width:1pt;font-family:Times New Roman"
         d="m 384.008,417.289 0.359,3.214 0.158,-0.017 c 0.501,-0.056 0.846,-0.254 1.036,-0.594 0.19,-0.339 0.281,-0.819 0.276,-1.44 l 0.221,-0.024 0.462,4.134 -0.222,0.025 c -0.097,-0.445 -0.237,-0.803 -0.42,-1.073 -0.18,-0.271 -0.374,-0.444 -0.583,-0.519 -0.21,-0.079 -0.502,-0.098 -0.879,-0.055 l 0.248,2.225 c 0.049,0.434 0.097,0.698 0.142,0.791 0.05,0.093 0.129,0.165 0.237,0.216 0.108,0.05 0.274,0.063 0.499,0.038 l 0.472,-0.053 c 0.737,-0.082 1.309,-0.318 1.713,-0.709 0.408,-0.392 0.671,-0.948 0.786,-1.668 l 0.216,-0.024 -0.075,2.549 -6.825,0.762 -0.024,-0.215 0.262,-0.03 c 0.229,-0.025 0.409,-0.087 0.539,-0.184 0.096,-0.066 0.163,-0.167 0.203,-0.305 0.032,-0.098 0.025,-0.345 -0.019,-0.741 l -0.58,-5.194 c -0.04,-0.357 -0.073,-0.576 -0.102,-0.655 -0.054,-0.132 -0.137,-0.228 -0.251,-0.291 -0.159,-0.092 -0.367,-0.124 -0.624,-0.095 l -0.262,0.029 -0.024,-0.215 6.61,-0.738 0.261,2.335 -0.222,0.024 c -0.176,-0.558 -0.382,-0.949 -0.615,-1.175 -0.23,-0.226 -0.537,-0.376 -0.923,-0.451 -0.225,-0.045 -0.637,-0.035 -1.234,0.032 l -0.816,0.091 z"
         id="path677"
         transform="translate(-8.838844,144.073)" />
      <path
         inkscape:connector-curvature="0"
         style="font-size:12px;font-weight:bold;fill:#8c361d;fill-opacity:1;stroke-width:1pt;font-family:Times New Roman"
         d="m 364.969,418.956 3.698,-0.413 -0.421,1.567 -3.11,0.348 -0.209,0.819 c 1.345,-0.099 2.413,0.12 3.205,0.656 0.65,0.443 1.018,1.043 1.102,1.799 0.054,0.486 -0.031,0.977 -0.254,1.473 -0.224,0.493 -0.572,0.893 -1.045,1.202 -0.473,0.304 -1.009,0.49 -1.606,0.557 -0.645,0.072 -1.154,0.007 -1.525,-0.195 -0.26,-0.144 -0.403,-0.325 -0.427,-0.542 -0.019,-0.167 0.027,-0.322 0.137,-0.464 0.114,-0.142 0.254,-0.223 0.421,-0.242 0.152,-0.017 0.309,-0.003 0.471,0.042 0.162,0.045 0.446,0.178 0.852,0.4 0.255,0.137 0.471,0.226 0.649,0.27 0.126,0.033 0.264,0.041 0.415,0.024 0.319,-0.036 0.576,-0.182 0.771,-0.439 0.199,-0.259 0.281,-0.551 0.245,-0.877 -0.077,-0.684 -0.481,-1.2 -1.212,-1.551 -0.73,-0.351 -1.616,-0.468 -2.656,-0.351 -0.106,0.011 -0.263,0.031 -0.472,0.057 l 0.971,-4.14 z"
         id="path680"
         transform="translate(-8.838844,144.073)" />
      <path
         inkscape:connector-curvature="0"
         style="font-size:12px;font-weight:bold;fill:#8c361d;fill-opacity:1;stroke-width:1pt;font-family:Times New Roman"
         d="m 361.055,419.228 0.721,6.458 c 0.054,0.485 0.11,0.793 0.168,0.924 0.058,0.127 0.158,0.226 0.304,0.296 0.146,0.07 0.368,0.089 0.666,0.056 l 0.181,-0.021 0.024,0.216 -4.158,0.464 -0.024,-0.215 0.21,-0.024 c 0.338,-0.037 0.574,-0.103 0.709,-0.197 0.135,-0.093 0.22,-0.211 0.256,-0.352 0.035,-0.142 0.025,-0.461 -0.031,-0.958 l -0.457,-4.094 c -0.041,-0.365 -0.084,-0.59 -0.129,-0.675 -0.045,-0.09 -0.119,-0.16 -0.223,-0.211 -0.101,-0.056 -0.213,-0.076 -0.337,-0.063 -0.198,0.023 -0.432,0.111 -0.702,0.267 l -0.128,-0.198 2.758,-1.651 0.192,-0.022 z"
         id="path681"
         transform="translate(-8.838844,144.073)" />
      <path
         inkscape:connector-curvature="0"
         style="font-size:12px;font-weight:bold;fill:#8c361d;fill-opacity:1;stroke-width:1pt;font-family:Times New Roman"
         d="m 364.296,570.111 -0.024,-0.215 0.262,-0.03 c 0.229,-0.025 0.4,-0.08 0.512,-0.163 0.116,-0.088 0.197,-0.197 0.242,-0.327 0.025,-0.086 0.015,-0.332 -0.031,-0.74 l -0.58,-5.194 c -0.045,-0.404 -0.094,-0.654 -0.148,-0.75 -0.054,-0.096 -0.151,-0.174 -0.292,-0.232 -0.137,-0.065 -0.316,-0.084 -0.536,-0.059 l -0.263,0.029 -0.024,-0.215 3.535,-0.394 c 0.943,-0.106 1.717,-0.062 2.32,0.129 0.738,0.236 1.322,0.652 1.754,1.249 0.436,0.595 0.7,1.295 0.789,2.099 0.062,0.555 0.03,1.078 -0.096,1.568 -0.126,0.485 -0.315,0.897 -0.564,1.236 -0.249,0.334 -0.55,0.615 -0.902,0.843 -0.348,0.223 -0.784,0.416 -1.309,0.577 -0.232,0.072 -0.602,0.138 -1.11,0.194 l -3.535,0.395 z m 2.179,-7.784 0.688,6.161 c 0.036,0.326 0.074,0.524 0.113,0.595 0.04,0.07 0.098,0.12 0.176,0.151 0.112,0.046 0.266,0.058 0.465,0.036 0.648,-0.072 1.118,-0.348 1.411,-0.83 0.398,-0.649 0.528,-1.603 0.388,-2.86 -0.114,-1.014 -0.363,-1.805 -0.75,-2.376 -0.305,-0.445 -0.665,-0.731 -1.08,-0.857 -0.292,-0.09 -0.763,-0.096 -1.411,-0.02 z"
         id="path737" />
    </g>
    <g
       id="g752"
       transform="matrix(0.4895604,0,0.25230337,0.44056844,-76.382508,-4.9472081)"
       style="fill:#8c361d;fill-opacity:1">
      <path
         inkscape:connector-curvature="0"
         style="font-size:12px;font-weight:bold;fill:#8c361d;fill-opacity:1;stroke-width:1pt;font-family:Times New Roman"
         d="m 432.066,423.996 0.359,3.214 0.157,-0.017 c 0.501,-0.056 0.846,-0.254 1.036,-0.594 0.191,-0.339 0.282,-0.819 0.276,-1.44 l 0.221,-0.024 0.461,4.134 -0.22,0.025 c -0.097,-0.445 -0.238,-0.803 -0.421,-1.073 -0.18,-0.271 -0.374,-0.444 -0.583,-0.519 -0.209,-0.079 -0.502,-0.098 -0.879,-0.056 l 0.249,2.226 c 0.048,0.434 0.096,0.698 0.142,0.791 0.049,0.093 0.128,0.165 0.236,0.216 0.107,0.05 0.274,0.063 0.499,0.038 l 0.472,-0.053 c 0.738,-0.082 1.308,-0.318 1.713,-0.71 0.408,-0.391 0.67,-0.947 0.787,-1.667 l 0.215,-0.024 -0.075,2.549 -6.824,0.762 -0.025,-0.216 0.262,-0.029 c 0.229,-0.025 0.409,-0.087 0.54,-0.184 0.095,-0.066 0.162,-0.167 0.201,-0.305 0.032,-0.098 0.027,-0.345 -0.017,-0.741 l -0.58,-5.194 c -0.04,-0.357 -0.075,-0.576 -0.103,-0.655 -0.054,-0.132 -0.138,-0.228 -0.251,-0.291 -0.16,-0.092 -0.368,-0.124 -0.624,-0.095 l -0.261,0.029 -0.024,-0.215 6.609,-0.738 0.26,2.334 -0.22,0.025 c -0.177,-0.558 -0.382,-0.949 -0.616,-1.175 -0.229,-0.226 -0.537,-0.377 -0.922,-0.451 -0.226,-0.045 -0.637,-0.035 -1.235,0.032 l -0.815,0.091 z"
         id="path682"
         transform="translate(-8.838844,144.073)" />
      <path
         inkscape:connector-curvature="0"
         style="font-size:12px;font-weight:bold;fill:#8c361d;fill-opacity:1;stroke-width:1pt;font-family:Times New Roman"
         d="m 407.207,431.583 1.561,-5.445 3.215,-0.359 0.024,0.215 -0.256,0.029 c -0.233,0.026 -0.415,0.087 -0.545,0.184 -0.091,0.066 -0.158,0.166 -0.203,0.301 -0.032,0.098 -0.026,0.343 0.018,0.734 l 0.581,5.207 c 0.046,0.403 0.095,0.653 0.149,0.749 0.054,0.097 0.151,0.176 0.292,0.239 0.14,0.059 0.32,0.076 0.542,0.051 l 0.256,-0.028 0.024,0.215 -4.123,0.461 -0.024,-0.216 0.256,-0.028 c 0.234,-0.027 0.415,-0.088 0.546,-0.185 0.091,-0.066 0.158,-0.167 0.202,-0.305 0.032,-0.099 0.026,-0.346 -0.018,-0.741 l -0.653,-5.853 -2.224,7.542 -0.14,0.015 -3.874,-6.807 0.621,5.561 c 0.044,0.388 0.08,0.626 0.11,0.713 0.072,0.188 0.199,0.335 0.379,0.441 0.185,0.102 0.457,0.132 0.818,0.091 l 0.024,0.216 -2.701,0.302 -0.025,-0.216 0.082,-0.009 c 0.174,-0.015 0.335,-0.061 0.48,-0.136 0.144,-0.079 0.249,-0.173 0.316,-0.283 0.067,-0.11 0.11,-0.258 0.133,-0.445 0.003,-0.044 -0.015,-0.242 -0.055,-0.595 l -0.558,-4.997 c -0.044,-0.4 -0.094,-0.646 -0.147,-0.738 -0.054,-0.096 -0.151,-0.174 -0.291,-0.232 -0.141,-0.064 -0.322,-0.083 -0.543,-0.058 l -0.25,0.028 -0.024,-0.215 3.226,-0.36 2.799,4.957 z"
         id="path688"
         transform="translate(-8.838844,144.073)" />
      <path
         inkscape:connector-curvature="0"
         style="font-size:12px;font-weight:bold;fill:#8c361d;fill-opacity:1;stroke-width:1pt;font-family:Times New Roman"
         d="m 396.288,427.992 0.359,3.214 0.157,-0.017 c 0.501,-0.056 0.846,-0.254 1.037,-0.594 0.19,-0.339 0.281,-0.819 0.276,-1.439 l 0.22,-0.025 0.462,4.134 -0.221,0.025 c -0.097,-0.445 -0.237,-0.803 -0.42,-1.073 -0.181,-0.271 -0.375,-0.444 -0.584,-0.519 -0.209,-0.079 -0.502,-0.097 -0.878,-0.055 l 0.248,2.225 c 0.049,0.434 0.097,0.698 0.142,0.791 0.05,0.093 0.128,0.165 0.237,0.216 0.107,0.05 0.273,0.063 0.499,0.038 l 0.472,-0.053 c 0.737,-0.082 1.308,-0.318 1.713,-0.709 0.408,-0.392 0.67,-0.948 0.786,-1.668 l 0.215,-0.024 -0.074,2.549 -6.825,0.762 -0.024,-0.215 0.261,-0.03 c 0.23,-0.025 0.409,-0.087 0.54,-0.184 0.095,-0.066 0.163,-0.167 0.202,-0.305 0.032,-0.098 0.026,-0.345 -0.018,-0.741 l -0.58,-5.194 c -0.04,-0.357 -0.074,-0.576 -0.102,-0.655 -0.054,-0.132 -0.138,-0.228 -0.251,-0.291 -0.16,-0.092 -0.368,-0.124 -0.625,-0.095 l -0.261,0.029 -0.024,-0.215 6.609,-0.738 0.261,2.335 -0.221,0.024 c -0.177,-0.558 -0.382,-0.949 -0.615,-1.175 -0.23,-0.226 -0.537,-0.376 -0.923,-0.451 -0.225,-0.045 -0.637,-0.035 -1.235,0.032 l -0.815,0.091 z"
         id="path689"
         transform="translate(-8.838844,144.073)" />
      <path
         inkscape:connector-curvature="0"
         style="font-size:12px;font-weight:bold;fill:#8c361d;fill-opacity:1;stroke-width:1pt;font-family:Times New Roman"
         d="m 393.572,435.612 0.024,0.216 -4.128,0.461 -0.024,-0.216 0.262,-0.029 c 0.229,-0.026 0.409,-0.087 0.539,-0.184 0.095,-0.066 0.163,-0.167 0.202,-0.306 0.033,-0.098 0.026,-0.345 -0.018,-0.74 l -0.58,-5.195 c -0.045,-0.403 -0.094,-0.653 -0.148,-0.75 -0.054,-0.096 -0.151,-0.173 -0.292,-0.232 -0.137,-0.064 -0.316,-0.084 -0.537,-0.059 l -0.262,0.029 -0.024,-0.214 4.128,-0.461 0.024,0.214 -0.262,0.03 c -0.229,0.025 -0.409,0.087 -0.539,0.184 -0.095,0.066 -0.164,0.168 -0.207,0.306 -0.033,0.098 -0.027,0.346 0.017,0.741 l 0.58,5.195 c 0.045,0.403 0.095,0.653 0.149,0.749 0.057,0.096 0.155,0.176 0.292,0.239 0.14,0.059 0.321,0.076 0.542,0.051 l 0.262,-0.029 z"
         id="path690"
         transform="translate(-8.838844,144.073)" />
      <path
         inkscape:connector-curvature="0"
         style="font-size:12px;font-weight:bold;fill:#8c361d;fill-opacity:1;stroke-width:1pt;font-family:Times New Roman"
         d="m 387.916,428.468 0.239,2.136 -0.21,0.024 c -0.179,-0.479 -0.357,-0.818 -0.532,-1.014 -0.175,-0.2 -0.402,-0.35 -0.681,-0.449 -0.155,-0.053 -0.417,-0.059 -0.786,-0.018 l -0.588,0.066 0.68,6.091 c 0.045,0.404 0.096,0.654 0.149,0.749 0.058,0.097 0.155,0.176 0.292,0.239 0.14,0.059 0.323,0.076 0.548,0.051 l 0.262,-0.029 0.024,0.215 -4.134,0.462 -0.024,-0.216 0.261,-0.029 c 0.23,-0.025 0.409,-0.087 0.54,-0.184 0.095,-0.066 0.165,-0.167 0.208,-0.306 0.032,-0.098 0.026,-0.345 -0.018,-0.74 l -0.68,-6.092 -0.571,0.064 c -0.532,0.06 -0.905,0.215 -1.122,0.467 -0.301,0.352 -0.465,0.824 -0.489,1.417 l -0.222,0.024 -0.239,-2.136 7.093,-0.792 z"
         id="path691"
         transform="translate(-8.838844,144.073)" />
      <path
         inkscape:connector-curvature="0"
         style="font-size:12px;font-weight:bold;fill:#8c361d;fill-opacity:1;stroke-width:1pt;font-family:Times New Roman"
         d="m 368.453,431.101 0.359,3.214 0.157,-0.017 c 0.501,-0.056 0.847,-0.254 1.037,-0.594 0.19,-0.339 0.282,-0.819 0.276,-1.439 l 0.22,-0.025 0.462,4.134 -0.221,0.025 c -0.097,-0.445 -0.237,-0.803 -0.42,-1.073 -0.18,-0.271 -0.374,-0.444 -0.583,-0.519 -0.21,-0.079 -0.502,-0.097 -0.879,-0.055 l 0.248,2.225 c 0.049,0.434 0.097,0.698 0.142,0.791 0.05,0.093 0.128,0.165 0.237,0.216 0.107,0.05 0.274,0.063 0.499,0.038 l 0.472,-0.053 c 0.737,-0.082 1.309,-0.318 1.713,-0.709 0.408,-0.392 0.67,-0.948 0.787,-1.668 l 0.215,-0.024 -0.075,2.549 -6.825,0.762 -0.024,-0.215 0.262,-0.03 c 0.229,-0.025 0.409,-0.087 0.539,-0.184 0.096,-0.066 0.163,-0.167 0.203,-0.305 0.032,-0.098 0.026,-0.345 -0.019,-0.741 l -0.58,-5.194 c -0.04,-0.357 -0.074,-0.576 -0.102,-0.655 -0.054,-0.132 -0.138,-0.228 -0.251,-0.291 -0.159,-0.092 -0.368,-0.124 -0.623,-0.095 l -0.263,0.029 -0.024,-0.215 6.609,-0.738 0.261,2.335 -0.221,0.024 c -0.177,-0.558 -0.382,-0.949 -0.615,-1.175 -0.23,-0.226 -0.537,-0.376 -0.923,-0.451 -0.225,-0.045 -0.637,-0.035 -1.234,0.032 l -0.816,0.091 z"
         id="path694"
         transform="translate(-8.838844,144.073)" />
      <path
         inkscape:connector-curvature="0"
         style="font-size:12px;font-weight:bold;fill:#8c361d;fill-opacity:1;stroke-width:1pt;font-family:Times New Roman"
         d="m 364.103,430.944 0.357,2.625 -0.238,0.026 c -0.186,-0.647 -0.524,-1.146 -1.01,-1.496 -0.484,-0.354 -0.982,-0.504 -1.495,-0.447 -0.396,0.045 -0.698,0.187 -0.908,0.427 -0.205,0.235 -0.293,0.49 -0.262,0.766 0.019,0.175 0.077,0.325 0.175,0.452 0.133,0.169 0.333,0.33 0.601,0.481 0.197,0.108 0.644,0.288 1.34,0.54 0.975,0.351 1.647,0.711 2.014,1.078 0.363,0.368 0.573,0.812 0.631,1.333 0.074,0.66 -0.121,1.257 -0.583,1.793 -0.46,0.53 -1.086,0.84 -1.878,0.928 -0.248,0.028 -0.485,0.029 -0.713,0.003 -0.226,-0.026 -0.515,-0.089 -0.864,-0.192 -0.195,-0.057 -0.352,-0.078 -0.474,-0.065 -0.1,0.011 -0.203,0.062 -0.307,0.152 -0.103,0.09 -0.181,0.219 -0.233,0.387 l -0.216,0.024 -0.333,-2.982 0.216,-0.024 c 0.264,0.819 0.664,1.423 1.198,1.811 0.538,0.385 1.089,0.545 1.652,0.482 0.434,-0.049 0.767,-0.205 0.997,-0.471 0.234,-0.265 0.332,-0.556 0.297,-0.87 -0.021,-0.187 -0.091,-0.361 -0.211,-0.525 -0.117,-0.164 -0.285,-0.312 -0.504,-0.445 -0.219,-0.136 -0.6,-0.302 -1.14,-0.497 -0.758,-0.274 -1.308,-0.516 -1.65,-0.729 -0.342,-0.214 -0.616,-0.465 -0.821,-0.752 -0.201,-0.288 -0.322,-0.617 -0.364,-0.986 -0.07,-0.629 0.101,-1.19 0.514,-1.684 0.412,-0.494 0.97,-0.781 1.673,-0.859 0.256,-0.029 0.508,-0.026 0.755,0.01 0.189,0.026 0.419,0.088 0.694,0.187 0.278,0.095 0.469,0.137 0.574,0.125 0.1,-0.011 0.176,-0.051 0.228,-0.12 0.051,-0.068 0.089,-0.224 0.113,-0.466 l 0.175,-0.02 z"
         id="path695"
         transform="translate(-8.838844,144.073)" />
      <path
         inkscape:connector-curvature="0"
         style="font-size:12px;font-weight:bold;fill:#8c361d;fill-opacity:1;stroke-width:1pt;font-family:Times New Roman"
         d="m 367.972,578.155 0.244,2.189 c 0.048,0.428 0.103,0.695 0.166,0.802 0.067,0.102 0.169,0.179 0.309,0.231 0.143,0.05 0.393,0.056 0.75,0.016 l 0.024,0.216 -4.012,0.448 -0.024,-0.216 c 0.366,-0.041 0.609,-0.101 0.729,-0.181 0.124,-0.085 0.205,-0.185 0.244,-0.299 0.042,-0.114 0.039,-0.386 -0.008,-0.813 l -0.573,-5.124 c -0.047,-0.428 -0.104,-0.692 -0.171,-0.794 -0.063,-0.108 -0.165,-0.187 -0.304,-0.238 -0.139,-0.051 -0.389,-0.057 -0.751,-0.017 l -0.024,-0.214 3.442,-0.385 c 1.134,-0.126 1.969,-0.015 2.507,0.333 0.538,0.349 0.841,0.826 0.909,1.431 0.057,0.513 -0.053,0.969 -0.33,1.37 -0.277,0.4 -0.689,0.698 -1.233,0.892 -0.366,0.135 -0.998,0.253 -1.894,0.353 z m -0.432,-3.866 0.381,3.412 c 0.129,-0.007 0.226,-0.013 0.293,-0.021 0.473,-0.053 0.823,-0.234 1.047,-0.541 0.225,-0.312 0.304,-0.764 0.238,-1.353 -0.065,-0.587 -0.241,-1.002 -0.528,-1.244 -0.286,-0.244 -0.684,-0.336 -1.193,-0.28 l -0.238,0.027 z"
         id="path714" />
      <path
         inkscape:connector-curvature="0"
         style="font-size:12px;font-weight:bold;fill:#8c361d;fill-opacity:1;stroke-width:1pt;font-family:Times New Roman"
         d="m 409.079,572.945 c 0.768,0.091 1.319,0.244 1.649,0.459 0.474,0.304 0.743,0.738 0.806,1.301 0.066,0.593 -0.118,1.111 -0.552,1.553 -0.534,0.536 -1.359,0.865 -2.477,0.99 l -4.012,0.448 -0.025,-0.215 c 0.365,-0.041 0.608,-0.102 0.729,-0.181 0.124,-0.086 0.205,-0.185 0.243,-0.299 0.043,-0.115 0.04,-0.386 -0.008,-0.813 l -0.572,-5.125 c -0.048,-0.427 -0.105,-0.691 -0.172,-0.793 -0.063,-0.108 -0.163,-0.187 -0.303,-0.238 -0.139,-0.051 -0.39,-0.057 -0.75,-0.017 l -0.024,-0.215 3.784,-0.422 c 0.904,-0.101 1.555,-0.092 1.949,0.029 0.395,0.117 0.718,0.325 0.971,0.622 0.254,0.295 0.4,0.622 0.44,0.984 0.043,0.379 -0.056,0.735 -0.299,1.065 -0.243,0.325 -0.701,0.614 -1.377,0.867 z m -2.137,0.079 c 0.551,-0.061 0.95,-0.169 1.196,-0.322 0.25,-0.154 0.432,-0.351 0.547,-0.592 0.114,-0.241 0.153,-0.536 0.114,-0.885 -0.039,-0.35 -0.142,-0.627 -0.306,-0.833 -0.161,-0.209 -0.376,-0.359 -0.645,-0.446 -0.269,-0.088 -0.687,-0.098 -1.253,-0.031 l 0.347,3.109 z m 0.051,0.455 0.283,2.533 0.026,0.292 c 0.024,0.209 0.094,0.363 0.211,0.459 0.12,0.093 0.285,0.127 0.495,0.104 0.31,-0.035 0.588,-0.134 0.833,-0.299 0.248,-0.169 0.428,-0.392 0.538,-0.667 0.111,-0.28 0.148,-0.581 0.112,-0.903 -0.041,-0.369 -0.164,-0.689 -0.367,-0.962 -0.204,-0.276 -0.462,-0.455 -0.774,-0.538 -0.311,-0.083 -0.764,-0.09 -1.357,-0.019 z"
         id="path718" />
      <path
         inkscape:connector-curvature="0"
         style="font-size:12px;font-weight:bold;fill:#8c361d;fill-opacity:1;stroke-width:1pt;font-family:Times New Roman"
         d="m 414.962,572.883 0.247,2.213 c 0.048,0.427 0.103,0.694 0.166,0.801 0.067,0.102 0.17,0.179 0.309,0.231 0.139,0.051 0.389,0.056 0.751,0.016 l 0.024,0.216 -4.042,0.451 -0.024,-0.216 c 0.365,-0.04 0.608,-0.101 0.729,-0.181 0.124,-0.085 0.205,-0.185 0.244,-0.299 0.041,-0.114 0.039,-0.385 -0.008,-0.813 l -0.573,-5.124 c -0.048,-0.427 -0.105,-0.691 -0.171,-0.794 -0.063,-0.107 -0.165,-0.187 -0.304,-0.237 -0.139,-0.051 -0.39,-0.057 -0.751,-0.017 l -0.024,-0.215 3.669,-0.41 c 0.956,-0.106 1.662,-0.119 2.119,-0.036 0.457,0.083 0.846,0.287 1.165,0.612 0.319,0.323 0.505,0.723 0.558,1.2 0.065,0.582 -0.091,1.087 -0.467,1.514 -0.242,0.271 -0.596,0.493 -1.064,0.667 l 2.197,2.462 c 0.287,0.317 0.488,0.513 0.602,0.586 0.173,0.103 0.364,0.148 0.575,0.136 l 0.024,0.216 -2.486,0.278 -2.946,-3.315 -0.519,0.058 z m -0.433,-3.873 0.387,3.46 0.332,-0.037 c 0.539,-0.06 0.937,-0.154 1.195,-0.282 0.256,-0.13 0.446,-0.332 0.569,-0.606 0.126,-0.276 0.166,-0.623 0.12,-1.038 -0.068,-0.602 -0.259,-1.031 -0.575,-1.286 -0.311,-0.256 -0.779,-0.35 -1.405,-0.28 l -0.623,0.069 z"
         id="path721" />
    </g>
    <g
       id="g763"
       transform="matrix(0.4895604,0,0.15289925,0.44056844,-12.893866,-5.5922872)"
       style="fill:#8c361d;fill-opacity:1">
      <path
         inkscape:connector-curvature="0"
         style="font-size:12px;font-weight:bold;fill:#8c361d;fill-opacity:1;stroke-width:1pt;font-family:Times New Roman"
         d="m 401.156,438.898 0.721,6.458 c 0.054,0.485 0.111,0.793 0.168,0.924 0.057,0.128 0.159,0.226 0.304,0.296 0.146,0.071 0.368,0.089 0.667,0.056 l 0.181,-0.021 0.024,0.216 -4.158,0.465 -0.025,-0.216 0.21,-0.024 c 0.338,-0.037 0.574,-0.103 0.71,-0.196 0.134,-0.094 0.22,-0.212 0.255,-0.353 0.036,-0.142 0.025,-0.461 -0.03,-0.958 l -0.458,-4.094 c -0.04,-0.365 -0.084,-0.589 -0.128,-0.675 -0.046,-0.09 -0.12,-0.16 -0.224,-0.21 -0.101,-0.057 -0.213,-0.077 -0.337,-0.063 -0.198,0.022 -0.433,0.11 -0.702,0.266 l -0.128,-0.198 2.758,-1.651 0.192,-0.022 z"
         id="path696"
         transform="translate(-8.838844,144.073)" />
      <path
         inkscape:connector-curvature="0"
         style="font-size:12px;font-weight:bold;fill:#8c361d;fill-opacity:1;stroke-width:1pt;font-family:Times New Roman"
         d="m 397.147,447.505 -4.647,0.52 -0.014,-0.129 c 1.235,-1.855 1.972,-3.093 2.209,-3.713 0.241,-0.62 0.33,-1.21 0.268,-1.769 -0.046,-0.408 -0.21,-0.732 -0.492,-0.971 -0.283,-0.244 -0.606,-0.346 -0.971,-0.305 -0.598,0.067 -1.029,0.418 -1.292,1.053 l -0.224,-0.052 c 0.126,-0.768 0.384,-1.355 0.77,-1.76 0.388,-0.405 0.861,-0.638 1.42,-0.701 0.4,-0.044 0.775,0.007 1.126,0.157 0.35,0.149 0.637,0.377 0.86,0.682 0.222,0.301 0.35,0.594 0.381,0.877 0.058,0.517 -0.028,1.057 -0.255,1.62 -0.312,0.763 -1.056,1.86 -2.233,3.293 l 1.707,-0.191 c 0.419,-0.047 0.688,-0.095 0.809,-0.144 0.124,-0.049 0.223,-0.119 0.295,-0.21 0.072,-0.094 0.159,-0.282 0.261,-0.565 l 0.21,-0.024 -0.188,2.332 z"
         id="path697"
         transform="translate(-8.838844,144.073)" />
      <path
         inkscape:connector-curvature="0"
         style="font-size:12px;font-weight:bold;fill:#8c361d;fill-opacity:1;stroke-width:1pt;font-family:Times New Roman"
         d="m 383.267,440.896 0.721,6.458 c 0.055,0.485 0.111,0.793 0.168,0.924 0.057,0.128 0.159,0.226 0.305,0.296 0.145,0.071 0.367,0.089 0.666,0.056 l 0.181,-0.02 0.024,0.215 -4.158,0.465 -0.024,-0.216 0.209,-0.023 c 0.338,-0.038 0.574,-0.104 0.71,-0.197 0.134,-0.094 0.22,-0.212 0.255,-0.353 0.036,-0.142 0.025,-0.461 -0.03,-0.957 l -0.457,-4.095 c -0.041,-0.365 -0.084,-0.589 -0.129,-0.675 -0.045,-0.089 -0.12,-0.16 -0.224,-0.21 -0.101,-0.057 -0.213,-0.077 -0.337,-0.063 -0.198,0.022 -0.432,0.11 -0.702,0.266 l -0.127,-0.198 2.757,-1.651 0.192,-0.022 z"
         id="path701"
         transform="translate(-8.838844,144.073)" />
      <path
         inkscape:connector-curvature="0"
         style="font-size:12px;font-weight:bold;fill:#8c361d;fill-opacity:1;stroke-width:1pt;font-family:Times New Roman"
         d="m 371.765,442.806 0.359,3.214 0.158,-0.018 c 0.501,-0.056 0.846,-0.253 1.035,-0.593 0.191,-0.339 0.282,-0.82 0.276,-1.44 l 0.222,-0.025 0.462,4.135 -0.222,0.025 c -0.097,-0.445 -0.237,-0.803 -0.421,-1.073 -0.179,-0.271 -0.373,-0.445 -0.582,-0.519 -0.21,-0.079 -0.503,-0.098 -0.879,-0.056 l 0.248,2.225 c 0.049,0.435 0.096,0.699 0.142,0.792 0.05,0.093 0.129,0.164 0.236,0.216 0.109,0.05 0.275,0.063 0.5,0.038 l 0.472,-0.053 c 0.737,-0.083 1.308,-0.318 1.713,-0.71 0.408,-0.391 0.671,-0.947 0.786,-1.667 l 0.216,-0.024 -0.076,2.549 -6.824,0.762 -0.024,-0.216 0.262,-0.029 c 0.229,-0.026 0.409,-0.087 0.539,-0.184 0.095,-0.066 0.163,-0.167 0.202,-0.305 0.033,-0.099 0.026,-0.345 -0.018,-0.741 l -0.58,-5.195 c -0.04,-0.356 -0.073,-0.575 -0.102,-0.654 -0.054,-0.132 -0.138,-0.228 -0.251,-0.291 -0.159,-0.092 -0.367,-0.124 -0.624,-0.096 l -0.262,0.03 -0.024,-0.215 6.61,-0.738 0.261,2.334 -0.222,0.025 c -0.176,-0.558 -0.382,-0.949 -0.615,-1.175 -0.23,-0.226 -0.537,-0.377 -0.923,-0.451 -0.225,-0.046 -0.637,-0.035 -1.234,0.032 l -0.816,0.091 z"
         id="path702"
         transform="translate(-8.838844,144.073)" />
      <path
         inkscape:connector-curvature="0"
         style="font-size:12px;font-weight:bold;fill:#8c361d;fill-opacity:1;stroke-width:1pt;font-family:Times New Roman"
         d="m 352.053,595.628 -0.024,-0.216 0.262,-0.029 c 0.229,-0.025 0.4,-0.08 0.512,-0.163 0.116,-0.088 0.197,-0.197 0.241,-0.328 0.026,-0.085 0.016,-0.331 -0.03,-0.739 l -0.58,-5.194 c -0.045,-0.404 -0.094,-0.654 -0.148,-0.751 -0.054,-0.095 -0.151,-0.173 -0.292,-0.232 -0.137,-0.064 -0.316,-0.083 -0.537,-0.059 l -0.262,0.03 -0.024,-0.215 3.535,-0.395 c 0.943,-0.105 1.717,-0.062 2.32,0.13 0.738,0.236 1.322,0.652 1.754,1.249 0.436,0.595 0.699,1.295 0.789,2.099 0.062,0.554 0.03,1.077 -0.097,1.567 -0.125,0.485 -0.314,0.898 -0.563,1.237 -0.249,0.333 -0.55,0.614 -0.902,0.843 -0.348,0.223 -0.784,0.416 -1.309,0.577 -0.232,0.072 -0.602,0.137 -1.11,0.194 l -3.535,0.395 z m 2.178,-7.784 0.688,6.161 c 0.037,0.326 0.075,0.524 0.114,0.595 0.04,0.07 0.098,0.12 0.176,0.15 0.112,0.047 0.266,0.059 0.465,0.037 0.648,-0.073 1.118,-0.348 1.411,-0.83 0.398,-0.649 0.528,-1.603 0.387,-2.861 -0.113,-1.013 -0.362,-1.804 -0.749,-2.375 -0.305,-0.445 -0.665,-0.732 -1.08,-0.858 -0.293,-0.09 -0.763,-0.095 -1.412,-0.019 z"
         id="path707" />
      <path
         inkscape:connector-curvature="0"
         style="font-size:12px;font-weight:bold;fill:#8c361d;fill-opacity:1;stroke-width:1pt;font-family:Times New Roman"
         d="m 380.974,587.882 c 0.6,0.345 1.027,0.683 1.28,1.012 0.257,0.325 0.41,0.715 0.461,1.169 0.071,0.637 -0.109,1.204 -0.542,1.7 -0.428,0.491 -1.054,0.783 -1.877,0.875 -0.781,0.088 -1.405,-0.037 -1.876,-0.374 -0.469,-0.337 -0.735,-0.782 -0.797,-1.337 -0.047,-0.424 0.034,-0.808 0.243,-1.153 0.212,-0.347 0.591,-0.683 1.136,-1.012 -0.678,-0.408 -1.123,-0.753 -1.336,-1.036 -0.209,-0.284 -0.335,-0.625 -0.38,-1.024 -0.059,-0.529 0.113,-1.017 0.514,-1.467 0.405,-0.454 0.999,-0.725 1.779,-0.812 0.754,-0.084 1.352,0.03 1.795,0.342 0.447,0.307 0.698,0.71 0.754,1.207 0.042,0.373 -0.032,0.715 -0.221,1.027 -0.186,0.307 -0.497,0.602 -0.933,0.883 z m -0.477,-0.248 c 0.123,-0.211 0.205,-0.439 0.249,-0.688 0.042,-0.249 0.048,-0.516 0.015,-0.803 -0.056,-0.505 -0.207,-0.88 -0.455,-1.123 -0.186,-0.187 -0.423,-0.265 -0.71,-0.233 -0.26,0.029 -0.471,0.149 -0.632,0.359 -0.161,0.207 -0.227,0.45 -0.196,0.729 0.032,0.284 0.165,0.567 0.402,0.852 0.24,0.28 0.682,0.582 1.327,0.907 z m -1.027,1.359 c -0.108,0.122 -0.183,0.23 -0.222,0.325 -0.063,0.145 -0.111,0.351 -0.144,0.618 -0.033,0.266 -0.034,0.542 -0.002,0.825 0.041,0.365 0.122,0.667 0.243,0.905 0.12,0.234 0.271,0.396 0.455,0.486 0.187,0.088 0.372,0.123 0.553,0.103 0.284,-0.032 0.511,-0.162 0.682,-0.389 0.171,-0.232 0.236,-0.528 0.196,-0.889 -0.084,-0.753 -0.671,-1.414 -1.761,-1.984 z"
         id="path711" />
    </g>
  </g>
</svg>
