<?xml version="1.0" encoding="UTF-8" standalone="no"?>
<!-- Created with Sodipodi ("http://www.sodipodi.com/") -->

<svg
   xmlns:dc="http://purl.org/dc/elements/1.1/"
   xmlns:cc="http://creativecommons.org/ns#"
   xmlns:rdf="http://www.w3.org/1999/02/22-rdf-syntax-ns#"
   xmlns:svg="http://www.w3.org/2000/svg"
   xmlns="http://www.w3.org/2000/svg"
   xmlns:sodipodi="http://sodipodi.sourceforge.net/DTD/sodipodi-0.dtd"
   xmlns:inkscape="http://www.inkscape.org/namespaces/inkscape"
   version="1"
   x="0"
   y="0"
   width="512"
   height="512"
   id="svg378"
   sodipodi:version="0.32-hydra1"
   sodipodi:docname="hk.svg"
   inkscape:version="0.48.1 r9760">
  <sodipodi:namedview
     id="base"
     showgrid="false"
     inkscape:zoom="0.30856401"
     inkscape:cx="531.49426"
     inkscape:cy="372.04724"
     inkscape:window-width="1280"
     inkscape:window-height="723"
     inkscape:window-x="0"
     inkscape:window-y="24"
     inkscape:window-maximized="1"
     inkscape:current-layer="svg378" />
  <metadata
     id="metadata3616">
    <rdf:RDF>
      <cc:Work
         rdf:about="">
        <dc:format>image/svg+xml</dc:format>
        <dc:type
           rdf:resource="http://purl.org/dc/dcmitype/StillImage" />
      </cc:Work>
    </rdf:RDF>
  </metadata>
  <defs
     id="defs380">
    <clipPath
       clipPathUnits="userSpaceOnUse"
       id="clipPath10151">
      <rect
         id="rect10153"
         height="744.09448"
         x="164.84694"
         style="fill:#000000;fill-opacity:0.67000002;stroke:none"
         width="744.09448"
         y="-1.4247894e-05" />
    </clipPath>
  </defs>
  <g
     transform="matrix(0.68808466,0,0,0.68808466,-113.42865,9.8037571e-6)"
     id="flag"
     clip-path="url(#clipPath10151)"
     inkscape:label="#g9933">
    <rect
       width="1062.99"
       height="744.09448"
       x="-1062.99"
       y="-708.66095"
       style="font-size:12px;fill:#ba0000;fill-opacity:1;fill-rule:evenodd;stroke-width:1pt"
       id="rect148"
       transform="matrix(-1,0,0,-1,0,35.43352)" />
    <g
       id="g694"
       transform="translate(-14.32762,6.606644)">
      <g
         id="g669"
         transform="translate(6.25,-3.750031)">
        <path
           inkscape:connector-curvature="0"
           style="font-size:12px;fill:#ffffff;fill-opacity:1;fill-rule:evenodd;stroke:none"
           d="m 524.447,357.284 c 0,0 -75.02,-32.301 -64.255,-116.004 10.421,-40.29 28.828,-67.727 62.17,-82.661 15.629,-4.863 31.607,-6.947 47.93,-8.336 -4.284,4.052 -7.872,8.104 -9.724,13.198 -3.59,9.146 -0.927,17.945 3.819,26.743 6.02,10.188 9.607,20.723 10.766,34.384 2.199,19.218 -6.02,37.743 -21.186,48.973 -9.61,7.409 -20.954,9.956 -30.217,18.407 -7.177,7.063 -11.576,14.126 -13.197,26.396 -0.232,23.386 6.137,26.629 13.894,38.9 z"
           id="path573"
           sodipodi:nodetypes="ccccccccccc" />
        <path
           inkscape:connector-curvature="0"
           style="font-size:12px;fill:#ba0000;fill-opacity:1;fill-rule:evenodd;stroke:#000000;stroke-width:2.34489002pt"
           d="m 510.206,236.175 c 0,-0.115 0,-0.232 0,-0.347"
           id="path574" />
        <path
           inkscape:connector-curvature="0"
           style="font-size:12px;fill:none;stroke:#ba0000;stroke-width:2.34489002pt;stroke-opacity:1"
           d="M 514.947,348.588 C 485.771,322.771 488.324,257.826 510.553,236.175"
           id="path575"
           sodipodi:nodetypes="cc" />
        <polygon
           points="441.115,324.214 511.946,324.278 533.785,256.897 555.613,324.281 626.445,324.23 569.104,365.812 591.041,433.161 591.041,433.161 533.774,391.476 476.501,433.151 498.449,365.806 "
           style="font-size:12px;fill:#ba0000;fill-opacity:1;fill-rule:evenodd;stroke:none"
           id="polygon638"
           transform="matrix(0.135668,-0.03068384,0.02698504,0.129088,441.3846,191.8889)" />
      </g>
      <g
         id="g674"
         transform="matrix(0.293016,0.956108,-0.956108,0.293016,725.0029,-258.1252)">
        <path
           inkscape:connector-curvature="0"
           style="font-size:12px;fill:#ffffff;fill-opacity:1;fill-rule:evenodd;stroke:none"
           d="m 524.447,357.284 c 0,0 -75.02,-32.301 -64.255,-116.004 10.421,-40.29 28.828,-67.727 62.17,-82.661 15.629,-4.863 31.607,-6.947 47.93,-8.336 -4.284,4.052 -7.872,8.104 -9.724,13.198 -3.59,9.146 -0.927,17.945 3.819,26.743 6.02,10.188 9.607,20.723 10.766,34.384 2.199,19.218 -6.02,37.743 -21.186,48.973 -9.61,7.409 -20.954,9.956 -30.217,18.407 -7.177,7.063 -11.576,14.126 -13.197,26.396 -0.232,23.386 6.137,26.629 13.894,38.9 z"
           id="path675"
           sodipodi:nodetypes="ccccccccccc" />
        <path
           inkscape:connector-curvature="0"
           style="font-size:12px;fill:#ba0000;fill-opacity:1;fill-rule:evenodd;stroke:#000000;stroke-width:2.34489002pt"
           d="m 510.206,236.175 c 0,-0.115 0,-0.232 0,-0.347"
           id="path676" />
        <path
           inkscape:connector-curvature="0"
           style="font-size:12px;fill:none;stroke:#ba0000;stroke-width:2.34489002pt;stroke-opacity:1"
           d="M 514.947,348.588 C 485.771,322.771 488.324,257.826 510.553,236.175"
           id="path677"
           sodipodi:nodetypes="cc" />
        <polygon
           points="441.115,324.214 511.946,324.278 533.785,256.897 555.613,324.281 626.445,324.23 569.104,365.812 591.041,433.161 591.041,433.161 533.774,391.476 476.501,433.151 498.449,365.806 "
           style="font-size:12px;fill:#ba0000;fill-opacity:1;fill-rule:evenodd;stroke:none"
           id="polygon678"
           transform="matrix(0.135668,-0.03068384,0.02698504,0.129088,441.3846,191.8889)" />
      </g>
      <g
         id="g679"
         transform="matrix(-0.813545,0.581503,-0.581503,-0.813545,1177.063,339.5501)">
        <path
           inkscape:connector-curvature="0"
           style="font-size:12px;fill:#ffffff;fill-opacity:1;fill-rule:evenodd;stroke:none"
           d="m 524.447,357.284 c 0,0 -75.02,-32.301 -64.255,-116.004 10.421,-40.29 28.828,-67.727 62.17,-82.661 15.629,-4.863 31.607,-6.947 47.93,-8.336 -4.284,4.052 -7.872,8.104 -9.724,13.198 -3.59,9.146 -0.927,17.945 3.819,26.743 6.02,10.188 9.607,20.723 10.766,34.384 2.199,19.218 -6.02,37.743 -21.186,48.973 -9.61,7.409 -20.954,9.956 -30.217,18.407 -7.177,7.063 -11.576,14.126 -13.197,26.396 -0.232,23.386 6.137,26.629 13.894,38.9 z"
           id="path680"
           sodipodi:nodetypes="ccccccccccc" />
        <path
           inkscape:connector-curvature="0"
           style="font-size:12px;fill:#ba0000;fill-opacity:1;fill-rule:evenodd;stroke:#000000;stroke-width:2.34489002pt"
           d="m 510.206,236.175 c 0,-0.115 0,-0.232 0,-0.347"
           id="path681" />
        <path
           inkscape:connector-curvature="0"
           style="font-size:12px;fill:none;stroke:#ba0000;stroke-width:2.34489002pt;stroke-opacity:1"
           d="M 514.947,348.588 C 485.771,322.771 488.324,257.826 510.553,236.175"
           id="path682"
           sodipodi:nodetypes="cc" />
        <polygon
           points="441.115,324.214 511.946,324.278 533.785,256.897 555.613,324.281 626.445,324.23 569.104,365.812 591.041,433.161 591.041,433.161 533.774,391.476 476.501,433.151 498.449,365.806 "
           style="font-size:12px;fill:#ba0000;fill-opacity:1;fill-rule:evenodd;stroke:none"
           id="polygon683"
           transform="matrix(0.135668,-0.03068384,0.02698504,0.129088,441.3846,191.8889)" />
      </g>
      <g
         id="g684"
         transform="matrix(-0.786568,-0.617503,0.617503,-0.786568,732.7755,966.9646)">
        <path
           inkscape:connector-curvature="0"
           style="font-size:12px;fill:#ffffff;fill-opacity:1;fill-rule:evenodd;stroke:none"
           d="m 524.447,357.284 c 0,0 -75.02,-32.301 -64.255,-116.004 10.421,-40.29 28.828,-67.727 62.17,-82.661 15.629,-4.863 31.607,-6.947 47.93,-8.336 -4.284,4.052 -7.872,8.104 -9.724,13.198 -3.59,9.146 -0.927,17.945 3.819,26.743 6.02,10.188 9.607,20.723 10.766,34.384 2.199,19.218 -6.02,37.743 -21.186,48.973 -9.61,7.409 -20.954,9.956 -30.217,18.407 -7.177,7.063 -11.576,14.126 -13.197,26.396 -0.232,23.386 6.137,26.629 13.894,38.9 z"
           id="path685"
           sodipodi:nodetypes="ccccccccccc" />
        <path
           inkscape:connector-curvature="0"
           style="font-size:12px;fill:#ba0000;fill-opacity:1;fill-rule:evenodd;stroke:#000000;stroke-width:2.34489002pt"
           d="m 510.206,236.175 c 0,-0.115 0,-0.232 0,-0.347"
           id="path686" />
        <path
           inkscape:connector-curvature="0"
           style="font-size:12px;fill:none;stroke:#ba0000;stroke-width:2.34489002pt;stroke-opacity:1"
           d="M 514.947,348.588 C 485.771,322.771 488.324,257.826 510.553,236.175"
           id="path687"
           sodipodi:nodetypes="cc" />
        <polygon
           points="441.115,324.214 511.946,324.278 533.785,256.897 555.613,324.281 626.445,324.23 569.104,365.812 591.041,433.161 591.041,433.161 533.774,391.476 476.501,433.151 498.449,365.806 "
           style="font-size:12px;fill:#ba0000;fill-opacity:1;fill-rule:evenodd;stroke:none"
           id="polygon688"
           transform="matrix(0.135668,-0.03068384,0.02698504,0.129088,441.3846,191.8889)" />
      </g>
      <g
         id="g689"
         transform="matrix(0.321074,-0.947053,0.947053,0.321074,25.28688,742.4974)">
        <path
           inkscape:connector-curvature="0"
           style="font-size:12px;fill:#ffffff;fill-opacity:1;fill-rule:evenodd;stroke:none"
           d="m 524.447,357.284 c 0,0 -75.02,-32.301 -64.255,-116.004 10.421,-40.29 28.828,-67.727 62.17,-82.661 15.629,-4.863 31.607,-6.947 47.93,-8.336 -4.284,4.052 -7.872,8.104 -9.724,13.198 -3.59,9.146 -0.927,17.945 3.819,26.743 6.02,10.188 9.607,20.723 10.766,34.384 2.199,19.218 -6.02,37.743 -21.186,48.973 -9.61,7.409 -20.954,9.956 -30.217,18.407 -7.177,7.063 -11.576,14.126 -13.197,26.396 -0.232,23.386 6.137,26.629 13.894,38.9 z"
           id="path690"
           sodipodi:nodetypes="ccccccccccc" />
        <path
           inkscape:connector-curvature="0"
           style="font-size:12px;fill:#ba0000;fill-opacity:1;fill-rule:evenodd;stroke:#000000;stroke-width:2.34489002pt"
           d="m 510.206,236.175 c 0,-0.115 0,-0.232 0,-0.347"
           id="path691" />
        <path
           inkscape:connector-curvature="0"
           style="font-size:12px;fill:none;stroke:#ba0000;stroke-width:2.34489002pt;stroke-opacity:1"
           d="M 514.947,348.588 C 485.771,322.771 488.324,257.826 510.553,236.175"
           id="path692"
           sodipodi:nodetypes="cc" />
        <polygon
           points="441.115,324.214 511.946,324.278 533.785,256.897 555.613,324.281 626.445,324.23 569.104,365.812 591.041,433.161 591.041,433.161 533.774,391.476 476.501,433.151 498.449,365.806 "
           style="font-size:12px;fill:#ba0000;fill-opacity:1;fill-rule:evenodd;stroke:none"
           id="polygon693"
           transform="matrix(0.135668,-0.03068384,0.02698504,0.129088,441.3846,191.8889)" />
      </g>
    </g>
  </g>
</svg>
