<?xml version="1.0" encoding="UTF-8" standalone="no"?>
<!-- Created with Sodipodi ("http://www.sodipodi.com/") -->

<svg
   xmlns:dc="http://purl.org/dc/elements/1.1/"
   xmlns:cc="http://creativecommons.org/ns#"
   xmlns:rdf="http://www.w3.org/1999/02/22-rdf-syntax-ns#"
   xmlns:svg="http://www.w3.org/2000/svg"
   xmlns="http://www.w3.org/2000/svg"
   xmlns:xlink="http://www.w3.org/1999/xlink"
   xmlns:sodipodi="http://sodipodi.sourceforge.net/DTD/sodipodi-0.dtd"
   xmlns:inkscape="http://www.inkscape.org/namespaces/inkscape"
   version="1"
   x="0.00000000"
   y="0.00000000"
   width="512"
   height="512"
   id="svg557"
   sodipodi:version="0.32"
   sodipodi:docname="hr.svg"
   inkscape:version="0.48.1 r9760">
  <sodipodi:namedview
     id="base"
     showgrid="false"
     inkscape:zoom="0.98242188"
     inkscape:cx="256"
     inkscape:cy="256"
     inkscape:window-width="1280"
     inkscape:window-height="723"
     inkscape:window-x="0"
     inkscape:window-y="24"
     inkscape:window-maximized="1"
     inkscape:current-layer="svg557" />
  <metadata
     id="metadata3779">
    <rdf:RDF>
      <cc:Work
         rdf:about="">
        <dc:format>image/svg+xml</dc:format>
        <dc:type
           rdf:resource="http://purl.org/dc/dcmitype/StillImage" />
      </cc:Work>
    </rdf:RDF>
  </metadata>
  <defs
     id="defs559">
    <linearGradient
       x1="0.00000000"
       y1="0.00000000"
       x2="1.00000000"
       y2="0.00000000"
       id="linearGradient684"
       gradientUnits="objectBoundingBox"
       spreadMethod="pad">
      <stop
         style="stop-color:#000000;stop-opacity:1;"
         offset="0.00000000"
         id="stop685" />
      <stop
         style="stop-color:#ffffff;stop-opacity:1;"
         offset="1.00000000"
         id="stop686" />
    </linearGradient>
    <linearGradient
       x1="0.00000000"
       y1="0.00000000"
       x2="1.00000000"
       y2="0.00000000"
       id="linearGradient687"
       xlink:href="#linearGradient684"
       gradientUnits="objectBoundingBox"
       spreadMethod="pad" />
    <clipPath
       id="clipPath9804"
       clipPathUnits="userSpaceOnUse">
      <rect
         y="2.9170465"
         width="494.06686"
         style="fill:#000000;fill-opacity:0.67000002;stroke:none"
         x="239.91339"
         height="494.06686"
         id="rect9806" />
    </clipPath>
    <clipPath
       clipPathUnits="userSpaceOnUse"
       id="clipPath3618">
      <rect
         id="rect3620"
         height="512"
         x="0"
         style="fill:#000000;fill-opacity:0.67000002;stroke:none"
         width="512"
         y="0" />
    </clipPath>
  </defs>
  <g
     id="flag"
     clip-path="url(#clipPath3618)"
     inkscape:label="#g3230">
    <rect
       y="144.70331"
       x="-248.62152"
       height="181.49689"
       width="998.76172"
       id="rect675"
       style="font-size:12px;fill:#ffffff;fill-opacity:1;fill-rule:evenodd;stroke-width:1pt" />
    <g
       id="g1089"
       style="font-size:12px"
       transform="matrix(1.0814226,0,0,1.0814226,-248.56149,-3.1545831)">
      <rect
         id="rect714"
         style="fill:#003e9f;fill-rule:evenodd;stroke-width:1pt"
         y="288.72794"
         x="0.78548002"
         height="187.63959"
         width="925.35852" />
      <rect
         id="rect713"
         style="fill:#d61517;fill-rule:evenodd;stroke-width:1pt"
         y="2.9170561"
         x="-1.3302"
         height="157.33562"
         width="926.85425" />
      <path
         id="path683"
         style="fill:#ffffff;fill-rule:evenodd;stroke:#e5141d;stroke-width:4;stroke-linecap:round"
         transform="matrix(0.265442,0,0,0.260404,359.6833,74.41441)"
         d="m 99.546,313.18 c 91.172,-33.06 192.26,-50.898 291.061,-51.152 98.801,-0.254 199.561,15.548 299.125,51.915 l 74.111,-152.4 -52.091,-92.4923 c 0,0 -92.938,38.9103 -93.701,38.9103 -0.763,0 -65.53,-72.6559 -65.53,-72.6559 L 469.349,86.5279 391.247,25.6452 317.782,85.5887 232.016,35.0587 169.455,110.836 75.6837,69.9661 25.4822,161.613 99.546,313.18 z"
         inkscape:connector-curvature="0" />
      <path
         id="path680"
         style="fill:#00a7bd;fill-rule:evenodd;stroke:#0084fd;stroke-width:1pt"
         transform="matrix(0.215013,0.152701,-0.155655,0.210933,537.5602,64.72666)"
         d="M 103.349,305.553 48.0531,156.801 99.6228,73.0566 186.459,111.359 214.822,267.766 c -41.446,10.136 -62.637,16.965 -111.473,37.787 z"
         inkscape:connector-curvature="0" />
      <path
         id="path671"
         style="fill:none;stroke-width:1pt;stroke-opacity:0.99607801"
         transform="matrix(0.262125,0.04103393,-0.04182777,0.25715,402.3929,62.16748)"
         d="M 103.494,305.848 40.6328,163.64 87.8043,80.5016 179.542,116.471 218.598,270.27 c -40.482,9.638 -69.466,18.331 -115.104,35.578 z"
         inkscape:connector-curvature="0" />
      <path
         id="path672"
         style="fill:#00a7bd;fill-rule:evenodd;stroke:#0084fd;stroke-width:1pt"
         transform="matrix(0.251994,0.08183254,-0.08341566,0.247212,448.134,56.56871)"
         d="m 103.494,305.848 -63.3729,-145.844 50.173,-78.251 89.9809,31.708 37.199,154.807 c -40.175,10.938 -68.342,20.333 -113.98,37.58 z"
         inkscape:connector-curvature="0" />
      <path
         id="path670"
         style="fill:#00a7bd;fill-rule:evenodd;stroke:#0084fd;stroke-width:1pt;stroke-opacity:0.99607801"
         transform="matrix(0.265442,0,0,0.260404,359.6833,74.41441)"
         d="M 103.118,305.575 35.7959,160.421 80.787,80.2911 174.053,121.67 213.461,271.422 c -42.583,8.976 -65.133,16.31 -110.343,34.153 z"
         inkscape:connector-curvature="0" />
      <path
         id="path561"
         style="fill:#ffffff;fill-rule:evenodd;stroke:#ffffff;stroke-width:1pt"
         transform="matrix(0.265442,0,0,0.260404,359.6833,74.41441)"
         d="m 82.1875,225.175 c 21.1975,4.375 36.3025,4.532 55.3125,-0.781 22.709,-9.479 30.73,-22.24 38.125,-32.5 3.438,21.667 -0.156,41.302 -26.093,55.156 -23.282,10.938 -54.6881,4.063 -67.3445,-21.875 z"
         inkscape:connector-curvature="0" />
      <g
         id="g591"
         transform="matrix(0.265442,0,0,0.260404,359.6833,74.41441)">
        <path
           id="path568"
           style="fill:#faf703;fill-opacity:0.99607801;fill-rule:evenodd;stroke:#544b20;stroke-width:1pt;stroke-opacity:0.99607801"
           d="m 410.938,120.565 -4.063,1.016 0.156,7.5 -5,1.094 -3.497,6.614 2.159,2.044 c 0.111,0.221 -1.703,4.892 -1.625,4.892 0.078,0 1.323,1.762 1.323,1.762 l 1.328,4.063 3.359,0.468 0.86,4.766 5.312,0.859 4.922,3.516 0.312,2.188 5.625,0.156 3.829,1.25 13.359,-1.563 1.797,-2.812 0.156,-3.828 7.188,-0.235 0.657,-6.105 3.809,0 -0.474,-6.875 3.177,0.286 -0.82,-3.295 -1.975,-2.683 -0.39,-4.218 -5.625,-5.625 -1.25,-7.344 c 0,0 -3.594,-1.641 -3.594,-1.719 0,-0.078 -0.234,-4.922 -0.234,-4.922 l 4.062,-5.703 -0.39,-2.265 -3.75,-0.079 -2.813,2.344 c 0,0 -3.75,0.391 -3.75,0.469 0,0.078 0,1.719 0,1.719 0,0 0.938,3.203 0.938,3.281 0,0.078 -4.297,0 -4.297,0 l -0.157,-5.078 -6.093,-3.047 c 0,0 -5.703,3.906 -5.703,3.984 0,0.078 -0.313,4.532 -0.313,4.532 l -2.734,0.781 -2.813,-4.219 -4.922,-1.875 -2.656,-0.156 -0.078,3.281 5.156,6.797 -0.468,3.984 z"
           inkscape:connector-curvature="0" />
        <path
           id="path570"
           style="fill:none;stroke:#544b20;stroke-width:1pt"
           d="m 449.234,148.039 -1.105,-4.088"
           inkscape:connector-curvature="0" />
        <path
           id="path571"
           style="fill:none;stroke:#544b20;stroke-width:1pt"
           d="m 452.327,141.299 -1.878,-2.762"
           inkscape:connector-curvature="0" />
        <path
           id="path576"
           style="fill:#544b20;fill-rule:evenodd;stroke:#544b21;stroke-width:1pt;stroke-opacity:0.99998803"
           d="m 400.841,138.206 5.856,-0.332 1.105,5.303 1.988,1.768 0.332,9.723 1.878,0.773 0.553,-3.867 4.53,-0.331 0.883,7.844 -1.104,0.995 0.442,1.215 5.413,-0.11 c 0,0 1.216,-2.1 1.326,-2.1 0.111,0 3.094,-0.331 3.094,-0.221 0,0.111 1.215,2.321 1.215,2.321 l 0.884,-2.984 c 0,0 2.873,-1.215 2.873,-1.104 0,0.11 2.32,3.756 2.32,3.756 l 3.977,-0.552 -2.43,-2.32 -0.995,-5.083 5.524,-2.983 2.21,3.757 c 0,0 2.099,0.11 1.989,0 -0.111,-0.111 -2.431,-4.309 -2.431,-4.309 l 0,-8.839 4.199,-5.745 5.855,-0.663 0,-2.431 -5.855,-5.414 -1.547,-7.513 -3.315,-1.657 -0.884,0.994 -3.646,0.332 3.646,5.414 0,3.535 1.658,0.884 -0.332,9.723 c 0,0 -4.088,0.552 -4.088,0.663 0,0.11 -0.331,5.413 -0.331,5.413 l -2.541,2.542 c 0,0 -1.437,5.082 -1.547,5.082 -0.111,0 -2.431,3.093 -2.431,3.093 l -4.53,0.111 c 0,0 -2.651,-2.541 -2.651,-2.652 0,-0.11 -0.442,-3.756 -0.442,-3.756 0,0 -1.768,-0.553 -1.879,-0.553 -0.11,0 -0.994,-4.088 -0.994,-4.088 l -3.094,-1.767 -0.22,-2.431 -2.984,-1.326 c 0,0 -0.331,-2.21 -0.442,-2.32 -0.11,-0.111 -1.436,-0.994 -1.546,-0.994 -0.111,0 -0.111,-6.077 -0.111,-6.077 l 2.652,-0.442 -1.485,-1.94 -0.504,-1.706 0,-1.768 2.21,-2.21 c 0,0 -3.978,-0.552 -3.978,-0.442 0,0.111 -3.866,1.768 -3.866,1.658 0.11,0 -0.111,7.181 -0.111,7.181 l -4.53,1.437 -3.646,5.855 1.878,1.658 z"
           inkscape:connector-curvature="0" />
        <path
           id="path577"
           style="fill:#544b20;fill-rule:evenodd;stroke:#544b20;stroke-width:1pt"
           d="m 423.712,148.039 2.983,-1.768 -0.111,-3.425 -2.872,-0.663 -1.106,-1.105 3.205,0.553 3.977,-0.332 1.326,-0.663 c -0.552,1.437 -0.994,1.326 -1.105,1.326 -0.11,0 -2.209,1.105 -2.209,1.105 l 0.11,3.315 c 0,0 6.85,0.883 6.74,0.883 -0.111,0 0,1.326 -0.221,1.326 -0.221,0 -7.071,-1.547 -7.071,-1.547 l -4.309,2.652 0.663,-1.657 z"
           inkscape:connector-curvature="0" />
        <path
           id="path578"
           style="fill:#544b20;fill-rule:evenodd;stroke:#544b20;stroke-width:1pt;stroke-opacity:0.99999599"
           d="m 440.947,127.489 -3.977,3.093 -2.541,4.53 -1.326,0.221 -3.867,-5.193 -4.419,0.111 c 0,0 -2.431,6.076 -2.431,6.187 0,0.11 -1.768,-0.221 -1.768,-0.221 l -4.64,-5.082 c 0,0 -1.437,-2.542 -1.216,-2.542 0.221,0 11.601,0.111 11.601,0.111 l -0.11,-5.524 c 0,0 -1.768,-0.553 -2.652,-1.105 0.663,-0.221 6.298,-0.221 6.298,-0.221 l -2.431,1.657 0,4.751 10.054,0.11 3.425,-0.883 z"
           inkscape:connector-curvature="0" />
        <rect
           id="rect579"
           style="fill:#796a3a;fill-opacity:0.99607903;fill-rule:evenodd;stroke-width:1pt"
           y="130.14011"
           x="419.51321"
           ry="1.325798"
           height="2.6515961"
           width="2.6516111" />
        <rect
           id="rect580"
           style="fill:#7a6b3a;fill-rule:evenodd;stroke-width:1pt"
           y="129.58777"
           x="432.10858"
           ry="1.325798"
           height="2.6515961"
           width="2.6516111" />
        <path
           id="path581"
           style="fill:none;stroke:#544b20;stroke-width:1pt"
           d="m 413.547,121.301 c 4.198,-1.694 7.181,-3.056 12.374,-3.535 4.898,-0.516 8.692,0.184 13.037,0.994"
           inkscape:connector-curvature="0" />
        <path
           id="path584"
           style="fill:#544b20;fill-rule:evenodd;stroke:#544b20;stroke-width:1pt"
           d="m 415.867,112.352 -3.425,0 -4.862,-5.193 2.763,0.332 3.204,1.436 2.32,3.425 z"
           inkscape:connector-curvature="0" />
        <path
           id="path585"
           style="fill:#544b20;fill-rule:evenodd;stroke:#544b20;stroke-width:1pt"
           d="m 436.528,110.363 7.734,-5.965 -2.541,-0.332 -2.873,2.651 -3.425,0.553 1.105,3.093 z"
           inkscape:connector-curvature="0" />
        <path
           id="path586"
           style="fill:#544b20;fill-rule:evenodd;stroke:#544b20;stroke-width:1pt"
           d="m 431.968,111.459 -12.123,0.451 0.11,-1.326 4.42,-0.442 0.552,-1.767 c 0,0 1.326,-0.11 1.326,0 0,0.111 0.994,1.657 0.994,1.657 l 4.309,0.773 0.412,0.654 z"
           inkscape:connector-curvature="0" />
        <path
           id="path587"
           style="fill:#544b20;fill-rule:evenodd;stroke:#544b20;stroke-width:1pt"
           d="m 431.335,106.828 -4.198,0.11 -0.332,-2.32 4.53,2.21 z"
           inkscape:connector-curvature="0" />
        <path
           id="path588"
           style="fill:#544b20;fill-rule:evenodd;stroke:#544b20;stroke-width:1pt"
           d="m 424.264,104.729 -0.332,2.319 -4.087,0.663 4.419,-2.982 z"
           inkscape:connector-curvature="0" />
        <path
           id="path589"
           style="fill:#544b20;fill-rule:evenodd;stroke:#544b20;stroke-width:1pt"
           d="m 401.062,147.044 2.099,-5.303 -1.878,-3.646 -1.878,5.414 1.657,3.535 z"
           inkscape:connector-curvature="0" />
        <path
           id="path590"
           style="fill:#544b20;fill-rule:evenodd;stroke:#544b20;stroke-width:1pt"
           transform="translate(-0.110473,0.110443)"
           d="m 405.371,149.807 2.541,-6.298 -4.861,5.082 2.32,1.216 z"
           inkscape:connector-curvature="0" />
      </g>
      <g
         id="g576"
         transform="matrix(0.265442,0,0,0.260404,341.8802,74.9894)">
        <path
           id="path579"
           style="fill:#faf703;fill-opacity:0.99607801;fill-rule:evenodd;stroke:#544b20;stroke-width:1pt;stroke-opacity:0.99607801"
           d="m 410.938,120.565 -4.063,1.016 0.156,7.5 -5,1.094 -3.497,6.614 2.159,2.044 c 0.111,0.221 -1.703,4.892 -1.625,4.892 0.078,0 1.323,1.762 1.323,1.762 l 1.328,4.063 3.359,0.468 0.86,4.766 5.312,0.859 4.922,3.516 0.312,2.188 5.625,0.156 3.829,1.25 13.359,-1.563 1.797,-2.812 0.156,-3.828 7.188,-0.235 0.657,-6.105 3.809,0 -0.474,-6.875 3.177,0.286 -0.82,-3.295 -1.975,-2.683 -0.39,-4.218 -5.625,-5.625 -1.25,-7.344 c 0,0 -3.594,-1.641 -3.594,-1.719 0,-0.078 -0.234,-4.922 -0.234,-4.922 l 4.062,-5.703 -0.39,-2.265 -3.75,-0.079 -2.813,2.344 c 0,0 -3.75,0.391 -3.75,0.469 0,0.078 0,1.719 0,1.719 0,0 0.938,3.203 0.938,3.281 0,0.078 -4.297,0 -4.297,0 l -0.157,-5.078 -6.093,-3.047 c 0,0 -5.703,3.906 -5.703,3.984 0,0.078 -0.313,4.532 -0.313,4.532 l -2.734,0.781 -2.813,-4.219 -4.922,-1.875 -2.656,-0.156 -0.078,3.281 5.156,6.797 -0.468,3.984 z"
           inkscape:connector-curvature="0" />
        <path
           id="path580"
           style="fill:none;stroke:#544b20;stroke-width:1pt"
           d="m 449.234,148.039 -1.105,-4.088"
           inkscape:connector-curvature="0" />
        <path
           id="path591"
           style="fill:none;stroke:#544b20;stroke-width:1pt"
           d="m 452.327,141.299 -1.878,-2.762"
           inkscape:connector-curvature="0" />
        <path
           id="path592"
           style="fill:#544b20;fill-rule:evenodd;stroke:#544b21;stroke-width:1pt;stroke-opacity:0.99998803"
           d="m 400.841,138.206 5.856,-0.332 1.105,5.303 1.988,1.768 0.332,9.723 1.878,0.773 0.553,-3.867 4.53,-0.331 0.883,7.844 -1.104,0.995 0.442,1.215 5.413,-0.11 c 0,0 1.216,-2.1 1.326,-2.1 0.111,0 3.094,-0.331 3.094,-0.221 0,0.111 1.215,2.321 1.215,2.321 l 0.884,-2.984 c 0,0 2.873,-1.215 2.873,-1.104 0,0.11 2.32,3.756 2.32,3.756 l 3.977,-0.552 -2.43,-2.32 -0.995,-5.083 5.524,-2.983 2.21,3.757 c 0,0 2.099,0.11 1.989,0 -0.111,-0.111 -2.431,-4.309 -2.431,-4.309 l 0,-8.839 4.199,-5.745 5.855,-0.663 0,-2.431 -5.855,-5.414 -1.547,-7.513 -3.315,-1.657 -0.884,0.994 -3.646,0.332 3.646,5.414 0,3.535 1.658,0.884 -0.332,9.723 c 0,0 -4.088,0.552 -4.088,0.663 0,0.11 -0.331,5.413 -0.331,5.413 l -2.541,2.542 c 0,0 -1.437,5.082 -1.547,5.082 -0.111,0 -2.431,3.093 -2.431,3.093 l -4.53,0.111 c 0,0 -2.651,-2.541 -2.651,-2.652 0,-0.11 -0.442,-3.756 -0.442,-3.756 0,0 -1.768,-0.553 -1.879,-0.553 -0.11,0 -0.994,-4.088 -0.994,-4.088 l -3.094,-1.767 -0.22,-2.431 -2.984,-1.326 c 0,0 -0.331,-2.21 -0.442,-2.32 -0.11,-0.111 -1.436,-0.994 -1.546,-0.994 -0.111,0 -0.111,-6.077 -0.111,-6.077 l 2.652,-0.442 -1.485,-1.94 -0.504,-1.706 0,-1.768 2.21,-2.21 c 0,0 -3.978,-0.552 -3.978,-0.442 0,0.111 -3.866,1.768 -3.866,1.658 0.11,0 -0.111,7.181 -0.111,7.181 l -4.53,1.437 -3.646,5.855 1.878,1.658 z"
           inkscape:connector-curvature="0" />
        <path
           id="path593"
           style="fill:#544b20;fill-rule:evenodd;stroke:#544b20;stroke-width:1pt"
           d="m 423.712,148.039 2.983,-1.768 -0.111,-3.425 -2.872,-0.663 -1.106,-1.105 3.205,0.553 3.977,-0.332 1.326,-0.663 c -0.552,1.437 -0.994,1.326 -1.105,1.326 -0.11,0 -2.209,1.105 -2.209,1.105 l 0.11,3.315 c 0,0 6.85,0.883 6.74,0.883 -0.111,0 0,1.326 -0.221,1.326 -0.221,0 -7.071,-1.547 -7.071,-1.547 l -4.309,2.652 0.663,-1.657 z"
           inkscape:connector-curvature="0" />
        <path
           id="path594"
           style="fill:#544b20;fill-rule:evenodd;stroke:#544b20;stroke-width:1pt;stroke-opacity:0.99999599"
           d="m 440.947,127.489 -3.977,3.093 -2.541,4.53 -1.326,0.221 -3.867,-5.193 -4.419,0.111 c 0,0 -2.431,6.076 -2.431,6.187 0,0.11 -1.768,-0.221 -1.768,-0.221 l -4.64,-5.082 c 0,0 -1.437,-2.542 -1.216,-2.542 0.221,0 11.601,0.111 11.601,0.111 l -0.11,-5.524 c 0,0 -1.768,-0.553 -2.652,-1.105 0.663,-0.221 6.298,-0.221 6.298,-0.221 l -2.431,1.657 0,4.751 10.054,0.11 3.425,-0.883 z"
           inkscape:connector-curvature="0" />
        <rect
           id="rect595"
           style="fill:#796a3a;fill-opacity:0.99607903;fill-rule:evenodd;stroke-width:1pt"
           y="130.14011"
           x="419.51321"
           ry="1.325798"
           height="2.6515961"
           width="2.6516111" />
        <rect
           id="rect596"
           style="fill:#7a6b3a;fill-rule:evenodd;stroke-width:1pt"
           y="129.58777"
           x="432.10858"
           ry="1.325798"
           height="2.6515961"
           width="2.6516111" />
        <path
           id="path597"
           style="fill:none;stroke:#544b20;stroke-width:1pt"
           d="m 413.547,121.301 c 4.198,-1.694 7.181,-3.056 12.374,-3.535 4.898,-0.516 8.692,0.184 13.037,0.994"
           inkscape:connector-curvature="0" />
        <path
           id="path600"
           style="fill:#544b20;fill-rule:evenodd;stroke:#544b20;stroke-width:1pt"
           d="m 415.867,112.352 -3.425,0 -4.862,-5.193 2.763,0.332 3.204,1.436 2.32,3.425 z"
           inkscape:connector-curvature="0" />
        <path
           id="path601"
           style="fill:#544b20;fill-rule:evenodd;stroke:#544b20;stroke-width:1pt"
           d="m 436.528,110.363 7.734,-5.965 -2.541,-0.332 -2.873,2.651 -3.425,0.553 1.105,3.093 z"
           inkscape:connector-curvature="0" />
        <path
           id="path602"
           style="fill:#544b20;fill-rule:evenodd;stroke:#544b20;stroke-width:1pt"
           d="m 431.968,111.459 -12.123,0.451 0.11,-1.326 4.42,-0.442 0.552,-1.767 c 0,0 1.326,-0.11 1.326,0 0,0.111 0.994,1.657 0.994,1.657 l 4.309,0.773 0.412,0.654 z"
           inkscape:connector-curvature="0" />
        <path
           id="path603"
           style="fill:#544b20;fill-rule:evenodd;stroke:#544b20;stroke-width:1pt"
           d="m 431.335,106.828 -4.198,0.11 -0.332,-2.32 4.53,2.21 z"
           inkscape:connector-curvature="0" />
        <path
           id="path604"
           style="fill:#544b20;fill-rule:evenodd;stroke:#544b20;stroke-width:1pt"
           d="m 424.264,104.729 -0.332,2.319 -4.087,0.663 4.419,-2.982 z"
           inkscape:connector-curvature="0" />
        <path
           id="path605"
           style="fill:#544b20;fill-rule:evenodd;stroke:#544b20;stroke-width:1pt"
           d="m 401.062,147.044 2.099,-5.303 -1.878,-3.646 -1.878,5.414 1.657,3.535 z"
           inkscape:connector-curvature="0" />
        <path
           id="path606"
           style="fill:#544b20;fill-rule:evenodd;stroke:#544b20;stroke-width:1pt"
           transform="translate(-0.110473,0.110443)"
           d="m 405.371,149.807 2.541,-6.298 -4.861,5.082 2.32,1.216 z"
           inkscape:connector-curvature="0" />
      </g>
      <path
         id="path673"
         style="fill:#001070;fill-rule:evenodd;stroke:#001071;stroke-width:1pt;stroke-opacity:0.99607801"
         transform="matrix(0.238179,0.11495,-0.117174,0.233659,492.0297,57.35287)"
         d="M 103.349,305.553 45.2802,157.1 97.9604,77.2495 186.304,112.325 215.711,268.404 c -40.76,10.493 -63.478,17.573 -112.362,37.149 z"
         inkscape:connector-curvature="0" />
      <g
         id="g607"
         transform="matrix(0.265442,0,0,0.260404,351.1114,90.44219)">
        <path
           id="path608"
           style="fill:#faf703;fill-opacity:0.99607801;fill-rule:evenodd;stroke:#544b20;stroke-width:1pt;stroke-opacity:0.99607801"
           d="m 410.938,120.565 -4.063,1.016 0.156,7.5 -5,1.094 -3.497,6.614 2.159,2.044 c 0.111,0.221 -1.703,4.892 -1.625,4.892 0.078,0 1.323,1.762 1.323,1.762 l 1.328,4.063 3.359,0.468 0.86,4.766 5.312,0.859 4.922,3.516 0.312,2.188 5.625,0.156 3.829,1.25 13.359,-1.563 1.797,-2.812 0.156,-3.828 7.188,-0.235 0.657,-6.105 3.809,0 -0.474,-6.875 3.177,0.286 -0.82,-3.295 -1.975,-2.683 -0.39,-4.218 -5.625,-5.625 -1.25,-7.344 c 0,0 -3.594,-1.641 -3.594,-1.719 0,-0.078 -0.234,-4.922 -0.234,-4.922 l 4.062,-5.703 -0.39,-2.265 -3.75,-0.079 -2.813,2.344 c 0,0 -3.75,0.391 -3.75,0.469 0,0.078 0,1.719 0,1.719 0,0 0.938,3.203 0.938,3.281 0,0.078 -4.297,0 -4.297,0 l -0.157,-5.078 -6.093,-3.047 c 0,0 -5.703,3.906 -5.703,3.984 0,0.078 -0.313,4.532 -0.313,4.532 l -2.734,0.781 -2.813,-4.219 -4.922,-1.875 -2.656,-0.156 -0.078,3.281 5.156,6.797 -0.468,3.984 z"
           inkscape:connector-curvature="0" />
        <path
           id="path609"
           style="fill:none;stroke:#544b20;stroke-width:1pt"
           d="m 449.234,148.039 -1.105,-4.088"
           inkscape:connector-curvature="0" />
        <path
           id="path610"
           style="fill:none;stroke:#544b20;stroke-width:1pt"
           d="m 452.327,141.299 -1.878,-2.762"
           inkscape:connector-curvature="0" />
        <path
           id="path611"
           style="fill:#544b20;fill-rule:evenodd;stroke:#544b21;stroke-width:1pt;stroke-opacity:0.99998803"
           d="m 400.841,138.206 5.856,-0.332 1.105,5.303 1.988,1.768 0.332,9.723 1.878,0.773 0.553,-3.867 4.53,-0.331 0.883,7.844 -1.104,0.995 0.442,1.215 5.413,-0.11 c 0,0 1.216,-2.1 1.326,-2.1 0.111,0 3.094,-0.331 3.094,-0.221 0,0.111 1.215,2.321 1.215,2.321 l 0.884,-2.984 c 0,0 2.873,-1.215 2.873,-1.104 0,0.11 2.32,3.756 2.32,3.756 l 3.977,-0.552 -2.43,-2.32 -0.995,-5.083 5.524,-2.983 2.21,3.757 c 0,0 2.099,0.11 1.989,0 -0.111,-0.111 -2.431,-4.309 -2.431,-4.309 l 0,-8.839 4.199,-5.745 5.855,-0.663 0,-2.431 -5.855,-5.414 -1.547,-7.513 -3.315,-1.657 -0.884,0.994 -3.646,0.332 3.646,5.414 0,3.535 1.658,0.884 -0.332,9.723 c 0,0 -4.088,0.552 -4.088,0.663 0,0.11 -0.331,5.413 -0.331,5.413 l -2.541,2.542 c 0,0 -1.437,5.082 -1.547,5.082 -0.111,0 -2.431,3.093 -2.431,3.093 l -4.53,0.111 c 0,0 -2.651,-2.541 -2.651,-2.652 0,-0.11 -0.442,-3.756 -0.442,-3.756 0,0 -1.768,-0.553 -1.879,-0.553 -0.11,0 -0.994,-4.088 -0.994,-4.088 l -3.094,-1.767 -0.22,-2.431 -2.984,-1.326 c 0,0 -0.331,-2.21 -0.442,-2.32 -0.11,-0.111 -1.436,-0.994 -1.546,-0.994 -0.111,0 -0.111,-6.077 -0.111,-6.077 l 2.652,-0.442 -1.485,-1.94 -0.504,-1.706 0,-1.768 2.21,-2.21 c 0,0 -3.978,-0.552 -3.978,-0.442 0,0.111 -3.866,1.768 -3.866,1.658 0.11,0 -0.111,7.181 -0.111,7.181 l -4.53,1.437 -3.646,5.855 1.878,1.658 z"
           inkscape:connector-curvature="0" />
        <path
           id="path612"
           style="fill:#544b20;fill-rule:evenodd;stroke:#544b20;stroke-width:1pt"
           d="m 423.712,148.039 2.983,-1.768 -0.111,-3.425 -2.872,-0.663 -1.106,-1.105 3.205,0.553 3.977,-0.332 1.326,-0.663 c -0.552,1.437 -0.994,1.326 -1.105,1.326 -0.11,0 -2.209,1.105 -2.209,1.105 l 0.11,3.315 c 0,0 6.85,0.883 6.74,0.883 -0.111,0 0,1.326 -0.221,1.326 -0.221,0 -7.071,-1.547 -7.071,-1.547 l -4.309,2.652 0.663,-1.657 z"
           inkscape:connector-curvature="0" />
        <path
           id="path613"
           style="fill:#544b20;fill-rule:evenodd;stroke:#544b20;stroke-width:1pt;stroke-opacity:0.99999599"
           d="m 440.947,127.489 -3.977,3.093 -2.541,4.53 -1.326,0.221 -3.867,-5.193 -4.419,0.111 c 0,0 -2.431,6.076 -2.431,6.187 0,0.11 -1.768,-0.221 -1.768,-0.221 l -4.64,-5.082 c 0,0 -1.437,-2.542 -1.216,-2.542 0.221,0 11.601,0.111 11.601,0.111 l -0.11,-5.524 c 0,0 -1.768,-0.553 -2.652,-1.105 0.663,-0.221 6.298,-0.221 6.298,-0.221 l -2.431,1.657 0,4.751 10.054,0.11 3.425,-0.883 z"
           inkscape:connector-curvature="0" />
        <rect
           id="rect614"
           style="fill:#796a3a;fill-opacity:0.99607903;fill-rule:evenodd;stroke-width:1pt"
           y="130.14011"
           x="419.51321"
           ry="1.325798"
           height="2.6515961"
           width="2.6516111" />
        <rect
           id="rect615"
           style="fill:#7a6b3a;fill-rule:evenodd;stroke-width:1pt"
           y="129.58777"
           x="432.10858"
           ry="1.325798"
           height="2.6515961"
           width="2.6516111" />
        <path
           id="path616"
           style="fill:none;stroke:#544b20;stroke-width:1pt"
           d="m 413.547,121.301 c 4.198,-1.694 7.181,-3.056 12.374,-3.535 4.898,-0.516 8.692,0.184 13.037,0.994"
           inkscape:connector-curvature="0" />
        <path
           id="path619"
           style="fill:#544b20;fill-rule:evenodd;stroke:#544b20;stroke-width:1pt"
           d="m 415.867,112.352 -3.425,0 -4.862,-5.193 2.763,0.332 3.204,1.436 2.32,3.425 z"
           inkscape:connector-curvature="0" />
        <path
           id="path620"
           style="fill:#544b20;fill-rule:evenodd;stroke:#544b20;stroke-width:1pt"
           d="m 436.528,110.363 7.734,-5.965 -2.541,-0.332 -2.873,2.651 -3.425,0.553 1.105,3.093 z"
           inkscape:connector-curvature="0" />
        <path
           id="path621"
           style="fill:#544b20;fill-rule:evenodd;stroke:#544b20;stroke-width:1pt"
           d="m 431.968,111.459 -12.123,0.451 0.11,-1.326 4.42,-0.442 0.552,-1.767 c 0,0 1.326,-0.11 1.326,0 0,0.111 0.994,1.657 0.994,1.657 l 4.309,0.773 0.412,0.654 z"
           inkscape:connector-curvature="0" />
        <path
           id="path622"
           style="fill:#544b20;fill-rule:evenodd;stroke:#544b20;stroke-width:1pt"
           d="m 431.335,106.828 -4.198,0.11 -0.332,-2.32 4.53,2.21 z"
           inkscape:connector-curvature="0" />
        <path
           id="path623"
           style="fill:#544b20;fill-rule:evenodd;stroke:#544b20;stroke-width:1pt"
           d="m 424.264,104.729 -0.332,2.319 -4.087,0.663 4.419,-2.982 z"
           inkscape:connector-curvature="0" />
        <path
           id="path624"
           style="fill:#544b20;fill-rule:evenodd;stroke:#544b20;stroke-width:1pt"
           d="m 401.062,147.044 2.099,-5.303 -1.878,-3.646 -1.878,5.414 1.657,3.535 z"
           inkscape:connector-curvature="0" />
        <path
           id="path625"
           style="fill:#544b20;fill-rule:evenodd;stroke:#544b20;stroke-width:1pt"
           transform="translate(-0.110473,0.110443)"
           d="m 405.371,149.807 2.541,-6.298 -4.861,5.082 2.32,1.216 z"
           inkscape:connector-curvature="0" />
      </g>
      <path
         id="path628"
         style="fill:#a0210c;fill-rule:evenodd;stroke:#a0210c;stroke-width:1pt;stroke-opacity:0.99651998"
         transform="matrix(0.265442,0,0,0.260404,359.6833,74.41441)"
         d="m 476.898,225.824 -4.136,4.931 0.318,4.136 8.59,-0.159 c 2.757,-0.663 3.446,-1.644 3.977,-2.784 0.848,-1.405 0.265,-2.174 0.477,-4.056 l -9.226,-2.068 z"
         inkscape:connector-curvature="0" />
      <path
         id="path629"
         style="fill:#a0210c;fill-rule:evenodd;stroke:#a0210c;stroke-width:1pt;stroke-opacity:0.99651998"
         transform="matrix(0.265442,0,0,0.260404,365.2569,77.56252)"
         d="m 476.58,226.142 -3.5,3.34 0,3.818 7.636,-0.159 c 2.757,-0.663 3.127,-1.167 3.658,-2.306 0.848,-1.406 0.584,-1.379 0.796,-3.261 l -8.59,-1.432 z"
         inkscape:connector-curvature="0" />
      <path
         id="path630"
         style="fill:#a0210c;fill-rule:evenodd;stroke:#a0210c;stroke-width:1pt;stroke-opacity:0.99651998"
         transform="matrix(0.265442,0,0,0.260404,374.0818,74.82864)"
         d="m 476.898,225.983 -3.977,4.136 0.159,3.181 8.113,0.318 c 2.757,-0.663 2.332,-0.53 3.181,-1.988 0.848,-1.405 0.584,-1.697 0.796,-3.579 l -8.272,-2.068 z"
         inkscape:connector-curvature="0" />
      <path
         id="path631"
         style="fill:#a0210c;fill-rule:evenodd;stroke:#a0210c;stroke-width:1pt;stroke-opacity:0.99651998"
         transform="matrix(0.265442,0,0,0.260404,380.1199,76.89977)"
         d="m 477.852,225.506 -4.613,3.976 0,3.977 8.59,0.796 c 2.757,-0.663 2.969,-1.485 3.659,-2.466 0.848,-1.405 0.424,-1.538 0.636,-3.42 l -8.272,-2.863 z"
         inkscape:connector-curvature="0" />
      <path
         id="path632"
         style="fill:#a0210c;fill-rule:evenodd;stroke:#000000;stroke-width:1pt"
         transform="matrix(0.265442,0,0,0.260404,359.6833,74.41441)"
         d="m 497.1,131.017 16.225,10.976 c 3.05,-2.579 9.395,-1.016 11.88,-0.301 4.462,1.187 7.607,3.88 11.504,4.596 7.128,1.826 15.668,3.087 22.136,2.371 6.469,-0.715 11.902,-4.161 16.677,-6.666 l 0,-1.59 -3.181,0 c -5.164,1.894 -12.4,1.998 -17.941,1.256 -5.541,-0.742 -7.034,-3.274 -15.305,-5.71 l -0.636,-1.591 c 10.04,0.486 12.079,0.221 16.282,-1.647 4.109,-1.112 5.96,-3.543 8.28,-5.222 l -0.065,-1.88 -3.023,-0.159 c -3.894,2.644 -6.376,3.122 -12.342,2.565 -5.429,-0.56 -10.319,-3.71 -13.961,-3.776 -3.863,0.03 -3.681,-1.851 -7.417,-2.036 -5.939,-0.53 -12.358,0.277 -17.978,1.656 -6.734,2.068 -7.742,3.817 -11.135,7.158 z"
         inkscape:connector-curvature="0" />
      <path
         id="path633"
         style="fill-rule:evenodd;stroke:#000000;stroke-width:1pt"
         transform="matrix(0.265442,0,0,0.260404,359.6833,74.41441)"
         d="m 500.251,128.583 c 1.553,0.36 3.295,0.816 4.565,1.553 1.271,0.737 0.942,0.722 2.307,1.741 -0.219,-1.317 -0.157,-1.223 -1.035,-2.258 -0.879,-1.036 -2.323,-1.977 -3.483,-2.825 l -2.354,1.789 z"
         inkscape:connector-curvature="0" />
      <path
         id="path634"
         style="fill-rule:evenodd;stroke:#000000;stroke-width:1pt"
         transform="matrix(0.265442,0,0,0.260404,359.6833,74.41441)"
         d="m 513.807,140.444 c 0.031,-1.427 -0.69,-2.667 -1.224,-3.906 -0.533,-1.239 -0.973,-2.291 -1.977,-3.53 1.255,0.36 1.946,0.909 3.013,2.211 1.066,1.303 1.004,2.605 1.223,4.471 l -1.035,0.754 z"
         inkscape:connector-curvature="0" />
      <path
         id="path635"
         style="fill-rule:evenodd;stroke:#000000;stroke-width:1pt"
         transform="matrix(0.265442,0,0,0.260404,359.6833,74.41441)"
         d="m 516.914,123.029 c 0.377,0.989 1.116,1.668 1.742,3.778 0.541,1.917 0.799,4.6 0.799,4.6 -0.204,-1.428 0.157,-3.044 -0.047,-4.472 -0.204,-1.427 -0.973,-2.667 -1.177,-4.095 l -1.317,0.189 z"
         inkscape:connector-curvature="0" />
      <path
         id="path636"
         style="fill-rule:evenodd;stroke:#000000;stroke-width:1pt"
         transform="matrix(0.265442,0,0,0.260404,359.7583,74.41441)"
         d="m 529.81,123.876 0.659,7.908 0.754,-7.437 -1.413,-0.471 z"
         inkscape:connector-curvature="0" />
      <path
         id="path637"
         style="fill-rule:evenodd;stroke:#000000;stroke-width:1pt"
         transform="matrix(0.265442,0,0,0.260404,359.7333,74.38989)"
         d="m 526.704,140.35 c 0.314,-1.286 0.251,-2.573 0.094,-3.86 -0.157,-1.286 -0.597,-2.384 -1.036,-3.859 1.255,1.098 1.758,2.479 2.448,3.954 0,1.474 -0.376,2.76 -1.506,3.765 z"
         inkscape:connector-curvature="0" />
      <path
         id="path638"
         style="fill-rule:evenodd;stroke:#000000;stroke-width:1pt"
         transform="matrix(0.265442,0,0,0.260404,359.7083,74.34086)"
         d="m 540.448,137.055 c 0.047,0 0.401,2.683 -0.199,4.613 -0.6,1.93 -1.024,2.071 -2.154,3.107 1.506,-1.129 2.824,-1.506 3.295,-2.73 0.471,-1.883 -0.754,-4.707 -0.942,-4.99 z"
         inkscape:connector-curvature="0" />
      <path
         id="path639"
         style="fill-rule:evenodd;stroke:#000000;stroke-width:1pt"
         transform="matrix(0.265442,0,0,0.260404,359.9082,74.51247)"
         d="m 542.048,133.855 c -0.941,0.157 -1.129,-3.829 -1.694,-5.743 0.408,-0.22 0.816,-0.157 1.224,0.753 0.439,0.534 0.313,3.327 0.47,4.99 z"
         inkscape:connector-curvature="0" />
      <path
         id="path640"
         style="fill-rule:evenodd;stroke:#000000;stroke-width:1pt"
         transform="matrix(0.265442,0,0,0.260404,359.6833,74.31635)"
         d="m 552.215,133.007 0.377,-3.295 1.035,-0.094 c 0,0 0,2.73 0,2.824 0,0.095 -1.317,0.659 -1.412,0.565 z"
         inkscape:connector-curvature="0" />
      <path
         id="path641"
         style="fill-rule:evenodd;stroke:#000000;stroke-width:1pt"
         transform="matrix(0.265442,0,0,0.260404,359.6583,74.31635)"
         d="m 551.556,141.856 c 0.597,1.004 1.663,2.197 1.789,3.295 0.126,1.098 -0.22,1.632 -1.035,3.295 l 1.506,0.094 c 0.815,-1.333 1.067,-2.29 0.942,-3.341 -0.126,-1.052 -0.629,-2.103 -1.695,-2.966 l -1.507,-0.377 z"
         inkscape:connector-curvature="0" />
      <path
         id="path642"
         style="fill-rule:evenodd;stroke:#000000;stroke-width:1pt"
         transform="matrix(0.265442,0,0,0.260404,359.7083,74.31635)"
         d="m 562.571,142.704 0.376,4.612 1.224,-0.659 -0.282,-3.953 -1.318,0 z"
         inkscape:connector-curvature="0" />
      <path
         id="path643"
         style="fill:#dc9103;fill-rule:evenodd;stroke:#544b20;stroke-width:1pt"
         transform="matrix(0.265442,0,0,0.260404,359.6833,74.41441)"
         d="m 496.094,131.831 c -3.672,1.083 -5,3.151 -6.797,4.938 l -10.346,-5.341 c -1.678,1.419 -2.324,3.446 -1.517,5.521 0.807,2.074 4.053,5.321 6.361,6.926 -0.578,2.865 -1.43,5.027 -2.439,7.54 -1.125,2.825 -3.54,6.394 -3.61,7.54 -0.138,1.312 -0.558,4.123 1.367,4.872 1.926,0.749 8.118,-0.519 10.184,-0.38 -0.336,1.127 -1.14,3.098 -0.866,3.944 0.274,0.846 0.829,1.128 2.51,1.177 -0.484,1.047 -1.529,2.374 -1.028,2.999 1.298,1.001 2.785,0.828 4.036,0.75 -1.973,2.332 -6.902,6.82 -8.501,8.825 -1.692,2.332 -1.837,4.851 1.442,4.604 -1.22,1.378 -2.393,2.709 -2.206,3.899 0.282,1.425 0.985,2.381 3.329,1.555 -1.387,3.197 -0.476,6.066 0.013,9.403 -1.184,2.525 -0.681,4.863 -0.975,7.763 -2.412,1.392 -2.712,3.206 -4.28,6.005 -1.414,3.03 -4.046,3.857 -5.506,10.358 l 9.465,2.406 c 0.348,-1.337 1.586,-2.205 1.934,-3.541 0.347,-1.337 0.32,-3.002 0.151,-4.48 1.878,-2.772 5.678,-8.498 6.899,-11.551 2.067,-1.125 3.57,-1.829 5.121,-1.829 1.551,0 2.538,0.938 4.183,1.829 -0.728,2.573 -2.769,5.379 -2.887,8.984 l 0,9.947 c -0.412,2.471 -3.169,2.504 -4.332,9.946 l 8.503,2.246 c 1.444,-2.503 3.731,-2.848 4.331,-3.85 l 0.614,-10.334 c 1.082,-4.878 7.792,-8.911 7.889,-14.211 2.408,-0.033 3.317,0.217 4.272,-0.285 1.283,-0.455 1.723,-1.191 2.725,-2.115 0.386,1.595 1.617,1.735 2.66,1.735 1.042,0 3.116,-1.5 3.972,-2.11 0.602,0.865 0.921,1.683 2.179,1.985 1.258,0.302 4.813,-0.24 6.259,-0.595 l -6.987,11.652 c -0.261,1.123 0.088,1.824 -0.454,3.135 -0.508,1.177 -1.532,1.744 -1.993,2.828 l 7.921,1.929 1.264,-3.4 c 1.679,-0.721 3.031,-1.114 3.913,-2.21 0.882,-1.096 0.874,-3.178 1.381,-4.368 2.706,-2.002 6.959,-6.349 9.946,-9.946 2.028,0.349 4.9,2.058 5.99,4.612 0.153,2.74 0.351,7.779 -0.856,11.27 l -5.134,8.182 -0.582,1.342 8.082,2.935 5.134,-4.011 0.2,-5.721 c 2.579,-4.642 6.269,-7.179 9.786,-10.106 0,-0.161 0.375,-6.144 0.234,-6.378 -0.869,-0.674 -1.456,-0.269 -1.763,-1.506 -0.306,-1.236 -0.097,-4.63 0.066,-5.96 0.508,-0.642 1.579,-1.379 1.524,-1.927 -1.399,-1.565 -0.971,-5.616 -0.542,-8.775 -0.105,-3.597 4.715,-7.85 5.454,-9.946 l 0.301,-3.776 c -0.493,-0.928 -1.219,-1.481 -1.243,-2.269 -0.023,-0.787 0.937,-2.091 1.524,-2.926 l 1.022,-1.777 -0.16,-9.305 c -0.286,-1.005 -1.135,-2.572 -1.937,-2.733 -0.803,-0.16 -1.98,0.759 -2.876,1.77 l -4.645,3.495 c -2.227,0.694 -4.173,0.967 -8.088,-0.027 l -5.972,0.121 c -3.136,0.893 -4.772,1.037 -7.721,-0.274 l -3.536,0.058 c -1.102,0.612 -2.627,1.597 -3.823,1.833 -1.195,0.235 -2.813,0.283 -4.009,-0.091 -9.128,0.626 -6.861,1.298 -9.47,1.877 -2.095,-0.405 -1.423,-1.466 -9.566,-1.544 l -3.228,-0.963 c -4.073,-2.751 -7.209,-7.143 -9.922,-12.192 8.484,-2.477 12.044,-5.049 14.618,-10.949 l -11.997,0.457 -16.965,-11.491 z"
         inkscape:connector-curvature="0" />
      <path
         id="path644"
         style="fill-rule:evenodd;stroke:#000000;stroke-width:1pt"
         transform="matrix(0.265442,0,0,0.260404,359.7352,74.18044)"
         d="m 491.652,147.821 3.397,1.467 c 0.415,0.503 1.219,1.083 1.751,1.117 0.531,0.033 0.984,-0.519 1.438,-0.915 l 3.127,-1.669 c -1.853,-0.273 -2.418,-1.445 -4.388,-1.445 -1.97,0 -3.355,1.054 -5.325,1.445 z"
         inkscape:connector-curvature="0" />
      <path
         id="path645"
         style="fill-rule:evenodd;stroke:#000000;stroke-width:1pt"
         transform="matrix(0.265442,0,0,0.260404,359.6833,74.41441)"
         d="m 506.769,147.782 c 1.104,0.664 3.107,1.992 4.758,1.992 1.807,-0.156 1.778,-1.445 4.366,-2.304 l 3.796,-3.128 c -2.29,0.026 -7.237,0.483 -9.956,1.33 -2.29,0.612 -2.822,1.537 -2.964,2.11 z"
         inkscape:connector-curvature="0" />
      <path
         id="path646"
         style="fill-rule:evenodd;stroke:#000000;stroke-width:1pt"
         transform="matrix(0.265442,0,0,0.260404,359.7248,74.46528)"
         d="m 497.929,187.567 c -10e-4,0.286 -0.471,0.495 -0.707,0.156 -0.291,-4.058 -1.168,-6.905 -2.396,-10.065 1.386,2.404 2.537,6.293 3.103,9.909 z"
         inkscape:connector-curvature="0" />
      <path
         id="path647"
         style="fill-rule:evenodd;stroke:#000000;stroke-width:1pt"
         transform="matrix(0.265442,0,0,0.260404,359.8181,74.38387)"
         d="m 507.27,204.531 c -1.544,0.16 -2.152,-0.072 -3.696,0.088 -0.17,-4.083 -0.185,-8.752 -0.16,-11.663 0.589,0.074 2.311,1.906 3.33,4.793 0.266,2.13 0.65,4.534 0.526,6.782 z"
         inkscape:connector-curvature="0" />
      <path
         id="path648"
         style="fill-rule:evenodd;stroke:#000000;stroke-width:1pt"
         transform="matrix(0.265442,0,0,0.260404,359.6833,74.41441)"
         d="m 518.034,188.202 c 0.696,0.195 1.666,0.196 1.893,-0.273 0.295,-0.87 -0.583,-1.818 -0.912,-2.883 -1.145,-2.287 -1.78,-4.768 -2.259,-5.843 -0.504,-0.324 -1.047,-0.295 -0.927,0.241 0.657,2.034 1.783,7.974 2.205,8.758 z"
         inkscape:connector-curvature="0" />
      <path
         id="path649"
         style="fill-rule:evenodd;stroke:#000000;stroke-width:1pt"
         transform="matrix(0.265442,0,0,0.260404,359.6833,74.41441)"
         d="m 528.976,186.971 c 0.075,0.493 -1.569,-0.224 -1.846,-0.785 -0.024,-1.089 -2.237,-9.054 -1.871,-9.362 0.465,-0.232 1.907,2.662 2.372,3.994 0.109,0.788 1.079,3.685 1.345,6.153 z"
         inkscape:connector-curvature="0" />
      <path
         id="path650"
         style="fill-rule:evenodd;stroke:#000000;stroke-width:1pt"
         transform="matrix(0.265442,0,0,0.260404,359.6833,74.41441)"
         d="m 527.425,203.384 c -0.039,0.557 1.25,0.099 1.758,-0.32 1.473,-2.347 3.298,-4.811 3.834,-5.751 0.323,-1.005 1.935,-7.4 1.438,-7.349 -0.176,-0.185 -1.578,3.172 -3.388,6.485 -1.883,3.374 -3.662,6.612 -3.642,6.935 z"
         inkscape:connector-curvature="0" />
      <path
         id="path651"
         style="fill-rule:evenodd;stroke:#000000;stroke-width:1pt"
         transform="matrix(0.265442,0,0,0.260404,359.6833,74.41441)"
         d="m 538.399,199.947 c -0.536,0.263 1.076,-5.529 1.204,-6.555 0.295,-1.622 0.706,-4.533 1.352,-8.303 0.789,5.265 -0.142,10.921 -2.556,14.858 z"
         inkscape:connector-curvature="0" />
      <path
         id="path652"
         style="fill-rule:evenodd;stroke:#000000;stroke-width:1pt"
         transform="matrix(0.265442,0,0,0.260404,359.6833,74.41441)"
         d="m 544.981,182.22 c -0.352,0.313 -5.066,-7.63 -4.633,-7.669 0.121,-0.352 3.951,4.971 4.498,5.908 0.228,0.444 0.454,1.122 0.135,1.761 z"
         inkscape:connector-curvature="0" />
      <path
         id="path653"
         style="fill-rule:evenodd;stroke:#000000;stroke-width:1pt"
         transform="matrix(0.265442,0,0,0.260404,359.6833,74.41441)"
         d="m 556.013,188.117 c -0.352,-0.271 -0.211,-2.807 -0.909,-5.592 -0.697,-2.785 -1.883,-5.469 -1.648,-6.231 0.22,-0.401 0.987,-0.216 1.598,0.32 0.291,1.515 0.972,7.328 1.771,11.109 -0.011,0.366 -0.411,0.615 -0.812,0.394 z"
         inkscape:connector-curvature="0" />
      <path
         id="path654"
         style="fill-rule:evenodd;stroke:#000000;stroke-width:1pt"
         transform="matrix(0.265442,0,0,0.260404,359.6833,74.41441)"
         d="m 563.723,181.06 c -0.377,-0.409 1.024,2.727 2.044,6.453 1.02,3.727 1.542,10.31 1.79,9.842 0.701,-0.474 0.582,-1.065 1.674,-1.305 1.091,-0.239 5.152,0.146 4.916,-0.132 -2.512,-2.281 -4.829,-4.172 -6.56,-6.648 -1.73,-2.476 -2.875,-5.734 -3.864,-8.21 z"
         inkscape:connector-curvature="0" />
      <path
         id="path655"
         style="fill-rule:evenodd;stroke:#000000;stroke-width:1pt"
         transform="matrix(0.265442,0,0,0.260404,359.6833,74.41441)"
         d="m 573.22,215.04 c -0.788,0.579 -2.279,1.04 -2.715,0.799 -2.395,-5.077 -3.736,-8.396 -7.069,-13.825 -0.859,-1.289 -2.997,-1.09 -2.876,-1.598 0.08,-0.586 1.201,-0.351 1.926,-1.201 0.725,-0.849 0.82,-1.924 1.269,-2.314 -0.98,2.343 1.594,5.936 3.036,8.787 0.959,0.266 1.722,0.26 2.173,0.838 0.107,0.274 -1.037,0.468 -0.891,1.445 l 2.432,4.992 c 0.792,0.606 2.013,0.94 3.195,1.118 0.309,0.28 -0.242,0.678 -0.48,0.959 z"
         inkscape:connector-curvature="0" />
      <path
         id="path674"
         style="fill:none;stroke-width:1pt;stroke-opacity:0.99607801"
         transform="matrix(0.216519,0.150639,-0.153553,0.21241,536.744,64.47726)"
         d="M 103.349,305.553 49.3325,155.434 101.832,72.4905 l 87.297,39.8445 26.314,156.259 c -40.492,10.303 -63.322,16.657 -112.094,36.959 z"
         inkscape:connector-curvature="0" />
      <path
         id="path656"
         style="fill-rule:evenodd;stroke:#000000;stroke-width:1pt"
         transform="matrix(0.265442,0,0,0.260404,359.6833,74.41441)"
         d="m 578.199,170.66 c 1.503,0.085 2.861,0.219 3.307,-0.56 0.919,-1.929 1.452,-3.519 0.833,-4.773 -2.356,0.193 -4.136,1.299 -5.098,3.416 0.031,0.735 0.205,1.278 0.958,1.917 z"
         inkscape:connector-curvature="0" />
      <path
         id="path681"
         style="fill:#fdfcfc;fill-rule:evenodd;stroke:#fdfcfc;stroke-width:1pt"
         transform="matrix(0.265442,0,0,0.260404,359.6833,74.41441)"
         d="m 602.949,169.213 c 23.293,5.016 44.856,10.724 66.419,17.815 21.562,7.091 42.087,15.566 62.958,24.733 l -34.939,71.953 c -19.502,-7.565 -38.758,-13.663 -58.015,-20.004 -19.256,-6.342 -38.023,-11.951 -57.524,-18.048 l 21.101,-76.449 z"
         inkscape:connector-curvature="0" />
      <path
         id="path682"
         style="fill:#e6151e;fill-rule:evenodd;stroke:#e6151e;stroke-width:1pt"
         transform="matrix(0.265442,0,0,0.260404,359.6833,74.41441)"
         d="m 598.309,186.21 c 0,0 32.532,7.399 64.056,17.734 31.524,10.334 62.283,23.603 62.161,23.603 -0.245,0 -19.814,41.095 -19.814,41.095 -18.997,-7.705 -38.974,-14.922 -58.705,-21.404 -19.732,-6.482 -39.463,-12.719 -59.684,-17.489 l 11.986,-43.539 z"
         inkscape:connector-curvature="0" />
      <path
         id="path657"
         style="fill-rule:evenodd;stroke:#010001;stroke-width:1pt;stroke-opacity:0.99607801"
         transform="matrix(0.265442,0,0,0.260404,359.6833,74.41441)"
         d="m 601.012,206.307 c 3.2,-1.822 5.367,-2.314 7.09,-5.317 l 11.52,0.001 0.149,4.282 c 2.831,1.379 4.48,2.906 7.311,4.284 2.831,1.379 6.844,2.609 9.675,3.988 l 24.814,2.216 c 3.323,0.541 8.124,1.969 11.004,3.692 2.88,1.724 4.727,3.89 6.278,6.647 5.095,1.822 10.192,2.905 15.435,3.693 5.244,0.787 11.816,1.132 16.912,1.329 2.511,0.887 2.511,2.216 1.329,3.545 0,0 -2.807,3.877 -10.469,3.914 -7.662,0.037 -16.34,-4.357 -20.106,-3.766 0.148,2.363 4.136,7.238 8.715,9.158 l -0.147,11.224 -2.069,1.921 -2.215,-1.477 c 1.773,-2.658 1.181,-5.761 0.443,-8.419 -1.699,-2.511 -1.92,-3.545 -5.095,-3.692 -3.767,-0.74 -6.5,-1.774 -11.3,-5.171 l -1.773,0.296 c -1.034,1.871 -2.068,3.151 -4.431,4.283 l -4.874,-0.295 c 0,0 -11.226,-2.511 -11.226,-2.659 0,-0.147 -0.148,-1.772 0.148,-1.92 0.295,-0.148 3.84,-0.147 4.135,-0.147 2.364,0.738 7.386,0.738 7.386,0.738 l -0.148,-4.284 7.533,-0.443 c -1.526,-5.317 -2.019,-8.715 -9.01,-9.896 l -21.861,0.591 0.296,3.102 c -5.465,-0.739 -15.361,-0.871 -20.416,0.836 -2.954,0.296 -7.205,1.822 -9.125,1.822 l -2.216,-0.59 c -1.477,-0.443 -1.477,-0.886 -0.886,-2.216 9.453,-0.739 10.931,-1.477 13.737,-2.806 0.148,-0.886 -1.034,-2.807 -1.477,-2.955 -5.908,-0.295 -10.635,0.148 -12.259,-0.147 -2.511,-0.739 -5.909,-2.068 -5.909,-2.216 0,-0.148 -0.443,-2.363 -0.295,-2.363 0.147,0 3.841,1.034 3.987,1.034 3.989,0.738 10.931,0.443 12.556,-0.443 l 0.148,-3.25 c -0.148,-1.477 -1.182,-2.806 -1.478,-2.954 -0.295,-0.148 -6.499,-0.886 -8.715,-0.886 -3.594,-0.64 -3.052,-2.462 -3.101,-4.284 z"
         inkscape:connector-curvature="0" />
      <path
         id="path658"
         style="fill:#fdfdfd;fill-opacity:0.996081;fill-rule:evenodd;stroke:#010001;stroke-width:1pt;stroke-opacity:0.99607801"
         transform="matrix(0.265442,0,0,0.260404,359.6833,74.41441)"
         d="m 648.72,232.599 c 3.348,1.083 5.81,1.427 10.783,1.772 l 7.533,-0.443 c -1.526,-5.317 -2.019,-8.715 -9.01,-9.896 l -21.861,0.591 0.296,3.102 c 6.647,2.51 9.896,3.889 12.259,4.874 z"
         inkscape:connector-curvature="0" />
      <path
         id="path679"
         style="fill:#011171;fill-opacity:0.99607801;fill-rule:evenodd;stroke:#011171;stroke-width:1pt"
         transform="matrix(0.261852,0.04268235,-0.04350807,0.256882,403.4875,61.86232)"
         d="m 101.184,306.598 -63.5705,-141.57 47.2674,-83.3131 91.4501,34.6671 40.201,154.53 c -42.015,10.284 -68.887,19.038 -115.348,35.686 z"
         inkscape:connector-curvature="0" />
      <path
         id="path563"
         style="fill:#fbfd10;fill-opacity:0.99607801;fill-rule:evenodd;stroke:#fdc605;stroke-width:1pt;stroke-opacity:0.99607801"
         transform="matrix(0.265442,0,0,0.260404,359.6833,74.41441)"
         d="m 78.2813,151.268 13.7499,12.344 -3.9062,19.844 19.063,-6.719 14.062,12.344 3.125,-18.281 15.625,-5.157 -11.875,-13.125 3.906,-18.124 c 0,0 -18.75,5.624 -18.75,5.468 0,-0.156 -12.499,-12.187 -12.656,-12.031 -0.156,0.156 -4.0625,17.187 -4.0625,17.187 l -18.2812,6.25 z"
         inkscape:connector-curvature="0" />
      <path
         id="path565"
         style="fill:#ffc500;fill-rule:evenodd;stroke-width:1pt"
         transform="matrix(0.265442,0,0,0.260404,359.6833,74.41441)"
         d="m 78.5938,151.424 61.2502,14.064 -15.782,5.468 -14.218,-11.719 c 0,0 11.562,29.375 11.406,29.219 -0.156,-0.156 -13.437,-11.407 -13.906,-11.875 l 2.344,-17.344 c 0,0 -21.2505,24.063 -21.2505,23.907 0,-0.157 4.0625,-19.688 4.0625,-19.688 L 78.5938,151.424 z"
         inkscape:connector-curvature="0" />
      <path
         id="path566"
         style="fill:#ffc500;fill-rule:evenodd;stroke-width:1pt"
         transform="matrix(0.265442,0,0,0.260404,359.6833,74.41441)"
         d="M 96.4062,145.018 110,158.3 l -9.375,-30.781 -4.2188,17.499 z"
         inkscape:connector-curvature="0" />
      <path
         id="path567"
         style="fill:#ffc500;fill-rule:evenodd;stroke-width:1pt"
         transform="matrix(0.265442,0,0,0.260404,359.6833,74.41441)"
         d="m 113.126,140.019 c 0.156,0.156 -3.282,17.968 -3.126,17.968 1.562,-1.875 22.031,-23.594 21.876,-23.594 -0.157,0 -18.438,5.782 -18.75,5.626 z"
         inkscape:connector-curvature="0" />
      <path
         id="path666"
         style="fill:#fbfd10;fill-opacity:0.99607801;fill-rule:evenodd;stroke:#fdc605;stroke-width:1pt;stroke-opacity:0.99607801"
         transform="matrix(0.206195,0.163989,-0.167161,0.202282,546.7236,62.46554)"
         d="m 78.2813,151.268 13.7499,12.344 -3.9062,19.844 19.063,-6.719 14.062,12.344 3.125,-18.281 15.625,-5.157 -11.875,-13.125 3.906,-18.124 c 0,0 -18.75,5.624 -18.75,5.468 0,-0.156 -12.499,-12.187 -12.656,-12.031 -0.156,0.156 -4.0625,17.187 -4.0625,17.187 l -18.2812,6.25 z"
         inkscape:connector-curvature="0" />
      <path
         id="path667"
         style="fill:#ffc500;fill-rule:evenodd;stroke-width:1pt"
         transform="matrix(0.206195,0.163989,-0.167161,0.202282,546.7236,62.46554)"
         d="m 78.5938,151.424 61.2502,14.064 -15.782,5.468 -14.218,-11.719 c 0,0 11.562,29.375 11.406,29.219 -0.156,-0.156 -13.437,-11.407 -13.906,-11.875 l 2.344,-17.344 c 0,0 -21.2505,24.063 -21.2505,23.907 0,-0.157 4.0625,-19.688 4.0625,-19.688 L 78.5938,151.424 z"
         inkscape:connector-curvature="0" />
      <path
         id="path668"
         style="fill:#fdc605;fill-rule:evenodd;stroke-width:1pt"
         transform="matrix(0.206195,0.163989,-0.167161,0.202282,546.7236,62.46554)"
         d="M 96.4062,145.018 110,158.3 l -9.375,-30.781 -4.2188,17.499 z"
         inkscape:connector-curvature="0" />
      <path
         id="path669"
         style="fill:#fdc605;fill-rule:evenodd;stroke-width:1pt"
         transform="matrix(0.206195,0.163989,-0.167161,0.202282,546.7236,62.46554)"
         d="m 113.126,140.019 c 0.156,0.156 -3.282,17.968 -3.126,17.968 1.562,-1.875 22.031,-23.594 21.876,-23.594 -0.157,0 -18.438,5.782 -18.75,5.626 z"
         inkscape:connector-curvature="0" />
      <path
         id="path675"
         style="fill:#e6141d;fill-rule:evenodd;stroke:#e6141d;stroke-width:1pt"
         transform="matrix(0.265442,0,0,0.260404,359.6833,74.41441)"
         d="m 175.367,121.341 c 21.456,-10.454 45.538,-18.61 70.935,-22.1667 24.41,-3.5582 48.84,-3.8664 73.908,-3.8117 0,0 3.284,39.1324 3.284,39.4614 -19.704,0.164 -34.388,-0.209 -69.147,4.374 -34.564,4.886 -48.802,9.073 -69.82,17.283 l -9.16,-35.14 z"
         inkscape:connector-curvature="0" />
      <path
         id="path677"
         style="fill:#e6141d;fill-opacity:0.996081;fill-rule:evenodd;stroke:#e6141d;stroke-width:1pt"
         transform="matrix(0.265442,0,0,0.260404,359.6833,74.41441)"
         d="m 193.74,190.616 c -0.329,0 10.855,41.397 10.855,41.397 20.635,-5.309 41.598,-9.305 62.561,-12.315 20.963,-3.01 43.257,-4.725 63.563,-6.093 l -3.595,-40.376 c -21.401,-1.314 -45.792,-1.314 -67.85,1.641 -22.058,2.956 -43.476,8.193 -65.534,15.746 z"
         inkscape:connector-curvature="0" />
      <path
         id="path688"
         style="fill:#ffffff;fill-rule:evenodd;stroke:#e5141d;stroke-width:4"
         transform="matrix(0.265442,0,0,0.260404,359.6833,74.41441)"
         d="m 95.2456,318.449 598.8724,0 0,391.421 C 678.896,862.307 535.158,976.253 403.815,975.384 262.034,981.689 105.248,863.394 93.9408,708.565 l 1.3048,-390.116 z"
         inkscape:connector-curvature="0" />
      <path
         id="path689"
         style="fill:#d61517;fill-rule:evenodd;stroke:#e5141d;stroke-width:4"
         transform="matrix(0.254378,0,0,0.24955,364.0428,81.43736)"
         d="m 95.2456,318.449 598.8724,0 0,391.421 C 678.896,862.307 535.158,976.253 403.815,975.384 262.034,981.689 105.248,863.394 93.9408,708.565 l 1.3048,-390.116 z"
         inkscape:connector-curvature="0" />
      <rect
         id="rect693"
         style="fill:#ffffff;fill-rule:evenodd;stroke-width:1pt"
         transform="matrix(0.265442,0,0,0.260404,359.6833,74.41441)"
         y="334.03314"
         x="452.67575"
         ry="0"
         height="122.35474"
         width="110.59692" />
      <rect
         id="rect694"
         style="fill:#ffffff;fill-rule:evenodd;stroke-width:1pt"
         transform="matrix(0.265442,0,0,0.260404,359.3907,74.41441)"
         y="334.03311"
         x="225.603"
         ry="0"
         height="122.35474"
         width="110.59692" />
      <rect
         id="rect695"
         style="fill:#ffffff;fill-rule:evenodd;stroke-width:1pt"
         transform="matrix(0.265442,0,0,0.260404,359.6833,74.41441)"
         y="460.42929"
         x="109.11375"
         ry="0"
         height="119.41528"
         width="112.08009" />
      <rect
         id="rect696"
         style="fill:#ffffff;fill-rule:evenodd;stroke-width:1pt"
         transform="matrix(0.265442,0,0,0.260404,359.6833,74.41437)"
         y="460.42941"
         x="339.50684"
         ry="0"
         height="119.41528"
         width="109.49464" />
      <rect
         id="rect697"
         style="fill:#ffffff;fill-rule:evenodd;stroke-width:1pt"
         transform="matrix(0.265442,0,0,0.260404,359.6833,74.41441)"
         y="460.42929"
         x="566.57965"
         ry="0"
         height="119.41528"
         width="112.82838" />
      <rect
         id="rect698"
         style="fill:#ffffff;fill-rule:evenodd;stroke-width:1pt"
         transform="matrix(0.265442,0,0,0.260404,359.6833,74.41441)"
         y="583.51923"
         x="452.67575"
         ry="0"
         height="121.25246"
         width="110.59692" />
      <rect
         id="rect699"
         style="fill:#ffffff;fill-rule:evenodd;stroke-width:1pt"
         transform="matrix(0.265442,0,0,0.260404,359.6833,74.41441)"
         y="583.51923"
         x="224.5007"
         ry="0"
         height="121.25246"
         width="110.59692" />
      <rect
         id="rect700"
         style="fill:#ffffff;fill-rule:evenodd;stroke-width:1pt"
         transform="matrix(0.265442,0,0,0.260404,359.6833,74.31868)"
         y="708.81317"
         x="339.50684"
         ry="0"
         height="121.25245"
         width="109.49464" />
      <path
         id="path705"
         style="fill:#ffffff;fill-rule:evenodd;stroke:#ffffff;stroke-width:1pt"
         transform="matrix(0.265442,0,0,0.260404,359.6833,74.41441)"
         d="m 567.28,709.505 0.028,119.115 67.341,0.089 c 30.721,-45.75 41.242,-90.313 44.131,-119.178 -0.498,0 -111.061,-0.054 -111.5,-0.026 z"
         inkscape:connector-curvature="0" />
      <path
         id="path706"
         style="fill:#ffffff;fill-rule:evenodd;stroke:#ffffff;stroke-width:1pt"
         transform="matrix(0.265442,0,0,0.260404,359.6833,74.41441)"
         d="m 453.355,834.442 0.017,119.539 c 47.9,-10.147 86.914,-33.282 109.248,-50.264 l 0.009,-69.323 -109.274,0.048 z"
         inkscape:connector-curvature="0" />
      <path
         id="path708"
         style="fill:#ffffff;fill-rule:evenodd;stroke:#ffffff;stroke-width:1pt"
         transform="matrix(0.265442,0,0,0.260404,359.6833,74.41441)"
         d="m 225.339,834.207 -0.158,67.544 c 37.624,27.974 80.592,44.345 109.208,50.64 l 0.019,-118.14 -109.069,-0.044 z"
         inkscape:connector-curvature="0" />
      <path
         id="path710"
         style="fill:#ffffff;fill-rule:evenodd;stroke:#ffffff;stroke-width:1pt"
         transform="matrix(0.265442,0,0,0.260404,359.6833,74.41441)"
         d="m 109.325,709.342 c 3.572,46.8 23.131,90.209 44.144,119.568 l 67.057,-0.115 0.012,-119.504 -111.213,0.051 z"
         inkscape:connector-curvature="0" />
    </g>
  </g>
</svg>
