<?xml version="1.0" encoding="UTF-8" standalone="no"?>
<!-- Created with Sodipodi ("http://www.sodipodi.com/") -->

<svg
   xmlns:dc="http://purl.org/dc/elements/1.1/"
   xmlns:cc="http://creativecommons.org/ns#"
   xmlns:rdf="http://www.w3.org/1999/02/22-rdf-syntax-ns#"
   xmlns:svg="http://www.w3.org/2000/svg"
   xmlns="http://www.w3.org/2000/svg"
   xmlns:sodipodi="http://sodipodi.sourceforge.net/DTD/sodipodi-0.dtd"
   xmlns:inkscape="http://www.inkscape.org/namespaces/inkscape"
   version="1"
   x="0.00000000"
   y="0.00000000"
   width="512"
   height="512"
   id="svg378"
   inkscape:version="0.48.1 r9760"
   sodipodi:docname="im.svg">
  <sodipodi:namedview
     pagecolor="#ffffff"
     bordercolor="#666666"
     borderopacity="1"
     objecttolerance="10"
     gridtolerance="10"
     guidetolerance="10"
     inkscape:pageopacity="0"
     inkscape:pageshadow="2"
     inkscape:window-width="1280"
     inkscape:window-height="723"
     id="namedview3889"
     showgrid="false"
     inkscape:zoom="0.38301588"
     inkscape:cx="531.49426"
     inkscape:cy="404.68296"
     inkscape:window-x="0"
     inkscape:window-y="24"
     inkscape:window-maximized="1"
     inkscape:current-layer="svg378" />
  <metadata
     id="metadata3891">
    <rdf:RDF>
      <cc:Work
         rdf:about="">
        <dc:format>image/svg+xml</dc:format>
        <dc:type
           rdf:resource="http://purl.org/dc/dcmitype/StillImage" />
      </cc:Work>
    </rdf:RDF>
  </metadata>
  <defs
     id="defs380">
    <clipPath
       clipPathUnits="userSpaceOnUse"
       id="clipPath9267">
      <rect
         id="rect9269"
         height="744.09448"
         x="148.23758"
         style="fill:#000000;fill-opacity:0.67000002;stroke:none"
         width="744.09448"
         y="-1.5330501e-06" />
    </clipPath>
  </defs>
  <g
     transform="matrix(0.68808466,0,0,0.68808466,-102,1.0548682e-6)"
     id="flag"
     clip-path="url(#clipPath9267)"
     inkscape:label="#g9101">
    <rect
       width="1062.99"
       height="744.09448"
       x="-1062.99"
       y="-744.09448"
       transform="scale(-1,-1)"
       style="font-size:12px;fill:#ba0000;fill-rule:evenodd;stroke-width:1pt"
       id="rect148" />
    <path
       inkscape:connector-curvature="0"
       d="m 238.862,224.504 c 0.121,-0.366 0.365,-4.14 0.243,-4.14 -0.122,0 -5.722,-6.574 -5.6,-6.574 0.122,0 7.183,1.583 7.183,1.339 0,-0.243 2.8,-6.939 2.8,-7.061 0,-0.121 3.409,8.157 3.409,8.157 l 6.939,3.044 -4.87,4.017 c 0,0 1.096,7.792 1.096,7.914 0,0.121 -4.87,-4.627 -4.87,-4.627 l -5.357,0.609 c 0,0 -0.73,-2.435 -0.973,-2.678 z"
       transform="matrix(2.402454,0,0,2.402454,-17.21325,7.103897)"
       style="font-size:12px;fill:#ffef00;fill-opacity:0.98823499;fill-rule:evenodd;stroke:#000000;stroke-width:1pt"
       id="path747" />
    <path
       inkscape:connector-curvature="0"
       d="m 201.141,122.196 c -4.626,2.382 -22.38,22.676 -24.815,25.841 -2.04,4.595 -6.03,10.408 -10.14,14.15 -4.387,3.319 -6.825,7.853 -6.221,12.146 -0.049,5.342 2.946,8.979 5.332,12.738 1.412,1.717 3.312,2.827 5.332,2.962 4.144,0.547 4.512,1.823 6.586,2.613 8.17,11.124 20.358,19.327 29.136,25.825 5.595,2.949 9.486,5.898 10.819,7.508 2.57,4.907 2.097,9.692 1.745,12.043 -2.172,8.196 -4.345,16.392 -6.517,24.588 -1.096,6.696 4.723,5.19 5.036,3.851 2.626,-3.409 6.545,-1.015 12.145,-20.737 2.567,-3.456 5.135,-6.912 7.702,-10.368 0,0 2.963,-1.185 2.963,-1.481 4.505,-5.409 1.075,-8.505 -1.482,-9.479 -1.876,-0.691 -3.752,-1.383 -5.628,-2.074 0,0 -6.517,-6.517 -6.813,-6.517 -3.097,-9.009 -18.298,-28.242 -21.829,-30.92 -2.444,-2.547 -3.607,-3.632 -5.927,-5.049 -3.567,-1.706 -4.718,-2.261 -6.903,-3.133 -1.819,-0.73 -0.524,-2.727 0.633,-3.64 12.04,-6.554 21.584,-13.838 33.137,-21.244 0.592,-0.395 1.185,-0.79 1.777,-1.185 -1.382,-7.899 -2.765,-15.799 -4.147,-23.698 -6.418,-2.271 -12.837,-4.543 -19.255,-6.814 -1.01,0.691 -1.777,1.383 -2.666,2.074 z"
       transform="matrix(2.402454,0,0,2.402454,-17.21325,7.103897)"
       style="font-size:12px;fill:#ffffff;fill-rule:evenodd;stroke:#000000;stroke-width:1.59449005"
       id="path724" />
    <path
       inkscape:connector-curvature="0"
       d="m 217.252,246.966 c 0.061,-0.243 12.052,-2.435 12.052,-2.435 0,0 -1.4,4.444 -1.461,4.444 l -11.93,3.591 1.339,-5.6 z"
       transform="matrix(2.402454,0,0,2.402454,-17.21325,7.103897)"
       style="font-size:12px;fill:#ffec00;fill-rule:evenodd;stroke-width:1pt"
       id="path745" />
    <path
       inkscape:connector-curvature="0"
       d="m 186.004,201.816 c 2.313,-6.148 8.734,-11.016 13.047,-12.359"
       transform="matrix(2.402454,0,0,2.402454,-17.21325,7.103897)"
       style="font-size:12px;fill:none;stroke:#000000;stroke-width:1pt"
       id="path725" />
    <path
       inkscape:connector-curvature="0"
       d="m 216.821,247.074 c 0.774,-0.218 4.211,-1.221 5.212,-1.377 1.068,-0.25 2.131,-0.53 3.158,-0.861 1.185,-0.242 1.927,-0.465 3.158,-0.689 0.964,-0.368 1.917,-0.62 2.948,-0.861 m -16.647,11.202 c 0.1,-0.134 0.917,-0.856 1.504,-1.205 0.691,-0.218 3.054,-1.221 3.948,-1.377 0.954,-0.25 1.903,-0.53 2.82,-0.861 1.059,-0.242 1.721,-0.465 2.821,-0.689 0.861,-0.368 1.712,-0.62 2.632,-0.861"
       transform="matrix(2.402454,0,0,2.402454,-17.21325,7.103897)"
       style="font-size:12px;fill:none;stroke:#000000;stroke-width:1.10579996pt"
       id="path744" />
    <path
       inkscape:connector-curvature="0"
       d="m 219.519,203.556 c -0.058,0 -0.115,0 -0.172,0 0.539,0 0.208,-0.045 -0.517,0.861 -0.258,0.696 -2.468,2.238 -4.132,2.238 -0.803,0.086 -2.037,0.172 -2.841,0.172 -0.229,0 -0.545,-0.172 -0.775,-0.172"
       transform="matrix(2.402454,0,0,2.402454,-17.21325,7.103897)"
       style="font-size:12px;fill:none;stroke:#000000;stroke-width:1pt"
       id="path726" />
    <path
       inkscape:connector-curvature="0"
       d="m 219.347,239.024 c 0.057,0 0.114,0 0.172,0 -0.23,0 0.459,0 0.688,0 0.893,0 1.789,0.159 2.583,0.172 0.861,0 1.722,0.244 2.583,0.244 0.869,0.123 1.916,0.083 2.815,0.211 1.008,0.034 1.817,0.233 2.866,0.233 0.846,0.032 1.302,0.173 2.239,0.173 l -2.239,-0.173 c 0.846,0.032 1.302,0.173 2.239,0.173"
       transform="matrix(2.402454,0,0,2.402454,-17.21325,7.103897)"
       style="font-size:12px;fill:none;stroke:#000000;stroke-width:1pt"
       id="path728" />
    <path
       inkscape:connector-curvature="0"
       d="m 213.493,260.028 c 0.092,-0.134 0.84,-0.856 1.377,-1.205 0.633,-0.218 2.797,-1.221 3.616,-1.377 0.873,-0.25 1.742,-0.53 2.582,-0.861 0.97,-0.242 1.576,-0.465 2.583,-0.689 0.789,-0.368 1.568,-0.62 2.41,-0.861"
       transform="matrix(2.402454,0,0,2.402454,-17.21325,7.103897)"
       style="font-size:12px;fill:none;stroke:#000000;stroke-width:1pt"
       id="path727" />
    <path
       inkscape:connector-curvature="0"
       d="m 229.616,230.102 c -0.487,1.414 0.144,1.769 0.405,2.379 0.454,0.591 1.613,1.492 3.444,2.066 0.706,0.19 1.249,0.376 2.066,0.689 0.541,0.05 0.807,0.185 1.205,0.344"
       transform="matrix(2.402454,0,0,2.402454,-17.21325,7.103897)"
       style="font-size:12px;fill:none;stroke:#000000;stroke-width:1pt"
       id="path729" />
    <path
       inkscape:connector-curvature="0"
       d="m 161.497,178.247 c 0.057,0 0.115,0 0.172,0 -0.54,0 -0.216,0.035 0.689,-0.689 0.559,-0.625 1.026,-0.908 1.549,-1.549"
       transform="matrix(2.402454,0,0,2.402454,-17.21325,7.103897)"
       style="font-size:12px;fill:none;stroke:#000000;stroke-width:1pt"
       id="path730" />
    <path
       inkscape:connector-curvature="0"
       d="m 172.645,190.512 c 0.115,0 10.016,-4.99 11.073,-6.056 0.749,-0.543 1.316,-1.116 2.227,-1.733 0.584,-0.305 1.003,-0.696 1.55,-1.033 0.455,-0.659 1.049,-1.057 1.377,-1.66 0.608,-0.527 0.347,-1.098 0.84,-1.733 0.233,-0.65 0.669,-1.745 0.811,-2.34"
       transform="matrix(2.402454,0,0,2.402454,-17.21325,7.103897)"
       style="font-size:12px;fill:none;stroke:#000000;stroke-width:1pt"
       id="path731" />
    <path
       inkscape:connector-curvature="0"
       d="m 203.133,183.362 c 0.054,0.356 -0.158,1.453 -0.143,2.288 -0.034,0.968 -1.279,3.958 -2.784,4.851"
       transform="matrix(2.402454,0,0,2.402454,-17.21325,7.103897)"
       style="font-size:12px;fill:none;stroke:#000000;stroke-width:1pt"
       id="path733" />
    <path
       inkscape:connector-curvature="0"
       d="m 185.345,183.251 c 0.058,0 1.565,0.49 4.084,1.265 3.032,1.09 9.338,5.064 9.964,5.611 0.639,0.503 1.782,0.952 2.22,1.549 0.685,0.592 1.187,1.275 1.722,1.894 0.629,0.767 1.165,1.416 1.549,2.066 1.915,1.553 7.066,12.306 7.231,12.913 0.289,0.568 0.647,1.359 0.861,1.894 0.382,0.44 0.641,1.062 1.033,1.722 0.36,0.856 0.763,1.246 1.206,1.894 0.57,0.396 1.338,1.148 2.066,1.549 0.776,0.664 1.504,0.934 2.066,1.378 0.812,0.345 9.886,6.081 10.307,6.368 0.829,0.666 3.36,3.289 1.583,5.197 -0.754,0.645 -1.433,1.499 -2.077,1.864 -0.656,0.657 -1.569,0.951 -2.323,1.291 -4.088,1.208 -6.17,0.775 -6.974,0.775 -0.287,0 -0.574,0 -0.861,0"
       transform="matrix(2.402454,0,0,2.402454,-17.21325,7.103897)"
       style="font-size:12px;fill:none;stroke:#000000;stroke-width:1pt"
       id="path734" />
    <path
       inkscape:connector-curvature="0"
       d="m 165.304,162.966 c 1.162,0.455 0.693,0.119 1.739,0.595 0.703,0.308 1.166,0.316 1.857,0.568 0.733,0.235 2.781,0.604 3.765,1.592 0.722,0.652 1.273,1.203 2.066,1.679 0.938,0.647 1.615,0.935 2.778,1.42 0.981,0.367 2.078,0.774 3.07,0.809 1.031,0.06 1.278,0.009 2.267,0.009 0.804,0 1.607,0 2.411,0 l -2.411,0 c 0.804,0 1.607,0 2.411,0"
       transform="matrix(2.402454,0,0,2.402454,-17.21325,7.103897)"
       style="font-size:12px;fill:none;stroke:#000000;stroke-width:1pt"
       id="path735" />
    <path
       inkscape:connector-curvature="0"
       d="m 165.027,174.459 c 2.582,-0.172 6.886,0.603 6.972,0.603 0.001,0 5.682,-0.086 5.682,-0.086 2.985,-0.288 3.644,-1.435 4.132,-2.239 1.119,-1.721 1.894,-2.324 2.755,-3.615 1.377,-1.033 3.272,1.377 3.358,1.377 4.82,4.563 0.946,10.158 0.688,10.33 -2.41,2.21 -2.927,2.353 -4.39,0.947 -1.464,-1.722 -1.894,-2.496 -3.099,-3.099 -2.324,-1.119 -7.145,-0.258 -7.232,-0.258 -0.086,0 -2.496,0.947 -2.496,0.947 -1.177,0.43 -1.923,1.464 -3.96,1.807 -2.066,0.144 -2.755,-0.057 -3.788,-1.721 -1.377,-2.152 -0.689,-4.735 1.378,-4.993 z"
       transform="matrix(2.402454,0,0,2.402454,-17.21325,7.103897)"
       style="font-size:12px;fill:#ffe606;fill-rule:evenodd;stroke:#000000;stroke-width:1pt"
       id="path738" />
    <path
       inkscape:connector-curvature="0"
       d="m 238.862,224.504 c 0.121,-0.366 0.365,-4.14 0.243,-4.14 -0.122,0 -5.722,-6.574 -5.6,-6.574 0.122,0 7.183,1.583 7.183,1.339 0,-0.243 2.8,-6.939 2.8,-7.061 0,-0.121 3.409,8.157 3.409,8.157 l 6.939,3.044 -4.87,4.017 c 0,0 1.096,7.792 1.096,7.914 0,0.121 -4.87,-4.627 -4.87,-4.627 l -5.357,0.609 c 0,0 -0.73,-2.435 -0.973,-2.678 z"
       transform="matrix(-1.177409,-2.094158,2.094157,-1.177409,514.1974,939.9071)"
       style="font-size:12px;fill:#ffef00;fill-opacity:0.98823499;fill-rule:evenodd;stroke:#000000;stroke-width:1pt"
       id="path770" />
    <path
       inkscape:connector-curvature="0"
       d="m 201.141,122.196 c -4.626,2.382 -22.38,22.676 -24.815,25.841 -2.04,4.595 -6.03,10.408 -10.14,14.15 -4.387,3.319 -6.825,7.853 -6.221,12.146 -0.049,5.342 2.946,8.979 5.332,12.738 1.412,1.717 3.312,2.827 5.332,2.962 4.144,0.547 4.512,1.823 6.586,2.613 8.17,11.124 20.358,19.327 29.136,25.825 5.595,2.949 9.486,5.898 10.819,7.508 2.57,4.907 2.097,9.692 1.745,12.043 -2.172,8.196 -4.345,16.392 -6.517,24.588 -1.096,6.696 4.723,5.19 5.036,3.851 2.626,-3.409 6.545,-1.015 12.145,-20.737 2.567,-3.456 5.135,-6.912 7.702,-10.368 0,0 2.963,-1.185 2.963,-1.481 4.505,-5.409 1.075,-8.505 -1.482,-9.479 -1.876,-0.691 -3.752,-1.383 -5.628,-2.074 0,0 -6.517,-6.517 -6.813,-6.517 -3.097,-9.009 -18.39,-28.426 -21.921,-31.104 -3.456,-2.271 -2.043,-3.264 -5.743,-4.865 -2.739,-1.522 -0.855,-0.881 -6.995,-3.133 -1.819,-0.73 -0.524,-2.727 0.633,-3.64 12.04,-6.554 21.584,-13.838 33.137,-21.244 0.592,-0.395 1.185,-0.79 1.777,-1.185 -1.382,-7.899 -2.765,-15.799 -4.147,-23.698 -6.418,-2.271 -12.837,-4.543 -19.255,-6.814 -1.01,0.691 -1.777,1.383 -2.666,2.074 z"
       transform="matrix(-1.177409,-2.094158,2.094157,-1.177409,514.1974,939.9071)"
       style="font-size:12px;fill:#ffffff;fill-rule:evenodd;stroke:#000000;stroke-width:1.59449005"
       id="path771" />
    <path
       inkscape:connector-curvature="0"
       d="m 217.252,246.966 c 0.061,-0.243 12.052,-2.435 12.052,-2.435 0,0 -1.4,4.444 -1.461,4.444 l -11.93,3.591 1.339,-5.6 z"
       transform="matrix(-1.177409,-2.094158,2.094157,-1.177409,514.1974,939.9071)"
       style="font-size:12px;fill:#ffec00;fill-rule:evenodd;stroke-width:1pt"
       id="path772" />
    <path
       inkscape:connector-curvature="0"
       d="m 186.004,201.816 c 2.313,-6.148 8.734,-11.016 13.047,-12.359"
       transform="matrix(-1.177409,-2.094158,2.094157,-1.177409,514.1974,939.9071)"
       style="font-size:12px;fill:none;stroke:#000000;stroke-width:1pt"
       id="path773" />
    <path
       inkscape:connector-curvature="0"
       d="m 216.821,247.074 c 0.774,-0.218 4.211,-1.221 5.212,-1.377 1.068,-0.25 2.131,-0.53 3.158,-0.861 1.185,-0.242 1.927,-0.465 3.158,-0.689 0.964,-0.368 1.917,-0.62 2.948,-0.861 m -16.647,11.202 c 0.1,-0.134 0.917,-0.856 1.504,-1.205 0.691,-0.218 3.054,-1.221 3.948,-1.377 0.954,-0.25 1.903,-0.53 2.82,-0.861 1.059,-0.242 1.721,-0.465 2.821,-0.689 0.861,-0.368 1.712,-0.62 2.632,-0.861"
       transform="matrix(-1.177409,-2.094158,2.094157,-1.177409,514.1974,939.9071)"
       style="font-size:12px;fill:none;stroke:#000000;stroke-width:1.10579996pt"
       id="path774" />
    <path
       inkscape:connector-curvature="0"
       d="m 219.519,203.556 c -0.058,0 -0.115,0 -0.172,0 0.539,0 0.208,-0.045 -0.517,0.861 -0.258,0.696 -2.468,2.238 -4.132,2.238 -0.803,0.086 -2.037,0.172 -2.841,0.172 -0.229,0 -0.545,-0.172 -0.775,-0.172"
       transform="matrix(-1.177409,-2.094158,2.094157,-1.177409,514.1974,939.9071)"
       style="font-size:12px;fill:none;stroke:#000000;stroke-width:1pt"
       id="path775" />
    <path
       inkscape:connector-curvature="0"
       d="m 219.347,239.024 c 0.057,0 0.114,0 0.172,0 -0.23,0 0.459,0 0.688,0 0.893,0 1.789,0.159 2.583,0.172 0.861,0 1.722,0.244 2.583,0.244 0.869,0.123 1.916,0.083 2.815,0.211 1.008,0.034 1.817,0.233 2.866,0.233 0.846,0.032 1.302,0.173 2.239,0.173 l -2.239,-0.173 c 0.846,0.032 1.302,0.173 2.239,0.173"
       transform="matrix(-1.177409,-2.094158,2.094157,-1.177409,514.1974,939.9071)"
       style="font-size:12px;fill:none;stroke:#000000;stroke-width:1pt"
       id="path776" />
    <path
       inkscape:connector-curvature="0"
       d="m 213.493,260.028 c 0.092,-0.134 0.84,-0.856 1.377,-1.205 0.633,-0.218 2.797,-1.221 3.616,-1.377 0.873,-0.25 1.742,-0.53 2.582,-0.861 0.97,-0.242 1.576,-0.465 2.583,-0.689 0.789,-0.368 1.568,-0.62 2.41,-0.861"
       transform="matrix(-1.177409,-2.094158,2.094157,-1.177409,514.1974,939.9071)"
       style="font-size:12px;fill:none;stroke:#000000;stroke-width:1pt"
       id="path777" />
    <path
       inkscape:connector-curvature="0"
       d="m 229.616,230.102 c -0.487,1.414 0.144,1.769 0.405,2.379 0.454,0.591 1.613,1.492 3.444,2.066 0.706,0.19 1.249,0.376 2.066,0.689 0.541,0.05 0.807,0.185 1.205,0.344"
       transform="matrix(-1.177409,-2.094158,2.094157,-1.177409,514.1974,939.9071)"
       style="font-size:12px;fill:none;stroke:#000000;stroke-width:1pt"
       id="path778" />
    <path
       inkscape:connector-curvature="0"
       d="m 161.497,178.247 c 0.057,0 0.115,0 0.172,0 -0.54,0 -0.216,0.035 0.689,-0.689 0.559,-0.625 1.026,-0.908 1.549,-1.549"
       transform="matrix(-1.177409,-2.094158,2.094157,-1.177409,514.1974,939.9071)"
       style="font-size:12px;fill:none;stroke:#000000;stroke-width:1pt"
       id="path779" />
    <path
       inkscape:connector-curvature="0"
       d="m 172.645,190.512 c 0.115,0 10.016,-4.99 11.073,-6.056 0.749,-0.543 1.316,-1.116 2.227,-1.733 0.584,-0.305 1.003,-0.696 1.55,-1.033 0.455,-0.659 1.049,-1.057 1.377,-1.66 0.608,-0.527 0.347,-1.098 0.84,-1.733 0.233,-0.65 0.669,-1.745 0.811,-2.34"
       transform="matrix(-1.177409,-2.094158,2.094157,-1.177409,514.1974,939.9071)"
       style="font-size:12px;fill:none;stroke:#000000;stroke-width:1pt"
       id="path780" />
    <path
       inkscape:connector-curvature="0"
       d="m 203.133,183.362 c 0.054,0.356 -0.158,1.453 -0.143,2.288 -0.034,0.968 -1.279,3.958 -2.784,4.851"
       transform="matrix(-1.177409,-2.094158,2.094157,-1.177409,514.1974,939.9071)"
       style="font-size:12px;fill:none;stroke:#000000;stroke-width:1pt"
       id="path781" />
    <path
       inkscape:connector-curvature="0"
       d="m 185.345,183.251 c 0.058,0 1.565,0.49 4.084,1.265 3.032,1.09 9.338,5.064 9.964,5.611 0.639,0.503 1.782,0.952 2.22,1.549 0.685,0.592 1.187,1.275 1.722,1.894 0.629,0.767 1.165,1.416 1.549,2.066 1.915,1.553 7.066,12.306 7.231,12.913 0.289,0.568 0.647,1.359 0.861,1.894 0.382,0.44 0.641,1.062 1.033,1.722 0.36,0.856 0.763,1.246 1.206,1.894 0.57,0.396 1.338,1.148 2.066,1.549 0.776,0.664 1.504,0.934 2.066,1.378 0.812,0.345 9.886,6.081 10.307,6.368 0.829,0.666 3.36,3.289 1.583,5.197 -0.754,0.645 -1.433,1.499 -2.077,1.864 -0.656,0.657 -1.569,0.951 -2.323,1.291 -4.088,1.208 -6.17,0.775 -6.974,0.775 -0.287,0 -0.574,0 -0.861,0"
       transform="matrix(-1.177409,-2.094158,2.094157,-1.177409,514.1974,939.9071)"
       style="font-size:12px;fill:none;stroke:#000000;stroke-width:1pt"
       id="path782" />
    <path
       inkscape:connector-curvature="0"
       d="m 165.629,163.096 c 0.057,0 0.115,0 0.172,0 -0.465,0 -0.227,-0.011 0.689,0.172 0.703,0.308 1.719,0.609 2.41,0.861 0.733,0.235 1.655,0.348 2.066,0.689 0.8,0.14 1.268,0.598 1.894,1.033 0.722,0.652 1.273,1.073 2.066,1.549 0.938,0.647 1.68,0.968 2.583,1.55 0.916,0.172 1.59,0.481 2.582,0.516 0.934,0.06 1.766,0.172 2.755,0.172 0.804,0 1.607,0 2.411,0 l -2.411,0 c 0.804,0 1.607,0 2.411,0"
       transform="matrix(-1.177409,-2.094158,2.094157,-1.177409,514.1974,939.9071)"
       style="font-size:12px;fill:none;stroke:#000000;stroke-width:1pt"
       id="path783" />
    <path
       inkscape:connector-curvature="0"
       d="m 165.027,174.459 c 2.582,-0.172 6.886,0.603 6.972,0.603 0.001,0 5.682,-0.086 5.682,-0.086 2.985,-0.288 3.644,-1.435 4.132,-2.239 1.119,-1.721 1.894,-2.324 2.755,-3.615 1.377,-1.033 3.272,1.377 3.358,1.377 4.82,4.563 0.946,10.158 0.688,10.33 -2.41,2.21 -2.927,2.353 -4.39,0.947 -1.464,-1.722 -1.894,-2.496 -3.099,-3.099 -2.324,-1.119 -7.145,-0.258 -7.232,-0.258 -0.086,0 -2.496,0.947 -2.496,0.947 -1.177,0.43 -1.923,1.464 -3.96,1.807 -2.066,0.144 -2.755,-0.057 -3.788,-1.721 -1.377,-2.152 -0.689,-4.735 1.378,-4.993 z"
       transform="matrix(-1.177409,-2.094158,2.094157,-1.177409,514.1974,939.9071)"
       style="font-size:12px;fill:#ffe606;fill-rule:evenodd;stroke:#000000;stroke-width:1pt"
       id="path785" />
    <g
       transform="matrix(-1.107009,2.132209,-2.132209,-1.10701,1044.277,-15.62964)"
       style="font-size:12px"
       id="g786">
      <path
         inkscape:connector-curvature="0"
         d="m 238.862,224.504 c 0.121,-0.366 0.365,-4.14 0.243,-4.14 -0.122,0 -5.722,-6.574 -5.6,-6.574 0.122,0 7.183,1.583 7.183,1.339 0,-0.243 2.8,-6.939 2.8,-7.061 0,-0.121 3.409,8.157 3.409,8.157 l 6.939,3.044 -4.87,4.017 c 0,0 1.096,7.792 1.096,7.914 0,0.121 -4.87,-4.627 -4.87,-4.627 l -5.357,0.609 c 0,0 -0.73,-2.435 -0.973,-2.678 z"
         style="fill:#ffef00;fill-opacity:0.98823499;fill-rule:evenodd;stroke:#000000;stroke-width:1pt"
         id="path787" />
      <path
         inkscape:connector-curvature="0"
         d="m 201.141,122.196 c -4.626,2.382 -22.38,22.676 -24.815,25.841 -2.04,4.595 -6.03,10.408 -10.14,14.15 -4.387,3.319 -6.825,7.853 -6.221,12.146 -0.049,5.342 2.946,8.979 5.332,12.738 1.412,1.717 3.312,2.827 5.332,2.962 4.144,0.547 4.512,1.823 6.586,2.613 8.17,11.124 20.358,19.327 29.136,25.825 5.595,2.949 9.486,5.898 10.819,7.508 2.57,4.907 2.097,9.692 1.745,12.043 -2.172,8.196 -4.345,16.392 -6.517,24.588 -1.096,6.696 4.723,5.19 5.036,3.851 2.626,-3.409 6.545,-1.015 12.145,-20.737 2.567,-3.456 5.135,-6.912 7.702,-10.368 0,0 2.963,-1.185 2.963,-1.481 4.505,-5.409 1.075,-8.505 -1.482,-9.479 -1.876,-0.691 -3.752,-1.383 -5.628,-2.074 0,0 -6.517,-6.517 -6.813,-6.517 -3.097,-9.009 -18.39,-28.426 -21.921,-31.104 -3.456,-2.271 -2.043,-3.264 -5.743,-4.865 -2.739,-1.522 -0.855,-0.881 -6.995,-3.133 -1.819,-0.73 -0.524,-2.727 0.633,-3.64 12.04,-6.554 21.584,-13.838 33.137,-21.244 0.592,-0.395 1.185,-0.79 1.777,-1.185 -1.382,-7.899 -2.765,-15.799 -4.147,-23.698 -6.418,-2.271 -12.837,-4.543 -19.255,-6.814 -1.01,0.691 -1.777,1.383 -2.666,2.074 z"
         style="fill:#ffffff;fill-rule:evenodd;stroke:#000000;stroke-width:1.59449005"
         id="path788" />
      <path
         inkscape:connector-curvature="0"
         d="m 217.252,246.966 c 0.061,-0.243 12.052,-2.435 12.052,-2.435 0,0 -1.4,4.444 -1.461,4.444 l -11.93,3.591 1.339,-5.6 z"
         style="fill:#ffec00;fill-rule:evenodd;stroke-width:1pt"
         id="path789" />
      <path
         inkscape:connector-curvature="0"
         d="m 186.004,201.816 c 2.313,-6.148 8.734,-11.016 13.047,-12.359"
         style="fill:none;stroke:#000000;stroke-width:1pt"
         id="path790" />
      <path
         inkscape:connector-curvature="0"
         d="m 216.821,247.074 c 0.774,-0.218 4.211,-1.221 5.212,-1.377 1.068,-0.25 2.131,-0.53 3.158,-0.861 1.185,-0.242 1.927,-0.465 3.158,-0.689 0.964,-0.368 1.917,-0.62 2.948,-0.861 m -16.647,11.202 c 0.1,-0.134 0.917,-0.856 1.504,-1.205 0.691,-0.218 3.054,-1.221 3.948,-1.377 0.954,-0.25 1.903,-0.53 2.82,-0.861 1.059,-0.242 1.721,-0.465 2.821,-0.689 0.861,-0.368 1.712,-0.62 2.632,-0.861"
         style="fill:none;stroke:#000000;stroke-width:1.10579996pt"
         id="path791" />
      <path
         inkscape:connector-curvature="0"
         d="m 219.519,203.556 c -0.058,0 -0.115,0 -0.172,0 0.539,0 0.208,-0.045 -0.517,0.861 -0.258,0.696 -2.468,2.238 -4.132,2.238 -0.803,0.086 -2.037,0.172 -2.841,0.172 -0.229,0 -0.545,-0.172 -0.775,-0.172"
         style="fill:none;stroke:#000000;stroke-width:1pt"
         id="path792" />
      <path
         inkscape:connector-curvature="0"
         d="m 219.347,239.024 c 0.057,0 0.114,0 0.172,0 -0.23,0 0.459,0 0.688,0 0.893,0 1.789,0.159 2.583,0.172 0.861,0 1.722,0.244 2.583,0.244 0.869,0.123 1.916,0.083 2.815,0.211 1.008,0.034 1.817,0.233 2.866,0.233 0.846,0.032 1.302,0.173 2.239,0.173 l -2.239,-0.173 c 0.846,0.032 1.302,0.173 2.239,0.173"
         style="fill:none;stroke:#000000;stroke-width:1pt"
         id="path793" />
      <path
         inkscape:connector-curvature="0"
         d="m 213.493,260.028 c 0.092,-0.134 0.84,-0.856 1.377,-1.205 0.633,-0.218 2.797,-1.221 3.616,-1.377 0.873,-0.25 1.742,-0.53 2.582,-0.861 0.97,-0.242 1.576,-0.465 2.583,-0.689 0.789,-0.368 1.568,-0.62 2.41,-0.861"
         style="fill:none;stroke:#000000;stroke-width:1pt"
         id="path794" />
      <path
         inkscape:connector-curvature="0"
         d="m 229.616,230.102 c -0.487,1.414 0.144,1.769 0.405,2.379 0.454,0.591 1.613,1.492 3.444,2.066 0.706,0.19 1.249,0.376 2.066,0.689 0.541,0.05 0.807,0.185 1.205,0.344"
         style="fill:none;stroke:#000000;stroke-width:1pt"
         id="path795" />
      <path
         inkscape:connector-curvature="0"
         d="m 161.497,178.247 c 0.057,0 0.115,0 0.172,0 -0.54,0 -0.216,0.035 0.689,-0.689 0.559,-0.625 1.026,-0.908 1.549,-1.549"
         style="fill:none;stroke:#000000;stroke-width:1pt"
         id="path796" />
      <path
         inkscape:connector-curvature="0"
         d="m 172.645,190.512 c 0.115,0 10.016,-4.99 11.073,-6.056 0.749,-0.543 1.316,-1.116 2.227,-1.733 0.584,-0.305 1.003,-0.696 1.55,-1.033 0.455,-0.659 1.049,-1.057 1.377,-1.66 0.608,-0.527 0.347,-1.098 0.84,-1.733 0.233,-0.65 0.669,-1.745 0.811,-2.34"
         style="fill:none;stroke:#000000;stroke-width:1pt"
         id="path797" />
      <path
         inkscape:connector-curvature="0"
         d="m 203.133,183.362 c 0.054,0.356 -0.158,1.453 -0.143,2.288 -0.034,0.968 -1.279,3.958 -2.784,4.851"
         style="fill:none;stroke:#000000;stroke-width:1pt"
         id="path798" />
      <path
         inkscape:connector-curvature="0"
         d="m 185.345,183.251 c 0.058,0 1.565,0.49 4.084,1.265 3.032,1.09 9.338,5.064 9.964,5.611 0.639,0.503 1.782,0.952 2.22,1.549 0.685,0.592 1.187,1.275 1.722,1.894 0.629,0.767 1.165,1.416 1.549,2.066 1.915,1.553 7.066,12.306 7.231,12.913 0.289,0.568 0.647,1.359 0.861,1.894 0.382,0.44 0.641,1.062 1.033,1.722 0.36,0.856 0.763,1.246 1.206,1.894 0.57,0.396 1.338,1.148 2.066,1.549 0.776,0.664 1.504,0.934 2.066,1.378 0.812,0.345 9.886,6.081 10.307,6.368 0.829,0.666 3.36,3.289 1.583,5.197 -0.754,0.645 -1.433,1.499 -2.077,1.864 -0.656,0.657 -1.569,0.951 -2.323,1.291 -4.088,1.208 -6.17,0.775 -6.974,0.775 -0.287,0 -0.574,0 -0.861,0"
         style="fill:none;stroke:#000000;stroke-width:1pt"
         id="path799" />
      <path
         inkscape:connector-curvature="0"
         d="m 165.629,163.096 c 0.057,0 0.115,0 0.172,0 -0.465,0 -0.227,-0.011 0.689,0.172 0.703,0.308 1.719,0.609 2.41,0.861 0.733,0.235 1.655,0.348 2.066,0.689 0.8,0.14 1.268,0.598 1.894,1.033 0.722,0.652 1.273,1.073 2.066,1.549 0.938,0.647 1.68,0.968 2.583,1.55 0.916,0.172 1.59,0.481 2.582,0.516 0.934,0.06 1.766,0.172 2.755,0.172 0.804,0 1.607,0 2.411,0 l -2.411,0 c 0.804,0 1.607,0 2.411,0"
         style="fill:none;stroke:#000000;stroke-width:1pt"
         id="path800" />
      <path
         inkscape:connector-curvature="0"
         d="m 221.241,142.952 c -0.115,0 -0.23,0 -0.345,0 0.637,0 0.458,-0.023 -0.516,0.172 -1.017,0.525 -2.371,0.922 -3.272,1.377 -1.028,0.34 -2.133,0.717 -3.099,1.206 -1.094,0.641 -2.102,1.162 -3.099,1.893 -0.991,0.531 -1.965,1.185 -2.927,1.722 -0.959,0.521 -1.751,1.024 -2.582,1.722 -0.694,0.385 -1.637,0.93 -2.411,1.549 -0.727,0.261 -1.252,0.779 -1.721,1.206 -0.911,0.807 -1.469,1.226 -2.411,2.066 -0.495,0.468 -1.153,1.018 -1.894,1.721 -0.778,0.519 -1.62,1.517 -2.238,2.066 -0.396,0.517 -0.976,1.132 -1.549,1.55 -0.441,0.555 -0.952,1.285 -1.55,1.722 -0.355,0.528 -0.976,1.216 -1.55,1.894 -0.465,0.569 -1.105,1.142 -1.549,1.721 -0.598,0.662 -1.056,1.329 -1.722,1.894 -0.119,0.398 -0.369,0.604 -0.516,0.861"
         style="fill:none;stroke:#000000;stroke-width:1pt"
         id="path801" />
      <path
         inkscape:connector-curvature="0"
         d="m 165.027,174.459 c 2.582,-0.172 6.886,0.603 6.972,0.603 0.001,0 5.682,-0.086 5.682,-0.086 2.985,-0.288 3.644,-1.435 4.132,-2.239 1.119,-1.721 1.894,-2.324 2.755,-3.615 1.377,-1.033 3.272,1.377 3.358,1.377 4.82,4.563 0.946,10.158 0.688,10.33 -2.41,2.21 -2.927,2.353 -4.39,0.947 -1.464,-1.722 -1.894,-2.496 -3.099,-3.099 -2.324,-1.119 -7.145,-0.258 -7.232,-0.258 -0.086,0 -2.496,0.947 -2.496,0.947 -1.177,0.43 -1.923,1.464 -3.96,1.807 -2.066,0.144 -2.755,-0.057 -3.788,-1.721 -1.377,-2.152 -0.689,-4.735 1.378,-4.993 z"
         style="fill:#ffe606;fill-rule:evenodd;stroke:#000000;stroke-width:1pt"
         id="path802" />
    </g>
    <path
       inkscape:connector-curvature="0"
       d="m 469.841,290.148 c -2.276,-2.067 42.811,16.337 49.014,16.546 8.481,-3.102 43.433,-32.676 43.433,-32.676 0.345,2.895 1.584,10.409 4.961,11.996 -13.51,10.962 -25.782,21.508 -39.293,32.468 0.966,17.373 -2.205,35.78 6.618,55.221 0,0 -10.546,0.205 -10.546,0 -9.307,-9.307 -12.618,-54.185 -12.618,-54.185 -14.821,-6.619 -29.644,-13.029 -44.465,-19.648 2.138,-1.38 3.861,-5.652 2.896,-9.722 z"
       style="font-size:12px;fill:#ffef00;fill-opacity:0.98742095;fill-rule:evenodd;stroke:#000000;stroke-width:2.40244999pt"
       id="path746" />
    <path
       inkscape:connector-curvature="0"
       d="m 512.738,336.153 c 0.721,-0.523 -8.133,4.113 -10.407,5.277 -40.961,21.85 -62.04,53.634 -63.354,54.835 -0.708,1.354 -2.011,3.16 -3.204,4.929 -0.96,1.483 -2.338,3.018 -3.246,4.518 -1.255,1.738 -3.893,5.17 -5.334,6.694 -0.18,0.982 0.683,-0.336 0.401,0.317"
       style="font-size:12px;fill:none;stroke:#000000;stroke-width:2.40244999pt"
       id="path920" />
    <path
       inkscape:connector-curvature="0"
       d="m 540.726,310.185 c -0.795,-0.402 7.378,5.351 9.453,6.84 38.166,26.431 76.072,30.638 77.741,31.257 1.528,0.01 3.73,0.343 5.848,0.595 1.759,0.175 3.753,0.698 5.503,0.82 2.119,0.32 6.378,1.096 8.393,1.681 0.954,-0.29 -0.611,-0.453 0.098,-0.502"
       style="font-size:12px;fill:none;stroke:#000000;stroke-width:2.40244999pt"
       id="path923" />
  </g>
</svg>
