<?xml version="1.0" encoding="UTF-8" standalone="no"?>
<!-- Created with Sodipodi ("http://www.sodipodi.com/") -->

<svg
   xmlns:dc="http://purl.org/dc/elements/1.1/"
   xmlns:cc="http://creativecommons.org/ns#"
   xmlns:rdf="http://www.w3.org/1999/02/22-rdf-syntax-ns#"
   xmlns:svg="http://www.w3.org/2000/svg"
   xmlns="http://www.w3.org/2000/svg"
   xmlns:sodipodi="http://sodipodi.sourceforge.net/DTD/sodipodi-0.dtd"
   xmlns:inkscape="http://www.inkscape.org/namespaces/inkscape"
   version="1"
   x="0"
   y="0"
   width="512"
   height="512"
   id="svg378"
   inkscape:version="0.48.1 r9760"
   sodipodi:docname="in.svg">
  <sodipodi:namedview
     pagecolor="#ffffff"
     bordercolor="#666666"
     borderopacity="1"
     objecttolerance="10"
     gridtolerance="10"
     guidetolerance="10"
     inkscape:pageopacity="0"
     inkscape:pageshadow="2"
     inkscape:window-width="1280"
     inkscape:window-height="723"
     id="namedview3924"
     showgrid="false"
     inkscape:zoom="0.4021669"
     inkscape:cx="531.495"
     inkscape:cy="385.41213"
     inkscape:window-x="0"
     inkscape:window-y="24"
     inkscape:window-maximized="1"
     inkscape:current-layer="svg378" />
  <metadata
     id="metadata3926">
    <rdf:RDF>
      <cc:Work
         rdf:about="">
        <dc:format>image/svg+xml</dc:format>
        <dc:type
           rdf:resource="http://purl.org/dc/dcmitype/StillImage" />
      </cc:Work>
    </rdf:RDF>
  </metadata>
  <defs
     id="defs380">
    <clipPath
       clipPathUnits="userSpaceOnUse"
       id="clipPath9097">
      <rect
         id="rect9099"
         height="708.66132"
         x="177.16533"
         style="fill:#000000;fill-opacity:0.67000002;stroke:none"
         width="708.66132"
         y="3.2271494e-06" />
    </clipPath>
  </defs>
  <g
     transform="matrix(0.72248902,0,0,0.72248902,-128,-2.3315799e-6)"
     id="flag"
     clip-path="url(#clipPath9097)"
     inkscape:label="#g8997">
    <rect
       width="1062.99"
       height="708.66101"
       x="0"
       y="0"
       style="font-size:12px;fill:#ffffff;fill-rule:evenodd;stroke-width:1pt"
       id="rect171" />
    <rect
       width="1062.99"
       height="236.22"
       x="0"
       y="472.44101"
       transform="translate(0,2.81206e-4)"
       style="font-size:12px;fill:#329203;fill-rule:evenodd;stroke-width:1pt"
       id="rect256" />
    <rect
       width="1062.99"
       height="236.22"
       x="0"
       y="0"
       style="font-size:12px;fill:#e77300;fill-rule:evenodd;stroke-width:1pt"
       id="rect255" />
    <g
       transform="matrix(0.366639,0,0,0.366639,398.443,219.601)"
       style="font-size:12px"
       id="g228">
      <ellipse
         sodipodi:ry="305.00201"
         sodipodi:rx="305.00204"
         sodipodi:cy="367.47272"
         sodipodi:cx="362.90067"
         cx="362.90067"
         cy="367.47272"
         rx="305.00204"
         ry="305.00201"
         style="fill:#08399c;fill-rule:evenodd;stroke-width:1pt"
         id="path200"
         d="m 667.90271,367.47272 c 0,168.44796 -136.55407,305.00201 -305.00204,305.00201 -168.44798,0 -305.002049,-136.55405 -305.002049,-305.00201 0,-168.44796 136.554069,-305.002017 305.002049,-305.002017 168.44797,0 305.00204,136.554057 305.00204,305.002017 z" />
      <path
         inkscape:connector-curvature="0"
         d="m 297.088,104.968 c 6.1,-1.639 9.354,-1.974 15.188,-3.158 3.641,11.977 11.578,18.241 19.562,16.838 7.19,-1.157 17.438,-6.421 15.338,-21.3987 5.942,-0.3557 9.356,-0.5144 15.673,-0.4981 -0.117,45.2048 -2.964,92.8368 -7.129,137.2758 -3.004,32.785 6.062,40.636 7.422,57.697 1.52,19.795 0.264,35.374 1.668,76.254 -8.058,-40.105 -12.981,-55.871 -15.885,-74.435 -2.681,-17.866 3.817,-24.71 -8.936,-58 -16.47,-42.047 -31.171,-86.918 -42.901,-130.575 z"
         transform="matrix(0.0050186,0.999987,-0.999987,0.0050186,730.681,1.42004)"
         style="fill:#ffffff;fill-rule:evenodd;stroke-width:1pt"
         id="path175" />
      <path
         inkscape:connector-curvature="0"
         d="m 297.088,104.968 c 6.1,-1.639 9.354,-1.974 15.188,-3.158 3.641,11.977 11.578,18.241 19.562,16.838 7.19,-1.157 17.438,-6.421 15.338,-21.3987 5.942,-0.3557 9.356,-0.5144 15.673,-0.4981 -0.117,45.2048 -2.964,92.8368 -7.129,137.2758 -3.004,32.785 6.062,40.636 7.422,57.697 1.52,19.795 0.264,35.374 1.668,76.254 -8.058,-40.105 -12.981,-55.871 -15.885,-74.435 -2.681,-17.866 3.817,-24.71 -8.936,-58 -16.47,-42.047 -31.171,-86.918 -42.901,-130.575 z"
         transform="matrix(0.999999,0.00146689,-0.00146689,0.999999,0.540109,-0.431542)"
         style="fill:#ffffff;fill-rule:evenodd;stroke-width:1pt"
         id="path205" />
      <path
         inkscape:connector-curvature="0"
         d="m 297.088,104.968 c 6.1,-1.639 9.354,-1.974 15.188,-3.158 3.641,11.977 11.578,18.241 19.562,16.838 7.19,-1.157 17.438,-6.421 15.338,-21.3987 5.942,-0.3557 9.356,-0.5144 15.673,-0.4981 -0.117,45.2048 -2.964,92.8368 -7.129,137.2758 -3.004,32.785 6.062,40.636 7.422,57.697 1.52,19.795 0.264,35.374 1.668,76.254 -8.058,-40.105 -12.981,-55.871 -15.885,-74.435 -2.681,-17.866 3.817,-24.71 -8.936,-58 -16.47,-42.047 -31.171,-86.918 -42.901,-130.575 z"
         transform="matrix(0.966391,0.257075,-0.257075,0.966391,106.818,-81.2843)"
         style="fill:#ffffff;fill-rule:evenodd;stroke-width:1pt"
         id="path206" />
      <path
         inkscape:connector-curvature="0"
         d="m 297.088,104.968 c 6.1,-1.639 9.354,-1.974 15.188,-3.158 3.641,11.977 11.578,18.241 19.562,16.838 7.19,-1.157 17.438,-6.421 15.338,-21.3987 5.942,-0.3557 9.356,-0.5144 15.673,-0.4981 -0.117,45.2048 -2.964,92.8368 -7.129,137.2758 -3.004,32.785 6.062,40.636 7.422,57.697 1.52,19.795 0.264,35.374 1.668,76.254 -8.058,-40.105 -12.981,-55.871 -15.885,-74.435 -2.681,-17.866 3.817,-24.71 -8.936,-58 -16.47,-42.047 -31.171,-86.918 -42.901,-130.575 z"
         transform="matrix(0.867187,0.497982,-0.497982,0.867187,231.61,-132.647)"
         style="fill:#ffffff;fill-rule:evenodd;stroke-width:1pt"
         id="path207" />
      <path
         inkscape:connector-curvature="0"
         d="m 297.088,104.968 c 6.1,-1.639 9.354,-1.974 15.188,-3.158 3.641,11.977 11.578,18.241 19.562,16.838 7.19,-1.157 17.438,-6.421 15.338,-21.3987 5.942,-0.3557 9.356,-0.5144 15.673,-0.4981 -0.117,45.2048 -2.964,92.8368 -7.129,137.2758 -3.004,32.785 6.062,40.636 7.422,57.697 1.52,19.795 0.264,35.374 1.668,76.254 -8.058,-40.105 -12.981,-55.871 -15.885,-74.435 -2.681,-17.866 3.817,-24.71 -8.936,-58 -16.47,-42.047 -31.171,-86.918 -42.901,-130.575 z"
         transform="matrix(0.709124,0.705084,-0.705084,0.709124,365.432,-150.031)"
         style="fill:#ffffff;fill-rule:evenodd;stroke-width:1pt"
         id="path208" />
      <path
         inkscape:connector-curvature="0"
         d="m 297.088,104.968 c 6.1,-1.639 9.354,-1.974 15.188,-3.158 3.641,11.977 11.578,18.241 19.562,16.838 7.19,-1.157 17.438,-6.421 15.338,-21.3987 5.942,-0.3557 9.356,-0.5144 15.673,-0.4981 -0.117,45.2048 -2.964,92.8368 -7.129,137.2758 -3.004,32.785 6.062,40.636 7.422,57.697 1.52,19.795 0.264,35.374 1.668,76.254 -8.058,-40.105 -12.981,-55.871 -15.885,-74.435 -2.681,-17.866 3.817,-24.71 -8.936,-58 -16.47,-42.047 -31.171,-86.918 -42.901,-130.575 z"
         transform="matrix(0.504288,0.863535,-0.863535,0.504288,498.416,-132.469)"
         style="fill:#ffffff;fill-rule:evenodd;stroke-width:1pt"
         id="path209" />
      <path
         inkscape:connector-curvature="0"
         d="m 297.088,104.968 c 6.1,-1.639 9.354,-1.974 15.188,-3.158 3.641,11.977 11.578,18.241 19.562,16.838 7.19,-1.157 17.438,-6.421 15.338,-21.3987 5.942,-0.3557 9.356,-0.5144 15.673,-0.4981 -0.117,45.2048 -2.964,92.8368 -7.129,137.2758 -3.004,32.785 6.062,40.636 7.422,57.697 1.52,19.795 0.264,35.374 1.668,76.254 -8.058,-40.105 -12.981,-55.871 -15.885,-74.435 -2.681,-17.866 3.817,-24.71 -8.936,-58 -16.47,-42.047 -31.171,-86.918 -42.901,-130.575 z"
         transform="matrix(0.259619,0.965711,-0.965711,0.259619,625.226,-79.7316)"
         style="fill:#ffffff;fill-rule:evenodd;stroke-width:1pt"
         id="path210" />
      <path
         inkscape:connector-curvature="0"
         d="m 297.088,104.968 c 6.1,-1.639 9.354,-1.974 15.188,-3.158 3.641,11.977 11.578,18.241 19.562,16.838 7.19,-1.157 17.438,-6.421 15.338,-21.3987 5.942,-0.3557 9.356,-0.5144 15.673,-0.4981 -0.117,45.2048 -2.964,92.8368 -7.129,137.2758 -3.004,32.785 6.062,40.636 7.422,57.697 1.52,19.795 0.264,35.374 1.668,76.254 -8.058,-40.105 -12.981,-55.871 -15.885,-74.435 -2.681,-17.866 3.817,-24.71 -8.936,-58 -16.47,-42.047 -31.171,-86.918 -42.901,-130.575 z"
         transform="matrix(0.00113884,-0.999999,0.999999,0.00113884,-3.57304,732.199)"
         style="fill:#ffffff;fill-rule:evenodd;stroke-width:1pt"
         id="path211" />
      <path
         inkscape:connector-curvature="0"
         d="m 297.088,104.968 c 6.1,-1.639 9.354,-1.974 15.188,-3.158 3.641,11.977 11.578,18.241 19.562,16.838 7.19,-1.157 17.438,-6.421 15.338,-21.3987 5.942,-0.3557 9.356,-0.5144 15.673,-0.4981 -0.117,45.2048 -2.964,92.8368 -7.129,137.2758 -3.004,32.785 6.062,40.636 7.422,57.697 1.52,19.795 0.264,35.374 1.668,76.254 -8.058,-40.105 -12.981,-55.871 -15.885,-74.435 -2.681,-17.866 3.817,-24.71 -8.936,-58 -16.47,-42.047 -31.171,-86.918 -42.901,-130.575 z"
         transform="matrix(-0.250504,0.968115,-0.968115,-0.250504,812.141,107.034)"
         style="fill:#ffffff;fill-rule:evenodd;stroke-width:1pt"
         id="path212" />
      <path
         inkscape:connector-curvature="0"
         d="m 297.088,104.968 c 6.1,-1.639 9.354,-1.974 15.188,-3.158 3.641,11.977 11.578,18.241 19.562,16.838 7.19,-1.157 17.438,-6.421 15.338,-21.3987 5.942,-0.3557 9.356,-0.5144 15.673,-0.4981 -0.117,45.2048 -2.964,92.8368 -7.129,137.2758 -3.004,32.785 6.062,40.636 7.422,57.697 1.52,19.795 0.264,35.374 1.668,76.254 -8.058,-40.105 -12.981,-55.871 -15.885,-74.435 -2.681,-17.866 3.817,-24.71 -8.936,-58 -16.47,-42.047 -31.171,-86.918 -42.901,-130.575 z"
         transform="matrix(-0.492329,0.870408,-0.870408,-0.492329,864.389,231.618)"
         style="fill:#ffffff;fill-rule:evenodd;stroke-width:1pt"
         id="path213" />
      <path
         inkscape:connector-curvature="0"
         d="m 297.088,104.968 c 6.1,-1.639 9.354,-1.974 15.188,-3.158 3.641,11.977 11.578,18.241 19.562,16.838 7.19,-1.157 17.438,-6.421 15.338,-21.3987 5.942,-0.3557 9.356,-0.5144 15.673,-0.4981 -0.117,45.2048 -2.964,92.8368 -7.129,137.2758 -3.004,32.785 6.062,40.636 7.422,57.697 1.52,19.795 0.264,35.374 1.668,76.254 -8.058,-40.105 -12.981,-55.871 -15.885,-74.435 -2.681,-17.866 3.817,-24.71 -8.936,-58 -16.47,-42.047 -31.171,-86.918 -42.901,-130.575 z"
         transform="matrix(-0.700821,0.713336,-0.713336,-0.700821,882.645,365.59)"
         style="fill:#ffffff;fill-rule:evenodd;stroke-width:1pt"
         id="path214" />
      <path
         inkscape:connector-curvature="0"
         d="m 297.088,104.968 c 6.1,-1.639 9.354,-1.974 15.188,-3.158 3.641,11.977 11.578,18.241 19.562,16.838 7.19,-1.157 17.438,-6.421 15.338,-21.3987 5.942,-0.3557 9.356,-0.5144 15.673,-0.4981 -0.117,45.2048 -2.964,92.8368 -7.129,137.2758 -3.004,32.785 6.062,40.636 7.422,57.697 1.52,19.795 0.264,35.374 1.668,76.254 -8.058,-40.105 -12.981,-55.871 -15.885,-74.435 -2.681,-17.866 3.817,-24.71 -8.936,-58 -16.47,-42.047 -31.171,-86.918 -42.901,-130.575 z"
         transform="matrix(-0.861651,0.5075,-0.5075,-0.861651,865.582,499.813)"
         style="fill:#ffffff;fill-rule:evenodd;stroke-width:1pt"
         id="path215" />
      <path
         inkscape:connector-curvature="0"
         d="m 297.088,104.968 c 6.1,-1.639 9.354,-1.974 15.188,-3.158 3.641,11.977 11.578,18.241 19.562,16.838 7.19,-1.157 17.438,-6.421 15.338,-21.3987 5.942,-0.3557 9.356,-0.5144 15.673,-0.4981 -0.117,45.2048 -2.964,92.8368 -7.129,137.2758 -3.004,32.785 6.062,40.636 7.422,57.697 1.52,19.795 0.264,35.374 1.668,76.254 -8.058,-40.105 -12.981,-55.871 -15.885,-74.435 -2.681,-17.866 3.817,-24.71 -8.936,-58 -16.47,-42.047 -31.171,-86.918 -42.901,-130.575 z"
         transform="matrix(-0.964221,0.265097,-0.265097,-0.964221,813.822,625.941)"
         style="fill:#ffffff;fill-rule:evenodd;stroke-width:1pt"
         id="path216" />
      <path
         inkscape:connector-curvature="0"
         d="m 297.088,104.968 c 6.1,-1.639 9.354,-1.974 15.188,-3.158 3.641,11.977 11.578,18.241 19.562,16.838 7.19,-1.157 17.438,-6.421 15.338,-21.3987 5.942,-0.3557 9.356,-0.5144 15.673,-0.4981 -0.117,45.2048 -2.964,92.8368 -7.129,137.2758 -3.004,32.785 6.062,40.636 7.422,57.697 1.52,19.795 0.264,35.374 1.668,76.254 -8.058,-40.105 -12.981,-55.871 -15.885,-74.435 -2.681,-17.866 3.817,-24.71 -8.936,-58 -16.47,-42.047 -31.171,-86.918 -42.901,-130.575 z"
         transform="matrix(-0.999983,0.00579202,-0.00579202,-0.999983,731.482,733.659)"
         style="fill:#ffffff;fill-rule:evenodd;stroke-width:1pt"
         id="path217" />
      <path
         inkscape:connector-curvature="0"
         d="m 297.088,104.968 c 6.1,-1.639 9.354,-1.974 15.188,-3.158 3.641,11.977 11.578,18.241 19.562,16.838 7.19,-1.157 17.438,-6.421 15.338,-21.3987 5.942,-0.3557 9.356,-0.5144 15.673,-0.4981 -0.117,45.2048 -2.964,92.8368 -7.129,137.2758 -3.004,32.785 6.062,40.636 7.422,57.697 1.52,19.795 0.264,35.374 1.668,76.254 -8.058,-40.105 -12.981,-55.871 -15.885,-74.435 -2.681,-17.866 3.817,-24.71 -8.936,-58 -16.47,-42.047 -31.171,-86.918 -42.901,-130.575 z"
         transform="matrix(-0.966932,-0.255034,0.255034,-0.966932,623.487,816.619)"
         style="fill:#ffffff;fill-rule:evenodd;stroke-width:1pt"
         id="path218" />
      <path
         inkscape:connector-curvature="0"
         d="m 297.088,104.968 c 6.1,-1.639 9.354,-1.974 15.188,-3.158 3.641,11.977 11.578,18.241 19.562,16.838 7.19,-1.157 17.438,-6.421 15.338,-21.3987 5.942,-0.3557 9.356,-0.5144 15.673,-0.4981 -0.117,45.2048 -2.964,92.8368 -7.129,137.2758 -3.004,32.785 6.062,40.636 7.422,57.697 1.52,19.795 0.264,35.374 1.668,76.254 -8.058,-40.105 -12.981,-55.871 -15.885,-74.435 -2.681,-17.866 3.817,-24.71 -8.936,-58 -16.47,-42.047 -31.171,-86.918 -42.901,-130.575 z"
         transform="matrix(-0.868276,-0.49608,0.49608,-0.868276,498.844,868.234)"
         style="fill:#ffffff;fill-rule:evenodd;stroke-width:1pt"
         id="path219" />
      <path
         inkscape:connector-curvature="0"
         d="m 297.088,104.968 c 6.1,-1.639 9.354,-1.974 15.188,-3.158 3.641,11.977 11.578,18.241 19.562,16.838 7.19,-1.157 17.438,-6.421 15.338,-21.3987 5.942,-0.3557 9.356,-0.5144 15.673,-0.4981 -0.117,45.2048 -2.964,92.8368 -7.129,137.2758 -3.004,32.785 6.062,40.636 7.422,57.697 1.52,19.795 0.264,35.374 1.668,76.254 -8.058,-40.105 -12.981,-55.871 -15.885,-74.435 -2.681,-17.866 3.817,-24.71 -8.936,-58 -16.47,-42.047 -31.171,-86.918 -42.901,-130.575 z"
         transform="matrix(-0.710016,-0.704184,0.704184,-0.710016,364.582,885.911)"
         style="fill:#ffffff;fill-rule:evenodd;stroke-width:1pt"
         id="path220" />
      <path
         inkscape:connector-curvature="0"
         d="m 297.088,104.968 c 6.1,-1.639 9.354,-1.974 15.188,-3.158 3.641,11.977 11.578,18.241 19.562,16.838 7.19,-1.157 17.438,-6.421 15.338,-21.3987 5.942,-0.3557 9.356,-0.5144 15.673,-0.4981 -0.117,45.2048 -2.964,92.8368 -7.129,137.2758 -3.004,32.785 6.062,40.636 7.422,57.697 1.52,19.795 0.264,35.374 1.668,76.254 -8.058,-40.105 -12.981,-55.871 -15.885,-74.435 -2.681,-17.866 3.817,-24.71 -8.936,-58 -16.47,-42.047 -31.171,-86.918 -42.901,-130.575 z"
         transform="matrix(-0.502848,-0.864374,0.864374,-0.502848,230.108,868.125)"
         style="fill:#ffffff;fill-rule:evenodd;stroke-width:1pt"
         id="path221" />
      <path
         inkscape:connector-curvature="0"
         d="m 297.088,104.968 c 6.1,-1.639 9.354,-1.974 15.188,-3.158 3.641,11.977 11.578,18.241 19.562,16.838 7.19,-1.157 17.438,-6.421 15.338,-21.3987 5.942,-0.3557 9.356,-0.5144 15.673,-0.4981 -0.117,45.2048 -2.964,92.8368 -7.129,137.2758 -3.004,32.785 6.062,40.636 7.422,57.697 1.52,19.795 0.264,35.374 1.668,76.254 -8.058,-40.105 -12.981,-55.871 -15.885,-74.435 -2.681,-17.866 3.817,-24.71 -8.936,-58 -16.47,-42.047 -31.171,-86.918 -42.901,-130.575 z"
         transform="matrix(-0.259259,-0.965807,0.965807,-0.259259,103.965,815.514)"
         style="fill:#ffffff;fill-rule:evenodd;stroke-width:1pt"
         id="path222" />
      <path
         inkscape:connector-curvature="0"
         d="m 297.088,104.968 c 6.1,-1.639 9.354,-1.974 15.188,-3.158 3.641,11.977 11.578,18.241 19.562,16.838 7.19,-1.157 17.438,-6.421 15.338,-21.3987 5.942,-0.3557 9.356,-0.5144 15.673,-0.4981 -0.117,45.2048 -2.964,92.8368 -7.129,137.2758 -3.004,32.785 6.062,40.636 7.422,57.697 1.52,19.795 0.264,35.374 1.668,76.254 -8.058,-40.105 -12.981,-55.871 -15.885,-74.435 -2.681,-17.866 3.817,-24.71 -8.936,-58 -16.47,-42.047 -31.171,-86.918 -42.901,-130.575 z"
         transform="matrix(0.966945,-0.254982,0.254982,0.966945,-81.7369,105.248)"
         style="fill:#ffffff;fill-rule:evenodd;stroke-width:1pt"
         id="path223" />
      <path
         inkscape:connector-curvature="0"
         d="m 297.088,104.968 c 6.1,-1.639 9.354,-1.974 15.188,-3.158 3.641,11.977 11.578,18.241 19.562,16.838 7.19,-1.157 17.438,-6.421 15.338,-21.3987 5.942,-0.3557 9.356,-0.5144 15.673,-0.4981 -0.117,45.2048 -2.964,92.8368 -7.129,137.2758 -3.004,32.785 6.062,40.636 7.422,57.697 1.52,19.795 0.264,35.374 1.668,76.254 -8.058,-40.105 -12.981,-55.871 -15.885,-74.435 -2.681,-17.866 3.817,-24.71 -8.936,-58 -16.47,-42.047 -31.171,-86.918 -42.901,-130.575 z"
         transform="matrix(0.261593,-0.965178,0.965178,0.261593,-85.7465,623.696)"
         style="fill:#ffffff;fill-rule:evenodd;stroke-width:1pt"
         id="path224" />
      <path
         inkscape:connector-curvature="0"
         d="m 297.088,104.968 c 6.1,-1.639 9.354,-1.974 15.188,-3.158 3.641,11.977 11.578,18.241 19.562,16.838 7.19,-1.157 17.438,-6.421 15.338,-21.3987 5.942,-0.3557 9.356,-0.5144 15.673,-0.4981 -0.117,45.2048 -2.964,92.8368 -7.129,137.2758 -3.004,32.785 6.062,40.636 7.422,57.697 1.52,19.795 0.264,35.374 1.668,76.254 -8.058,-40.105 -12.981,-55.871 -15.885,-74.435 -2.681,-17.866 3.817,-24.71 -8.936,-58 -16.47,-42.047 -31.171,-86.918 -42.901,-130.575 z"
         transform="matrix(0.500258,-0.865876,0.865876,0.500258,-136.255,499.693)"
         style="fill:#ffffff;fill-rule:evenodd;stroke-width:1pt"
         id="path225" />
      <path
         inkscape:connector-curvature="0"
         d="m 297.088,104.968 c 6.1,-1.639 9.354,-1.974 15.188,-3.158 3.641,11.977 11.578,18.241 19.562,16.838 7.19,-1.157 17.438,-6.421 15.338,-21.3987 5.942,-0.3557 9.356,-0.5144 15.673,-0.4981 -0.117,45.2048 -2.964,92.8368 -7.129,137.2758 -3.004,32.785 6.062,40.636 7.422,57.697 1.52,19.795 0.264,35.374 1.668,76.254 -8.058,-40.105 -12.981,-55.871 -15.885,-74.435 -2.681,-17.866 3.817,-24.71 -8.936,-58 -16.47,-42.047 -31.171,-86.918 -42.901,-130.575 z"
         transform="matrix(0.707599,-0.706613,0.706613,0.707599,-153.286,365.345)"
         style="fill:#ffffff;fill-rule:evenodd;stroke-width:1pt"
         id="path226" />
      <path
         inkscape:connector-curvature="0"
         d="m 297.088,104.968 c 6.1,-1.639 9.354,-1.974 15.188,-3.158 3.641,11.977 11.578,18.241 19.562,16.838 7.19,-1.157 17.438,-6.421 15.338,-21.3987 5.942,-0.3557 9.356,-0.5144 15.673,-0.4981 -0.117,45.2048 -2.964,92.8368 -7.129,137.2758 -3.004,32.785 6.062,40.636 7.422,57.697 1.52,19.795 0.264,35.374 1.668,76.254 -8.058,-40.105 -12.981,-55.871 -15.885,-74.435 -2.681,-17.866 3.817,-24.71 -8.936,-58 -16.47,-42.047 -31.171,-86.918 -42.901,-130.575 z"
         transform="matrix(0.869088,-0.494657,0.494657,0.869088,-134.212,228.648)"
         style="fill:#ffffff;fill-rule:evenodd;stroke-width:1pt"
         id="path227" />
    </g>
  </g>
</svg>
