<?xml version="1.0" encoding="UTF-8" standalone="no"?>
<!-- Created with Sodipodi ("http://www.sodipodi.com/") -->

<svg
   xmlns:dc="http://purl.org/dc/elements/1.1/"
   xmlns:cc="http://creativecommons.org/ns#"
   xmlns:rdf="http://www.w3.org/1999/02/22-rdf-syntax-ns#"
   xmlns:svg="http://www.w3.org/2000/svg"
   xmlns="http://www.w3.org/2000/svg"
   xmlns:sodipodi="http://sodipodi.sourceforge.net/DTD/sodipodi-0.dtd"
   xmlns:inkscape="http://www.inkscape.org/namespaces/inkscape"
   id="svg378"
   sodipodi:version="0.31pre"
   width="512"
   height="512"
   sodipodi:docname="iq.svg"
   version="1.1"
   inkscape:version="0.48.1 r9760">
  <sodipodi:namedview
     id="base"
     snaptoguides="false"
     showgrid="false"
     inkscape:zoom="0.8727479"
     inkscape:cx="531.49603"
     inkscape:cy="354.33072"
     inkscape:window-width="1280"
     inkscape:window-height="723"
     inkscape:window-x="0"
     inkscape:window-y="24"
     inkscape:window-maximized="1"
     inkscape:current-layer="svg378"
     inkscape:snap-global="false" />
  <metadata
     id="metadata4104">
    <rdf:RDF>
      <cc:Work
         rdf:about="">
        <dc:format>image/svg+xml</dc:format>
        <dc:type
           rdf:resource="http://purl.org/dc/dcmitype/StillImage" />
      </cc:Work>
    </rdf:RDF>
  </metadata>
  <defs
     id="defs380" />
  <g
     id="flag"
     transform="matrix(0.66666672,0,0,1,86.91592,1.9545387)"
     inkscape:label="#g7384">
    <rect
       style="font-size:12px;fill:#ffffff;fill-opacity:1;fill-rule:evenodd;stroke-width:1pt"
       id="rect171"
       x="-130.37387"
       y="-1.9545387"
       width="767.99994"
       height="512" />
    <rect
       style="font-size:12px;fill:#000000;fill-opacity:1;fill-rule:evenodd;stroke:none"
       id="rect140"
       width="767.99951"
       x="-130.37387"
       height="170.6665"
       y="339.37869" />
    <rect
       style="font-size:12px;fill:#f30000;fill-opacity:1;fill-rule:evenodd;stroke:none"
       id="rect403"
       width="767.99951"
       x="-130.37387"
       y="-1.9545387"
       height="170.6665" />
  </g>
  <g
     id="g7389"
     transform="matrix(0.82742091,0,0,0.82742091,43.799324,43.034564)">
    <polygon
       d="m 566.56441,405.84249 -35.32801,-25.5508 -35.14661,25.89555 13.38329,-41.49457 -35.48903,-25.42425 43.59935,-0.0942 13.21318,-41.6086 13.56258,41.43631 43.65523,-0.29128 -35.21721,25.70331 z"
       inkscape:randomized="0"
       inkscape:rounded="0"
       inkscape:flatsided="false"
       sodipodi:type="star"
       style="font-size:12px;fill:#005623;fill-opacity:1;fill-rule:evenodd;stroke-width:1pt"
       id="polygon141"
       sodipodi:sides="5"
       sodipodi:cx="531.08984"
       sodipodi:cy="357.51486"
       sodipodi:r1="59.950012"
       sodipodi:r2="22.777296"
       sodipodi:arg1="0.937586"
       sodipodi:arg2="1.564362"
       points="566.564,405.842 531.236,380.292 496.09,406.187 509.473,364.693 473.984,339.268 517.583,339.174 530.797,297.566 544.359,339.002 588.014,338.711 552.797,364.414 566.564,405.842 "
       transform="matrix(0.72248887,0,0,0.72248887,127.02724,-1.954556)" />
    <path
       inkscape:connector-curvature="0"
       style="font-size:12px;fill:#005623;fill-opacity:1;fill-rule:evenodd;stroke:none"
       d="m 180.60846,229.79388 c 0.26226,29.41686 0,48.328 0,54.36946 -3.15222,3.67674 -6.30372,7.61647 -8.6677,10.76797 -1.0505,-0.78751 -1.31348,-0.78751 -1.31348,-2.36398 0,-1.57575 -0.26227,-40.18556 0,-54.36874 4.72796,-2.36398 7.88018,-8.93068 9.98118,-8.40471 z m -10.7687,-0.52525 c 2.36399,-3.93973 4.99023,-7.88018 6.82897,-9.7182 1.83873,1.0505 1.57575,3.93974 1.83873,4.72725 -1.83873,2.62697 -6.30371,6.82896 -7.6172,8.14245 -0.52525,-0.78751 0,-0.52525 -1.0505,-3.1515 z m 13.13268,-33.6203 0,0 c -16.02191,10.50644 -34.14554,23.11387 -40.71152,28.62935 -6.5667,5.5162 -8.92996,8.93068 -8.92996,18.3859 0,9.45593 0.26226,20.22463 -0.52525,25.21486 -0.78824,4.99023 -3.15222,10.24344 -8.93069,5.51548 -5.77847,-4.72725 -9.98046,-9.45521 -12.60743,-11.55621 -2.62625,-2.10172 -7.35421,-4.99096 -13.65793,0.52525 -6.303715,5.51548 -35.720572,36.5088 -41.236774,39.92329 -5.51548,3.41448 -6.565979,4.20271 -10.505711,6.30371 8.141727,0.52525 17.334675,1.0505 24.68889,-0.52525 9.718197,-7.09195 21.012866,-23.11386 24.689612,-27.05359 3.677468,-3.93973 7.354213,-12.34445 15.496663,-3.1515 8.14245,9.19295 7.87946,9.45521 11.8192,12.34445 3.94045,2.88923 8.93068,2.36398 12.34516,-3.41449 3.41449,-5.77846 3.67675,-8.40471 4.99023,-17.86064 1.31349,-9.45522 2.101,-21.27513 4.20272,-26.52763 2.101,-5.25321 6.30372,-10.50643 13.39495,-14.70915 7.09195,-4.20199 8.40543,-4.46498 9.98118,-5.25249 3.1515,-6.04145 10.7687,-20.22463 13.92019,-23.63912 1.31349,-1.57574 1.57647,-2.36398 1.57647,-3.15222 z m -71.1796,95.60623 c -3.93973,-2.62624 -5.25322,-4.72796 -7.35421,-4.46498 -2.101,0.26299 -6.565984,6.30372 -9.192953,7.87947 3.414482,2.88923 6.566703,5.5162 9.192953,4.99095 2.62696,-0.52597 4.46498,-6.30372 7.35421,-8.40544 z"
       id="path155" />
    <path
       inkscape:connector-curvature="0"
       style="font-size:12px;fill:#005623;fill-opacity:1;fill-rule:evenodd;stroke:none"
       d="m 444.57555,217.44871 c -5.51548,1.31349 -8.40472,8.6677 -13.13268,13.65793 -0.52525,14.70915 -0.52525,60.41091 -0.52525,66.45164 4.72797,-5.51548 7.6172,-8.6677 11.03168,-10.7687 0.78751,-24.42662 3.67675,-58.57145 2.62625,-69.34087 z m -26.0031,-0.26226 c -6.56598,4.202 -8.14173,8.40471 -13.65793,13.13268 -0.26226,17.59766 0.52525,42.54954 -0.78751,45.96402 -1.31349,3.41448 -4.20272,10.50643 -11.29395,9.7182 -7.09195,-0.78752 -9.19295,-2.101 -9.19295,-9.45521 0,-7.35422 1.57575,-54.36946 1.57575,-61.98666 -5.5162,2.62697 -10.24344,10.76942 -14.18318,14.1839 0,18.38518 0.78752,41.7613 0.26227,46.75226 -0.52525,4.99023 -2.62625,13.13268 -11.55694,12.86969 -8.92996,-0.26226 -13.65792,-4.72797 -13.65792,-9.98046 0,-5.25322 -0.26227,-39.66103 0.26298,-45.70176 -7.87946,5.51548 -26.26536,16.54717 -29.94283,30.73035 -3.67674,14.18317 2.10172,18.38589 7.35422,15.75892 5.25321,-2.62624 7.6172,-4.99023 10.50643,-7.09123 0.78824,8.92997 1.0505,18.64816 9.98046,24.42663 8.93069,5.77847 20.22463,3.67747 24.42735,0.52525 4.20199,-3.1515 5.77847,-5.25322 6.82896,-6.82896 7.87947,6.04073 19.4364,9.19294 27.0536,2.62624 7.61648,-6.56598 11.8192,-13.13268 12.60671,-20.48689 0.78823,-7.35422 4.4657,-45.17651 3.41448,-55.15697 z m -82.47283,35.72057 c -7.87946,3.67747 -11.29394,9.19295 -9.19294,12.60743 2.10099,3.41449 6.30371,-0.52525 9.19294,-1.83873 -0.52525,-5.25249 0,-8.14173 0,-10.7687 z m 50.69199,-55.68221 c -1.83873,6.04072 -3.1515,4.99023 -5.51548,5.25321 -2.36398,0.26227 -3.93973,-2.10172 -5.77847,-4.20272 -1.83873,0.26227 -2.10099,0.78824 -3.41448,1.31349 4.202,6.04073 7.35422,8.66698 12.34445,7.35421 4.99023,-1.31348 5.25321,-5.77846 5.25321,-8.14245 -0.78823,-0.52525 -1.0505,-0.78823 -2.88923,-1.57574 z m -4.46498,-7.6172 c -2.36398,0.78823 -2.88923,1.31348 -3.67747,3.41448 1.31349,2.88923 3.15222,4.46498 4.99095,3.67747 1.83802,-0.78824 2.101,-3.93974 1.0505,-4.72797 -1.0505,-0.78824 -0.52525,-1.31349 -2.36398,-2.36398 z"
       id="path161" />
    <polygon
       d="m 566.56441,405.84249 -35.32801,-25.5508 -35.14661,25.89555 13.38329,-41.49457 -35.48903,-25.42425 43.59935,-0.0942 13.21318,-41.6086 13.56258,41.43631 43.65523,-0.29128 -35.21721,25.70331 z"
       inkscape:randomized="0"
       inkscape:rounded="0"
       inkscape:flatsided="false"
       sodipodi:type="star"
       style="font-size:12px;fill:#005623;fill-opacity:1;fill-rule:evenodd;stroke-width:1pt"
       id="polygon163"
       sodipodi:sides="5"
       sodipodi:cx="531.08984"
       sodipodi:cy="357.51486"
       sodipodi:r1="59.950012"
       sodipodi:r2="22.777296"
       sodipodi:arg1="0.937586"
       sodipodi:arg2="1.564362"
       points="566.564,405.842 531.236,380.292 496.09,406.187 509.473,364.693 473.984,339.268 517.583,339.174 530.797,297.566 544.359,339.002 588.014,338.711 552.797,364.414 566.564,405.842 "
       transform="matrix(0.72248887,0,0,0.72248887,-386.72376,-1.954556)" />
    <polygon
       transform="matrix(0.72248887,0,0,0.72248887,-130.37387,-1.9545387)"
       d="m 566.56441,405.84249 -35.32801,-25.5508 -35.14661,25.89555 13.38329,-41.49457 -35.48903,-25.42425 43.59935,-0.0942 13.21318,-41.6086 13.56258,41.43631 43.65523,-0.29128 -35.21721,25.70331 z"
       inkscape:randomized="0"
       inkscape:rounded="0"
       inkscape:flatsided="false"
       sodipodi:type="star"
       style="font-size:12px;fill:#005623;fill-opacity:1;fill-rule:evenodd;stroke-width:1pt"
       id="polygon164"
       sodipodi:sides="5"
       sodipodi:cx="531.08984"
       sodipodi:cy="357.51486"
       sodipodi:r1="59.950012"
       sodipodi:r2="22.777296"
       sodipodi:arg1="0.937586"
       sodipodi:arg2="1.564362"
       points="566.564,405.842 531.236,380.292 496.09,406.187 509.473,364.693 473.984,339.268 517.583,339.174 530.797,297.566 544.359,339.002 588.014,338.711 552.797,364.414 566.564,405.842 " />
  </g>
</svg>
