<?xml version="1.0" encoding="UTF-8" standalone="no"?>
<!-- Created with Sodipodi ("http://www.sodipodi.com/") -->

<svg
   xmlns:dc="http://purl.org/dc/elements/1.1/"
   xmlns:cc="http://creativecommons.org/ns#"
   xmlns:rdf="http://www.w3.org/1999/02/22-rdf-syntax-ns#"
   xmlns:svg="http://www.w3.org/2000/svg"
   xmlns="http://www.w3.org/2000/svg"
   xmlns:sodipodi="http://sodipodi.sourceforge.net/DTD/sodipodi-0.dtd"
   xmlns:inkscape="http://www.inkscape.org/namespaces/inkscape"
   version="1"
   x="0"
   y="0"
   width="512"
   height="512"
   id="islenskifaninn"
   sodipodi:version="0.29win"
   sodipodi:docname="is.svg"
   inkscape:version="0.48.1 r9760">
  <sodipodi:namedview
     id="base"
     showgrid="false"
     inkscape:zoom="0.48559671"
     inkscape:cx="337.5"
     inkscape:cy="243"
     inkscape:window-width="1280"
     inkscape:window-height="723"
     inkscape:window-x="0"
     inkscape:window-y="24"
     inkscape:window-maximized="1"
     inkscape:current-layer="islenskifaninn" />
  <metadata
     id="metadata4595">
    <rdf:RDF>
      <cc:Work
         rdf:about="">
        <dc:format>image/svg+xml</dc:format>
        <dc:type
           rdf:resource="http://purl.org/dc/dcmitype/StillImage" />
      </cc:Work>
    </rdf:RDF>
  </metadata>
  <defs
     id="defs380">
    <clipPath
       clipPathUnits="userSpaceOnUse"
       id="clipPath5878">
      <rect
         id="rect5880"
         height="486.00003"
         x="85.429688"
         style="fill:#000000;fill-opacity:0.67000002;stroke:none"
         width="486.00003"
         y="-1.9553907e-05" />
    </clipPath>
  </defs>
  <g
     id="flag"
     transform="matrix(1.0534979,0,0,1.0534979,-90,2.06e-5)"
     clip-path="url(#clipPath5878)"
     inkscape:label="#g5842">
    <rect
       id="blarfeldur"
       style="fill:#003897;fill-opacity:1;fill-rule:evenodd;stroke-width:0pt"
       y="0"
       x="0"
       height="486"
       width="675" />
    <path
       fill-cmyk="(0 0 0 0)"
       id="hviturkross"
       style="fill:#ffffff;fill-rule:evenodd;stroke-width:0pt"
       d="m 0,189 189,0 0,-189 108,0 0,189 378,0 0,108 -378,0 0,189 -108,0 0,-189 -189,0 0,-108 z"
       inkscape:connector-curvature="0" />
    <path
       id="raudurkross"
       style="fill:#d72828;fill-opacity:1;fill-rule:evenodd;stroke-width:0pt"
       d="m 0,216 216,0 0,-216 54,0 0,216 405,0 0,54 -405,0 0,216 -54,0 0,-216 -216,0 0,-54 z"
       inkscape:connector-curvature="0" />
  </g>
</svg>
