<?xml version="1.0" encoding="UTF-8" standalone="no"?>
<!-- Created with Sodipodi ("http://www.sodipodi.com/") -->

<!--

<rdf:RDF xmlns="http://web.resource.org/cc/"
    xmlns:dc="http://purl.org/dc/elements/1.1/"
    xmlns:rdf="http://www.w3.org/1999/02/22-rdf-syntax-ns#">
<Work rdf:about="">
   <dc:title>SVG graphic of Kyrgyzstan's Flag</dc:title>
   <dc:rights><Agent>
      <dc:title>Andrew Duhan</dc:title>
   </Agent></dc:rights>
   <license rdf:resource="http://web.resource.org/cc/PublicDomain" />
</Work>

<License rdf:about="http://web.resource.org/cc/PublicDomain">
   <permits rdf:resource="http://web.resource.org/cc/Reproduction" />
   <permits rdf:resource="http://web.resource.org/cc/Distribution" />
   <permits rdf:resource="http://web.resource.org/cc/DerivativeWorks" />
</License>

</rdf:RDF>

-->

<svg
   xmlns:dc="http://purl.org/dc/elements/1.1/"
   xmlns:cc="http://creativecommons.org/ns#"
   xmlns:rdf="http://www.w3.org/1999/02/22-rdf-syntax-ns#"
   xmlns:svg="http://www.w3.org/2000/svg"
   xmlns="http://www.w3.org/2000/svg"
   xmlns:sodipodi="http://sodipodi.sourceforge.net/DTD/sodipodi-0.dtd"
   xmlns:inkscape="http://www.inkscape.org/namespaces/inkscape"
   id="svg719"
   sodipodi:version="0.32"
   width="512"
   height="512"
   sodipodi:docname="kg.svg"
   version="1.1"
   inkscape:version="0.48.1 r9760">
  <sodipodi:namedview
     id="base"
     showgrid="false"
     inkscape:zoom="0.5248"
     inkscape:cx="312.5"
     inkscape:cy="208.125"
     inkscape:window-width="1280"
     inkscape:window-height="723"
     inkscape:window-x="0"
     inkscape:window-y="24"
     inkscape:window-maximized="1"
     inkscape:current-layer="svg719" />
  <metadata
     id="metadata4668">
    <rdf:RDF>
      <cc:Work
         rdf:about="">
        <dc:format>image/svg+xml</dc:format>
        <dc:type
           rdf:resource="http://purl.org/dc/dcmitype/StillImage" />
      </cc:Work>
    </rdf:RDF>
  </metadata>
  <defs
     id="defs721">
    <clipPath
       clipPathUnits="userSpaceOnUse"
       id="clipPath5662">
      <rect
         id="rect5664"
         height="416.25"
         x="104.0625"
         style="fill:#000000;fill-opacity:0.67000002;stroke:none"
         width="416.25"
         y="-2.2162354e-05" />
    </clipPath>
  </defs>
  <g
     transform="matrix(1.23003,0,0,1.23003,-128,2.7260361e-5)"
     id="flag"
     clip-path="url(#clipPath5662)"
     inkscape:label="#g5631">
    <rect
       style="font-size:12px;fill:#be0027;fill-opacity:1;fill-rule:evenodd;stroke-width:1pt"
       id="rect724"
       width="625"
       height="416.25"
       x="0"
       y="-1.2e-05" />
    <path
       inkscape:connector-curvature="0"
       style="fill:#ffff00;fill-opacity:1;fill-rule:evenodd;stroke:none"
       d="m 186.649,207.901 c 11.104,-13.504 34.105,-0.324 52.881,-10.048 -22.242,1.223 -34.365,-10.674 -51.937,-9.006 18.207,-11.184 33.707,3.658 54.065,-2.308 -26.963,-2.268 -25.794,-14.321 -50.311,-16.033 21.778,-9.288 32.549,9.553 53.882,5.268 -25.143,-5.804 -28.491,-20.614 -47.185,-23.749 27.323,-4.124 25.542,12.027 52.327,14 -27.187,-11.662 -20.061,-21.786 -42.8,-30.668 25.444,-0.601 23.757,17.033 49.535,21.658 -22.068,-14 -19.342,-26.776 -37.519,-36.773 21.564,0.39 23.669,22.462 45.677,29.301 -19.632,-15.577 -14.469,-28.71 -31.433,-42.62 21.449,5.031 18.326,24.073 40.665,36.22 -16.555,-18.386 -10.203,-31.548 -24.645,-46.5985 20.629,6.6435 12.792,24.7405 34.198,41.9465 -12.271,-20.207 -4.695,-33.094 -16.771,-50.1423 19.153,9.8907 9.879,28.3503 27.66,46.7943 -8.37,-20.738 0.012,-33.619 -8.542,-51.9834 16.383,12.2409 6.639,31.9694 19.855,50.7894 -4.818,-25.95 6.375,-30.219 2.892,-52.9447 12.444,15.2762 -1.465,30.5527 8.088,53.0557 -1.163,-25.59 12.434,-31.54 10.076,-52.0854 12.332,18.4104 -6.916,34.4324 1.134,54.1494 2.082,-24.279 18.036,-30.566 18.284,-49.459 9.701,17.343 -11.472,29.814 -8.035,52.808 6.967,-25.362 23.964,-28.496 25.969,-45.5478 5.882,20.0628 -17.288,29.3898 -15.933,51.6258 6.901,-22.549 28.146,-25.194 32.489,-41.849 2.68,21.225 -18.212,24.993 -24.093,48.442 10.985,-19.138 30.197,-20.708 38.847,-35.844 -0.679,20.987 -24.263,23.739 -31.502,43.391 13.597,-16.674 30.642,-13.78 44.239,-28.564 -1.435,18.942 -25.441,17.871 -38.218,37.482 14.744,-13.603 36.938,-9.527 48.235,-21.239 -0.548,16.754 -30.006,15.495 -43.898,30.47 17.134,-9.386 38.826,-3.873 51.401,-12.591 -2.298,14.689 -33.394,11.256 -48.256,22.72 20.496,-5.679 36.322,3.097 52.927,-3.248 -8.081,14.298 -36.287,5.248 -51.262,14.543 17.787,-3.012 36.687,7.764 52.918,4.307 -5.335,12.358 -36.243,-0.747 -52.918,6.941 19.926,-0.175 32.847,12.548 51.327,11.706 -10.051,11.189 -37.225,-4.197 -53.057,-1.569 19.316,3.996 34.073,20.001 48.719,20.772 -12.019,9.229 -34.489,-11.786 -52.734,-9.118 18.784,5.028 34.565,26.399 45.344,26.868 -11.613,7.936 -34.566,-18.263 -50.292,-17.332 19.102,8.634 27.863,30.499 40.404,33.573 -15.527,4.982 -30.786,-23.753 -47.471,-24.749 19.326,12.189 20.418,30.827 35.298,39.124 -15.656,3.827 -26.799,-28.59 -43.299,-31.326 15.844,11.648 18.234,36.528 28.74,44.396 -15.94,0.842 -21.7,-33.1 -38.037,-37.949 13.996,11.69 10.645,37.055 21.527,47.855 -16.605,-3.406 -14.465,-32.957 -31.802,-42.908 12.455,15.707 6.119,38.085 14.237,50.679 -16.155,-6.535 -9.138,-32.981 -24.561,-47.959 8.414,16.734 -0.629,36.249 6.006,52.427 -14.758,-7.198 -4.832,-38.523 -16.143,-50.947 5.199,19.338 -4.39,35.341 -0.525,52.677 -15.088,-17.5 2.29,-35.112 -10.797,-52.946 3.474,20.469 -10.842,34.712 -8.591,51.845 -11.964,-13.975 6.427,-36.401 -2.868,-54.046 2.001,20.125 -16.484,37.754 -15.215,50.429 -9.738,-16.233 10.811,-35.432 5.309,-53.889 -1.159,19.164 -19.813,29.578 -23.326,47.036 -6.27,-19.259 15.905,-33.18 13.991,-52.105 -6.35,18.004 -24.375,25.222 -30.725,42.67 -5.199,-19.205 21.068,-29.403 21.762,-49.609 -8.119,18.95 -29.692,23.111 -36.811,37.613 -2.658,-19.105 27.485,-27.647 28.607,-45.751 -9.704,17.383 -33.307,18.088 -41.455,31.913 -1.235,-19.037 30.554,-21.395 35.545,-41.32 -9.661,14.86 -35.556,12.932 -46.33,25.013 1.699,-17.66 36.087,-18.752 41.567,-34.633 -12.783,12.331 -36.554,7.221 -49.939,17.002 7.45,-17.345 39.705,-13.668 46.997,-26.233 -14.279,7.45 -39.576,0.228 -52.029,7.678 11.318,-16.427 36.424,-6.614 50.633,-17.926 -23.112,3.368 -36.996,-5.829 -52.992,-1.572 z"
       id="path733"
       sodipodi:nodetypes="ccccccccccccccccccccccccccccccccccccccccccccccccccccccccccccccccccccccccccccccccc"
       transform="translate(3.144913,4.402847)" />
    <path
       sodipodi:type="arc"
       style="fill:#ffff00;fill-opacity:1;fill-rule:evenodd;stroke:none"
       id="path731"
       d="m 380.21672,199.25284 c 0,38.55857 -31.25789,69.81647 -69.81645,69.81647 -38.55856,0 -69.81645,-31.2579 -69.81645,-69.81647 0,-38.55858 31.25789,-69.81648 69.81645,-69.81648 38.55856,0 69.81645,31.2579 69.81645,69.81648 z"
       sodipodi:cx="310.40027"
       sodipodi:cy="199.25284"
       sodipodi:rx="69.816452"
       sodipodi:ry="69.816475"
       transform="matrix(1.155408,0,0,1.155407,-45.87932,-22.00203)" />
    <path
       sodipodi:type="arc"
       style="fill:#be0027;fill-opacity:1;fill-rule:evenodd;stroke:none"
       id="path727"
       d="m 380.21672,199.25284 c 0,38.55857 -31.25789,69.81647 -69.81645,69.81647 -38.55856,0 -69.81645,-31.2579 -69.81645,-69.81647 0,-38.55858 31.25789,-69.81648 69.81645,-69.81648 38.55856,0 69.81645,31.2579 69.81645,69.81648 z"
       sodipodi:cx="310.40027"
       sodipodi:cy="199.25284"
       sodipodi:rx="69.816452"
       sodipodi:ry="69.816475"
       transform="matrix(1.004506,0,0,1.004506,1.117672,8.222656)" />
    <path
       sodipodi:type="arc"
       style="fill:#ffff00;fill-opacity:1;fill-rule:evenodd;stroke:none"
       id="path726"
       d="m 380.21672,199.25284 c 0,38.55857 -31.25789,69.81647 -69.81645,69.81647 -38.55856,0 -69.81645,-31.2579 -69.81645,-69.81647 0,-38.55858 31.25789,-69.81648 69.81645,-69.81648 38.55856,0 69.81645,31.2579 69.81645,69.81648 z"
       sodipodi:cx="310.40027"
       sodipodi:cy="199.25284"
       sodipodi:rx="69.816452"
       sodipodi:ry="69.816475"
       transform="matrix(0.862614,0,0,0.862614,45.31819,36.65222)" />
    <path
       inkscape:connector-curvature="0"
       style="fill:#be0027;fill-opacity:1;fill-rule:evenodd;stroke:none"
       d="m 258.667,164.659 c 16.667,-0.367 37.424,1.153 51.104,12.108 14.519,-9.068 31.711,-13.261 49.218,-11.636 2.988,5.451 5.975,10.902 8.963,16.353 -12.999,-1.311 -25.683,0.525 -40.727,6.605 19.184,15.2 28.776,34.803 28.147,58.652 -2.201,2.725 -5.661,5.765 -7.862,8.49 3.197,-23.167 -9.015,-49.006 -26.732,-62.582 14.414,20.809 23.011,39.573 20.6,65.413 -2.568,1.52 -5.609,3.669 -8.177,5.189 3.773,-22.8 -1.571,-49.532 -18.397,-65.099 9.696,14.257 19.393,39.836 13.365,65.885 -2.621,0.786 -6.656,2.988 -9.277,3.774 6.762,-21.332 2.515,-48.012 -8.806,-63.998 -11.216,16.092 -14.886,40.673 -8.492,63.369 -3.145,-0.786 -5.503,-1.73 -8.648,-2.516 -4.612,-24.425 1.783,-51.996 12.895,-66.356 -11.322,6.552 -22.015,34.645 -19.028,63.369 -2.725,-1.258 -4.822,-2.202 -7.547,-3.46 -3.669,-21.438 6.027,-49.321 19.97,-65.414 -15.83,9.959 -28.671,34.385 -26.417,60.697 -2.411,-2.149 -4.665,-3.197 -7.076,-5.346 -2.778,-22.958 10.483,-46.072 26.102,-59.91 -13.156,-5.871 -24.425,-7.024 -40.726,-6.762 2.568,-5.294 4.98,-11.531 7.548,-16.825 z"
       id="path729"
       sodipodi:nodetypes="ccccccccccccccccccccccccc"
       transform="translate(3.144913,4.402847)" />
  </g>
</svg>
