<?xml version="1.0" encoding="UTF-8" standalone="no"?>
<!-- Created with Sodipodi ("http://www.sodipodi.com/") -->

<svg
   xmlns:dc="http://purl.org/dc/elements/1.1/"
   xmlns:cc="http://creativecommons.org/ns#"
   xmlns:rdf="http://www.w3.org/1999/02/22-rdf-syntax-ns#"
   xmlns:svg="http://www.w3.org/2000/svg"
   xmlns="http://www.w3.org/2000/svg"
   xmlns:xlink="http://www.w3.org/1999/xlink"
   xmlns:sodipodi="http://sodipodi.sourceforge.net/DTD/sodipodi-0.dtd"
   xmlns:inkscape="http://www.inkscape.org/namespaces/inkscape"
   id="svg570"
   sodipodi:version="0.32"
   width="512"
   height="512"
   sodipodi:docname="ki.svg"
   version="1.1"
   inkscape:version="0.48.1 r9760">
  <sodipodi:namedview
     id="base"
     showgrid="false"
     inkscape:zoom="0.98242188"
     inkscape:cx="256"
     inkscape:cy="256"
     inkscape:window-width="1280"
     inkscape:window-height="723"
     inkscape:window-x="0"
     inkscape:window-y="24"
     inkscape:window-maximized="1"
     inkscape:current-layer="svg570" />
  <metadata
     id="metadata4835">
    <rdf:RDF>
      <cc:Work
         rdf:about="">
        <dc:format>image/svg+xml</dc:format>
        <dc:type
           rdf:resource="http://purl.org/dc/dcmitype/StillImage" />
      </cc:Work>
    </rdf:RDF>
  </metadata>
  <defs
     id="defs572">
    <linearGradient
       id="linearGradient580">
      <stop
         id="stop581"
         offset="0"
         style="stop-color:#000;stop-opacity:1;" />
      <stop
         id="stop582"
         offset="1"
         style="stop-color:#fff;stop-opacity:1;" />
    </linearGradient>
    <linearGradient
       id="linearGradient583"
       xlink:href="#linearGradient580" />
    <linearGradient
       id="linearGradient584"
       xlink:href="#linearGradient580" />
    <linearGradient
       id="linearGradient585"
       xlink:href="#linearGradient580" />
    <clipPath
       clipPathUnits="userSpaceOnUse"
       id="clipPath5131">
      <rect
         id="rect5133"
         height="491.68387"
         x="161.78267"
         style="fill:#000000;fill-opacity:0.67000002;stroke:none"
         width="491.68387"
         y="5.7532959" />
    </clipPath>
  </defs>
  <g
     transform="matrix(1.0413195,0,0,1.0413195,-168.46745,-5.9910192)"
     id="flag"
     clip-path="url(#clipPath5131)"
     inkscape:label="#g5016">
    <rect
       style="font-size:12px;fill:#e73e2d;fill-opacity:1;fill-rule:evenodd;stroke-width:1pt"
       id="rect574"
       width="802.62433"
       height="294.32535"
       x="4.0232301"
       y="5.753274" />
    <path
       inkscape:connector-curvature="0"
       style="fill:#fec74a;fill-opacity:1;fill-rule:evenodd;stroke:#d8aa3f;stroke-width:1.25;stroke-linecap:butt;stroke-linejoin:miter;stroke-opacity:1;stroke-dasharray:none"
       d="m 330.311,587.19 c -14.59,-11.391 -41.764,-7.538 -46.24,-38.5 20.807,16.117 17.03,-0.921 48.106,14.435 l -1.866,24.065 z"
       id="path605"
       sodipodi:nodetypes="cccc"
       transform="matrix(1.279234,0,0,1.279234,-64.56436,-474.4866)" />
    <path
       inkscape:connector-curvature="0"
       style="fill:#fec74a;fill-opacity:1;fill-rule:evenodd;stroke:#d8aa3f;stroke-width:1.25;stroke-linecap:butt;stroke-linejoin:miter;stroke-opacity:1;stroke-dasharray:none"
       d="m 330.311,587.19 c -14.59,-11.391 -41.764,-7.538 -46.24,-38.5 20.807,16.117 17.03,-0.921 48.106,14.435 l -1.866,24.065 z"
       id="path564"
       sodipodi:nodetypes="cccc"
       transform="matrix(1.217721,0.391909,-0.391909,1.217721,190.8429,-585.8279)" />
    <path
       inkscape:connector-curvature="0"
       style="fill:#fec74a;fill-opacity:1;fill-rule:evenodd;stroke:#d8aa3f;stroke-width:1.25;stroke-linecap:butt;stroke-linejoin:miter;stroke-opacity:1;stroke-dasharray:none"
       d="m 330.311,587.19 c -14.59,-11.391 -41.764,-7.538 -46.24,-38.5 20.807,16.117 17.03,-0.921 48.106,14.435 l -1.866,24.065 z"
       id="path565"
       sodipodi:nodetypes="cccc"
       transform="matrix(0.975372,0.8277,-0.8277,0.975372,532.832,-600.2823)" />
    <path
       inkscape:connector-curvature="0"
       style="fill:#fec74a;fill-opacity:1;fill-rule:evenodd;stroke:#d8aa3f;stroke-width:1.25;stroke-linecap:butt;stroke-linejoin:miter;stroke-opacity:1;stroke-dasharray:none"
       d="m 330.311,587.19 c -14.59,-11.391 -41.764,-7.538 -46.24,-38.5 20.807,16.117 17.03,-0.921 48.106,14.435 l -1.866,24.065 z"
       id="path566"
       sodipodi:nodetypes="cccc"
       transform="matrix(0.674185,1.087158,-1.087158,0.674185,798.6409,-521.0389)" />
    <path
       inkscape:connector-curvature="0"
       style="fill:#fec74a;fill-opacity:1;fill-rule:evenodd;stroke:#d8aa3f;stroke-width:1.25;stroke-linecap:butt;stroke-linejoin:miter;stroke-opacity:1;stroke-dasharray:none"
       d="m 330.311,587.19 c -14.59,-11.391 -41.764,-7.538 -46.24,-38.5 20.807,16.117 17.03,-0.921 48.106,14.435 l -1.866,24.065 z"
       id="path567"
       sodipodi:nodetypes="cccc"
       transform="matrix(0.169977,1.267891,-1.267891,0.169977,1083.742,-294.2182)" />
    <path
       inkscape:connector-curvature="0"
       style="fill:#fec74a;fill-opacity:1;fill-rule:evenodd;stroke:#d8aa3f;stroke-width:1.25;stroke-linecap:butt;stroke-linejoin:miter;stroke-opacity:1;stroke-dasharray:none"
       d="m 330.311,587.19 c -14.59,-11.391 -41.764,-7.538 -46.24,-38.5 20.807,16.117 17.03,-0.921 48.106,14.435 l -1.866,24.065 z"
       id="path568"
       sodipodi:nodetypes="cccc"
       transform="matrix(-0.240634,1.256397,-1.256397,-0.240634,1230.678,-46.80246)" />
    <path
       inkscape:connector-curvature="0"
       style="fill:#fec74a;fill-opacity:1;fill-rule:evenodd;stroke:#d8aa3f;stroke-width:1.25;stroke-linecap:butt;stroke-linejoin:miter;stroke-opacity:1;stroke-dasharray:none"
       d="m 330.311,587.19 c -14.59,-11.391 -41.764,-7.538 -46.24,-38.5 20.807,16.117 17.03,-0.921 48.106,14.435 l -1.866,24.065 z"
       id="path569"
       sodipodi:nodetypes="cccc"
       transform="matrix(-0.598776,1.130443,-1.130443,-0.598776,1290.863,214.2985)" />
    <path
       inkscape:connector-curvature="0"
       style="fill:#fec74a;fill-opacity:1;fill-rule:evenodd;stroke:#d8aa3f;stroke-width:1.25;stroke-linecap:butt;stroke-linejoin:miter;stroke-opacity:1;stroke-dasharray:none"
       d="m 330.311,587.19 c -14.59,-11.391 -41.764,-7.538 -46.24,-38.5 20.807,16.117 17.03,-0.921 48.106,14.435 l -1.866,24.065 z"
       id="path570"
       sodipodi:nodetypes="cccc"
       transform="matrix(-0.892769,0.916187,-0.916187,-0.892769,1275.538,472.1673)" />
    <path
       inkscape:connector-curvature="0"
       style="fill:#fec74a;fill-opacity:1;fill-rule:evenodd;stroke:#d8aa3f;stroke-width:1.25;stroke-linecap:butt;stroke-linejoin:miter;stroke-opacity:1;stroke-dasharray:none"
       d="m 368.352,490.638 -15.346,82.734 22.91,1.164 -7.564,-83.898 0,0 z"
       id="path598"
       sodipodi:nodetypes="ccccc"
       transform="matrix(0.260854,1.252355,-1.252355,0.260854,1044.551,-334.2381)" />
    <path
       inkscape:connector-curvature="0"
       style="fill:#fec74a;fill-opacity:1;fill-rule:evenodd;stroke:#d8aa3f;stroke-width:1.25;stroke-linecap:butt;stroke-linejoin:miter;stroke-opacity:1;stroke-dasharray:none"
       d="m 368.533,489.851 -15.035,82.136 28.185,1.899 -13.15,-84.035 z"
       id="path597"
       sodipodi:nodetypes="cccc"
       transform="matrix(0.66596,1.092216,-1.092216,0.66596,799.9702,-513.2404)" />
    <path
       inkscape:connector-curvature="0"
       style="fill:#fec74a;fill-opacity:1;fill-rule:evenodd;stroke:#d8aa3f;stroke-width:1.25;stroke-linecap:butt;stroke-linejoin:miter;stroke-opacity:1;stroke-dasharray:none"
       d="m 380.103,573.403 -11.751,-82.765 -14.86,83.198 26.611,-0.433 0,0 z"
       id="path596"
       sodipodi:nodetypes="ccccc"
       transform="matrix(1.022641,0.768533,-0.768533,1.022641,483.2019,-603.2219)" />
    <path
       inkscape:connector-curvature="0"
       style="fill:#fec74a;fill-opacity:1;fill-rule:evenodd;stroke:#d8aa3f;stroke-width:1.25388002;stroke-linecap:butt;stroke-linejoin:miter;stroke-opacity:1;stroke-dasharray:none"
       d="m 381.865,573.24 -13.513,-82.602 -15.405,82.535 28.918,0.067 0,0 z"
       id="path595"
       sodipodi:nodetypes="ccccc"
       transform="matrix(1.214457,0.401911,-0.39943,1.206961,195.3655,-577.7878)" />
    <path
       inkscape:connector-curvature="0"
       style="fill:#fec74a;fill-opacity:1;fill-rule:evenodd;stroke:#d8aa3f;stroke-width:1.25;stroke-linecap:butt;stroke-linejoin:miter;stroke-opacity:1;stroke-dasharray:none"
       d="m 381.891,573.402 -13.539,-82.764 -15.006,83.126 28.545,-0.362 0,0 z"
       id="path594"
       sodipodi:nodetypes="ccccc"
       transform="matrix(1.279234,0,0,1.279234,-64.56436,-474.4866)" />
    <path
       inkscape:connector-curvature="0"
       style="fill:#fec74a;fill-opacity:1;fill-rule:evenodd;stroke:#d8aa3f;stroke-width:1.25263;stroke-linecap:butt;stroke-linejoin:miter;stroke-opacity:1;stroke-dasharray:none"
       d="m 378.511,569.671 -10.159,-79.033 -17.918,83.552 28.077,-4.519 0,0 z"
       id="path604"
       sodipodi:nodetypes="ccccc"
       transform="matrix(1.179097,-0.488596,0.483832,1.181565,-306.9275,-238.2126)" />
    <path
       inkscape:connector-curvature="0"
       style="fill:#fec74a;fill-opacity:1;fill-rule:evenodd;stroke:#d8aa3f;stroke-width:1.25;stroke-linecap:butt;stroke-linejoin:miter;stroke-opacity:1;stroke-dasharray:none"
       d="m 378.511,569.671 -10.159,-79.033 -17.785,83.489 27.944,-4.456 z"
       id="path603"
       sodipodi:nodetypes="cccc"
       transform="matrix(0.94317,-0.864217,0.864217,0.94317,-442.1146,39.10769)" />
    <path
       inkscape:connector-curvature="0"
       style="fill:#fec74a;fill-opacity:1;fill-rule:evenodd;stroke:#d8aa3f;stroke-width:1.25;stroke-linecap:butt;stroke-linejoin:miter;stroke-opacity:1;stroke-dasharray:none"
       d="m 368.352,490.638 -19.61,82.464 29.769,-3.431 -10.159,-79.033 z"
       id="path601"
       sodipodi:nodetypes="cccc"
       transform="matrix(0.564174,-1.148106,1.148106,0.564174,-469.1809,362.061)" />
    <path
       inkscape:connector-curvature="0"
       style="fill:#fec74a;fill-opacity:1;fill-rule:evenodd;stroke:#d8aa3f;stroke-width:1.25;stroke-linecap:butt;stroke-linejoin:miter;stroke-opacity:1;stroke-dasharray:none"
       d="m 373.865,567.25 -5.513,-76.612 -18.876,78.389 24.389,-1.777 z"
       id="path600"
       sodipodi:nodetypes="cccc"
       transform="matrix(0.109738,-1.274519,1.274519,0.109738,-379.3258,670.5052)" />
    <path
       sodipodi:type="arc"
       style="fill:#fec74a;fill-opacity:1;fill-rule:evenodd;stroke:#d8aa3f;stroke-width:1.18698001;stroke-linecap:butt;stroke-linejoin:miter;stroke-opacity:1;stroke-dasharray:none"
       id="path575"
       d="m 429.77014,602.07153 c 0,24.16322 -19.58816,43.75138 -43.75137,43.75138 -24.16322,0 -43.75137,-19.58816 -43.75137,-43.75138 0,-24.16321 19.58815,-43.75137 43.75137,-43.75137 24.16321,0 43.75137,19.58816 43.75137,43.75137 z"
       sodipodi:cx="386.01877"
       sodipodi:cy="602.07153"
       sodipodi:rx="43.751373"
       sodipodi:ry="43.751373"
       transform="matrix(1.347157,0,0,1.347157,-114.5583,-537.1744)" />
    <rect
       style="font-size:12px;fill:#005989;fill-opacity:1;fill-rule:evenodd;stroke-width:1pt"
       id="rect586"
       width="806.57526"
       height="200.32587"
       x="3.2150619"
       y="297.1113" />
    <path
       inkscape:connector-curvature="0"
       style="fill:#ffffff;fill-opacity:1;fill-rule:evenodd;stroke:none"
       d="m 53.6009,716.232 c 11.6732,5.426 28.3957,19.007 46.2834,18.995 29.9287,-0.195 30.7257,-20.588 61.0427,-19.618 30.396,0.777 24.898,22.246 65.942,22.139 33.911,-0.089 44.866,-26.023 74.097,-22.916 21.648,-1.119 30.508,24.558 63.782,24.884 34.511,0.741 47.183,-27.986 68.832,-25.608 23.063,0 30.618,23.137 62.974,23.304 41.211,0.209 48.456,-24.081 74.238,-22.527 18.35,-0.389 32.82,17.802 59.711,18.255 21.457,0.367 39.42,-15.925 51.555,-21.751 l 0.6,-27.646 c -12.718,4.75 -31.681,20.324 -50.644,20.495 -27.288,1.003 -44.169,-17.976 -63.132,-17.805 -22.72,0.205 -31.774,23.485 -70.316,23.485 -35.211,0 -43.29,-23.485 -66.011,-23.485 -22.208,0.171 -29.012,25.543 -67.459,25.073 -31.363,-0.379 -43.583,-24.219 -65.792,-24.048 -23.544,0 -47.89,23.182 -73.96,22.063 -35.982,-1.527 -43.756,-22.063 -67.3,-22.063 -17.596,0 -36.586,19.244 -57.784,19.565 -21.0821,0.326 -44.7658,-19.149 -46.9594,-19.565 l 0.3003,28.774 z"
       id="path573"
       sodipodi:nodetypes="cccscscscsccccscscscscc"
       transform="matrix(1.28481,0,0,1.279234,-66.11154,-474.4866)" />
    <path
       inkscape:connector-curvature="0"
       style="fill:#ffffff;fill-opacity:1;fill-rule:evenodd;stroke:none"
       d="m 53.6009,716.232 c 11.6732,5.426 28.3957,19.007 46.2834,18.995 29.9287,-0.195 30.7257,-20.588 61.0427,-19.618 30.396,0.777 24.898,22.246 65.942,22.139 33.911,-0.089 44.866,-26.023 74.097,-22.916 21.648,-1.119 30.508,24.558 63.782,24.884 34.511,0.741 47.183,-27.986 68.832,-25.608 23.063,0 30.618,23.137 62.974,23.304 41.211,0.209 48.456,-24.081 74.238,-22.527 18.35,-0.389 32.82,17.802 59.711,18.255 21.457,0.367 39.42,-15.925 51.555,-21.751 l 0.6,-27.646 c -12.718,4.75 -31.681,20.324 -50.644,20.495 -27.288,1.003 -44.169,-17.976 -63.132,-17.805 -22.72,0.205 -31.774,23.485 -70.316,23.485 -35.211,0 -43.29,-23.485 -66.011,-23.485 -22.208,0.171 -29.012,25.543 -67.459,25.073 -31.363,-0.379 -43.583,-24.219 -65.792,-24.048 -23.544,0 -47.89,23.182 -73.96,22.063 -35.982,-1.527 -43.756,-22.063 -67.3,-22.063 -17.596,0 -36.586,19.244 -57.784,19.565 -21.0821,0.326 -44.7658,-19.149 -46.9594,-19.565 l 0.3003,28.774 z"
       id="path578"
       sodipodi:nodetypes="cccscscscsccccscscscscc"
       transform="matrix(1.28481,0,0,1.279234,-66.11153,-544.5251)" />
    <path
       inkscape:connector-curvature="0"
       style="fill:#ffffff;fill-opacity:1;fill-rule:evenodd;stroke:none"
       d="m 53.6009,716.232 c 11.6732,5.426 28.3957,19.007 46.2834,18.995 29.9287,-0.195 30.7257,-20.588 61.0427,-19.618 30.396,0.777 24.898,22.246 65.942,22.139 33.911,-0.089 44.866,-26.023 74.097,-22.916 21.648,-1.119 30.508,24.558 63.782,24.884 34.511,0.741 47.183,-27.986 68.832,-25.608 23.063,0 30.618,23.137 62.974,23.304 41.211,0.209 48.456,-24.081 74.238,-22.527 18.35,-0.389 32.82,17.802 59.711,18.255 21.457,0.367 39.42,-15.925 51.555,-21.751 l 0.6,-27.646 c -12.718,4.75 -31.681,20.324 -50.644,20.495 -27.288,1.003 -44.169,-17.976 -63.132,-17.805 -22.72,0.205 -31.774,23.485 -70.316,23.485 -35.211,0 -43.29,-23.485 -66.011,-23.485 -22.208,0.171 -29.012,25.543 -67.459,25.073 -31.363,-0.379 -43.583,-24.219 -65.792,-24.048 -23.544,0 -47.89,23.182 -73.96,22.063 -35.982,-1.527 -43.756,-22.063 -67.3,-22.063 -17.596,0 -36.586,19.244 -57.784,19.565 -21.0821,0.326 -44.7658,-19.149 -46.9594,-19.565 l 0.3003,28.774 z"
       id="path579"
       sodipodi:nodetypes="cccscscscsccccscscscscc"
       transform="matrix(1.283612,0,0,1.279234,-66.04775,-613.8108)" />
    <path
       inkscape:connector-curvature="0"
       style="fill:#ffc84b;fill-opacity:1;fill-rule:evenodd;stroke:#d8aa3f;stroke-width:1pt;stroke-linecap:butt;stroke-linejoin:miter;stroke-opacity:1"
       d="m 279.646,432.432 c 45.829,-3.138 37.476,-7.052 55.922,-9.996 23.245,3.196 25.903,17.269 38.855,25.903 0,0 -4.868,16.46 -20.799,14.13 -2.142,-6.603 7.712,-8.644 -20.642,-25.929 -16.484,-0.981 -45.98,2.893 -53.336,-4.108 z"
       id="path587"
       sodipodi:nodetypes="cccccc"
       transform="matrix(1.279234,0,0,1.279234,-64.56436,-474.4866)" />
    <path
       inkscape:connector-curvature="0"
       style="fill:#ffc84b;fill-opacity:1;fill-rule:evenodd;stroke:#d8aa3f;stroke-width:1pt;stroke-linecap:butt;stroke-linejoin:miter;stroke-opacity:1"
       d="m 385.689,468.002 33.015,-1.359 0,-8.157 c -22.269,-0.712 -26.283,2.266 -33.015,9.516 z"
       id="path591"
       transform="matrix(-1.279234,0,0,-1.279234,968.3016,709.9626)"
       sodipodi:nodetypes="cccc" />
    <path
       inkscape:connector-curvature="0"
       style="fill:#ffc84b;fill-opacity:1;fill-rule:evenodd;stroke:#d8aa3f;stroke-width:1.25;stroke-linecap:butt;stroke-linejoin:round;stroke-opacity:1;stroke-dasharray:none"
       d="m 308.195,456.538 c 5.754,-2.943 8.616,-1.742 13.601,-1.936 3.431,6.214 6.668,6.797 14.177,7.574 11.458,16.119 27.577,16.313 29.907,16.313 22.463,-0.583 29.584,-16.313 44.667,-18.061 l 15.925,0 c -2.654,-4.531 -4.726,-7.121 -10.487,-7.38 -11.847,-0.647 -27.188,-0.323 -40.588,2.719 l -18.838,4.661 c -5.503,-2.654 -18.967,-16.766 -27.577,-16.507 -5.049,1.359 -5.049,3.107 -7.574,5.049 -4.855,2.072 -9.711,1.079 -13.213,7.568 z"
       id="path590"
       sodipodi:nodetypes="cccccccccccc"
       transform="matrix(1.279234,0,0,1.279234,-64.56436,-474.4866)" />
    <path
       sodipodi:type="arc"
       style="fill:#ffc84b;fill-opacity:1;fill-rule:evenodd;stroke:#d8aa3f;stroke-width:1.63027;stroke-linecap:butt;stroke-linejoin:miter;stroke-opacity:1;stroke-dasharray:none"
       id="path589"
       d="m 330.53529,451.10641 c 0,1.7161 -1.39116,3.10727 -3.10725,3.10727 -1.71609,0 -3.10725,-1.39117 -3.10725,-3.10727 0,-1.71609 1.39116,-3.10726 3.10725,-3.10726 1.71609,0 3.10725,1.39117 3.10725,3.10726 z"
       sodipodi:cx="327.42804"
       sodipodi:cy="451.10641"
       sodipodi:rx="3.107254"
       sodipodi:ry="3.107269"
       transform="matrix(0.980842,0,0,0.980842,34.528,-341.7349)" />
    <path
       inkscape:connector-curvature="0"
       style="fill:#ffc84b;fill-opacity:1;fill-rule:evenodd;stroke:#d8aa3f;stroke-width:1pt;stroke-linecap:butt;stroke-linejoin:miter;stroke-opacity:1"
       d="m 346.266,456.35 c 33.727,-40.653 63.181,-35.669 101.569,-38.452 1.295,4.726 0.842,11.782 -17.478,18.061 -25.052,3.69 -69.914,30.101 -70.108,30.101 -8.352,-0.388 -14.178,-9.127 -13.983,-9.71 z"
       id="path588"
       sodipodi:nodetypes="ccccc"
       transform="matrix(1.279234,0,0,1.279234,-64.56436,-474.4866)" />
    <path
       inkscape:connector-curvature="0"
       style="fill:none;stroke:#d9a43e;stroke-width:1pt;stroke-linecap:round;stroke-linejoin:miter;stroke-opacity:1"
       d="m 415.562,429.865 24.874,1.078"
       id="path592"
       sodipodi:nodetypes="cc"
       transform="matrix(1.279234,0,0,1.279234,-64.56436,-474.4866)" />
    <path
       inkscape:connector-curvature="0"
       style="fill:none;stroke:#d9a43e;stroke-width:1pt;stroke-linecap:round;stroke-linejoin:miter;stroke-opacity:1"
       d="m 412.857,433.923 18.131,1.479"
       id="path593"
       sodipodi:nodetypes="cc"
       transform="matrix(1.279234,0,0,1.279234,-64.56436,-474.4866)" />
  </g>
</svg>
