<?xml version="1.0" encoding="UTF-8" standalone="no"?>
<!-- Created with Sodipodi ("http://www.sodipodi.com/") -->

<!--

<rdf:RDF xmlns="http://web.resource.org/cc/"
    xmlns:dc="http://purl.org/dc/elements/1.1/"
    xmlns:rdf="http://www.w3.org/1999/02/22-rdf-syntax-ns#">
<Work rdf:about="">
   <dc:title>SVG graphic of Comoros' Flag</dc:title>
   <dc:rights><Agent>
      <dc:title>Andrew Duhan</dc:title>
   </Agent></dc:rights>
   <license rdf:resource="http://web.resource.org/cc/PublicDomain" />
</Work>

<License rdf:about="http://web.resource.org/cc/PublicDomain">
   <permits rdf:resource="http://web.resource.org/cc/Reproduction" />
   <permits rdf:resource="http://web.resource.org/cc/Distribution" />
   <permits rdf:resource="http://web.resource.org/cc/DerivativeWorks" />
</License>

</rdf:RDF>

-->

<svg
   xmlns:dc="http://purl.org/dc/elements/1.1/"
   xmlns:cc="http://creativecommons.org/ns#"
   xmlns:rdf="http://www.w3.org/1999/02/22-rdf-syntax-ns#"
   xmlns:svg="http://www.w3.org/2000/svg"
   xmlns="http://www.w3.org/2000/svg"
   xmlns:sodipodi="http://sodipodi.sourceforge.net/DTD/sodipodi-0.dtd"
   xmlns:inkscape="http://www.inkscape.org/namespaces/inkscape"
   id="svg660"
   sodipodi:version="0.32"
   width="512"
   height="512"
   sodipodi:docname="km.svg"
   version="1.1"
   inkscape:version="0.48.1 r9760">
  <sodipodi:namedview
     id="base"
     showgrid="false"
     inkscape:zoom="0.98242188"
     inkscape:cx="256"
     inkscape:cy="256"
     inkscape:window-width="1280"
     inkscape:window-height="723"
     inkscape:window-x="0"
     inkscape:window-y="24"
     inkscape:window-maximized="1"
     inkscape:current-layer="svg660" />
  <metadata
     id="metadata4850">
    <rdf:RDF>
      <cc:Work
         rdf:about="">
        <dc:format>image/svg+xml</dc:format>
        <dc:type
           rdf:resource="http://purl.org/dc/dcmitype/StillImage" />
      </cc:Work>
    </rdf:RDF>
  </metadata>
  <defs
     id="defs662">
    <clipPath
       clipPathUnits="userSpaceOnUse"
       id="clipPath4980">
      <rect
         id="rect4982"
         height="416.25003"
         x="0"
         style="fill:#000000;fill-opacity:0.67000002;stroke:none"
         width="416.25003"
         y="-1.3485417e-05" />
    </clipPath>
  </defs>
  <g
     transform="matrix(1.2300299,0,0,1.2300299,0,1.6587466e-5)"
     id="flag"
     clip-path="url(#clipPath4980)"
     inkscape:label="#g4937">
    <rect
       style="font-size:12px;fill:#ffff00;fill-opacity:1;fill-rule:evenodd;stroke-width:1pt"
       id="rect665"
       width="625"
       height="104.0625"
       x="0"
       y="-1.5e-05" />
    <rect
       style="font-size:12px;fill:#ffffff;fill-opacity:1;fill-rule:evenodd;stroke-width:1pt"
       id="rect668"
       width="625"
       height="104.0625"
       x="0"
       y="104.06248" />
    <rect
       style="font-size:12px;fill:#be0027;fill-opacity:1;fill-rule:evenodd;stroke-width:1pt"
       id="rect667"
       width="625"
       height="104.0625"
       x="0"
       y="208.12498" />
    <rect
       style="font-size:12px;fill:#3b5aa3;fill-opacity:1;fill-rule:evenodd;stroke-width:1pt"
       id="rect666"
       width="625"
       height="104.0625"
       x="0"
       y="312.18753" />
    <path
       inkscape:connector-curvature="0"
       style="fill:#239e46;fill-opacity:1;fill-rule:evenodd;stroke:none"
       d="M 0,0.756187 0,416.25 310.447,209.09 0,0.756187 z"
       id="path664"
       transform="matrix(1.00001,0,0,1.00182,0,-0.757561)" />
    <path
       inkscape:connector-curvature="0"
       style="fill:#ffffff;fill-opacity:1;fill-rule:evenodd;stroke:none"
       d="M 127.811,114.982 C 58.6271,111.473 27.1082,166.581 27.1805,209.18 27.0206,259.561 74.762,301.112 118.889,298.606 95.0955,287.349 66.0404,255.794 65.7728,208.972 c -0.2436,-42.423 23.9771,-79.31 62.0382,-93.99 z"
       id="path673"
       sodipodi:nodetypes="cscsc" />
    <polygon
       d="m 126.77341,160.21338 -9.75793,-7.62986 -11.8172,3.71287 4.24106,-11.63809 -7.18286,-10.0915 12.37904,0.43712 7.37795,-9.94975 3.40961,11.90825 11.74269,3.94221 -10.27179,6.92258 z"
       inkscape:randomized="0"
       inkscape:rounded="0"
       inkscape:flatsided="false"
       sodipodi:type="star"
       style="font-size:12px;fill:#ffffff;fill-opacity:1;fill-rule:evenodd;stroke-width:1pt"
       id="polygon674"
       sodipodi:sides="5"
       sodipodi:cx="118.68148"
       sodipodi:cy="143.40707"
       sodipodi:r1="18.652912"
       sodipodi:r2="9.3264561"
       sodipodi:arg1="1.1220729"
       sodipodi:arg2="1.7503914"
       points="126.773,160.213 117.015,152.584 105.198,156.296 109.439,144.658 102.256,134.567 114.636,135.004 122.013,125.054 125.423,136.962 137.166,140.905 126.894,147.827 126.773,160.213 " />
    <polygon
       d="m 126.77341,160.21338 -9.75793,-7.62986 -11.8172,3.71287 4.24106,-11.63809 -7.18286,-10.0915 12.37904,0.43712 7.37795,-9.94975 3.40961,11.90825 11.74269,3.94221 -10.27179,6.92258 z"
       inkscape:randomized="0"
       inkscape:rounded="0"
       inkscape:flatsided="false"
       sodipodi:type="star"
       style="font-size:12px;fill:#ffffff;fill-opacity:1;fill-rule:evenodd;stroke-width:1pt"
       id="polygon675"
       sodipodi:sides="5"
       sodipodi:cx="118.68148"
       sodipodi:cy="143.40707"
       sodipodi:r1="18.652912"
       sodipodi:r2="9.3264561"
       sodipodi:arg1="1.1220729"
       sodipodi:arg2="1.7503914"
       points="126.773,160.213 117.015,152.584 105.198,156.296 109.439,144.658 102.256,134.567 114.636,135.004 122.013,125.054 125.423,136.962 137.166,140.905 126.894,147.827 126.773,160.213 "
       transform="translate(-0.207491,42.32697)" />
    <polygon
       d="m 126.77341,160.21338 -9.75793,-7.62986 -11.8172,3.71287 4.24106,-11.63809 -7.18286,-10.0915 12.37904,0.43712 7.37795,-9.94975 3.40961,11.90825 11.74269,3.94221 -10.27179,6.92258 z"
       inkscape:randomized="0"
       inkscape:rounded="0"
       inkscape:flatsided="false"
       sodipodi:type="star"
       style="font-size:12px;fill:#ffffff;fill-opacity:1;fill-rule:evenodd;stroke-width:1pt"
       id="polygon676"
       sodipodi:sides="5"
       sodipodi:cx="118.68148"
       sodipodi:cy="143.40707"
       sodipodi:r1="18.652912"
       sodipodi:r2="9.3264561"
       sodipodi:arg1="1.1220729"
       sodipodi:arg2="1.7503914"
       points="126.773,160.213 117.015,152.584 105.198,156.296 109.439,144.658 102.256,134.567 114.636,135.004 122.013,125.054 125.423,136.962 137.166,140.905 126.894,147.827 126.773,160.213 "
       transform="translate(-9.611249e-6,85.06889)" />
    <polygon
       d="m 126.77341,160.21338 -9.75793,-7.62986 -11.8172,3.71287 4.24106,-11.63809 -7.18286,-10.0915 12.37904,0.43712 7.37795,-9.94975 3.40961,11.90825 11.74269,3.94221 -10.27179,6.92258 z"
       inkscape:randomized="0"
       inkscape:rounded="0"
       inkscape:flatsided="false"
       sodipodi:type="star"
       style="font-size:12px;fill:#ffffff;fill-opacity:1;fill-rule:evenodd;stroke-width:1pt"
       id="polygon677"
       sodipodi:sides="5"
       sodipodi:cx="118.68148"
       sodipodi:cy="143.40707"
       sodipodi:r1="18.652912"
       sodipodi:r2="9.3264561"
       sodipodi:arg1="1.1220729"
       sodipodi:arg2="1.7503914"
       points="126.773,160.213 117.015,152.584 105.198,156.296 109.439,144.658 102.256,134.567 114.636,135.004 122.013,125.054 125.423,136.962 137.166,140.905 126.894,147.827 126.773,160.213 "
       transform="translate(-0.207491,128.2258)" />
  </g>
</svg>
