<?xml version="1.0" encoding="UTF-8" standalone="no"?>
<!-- Created with Sodipodi ("http://www.sodipodi.com/") -->

<svg
   xmlns:dc="http://purl.org/dc/elements/1.1/"
   xmlns:cc="http://creativecommons.org/ns#"
   xmlns:rdf="http://www.w3.org/1999/02/22-rdf-syntax-ns#"
   xmlns:svg="http://www.w3.org/2000/svg"
   xmlns="http://www.w3.org/2000/svg"
   xmlns:sodipodi="http://sodipodi.sourceforge.net/DTD/sodipodi-0.dtd"
   xmlns:inkscape="http://www.inkscape.org/namespaces/inkscape"
   version="1"
   x="0"
   y="0"
   width="512"
   height="512"
   id="svg378"
   sodipodi:version="0.32-hydra1"
   sodipodi:docname="kn.svg"
   inkscape:version="0.48.1 r9760">
  <sodipodi:namedview
     id="base"
     showgrid="false"
     inkscape:zoom="0.98242188"
     inkscape:cx="256"
     inkscape:cy="256"
     inkscape:window-width="1280"
     inkscape:window-height="723"
     inkscape:window-x="0"
     inkscape:window-y="24"
     inkscape:window-maximized="1"
     inkscape:current-layer="svg378" />
  <metadata
     id="metadata4863">
    <rdf:RDF>
      <cc:Work
         rdf:about="">
        <dc:format>image/svg+xml</dc:format>
        <dc:type
           rdf:resource="http://purl.org/dc/dcmitype/StillImage" />
      </cc:Work>
    </rdf:RDF>
  </metadata>
  <defs
     id="defs380">
    <clipPath
       clipPathUnits="userSpaceOnUse"
       id="clipPath4933">
      <rect
         id="rect4935"
         height="745.1217"
         x="151.68642"
         style="fill:#000000;fill-opacity:0.67000002;stroke:none"
         width="745.1217"
         y="-0.34719807" />
    </clipPath>
  </defs>
  <g
     transform="matrix(0.68713608,0,0,0.68713608,-104.22921,0.23857233)"
     id="flag"
     clip-path="url(#clipPath4933)"
     inkscape:label="#g4898">
    <rect
       style="font-size:12px;fill:#ffe900;fill-opacity:1;fill-rule:evenodd;stroke:none"
       id="rect628"
       width="1073.5138"
       height="744.09448"
       x="1144.326"
       y="145.84579"
       transform="translate(-1149.589,-145.8458)" />
    <path
       inkscape:connector-curvature="0"
       style="font-size:12px;fill:#35a100;fill-rule:evenodd;stroke:none"
       d="M -2.66219,-3.5704 -1.41625,532.839 833.908,-3.91769 -2.66219,-3.5704 z"
       id="path623"
       transform="translate(-3.175735,3.570496)"
       sodipodi:nodetypes="cccc" />
    <path
       inkscape:connector-curvature="0"
       style="font-size:12px;fill:#c70000;fill-opacity:1;fill-rule:evenodd;stroke:none"
       d="M 1069.54,744.094 1067.58,186.34 224.975,744.506 1069.54,744.094 z"
       id="path624"
       sodipodi:nodetypes="cccc" />
    <path
       inkscape:connector-curvature="0"
       style="font-size:12px;fill-rule:evenodd;stroke:none"
       d="m -2.12437,573.282 0.70812,167.922 182.28325,-0.24 890.303,-596.88 -1,-145.99883 L 890.056,-3.5704 -2.12437,573.282 z"
       id="path625"
       transform="translate(-3.175735,3.570496)"
       sodipodi:nodetypes="ccccccc" />
    <polygon
       points="591.041,433.161 533.774,391.476 476.501,433.151 498.449,365.806 441.115,324.214 511.946,324.278 533.785,256.897 555.613,324.281 626.445,324.23 569.104,365.812 591.041,433.161 "
       style="font-size:12px;fill:#ffffff;fill-opacity:1;fill-rule:evenodd;stroke:none"
       id="polygon136"
       transform="matrix(0.781395,-0.505656,0.467245,0.748595,153.8185,243.6948)" />
    <polygon
       points="591.041,433.161 533.774,391.476 476.501,433.151 498.449,365.806 441.115,324.214 511.946,324.278 533.785,256.897 555.613,324.281 626.445,324.23 569.104,365.812 591.041,433.161 "
       style="font-size:12px;fill:#ffffff;fill-opacity:1;fill-rule:evenodd;stroke:none"
       id="polygon638"
       transform="matrix(0.781395,-0.505656,0.467245,0.748595,-246.7561,504.0683)" />
  </g>
</svg>
