<?xml version="1.0" encoding="UTF-8" standalone="no"?>
<!-- Created with Sodipodi ("http://www.sodipodi.com/") -->

<svg
   xmlns:dc="http://purl.org/dc/elements/1.1/"
   xmlns:cc="http://creativecommons.org/ns#"
   xmlns:rdf="http://www.w3.org/1999/02/22-rdf-syntax-ns#"
   xmlns:svg="http://www.w3.org/2000/svg"
   xmlns="http://www.w3.org/2000/svg"
   xmlns:sodipodi="http://sodipodi.sourceforge.net/DTD/sodipodi-0.dtd"
   xmlns:inkscape="http://www.inkscape.org/namespaces/inkscape"
   version="1"
   x="0"
   y="0"
   width="512"
   height="512"
   id="svg378"
   sodipodi:version="0.32-hydra1"
   sodipodi:docname="kr.svg"
   inkscape:version="0.48.1 r9760">
  <sodipodi:namedview
     id="base"
     showgrid="false"
     inkscape:zoom="0.30856401"
     inkscape:cx="531.49426"
     inkscape:cy="372.04724"
     inkscape:window-width="1280"
     inkscape:window-height="723"
     inkscape:window-x="0"
     inkscape:window-y="24"
     inkscape:window-maximized="1"
     inkscape:current-layer="svg378" />
  <metadata
     id="metadata3014">
    <rdf:RDF>
      <cc:Work
         rdf:about="">
        <dc:format>image/svg+xml</dc:format>
        <dc:type
           rdf:resource="http://purl.org/dc/dcmitype/StillImage" />
      </cc:Work>
    </rdf:RDF>
  </metadata>
  <defs
     id="defs380">
    <clipPath
       id="clipPath9197"
       clipPathUnits="userSpaceOnUse">
      <rect
         y="-0.64039212"
         width="745.37531"
         style="fill:#000000;fill-opacity:0.67000002;stroke:none"
         x="174.05614"
         height="745.37531"
         id="rect9199" />
    </clipPath>
    <clipPath
       clipPathUnits="userSpaceOnUse"
       id="clipPath8018">
      <rect
         id="rect8020"
         height="512"
         x="0"
         style="fill:#000000;fill-opacity:0.67000002;stroke:none"
         width="512"
         y="0" />
    </clipPath>
  </defs>
  <g
     id="flag"
     clip-path="url(#clipPath8018)"
     inkscape:label="#g7932">
    <rect
       transform="scale(-1,-1)"
       id="rect149"
       style="font-size:12px;fill:#ffffff;fill-rule:evenodd;stroke:none"
       y="-511.56009"
       x="-610.61017"
       height="512"
       width="730.17029" />
    <path
       transform="matrix(0.68690229,0,0,0.68690229,-88.735218,-532.53928)"
       sodipodi:ry="163.79163"
       sodipodi:rx="163.79161"
       sodipodi:cy="1147.9642"
       sodipodi:cx="332.07068"
       d="m 495.86229,1147.9642 a 163.79161,163.79163 0 1 1 -327.58322,0 163.79161,163.79163 0 1 1 327.58322,0 z"
       id="path607"
       style="fill:#ffffff;fill-opacity:1;fill-rule:evenodd;stroke:none"
       sodipodi:type="arc" />
    <path
       transform="matrix(0.63783823,0,0,0.64460559,-74.971736,16.482675)"
       sodipodi:ry="227.73766"
       sodipodi:rx="227.73764"
       sodipodi:cy="381.73358"
       sodipodi:cx="505.95901"
       d="m 733.69666,381.73358 a 227.73764,227.73766 0 1 1 -455.47529,0 227.73764,227.73766 0 1 1 455.47529,0 z"
       id="path635"
       style="fill:#c70000;fill-opacity:1;fill-rule:evenodd;stroke:none"
       sodipodi:type="arc" />
    <rect
       transform="matrix(0.65400889,-0.75648686,0.75648686,0.65400889,0,0)"
       y="45.308788"
       x="-127.96757"
       height="26.20068"
       width="127.92106"
       id="rect636"
       style="font-size:12px;fill:#000000;fill-opacity:1;fill-rule:evenodd;stroke-width:1pt" />
    <rect
       transform="matrix(0.65400889,-0.75648686,0.75648686,0.65400889,0,0)"
       y="81.527458"
       x="-127.96757"
       height="26.20068"
       width="127.92106"
       id="rect637"
       style="font-size:12px;fill:#000000;fill-opacity:1;fill-rule:evenodd;stroke-width:1pt" />
    <rect
       transform="matrix(0.65400889,-0.75648686,0.75648686,0.65400889,0,0)"
       y="45.308788"
       x="-127.96757"
       height="26.20068"
       width="127.92106"
       id="rect638"
       style="font-size:12px;fill:#000000;fill-opacity:1;fill-rule:evenodd;stroke-width:1pt" />
    <rect
       transform="matrix(0.65400889,-0.75648686,0.75648686,0.65400889,0,0)"
       y="45.308788"
       x="-127.96757"
       height="26.20068"
       width="127.92106"
       id="rect639"
       style="font-size:12px;fill:#000000;fill-opacity:1;fill-rule:evenodd;stroke-width:1pt" />
    <rect
       transform="matrix(0.65400889,-0.75648686,0.75648686,0.65400889,0,0)"
       y="118.51671"
       x="-127.96757"
       height="26.20068"
       width="127.92106"
       id="rect640"
       style="font-size:12px;fill:#000000;fill-opacity:1;fill-rule:evenodd;stroke-width:1pt" />
    <rect
       transform="matrix(0.65400889,-0.75648686,0.75648686,0.65400889,0,0)"
       y="45.308788"
       x="-127.96757"
       height="26.20068"
       width="127.92106"
       id="rect641"
       style="font-size:12px;fill:#000000;fill-opacity:1;fill-rule:evenodd;stroke-width:1pt" />
    <rect
       transform="matrix(0.65400889,-0.75648686,0.75648686,0.65400889,0,0)"
       y="45.308788"
       x="-127.96757"
       height="26.20068"
       width="127.92106"
       id="rect643"
       style="font-size:12px;fill:#000000;fill-opacity:1;fill-rule:evenodd;stroke-width:1pt" />
    <rect
       transform="matrix(0.6488637,0.76090465,-0.76090465,0.6488637,0,0)"
       y="-330.33914"
       x="320.65216"
       height="26.200708"
       width="127.9212"
       id="rect644"
       style="font-size:12px;fill:#000000;fill-opacity:1;fill-rule:evenodd;stroke-width:1pt" />
    <rect
       transform="matrix(0.6488637,0.76090465,-0.76090465,0.6488637,0,0)"
       y="-257.13116"
       x="320.65216"
       height="26.200708"
       width="127.9212"
       id="rect645"
       style="font-size:12px;fill:#000000;fill-opacity:1;fill-rule:evenodd;stroke-width:1pt" />
    <path
       id="path649"
       d="m 417.55476,133.19131 78.60222,-67.813673 14.64133,16.953367 -83.99648,75.519416 -9.24707,-24.65911 z"
       style="fill:#ffffff;fill-opacity:1;fill-rule:evenodd;stroke:none"
       inkscape:connector-curvature="0" />
    <rect
       transform="matrix(-0.64281581,0.76602078,-0.76881104,-0.63947603,0,0)"
       y="-633.04565"
       x="-42.832348"
       height="25.644007"
       width="125.10479"
       id="rect646"
       style="font-size:12px;fill:#000000;fill-opacity:1;fill-rule:evenodd;stroke-width:1pt" />
    <rect
       transform="matrix(0.6488637,0.76090465,-0.76090465,0.6488637,0,0)"
       y="-294.12045"
       x="320.65216"
       height="26.200708"
       width="127.9212"
       id="rect642"
       style="font-size:12px;fill:#000000;fill-opacity:1;fill-rule:evenodd;stroke-width:1pt" />
    <rect
       transform="matrix(-0.64281581,0.76602078,-0.76881104,-0.63947603,0,0)"
       y="-668.49469"
       x="-42.832348"
       height="25.644007"
       width="125.10479"
       id="rect647"
       style="font-size:12px;fill:#000000;fill-opacity:1;fill-rule:evenodd;stroke-width:1pt" />
    <rect
       transform="matrix(-0.64281581,0.76602078,-0.76881104,-0.63947603,0,0)"
       y="-596.84222"
       x="-42.832348"
       height="25.644007"
       width="125.10479"
       id="rect648"
       style="font-size:12px;fill:#000000;fill-opacity:1;fill-rule:evenodd;stroke-width:1pt" />
    <path
       sodipodi:nodetypes="cccccccc"
       id="path653"
       d="m 104.59864,236.67864 c 4.59194,36.97389 11.29679,78.17497 68.19909,82.45506 21.32763,1.27764 62.81653,-5.07346 77.06082,-63.18952 18.68787,-55.82867 74.9747,-71.87951 113.27912,-41.61322 21.71779,14.16598 27.72681,36.66615 29.28333,53.55708 -1.73855,54.24261 -32.87377,101.20338 -72.82263,122.14153 C 273.6659,417.32913 210.04363,417.90201 154.30289,376.54431 129.176,352.96776 94.081477,309.52119 104.59864,236.67864 z"
       style="fill:#3d5897;fill-opacity:1;fill-rule:evenodd;stroke:none"
       inkscape:connector-curvature="0" />
    <path
       id="path654"
       d="m 435.91428,370.58955 78.73411,67.66056 -14.59117,16.99671 -87.15554,-71.85066 23.0126,-12.80661 z"
       style="fill:#ffffff;fill-opacity:1;fill-rule:evenodd;stroke:none"
       inkscape:connector-curvature="0" />
    <rect
       transform="matrix(0.6488637,0.76090465,-0.76090465,0.6488637,0,0)"
       y="233.20715"
       x="270.56992"
       height="26.200722"
       width="127.92126"
       id="rect658"
       style="font-size:12px;fill-rule:evenodd;stroke-width:1pt" />
    <path
       id="path657"
       d="m -16.187938,437.24702 78.602229,-67.81374 14.641322,16.95344 -83.9964727,75.51941 -9.2470783,-24.65911 z"
       style="font-size:12px;fill:#ffffff;fill-rule:evenodd;stroke-width:1pt"
       inkscape:connector-curvature="0" />
    <rect
       transform="matrix(0.6488637,0.76090465,-0.76090465,0.6488637,0,0)"
       y="196.98845"
       x="270.56992"
       height="26.200722"
       width="127.92126"
       id="rect655"
       style="font-size:12px;fill-rule:evenodd;stroke-width:1pt" />
    <rect
       transform="matrix(0.6488637,0.76090465,-0.76090465,0.6488637,0,0)"
       y="270.19647"
       x="270.56992"
       height="26.200722"
       width="127.92126"
       id="rect656"
       style="font-size:12px;fill-rule:evenodd;stroke-width:1pt" />
  </g>
</svg>
