<?xml version="1.0" encoding="UTF-8" standalone="no"?>
<!-- Created with Sodipodi ("http://www.sodipodi.com/") -->

<svg
   xmlns:dc="http://purl.org/dc/elements/1.1/"
   xmlns:cc="http://creativecommons.org/ns#"
   xmlns:rdf="http://www.w3.org/1999/02/22-rdf-syntax-ns#"
   xmlns:svg="http://www.w3.org/2000/svg"
   xmlns="http://www.w3.org/2000/svg"
   xmlns:xlink="http://www.w3.org/1999/xlink"
   xmlns:sodipodi="http://sodipodi.sourceforge.net/DTD/sodipodi-0.dtd"
   xmlns:inkscape="http://www.inkscape.org/namespaces/inkscape"
   id="svg732"
   sodipodi:version="0.32"
   width="512"
   height="512"
   sodipodi:docname="kz.svg"
   version="1.1"
   inkscape:version="0.48.1 r9760">
  <sodipodi:namedview
     id="base"
     showgrid="false"
     inkscape:zoom="0.98242188"
     inkscape:cx="256"
     inkscape:cy="256"
     inkscape:window-width="1280"
     inkscape:window-height="723"
     inkscape:window-x="0"
     inkscape:window-y="24"
     inkscape:window-maximized="1"
     inkscape:current-layer="svg732" />
  <metadata
     id="metadata3081">
    <rdf:RDF>
      <cc:Work
         rdf:about="">
        <dc:format>image/svg+xml</dc:format>
        <dc:type
           rdf:resource="http://purl.org/dc/dcmitype/StillImage" />
      </cc:Work>
    </rdf:RDF>
  </metadata>
  <defs
     id="defs734">
    <linearGradient
       id="linearGradient774">
      <stop
         id="stop775"
         offset="0"
         style="stop-color:#000;stop-opacity:1;" />
      <stop
         id="stop776"
         offset="1"
         style="stop-color:#fff;stop-opacity:1;" />
    </linearGradient>
    <linearGradient
       id="linearGradient777"
       xlink:href="#linearGradient774" />
  </defs>
  <g
     id="flag"
     inkscape:label="#g3035">
    <rect
       inkscape:label="#rect851"
       style="font-size:12px;fill:#6fdcff;fill-rule:evenodd;stroke-width:1pt"
       id="rect851"
       width="512"
       height="512"
       x="0"
       y="0" />
    <g
       id="g766"
       transform="matrix(14.637816,0,0,11.13445,-5630.7011,-2748.3393)"
       style="font-size:12px;fill:#ffe400">
      <path
         inkscape:connector-curvature="0"
         style="font-size:12px;fill:#ffe400;fill-opacity:1;fill-rule:evenodd;stroke:none"
         d="m 387.597,291.556 c 0.237,0.305 0.159,0.818 0.818,0.752 1.006,0 1.035,-0.809 1.035,-1.374 0,-0.564 -1.499,-1.353 -1.568,-2.183 -0.07,-0.831 0.346,-1.063 0.694,-1.063 0.346,0 0.589,0.266 0.589,0.498 0,0.232 -0.173,0.299 -0.416,0.299 -0.243,0 0.104,-0.166 -0.104,-0.299 -0.208,-0.133 -0.347,0.199 -0.347,0.399 0,0.199 0.52,0.265 0.867,0.116 0.07,0.448 0.104,0.482 -0.382,1.245 0.348,-0.299 0.381,-0.365 0.764,-0.199 -0.382,-0.432 -0.096,-1.312 -0.083,-1.536 0.013,-0.224 -0.073,-0.49 -0.229,-0.623 -0.278,-0.332 -0.885,-0.347 -1.249,-0.133 -0.53,0.311 -0.556,1.228 -0.417,1.528 l 1.469,1.98 c 0.104,0.233 0.14,0.88 -0.484,0.913 -0.659,0.066 -0.885,-1.115 -1.002,-1.508 -0.157,0.429 -0.332,1.613 -0.991,1.547 -0.625,-0.033 -0.745,-0.68 -0.641,-0.913 l 1.509,-2.019 c 0.138,-0.3 0.112,-1.217 -0.418,-1.528 -0.364,-0.214 -0.97,-0.199 -1.248,0.133 -0.156,0.133 -0.243,0.399 -0.23,0.623 0.013,0.224 0.299,1.104 -0.083,1.536 0.383,-0.166 0.417,-0.1 0.764,0.199 -0.486,-0.763 -0.451,-0.797 -0.382,-1.245 0.347,0.149 0.868,0.083 0.868,-0.116 0,-0.2 -0.14,-0.532 -0.348,-0.399 -0.207,0.133 0.139,0.299 -0.103,0.299 -0.244,0 -0.417,-0.067 -0.417,-0.299 0,-0.232 0.243,-0.498 0.59,-0.498 0.347,0 0.763,0.232 0.693,1.063 -0.069,0.83 -1.607,1.736 -1.607,2.3 0,0.565 0.107,1.257 1.113,1.257 0.659,0.066 0.737,-0.447 0.976,-0.752 z"
         id="path760"
         sodipodi:nodetypes="ccccccccccccccccccccccccccccccccccccc" />
      <path
         inkscape:connector-curvature="0"
         style="font-size:12px;fill:#ffe400;fill-opacity:1;fill-rule:evenodd;stroke:none"
         d="m 387.519,294.915 c 0.237,0.305 0.432,1.209 1.091,1.143 1.006,0 1.387,-0.731 1.387,-1.296 0,-0.564 -2.046,-5.181 -2.115,-6.011 -0.07,-0.831 0.346,-1.063 0.694,-1.063 0.346,0 0.589,0.266 0.589,0.498 0,0.232 -0.173,0.299 -0.416,0.299 -0.243,0 0.104,-0.166 -0.104,-0.299 -0.208,-0.133 -0.347,0.199 -0.347,0.399 0,0.199 0.52,0.265 0.867,0.116 0.07,0.448 0.104,0.482 -0.382,1.245 0.348,-0.299 0.381,-0.365 0.764,-0.199 -0.382,-0.432 -0.096,-1.312 -0.083,-1.536 0.013,-0.224 -0.073,-0.49 -0.229,-0.623 -0.278,-0.332 -0.885,-0.347 -1.249,-0.133 -0.53,0.311 -0.556,1.228 -0.417,1.528 l 1.977,5.613 c 0.104,0.233 -0.173,0.997 -0.797,1.03 -0.659,0.066 -0.885,-0.842 -1.002,-1.235 l 0.898,0.086 c 0,0 0.035,-0.182 0,-0.3 -0.464,-0.04 -0.898,-0.151 -0.898,-0.151 l -0.034,-0.598 0.443,0 -0.035,-0.265 c 0,0 -0.374,0.033 -0.408,0 -0.035,-0.033 -0.07,-0.599 -0.07,-0.599 0,0 -0.069,-0.033 -0.144,-0.033 -0.076,0 -0.145,0.033 -0.145,0.033 0,0 -0.035,0.566 -0.069,0.599 -0.035,0.033 -0.409,0 -0.409,0 l -0.034,0.265 0.443,0 -0.035,0.598 c 0,0 -0.434,0.111 -0.898,0.151 -0.034,0.118 0,0.3 0,0.3 l 0.898,-0.086 c -0.117,0.393 -0.343,1.301 -1.001,1.235 -0.625,-0.033 -0.902,-0.797 -0.798,-1.03 l 1.978,-5.613 c 0.138,-0.3 0.112,-1.217 -0.418,-1.528 -0.364,-0.214 -0.97,-0.199 -1.248,0.133 -0.156,0.133 -0.243,0.399 -0.23,0.623 0.013,0.224 0.299,1.104 -0.083,1.536 0.383,-0.166 0.417,-0.1 0.764,0.199 -0.486,-0.763 -0.451,-0.797 -0.382,-1.245 0.347,0.149 0.868,0.083 0.868,-0.116 0,-0.2 -0.14,-0.532 -0.348,-0.399 -0.207,0.133 0.139,0.299 -0.103,0.299 -0.244,0 -0.417,-0.067 -0.417,-0.299 0,-0.232 0.243,-0.498 0.59,-0.498 0.347,0 0.763,0.232 0.693,1.063 -0.069,0.83 -2.115,5.447 -2.115,6.011 0,0.565 0.381,1.296 1.387,1.296 0.659,0.066 0.893,-0.838 1.132,-1.143 z"
         id="path761"
         sodipodi:nodetypes="ccccccccccccccccccccccccccccccccccccccccccccccccccccccc"
         transform="matrix(1,0,0,-1,9.536743e-6,574.626)" />
      <path
         inkscape:connector-curvature="0"
         style="font-size:12px;fill:#ffe400;fill-opacity:1;fill-rule:evenodd;stroke:none"
         d="m 387.519,294.915 c 0.237,0.305 0.432,1.209 1.091,1.143 1.006,0 1.387,-0.731 1.387,-1.296 0,-0.564 -2.046,-5.181 -2.115,-6.011 -0.07,-0.831 0.346,-1.063 0.694,-1.063 0.346,0 0.589,0.266 0.589,0.498 0,0.232 -0.173,0.299 -0.416,0.299 -0.243,0 0.104,-0.166 -0.104,-0.299 -0.208,-0.133 -0.347,0.199 -0.347,0.399 0,0.199 0.52,0.265 0.867,0.116 0.07,0.448 0.104,0.482 -0.382,1.245 0.348,-0.299 0.381,-0.365 0.764,-0.199 -0.382,-0.432 -0.096,-1.312 -0.083,-1.536 0.013,-0.224 -0.073,-0.49 -0.229,-0.623 -0.278,-0.332 -0.885,-0.347 -1.249,-0.133 -0.53,0.311 -0.556,1.228 -0.417,1.528 l 1.977,5.613 c 0.104,0.233 -0.173,0.997 -0.797,1.03 -0.659,0.066 -0.885,-0.842 -1.002,-1.235 l 0.898,0.086 c 0,0 0.035,-0.182 0,-0.3 -0.464,-0.04 -0.898,-0.151 -0.898,-0.151 l -0.034,-0.598 0.443,0 -0.035,-0.265 c 0,0 -0.374,0.033 -0.408,0 -0.035,-0.033 -0.07,-0.599 -0.07,-0.599 0,0 -0.069,-0.033 -0.144,-0.033 -0.076,0 -0.145,0.033 -0.145,0.033 0,0 -0.035,0.566 -0.069,0.599 -0.035,0.033 -0.409,0 -0.409,0 l -0.034,0.265 0.443,0 -0.035,0.598 c 0,0 -0.434,0.111 -0.898,0.151 -0.034,0.118 0,0.3 0,0.3 l 0.898,-0.086 c -0.117,0.393 -0.343,1.301 -1.001,1.235 -0.625,-0.033 -0.902,-0.797 -0.798,-1.03 l 1.978,-5.613 c 0.138,-0.3 0.112,-1.217 -0.418,-1.528 -0.364,-0.214 -0.97,-0.199 -1.248,0.133 -0.156,0.133 -0.243,0.399 -0.23,0.623 0.013,0.224 0.299,1.104 -0.083,1.536 0.383,-0.166 0.417,-0.1 0.764,0.199 -0.486,-0.763 -0.451,-0.797 -0.382,-1.245 0.347,0.149 0.868,0.083 0.868,-0.116 0,-0.2 -0.14,-0.532 -0.348,-0.399 -0.207,0.133 0.139,0.299 -0.103,0.299 -0.244,0 -0.417,-0.067 -0.417,-0.299 0,-0.232 0.243,-0.498 0.59,-0.498 0.347,0 0.763,0.232 0.693,1.063 -0.069,0.83 -2.115,5.447 -2.115,6.011 0,0.565 0.381,1.296 1.387,1.296 0.659,0.066 0.893,-0.838 1.132,-1.143 z"
         id="path762"
         sodipodi:nodetypes="ccccccccccccccccccccccccccccccccccccccccccccccccccccccc"
         transform="translate(0,-17.49845)" />
      <path
         inkscape:connector-curvature="0"
         style="font-size:12px;fill:#ffe400;fill-opacity:1;fill-rule:evenodd;stroke:none"
         d="m 387.519,294.915 c 0.237,0.305 0.432,1.209 1.091,1.143 1.006,0 1.387,-0.731 1.387,-1.296 0,-0.564 -2.046,-5.181 -2.115,-6.011 -0.07,-0.831 0.346,-1.063 0.694,-1.063 0.346,0 0.589,0.266 0.589,0.498 0,0.232 -0.173,0.299 -0.416,0.299 -0.243,0 0.104,-0.166 -0.104,-0.299 -0.208,-0.133 -0.347,0.199 -0.347,0.399 0,0.199 0.52,0.265 0.867,0.116 0.07,0.448 0.104,0.482 -0.382,1.245 0.348,-0.299 0.381,-0.365 0.764,-0.199 -0.382,-0.432 -0.096,-1.312 -0.083,-1.536 0.013,-0.224 -0.073,-0.49 -0.229,-0.623 -0.278,-0.332 -0.885,-0.347 -1.249,-0.133 -0.53,0.311 -0.556,1.228 -0.417,1.528 l 1.977,5.613 c 0.104,0.233 -0.173,0.997 -0.797,1.03 -0.659,0.066 -0.885,-0.842 -1.002,-1.235 l 0.898,0.086 c 0,0 0.035,-0.182 0,-0.3 -0.464,-0.04 -0.898,-0.151 -0.898,-0.151 l -0.034,-0.598 0.443,0 -0.035,-0.265 c 0,0 -0.374,0.033 -0.408,0 -0.035,-0.033 -0.07,-0.599 -0.07,-0.599 0,0 -0.069,-0.033 -0.144,-0.033 -0.076,0 -0.145,0.033 -0.145,0.033 0,0 -0.035,0.566 -0.069,0.599 -0.035,0.033 -0.409,0 -0.409,0 l -0.034,0.265 0.443,0 -0.035,0.598 c 0,0 -0.434,0.111 -0.898,0.151 -0.034,0.118 0,0.3 0,0.3 l 0.898,-0.086 c -0.117,0.393 -0.343,1.301 -1.001,1.235 -0.625,-0.033 -0.902,-0.797 -0.798,-1.03 l 1.978,-5.613 c 0.138,-0.3 0.112,-1.217 -0.418,-1.528 -0.364,-0.214 -0.97,-0.199 -1.248,0.133 -0.156,0.133 -0.243,0.399 -0.23,0.623 0.013,0.224 0.299,1.104 -0.083,1.536 0.383,-0.166 0.417,-0.1 0.764,0.199 -0.486,-0.763 -0.451,-0.797 -0.382,-1.245 0.347,0.149 0.868,0.083 0.868,-0.116 0,-0.2 -0.14,-0.532 -0.348,-0.399 -0.207,0.133 0.139,0.299 -0.103,0.299 -0.244,0 -0.417,-0.067 -0.417,-0.299 0,-0.232 0.243,-0.498 0.59,-0.498 0.347,0 0.763,0.232 0.693,1.063 -0.069,0.83 -2.115,5.447 -2.115,6.011 0,0.565 0.381,1.296 1.387,1.296 0.659,0.066 0.893,-0.838 1.132,-1.143 z"
         id="path763"
         sodipodi:nodetypes="ccccccccccccccccccccccccccccccccccccccccccccccccccccccc"
         transform="matrix(1,0,0,-1,9.536743e-6,557.126)" />
      <path
         inkscape:connector-curvature="0"
         style="font-size:12px;fill:#ffe400;fill-opacity:1;fill-rule:evenodd;stroke:none"
         d="m 387.519,294.915 c 0.237,0.305 0.432,1.209 1.091,1.143 1.006,0 1.387,-0.731 1.387,-1.296 0,-0.564 -2.046,-5.181 -2.115,-6.011 -0.07,-0.831 0.346,-1.063 0.694,-1.063 0.346,0 0.589,0.266 0.589,0.498 0,0.232 -0.173,0.299 -0.416,0.299 -0.243,0 0.104,-0.166 -0.104,-0.299 -0.208,-0.133 -0.347,0.199 -0.347,0.399 0,0.199 0.52,0.265 0.867,0.116 0.07,0.448 0.104,0.482 -0.382,1.245 0.348,-0.299 0.381,-0.365 0.764,-0.199 -0.382,-0.432 -0.096,-1.312 -0.083,-1.536 0.013,-0.224 -0.073,-0.49 -0.229,-0.623 -0.278,-0.332 -0.885,-0.347 -1.249,-0.133 -0.53,0.311 -0.556,1.228 -0.417,1.528 l 1.977,5.613 c 0.104,0.233 -0.173,0.997 -0.797,1.03 -0.659,0.066 -0.885,-0.842 -1.002,-1.235 l 0.898,0.086 c 0,0 0.035,-0.182 0,-0.3 -0.464,-0.04 -0.898,-0.151 -0.898,-0.151 l -0.034,-0.598 0.443,0 -0.035,-0.265 c 0,0 -0.374,0.033 -0.408,0 -0.035,-0.033 -0.07,-0.599 -0.07,-0.599 0,0 -0.069,-0.033 -0.144,-0.033 -0.076,0 -0.145,0.033 -0.145,0.033 0,0 -0.035,0.566 -0.069,0.599 -0.035,0.033 -0.409,0 -0.409,0 l -0.034,0.265 0.443,0 -0.035,0.598 c 0,0 -0.434,0.111 -0.898,0.151 -0.034,0.118 0,0.3 0,0.3 l 0.898,-0.086 c -0.117,0.393 -0.343,1.301 -1.001,1.235 -0.625,-0.033 -0.902,-0.797 -0.798,-1.03 l 1.978,-5.613 c 0.138,-0.3 0.112,-1.217 -0.418,-1.528 -0.364,-0.214 -0.97,-0.199 -1.248,0.133 -0.156,0.133 -0.243,0.399 -0.23,0.623 0.013,0.224 0.299,1.104 -0.083,1.536 0.383,-0.166 0.417,-0.1 0.764,0.199 -0.486,-0.763 -0.451,-0.797 -0.382,-1.245 0.347,0.149 0.868,0.083 0.868,-0.116 0,-0.2 -0.14,-0.532 -0.348,-0.399 -0.207,0.133 0.139,0.299 -0.103,0.299 -0.244,0 -0.417,-0.067 -0.417,-0.299 0,-0.232 0.243,-0.498 0.59,-0.498 0.347,0 0.763,0.232 0.693,1.063 -0.069,0.83 -2.115,5.447 -2.115,6.011 0,0.565 0.381,1.296 1.387,1.296 0.659,0.066 0.893,-0.838 1.132,-1.143 z"
         id="path764"
         sodipodi:nodetypes="ccccccccccccccccccccccccccccccccccccccccccccccccccccccc"
         transform="translate(0,-34.99849)" />
      <path
         inkscape:connector-curvature="0"
         style="font-size:12px;fill:#ffe400;fill-opacity:1;fill-rule:evenodd;stroke:none"
         d="m 387.597,291.556 c 0.237,0.305 0.159,0.818 0.818,0.752 1.006,0 1.035,-0.809 1.035,-1.374 0,-0.564 -1.499,-1.353 -1.568,-2.183 -0.07,-0.831 0.346,-1.063 0.694,-1.063 0.346,0 0.589,0.266 0.589,0.498 0,0.232 -0.173,0.299 -0.416,0.299 -0.243,0 0.104,-0.166 -0.104,-0.299 -0.208,-0.133 -0.347,0.199 -0.347,0.399 0,0.199 0.52,0.265 0.867,0.116 0.07,0.448 0.104,0.482 -0.382,1.245 0.348,-0.299 0.381,-0.365 0.764,-0.199 -0.382,-0.432 -0.096,-1.312 -0.083,-1.536 0.013,-0.224 -0.073,-0.49 -0.229,-0.623 -0.278,-0.332 -0.885,-0.347 -1.249,-0.133 -0.53,0.311 -0.556,1.228 -0.417,1.528 l 1.469,1.98 c 0.104,0.233 0.14,0.88 -0.484,0.913 -0.659,0.066 -0.885,-1.115 -1.002,-1.508 -0.157,0.429 -0.332,1.613 -0.991,1.547 -0.625,-0.033 -0.745,-0.68 -0.641,-0.913 l 1.509,-2.019 c 0.138,-0.3 0.112,-1.217 -0.418,-1.528 -0.364,-0.214 -0.97,-0.199 -1.248,0.133 -0.156,0.133 -0.243,0.399 -0.23,0.623 0.013,0.224 0.299,1.104 -0.083,1.536 0.383,-0.166 0.417,-0.1 0.764,0.199 -0.486,-0.763 -0.451,-0.797 -0.382,-1.245 0.347,0.149 0.868,0.083 0.868,-0.116 0,-0.2 -0.14,-0.532 -0.348,-0.399 -0.207,0.133 0.139,0.299 -0.103,0.299 -0.244,0 -0.417,-0.067 -0.417,-0.299 0,-0.232 0.243,-0.498 0.59,-0.498 0.347,0 0.763,0.232 0.693,1.063 -0.069,0.83 -1.607,1.736 -1.607,2.3 0,0.565 0.107,1.257 1.113,1.257 0.659,0.066 0.737,-0.447 0.976,-0.752 z"
         id="path765"
         sodipodi:nodetypes="ccccccccccccccccccccccccccccccccccccc"
         transform="matrix(1,0,0,-1,-2.861023e-5,539.626)" />
    </g>
    <g
       transform="translate(-220,40)"
       id="g9043">
      <rect
         rx="85.120003"
         ry="80.648308"
         y="104.44608"
         x="425.90448"
         height="161.29662"
         width="170.24001"
         id="rect773"
         style="font-size:12px;fill:#ffe400;fill-rule:evenodd;stroke-width:1pt" />
      <path
         sodipodi:nodetypes="cccc"
         id="path778"
         d="m 506.9413,56.355199 c -0.70816,-0.0066 -4.53388,26.841628 -6.01327,32.875619 -1.32499,13.429632 18.07027,12.940192 14.8966,-0.531561 L 506.9413,56.355199 z"
         style="font-size:12px;fill:#ffe400;fill-rule:evenodd;stroke-width:0.25"
         inkscape:connector-curvature="0" />
      <path
         sodipodi:nodetypes="cccc"
         id="path779"
         d="m 513.77231,316.21271 c 0.70597,0.0532 6.49021,-26.47853 8.40828,-32.40062 2.30608,-13.31004 -17.07823,-14.09786 -14.8996,-0.44983 l 6.49132,32.85045 z"
         style="font-size:12px;fill:#ffe400;fill-rule:evenodd;stroke-width:0.25"
         inkscape:connector-curvature="0" />
      <path
         sodipodi:nodetypes="cccc"
         id="path780"
         d="m 378.16855,184.60941 c -0.0596,0.66861 27.91509,6.27675 34.15623,8.12257 14.03676,2.24903 14.96165,-16.11292 0.54655,-14.11452 l -34.70278,5.99195 z"
         style="font-size:12px;fill:#ffe400;fill-rule:evenodd;stroke-width:0.25"
         inkscape:connector-curvature="0" />
      <path
         sodipodi:nodetypes="cccc"
         id="path781"
         d="m 649.88958,187.79916 c 0.0299,-0.67033 -28.16627,-5.27429 -34.48316,-6.8957 -14.1229,-1.74552 -14.23395,16.63802 0.0789,14.12524 l 34.40427,-7.22954 z"
         style="font-size:12px;fill:#ffe400;fill-rule:evenodd;stroke-width:0.25"
         inkscape:connector-curvature="0" />
      <path
         sodipodi:nodetypes="cccc"
         id="path782"
         d="m 406.78768,99.640944 c -0.482,0.491606 17.89282,21.249176 21.60527,26.348346 9.58753,9.97069 22.26494,-3.94533 9.61548,-10.79304 L 406.78768,99.640944 z"
         style="font-size:12px;fill:#ffe400;fill-rule:evenodd;stroke-width:0.25"
         inkscape:connector-curvature="0" />
      <path
         sodipodi:nodetypes="cccc"
         id="path783"
         d="m 617.95062,270.63822 c 0.43514,-0.52939 -19.77192,-19.69753 -23.93749,-24.47216 -10.46476,-9.14461 -21.81949,5.76144 -8.59045,11.54306 l 32.52794,12.9291 z"
         style="font-size:12px;fill:#ffe400;fill-rule:evenodd;stroke-width:0.25"
         inkscape:connector-curvature="0" />
      <path
         sodipodi:nodetypes="cccc"
         id="path784"
         d="m 448.97238,70.618925 c -0.64369,0.279812 7.96577,26.114431 9.34013,32.170675 4.83907,12.68503 22.16662,4.41442 13.23851,-6.493088 L 448.97238,70.618925 z"
         style="font-size:12px;fill:#ffe400;fill-rule:evenodd;stroke-width:0.25"
         inkscape:connector-curvature="0" />
      <path
         sodipodi:nodetypes="cccc"
         id="path785"
         d="m 571.98298,302.96471 c 0.66263,-0.23678 -6.03254,-26.57549 -6.95971,-32.70754 -3.89766,-12.97279 -21.78955,-5.8622 -13.68245,5.6064 l 20.64216,27.10114 z"
         style="font-size:12px;fill:#ffe400;fill-rule:evenodd;stroke-width:0.25"
         inkscape:connector-curvature="0" />
      <path
         sodipodi:nodetypes="cccc"
         id="path786"
         d="m 602.16067,88.602224 c -0.51107,-0.4645 -22.71136,16.609996 -28.15208,20.045206 -10.67589,8.92285 3.80661,21.1558 11.23588,9.28219 l 16.9162,-29.327396 z"
         style="font-size:12px;fill:#ffe400;fill-rule:evenodd;stroke-width:0.25"
         inkscape:connector-curvature="0" />
      <path
         sodipodi:nodetypes="cccc"
         id="path787"
         d="m 419.2389,282.32942 c 0.4758,0.49701 23.87393,-15.07562 29.5533,-18.14458 11.30409,-8.19889 -2.24686,-21.35518 -10.52844,-9.99903 l -19.02486,28.14361 z"
         style="font-size:12px;fill:#ffe400;fill-rule:evenodd;stroke-width:0.25"
         inkscape:connector-curvature="0" />
      <path
         sodipodi:nodetypes="cccc"
         id="path788"
         d="m 384.15261,138.15676 c -0.29083,0.6118 24.12353,14.71457 29.36167,18.42169 12.44861,6.54351 19.76537,-10.48208 5.46923,-13.13908 l -34.8309,-5.28261 z"
         style="font-size:12px;fill:#ffe400;fill-rule:evenodd;stroke-width:0.25"
         inkscape:connector-curvature="0" />
      <path
         sodipodi:nodetypes="cccc"
         id="path789"
         d="m 638.06921,236.59775 c 0.33497,-0.59119 -22.98684,-16.26624 -27.94063,-20.30906 -11.93897,-7.34676 -20.48593,9.15635 -6.41902,12.74753 l 34.35965,7.56153 z"
         style="font-size:12px;fill:#ffe400;fill-rule:evenodd;stroke-width:0.25"
         inkscape:connector-curvature="0" />
      <path
         sodipodi:nodetypes="cccc"
         id="path790"
         d="m 557.37096,63.718967 c -0.65664,-0.251324 -14.57143,23.416285 -18.27545,28.520955 -6.41229,12.042438 11.83074,18.301068 14.07165,4.662085 l 4.2038,-33.18304 z"
         style="font-size:12px;fill:#ffe400;fill-rule:evenodd;stroke-width:0.25"
         inkscape:connector-curvature="0" />
      <path
         sodipodi:nodetypes="cccc"
         id="path791"
         d="m 463.5184,307.97437 c 0.63664,0.29392 16.2525,-22.40105 20.32171,-27.24969 7.27943,-11.59148 -10.46085,-19.03529 -13.69599,-5.57667 l -6.62572,32.82636 z"
         style="font-size:12px;fill:#ffe400;fill-rule:evenodd;stroke-width:0.25"
         inkscape:connector-curvature="0" />
      <path
         sodipodi:nodetypes="cccc"
         id="path792"
         d="m 386.04004,238.67606 c 0.25665,0.62539 27.98622,-5.98565 34.44851,-6.92643 13.65175,-3.82467 5.96529,-20.70341 -6.05612,-12.90595 l -28.39239,19.83238 z"
         style="font-size:12px;fill:#ffe400;fill-rule:evenodd;stroke-width:0.25"
         inkscape:connector-curvature="0" />
      <path
         sodipodi:nodetypes="cccc"
         id="path793"
         d="m 638.13186,136.10902 c -0.21019,-0.64076 -28.35737,4.1299 -34.87302,4.64323 -13.8991,2.91724 -7.46827,20.26096 5.09561,13.27325 l 29.77741,-17.91648 z"
         style="font-size:12px;fill:#ffe400;fill-rule:evenodd;stroke-width:0.25"
         inkscape:connector-curvature="0" />
      <path
         sodipodi:nodetypes="cccc"
         id="path794"
         d="m 534.62059,58.118814 c -0.69228,-0.141454 -10.1396,25.428972 -12.86976,31.057699 -4.14898,12.902637 14.95378,16.119487 14.70498,2.318253 l -1.83522,-33.375952 z"
         style="font-size:12px;fill:#ffe400;fill-rule:evenodd;stroke-width:0.25"
         inkscape:connector-curvature="0" />
      <path
         sodipodi:nodetypes="cccc"
         id="path795"
         d="m 486.14531,313.96706 c 0.68024,0.18666 11.97889,-24.70046 15.115,-30.13597 5.08463,-12.59851 -13.73624,-17.06445 -14.49958,-3.28016 l -0.61542,33.41613 z"
         style="font-size:12px;fill:#ffe400;fill-rule:evenodd;stroke-width:0.25"
         inkscape:connector-curvature="0" />
      <path
         sodipodi:nodetypes="cccc"
         id="path796"
         d="m 476.38451,60.638513 c -0.69178,0.14362 1.91791,27.12237 1.90054,33.316999 1.87912,13.370148 20.66738,8.782648 14.39365,-3.675148 L 476.38451,60.638513 z"
         style="font-size:12px;fill:#ffe400;fill-rule:evenodd;stroke-width:0.25"
         inkscape:connector-curvature="0" />
      <path
         sodipodi:nodetypes="cccc"
         id="path797"
         d="m 544.39179,312.46319 c 0.70064,-0.0978 0.0746,-27.1831 0.54592,-33.36164 -0.89466,-13.46152 -19.97381,-10.12124 -14.62827,2.71927 l 14.08235,30.64237 z"
         style="font-size:12px;fill:#ffe400;fill-rule:evenodd;stroke-width:0.25"
         inkscape:connector-curvature="0" />
      <path
         sodipodi:nodetypes="cccc"
         id="path798"
         d="m 428.15797,83.092451 c -0.58051,0.38433 12.76474,24.344569 15.25966,30.070469 7.15454,11.66108 22.64246,0.58881 11.80014,-8.63079 l -27.0598,-21.439679 z"
         style="font-size:12px;fill:#ffe400;fill-rule:evenodd;stroke-width:0.25"
         inkscape:connector-curvature="0" />
      <path
         sodipodi:nodetypes="cccc"
         id="path799"
         d="m 593.02423,290.86157 c 0.60728,-0.34521 -10.94965,-25.12564 -13.01888,-31.00187 -6.2826,-12.10365 -22.54465,-2.07713 -12.40423,7.83357 l 25.42311,23.1683 z"
         style="font-size:12px;fill:#ffe400;fill-rule:evenodd;stroke-width:0.25"
         inkscape:connector-curvature="0" />
      <path
         sodipodi:nodetypes="cccc"
         id="path800"
         d="m 392.99845,116.64196 c -0.3965,0.55598 21.12815,18.39016 25.62389,22.88792 11.09147,8.45556 21.36003,-7.14167 7.74979,-12.06537 l -33.37368,-10.82255 z"
         style="font-size:12px;fill:#ffe400;fill-rule:evenodd;stroke-width:0.25"
         inkscape:connector-curvature="0" />
      <path
         sodipodi:nodetypes="cccc"
         id="path801"
         d="m 627.1855,256.25557 c 0.43629,-0.52854 -19.72928,-19.73586 -23.88451,-24.51856 -10.44496,-9.1649 -21.83189,5.71907 -8.61538,11.52635 l 32.49989,12.99221 z"
         style="font-size:12px;fill:#ffe400;fill-rule:evenodd;stroke-width:0.25"
         inkscape:connector-curvature="0" />
      <path
         sodipodi:nodetypes="cccc"
         id="path802"
         d="m 377.56841,158.5297 c -0.18146,0.64859 26.33625,10.78373 32.14312,13.63045 13.40949,4.52915 17.69291,-13.40011 3.13071,-13.80903 l -35.27383,0.17858 z"
         style="font-size:12px;fill:#ffe400;fill-rule:evenodd;stroke-width:0.25"
         inkscape:connector-curvature="0" />
      <path
         sodipodi:nodetypes="cccc"
         id="path803"
         d="m 645.04434,216.35313 c 0.22855,-0.63509 -25.48232,-12.49045 -31.06653,-15.71235 -13.04517,-5.40048 -18.63232,12.20369 -4.13524,13.56972 l 35.20177,2.14263 z"
         style="font-size:12px;fill:#ffe400;fill-rule:evenodd;stroke-width:0.25"
         inkscape:connector-curvature="0" />
      <path
         sodipodi:nodetypes="cccc"
         id="path804"
         d="m 376.69858,209.95973 c 0.0982,0.66451 28.68908,0.26212 35.20672,0.75221 14.21387,-0.75282 10.82284,-18.85272 -2.76694,-13.87858 l -32.43978,13.12637 z"
         style="font-size:12px;fill:#ffe400;fill-rule:evenodd;stroke-width:0.25"
         inkscape:connector-curvature="0" />
      <path
         sodipodi:nodetypes="cccc"
         id="path805"
         d="m 646.90998,164.97065 c -0.0493,-0.66936 -28.60064,-2.14904 -35.06662,-3.06678 -14.23474,-0.18418 -12.17848,18.09515 1.74307,14.02714 l 33.32355,-10.96036 z"
         style="font-size:12px;fill:#ffe400;fill-rule:evenodd;stroke-width:0.25"
         inkscape:connector-curvature="0" />
      <path
         sodipodi:nodetypes="cccc"
         id="path806"
         d="m 401.17797,263.43394 c 0.39482,0.55705 25.9264,-11.64121 32.01496,-13.89861 12.43804,-6.56155 1.04068,-21.43836 -8.88925,-11.33815 l -23.12571,25.23676 z"
         style="font-size:12px;fill:#ffe400;fill-rule:evenodd;stroke-width:0.25"
         inkscape:connector-curvature="0" />
      <path
         sodipodi:nodetypes="cccc"
         id="path807"
         d="m 623.48282,111.10194 c -0.35304,-0.58167 -26.71701,9.90733 -32.95632,11.75869 -12.88892,5.72736 -2.60943,21.31813 8.03679,11.89563 l 24.91953,-23.65432 z"
         style="font-size:12px;fill:#ffe400;fill-rule:evenodd;stroke-width:0.25"
         inkscape:connector-curvature="0" />
      <path
         sodipodi:nodetypes="cccc"
         id="path808"
         d="m 442.83177,298.77236 c 0.59659,0.36157 18.87238,-20.47432 23.50498,-24.84565 8.64265,-10.71809 -8.07244,-20.05188 -12.92524,-7.03691 l -10.57974,31.88256 z"
         style="font-size:12px;fill:#ffe400;fill-rule:evenodd;stroke-width:0.25"
         inkscape:connector-curvature="0" />
      <path
         sodipodi:nodetypes="cccc"
         id="path809"
         d="m 582.53951,75.063161 c -0.56865,-0.399945 -20.32743,19.183225 -25.26923,23.239199 -9.40734,10.12359 6.58331,20.5346 12.37829,7.87033 l 12.89094,-31.109529 z"
         style="font-size:12px;fill:#ffe400;fill-rule:evenodd;stroke-width:0.25"
         inkscape:connector-curvature="0" />
      <g
         style="font-size:12px;fill:#ffe400"
         transform="matrix(2.1823844,0,0,2.0629027,-405.00996,-272.55544)"
         id="g852">
        <path
           transform="translate(10.60661,88.38854)"
           sodipodi:nodetypes="ccccccccccccccccccccccc"
           id="path844"
           d="m 349.532,159.5 c 0.625,2.5 0.781,16.562 14.844,30 14.062,13.437 37.969,16.406 37.969,16.406 0,0 0.156,1.875 -1.563,2.031 -1.719,0.157 -9.844,-1.562 -13.906,-2.812 -4.063,-1.25 -7.656,-3.438 -8.125,-3.281 -0.469,0.156 -1.25,1.562 -2.5,1.406 -1.25,-0.156 -7.031,-6.25 -9.531,-7.813 -2.5,-1.562 -10.938,-10.781 -13.75,-15.312 -2.813,-4.531 -3.438,-7.5 -4.375,-7.5 -0.938,0 -4.219,2.187 -4.219,2.187 0,0 -2.969,-4.531 -5.625,-11.719 -2.656,-7.187 -2.344,-11.406 -1.719,-11.718 0.625,-0.313 0.625,5.312 2.656,10.468 2.032,5.157 4.844,6.719 4.844,6.719 0,0 -1.875,-2.656 -3.281,-9.375 -1.406,-6.719 -1.875,-13.125 -0.938,-15.156 0.938,-2.031 1.875,-2.656 2.032,-2.5 0.156,0.156 -1.719,3.125 -0.469,10.781 1.25,7.656 4.844,14.219 5.625,13.906 0.781,-0.312 -0.469,-1.875 -1.094,-6.406 -0.625,-4.531 0.625,-7.344 1.719,-7.656 0.469,-0.469 1.25,5 1.406,7.344 z"
           style="fill:#ffe400;fill-opacity:1;fill-rule:evenodd;stroke:none"
           inkscape:connector-curvature="0" />
        <path
           transform="translate(11.23161,85.88854)"
           sodipodi:nodetypes="cccccccccccccccccccccccccccccccc"
           id="path845"
           d="m 339.063,174.812 c -2.656,-2.5 -6.875,-11.25 -7.812,-10.781 -0.938,0.469 6.875,12.969 7.031,14.063 0.156,1.093 1.875,4.531 0.625,4.062 -1.25,-0.469 -10.625,-10.312 -9.531,-8.437 1.094,1.875 8.125,10.468 7.656,10.937 -0.469,0.469 -5.781,-4.688 -5.937,-4.062 -0.157,0.625 5.312,5.781 5.156,6.406 -0.156,0.625 -3.438,-3.281 -3.438,-2.5 0,0.781 3.438,4.687 3.438,5.312 0,0.625 -2.969,-2.812 -2.031,-0.937 0.937,1.875 3.593,3.594 3.437,4.219 -0.156,0.625 -2.187,-0.782 -2.187,-0.469 0,0.312 3.906,1.719 4.843,2.812 0.938,1.094 7.344,8.438 12.188,12.188 4.844,3.75 18.594,10.156 19.531,10.156 0.938,0 2.344,-2.031 2.031,-2.812 -0.312,-0.782 -13.75,-5.313 -17.5,-8.75 -3.75,-3.438 -12.968,-11.563 -13.75,-12.032 -0.781,-0.468 -2.812,-0.312 -2.812,-0.781 0,-0.469 2.656,0.313 2.5,0 -0.156,-0.312 -3.75,-1.875 -3.594,-2.187 0.156,-0.313 2.5,0.625 2.5,0.312 0,-0.312 -4.219,-2.656 -4.062,-3.125 0.156,-0.469 3.125,1.406 3.125,1.094 0,-0.313 -4.063,-3.125 -3.907,-3.594 0.157,-0.469 3.125,2.188 2.969,1.563 -0.156,-0.625 -2.344,-3.907 -2.344,-4.375 0,-0.469 3.594,3.437 3.907,2.656 0.312,-0.781 -1.25,-7.188 -1.094,-7.344 0.156,-0.156 2.645,1.422 3.114,0.484 0.468,-0.937 -1.837,-2.241 -4.052,-4.078 z"
           style="fill:#ffe400;fill-opacity:1;fill-rule:evenodd;stroke:none"
           inkscape:connector-curvature="0" />
        <path
           transform="matrix(0.76398,0,0,0.758753,102.1268,140.9539)"
           sodipodi:nodetypes="ccscscc"
           id="path846"
           d="m 385.178,222.668 c -2.478,0.327 -3.595,-0.519 -2.188,-2.55 1.948,-0.146 7.132,-1.817 8.964,-2.584 1.832,-0.767 3.788,-1.866 5.416,-3.339 1.622,-1.609 2.49,1.031 1.678,2.397 -0.674,0.962 -3.715,2.694 -5.95,3.61 -3.244,1.087 -6.033,2.593 -7.92,2.466 z"
           style="fill:#ffe400;fill-opacity:1;fill-rule:evenodd;stroke:none"
           inkscape:connector-curvature="0" />
        <path
           transform="translate(10.60661,88.38854)"
           sodipodi:nodetypes="ccccccccccccccccccccccccccccccccccccccccccccccccccccccccccc"
           id="path847"
           d="m 398.282,216.375 c -1.25,-1.407 -0.156,-2.344 1.719,-3.438 2.812,-1.562 2.032,-3.593 5.625,-5.312 1.563,-0.938 23.906,-10 31.25,-14.844 7.344,-4.844 27.813,-20.313 33.281,-30.938 5.469,-10.625 2.813,-11.406 3.594,-11.875 0.781,-0.468 1.563,1.563 1.406,3.907 -0.156,2.343 -1.875,9.375 -1.406,10 0.469,0.625 8.281,-5.469 11.406,-12.969 3.125,-7.5 5.625,-15.313 7.188,-15.313 1.562,0 -2.656,12.813 -5.313,17.813 -2.656,5 -5.781,7.5 -5,8.594 0.782,1.093 8.594,-5.469 11.25,-10.313 2.657,-4.844 5.157,-9.219 5.625,-8.281 0.469,0.937 -2.5,11.25 -6.718,16.094 -4.219,4.843 -9.219,8.281 -8.438,9.062 0.781,0.782 6.406,1.563 12.344,-2.5 5.937,-4.062 6.562,-10 7.344,-9.687 0.781,0.312 -0.782,8.437 -6.407,13.437 -5.625,5 -13.281,5.469 -12.968,6.563 0.312,1.094 16.25,-4.531 15.937,-3.281 -0.312,1.25 -20.625,9.218 -20.782,10 0.001,0.625 3.439,0.781 8.907,-0.469 5.469,-1.25 10.626,-5.468 11.407,-4.531 0.155,1.406 -3.907,4.844 -10.157,6.406 -6.25,1.563 -9.375,3.75 -9.531,4.219 -0.156,0.468 11.094,-1.407 11.094,-0.782 0,0.625 -14.688,3.438 -14.844,4.22 -0.156,0.781 14.062,-2.813 13.75,-2.032 -0.313,0.781 -19.219,6.406 -19.063,6.719 0.157,0.312 15.782,-3.438 15.469,-2.813 -0.312,0.625 -26.406,7.969 -26.562,8.438 -0.157,0.468 22.968,-5.157 22.812,-4.688 -0.156,0.469 -12.031,3.437 -12.031,3.75 0,0.312 9.531,-1.562 9.375,-1.094 -0.156,0.469 -24.063,6.563 -24.532,7.5 -0.468,0.938 12.344,-2.5 12.188,-0.781 -0.156,1.719 -27.656,11.094 -27.813,9.375 -0.156,-1.719 16.719,-6.094 16.563,-6.562 -0.156,-0.469 -9.687,1.093 -9.844,0.156 -0.156,-0.938 6.25,-2.969 5.782,-3.438 -0.469,-0.468 -5.313,1.406 -4.844,0.313 0.469,-1.094 9.531,-5.313 9.375,-5.625 -0.156,-0.313 -3.281,1.093 -2.969,0 0.313,-1.094 19.687,-6.719 19.375,-7.344 -0.313,-0.625 -8.906,1.406 -9.687,1.562 -0.313,-0.624 12.031,-5.156 11.718,-5.937 -0.312,-0.781 -6.562,2.656 -6.874,1.719 -0.313,-0.938 10.781,-5.313 10.156,-5.938 -0.625,-0.625 -5.781,1.719 -6.406,1.094 -0.625,-0.625 10.468,-8.437 8.749,-8.594 -1.718,-0.156 -3.75,2.345 -4.062,0.782 0.313,-2.032 8.75,-5.313 6.875,-6.875 -2.969,-0.938 -13.125,0.625 -17.344,3.125 -4.219,2.5 -18.125,16.406 -21.563,18.593 -3.437,2.188 -15,7.032 -17.187,7.969 -3.438,1.25 -4.063,3.125 -7.5,4.844 -6.251,1.719 -6.25,3.594 -9.219,4.687 -1.093,0.313 -12.343,5.781 -12.5,5.313 z"
           style="fill:#ffe400;fill-opacity:1;fill-rule:evenodd;stroke:none"
           inkscape:connector-curvature="0" />
        <path
           transform="translate(13.10661,87.60729)"
           sodipodi:nodetypes="cccccccccc"
           id="path848"
           d="m 380.001,224.187 c -1.875,0.938 -3.593,3.438 -2.501,4.375 0.626,1.25 2.501,-2.656 4.063,-2.5 1.563,0.156 3.75,0.157 7.969,0.47 4.219,0.312 6.406,-0.938 8.75,-0.782 2.344,0.156 7.657,-1.25 10.157,-1.25 2.5,0 2.968,0.312 3.281,-0.782 0.312,-1.093 -7.813,-0.312 -11.407,-0.468 -3.593,-0.156 -8.125,0.781 -10.781,0.781 -2.5,-0.156 -6.875,-0.938 -9.531,0.156 z"
           style="fill:#ffe400;fill-opacity:1;fill-rule:evenodd;stroke:none"
           inkscape:connector-curvature="0" />
        <rect
           rx="1.71875"
           ry="1.4843826"
           y="309.13837"
           x="401.70123"
           height="2.968765"
           width="3.4375"
           id="rect849"
           style="font-size:12px;fill:#ffe400;fill-opacity:1;fill-rule:evenodd;stroke-width:1pt" />
        <path
           sodipodi:nodetypes="ccccccccccccccccccccccccccccccccccccccc"
           transform="matrix(1.097057,0,0,1,-29.11443,82.45104)"
           id="path850"
           d="m 432.166,225.281 c 1.566,-0.313 5.749,1.25 8.639,2.031 5.313,2.188 15.134,1.094 15.134,2.188 0,1.094 -0.611,2.5 -2.955,2.656 -2.344,0.156 -7.983,-0.937 -7.827,-0.937 0.156,0 4.532,2.187 3.282,2.812 -1.25,0.625 -5.001,-1.25 -5.626,-0.781 -0.625,0.469 3.438,1.406 2.813,1.719 -0.625,0.312 -3.447,-0.469 -4.385,-0.312 -0.937,0.155 0.791,1.249 -0.303,1.718 -1.093,0.469 -2.932,-0.624 -3.713,-0.313 -0.781,0.314 1.682,2.032 0.588,2.188 -1.093,0.156 -3.727,-0.781 -5.134,-0.937 -1.406,-0.156 1.384,1.562 0.447,1.718 -0.938,0.156 -3.488,-1.249 -4.113,-1.249 -0.625,0 0.05,1.874 -0.887,1.874 -0.938,0 -2.041,-1.562 -2.51,-1.562 -0.469,0 0.01,1.875 -0.928,1.875 -0.937,0 -1.273,-2.031 -2.054,-1.875 -0.924,0.157 0.023,2.656 -1.227,2.5 -1.25,-0.157 -1.416,-2.656 -2.353,-2.5 -0.938,0.156 0.166,2.5 -0.772,2.5 -0.937,0 -1.089,-2.344 -2.027,-2.5 -0.937,-0.156 -0.473,2.187 -1.098,2.187 -0.625,0 -1.089,-2.187 -1.402,-2.187 -0.312,0 -0.004,2.187 -1.098,2.031 -1.094,-0.156 -1.089,-2.5 -1.402,-2.344 -0.312,0.157 -0.317,1.719 -1.098,1.719 -0.781,0 -0.777,-1.562 -1.089,-1.406 -0.313,0.156 -1.411,2.187 -2.192,1.875 -0.781,-0.313 0.188,-1.875 -0.124,-1.875 -0.313,0 -1.282,1.093 -1.907,0.937 -0.625,-0.156 0.032,-1.406 -0.125,-1.406 -0.156,0 -1.594,0.781 -2.219,0.781 -0.625,0 -2.344,1.094 -2.813,0.156 -0.468,-0.937 1.223,-0.937 1.535,-1.875 0.313,-0.937 -0.91,-3.593 0.34,-4.531 1.25,-0.937 5.157,1.25 10.938,-0.312 10.624,-3.125 18.824,-6.718 19.665,-6.563 z"
           style="fill:#ffe400;fill-opacity:1;fill-rule:evenodd;stroke:none"
           inkscape:connector-curvature="0" />
      </g>
    </g>
  </g>
</svg>
