<?xml version="1.0" encoding="UTF-8" standalone="no"?>
<!-- Created with Sodipodi ("http://www.sodipodi.com/") -->

<svg
   xmlns:dc="http://purl.org/dc/elements/1.1/"
   xmlns:cc="http://creativecommons.org/ns#"
   xmlns:rdf="http://www.w3.org/1999/02/22-rdf-syntax-ns#"
   xmlns:svg="http://www.w3.org/2000/svg"
   xmlns="http://www.w3.org/2000/svg"
   xmlns:sodipodi="http://sodipodi.sourceforge.net/DTD/sodipodi-0.dtd"
   xmlns:inkscape="http://www.inkscape.org/namespaces/inkscape"
   version="1"
   x="0"
   y="0"
   width="512"
   height="512"
   id="svg378"
   sodipodi:version="0.32-hydra1"
   sodipodi:docname="ls.svg"
   inkscape:version="0.48.1 r9760">
  <sodipodi:namedview
     id="base"
     showgrid="false"
     inkscape:zoom="0.30856401"
     inkscape:cx="531.49426"
     inkscape:cy="372.04724"
     inkscape:window-width="1280"
     inkscape:window-height="723"
     inkscape:window-x="0"
     inkscape:window-y="24"
     inkscape:window-maximized="1"
     inkscape:current-layer="svg378" />
  <metadata
     id="metadata3349">
    <rdf:RDF>
      <cc:Work
         rdf:about="">
        <dc:format>image/svg+xml</dc:format>
        <dc:type
           rdf:resource="http://purl.org/dc/dcmitype/StillImage" />
      </cc:Work>
    </rdf:RDF>
  </metadata>
  <defs
     id="defs380" />
  <g
     id="flag"
     inkscape:label="#g8025">
    <rect
       y="5.4622973e-14"
       x="3.5111483e-09"
       height="512"
       width="512"
       id="rect628"
       style="font-size:12px;fill:#ffffff;fill-rule:evenodd;stroke-width:1pt" />
    <path
       sodipodi:nodetypes="cccc"
       id="path624"
       d="M 511.57169,510.86012 512,3.8800321 3.1102645,512 511.57169,510.86012 z"
       style="font-size:12px;fill:#3662a2;fill-rule:evenodd;stroke-width:1.03874998pt"
       inkscape:connector-curvature="0" />
    <path
       sodipodi:nodetypes="cccc"
       id="path575"
       d="M 511.57169,511.7489 511.32143,170.77284 170.75295,512 511.57169,511.7489 z"
       style="font-size:12px;fill:#38a100;fill-rule:evenodd;stroke-width:1.03874998pt"
       inkscape:connector-curvature="0" />
    <path
       sodipodi:nodetypes="cccccccscccccccccccccccccccccccc"
       id="path749"
       d="m 125.32768,55.866683 c 1.51998,0.498724 7.82215,17.497925 8.08981,31.316729 2.00508,7.341863 4.04732,7.868248 3.43974,17.483538 -0.9358,5.16683 -3.03239,4.33356 -2.63124,8.81781 -0.22913,2.70073 5.04298,4.13401 8.55014,5.37325 2.29339,0.47753 2.68629,1.20622 5.22394,0.68327 3.34753,-1.20415 10.1403,-15.2686 10.1403,-15.2686 -6.78107,-21.034746 9.37378,-28.640834 18.90375,-22.57812 9.52998,6.063402 12.43438,25.79561 -10.15819,27.80757 -3.67231,4.81521 -4.97003,5.90101 -8.24601,11.55844 -1.07134,2.50738 -1.43947,3.98057 -0.0543,4.55925 23.5669,12.15158 38.73297,39.60134 41.8844,60.04571 1.13396,4.50076 0.56629,8.03683 -1.13465,11.18688 -3.5285,5.91546 -9.70337,5.85078 -13.98808,5.01476 -2.45715,-1.15736 -9.65451,-10.40522 -9.84305,-15.7826 -0.85047,-5.97877 -2.01265,-11.78276 -9.47974,-19.78656 -5.10352,-4.21108 -12.65801,-3.23881 -15.49429,0.5546 -4.03287,5.52944 -3.14799,10.76921 -1.41539,15.62296 7.81389,14.01628 11.59835,24.97472 19.41224,38.991 2.04774,5.8501 0.40941,11.31487 -0.94543,12.44057 -1.82755,1.83237 -3.83125,3.27804 -6.50996,2.60303 -1.26058,-0.57799 -4.99756,-3.1817 -6.16593,-1.73535 -1.23442,1.9287 0.81194,3.76107 1.1897,4.91843 5.16683,8.48615 10.81806,21.59485 14.63487,30.62527 3.96956,7.04048 -0.8718,11.51028 -5.03128,6.1095 -7.93912,-15.42961 -12.61121,-25.46807 -20.55102,-40.89837 -2.33054,-5.16339 -5.74275,-10.7355 -8.72078,-13.58004 -2.04293,-2.04636 -9.33525,-3.40946 -11.10776,-3.00005 -1.43878,0.0812 -1.54268,1.11814 -1.51172,2.70004 -0.37844,19.67372 -0.0874,39.48368 -0.46583,59.15671 0.17959,3.45281 -2.88652,5.47715 -4.17736,5.24802 -2.39523,-76.63681 -2.13031,-155.67228 6.16317,-230.187647 z"
       style="font-size:12px;fill:#826006;fill-rule:evenodd;stroke-width:0.995191pt"
       inkscape:connector-curvature="0" />
    <path
       sodipodi:nodetypes="ccccccccccccccccccccccccccccccccccccc"
       id="path751"
       d="m 125.30635,55.755627 c -1.53512,0.498792 -1.00254,0.997447 -1.86264,2.31451 -1.4842,1.51186 -1.25713,3.569164 -1.52755,6.172119 0,0 -5.83702,4.57824 -6.10744,8.783126 -2.02435,7.341175 1.90875,23.62057 1.90875,23.62057 0.94474,5.166828 0.40528,9.788008 0,14.272248 -0.38189,2.70074 -1.52686,4.62944 -4.0081,6.17212 -3.6902,2.50738 -7.76159,2.12206 -11.64239,1.92939 0,0 -3.053719,-0.77203 -3.435606,-1.15736 -0.381887,-0.38601 -8.77996,-20.059728 -8.77996,-20.059728 5.980832,-0.771343 11.197196,-0.770655 17.178036,-1.542685 C 95.195767,88.544443 83.171488,80.636974 71.337877,72.921481 c -0.890726,14.016285 -1.017953,29.188549 -1.908609,43.204149 3.308104,-4.11406 7.380189,-9.77149 10.687812,-13.88624 3.308999,5.65743 5.28105,11.89355 8.589361,17.55098 1.081669,2.50738 0.63579,5.20811 -0.763086,5.78679 -23.794518,12.15089 -38.427395,37.41873 -41.608479,57.8631 -1.14518,4.50008 -0.572624,8.03683 1.145179,11.18688 3.562696,5.91478 9.797569,5.8501 14.123763,5.01476 2.481234,-1.15735 5.535091,-5.68908 5.821334,-10.02952 0.858936,-5.97877 1.908265,-17.74501 9.447609,-25.74881 5.153066,-4.21108 13.742427,-2.44339 16.605547,1.35002 4.072085,5.52876 3.467259,11.15454 1.717459,16.00829 -7.889578,14.01628 -15.396582,27.54953 -23.285679,41.56513 -2.067626,5.85078 -0.413401,11.31555 0.95458,12.44057 1.845443,1.83306 5.121414,2.89271 7.825587,2.21838 1.272268,-0.57868 2.926424,-0.96469 3.816805,0 0.668819,1.35071 -0.763086,2.31472 -1.144973,3.47208 -5.217057,8.48615 -10.434115,16.97298 -15.650623,25.45913 -4.008162,7.04048 2.671764,12.34493 6.871351,6.94415 8.016187,-15.4303 14.817215,-27.99679 22.83409,-43.4264 2.625725,-5.16338 4.441585,-7.87169 9.901535,-9.89741 1.65416,-0.54634 4.7932,-1.0913 6.58222,-0.68258 1.45323,0.0819 1.55782,1.11814 1.52686,2.70074 0.38189,19.67302 0.0881,39.48298 0.46996,59.1567 -0.18165,3.45281 2.33674,4.99549 3.64066,4.76567 2.41793,-76.6368 3.35028,-153.54609 5.76821,-230.182413 z"
       style="font-size:12px;fill:#826006;fill-rule:evenodd;stroke-width:1pt"
       inkscape:connector-curvature="0" />
  </g>
</svg>
