<?xml version="1.0" encoding="UTF-8" standalone="no"?>
<!-- Created with Sodipodi ("http://www.sodipodi.com/") -->

<svg
   xmlns:dc="http://purl.org/dc/elements/1.1/"
   xmlns:cc="http://creativecommons.org/ns#"
   xmlns:rdf="http://www.w3.org/1999/02/22-rdf-syntax-ns#"
   xmlns:svg="http://www.w3.org/2000/svg"
   xmlns="http://www.w3.org/2000/svg"
   xmlns:xlink="http://www.w3.org/1999/xlink"
   xmlns:sodipodi="http://sodipodi.sourceforge.net/DTD/sodipodi-0.dtd"
   xmlns:inkscape="http://www.inkscape.org/namespaces/inkscape"
   version="1"
   x="0.00000000"
   y="0.00000000"
   width="512"
   height="512"
   id="svg548"
   inkscape:version="0.48.1 r9760"
   sodipodi:docname="mm.svg">
  <sodipodi:namedview
     pagecolor="#ffffff"
     bordercolor="#666666"
     borderopacity="1"
     objecttolerance="10"
     gridtolerance="10"
     guidetolerance="10"
     inkscape:pageopacity="0"
     inkscape:pageshadow="2"
     inkscape:window-width="1280"
     inkscape:window-height="723"
     id="namedview3597"
     showgrid="false"
     inkscape:zoom="0.56334202"
     inkscape:cx="453.5433"
     inkscape:cy="270.2205"
     inkscape:window-x="0"
     inkscape:window-y="24"
     inkscape:window-maximized="1"
     inkscape:current-layer="svg548" />
  <metadata
     id="metadata3599">
    <rdf:RDF>
      <cc:Work
         rdf:about="">
        <dc:format>image/svg+xml</dc:format>
        <dc:type
           rdf:resource="http://purl.org/dc/dcmitype/StillImage" />
      </cc:Work>
    </rdf:RDF>
  </metadata>
  <defs
     id="defs550">
    <linearGradient
       spreadMethod="pad"
       gradientUnits="objectBoundingBox"
       id="linearGradient604"
       y2="0.00000000"
       x2="1.00000000"
       y1="0.00000000"
       x1="0.00000000">
      <stop
         id="stop605"
         offset="0.00000000"
         style="stop-color:#000000;stop-opacity:1;" />
      <stop
         id="stop606"
         offset="1.00000000"
         style="stop-color:#ffffff;stop-opacity:1;" />
    </linearGradient>
    <radialGradient
       spreadMethod="pad"
       gradientUnits="objectBoundingBox"
       xlink:href="#linearGradient604"
       id="radialGradient607"
       r="0.50000000"
       fy="0.50000000"
       fx="0.50000000"
       cy="0.50000000"
       cx="0.50000000" />
    <linearGradient
       spreadMethod="pad"
       gradientTransform="translate(1.039138e-6,-2.002184e-7)"
       gradientUnits="objectBoundingBox"
       xlink:href="#linearGradient604"
       id="linearGradient608"
       y2="-0.00000020"
       x2="1.00000107"
       y1="-0.00000020"
       x1="0.00000104" />
  </defs>
  <g
     id="flag"
     inkscape:label="#g3056">
    <rect
       inkscape:label="#rect781"
       width="512"
       height="512"
       x="0"
       y="3.0174851e-06"
       style="font-size:12px;fill:#da2d1c;fill-rule:evenodd;stroke-width:1pt"
       id="rect781" />
    <g
       transform="matrix(0.75289473,0,0,0.75289473,150.57895,4.1262187e-4)"
       id="g7276">
      <rect
         id="rect578"
         style="font-size:12px;fill:#2042a1;fill-rule:evenodd;stroke-width:1pt"
         y="1.9423995e-05"
         x="-200"
         height="255.99957"
         width="402.28503" />
      <g
         id="g714"
         style="font-size:12px"
         transform="matrix(0.42118965,0,0,0.42220113,-154.42555,11.807137)">
        <g
           id="g641">
          <path
             id="path577"
             style="fill:#ffffff;fill-rule:evenodd;stroke-width:1pt"
             d="m 453.31,281.147 c 0,43.546 -35.87,78.888 -80.066,78.888 -44.195,0 -80.065,-35.342 -80.065,-78.888 0,-43.546 35.87,-78.887 80.065,-78.887 44.196,0 80.066,35.341 80.066,78.887 z m -249.615,-17.661 9.419,-36.5 25.904,10.597 14.129,-29.436 -22.372,-14.129 22.372,-30.613 21.194,21.193 23.548,-21.193 -14.129,-23.549 34.145,-17.661 8.242,29.435 31.791,-9.419 -3.532,-27.081 36.5,-1.177 -2.355,28.258 32.968,10.597 8.242,-29.436 32.968,16.484 -15.307,24.726 25.904,20.016 20.016,-21.193 22.371,28.258 -23.548,16.484 15.306,29.436 25.904,-9.42 8.242,36.5 -27.081,2.355 -1.178,32.968 27.081,2.355 -8.242,37.678 -27.08,-11.775 -11.775,30.614 22.371,14.129 -22.371,29.435 -18.839,-21.193 -25.903,21.193 15.306,24.726 -34.145,16.484 -9.419,-28.258 -31.791,8.242 3.532,28.258 -37.677,1.178 3.532,-28.259 -30.613,-8.242 -10.597,27.081 -31.791,-16.484 15.307,-23.548 -27.081,-20.017 -20.016,20.017 -23.549,-28.258 24.726,-17.662 -15.306,-28.258 -24.726,9.419 -10.597,-36.5 29.436,-2.355 0,-32.968 -29.436,-3.532 z"
             inkscape:connector-curvature="0" />
          <polygon
             id="polygon579"
             style="fill:#ffffff;fill-rule:evenodd;stroke-width:1pt"
             transform="matrix(0.834255,0,0,0.813449,73.85344,71.37921)"
             points="380.165,-6.69013 390.906,29.178 390.906,29.178 360.233,7.70501 329.44,29.0038 340.384,-6.80287 310.612,-29.5076 348.047,-30.1644 360.441,-65.4955 372.634,-30.0947 410.065,-29.2258 " />
          <polygon
             id="polygon580"
             style="fill:#ffffff;fill-rule:evenodd;stroke-width:1pt"
             transform="matrix(0.834255,0,0,0.813449,70.32114,514.0919)"
             points="380.165,-6.69013 390.906,29.178 390.906,29.178 360.233,7.70501 329.44,29.0038 340.384,-6.80287 310.612,-29.5076 348.047,-30.1644 360.441,-65.4955 372.634,-30.0947 410.065,-29.2258 " />
          <polygon
             id="polygon581"
             style="fill:#ffffff;fill-rule:evenodd;stroke-width:1pt"
             transform="matrix(0.834255,0,0,0.813449,177.467,92.57298)"
             points="380.165,-6.69013 390.906,29.178 390.906,29.178 360.233,7.70501 329.44,29.0038 340.384,-6.80287 310.612,-29.5076 348.047,-30.1644 360.441,-65.4955 372.634,-30.0947 410.065,-29.2258 " />
          <polygon
             id="polygon582"
             style="fill:#ffffff;fill-rule:evenodd;stroke-width:1pt"
             transform="matrix(0.834255,0,0,0.813449,173.9349,495.2532)"
             points="380.165,-6.69013 390.906,29.178 390.906,29.178 360.233,7.70501 329.44,29.0038 340.384,-6.80287 310.612,-29.5076 348.047,-30.1644 360.441,-65.4955 372.634,-30.0947 410.065,-29.2258 " />
          <polygon
             id="polygon583"
             style="fill:#ffffff;fill-rule:evenodd;stroke-width:1pt"
             transform="matrix(0.834255,0,0,0.813449,-25.05051,92.57298)"
             points="380.165,-6.69013 390.906,29.178 390.906,29.178 360.233,7.70501 329.44,29.0038 340.384,-6.80287 310.612,-29.5076 348.047,-30.1644 360.441,-65.4955 372.634,-30.0947 410.065,-29.2258 " />
          <polygon
             id="polygon584"
             style="fill:#ffffff;fill-rule:evenodd;stroke-width:1pt"
             transform="matrix(0.834255,0,0,0.813449,-28.58273,490.5433)"
             points="380.165,-6.69013 390.906,29.178 390.906,29.178 360.233,7.70501 329.44,29.0038 340.384,-6.80287 310.612,-29.5076 348.047,-30.1644 360.441,-65.4955 372.634,-30.0947 410.065,-29.2258 " />
          <polygon
             id="polygon585"
             style="fill:#ffffff;fill-rule:evenodd;stroke-width:1pt"
             transform="matrix(0.834255,0,0,0.813449,-105.1156,149.0896)"
             points="380.165,-6.69013 390.906,29.178 390.906,29.178 360.233,7.70501 329.44,29.0038 340.384,-6.80287 310.612,-29.5076 348.047,-30.1644 360.441,-65.4955 372.634,-30.0947 410.065,-29.2258 " />
          <polygon
             id="polygon586"
             style="fill:#ffffff;fill-rule:evenodd;stroke-width:1pt"
             transform="matrix(0.834255,0,0,0.813449,-105.1156,422.2527)"
             points="380.165,-6.69013 390.906,29.178 390.906,29.178 360.233,7.70501 329.44,29.0038 340.384,-6.80287 310.612,-29.5076 348.047,-30.1644 360.441,-65.4955 372.634,-30.0947 410.065,-29.2258 " />
          <polygon
             id="polygon587"
             style="fill:#ffffff;fill-rule:evenodd;stroke-width:1pt"
             transform="matrix(0.834255,0,0,0.813449,-145.148,233.8644)"
             points="380.165,-6.69013 390.906,29.178 390.906,29.178 360.233,7.70501 329.44,29.0038 340.384,-6.80287 310.612,-29.5076 348.047,-30.1644 360.441,-65.4955 372.634,-30.0947 410.065,-29.2258 " />
          <polygon
             id="polygon588"
             style="fill:#ffffff;fill-rule:evenodd;stroke-width:1pt"
             transform="matrix(0.834255,0,0,0.813449,-145.1481,328.0586)"
             points="380.165,-6.69013 390.906,29.178 390.906,29.178 360.233,7.70501 329.44,29.0038 340.384,-6.80287 310.612,-29.5076 348.047,-30.1644 360.441,-65.4955 372.634,-30.0947 410.065,-29.2258 " />
          <polygon
             id="polygon589"
             style="fill:#ffffff;fill-rule:evenodd;stroke-width:1pt"
             transform="matrix(-0.834255,0,0,0.813449,844.6313,153.7993)"
             points="380.165,-6.69013 390.906,29.178 390.906,29.178 360.233,7.70501 329.44,29.0038 340.384,-6.80287 310.612,-29.5076 348.047,-30.1644 360.441,-65.4955 372.634,-30.0947 410.065,-29.2258 " />
          <polygon
             id="polygon590"
             style="fill:#ffffff;fill-rule:evenodd;stroke-width:1pt"
             transform="matrix(-0.834255,0,0,0.813449,851.6957,426.9624)"
             points="380.165,-6.69013 390.906,29.178 390.906,29.178 360.233,7.70501 329.44,29.0038 340.384,-6.80287 310.612,-29.5076 348.047,-30.1644 360.441,-65.4955 372.634,-30.0947 410.065,-29.2258 " />
          <polygon
             id="polygon591"
             style="fill:#ffffff;fill-rule:evenodd;stroke-width:1pt"
             transform="matrix(-0.834255,0,0,0.813449,887.0185,240.929)"
             points="380.165,-6.69013 390.906,29.178 390.906,29.178 360.233,7.70501 329.44,29.0038 340.384,-6.80287 310.612,-29.5076 348.047,-30.1644 360.441,-65.4955 372.634,-30.0947 410.065,-29.2258 " />
          <polygon
             id="polygon592"
             style="fill:#ffffff;fill-rule:evenodd;stroke-width:1pt"
             transform="matrix(-0.834255,0,0,0.813449,894.0833,332.7683)"
             points="380.165,-6.69013 390.906,29.178 390.906,29.178 360.233,7.70501 329.44,29.0038 340.384,-6.80287 310.612,-29.5076 348.047,-30.1644 360.441,-65.4955 372.634,-30.0947 410.065,-29.2258 " />
        </g>
        <g
           id="g657"
           transform="translate(0,-1.525879e-5)">
          <path
             id="path596"
             style="fill:#ffffff;fill-rule:evenodd;stroke:#2042a1;stroke-width:5.17086983"
             transform="matrix(0.328044,-0.27966,0.531867,0.603137,148.1218,249.0046)"
             d="m 659.34,228.82 c -58.743,66.52 -125.152,86.43 -133.443,83.515 -5.85,-6.672 81.913,-61.578 63.944,-94.257 -17.481,-30.474 25.417,-32.303 43.615,-32.303 14.728,2.355 50.37,15.055 25.884,43.045 z"
             inkscape:connector-curvature="0" />
          <path
             id="path594"
             style="fill:#ffffff;fill-rule:evenodd;stroke:#2042a1;stroke-width:4"
             transform="matrix(0.71069,0.448085,-0.393742,0.892213,162.718,-138.0663)"
             d="m 489.914,218.331 c 0,104.64 48.241,151.327 30.732,159.622 -17.704,9.039 -50.699,-39.674 -65.203,-141.613 -18.098,-128.206 39.585,-145.7026 62.625,-118.855 -27.599,30.613 -30.509,36.239 -28.154,100.846 z"
             inkscape:connector-curvature="0" />
          <path
             id="path597"
             style="fill:#ffffff;fill-rule:evenodd;stroke:#2042a1;stroke-width:5.17086983"
             transform="matrix(0.451944,-0.168666,0.499725,0.759693,65.47497,244.683)"
             d="m 659.34,228.82 c -58.743,66.52 -125.152,86.43 -133.443,83.515 -5.85,-6.672 78.36,-36.986 63.944,-94.257 -8.699,-32.444 20.251,-14.798 38.449,-14.798 14.728,2.355 55.536,-2.45 31.05,25.54 z"
             inkscape:connector-curvature="0" />
          <path
             id="path598"
             style="fill:#ffffff;fill-rule:evenodd;stroke:#2042a1;stroke-width:4"
             transform="matrix(0.746662,0.665204,-0.665204,0.746662,168.2088,-129.151)"
             d="m 511.037,209.257 c 12.375,37.794 36.741,75.557 19.232,83.852 -17.704,9.039 -45.465,-49.74 -56.006,-98.588 -12.683,-59.93 19.011,-106.2475 43.805,-77.036 -24.061,29.454 -17.487,61.631 -7.031,91.772 z"
             inkscape:connector-curvature="0" />
          <path
             id="path599"
             style="fill:#ffffff;fill-rule:evenodd;stroke:#2042a1;stroke-width:5.17086983"
             transform="matrix(-0.418598,-0.307306,-0.696768,0.867849,702.3647,270.3384)"
             d="m 646.229,228.247 c -59.066,58.266 -115.232,87.23 -120.332,84.088 -9.764,-2.631 72.915,-49.768 63.906,-84.095 -7.025,-32.565 8.225,-21.092 28.741,-25.019 23.764,2.841 54.499,-2.535 27.685,25.026 z"
             inkscape:connector-curvature="0" />
          <path
             id="path600"
             style="fill:#ffffff;fill-rule:evenodd;stroke:#2042a1;stroke-width:4"
             transform="matrix(-0.567677,0.87884,0.689438,0.939316,481.9719,-301.7453)"
             d="m 511.037,209.257 c 12.375,37.794 36.741,75.557 19.232,83.852 -17.704,9.039 -43.915,-50.473 -56.006,-98.588 -8.185,-39.32 2.241,-54.87 23.585,-73.338 -16.919,28.09 2.733,57.933 13.189,88.074 z"
             inkscape:connector-curvature="0" />
          <path
             id="path602"
             style="fill:#ffffff;fill-rule:evenodd;stroke:#2042a1;stroke-width:4"
             transform="matrix(-0.669521,0.991068,0.593343,1.234023,557.3988,-446.5076)"
             d="m 511.037,209.257 c 12.375,37.794 36.741,75.557 19.232,83.852 -17.704,9.039 -43.915,-50.473 -56.006,-98.588 -8.185,-39.32 16.179,-58.154 37.523,-76.622 -26.824,37.879 -11.205,61.217 -0.749,91.358 z"
             inkscape:connector-curvature="0" />
          <path
             id="path601"
             style="fill:#ffffff;fill-rule:evenodd;stroke:#2042a1;stroke-width:5.17086983"
             transform="matrix(-0.08686355,-0.587862,-1.181722,0.255134,600.6107,524.39)"
             d="m 634.091,224.329 c -36.813,34.048 -138.182,41.329 -142.291,35.672 -4.653,-5.871 76.045,-15.168 98.743,-36.001 22.804,-21.97 4.517,-23.58 -8.457,-45.548 28.83,4.003 84.145,17.808 52.005,45.877 z"
             inkscape:connector-curvature="0" />
        </g>
        <g
           id="g673">
          <ellipse
             d="m 383.84154,394.76855 c 0,13.98093 -5.27153,25.31472 -11.77428,25.31472 -6.50275,0 -11.77428,-11.33379 -11.77428,-25.31472 0,-13.98092 5.27153,-25.31471 11.77428,-25.31471 6.50275,0 11.77428,11.33379 11.77428,25.31471 z"
             id="path672"
             style="fill:#ffffff;fill-rule:evenodd;stroke:#2042a1;stroke-width:1pt"
             transform="matrix(0.908697,-0.413453,0.359816,0.705632,-131.6211,28.07851)"
             ry="25.314713"
             rx="11.774277"
             cy="394.76855"
             cx="372.06726"
             sodipodi:cx="372.06726"
             sodipodi:cy="394.76855"
             sodipodi:rx="11.774277"
             sodipodi:ry="25.314713" />
          <ellipse
             d="m 383.84154,394.76855 c 0,13.98093 -5.27153,25.31472 -11.77428,25.31472 -6.50275,0 -11.77428,-11.33379 -11.77428,-25.31472 0,-13.98092 5.27153,-25.31471 11.77428,-25.31471 6.50275,0 11.77428,11.33379 11.77428,25.31471 z"
             id="path670"
             style="fill:#ffffff;fill-rule:evenodd;stroke:#2042a1;stroke-width:1pt"
             transform="matrix(0.942123,-0.330268,0.295064,0.735065,-118.8178,11.7088)"
             ry="25.314713"
             rx="11.774277"
             cy="394.76855"
             cx="372.06726"
             sodipodi:cx="372.06726"
             sodipodi:cy="394.76855"
             sodipodi:rx="11.774277"
             sodipodi:ry="25.314713" />
          <ellipse
             d="m 383.84154,394.76855 c 0,13.98093 -5.27153,25.31472 -11.77428,25.31472 -6.50275,0 -11.77428,-11.33379 -11.77428,-25.31472 0,-13.98092 5.27153,-25.31471 11.77428,-25.31471 6.50275,0 11.77428,11.33379 11.77428,25.31471 z"
             id="path671"
             style="fill:#ffffff;fill-rule:evenodd;stroke:#2042a1;stroke-width:1pt"
             transform="matrix(0.994831,-0.08357726,0.101397,0.785559,-43.40119,-107.4914)"
             ry="25.314713"
             rx="11.774277"
             cy="394.76855"
             cx="372.06726"
             sodipodi:cx="372.06726"
             sodipodi:cy="394.76855"
             sodipodi:rx="11.774277"
             sodipodi:ry="25.314713" />
          <ellipse
             d="m 383.84154,394.76855 c 0,13.98093 -5.27153,25.31472 -11.77428,25.31472 -6.50275,0 -11.77428,-11.33379 -11.77428,-25.31472 0,-13.98092 5.27153,-25.31471 11.77428,-25.31471 6.50275,0 11.77428,11.33379 11.77428,25.31471 z"
             id="path668"
             style="fill:#ffffff;fill-rule:evenodd;stroke:#2042a1;stroke-width:1pt"
             transform="matrix(0.986253,-0.154846,0.157582,0.776242,-75.62366,-45.5981)"
             ry="25.314713"
             rx="11.774277"
             cy="394.76855"
             cx="372.06726"
             sodipodi:cx="372.06726"
             sodipodi:cy="394.76855"
             sodipodi:rx="11.774277"
             sodipodi:ry="25.314713" />
          <ellipse
             d="m 383.84154,394.76855 c 0,13.98093 -5.27153,25.31472 -11.77428,25.31472 -6.50275,0 -11.77428,-11.33379 -11.77428,-25.31472 0,-13.98092 5.27153,-25.31471 11.77428,-25.31471 6.50275,0 11.77428,11.33379 11.77428,25.31471 z"
             id="path666"
             style="fill:#ffffff;fill-rule:evenodd;stroke:#2042a1;stroke-width:1pt"
             transform="matrix(0.986253,-0.154846,0.157582,0.776242,-75.62366,-20.87207)"
             ry="25.314713"
             rx="11.774277"
             cy="394.76855"
             cx="372.06726"
             sodipodi:cx="372.06726"
             sodipodi:cy="394.76855"
             sodipodi:rx="11.774277"
             sodipodi:ry="25.314713" />
          <ellipse
             d="m 383.84154,394.76855 c 0,13.98093 -5.27153,25.31472 -11.77428,25.31472 -6.50275,0 -11.77428,-11.33379 -11.77428,-25.31472 0,-13.98092 5.27153,-25.31471 11.77428,-25.31471 6.50275,0 11.77428,11.33379 11.77428,25.31471 z"
             id="path669"
             style="fill:#ffffff;fill-rule:evenodd;stroke:#2042a1;stroke-width:1pt"
             transform="matrix(0.993582,0.09730614,-0.04201746,0.790961,20.06403,-149.2332)"
             ry="25.314713"
             rx="11.774277"
             cy="394.76855"
             cx="372.06726"
             sodipodi:cx="372.06726"
             sodipodi:cy="394.76855"
             sodipodi:rx="11.774277"
             sodipodi:ry="25.314713" />
          <ellipse
             d="m 383.84154,394.76855 c 0,13.98093 -5.27153,25.31472 -11.77428,25.31472 -6.50275,0 -11.77428,-11.33379 -11.77428,-25.31472 0,-13.98092 5.27153,-25.31471 11.77428,-25.31471 6.50275,0 11.77428,11.33379 11.77428,25.31471 z"
             id="path667"
             style="fill:#ffffff;fill-rule:evenodd;stroke:#2042a1;stroke-width:1pt"
             transform="matrix(0.993582,0.09730614,-0.04201746,0.790961,20.06403,-124.5072)"
             ry="25.314713"
             rx="11.774277"
             cy="394.76855"
             cx="372.06726"
             sodipodi:cx="372.06726"
             sodipodi:cy="394.76855"
             sodipodi:rx="11.774277"
             sodipodi:ry="25.314713" />
          <ellipse
             d="m 383.84154,394.76855 c 0,13.98093 -5.27153,25.31472 -11.77428,25.31472 -6.50275,0 -11.77428,-11.33379 -11.77428,-25.31472 0,-13.98092 5.27153,-25.31471 11.77428,-25.31471 6.50275,0 11.77428,11.33379 11.77428,25.31471 z"
             id="path638"
             style="fill:#ffffff;fill-rule:evenodd;stroke:#2042a1;stroke-width:1pt"
             transform="matrix(0.997143,0.04876652,-0.00341764,0.792068,-29.28438,-76.7686)"
             ry="25.314713"
             rx="11.774277"
             cy="394.76855"
             cx="372.06726"
             sodipodi:cx="372.06726"
             sodipodi:cy="394.76855"
             sodipodi:rx="11.774277"
             sodipodi:ry="25.314713" />
          <ellipse
             d="m 383.84154,394.76855 c 0,13.98093 -5.27153,25.31472 -11.77428,25.31472 -6.50275,0 -11.77428,-11.33379 -11.77428,-25.31472 0,-13.98092 5.27153,-25.31471 11.77428,-25.31471 6.50275,0 11.77428,11.33379 11.77428,25.31471 z"
             id="path639"
             style="fill:#ffffff;fill-rule:evenodd;stroke:#2042a1;stroke-width:1pt"
             transform="matrix(0.997143,0.04876652,-0.00341764,0.792068,-11.62296,-76.71313)"
             ry="25.314713"
             rx="11.774277"
             cy="394.76855"
             cx="372.06726"
             sodipodi:cx="372.06726"
             sodipodi:cy="394.76855"
             sodipodi:rx="11.774277"
             sodipodi:ry="25.314713" />
          <ellipse
             d="m 383.84154,394.76855 c 0,13.98093 -5.27153,25.31472 -11.77428,25.31472 -6.50275,0 -11.77428,-11.33379 -11.77428,-25.31472 0,-13.98092 5.27153,-25.31471 11.77428,-25.31471 6.50275,0 11.77428,11.33379 11.77428,25.31471 z"
             id="path640"
             style="fill:#ffffff;fill-rule:evenodd;stroke:#2042a1;stroke-width:1pt"
             transform="matrix(0.953088,0.297148,-0.201845,0.765927,103.125,-158.7452)"
             ry="25.314713"
             rx="11.774277"
             cy="394.76855"
             cx="372.06726"
             sodipodi:cx="372.06726"
             sodipodi:cy="394.76855"
             sodipodi:rx="11.774277"
             sodipodi:ry="25.314713" />
          <ellipse
             d="m 383.84154,394.76855 c 0,13.98093 -5.27153,25.31472 -11.77428,25.31472 -6.50275,0 -11.77428,-11.33379 -11.77428,-25.31472 0,-13.98092 5.27153,-25.31471 11.77428,-25.31471 6.50275,0 11.77428,11.33379 11.77428,25.31471 z"
             id="path635"
             style="fill:#ffffff;fill-rule:evenodd;stroke:#2042a1;stroke-width:1pt"
             transform="matrix(0.997143,0.04876652,-0.00341764,0.792068,-30.46182,-49.68784)"
             ry="25.314713"
             rx="11.774277"
             cy="394.76855"
             cx="372.06726"
             sodipodi:cx="372.06726"
             sodipodi:cy="394.76855"
             sodipodi:rx="11.774277"
             sodipodi:ry="25.314713" />
          <ellipse
             d="m 383.84154,394.76855 c 0,13.98093 -5.27153,25.31472 -11.77428,25.31472 -6.50275,0 -11.77428,-11.33379 -11.77428,-25.31472 0,-13.98092 5.27153,-25.31471 11.77428,-25.31471 6.50275,0 11.77428,11.33379 11.77428,25.31471 z"
             id="path636"
             style="fill:#ffffff;fill-rule:evenodd;stroke:#2042a1;stroke-width:1pt"
             transform="matrix(0.997143,0.04876652,-0.00341764,0.792068,-12.80041,-56.69696)"
             ry="25.314713"
             rx="11.774277"
             cy="394.76855"
             cx="372.06726"
             sodipodi:cx="372.06726"
             sodipodi:cy="394.76855"
             sodipodi:rx="11.774277"
             sodipodi:ry="25.314713" />
          <ellipse
             d="m 383.84154,394.76855 c 0,13.98093 -5.27153,25.31472 -11.77428,25.31472 -6.50275,0 -11.77428,-11.33379 -11.77428,-25.31472 0,-13.98092 5.27153,-25.31471 11.77428,-25.31471 6.50275,0 11.77428,11.33379 11.77428,25.31471 z"
             id="path637"
             style="fill:#ffffff;fill-rule:evenodd;stroke:#2042a1;stroke-width:1pt"
             transform="matrix(0.953088,0.297148,-0.201845,0.765927,101.9476,-134.0193)"
             ry="25.314713"
             rx="11.774277"
             cy="394.76855"
             cx="372.06726"
             sodipodi:cx="372.06726"
             sodipodi:cy="394.76855"
             sodipodi:rx="11.774277"
             sodipodi:ry="25.314713" />
          <ellipse
             d="m 383.84154,394.76855 c 0,13.98093 -5.27153,25.31472 -11.77428,25.31472 -6.50275,0 -11.77428,-11.33379 -11.77428,-25.31472 0,-13.98092 5.27153,-25.31471 11.77428,-25.31471 6.50275,0 11.77428,11.33379 11.77428,25.31471 z"
             id="path603"
             style="fill:#ffffff;fill-rule:evenodd;stroke:#2042a1;stroke-width:1pt"
             transform="matrix(1.289504,-0.09409663,0.121879,0.995563,-152.2964,63.84274)"
             ry="25.314713"
             rx="11.774277"
             cy="394.76855"
             cx="372.06726"
             sodipodi:cx="372.06726"
             sodipodi:cy="394.76855"
             sodipodi:rx="11.774277"
             sodipodi:ry="25.314713" />
          <ellipse
             d="m 383.84154,394.76855 c 0,13.98093 -5.27153,25.31472 -11.77428,25.31472 -6.50275,0 -11.77428,-11.33379 -11.77428,-25.31472 0,-13.98092 5.27153,-25.31471 11.77428,-25.31471 6.50275,0 11.77428,11.33379 11.77428,25.31471 z"
             id="path632"
             style="fill:#ffffff;fill-rule:evenodd;stroke:#2042a1;stroke-width:1pt"
             transform="matrix(0.997143,0.04876652,-0.00341764,0.792068,-38.70382,-22.60699)"
             ry="25.314713"
             rx="11.774277"
             cy="394.76855"
             cx="372.06726"
             sodipodi:cx="372.06726"
             sodipodi:cy="394.76855"
             sodipodi:rx="11.774277"
             sodipodi:ry="25.314713" />
          <ellipse
             d="m 383.84154,394.76855 c 0,13.98093 -5.27153,25.31472 -11.77428,25.31472 -6.50275,0 -11.77428,-11.33379 -11.77428,-25.31472 0,-13.98092 5.27153,-25.31471 11.77428,-25.31471 6.50275,0 11.77428,11.33379 11.77428,25.31471 z"
             id="path633"
             style="fill:#ffffff;fill-rule:evenodd;stroke:#2042a1;stroke-width:1pt"
             transform="matrix(0.997143,0.04876652,-0.00341764,0.792068,-17.51015,-28.43867)"
             ry="25.314713"
             rx="11.774277"
             cy="394.76855"
             cx="372.06726"
             sodipodi:cx="372.06726"
             sodipodi:cy="394.76855"
             sodipodi:rx="11.774277"
             sodipodi:ry="25.314713" />
          <ellipse
             d="m 383.84154,394.76855 c 0,13.98093 -5.27153,25.31472 -11.77428,25.31472 -6.50275,0 -11.77428,-11.33379 -11.77428,-25.31472 0,-13.98092 5.27153,-25.31471 11.77428,-25.31471 6.50275,0 11.77428,11.33379 11.77428,25.31471 z"
             id="path634"
             style="fill:#ffffff;fill-rule:evenodd;stroke:#2042a1;stroke-width:1pt"
             transform="matrix(0.953088,0.297148,-0.201845,0.765927,93.70564,-106.9384)"
             ry="25.314713"
             rx="11.774277"
             cy="394.76855"
             cx="372.06726"
             sodipodi:cx="372.06726"
             sodipodi:cy="394.76855"
             sodipodi:rx="11.774277"
             sodipodi:ry="25.314713" />
          <ellipse
             d="m 383.84154,394.76855 c 0,13.98093 -5.27153,25.31472 -11.77428,25.31472 -6.50275,0 -11.77428,-11.33379 -11.77428,-25.31472 0,-13.98092 5.27153,-25.31471 11.77428,-25.31471 6.50275,0 11.77428,11.33379 11.77428,25.31471 z"
             id="path629"
             style="fill:#ffffff;fill-rule:evenodd;stroke:#2042a1;stroke-width:1pt"
             transform="matrix(0.978126,0.199854,-0.123843,0.782334,25.31353,-50.87177)"
             ry="25.314713"
             rx="11.774277"
             cy="394.76855"
             cx="372.06726"
             sodipodi:cx="372.06726"
             sodipodi:cy="394.76855"
             sodipodi:rx="11.774277"
             sodipodi:ry="25.314713" />
          <ellipse
             d="m 383.84154,394.76855 c 0,13.98093 -5.27153,25.31472 -11.77428,25.31472 -6.50275,0 -11.77428,-11.33379 -11.77428,-25.31472 0,-13.98092 5.27153,-25.31471 11.77428,-25.31471 6.50275,0 11.77428,11.33379 11.77428,25.31471 z"
             id="path630"
             style="fill:#ffffff;fill-rule:evenodd;stroke:#2042a1;stroke-width:1pt"
             transform="matrix(0.978126,0.199854,-0.123843,0.782334,42.76103,-48.13083)"
             ry="25.314713"
             rx="11.774277"
             cy="394.76855"
             cx="372.06726"
             sodipodi:cx="372.06726"
             sodipodi:cy="394.76855"
             sodipodi:rx="11.774277"
             sodipodi:ry="25.314713" />
          <ellipse
             d="m 383.84154,394.76855 c 0,13.98093 -5.27153,25.31472 -11.77428,25.31472 -6.50275,0 -11.77428,-11.33379 -11.77428,-25.31472 0,-13.98092 5.27153,-25.31471 11.77428,-25.31471 6.50275,0 11.77428,11.33379 11.77428,25.31471 z"
             id="path631"
             style="fill:#ffffff;fill-rule:evenodd;stroke:#2042a1;stroke-width:1pt"
             transform="matrix(0.896807,0.438646,-0.315986,0.726318,169.0085,-114.0841)"
             ry="25.314713"
             rx="11.774277"
             cy="394.76855"
             cx="372.06726"
             sodipodi:cx="372.06726"
             sodipodi:cy="394.76855"
             sodipodi:rx="11.774277"
             sodipodi:ry="25.314713" />
          <ellipse
             d="m 383.84154,394.76855 c 0,13.98093 -5.27153,25.31472 -11.77428,25.31472 -6.50275,0 -11.77428,-11.33379 -11.77428,-25.31472 0,-13.98092 5.27153,-25.31471 11.77428,-25.31471 6.50275,0 11.77428,11.33379 11.77428,25.31471 z"
             id="path609"
             style="fill:#ffffff;fill-rule:evenodd;stroke:#2042a1;stroke-width:1pt"
             transform="matrix(0.995563,-0.07433364,0.09409678,0.786466,-47.26944,111.3649)"
             ry="25.314713"
             rx="11.774277"
             cy="394.76855"
             cx="372.06726"
             sodipodi:cx="372.06726"
             sodipodi:cy="394.76855"
             sodipodi:rx="11.774277"
             sodipodi:ry="25.314713" />
          <ellipse
             d="m 383.84154,394.76855 c 0,13.98093 -5.27153,25.31472 -11.77428,25.31472 -6.50275,0 -11.77428,-11.33379 -11.77428,-25.31472 0,-13.98092 5.27153,-25.31471 11.77428,-25.31471 6.50275,0 11.77428,11.33379 11.77428,25.31471 z"
             id="path610"
             style="fill:#ffffff;fill-rule:evenodd;stroke:#2042a1;stroke-width:1pt"
             transform="matrix(0.933936,0.352752,-0.246593,0.752712,143.1215,-34.21458)"
             ry="25.314713"
             rx="11.774277"
             cy="394.76855"
             cx="372.06726"
             sodipodi:cx="372.06726"
             sodipodi:cy="394.76855"
             sodipodi:rx="11.774277"
             sodipodi:ry="25.314713" />
          <ellipse
             d="m 383.84154,394.76855 c 0,13.98093 -5.27153,25.31472 -11.77428,25.31472 -6.50275,0 -11.77428,-11.33379 -11.77428,-25.31472 0,-13.98092 5.27153,-25.31471 11.77428,-25.31471 6.50275,0 11.77428,11.33379 11.77428,25.31471 z"
             id="path611"
             style="fill:#ffffff;fill-rule:evenodd;stroke:#2042a1;stroke-width:1pt"
             transform="matrix(0.997291,0.04563668,-9.317825e-4,0.792075,6.086071,60.98149)"
             ry="25.314713"
             rx="11.774277"
             cy="394.76855"
             cx="372.06726"
             sodipodi:cx="372.06726"
             sodipodi:cy="394.76855"
             sodipodi:rx="11.774277"
             sodipodi:ry="25.314713" />
          <ellipse
             d="m 383.84154,394.76855 c 0,13.98093 -5.27153,25.31472 -11.77428,25.31472 -6.50275,0 -11.77428,-11.33379 -11.77428,-25.31472 0,-13.98092 5.27153,-25.31471 11.77428,-25.31471 6.50275,0 11.77428,11.33379 11.77428,25.31471 z"
             id="path612"
             style="fill:#ffffff;fill-rule:evenodd;stroke:#2042a1;stroke-width:1pt"
             transform="matrix(0.997291,0.04563668,-9.317825e-4,0.792075,-17.46251,32.72321)"
             ry="25.314713"
             rx="11.774277"
             cy="394.76855"
             cx="372.06726"
             sodipodi:cx="372.06726"
             sodipodi:cy="394.76855"
             sodipodi:rx="11.774277"
             sodipodi:ry="25.314713" />
          <ellipse
             d="m 383.84154,394.76855 c 0,13.98093 -5.27153,25.31472 -11.77428,25.31472 -6.50275,0 -11.77428,-11.33379 -11.77428,-25.31472 0,-13.98092 5.27153,-25.31471 11.77428,-25.31471 6.50275,0 11.77428,11.33379 11.77428,25.31471 z"
             id="path613"
             style="fill:#ffffff;fill-rule:evenodd;stroke:#2042a1;stroke-width:1pt"
             transform="matrix(0.997291,0.04563668,-9.317825e-4,0.792075,0.198963,32.72321)"
             ry="25.314713"
             rx="11.774277"
             cy="394.76855"
             cx="372.06726"
             sodipodi:cx="372.06726"
             sodipodi:cy="394.76855"
             sodipodi:rx="11.774277"
             sodipodi:ry="25.314713" />
          <ellipse
             d="m 383.84154,394.76855 c 0,13.98093 -5.27153,25.31472 -11.77428,25.31472 -6.50275,0 -11.77428,-11.33379 -11.77428,-25.31472 0,-13.98092 5.27153,-25.31471 11.77428,-25.31471 6.50275,0 11.77428,11.33379 11.77428,25.31471 z"
             id="path616"
             style="fill:#ffffff;fill-rule:evenodd;stroke:#2042a1;stroke-width:1pt"
             transform="matrix(0.954015,0.294156,-0.19944,0.766556,109.9718,-76.74922)"
             ry="25.314713"
             rx="11.774277"
             cy="394.76855"
             cx="372.06726"
             sodipodi:cx="372.06726"
             sodipodi:cy="394.76855"
             sodipodi:rx="11.774277"
             sodipodi:ry="25.314713" />
          <ellipse
             d="m 383.84154,394.76855 c 0,13.98093 -5.27153,25.31472 -11.77428,25.31472 -6.50275,0 -11.77428,-11.33379 -11.77428,-25.31472 0,-13.98092 5.27153,-25.31471 11.77428,-25.31471 6.50275,0 11.77428,11.33379 11.77428,25.31471 z"
             id="path614"
             style="fill:#ffffff;fill-rule:evenodd;stroke:#2042a1;stroke-width:1pt"
             transform="matrix(0.954015,0.294156,-0.19944,0.766556,114.6815,-52.02335)"
             ry="25.314713"
             rx="11.774277"
             cy="394.76855"
             cx="372.06726"
             sodipodi:cx="372.06726"
             sodipodi:cy="394.76855"
             sodipodi:rx="11.774277"
             sodipodi:ry="25.314713" />
          <ellipse
             d="m 383.84154,394.76855 c 0,13.98093 -5.27153,25.31472 -11.77428,25.31472 -6.50275,0 -11.77428,-11.33379 -11.77428,-25.31472 0,-13.98092 5.27153,-25.31471 11.77428,-25.31471 6.50275,0 11.77428,11.33379 11.77428,25.31471 z"
             id="path615"
             style="fill:#ffffff;fill-rule:evenodd;stroke:#2042a1;stroke-width:1pt"
             transform="matrix(0.954015,0.294156,-0.19944,0.766556,128.8106,-47.31364)"
             ry="25.314713"
             rx="11.774277"
             cy="394.76855"
             cx="372.06726"
             sodipodi:cx="372.06726"
             sodipodi:cy="394.76855"
             sodipodi:rx="11.774277"
             sodipodi:ry="25.314713" />
          <ellipse
             d="m 383.84154,394.76855 c 0,13.98093 -5.27153,25.31472 -11.77428,25.31472 -6.50275,0 -11.77428,-11.33379 -11.77428,-25.31472 0,-13.98092 5.27153,-25.31471 11.77428,-25.31471 6.50275,0 11.77428,11.33379 11.77428,25.31471 z"
             id="path617"
             style="fill:#ffffff;fill-rule:evenodd;stroke:#2042a1;stroke-width:1pt"
             transform="matrix(0.954015,0.294156,-0.19944,0.766556,120.5687,-105.0075)"
             ry="25.314713"
             rx="11.774277"
             cy="394.76855"
             cx="372.06726"
             sodipodi:cx="372.06726"
             sodipodi:cy="394.76855"
             sodipodi:rx="11.774277"
             sodipodi:ry="25.314713" />
          <ellipse
             d="m 383.84154,394.76855 c 0,13.98093 -5.27153,25.31472 -11.77428,25.31472 -6.50275,0 -11.77428,-11.33379 -11.77428,-25.31472 0,-13.98092 5.27153,-25.31471 11.77428,-25.31471 6.50275,0 11.77428,11.33379 11.77428,25.31471 z"
             id="path628"
             style="fill:#ffffff;fill-rule:evenodd;stroke:#2042a1;stroke-width:1pt"
             transform="matrix(0.995806,0.07101902,-0.02110274,0.791795,53.45672,-141.4498)"
             ry="25.314713"
             rx="11.774277"
             cy="394.76855"
             cx="372.06726"
             sodipodi:cx="372.06726"
             sodipodi:cy="394.76855"
             sodipodi:rx="11.774277"
             sodipodi:ry="25.314713" />
          <ellipse
             d="m 383.84154,394.76855 c 0,13.98093 -5.27153,25.31472 -11.77428,25.31472 -6.50275,0 -11.77428,-11.33379 -11.77428,-25.31472 0,-13.98092 5.27153,-25.31471 11.77428,-25.31471 6.50275,0 11.77428,11.33379 11.77428,25.31471 z"
             id="path618"
             style="fill:#ffffff;fill-rule:evenodd;stroke:#2042a1;stroke-width:1pt"
             transform="matrix(0.954015,0.294156,-0.19944,0.766556,126.4558,-79.10419)"
             ry="25.314713"
             rx="11.774277"
             cy="394.76855"
             cx="372.06726"
             sodipodi:cx="372.06726"
             sodipodi:cy="394.76855"
             sodipodi:rx="11.774277"
             sodipodi:ry="25.314713" />
          <ellipse
             d="m 383.84154,394.76855 c 0,13.98093 -5.27153,25.31472 -11.77428,25.31472 -6.50275,0 -11.77428,-11.33379 -11.77428,-25.31472 0,-13.98092 5.27153,-25.31471 11.77428,-25.31471 6.50275,0 11.77428,11.33379 11.77428,25.31471 z"
             id="path619"
             style="fill:#ffffff;fill-rule:evenodd;stroke:#2042a1;stroke-width:1pt"
             transform="matrix(0.954015,0.294156,-0.19944,0.766556,140.5849,-75.57185)"
             ry="25.314713"
             rx="11.774277"
             cy="394.76855"
             cx="372.06726"
             sodipodi:cx="372.06726"
             sodipodi:cy="394.76855"
             sodipodi:rx="11.774277"
             sodipodi:ry="25.314713" />
          <ellipse
             d="m 383.84154,394.76855 c 0,13.98093 -5.27153,25.31472 -11.77428,25.31472 -6.50275,0 -11.77428,-11.33379 -11.77428,-25.31472 0,-13.98092 5.27153,-25.31471 11.77428,-25.31471 6.50275,0 11.77428,11.33379 11.77428,25.31471 z"
             id="path626"
             style="fill:#ffffff;fill-rule:evenodd;stroke:#2042a1;stroke-width:1pt"
             transform="matrix(0.995806,0.07101902,-0.02110274,0.791795,41.68243,-116.7238)"
             ry="25.314713"
             rx="11.774277"
             cy="394.76855"
             cx="372.06726"
             sodipodi:cx="372.06726"
             sodipodi:cy="394.76855"
             sodipodi:rx="11.774277"
             sodipodi:ry="25.314713" />
          <ellipse
             d="m 383.84154,394.76855 c 0,13.98093 -5.27153,25.31472 -11.77428,25.31472 -6.50275,0 -11.77428,-11.33379 -11.77428,-25.31472 0,-13.98092 5.27153,-25.31471 11.77428,-25.31471 6.50275,0 11.77428,11.33379 11.77428,25.31471 z"
             id="path627"
             style="fill:#ffffff;fill-rule:evenodd;stroke:#2042a1;stroke-width:1pt"
             transform="matrix(0.991217,0.118997,-0.05929273,0.789854,78.48193,-133.8086)"
             ry="25.314713"
             rx="11.774277"
             cy="394.76855"
             cx="372.06726"
             sodipodi:cx="372.06726"
             sodipodi:cy="394.76855"
             sodipodi:rx="11.774277"
             sodipodi:ry="25.314713" />
          <ellipse
             d="m 383.84154,394.76855 c 0,13.98093 -5.27153,25.31472 -11.77428,25.31472 -6.50275,0 -11.77428,-11.33379 -11.77428,-25.31472 0,-13.98092 5.27153,-25.31471 11.77428,-25.31471 6.50275,0 11.77428,11.33379 11.77428,25.31471 z"
             id="path624"
             style="fill:#ffffff;fill-rule:evenodd;stroke:#2042a1;stroke-width:1pt"
             transform="matrix(0.995806,0.07101902,-0.02110274,0.791795,39.32761,-94.35283)"
             ry="25.314713"
             rx="11.774277"
             cy="394.76855"
             cx="372.06726"
             sodipodi:cx="372.06726"
             sodipodi:cy="394.76855"
             sodipodi:rx="11.774277"
             sodipodi:ry="25.314713" />
          <ellipse
             d="m 383.84154,394.76855 c 0,13.98093 -5.27153,25.31472 -11.77428,25.31472 -6.50275,0 -11.77428,-11.33379 -11.77428,-25.31472 0,-13.98092 5.27153,-25.31471 11.77428,-25.31471 6.50275,0 11.77428,11.33379 11.77428,25.31471 z"
             id="path625"
             style="fill:#ffffff;fill-rule:evenodd;stroke:#2042a1;stroke-width:1pt"
             transform="matrix(0.991217,0.118997,-0.05929273,0.789854,76.12712,-109.0827)"
             ry="25.314713"
             rx="11.774277"
             cy="394.76855"
             cx="372.06726"
             sodipodi:cx="372.06726"
             sodipodi:cy="394.76855"
             sodipodi:rx="11.774277"
             sodipodi:ry="25.314713" />
          <ellipse
             d="m 383.84154,394.76855 c 0,13.98093 -5.27153,25.31472 -11.77428,25.31472 -6.50275,0 -11.77428,-11.33379 -11.77428,-25.31472 0,-13.98092 5.27153,-25.31471 11.77428,-25.31471 6.50275,0 11.77428,11.33379 11.77428,25.31471 z"
             id="path620"
             style="fill:#ffffff;fill-rule:evenodd;stroke:#2042a1;stroke-width:1pt"
             transform="matrix(0.995806,0.07101902,-0.02110274,0.791795,41.68242,-64.91702)"
             ry="25.314713"
             rx="11.774277"
             cy="394.76855"
             cx="372.06726"
             sodipodi:cx="372.06726"
             sodipodi:cy="394.76855"
             sodipodi:rx="11.774277"
             sodipodi:ry="25.314713" />
          <ellipse
             d="m 383.84154,394.76855 c 0,13.98093 -5.27153,25.31472 -11.77428,25.31472 -6.50275,0 -11.77428,-11.33379 -11.77428,-25.31472 0,-13.98092 5.27153,-25.31471 11.77428,-25.31471 6.50275,0 11.77428,11.33379 11.77428,25.31471 z"
             id="path621"
             style="fill:#ffffff;fill-rule:evenodd;stroke:#2042a1;stroke-width:1pt"
             transform="matrix(0.954015,0.294156,-0.19944,0.766556,137.0526,-109.7174)"
             ry="25.314713"
             rx="11.774277"
             cy="394.76855"
             cx="372.06726"
             sodipodi:cx="372.06726"
             sodipodi:cy="394.76855"
             sodipodi:rx="11.774277"
             sodipodi:ry="25.314713" />
          <ellipse
             d="m 383.84154,394.76855 c 0,13.98093 -5.27153,25.31472 -11.77428,25.31472 -6.50275,0 -11.77428,-11.33379 -11.77428,-25.31472 0,-13.98092 5.27153,-25.31471 11.77428,-25.31471 6.50275,0 11.77428,11.33379 11.77428,25.31471 z"
             id="path622"
             style="fill:#ffffff;fill-rule:evenodd;stroke:#2042a1;stroke-width:1pt"
             transform="matrix(0.954015,0.294156,-0.19944,0.766556,152.3591,-105.0077)"
             ry="25.314713"
             rx="11.774277"
             cy="394.76855"
             cx="372.06726"
             sodipodi:cx="372.06726"
             sodipodi:cy="394.76855"
             sodipodi:rx="11.774277"
             sodipodi:ry="25.314713" />
          <ellipse
             d="m 383.84154,394.76855 c 0,13.98093 -5.27153,25.31472 -11.77428,25.31472 -6.50275,0 -11.77428,-11.33379 -11.77428,-25.31472 0,-13.98092 5.27153,-25.31471 11.77428,-25.31471 6.50275,0 11.77428,11.33379 11.77428,25.31471 z"
             id="path623"
             style="fill:#ffffff;fill-rule:evenodd;stroke:#2042a1;stroke-width:1pt"
             transform="matrix(0.991217,0.118997,-0.05929273,0.789854,80.83679,-82.00183)"
             ry="25.314713"
             rx="11.774277"
             cy="394.76855"
             cx="372.06726"
             sodipodi:cx="372.06726"
             sodipodi:cy="394.76855"
             sodipodi:rx="11.774277"
             sodipodi:ry="25.314713" />
        </g>
      </g>
    </g>
  </g>
</svg>
