<?xml version="1.0" encoding="UTF-8" standalone="no"?>
<!-- Created with Sodipodi ("http://www.sodipodi.com/") -->

<svg
   xmlns:dc="http://purl.org/dc/elements/1.1/"
   xmlns:cc="http://creativecommons.org/ns#"
   xmlns:rdf="http://www.w3.org/1999/02/22-rdf-syntax-ns#"
   xmlns:svg="http://www.w3.org/2000/svg"
   xmlns="http://www.w3.org/2000/svg"
   xmlns:sodipodi="http://sodipodi.sourceforge.net/DTD/sodipodi-0.dtd"
   xmlns:inkscape="http://www.inkscape.org/namespaces/inkscape"
   id="svg672"
   sodipodi:version="0.33pre"
   width="512"
   height="512"
   sodipodi:docname="mo.svg"
   version="1.1"
   inkscape:version="0.48.1 r9760">
  <sodipodi:namedview
     id="base"
     snaptogrid="false"
     snaptoguides="false"
     showgrid="false"
     inkscape:zoom="0.44080424"
     inkscape:cx="372.04724"
     inkscape:cy="248.03149"
     inkscape:window-width="1280"
     inkscape:window-height="723"
     inkscape:window-x="0"
     inkscape:window-y="24"
     inkscape:window-maximized="1"
     inkscape:current-layer="svg672" />
  <metadata
     id="metadata3636">
    <rdf:RDF>
      <cc:Work
         rdf:about="">
        <dc:format>image/svg+xml</dc:format>
        <dc:type
           rdf:resource="http://purl.org/dc/dcmitype/StillImage" />
      </cc:Work>
    </rdf:RDF>
  </metadata>
  <defs
     id="defs674">
    <clipPath
       clipPathUnits="userSpaceOnUse"
       id="clipPath6890">
      <rect
         id="rect6892"
         height="496.06299"
         x="124.01575"
         style="fill:#000000;fill-opacity:0.67000002;stroke:none"
         width="496.06299"
         y="-1.1180649e-05" />
    </clipPath>
  </defs>
  <g
     transform="matrix(1.032127,0,0,1.032127,-128,1.153985e-5)"
     id="flag"
     clip-path="url(#clipPath6890)"
     inkscape:label="#g6841">
    <rect
       style="font-size:12px;fill:#199d00;fill-opacity:1;fill-rule:evenodd;stroke:none"
       id="rect681"
       width="744.09448"
       height="496.06299"
       x="0"
       y="-7.5999997e-05"
       transform="translate(0,6.103516e-5)" />
    <path
       inkscape:connector-curvature="0"
       style="font-size:12px;fill:#feffff;fill-rule:evenodd;stroke-width:1pt;stroke-linejoin:round"
       d="m 370.795,277.772 c -11.663,8.12 -23.864,15.299 -35.527,23.419 -14.615,1.034 -28.788,1.181 -43.846,0.443 0,0 -31.445,-5.314 -39.417,-19.044 -0.443,-1.329 10.186,-6.201 10.186,-6.201 16.092,11.368 33.955,21.407 67.32,19.931 -41.189,-3.691 -69.091,-26.426 -77.506,-47.39 22.292,-15.649 59.2,-15.354 89.464,6.2 -9.448,-11.81 -41.041,-24.949 -64.662,-21.258 -3.396,-3.544 -6.348,-7.973 -9.744,-11.516 27.164,-6.053 64.958,11.368 78.835,25.688 -14.615,-23.473 -25.245,-50.047 -7.972,-82.378 3.395,3.248 7.234,6.496 10.629,9.744 -12.991,23.768 -8.267,51.523 2.215,70.862 -18.159,-37.498 -3.544,-74.553 20.372,-92.564 27.902,16.83 35.875,61.562 19.488,93.451 9.3,-5.315 16.83,-45.176 3.986,-71.749 2.953,-3.543 5.905,-7.086 8.858,-10.629 19.34,26.13 7.677,68.205 -8.415,84.149 12.253,-10.63 43.993,-31.445 81.049,-26.573 -2.953,3.543 -7.677,6.643 -10.63,10.186 -30.412,-1.181 -55.065,11.81 -65.99,23.03 26.721,-17.715 63.628,-26.574 90.792,-6.643 -12.548,33.512 -48.128,43.551 -77.506,46.503 24.949,1.919 48.128,-5.462 66.877,-18.601 3.543,1.919 7.086,3.839 10.629,5.758 -7.972,7.529 -19.487,15.058 -35.874,17.272 -15.796,2.067 -30.707,1.477 -46.503,1.772 -12.253,-7.972 -24.855,-15.891 -37.108,-23.862 z"
       id="path678"
       sodipodi:nodetypes="ccccccccccccccccccccccccccccc" />
    <path
       inkscape:connector-curvature="0"
       style="font-size:12px;fill:#ffffff;fill-rule:evenodd;stroke-width:1pt"
       d="m 370.795,285.612 -30.378,22.861 -81.424,-0.313 c 1,3.281 4.113,7.474 5.95,9.395 l 80.798,0.314 25.054,-19.417 24.114,19.103 81.738,0 c 2.349,-2.505 4.854,-5.95 7.046,-8.925 l -82.834,0.157 -30.064,-23.175 z"
       id="path683"
       sodipodi:nodetypes="ccccccccccc" />
    <path
       inkscape:connector-curvature="0"
       style="font-size:12px;fill:#ffffff;fill-rule:evenodd;stroke-width:0.95193501pt;stroke-linejoin:round"
       d="m 324.132,364.134 c 23.384,11.542 73.074,10.595 95.518,-0.283 l -95.518,0.283 z"
       id="path687"
       sodipodi:nodetypes="ccc" />
    <path
       inkscape:connector-curvature="0"
       style="font-size:12px;fill:#ffffff;fill-rule:evenodd;stroke-width:1pt;stroke-linejoin:round"
       d="m 270.359,325.385 c 0.94,0 200.808,-0.157 200.808,-0.157 -3.497,3.967 -7.621,8.247 -11.901,11.9 l -178.627,-0.782 c -3.353,-2.325 -7.813,-7.75 -10.28,-10.961 z"
       id="path688"
       sodipodi:nodetypes="ccccc" />
    <path
       inkscape:connector-curvature="0"
       style="font-size:12px;fill:#ffffff;fill-rule:evenodd;stroke-width:1pt;stroke-linejoin:round"
       d="m 284.153,339.79 172.45,0.471 c -3.236,2.505 -5.845,5.48 -9.551,7.359 l -153.298,-0.13 c -3.539,-1.902 -7.169,-5.133 -9.601,-7.7 z"
       id="path689"
       sodipodi:nodetypes="ccccc" />
    <path
       inkscape:connector-curvature="0"
       style="font-size:12px;fill:#ffffff;fill-rule:evenodd;stroke-width:1.0493pt;stroke-linejoin:round"
       d="m 299.862,352.624 140.927,-0.344 c -3.758,2.413 -7.986,4.983 -12.683,7.24 l -115.561,0 c -3.915,-1.359 -8.456,-4.284 -12.683,-6.896 z"
       id="path690"
       sodipodi:nodetypes="ccccc" />
    <polygon
       d="m 205.58449,128.73621 -10.01635,-6.84893 -9.90282,7.01206 3.41849,-11.64254 -9.72901,-7.2513 12.12909,-0.34657 3.88997,-11.493607 4.0777,11.428357 12.13314,0.14786 -9.60893,7.40967 z"
       inkscape:randomized="0"
       inkscape:rounded="0"
       inkscape:flatsided="false"
       sodipodi:type="star"
       style="font-size:12px;fill:#feb700;fill-rule:evenodd;stroke-width:1pt"
       id="polygon564"
       sodipodi:sides="5"
       sodipodi:cx="195.51263"
       sodipodi:cy="115.10958"
       sodipodi:r1="16.944826"
       sodipodi:r2="6.7779307"
       sodipodi:arg1="0.93428808"
       sodipodi:arg2="1.5626066"
       points="205.584,128.736 195.568,121.887 185.665,128.899 189.084,117.257 179.355,110.006 191.484,109.659 195.374,98.1653 199.452,109.594 211.585,109.742 201.976,117.151 205.584,128.736 "
       transform="matrix(0.692721,0.271214,-0.271214,0.692721,338.05,8.336662)" />
    <polygon
       d="m 205.58449,128.73621 -10.01635,-6.84893 -9.90282,7.01206 3.41849,-11.64254 -9.72901,-7.2513 12.12909,-0.34657 3.88997,-11.493607 4.0777,11.428357 12.13314,0.14786 -9.60893,7.40967 z"
       inkscape:randomized="0"
       inkscape:rounded="0"
       inkscape:flatsided="false"
       sodipodi:type="star"
       style="font-size:12px;fill:#feb700;fill-rule:evenodd;stroke-width:1pt"
       id="polygon714"
       sodipodi:sides="5"
       sodipodi:cx="195.51263"
       sodipodi:cy="115.10958"
       sodipodi:r1="16.944826"
       sodipodi:r2="6.7779307"
       sodipodi:arg1="0.93428808"
       sodipodi:arg2="1.5626066"
       points="205.584,128.736 195.568,121.887 185.665,128.899 189.084,117.257 179.355,110.006 191.484,109.659 195.374,98.1653 199.452,109.594 211.585,109.742 201.976,117.151 205.584,128.736 "
       transform="matrix(1.005342,0,0,1.005342,175.1531,13.22089)" />
    <polygon
       d="m 205.58449,128.73621 -10.01635,-6.84893 -9.90282,7.01206 3.41849,-11.64254 -9.72901,-7.2513 12.12909,-0.34657 3.88997,-11.493607 4.0777,11.428357 12.13314,0.14786 -9.60893,7.40967 z"
       inkscape:randomized="0"
       inkscape:rounded="0"
       inkscape:flatsided="false"
       sodipodi:type="star"
       style="font-size:12px;fill:#feb700;fill-rule:evenodd;stroke-width:1pt"
       id="polygon715"
       sodipodi:sides="5"
       sodipodi:cx="195.51263"
       sodipodi:cy="115.10958"
       sodipodi:r1="16.944826"
       sodipodi:r2="6.7779307"
       sodipodi:arg1="0.93428808"
       sodipodi:arg2="1.5626066"
       points="205.584,128.736 195.568,121.887 185.665,128.899 189.084,117.257 179.355,110.006 191.484,109.659 195.374,98.1653 199.452,109.594 211.585,109.742 201.976,117.151 205.584,128.736 "
       transform="matrix(0.72912,-0.147654,0.147654,0.72912,318.8847,139.2056)" />
    <polygon
       d="m 205.58449,128.73621 -10.01635,-6.84893 -9.90282,7.01206 3.41849,-11.64254 -9.72901,-7.2513 12.12909,-0.34657 3.88997,-11.493607 4.0777,11.428357 12.13314,0.14786 -9.60893,7.40967 z"
       inkscape:randomized="0"
       inkscape:rounded="0"
       inkscape:flatsided="false"
       sodipodi:type="star"
       style="font-size:12px;fill:#feb700;fill-rule:evenodd;stroke-width:1pt"
       id="polygon716"
       sodipodi:sides="5"
       sodipodi:cx="195.51263"
       sodipodi:cy="115.10958"
       sodipodi:r1="16.944826"
       sodipodi:r2="6.7779307"
       sodipodi:arg1="0.93428808"
       sodipodi:arg2="1.5626066"
       points="205.584,128.736 195.568,121.887 185.665,128.899 189.084,117.257 179.355,110.006 191.484,109.659 195.374,98.1653 199.452,109.594 211.585,109.742 201.976,117.151 205.584,128.736 "
       transform="matrix(-0.69272,0.271214,0.271214,0.69272,403.8054,8.197807)" />
    <polygon
       d="m 205.58449,128.73621 -10.01635,-6.84893 -9.90282,7.01206 3.41849,-11.64254 -9.72901,-7.2513 12.12909,-0.34657 3.88997,-11.493607 4.0777,11.428357 12.13314,0.14786 -9.60893,7.40967 z"
       inkscape:randomized="0"
       inkscape:rounded="0"
       inkscape:flatsided="false"
       sodipodi:type="star"
       style="font-size:12px;fill:#feb700;fill-rule:evenodd;stroke-width:1pt"
       id="polygon717"
       sodipodi:sides="5"
       sodipodi:cx="195.51263"
       sodipodi:cy="115.10958"
       sodipodi:r1="16.944826"
       sodipodi:r2="6.7779307"
       sodipodi:arg1="0.93428808"
       sodipodi:arg2="1.5626066"
       points="205.584,128.736 195.568,121.887 185.665,128.899 189.084,117.257 179.355,110.006 191.484,109.659 195.374,98.1653 199.452,109.594 211.585,109.742 201.976,117.151 205.584,128.736 "
       transform="matrix(-0.72912,-0.147654,-0.147654,0.72912,420.9945,138.8833)" />
  </g>
</svg>
