<?xml version="1.0" encoding="UTF-8" standalone="no"?>
<!-- Created with Sodipodi ("http://www.sodipodi.com/") -->

<svg
   xmlns:dc="http://purl.org/dc/elements/1.1/"
   xmlns:cc="http://creativecommons.org/ns#"
   xmlns:rdf="http://www.w3.org/1999/02/22-rdf-syntax-ns#"
   xmlns:svg="http://www.w3.org/2000/svg"
   xmlns="http://www.w3.org/2000/svg"
   xmlns:sodipodi="http://sodipodi.sourceforge.net/DTD/sodipodi-0.dtd"
   xmlns:inkscape="http://www.inkscape.org/namespaces/inkscape"
   id="svg548"
   sodipodi:version="0.33pre"
   width="512"
   height="512"
   sodipodi:docname="ms.svg"
   version="1.1"
   inkscape:version="0.48.1 r9760">
  <sodipodi:namedview
     id="base"
     showgrid="false"
     inkscape:zoom="0.98242193"
     inkscape:cx="256"
     inkscape:cy="255.99998"
     inkscape:window-width="1280"
     inkscape:window-height="723"
     inkscape:window-x="0"
     inkscape:window-y="24"
     inkscape:window-maximized="1"
     inkscape:current-layer="svg548" />
  <metadata
     id="metadata3716">
    <rdf:RDF>
      <cc:Work
         rdf:about="">
        <dc:format>image/svg+xml</dc:format>
        <dc:type
           rdf:resource="http://purl.org/dc/dcmitype/StillImage" />
      </cc:Work>
    </rdf:RDF>
  </metadata>
  <defs
     id="defs550" />
  <g
     id="flag"
     inkscape:label="#g3040">
    <rect
       inkscape:label="#rect877"
       style="font-size:12px;fill:#000066;stroke-width:1pt"
       id="rect877"
       x="0"
       y="3.0517578e-05"
       width="512"
       height="511.99997" />
    <g
       id="g678"
       transform="matrix(1.1350279,0,0,1.1421281,235.9486,209.34148)">
      <g
         id="g555">
        <path
           inkscape:connector-curvature="0"
           style="fill:#ffffff;fill-opacity:1;fill-rule:evenodd;stroke:none"
           d="m 40.1476,18.9127 177.1554,0 -0.211,126.0583 c 1.474,50.675 -30.111,82.12 -88.227,96.298 C 87.5946,231.021 40.0071,209.824 39.937,146.409 L 40.1476,18.9127 z"
           id="path552"
           sodipodi:nodetypes="cccccc" />
        <path
           inkscape:connector-curvature="0"
           style="fill:#00a2bd;fill-opacity:1;fill-rule:evenodd;stroke:#000000;stroke-width:1pt;stroke-linecap:butt;stroke-linejoin:miter;stroke-opacity:1"
           d="m 44.0689,22.7132 169.3031,0 -0.201,120.7948 c 1.408,48.558 -28.777,78.69 -84.317,92.276 C 89.4129,225.965 43.9345,205.652 43.8676,144.885 L 44.0689,22.7132 z"
           id="path553"
           sodipodi:nodetypes="cccccc" />
        <path
           inkscape:connector-curvature="0"
           style="fill:#a53d08;fill-opacity:1;fill-rule:evenodd;stroke:none"
           d="m 212.061,157.816 c -6.159,46.351 -41.856,66.603 -83.209,77.352 -36.6044,-9.819 -75.9837,-25.495 -83.6172,-77.119 l 166.8262,-0.233 z"
           id="path554"
           sodipodi:nodetypes="cccc" />
      </g>
      <g
         id="g580">
        <path
           inkscape:connector-curvature="0"
           style="fill:#ffc6b5;fill-opacity:1;fill-rule:evenodd;stroke:#000000;stroke-width:1.25;stroke-linecap:butt;stroke-linejoin:round;stroke-opacity:1;stroke-dasharray:none"
           d="m 155.77,197.174 c 0.094,0.094 0.658,9.295 -4.319,14.929 4.413,1.409 7.418,-0.282 8.826,-2.066 1.409,-1.784 1.879,-4.037 1.879,-4.037 0,0 1.22,-0.751 1.408,-2.441 0.094,-2.348 -0.939,-2.348 -1.784,-2.817 l 0.187,-5.258 c 0,0 -5.07,-3.099 -6.197,1.69 z"
           id="path578"
           sodipodi:nodetypes="cccccccc" />
        <path
           inkscape:connector-curvature="0"
           style="fill:#ff9a08;fill-opacity:1;fill-rule:evenodd;stroke:#000000;stroke-width:1pt;stroke-linecap:round;stroke-linejoin:miter;stroke-opacity:1"
           d="m 155.489,210.319 -1.503,-1.221"
           id="path579" />
      </g>
      <path
         inkscape:connector-curvature="0"
         style="fill:#ffc6b5;fill-opacity:1;fill-rule:evenodd;stroke:#000000;stroke-width:1pt;stroke-linecap:butt;stroke-linejoin:miter;stroke-opacity:1"
         d="m 141.641,69.3934 c 0,0 0.117,5.625 -0.235,6.211 -0.351,0.5859 -3.554,2.0703 -3.554,2.0703 l 2.734,5.8203 c 0,0 7.695,-1.0938 7.734,-1.0938 0.039,0 3.321,-8.7109 3.321,-8.7109 0,0 -1.719,-2.8906 -1.289,-5.8984 -2.578,-8.1641 -8.594,1.6406 -8.711,1.6015 z"
         id="path671"
         sodipodi:nodetypes="cccccccc" />
      <path
         inkscape:connector-curvature="0"
         style="fill:#005121;fill-opacity:1;fill-rule:evenodd;stroke:#000000;stroke-width:1.25;stroke-linecap:butt;stroke-linejoin:round;stroke-opacity:1;stroke-dasharray:none"
         d="m 131.452,203.089 c 0,0 4.319,4.319 9.295,3.756 11.268,-1.22 14.554,-11.267 18.028,-11.361 3.474,-0.094 5.634,6.103 8.92,5.352 -2.817,-5.164 -5.821,-16.619 -5.352,-24.694 0.47,-8.075 0.47,-42.065 0.47,-42.065 0,0 -5.634,-17.558 -8.263,-20.469 2.629,-2.817 4.413,-7.793 4.319,-13.239 -0.094,-5.4459 0,-11.4551 0,-11.4551 0,0 1.314,-1.5023 1.221,-5.7275 -0.094,-4.2252 -7.136,-10.3284 -8.075,-10.0467 -0.939,0.2817 -9.765,7.8871 -10.516,9.6711 -0.752,1.784 -1.784,-6.4787 -0.094,-7.2299 1.69,-0.7511 -3.944,-1.2206 -7.512,3.0047 -3.568,4.2252 -2.535,124.6914 -2.441,124.5034 z"
         id="path583"
         sodipodi:nodetypes="ccccccccccccccc" />
      <path
         inkscape:connector-curvature="0"
         style="fill:#000000;fill-opacity:1;fill-rule:evenodd;stroke:none"
         d="m 89.102,45.0969 33.044,0.118 -0.236,-15.2241 12.038,0.118 0.118,15.1061 32.926,0 0.118,11.8016 -33.044,0.118 -0.264,139.1805 -11.742,0.074 -0.15,-139.3726 -32.815,0.1181 0.007,-12.0376 z"
         id="path559"
         sodipodi:nodetypes="ccccccccccccc" />
      <path
         inkscape:connector-curvature="0"
         style="fill:#ffc6b5;fill-opacity:1;fill-rule:evenodd;stroke:#000000;stroke-width:1pt;stroke-linecap:butt;stroke-linejoin:miter;stroke-opacity:1"
         d="m 122.031,81.959 c 0,0 -2.258,-0.3984 -3.984,0.1328 -1.726,0.5312 2.656,-19.586 2.656,-21.2458 1.527,-0.7304 9.162,-2.1246 8.963,-7.5024 -0.531,-3.2533 -11.818,0.1991 -11.619,4.3155 -0.73,2.0582 -8.099,23.0384 -6.639,29.9433 2.589,2.0583 7.37,1.6598 10.623,1.1287 l 0,-6.7721 z"
         id="path560"
         sodipodi:nodetypes="cccccccc" />
      <path
         inkscape:connector-curvature="0"
         style="fill:none;stroke:#000000;stroke-width:0.625;stroke-linecap:round;stroke-linejoin:miter;stroke-opacity:1;stroke-dasharray:none"
         d="m 124.222,53.2108 c 0,0 -0.664,3.718 2.722,4.2491"
         id="path561" />
      <path
         inkscape:connector-curvature="0"
         style="fill:none;stroke:#000000;stroke-width:0.375;stroke-linecap:butt;stroke-linejoin:miter;stroke-opacity:1;stroke-dasharray:none"
         d="m 129.201,53.1444 c -0.133,0.0664 -4.382,2.7221 -4.382,2.7221"
         id="path563" />
      <path
         inkscape:connector-curvature="0"
         style="fill:none;stroke:#000000;stroke-width:0.375;stroke-linecap:butt;stroke-linejoin:miter;stroke-opacity:1;stroke-dasharray:none"
         d="m 128.936,54.8042 -2.988,2.191"
         id="path564" />
      <path
         inkscape:connector-curvature="0"
         style="fill:none;stroke:#000000;stroke-width:0.375;stroke-linecap:butt;stroke-linejoin:miter;stroke-opacity:1;stroke-dasharray:none"
         d="m 127.807,52.3477 -3.32,1.9918"
         id="path565" />
      <path
         inkscape:connector-curvature="0"
         style="fill:#ff9a08;fill-opacity:1;fill-rule:evenodd;stroke:#000000;stroke-width:1pt;stroke-linecap:butt;stroke-linejoin:miter;stroke-opacity:1"
         d="m 95.4904,163.56 30.1396,31.267 c 10.422,-11.455 3.193,-54.272 -10.515,-62.158 -1.643,5.07 -4.437,11.149 -7.407,13.109 -6.534,4.453 -22.546,9.659 -17.194,12.993 1.2206,-1.69 4.413,-3.286 5.9153,0.47 1.784,5.915 -6.6665,6.291 -6.6665,6.291 0,0 -5.3519,-0.658 -6.2909,-6.104 -0.9389,-5.445 7.9717,-10.417 8.7322,-10.797 0.7511,-0.282 12.3939,-3.38 14.3659,-13.709 2.441,-10.141 4.976,-8.638 5.446,-8.826 15.21,1.502 25.163,28.732 25.727,47.886 0.563,19.154 -7.793,31.83 -9.296,32.675 -1.502,0.845 -36.2429,-41.219 -36.2429,-41.219 l 3.2863,-1.878 z"
         id="path566"
         sodipodi:nodetypes="cccsccccscccccc" />
      <path
         inkscape:connector-curvature="0"
         style="fill:none;stroke:#000000;stroke-width:1pt;stroke-linecap:butt;stroke-linejoin:miter;stroke-opacity:1"
         d="m 117.462,134.453 0.187,56.43"
         id="path567" />
      <path
         inkscape:connector-curvature="0"
         style="fill:none;stroke:#000000;stroke-width:1pt;stroke-linecap:butt;stroke-linejoin:miter;stroke-opacity:1"
         d="m 114.082,135.485 c 0,0.094 0.187,51.267 0.187,51.267"
         id="path568"
         sodipodi:nodetypes="cc" />
      <path
         inkscape:connector-curvature="0"
         style="fill:none;stroke:#000000;stroke-width:1pt;stroke-linecap:butt;stroke-linejoin:miter;stroke-opacity:1"
         d="m 110.42,142.903 0.187,40.75"
         id="path569"
         sodipodi:nodetypes="cc" />
      <path
         inkscape:connector-curvature="0"
         style="fill:none;stroke:#000000;stroke-width:1pt;stroke-linecap:butt;stroke-linejoin:miter;stroke-opacity:1"
         d="m 107.415,145.813 0.188,33.709"
         id="path570"
         sodipodi:nodetypes="cc" />
      <path
         inkscape:connector-curvature="0"
         style="fill:none;stroke:#000000;stroke-width:1pt;stroke-linecap:butt;stroke-linejoin:miter;stroke-opacity:1"
         d="m 104.223,147.316 0,28.45"
         id="path571" />
      <path
         inkscape:connector-curvature="0"
         style="fill:none;stroke:#000000;stroke-width:1pt;stroke-linecap:butt;stroke-linejoin:miter;stroke-opacity:1"
         d="m 100.748,149.57 0,22.534"
         id="path572" />
      <path
         inkscape:connector-curvature="0"
         style="fill:none;stroke:#000000;stroke-width:1pt;stroke-linecap:butt;stroke-linejoin:miter;stroke-opacity:1"
         d="m 97.7439,151.354 0,17.276"
         id="path573" />
      <path
         inkscape:connector-curvature="0"
         style="fill:none;stroke:#ffdf00;stroke-width:1.25;stroke-linecap:round;stroke-linejoin:miter;stroke-opacity:1;stroke-dasharray:none"
         d="M 95.0209,167.128 126.1,202.714"
         id="path574" />
      <path
         inkscape:connector-curvature="0"
         style="fill:none;stroke:#ffdf00;stroke-width:1.25;stroke-linecap:round;stroke-linejoin:miter;stroke-opacity:1;stroke-dasharray:none"
         d="m 127.602,144.687 c 0,0 14.085,30.798 1.033,56.149"
         id="path575"
         sodipodi:nodetypes="cc" />
      <path
         inkscape:connector-curvature="0"
         style="fill:none;stroke:#ffdf00;stroke-width:1.25;stroke-linecap:round;stroke-linejoin:miter;stroke-opacity:1;stroke-dasharray:none"
         d="m 91.359,160.649 c 0,0 1.0329,-2.723 2.3474,-1.596"
         id="path576" />
      <path
         inkscape:connector-curvature="0"
         style="fill:none;stroke:#ffdf00;stroke-width:1.25;stroke-linecap:round;stroke-linejoin:miter;stroke-opacity:1;stroke-dasharray:none"
         d="m 88.9178,152.762 c 0,0 -5.6337,4.976 -2.5351,8.169"
         id="path577"
         sodipodi:nodetypes="cc" />
      <path
         inkscape:connector-curvature="0"
         style="fill:none;stroke:#000000;stroke-width:1pt;stroke-linecap:butt;stroke-linejoin:miter;stroke-opacity:1"
         d="m 141.029,82.9986 c 0,0 0.47,4.3191 -0.469,7.6054 -0.939,3.2863 3.568,12.394 1.877,14.272"
         id="path584" />
      <path
         inkscape:connector-curvature="0"
         style="fill:none;stroke:#000000;stroke-width:1pt;stroke-linecap:butt;stroke-linejoin:miter;stroke-opacity:1"
         d="m 142.907,113.702 11.831,-0.094"
         id="path585" />
      <path
         inkscape:connector-curvature="0"
         style="fill:none;stroke:#000000;stroke-width:1pt;stroke-linecap:round;stroke-linejoin:miter;stroke-opacity:1"
         d="m 138.588,118.491 c 0.094,0.187 1.408,6.197 1.032,10.328"
         id="path586"
         sodipodi:nodetypes="cc" />
      <path
         inkscape:connector-curvature="0"
         style="fill:none;stroke:#000000;stroke-width:1pt;stroke-linecap:round;stroke-linejoin:miter;stroke-opacity:1"
         d="m 142.437,120.65 c -0.375,1.221 -5.258,15.117 -5.07,15.68"
         id="path587" />
      <path
         inkscape:connector-curvature="0"
         style="fill:none;stroke:#000000;stroke-width:1pt;stroke-linecap:round;stroke-linejoin:miter;stroke-opacity:1"
         d="m 145.348,114.359 c 0.094,0.282 -0.375,8.826 -1.69,10.047"
         id="path588" />
      <path
         inkscape:connector-curvature="0"
         style="fill:none;stroke:#000000;stroke-width:1pt;stroke-linecap:round;stroke-linejoin:miter;stroke-opacity:1"
         d="m 151.357,113.702 c 0,0 7.7,17.84 7.606,24.882 -0.094,7.042 2.629,21.314 0.845,27.605"
         id="path589" />
      <path
         inkscape:connector-curvature="0"
         style="fill:none;stroke:#000000;stroke-width:1pt;stroke-linecap:round;stroke-linejoin:miter;stroke-opacity:1"
         d="m 153.799,138.396 c 0,0 -0.564,13.239 -6.103,18.403 -5.54,5.165 13.239,19.906 13.239,19.906"
         id="path590" />
      <path
         inkscape:connector-curvature="0"
         style="fill:none;stroke:#000000;stroke-width:1.25;stroke-linecap:round;stroke-linejoin:miter;stroke-opacity:1;stroke-dasharray:none"
         d="m 153.611,175.86 c 0,0 2.066,18.215 5.54,19.53"
         id="path591" />
      <path
         inkscape:connector-curvature="0"
         style="fill:none;stroke:#000000;stroke-width:1.25;stroke-linecap:round;stroke-linejoin:miter;stroke-opacity:1;stroke-dasharray:none"
         d="m 136.616,145.344 c 0.094,0.188 -1.878,12.3 -0.282,14.272 1.597,1.972 14.836,20.469 14.272,39.624"
         id="path593" />
      <path
         inkscape:connector-curvature="0"
         style="fill:none;stroke:#000000;stroke-width:1.25;stroke-linecap:round;stroke-linejoin:miter;stroke-opacity:1;stroke-dasharray:none"
         d="m 146.851,193.512 c 0,0 -0.376,11.549 -11.08,12.488"
         id="path594" />
      <path
         inkscape:connector-curvature="0"
         style="fill:none;stroke:#000000;stroke-width:1.25;stroke-linecap:round;stroke-linejoin:miter;stroke-opacity:1;stroke-dasharray:none"
         d="m 143.658,185.907 c 0,0 3.193,12.018 -7.699,19.624"
         id="path595" />
      <path
         inkscape:connector-curvature="0"
         style="fill:none;stroke:#000000;stroke-width:1pt;stroke-linecap:round;stroke-linejoin:miter;stroke-opacity:1"
         d="m 147.883,156.893 c 0,0 12.3,12.77 12.864,18.404"
         id="path596" />
      <path
         inkscape:connector-curvature="0"
         style="fill:none;stroke:#000000;stroke-width:1pt;stroke-linecap:round;stroke-linejoin:miter;stroke-opacity:1"
         d="m 151.451,113.984 c 0,0 2.16,9.107 1.315,10.704"
         id="path598" />
      <path
         inkscape:connector-curvature="0"
         style="fill:#ffc6b5;fill-opacity:1;fill-rule:evenodd;stroke:#000000;stroke-width:1pt;stroke-linecap:butt;stroke-linejoin:miter;stroke-opacity:1"
         d="m 113.508,132.69 c 0,0 -1.317,-2.305 -1.152,-4.857 0.165,-2.552 -0.412,-6.502 7.82,-9.713 5.021,-5.103 10.618,-8.149 13.663,-9.712 4.445,-2.881 7.327,-2.223 9.96,-3.211 1.729,-1.975 1.646,-6.3377 3.457,-10.2063 1.811,-3.8687 5.021,-11.8529 8.478,-10.6182 3.458,1.2346 0.741,11.606 -0.576,15.2277 -1.317,3.6218 -2.469,7.4078 -4.774,9.6308 -2.305,2.222 -12.758,6.255 -14.816,6.996 -2.058,0.741 -11.441,2.881 -13.828,6.174 -2.388,3.292 -2.223,8.149 -8.232,10.289 z"
         id="path663"
         sodipodi:nodetypes="cccccccccccc" />
      <path
         inkscape:connector-curvature="0"
         style="fill:none;stroke:#000000;stroke-width:1pt;stroke-linecap:butt;stroke-linejoin:miter;stroke-opacity:1"
         d="m 112.85,125.775 c 0.247,-0.082 4.115,-1.317 5.926,2.141"
         id="path664" />
      <path
         inkscape:connector-curvature="0"
         style="fill:#ffc6b5;fill-opacity:1;fill-rule:evenodd;stroke:#000000;stroke-width:1.25;stroke-linecap:butt;stroke-linejoin:round;stroke-opacity:1;stroke-dasharray:none"
         d="m 141.906,55.2002 c 0,0 -1.74,2.8365 -2.222,4.561 -0.374,1.2891 -1.58,-0.0866 -2.218,2.708 l 1.035,0.1812 c -0.412,0.8232 -0.546,2.214 -0.628,2.5433 -0.083,0.3293 -0.662,1.8332 -0.576,2.9632 0.046,0.5833 1.152,3.1279 10.124,-0.7408 8.972,-3.8686 -2.881,-14.8499 -5.515,-12.2159 z"
         id="path666"
         sodipodi:nodetypes="cccccccc" />
      <path
         inkscape:connector-curvature="0"
         style="font-size:12px;fill:#c59200;fill-rule:evenodd;stroke:#000000;stroke-width:1.26110005;stroke-linecap:round;stroke-linejoin:round"
         d="m 140.899,55.5632 c 0.921,-0.4939 7.457,-1.07 6.368,11.6884 1.257,-0.1647 2.011,-0.3294 2.764,0.9053 0.754,1.2348 0.671,2.7163 2.011,2.7163 1.341,0 1.509,-0.2469 1.844,-1.2346 0.334,-0.9877 5.53,1.1523 6.869,-3.4571 -0.232,-0.8973 -3.183,-2.3047 -3.519,-3.951 0.755,-2.3048 -0.335,-9.7951 -9.885,-10.2067 -4.944,-0.0823 -5.948,1.9755 -6.452,3.5394 z"
         id="path665"
         sodipodi:nodetypes="ccccccccc" />
      <path
         inkscape:connector-curvature="0"
         style="fill:none;stroke:#000000;stroke-width:1pt;stroke-linecap:round;stroke-linejoin:miter;stroke-opacity:1"
         d="m 140.424,58.1149 c 0.083,0.0823 2.964,0.9055 3.293,2.3048"
         id="path667" />
      <path
         inkscape:connector-curvature="0"
         style="fill:none;stroke:#000000;stroke-width:1pt;stroke-linecap:round;stroke-linejoin:miter;stroke-opacity:1"
         d=""
         id="path668"
         sodipodi:nodetypes="c" />
      <path
         sodipodi:type="arc"
         style="fill:#000000;fill-opacity:1;fill-rule:evenodd;stroke:none"
         id="path670"
         d="m 142.1875,61.502808 c 0,0.431472 -0.33229,0.78125 -0.74219,0.78125 -0.4099,0 -0.74219,-0.349778 -0.74219,-0.78125 0,-0.431473 0.33229,-0.78125 0.74219,-0.78125 0.4099,0 0.74219,0.349777 0.74219,0.78125 z"
         sodipodi:cx="141.44531"
         sodipodi:cy="61.502808"
         sodipodi:rx="0.74218798"
         sodipodi:ry="0.78125" />
      <path
         inkscape:connector-curvature="0"
         style="fill:none;stroke:#000000;stroke-width:1.25;stroke-linecap:round;stroke-linejoin:round;stroke-opacity:1;stroke-dasharray:none"
         d="m 154.375,61.5419 c 0,0 -1.055,5.0781 3.594,7.0703"
         id="path672" />
      <path
         inkscape:connector-curvature="0"
         style="fill:none;stroke:#000000;stroke-width:1.25;stroke-linecap:round;stroke-linejoin:round;stroke-opacity:1;stroke-dasharray:none"
         d="m 150.938,62.1669 c 0,0 1.722,0.0781 1.722,1.6797 0,1.6015 -1.414,1.7968 -1.296,3.0859 0.117,1.2891 2.425,1.7187 2.503,2.8125"
         id="path673"
         sodipodi:nodetypes="cccc" />
      <path
         inkscape:connector-curvature="0"
         style="fill:none;stroke:#000000;stroke-width:1.25;stroke-linecap:round;stroke-linejoin:round;stroke-opacity:1;stroke-dasharray:none"
         d="m 143.398,52.7919 c 0.078,0 8.243,0.9375 7.774,2.9687 -0.469,2.0313 -1.758,1.211 -1.719,2.9688 0.039,1.7578 3.281,0.7031 3.281,0.7031 0,0 0.196,-1.4844 1.563,-1.3672 1.367,0.1172 0.742,1.6797 2.617,1.6405"
         id="path674"
         sodipodi:nodetypes="cssscc" />
      <path
         inkscape:connector-curvature="0"
         style="fill:none;stroke:#000000;stroke-width:1.25;stroke-linecap:round;stroke-linejoin:miter;stroke-opacity:1;stroke-dasharray:none"
         d="m 138.41,65.4575 1.936,-0.0637"
         id="path675"
         sodipodi:nodetypes="cc" />
      <path
         inkscape:connector-curvature="0"
         style="fill:none;stroke:#000000;stroke-width:1pt;stroke-linecap:round;stroke-linejoin:miter;stroke-opacity:1"
         d="m 143.449,73.6957 c 0,0 0.72,3.3593 -2,3.0393"
         id="path676" />
    </g>
    <g
       id="g878"
       transform="matrix(4.8027812,0,0,6.3151713,0,0.062997)"
       style="font-size:12px">
      <path
         inkscape:connector-curvature="0"
         style="font-size:12px;fill:#ffffff;stroke-width:1pt"
         d="M 0,0 0,3.3541 53.2918,30 60,30 60,26.6459 6.7082,0 0,0 z M 60,0 60,3.35405 6.7082,30 0,30 0,26.6458 53.2918,0 60,0 z"
         id="path879" />
      <path
         inkscape:connector-curvature="0"
         style="font-size:12px;fill:#ffffff;stroke-width:1pt"
         d="M 25,0 25,30 35,30 35,0 25,0 z M 0,10 0,20 60,20 60,10 0,10 z"
         id="path880" />
      <path
         inkscape:connector-curvature="0"
         style="font-size:12px;fill:#cc0000;stroke-width:1pt"
         d="m 0,12 0,6 60,0 0,-6 -60,0 z m 27,-12 0,30 6,0 0,-30 -6,0 z"
         id="path881" />
      <path
         inkscape:connector-curvature="0"
         style="font-size:12px;fill:#cc0000;stroke-width:1pt"
         d="M 0,30 20,20 24.4721,20 4.47214,30 0,30 z M 0,0 20,10 15.5279,10 0,2.23607 0,0 z m 35.5279,10 20,-10 L 60,0 40,10 35.5279,10 z M 60,30 40,20 44.4721,20 60,27.7639 60,30 z"
         id="path882" />
    </g>
  </g>
</svg>
