<?xml version="1.0" encoding="UTF-8" standalone="no"?>
<!-- Created with Sodipodi ("http://www.sodipodi.com/") -->

<svg
   xmlns:dc="http://purl.org/dc/elements/1.1/"
   xmlns:cc="http://creativecommons.org/ns#"
   xmlns:rdf="http://www.w3.org/1999/02/22-rdf-syntax-ns#"
   xmlns:svg="http://www.w3.org/2000/svg"
   xmlns="http://www.w3.org/2000/svg"
   xmlns:sodipodi="http://sodipodi.sourceforge.net/DTD/sodipodi-0.dtd"
   xmlns:inkscape="http://www.inkscape.org/namespaces/inkscape"
   id="svg548"
   sodipodi:version="0.32"
   width="512"
   height="512"
   sodipodi:docname="mt.svg"
   version="1.1"
   inkscape:version="0.48.1 r9760">
  <sodipodi:namedview
     id="base"
     snaptogrid="false"
     showgrid="true"
     inkscape:zoom="0.44080424"
     inkscape:cx="372.04724"
     inkscape:cy="248.03149"
     inkscape:window-width="1280"
     inkscape:window-height="723"
     inkscape:window-x="0"
     inkscape:window-y="24"
     inkscape:window-maximized="1"
     inkscape:current-layer="svg548">
    <inkscape:grid
       empspacing="5"
       empopacity="0.4"
       opacity="0.2"
       empcolor="#0000ff"
       color="#0000ff"
       spacingy="1mm"
       spacingx="1mm"
       originy="0px"
       originx="0px"
       type="xygrid"
       id="GridFromPre046Settings"
       units="mm"
       visible="true"
       enabled="false"
       snapvisiblegridlinesonly="true" />
  </sodipodi:namedview>
  <metadata
     id="metadata3784">
    <rdf:RDF>
      <cc:Work
         rdf:about="">
        <dc:format>image/svg+xml</dc:format>
        <dc:type
           rdf:resource="http://purl.org/dc/dcmitype/StillImage" />
      </cc:Work>
    </rdf:RDF>
  </metadata>
  <defs
     id="defs550" />
  <g
     id="flag"
     transform="matrix(0.68808466,0,0,1.032127,0,-6.4679366e-6)"
     inkscape:label="#g709">
    <rect
       style="font-size:12px;fill:#ce0000;fill-opacity:1;fill-rule:evenodd;stroke-width:1pt"
       id="rect706"
       width="372.04724"
       height="496.06296"
       x="372.04724"
       y="3.3e-05" />
    <rect
       style="font-size:12px;fill:#ffffff;fill-opacity:1;fill-rule:evenodd;stroke-width:1pt"
       id="rect708"
       width="372.04724"
       height="496.06296"
       x="0"
       y="1.8000001e-05" />
  </g>
  <g
     id="g647"
     transform="matrix(0.35004794,0,0,0.35003039,40.728357,-25.527108)">
    <path
       sodipodi:type="arc"
       style="fill:#f1eeee;fill-opacity:1;fill-rule:evenodd;stroke:none"
       id="path606"
       d="m 209.05512,63.779495 c 0,7.827644 -7.93196,14.173204 -17.71653,14.173204 -9.78457,0 -17.71653,-6.34556 -17.71653,-14.173204 0,-7.827644 7.93196,-14.173203 17.71653,-14.173203 9.78457,0 17.71653,6.345559 17.71653,14.173203 z"
       sodipodi:cx="191.33859"
       sodipodi:cy="63.779495"
       sodipodi:rx="17.71653"
       sodipodi:ry="14.173203"
       transform="matrix(0.330324,0,0,0.295558,114.0451,362.8132)" />
    <path
       inkscape:connector-curvature="0"
       style="font-size:12px;fill:#cc0000;fill-opacity:1;fill-rule:evenodd;stroke-width:1pt"
       d="m 171.259,485.433 0,17.717 17.717,0 c 0,2.952 2.953,5.905 5.906,5.905 l 0,17.716 17.716,0 0,-17.716 c 2.953,0 5.906,-2.953 5.906,-5.905 l 17.717,0 0,-17.717 -17.717,0 c 0,-2.952 -2.953,-5.905 -5.906,-5.905 l 0,-17.716 -17.716,0 0,17.716 c -2.953,0 -5.906,2.953 -5.906,5.905 l -17.717,0 z"
       id="path552"
       sodipodi:nodetypes="ccccccccccccccccc"
       transform="matrix(5.999956,0,0,6.000074,-1027.549,-2551.219)" />
    <path
       inkscape:connector-curvature="0"
       style="font-size:12px;fill:#ffe600;fill-opacity:1;fill-rule:evenodd;stroke-width:1pt"
       d="m 171.85,486.024 0,16.535 17.717,0 c 0,2.952 2.952,5.906 5.905,5.906 l 0,17.716 16.536,0 0,-17.716 c 2.953,0 5.905,-2.954 5.905,-5.906 l 17.717,0 0,-16.535 -17.717,0 c 0,-2.952 -2.952,-5.906 -5.905,-5.906 l 0,-17.716 -16.536,0 0,17.716 c -2.953,0 -5.905,2.954 -5.905,5.906 l -17.717,0 z"
       id="path553"
       sodipodi:nodetypes="ccccccccccccccccc"
       transform="matrix(5.999956,0,0,6.000074,-1027.549,-2551.219)" />
    <path
       inkscape:connector-curvature="0"
       style="font-size:12px;fill:#707070;fill-opacity:1;fill-rule:evenodd;stroke-width:1pt"
       d="m 172.441,486.614 0,15.355 17.716,0 c 0,2.952 2.953,5.905 5.906,5.905 l 0,17.716 15.354,0 0,-17.716 c 2.953,0 5.906,-2.953 5.906,-5.905 l 17.716,0 0,-15.355 -17.716,0 c 0,-2.952 -2.953,-5.905 -5.906,-5.905 l 0,-17.716 -15.354,0 0,17.716 c -2.953,0 -5.906,2.953 -5.906,5.905 l -17.716,0 z"
       id="path554"
       sodipodi:nodetypes="ccccccccccccccccc"
       transform="matrix(5.999956,0,0,6.000074,-1027.552,-2551.221)" />
    <path
       inkscape:connector-curvature="0"
       style="font-size:12px;fill:#a0a0a0;fill-opacity:1;fill-rule:evenodd;stroke-width:1pt"
       d="m 173.032,487.205 0,14.173 17.716,0 c 0,2.952 2.953,5.906 5.906,5.906 l 0,17.716 14.173,0 0,-17.716 c 2.953,0 5.906,-2.954 5.906,-5.906 l 17.716,0 0,-14.173 -17.716,0 c 0,-2.952 -2.953,-5.905 -5.906,-5.905 l 0,-17.716 -14.173,0 0,17.716 c -2.953,0 -5.906,2.953 -5.906,5.905 l -17.716,0 z"
       id="path555"
       sodipodi:nodetypes="ccccccccccccccccc"
       transform="matrix(5.999956,0,0,6.000074,-1027.552,-2551.221)" />
    <g
       id="g562"
       transform="matrix(0.707107,-0.707107,0.707107,0.707107,-304.0122,361.6512)">
      <path
         sodipodi:type="arc"
         style="fill:#d0d0d0;fill-opacity:1;fill-rule:evenodd;stroke:none"
         id="path556"
         d="m 333.07085,295.86615 c 0,8.80613 -11.10475,15.9449 -24.80315,15.9449 -13.6984,0 -24.80315,-7.13877 -24.80315,-15.9449 0,-8.80613 11.10475,-15.9449 24.80315,-15.9449 13.6984,0 24.80315,7.13877 24.80315,15.9449 z"
         sodipodi:cx="308.2677"
         sodipodi:cy="295.86615"
         sodipodi:rx="24.803146"
         sodipodi:ry="15.944901"
         transform="matrix(1.285716,0,0,1,-80.99048,3.543213)" />
      <path
         sodipodi:type="arc"
         style="fill:#808080;fill-opacity:1;fill-rule:evenodd;stroke:none"
         id="path557"
         d="m 333.07085,295.86615 c 0,8.80613 -11.10475,15.9449 -24.80315,15.9449 -13.6984,0 -24.80315,-7.13877 -24.80315,-15.9449 0,-8.80613 11.10475,-15.9449 24.80315,-15.9449 13.6984,0 24.80315,7.13877 24.80315,15.9449 z"
         sodipodi:cx="308.2677"
         sodipodi:cy="295.86615"
         sodipodi:rx="24.803146"
         sodipodi:ry="15.944901"
         transform="matrix(0.857147,0,0,1,51.1238,3.543213)" />
      <path
         inkscape:connector-curvature="0"
         style="fill:#d0d0d0;fill-opacity:1;fill-rule:evenodd;stroke:none"
         d="m 281.339,223.228 4.96,0 4.961,14.174 4.96,-14.174 4.961,0 -9.921,28.347 -9.921,-28.347 z"
         id="path560"
         sodipodi:nodetypes="ccccccc"
         transform="matrix(0.714292,0,0,0.749985,100.2229,123.1336)" />
      <rect
         style="font-size:12px;fill:#d0d0d0;fill-opacity:1;fill-rule:evenodd;stroke-width:1pt"
         id="rect561"
         width="3.543304"
         height="21.259827"
         x="322.44095"
         y="290.55121" />
    </g>
    <g
       id="g567"
       transform="matrix(0.707107,0.707107,-0.707107,0.707107,247.7976,-84.32719)">
      <path
         sodipodi:type="arc"
         style="fill:#d0d0d0;fill-opacity:1;fill-rule:evenodd;stroke:none"
         id="path568"
         d="m 333.07085,295.86615 c 0,8.80613 -11.10475,15.9449 -24.80315,15.9449 -13.6984,0 -24.80315,-7.13877 -24.80315,-15.9449 0,-8.80613 11.10475,-15.9449 24.80315,-15.9449 13.6984,0 24.80315,7.13877 24.80315,15.9449 z"
         sodipodi:cx="308.2677"
         sodipodi:cy="295.86615"
         sodipodi:rx="24.803146"
         sodipodi:ry="15.944901"
         transform="matrix(1.285716,0,0,1,-80.99048,3.543213)" />
      <path
         sodipodi:type="arc"
         style="fill:#808080;fill-opacity:1;fill-rule:evenodd;stroke:none"
         id="path569"
         d="m 333.07085,295.86615 c 0,8.80613 -11.10475,15.9449 -24.80315,15.9449 -13.6984,0 -24.80315,-7.13877 -24.80315,-15.9449 0,-8.80613 11.10475,-15.9449 24.80315,-15.9449 13.6984,0 24.80315,7.13877 24.80315,15.9449 z"
         sodipodi:cx="308.2677"
         sodipodi:cy="295.86615"
         sodipodi:rx="24.803146"
         sodipodi:ry="15.944901"
         transform="matrix(0.857147,0,0,1,51.1238,3.543213)" />
      <path
         inkscape:connector-curvature="0"
         style="fill:#d0d0d0;fill-opacity:1;fill-rule:evenodd;stroke:none"
         d="m 281.339,223.228 4.96,0 4.961,14.174 4.96,-14.174 4.961,0 -9.921,28.347 -9.921,-28.347 z"
         id="path570"
         sodipodi:nodetypes="ccccccc"
         transform="matrix(0.714292,0,0,0.749985,100.2229,123.1336)" />
      <rect
         style="font-size:12px;fill:#d0d0d0;fill-opacity:1;fill-rule:evenodd;stroke-width:1pt"
         id="rect571"
         width="3.543304"
         height="21.259827"
         x="322.44095"
         y="290.55121" />
    </g>
    <g
       id="g572"
       transform="matrix(-0.707107,0.707107,-0.707107,-0.707107,693.776,467.4827)">
      <path
         sodipodi:type="arc"
         style="fill:#d0d0d0;fill-opacity:1;fill-rule:evenodd;stroke:none"
         id="path573"
         d="m 333.07085,295.86615 c 0,8.80613 -11.10475,15.9449 -24.80315,15.9449 -13.6984,0 -24.80315,-7.13877 -24.80315,-15.9449 0,-8.80613 11.10475,-15.9449 24.80315,-15.9449 13.6984,0 24.80315,7.13877 24.80315,15.9449 z"
         sodipodi:cx="308.2677"
         sodipodi:cy="295.86615"
         sodipodi:rx="24.803146"
         sodipodi:ry="15.944901"
         transform="matrix(1.285716,0,0,1,-80.99048,3.543213)" />
      <path
         sodipodi:type="arc"
         style="fill:#808080;fill-opacity:1;fill-rule:evenodd;stroke:none"
         id="path574"
         d="m 333.07085,295.86615 c 0,8.80613 -11.10475,15.9449 -24.80315,15.9449 -13.6984,0 -24.80315,-7.13877 -24.80315,-15.9449 0,-8.80613 11.10475,-15.9449 24.80315,-15.9449 13.6984,0 24.80315,7.13877 24.80315,15.9449 z"
         sodipodi:cx="308.2677"
         sodipodi:cy="295.86615"
         sodipodi:rx="24.803146"
         sodipodi:ry="15.944901"
         transform="matrix(0.857147,0,0,1,51.1238,3.543213)" />
      <path
         inkscape:connector-curvature="0"
         style="fill:#d0d0d0;fill-opacity:1;fill-rule:evenodd;stroke:none"
         d="m 281.339,223.228 4.96,0 4.961,14.174 4.96,-14.174 4.961,0 -9.921,28.347 -9.921,-28.347 z"
         id="path575"
         sodipodi:nodetypes="ccccccc"
         transform="matrix(0.714292,0,0,0.749985,100.2229,123.1336)" />
      <rect
         style="font-size:12px;fill:#d0d0d0;fill-opacity:1;fill-rule:evenodd;stroke-width:1pt"
         id="rect576"
         width="3.543304"
         height="21.259827"
         x="322.44095"
         y="290.55121" />
    </g>
    <g
       id="g577"
       transform="matrix(-0.707107,-0.707107,0.707107,-0.707107,141.9662,913.4611)">
      <path
         sodipodi:type="arc"
         style="fill:#d0d0d0;fill-opacity:1;fill-rule:evenodd;stroke:none"
         id="path578"
         d="m 333.07085,295.86615 c 0,8.80613 -11.10475,15.9449 -24.80315,15.9449 -13.6984,0 -24.80315,-7.13877 -24.80315,-15.9449 0,-8.80613 11.10475,-15.9449 24.80315,-15.9449 13.6984,0 24.80315,7.13877 24.80315,15.9449 z"
         sodipodi:cx="308.2677"
         sodipodi:cy="295.86615"
         sodipodi:rx="24.803146"
         sodipodi:ry="15.944901"
         transform="matrix(1.285716,0,0,1,-80.99048,3.543213)" />
      <path
         sodipodi:type="arc"
         style="fill:#808080;fill-opacity:1;fill-rule:evenodd;stroke:none"
         id="path579"
         d="m 333.07085,295.86615 c 0,8.80613 -11.10475,15.9449 -24.80315,15.9449 -13.6984,0 -24.80315,-7.13877 -24.80315,-15.9449 0,-8.80613 11.10475,-15.9449 24.80315,-15.9449 13.6984,0 24.80315,7.13877 24.80315,15.9449 z"
         sodipodi:cx="308.2677"
         sodipodi:cy="295.86615"
         sodipodi:rx="24.803146"
         sodipodi:ry="15.944901"
         transform="matrix(0.857147,0,0,1,51.1238,3.543213)" />
      <path
         inkscape:connector-curvature="0"
         style="fill:#d0d0d0;fill-opacity:1;fill-rule:evenodd;stroke:none"
         d="m 281.339,223.228 4.96,0 4.961,14.174 4.96,-14.174 4.961,0 -9.921,28.347 -9.921,-28.347 z"
         id="path580"
         sodipodi:nodetypes="ccccccc"
         transform="matrix(0.714292,0,0,0.749985,100.2229,123.1336)" />
      <rect
         style="font-size:12px;fill:#d0d0d0;fill-opacity:1;fill-rule:evenodd;stroke-width:1pt"
         id="rect581"
         width="3.543304"
         height="21.259827"
         x="322.44095"
         y="290.55121" />
    </g>
    <path
       sodipodi:type="arc"
       style="fill:none;stroke:#707070;stroke-width:1pt;stroke-linecap:butt;stroke-linejoin:miter;stroke-opacity:1"
       id="path582"
       d="m 269.29135,414.56689 c 0,41.09522 -34.10744,74.40947 -76.18111,74.40947 -42.07366,0 -76.1811,-33.31425 -76.1811,-74.40947 0,-41.09521 34.10744,-74.40947 76.1811,-74.40947 42.07367,0 76.18111,33.31426 76.18111,74.40947 z"
       sodipodi:cx="193.11024"
       sodipodi:cy="414.56689"
       sodipodi:rx="76.181107"
       sodipodi:ry="74.40947"
       transform="matrix(0.976744,0,0,1,6.262578,1.983643e-4)" />
    <path
       sodipodi:type="arc"
       style="fill:none;stroke:#707070;stroke-width:1pt;stroke-linecap:butt;stroke-linejoin:miter;stroke-opacity:1"
       id="path583"
       d="m 269.29135,414.56689 c 0,41.09522 -34.10744,74.40947 -76.18111,74.40947 -42.07366,0 -76.1811,-33.31425 -76.1811,-74.40947 0,-41.09521 34.10744,-74.40947 76.1811,-74.40947 42.07367,0 76.18111,33.31426 76.18111,74.40947 z"
       sodipodi:cx="193.11024"
       sodipodi:cy="414.56689"
       sodipodi:rx="76.181107"
       sodipodi:ry="74.40947"
       transform="matrix(0.744186,0,0,0.761903,51.172,98.70709)" />
    <path
       sodipodi:type="arc"
       style="fill:#d0d0d0;fill-opacity:1;fill-rule:evenodd;stroke:none"
       id="path584"
       d="m 170.07873,474.80313 c 0,1.95691 -1.58639,3.54331 -3.5433,3.54331 -1.95691,0 -3.5433,-1.5864 -3.5433,-3.54331 0,-1.95691 1.58639,-3.5433 3.5433,-3.5433 1.95691,0 3.5433,1.58639 3.5433,3.5433 z"
       sodipodi:cx="166.53543"
       sodipodi:cy="474.80313"
       sodipodi:rx="3.543304"
       sodipodi:ry="3.543304"
       transform="translate(0,-3.051758e-5)" />
    <path
       sodipodi:type="arc"
       style="fill:#d0d0d0;fill-opacity:1;fill-rule:evenodd;stroke:none"
       id="path585"
       d="m 170.07873,474.80313 c 0,1.95691 -1.58639,3.54331 -3.5433,3.54331 -1.95691,0 -3.5433,-1.5864 -3.5433,-3.54331 0,-1.95691 1.58639,-3.5433 3.5433,-3.5433 1.95691,0 3.5433,1.58639 3.5433,3.5433 z"
       sodipodi:cx="166.53543"
       sodipodi:cy="474.80313"
       sodipodi:rx="3.543304"
       sodipodi:ry="3.543304"
       transform="translate(56.69291,-3.051758e-5)" />
    <path
       inkscape:connector-curvature="0"
       style="fill:#d0d0d0;fill-opacity:1;fill-rule:evenodd;stroke:none"
       d="m 318.898,315.354 0,7.087 -7.087,0 c -7.087,0 -7.087,7.087 0,7.087 l 7.087,0 0,7.086 c 0.024,7.347 6.185,8.232 6.636,0.573 l 0.45,-7.659 7.087,0 c 7.086,0 7.086,-7.087 0,-7.087 l -7.087,0 0,-7.087 c 0,-7.086 -7.086,-7.086 -7.086,0 z"
       id="path586"
       sodipodi:nodetypes="ccccccccccccc"
       transform="matrix(0.666667,0,0,0.521331,-20.07875,310.3991)" />
    <path
       inkscape:connector-curvature="0"
       style="fill:#d0d0d0;fill-opacity:1;fill-rule:evenodd;stroke:#707070;stroke-width:1pt;stroke-linecap:butt;stroke-linejoin:miter;stroke-opacity:1"
       d="m 180.709,162.992 c 0,0 0,7.087 0,7.087 0,0 -3.362,5.423 -24.803,7.086 -21.441,1.663 -24.803,0 -24.803,0 0.559,6.181 4.732,17.896 3.543,31.89 0.835,16.291 -4.103,31.042 -4.103,31.042 0.56,0.848 -2.018,1.279 -6.527,0.848 3.543,-3.544 3.134,-13.795 3.543,-28.347 0.409,-14.553 -13.527,-36.456 -10.63,-42.519 2.897,-6.063 63.78,-7.087 63.78,-7.087 z"
       id="path590"
       sodipodi:nodetypes="cccccccccc"
       transform="matrix(0.330324,0,0,0.295558,117.5563,374.283)" />
    <path
       inkscape:connector-curvature="0"
       style="fill:#d0d0d0;fill-opacity:1;fill-rule:evenodd;stroke:#707070;stroke-width:1pt;stroke-linecap:butt;stroke-linejoin:miter;stroke-opacity:1"
       d="m 272.835,162.263 c 20.858,-1.077 55.859,-0.843 55.859,-0.843 0,0 8.253,18.502 7.91,28.723 -0.343,10.221 -3.181,18.919 -7.077,14.57 -3.896,-4.349 1.805,-3.531 2.498,-14.57 0.692,-11.039 -6.661,-22.479 -6.661,-22.479 0,0 -14.962,7.302 -37.466,5.828 -22.503,-1.474 -12.541,-10.791 -15.063,-11.229 z"
       id="path591"
       transform="matrix(0.330324,0,0,0.295558,115.2155,366.8992)"
       sodipodi:nodetypes="cccccccc" />
    <path
       inkscape:connector-curvature="0"
       style="fill:#d0d0d0;fill-opacity:1;fill-rule:evenodd;stroke:#707070;stroke-width:1pt;stroke-linecap:butt;stroke-linejoin:miter;stroke-opacity:1"
       d="m 312.213,273.912 c 20.858,-1.077 34.551,2.498 34.551,2.498 0,0 8.253,18.502 7.91,28.723 -0.343,10.221 -3.181,18.919 -7.077,14.57 -3.896,-4.349 1.805,-3.531 2.498,-14.57 0.692,-11.039 -6.661,-22.479 -6.661,-22.479 0,0 -14.962,7.302 -37.466,5.828 -22.503,-1.474 -16.084,-2.975 -18.606,-3.413 -2.522,-0.438 -3.131,6.958 -37.176,7.992 -34.044,1.033 -51.407,-7.992 -51.407,-7.992 0,0 -3.362,5.423 -24.803,7.086 -21.441,1.663 -24.803,0 -24.803,0 0.559,6.181 4.732,17.896 3.543,31.89 0.835,16.291 -4.103,31.042 -4.103,31.042 0.56,0.848 -2.018,1.279 -6.527,0.848 3.543,-3.544 3.134,-13.795 3.543,-28.347 0.409,-14.553 -13.527,-36.456 -10.63,-42.519 2.897,-6.063 18.333,-0.395 21.26,-3.544 2.926,-3.149 -13.749,-25.333 -10.63,-46.063 3.12,-20.731 20.792,-14.886 42.52,-14.173 21.727,0.712 69.865,7.003 81.496,0 11.632,-7.003 6.598,-32.929 17.717,-49.606 7.086,-10.63 17.716,-14.173 28.346,-14.173 7.087,0 17.717,28.346 17.717,35.433 0,0 -3.544,3.543 -3.544,3.543 0,0 -3.543,0 -3.543,0 0,0 0,3.543 0,3.543 -8.088,0.907 -9.216,-7.732 -14.173,-14.173 -2.13,9.984 7.086,42.52 7.086,63.78 0,17.716 -6.622,25.525 -7.038,24.276 z"
       id="path588"
       transform="matrix(0.330324,0,0,0.295558,104.5648,339.2996)"
       sodipodi:nodetypes="cccccccccccccccccccccscssscccc" />
    <path
       inkscape:connector-curvature="0"
       style="fill:#d0d0d0;fill-opacity:1;fill-rule:evenodd;stroke:#707070;stroke-width:1pt;stroke-linecap:butt;stroke-linejoin:miter;stroke-opacity:1"
       d="m 209.055,131.102 c 0.294,7.062 -27.384,22.895 -29.637,29.164 -2.253,6.269 7.036,9.744 4.163,13.321 -2.872,3.578 -5.24,2.251 -5.828,2.914 -0.588,0.664 -10.407,-24.56 -10.407,-24.56 0,0 25.961,-13.084 24.977,-18.733 -0.984,-5.649 -19.171,-9.085 -22.479,-23.312 -3.309,-14.2267 -1.474,-41.7095 -4.163,-47.4563 -2.689,-5.7468 -34.552,-11.2298 -34.579,-19.92 -0.027,-8.6904 32.75,-32.54121 36.293,-36.08453 3.543,-3.54325 7.087,3.54332 3.543,7.08663 -3.543,3.5433 -29.206,25.4546 -29.206,28.9979 0,3.5433 21.26,7.0866 28.347,7.0866 7.086,0 10.63,-3.5433 10.63,-7.0866 0.042,-3.0655 -7.087,-3.5433 -7.087,-10.6299 0,-7.0866 3.543,-10.63 10.63,-10.63 3.543,0 10.356,4.5372 10.63,10.63 0.274,6.0927 -6.305,6.6088 -7.087,10.6299 -0.781,4.0212 7.087,7.0866 14.173,7.0866 7.087,0 31.282,20.6083 34.825,24.1516 3.544,3.5434 7.087,3.5433 3.544,7.0867 -3.543,3.5433 -1.468,7.7381 -5.012,4.1948 -3.017,-3.423 -3.543,-7.0867 -3.543,-7.0867 -0.306,-3.2197 -26.27,-17.7165 -29.814,-14.1732 -3.543,3.5433 0,46.0635 0,49.6065 0,7.086 7.381,7.062 7.087,17.716 z"
       id="path592"
       sodipodi:nodetypes="cccccccccccccccccccccccccc"
       transform="matrix(0.330324,0,0,0.295558,116.1021,372.4311)" />
    <rect
       style="font-size:12px;fill:#a7a7a7;fill-opacity:1;fill-rule:evenodd;stroke-width:1pt"
       id="rect604"
       width="14.045291"
       height="14.661552"
       x="170.2263"
       y="386.89999" />
    <rect
       style="font-size:12px;fill:#808080;fill-rule:evenodd;stroke-width:1pt"
       id="rect593"
       width="87.553223"
       height="1.139442"
       x="405.60632"
       y="64.582115"
       ry="0.56972116"
       rx="1.2698963"
       transform="matrix(0.554405,0.832247,-0.882362,0.470572,0,0)" />
    <path
       sodipodi:type="arc"
       style="fill:#d0d0d0;fill-opacity:1;fill-rule:evenodd;stroke:#707070;stroke-width:1pt;stroke-linecap:butt;stroke-linejoin:miter;stroke-opacity:1"
       id="path594"
       d="m 180.70865,42.519653 c 0,3.913843 -3.17278,7.086639 -7.08661,7.086639 -3.91383,0 -7.08661,-3.172796 -7.08661,-7.086639 0,-3.913842 3.17278,-7.086639 7.08661,-7.086639 3.91383,0 7.08661,3.172797 7.08661,7.086639 z"
       sodipodi:cx="173.62204"
       sodipodi:cy="42.519653"
       sodipodi:rx="7.0866089"
       sodipodi:ry="7.0866389"
       transform="matrix(0.330324,0,0,0.295558,114.0451,362.8132)" />
    <path
       inkscape:connector-curvature="0"
       style="font-size:12px;fill:#808080;fill-rule:evenodd;stroke-width:1pt"
       d="m 354.331,49.6063 c 0,4.8899 -27.965,10.6299 -60.237,10.6299 -32.272,0 -60.236,-5.74 -60.236,-10.6299 0,-4.8897 27.964,7.0866 60.236,7.0866 32.272,0 60.237,-11.9763 60.237,-7.0866 z"
       id="path596"
       sodipodi:nodetypes="ccccc"
       transform="matrix(0.194308,0,0,0.177453,145.8537,385.6362)" />
    <rect
       style="font-size:12px;fill:#a7a7a7;fill-opacity:1;fill-rule:evenodd;stroke-width:1pt"
       id="rect603"
       width="11.704406"
       height="4.1890049"
       x="171.39677"
       y="401.56155" />
    <path
       sodipodi:type="arc"
       style="fill:#808080;fill-opacity:1;fill-rule:evenodd;stroke:none"
       id="path597"
       d="m 279.92126,58.464554 c 0,6.849204 -0.7932,12.401581 -1.77166,12.401581 -0.97847,0 -1.77167,-5.552377 -1.77167,-12.401581 0,-6.849204 0.7932,-12.401581 1.77167,-12.401581 0.97846,0 1.77166,5.552377 1.77166,12.401581 z"
       sodipodi:cx="278.1496"
       sodipodi:cy="58.464554"
       sodipodi:rx="1.771667"
       sodipodi:ry="12.401581"
       transform="matrix(0.197665,0.260137,-0.165684,0.310349,163.8133,300.2754)" />
    <path
       sodipodi:type="arc"
       style="fill:#808080;fill-opacity:1;fill-rule:evenodd;stroke:none"
       id="path598"
       d="m 279.92126,58.464554 c 0,6.849204 -0.7932,12.401581 -1.77166,12.401581 -0.97847,0 -1.77167,-5.552377 -1.77167,-12.401581 0,-6.849204 0.7932,-12.401581 1.77167,-12.401581 0.97846,0 1.77166,5.552377 1.77166,12.401581 z"
       sodipodi:cx="278.1496"
       sodipodi:cy="58.464554"
       sodipodi:rx="1.771667"
       sodipodi:ry="12.401581"
       transform="matrix(0.03709477,0.233431,-0.18868,0.165536,213.0754,321.7187)" />
    <path
       sodipodi:type="arc"
       style="fill:#808080;fill-opacity:1;fill-rule:evenodd;stroke:none"
       id="path599"
       d="m 279.92126,58.464554 c 0,6.849204 -0.7932,12.401581 -1.77166,12.401581 -0.97847,0 -1.77167,-5.552377 -1.77167,-12.401581 0,-6.849204 0.7932,-12.401581 1.77167,-12.401581 0.97846,0 1.77166,5.552377 1.77166,12.401581 z"
       sodipodi:cx="278.1496"
       sodipodi:cy="58.464554"
       sodipodi:rx="1.771667"
       sodipodi:ry="12.401581"
       transform="matrix(0.182174,-0.07772617,0.139132,0.253088,151.8007,401.0536)" />
    <path
       sodipodi:type="arc"
       style="fill:#808080;fill-opacity:1;fill-rule:evenodd;stroke:none"
       id="path600"
       d="m 290.55118,136.41733 c 0,0.97846 -10.31155,1.77166 -23.0315,1.77166 -12.71994,0 -23.03149,-0.7932 -23.03149,-1.77166 0,-0.97846 10.31155,-1.77166 23.03149,-1.77166 12.71995,0 23.0315,0.7932 23.0315,1.77166 z"
       sodipodi:cx="267.51968"
       sodipodi:cy="136.41733"
       sodipodi:rx="23.031494"
       sodipodi:ry="1.77166"
       transform="matrix(0.355734,0,0,0.295558,106.6623,362.8132)" />
    <path
       sodipodi:type="arc"
       style="fill:#808080;fill-opacity:1;fill-rule:evenodd;stroke:none"
       id="path601"
       d="m 209.05512,132.87399 c 0,0.97846 -7.93196,1.77166 -17.71653,1.77166 -9.78457,0 -17.71653,-0.7932 -17.71653,-1.77166 0,-0.97846 7.93196,-1.77166 17.71653,-1.77166 9.78457,0 17.71653,0.7932 17.71653,1.77166 z"
       sodipodi:cx="191.33859"
       sodipodi:cy="132.87399"
       sodipodi:rx="17.71653"
       sodipodi:ry="1.77166"
       transform="matrix(0.330324,0,0,0.295558,114.0451,362.8132)" />
    <path
       inkscape:connector-curvature="0"
       style="fill:#d0d0d0;fill-opacity:1;fill-rule:evenodd;stroke:#808080;stroke-width:1pt;stroke-linecap:butt;stroke-linejoin:miter;stroke-opacity:1"
       d="m 375.488,171.922 c 0,0 8.938,36.133 47.04,36.633 38.102,0.5 51.215,-10.838 35.8,-29.972 -15.415,-19.134 -44.084,-13.182 -40.379,3.33 3.705,16.512 -10.752,22.019 -14.154,10.407 -3.401,-11.611 -17.045,-45.99 7.493,-48.289 24.539,-2.299 76.511,-14.817 89.501,9.159 12.991,23.975 -14.675,45.707 6.244,50.786 20.92,5.079 23.893,-5.809 59.896,-9.094 36.004,-3.286 49.742,11.102 62.076,9.094 12.334,-2.007 10.59,-37.258 0.832,-46.207 -9.758,-8.95 -28.5,-10.586 -33.303,-20.398 -4.802,-9.812 -17.87,-1.825 -16.651,-12.905 1.219,-11.08 18.53,7.625 18.733,1.966 0.006,-0.177 2.858,-3.93 3.434,-4.878 -2.178,-0.828 -3.421,0.512 -5.056,1.948 1.775,-2.36 1.665,-3.448 2.26,-5.378 -0.31,-0.727 -2.461,2.734 -2.825,2.011 -0.364,-0.723 2.505,-5.632 1.206,-3.852 -0.45,0.513 -3.872,3.329 -3.91,1.389 0.058,-0.787 1.789,-2.813 1.177,-3.912 -0.493,-0.914 -3.093,1.064 -3.428,1.29 1.487,-3.309 1.382,-3.269 -0.048,-5.721 -1.249,-2.452 -2.16,-2.395 -4.2,0.374 0.849,-3.979 1.08,-4.821 -0.969,-6.329 -1.685,-1.521 -1.76,-2.956 -3.856,4.162 0.798,-7.618 -1.343,-7.9501 -0.454,-11.5624 0.529,-3.3116 3.323,-4.7092 7.927,-3.9776 8.945,0.1301 13.728,17.954 16.651,17.9 2.924,-0.054 6.196,-18.8824 18.733,-11.2396 12.537,7.6426 14.085,9.2016 20.398,13.7376 6.313,4.535 -4.435,11.457 -0.833,20.398 3.602,8.94 28.229,38.804 21.231,69.935 -6.999,31.131 -25.026,36.055 -26.642,49.538 -1.617,13.483 57.067,7.951 72.017,12.489 14.949,4.537 24.375,23.11 24.977,26.225 0.602,3.115 -26.226,2.914 -26.226,2.914 0,0 -13.776,-11.837 -46.624,-12.904 -32.847,-1.068 -45.355,-23.109 -57.651,-25.871 -12.296,-2.762 -38.501,4.63 -53.149,3.543 -14.649,-1.087 -29.488,-4.943 -38.976,-7.086 -9.489,-2.142 -56.693,35.433 -56.529,44.184 -9.84,-0.621 -33.009,-2.709 -32.054,-1.665 0.955,1.043 4.152,-17.038 22.214,-20.216 18.061,-3.179 35.645,-17.573 35.062,-27.025 -0.583,-9.451 3.487,-41.876 4.995,-55.782 1.508,-13.906 8.27,-20.616 6.661,-27.891 -1.609,-7.274 -22.244,-14.778 -42.045,-14.57 -19.801,0.209 -41.77,2.057 -44.959,9.991 -3.188,7.934 -0.781,30.964 3.331,28.308 4.111,-2.657 -0.994,-17.712 3.33,-20.815 4.324,-3.102 15.405,-5.843 25.809,-6.244 10.405,-0.401 28.494,14.729 28.308,19.565 -0.186,4.837 5.821,20.934 -2.498,27.059 -8.318,6.124 -25.332,8.862 -41.628,7.493 -16.297,-1.369 -32.786,-10.674 -38.715,-16.651 -5.928,-5.977 -9.574,-24.145 -9.574,-25.394 z"
       id="path609"
       sodipodi:nodetypes="ccccccccccccccccccccccccccccccccccccccccccccccccccccccccc"
       transform="matrix(0.215979,0,0,0.129892,76.26469,416.1699)" />
    <path
       sodipodi:type="arc"
       style="fill:#000000;fill-opacity:1;fill-rule:evenodd;stroke:none"
       id="path610"
       d="m 205.51181,434.05511 c 0,0.97847 -0.7932,1.77167 -1.77165,1.77167 -0.97846,0 -1.77165,-0.7932 -1.77165,-1.77167 0,-0.97846 0.79319,-1.77166 1.77165,-1.77166 0.97845,0 1.77165,0.7932 1.77165,1.77166 z"
       sodipodi:cx="203.74016"
       sodipodi:cy="434.05511"
       sodipodi:rx="1.771652"
       sodipodi:ry="1.771667"
       transform="matrix(0.530061,0,0,0.530074,100.5367,201.4738)" />
    <path
       inkscape:connector-curvature="0"
       style="font-size:12px;font-weight:normal;fill:#d0d0d0;fill-opacity:1;stroke-width:1pt;font-family:helvetica"
       d="m 187.236,167.987 0,-3.639 -3.31,-4.951 1.383,0 1.693,2.59 c 0.312,0.484 0.603,0.969 0.873,1.453 0.258,-0.449 0.57,-0.955 0.938,-1.517 l 1.664,-2.526 1.324,0 -3.428,4.951 0,3.639 -1.137,0 z"
       id="path615"
       transform="matrix(-0.426435,1.977883,-1.252471,-0.270034,543.8737,92.98566)" />
    <path
       inkscape:connector-curvature="0"
       style="font-size:12px;font-weight:normal;fill:#d0d0d0;fill-opacity:1;stroke-width:1pt;font-family:helvetica"
       d="m 171.006,167.987 0,-7.576 -2.83,0 0,-1.014 6.808,0 0,1.014 -2.841,0 0,7.576 -1.137,0 z"
       id="path618"
       transform="matrix(0.846438,1.837773,-1.163748,0.535997,296.5971,-19.8717)" />
    <path
       inkscape:connector-curvature="0"
       style="font-size:12px;font-weight:normal;fill:#d0d0d0;fill-opacity:1;stroke-width:1pt;font-family:helvetica"
       d="m 160.143,167.987 0,-8.59 1.166,0 4.511,6.744 0,-6.744 1.09,0 0,8.59 -1.166,0 -4.512,-6.75 0,6.75 -1.089,0 z"
       id="path619"
       transform="matrix(1.366432,1.492223,-0.944932,0.865278,172.1216,-16.48227)" />
    <path
       inkscape:connector-curvature="0"
       style="font-size:12px;font-weight:normal;fill:#d0d0d0;fill-opacity:1;stroke-width:1pt;font-family:helvetica"
       d="m 145.43,167.987 0,-8.59 1.136,0 0,7.576 4.231,0 0,1.014 -5.367,0 z"
       id="path622"
       transform="matrix(2.008484,0.244666,-0.154932,1.271848,-69.34126,104.2809)" />
    <path
       inkscape:connector-curvature="0"
       style="font-size:12px;font-weight:normal;fill:#d0d0d0;fill-opacity:1;stroke-width:1pt;font-family:helvetica"
       d="m 138.756,167.987 0,-8.59 1.137,0 0,7.576 4.23,0 0,1.014 -5.367,0 z"
       id="path623"
       transform="matrix(1.990662,-0.362123,0.229309,1.260563,-135.4705,193.5688)" />
    <path
       inkscape:connector-curvature="0"
       style="font-size:12px;font-weight:normal;fill:#d0d0d0;fill-opacity:1;stroke-width:1pt;font-family:helvetica"
       d="m 125.484,164.618 0,-1.008 3.639,-0.006 0,3.188 c -0.559,0.445 -1.135,0.781 -1.728,1.008 -0.594,0.222 -1.204,0.334 -1.829,0.334 -0.843,0 -1.611,-0.18 -2.302,-0.539 -0.688,-0.364 -1.207,-0.887 -1.559,-1.571 -0.351,-0.683 -0.527,-1.447 -0.527,-2.291 0,-0.836 0.174,-1.615 0.521,-2.338 0.352,-0.726 0.856,-1.265 1.512,-1.617 0.656,-0.351 1.412,-0.527 2.268,-0.527 0.621,0 1.181,0.101 1.681,0.304 0.504,0.2 0.899,0.479 1.184,0.838 0.285,0.36 0.502,0.828 0.65,1.407 l -1.025,0.281 c -0.129,-0.438 -0.289,-0.781 -0.481,-1.031 -0.191,-0.25 -0.465,-0.45 -0.82,-0.598 -0.355,-0.152 -0.75,-0.229 -1.184,-0.229 -0.519,0 -0.968,0.081 -1.347,0.241 -0.379,0.156 -0.686,0.363 -0.92,0.621 -0.231,0.258 -0.41,0.541 -0.539,0.849 -0.219,0.532 -0.328,1.108 -0.328,1.729 0,0.766 0.13,1.406 0.392,1.922 0.266,0.515 0.651,0.898 1.154,1.148 0.504,0.25 1.04,0.375 1.606,0.375 0.492,0 0.973,-0.094 1.441,-0.281 0.469,-0.191 0.825,-0.395 1.067,-0.609 l 0,-1.6 -2.526,0 z"
       id="path626"
       transform="matrix(1.57942,-1.264634,0.800815,1.000149,-182.9856,365.0427)" />
    <path
       inkscape:connector-curvature="0"
       style="font-size:12px;font-weight:normal;fill:#d0d0d0;fill-opacity:1;stroke-width:1pt;font-family:helvetica"
       d="m 92.8594,167.987 0,-8.59 5.7949,0 0,1.014 -4.6582,0 0,2.66 4.0313,0 0,1.014 -4.0313,0 0,3.902 -1.1367,0 z"
       id="path631"
       transform="matrix(-1.171477,-1.6497,1.044653,-0.741824,79.96045,727.9259)" />
    <path
       inkscape:connector-curvature="0"
       style="font-size:12px;font-weight:normal;fill:#d0d0d0;fill-opacity:1;stroke-width:1pt;font-family:helvetica"
       d="m 112.108,187.63 c 0,6.42 0.658,11.488 1.978,15.191 1.328,3.685 2.99,5.527 4.987,5.527 2.032,0 3.703,-1.867 5.013,-5.595 1.319,-3.734 1.978,-9.025 1.978,-15.886 0,-4.336 -0.283,-8.12 -0.849,-11.339 -0.558,-3.25 -1.379,-5.756 -2.465,-7.524 -1.079,-1.793 -2.289,-2.692 -3.637,-2.692 -1.911,0 -3.561,1.724 -4.944,5.161 -1.374,3.417 -2.061,9.137 -2.061,17.157 z m -2.785,-0.105 c 0,-8.846 0.909,-15.768 2.73,-20.756 1.819,-5.018 4.17,-7.524 7.046,-7.524 1.885,0 3.585,1.172 5.099,3.523 1.514,2.351 2.664,5.633 3.454,9.851 0.798,4.193 1.198,8.957 1.198,14.285 0,5.403 -0.419,10.235 -1.253,14.503 -0.837,4.262 -2.021,7.5 -3.551,9.702 -1.534,2.183 -3.186,3.275 -4.959,3.275 -1.923,0 -3.642,-1.216 -5.153,-3.635 -1.515,-2.425 -2.663,-5.732 -3.442,-9.925 -0.78,-4.193 -1.169,-8.628 -1.169,-13.299 z"
       id="path634"
       transform="matrix(-0.231218,-0.819179,0.198785,-0.05610839,122.0685,538.1703)" />
    <path
       inkscape:connector-curvature="0"
       style="font-size:12px;font-weight:normal;fill:#d0d0d0;fill-opacity:1;stroke-width:1pt;font-family:helvetica"
       d="m 132.373,213.472 0,-53.284 9.054,0 c 1.821,0 3.204,0.484 4.15,1.458 0.949,0.942 1.705,2.623 2.27,5.049 0.566,2.425 0.851,5.099 0.851,8.033 0,3.777 -0.47,6.966 -1.407,9.559 -0.939,2.593 -2.387,4.243 -4.345,4.944 0.713,0.893 1.257,1.78 1.628,2.654 0.789,1.886 1.538,4.25 2.244,7.084 l 3.551,14.503 -3.399,0 -2.703,-11.085 c -0.789,-3.201 -1.438,-5.645 -1.949,-7.344 -0.511,-1.694 -0.97,-2.878 -1.378,-3.561 -0.4,-0.676 -0.809,-1.147 -1.227,-1.414 -0.307,-0.174 -0.808,-0.254 -1.502,-0.254 l -3.136,0 0,23.658 -2.702,0 z m 2.702,-29.768 5.81,0 c 1.234,0 2.199,-0.323 2.895,-0.98 0.697,-0.677 1.227,-1.744 1.588,-3.201 0.364,-1.477 0.544,-3.077 0.544,-4.795 0,-2.519 -0.354,-4.59 -1.06,-6.216 -0.696,-1.625 -1.799,-2.437 -3.313,-2.437 l -6.464,0 0,17.629 z"
       id="path637"
       transform="matrix(0.0192051,-0.850969,0.206499,0.00466023,88.36563,527.397)" />
    <path
       inkscape:connector-curvature="0"
       style="font-size:12px;font-weight:normal;fill:#d0d0d0;fill-opacity:1;stroke-width:1pt;font-family:helvetica"
       d="m 180.801,213.472 7.842,-53.284 2.912,0 8.357,53.284 -3.078,0 -2.382,-16.134 -8.538,0 -2.242,16.134 -2.871,0 z m 5.892,-21.878 6.922,0 -2.129,-14.757 c -0.652,-4.485 -1.134,-8.17 -1.45,-11.048 -0.259,3.412 -0.626,6.805 -1.101,10.173 l -2.242,15.632 z"
       id="path640"
       transform="matrix(0.730357,-0.437144,0.106079,0.177231,4.774199,406.1)" />
    <path
       inkscape:connector-curvature="0"
       style="font-size:12px;font-weight:normal;fill:#d0d0d0;fill-opacity:1;stroke-width:1pt;font-family:helvetica"
       d="m 231.556,213.472 7.842,-53.284 2.909,0 8.358,53.284 -3.078,0 -2.382,-16.134 -8.538,0 -2.242,16.134 -2.869,0 z m 5.893,-21.878 6.922,0 -2.132,-14.757 c -0.649,-4.485 -1.132,-8.17 -1.448,-11.048 -0.262,3.412 -0.628,6.805 -1.101,10.173 l -2.241,15.632 z"
       id="path643"
       transform="matrix(0.687957,0.501229,-0.12163,0.166943,81.26591,203.3)" />
    <path
       inkscape:connector-curvature="0"
       style="font-size:12px;font-weight:normal;fill:#d0d0d0;fill-opacity:1;stroke-width:1pt;font-family:helvetica"
       d="m 290.89,213.472 0,-53.284 9.054,0 c 1.819,0 3.202,0.484 4.151,1.458 0.946,0.942 1.702,2.623 2.27,5.049 0.566,2.425 0.849,5.099 0.849,8.033 0,3.777 -0.469,6.966 -1.408,9.559 -0.936,2.593 -2.386,4.243 -4.345,4.944 0.715,0.893 1.26,1.78 1.631,2.654 0.789,1.886 1.535,4.25 2.241,7.084 l 3.552,14.503 -3.397,0 -2.703,-11.085 c -0.789,-3.201 -1.44,-5.645 -1.949,-7.344 -0.511,-1.694 -0.972,-2.878 -1.381,-3.561 -0.397,-0.676 -0.806,-1.147 -1.224,-1.414 -0.307,-0.174 -0.809,-0.254 -1.505,-0.254 l -3.133,0 0,23.658 -2.703,0 z m 2.703,-29.768 5.807,0 c 1.236,0 2.201,-0.323 2.898,-0.98 0.696,-0.677 1.224,-1.744 1.588,-3.201 0.361,-1.477 0.542,-3.077 0.542,-4.795 0,-2.519 -0.352,-4.59 -1.058,-6.216 -0.697,-1.625 -1.802,-2.437 -3.316,-2.437 l -6.461,0 0,17.629 z"
       id="path646"
       transform="matrix(0.198084,0.827816,-0.200881,0.04806824,236.0143,144.2068)" />
  </g>
</svg>
