<?xml version="1.0" encoding="UTF-8" standalone="no"?>
<!-- Created with Sodipodi ("http://www.sodipodi.com/") -->

<svg
   xmlns:dc="http://purl.org/dc/elements/1.1/"
   xmlns:cc="http://creativecommons.org/ns#"
   xmlns:rdf="http://www.w3.org/1999/02/22-rdf-syntax-ns#"
   xmlns:svg="http://www.w3.org/2000/svg"
   xmlns="http://www.w3.org/2000/svg"
   xmlns:sodipodi="http://sodipodi.sourceforge.net/DTD/sodipodi-0.dtd"
   xmlns:inkscape="http://www.inkscape.org/namespaces/inkscape"
   version="1"
   x="0"
   y="0"
   width="512"
   height="512"
   id="svg378"
   inkscape:version="0.48.1 r9760"
   sodipodi:docname="mw.svg">
  <sodipodi:namedview
     pagecolor="#ffffff"
     bordercolor="#666666"
     borderopacity="1"
     objecttolerance="10"
     gridtolerance="10"
     guidetolerance="10"
     inkscape:pageopacity="0"
     inkscape:pageshadow="2"
     inkscape:window-width="1280"
     inkscape:window-height="723"
     id="namedview3845"
     showgrid="false"
     inkscape:zoom="0.4021669"
     inkscape:cx="531.495"
     inkscape:cy="385.41213"
     inkscape:window-x="0"
     inkscape:window-y="24"
     inkscape:window-maximized="1"
     inkscape:current-layer="svg378" />
  <metadata
     id="metadata3847">
    <rdf:RDF>
      <cc:Work
         rdf:about="">
        <dc:format>image/svg+xml</dc:format>
        <dc:type
           rdf:resource="http://purl.org/dc/dcmitype/StillImage" />
      </cc:Work>
    </rdf:RDF>
  </metadata>
  <defs
     id="defs380">
    <clipPath
       clipPathUnits="userSpaceOnUse"
       id="clipPath6009">
      <rect
         id="rect6011"
         height="708.66132"
         x="179.71202"
         style="fill:#000000;fill-opacity:0.67000002;stroke:none"
         width="708.66132"
         y="3.2271494e-06" />
    </clipPath>
  </defs>
  <g
     transform="matrix(0.72248902,0,0,0.72248902,-129.83996,-2.3315799e-6)"
     id="flag"
     clip-path="url(#clipPath6009)"
     inkscape:label="#g5885">
    <rect
       width="1062.99"
       height="708.66101"
       x="0"
       y="0"
       style="font-size:12px;fill:#f41408;fill-rule:evenodd;stroke-width:1pt"
       id="rect171" />
    <rect
       width="1062.99"
       height="236.22"
       x="0"
       y="472.44101"
       transform="translate(0,2.81206e-4)"
       style="font-size:12px;fill:#21873b;fill-rule:evenodd;stroke-width:1pt"
       id="rect256" />
    <rect
       width="1062.99"
       height="236.22"
       x="0"
       y="0"
       style="font-size:12px;fill-rule:evenodd;stroke-width:1pt"
       id="rect255" />
    <path
       inkscape:connector-curvature="0"
       d="M 259.713,214.667 C 321.144,65.0663 492.415,-6.49242 642.016,54.9377 717.36,85.8764 770.729,139.223 801.699,214.555 l -541.986,0.112 z"
       transform="matrix(0.502618,0,0,0.502618,270.878,106.136)"
       style="font-size:12px;fill:#f31509;fill-rule:evenodd;stroke-width:1pt"
       id="path386" />
    <path
       inkscape:connector-curvature="0"
       d="m 537.977,92.5913 c -5.966,-31.9967 -7.592,-67.2469 -7.05,-73.2125 0.542,-5.9654 3.796,-7.0501 6.507,-7.0501 2.712,0 6.508,2.7116 6.508,7.05 0,8.1348 10e-4,41.216 -5.965,73.2126 z"
       transform="matrix(0.255734,-0.966747,0.966747,0.255734,138.376,720.17)"
       style="font-size:12px;fill:#f31509;fill-rule:evenodd;stroke-width:1pt"
       id="path353" />
    <path
       inkscape:connector-curvature="0"
       d="m 537.977,92.5913 c -5.966,-31.9967 -7.592,-67.2469 -7.05,-73.2125 0.542,-5.9654 3.796,-7.0501 6.507,-7.0501 2.712,0 6.508,2.7116 6.508,7.05 0,8.1348 10e-4,41.216 -5.965,73.2126 z"
       transform="matrix(0.99999,0.00441702,-0.00441702,0.99999,0.414166,-2.34377)"
       style="font-size:12px;fill:#f31509;fill-rule:evenodd;stroke-width:1pt"
       id="path354" />
    <path
       inkscape:connector-curvature="0"
       d="m 537.977,92.5913 c -5.966,-31.9967 -7.592,-67.2469 -7.05,-73.2125 0.542,-5.9654 3.796,-7.0501 6.507,-7.0501 2.712,0 6.508,2.7116 6.508,7.05 0,8.1348 10e-4,41.216 -5.965,73.2126 z"
       transform="matrix(0.995934,0.0900828,-0.0900828,0.995934,26.5007,-47.3117)"
       style="font-size:12px;fill:#f31509;fill-rule:evenodd;stroke-width:1pt"
       id="path355" />
    <path
       inkscape:connector-curvature="0"
       d="m 537.977,92.5913 c -5.966,-31.9967 -7.592,-67.2469 -7.05,-73.2125 0.542,-5.9654 3.796,-7.0501 6.507,-7.0501 2.712,0 6.508,2.7116 6.508,7.05 0,8.1348 10e-4,41.216 -5.965,73.2126 z"
       transform="matrix(0.985144,0.171728,-0.171728,0.985144,54.3375,-88.2742)"
       style="font-size:12px;fill:#f31509;fill-rule:evenodd;stroke-width:1pt"
       id="path356" />
    <path
       inkscape:connector-curvature="0"
       d="m 537.977,92.5913 c -5.966,-31.9967 -7.592,-67.2469 -7.05,-73.2125 0.542,-5.9654 3.796,-7.0501 6.507,-7.0501 2.712,0 6.508,2.7116 6.508,7.05 0,8.1348 10e-4,41.216 -5.965,73.2126 z"
       transform="matrix(0.966217,0.257731,-0.257731,0.966217,87.7237,-129.382)"
       style="font-size:12px;fill:#f31509;fill-rule:evenodd;stroke-width:1pt"
       id="path357" />
    <path
       inkscape:connector-curvature="0"
       d="m 537.977,92.5913 c -5.966,-31.9967 -7.592,-67.2469 -7.05,-73.2125 0.542,-5.9654 3.796,-7.0501 6.507,-7.0501 2.712,0 6.508,2.7116 6.508,7.05 0,8.1348 10e-4,41.216 -5.965,73.2126 z"
       transform="matrix(0.939525,0.34248,-0.34248,0.939525,124.944,-167.72)"
       style="font-size:12px;fill:#f31509;fill-rule:evenodd;stroke-width:1pt"
       id="path358" />
    <path
       inkscape:connector-curvature="0"
       d="m 537.977,92.5913 c -5.966,-31.9967 -7.592,-67.2469 -7.05,-73.2125 0.542,-5.9654 3.796,-7.0501 6.507,-7.0501 2.712,0 6.508,2.7116 6.508,7.05 0,8.1348 10e-4,41.216 -5.965,73.2126 z"
       transform="matrix(0.906804,0.421551,-0.421551,0.906804,163.871,-201.38)"
       style="font-size:12px;fill:#f31509;fill-rule:evenodd;stroke-width:1pt"
       id="path359" />
    <path
       inkscape:connector-curvature="0"
       d="m 537.977,92.5913 c -5.966,-31.9967 -7.592,-67.2469 -7.05,-73.2125 0.542,-5.9654 3.796,-7.0501 6.507,-7.0501 2.712,0 6.508,2.7116 6.508,7.05 0,8.1348 10e-4,41.216 -5.965,73.2126 z"
       transform="matrix(0.866413,0.499327,-0.499327,0.866413,206.57,-232.272)"
       style="font-size:12px;fill:#f31509;fill-rule:evenodd;stroke-width:1pt"
       id="path360" />
    <path
       inkscape:connector-curvature="0"
       d="m 537.977,92.5913 c -5.966,-31.9967 -7.592,-67.2469 -7.05,-73.2125 0.542,-5.9654 3.796,-7.0501 6.507,-7.0501 2.712,0 6.508,2.7116 6.508,7.05 0,8.1348 10e-4,41.216 -5.965,73.2126 z"
       transform="matrix(0.819597,0.57294,-0.57294,0.819597,251.598,-259.194)"
       style="font-size:12px;fill:#f31509;fill-rule:evenodd;stroke-width:1pt"
       id="path361" />
    <path
       inkscape:connector-curvature="0"
       d="m 537.977,92.5913 c -5.966,-31.9967 -7.592,-67.2469 -7.05,-73.2125 0.542,-5.9654 3.796,-7.0501 6.507,-7.0501 2.712,0 6.508,2.7116 6.508,7.05 0,8.1348 10e-4,41.216 -5.965,73.2126 z"
       transform="matrix(0.766464,0.642287,-0.642287,0.766464,298.87,-282.118)"
       style="font-size:12px;fill:#f31509;fill-rule:evenodd;stroke-width:1pt"
       id="path362" />
    <path
       inkscape:connector-curvature="0"
       d="m 537.977,92.5913 c -5.966,-31.9967 -7.592,-67.2469 -7.05,-73.2125 0.542,-5.9654 3.796,-7.0501 6.507,-7.0501 2.712,0 6.508,2.7116 6.508,7.05 0,8.1348 10e-4,41.216 -5.965,73.2126 z"
       transform="matrix(0.707341,0.706872,-0.706872,0.707341,348.075,-300.866)"
       style="font-size:12px;fill:#f31509;fill-rule:evenodd;stroke-width:1pt"
       id="path363" />
    <path
       inkscape:connector-curvature="0"
       d="m 537.977,92.5913 c -5.966,-31.9967 -7.592,-67.2469 -7.05,-73.2125 0.542,-5.9654 3.796,-7.0501 6.507,-7.0501 2.712,0 6.508,2.7116 6.508,7.05 0,8.1348 10e-4,41.216 -5.965,73.2126 z"
       transform="matrix(0.642603,0.766199,-0.766199,0.642603,398.879,-315.273)"
       style="font-size:12px;fill:#f31509;fill-rule:evenodd;stroke-width:1pt"
       id="path364" />
    <path
       inkscape:connector-curvature="0"
       d="m 537.977,92.5913 c -5.966,-31.9967 -7.592,-67.2469 -7.05,-73.2125 0.542,-5.9654 3.796,-7.0501 6.507,-7.0501 2.712,0 6.508,2.7116 6.508,7.05 0,8.1348 10e-4,41.216 -5.965,73.2126 z"
       transform="matrix(0.5762,0.817309,-0.817309,0.5762,448.359,-324.814)"
       style="font-size:12px;fill:#f31509;fill-rule:evenodd;stroke-width:1pt"
       id="path365" />
    <path
       inkscape:connector-curvature="0"
       d="m 537.977,92.5913 c -5.966,-31.9967 -7.592,-67.2469 -7.05,-73.2125 0.542,-5.9654 3.796,-7.0501 6.507,-7.0501 2.712,0 6.508,2.7116 6.508,7.05 0,8.1348 10e-4,41.216 -5.965,73.2126 z"
       transform="matrix(0.504163,0.863609,-0.863609,0.504163,499.568,-330.25)"
       style="font-size:12px;fill:#f31509;fill-rule:evenodd;stroke-width:1pt"
       id="path366" />
    <path
       inkscape:connector-curvature="0"
       d="m 537.977,92.5913 c -5.966,-31.9967 -7.592,-67.2469 -7.05,-73.2125 0.542,-5.9654 3.796,-7.0501 6.507,-7.0501 2.712,0 6.508,2.7116 6.508,7.05 0,8.1348 10e-4,41.216 -5.965,73.2126 z"
       transform="matrix(0.422041,0.906577,-0.906577,0.422041,555.298,-331.174)"
       style="font-size:12px;fill:#f31509;fill-rule:evenodd;stroke-width:1pt"
       id="path367" />
    <path
       inkscape:connector-curvature="0"
       d="m 537.977,92.5913 c -5.966,-31.9967 -7.592,-67.2469 -7.05,-73.2125 0.542,-5.9654 3.796,-7.0501 6.507,-7.0501 2.712,0 6.508,2.7116 6.508,7.05 0,8.1348 10e-4,41.216 -5.965,73.2126 z"
       transform="matrix(0.342725,0.939436,-0.939436,0.342725,606.791,-327.422)"
       style="font-size:12px;fill:#f31509;fill-rule:evenodd;stroke-width:1pt"
       id="path368" />
    <path
       inkscape:connector-curvature="0"
       d="m 537.977,92.5913 c -5.966,-31.9967 -7.592,-67.2469 -7.05,-73.2125 0.542,-5.9654 3.796,-7.0501 6.507,-7.0501 2.712,0 6.508,2.7116 6.508,7.05 0,8.1348 10e-4,41.216 -5.965,73.2126 z"
       transform="matrix(0.25861,0.965982,-0.965982,0.25861,659.158,-318.982)"
       style="font-size:12px;fill:#f31509;fill-rule:evenodd;stroke-width:1pt"
       id="path369" />
    <path
       inkscape:connector-curvature="0"
       d="m 537.977,92.5913 c -5.966,-31.9967 -7.592,-67.2469 -7.05,-73.2125 0.542,-5.9654 3.796,-7.0501 6.507,-7.0501 2.712,0 6.508,2.7116 6.508,7.05 0,8.1348 10e-4,41.216 -5.965,73.2126 z"
       transform="matrix(0.996112,-0.0880929,0.0880929,0.996112,-21.6896,48.3893)"
       style="font-size:12px;fill:#f31509;fill-rule:evenodd;stroke-width:1pt"
       id="path370" />
    <path
       inkscape:connector-curvature="0"
       d="m 537.977,92.5913 c -5.966,-31.9967 -7.592,-67.2469 -7.05,-73.2125 0.542,-5.9654 3.796,-7.0501 6.507,-7.0501 2.712,0 6.508,2.7116 6.508,7.05 0,8.1348 10e-4,41.216 -5.965,73.2126 z"
       transform="matrix(0.98462,-0.174707,0.174707,0.98462,-38.8937,98.0365)"
       style="font-size:12px;fill:#f31509;fill-rule:evenodd;stroke-width:1pt"
       id="path371" />
    <path
       inkscape:connector-curvature="0"
       d="m 537.977,92.5913 c -5.966,-31.9967 -7.592,-67.2469 -7.05,-73.2125 0.542,-5.9654 3.796,-7.0501 6.507,-7.0501 2.712,0 6.508,2.7116 6.508,7.05 0,8.1348 10e-4,41.216 -5.965,73.2126 z"
       transform="matrix(0.965398,-0.260781,0.260781,0.965398,-51.7976,149.48)"
       style="font-size:12px;fill:#f31509;fill-rule:evenodd;stroke-width:1pt"
       id="path372" />
    <path
       inkscape:connector-curvature="0"
       d="m 537.977,92.5913 c -5.966,-31.9967 -7.592,-67.2469 -7.05,-73.2125 0.542,-5.9654 3.796,-7.0501 6.507,-7.0501 2.712,0 6.508,2.7116 6.508,7.05 0,8.1348 10e-4,41.216 -5.965,73.2126 z"
       transform="matrix(0.939769,-0.341809,0.341809,0.939769,-59.8969,199.941)"
       style="font-size:12px;fill:#f31509;fill-rule:evenodd;stroke-width:1pt"
       id="path373" />
    <path
       inkscape:connector-curvature="0"
       d="m 537.977,92.5913 c -5.966,-31.9967 -7.592,-67.2469 -7.05,-73.2125 0.542,-5.9654 3.796,-7.0501 6.507,-7.0501 2.712,0 6.508,2.7116 6.508,7.05 0,8.1348 10e-4,41.216 -5.965,73.2126 z"
       transform="matrix(0.907038,-0.421048,0.421048,0.907038,-63.6966,251.358)"
       style="font-size:12px;fill:#f31509;fill-rule:evenodd;stroke-width:1pt"
       id="path374" />
    <path
       inkscape:connector-curvature="0"
       d="m 537.977,92.5913 c -5.966,-31.9967 -7.592,-67.2469 -7.05,-73.2125 0.542,-5.9654 3.796,-7.0501 6.507,-7.0501 2.712,0 6.508,2.7116 6.508,7.05 0,8.1348 10e-4,41.216 -5.965,73.2126 z"
       transform="matrix(0.865427,-0.501036,0.501036,0.865427,-62.926,305.575)"
       style="font-size:12px;fill:#f31509;fill-rule:evenodd;stroke-width:1pt"
       id="path375" />
    <path
       inkscape:connector-curvature="0"
       d="m 537.977,92.5913 c -5.966,-31.9967 -7.592,-67.2469 -7.05,-73.2125 0.542,-5.9654 3.796,-7.0501 6.507,-7.0501 2.712,0 6.508,2.7116 6.508,7.05 0,8.1348 10e-4,41.216 -5.965,73.2126 z"
       transform="matrix(0.818947,-0.573869,0.573869,0.818947,-57.6084,357.26)"
       style="font-size:12px;fill:#f31509;fill-rule:evenodd;stroke-width:1pt"
       id="path376" />
    <path
       inkscape:connector-curvature="0"
       d="m 537.977,92.5913 c -5.966,-31.9967 -7.592,-67.2469 -7.05,-73.2125 0.542,-5.9654 3.796,-7.0501 6.507,-7.0501 2.712,0 6.508,2.7116 6.508,7.05 0,8.1348 10e-4,41.216 -5.965,73.2126 z"
       transform="matrix(0.766991,-0.641658,0.641658,0.766991,-48.0514,407.661)"
       style="font-size:12px;fill:#f31509;fill-rule:evenodd;stroke-width:1pt"
       id="path377" />
    <path
       inkscape:connector-curvature="0"
       d="m 537.977,92.5913 c -5.966,-31.9967 -7.592,-67.2469 -7.05,-73.2125 0.542,-5.9654 3.796,-7.0501 6.507,-7.0501 2.712,0 6.508,2.7116 6.508,7.05 0,8.1348 10e-4,41.216 -5.965,73.2126 z"
       transform="matrix(0.706724,-0.707489,0.707489,0.706724,-33.5076,459.256)"
       style="font-size:12px;fill:#f31509;fill-rule:evenodd;stroke-width:1pt"
       id="path378" />
    <path
       inkscape:connector-curvature="0"
       d="m 537.977,92.5913 c -5.966,-31.9967 -7.592,-67.2469 -7.05,-73.2125 0.542,-5.9654 3.796,-7.0501 6.507,-7.0501 2.712,0 6.508,2.7116 6.508,7.05 0,8.1348 10e-4,41.216 -5.965,73.2126 z"
       transform="matrix(0.644944,-0.764229,0.764229,0.644944,-15.696,506.384)"
       style="font-size:12px;fill:#f31509;fill-rule:evenodd;stroke-width:1pt"
       id="path379" />
    <path
       inkscape:connector-curvature="0"
       d="m 537.977,92.5913 c -5.966,-31.9967 -7.592,-67.2469 -7.05,-73.2125 0.542,-5.9654 3.796,-7.0501 6.507,-7.0501 2.712,0 6.508,2.7116 6.508,7.05 0,8.1348 10e-4,41.216 -5.965,73.2126 z"
       transform="matrix(0.57445,-0.81854,0.81854,0.57445,7.44682,554.562)"
       style="font-size:12px;fill:#f31509;fill-rule:evenodd;stroke-width:1pt"
       id="path380" />
    <path
       inkscape:connector-curvature="0"
       d="m 537.977,92.5913 c -5.966,-31.9967 -7.592,-67.2469 -7.05,-73.2125 0.542,-5.9654 3.796,-7.0501 6.507,-7.0501 2.712,0 6.508,2.7116 6.508,7.05 0,8.1348 10e-4,41.216 -5.965,73.2126 z"
       transform="matrix(0.498227,-0.867047,0.867047,0.498227,35.2305,601.175)"
       style="font-size:12px;fill:#f31509;fill-rule:evenodd;stroke-width:1pt"
       id="path381" />
    <path
       inkscape:connector-curvature="0"
       d="m 537.977,92.5913 c -5.966,-31.9967 -7.592,-67.2469 -7.05,-73.2125 0.542,-5.9654 3.796,-7.0501 6.507,-7.0501 2.712,0 6.508,2.7116 6.508,7.05 0,8.1348 10e-4,41.216 -5.965,73.2126 z"
       transform="matrix(0.420773,-0.907166,0.907166,0.420773,65.9405,643.622)"
       style="font-size:12px;fill:#f31509;fill-rule:evenodd;stroke-width:1pt"
       id="path382" />
    <path
       inkscape:connector-curvature="0"
       d="m 537.977,92.5913 c -5.966,-31.9967 -7.592,-67.2469 -7.05,-73.2125 0.542,-5.9654 3.796,-7.0501 6.507,-7.0501 2.712,0 6.508,2.7116 6.508,7.05 0,8.1348 10e-4,41.216 -5.965,73.2126 z"
       transform="matrix(0.343257,-0.939241,0.939241,0.343257,98.8568,681.77)"
       style="font-size:12px;fill:#f31509;fill-rule:evenodd;stroke-width:1pt"
       id="path383" />
    <path
       inkscape:connector-curvature="0"
       d="m 537.977,92.5913 c -5.966,-31.9967 -7.592,-67.2469 -7.05,-73.2125 0.542,-5.9654 3.796,-7.0501 6.507,-7.0501 2.712,0 6.508,2.7116 6.508,7.05 0,8.1348 10e-4,41.216 -5.965,73.2126 z"
       transform="matrix(0.255734,-0.966747,0.966747,0.255734,138.376,720.17)"
       style="font-size:12px;fill:#f31509;fill-rule:evenodd;stroke-width:1pt"
       id="path384" />
    <rect
       width="527.66101"
       height="19.1738"
       x="275.33499"
       y="214.745"
       style="font-size:12px;fill-rule:evenodd;stroke-width:1pt"
       id="rect385" />
  </g>
</svg>
