<?xml version="1.0" encoding="UTF-8" standalone="no"?>
<!-- Created with Sodipodi ("http://www.sodipodi.com/") -->

<svg
   xmlns:dc="http://purl.org/dc/elements/1.1/"
   xmlns:cc="http://creativecommons.org/ns#"
   xmlns:rdf="http://www.w3.org/1999/02/22-rdf-syntax-ns#"
   xmlns:svg="http://www.w3.org/2000/svg"
   xmlns="http://www.w3.org/2000/svg"
   xmlns:sodipodi="http://sodipodi.sourceforge.net/DTD/sodipodi-0.dtd"
   xmlns:inkscape="http://www.inkscape.org/namespaces/inkscape"
   id="svg571"
   sodipodi:version="0.33pre"
   width="512"
   height="512"
   sodipodi:docname="nf.svg"
   version="1.1"
   inkscape:version="0.48.1 r9760">
  <sodipodi:namedview
     id="base"
     showgrid="false"
     inkscape:zoom="0.33060318"
     inkscape:cx="496.06299"
     inkscape:cy="248.03149"
     inkscape:window-width="1280"
     inkscape:window-height="723"
     inkscape:window-x="0"
     inkscape:window-y="24"
     inkscape:window-maximized="1"
     inkscape:current-layer="svg571" />
  <metadata
     id="metadata3030">
    <rdf:RDF>
      <cc:Work
         rdf:about="">
        <dc:format>image/svg+xml</dc:format>
        <dc:type
           rdf:resource="http://purl.org/dc/dcmitype/StillImage" />
      </cc:Work>
    </rdf:RDF>
  </metadata>
  <defs
     id="defs573" />
  <g
     id="flag"
     transform="matrix(0.50000012,0,0,1,130.00003,0)"
     inkscape:label="#g9093">
    <rect
       style="font-size:12px;fill:#ffffff;fill-opacity:1;fill-rule:evenodd;stroke-width:1pt"
       id="rect609"
       width="400.71304"
       height="511.99985"
       x="51.661633"
       y="0.00014491314" />
    <rect
       style="font-size:12px;fill:#198200;fill-opacity:1;fill-rule:evenodd;stroke-width:1pt"
       id="rect608"
       width="311.66162"
       height="511.99985"
       x="-260"
       y="6.3375126e-05" />
    <rect
       style="font-size:12px;fill:#198200;fill-opacity:1;fill-rule:evenodd;stroke-width:1pt"
       id="rect610"
       width="311.62506"
       height="511.99985"
       x="452.37469"
       y="-6.1672955e-07" />
  </g>
  <g
     id="g9098"
     transform="matrix(0.57524845,0,0,0.57524845,105.34937,104.3199)">
    <path
       inkscape:connector-curvature="0"
       style="fill:#198200;fill-opacity:1;fill-rule:evenodd;stroke:#000000;stroke-width:1.29015839;stroke-linecap:round;stroke-linejoin:round;stroke-opacity:1;stroke-dasharray:none"
       d="m 239.21698,396.40698 c 0,23.77194 0,47.54491 0,71.31685 9.60807,0.0991 19.21613,0.19817 28.8242,0.29726 0,0 -9.21173,-62.10513 -4.1605,-70.4251 5.05226,-8.31998 9.80623,-7.132 9.80623,-7.132 0,0 18.72072,5.64676 20.80045,4.75501 2.08077,-0.89176 -0.29725,-7.132 9.80624,-6.24024 3.26874,-1.18901 1.48626,-6.83474 4.45775,-7.132 2.9715,-0.29725 60.32162,16.04648 72.80209,0.59451 -3.26874,-8.61723 -14.56021,-0.59451 -17.5317,-0.29725 -2.67424,0 -13.96571,-5.34848 -20.50423,0 -5.94299,-4.45673 -32.98367,-7.42925 -32.98367,-7.42925 -3.566,-3.566 64.48211,1.78351 68.34536,-0.89073 8.02272,-8.02375 -14.85746,-7.13199 -18.42346,-4.45775 -6.33932,-3.86325 -14.28876,-3.56497 -19.14285,-0.89073 -2.32745,-5.56729 -24.43973,-3.16966 -36.72204,-4.75501 -3.93137,-2.30577 -3.25842,-3.61657 -0.5945,-5.05122 25.65454,1.08992 51.18316,4.41853 76.96259,3.26874 6.96789,-9.08375 -8.77824,-12.4908 -18.42346,-4.75501 -5.66225,-9.31184 -17.23446,-0.29725 -24.96096,-1.18797 -7.72546,-0.89176 -4.15947,-10.40074 5.64574,-8.91551 9.80623,1.48626 27.33897,-0.59348 30.60771,-5.05123 3.26772,-4.45673 -1.95175,-8.98467 -18.12724,-4.75398 -5.4744,-5.35054 -17.5317,0 -23.17743,1.78249 -7.51182,-4.19044 -24.96096,-0.59451 -30.90394,0.89175 -5.8181,-3.61657 30.60668,-9.50898 30.60668,-9.50898 14.06067,-0.24874 21.98946,-2.67424 26.44619,-3.86325 21.25561,-11.39262 -0.30448,-12.6064 -11.45867,-4.32564 -6.92351,-5.40525 -13.50125,0.46239 -19.74149,2.54316 -6.24024,2.07973 -18.12724,3.56599 -18.12724,2.67424 0,-0.89176 16.93823,-11.2925 16.93823,-11.2925 0,0 20.80045,-1.48523 24.96095,-2.07974 4.1605,-0.5945 25.45121,-11.52163 -3.566,-4.1605 -10.10349,0.89176 -16.04647,0.29725 -19.90972,0.59451 -22.40231,-2.3161 2.08077,-4.45673 2.08077,-4.45673 0,0 31.71828,-2.91576 32.09191,-4.45775 0.62237,-12.36695 -25.85168,-6.53749 -26.14893,-6.53749 0.0764,-8.83501 -24.6637,0.29725 -24.6637,0 -4.72817,-2.78571 2.67424,-5.64574 2.67424,-5.64574 6.53749,-1.58431 16.30967,-2.0498 18.86625,-4.1316 0,0 18.46371,-0.17856 20.65492,-5.08013 -4.52794,-12.49183 -39.05878,2.21804 -43.68167,4.45776 -6.24024,0 4.1605,-10.10349 4.45775,-10.40074 0.29726,-0.29726 28.52695,-1.48523 41.89816,-19.61247 0.92891,-11.03344 -15.74923,6.24023 -15.74923,6.24023 -1.24474,-14.3094 -18.1262,0.89176 -27.93244,2.08077 -9.8052,1.18798 -10.10246,-4.45775 -3.26771,-5.34951 6.83371,-0.89073 14.56021,-0.29622 18.42346,-10.69696 3.86222,-10.40074 15.45197,0.5945 17.5317,-3.26875 2.07974,-3.86325 -4.1605,-7.13199 -4.1605,-7.13199 0,0 8.61723,-8.91448 -5.34848,-8.61723 -13.96674,0.29725 -32.09295,-1.78248 -32.09295,-1.78248 0,0 14.56124,-5.64677 28.2297,-5.34952 13.66948,0.29726 6.24024,-9.8052 -6.83474,-9.8052 -13.07395,0 -19.9087,-4.45775 -19.9087,-4.45775 7.42925,-2.77333 14.85747,-5.54665 22.28672,-8.31998 -0.49543,-2.07973 -0.99085,-4.1605 -1.48627,-6.24024 0,0 13.07498,-10.40074 -5.34848,-8.02375 -18.42346,2.37802 -20.50319,2.67424 -20.50319,2.67424 0,0 -36.84693,5.64677 -37.14418,5.64677 -0.29725,0 -10.10349,-2.9715 -0.59451,-5.34952 9.50899,-2.37698 43.08717,-9.21173 48.13839,-7.42821 5.05226,1.78248 -0.5945,-12.48048 -18.42346,-14.26399 -17.82895,-1.78249 -28.8242,4.45775 -28.8242,4.45775 0,0 -11.58872,-4.1605 -0.89073,-7.7265 10.69697,-3.56496 27.6352,1.18901 27.6352,1.18901 0,0 19.01796,-5.64573 3.26874,-8.02272 -15.74922,-2.37802 -20.71581,2.12825 -27.93244,2.37699 -2.88067,-3.59593 24.72356,-4.45569 26.44618,-7.42925 -2.91163,-5.35054 -20.00778,0 -30.01218,0 -4.25546,-1.80519 -4.53,-4.7323 0.29725,-6.53749 10.20257,-0.39634 19.78174,0.20333 29.98432,-0.19301 -0.29726,-5.44756 0.0279,-11.89113 -0.26939,-17.33869 -12.9408,-2.36461 -28.12442,1.7061 -35.38956,1.36137 1.94349,-5.94402 29.90174,-7.4695 33.01257,-9.08684 6.4704,-8.08775 -27.33794,0 -27.63519,0 -5.89654,-0.87112 -5.51569,-4.59503 -1.78248,-6.83474 8.61722,-0.99085 27.93554,1.25403 26.47405,-4.58884 -1.11986,-5.47512 -13.4001,-2.54316 -18.45133,-1.35415 -5.05123,1.18798 -12.48048,0.29725 -12.48048,0.29725 -3.23468,-4.35506 29.12042,-2.58372 28.8242,-5.943396 -0.42214,-3.857367 -20.50422,-1.1887 -27.33897,-0.891448 -5.34022,-3.684589 25.65248,-6.11566 26.14996,-6.537387 1.11986,-9.878278 -20.80045,0 -24.96095,0 -4.1605,0 -2.07973,-6.240238 -2.07973,-6.240238 0,0 8.61722,-3.862941 8.31997,-4.457239 -0.29725,-0.594299 -6.53749,-2.674344 -7.132,-2.674344 -0.59347,0 0,-6.83464 0,-6.83464 0,0 7.132,-5.348687 6.5375,-6.834433 -0.59451,-1.48585 -8.31998,1.188597 -8.31998,1.188597 0,-1.981064 0,-3.962025 0,-5.943089 0,0 5.64573,-0.594298 6.24024,-3.268642 0.5945,-2.674446 -6.83474,-2.971596 -6.83474,-2.971596 -0.99084,-10.400328 -1.98065,-20.800656 -2.9715,-31.200983 -0.89175,9.706945 -1.78248,19.413993 -2.67424,29.120938 -3.26874,0.495318 -6.53749,0.990532 -9.80623,1.485747 0,0 6.83474,3.863044 8.02375,7.725984 1.18798,3.863044 -8.321,2.674344 -8.321,2.674344 0,0 7.7265,6.537387 8.321,8.914684 0.59347,2.377195 -10.69799,2.971493 -10.69799,2.971493 0,0 9.50898,6.834537 10.10349,10.697477 0.5945,3.863044 0,5.943089 0,5.943089 0,0 -15.74923,-13.669073 -25.85271,-9.806029 -5.25043,2.743083 12.0284,4.011876 23.47572,13.966222 -0.0268,2.216802 -27.80137,-6.765074 -28.8242,-1.1887 0.64404,1.552009 29.65816,5.717259 31.79569,9.509089 -10.59891,0.39633 -32.52025,-2.31909 -31.79569,1.18798 -2.21495,4.04903 20.70343,1.75048 30.30943,5.05226 2.81564,3.19959 2.52148,5.90273 -2.37699,6.24023 -9.25818,-4.42679 -29.96264,-7.73269 -30.01218,-2.08076 0.12592,1.50897 21.40424,0.52948 29.12042,5.64676 -10.29959,2.34293 -45.23605,-4.76842 -45.45692,-1.30564 0.99497,1.61734 6.53026,8.73386 16.03925,8.4366 9.50898,-0.29725 31.49741,3.86325 32.98367,6.83475 1.48523,2.97149 -28.52695,-6.24024 -39.81841,-0.89176 -11.29147,5.34951 32.38916,2.08077 39.52116,8.61826 7.13199,6.53749 -14.26296,-0.59451 -14.26296,-0.59451 0,0 -29.71596,-4.1605 -34.17268,-2.08076 -4.45776,2.08076 -9.50899,6.83474 -9.50899,6.83474 0,0 2.9715,5.94298 5.94299,4.75501 2.97149,-1.18901 -0.89176,3.56599 -0.89176,3.56599 0,0 41.60193,10.10246 50.81366,19.01694 9.21173,8.91551 -52.89339,-13.96571 -52.89339,-13.96571 0,0 -24.96096,9.21173 1.48523,9.80624 -3.04271,4.45156 1.48626,7.13096 1.48626,7.13096 0,0 43.97892,9.21173 48.43564,16.34373 4.45776,7.13199 -30.01218,-6.83475 -37.73868,-10.69696 -7.72547,-3.86325 -29.71493,2.37698 -29.41768,3.86221 0.29726,1.48627 10.698,3.566 10.99422,6.24024 0.29725,2.67424 -12.7767,3.566 -12.7767,5.94299 0,2.37802 55.56764,13.96674 70.4251,26.44721 14.85747,12.48048 -43.68166,-14.85746 -43.68166,-14.85746 0,0 3.26874,4.45672 0,5.64573 -3.26875,1.18798 -14.85747,-16.64098 -33.87543,-5.64573 -3.46382,4.52381 16.5904,8.11974 21.6922,8.61722 -1.74223,4.47943 -3.26874,5.94299 3.86325,10.39971 7.13097,4.45776 -13.96673,-6.53646 -13.96673,-5.94298 0,0.5945 1.48626,7.7265 1.48626,7.7265 -6.58394,-5.34848 -14.53441,-6.96376 -21.98946,-1.48626 0,0 -0.29725,5.34951 7.42821,8.61825 -4.2183,8.61929 4.75501,5.94299 19.01797,13.96571 -21.19885,-5.54046 -22.88018,4.75501 -7.72547,7.132 15.15472,2.37698 56.75562,3.86325 66.56185,16.63994 9.80624,12.77773 -13.93164,-4.8995 -16.63994,-5.34848 -0.59451,0.29725 -1.18901,6.53749 -1.18901,6.53749 -6.33933,-3.66921 -12.18116,-6.96582 -19.7642,-8.5202 -0.5945,1.18797 -0.44175,2.87447 -1.03625,4.06245 -6.88119,-4.96247 -12.8892,-8.43145 -22.88122,-8.91448 -0.39634,1.58535 -0.79267,3.16966 -1.18901,4.75501 0,0 -8.31997,-10.40074 -24.6637,0 -9.12606,6.54265 34.46994,2.37698 41.60193,10.10348 7.132,7.72547 1.48523,8.91448 1.48523,8.91448 -5.94298,-2.17882 -11.88597,-4.35867 -17.82895,-6.53749 0,0 -21.09771,-3.86325 -27.04069,0.89073 -5.94299,4.75501 86.76883,16.34372 89.44307,29.12145 1.80312,6.9297 -21.78923,-7.27546 -42.19541,-13.37223 -0.79267,2.2779 -1.58534,4.55684 -2.37802,6.83474 0,0 -8.10322,-8.14038 -17.23445,-9.50898 -0.29725,0 1.78248,8.02375 1.78248,8.02375 0,0 -22.88018,-10.69799 -34.4689,-5.05226 -11.58975,5.64573 40.41292,8.61723 45.1669,13.96674 4.75397,5.34848 -15.74922,-3.566 -17.53171,0 -1.78351,3.566 -27.04172,-6.53749 -26.74446,-1.78351 0.29725,4.755 3.56599,7.42924 3.56599,7.42924 0,0 52.59615,5.05123 54.37966,11.29147 1.78249,6.24024 -29.12145,-3.566 -29.12145,-3.566 0,0 -2.9715,4.45776 -0.59451,6.53749 2.37699,2.08077 -17.82895,-11.88597 -16.04647,-2.67424 -6.55297,-2.60921 -23.47469,-10.69696 -21.0977,-4.45672 2.37698,6.24024 47.84217,15.15471 47.84217,15.15471 0,0 -19.90973,1.48524 -19.01797,6.5375 -25.61222,-15.6037 -24.96095,-5.64677 -24.36645,-5.34952 0.59451,0.29726 -32.98367,-8.31997 -7.7265,5.34952 25.25821,13.66845 13.66949,11.29146 13.96674,11.58871 0.29725,0.29726 2.67424,6.83475 2.07974,6.83475 -0.59451,0 -17.23446,-8.91551 -22.88019,-9.50899 -5.64676,-0.5945 -32.390199,7.42822 -3.86325,19.9087 28.52695,12.48047 46.05865,-2.9715 61.80788,-1.18798 15.74922,1.78248 23.17743,4.45672 21.6922,9.50898 -1.48626,5.05123 -16.08879,-16.55428 -31.45819,2.13547 -17.48319,-3.45969 -29.34852,-5.46717 -20.3236,7.38074 -28.55172,-10.67013 -45.98228,3.26049 -10.02608,8.90725 35.33279,1.04142 57.05287,-8.61826 57.05287,-8.61826 0,0 5.94298,10.99525 14.56124,3.26875 8.61722,-7.72547 8.91448,2.97149 9.21173,2.97149 0.29622,0 8.31997,-3.56599 8.31997,-3.56599 0.69359,0 1.38615,0 2.07974,0 z"
       id="path575"
       sodipodi:nodetypes="ccccccccccccccccccccccccccccccccccccccccccccccccccccccccccccccccccccccccccccccccccccccccccccccccccccccccccccccccccccccccccccccccccccccccccccccccccccccccccccccccccccccccccccccccccccccccccc" />
    <path
       inkscape:connector-curvature="0"
       style="fill:#ffffff;fill-opacity:1;fill-rule:evenodd;stroke:#000000;stroke-width:1.03212671pt;stroke-linecap:round;stroke-linejoin:round;stroke-opacity:1"
       d="m 242.69628,354.22292 c 0,-0.37363 0,-4.97691 0,-4.97691 0,0 -11.22335,-1.99097 -16.69775,-0.87112 -3.24191,-1.85782 -6.30526,-4.30396 -10.17883,-2.23971 -0.74726,1.61734 7.09277,5.84803 9.70509,5.84803 3.06025,1.93627 17.17149,2.48846 17.17149,2.23971 z"
       id="path580"
       sodipodi:nodetypes="cccccc" />
    <path
       inkscape:connector-curvature="0"
       style="fill:#ffffff;fill-opacity:1;fill-rule:evenodd;stroke:#000000;stroke-width:1.03212671pt;stroke-linecap:round;stroke-linejoin:round;stroke-opacity:1"
       d="m 242.57139,362.31067 c 0,0 -11.22438,-4.10374 -15.70381,0.62444 0.73281,5.02645 13.21535,7.4633 15.8287,6.0947 2.61334,-1.3686 0,-6.4704 -0.12489,-6.71914 z"
       id="path581"
       sodipodi:nodetypes="cccc" />
    <path
       inkscape:connector-curvature="0"
       style="fill:#ffffff;fill-opacity:1;fill-rule:evenodd;stroke:#000000;stroke-width:1.03212671pt;stroke-linecap:round;stroke-linejoin:round;stroke-opacity:1"
       d="m 261.48511,364.30164 0,3.48446 c 0,0 13.43829,2.61231 15.80289,-0.24874 2.36357,-2.86209 -10.70109,-4.72817 -15.80289,-3.23572 z"
       id="path582" />
    <path
       inkscape:connector-curvature="0"
       style="fill:#ffffff;fill-opacity:1;fill-rule:evenodd;stroke:#000000;stroke-width:1.03212671pt;stroke-linecap:round;stroke-linejoin:round;stroke-opacity:1"
       d="m 260.86584,350.41644 0.49542,3.93137 c 0,0 11.57117,2.61231 16.0506,-3.7332 4.47943,-6.34552 -10.16851,0.0506 -16.54602,-0.19817 z"
       id="path583"
       sodipodi:nodetypes="cccc" />
    <path
       inkscape:connector-curvature="0"
       style="fill:#ffffff;fill-opacity:1;fill-rule:evenodd;stroke:#000000;stroke-width:1.03212671pt;stroke-linecap:round;stroke-linejoin:round;stroke-opacity:1"
       d="m 261.48511,336.92758 0,2.61231 c 0,0 8.71012,1.36963 10.70109,-2.36357 1.99097,-3.7332 -10.45235,0 -10.70109,-0.24874 z"
       id="path584" />
    <path
       inkscape:connector-curvature="0"
       style="fill:#ffffff;fill-opacity:1;fill-rule:evenodd;stroke:#000000;stroke-width:1.03212671pt;stroke-linecap:round;stroke-linejoin:round;stroke-opacity:1"
       d="m 243.29181,328.89041 c -1.3397,-1.9115 -6.06993,-6.64587 -18.76199,-8.01447 -8.82056,-0.0289 15.93293,12.979 18.76199,8.01447 z"
       id="path585"
       sodipodi:nodetypes="ccc" />
    <path
       inkscape:connector-curvature="0"
       style="fill:#ffffff;fill-opacity:1;fill-rule:evenodd;stroke:#000000;stroke-width:1.03212671pt;stroke-linecap:round;stroke-linejoin:round;stroke-opacity:1"
       d="m 261.23637,315.65029 c 0,0 -0.49749,3.60831 -0.37363,3.60831 0.12489,0 29.86355,-8.835 36.83144,-8.21263 6.22372,-1.75978 7.4664,-6.09677 7.21663,-6.09677 -5.31132,-3.87151 -30.98238,3.11083 -43.67444,10.70109 z"
       id="path586"
       sodipodi:nodetypes="ccccc" />
    <path
       inkscape:connector-curvature="0"
       style="fill:#ffffff;fill-opacity:1;fill-rule:evenodd;stroke:#000000;stroke-width:1.03212671pt;stroke-linecap:round;stroke-linejoin:round;stroke-opacity:1"
       d="m 261.85874,305.07305 c -0.12489,0.62237 -0.37363,3.48446 -0.37363,3.48446 0,0 21.02855,-4.10683 26.62784,-8.08774 5.59929,-3.98195 -26.00547,4.72817 -26.25421,4.60328 z"
       id="path587" />
    <path
       inkscape:connector-curvature="0"
       style="fill:#ffffff;fill-opacity:1;fill-rule:evenodd;stroke:#000000;stroke-width:1.03212671pt;stroke-linecap:round;stroke-linejoin:round;stroke-opacity:1"
       d="m 260.98763,294.74559 0.002,3.5082 c 0,0 14.03589,-0.42833 16.92069,-3.25946 1.84131,-2.83112 -12.37004,-0.40253 -16.92275,-0.24874 z"
       id="path588"
       sodipodi:nodetypes="cccc" />
    <path
       inkscape:connector-curvature="0"
       style="fill:#ffffff;fill-opacity:1;fill-rule:evenodd;stroke:#000000;stroke-width:1.03212671pt;stroke-linecap:round;stroke-linejoin:round;stroke-opacity:1"
       d="m 290.27938,324.21178 c 0,0 7.29095,1.01871 8.65955,-1.09612 -0.26939,-3.75385 -8.65955,1.21997 -8.65955,1.09612 z"
       id="path589"
       sodipodi:nodetypes="ccc" />
    <path
       inkscape:connector-curvature="0"
       style="fill:#ffffff;fill-opacity:1;fill-rule:evenodd;stroke:#000000;stroke-width:1.03212671pt;stroke-linecap:round;stroke-linejoin:round;stroke-opacity:1"
       d="m 261.61,281.68093 c -0.12489,0.62134 0.12385,7.71412 0.12385,7.71412 0,0 33.72062,-10.70109 35.83648,-12.69207 2.11482,-1.99097 6.80894,-7.9835 -35.96033,4.97795 z"
       id="path590"
       sodipodi:nodetypes="cccc" />
    <path
       inkscape:connector-curvature="0"
       style="fill:#ffffff;fill-opacity:1;fill-rule:evenodd;stroke:#000000;stroke-width:1.03212671pt;stroke-linecap:round;stroke-linejoin:round;stroke-opacity:1"
       d="m 260.614,270.97984 c 0,0.12386 0,5.59929 0,5.59929 0,0 13.56317,-0.996 19.78483,-6.09781 6.22166,-5.10077 -19.78483,0.62238 -19.78483,0.49852 z"
       id="path591" />
    <path
       inkscape:connector-curvature="0"
       style="fill:#ffffff;fill-opacity:1;fill-rule:evenodd;stroke:#000000;stroke-width:1.03212671pt;stroke-linecap:round;stroke-linejoin:round;stroke-opacity:1"
       d="m 244.31362,258.28778 0.87111,5.1018 c 0,0 -44.67044,-14.43429 -44.54555,-14.43429 0.12385,0 -2.25004,-7.35287 43.67444,9.33249 z"
       id="path592"
       sodipodi:nodetypes="cccc" />
    <path
       inkscape:connector-curvature="0"
       style="fill:#ffffff;fill-opacity:1;fill-rule:evenodd;stroke:#000000;stroke-width:1.03212671pt;stroke-linecap:round;stroke-linejoin:round;stroke-opacity:1"
       d="m 245.06088,240.37006 c -0.12489,0.49749 -0.12489,4.85203 -0.24978,4.72817 -0.12385,-0.12488 -30.98237,-12.9408 -32.10223,-11.82094 -4.09755,-9.60188 32.35201,7.34151 32.35201,7.09277 z"
       id="path593"
       sodipodi:nodetypes="cccc" />
    <path
       inkscape:connector-curvature="0"
       style="fill:#ffffff;fill-opacity:1;fill-rule:evenodd;stroke:#000000;stroke-width:1.03212671pt;stroke-linecap:round;stroke-linejoin:round;stroke-opacity:1"
       d="m 260.11651,248.33292 c 0,0.12489 0.49749,4.35557 0.49749,4.35557 0,0 18.91372,-3.98194 20.03358,-5.84803 1.11985,-1.86711 -20.53107,1.61735 -20.53107,1.49246 z"
       id="path594" />
    <path
       inkscape:connector-curvature="0"
       style="fill:#ffffff;fill-opacity:1;fill-rule:evenodd;stroke:#000000;stroke-width:1.03212671pt;stroke-linecap:round;stroke-linejoin:round;stroke-opacity:1"
       d="m 260.56342,258.41164 c 0.17546,1.06928 0.54806,4.48046 0.54806,4.48046 0,0 7.59026,-0.62238 8.71012,-2.3646 1.11986,-1.74223 -9.25818,-1.99098 -9.25818,-2.11586 z"
       id="path595"
       sodipodi:nodetypes="cccc" />
    <path
       inkscape:connector-curvature="0"
       style="fill:#ffffff;fill-opacity:1;fill-rule:evenodd;stroke:#000000;stroke-width:1.03212671pt;stroke-linecap:round;stroke-linejoin:round;stroke-opacity:1"
       d="m 259.37028,235.39211 c 0,0.37363 0.12386,4.23069 0.12386,4.23069 0,0 20.77981,-4.1058 23.01952,-6.09677 2.23972,-1.99097 -23.51701,1.86608 -23.14338,1.86608 z"
       id="path596" />
    <path
       inkscape:connector-curvature="0"
       style="fill:#ffffff;fill-opacity:1;fill-rule:evenodd;stroke:#000000;stroke-width:1.03212671pt;stroke-linecap:round;stroke-linejoin:round;stroke-opacity:1"
       d="m 259.49414,223.9448 c 0,0.24874 -0.74623,4.23068 -0.24874,4.23068 0.49748,0 25.25923,-4.23068 29.11629,-7.71411 3.85809,-3.48446 -28.49392,3.85706 -28.86755,3.48343 z"
       id="path597" />
    <path
       inkscape:connector-curvature="0"
       style="fill:#ffffff;fill-opacity:1;fill-rule:evenodd;stroke:#000000;stroke-width:1.03212671pt;stroke-linecap:round;stroke-linejoin:round;stroke-opacity:1"
       d="m 259.12051,203.78736 c 0,0.12489 0,4.35558 0,4.35558 0,0 16.05163,-3.35958 19.03861,-6.72018 2.98594,-3.35957 -19.03861,2.61334 -19.03861,2.3646 z"
       id="path598" />
    <path
       inkscape:connector-curvature="0"
       style="fill:#ffffff;fill-opacity:1;fill-rule:evenodd;stroke:#000000;stroke-width:1.03212671pt;stroke-linecap:round;stroke-linejoin:round;stroke-opacity:1"
       d="m 256.38331,174.42233 0.37363,6.59425 c 0,0 21.52603,-2.98594 24.63686,-6.59425 3.11083,-3.60832 -25.13435,0 -25.01049,0 z"
       id="path599" />
    <path
       inkscape:connector-curvature="0"
       style="fill:#ffffff;fill-opacity:1;fill-rule:evenodd;stroke:#000000;stroke-width:1.03212671pt;stroke-linecap:round;stroke-linejoin:round;stroke-opacity:1"
       d="m 246.42948,125.02371 0,4.1058 c 0,0 -10.20361,-0.49749 -7.71515,-2.23972 2.48846,-1.74223 7.71515,-1.49348 7.71515,-1.86608 z"
       id="path600" />
    <path
       inkscape:connector-curvature="0"
       style="fill:#ffffff;fill-opacity:1;fill-rule:evenodd;stroke:#000000;stroke-width:1.03212671pt;stroke-linecap:round;stroke-linejoin:round;stroke-opacity:1"
       d="m 255.88582,130.49811 0.24875,5.59929 c 0,0 13.18954,-1.24372 14.18555,-3.35958 0.99497,-2.11482 -14.18555,-2.23971 -14.4343,-2.23971 z"
       id="path601" />
    <path
       inkscape:connector-curvature="0"
       style="fill:#ffffff;fill-opacity:1;fill-rule:evenodd;stroke:#000000;stroke-width:1.03212671pt;stroke-linecap:round;stroke-linejoin:round;stroke-opacity:1"
       d="m 255.1396,138.58585 c 0,0 0.24874,3.48446 0.49748,3.48446 0.24874,0 5.22566,-0.37363 6.34552,-1.74223 1.11985,-1.3686 -6.34552,-1.49348 -6.843,-1.74223 z"
       id="path602" />
    <path
       inkscape:connector-curvature="0"
       style="fill:#ffffff;fill-opacity:1;fill-rule:evenodd;stroke:#000000;stroke-width:1.03212671pt;stroke-linecap:round;stroke-linejoin:round;stroke-opacity:1"
       d="m 243.94102,154.51363 c 0,0.3726 0.3726,5.35055 0.12386,5.22566 -0.24875,-0.12489 -28.86755,-8.33649 -31.4809,-8.21263 -2.61231,0.12489 -3.35957,-6.59426 31.35704,2.98697 z"
       id="path603" />
    <path
       inkscape:connector-curvature="0"
       style="fill:#ffffff;fill-opacity:1;fill-rule:evenodd;stroke:#000000;stroke-width:1.03212671pt;stroke-linecap:round;stroke-linejoin:round;stroke-opacity:1"
       d="m 246.30459,163.84509 c 0,0.996 0.62237,6.22166 -0.37363,5.97292 -0.99497,-0.24874 -19.41017,-6.09677 -17.54409,-7.839 1.86609,-1.74223 17.91772,2.23971 17.91772,1.86608 z"
       id="path604" />
    <path
       inkscape:connector-curvature="0"
       style="fill:#ffffff;fill-opacity:1;fill-rule:evenodd;stroke:#000000;stroke-width:1.03212671pt;stroke-linecap:round;stroke-linejoin:round;stroke-opacity:1"
       d="m 244.68725,203.16499 0.12385,4.72817 c 0,0 -32.10223,-9.70509 -33.22209,-11.32243 -1.11986,-1.61734 -4.23069,-9.2076 33.09824,6.59426 z"
       id="path605" />
    <path
       inkscape:connector-curvature="0"
       style="fill:#ffffff;fill-opacity:1;fill-rule:evenodd;stroke:#000000;stroke-width:1.03212671pt;stroke-linecap:round;stroke-linejoin:round;stroke-opacity:1"
       d="m 245.93096,214.73719 c 0,0.12489 0.24978,4.47943 0.12489,4.47943 -0.12489,0 -43.67444,-15.30437 -43.67444,-15.30437 0,0 -3.48446,-11.44835 43.54955,10.82494 z"
       id="path606" />
    <path
       inkscape:connector-curvature="0"
       style="fill:#ffffff;fill-opacity:1;fill-rule:evenodd;stroke:#000000;stroke-width:1.03212671pt;stroke-linecap:butt;stroke-linejoin:round;stroke-opacity:1"
       d="m 194.16878,365.77242 c 0,0.14863 -0.14863,4.76533 -0.14863,4.76533 0,0 -8.48821,-2.38318 -11.16864,-7.14748 4.91395,-1.3397 11.46589,2.53078 11.31727,2.38215 z"
       id="path607"
       sodipodi:nodetypes="cccc" />
  </g>
</svg>
