<?xml version="1.0" encoding="UTF-8" standalone="no"?>
<!-- Created with Sodipodi ("http://www.sodipodi.com/") -->

<svg
   xmlns:dc="http://purl.org/dc/elements/1.1/"
   xmlns:cc="http://creativecommons.org/ns#"
   xmlns:rdf="http://www.w3.org/1999/02/22-rdf-syntax-ns#"
   xmlns:svg="http://www.w3.org/2000/svg"
   xmlns="http://www.w3.org/2000/svg"
   xmlns:sodipodi="http://sodipodi.sourceforge.net/DTD/sodipodi-0.dtd"
   xmlns:inkscape="http://www.inkscape.org/namespaces/inkscape"
   version="1"
   x="0.00000000"
   y="0.00000000"
   width="512"
   height="512"
   id="svg548"
   inkscape:version="0.48.1 r9760"
   sodipodi:docname="ni.svg">
  <sodipodi:namedview
     pagecolor="#ffffff"
     bordercolor="#666666"
     borderopacity="1"
     objecttolerance="10"
     gridtolerance="10"
     guidetolerance="10"
     inkscape:pageopacity="0"
     inkscape:pageshadow="2"
     inkscape:window-width="1280"
     inkscape:window-height="723"
     id="namedview3140"
     showgrid="false"
     inkscape:zoom="0.57452381"
     inkscape:cx="412.79526"
     inkscape:cy="269.78864"
     inkscape:window-x="0"
     inkscape:window-y="24"
     inkscape:window-maximized="1"
     inkscape:current-layer="svg548" />
  <metadata
     id="metadata3142">
    <rdf:RDF>
      <cc:Work
         rdf:about="">
        <dc:format>image/svg+xml</dc:format>
        <dc:type
           rdf:resource="http://purl.org/dc/dcmitype/StillImage" />
      </cc:Work>
    </rdf:RDF>
  </metadata>
  <defs
     id="defs550">
    <clipPath
       clipPathUnits="userSpaceOnUse"
       id="clipPath8948">
      <rect
         id="rect8950"
         height="496.06299"
         x="164.70842"
         style="fill:#000000;fill-opacity:0.67000002;stroke:none"
         width="496.06299"
         y="-4.1992182e-05" />
    </clipPath>
  </defs>
  <g
     transform="matrix(1.032127,0,0,1.032127,-170,4.3341263e-5)"
     id="flag"
     clip-path="url(#clipPath8948)"
     inkscape:label="#g8644">
    <rect
       width="825.59058"
       height="166.53545"
       x="0"
       y="329.5275"
       style="font-size:12px;fill:#5387f4;fill-rule:evenodd;stroke-width:1pt"
       id="rect1062" />
    <rect
       width="825.59052"
       height="166.53545"
       x="0"
       y="-3.7999998e-05"
       style="font-size:12px;fill:#5387f4;fill-rule:evenodd;stroke-width:1pt"
       id="rect1063" />
    <rect
       width="825.59064"
       height="162.99213"
       x="0"
       y="166.53545"
       style="font-size:12px;fill:#ffffff;fill-rule:evenodd;stroke-width:1pt"
       id="rect1064" />
    <g
       transform="matrix(0.242141,0,0,0.242291,306.668,101.4092)"
       style="font-size:12px"
       id="g968">
      <g
         transform="translate(-23.54874,-3.051758e-5)"
         id="g784">
        <path
           inkscape:connector-curvature="0"
           d="m 496.063,627.165 17.717,-17.716 17.716,17.716 -35.433,0 z"
           transform="matrix(11.09662,0,0,19.11476,-5241.171,-11262.71)"
           style="fill:#ffd200;fill-rule:evenodd;stroke-width:1pt"
           id="path580" />
        <path
           inkscape:connector-curvature="0"
           d="m 496.063,627.165 17.717,-17.716 17.716,17.716 -35.433,0 z"
           transform="matrix(10.00003,0,0,17.32052,-4677.18,-10147.08)"
           style="fill:#00ffff;fill-rule:evenodd;stroke-width:1pt"
           id="path562" />
        <g
           id="g619">
          <path
             inkscape:connector-curvature="0"
             d="M 462.732,556.662 461.554,448.338"
             style="fill:none;stroke:#ffd200;stroke-width:1pt"
             id="path604" />
          <path
             inkscape:connector-curvature="0"
             d="m 468.619,563.727 38.855,-54.162"
             style="fill:none;stroke:#ffd200;stroke-width:1pt"
             id="path606" />
          <path
             inkscape:connector-curvature="0"
             d="M 474.506,569.614 536.91,543.71"
             style="fill:none;stroke:#ffd200;stroke-width:1pt"
             id="path607" />
          <path
             inkscape:connector-curvature="0"
             d="m 479.216,577.856 73.001,2.355"
             style="fill:none;stroke:#ffd200;stroke-width:1pt"
             id="path609" />
          <path
             inkscape:connector-curvature="0"
             d="m 474.506,587.276 42.388,37.677"
             transform="translate(0,-3.051758e-5)"
             style="fill:none;stroke:#ffd200;stroke-width:1pt"
             id="path611" />
          <path
             inkscape:connector-curvature="0"
             d="m 462.732,583.743 0,34.146"
             style="fill:none;stroke:#ffd200;stroke-width:1pt"
             id="path612" />
          <path
             inkscape:connector-curvature="0"
             d="m 449.78,575.501 -55.339,48.275"
             style="fill:none;stroke:#ffd200;stroke-width:1pt"
             id="path613" />
          <path
             inkscape:connector-curvature="0"
             d="m 455.667,579.033 -24.726,45.92"
             style="fill:none;stroke:#ffd200;stroke-width:1pt"
             id="path614" />
          <path
             inkscape:connector-curvature="0"
             d="m 446.248,569.614 -91.84,31.791"
             style="fill:none;stroke:#ffd200;stroke-width:1pt"
             id="path615" />
          <path
             inkscape:connector-curvature="0"
             d="m 445.071,564.904 -64.76,-2.355"
             style="fill:none;stroke:#ffd200;stroke-width:1pt"
             id="path616" />
          <path
             inkscape:connector-curvature="0"
             d="m 393.263,537.823 56.517,18.839"
             style="fill:none;stroke:#ffd200;stroke-width:1pt"
             id="path617" />
          <path
             inkscape:connector-curvature="0"
             d="m 420.344,489.549 34.146,65.936"
             style="fill:none;stroke:#ffd200;stroke-width:1pt"
             id="path618" />
        </g>
        <g
           transform="translate(0,318.5357)"
           id="g572">
          <path
             inkscape:connector-curvature="0"
             d="m 460.629,219.689 c -35.433,0 -61.25,6.505 -83.044,14.145 l 5.54,-9.579 5.53,-9.595 5.54,-9.596 5.54,-9.578 5.53,-9.595 5.54,-9.579 6.13,-9.769 c 8.26,-7.257 25.98,-10.652 43.69,-10.652 17.72,0 35.44,3.586 44.3,10.826 l 5.54,9.595 5.53,9.579 5.54,9.595 5.54,9.578 5.53,9.596 5.54,9.595 5.53,9.579 c -22.972,-7.64 -47.613,-14.145 -83.046,-14.145 z"
             transform="translate(5.531311e-4,-0.00361633)"
             style="fill:#c453d7;fill-rule:evenodd;stroke-width:1pt"
             id="path565" />
          <path
             inkscape:connector-curvature="0"
             d="m 460.629,212.926 c -35.548,-0.05 -75.281,10.597 -77.504,11.329 l 5.53,-9.595 5.54,-9.596 5.54,-9.578 5.53,-9.595 5.54,-9.579 6.13,-9.769 c 8.26,-7.257 25.98,-10.652 43.69,-10.652 17.72,0 35.44,3.586 44.3,10.826 l 5.54,9.595 5.53,9.579 5.54,9.595 5.54,9.578 5.53,9.596 5.54,9.595 c 0,0 -42.083,-11.329 -77.516,-11.329 z"
             transform="translate(0.01290256,8.850098e-4)"
             style="fill:#5000c1;fill-rule:evenodd;stroke-width:1pt"
             id="path566" />
          <path
             inkscape:connector-curvature="0"
             d="m 460.629,205.273 c -26.248,-0.109 -68.686,7.141 -71.68,8.504 l 5.246,-8.713 5.54,-9.578 5.53,-9.595 5.54,-9.579 6.13,-9.769 c 8.26,-7.257 25.98,-10.652 43.69,-10.652 17.72,0 35.44,3.586 44.3,10.826 l 5.54,9.595 5.53,9.579 5.54,9.595 5.54,9.578 5.53,9.596 c 0,0 -36.543,-9.387 -71.976,-9.387 z"
             transform="translate(-2.002354e-4,-0.0065155)"
             style="fill:#0053d7;fill-rule:evenodd;stroke-width:1pt"
             id="path567" />
          <path
             inkscape:connector-curvature="0"
             d="m 460.629,197.325 c -34.802,-0.07 -63.717,6.631 -66.434,7.739 l 5.54,-9.578 5.53,-9.595 5.54,-9.579 6.13,-9.769 c 8.26,-7.257 25.98,-10.652 43.69,-10.652 17.72,0 35.44,3.586 44.3,10.826 l 5.54,9.595 5.53,9.579 5.54,9.595 5.54,9.578 c 0,0 -31.013,-7.739 -66.446,-7.739 z"
             transform="translate(-0.0150312,-0.00811768)"
             style="fill:#009f9f;fill-rule:evenodd;stroke-width:1.25"
             id="path568" />
          <path
             inkscape:connector-curvature="0"
             d="m 460.629,190.555 c -35.605,-0.123 -57.963,4.465 -60.894,4.931 l 5.53,-9.595 5.54,-9.579 6.13,-9.769 c 8.26,-7.257 25.98,-10.652 43.69,-10.652 17.72,0 35.44,3.586 44.3,10.826 l 5.54,9.595 5.53,9.579 5.54,9.595 c 0,0 -25.473,-4.931 -60.906,-4.931 z"
             transform="translate(-2.002354e-4,-0.0128479)"
             style="fill:#ffff00;fill-rule:evenodd;stroke-width:1pt"
             id="path569" />
          <path
             inkscape:connector-curvature="0"
             d="m 460.335,181.724 c -31.014,-0.671 -53.786,4.25 -55.07,4.167 l 5.54,-9.579 6.13,-9.769 c 8.26,-7.257 25.98,-10.652 43.69,-10.652 17.72,0 35.44,3.586 44.3,10.826 l 5.54,9.595 5.53,9.579 c 0,0 -20.227,-4.167 -55.66,-4.167 z"
             transform="translate(-0.01453622,-0.0128479)"
             style="fill:#ff5500;fill-rule:evenodd;stroke-width:1pt"
             id="path570" />
          <path
             inkscape:connector-curvature="0"
             d="m 461.512,171.421 c -31.129,0.257 -47.247,4.34 -50.707,4.891 l 6.13,-9.769 c 8.26,-7.257 25.98,-10.652 43.69,-10.652 17.72,0 35.44,3.586 44.3,10.826 l 5.54,9.595 c 0,0 -13.52,-4.891 -48.953,-4.891 z"
             transform="translate(-0.02940446,0.00294495)"
             style="fill:#ff0b00;fill-rule:evenodd;stroke-width:1pt"
             id="path571" />
        </g>
        <path
           inkscape:connector-curvature="0"
           d="m 496.063,627.165 4.983,-4.983 25.467,0 4.983,4.983 -35.433,0 z"
           transform="matrix(10.00003,0,0,17.32052,-4677.18,-10147.08)"
           style="fill:#4363ff;fill-rule:evenodd;stroke-width:1pt"
           id="path581" />
        <g
           transform="matrix(0.967124,0,0,1,-10.64329,-6.660645)"
           id="g592">
          <path
             inkscape:connector-curvature="0"
             d="m 334.694,674.375 c 0,0 28.307,-4.996 46.624,-19.982 18.316,-14.986 18.317,-39.964 26.642,-39.964 8.326,0 9.991,28.308 29.973,38.299 19.981,9.991 51.62,23.312 51.62,23.312 l -154.859,-1.665 z"
             transform="translate(149.0303,0.832565)"
             style="fill:#6da700;fill-rule:evenodd;stroke:#000000;stroke-width:1pt"
             id="path590" />
          <path
             inkscape:connector-curvature="0"
             d="m 447.924,662.719 c -44.959,-19.982 -18.317,-9.991 -31.638,-18.317 -6.661,-16.651 -16.651,-29.973 -8.326,-29.973 8.326,0 9.991,28.308 29.973,38.299 19.981,9.991 28.308,12.489 28.308,12.489 l -18.317,-2.498 z"
             transform="translate(149.0303,0.832565)"
             style="fill:#ffbd00;fill-rule:evenodd;stroke-width:1pt"
             id="path591" />
          <path
             inkscape:connector-curvature="0"
             d="m 334.694,674.375 c 0,0 28.307,-4.996 46.624,-19.982 18.316,-14.986 18.317,-39.964 26.642,-39.964 8.326,0 9.991,28.308 29.973,38.299 19.981,9.991 51.62,23.312 51.62,23.312 l -154.859,-1.665 z"
             transform="translate(111.5646,0.832565)"
             style="fill:#6da700;fill-rule:evenodd;stroke:#000000;stroke-width:1pt"
             id="path588" />
          <path
             inkscape:connector-curvature="0"
             d="m 447.924,662.719 c -44.959,-19.982 -18.317,-9.991 -31.638,-18.317 -6.661,-16.651 -16.651,-29.973 -8.326,-29.973 8.326,0 9.991,28.308 29.973,38.299 19.981,9.991 28.308,12.489 28.308,12.489 l -18.317,-2.498 z"
             transform="translate(111.5646,0.832565)"
             style="fill:#ffbd00;fill-rule:evenodd;stroke-width:1pt"
             id="path589" />
          <path
             inkscape:connector-curvature="0"
             d="m 334.694,674.375 c 0,0 28.307,-4.996 46.624,-19.982 18.316,-14.986 18.317,-39.964 26.642,-39.964 8.326,0 9.991,28.308 29.973,38.299 19.981,9.991 51.62,23.312 51.62,23.312 l -154.859,-1.665 z"
             transform="translate(74.09889,0.832489)"
             style="fill:#6da700;fill-rule:evenodd;stroke:#000000;stroke-width:1pt"
             id="path586" />
          <path
             inkscape:connector-curvature="0"
             d="m 447.924,662.719 c -44.959,-19.982 -18.317,-9.991 -31.638,-18.317 -6.661,-16.651 -16.651,-29.973 -8.326,-29.973 8.326,0 9.991,28.308 29.973,38.299 19.981,9.991 28.308,12.489 28.308,12.489 l -18.317,-2.498 z"
             transform="translate(74.09889,0.832489)"
             style="fill:#ffbd00;fill-rule:evenodd;stroke-width:1pt"
             id="path587" />
          <path
             inkscape:connector-curvature="0"
             d="m 334.694,674.375 c 0,0 28.307,-4.996 46.624,-19.982 18.316,-14.986 18.317,-39.964 26.642,-39.964 8.326,0 9.991,28.308 29.973,38.299 19.981,9.991 51.62,23.312 51.62,23.312 l -154.859,-1.665 z"
             transform="translate(31.63773,-3.051758e-5)"
             style="fill:#6da700;fill-rule:evenodd;stroke:#000000;stroke-width:1pt"
             id="path584" />
          <path
             inkscape:connector-curvature="0"
             d="m 447.924,662.719 c -44.959,-19.982 -18.317,-9.991 -31.638,-18.317 -6.661,-16.651 -16.651,-29.973 -8.326,-29.973 8.326,0 9.991,28.308 29.973,38.299 19.981,9.991 28.308,12.489 28.308,12.489 l -18.317,-2.498 z"
             transform="translate(31.63773,-3.051758e-5)"
             style="fill:#ffbd00;fill-rule:evenodd;stroke-width:1pt"
             id="path585" />
          <path
             inkscape:connector-curvature="0"
             d="m 334.694,674.375 c 0,0 28.307,-4.996 46.624,-19.982 18.316,-14.986 18.317,-39.964 26.642,-39.964 8.326,0 9.991,28.308 29.973,38.299 19.981,9.991 51.62,23.312 51.62,23.312 l -154.859,-1.665 z"
             style="fill:#6da700;fill-rule:evenodd;stroke:#000000;stroke-width:1pt"
             id="path582" />
          <path
             inkscape:connector-curvature="0"
             d="m 447.924,662.719 c -44.959,-19.982 -18.317,-9.991 -31.638,-18.317 -6.661,-16.651 -16.651,-29.973 -8.326,-29.973 8.326,0 9.991,28.308 29.973,38.299 19.981,9.991 28.308,12.489 28.308,12.489 l -18.317,-2.498 z"
             style="fill:#ffbd00;fill-rule:evenodd;stroke-width:1pt"
             id="path583" />
        </g>
        <path
           inkscape:connector-curvature="0"
           d="m 438.006,565.493 c 0.409,0 0.727,-1.87 1.766,-3.532 2.222,-1.61 4.568,-2.871 7.653,-3.533 1.665,-0.832 5.08,-0.588 7.653,-0.588 3.611,0.324 3.837,1.865 5.888,4.121 0.902,1.837 3.038,4.389 4.121,7.064 1.172,1.42 2.107,3.626 2.943,5.299 0.855,1.804 1.765,4.526 2.944,7.064 0.605,2.824 1.177,5.028 1.177,8.242 0,3.352 -0.554,4.78 -1.177,7.065 -1.794,0.598 -5.29,0.888 -7.065,0 -1.9,-1.7 -5.162,-0.617 -6.475,-2.355 -3.386,-0.474 -4.208,-4.459 -5.888,-6.475 -1.175,-1.729 -1.156,-3.032 -2.355,-4.71 -1.857,-1.327 -2.108,-2.945 -2.943,-5.299 0.736,-2.517 2.015,-3.068 4.121,-4.121 1.127,-1.644 1.766,-2.304 1.766,-5.298 -0.424,-3.334 -1.625,-2.982 -4.71,-3.533 -3.814,0 -5.77,0.393 -9.419,0.589 z"
           transform="matrix(0.672408,0,0,0.52247,155.8501,268.7245)"
           style="fill:#ff0000;fill-rule:evenodd;stroke:#000000;stroke-width:1pt"
           id="path603" />
        <g
           transform="matrix(1.007299,0,0,1.430413,-11.67116,-306.4899)"
           id="g651">
          <path
             inkscape:connector-curvature="0"
             d="m 314.375,690.89 c 0.393,0 0.785,0 1.177,0 -3.178,0 -1.561,-0.077 4.71,1.177 5.434,0.647 10.545,1.178 16.484,1.178"
             style="fill:none;stroke:#00ffff;stroke-width:1pt"
             id="path632" />
          <path
             inkscape:connector-curvature="0"
             d="m 308.488,708.551 c 0,-0.392 0,-0.785 0,-1.177 0,3.69 -0.307,1.422 5.887,-3.532 5.262,-0.916 7.744,0.94 14.129,1.177 3.388,1.694 9.526,1.142 12.952,0 1.753,-0.751 1.78,-1.604 3.532,-2.355"
             style="fill:none;stroke:#00ffff;stroke-width:1pt"
             id="path633" />
          <path
             inkscape:connector-curvature="0"
             d="m 321.44,710.906 c 0,-0.392 0,-0.785 0,-1.177 0.784,0.313 5.255,0 8.242,0 6.162,0 10.917,-0.299 14.129,2.355 0.785,0 1.57,0 2.355,0"
             style="fill:none;stroke:#00ffff;stroke-width:1pt"
             id="path634" />
          <path
             inkscape:connector-curvature="0"
             d="m 366.182,686.18 c 0.393,0 0.785,0 1.178,0 -1.57,0 3.139,0 4.709,0 3.749,-1.25 9.204,-1.249 12.952,0 1.484,4.877 3.389,5.78 9.42,5.887 1.974,-1.481 6.046,-2.526 8.242,-3.532"
             style="fill:none;stroke:#00ffff;stroke-width:1pt"
             id="path635" />
          <path
             inkscape:connector-curvature="0"
             d="m 369.714,694.422 c 0.393,0 0.785,0 1.178,0 -1.57,0 3.14,0 4.71,0 3.532,0 7.064,0 10.597,0"
             style="fill:none;stroke:#00ffff;stroke-width:1pt"
             id="path636" />
          <path
             inkscape:connector-curvature="0"
             d="m 380.311,705.019 c 0,-0.393 0,-0.785 0,-1.177 0,3.69 -0.306,1.422 5.888,-3.533 4.69,-2.304 7.16,-3.599 14.129,-2.355 5.013,2.679 6.789,4.236 12.952,4.71 5.601,0 8.065,-0.901 12.951,-1.177"
             style="fill:none;stroke:#00ffff;stroke-width:1pt"
             id="path637" />
          <path
             inkscape:connector-curvature="0"
             d="m 395.618,710.906 c 0.393,0 0.785,0 1.177,0 -3.291,0 -1.541,0.146 4.71,-2.355 5.854,1.464 9.805,3.453 16.484,3.533 3.824,-0.192 6.575,-1.178 10.597,-1.178"
             style="fill:none;stroke:#00ffff;stroke-width:1pt"
             id="path638" />
          <path
             inkscape:connector-curvature="0"
             d="m 438.006,686.18 c 0.392,0 0.785,0 1.177,0 -1.57,0 3.14,0 4.71,0 5.761,0 11.38,-0.098 16.484,1.177 5.495,0 10.989,0 16.484,0 1.57,0 1.177,0.393 1.177,-1.177"
             style="fill:none;stroke:#00ffff;stroke-width:1pt"
             id="path639" />
          <path
             inkscape:connector-curvature="0"
             d="m 433.296,695.599 c 0.392,0 0.785,0 1.177,0 -3.291,0 -1.541,0.146 4.71,-2.354 4.946,0.38 10.524,1.085 14.129,3.532 5.172,2.267 7.214,4.216 14.13,4.71 3.945,-0.208 4.215,-1.751 8.242,-2.355"
             style="fill:none;stroke:#00ffff;stroke-width:1pt"
             id="path640" />
          <path
             inkscape:connector-curvature="0"
             d="m 450.957,707.374 c 1.847,-0.923 8.039,-3.283 12.952,-1.178 5.104,1.276 10.723,1.178 16.484,1.178 3.665,-1.571 9.865,-2.905 12.952,-4.71 1.178,0 2.355,0 3.532,0"
             style="fill:none;stroke:#00ffff;stroke-width:1pt"
             id="path641" />
          <path
             inkscape:connector-curvature="0"
             d="m 500.41,692.067 c 2.368,0 12.454,-0.558 17.661,1.178 6.371,-0.768 8.617,-3.877 12.952,-7.065 4.347,0 8.014,0.103 11.774,1.177"
             style="fill:none;stroke:#00ffff;stroke-width:1pt"
             id="path642" />
          <path
             inkscape:connector-curvature="0"
             d="m 522.781,706.196 c 0.095,-0.012 4.706,-0.924 8.242,-1.177 5.307,-3.98 6.228,0.084 11.774,1.177 6.151,-1.391 9.251,-4.42 11.775,-8.242"
             style="fill:none;stroke:#00ffff;stroke-width:1pt"
             id="path643" />
          <path
             inkscape:connector-curvature="0"
             d="m 535.733,697.954 c 0.392,0 0.785,0 1.177,0 -3.466,0 -1.513,0.202 4.71,-3.532 4.142,-2.071 4.632,-4.167 10.597,-4.71 3.294,-2.47 5.733,-0.305 8.242,1.178"
             style="fill:none;stroke:#00ffff;stroke-width:1pt"
             id="path644" />
          <path
             inkscape:connector-curvature="0"
             d="m 560.459,707.374 c 0.197,-0.935 2.335,-6.019 3.532,-8.242 5.249,-2.1 7.759,-3.058 11.775,2.355 4.27,1.164 8.279,3.491 12.951,4.709 1.733,0 0.9,0.278 2.355,-1.177"
             style="fill:none;stroke:#00ffff;stroke-width:1pt"
             id="path645" />
          <path
             inkscape:connector-curvature="0"
             d="m 576.943,690.89 c 0,-0.393 0,-0.785 0,-1.178 0,3.691 -0.245,1.485 4.71,-4.709 5.457,0.999 6.892,4.302 9.419,8.242 5.85,0 9.697,-0.142 12.952,-2.355"
             style="fill:none;stroke:#00ffff;stroke-width:1pt"
             id="path646" />
          <path
             inkscape:connector-curvature="0"
             d="m 605.201,703.842 c 0.715,-1.044 5.415,-8.715 9.42,-4.71 5.226,1.425 6.044,3.803 11.774,5.887 1.002,-1.753 2.103,-2.094 4.71,-2.355"
             style="fill:none;stroke:#00ffff;stroke-width:1pt"
             id="path647" />
          <path
             inkscape:connector-curvature="0"
             d="m 501.587,708.551 c 0.393,0 0.785,0 1.178,0 -3.291,0 -1.542,0.146 4.709,-2.355 4.895,-2.826 7.322,-3.976 10.597,-8.242 5.468,0.196 9.662,1.178 15.307,1.178 0,-1.57 -0.393,-1.178 1.177,-1.178"
             style="fill:none;stroke:#00ffff;stroke-width:1pt"
             id="path648" />
          <path
             inkscape:connector-curvature="0"
             d="m 350.876,694.422 c 0,-0.815 3.214,-2.088 7.064,-3.532 2.806,-2.105 5.133,-0.126 9.42,0"
             style="fill:none;stroke:#00ffff;stroke-width:1pt"
             id="path649" />
          <path
             inkscape:connector-curvature="0"
             d="m 356.763,705.019 c 0.392,0 0.785,0 1.177,0 -3.291,0 -1.541,0.146 4.71,-2.355 4.516,0.632 6.547,2.879 11.774,3.532"
             style="fill:none;stroke:#00ffff;stroke-width:1pt"
             id="path650" />
        </g>
      </g>
      <path
         inkscape:connector-curvature="0"
         d="m 749.425,355.126 c 0,11.712 4.736,17.088 16.384,17.088 2.688,0 6.144,-0.704 8.192,-1.664 7.232,-3.456 7.872,-9.088 7.872,-16.32 l 0,-20.16 c 0,-1.856 0.96,-3.904 6.016,-3.904 l 0,-1.216 -14.848,0 0,1.216 c 5.056,0 6.016,2.048 6.016,3.904 l 0,20.16 c 0,6.08 -0.064,15.104 -12.032,15.104 -8,0 -11.072,-3.776 -11.072,-13.76 l 0,-21.504 c 0,-1.856 0.96,-3.904 5.632,-3.904 l 0,-1.216 -17.792,0 0,1.216 c 4.672,0 5.632,2.048 5.632,3.904 l 0,21.056 z"
         transform="matrix(-0.01564665,0.999877,-0.999877,-0.01564665,1071.498,-162.3876)"
         style="font-size:64px;font-weight:normal;fill:#ffd200;stroke:#000000;stroke-width:1pt;font-family:TempoFont"
         id="path862" />
      <path
         inkscape:connector-curvature="0"
         d="m 735.985,328.054 -1.344,0 c -1.6,4.736 -6.592,0 -14.4,0 -12.736,0 -21.952,9.472 -21.952,22.208 0,15.04 11.84,21.952 22.72,21.952 5.248,0 12.416,-2.432 16.128,-4.544 l 0,-12.16 c 0,-3.648 0.32,-5.696 4.48,-5.76 l 0,-1.216 -16.32,0 0,1.216 c 5.312,0 5.632,2.112 5.632,5.76 l 0,9.536 c 0,1.856 0,2.24 -1.856,3.136 -2.176,1.024 -4.864,1.408 -7.232,1.408 -10.752,0 -16.192,-8.96 -16.192,-18.816 0,-11.2 4.608,-20.16 15.232,-20.16 7.552,0 11.776,4.224 14.208,11.008 l 1.472,0 -0.576,-13.568 z"
         transform="matrix(0.15771,0.987485,-0.987485,0.15771,935.3364,-214.6527)"
         style="font-size:64px;font-weight:normal;fill:#ffd200;stroke:#000000;stroke-width:1pt;font-family:TempoFont"
         id="path863" />
      <path
         inkscape:connector-curvature="0"
         d="m 558.193,328.118 -1.344,0 c -2.112,5.184 -5.312,-0.064 -14.08,-0.064 -12.864,0 -21.888,9.408 -21.888,22.144 0,14.016 9.536,22.016 22.016,22.016 6.144,0 12.736,-3.2 16.64,-8 l -1.088,-1.28 c -4.416,4.352 -8.704,6.4 -14.976,6.4 -10.496,0 -15.168,-9.664 -15.168,-18.624 0,-11.52 4.544,-20.032 15.104,-20.032 7.296,0 11.968,4.8 13.824,11.84 l 1.536,0 -0.576,-14.4 z"
         transform="matrix(0.76764,0.640881,-0.640881,0.76764,411.9803,-224.7852)"
         style="font-size:64px;font-weight:normal;fill:#ffd200;stroke:#000000;stroke-width:1pt;font-family:TempoFont"
         id="path870" />
      <path
         inkscape:connector-curvature="0"
         d="m 511.409,334.07 c 0,-1.856 0.96,-3.904 6.272,-3.904 l 0,-1.216 -19.072,0 0,1.216 c 5.312,0 6.272,2.048 6.272,3.904 l 0,32.128 c 0,1.856 -0.96,3.904 -6.272,3.904 l 0,1.216 19.072,0 0,-1.216 c -5.312,0 -6.272,-2.048 -6.272,-3.904 l 0,-32.128 z"
         transform="matrix(0.872687,0.532398,-0.487577,0.84843,302.1839,-196.2377)"
         style="font-size:64px;font-weight:normal;fill:#ffd200;stroke:#000000;stroke-width:1pt;font-family:TempoFont"
         id="path871" />
      <path
         inkscape:connector-curvature="0"
         d="m 490.417,334.07 c 0,-1.856 0.96,-3.904 6.208,-3.904 l 0,-1.216 -15.232,0 0,1.216 c 5.248,0 6.208,2.048 6.208,3.904 l 0,25.664 -24.64,-30.784 -10.944,0 0,1.216 c 3.136,0.064 3.712,0.64 5.696,2.88 l 0.512,0.64 0,32.512 c 0,1.856 -0.96,3.904 -6.208,3.904 l 0,1.216 15.232,0 0,-1.216 c -5.248,0 -6.208,-2.048 -6.208,-3.904 l 0,-29.248 28.416,35.264 0.96,0 0,-38.144 z"
         transform="matrix(0.921656,0.388008,-0.388008,0.921656,242.317,-151.83)"
         style="font-size:64px;font-weight:normal;fill:#ffd200;stroke:#000000;stroke-width:1pt;font-family:TempoFont"
         id="path872" />
      <path
         inkscape:connector-curvature="0"
         d="m 431.473,371.318 2.88,-10.816 -1.792,0 c -3.392,8.128 -8.256,8.192 -13.376,8.192 l -8.448,0 c -1.28,0 -1.664,-1.344 -1.664,-2.496 l 0,-15.744 9.024,0 c 4.288,0 7.936,1.216 7.936,6.208 l 1.344,0 0,-14.976 -1.344,0 c 0,4.992 -3.648,6.144 -7.936,6.144 l -9.024,0 0,-13.76 c 0,-1.6 1.216,-2.496 2.816,-2.496 l 10.304,0 c 4.48,0 6.592,3.072 7.296,6.528 l 1.408,0 0,-9.152 -33.984,0 0,1.216 c 4.672,0 5.632,2.048 5.632,3.904 l 0,32.128 c 0,1.856 -0.96,3.904 -5.632,3.904 l 0,1.216 34.56,0 z"
         transform="matrix(0.997689,0.06795235,-0.06795235,0.997689,69.59343,-42.49637)"
         style="font-size:64px;font-weight:normal;fill:#ffd200;stroke:#000000;stroke-width:1pt;font-family:TempoFont"
         id="path873" />
      <path
         inkscape:connector-curvature="0"
         d="m 284.465,328.118 -1.344,0 c -2.112,5.184 -5.312,-0.064 -14.08,-0.064 -12.864,0 -21.888,9.408 -21.888,22.144 0,14.016 9.536,22.016 22.016,22.016 6.144,0 12.736,-3.2 16.64,-8 l -1.088,-1.28 c -4.416,4.352 -8.704,6.4 -14.976,6.4 -10.496,0 -15.168,-9.664 -15.168,-18.624 0,-11.52 4.544,-20.032 15.104,-20.032 7.296,0 11.968,4.8 13.824,11.84 l 1.536,0 -0.576,-14.4 z"
         transform="matrix(0.855219,-0.518267,0.518267,0.855219,-113.645,211.0614)"
         style="font-size:64px;font-weight:normal;fill:#ffd200;stroke:#000000;stroke-width:1pt;font-family:TempoFont"
         id="path878" />
      <path
         inkscape:connector-curvature="0"
         d="m 237.681,334.07 c 0,-1.856 0.96,-3.904 6.272,-3.904 l 0,-1.216 -19.072,0 0,1.216 c 5.312,0 6.272,2.048 6.272,3.904 l 0,32.128 c 0,1.856 -0.96,3.904 -6.272,3.904 l 0,1.216 19.072,0 0,-1.216 c -5.312,0 -6.272,-2.048 -6.272,-3.904 l 0,-32.128 z"
         transform="matrix(0.772589,-0.634906,0.634906,0.772589,-134.8477,270.8445)"
         style="font-size:64px;font-weight:normal;fill:#ffd200;stroke:#000000;stroke-width:1pt;font-family:TempoFont"
         id="path879" />
      <path
         inkscape:connector-curvature="0"
         d="m 219.825,371.318 3.072,-11.136 -1.6,0 c -3.52,8.768 -9.216,8.512 -17.344,8.512 -3.968,0 -6.4,-0.704 -6.4,-2.496 l 0,-32.128 c 0,-1.856 0.96,-3.904 5.632,-3.904 l 0,-1.216 -17.792,0 0,1.216 c 4.672,0 5.632,2.048 5.632,3.904 l 0,32.128 c 0,1.856 -0.96,3.904 -5.632,3.904 l 0,1.216 34.432,0 z"
         transform="matrix(0.687251,-0.72642,0.72642,0.687251,-149.288,322.558)"
         style="font-size:64px;font-weight:normal;fill:#ffd200;stroke:#000000;stroke-width:1pt;font-family:TempoFont"
         id="path880" />
      <path
         inkscape:connector-curvature="0"
         d="m 102.385,355.126 c 0,11.712 4.736,17.088 16.384,17.088 2.688,0 6.144,-0.704 8.192,-1.664 7.232,-3.456 7.872,-9.088 7.872,-16.32 l 0,-20.16 c 0,-1.856 0.96,-3.904 6.016,-3.904 l 0,-1.216 -14.848,0 0,1.216 c 5.056,0 6.016,2.048 6.016,3.904 l 0,20.16 c 0,6.08 -0.064,15.104 -12.032,15.104 -8,0 -11.072,-3.776 -11.072,-13.76 l 0,-21.504 c 0,-1.856 0.96,-3.904 5.632,-3.904 l 0,-1.216 -17.792,0 0,1.216 c 4.672,0 5.632,2.048 5.632,3.904 l 0,21.056 z"
         transform="matrix(0.473474,-0.880808,0.880808,0.473474,-169.7103,425.8137)"
         style="font-size:64px;font-weight:normal;fill:#ffd200;stroke:#000000;stroke-width:1pt;font-family:TempoFont"
         id="path884" />
      <path
         inkscape:connector-curvature="0"
         d="m 56.369,371.318 2.88,-10.816 -1.792,0 c -3.392,8.128 -8.256,8.192 -13.376,8.192 l -8.448,0 c -1.28,0 -1.664,-1.344 -1.664,-2.496 l 0,-15.744 9.024,0 c 4.288,0 7.936,1.216 7.936,6.208 l 1.344,0 0,-14.976 -1.344,0 c 0,4.992 -3.648,6.144 -7.936,6.144 l -9.024,0 0,-13.76 c 0,-1.6 1.216,-2.496 2.816,-2.496 l 10.304,0 c 4.48,0 6.592,3.072 7.296,6.528 l 1.408,0 0,-9.152 -33.984,0 0,1.216 c 4.672,0 5.632,2.048 5.632,3.904 l 0,32.128 c 0,1.856 -0.96,3.904 -5.632,3.904 l 0,1.216 34.56,0 z"
         transform="matrix(0.194789,-0.980845,0.980845,0.194789,-181.2749,537.155)"
         style="font-size:64px;font-weight:normal;fill:#ffd200;stroke:#000000;stroke-width:1pt;font-family:TempoFont"
         id="path887" />
      <path
         inkscape:connector-curvature="0"
         d="m -15.439,366.198 c 0,1.856 -0.96,3.904 -5.44,3.904 l 0,1.216 17.60002,0 0,-1.216 c -4.672,0 -5.632,-2.048 -5.632,-3.904 l 0,-14.464 3.584,-0.128 15.232,19.712 10.30398,0 0,-1.216 c -2.88,-0.192 -4.352,-1.472 -6.08,-3.584 L 1.45702,350.902 c 6.016,-0.832 11.58398,-3.968 11.58398,-10.752 0,-7.488 -6.39998,-11.2 -17.02398,-11.2 l -16.89602,0 0,1.216 c 4.48,0 5.44,2.048 5.44,3.904 l 0,32.128 z m 6.52802,-31.808 c 0,-3.008 0.576,-3.008 4.736,-3.008 5.76,0 10.24,2.496 10.24,8.832 0,6.912 -5.695999,8.832 -14.976,9.152 l 0,-14.976 z"
         transform="matrix(0.01061907,-0.999944,0.999944,0.01061907,-182.0724,608.6489)"
         style="font-size:64px;font-weight:normal;fill:#ffd200;stroke:#000000;stroke-width:1pt;font-family:TempoFont"
         id="path892" />
      <path
         inkscape:connector-curvature="0"
         d="m 66.481,366.198 c 0,1.856 -0.96,3.904 -5.632,3.904 l 0,1.216 17.792,0 0,-1.216 c -4.672,0 -5.632,-2.048 -5.632,-3.904 l 0,-13.696 c 1.856,0.192 3.712,0.32 5.568,0.32 8.192,0 16.256,-3.264 16.256,-12.736 0,-7.552 -7.68,-11.136 -17.536,-11.136 l -16.128,0 0,1.216 c 4.352,0 5.312,2.048 5.312,3.904 l 0,32.128 z m 6.528,-31.936 c 0,-2.624 0.128,-2.944 2.816,-2.944 6.144,0 12.032,2.048 12.032,9.28 0,7.424 -4.8,9.728 -11.712,9.728 -1.024,0 -2.112,-0.128 -3.136,-0.192 l 0,-15.872 z"
         transform="matrix(0.245191,-0.969475,0.969475,0.245191,-179.5109,515.0634)"
         style="font-size:64px;font-weight:normal;fill:#ffd200;stroke:#000000;stroke-width:1pt;font-family:TempoFont"
         id="path895" />
      <path
         inkscape:connector-curvature="0"
         d="m 149.361,366.198 c 0,1.856 -0.96,3.904 -6.144,3.904 l 0,1.216 20.16,0 c 10.048,0 16.704,-3.968 16.704,-11.648 0,-6.144 -5.184,-9.536 -10.688,-10.624 4.928,-1.152 8.512,-3.904 8.512,-9.28 0,-8.192 -7.68,-10.816 -17.536,-10.816 l -17.152,0 0,1.216 c 5.184,0 6.144,2.048 6.144,3.904 l 0,32.128 z m 6.528,-15.744 3.2,0 c 6.016,0 13.632,1.408 13.632,9.024 0,7.488 -4.928,9.472 -11.584,9.472 -4.672,0 -5.248,-1.152 -5.248,-3.392 l 0,-15.104 z m 0,-2.56 0,-14.528 c 0,-2.24 2.048,-2.112 7.936,-1.728 4.48,0.832 7.552,3.456 7.552,8.32 0,5.184 -3.776,7.936 -10.24,7.936 l -5.248,0 z"
         transform="matrix(0.575668,-0.817683,0.817683,0.575668,-162.2945,378.5383)"
         style="font-size:64px;font-weight:normal;fill:#ffd200;stroke:#000000;stroke-width:1pt;font-family:TempoFont"
         id="path899" />
      <path
         inkscape:connector-curvature="0"
         d="m 368.241,371.318 c 17.152,0 25.792,-8.064 25.792,-21.056 0,-14.4 -9.92,-21.312 -26.304,-21.312 l -16.512,0 0,1.216 c 4.672,0 5.632,2.048 5.632,3.904 l 0,32.128 c 0,1.856 -0.96,3.904 -5.632,3.904 l 0,1.216 17.024,0 z m -4.864,-36.736 c 0,-3.072 0.576,-3.264 3.648,-3.264 11.84,0 20.032,6.464 20.032,19.008 0,11.904 -7.552,18.944 -20.608,18.368 -1.408,-0.064 -3.072,-0.768 -3.072,-3.136 l 0,-30.976 z"
         transform="matrix(0.99696,-0.07791577,0.07791577,0.99696,22.20802,13.66208)"
         style="font-size:64px;font-weight:normal;fill:#ffd200;stroke:#000000;stroke-width:1pt;font-family:TempoFont"
         id="path902" />
      <path
         inkscape:connector-curvature="0"
         d="m 613.873,366.198 c 0,1.856 -0.96,3.904 -5.44,3.904 l 0,1.216 17.6,0 0,-1.216 c -4.672,0 -5.632,-2.048 -5.632,-3.904 l 0,-14.464 3.584,-0.128 15.232,19.712 10.304,0 0,-1.216 c -2.88,-0.192 -4.352,-1.472 -6.08,-3.584 l -12.672,-15.616 c 6.016,-0.832 11.584,-3.968 11.584,-10.752 0,-7.488 -6.4,-11.2 -17.024,-11.2 l -16.896,0 0,1.216 c 4.48,0 5.44,2.048 5.44,3.904 l 0,32.128 z m 6.528,-31.808 c 0,-3.008 0.576,-3.008 4.736,-3.008 5.76,0 10.24,2.496 10.24,8.832 0,6.912 -5.696,8.832 -14.976,9.152 l 0,-14.976 z"
         transform="matrix(0.509103,0.860706,-0.860706,0.509103,646.2854,-258.7708)"
         style="font-size:64px;font-weight:normal;fill:#ffd200;stroke:#000000;stroke-width:1pt;font-family:TempoFont"
         id="path905" />
      <path
         inkscape:connector-curvature="0"
         d="m 584.945,328.054 -1.28,0 -12.992,30.848 c -2.624,6.208 -4.288,10.88 -8.256,11.2 l 0,1.216 12.672,0 0,-1.216 c -2.176,0 -4.352,-0.576 -4.352,-2.688 0,-2.368 2.624,-7.488 3.456,-9.92 l 16.768,0 2.304,5.44 c 2.432,5.696 2.496,6.912 -2.944,7.168 l 0,1.216 16.32,0 0,-1.216 c -3.584,0.192 -4.928,-3.648 -6.08,-6.272 l -15.616,-35.776 z m -2.304,9.216 7.424,17.6 -14.784,0 7.36,-17.6 z"
         transform="matrix(0.672565,0.740039,-0.740039,0.672565,502.3974,-247.7309)"
         style="font-size:64px;font-weight:normal;fill:#ffd200;stroke:#000000;stroke-width:1pt;font-family:TempoFont"
         id="path908" />
      <path
         inkscape:connector-curvature="0"
         d="m 673.841,328.054 -1.28,0 -12.992,30.848 c -2.624,6.208 -4.288,10.88 -8.256,11.2 l 0,1.216 12.672,0 0,-1.216 c -2.176,0 -4.352,-0.576 -4.352,-2.688 0,-2.368 2.624,-7.488 3.456,-9.92 l 16.768,0 2.304,5.44 c 2.432,5.696 2.496,6.912 -2.944,7.168 l 0,1.216 16.32,0 0,-1.216 c -3.584,0.192 -4.928,-3.648 -6.08,-6.272 l -15.616,-35.776 z m -2.304,9.216 7.424,17.6 -14.784,0 7.36,-17.6 z"
         transform="matrix(0.401792,0.915731,-0.915731,0.401792,739.2097,-252.0349)"
         style="font-size:64px;font-weight:normal;fill:#ffd200;stroke:#000000;stroke-width:1pt;font-family:TempoFont"
         id="path911" />
      <path
         inkscape:connector-curvature="0"
         d="m 812.465,328.054 -1.28,0 -12.992,30.848 c -2.624,6.208 -4.288,10.88 -8.256,11.2 l 0,1.216 12.672,0 0,-1.216 c -2.176,0 -4.352,-0.576 -4.352,-2.688 0,-2.368 2.624,-7.488 3.456,-9.92 l 16.768,0 2.304,5.44 c 2.432,5.696 2.496,6.912 -2.944,7.168 l 0,1.216 16.32,0 0,-1.216 c -3.584,0.192 -4.928,-3.648 -6.08,-6.272 l -15.616,-35.776 z m -2.304,9.216 7.424,17.6 -14.784,0 7.36,-17.6 z"
         transform="matrix(-0.117645,0.993055,-0.993055,-0.117645,1148.478,-122.3435)"
         style="font-size:64px;font-weight:normal;fill:#ffd200;stroke:#000000;stroke-width:1pt;font-family:TempoFont"
         id="path914" />
      <path
         inkscape:connector-curvature="0"
         d="m 311.217,328.054 -1.28,0 -12.992,30.848 c -2.624,6.208 -4.288,10.88 -8.256,11.2 l 0,1.216 12.672,0 0,-1.216 c -2.176,0 -4.352,-0.576 -4.352,-2.688 0,-2.368 2.624,-7.488 3.456,-9.92 l 16.768,0 2.304,5.44 c 2.432,5.696 2.496,6.912 -2.944,7.168 l 0,1.216 16.32,0 0,-1.216 c -3.584,0.192 -4.928,-3.648 -6.08,-6.272 l -15.616,-35.776 z m -2.304,9.216 7.424,17.6 -14.784,0 7.36,-17.6 z"
         transform="matrix(0.929399,-0.369076,0.369076,0.929399,-77.68208,140.575)"
         style="font-size:64px;font-weight:normal;fill:#ffd200;stroke:#000000;stroke-width:1pt;font-family:TempoFont"
         id="path918" />
      <path
         inkscape:connector-curvature="0"
         d="m 728.93,940.016 4.372,-10.693 -1.589,-0.19 c -4.535,8.288 -10.161,7.359 -18.231,6.395 -3.94,-0.471 -6.272,-1.458 -6.059,-3.238 l 3.81,-31.901 c 0.22,-1.843 1.416,-3.762 6.056,-3.208 l 0.144,-1.208 -17.667,-2.11 -0.144,1.207 c 4.639,0.555 5.349,2.702 5.129,4.545 l -3.81,31.901 c -0.22,1.843 -1.416,3.763 -6.055,3.209 l -0.145,1.207 34.189,4.084 z"
         transform="matrix(0.416587,-0.909096,0.909096,0.416587,-458.6881,1006.731)"
         style="font-size:64px;font-weight:normal;fill:#ffd200;stroke:#000000;stroke-width:1pt;font-family:TempoFont"
         id="path932" />
      <path
         inkscape:connector-curvature="0"
         d="m 594.212,883.963 4.575,0.546 c 4.448,0.531 7.649,0.72 8.052,9.212 l 1.525,0.182 0.91,-10.849 -35.842,-4.281 -1.671,10.758 1.525,0.182 c 0.68,-1.917 1.256,-4.039 2.788,-5.532 2.161,-2.449 7.08,-1.539 11.656,-0.993 l -4.099,34.316 c -0.22,1.843 -1.416,3.763 -6.055,3.209 l -0.145,1.207 17.667,2.11 0.144,-1.207 c -4.639,-0.554 -5.349,-2.702 -5.129,-4.544 l 4.099,-34.316 z"
         transform="matrix(0.733792,-0.679374,0.679374,0.733792,-457.686,566.2103)"
         style="font-size:64px;font-weight:normal;fill:#ffd200;stroke:#000000;stroke-width:1pt;font-family:TempoFont"
         id="path937" />
      <path
         inkscape:connector-curvature="0"
         d="m 564.31,882.84 c 0.22,-1.843 1.416,-3.762 6.627,-3.14 l 0.144,-1.207 -15.124,-1.807 -0.145,1.208 c 5.211,0.622 5.922,2.769 5.701,4.612 l -3.043,25.483 -20.815,-33.489 -10.867,-1.298 -0.144,1.208 c 3.106,0.435 3.61,1.075 5.314,3.535 l 0.432,0.696 -3.856,32.283 c -0.22,1.842 -1.416,3.762 -6.627,3.14 l -0.144,1.207 15.125,1.807 0.144,-1.208 c -5.211,-0.622 -5.922,-2.77 -5.701,-4.612 l 3.468,-29.042 24.034,38.385 0.953,0.114 4.524,-37.875 z"
         transform="matrix(0.869442,-0.494036,0.494036,0.869442,-371.7899,341.9662)"
         style="font-size:64px;font-weight:normal;fill:#ffd200;stroke:#000000;stroke-width:1pt;font-family:TempoFont"
         id="path938" />
      <path
         inkscape:connector-curvature="0"
         d="m 517.251,914.732 4.143,-10.398 -1.78,-0.212 c -4.332,7.668 -9.169,7.155 -14.253,6.547 l -8.388,-1.002 c -1.271,-0.151 -1.493,-1.531 -1.357,-2.675 l 1.868,-15.633 8.96,1.07 c 4.258,0.509 7.736,2.149 7.144,7.105 l 1.334,0.16 1.776,-14.87 -1.334,-0.16 c -0.592,4.957 -4.351,5.668 -8.609,5.16 l -8.96,-1.071 1.632,-13.662 c 0.19,-1.589 1.503,-2.335 3.092,-2.145 l 10.231,1.222 c 4.449,0.531 6.181,3.832 6.471,7.347 l 1.398,0.167 1.085,-9.087 -33.744,-4.031 -0.144,1.208 c 4.639,0.554 5.349,2.701 5.129,4.544 l -3.81,31.902 c -0.221,1.842 -1.417,3.762 -6.056,3.208 l -0.144,1.207 34.316,4.099 z"
         transform="matrix(0.938229,-0.346015,0.346015,0.938229,-276.6619,203.9106)"
         style="font-size:64px;font-weight:normal;fill:#ffd200;stroke:#000000;stroke-width:1pt;font-family:TempoFont"
         id="path939" />
      <path
         inkscape:connector-curvature="0"
         d="m 484.055,867.26 -1.335,-0.159 c -2.711,4.897 -5.266,-0.694 -13.973,-1.734 -12.773,-1.525 -22.849,6.746 -24.359,19.392 -1.663,13.917 6.857,22.992 19.249,24.472 6.101,0.729 13.026,-1.667 17.472,-5.97 l -0.929,-1.4 c -4.901,3.797 -9.402,5.322 -15.629,4.578 -10.422,-1.244 -13.915,-11.394 -12.852,-20.291 1.366,-11.439 6.887,-19.352 17.373,-18.099 7.244,0.865 11.314,6.185 12.322,13.396 l 1.525,0.182 1.136,-14.367 z"
         transform="matrix(0.986363,-0.164584,0.164584,0.986363,-142.3164,76.79692)"
         style="font-size:64px;font-weight:normal;fill:#ffd200;stroke:#000000;stroke-width:1pt;font-family:TempoFont"
         id="path940" />
      <path
         inkscape:connector-curvature="0"
         d="m 379.899,854.82 -1.334,-0.16 c -2.712,4.897 -5.267,-0.693 -13.973,-1.733 -12.773,-1.526 -22.849,6.745 -24.36,19.392 -1.662,13.917 6.858,22.991 19.25,24.471 6.1,0.729 13.025,-1.667 17.471,-5.97 l -0.929,-1.4 c -4.901,3.798 -9.401,5.323 -15.629,4.579 -10.422,-1.245 -13.915,-11.395 -12.852,-20.292 1.366,-11.438 6.888,-19.351 17.373,-18.099 7.245,0.865 11.314,6.186 12.322,13.396 l 1.525,0.182 1.136,-14.366 z"
         transform="matrix(0.985039,0.172331,-0.172331,0.985039,161.1423,-58.10336)"
         style="font-size:64px;font-weight:normal;fill:#ffd200;stroke:#000000;stroke-width:1pt;font-family:TempoFont"
         id="path943" />
      <path
         inkscape:connector-curvature="0"
         d="m 332.74,855.181 c 0.22,-1.843 1.416,-3.763 6.69,-3.133 l 0.145,-1.207 -18.938,-2.262 -0.144,1.208 c 5.275,0.63 5.985,2.777 5.765,4.62 l -3.811,31.901 c -0.22,1.843 -1.416,3.763 -6.69,3.133 l -0.145,1.207 18.938,2.262 0.144,-1.207 c -5.274,-0.63 -5.985,-2.778 -5.765,-4.621 l 3.811,-31.901 z"
         transform="matrix(0.960202,0.279306,-0.279306,0.960202,264.567,-72.66391)"
         style="font-size:64px;font-weight:normal;fill:#ffd200;stroke:#000000;stroke-width:1pt;font-family:TempoFont"
         id="path944" />
      <path
         inkscape:connector-curvature="0"
         d="m 268.332,885.001 4.143,-10.398 -1.779,-0.213 c -4.332,7.669 -9.17,7.155 -14.254,6.548 l -8.388,-1.002 c -1.271,-0.152 -1.493,-1.532 -1.356,-2.676 l 1.867,-15.632 8.96,1.07 c 4.258,0.508 7.736,2.148 7.144,7.105 l 1.335,0.16 1.776,-14.871 -1.335,-0.159 c -0.592,4.957 -4.351,5.668 -8.608,5.159 l -8.961,-1.07 1.632,-13.663 c 0.19,-1.589 1.504,-2.334 3.092,-2.144 l 10.232,1.222 c 4.448,0.531 6.181,3.832 6.47,7.347 l 1.398,0.167 1.085,-9.087 -33.744,-4.031 -0.144,1.208 c 4.639,0.554 5.349,2.701 5.129,4.544 l -3.81,31.901 c -0.22,1.843 -1.416,3.763 -6.055,3.209 l -0.145,1.207 34.316,4.099 z"
         transform="matrix(0.842163,0.539223,-0.539223,0.842163,521.4125,-47.22133)"
         style="font-size:64px;font-weight:normal;fill:#ffd200;stroke:#000000;stroke-width:1pt;font-family:TempoFont"
         id="path947" />
      <path
         inkscape:connector-curvature="0"
         d="m 230.872,843.014 c 0.22,-1.843 1.416,-3.763 6.055,-3.209 l 0.144,-1.207 -12.646,-1.511 -17.877,30.415 -10.847,-33.845 -12.582,-1.503 -0.144,1.207 c 5.083,0.607 5.794,2.755 5.574,4.598 l -3.811,31.901 c -0.22,1.843 -1.416,3.762 -6.627,3.14 l -0.144,1.207 15.124,1.807 0.145,-1.207 c -5.211,-0.623 -5.922,-2.77 -5.702,-4.613 l 3.537,-29.614 11.807,36.603 0.889,0.106 20.588,-34.216 -3.712,31.075 c -0.22,1.843 -1.416,3.763 -6.055,3.209 l -0.144,1.207 17.666,2.11 0.144,-1.207 c -4.639,-0.554 -5.349,-2.702 -5.129,-4.544 l 3.747,-31.909 z"
         transform="matrix(0.751394,0.659854,-0.659854,0.751394,643.3429,-0.619537)"
         style="font-size:64px;font-weight:normal;fill:#ffd200;stroke:#000000;stroke-width:1pt;font-family:TempoFont"
         id="path948" />
      <path
         inkscape:connector-curvature="0"
         d="m 278.853,881.101 c -0.22,1.843 -1.416,3.763 -5.864,3.231 l -0.145,1.208 17.476,2.087 0.144,-1.207 c -4.639,-0.554 -5.349,-2.702 -5.129,-4.545 l 1.716,-14.362 3.573,0.298 12.787,21.38 10.231,1.222 0.145,-1.208 c -2.837,-0.532 -4.147,-1.977 -5.612,-4.279 l -10.731,-17.009 c 6.072,-0.113 11.973,-2.566 12.778,-9.302 0.888,-7.435 -5.027,-11.88 -15.576,-13.14 l -16.777,-2.004 -0.144,1.207 c 4.448,0.532 5.159,2.679 4.939,4.522 l -3.811,31.901 z m 10.255,-30.809 c 0.356,-2.987 0.928,-2.919 5.059,-2.425 5.719,0.683 9.872,3.693 9.12,9.984 -0.82,6.863 -6.703,8.094 -15.956,7.311 l 1.777,-14.87 z"
         transform="matrix(0.932723,0.360595,-0.360595,0.932723,344.8482,-74.0443)"
         style="font-size:64px;font-weight:normal;fill:#ffd200;stroke:#000000;stroke-width:1pt;font-family:TempoFont"
         id="path953" />
      <path
         inkscape:connector-curvature="0"
         d="m 406.47,857.929 -1.271,-0.152 -16.559,29.089 c -3.341,5.853 -5.548,10.295 -9.526,10.142 l -0.144,1.208 12.583,1.503 0.144,-1.208 c -2.161,-0.258 -4.253,-1.088 -4.003,-3.185 0.281,-2.351 3.494,-7.124 4.608,-9.44 l 16.65,1.989 1.643,5.674 c 1.739,5.945 1.658,7.16 -3.774,6.769 l -0.144,1.207 16.205,1.936 0.144,-1.208 c -3.581,-0.234 -4.46,-4.207 -5.293,-6.949 L 406.47,857.929 z m -3.381,8.878 5.285,18.356 -14.68,-1.754 9.395,-16.602 z"
         transform="translate(0,-5.828049)"
         style="font-size:64px;font-weight:normal;fill:#ffd200;stroke:#000000;stroke-width:1pt;font-family:TempoFont"
         id="path956" />
      <path
         inkscape:connector-curvature="0"
         d="m 159.331,828.41 -1.271,-0.152 -16.559,29.09 c -3.342,5.853 -5.548,10.294 -9.526,10.141 l -0.144,1.208 12.582,1.503 0.145,-1.208 c -2.161,-0.258 -4.253,-1.088 -4.003,-3.185 0.281,-2.351 3.494,-7.124 4.608,-9.44 l 16.65,1.989 1.642,5.675 c 1.74,5.944 1.659,7.159 -3.773,6.768 l -0.144,1.207 16.205,1.936 0.144,-1.208 c -3.582,-0.234 -4.461,-4.206 -5.293,-6.948 L 159.331,828.41 z m -3.381,8.878 5.284,18.356 -14.679,-1.753 9.395,-16.603 z"
         transform="matrix(0.56328,0.826266,-0.826266,0.56328,819.5499,132.999)"
         style="font-size:64px;font-weight:normal;fill:#ffd200;stroke:#000000;stroke-width:1pt;font-family:TempoFont"
         id="path959" />
      <path
         inkscape:connector-curvature="0"
         d="m 612.482,920.95 c -0.22,1.843 -1.416,3.763 -5.865,3.232 l -0.144,1.207 17.476,2.087 0.144,-1.207 c -4.639,-0.554 -5.349,-2.702 -5.129,-4.544 l 1.715,-14.362 3.574,0.298 12.787,21.379 10.231,1.222 0.144,-1.207 c -2.837,-0.533 -4.147,-1.978 -5.612,-4.28 l -10.73,-17.009 c 6.072,-0.112 11.972,-2.566 12.777,-9.302 0.888,-7.435 -5.027,-11.88 -15.576,-13.14 l -16.776,-2.004 -0.144,1.208 c 4.448,0.531 5.158,2.678 4.938,4.521 l -3.81,31.901 z m 10.254,-30.809 c 0.357,-2.987 0.929,-2.918 5.059,-2.425 5.72,0.683 9.872,3.693 9.121,9.984 -0.82,6.863 -6.704,8.094 -15.956,7.311 l 1.776,-14.87 z"
         transform="matrix(0.6625,-0.749062,0.749062,0.6625,-474.3096,673.2551)"
         style="font-size:64px;font-weight:normal;fill:#ffd200;stroke:#000000;stroke-width:1pt;font-family:TempoFont"
         id="path962" />
      <path
         inkscape:connector-curvature="0"
         d="m 676.55,890.188 -1.271,-0.152 -16.558,29.089 c -3.342,5.853 -5.549,10.295 -9.527,10.142 l -0.144,1.208 12.583,1.502 0.144,-1.207 c -2.161,-0.258 -4.253,-1.088 -4.002,-3.185 0.28,-2.351 3.493,-7.124 4.608,-9.44 l 16.649,1.988 1.643,5.675 c 1.739,5.945 1.659,7.16 -3.773,6.769 l -0.145,1.207 16.205,1.936 0.144,-1.208 c -3.581,-0.234 -4.46,-4.207 -5.293,-6.949 L 676.55,890.188 z m -3.38,8.877 5.284,18.357 -14.68,-1.754 9.396,-16.603 z"
         transform="matrix(0.485928,-0.873999,0.873999,0.485928,-475.1216,919.0538)"
         style="font-size:64px;font-weight:normal;fill:#ffd200;stroke:#000000;stroke-width:1pt;font-family:TempoFont"
         id="path965" />
      <ellipse
         sodipodi:ry="9.1583252"
         sodipodi:rx="9.5745926"
         sodipodi:cy="676.03918"
         sodipodi:cx="176.92175"
         cx="176.92175"
         cy="676.03918"
         rx="9.5745926"
         ry="9.1583252"
         transform="translate(2.49773,8.325775)"
         style="fill:#ffd200;fill-rule:evenodd;stroke:#000000;stroke-width:1pt"
         id="path966"
         d="m 186.49635,676.03918 c 0,5.05801 -4.2867,9.15833 -9.5746,9.15833 -5.2879,0 -9.57459,-4.10032 -9.57459,-9.15833 0,-5.058 4.28669,-9.15832 9.57459,-9.15832 5.2879,0 9.5746,4.10032 9.5746,9.15832 z" />
      <ellipse
         sodipodi:ry="9.1583252"
         sodipodi:rx="9.5745926"
         sodipodi:cy="676.03918"
         sodipodi:cx="176.92175"
         cx="176.92175"
         cy="676.03918"
         rx="9.5745926"
         ry="9.1583252"
         transform="translate(514.5301,19.98181)"
         style="fill:#ffd200;fill-rule:evenodd;stroke:#000000;stroke-width:1pt"
         id="path967"
         d="m 186.49635,676.03918 c 0,5.05801 -4.2867,9.15833 -9.5746,9.15833 -5.2879,0 -9.57459,-4.10032 -9.57459,-9.15833 0,-5.058 4.28669,-9.15832 9.57459,-9.15832 5.2879,0 9.5746,4.10032 9.5746,9.15832 z" />
    </g>
  </g>
</svg>
