<?xml version="1.0" encoding="UTF-8" standalone="no"?>
<!-- Created with Sodipodi ("http://www.sodipodi.com/") -->

<svg
   xmlns:dc="http://purl.org/dc/elements/1.1/"
   xmlns:cc="http://creativecommons.org/ns#"
   xmlns:rdf="http://www.w3.org/1999/02/22-rdf-syntax-ns#"
   xmlns:svg="http://www.w3.org/2000/svg"
   xmlns="http://www.w3.org/2000/svg"
   xmlns:sodipodi="http://sodipodi.sourceforge.net/DTD/sodipodi-0.dtd"
   xmlns:inkscape="http://www.inkscape.org/namespaces/inkscape"
   version="1"
   x="0"
   y="0"
   width="512"
   height="512"
   id="svg378"
   inkscape:version="0.48.1 r9760"
   sodipodi:docname="ph.svg">
  <sodipodi:namedview
     pagecolor="#ffffff"
     bordercolor="#666666"
     borderopacity="1"
     objecttolerance="10"
     gridtolerance="10"
     guidetolerance="10"
     inkscape:pageopacity="0"
     inkscape:pageshadow="2"
     inkscape:window-width="1280"
     inkscape:window-height="723"
     id="namedview3664"
     showgrid="false"
     inkscape:zoom="0.4021669"
     inkscape:cx="531.495"
     inkscape:cy="385.41213"
     inkscape:window-x="0"
     inkscape:window-y="24"
     inkscape:window-maximized="1"
     inkscape:current-layer="svg378" />
  <metadata
     id="metadata3666">
    <rdf:RDF>
      <cc:Work
         rdf:about="">
        <dc:format>image/svg+xml</dc:format>
        <dc:type
           rdf:resource="http://purl.org/dc/dcmitype/StillImage" />
      </cc:Work>
    </rdf:RDF>
  </metadata>
  <defs
     id="defs380">
    <clipPath
       clipPathUnits="userSpaceOnUse"
       id="clipPath6532">
      <rect
         id="rect6534"
         height="708.66101"
         x="192.3904"
         style="fill:#000000;fill-opacity:0.67000002;stroke:none"
         width="708.66101"
         y="-3.3378826e-06" />
    </clipPath>
  </defs>
  <g
     transform="matrix(0.7224893,0,0,0.7224893,-139,2.4115845e-6)"
     id="flag"
     clip-path="url(#clipPath6532)"
     inkscape:label="#g6474">
    <rect
       width="1062.99"
       height="708.66101"
       x="0"
       y="0"
       style="font-size:12px;fill:#f50013;fill-rule:evenodd;stroke-width:1pt"
       id="rect149" />
    <rect
       width="1062.99"
       height="354.33099"
       x="0"
       y="0"
       style="font-size:12px;fill:#00189a;fill-rule:evenodd;stroke-width:1pt"
       id="rect280" />
    <path
       inkscape:connector-curvature="0"
       d="M 0,0 609.958,353.876 0,707.296 0,0 z"
       style="font-size:12px;fill:#feffff;fill-rule:evenodd;stroke-width:1pt"
       id="path279" />
    <path
       inkscape:connector-curvature="0"
       d="m 266.186,534.45 -10.408,-7.432 -10.357,7.505 3.852,-12.196 -10.338,-7.531 12.79,-0.105 3.967,-12.159 4.052,12.131 12.79,0.016 -10.285,7.602 3.937,12.169 z"
       transform="matrix(0.873933,1.97019,-2.06044,0.913966,897.478,-367.586)"
       style="font-size:12px;fill:#eca300;fill-rule:evenodd;stroke-width:0.112872"
       id="path205" />
    <path
       inkscape:connector-curvature="0"
       d="m 212.741,285.315 11.383,-41.98 -7.826,-9.962 -9.249,51.229 5.692,0.713 z m -24.192,0 -7.115,-57.633 13.518,-15.653 13.519,12.807 -6.403,59.766 -13.519,0.713 z m -10.673,0.712 -11.383,-41.98 7.826,-9.962 9.249,51.229 -5.692,0.713 z"
       transform="matrix(0.702322,-0.711859,0.711859,0.702322,-193.877,244.12)"
       style="font-size:12px;fill:#eca300;fill-rule:evenodd;stroke-width:1pt"
       id="path425" />
    <path
       inkscape:connector-curvature="0"
       d="m 212.741,285.315 11.383,-41.98 -7.826,-9.962 -9.249,51.229 5.692,0.713 z m -24.192,0 -7.115,-57.633 13.518,-15.653 13.519,12.807 -6.403,59.766 -13.519,0.713 z m -10.673,0.712 -11.383,-41.98 7.826,-9.962 9.249,51.229 -5.692,0.713 z"
       transform="matrix(0.999999,9.94443e-4,-9.94443e-4,0.999999,0.352006,-0.193734)"
       style="font-size:12px;fill:#eca300;fill-rule:evenodd;stroke-width:1pt"
       id="path426" />
    <path
       inkscape:connector-curvature="0"
       d="m 212.741,285.315 11.383,-41.98 -7.826,-9.962 -9.249,51.229 5.692,0.713 z m -24.192,0 -7.115,-57.633 13.518,-15.653 13.519,12.807 -6.403,59.766 -13.519,0.713 z m -10.673,0.712 -11.383,-41.98 7.826,-9.962 9.249,51.229 -5.692,0.713 z"
       transform="matrix(0.693189,0.720755,-0.720755,0.693189,314.872,-31.9403)"
       style="font-size:12px;fill:#eca300;fill-rule:evenodd;stroke-width:1pt"
       id="path427" />
    <path
       inkscape:connector-curvature="0"
       d="m 212.741,285.315 11.383,-41.98 -7.826,-9.962 -9.249,51.229 5.692,0.713 z m -24.192,0 -7.115,-57.633 13.518,-15.653 13.519,12.807 -6.403,59.766 -13.519,0.713 z m -10.673,0.712 -11.383,-41.98 7.826,-9.962 9.249,51.229 -5.692,0.713 z"
       transform="matrix(-0.00151958,0.999999,-0.999999,-0.00151958,549.124,159.461)"
       style="font-size:12px;fill:#eca300;fill-rule:evenodd;stroke-width:1pt"
       id="path428" />
    <path
       inkscape:connector-curvature="0"
       d="m 212.741,285.315 11.383,-41.98 -7.826,-9.962 -9.249,51.229 5.692,0.713 z m -24.192,0 -7.115,-57.633 13.518,-15.653 13.519,12.807 -6.403,59.766 -13.519,0.713 z m -10.673,0.712 -11.383,-41.98 7.826,-9.962 9.249,51.229 -5.692,0.713 z"
       transform="matrix(-0.699173,0.714953,-0.714953,-0.699173,584.263,461.915)"
       style="font-size:12px;fill:#eca300;fill-rule:evenodd;stroke-width:1pt"
       id="path429" />
    <path
       inkscape:connector-curvature="0"
       d="m 212.741,285.315 11.383,-41.98 -7.826,-9.962 -9.249,51.229 5.692,0.713 z m -24.192,0 -7.115,-57.633 13.518,-15.653 13.519,12.807 -6.403,59.766 -13.519,0.713 z m -10.673,0.712 -11.383,-41.98 7.826,-9.962 9.249,51.229 -5.692,0.713 z"
       transform="matrix(-0.999983,0.00588184,-0.00588184,-0.999983,391.983,706.599)"
       style="font-size:12px;fill:#eca300;fill-rule:evenodd;stroke-width:1pt"
       id="path430" />
    <path
       inkscape:connector-curvature="0"
       d="m 212.741,285.315 11.383,-41.98 -7.826,-9.962 -9.249,51.229 5.692,0.713 z m -24.192,0 -7.115,-57.633 13.518,-15.653 13.519,12.807 -6.403,59.766 -13.519,0.713 z m -10.673,0.712 -11.383,-41.98 7.826,-9.962 9.249,51.229 -5.692,0.713 z"
       transform="matrix(-0.704682,-0.709523,0.709523,-0.704682,81.2489,741.569)"
       style="font-size:12px;fill:#eca300;fill-rule:evenodd;stroke-width:1pt"
       id="path431" />
    <path
       inkscape:connector-curvature="0"
       d="m 212.741,285.315 11.383,-41.98 -7.826,-9.962 -9.249,51.229 5.692,0.713 z m -24.192,0 -7.115,-57.633 13.518,-15.653 13.519,12.807 -6.403,59.766 -13.519,0.713 z m -10.673,0.712 -11.383,-41.98 7.826,-9.962 9.249,51.229 -5.692,0.713 z"
       transform="matrix(-0.00557694,-0.999984,0.999984,-0.00557694,-157.831,550.799)"
       style="font-size:12px;fill:#eca300;fill-rule:evenodd;stroke-width:1pt"
       id="path432" />
    <path
       inkscape:connector-curvature="0"
       d="m 266.186,534.45 -10.408,-7.432 -10.357,7.505 3.852,-12.196 -10.338,-7.531 12.79,-0.105 3.967,-12.159 4.052,12.131 12.79,0.016 -10.285,7.602 3.937,12.169 z"
       transform="matrix(2.05182,0.659882,-0.690111,2.14581,327.171,-931.587)"
       style="font-size:12px;fill:#eca300;fill-rule:evenodd;stroke-width:0.112872"
       id="path433" />
    <path
       inkscape:connector-curvature="0"
       d="m 266.186,534.45 -10.408,-7.432 -10.357,7.505 3.852,-12.196 -10.338,-7.531 12.79,-0.105 3.967,-12.159 4.052,12.131 12.79,0.016 -10.285,7.602 3.937,12.169 z"
       transform="matrix(1.579,1.46703,-1.53423,1.65133,444.171,-1137.05)"
       style="font-size:12px;fill:#eca300;fill-rule:evenodd;stroke-width:0.112872"
       id="path434" />
    <ellipse
       d="m 263.71223,353.87601 c 0,40.33258 -32.69602,73.02859 -73.02861,73.02859 -40.33258,0 -73.0286,-32.69601 -73.0286,-73.02859 0,-40.33258 32.69602,-73.0286 73.0286,-73.0286 40.33259,0 73.02861,32.69602 73.02861,73.0286 z"
       sodipodi:ry="73.028595"
       sodipodi:rx="73.028603"
       sodipodi:cy="353.87601"
       sodipodi:cx="190.68362"
       cx="190.68362"
       cy="353.87601"
       rx="73.028603"
       ry="73.028595"
       transform="translate(4.26905,-2.39696e-5)"
       style="font-size:12px;fill:#eca300;fill-rule:evenodd;stroke-width:1pt"
       id="path418" />
  </g>
</svg>
