<?xml version="1.0" encoding="UTF-8" standalone="no"?>
<!-- Created with Sodipodi ("http://www.sodipodi.com/") -->

<svg
   xmlns:dc="http://purl.org/dc/elements/1.1/"
   xmlns:cc="http://creativecommons.org/ns#"
   xmlns:rdf="http://www.w3.org/1999/02/22-rdf-syntax-ns#"
   xmlns:svg="http://www.w3.org/2000/svg"
   xmlns="http://www.w3.org/2000/svg"
   xmlns:sodipodi="http://sodipodi.sourceforge.net/DTD/sodipodi-0.dtd"
   xmlns:inkscape="http://www.inkscape.org/namespaces/inkscape"
   id="svg761"
   sodipodi:version="0.33pre"
   width="512"
   height="512"
   sodipodi:docname="sa.svg"
   version="1.1"
   inkscape:version="0.48.1 r9760">
  <sodipodi:namedview
     id="base"
     showgrid="false"
     inkscape:zoom="0.44080424"
     inkscape:cx="372.04724"
     inkscape:cy="248.03149"
     inkscape:window-width="1280"
     inkscape:window-height="723"
     inkscape:window-x="0"
     inkscape:window-y="24"
     inkscape:window-maximized="1"
     inkscape:current-layer="svg761" />
  <metadata
     id="metadata42">
    <rdf:RDF>
      <cc:Work
         rdf:about="">
        <dc:format>image/svg+xml</dc:format>
        <dc:type
           rdf:resource="http://purl.org/dc/dcmitype/StillImage" />
      </cc:Work>
    </rdf:RDF>
  </metadata>
  <defs
     id="defs763">
    <clipPath
       clipPathUnits="userSpaceOnUse"
       id="clipPath5379">
      <rect
         id="rect5381"
         height="496.06299"
         x="124.01575"
         style="fill:#000000;fill-opacity:0.67000002;stroke:none"
         width="496.06299"
         y="-1.1180649e-05" />
    </clipPath>
  </defs>
  <g
     transform="matrix(1.032127,0,0,1.032127,-128,1.153985e-5)"
     id="flag"
     clip-path="url(#clipPath5379)"
     inkscape:label="#g5255">
    <rect
       style="font-size:12px;fill:#199d00;fill-opacity:1;fill-rule:evenodd;stroke:none"
       id="rect681"
       width="744.09448"
       height="496.06299"
       x="0"
       y="-7.5999997e-05"
       transform="translate(0,6.103516e-5)" />
    <path
       inkscape:connector-curvature="0"
       style="fill:#ffffff;fill-opacity:1;fill-rule:evenodd;stroke:none"
       d="m 187.516,140.616 c -0.859,11.589 -1.89,31.983 7.957,34.075 11.91,1.145 5.343,-20.158 9.654,-24.021 0.815,-1.909 2.318,-1.919 2.442,0.489 0,6.023 0,12.047 0,18.07 -0.109,5.876 3.754,7.607 6.755,8.821 3.123,-0.241 5.208,-0.137 6.432,2.902 0.488,10.419 0.977,20.838 1.465,31.257 0,0 7.243,2.073 7.588,-17.581 0.346,-11.54 -2.305,-21.2 -0.751,-23.445 0.055,-2.206 2.872,-2.338 4.826,-1.263 3.113,2.196 4.5,4.908 9.338,3.823 7.362,-2.028 11.787,-5.609 11.896,-11.262 -0.43,-5.372 -1.032,-10.745 -3.36,-16.117 0.325,-0.977 -1.421,-3.508 -1.097,-4.485 1.323,2.072 3.336,1.9 3.794,0 -1.253,-4.129 -3.197,-8.085 -6.349,-9.797 -2.605,-2.295 -6.417,-1.826 -7.813,2.96 -0.647,5.515 1.988,12.067 6.004,17.409 0.853,2.087 2.051,5.555 1.524,8.678 -2.137,1.219 -4.274,0.711 -6.064,-1.179 0,0 -5.86,-4.395 -5.86,-5.372 1.555,-9.956 0.345,-11.085 -0.517,-13.848 -0.602,-3.814 -2.412,-5.037 -3.878,-7.642 -1.466,-1.554 -3.449,-1.554 -4.397,0 -2.59,4.49 -1.382,14.129 0.489,18.446 1.352,3.971 3.418,6.463 2.442,6.463 -0.804,2.244 -2.466,1.726 -3.675,-0.864 -1.726,-5.353 -2.072,-13.34 -2.072,-16.937 -0.518,-4.459 -1.087,-13.97 -4.022,-16.387 -1.79,-2.438 -4.444,-1.249 -5.371,0.976 -0.193,4.426 -0.213,8.851 0.285,12.93 2.013,7.154 2.645,13.444 3.622,20.77 0.271,9.813 -5.674,4.258 -5.402,-0.607 1.371,-6.319 1.015,-16.265 -0.203,-18.786 -0.966,-2.521 -2.106,-3.143 -4.455,-2.728 -1.865,-0.114 -6.664,5.126 -8.011,13.818 0,0 -1.149,4.474 -1.639,8.446 -0.659,4.489 -3.614,7.657 -5.686,-0.631 -1.791,-6.024 -2.892,-20.854 -5.891,-17.381 z"
       id="path766"
       sodipodi:nodetypes="cccccccccccccccccccccccccccccccccccccccc" />
    <path
       inkscape:connector-curvature="0"
       style="fill:#ffffff;fill-opacity:1;fill-rule:evenodd;stroke:none"
       d="m 219.88,188.161 c -10.51,5.138 -20.675,9.931 -31.014,14.896 0.378,-7.03 14.745,-19.72 24.543,-19.899 6.377,0.178 4.775,2.471 6.471,5.003 z"
       id="path767"
       sodipodi:nodetypes="cccc" />
    <path
       inkscape:connector-curvature="0"
       style="fill:#ffffff;fill-opacity:1;fill-rule:evenodd;stroke:none"
       d="m 214.462,197.879 c -16.345,42.133 38.275,48.004 44.379,1.726 0.575,-1.899 2.878,-3.799 3.281,-0.691 -1.267,41.902 -42.249,44.781 -49.213,31.599 -1.726,-3.107 -2.245,-10.014 -2.418,-14.159 -1.036,-8.23 -5.352,-5.065 -6.043,3.108 -0.691,4.547 -0.518,5.815 -0.518,10.189 2.187,33.096 54.97,18.879 63.545,-8.461 4.547,-15.139 -0.749,-26.304 1.726,-26.248 5.238,5.642 12.547,0.749 14.159,-1.208 0.691,-0.979 2.419,-1.611 3.627,-0.345 4.086,2.937 11.283,1.553 12.778,-3.627 0.864,-5.065 1.555,-10.303 1.728,-15.712 -3.34,1.037 -5.814,1.726 -6.044,3.108 -0.231,1.497 -0.46,2.992 -0.691,4.489 -0.287,1.44 -3.167,1.496 -3.281,-0.346 -1.266,-5.756 -6.504,-6.504 -9.67,2.419 -2.13,1.726 -5.986,2.072 -6.39,-0.518 0.518,-5.986 -1.9,-6.793 -6.734,-3.972 -1.554,-11.857 -3.107,-23.196 -4.662,-35.053 2.015,-0.058 3.858,1.438 5.7,-0.864 -2.017,-6.273 -6.275,-19.109 -8.636,-20.03 -1.151,-1.381 -2.131,-0.518 -3.626,-0.173 -2.532,0.806 -4.893,2.993 -4.145,7.253 2.993,18.188 4.951,32.06 7.944,50.249 0.46,2.13 -1.324,4.948 -3.626,4.661 -3.914,-2.648 -4.89,-8 -11.569,-7.771 -4.835,0.058 -10.362,5.296 -11.051,10.363 -0.806,4.027 -1.095,8.401 -0.002,11.913 3.398,4.086 7.484,3.685 11.053,2.763 2.935,-1.208 5.352,-4.144 6.389,-3.454 0.691,0.864 0.171,10.532 -13.815,17.958 -8.461,3.799 -15.196,4.663 -18.82,-2.245 -2.245,-4.317 0.172,-20.721 -5.355,-16.921 z"
       id="path768"
       sodipodi:nodetypes="cccccccccccccccccccccccccccccccccc" />
    <path
       inkscape:connector-curvature="0"
       style="fill:#ffffff;fill-opacity:1;fill-rule:evenodd;stroke:none"
       d="m 283.792,155.052 c 3.281,-1.209 18.824,-18.994 18.824,-18.994 -0.807,-0.691 -1.527,-1.209 -2.333,-1.9 -0.864,-0.748 -0.777,-1.496 0,-2.245 3.856,-2.244 2.619,-7.166 0.605,-9.41 -3.339,-1.497 -6.246,-1.008 -8.376,0.086 -2.705,2.59 -3.337,6.734 -1.207,9.324 2.073,0.979 4.144,3.08 2.762,4.231 -6.359,6.792 -23.771,18.505 -21.756,18.908 0.43,0.576 11.137,0.547 11.481,0 z"
       id="path769"
       sodipodi:nodetypes="cccccccccc" />
    <path
       inkscape:connector-curvature="0"
       style="fill:#ffffff;fill-opacity:1;fill-rule:evenodd;stroke:none"
       d="m 189.934,217.992 c -5.829,9.286 -6.336,23.159 -3.12,27.295 1.709,1.954 4.517,2.81 6.594,2.198 3.662,-1.588 5.265,-9.008 4.396,-11.722 -1.222,-1.913 -2.185,-2.216 -3.405,-0.589 -2.577,5.232 -3.647,1.643 -3.873,-1.281 -0.395,-5.545 0.127,-10.652 0.729,-14.696 0.641,-4.145 -0.011,-2.878 -1.321,-1.205 z"
       id="path770"
       sodipodi:nodetypes="ccccccsc" />
    <path
       inkscape:connector-curvature="0"
       style="fill:#ffffff;fill-opacity:1;fill-rule:evenodd;stroke:none"
       d="m 439.017,203.122 c -5.636,-12.131 -13.438,-24.119 -15.921,-28.724 -2.482,-4.607 -21.223,-31.805 -23.982,-34.864 -6.088,-7.235 9.886,3.013 -2.021,-11.351 -4.54,-3.895 -4.804,-4.132 -8.572,-7.31 -1.901,-1.349 -6.542,-3.813 -7.364,0.271 -0.413,3.601 -0.19,5.554 0.415,8.552 0.464,1.999 3.376,5.347 4.808,7.287 19.014,25.558 35.874,51.369 52.133,83.821 2.567,-1.22 2.006,-15.652 0.504,-17.682 z"
       id="path771"
       sodipodi:nodetypes="csccccsccc" />
    <path
       inkscape:connector-curvature="0"
       style="fill:#ffffff;fill-opacity:1;fill-rule:evenodd;stroke:none"
       d="m 414.279,243.71 c -1.108,1.244 2.736,6.565 7.732,6.56 8.355,-0.97 15.71,-5.663 22.52,-18.017 1.821,-2.881 5.022,-9.043 5.116,-13.823 0.637,-28.025 -1.403,-49.832 -5.602,-70.087 -0.269,-1.973 -0.105,-4.292 0.229,-4.884 0.541,-0.646 2.376,0.003 3.349,-1.593 1.428,-1.458 -3.792,-13.535 -6.768,-18.187 -1.057,-2.077 -1.425,-3.464 -3.174,0.244 -1.84,3.014 -3.076,8.273 -2.931,13.187 3.986,27.595 5.21,51.736 7.815,79.332 0.212,2.669 -0.18,6.547 -1.954,8.093 -6.562,6.852 -16.033,15.286 -26.332,19.175 z"
       id="path793"
       sodipodi:nodetypes="ccccccccccccc" />
    <path
       inkscape:connector-curvature="0"
       style="fill:#ffffff;fill-opacity:1;fill-rule:evenodd;stroke:none"
       d="m 527.145,243.562 c -5.996,3.466 -6.003,7.453 -1.155,7.597 8.355,-0.97 18.227,-1.664 25.037,-11.945 1.822,-2.881 3.986,-10.672 4.08,-15.452 0.637,-28.025 -0.366,-48.943 -4.565,-69.198 -0.269,-1.973 -1.142,-6.514 -0.808,-7.106 0.541,-1.387 3.265,0.151 4.238,-1.445 1.428,-1.458 -7.051,-12.35 -10.027,-17.002 -1.057,-2.077 -1.425,-3.464 -3.174,0.244 -1.84,3.014 -2.483,8.421 -1.746,13.187 4.43,29.965 7.728,52.477 8.408,79.036 -0.381,2.521 -0.476,3.88 -1.658,7.056 -2.615,3.352 -5.512,7.543 -8.229,9.569 -2.716,2.025 -8.511,3.958 -10.401,5.459 z"
       id="path794"
       sodipodi:nodetypes="ccccccccccccsc" />
    <path
       inkscape:connector-curvature="0"
       style="fill:#ffffff;fill-opacity:1;fill-rule:evenodd;stroke:none"
       d="m 531.639,216.7 c -0.069,-7.008 0.099,-13.059 -0.132,-18.286 -0.23,-5.227 -1.154,-9.483 -2.963,-13.193 -1.712,-3.978 -0.649,-7.175 -1.453,-11.412 -0.803,-4.236 -0.605,-10.58 -1.819,-15.607 -0.333,-1.963 -1.353,-8.25 -1.038,-8.853 0.495,-1.403 2.38,0.044 3.301,-1.582 1.379,-1.503 -4.783,-17.447 -7.909,-22 -1.124,-2.041 -3.165,-1.342 -5.682,1.977 -2.334,2.184 -1.468,7.165 -0.577,11.904 5.995,31.286 10.467,59.603 9.491,89.385 -0.299,2.532 8.843,-7.553 8.781,-12.333 z"
       id="path795"
       sodipodi:nodetypes="cssscccccccc" />
    <path
       inkscape:connector-curvature="0"
       style="fill:#ffffff;fill-opacity:1;fill-rule:evenodd;stroke:none"
       d="m 487.34,177.892 c -3.771,-0.069 -11.669,-7.338 -13.974,-11.597 -0.871,-2.443 -0.312,-4.826 0.456,-6.222 1.396,-0.908 3.544,-1.928 5.15,-0.95 0,0 1.665,2.33 1.343,2.626 2.059,0.986 2.933,0.419 3.142,-0.419 0.14,-1.466 -0.609,-2.34 -0.617,-3.955 0.873,-4.38 5.879,-5.061 7.764,-2.268 1.38,1.703 1.886,5.321 2.095,7.764 -0.022,1.248 -2.043,-0.216 -3.191,0.084 -1.149,0.301 -1.425,1.626 -1.514,2.825 -0.208,3.176 -0.584,8.272 -0.654,12.112 z"
       id="path796"
       sodipodi:nodetypes="cccccccccscc" />
    <path
       inkscape:connector-curvature="0"
       style="fill:#ffffff;fill-opacity:1;fill-rule:evenodd;stroke:none"
       d="m 417.753,224.469 c 1.039,-9.522 -0.384,-26.48 -0.479,-32.099 -0.381,-13.274 -2.549,-38.912 -3.581,-43.195 -1.163,-8.074 3.321,0.886 2.7,-3.807 -1.454,-8.063 -5.926,-13.528 -11.183,-20.913 -1.695,-2.402 -1.638,-2.892 -4.255,0.589 -2.896,6.57 -0.396,11.089 0.352,16.205 3.791,16.67 6.003,32.009 7.033,47.172 1.03,15.164 1.346,31.558 0.406,47.528 2.841,0.112 7.409,-4.596 9.007,-11.48 z"
       id="path797"
       sodipodi:nodetypes="cscccccscc" />
    <path
       inkscape:connector-curvature="0"
       style="fill:#ffffff;fill-opacity:1;fill-rule:evenodd;stroke:none"
       d="m 544.473,209.217 c -6.649,-11.157 -16.683,-23.24 -19.364,-27.733 -2.68,-4.494 -25.352,-33.746 -28.241,-36.682 -8.294,-8.713 3.804,-1.418 -1.588,-8.148 -4.56,-5.007 -5.89,-6.579 -9.793,-9.59 -1.957,-1.265 -3.143,-3.68 -3.786,0.436 -0.256,3.616 -0.523,7.799 -0.28,10.847 -0.014,1.694 1.75,4.877 3.265,6.753 20.109,24.706 42.042,49.933 59.699,81.646 2.512,-1.331 1.677,-15.566 0.088,-17.529 z"
       id="path798"
       sodipodi:nodetypes="csccccsccc" />
    <path
       inkscape:connector-curvature="0"
       style="fill:#1ba400;fill-opacity:1;fill-rule:evenodd;stroke:none"
       d="m 242.792,188.632 c -0.479,0.839 -1.544,1.926 -1.187,3.051 0.747,1.012 1.343,1.217 2.587,1.272 1.079,0 2.587,0.255 2.911,-0.382 0.581,-0.64 1.023,-1.946 0.539,-3.179 -1.124,-2.809 -4.263,-1.762 -4.85,-0.762 z"
       id="path799"
       sodipodi:nodetypes="cccccc" />
    <path
       inkscape:connector-curvature="0"
       style="fill:#ffffff;fill-opacity:1;fill-rule:evenodd;stroke:none"
       d="m 467.162,351.255 c 8.892,0.327 14.712,0.406 22.621,1.347 0,0 6.82,-0.674 9.256,-1.042 10.295,-0.982 10.751,14.704 10.751,14.704 -0.113,9.2 -3.664,9.681 -8.197,10.653 -2.59,0.33 -3.951,-1.551 -5.312,-3.554 -1.709,0.715 -4.031,0.818 -6.845,0.428 -3.705,-0.232 -7.411,-0.217 -11.116,-0.449 -3.937,-0.347 -6.031,0.41 -9.968,0.063 -0.811,1.274 -1.866,3.038 -4.274,2.47 -2.003,-0.221 -4.376,-5.845 -3.677,-10.12 1.446,-3.066 1.049,-2.08 0.898,-3.427 -36.357,-0.926 -73.062,-2.547 -108.725,-2.084 -27.904,0.116 -55.462,1.274 -83.02,2.432 -14.705,-0.232 -25.936,-2.548 -33.694,-13.895 0.695,0 37.515,2.084 48.284,1.389 19.915,-0.232 38.093,-1.852 58.356,-2.431 39.947,0.694 79.547,0.695 119.494,3.473 -3.821,-2.614 -3.958,-8.789 1.923,-10.298 0.5,-0.344 0.758,3.07 1.638,3.006 4.705,-0.353 2.642,6.021 1.607,7.335 z"
       id="path800"
       sodipodi:nodetypes="cccccccccccccccccccsc" />
    <path
       inkscape:connector-curvature="0"
       style="fill:#ffffff;fill-opacity:1;fill-rule:evenodd;stroke:none"
       d="m 306.784,131.067 c -6.054,17.303 3.468,36.23 10.07,34.387 4.763,1.972 7.796,-7.089 9.746,-17.016 1.334,-2.786 2.342,-3.083 3.027,-1.651 -0.176,13.201 0.948,16.125 4.342,20.132 7.571,5.841 13.834,0.746 14.325,0.254 0.491,-0.491 5.895,-5.895 5.895,-5.895 1.312,-1.38 3.059,-1.461 4.912,-0.245 1.801,1.637 1.548,4.465 5.404,6.426 3.245,1.298 10.183,0.3 11.79,-2.496 2.163,-3.707 2.682,-4.98 3.684,-6.386 1.544,-2.055 4.176,-1.141 4.176,-0.492 -0.246,1.146 -1.791,2.293 -0.737,4.357 1.836,1.377 2.26,0.491 3.346,0.185 3.841,-1.836 6.725,-10.191 6.725,-10.191 0.17,-3.108 -1.572,-2.851 -2.702,-2.211 -1.474,0.901 -1.57,1.189 -3.044,2.09 -1.878,0.279 -5.521,1.524 -7.322,-1.265 -1.839,-3.353 -1.864,-8.031 -3.27,-11.413 0,-0.246 -2.44,-5.327 -0.169,-5.652 1.146,0.213 3.591,0.86 3.98,-1.199 1.202,-2.007 -2.574,-7.69 -5.158,-10.562 -2.243,-2.462 -5.351,-2.759 -8.351,-0.245 -2.101,1.933 -1.799,4.093 -2.211,6.14 -0.535,2.351 -0.421,5.243 1.965,8.351 2.097,4.135 5.923,9.46 4.667,16.948 0,0 -2.235,3.539 -6.129,3.076 -1.623,-0.354 -4.255,-1.043 -5.661,-11.427 -1.064,-7.86 0.251,-18.857 -3.085,-24.013 -1.205,-3.113 -2.085,-6.119 -5.021,-0.795 -0.789,2.091 -4.175,5.264 -1.719,11.79 2.009,4.138 2.827,10.872 1.915,18.364 -1.392,2.129 -1.701,2.85 -3.526,4.979 -2.564,2.757 -5.346,2.053 -7.477,1.024 -1.991,-1.342 -3.55,-2.036 -4.459,-6.299 0.164,-6.795 0.543,-17.918 -0.699,-20.278 -1.831,-3.655 -4.851,-2.333 -6.141,-1.229 -6.198,5.667 -9.26,15.229 -11.131,22.843 -1.719,5.549 -3.548,3.959 -4.834,1.72 -3.131,-2.934 -3.343,-25.878 -7.123,-22.106 z"
       id="path801"
       sodipodi:nodetypes="cccccccccccccccccccccccccccccccccccccccc" />
    <path
       inkscape:connector-curvature="0"
       style="fill:#ffffff;fill-opacity:1;fill-rule:evenodd;stroke:none"
       d="m 325.011,168.682 c 2.749,-1.947 1.464,-3.308 5.575,0.802 5.147,8.8 8.455,20.196 8.951,30.293 -0.217,2.488 1.537,4.063 2.339,3.522 0.477,-5.841 14.681,-13.98 27.706,-15.17 1.992,-0.433 1.023,-4.25 1.348,-6.197 -0.781,-7.231 4.063,-13.814 10.853,-14.339 9.241,1.366 12.317,6.3 12.473,13.831 -0.998,14.458 -16.059,16.909 -24.521,18.062 -1.298,0.491 -1.839,1.09 0,1.798 l 35.456,0.161 1.809,1.045 c 0.217,0.845 -0.517,0.14 -1.917,2.445 -1.399,2.305 -3.463,7.62 -3.57,11.169 -10.564,3.397 -21.49,4.885 -32.595,6.228 -3.858,1.951 -5.77,4.551 -4.978,7.477 1.298,3.245 9.844,6.487 9.844,6.641 1.623,1.018 3.543,3.393 -0.459,8.26 -17.295,-0.761 -30.697,-8.121 -35.337,-18.509 -1.398,-1.084 -2.904,-0.006 -3.869,1.398 -6.752,8.704 -13.396,16.543 -24.908,20.704 -6.865,1.715 -13.893,-1.053 -17.212,-5.549 -2.222,-2.559 -2.137,-5.384 -2.953,-5.996 -3.71,1.641 -35.64,15.208 -31.593,8.888 7.771,-8.317 21.224,-14.427 33.105,-22.636 0.857,-2.75 2.416,-12.055 7.109,-15.085 0.271,0.023 -0.744,5.464 -0.642,7.759 0.053,1.884 -0.138,2.622 0.274,2.137 0.802,-0.511 15.218,-11.839 16.332,-15.313 1.406,-1.992 0.422,-7.037 0.422,-7.19 -2.704,-6.968 -6.496,-7.56 -7.902,-11.022 -1.266,-4.599 -0.693,-9.849 1.936,-11.312 2.334,-2.119 5.099,-1.857 7.649,0.459 2.912,2.608 5.498,7.705 6.246,11.502 -0.5,1.502 -3.81,-0.998 -4.959,-0.253 2.033,2.105 2.982,4.533 3.716,7.504 1.878,7.953 1.305,11.045 -0.585,16.188 -6.401,13.458 -14.581,17.474 -21.738,22.459 -0.191,0.068 -0.318,3.415 2.374,5.225 0.928,0.974 4.661,1.474 9.051,0.068 8.482,-4.626 17.288,-13.147 21.659,-22.64 1.269,-7.181 -0.491,-14.795 -2.358,-21.435 -2.813,-6.49 -6.126,-15.756 -6.126,-15.909 -0.109,-4.047 0.22,-5.451 1.995,-7.47 z"
       id="path802"
       sodipodi:nodetypes="ccccccccccccsccccccccccccccccccccccccccccccc" />
    <path
       inkscape:connector-curvature="0"
       style="font-size:12px;fill:#ffffff;fill-opacity:1;fill-rule:evenodd;stroke:none"
       d="m 232.184,131.254 c 4.081,1.946 11.753,1.118 11.429,-5.462 0,-0.582 -0.148,-2.551 -0.206,-3.084 -0.833,-1.94 -3.106,-1.461 -3.621,0.542 -0.162,0.656 0.289,1.724 -0.305,2.054 -0.341,0.344 -1.645,0.142 -1.591,-1.676 0,-0.579 -0.427,-1.202 -0.684,-1.569 -0.258,-0.169 -0.422,-0.216 -0.889,-0.216 -0.569,0.023 -0.56,0.171 -0.872,0.649 -0.132,0.487 -0.315,0.963 -0.315,1.515 -0.071,0.647 -0.315,0.878 -0.791,0.973 -0.532,0 -0.412,0.059 -0.843,-0.216 -0.256,-0.28 -0.576,-0.387 -0.576,-0.865 0,-0.495 -0.112,-1.296 -0.261,-1.623 -0.226,-0.298 -0.589,-0.436 -0.998,-0.541 -2.229,0.008 -2.383,2.55 -2.255,3.515 -0.167,0.182 -0.262,4.742 2.778,6.004 z"
       id="path803"
       sodipodi:nodetypes="ccccccccccccccccc" />
    <path
       inkscape:connector-curvature="0"
       style="font-size:12px;fill:#ffffff;fill-opacity:1;fill-rule:evenodd;stroke:none"
       d="m 351.809,181.888 c 4.081,1.946 13.795,0.826 11.429,-5.462 0,-0.582 -0.148,-2.551 -0.206,-3.084 -0.833,-1.94 -3.106,-1.461 -3.621,0.542 -0.162,0.656 0.289,1.724 -0.305,2.054 -0.341,0.344 -1.645,0.142 -1.591,-1.676 0,-0.579 -0.427,-1.202 -0.684,-1.569 -0.258,-0.169 -0.422,-0.216 -0.889,-0.216 -0.569,0.023 -0.56,0.171 -0.872,0.649 -0.132,0.487 -0.315,0.963 -0.315,1.515 -0.071,0.647 -0.315,0.878 -0.791,0.973 -0.532,0 -0.412,0.059 -0.843,-0.216 -0.256,-0.28 -0.576,-0.387 -0.576,-0.865 0,-0.495 -0.112,-1.296 -0.261,-1.623 -0.226,-0.298 -0.589,-0.436 -0.998,-0.541 -2.229,0.008 -2.383,2.55 -2.255,3.515 -0.167,0.182 -0.262,4.742 2.778,6.004 z"
       id="path804"
       sodipodi:nodetypes="ccccccccccccccccc" />
    <path
       inkscape:connector-curvature="0"
       style="font-size:12px;fill:#ffffff;fill-opacity:1;fill-rule:evenodd;stroke:none"
       d="m 421.565,160.931 c 4.081,1.946 11.753,1.118 11.429,-5.462 0,-0.582 -0.148,-2.551 -0.206,-3.084 -0.833,-1.94 -3.106,-1.461 -3.621,0.542 -0.162,0.656 0.289,1.724 -0.305,2.054 -0.341,0.344 -1.645,0.142 -1.591,-1.676 0,-0.579 -0.427,-1.202 -0.684,-1.569 -0.258,-0.169 -0.422,-0.216 -0.889,-0.216 -0.569,0.023 -0.56,0.171 -0.872,0.649 -0.132,0.487 -0.315,0.963 -0.315,1.515 -0.071,0.647 -0.315,0.878 -0.791,0.973 -0.532,0 -0.412,0.059 -0.843,-0.216 -0.256,-0.28 -0.576,-0.387 -0.576,-0.865 0,-0.495 -0.112,-1.296 -0.261,-1.623 -0.226,-0.298 -0.589,-0.436 -0.998,-0.541 -2.229,0.008 -2.383,2.55 -2.255,3.515 -0.167,0.182 -0.262,4.742 2.778,6.004 z"
       id="path805"
       sodipodi:nodetypes="ccccccccccccccccc" />
    <path
       inkscape:connector-curvature="0"
       style="fill:#ffffff;fill-opacity:1;fill-rule:evenodd;stroke:none"
       d="m 457.694,213.564 c -7.112,8.015 -3.976,21.272 -2.37,24.128 2.345,4.691 4.233,7.7 8.796,10.02 4.156,3.059 7.394,1.147 9.179,-0.995 4.182,-4.334 4.232,-15.399 6.195,-17.592 1.377,-4.028 4.844,-3.34 6.527,-1.555 1.631,2.345 3.552,3.857 5.948,5.133 3.901,3.441 8.559,4.07 13.148,0.934 3.136,-1.759 5.175,-4.032 7.011,-8.544 2.04,-5.456 0.903,-30.663 0.495,-45.603 -0.157,-1.172 -4.054,-20.545 -4.054,-20.761 0,-0.217 -0.515,-9.887 -0.944,-12.191 -0.075,-0.935 -0.307,-1.204 0.673,-1.085 1.039,0.874 1.181,0.929 1.83,1.217 1.049,0.192 1.988,-1.593 1.355,-3.236 -3.245,-5.985 -6.49,-11.971 -9.735,-17.956 -0.781,-0.769 -1.79,-1.614 -3.029,0.217 -1.184,1.038 -2.445,2.917 -2.406,5.332 0.288,4.255 1.036,8.585 1.324,12.84 1.298,7.283 2.597,14.567 3.895,21.85 1.226,15.576 1.533,28.323 2.759,43.899 -0.172,6.595 -2.222,12.345 -4.145,13.175 0,0 -2.926,1.696 -4.888,-0.177 -1.427,-0.573 -7.139,-9.519 -7.139,-9.519 -2.92,-2.677 -4.845,-1.912 -6.923,0 -5.73,5.533 -8.323,15.884 -12.217,23.023 -1.004,1.593 -3.842,2.957 -6.986,-0.116 -7.985,-10.909 -3.305,-26.429 -4.299,-22.438 z"
       id="path806"
       sodipodi:nodetypes="cccccccccccccccccccccccccccc" />
    <path
       inkscape:connector-curvature="0"
       style="fill:#ffffff;fill-opacity:1;fill-rule:evenodd;stroke:none"
       d="m 423.396,122.724 c 3.656,1.53 6.235,8.936 5.394,12.552 -0.728,4.473 -2.667,9.304 -4.061,8.675 -1.515,-0.562 1.033,-4.446 -0.423,-8.522 -0.809,-2.653 -5.798,-7.5 -5.273,-8.929 -1.03,-2.994 2.121,-4.304 4.363,-3.776 z"
       id="path807"
       sodipodi:nodetypes="cccccc" />
    <path
       inkscape:connector-curvature="0"
       style="fill:#ffffff;fill-opacity:1;fill-rule:evenodd;stroke:none"
       d="m 469.465,217.957 c 0.769,-8.893 -0.529,-14.316 -0.76,-19.543 -0.23,-5.227 -5.912,-45.11 -7.064,-49.065 -1.39,-7.478 5.523,-1.003 4.768,-5.352 -2.392,-5.483 -8.344,-13.467 -10.213,-18.23 -1.124,-2.041 -0.652,-3.856 -3.169,-0.537 -2.334,7.631 -3.144,13.868 -2.253,18.607 5.995,31.286 12.143,57.299 11.167,87.081 2.843,0.019 6.12,-6.505 7.524,-12.961 z"
       id="path808"
       sodipodi:nodetypes="csccccccc"
       transform="translate(0,-1.525879e-5)" />
    <path
       inkscape:connector-curvature="0"
       style="fill:#ffffff;fill-opacity:1;fill-rule:evenodd;stroke:none"
       d="m 531.932,135.328 c 3.333,1.657 5.285,10.938 4.917,13.589 -0.663,4.843 -2.431,10.073 -3.702,9.392 -1.381,-0.608 0.277,-7.182 -0.386,-9.226 -0.737,-2.872 -5.285,-8.12 -4.807,-9.667 -0.939,-3.241 1.934,-4.659 3.978,-4.088 z"
       id="path809"
       sodipodi:nodetypes="cccccc" />
    <path
       inkscape:connector-curvature="0"
       style="fill:#ffffff;fill-opacity:1;fill-rule:evenodd;stroke:none"
       d="m 284.221,201.139 c 3.188,1.217 5.057,8.037 4.705,9.986 -0.636,3.558 -2.328,7.401 -3.542,6.901 -1.322,-0.447 0.265,-5.278 -0.37,-6.78 -0.269,-3.643 -4.694,-5.529 -4.601,-7.103 -0.826,-2.893 1.851,-3.425 3.808,-3.004 z"
       id="path810"
       sodipodi:nodetypes="cccccc" />
    <path
       inkscape:connector-curvature="0"
       style="fill:#1b9d00;fill-opacity:1;fill-rule:evenodd;stroke:none"
       d="m 361.25,211.375 c 4.115,0.261 6.171,3.49 2.317,4.844 -3.802,1.302 -7.456,2.319 -7.473,7.813 1.406,7.656 -1.929,5.029 -3.918,3.989 -2.344,-1.683 -8.922,-5.735 -9.859,-14.485 -0.141,-2.088 1.487,-3.845 4.108,-3.833 3.948,1.073 9.773,1.151 14.825,1.672 z"
       id="path811"
       sodipodi:nodetypes="ccccccc" />
    <path
       inkscape:connector-curvature="0"
       style="fill:#ffffff;fill-opacity:1;fill-rule:evenodd;stroke:none"
       d="m 199.006,120.517 c 4.704,1.418 4.982,8.332 4.635,10.353 -0.627,3.689 -2.293,7.673 -3.49,7.154 -1.302,-0.463 -0.051,-5.471 -0.676,-7.029 -0.697,-2.188 -4.672,-6.185 -4.221,-7.363 -0.885,-2.47 1.824,-3.551 3.752,-3.115 z"
       id="path812"
       sodipodi:nodetypes="cccccc" />
    <path
       inkscape:connector-curvature="0"
       style="fill:#ffffff;fill-opacity:1;fill-rule:evenodd;stroke:none"
       d="m 291.903,153.115 c -3.609,1.952 -5.009,7.771 -2.762,11.159 2.099,2.984 5.414,1.878 5.856,1.878 3.536,0.442 5.634,-6.629 5.634,-6.629 0,0 0.111,-1.988 -4.088,1.769 -1.767,0.331 -1.988,-0.332 -2.43,-1.327 -0.368,-1.841 -0.295,-3.682 0.552,-5.524 0.626,-1.767 -0.737,-2.541 -2.762,-1.326 z"
       id="path813"
       sodipodi:nodetypes="cccccccc" />
    <path
       inkscape:connector-curvature="0"
       style="fill:#ffffff;fill-opacity:1;fill-rule:evenodd;stroke:none"
       d="m 318.972,117.845 c -1.814,1.216 -5.424,4.956 -5.534,9.265 -0.11,2.431 -0.563,2.424 1.029,3.971 1.15,1.658 2.31,1.509 4.631,0.293 1.333,-0.982 1.784,-1.634 2.233,-3.281 0.553,-2.762 -2.92,1.31 -3.362,-1.764 -0.773,-2.854 1.457,-4.022 3.556,-6.784 0.07,-1.892 0.029,-3.232 -2.553,-1.7 z"
       id="path814"
       sodipodi:nodetypes="cccccccc" />
    <path
       inkscape:connector-curvature="0"
       style="fill:#ffffff;fill-opacity:1;fill-rule:evenodd;stroke:none"
       d="m 340.782,121.719 c -0.782,1.727 -1.719,10.748 -1.563,10.748 -0.624,2.688 2.813,3.838 4.376,0.383 2.343,-6.334 2.343,-9.021 2.5,-11.708 -0.73,-4.093 -3.49,-3.965 -5.313,0.577 z"
       id="path815"
       sodipodi:nodetypes="ccccc" />
    <path
       inkscape:connector-curvature="0"
       style="fill:#ffffff;fill-opacity:1;fill-rule:evenodd;stroke:none"
       d="m 478.282,191.687 c 0.469,-0.469 19.376,-13.906 19.376,-13.906 1.927,-0.677 1.51,6.927 0.625,6.875 0.364,1.51 -18.646,14.427 -20.001,13.906 -0.937,0.677 -1.875,-5.208 0,-6.875 z"
       id="path816"
       sodipodi:nodetypes="ccccc" />
    <path
       inkscape:connector-curvature="0"
       style="fill:#ffffff;fill-opacity:1;fill-rule:evenodd;stroke:none"
       d="m 495.525,191.578 c 3.333,1.657 4.66,11.407 4.292,14.058 0.118,5.156 -3.212,9.292 -4.483,8.611 -1.381,-0.608 0.121,-6.401 -0.542,-8.445 -0.737,-2.872 -3.567,-8.276 -3.089,-9.823 -0.939,-3.241 1.778,-4.972 3.822,-4.401 z"
       id="path817"
       sodipodi:nodetypes="cccccc" />
    <path
       inkscape:connector-curvature="0"
       style="fill:#ffffff;fill-opacity:1;fill-rule:evenodd;stroke:none"
       d="m 383.061,233.563 c 1.315,-1.922 5.377,-4.688 5.469,-4.688 1.874,-0.938 3.705,0.735 3.594,0.625 0.312,1.875 -1.186,3.62 -0.717,6.121 0.41,1.008 0.71,2.127 2.557,1.7 3.002,-2.362 5.783,-2.514 8.785,-2.665 2.301,0.139 2.392,4.034 0.937,4.063 -5.543,1.205 -8.027,2.689 -11.985,4.2 -1.875,1.093 -3.484,-0.294 -3.484,-0.45 0,-0.156 -1.097,-1.064 -0.331,-3.548 0.136,-1.992 -0.666,-3.084 -2.325,-2.858 -1.25,0.676 -2.351,1.124 -2.976,-0.313 -0.246,-1.061 -0.326,-1.577 0.476,-2.187 z"
       id="path818"
       sodipodi:nodetypes="ccccccccccccc" />
    <path
       inkscape:connector-curvature="0"
       style="fill:#ffffff;fill-opacity:1;fill-rule:evenodd;stroke:none"
       d="m 515.416,238.814 c 0.81,1.031 1.334,1.985 -0.065,3.679 -1.326,1.215 -2.26,1.884 -3.586,3.099 -0.626,1.068 -1.026,2.688 0.889,3.204 3.536,0.994 11.712,-4.309 11.712,-4.42 1.326,-0.994 0.884,-2.872 0.773,-2.872 -0.773,-0.884 -2.515,-0.359 -3.687,-0.502 -0.558,0 -2.388,-0.277 -1.517,-1.897 0.727,-1.008 0.987,-1.625 1.48,-2.867 0.552,-1.215 0.078,-2.026 -1.911,-2.689 -2.026,-0.368 -2.835,-0.184 -5.082,0 -1.215,0.258 -1.63,0.801 -1.851,2.274 0.087,2.234 1.446,2.107 2.845,2.991 z"
       id="path819"
       sodipodi:nodetypes="ccccccccccccc" />
    <path
       sodipodi:type="arc"
       style="fill:#259f00;fill-opacity:1;fill-rule:evenodd;stroke:none"
       id="path820"
       d="m 384.6891,181.37419 c 0,1.7259 -1.53903,3.12502 -3.43751,3.12502 -1.89849,0 -3.43752,-1.39912 -3.43752,-3.12502 0,-1.7259 1.53903,-3.12501 3.43752,-3.12501 1.89848,0 3.43751,1.39911 3.43751,3.12501 z"
       sodipodi:cx="381.25159"
       sodipodi:cy="181.37419"
       sodipodi:rx="3.437515"
       sodipodi:ry="3.125015"
       transform="matrix(0.865631,0.500682,-0.30041,0.519379,105.273,-102.9752)" />
    <path
       sodipodi:type="arc"
       style="fill:#259f00;fill-opacity:1;fill-rule:evenodd;stroke:none"
       id="path821"
       d="m 384.6891,181.37419 c 0,1.7259 -1.53903,3.12502 -3.43751,3.12502 -1.89849,0 -3.43752,-1.39912 -3.43752,-3.12502 0,-1.7259 1.53903,-3.12501 3.43752,-3.12501 1.89848,0 3.43751,1.39911 3.43751,3.12501 z"
       sodipodi:cx="381.25159"
       sodipodi:cy="181.37419"
       sodipodi:rx="3.437515"
       sodipodi:ry="3.125015"
       transform="matrix(0.316782,0.695571,-0.5691,0.139385,278.8449,-160.9473)" />
    <path
       inkscape:connector-curvature="0"
       style="fill:#209000;fill-opacity:1;fill-rule:evenodd;stroke:none"
       d="m 468.202,363.299 c 9.06,0.442 17.572,0.103 26.632,0.545 1.641,1.395 0.469,4.821 -0.625,4.575 -2.946,-0.074 -4.643,-0.147 -7.589,-0.221 -0.101,-2.886 -7.466,-2.412 -7.254,0.092 -3.977,0.478 -7.564,-0.139 -11.541,-0.286 -1.176,-1.464 -1.025,-4.1 0.377,-4.705 z"
       id="path822"
       sodipodi:nodetypes="ccccccc" />
  </g>
</svg>
