<?xml version="1.0" encoding="UTF-8" standalone="no"?>
<!-- Created with Sodipodi ("http://www.sodipodi.com/") -->

<svg
   xmlns:dc="http://purl.org/dc/elements/1.1/"
   xmlns:cc="http://creativecommons.org/ns#"
   xmlns:rdf="http://www.w3.org/1999/02/22-rdf-syntax-ns#"
   xmlns:svg="http://www.w3.org/2000/svg"
   xmlns="http://www.w3.org/2000/svg"
   xmlns:sodipodi="http://sodipodi.sourceforge.net/DTD/sodipodi-0.dtd"
   xmlns:inkscape="http://www.inkscape.org/namespaces/inkscape"
   id="svg548"
   sodipodi:version="0.33pre"
   width="512"
   height="512"
   sodipodi:docname="sb.svg"
   version="1.1"
   inkscape:version="0.48.1 r9760">
  <sodipodi:namedview
     id="base"
     showgrid="true"
     snaptogrid="true"
     inkscape:zoom="0.33060318"
     inkscape:cx="496.06299"
     inkscape:cy="248.03149"
     inkscape:window-width="1280"
     inkscape:window-height="723"
     inkscape:window-x="0"
     inkscape:window-y="24"
     inkscape:window-maximized="1"
     inkscape:current-layer="svg548" />
  <metadata
     id="metadata3032">
    <rdf:RDF>
      <cc:Work
         rdf:about="">
        <dc:format>image/svg+xml</dc:format>
        <dc:type
           rdf:resource="http://purl.org/dc/dcmitype/StillImage" />
      </cc:Work>
    </rdf:RDF>
  </metadata>
  <defs
     id="defs550">
    <sodipodi:namedview
       id="namedview1340" />
    <defs
       id="defs380" />
    <clipPath
       clipPathUnits="userSpaceOnUse"
       id="clipPath5251">
      <rect
         id="rect5253"
         height="496.06335"
         x="0"
         style="fill:#000000;fill-opacity:0.67000002;stroke:none"
         width="496.06335"
         y="-5.5504192e-05" />
    </clipPath>
  </defs>
  <g
     transform="matrix(1.0321262,0,0,1.0321262,0,5.7287332e-5)"
     id="flag"
     clip-path="url(#clipPath5251)"
     inkscape:label="#g5210">
    <path
       inkscape:connector-curvature="0"
       style="font-size:12px;fill:#0000d6;fill-opacity:1;fill-rule:evenodd;stroke-width:1pt"
       d="M 6.34766e-5,491.386 956.693,1.42659e-4 l -956.6929365234,0 0,491.385857341 z"
       id="path1338"
       sodipodi:nodetypes="cccc" />
    <path
       inkscape:connector-curvature="0"
       style="font-size:12px;fill:#006000;fill-opacity:1;fill-rule:evenodd;stroke-width:1pt"
       d="M 992.126,-5.34058e-5 26.3264,496.063 l 965.7996,0 0,-496.0630534058 z"
       id="path552"
       sodipodi:nodetypes="cccc" />
    <path
       inkscape:connector-curvature="0"
       style="font-size:12px;fill:#ffcc00;fill-rule:evenodd;stroke-width:1pt"
       d="M 119.055,0 112.677,0 0,56.4298 l 0,3.0978 6.37795,0 L 119.055,3.20849 119.055,0 z"
       id="path558"
       sodipodi:nodetypes="ccccccc"
       transform="scale(8.333333,8.333333)" />
    <polygon
       points="476.501,433.151 498.449,365.806 441.115,324.214 511.946,324.278 533.785,256.897 555.613,324.281 626.445,324.23 569.104,365.812 591.041,433.161 591.041,433.161 533.774,391.476 "
       style="font-size:12px;fill:#ffffff;fill-opacity:1;fill-rule:evenodd;stroke-width:1pt"
       id="polygon1350"
       transform="matrix(0.526233,0,0,0.495239,-211.7178,-118.3879)" />
    <polygon
       points="476.501,433.151 498.449,365.806 441.115,324.214 511.946,324.278 533.785,256.897 555.613,324.281 626.445,324.23 569.104,365.812 591.041,433.161 591.041,433.161 533.774,391.476 "
       style="font-size:12px;fill:#ffffff;fill-opacity:1;fill-rule:evenodd;stroke-width:1pt"
       id="polygon1351"
       transform="matrix(0.526233,0,0,0.495239,-26.52567,-118.3879)" />
    <polygon
       points="476.501,433.151 498.449,365.806 441.115,324.214 511.946,324.278 533.785,256.897 555.613,324.281 626.445,324.23 569.104,365.812 591.041,433.161 591.041,433.161 533.774,391.476 "
       style="font-size:12px;fill:#ffffff;fill-opacity:1;fill-rule:evenodd;stroke-width:1pt"
       id="polygon1352"
       transform="matrix(0.526233,0,0,0.495239,-26.52568,21.59556)" />
    <polygon
       points="476.501,433.151 498.449,365.806 441.115,324.214 511.946,324.278 533.785,256.897 555.613,324.281 626.445,324.23 569.104,365.812 591.041,433.161 591.041,433.161 533.774,391.476 "
       style="font-size:12px;fill:#ffffff;fill-opacity:1;fill-rule:evenodd;stroke-width:1pt"
       id="polygon1353"
       transform="matrix(0.526233,0,0,0.495239,-118.5771,-47.57909)" />
    <polygon
       points="476.501,433.151 498.449,365.806 441.115,324.214 511.946,324.278 533.785,256.897 555.613,324.281 626.445,324.23 569.104,365.812 591.041,433.161 591.041,433.161 533.774,391.476 "
       style="font-size:12px;fill:#ffffff;fill-opacity:1;fill-rule:evenodd;stroke-width:1pt"
       id="polygon1354"
       transform="matrix(0.526233,0,0,0.495239,-211.7178,21.59556)" />
  </g>
</svg>
