<?xml version="1.0" encoding="UTF-8" standalone="no"?>
<!-- Created with Sodipodi ("http://www.sodipodi.com/") -->

<svg
   xmlns:dc="http://purl.org/dc/elements/1.1/"
   xmlns:cc="http://creativecommons.org/ns#"
   xmlns:rdf="http://www.w3.org/1999/02/22-rdf-syntax-ns#"
   xmlns:svg="http://www.w3.org/2000/svg"
   xmlns="http://www.w3.org/2000/svg"
   xmlns:sodipodi="http://sodipodi.sourceforge.net/DTD/sodipodi-0.dtd"
   xmlns:inkscape="http://www.inkscape.org/namespaces/inkscape"
   id="svg552"
   sodipodi:version="0.32"
   width="512"
   height="512"
   sodipodi:docname="si.svg"
   version="1.1"
   inkscape:version="0.48.1 r9760">
  <sodipodi:namedview
     id="base"
     showgrid="false"
     inkscape:zoom="0.33060318"
     inkscape:cx="496.06299"
     inkscape:cy="248.03149"
     inkscape:window-width="1280"
     inkscape:window-height="723"
     inkscape:window-x="0"
     inkscape:window-y="24"
     inkscape:window-maximized="1"
     inkscape:current-layer="svg552" />
  <metadata
     id="metadata3095">
    <rdf:RDF>
      <cc:Work
         rdf:about="">
        <dc:format>image/svg+xml</dc:format>
        <dc:type
           rdf:resource="http://purl.org/dc/dcmitype/StillImage" />
      </cc:Work>
    </rdf:RDF>
  </metadata>
  <defs
     id="defs554">
    <clipPath
       clipPathUnits="userSpaceOnUse"
       id="clipPath5006">
      <rect
         id="rect5008"
         height="497.33014"
         x="60.223572"
         style="fill:#000000;fill-opacity:0.67000002;stroke:none"
         width="497.33014"
         y="1.6667118e-05" />
    </clipPath>
  </defs>
  <g
     transform="matrix(1.0294972,0,0,1.0294972,-62,-1.7158752e-5)"
     id="flag"
     clip-path="url(#clipPath5006)"
     inkscape:label="#g4960">
    <rect
       style="font-size:12px;fill:#ffffff;fill-opacity:1;fill-rule:evenodd;stroke-width:1pt"
       id="rect555"
       width="994.6604"
       height="497.33017"
       x="0"
       y="0" />
    <rect
       style="font-size:12px;fill:#de2918;fill-opacity:1;fill-rule:evenodd;stroke-width:1pt"
       id="rect556"
       x="0"
       height="165.77672"
       width="994.6604"
       y="331.55344" />
    <rect
       style="font-size:12px;fill:#08399c;fill-opacity:1;fill-rule:evenodd;stroke-width:1pt"
       id="rect563"
       x="0"
       height="165.77672"
       width="994.6604"
       y="165.77672" />
    <path
       inkscape:connector-curvature="0"
       style="font-size:12px;fill:#de2918;fill-rule:evenodd;stroke-width:1pt"
       d="m 311.663,103.348 c -3.351,59.885 -5.271,92.702 -13.098,107.885 -8.463,16.308 -16.696,28.248 -49.717,42.625 -33.022,-14.377 -41.255,-26.317 -49.718,-42.625 -7.827,-15.183 -9.747,-48 -13.098,-107.885 l 4.88,-1.915 c 9.824,-3.4903 17.154,-6.2979 22.576,-7.544 7.765,-1.9145 14.364,-4.0792 35.232,-4.5872 20.868,0.4182 27.5,2.7175 35.265,4.6321 5.377,1.3358 13.021,3.9639 22.772,7.5221 l 4.906,1.892 z"
       id="path694"
       sodipodi:nodetypes="ccccccccccc"
       transform="matrix(1.165015,0,0,1,-81.04471,-13.03642)" />
    <path
       inkscape:connector-curvature="0"
       style="font-size:12px;fill:#08399c;fill-rule:evenodd;stroke-width:1pt"
       d="m 306.853,101.427 c -3.17,59.739 -5.822,87.096 -9.958,100.249 -8.026,22.522 -20.732,34.87 -48.079,46.648 -27.346,-11.778 -40.052,-24.126 -48.078,-46.648 -4.136,-13.153 -6.749,-40.432 -9.828,-100.309 9.617,-3.4982 17.156,-6.2319 22.578,-7.478 7.765,-1.9145 14.364,-4.169 35.232,-4.5872 20.868,0.4182 27.545,2.6727 35.31,4.5872 5.422,1.2461 13.117,3.9798 22.823,7.538 z"
       id="path675"
       sodipodi:nodetypes="ccccccccc"
       transform="matrix(1.165015,0,0,1.000282,-81.04471,-13.10655)" />
    <path
       inkscape:connector-curvature="0"
       transform="matrix(1.347046,0,0,1.110715,-107.3459,0.92219)"
       style="font-size:12px;fill:#ffcc00;fill-rule:evenodd;stroke-width:1pt"
       d="m 234.698,95.1828 1.134,3.2555 4.983,0.8285 -3.229,2.3612 3.122,2.531 -4.541,0.923 -1.382,2.95 -1.554,-3.038 -4.323,-0.744 2.942,-2.586 -3.029,-2.3535 4.785,-0.8896 1.092,-3.2381 z"
       id="path651"
       sodipodi:nodetypes="ccccccccccccc" />
    <path
       inkscape:connector-curvature="0"
       style="font-size:12px;fill:#ffffff;fill-rule:evenodd;stroke-width:1pt"
       d="m 294.918,187.514 -3.194,-2.941 -2.308,-4.424 -4.521,-4.569 -2.356,-4.617 -4.521,-4.713 -2.212,-4.616 -2.404,-2.261 -1.587,-1.779 -4.084,4.172 -2.226,4.531 -2.774,2.93 -3.047,-2.773 -2.304,-4.727 -8.553,-17.695 -8.554,17.695 -2.304,4.727 -3.047,2.773 -2.774,-2.93 -2.226,-4.531 -4.084,-4.172 -1.587,1.779 -2.404,2.261 -2.212,4.616 -4.521,4.713 -2.356,4.617 -4.521,4.569 -2.308,4.424 -3.186,3.01 c 1.654,16.402 10.629,29.253 15.519,35.132 5.457,6.173 16.708,14.432 30.466,19.899 13.797,-5.35 25.204,-13.726 30.661,-19.899 4.89,-5.879 13.865,-18.73 15.529,-35.201 z"
       id="path627"
       sodipodi:nodetypes="ccccccccccccccccccccccccccccccccc"
       transform="matrix(1.165015,0,0,1,-81.04471,-13.03642)" />
    <path
       inkscape:connector-curvature="0"
       transform="matrix(1.347046,0,0,1.110715,-91.32693,-24.2341)"
       style="font-size:12px;fill:#ffcc00;fill-rule:evenodd;stroke-width:1pt"
       d="m 234.698,95.1828 1.134,3.2555 4.983,0.8285 -3.229,2.3612 3.122,2.531 -4.541,0.923 -1.382,2.95 -1.554,-3.038 -4.323,-0.744 2.942,-2.586 -3.029,-2.3535 4.785,-0.8896 1.092,-3.2381 z"
       id="path654"
       sodipodi:nodetypes="ccccccccccccc" />
    <path
       inkscape:connector-curvature="0"
       transform="matrix(1.347046,0,0,1.110715,-123.3649,-24.28933)"
       style="font-size:12px;fill:#ffcc00;fill-rule:evenodd;stroke-width:1pt"
       d="m 234.698,95.1828 1.134,3.2555 4.983,0.8285 -3.229,2.3612 3.122,2.531 -4.541,0.923 -1.382,2.95 -1.554,-3.038 -4.323,-0.744 2.942,-2.586 -3.029,-2.3535 4.785,-0.8896 1.092,-3.2381 z"
       id="path655"
       sodipodi:nodetypes="ccccccccccccc" />
    <path
       inkscape:connector-curvature="0"
       style="font-size:12px;fill:#08399c;fill-opacity:1;fill-rule:evenodd;stroke-width:1pt"
       d="m 287.777,210.249 -6.227,0.022 -5.746,-0.498 -6.96,-3.977 -7.845,0.055 -6.794,3.867 -5.359,0.552 -5.359,-0.552 -6.794,-3.867 -7.845,-0.055 -6.96,3.977 -5.746,0.498 -6.305,-0.101 -3.045,-6.009 0.113,-0.138 9.315,1.795 5.746,-0.498 6.96,-3.977 7.845,0.055 6.794,3.867 5.359,0.552 5.359,-0.552 6.794,-3.867 7.845,-0.055 6.96,3.977 5.746,0.498 9.066,-1.852 0.12,0.278 -3.037,6.005 z"
       id="path664"
       sodipodi:nodetypes="cccccccccccccccccccccccccc"
       transform="matrix(1.165015,0,0,1,-81.04471,-13.03642)" />
    <path
       inkscape:connector-curvature="0"
       style="font-size:12px;fill:#08399c;fill-opacity:1;fill-rule:evenodd;stroke-width:1pt"
       d="m 215.724,210.271 6.164,-0.498 6.96,-3.977 7.845,0.055 6.794,3.867 5.359,0.552 5.359,-0.552 6.794,-3.867 7.845,-0.055 6.96,3.977 6.248,0.498 4.031,-5.789 -0.136,-0.131 -4.319,1.467 -5.746,-0.498 -6.96,-3.977 -7.845,0.055 -6.794,3.867 -5.359,0.552 -5.359,-0.552 -6.794,-3.867 -7.845,-0.055 -6.96,3.977 -5.746,0.498 -4.233,-1.243 -0.051,0.242 3.788,5.454 z"
       id="path665"
       transform="matrix(1.165015,0,0,1,-81.09022,-3.81768)"
       sodipodi:nodetypes="cccccccccccccccccccccccc" />
  </g>
</svg>
