<?xml version="1.0" encoding="UTF-8" standalone="no"?>
<!-- Created with Inkscape (http://www.inkscape.org/) -->

<svg
   xmlns:dc="http://purl.org/dc/elements/1.1/"
   xmlns:cc="http://creativecommons.org/ns#"
   xmlns:rdf="http://www.w3.org/1999/02/22-rdf-syntax-ns#"
   xmlns:svg="http://www.w3.org/2000/svg"
   xmlns="http://www.w3.org/2000/svg"
   xmlns:sodipodi="http://sodipodi.sourceforge.net/DTD/sodipodi-0.dtd"
   xmlns:inkscape="http://www.inkscape.org/namespaces/inkscape"
   version="1.0"
   width="512"
   height="512"
   id="svg2"
   inkscape:version="0.48.1 r9760"
   sodipodi:docname="sx.svg">
  <sodipodi:namedview
     pagecolor="#ffffff"
     bordercolor="#666666"
     borderopacity="1"
     objecttolerance="10"
     gridtolerance="10"
     guidetolerance="10"
     inkscape:pageopacity="0"
     inkscape:pageshadow="2"
     inkscape:window-width="1280"
     inkscape:window-height="723"
     id="namedview93"
     showgrid="false"
     inkscape:zoom="0.87630662"
     inkscape:cx="384.00001"
     inkscape:cy="287"
     inkscape:window-x="0"
     inkscape:window-y="24"
     inkscape:window-maximized="1"
     inkscape:current-layer="svg2" />
  <metadata
     id="metadata95">
    <rdf:RDF>
      <cc:Work
         rdf:about="">
        <dc:format>image/svg+xml</dc:format>
        <dc:type
           rdf:resource="http://purl.org/dc/dcmitype/StillImage" />
      </cc:Work>
    </rdf:RDF>
  </metadata>
  <defs
     id="defs4">
    <clipPath
       clipPathUnits="userSpaceOnUse"
       id="clipPath3695">
      <rect
         id="rect3697"
         height="450"
         x="0"
         style="fill:#000000;fill-opacity:0.67000002;stroke:none"
         width="450"
         y="8.7890621e-06" />
    </clipPath>
  </defs>
  <g
     transform="matrix(1.1377778,0,0,1.1377778,0,-10e-6)"
     id="flag"
     clip-path="url(#clipPath3695)"
     inkscape:label="#g3424">
    <path
       inkscape:connector-curvature="0"
       id="path2160"
       style="fill:#ed2939;fill-opacity:1;fill-rule:evenodd;stroke:none"
       d="m 0,0 675,0 0,225 -375,0 L 0,0 z" />
    <path
       inkscape:connector-curvature="0"
       id="path3134"
       style="fill:#002395;fill-opacity:1;fill-rule:evenodd;stroke:none"
       d="m 0,450 675,0 0,-225 -375,0 L 0,450 z" />
    <path
       inkscape:connector-curvature="0"
       id="path3136"
       style="fill:#ffffff;fill-opacity:1;fill-rule:evenodd;stroke:none"
       d="M 0,0 300,225 0,450 0,0 z" />
    <g
       transform="matrix(1.0075359,0,0,1.0073522,-228.57798,-679.49839)"
       id="g2425">
      <path
         d="m 377.17462,843.10761 0.0913,-3.45822 c 0,0 -1.85664,-2.95784 0.29828,-6.13605 0,0 -4.57768,-2.42215 -3.5124,-6.21518 0,0 -4.13939,-1.05859 -3.83503,-5.61254 0,0 -4.46811,-0.30984 -4.93075,-4.11443 0,0 -4.46811,0.73596 -6.43433,-2.97124 0,0 -4.35854,0.85223 -5.58818,-2.20362 0,0 -4.2368,1.46766 -6.75087,-2.12448 0,0 -4.4742,1.80794 -6.3491,-1.58271 -1.85056,3.37908 -6.32476,1.58271 -6.32476,1.58271 -2.48364,3.57936 -6.75087,2.09404 -6.75087,2.09404 -1.18703,3.06803 -5.5334,2.19754 -5.5334,2.19754 -1.96012,3.7078 -6.42214,2.97062 -6.42214,2.97062 -0.43829,3.79303 -4.90032,4.10288 -4.90032,4.10288 0.35307,4.56551 -3.78024,5.60096 -3.78024,5.60096 1.08963,3.79242 -3.48197,6.20849 -3.48197,6.20849 2.20971,3.19647 0.37133,6.13057 0.37133,6.13057 l -0.10348,3.18916 73.9491,0.3415"
         style="fill:#ffff00;stroke:none"
         id="path182"
         inkscape:connector-curvature="0" />
      <path
         d="m 377.17462,843.10761 0.0913,-3.45822 c 0,0 -1.85664,-2.95784 0.29828,-6.13605 0,0 -4.57768,-2.42215 -3.5124,-6.21518 0,0 -4.13939,-1.05859 -3.83503,-5.61254 0,0 -4.46811,-0.30984 -4.93075,-4.11443 0,0 -4.46811,0.73596 -6.43433,-2.97124 0,0 -4.35854,0.85223 -5.58818,-2.20362 0,0 -4.2368,1.46766 -6.75087,-2.12448 0,0 -4.4742,1.80794 -6.3491,-1.58271 -1.85056,3.37908 -6.32476,1.58271 -6.32476,1.58271 -2.48364,3.57936 -6.75087,2.09404 -6.75087,2.09404 -1.18703,3.06803 -5.5334,2.19754 -5.5334,2.19754 -1.96012,3.7078 -6.42214,2.97062 -6.42214,2.97062 -0.43829,3.79303 -4.90032,4.10288 -4.90032,4.10288 0.35307,4.56551 -3.78024,5.60096 -3.78024,5.60096 1.08963,3.79242 -3.48197,6.20849 -3.48197,6.20849 2.20971,3.19647 0.37133,6.13057 0.37133,6.13057 l -0.10348,3.18916 73.9491,0.3415 -0.0122,0 z"
         style="fill:none;stroke:#000000;stroke-width:0.27124387"
         id="path184"
         inkscape:connector-curvature="0" />
      <path
         d="m 375.44582,838.79107 c -11.61466,-1.16268 -24.98857,-3.92025 -35.31271,1.89378 -6.92132,-4.07914 -16.55759,-3.82955 -24.76333,-3.0315 -4.45594,0.79744 -9.69714,0.79744 -14.35396,1.55836 l -0.73049,0.10287 c -8.44924,0.56065 -16.11321,-1.93577 -23.45455,-5.21685 2.33146,13.23389 4.91858,26.79711 6.19083,40.65192 2.76975,20.51984 -9.70932,37.74764 -4.58986,58.01851 3.05585,9.72697 13.75132,15.38212 23.53978,16.5028 9.478,0.55943 19.28471,2.11231 28.05658,4.01704 1.66794,0.34698 3.64632,1.12068 4.79683,1.61923 2.41668,1.0105 4.1881,2.49643 5.74037,4.08522 5.29599,-5.51574 13.05736,-7.04975 20.71525,-7.85937 13.80001,-1.61315 30.81415,-0.73596 39.26339,-13.23937 l 0,-0.70675 c 4.58986,-6.91522 3.98113,-17.46399 1.99056,-25.29901 -0.13392,-2.73322 -0.8644,-5.14381 -1.26008,-7.74859 -8.43097,-22.26813 -1.21138,-47.31148 2.41668,-69.75553 -4.43159,2.42277 -9.37452,3.56719 -14.30527,4.77918 -3.93242,0.52351 -8.31532,0.2861 -12.29644,0.0724 l -1.64967,-0.44438"
         style="fill:#ff0000;stroke:none"
         id="path186"
         inkscape:connector-curvature="0" />
      <path
         d="m 392.79476,902.69666 c -0.0548,1.46644 0.73657,2.61756 1.02267,3.97443 1.61315,9.73367 3.17151,22.62728 -6.84827,28.66593 -11.08506,7.04854 -25.62164,4.02982 -38.44769,7.76076 -2.56277,0.71222 -6.09343,3.06863 -7.89529,4.73596 -1.15659,-0.76092 -2.31928,-1.92969 -3.81068,-2.61695 -10.55546,-5.61254 -24.27633,-3.73216 -36.18927,-6.76366 -5.98387,-1.89255 -12.2234,-6.55546 -13.73915,-12.67994 -3.8959,-16.06999 5.436,-29.76653 4.33419,-45.70929 -0.71222,-12.1747 -2.75757,-23.8624 -5.56992,-35.27618 9.31364,4.33967 20.09434,5.06406 30.56457,2.9828 7.75528,-1.08416 16.78282,-1.1079 24.05111,2.17318 4.00548,-1.72333 8.69273,-2.49642 13.00866,-2.97123 8.20575,0.79805 17.02632,2.28275 25.47556,2.22249 5.64297,-0.2928 10.76851,-1.92421 15.67492,-4.0974 -2.90976,18.8647 -8.49794,38.62484 -1.6375,57.5991"
         style="fill:#80cfe1;stroke:none"
         id="path188"
         inkscape:connector-curvature="0" />
      <path
         d="m 376.04238,906.45803 -0.0913,-17.73853 2.18535,0 -27.11305,-17.5133 -0.0487,-9.10059 2.61756,0 -13.55653,-9.70871 -13.48956,9.70324 2.61147,0 0.0487,9.09389 -26.96695,17.48955 2.15492,0.0116 0.0913,17.72697 71.55069,0.0487"
         style="fill:#ffffff;stroke:none"
         id="path190"
         inkscape:connector-curvature="0" />
      <path
         d="m 376.04238,906.45803 -0.0913,-17.73853 2.18535,0 -27.11305,-17.5133 -0.0487,-9.10059 2.61756,0 -13.55653,-9.70871 -13.48956,9.70324 2.61147,0 0.0487,9.09389 -26.96695,17.48955 2.15492,0.0116 0.0913,17.72697 71.55069,0.0487 0.006,-0.0128 z"
         style="fill:none;stroke:#000000;stroke-width:1.16422367;stroke-miterlimit:4;stroke-dasharray:none"
         id="path192"
         inkscape:connector-curvature="0" />
      <path
         d="m 384.37595,929.76101 0.006,5.55105 -87.34735,-0.0974 -0.0365,-5.52731 87.38387,0.0737"
         style="fill:#ffffff;stroke:none"
         id="path198"
         inkscape:connector-curvature="0" />
      <path
         d="m 384.37595,929.76101 0.006,5.55105 -87.34735,-0.0974 -0.0365,-5.52731 87.38387,0.0737 -0.006,0 z"
         style="fill:none;stroke:#000000;stroke-width:1.16422367;stroke-miterlimit:4;stroke-dasharray:none"
         id="path200"
         inkscape:connector-curvature="0" />
      <path
         d="m 302.83593,929.4262 -0.0731,-18.78555 3.53653,-0.007 -0.19457,19.00474 0.21297,-18.85195 -5.09502,-0.14605 0,-4.03043 78.06414,0.0858 0.0365,3.9933 -4.8151,0 0.0913,19.02296 -0.17044,-19.02296 3.58545,0 0.0791,18.80929"
         style="fill:#ffffff;stroke:none"
         id="path202"
         inkscape:connector-curvature="0" />
      <path
         d="m 302.83593,929.4262 -0.0731,-18.78555 3.53653,-0.007 -0.19457,19.00474 0.21297,-18.85195 -5.09502,-0.14605 0,-4.03043 78.06414,0.0858 0.0365,3.9933 -4.8151,0 0.0913,19.02296 -0.17044,-19.02296 3.58545,0 0.0791,18.80929"
         style="fill:none;stroke:#000000;stroke-width:1.16422367;stroke-miterlimit:4;stroke-dasharray:none"
         id="path204"
         inkscape:connector-curvature="0" />
      <path
         d="m 319.61875,924.79982 -0.0548,-13.09997 -10.48241,0 0.0609,13.08719 10.47632,0.0128"
         style="fill:none;stroke:#000000;stroke-width:1.16422367;stroke-miterlimit:4;stroke-dasharray:none"
         id="path206"
         inkscape:connector-curvature="0" />
      <path
         d="m 311.93652,914.43246 0.0304,7.60918 4.79683,0 -0.0243,-7.60918 -4.80292,0"
         style="fill:none;stroke:#000000;stroke-width:1.16422367;stroke-miterlimit:4;stroke-dasharray:none"
         id="path208"
         inkscape:connector-curvature="0" />
      <path
         d="m 370.86204,924.83574 -0.0609,-13.08719 -10.44589,-0.0122 0.0487,13.09937 10.45806,0"
         style="fill:none;stroke:#000000;stroke-width:1.16422367;stroke-miterlimit:4;stroke-dasharray:none"
         id="path210"
         inkscape:connector-curvature="0" />
      <path
         d="m 363.17981,914.48116 0.0548,7.58483 4.79074,0 -0.0426,-7.58483 -4.80292,0"
         style="fill:none;stroke:#000000;stroke-width:1.16422367;stroke-miterlimit:4;stroke-dasharray:none"
         id="path212"
         inkscape:connector-curvature="0" />
      <path
         d="m 370.78291,903.50628 -0.0609,-13.10058 -10.45806,0 0.0365,13.10058 10.4885,0 -0.006,0 z"
         style="fill:none;stroke:#000000;stroke-width:1.16422367;stroke-miterlimit:4;stroke-dasharray:none"
         id="path214"
         inkscape:connector-curvature="0" />
      <path
         d="m 363.10067,893.16326 0.0304,7.59701 4.79074,0 -0.006,-7.59701 -4.8151,0"
         style="fill:none;stroke:#000000;stroke-width:1.16422367;stroke-miterlimit:4;stroke-dasharray:none"
         id="path216"
         inkscape:connector-curvature="0" />
      <path
         d="m 319.53353,903.45758 -0.073,-13.07563 -10.46415,-0.0128 0.0487,13.08171 10.4885,0 0,0.007 z"
         style="fill:none;stroke:#000000;stroke-width:1.16422367;stroke-miterlimit:4;stroke-dasharray:none"
         id="path218"
         inkscape:connector-curvature="0" />
      <path
         d="m 311.8513,893.11457 0.0243,7.58544 4.80292,0.0116 -0.0365,-7.59701 -4.79074,0"
         style="fill:none;stroke:#000000;stroke-width:1.16422367;stroke-miterlimit:4;stroke-dasharray:none"
         id="path220"
         inkscape:connector-curvature="0" />
      <path
         d="m 338.5017,903.48132 -0.0487,-13.07562 -10.47024,-0.0116 0.0426,13.08719 10.47633,0"
         style="fill:none;stroke:#000000;stroke-width:1.16422367;stroke-miterlimit:4;stroke-dasharray:none"
         id="path222"
         inkscape:connector-curvature="0" />
      <path
         d="m 330.82555,893.12674 0.0243,7.58484 4.79683,0.0244 -0.0304,-7.60919 -4.79075,0"
         style="fill:none;stroke:#000000;stroke-width:1.16422367;stroke-miterlimit:4;stroke-dasharray:none"
         id="path224"
         inkscape:connector-curvature="0" />
      <path
         d="m 353.12351,903.50628 -0.0731,-13.10058 -10.46415,-0.0116 0.0487,13.08719 10.4885,0.025"
         style="fill:none;stroke:#000000;stroke-width:1.16422367;stroke-miterlimit:4;stroke-dasharray:none"
         id="path226"
         inkscape:connector-curvature="0" />
      <path
         d="m 345.43519,893.13952 0.0365,7.60919 4.79683,0 -0.0243,-7.60919 -4.809,0"
         style="fill:none;stroke:#000000;stroke-width:1.16422367;stroke-miterlimit:4;stroke-dasharray:none"
         id="path228"
         inkscape:connector-curvature="0" />
      <path
         d="m 355.71672,899.48802 0.11566,30.19933 -30.33326,-0.0487 -0.10957,-30.17437 30.32108,0.0237"
         style="fill:#ffffff;stroke:none"
         id="path230"
         inkscape:connector-curvature="0" />
      <path
         d="m 355.71672,899.48802 0.11566,30.19933 -30.33326,-0.0487 -0.10957,-30.17437 30.32108,0.0237 0.006,0 z"
         style="fill:none;stroke:#000000;stroke-width:1.16422367;stroke-miterlimit:4;stroke-dasharray:none"
         id="path232"
         inkscape:connector-curvature="0" />
      <path
         d="m 325.20693,908.1077 30.54023,0.0244"
         style="fill:none;stroke:#000000;stroke-width:1.16422367;stroke-miterlimit:4;stroke-dasharray:none"
         id="path234"
         inkscape:connector-curvature="0" />
      <path
         d="m 329.01761,929.67518 -0.10348,-21.34224"
         style="fill:none;stroke:#000000;stroke-width:1.16422367;stroke-miterlimit:4;stroke-dasharray:none"
         id="path236"
         inkscape:connector-curvature="0" />
      <path
         d="m 352.14345,929.68735 -0.10349,-21.32946"
         style="fill:none;stroke:#000000;stroke-width:1.16422367;stroke-miterlimit:4;stroke-dasharray:none"
         id="path238"
         inkscape:connector-curvature="0" />
      <path
         d="m 366.78961,886.62606 -17.0811,-12.47358 -19.19341,-0.0243 -16.94717,12.44923 53.22168,0.0487"
         style="fill:none;stroke:#000000;stroke-width:1.16422367;stroke-miterlimit:4;stroke-dasharray:none"
         id="path240"
         inkscape:connector-curvature="0" />
      <path
         d="m 331.99433,863.79851 0.0304,7.60918 16.14365,0.0122 -0.0304,-7.60919 -16.14364,-0.0122"
         style="fill:none;stroke:#000000;stroke-width:1.16422367;stroke-miterlimit:4;stroke-opacity:1;stroke-dasharray:none"
         id="path242"
         inkscape:connector-curvature="0" />
      <path
         d="m 336.37113,865.68558 0.0244,3.79181 7.41439,0 -0.0243,-3.79181 -7.41439,0"
         style="fill:none;stroke:#000000;stroke-width:1.16422367;stroke-miterlimit:4;stroke-dasharray:none"
         id="path244"
         inkscape:connector-curvature="0" />
      <path
         d="m 340.03571,855.1423 8.97884,6.34849 -17.89072,-0.0237 8.91188,-6.32475"
         style="fill:none;stroke:#000000;stroke-width:1.16422367;stroke-miterlimit:4;stroke-dasharray:none"
         id="path246"
         inkscape:connector-curvature="0" />
      <path
         d="m 376.34066,850.83793 c 2.55059,-0.0609 3.20803,10.50677 3.21412,15.74189 2.19144,0.61482 7.04914,3.67128 9.19798,6.43432 l -24.64159,-0.0365 c 2.1184,-2.72652 6.93958,-5.79516 9.11276,-6.40937 0,-5.24182 0.53569,-15.80276 3.11673,-15.74188"
         style="fill:#ffffff;stroke:none"
         id="path248"
         inkscape:connector-curvature="0" />
      <path
         d="m 376.34066,850.83793 c 2.55059,-0.0609 3.20803,10.50677 3.21412,15.74189 2.19144,0.61482 7.04914,3.67128 9.19798,6.43432 l -24.64159,-0.0365 c 2.1184,-2.72652 6.93958,-5.79516 9.11276,-6.40937 0,-5.24182 0.53569,-15.80276 3.11673,-15.74188"
         style="fill:none;stroke:#000000;stroke-width:1.16422367;stroke-miterlimit:4;stroke-dasharray:none"
         id="path250"
         inkscape:connector-curvature="0" />
      <path
         d="m 326.8079,900.33477 2.20971,0 -0.64526,1.18642 c 0,0 1.06529,1.37027 0.0183,2.94019 l 0.57829,1.09025 -2.13057,0 0.5783,-1.03546 c 0,0 -1.08964,-1.81951 0.0487,-2.99498 l -0.65744,-1.18642"
         style="fill:none;stroke:#000000;stroke-width:1.16422367;stroke-miterlimit:4;stroke-dasharray:none"
         id="path252"
         inkscape:connector-curvature="0" />
      <path
         d="m 331.31254,900.33477 2.20971,0 -0.63917,1.18642 c 0,0 1.06528,1.33374 0.006,2.94019 l 0.57221,1.09025 -2.12449,0 0.57221,-1.03546 c 0,0 -1.06528,-1.81951 0.0548,-2.99498 l -0.65135,-1.18642"
         style="fill:none;stroke:#000000;stroke-width:1.16422367;stroke-miterlimit:4;stroke-dasharray:none"
         id="path254"
         inkscape:connector-curvature="0" />
      <path
         d="m 336.22503,900.33477 2.20362,0 -0.65743,1.18642 c 0,0 1.07746,1.37027 0.0183,2.94019 l 0.5783,1.11399 -2.11231,-0.0237 0.56612,-1.03546 c 0,0 -1.07746,-1.80794 0.0426,-2.99498 l -0.64526,-1.18642 0.006,0 z"
         style="fill:none;stroke:#000000;stroke-width:1.16422367;stroke-miterlimit:4;stroke-dasharray:none"
         id="path256"
         inkscape:connector-curvature="0" />
      <path
         d="m 341.77061,900.34633 2.22188,0 -0.65135,1.19921 c 0,0 1.06529,1.34592 0.006,2.92193 l 0.59656,1.1079 -2.14275,0 0.57221,-1.03485 c 0,0 -1.06528,-1.83229 0.0731,-2.99498 l -0.66961,-1.19921 -0.006,0 z"
         style="fill:none;stroke:#000000;stroke-width:1.16422367;stroke-miterlimit:4;stroke-dasharray:none"
         id="path258"
         inkscape:connector-curvature="0" />
      <path
         d="m 346.70136,900.34633 2.20362,0 -0.65135,1.19921 c 0,0 1.07137,1.34592 0.0122,2.91584 l 0.58438,1.11399 -2.12448,0 0.55395,-1.03485 c 0,0 -1.07138,-1.82012 0.0852,-2.99498 l -0.66352,-1.19921"
         style="fill:none;stroke:#000000;stroke-width:1.16422367;stroke-miterlimit:4;stroke-dasharray:none"
         id="path260"
         inkscape:connector-curvature="0" />
      <path
         d="m 351.60167,900.35851 2.20362,-0.0122 -0.65134,1.19921 c 0,0 1.08963,1.34592 0.0304,2.92193 l 0.55395,1.1079 -2.13057,0 0.57221,-1.03485 c 0,0 -1.06528,-1.82012 0.073,-2.99498 l -0.65135,-1.18703"
         style="fill:none;stroke:#000000;stroke-width:1.16422367;stroke-miterlimit:4;stroke-dasharray:none"
         id="path262"
         inkscape:connector-curvature="0" />
      <path
         d="m 340.69923,968.3968 c 11.35899,0.0365 25.32946,-2.28276 31.87336,-5.66671 l 14.37223,-1.27287 0.2861,17.53826 c -12.1747,6.71374 -40.28607,8.15644 -46.47081,8.10774 -6.19084,0.0487 -34.64918,-1.41774 -46.87867,-8.15644 l 0.15827,-17.55043 14.40267,1.2966 c 6.5439,3.36692 20.94047,5.70385 32.28729,5.70385 l -0.0304,0"
         style="fill:#ffff00;stroke:none"
         id="path264"
         inkscape:connector-curvature="0" />
      <path
         d="m 340.69923,968.3968 c 11.35899,0.0365 25.32946,-2.28276 31.87336,-5.66671 l 14.37223,-1.27287 0.2861,17.53826 c -12.1747,6.71374 -40.28607,8.15644 -46.47081,8.10774 -6.19084,0.0487 -34.64918,-1.41774 -46.87867,-8.15644 l 0.15827,-17.55043 14.40267,1.2966 c 6.5439,3.36692 20.94047,5.70385 32.28729,5.70385 l -0.0304,0"
         style="fill:none;stroke:#000000;stroke-width:0.27124387"
         id="path266"
         inkscape:connector-curvature="0" />
      <path
         d="m 256.88254,893.58938 12.66169,4.02982 -3.82895,20.5028 -11.98599,1.86212 c 0,0 -2.021,-10.78069 3.15325,-26.40692"
         style="fill:#ffff00;stroke:none"
         id="path268"
         inkscape:connector-curvature="0" />
      <path
         d="m 256.88254,893.58938 12.66169,4.02982 -3.82895,20.5028 -11.98599,1.86212 c 0,0 -2.021,-10.78069 3.15325,-26.40692 l 0,0.0122 z"
         style="fill:none;stroke:#000000;stroke-width:0.27124387"
         id="path270"
         inkscape:connector-curvature="0" />
      <path
         d="m 265.7092,917.89616 -11.97991,2.08796 7.57875,-10.78069 4.40116,8.69273"
         style="fill:#7e7e7e;stroke:none"
         id="path272"
         inkscape:connector-curvature="0" />
      <path
         d="m 265.7092,917.89616 -11.97991,2.08796 7.57875,-10.78069 4.40116,8.69273"
         style="fill:none;stroke:#000000;stroke-width:0.27124387"
         id="path274"
         inkscape:connector-curvature="0" />
      <path
         d="m 249.30988,908.35789 12.20513,0.88206 c 0.27394,10.34301 1.52793,49.81338 48.65618,51.95612 l -1.46705,14.36006 c -57.36718,0.59595 -61.72572,-48.41268 -59.39426,-67.19824"
         style="fill:#ffff00;stroke:none"
         id="path276"
         inkscape:connector-curvature="0" />
      <path
         d="m 249.30988,908.35789 12.20513,0.88206 c 0.27394,10.34301 1.52793,49.81338 48.65618,51.95612 l -1.46705,14.36006 c -57.36718,0.59595 -61.72572,-48.41268 -59.39426,-67.19824 z"
         style="fill:none;stroke:#000000;stroke-width:0.27124387"
         id="path278"
         inkscape:connector-curvature="0" />
      <path
         d="m 294.10668,978.49571 14.3844,-3.14107"
         style="fill:none;stroke:#000000;stroke-width:0.27124387"
         id="path280"
         inkscape:connector-curvature="0" />
      <path
         d="m 423.5176,893.73547 -12.61298,3.99331 3.99938,20.47236 12.01034,1.92908 c 0,0 1.92969,-10.774 -3.39674,-26.40631"
         style="fill:#ffff00;stroke:none"
         id="path282"
         inkscape:connector-curvature="0" />
      <path
         d="m 423.5176,893.73547 -12.61298,3.99331 3.99938,20.47236 12.01034,1.92908 c 0,0 1.92969,-10.774 -3.39674,-26.40631 l 0,0.0116 z"
         style="fill:none;stroke:#000000;stroke-width:0.27124387"
         id="path284"
         inkscape:connector-curvature="0" />
      <path
         d="m 414.904,917.98747 12.01034,2.15492 -7.68223,-10.78617 -4.32811,8.63125"
         style="fill:#7e7e7e;stroke:none"
         id="path286"
         inkscape:connector-curvature="0" />
      <path
         d="m 414.904,917.98747 12.01034,2.15492 -7.68223,-10.78617 -4.32811,8.63125"
         style="fill:none;stroke:#000000;stroke-width:0.27124387"
         id="path288"
         inkscape:connector-curvature="0" />
      <path
         d="m 431.23027,908.52164 -12.22339,0.83458 c -0.17654,10.32962 -1.07746,49.81825 -48.20571,51.91229 l 1.60097,14.34849 c 57.35499,0.66291 61.2996,-48.32198 58.82813,-67.10084"
         style="fill:#ffff00;stroke:none"
         id="path290"
         inkscape:connector-curvature="0" />
      <path
         d="m 431.23027,908.52164 -12.22339,0.83458 c -0.17654,10.32962 -1.07746,49.81825 -48.20571,51.91229 l 1.60097,14.34849 c 57.35499,0.66291 61.2996,-48.32198 58.82813,-67.10084 l 0,0.005 z"
         style="fill:none;stroke:#000000;stroke-width:0.27124387"
         id="path292"
         inkscape:connector-curvature="0" />
      <path
         d="M 387.03613,978.57484 372.6152,975.41612"
         style="fill:none;stroke:#000000;stroke-width:0.27124387"
         id="path294"
         inkscape:connector-curvature="0" />
      <path
         d="m 333.07179,977.04083 c -0.32263,0.20697 -0.76092,0.26237 -1.26617,0.23741 l -2.27667,-0.11566 0.19479,-2.84218 2.25841,0.12113 c 0.44438,0.0304 0.79744,0.11627 1.01659,0.24959 0.45655,0.2374 0.65743,0.6763 0.61482,1.28443 -0.0304,0.52351 -0.21306,0.86501 -0.54786,1.06528 m -3.82286,4.47481 0.22524,-3.46431 2.65408,0.18323 c 0.85832,0.067 1.49749,-0.15827 1.92969,-0.59717 0.45046,-0.42611 0.68178,-0.98554 0.71222,-1.61862 0.0548,-0.73718 -0.13392,-1.33983 -0.57221,-1.78421 -0.42003,-0.42611 -1.01659,-0.65134 -1.76533,-0.72378 l -3.79242,-0.23741 -0.52351,8.15644 1.12616,0.0737"
         style="fill:#009fc5;stroke:none"
         id="path296"
         inkscape:connector-curvature="0" />
      <path
         d="m 337.49729,974.69112 2.77583,0.0304 c 0.40176,0.0365 0.71831,0.0852 0.94962,0.1948 0.42612,0.20088 0.627,0.60265 0.627,1.18703 0,0.54847 -0.15827,0.91371 -0.46872,1.13286 -0.29828,0.20027 -0.73049,0.29158 -1.24791,0.29158 l -2.66626,-0.0304 0.0243,-2.80626 m -0.0426,7.22568 0.0243,-3.48197 2.60538,0.0371 c 0.46264,0 0.80353,0.0359 1.04094,0.15157 0.3835,0.17654 0.57221,0.54847 0.59047,1.0592 l 0.067,1.36965 c 0.0183,0.32872 0.0244,0.53021 0.0426,0.66353 0.0365,0.0974 0.0548,0.20088 0.10349,0.27453 l 1.40009,0 -0.0243,-0.17714 c -0.15827,-0.0852 -0.28611,-0.24897 -0.34089,-0.49916 -0.0487,-0.15827 -0.0731,-0.39568 -0.0852,-0.69396 l -0.0243,-1.08963 c -0.0183,-0.49308 -0.10349,-0.83336 -0.2922,-1.02268 -0.16435,-0.21914 -0.38959,-0.40785 -0.73657,-0.52351 0.3896,-0.20636 0.68179,-0.44377 0.89484,-0.73657 0.20089,-0.32263 0.30437,-0.73048 0.30437,-1.22903 0,-0.93746 -0.3835,-1.57724 -1.16268,-1.92361 -0.42003,-0.1887 -0.95571,-0.28671 -1.5888,-0.29828 l -3.91416,-0.0371 -0.0304,8.1814 1.12616,0"
         style="fill:#009fc5;stroke:none"
         id="path298"
         inkscape:connector-curvature="0" />
      <path
         d="m 346.13523,980.20625 c -0.49916,-0.60812 -0.767,-1.36904 -0.82787,-2.26997 -0.0548,-1.13285 0.16435,-1.99665 0.68178,-2.58164 0.52351,-0.63309 1.19921,-0.93685 2.08187,-0.98554 0.88875,-0.0487 1.61924,0.2374 2.16101,0.79683 0.55395,0.54847 0.87049,1.30939 0.92528,2.25901 0.0304,0.9125 -0.12784,1.72211 -0.54786,2.43433 -0.41394,0.72501 -1.10181,1.13286 -2.1184,1.1566 -1.0592,0.0554 -1.85056,-0.19419 -2.35581,-0.80962 m -1.33921,-5.14989 c -0.52351,0.80961 -0.73657,1.74707 -0.68179,2.87992 0.0791,1.22295 0.45656,2.23406 1.16878,2.99498 0.79135,0.76091 1.83837,1.14381 3.12889,1.07076 1.38183,-0.0609 2.42277,-0.58438 3.1289,-1.54558 0.57221,-0.87049 0.84614,-1.8816 0.78527,-3.1295 -0.0791,-1.11399 -0.40177,-2.021 -1.00442,-2.6967 -0.76091,-0.90701 -1.8749,-1.30817 -3.38456,-1.2473 -1.42444,0.0907 -2.47146,0.61422 -3.14716,1.67342"
         style="fill:#009fc5;stroke:none"
         id="path300"
         inkscape:connector-curvature="0" />
      <path
         d="m 383.23762,963.28951 c 0.78527,-0.13392 1.46705,-0.0968 2.08796,0.11566 0.9131,0.28611 1.52793,0.96241 1.91143,1.99665 l -1.12616,0.15827 c -0.2435,-0.55942 -0.59047,-0.94293 -1.0592,-1.15659 -0.45655,-0.20028 -1.02876,-0.24958 -1.6862,-0.15158 -0.767,0.11566 -1.38182,0.49856 -1.81402,1.11399 -0.42612,0.65682 -0.55395,1.53401 -0.36525,2.65347 0.15828,0.92589 0.49917,1.71055 1.0592,2.23406 0.51743,0.53569 1.27835,0.72439 2.27058,0.58438 0.74266,-0.12174 1.33922,-0.41941 1.75925,-0.93136 0.43829,-0.48638 0.56612,-1.22356 0.42002,-2.17318 l -2.62364,0.40237 -0.13392,-0.90093 3.6524,-0.56064 0.71222,4.3281 -0.72439,0.10958 -0.45046,-0.99833 c -0.30437,0.45107 -0.60874,0.79805 -0.87658,0.99833 -0.45047,0.35367 -1.0592,0.5789 -1.82012,0.68847 -0.98615,0.15158 -1.88708,-0.025 -2.70278,-0.54847 -0.89484,-0.66352 -1.47314,-1.64967 -1.69228,-3.01871 -0.23741,-1.34531 -0.0244,-2.49642 0.59656,-3.40344 0.59047,-0.87597 1.44878,-1.3873 2.60538,-1.55227"
         style="fill:#009fc5;stroke:none"
         id="path302"
         inkscape:connector-curvature="0" />
      <path
         d="m 391.49815,962.65643 2.61756,-0.94963 c 0.35915,-0.13331 0.66961,-0.17653 0.93745,-0.14548 0.4809,0.0359 0.83397,0.32202 1.03485,0.89423 0.18871,0.48698 0.18871,0.9131 -0.0243,1.21199 -0.22523,0.30984 -0.5783,0.53568 -1.08963,0.72378 l -2.45929,0.88267 -1.01659,-2.61756 m 2.61756,6.76365 -1.27834,-3.28108 2.43494,-0.87719 c 0.45655,-0.14609 0.77309,-0.22523 1.0105,-0.20027 0.4322,0.0542 0.76092,0.31654 0.98006,0.8151 l 0.55395,1.24851 c 0.12175,0.30985 0.21914,0.49855 0.29828,0.58439 0.0365,0.10957 0.11566,0.17653 0.17653,0.24897 l 1.32096,-0.48638 -0.0731,-0.17653 c -0.1948,0 -0.3835,-0.10958 -0.52351,-0.32324 -0.10349,-0.15158 -0.20089,-0.37072 -0.34089,-0.62639 l -0.43221,-1.02328 c -0.19479,-0.44438 -0.39567,-0.7177 -0.62699,-0.88267 -0.23132,-0.12783 -0.52352,-0.21306 -0.87049,-0.2368 0.26784,-0.31106 0.46263,-0.62151 0.53568,-0.98676 0.0791,-0.37071 0.0426,-0.78465 -0.13392,-1.24729 -0.3348,-0.87049 -0.94963,-1.34531 -1.81403,-1.40618 -0.45655,-0.0365 -0.98006,0.0609 -1.58271,0.27332 l -3.67676,1.30939 2.97063,7.6938 1.07746,-0.39568"
         style="fill:#009fc5;stroke:none"
         id="path304"
         inkscape:connector-curvature="0" />
      <path
         d="m 403.69111,965.36591 -4.669,-6.81235 5.12555,-3.26891 0.56612,0.8224 -4.20027,2.68391 1.43662,2.08188 3.87764,-2.49582 0.5296,0.79745 -3.87764,2.49642 1.58271,2.29493 4.27332,-2.73383 0.56612,0.80414 -5.21686,3.32978"
         style="fill:#009fc5;stroke:none"
         id="path306"
         inkscape:connector-curvature="0" />
      <path
         d="m 407.77572,953.32452 1.33922,-1.47313 c 0.62091,-0.65744 1.27834,-0.95572 1.99665,-0.87049 0.7183,0.0609 1.44879,0.43828 2.22797,1.12007 0.21305,0.16436 0.40176,0.37741 0.59656,0.61482 0.34089,0.44438 0.54177,0.83458 0.6696,1.22356 0.10958,0.48759 0.0852,0.93197 -0.0852,1.35808 -0.10348,0.21245 -0.2861,0.46203 -0.56003,0.76092 l -1.34531,1.46097 -4.83944,-4.20636 m 7.0735,3.20742 c 0.94963,-1.04641 1.15659,-2.17257 0.60265,-3.44483 -0.32263,-0.68848 -0.81571,-1.35809 -1.49749,-1.94247 -0.85832,-0.76092 -1.75316,-1.15051 -2.6967,-1.22295 -1.04702,-0.0797 -1.93577,0.29828 -2.70887,1.14381 l -2.28275,2.44712 6.29432,5.49139 2.28275,-2.45928"
         style="fill:#009fc5;stroke:none"
         id="path308"
         inkscape:connector-curvature="0" />
      <path
         d="m 419.72518,950.17128 -7.24394,-4.25506 0.59047,-0.93684 7.25612,4.23071 -0.59656,0.97336"
         style="fill:#009fc5;stroke:none"
         id="path310"
         inkscape:connector-curvature="0" />
      <path
         d="m 422.56798,945.22896 -7.82225,-3.12951 2.30711,-5.50296 0.94962,0.36524 -1.88099,4.53508 2.35581,0.92588 1.75924,-4.17653 0.90093,0.37194 -1.74098,4.16983 2.63582,1.07077 1.92969,-4.58925 0.94962,0.35854 -2.34971,5.60097"
         style="fill:#009fc5;stroke:none"
         id="path312"
         inkscape:connector-curvature="0" />
      <path
         d="m 426.15951,935.62313 -8.23009,-1.82012 0.27393,-1.27226 7.6031,-2.56886 -6.67783,-1.47314 0.2435,-0.99832 8.23009,1.77081 -0.26175,1.23573 -7.61528,2.62426 6.67783,1.4427 -0.23741,1.0592"
         style="fill:#009fc5;stroke:none"
         id="path314"
         inkscape:connector-curvature="0" />
      <path
         d="m 425.50817,925.17054 0.10348,-1.03485 c 0.47481,0.0128 0.87658,-0.0609 1.18095,-0.22462 0.59656,-0.32324 0.94353,-0.93745 1.03484,-1.84508 0.0365,-0.4255 0.0183,-0.79744 -0.0791,-1.15051 -0.17653,-0.68117 -0.56004,-1.05919 -1.17486,-1.12007 -0.45655,-0.0487 -0.78527,0.0609 -1.02267,0.31107 -0.21306,0.2861 -0.43829,0.69943 -0.60874,1.28443 l -0.37741,1.07746 c -0.2435,0.70552 -0.46873,1.19251 -0.71222,1.46644 -0.38959,0.51194 -0.93746,0.68848 -1.6375,0.63978 -0.74874,-0.0791 -1.35748,-0.37742 -1.78968,-0.94963 -0.44438,-0.52351 -0.627,-1.27225 -0.51743,-2.19814 0.073,-0.84553 0.35307,-1.55775 0.85223,-2.12996 0.46264,-0.52351 1.18095,-0.7737 2.10014,-0.67631 l -0.0852,1.03485 c -0.45047,0 -0.80962,0.0791 -1.07138,0.26176 -0.47481,0.26175 -0.73657,0.8157 -0.8157,1.62532 -0.067,0.67022 0.0243,1.12007 0.28002,1.46157 0.25566,0.28611 0.57829,0.46812 0.95571,0.49856 0.40176,0.0365 0.71831,-0.0913 0.93745,-0.40116 0.15827,-0.21367 0.34698,-0.6763 0.60265,-1.42505 l 0.37133,-1.13224 c 0.18262,-0.52352 0.40176,-0.92528 0.65743,-1.21139 0.45655,-0.47481 1.05311,-0.67569 1.80186,-0.6203 0.9131,0.0968 1.56444,0.47482 1.89925,1.16877 0.32871,0.70005 0.45655,1.47314 0.37741,2.34972 -0.10348,0.99163 -0.42611,1.77142 -1.02267,2.29493 -0.59656,0.53508 -1.33922,0.7177 -2.24014,0.64465"
         style="fill:#009fc5;stroke:none"
         id="path316"
         inkscape:connector-curvature="0" />
      <path
         d="m 254.89807,924.67199 0.1887,1.02206 c -0.45655,0.0913 -0.82179,0.27454 -1.08963,0.51195 -0.48091,0.44985 -0.64526,1.12616 -0.48091,2.04535 0.073,0.38898 0.21306,0.77248 0.38959,1.07746 0.36525,0.62091 0.84006,0.86988 1.44271,0.77248 0.44438,-0.0791 0.73657,-0.24897 0.87658,-0.56551 0.13392,-0.31107 0.23132,-0.78588 0.26176,-1.39401 l 0.0548,-1.15111 c 0.0365,-0.71222 0.11566,-1.27165 0.27393,-1.58271 0.24958,-0.56004 0.71831,-0.90702 1.41835,-1.02207 0.74875,-0.13453 1.40618,0.0359 1.9723,0.46203 0.57222,0.39568 0.94963,1.08355 1.08964,1.99665 0.17653,0.83458 0.0974,1.58332 -0.23132,2.25841 -0.31654,0.65804 -0.92528,1.0592 -1.85664,1.22964 l -0.18262,-1.03424 c 0.4322,-0.15827 0.75483,-0.31106 0.96789,-0.52351 0.36524,-0.40846 0.47481,-0.99833 0.3348,-1.80794 -0.10957,-0.65805 -0.3348,-1.08416 -0.67569,-1.29661 -0.33481,-0.25019 -0.66961,-0.34759 -1.03485,-0.2861 -0.40786,0.0609 -0.6757,0.2861 -0.80353,0.65134 -0.0791,0.24289 -0.14001,0.74814 -0.1948,1.52184 l -0.0548,1.19251 c -0.0304,0.56004 -0.11566,1.02328 -0.30437,1.33983 -0.29828,0.58377 -0.80353,0.94293 -1.5401,1.05859 -0.93137,0.15827 -1.64968,-0.0548 -2.16101,-0.65135 -0.52352,-0.58439 -0.84614,-1.28443 -1.0105,-2.15492 -0.18262,-1.03485 -0.0487,-1.83838 0.36524,-2.48303 0.42002,-0.66352 1.08355,-1.04702 1.98448,-1.17486"
         style="fill:#009fc5;stroke:none"
         id="path318"
         inkscape:connector-curvature="0" />
      <path
         d="m 254.38064,935.46485 8.04748,-2.42276 1.8749,5.66671 -0.98006,0.31046 -1.53401,-4.65682 -2.44712,0.73717 1.41835,4.30315 -0.93745,0.29828 -1.40618,-4.31532 -2.72713,0.81509 1.55836,4.76031 -0.9618,0.27454 -1.90534,-5.77081"
         style="fill:#009fc5;stroke:none"
         id="path320"
         inkscape:connector-curvature="0" />
      <path
         d="m 257.94783,945.28923 7.40221,-3.92574 0.79136,1.38122 -5.08902,5.38122 7.43265,-1.27226 0.767,1.37027 -7.38395,3.90199 -0.52351,-0.90763 4.35854,-2.29432 c 0.15827,-0.0919 0.40176,-0.22584 0.75483,-0.41394 0.34698,-0.15827 0.73657,-0.37194 1.12616,-0.57282 l -7.40221,1.26008 -0.54178,-0.9618 5.0525,-5.36295 -0.24349,0.12235 c -0.15827,0.0907 -0.43221,0.22524 -0.80353,0.43768 -0.36524,0.22584 -0.63918,0.36524 -0.81571,0.43829 l -4.34636,2.33146 -0.53569,-0.92467"
         style="fill:#009fc5;stroke:none"
         id="path322"
         inkscape:connector-curvature="0" />
      <path
         d="m 271.74176,956.19167 c -0.37133,-0.0846 -0.73657,-0.29828 -1.09572,-0.66961 l -1.56445,-1.61315 2.10622,-1.92969 1.57662,1.60767 c 0.30437,0.29828 0.49917,0.58986 0.60265,0.84005 0.1461,0.48029 0,0.91919 -0.44438,1.33252 -0.40176,0.37133 -0.80353,0.52352 -1.18094,0.43221 m -5.94734,0.74874 2.58104,-2.36798 1.83229,1.85664 c 0.59047,0.60265 1.19312,0.87658 1.8262,0.86501 0.64526,-0.0371 1.19921,-0.27454 1.6862,-0.73717 0.54786,-0.48699 0.80961,-1.0592 0.80961,-1.67342 -0.006,-0.59716 -0.28001,-1.15659 -0.78526,-1.6801 l -2.62974,-2.68513 -6.12387,5.62471 0.79136,0.79744"
         style="fill:#009fc5;stroke:none"
         id="path324"
         inkscape:connector-curvature="0" />
      <path
         d="m 273.17837,963.51475 4.43768,-6.95784 5.24729,3.18977 -0.54786,0.82848 -4.30984,-2.58103 -1.33313,2.10622 3.96286,2.4039 -0.51133,0.79805 -3.96895,-2.39233 -1.50967,2.35519 4.36463,2.62426 -0.52351,0.82179 -5.30817,-3.19646"
         style="fill:#009fc5;stroke:none"
         id="path326"
         inkscape:connector-curvature="0" />
      <path
         d="m 286.31487,962.16944 2.66626,0.84675 c 0.37741,0.11505 0.65134,0.26115 0.83397,0.42612 0.34089,0.32263 0.4322,0.78465 0.23131,1.34469 -0.16435,0.48699 -0.41394,0.80353 -0.80353,0.93806 -0.34697,0.0603 -0.78526,0.0603 -1.2966,-0.098 l -2.51408,-0.80292 0.88267,-2.65469 m -2.30102,6.83609 1.1079,-3.3176 2.48364,0.80962 c 0.44437,0.11626 0.767,0.27453 0.92527,0.43828 0.30437,0.27394 0.39568,0.68179 0.2435,1.18765 l -0.37133,1.32034 c -0.0852,0.32263 -0.12783,0.53569 -0.16436,0.63309 0,0.10409 0,0.21366 0.0183,0.2861 l 1.30878,0.42612 0.0791,-0.18871 c -0.14001,-0.10957 -0.21914,-0.30985 -0.21306,-0.55943 0.0304,-0.15279 0.073,-0.39568 0.15827,-0.6763 l 0.31655,-1.0592 c 0.12783,-0.46264 0.17653,-0.80962 0.0609,-1.05859 -0.0974,-0.26237 -0.26176,-0.49977 -0.53569,-0.7244 0.41394,-0.0737 0.7731,-0.20149 1.07746,-0.42672 0.28611,-0.24958 0.5296,-0.59656 0.6757,-1.08294 0.29828,-0.88327 0.13392,-1.61984 -0.52351,-2.17988 -0.32872,-0.29158 -0.79745,-0.54177 -1.41227,-0.77309 l -3.72546,-1.1499 -2.60538,7.76076 1.08964,0.3348"
         style="fill:#009fc5;stroke:none"
         id="path328"
         inkscape:connector-curvature="0" />
      <path
         d="m 295.31806,827.76141 c 0.9618,-2.31989 9.87368,-8.64465 39.11729,-5.8749 0,0 4.94293,3.01932 7.84659,2.63034 1.65576,-0.21367 -0.97397,0.10288 -3.13498,-1.69289 -2.20362,-1.79516 -2.67235,-5.47801 2.36189,-5.38061 5.00989,0.12784 23.76501,1.18703 24.11807,2.87262 0.32872,1.70446 -9.91629,2.41668 -13.72697,2.31928 -3.82894,-0.10288 -3.38456,1.8329 0.42612,1.6868 11.90685,-0.42611 24.90334,-4.6209 38.63031,5.08903 1.63749,1.18033 -4.1394,1.36904 -8.60751,-0.53021 0,0 -12.10774,0.6276 -17.34286,-0.23071 0,0 -4.02373,3.27438 -9.26494,2.95236 0.68178,1.69776 -1.93578,8.0353 -18.41423,3.2683 -2.72104,0.83458 -12.63733,2.49581 -11.55378,-0.44986 -2.61148,0 -7.18916,0.84006 -7.87094,-0.64586 -0.65743,-1.46036 8.05964,-3.67067 9.58757,-5.25278 0,0 -18.43858,0.17654 -21.93271,-1.09633 0,0 -10.87809,2.44103 -10.23892,0.32324"
         style="fill:#bc715f;stroke:none"
         id="path330"
         inkscape:connector-curvature="0" />
      <path
         d="m 301.22887,853.58333 c 0.39568,-0.53508 0.55395,-1.49749 1.39401,-1.47253 1.8262,0.48638 3.06802,3.82833 5.31425,1.66124 0.79744,-0.17654 1.10181,0.90762 1.75924,1.03545 0.42003,1.85664 1.91143,-0.37741 3.02542,-0.25019 2.38015,-1.0592 5.32643,-1.30878 8.14486,-0.78526 0.0852,1.82011 -1.33921,3.82894 -3.12889,4.86379 0.0365,1.8329 1.69837,3.00775 1.66793,4.85161 -0.2861,0.68848 -0.0487,1.77142 -1.08963,1.99665 -1.32096,-0.2374 -2.62365,-0.37741 -3.71937,-1.11398 -0.13392,-0.13392 -0.24349,-0.39568 -0.52351,-0.31046 -0.13392,0.61483 0.82788,1.22417 1.20529,1.85056 -0.66352,1.13224 -1.76533,0.0974 -2.69061,0.10957 -0.27393,0.65135 -0.0122,1.47314 -0.68178,1.89316 -1.16877,-0.0365 -1.40618,-1.30817 -2.12448,-1.94186 -0.73657,0.79744 0.51742,1.27226 0.69395,1.90534 -0.45046,2.39842 -0.38959,4.74204 -2.788,6.31258 l -1.60706,0.79805 c -0.43829,-1.20529 -0.16436,-3.03211 -0.45655,-4.29219 -0.94963,1.54619 -1.69228,2.89819 -3.08629,4.20636 -1.63141,-0.53569 -2.58103,-2.45929 -2.94019,-4.05417 -0.68178,-1.85664 -0.29219,-4.07853 1.17486,-5.42383 -0.49916,-0.97398 -2.20971,-0.74874 -2.4532,-2.13605 -2.56277,-1.66854 -3.98113,2.92193 -5.63688,0.53508 -0.53569,-2.22736 0.10348,-4.99772 1.71663,-6.65956 -0.35916,-0.9125 -1.55228,-0.67509 -2.25841,-1.1986 -1.61314,-1.37026 -3.93851,-2.81844 -3.82285,-5.29051 4.41332,-1.66733 9.69106,-0.44377 12.89909,2.90975"
         style="fill:#008737;stroke:none"
         id="path332"
         inkscape:connector-curvature="0" />
      <path
         d="m 303.51772,853.33435 c -0.10349,2.0204 1.36356,0.54726 2.4532,1.77081 -0.85223,-0.3348 -1.47314,1.47314 -2.30711,0.43829 l -0.52351,0.49977 c 0.30437,0.69335 0.89484,0.78466 0.28002,1.54558 -0.9131,0.34698 -1.09572,-0.79683 -1.52184,-1.2479 -0.0731,-0.20028 0.14001,-0.5783 -0.19479,-0.71222 -0.51743,0.43829 -1.0592,0.59656 -1.77142,0.52412 -0.1948,-0.3902 -0.57221,-0.90093 -0.18871,-1.19921 0.70004,-0.94415 1.78359,0.34028 2.31319,-0.32263 0.0852,-0.58439 -0.42611,-1.29661 0.23741,-1.69898 0.45655,0.0791 1.04094,-0.16984 1.22964,0.40237"
         style="fill:#ffff00;stroke:none"
         id="path334"
         inkscape:connector-curvature="0" />
      <path
         d="m 308.97807,854.9895 c 0.0548,0.3902 -0.20089,0.93746 0.31045,1.212 0.66352,-0.35977 1.36965,-0.0858 1.75316,0.57221 -0.006,0.35245 0.10348,0.81509 -0.35916,0.98554 l -1.03484,-0.19419 c 0.073,-0.20149 -0.25567,-0.32871 -0.38351,-0.52351 -0.45655,-0.14001 -0.72439,0.23071 -1.06528,0.45594 0.25566,0.38959 0.84614,0.60265 0.70613,1.10242 -0.60874,0.60813 -0.90702,-0.52351 -1.57662,-0.23801 -0.45656,-0.17593 0.16435,-1.12555 -0.55395,-1.41166 -0.85223,0 -0.28611,1.39948 -1.37574,0.85223 -0.38959,-0.4389 -0.7731,-1.02876 -0.35307,-1.52184 0.45655,-0.30497 1.22964,-0.22584 1.61923,0.16984 0.66353,-0.73596 0.73049,-3.57875 2.31928,-1.46097"
         style="fill:#ffff00;stroke:none"
         id="path336"
         inkscape:connector-curvature="0" />
      <path
         d="m 302.1785,857.92361 c 0.44438,0.63978 -0.0974,1.50966 0.46872,2.22188 0.88876,-1.66124 1.74707,0.35915 2.80627,0.20088 0.32263,0.39568 0.10957,0.94415 0.17045,1.394 -1.30878,0.34698 -2.8854,0.76092 -4.042,-0.2861 l -0.32263,0.37133 c 0.68787,0.63978 1.33922,1.36356 0.79135,2.43494 -0.98006,0.21305 -2.49581,0.2374 -2.98888,-0.7731 -0.25567,-0.83336 0.59656,-1.436 -0.30437,-2.10622 -0.65135,0.80962 -0.62091,1.89377 -1.97839,1.1566 -0.84005,-0.46264 -1.08963,-1.41775 -0.66961,-2.22189 0.87658,-1.38182 2.41059,0.0432 3.36022,-0.63308 0.13392,-1.18703 -0.30437,-2.22188 0.78527,-2.87871 0.93136,-0.16496 1.36356,0.53508 1.92969,1.11947"
         style="fill:#ffff00;stroke:none"
         id="path338"
         inkscape:connector-curvature="0" />
      <path
         d="m 305.89178,858.648 c -0.43829,2.021 -1.96012,-0.10348 -2.67234,-0.18871 0.94962,-1.68558 1.54618,0.54847 2.67234,0.18871"
         style="fill:#ffffff;stroke:none"
         id="path340"
         inkscape:connector-curvature="0" />
      <path
         d="m 310.63383,860.84614 c -1.0592,0.29767 -0.89484,-1.02328 -1.41836,-1.54071 l 0.40786,-0.37132 c 0.3835,0.46263 0.67569,1.29721 1.0105,1.91203"
         style="fill:#ffffff;stroke:none"
         id="path342"
         inkscape:connector-curvature="0" />
      <path
         d="m 309.19721,860.44377 c 0.30437,0.70004 -0.68787,1.26069 0.15827,1.77142 0.26785,-0.22463 0.59656,-0.53569 0.73657,-0.66352 0.7244,0.21366 1.56445,0.3415 2.0697,1.05919 0.54177,1.48593 -0.9618,1.44879 -1.81403,1.86273 l -0.84614,-0.0365 c 0.20088,-0.41394 -0.36524,-0.59047 -0.50525,-0.87597 -0.38959,-0.0974 -0.71222,0.0237 -0.93137,0.35246 0.18871,0.94414 1.33922,1.68011 0.15219,2.52016 -1.00441,-0.0663 -2.56278,0.32263 -2.47146,-1.06529 -0.37742,-0.78526 1.02267,-1.99665 -0.47482,-2.04474 -0.49307,1.0592 -1.03485,2.08127 -2.31928,1.07746 l 0.15827,-1.50966 c 1.22965,0.0359 2.68452,0.24897 3.23847,-1.12616 0.35307,-0.99832 -0.61482,-1.91751 0.24958,-2.70887 1.254,-0.2861 1.96013,0.55395 2.5993,1.38731"
         style="fill:#ffff00;stroke:none"
         id="path344"
         inkscape:connector-curvature="0" />
      <path
         d="m 308.29628,862.71435 c 0.31655,0.74935 -0.53568,0.79805 -0.93745,1.16877 -0.54177,0.0432 -0.91919,-0.17045 -1.2479,-0.53569 -0.2435,-0.90701 0.4322,-0.99832 0.94962,-1.35687 0.60265,-0.25019 0.85223,0.44986 1.23573,0.72379"
         style="fill:#000000;stroke:none"
         id="path346"
         inkscape:connector-curvature="0" />
      <path
         d="m 307.55971,863.20134 c -0.13392,0.17653 -0.32262,0.12235 -0.52351,0.17044 l -0.1887,-0.9064 c 0.40176,0.0359 0.92527,0.16375 0.71221,0.73596"
         style="fill:#ffffff;stroke:none"
         id="path348"
         inkscape:connector-curvature="0" />
    </g>
  </g>
</svg>
