<?xml version="1.0" encoding="UTF-8" standalone="no"?>
<!-- Created with Sodipodi ("http://www.sodipodi.com/") -->

<svg
   xmlns:dc="http://purl.org/dc/elements/1.1/"
   xmlns:cc="http://creativecommons.org/ns#"
   xmlns:rdf="http://www.w3.org/1999/02/22-rdf-syntax-ns#"
   xmlns:svg="http://www.w3.org/2000/svg"
   xmlns="http://www.w3.org/2000/svg"
   xmlns:sodipodi="http://sodipodi.sourceforge.net/DTD/sodipodi-0.dtd"
   xmlns:inkscape="http://www.inkscape.org/namespaces/inkscape"
   version="1"
   x="0.00000000"
   y="0.00000000"
   width="512"
   height="512"
   id="svg378"
   sodipodi:version="0.32"
   sodipodi:docname="sy.svg"
   inkscape:version="0.48.1 r9760">
  <sodipodi:namedview
     id="base"
     showgrid="false"
     inkscape:zoom="0.98242188"
     inkscape:cx="256"
     inkscape:cy="256"
     inkscape:window-width="1280"
     inkscape:window-height="723"
     inkscape:window-x="0"
     inkscape:window-y="24"
     inkscape:window-maximized="1"
     inkscape:current-layer="svg378"
     pagecolor="#000000"
     inkscape:pageopacity="1" />
  <metadata
     id="metadata3619">
    <rdf:RDF>
      <cc:Work
         rdf:about="">
        <dc:format>image/svg+xml</dc:format>
        <dc:type
           rdf:resource="http://purl.org/dc/dcmitype/StillImage" />
      </cc:Work>
    </rdf:RDF>
  </metadata>
  <defs
     id="defs380">
    <clipPath
       clipPathUnits="userSpaceOnUse"
       id="clipPath3830">
      <rect
         id="rect3832"
         height="512"
         x="0"
         style="fill:#000000;fill-opacity:0.67000002;stroke:none"
         width="512"
         y="0" />
    </clipPath>
  </defs>
  <g
     id="flag"
     clip-path="url(#clipPath3830)"
     inkscape:label="#g3790">
    <rect
       id="rect171"
       style="font-size:12px;fill:#ffffff;fill-opacity:1;fill-rule:evenodd;stroke:none"
       y="5.7731597e-15"
       x="0"
       ry="0"
       rx="0"
       height="512"
       width="512" />
    <rect
       id="rect256"
       style="font-size:12px;fill:#ffffff;fill-opacity:1;fill-rule:evenodd;stroke:none"
       y="342.08112"
       x="-3.4570047e-07"
       ry="0"
       rx="0"
       height="169.9189"
       width="512" />
    <rect
       id="rect255"
       style="font-size:12px;fill:#ffffff;fill-opacity:1;fill-rule:evenodd;stroke:none"
       y="3.4856574e-05"
       x="-3.4570047e-07"
       height="169.9189"
       width="512" />
    <path
       id="path205"
       style="font-size:12px;fill:#ffffff;fill-opacity:1;fill-rule:evenodd;stroke:none"
       d="m 151.36116,299.72995 -30.74297,-22.25769 -30.592326,22.47631 11.377976,-36.52512 -30.536211,-22.55418 37.778881,-0.31446 11.71766,-36.41431 11.96872,36.33046 37.77888,0.0479 -30.37965,22.7668 11.62904,36.44427 z"
       inkscape:connector-curvature="0" />
    <path
       id="path583"
       style="font-size:12px;fill:#ffffff;fill-opacity:1;fill-rule:evenodd;stroke:none"
       d="m 436.84246,299.72915 -30.74297,-22.25769 -30.59233,22.47631 11.37797,-36.52512 -30.5362,-22.55418 37.77888,-0.31446 11.71766,-36.41431 11.96872,36.33046 37.77888,0.0479 -30.37965,22.7668 11.62904,36.44427 z"
       inkscape:connector-curvature="0" />
    <rect
       width="512"
       height="169.9189"
       rx="0"
       ry="0"
       x="-3.4570047e-07"
       y="342.08112"
       style="font-size:12px;fill:#000000;fill-opacity:1;fill-rule:evenodd;stroke-width:1pt"
       id="rect7524" />
    <rect
       width="512"
       height="169.9189"
       x="-3.4570047e-07"
       y="3.4856574e-05"
       style="font-size:12px;fill:#ff0000;fill-opacity:1;fill-rule:evenodd;stroke-width:1pt"
       id="rect7526" />
    <path
       inkscape:connector-curvature="0"
       d="m 151.36116,299.72995 -30.74297,-22.25769 -30.592326,22.47631 11.377976,-36.52512 -30.536211,-22.55418 37.778881,-0.31446 11.71766,-36.41431 11.96872,36.33046 37.77888,0.0479 -30.37965,22.7668 11.62904,36.44427 z"
       style="font-size:12px;fill:#009900;fill-opacity:1;fill-rule:evenodd;stroke-width:0.112872"
       id="path7528" />
    <path
       inkscape:connector-curvature="0"
       d="m 436.84246,299.72915 -30.74297,-22.25769 -30.59233,22.47631 11.37797,-36.52512 -30.5362,-22.55418 37.77888,-0.31446 11.71766,-36.41431 11.96872,36.33046 37.77888,0.0479 -30.37965,22.7668 11.62904,36.44427 z"
       style="font-size:12px;fill:#009900;fill-opacity:1;fill-rule:evenodd;stroke-width:0.112872"
       id="path7530" />
  </g>
</svg>
