<?xml version="1.0" encoding="UTF-8" standalone="no"?>
<!-- Created with Sodipodi ("http://www.sodipodi.com/") -->

<svg
   xmlns:dc="http://purl.org/dc/elements/1.1/"
   xmlns:cc="http://creativecommons.org/ns#"
   xmlns:rdf="http://www.w3.org/1999/02/22-rdf-syntax-ns#"
   xmlns:svg="http://www.w3.org/2000/svg"
   xmlns="http://www.w3.org/2000/svg"
   xmlns:sodipodi="http://sodipodi.sourceforge.net/DTD/sodipodi-0.dtd"
   xmlns:inkscape="http://www.inkscape.org/namespaces/inkscape"
   id="svg3446"
   sodipodi:version="0.32"
   width="512"
   height="512"
   version="1.1"
   inkscape:version="0.48.1 r9760"
   sodipodi:docname="tj.svg">
  <sodipodi:namedview
     id="base"
     showgrid="false"
     inkscape:zoom="0.33060318"
     inkscape:cx="496.06299"
     inkscape:cy="248.03149"
     inkscape:window-width="1280"
     inkscape:window-height="723"
     inkscape:window-x="0"
     inkscape:window-y="24"
     inkscape:window-maximized="1"
     inkscape:current-layer="svg3446" />
  <metadata
     id="metadata3750">
    <rdf:RDF>
      <cc:Work
         rdf:about="">
        <dc:format>image/svg+xml</dc:format>
        <dc:type
           rdf:resource="http://purl.org/dc/dcmitype/StillImage" />
      </cc:Work>
    </rdf:RDF>
  </metadata>
  <defs
     id="defs3448">
    <clipPath
       clipPathUnits="userSpaceOnUse"
       id="clipPath7106">
      <rect
         id="rect7108"
         height="496.75943"
         x="248.37971"
         style="fill:#000000;fill-opacity:0.67000002;stroke:none"
         width="496.75943"
         y="-2.1550737e-05" />
    </clipPath>
  </defs>
  <g
     transform="matrix(1.03068,0,0,1.03068,-256,2.2211914e-5)"
     id="flag"
     clip-path="url(#clipPath7106)"
     inkscape:label="#g7039">
    <rect
       style="font-size:12px;fill:#ffffff;fill-opacity:1;fill-rule:evenodd;stroke-width:1pt"
       id="rect3450"
       width="992.909"
       height="496.7594"
       x="0"
       y="0" />
    <rect
       style="font-size:12px;fill:#239f40;fill-opacity:1;fill-rule:evenodd;stroke-width:1pt"
       id="rect3449"
       width="992.15692"
       height="134.98193"
       x="0"
       y="361.34515" />
    <rect
       style="font-size:12px;fill:#cd1738;fill-opacity:1;fill-rule:evenodd;stroke-width:1pt"
       id="rect3452"
       width="992.15692"
       height="134.98193"
       x="0"
       y="0" />
    <polygon
       d="m 391.56052,256.53049 3.57095,11.242 11.56027,-0.24853 -9.58829,6.87015 3.80868,10.91768 -9.49685,-6.99602 -9.20637,6.99602 3.71892,-11.19393 -9.49854,-6.59389 11.79527,0.0778 z"
       inkscape:randomized="0"
       inkscape:rounded="0"
       inkscape:flatsided="false"
       sodipodi:type="star"
       style="font-size:12px;fill:#ffff00;fill-opacity:1;fill-rule:evenodd;stroke:none"
       id="polygon3940"
       sodipodi:sides="5"
       sodipodi:cx="391.56052"
       sodipodi:cy="272.4404"
       sodipodi:r1="15.909912"
       sodipodi:r2="5.8771653"
       sodipodi:arg1="-1.5707964"
       sodipodi:arg2="-0.91776359"
       points="391.561,256.53 395.131,267.772 406.692,267.524 397.103,274.394 400.912,285.312 391.415,278.316 382.209,285.312 385.928,274.118 376.429,267.524 388.225,267.602 391.561,256.53 "
       transform="matrix(1,0,0,1.046066,11.9324,-62.41956)" />
    <polygon
       d="m 391.56052,256.53049 3.57095,11.242 11.56027,-0.24853 -9.58829,6.87015 3.80868,10.91768 -9.49685,-6.99602 -9.20637,6.99602 3.71892,-11.19393 -9.49854,-6.59389 11.79527,0.0778 z"
       inkscape:randomized="0"
       inkscape:rounded="0"
       inkscape:flatsided="false"
       sodipodi:type="star"
       style="font-size:12px;fill:#ffff00;fill-opacity:1;fill-rule:evenodd;stroke:none"
       id="polygon3941"
       sodipodi:sides="5"
       sodipodi:cx="391.56052"
       sodipodi:cy="272.4404"
       sodipodi:r1="15.909912"
       sodipodi:r2="5.8771653"
       sodipodi:arg1="-1.5707964"
       sodipodi:arg2="-0.91776359"
       points="391.561,256.53 395.131,267.772 406.692,267.524 397.103,274.394 400.912,285.312 391.415,278.316 382.209,285.312 385.928,274.118 376.429,267.524 388.225,267.602 391.561,256.53 "
       transform="matrix(1,0,0,1.046066,0.441907,-12.03836)" />
    <polygon
       d="m 391.56052,256.53049 3.57095,11.242 11.56027,-0.24853 -9.58829,6.87015 3.80868,10.91768 -9.49685,-6.99602 -9.20637,6.99602 3.71892,-11.19393 -9.49854,-6.59389 11.79527,0.0778 z"
       inkscape:randomized="0"
       inkscape:rounded="0"
       inkscape:flatsided="false"
       sodipodi:type="star"
       style="font-size:12px;fill:#ffff00;fill-opacity:1;fill-rule:evenodd;stroke:none"
       id="polygon3942"
       sodipodi:sides="5"
       sodipodi:cx="391.56052"
       sodipodi:cy="272.4404"
       sodipodi:r1="15.909912"
       sodipodi:r2="5.8771653"
       sodipodi:arg1="-1.5707964"
       sodipodi:arg2="-0.91776359"
       points="391.561,256.53 395.131,267.772 406.692,267.524 397.103,274.394 400.912,285.312 391.415,278.316 382.209,285.312 385.928,274.118 376.429,267.524 388.225,267.602 391.561,256.53 "
       transform="matrix(1,0,0,1.046066,50.82331,-103.52)" />
    <polygon
       d="m 391.56052,256.53049 3.57095,11.242 11.56027,-0.24853 -9.58829,6.87015 3.80868,10.91768 -9.49685,-6.99602 -9.20637,6.99602 3.71892,-11.19393 -9.49854,-6.59389 11.79527,0.0778 z"
       inkscape:randomized="0"
       inkscape:rounded="0"
       inkscape:flatsided="false"
       sodipodi:type="star"
       style="font-size:12px;fill:#ffff00;fill-opacity:1;fill-rule:evenodd;stroke:none"
       id="polygon3943"
       sodipodi:sides="5"
       sodipodi:cx="391.56052"
       sodipodi:cy="272.4404"
       sodipodi:r1="15.909912"
       sodipodi:r2="5.8771653"
       sodipodi:arg1="-1.5707964"
       sodipodi:arg2="-0.91776359"
       points="391.561,256.53 395.131,267.772 406.692,267.524 397.103,274.394 400.912,285.312 391.415,278.316 382.209,285.312 385.928,274.118 376.429,267.524 388.225,267.602 391.561,256.53 "
       transform="matrix(1,0,0,1.046066,103.1935,-117.2202)" />
    <polygon
       d="m 391.56052,256.53049 3.57095,11.242 11.56027,-0.24853 -9.58829,6.87015 3.80868,10.91768 -9.49685,-6.99602 -9.20637,6.99602 3.71892,-11.19393 -9.49854,-6.59389 11.79527,0.0778 z"
       inkscape:randomized="0"
       inkscape:rounded="0"
       inkscape:flatsided="false"
       sodipodi:type="star"
       style="font-size:12px;fill:#ffff00;fill-opacity:1;fill-rule:evenodd;stroke:none"
       id="polygon3944"
       sodipodi:sides="5"
       sodipodi:cx="391.56052"
       sodipodi:cy="272.4404"
       sodipodi:r1="15.909912"
       sodipodi:r2="5.8771653"
       sodipodi:arg1="-1.5707964"
       sodipodi:arg2="-0.91776359"
       points="391.561,256.53 395.131,267.772 406.692,267.524 397.103,274.394 400.912,285.312 391.415,278.316 382.209,285.312 385.928,274.118 376.429,267.524 388.225,267.602 391.561,256.53 "
       transform="matrix(1,0,0,1.046066,156.0054,-103.5201)" />
    <polygon
       d="m 391.56052,256.53049 3.57095,11.242 11.56027,-0.24853 -9.58829,6.87015 3.80868,10.91768 -9.49685,-6.99602 -9.20637,6.99602 3.71892,-11.19393 -9.49854,-6.59389 11.79527,0.0778 z"
       inkscape:randomized="0"
       inkscape:rounded="0"
       inkscape:flatsided="false"
       sodipodi:type="star"
       style="font-size:12px;fill:#ffff00;fill-opacity:1;fill-rule:evenodd;stroke:none"
       id="polygon3945"
       sodipodi:sides="5"
       sodipodi:cx="391.56052"
       sodipodi:cy="272.4404"
       sodipodi:r1="15.909912"
       sodipodi:r2="5.8771653"
       sodipodi:arg1="-1.5707964"
       sodipodi:arg2="-0.91776359"
       points="391.561,256.53 395.131,267.772 406.692,267.524 397.103,274.394 400.912,285.312 391.415,278.316 382.209,285.312 385.928,274.118 376.429,267.524 388.225,267.602 391.561,256.53 "
       transform="matrix(1,0,0,1.046066,194.8961,-62.19869)" />
    <polygon
       d="m 391.56052,256.53049 3.57095,11.242 11.56027,-0.24853 -9.58829,6.87015 3.80868,10.91768 -9.49685,-6.99602 -9.20637,6.99602 3.71892,-11.19393 -9.49854,-6.59389 11.79527,0.0778 z"
       inkscape:randomized="0"
       inkscape:rounded="0"
       inkscape:flatsided="false"
       sodipodi:type="star"
       style="font-size:12px;fill:#ffff00;fill-opacity:1;fill-rule:evenodd;stroke:none"
       id="polygon3946"
       sodipodi:sides="5"
       sodipodi:cx="391.56052"
       sodipodi:cy="272.4404"
       sodipodi:r1="15.909912"
       sodipodi:r2="5.8771653"
       sodipodi:arg1="-1.5707964"
       sodipodi:arg2="-0.91776359"
       points="391.561,256.53 395.131,267.772 406.692,267.524 397.103,274.394 400.912,285.312 391.415,278.316 382.209,285.312 385.928,274.118 376.429,267.524 388.225,267.602 391.561,256.53 "
       transform="matrix(1,0,0,1.046066,206.1656,-12.03848)" />
    <path
       sodipodi:type="arc"
       style="fill:#ffff00;fill-opacity:1;fill-rule:evenodd;stroke:none"
       id="path3952"
       d="m 516.09489,230.63272 c 0,9.25511 -9.33908,16.75785 -20.85942,16.75785 -11.52034,0 -20.85942,-7.50274 -20.85942,-16.75785 0,-9.2551 9.33908,-16.75785 20.85942,-16.75785 11.52034,0 20.85942,7.50275 20.85942,16.75785 z"
       sodipodi:cx="495.23547"
       sodipodi:cy="230.63272"
       sodipodi:rx="20.859421"
       sodipodi:ry="16.757851"
       transform="matrix(0.960674,0,0,0.902098,19.12395,20.78249)" />
    <rect
       style="font-size:12px;fill:#ffff00;fill-opacity:1;fill-rule:evenodd;stroke:none"
       id="rect3953"
       width="11.445346"
       height="53.281403"
       x="489.10306"
       y="239.49962" />
    <path
       inkscape:connector-curvature="0"
       style="font-size:12px;fill:#ffff00;fill-opacity:1;fill-rule:evenodd;stroke:none"
       d="m 595.315,288.765 c -4.981,10.57 -11.684,14.321 -22.625,14.028 -19.148,0.454 -23.475,-13.61 -25.971,-19.819 -6.768,8.92 -10.615,12.466 -21.85,12.251 -16.007,0.358 -24.088,-8.753 -30.055,-25.979 -5.967,17.116 -14.048,26.227 -30.055,25.869 -11.235,0.215 -15.082,-3.331 -21.85,-12.251 -2.496,6.209 -6.823,20.273 -25.971,19.819 -10.941,0.293 -17.644,-3.458 -22.128,-14.175 5.205,14.967 10.361,23.342 26.344,23.864 14.476,0.174 21.105,-8.21 24.242,-13.944 10.429,5.54 11.501,6.77 26.287,6.423 11.037,-0.355 17.377,-7.566 23.089,-14.427 5.712,6.861 12.052,14.072 23.089,14.427 14.786,0.347 15.858,-0.883 26.287,-6.423 3.137,5.734 9.766,14.118 24.242,13.944 15.983,-0.522 21.139,-8.897 26.925,-23.607 z"
       id="path4004"
       sodipodi:nodetypes="ccccccccccccccccc" />
    <path
       inkscape:connector-curvature="0"
       style="font-size:12px;fill:#ffff00;fill-opacity:1;fill-rule:evenodd;stroke:none"
       d="m 446.474,304.184 5.225,7.241 10.019,-0.294 -7.732,8.762 -15.137,0.387 -4.735,-6.342 8.743,-1.413 3.671,-8.32"
       id="path4048"
       sodipodi:nodetypes="cccccccc" />
    <path
       inkscape:connector-curvature="0"
       style="font-size:12px;fill:#ffff00;fill-opacity:1;fill-rule:evenodd;stroke:none"
       d="m 446.474,304.184 5.225,7.241 10.019,-0.294 -7.732,8.762 -15.137,0.387 -4.735,-6.342 8.743,-1.413 3.671,-8.32"
       id="path4049"
       sodipodi:nodetypes="cccccccc"
       transform="matrix(-1,0,0,1,989.4354,-1.525879e-5)" />
    <path
       inkscape:connector-curvature="0"
       style="fill:#ffff00;fill-opacity:1;fill-rule:evenodd;stroke:none"
       d="m 482.227,308.836 c 0,-0.039 6.875,0.039 6.875,0.039 l 5.781,-4.609 5.644,4.551 6.817,0.098 -6.133,9.062 -12.891,0 -6.093,-9.141 z"
       id="path4053"
       sodipodi:nodetypes="cccccccc" />
    <path
       inkscape:connector-curvature="0"
       style="font-size:12px;fill:#ffff00;fill-opacity:1;fill-rule:evenodd;stroke:none"
       d="m 569.199,341.11 c -26.731,-5.519 -44.622,-8.234 -74.413,-8.234 -29.791,0 -47.682,2.715 -74.244,8.168 l -0.037,-11.525 c 26.599,-5.503 44.49,-8.219 74.281,-8.219 29.791,0 47.682,2.716 74.281,8.219 l 0.132,11.591 z"
       id="path4100"
       sodipodi:nodetypes="ccccccc" />
    <path
       sodipodi:type="arc"
       style="fill:#ffffff;fill-opacity:1;fill-rule:evenodd;stroke:none"
       id="path4102"
       d="m 505.31268,228.8754 c 0,3.27919 -4.68702,5.9375 -10.46875,5.9375 -5.78173,0 -10.46875,-2.65831 -10.46875,-5.9375 0,-3.27919 4.68702,-5.9375 10.46875,-5.9375 5.78173,0 10.46875,2.65831 10.46875,5.9375 z"
       sodipodi:cx="494.84393"
       sodipodi:cy="228.8754"
       sodipodi:rx="10.46875"
       sodipodi:ry="5.9375" />
  </g>
</svg>
