<?xml version="1.0" encoding="UTF-8" standalone="no"?>
<!-- Created with Sodipodi ("http://www.sodipodi.com/") -->

<svg
   xmlns:dc="http://purl.org/dc/elements/1.1/"
   xmlns:cc="http://creativecommons.org/ns#"
   xmlns:rdf="http://www.w3.org/1999/02/22-rdf-syntax-ns#"
   xmlns:svg="http://www.w3.org/2000/svg"
   xmlns="http://www.w3.org/2000/svg"
   xmlns:sodipodi="http://sodipodi.sourceforge.net/DTD/sodipodi-0.dtd"
   xmlns:inkscape="http://www.inkscape.org/namespaces/inkscape"
   id="svg548"
   sodipodi:version="0.31.1win"
   width="512"
   height="512"
   sodipodi:docname="tr.svg"
   version="1.1"
   inkscape:version="0.48.1 r9760">
  <sodipodi:namedview
     id="base"
     showgrid="true"
     snaptogrid="false"
     snaptoguides="true"
     inkscape:zoom="0.5"
     inkscape:cx="256"
     inkscape:cy="256"
     inkscape:window-width="1280"
     inkscape:window-height="723"
     inkscape:window-x="0"
     inkscape:window-y="24"
     inkscape:window-maximized="1"
     inkscape:current-layer="svg548">
    <inkscape:grid
       empspacing="5"
       empopacity="0.4"
       opacity="0.2"
       empcolor="#0000ff"
       color="#0000ff"
       spacingy="14.1732pt"
       spacingx="14.1732pt"
       originy="0px"
       originx="0px"
       type="xygrid"
       id="GridFromPre046Settings" />
  </sodipodi:namedview>
  <metadata
     id="metadata4108">
    <rdf:RDF>
      <cc:Work
         rdf:about="">
        <dc:format>image/svg+xml</dc:format>
        <dc:type
           rdf:resource="http://purl.org/dc/dcmitype/StillImage" />
      </cc:Work>
    </rdf:RDF>
  </metadata>
  <defs
     id="defs550">
    <clipPath
       clipPathUnits="userSpaceOnUse"
       id="clipPath5848">
      <rect
         id="rect5850"
         height="354.33075"
         x="76.12574"
         style="fill:#000000;fill-opacity:0.67000002;stroke:none"
         width="354.33075"
         y="-3.3573051e-05" />
    </clipPath>
  </defs>
  <g
     id="flag"
     inkscape:label="#g6801">
    <rect
       sodipodi:fill-cmyk="(0 0.89524 0.8 0.047619)"
       y="1.6987324e-06"
       x="0"
       height="512"
       width="512"
       id="rect551"
       style="font-size:12px;fill:#f31930;fill-rule:evenodd;stroke-width:1pt" />
    <g
       transform="translate(55.474086,7.7293006)"
       id="g3005">
      <path
         inkscape:connector-curvature="0"
         style="font-size:12px;fill:none;stroke:#000000;stroke-width:0.72804599pt"
         d="m 393.35354,220.63525 c 0,0 0,0 0,0"
         id="path670" />
      <path
         sodipodi:type="arc"
         style="fill:#ffffff;fill-opacity:1;fill-rule:evenodd;stroke:none"
         id="path614"
         d="m 178.37312,445.6362 c 0,100.68583 -81.621993,182.30783 -182.3078281,182.30783 -100.6858319,0 -182.3078319,-81.622 -182.3078319,-182.30783 0,-100.68583 81.622,-182.30783 182.3078319,-182.30783 100.6858351,0 182.3078281,81.622 182.3078281,182.30783 z"
         sodipodi:cx="-3.9347081"
         sodipodi:cy="445.6362"
         sodipodi:rx="182.30783"
         sodipodi:ry="182.30783"
         transform="matrix(0.71361847,0,0,0.70145094,166.01453,-56.352232)" />
      <path
         sodipodi:type="arc"
         style="fill:#f31830;fill-opacity:1;fill-rule:evenodd;stroke:none"
         id="path615"
         d="m -15.738815,157.0914 c 0,44.18588 -35.819724,80.00561 -80.005593,80.00561 -44.185872,0 -80.005592,-35.81973 -80.005592,-80.00561 0,-44.18588 35.81972,-80.005607 80.005592,-80.005607 44.185869,0 80.005593,35.819727 80.005593,80.005607 z"
         sodipodi:cx="-95.744408"
         sodipodi:cy="157.0914"
         sodipodi:rx="80.005592"
         sodipodi:ry="80.005608"
         transform="matrix(1.300892,0,0,1.2787097,320.28444,55.365403)"
         sodipodi:fill-cmyk="(0 0.9 0.8 0.05)" />
      <path
         inkscape:connector-curvature="0"
         style="font-size:12px;fill:#ffffff;fill-rule:evenodd;stroke-width:1pt"
         d="m 318.62705,196.50433 -1.05009,47.27295 -44.10333,11.97343 43.47327,15.48216 -1.0501,43.35061 28.35188,-33.85445 42.84247,14.86284 -24.78155,-36.33243 30.24205,-36.12528 -46.4128,12.79846 -27.5118,-39.42829 z"
         id="path563" />
    </g>
  </g>
</svg>
