<?xml version="1.0" encoding="UTF-8" standalone="no"?>
<!-- Created with Sodipodi ("http://www.sodipodi.com/") -->

<svg
   xmlns:dc="http://purl.org/dc/elements/1.1/"
   xmlns:cc="http://creativecommons.org/ns#"
   xmlns:rdf="http://www.w3.org/1999/02/22-rdf-syntax-ns#"
   xmlns:svg="http://www.w3.org/2000/svg"
   xmlns="http://www.w3.org/2000/svg"
   xmlns:sodipodi="http://sodipodi.sourceforge.net/DTD/sodipodi-0.dtd"
   xmlns:inkscape="http://www.inkscape.org/namespaces/inkscape"
   inkscape:version="0.48.1 r9760"
   version="1.1"
   sodipodi:docname="tv.svg"
   height="512"
   width="512"
   sodipodi:version="0.33pre"
   id="svg2498">
  <sodipodi:namedview
     id="base"
     showgrid="true"
     snaptogrid="false"
     inkscape:zoom="0.98242188"
     inkscape:cx="256"
     inkscape:cy="256"
     inkscape:window-width="1280"
     inkscape:window-height="723"
     inkscape:window-x="0"
     inkscape:window-y="24"
     inkscape:window-maximized="1"
     inkscape:current-layer="svg2498" />
  <metadata
     id="metadata4144">
    <rdf:RDF>
      <cc:Work
         rdf:about="">
        <dc:format>image/svg+xml</dc:format>
        <dc:type
           rdf:resource="http://purl.org/dc/dcmitype/StillImage" />
      </cc:Work>
    </rdf:RDF>
  </metadata>
  <defs
     id="defs2500">
    <clipPath
       clipPathUnits="userSpaceOnUse"
       id="clipPath5808">
      <rect
         id="rect5810"
         height="512"
         x="0"
         style="fill:#000000;fill-opacity:0.67000002;stroke:none"
         width="512"
         y="0" />
    </clipPath>
  </defs>
  <g
     id="flag"
     clip-path="url(#clipPath5808)"
     inkscape:label="#g5713">
    <g
       transform="matrix(1.0043314,0,0,1.0043314,3.2724201e-5,-2.2302337)"
       id="g5564">
      <rect
         y="3.0912227e-06"
         x="0.0031373545"
         height="127.48226"
         width="256.68439"
         id="rect1310"
         style="font-size:12px;fill:#ffffff;fill-opacity:1;fill-rule:evenodd;stroke-width:1pt" />
      <path
         sodipodi:nodetypes="ccccc"
         id="path549"
         d="M 0.00313771,3.6133571e-4 -0.00755504,9.5682924 61.246357,41.042315 84.293863,41.710094 0.00313771,3.6133571e-4 z"
         style="fill:#cc0000;stroke:none"
         inkscape:connector-curvature="0" />
      <path
         sodipodi:nodetypes="cccc"
         id="path551"
         d="M 26.229347,3.6133571e-4 100.49042,38.790027 l 0,-38.78966566429 -74.261073,0 z"
         style="fill:#000066;stroke:none"
         inkscape:connector-curvature="0" />
      <path
         id="path552"
         d="m 110.39765,3.6133571e-4 0,49.51913366429 -110.39451229,0 0,28.296731 110.39451229,0 0,49.519204 33.96751,0 0,-49.519204 110.39413,0 0,-28.296731 -110.39413,0 0,-49.51913366429 -33.96751,0 z"
         style="fill:#cc0000;stroke:none"
         inkscape:connector-curvature="0" />
      <path
         sodipodi:nodetypes="cccc"
         id="path554"
         d="m 154.27188,3.6133571e-4 0,36.54986366429 L 226.91977,0.28348731 154.27188,3.6133571e-4 z"
         style="fill:#000066;stroke:none"
         inkscape:connector-curvature="0" />
      <path
         sodipodi:nodetypes="ccccc"
         id="path555"
         d="M 156.56563,40.535212 176.99875,40.370477 256.37324,0.28348731 235.31016,0.6266369 156.56563,40.535212 z"
         style="fill:#cc0000;stroke:none"
         inkscape:connector-curvature="0" />
      <path
         sodipodi:nodetypes="cccc"
         id="path700"
         d="m 0.00313771,86.069426 0,27.117584 L 50.954366,86.352549 0.00313771,86.069426 z"
         style="fill:#000066;stroke:none"
         inkscape:connector-curvature="0" />
      <path
         sodipodi:nodetypes="ccccccccc"
         id="path701"
         d="m 196.20432,87.189071 -21.23984,-0.164941 80.06355,39.86323 -0.52668,-9.12003 -58.29703,-30.578259 z M 19.899118,127.55946 94.970818,88.144288 75.253469,88.274802 0.00313802,127.50037"
         style="fill:#cc0000;stroke:none"
         inkscape:connector-curvature="0" />
      <path
         sodipodi:nodetypes="cccccccccccccccccccccc"
         id="path556"
         d="m 255.83474,11.199304 -60.63034,30.067145 59.82363,0.223878 0,44.803131 -50.95126,0 50.48007,27.351892 0.74095,13.91411 -26.96292,-0.32217 -73.79426,-36.227864 0,36.550034 -53.78145,0 0,-36.550034 -69.223297,36.451894 -31.26386051,0.0981 0,127.33472 509.51230751,0 0,-254.6698586 L 256.37324,3.6094057e-4 M 0.27200249,14.372691 0.00313771,40.818386 53.643156,41.490327 0.27200249,14.372691 z"
         style="fill:#000066;stroke:none"
         inkscape:connector-curvature="0" />
      <g
         style="fill:#009fca;fill-opacity:1"
         id="g3304"
         transform="matrix(0.51383391,0,0,0.51383391,-0.003673,1.9115443e-4)">
        <rect
           y="-1.5260001e-05"
           x="496.06299"
           height="496.06299"
           width="496.06299"
           id="rect3302"
           style="font-size:12px;fill:#009fca;fill-opacity:1;fill-rule:evenodd;stroke-width:1pt" />
        <rect
           y="248.03148"
           x="0"
           height="248.03151"
           width="523.49158"
           id="rect3303"
           style="font-size:12px;fill:#009fca;fill-opacity:1;fill-rule:evenodd;stroke-width:1pt" />
      </g>
      <g
         transform="matrix(0.51383391,0,0,0.51383391,-0.003673,260.00019)"
         id="g5547"
         style="fill:#009fca;fill-opacity:1">
        <rect
           style="font-size:12px;fill:#009fca;fill-opacity:1;fill-rule:evenodd;stroke-width:1pt"
           id="rect5549"
           width="486.15814"
           height="515.87305"
           x="505.96783"
           y="-19.809778" />
        <rect
           style="font-size:12px;fill:#009fca;fill-opacity:1;fill-rule:evenodd;stroke-width:1pt"
           id="rect5551"
           width="523.49158"
           height="521.40601"
           x="-7.1123663e-17"
           y="-25.343208"
           ry="0" />
      </g>
      <g
         id="g5553"
         transform="matrix(1.2509244,0,0,1.2509244,-129.15017,180.34236)">
        <polygon
           points="569.104,365.812 591.041,433.161 591.041,433.161 533.774,391.476 476.501,433.151 498.449,365.806 441.115,324.214 511.946,324.278 533.785,256.897 555.613,324.281 626.445,324.23 "
           style="font-size:12px;fill:#fff40d;fill-opacity:1;fill-rule:evenodd;stroke-width:1pt"
           id="polygon136"
           transform="matrix(0.25628031,0,0,0.24118593,337.92572,-50.489077)" />
        <polygon
           points="569.104,365.812 591.041,433.161 591.041,433.161 533.774,391.476 476.501,433.151 498.449,365.806 441.115,324.214 511.946,324.278 533.785,256.897 555.613,324.281 626.445,324.23 "
           style="font-size:12px;fill:#fff40d;fill-opacity:1;fill-rule:evenodd;stroke-width:1pt"
           id="polygon3314"
           transform="matrix(0.25628031,0,0,0.24118593,292.36813,79.065408)" />
        <polygon
           points="569.104,365.812 591.041,433.161 591.041,433.161 533.774,391.476 476.501,433.151 498.449,365.806 441.115,324.214 511.946,324.278 533.785,256.897 555.613,324.281 626.445,324.23 "
           style="font-size:12px;fill:#fff40d;fill-opacity:1;fill-rule:evenodd;stroke-width:1pt"
           id="polygon3315"
           transform="matrix(0.25628031,0,0,0.24118593,337.92577,49.73768)" />
        <polygon
           points="569.104,365.812 591.041,433.161 591.041,433.161 533.774,391.476 476.501,433.151 498.449,365.806 441.115,324.214 511.946,324.278 533.785,256.897 555.613,324.281 626.445,324.23 "
           style="font-size:12px;fill:#fff40d;fill-opacity:1;fill-rule:evenodd;stroke-width:1pt"
           id="polygon3317"
           transform="matrix(0.25628031,0,0,0.24118593,142.02793,143.70032)" />
        <polygon
           points="569.104,365.812 591.041,433.161 591.041,433.161 533.774,391.476 476.501,433.151 498.449,365.806 441.115,324.214 511.946,324.278 533.785,256.897 555.613,324.281 626.445,324.23 "
           style="font-size:12px;fill:#fff40d;fill-opacity:1;fill-rule:evenodd;stroke-width:1pt"
           id="polygon3319"
           transform="matrix(-0.25628031,0,0,-0.24118593,468.01372,249.76879)" />
        <polygon
           points="569.104,365.812 591.041,433.161 591.041,433.161 533.774,391.476 476.501,433.151 498.449,365.806 441.115,324.214 511.946,324.278 533.785,256.897 555.613,324.281 626.445,324.23 "
           style="font-size:12px;fill:#fff40d;fill-opacity:1;fill-rule:evenodd;stroke-width:1pt"
           id="polygon3320"
           transform="matrix(-0.25628031,0,0,-0.24118593,521.54391,175.73766)" />
        <polygon
           points="569.104,365.812 591.041,433.161 591.041,433.161 533.774,391.476 476.501,433.151 498.449,365.806 441.115,324.214 511.946,324.278 533.785,256.897 555.613,324.281 626.445,324.23 "
           style="font-size:12px;fill:#fff40d;fill-opacity:1;fill-rule:evenodd;stroke-width:1pt"
           id="polygon3321"
           transform="matrix(-0.25628031,0,0,-0.24118593,566.53213,160.36195)" />
        <polygon
           points="569.104,365.812 591.041,433.161 591.041,433.161 533.774,391.476 476.501,433.151 498.449,365.806 441.115,324.214 511.946,324.278 533.785,256.897 555.613,324.281 626.445,324.23 "
           style="font-size:12px;fill:#fff40d;fill-opacity:1;fill-rule:evenodd;stroke-width:1pt"
           id="polygon3322"
           transform="matrix(-0.25628031,0,0,-0.24118593,521.54391,288.49275)" />
        <polygon
           points="569.104,365.812 591.041,433.161 591.041,433.161 533.774,391.476 476.501,433.151 498.449,365.806 441.115,324.214 511.946,324.278 533.785,256.897 555.613,324.281 626.445,324.23 "
           style="font-size:12px;fill:#fff40d;fill-opacity:1;fill-rule:evenodd;stroke-width:1pt"
           id="polygon3323"
           transform="matrix(-0.25628031,0,0,-0.24118593,468.01372,301.59053)" />
      </g>
    </g>
  </g>
</svg>
