<?xml version="1.0" encoding="UTF-8" standalone="no"?>
<!-- Created with Sodipodi ("http://www.sodipodi.com/") -->

<svg
   xmlns:dc="http://purl.org/dc/elements/1.1/"
   xmlns:cc="http://creativecommons.org/ns#"
   xmlns:rdf="http://www.w3.org/1999/02/22-rdf-syntax-ns#"
   xmlns:svg="http://www.w3.org/2000/svg"
   xmlns="http://www.w3.org/2000/svg"
   xmlns:sodipodi="http://sodipodi.sourceforge.net/DTD/sodipodi-0.dtd"
   xmlns:inkscape="http://www.inkscape.org/namespaces/inkscape"
   id="svg548"
   sodipodi:version="0.33pre"
   width="512"
   height="512"
   sodipodi:docname="ug.svg"
   version="1.1"
   inkscape:version="0.48.1 r9760">
  <sodipodi:namedview
     id="base"
     showgrid="false"
     inkscape:zoom="0.44080424"
     inkscape:cx="372.04724"
     inkscape:cy="248.03149"
     inkscape:window-width="1280"
     inkscape:window-height="723"
     inkscape:window-x="0"
     inkscape:window-y="24"
     inkscape:window-maximized="1"
     inkscape:current-layer="svg548" />
  <metadata
     id="metadata4201">
    <rdf:RDF>
      <cc:Work
         rdf:about="">
        <dc:format>image/svg+xml</dc:format>
        <dc:type
           rdf:resource="http://purl.org/dc/dcmitype/StillImage" />
      </cc:Work>
    </rdf:RDF>
  </metadata>
  <defs
     id="defs550">
    <clipPath
       clipPathUnits="userSpaceOnUse"
       id="clipPath4282">
      <rect
         id="rect4284"
         height="496.06256"
         x="124.01564"
         style="fill:#000000;fill-opacity:0.67000002;stroke:none"
         width="496.06256"
         y="0.00019983242" />
    </clipPath>
  </defs>
  <g
     transform="matrix(1.0321279,0,0,1.0321279,-128,-2.0625261e-4)"
     id="flag"
     clip-path="url(#clipPath4282)"
     inkscape:label="#g4203">
    <rect
       style="font-size:12px;fill:#ffe700;fill-opacity:1;fill-rule:evenodd;stroke-width:1pt"
       id="rect585"
       width="744.09448"
       height="82.665352"
       x="0"
       y="330.7323" />
    <rect
       style="font-size:12px;fill:#000000;fill-opacity:1;fill-rule:evenodd;stroke-width:1pt"
       id="rect586"
       width="744.09448"
       height="82.665352"
       x="0"
       y="248.03148" />
    <rect
       style="font-size:12px;fill:#de3908;fill-opacity:1;fill-rule:evenodd;stroke-width:1pt"
       id="rect587"
       width="744.09448"
       height="82.665352"
       x="0"
       y="165.36615" />
    <rect
       style="font-size:12px;fill:#ffe700;fill-opacity:1;fill-rule:evenodd;stroke-width:1pt"
       id="rect588"
       width="744.09448"
       height="82.665352"
       x="0"
       y="82.701042" />
    <rect
       style="font-size:12px;fill:#000000;fill-opacity:1;fill-rule:evenodd;stroke-width:1pt"
       id="rect589"
       width="744.09448"
       height="82.665352"
       x="0"
       y="0.00022099999" />
    <g
       id="g568"
       transform="matrix(0.671558,0,0,0.671558,106.7819,93.69879)">
      <path
         sodipodi:type="arc"
         style="fill:#fffdff;fill-opacity:1;fill-rule:evenodd;stroke:#000000;stroke-width:1pt;stroke-linecap:butt;stroke-linejoin:miter;stroke-opacity:1"
         id="path567"
         d="m 505,232.31299 c 0,63.51274 -51.48725,115 -115,115 -63.51275,0 -115,-51.48726 -115,-115 0,-63.51275 51.48725,-115 115,-115 63.51275,0 115,51.48725 115,115 z"
         sodipodi:cx="390"
         sodipodi:cy="232.31299"
         sodipodi:rx="115"
         sodipodi:ry="115"
         transform="translate(5,-2.500015)" />
      <path
         inkscape:connector-curvature="0"
         style="fill:#de3108;fill-opacity:1;fill-rule:evenodd;stroke:#000000;stroke-width:1pt;stroke-linecap:butt;stroke-linejoin:miter;stroke-opacity:1"
         d="m 374.711,141.653 -7.466,-13.752 c 2.881,-2.881 7.728,-5.108 15.455,-5.108 0,0.524 -0.786,15.062 -0.786,15.062 l -7.203,3.798 z"
         id="path556"
         sodipodi:nodetypes="ccccc" />
      <path
         inkscape:connector-curvature="0"
         style="fill:#ffe700;fill-opacity:1;fill-rule:evenodd;stroke:#000000;stroke-width:1pt;stroke-linecap:butt;stroke-linejoin:miter;stroke-opacity:1"
         d="m 381.914,137.986 1.048,-15.193 c 0,0 15.455,-0.916 23.837,9.168 0.131,-0.131 -8.251,11.787 -8.251,11.787 l -16.634,-5.762 z"
         id="path557"
         sodipodi:nodetypes="ccccc" />
      <path
         inkscape:connector-curvature="0"
         style="fill:#de3108;fill-opacity:1;fill-rule:evenodd;stroke:#000000;stroke-width:1pt;stroke-linecap:butt;stroke-linejoin:miter;stroke-opacity:1"
         d="m 398.81,143.617 7.596,-11.787 c 5.108,5.37 7.203,9.168 7.989,14.931 0.131,0.131 -12.049,3.012 -12.049,2.881 0,-0.131 -3.405,-5.894 -3.536,-6.025 z"
         id="path558"
         sodipodi:nodetypes="ccccc" />
      <path
         inkscape:connector-curvature="0"
         style="fill:#000000;fill-opacity:1;fill-rule:evenodd;stroke:#000000;stroke-width:1.25;stroke-linecap:round;stroke-linejoin:round;stroke-opacity:1;stroke-dasharray:none"
         d="m 378.509,338.242 c 0,0 14.276,-16.372 42.042,-12.835 -4.191,-6.811 -17.681,-6.025 -17.681,-6.025 0,0 -4.191,-31.826 -0.917,-33.398 3.274,-1.572 17.157,0.131 17.157,0.131 1.833,0 4.977,-4.977 2.489,-8.12 -2.489,-3.144 -9.823,-15.193 -6.811,-17.551 3.013,-2.357 19.384,1.31 19.384,1.31 l -46.233,-59.199 c 0,0 -4.715,-22.265 4.715,-33.005 11.395,-9.43 10.216,-19.646 9.823,-19.515 -1.572,-10.347 -17.288,-17.813 -27.897,-8.251 -6.287,7.596 -2.096,13.359 -2.096,13.359 0,0 -16.502,4.453 -17.157,7.334 -0.655,2.882 18.598,-0.523 18.598,-0.523 l -1.834,13.228 c 0,0 -37.458,34.052 -8.775,63.521 0.262,-0.131 0.917,-1.31 0.917,-1.31 0,0 10.085,12.443 20.693,15.193 9.954,10.216 9.038,8.644 9.038,8.644 0,0 1.964,16.11 0.131,19.253 -2.489,-0.786 -27.897,-1.702 -31.696,-0.262 -3.405,1.048 -16.502,0.393 -13.228,21.742 2.488,-5.763 4.715,-10.871 4.715,-10.871 0,0 -0.393,7.727 2.751,10.478 -0.524,-8.121 3.012,-13.621 3.012,-13.621 0,0 0.655,8.906 2.619,10.215 1.965,1.31 1.965,-14.407 12.836,-13.097 10.87,1.31 18.729,0.917 18.729,0.917 0,0 3.667,30.778 2.488,33.66 -7.859,-1.834 -26.587,0.786 -27.766,5.501 11.001,-0.655 16.11,0.654 16.11,0.654 0,0 -8.906,7.859 -6.156,12.443 z"
         id="path565"
         sodipodi:nodetypes="ccccccccccccccccccccccccccccccccc" />
      <path
         inkscape:connector-curvature="0"
         style="fill:#9ca69c;fill-opacity:1;fill-rule:evenodd;stroke:#9ca69c;stroke-width:1.25;stroke-linecap:round;stroke-linejoin:round;stroke-opacity:1;stroke-dasharray:none"
         d="m 382.924,170.301 c 0,0 -27.256,30.042 -15.497,53.031 0.626,-3.206 0.353,-5.22 0.746,-5.089 -0.655,-0.393 3.38,2.766 3.073,2.151 0.086,-1.662 -1.229,-5.224 -1.229,-5.224 1.229,0.307 2.459,0.615 3.688,0.922 -0.717,-1.332 -1.435,-2.663 -2.152,-3.995 1.742,0.205 3.483,0.409 5.225,0.614 0,0 -1.844,-4.917 -1.229,-4.917 0.614,0 4.302,0.307 4.302,0.307 -7.751,-13.91 -0.439,-25.462 3.073,-37.8 z"
         id="path552"
         sodipodi:nodetypes="ccccccccccc" />
      <path
         inkscape:connector-curvature="0"
         style="fill:#9ca69c;fill-opacity:1;fill-rule:evenodd;stroke:#9ca69c;stroke-width:1pt;stroke-linecap:butt;stroke-linejoin:miter;stroke-opacity:1"
         d="m 392.392,144.534 c 0,0 1.441,10.347 -4.191,13.359 -0.917,0.655 -4.453,1.834 -3.929,3.93 0.655,2.881 2.226,2.357 4.453,1.833 5.893,-1.048 12.704,-13.621 3.667,-19.122 z"
         id="path554"
         sodipodi:nodetypes="ccccc" />
      <path
         sodipodi:type="arc"
         style="fill:#ffffff;fill-opacity:1;fill-rule:evenodd;stroke:none"
         id="path555"
         d="m 382.30713,153.44034 c 0,1.22967 -0.99685,2.22652 -2.22653,2.22652 -1.22968,0 -2.22654,-0.99685 -2.22654,-2.22652 0,-1.22968 0.99686,-2.22653 2.22654,-2.22653 1.22968,0 2.22653,0.99685 2.22653,2.22653 z"
         sodipodi:cx="380.0806"
         sodipodi:cy="153.44034"
         sodipodi:rx="2.226532"
         sodipodi:ry="2.2265241" />
      <path
         inkscape:connector-curvature="0"
         style="fill:#de3108;fill-opacity:1;fill-rule:evenodd;stroke:#000000;stroke-width:1pt;stroke-linecap:butt;stroke-linejoin:miter;stroke-opacity:1"
         d="m 373.532,162.084 c -1.441,1.179 -9.037,9.038 -1.572,11.919 7.728,-2.096 5.632,-3.536 7.335,-5.239 0.044,-3.536 -3.842,-4.453 -5.763,-6.68 z"
         id="path559"
         sodipodi:nodetypes="cccc" />
      <path
         inkscape:connector-curvature="0"
         style="fill:#9ca69c;fill-opacity:1;fill-rule:evenodd;stroke:#9ca69c;stroke-width:1.25;stroke-linecap:round;stroke-linejoin:round;stroke-opacity:1;stroke-dasharray:none"
         d="m 390.034,236.346 c -0.393,1.703 -2.095,7.989 0.262,12.835 6.549,-2.75 9.561,-1.965 11.788,-0.524 -5.369,-4.322 -7.465,-6.156 -12.05,-12.311 z"
         id="path560"
         sodipodi:nodetypes="cccc" />
      <path
         inkscape:connector-curvature="0"
         style="fill:#ffffff;fill-opacity:1;fill-rule:evenodd;stroke:#ffffff;stroke-width:1.25;stroke-linecap:round;stroke-linejoin:round;stroke-opacity:1;stroke-dasharray:none"
         d="m 401.298,266.076 0.393,14.669 c 0,0 5.108,0.917 7.465,0 2.358,-0.917 -0.131,-10.216 -7.858,-14.669 z"
         id="path561" />
      <path
         inkscape:connector-curvature="0"
         style="fill:#9ca69c;fill-opacity:1;fill-rule:evenodd;stroke:#000000;stroke-width:1pt;stroke-linecap:butt;stroke-linejoin:miter;stroke-opacity:1"
         d="m 438.363,267.91 c 0,0 -9.43,-22.789 -33.529,-28.552 -24.099,-5.763 -20.956,-31.433 -18.991,-33.005 1.048,-2.227 1.834,-5.632 8.775,-2.357 6.942,3.274 38.899,19.383 43.483,20.169 4.584,0.786 0.655,44.269 0.262,43.745 z"
         id="path564"
         sodipodi:nodetypes="cccccc" />
      <path
         inkscape:connector-curvature="0"
         style="fill:#de3108;fill-opacity:1;fill-rule:evenodd;stroke:#000000;stroke-width:1.25;stroke-linecap:butt;stroke-linejoin:round;stroke-opacity:1;stroke-dasharray:none"
         d="m 415.443,239.227 c -0.393,0.262 32.219,19.252 22.396,35.624 9.3,-6.156 6.287,-16.895 6.287,-16.895 0,0 7.596,19.777 -10.871,29.469 1.965,1.703 3.275,1.309 3.275,1.309 l -3.144,3.144 c 0,0 -1.441,2.357 11.002,-3.668 -3.406,2.751 -3.667,4.715 -3.667,4.715 0,0 0.916,2.62 9.037,-4.453 -6.549,7.073 -7.99,10.74 -7.99,10.609 17.681,-1.572 56.187,-59.068 -12.18,-76.095 3.668,3.799 3.143,3.275 3.143,3.275 l -17.288,12.966 z"
         id="path563"
         sodipodi:nodetypes="ccccccccccccc" />
      <path
         inkscape:connector-curvature="0"
         style="fill:#ffffff;fill-opacity:1;fill-rule:evenodd;stroke:#000000;stroke-width:1.25;stroke-linecap:round;stroke-linejoin:round;stroke-opacity:1;stroke-dasharray:none"
         d="m 416.884,233.595 c 4.453,3.143 6.024,4.191 6.548,5.763 -4.06,-0.916 -7.727,-0.655 -7.727,-0.655 0,0 -8.775,-8.382 -10.347,-9.037 -1.179,0 -7.989,-4.322 -7.989,-4.322 -3.405,-1.703 -6.548,-13.49 6.025,-10.085 12.965,6.155 14.799,6.68 14.799,6.68 5.152,1.615 10.303,3.231 15.455,4.846 2.969,3.318 5.937,6.636 8.906,9.954 0,0 -15.847,-7.859 -17.812,-7.99 4.322,3.536 6.811,8.382 6.811,8.382 -5.021,-1.441 -9.386,-2.75 -14.669,-3.536 z"
         id="path562"
         sodipodi:nodetypes="cccccccccccc" />
      <path
         inkscape:connector-curvature="0"
         style="fill:none;stroke:#ffffff;stroke-width:1.25;stroke-linecap:round;stroke-linejoin:miter;stroke-opacity:1;stroke-dasharray:none"
         d="m 355.196,163.263 c 0,0 15.193,-3.667 17.026,-3.143"
         id="path566" />
    </g>
    <rect
       style="font-size:12px;fill:#de3908;fill-opacity:1;fill-rule:evenodd;stroke-width:1pt"
       id="rect584"
       width="744.09448"
       height="82.665352"
       x="0"
       y="413.3974" />
  </g>
</svg>
