<?xml version="1.0" encoding="UTF-8" standalone="no"?>
<!-- Created with Sodipodi ("http://www.sodipodi.com/") -->

<svg
   xmlns:dc="http://purl.org/dc/elements/1.1/"
   xmlns:cc="http://creativecommons.org/ns#"
   xmlns:rdf="http://www.w3.org/1999/02/22-rdf-syntax-ns#"
   xmlns:svg="http://www.w3.org/2000/svg"
   xmlns="http://www.w3.org/2000/svg"
   xmlns:sodipodi="http://sodipodi.sourceforge.net/DTD/sodipodi-0.dtd"
   xmlns:inkscape="http://www.inkscape.org/namespaces/inkscape"
   id="svg548"
   sodipodi:version="0.32"
   width="512"
   height="512"
   sodipodi:docname="uz.svg"
   version="1.1"
   inkscape:version="0.48.1 r9760">
  <sodipodi:namedview
     id="base"
     showgrid="true"
     snaptoguides="false"
     snaptogrid="false"
     inkscape:zoom="0.33060318"
     inkscape:cx="496.06299"
     inkscape:cy="248.03149"
     inkscape:window-width="1280"
     inkscape:window-height="723"
     inkscape:window-x="0"
     inkscape:window-y="24"
     inkscape:window-maximized="1"
     inkscape:current-layer="svg548" />
  <metadata
     id="metadata3215">
    <rdf:RDF>
      <cc:Work
         rdf:about="">
        <dc:format>image/svg+xml</dc:format>
        <dc:type
           rdf:resource="http://purl.org/dc/dcmitype/StillImage" />
      </cc:Work>
    </rdf:RDF>
  </metadata>
  <defs
     id="defs550">
    <clipPath
       clipPathUnits="userSpaceOnUse"
       id="clipPath5874">
      <rect
         id="rect5876"
         height="496.06332"
         x="0"
         style="fill:#000000;fill-opacity:0.67000002;stroke:none"
         width="496.06332"
         y="-0.00031739267" />
    </clipPath>
  </defs>
  <g
     transform="matrix(1.0321263,0,0,1.0321263,0,3.2758933e-4)"
     id="flag"
     clip-path="url(#clipPath5874)"
     inkscape:label="#g5807">
    <rect
       style="font-size:12px;fill:#ffffff;fill-opacity:1;fill-rule:evenodd;stroke-width:1pt"
       id="rect568"
       width="992.12592"
       height="496.06296"
       x="0"
       y="-0.000325" />
    <rect
       style="font-size:12px;fill:#94acd4;fill-opacity:1;fill-rule:evenodd;stroke-width:1pt"
       id="rect558"
       width="992.12604"
       height="171.70282"
       x="0"
       y="-1.5e-05" />
    <rect
       style="font-size:12px;fill:#b73000;fill-opacity:1;fill-rule:evenodd;stroke-width:1pt"
       id="rect555"
       width="992.12604"
       height="11.373683"
       x="0"
       y="160.32909" />
    <rect
       style="font-size:12px;fill:#00a900;fill-opacity:1;fill-rule:evenodd;stroke-width:1pt"
       id="rect557"
       width="992.12604"
       height="160.32915"
       x="0"
       y="335.73386" />
    <rect
       style="font-size:12px;fill:#b73000;fill-opacity:1;fill-rule:evenodd;stroke-width:1pt"
       id="rect556"
       width="992.12604"
       height="11.373683"
       x="0"
       y="335.73392" />
    <polygon
       d="m 205.58449,128.73621 -10.01635,-6.84893 -9.90282,7.01206 3.41849,-11.64254 -9.72901,-7.2513 12.12909,-0.34657 3.88997,-11.493607 4.0777,11.428357 12.13314,0.14786 -9.60893,7.40967 z"
       inkscape:randomized="0"
       inkscape:rounded="0"
       inkscape:flatsided="false"
       sodipodi:type="star"
       style="font-size:12px;fill:#feffff;fill-opacity:1;fill-rule:evenodd;stroke-width:1pt"
       id="polygon561"
       sodipodi:sides="5"
       sodipodi:cx="195.51263"
       sodipodi:cy="115.10958"
       sodipodi:r1="16.944826"
       sodipodi:r2="6.7779307"
       sodipodi:arg1="0.93428808"
       sodipodi:arg2="1.5626066"
       points="205.584,128.736 195.568,121.887 185.665,128.899 189.084,117.257 179.355,110.006 191.484,109.659 195.374,98.1653 199.452,109.594 211.585,109.742 201.976,117.151 205.584,128.736 "
       transform="matrix(0.922891,0,0,0.927987,71.37953,-68.42821)" />
    <polygon
       d="m 205.58449,128.73621 -10.01635,-6.84893 -9.90282,7.01206 3.41849,-11.64254 -9.72901,-7.2513 12.12909,-0.34657 3.88997,-11.493607 4.0777,11.428357 12.13314,0.14786 -9.60893,7.40967 z"
       inkscape:randomized="0"
       inkscape:rounded="0"
       inkscape:flatsided="false"
       sodipodi:type="star"
       style="font-size:12px;fill:#feffff;fill-opacity:1;fill-rule:evenodd;stroke-width:1pt"
       id="polygon562"
       sodipodi:sides="5"
       sodipodi:cx="195.51263"
       sodipodi:cy="115.10958"
       sodipodi:r1="16.944826"
       sodipodi:r2="6.7779307"
       sodipodi:arg1="0.93428808"
       sodipodi:arg2="1.5626066"
       points="205.584,128.736 195.568,121.887 185.665,128.899 189.084,117.257 179.355,110.006 191.484,109.659 195.374,98.1653 199.452,109.594 211.585,109.742 201.976,117.151 205.584,128.736 "
       transform="matrix(0.922891,0,0,0.927987,27.81035,17.29559)" />
    <polygon
       d="m 205.58449,128.73621 -10.01635,-6.84893 -9.90282,7.01206 3.41849,-11.64254 -9.72901,-7.2513 12.12909,-0.34657 3.88997,-11.493607 4.0777,11.428357 12.13314,0.14786 -9.60893,7.40967 z"
       inkscape:randomized="0"
       inkscape:rounded="0"
       inkscape:flatsided="false"
       sodipodi:type="star"
       style="font-size:12px;fill:#feffff;fill-opacity:1;fill-rule:evenodd;stroke-width:1pt"
       id="polygon563"
       sodipodi:sides="5"
       sodipodi:cx="195.51263"
       sodipodi:cy="115.10958"
       sodipodi:r1="16.944826"
       sodipodi:r2="6.7779307"
       sodipodi:arg1="0.93428808"
       sodipodi:arg2="1.5626066"
       points="205.584,128.736 195.568,121.887 185.665,128.899 189.084,117.257 179.355,110.006 191.484,109.659 195.374,98.1653 199.452,109.594 211.585,109.742 201.976,117.151 205.584,128.736 "
       transform="matrix(0.922891,0,0,0.927987,71.79846,17.29559)" />
    <polygon
       d="m 205.58449,128.73621 -10.01635,-6.84893 -9.90282,7.01206 3.41849,-11.64254 -9.72901,-7.2513 12.12909,-0.34657 3.88997,-11.493607 4.0777,11.428357 12.13314,0.14786 -9.60893,7.40967 z"
       inkscape:randomized="0"
       inkscape:rounded="0"
       inkscape:flatsided="false"
       sodipodi:type="star"
       style="font-size:12px;fill:#feffff;fill-opacity:1;fill-rule:evenodd;stroke-width:1pt"
       id="polygon564"
       sodipodi:sides="5"
       sodipodi:cx="195.51263"
       sodipodi:cy="115.10958"
       sodipodi:r1="16.944826"
       sodipodi:r2="6.7779307"
       sodipodi:arg1="0.93428808"
       sodipodi:arg2="1.5626066"
       points="205.584,128.736 195.568,121.887 185.665,128.899 189.084,117.257 179.355,110.006 191.484,109.659 195.374,98.1653 199.452,109.594 211.585,109.742 201.976,117.151 205.584,128.736 "
       transform="matrix(0.922891,0,0,0.927987,112.4351,17.29559)" />
    <polygon
       d="m 205.58449,128.73621 -10.01635,-6.84893 -9.90282,7.01206 3.41849,-11.64254 -9.72901,-7.2513 12.12909,-0.34657 3.88997,-11.493607 4.0777,11.428357 12.13314,0.14786 -9.60893,7.40967 z"
       inkscape:randomized="0"
       inkscape:rounded="0"
       inkscape:flatsided="false"
       sodipodi:type="star"
       style="font-size:12px;fill:#feffff;fill-opacity:1;fill-rule:evenodd;stroke-width:1pt"
       id="polygon565"
       sodipodi:sides="5"
       sodipodi:cx="195.51263"
       sodipodi:cy="115.10958"
       sodipodi:r1="16.944826"
       sodipodi:r2="6.7779307"
       sodipodi:arg1="0.93428808"
       sodipodi:arg2="1.5626066"
       points="205.584,128.736 195.568,121.887 185.665,128.899 189.084,117.257 179.355,110.006 191.484,109.659 195.374,98.1653 199.452,109.594 211.585,109.742 201.976,117.151 205.584,128.736 "
       transform="matrix(0.922891,0,0,0.927987,150.1392,17.29559)" />
    <polygon
       d="m 205.58449,128.73621 -10.01635,-6.84893 -9.90282,7.01206 3.41849,-11.64254 -9.72901,-7.2513 12.12909,-0.34657 3.88997,-11.493607 4.0777,11.428357 12.13314,0.14786 -9.60893,7.40967 z"
       inkscape:randomized="0"
       inkscape:rounded="0"
       inkscape:flatsided="false"
       sodipodi:type="star"
       style="font-size:12px;fill:#feffff;fill-opacity:1;fill-rule:evenodd;stroke-width:1pt"
       id="polygon566"
       sodipodi:sides="5"
       sodipodi:cx="195.51263"
       sodipodi:cy="115.10958"
       sodipodi:r1="16.944826"
       sodipodi:r2="6.7779307"
       sodipodi:arg1="0.93428808"
       sodipodi:arg2="1.5626066"
       points="205.584,128.736 195.568,121.887 185.665,128.899 189.084,117.257 179.355,110.006 191.484,109.659 195.374,98.1653 199.452,109.594 211.585,109.742 201.976,117.151 205.584,128.736 "
       transform="matrix(0.922891,0,0,0.927987,-18.27242,17.29559)" />
    <polygon
       d="m 205.58449,128.73621 -10.01635,-6.84893 -9.90282,7.01206 3.41849,-11.64254 -9.72901,-7.2513 12.12909,-0.34657 3.88997,-11.493607 4.0777,11.428357 12.13314,0.14786 -9.60893,7.40967 z"
       inkscape:randomized="0"
       inkscape:rounded="0"
       inkscape:flatsided="false"
       sodipodi:type="star"
       style="font-size:12px;fill:#feffff;fill-opacity:1;fill-rule:evenodd;stroke-width:1pt"
       id="polygon567"
       sodipodi:sides="5"
       sodipodi:cx="195.51263"
       sodipodi:cy="115.10958"
       sodipodi:r1="16.944826"
       sodipodi:r2="6.7779307"
       sodipodi:arg1="0.93428808"
       sodipodi:arg2="1.5626066"
       points="205.584,128.736 195.568,121.887 185.665,128.899 189.084,117.257 179.355,110.006 191.484,109.659 195.374,98.1653 199.452,109.594 211.585,109.742 201.976,117.151 205.584,128.736 "
       transform="matrix(0.922891,0,0,0.927987,26.97249,-25.25041)" />
    <polygon
       d="m 205.58449,128.73621 -10.01635,-6.84893 -9.90282,7.01206 3.41849,-11.64254 -9.72901,-7.2513 12.12909,-0.34657 3.88997,-11.493607 4.0777,11.428357 12.13314,0.14786 -9.60893,7.40967 z"
       inkscape:randomized="0"
       inkscape:rounded="0"
       inkscape:flatsided="false"
       sodipodi:type="star"
       style="font-size:12px;fill:#feffff;fill-opacity:1;fill-rule:evenodd;stroke-width:1pt"
       id="polygon568"
       sodipodi:sides="5"
       sodipodi:cx="195.51263"
       sodipodi:cy="115.10958"
       sodipodi:r1="16.944826"
       sodipodi:r2="6.7779307"
       sodipodi:arg1="0.93428808"
       sodipodi:arg2="1.5626066"
       points="205.584,128.736 195.568,121.887 185.665,128.899 189.084,117.257 179.355,110.006 191.484,109.659 195.374,98.1653 199.452,109.594 211.585,109.742 201.976,117.151 205.584,128.736 "
       transform="matrix(0.922891,0,0,0.927987,71.37953,-25.25041)" />
    <polygon
       d="m 205.58449,128.73621 -10.01635,-6.84893 -9.90282,7.01206 3.41849,-11.64254 -9.72901,-7.2513 12.12909,-0.34657 3.88997,-11.493607 4.0777,11.428357 12.13314,0.14786 -9.60893,7.40967 z"
       inkscape:randomized="0"
       inkscape:rounded="0"
       inkscape:flatsided="false"
       sodipodi:type="star"
       style="font-size:12px;fill:#feffff;fill-opacity:1;fill-rule:evenodd;stroke-width:1pt"
       id="polygon569"
       sodipodi:sides="5"
       sodipodi:cx="195.51263"
       sodipodi:cy="115.10958"
       sodipodi:r1="16.944826"
       sodipodi:r2="6.7779307"
       sodipodi:arg1="0.93428808"
       sodipodi:arg2="1.5626066"
       points="205.584,128.736 195.568,121.887 185.665,128.899 189.084,117.257 179.355,110.006 191.484,109.659 195.374,98.1653 199.452,109.594 211.585,109.742 201.976,117.151 205.584,128.736 "
       transform="matrix(0.922891,0,0,0.927987,113.2729,-25.25041)" />
    <polygon
       d="m 205.58449,128.73621 -10.01635,-6.84893 -9.90282,7.01206 3.41849,-11.64254 -9.72901,-7.2513 12.12909,-0.34657 3.88997,-11.493607 4.0777,11.428357 12.13314,0.14786 -9.60893,7.40967 z"
       inkscape:randomized="0"
       inkscape:rounded="0"
       inkscape:flatsided="false"
       sodipodi:type="star"
       style="font-size:12px;fill:#feffff;fill-opacity:1;fill-rule:evenodd;stroke-width:1pt"
       id="polygon570"
       sodipodi:sides="5"
       sodipodi:cx="195.51263"
       sodipodi:cy="115.10958"
       sodipodi:r1="16.944826"
       sodipodi:r2="6.7779307"
       sodipodi:arg1="0.93428808"
       sodipodi:arg2="1.5626066"
       points="205.584,128.736 195.568,121.887 185.665,128.899 189.084,117.257 179.355,110.006 191.484,109.659 195.374,98.1653 199.452,109.594 211.585,109.742 201.976,117.151 205.584,128.736 "
       transform="matrix(0.922891,0,0,0.927987,149.7202,-25.25041)" />
    <polygon
       d="m 205.58449,128.73621 -10.01635,-6.84893 -9.90282,7.01206 3.41849,-11.64254 -9.72901,-7.2513 12.12909,-0.34657 3.88997,-11.493607 4.0777,11.428357 12.13314,0.14786 -9.60893,7.40967 z"
       inkscape:randomized="0"
       inkscape:rounded="0"
       inkscape:flatsided="false"
       sodipodi:type="star"
       style="font-size:12px;fill:#feffff;fill-opacity:1;fill-rule:evenodd;stroke-width:1pt"
       id="polygon571"
       sodipodi:sides="5"
       sodipodi:cx="195.51263"
       sodipodi:cy="115.10958"
       sodipodi:r1="16.944826"
       sodipodi:r2="6.7779307"
       sodipodi:arg1="0.93428808"
       sodipodi:arg2="1.5626066"
       points="205.584,128.736 195.568,121.887 185.665,128.899 189.084,117.257 179.355,110.006 191.484,109.659 195.374,98.1653 199.452,109.594 211.585,109.742 201.976,117.151 205.584,128.736 "
       transform="matrix(0.922891,0,0,0.927987,149.3013,-68.42821)" />
    <polygon
       d="m 205.58449,128.73621 -10.01635,-6.84893 -9.90282,7.01206 3.41849,-11.64254 -9.72901,-7.2513 12.12909,-0.34657 3.88997,-11.493607 4.0777,11.428357 12.13314,0.14786 -9.60893,7.40967 z"
       inkscape:randomized="0"
       inkscape:rounded="0"
       inkscape:flatsided="false"
       sodipodi:type="star"
       style="font-size:12px;fill:#feffff;fill-opacity:1;fill-rule:evenodd;stroke-width:1pt"
       id="polygon572"
       sodipodi:sides="5"
       sodipodi:cx="195.51263"
       sodipodi:cy="115.10958"
       sodipodi:r1="16.944826"
       sodipodi:r2="6.7779307"
       sodipodi:arg1="0.93428808"
       sodipodi:arg2="1.5626066"
       points="205.584,128.736 195.568,121.887 185.665,128.899 189.084,117.257 179.355,110.006 191.484,109.659 195.374,98.1653 199.452,109.594 211.585,109.742 201.976,117.151 205.584,128.736 "
       transform="matrix(0.922891,0,0,0.927987,112.854,-68.42821)" />
    <path
       inkscape:connector-curvature="0"
       style="fill:#ffffff;fill-opacity:1;fill-rule:evenodd;stroke:none"
       d="M 142.438,28.5322 C 93.0037,15.0564 61.6884,49.8629 62.1597,81.0559 62.6309,112.249 91.5373,145.275 136.154,137.036 66.0521,169.713 30.2003,118.252 31.6297,77.3903 34.0916,29.0962 88.6747,-10.289 142.438,28.5322 z"
       id="path575"
       sodipodi:nodetypes="csccc"
       transform="matrix(1,0,0,1.005521,0,-2.738701)" />
  </g>
</svg>
