<?xml version="1.0" encoding="UTF-8" standalone="no"?>
<!-- Created with Sodipodi ("http://www.sodipodi.com/") -->

<svg
   xmlns:dc="http://purl.org/dc/elements/1.1/"
   xmlns:cc="http://creativecommons.org/ns#"
   xmlns:rdf="http://www.w3.org/1999/02/22-rdf-syntax-ns#"
   xmlns:svg="http://www.w3.org/2000/svg"
   xmlns="http://www.w3.org/2000/svg"
   xmlns:sodipodi="http://sodipodi.sourceforge.net/DTD/sodipodi-0.dtd"
   xmlns:inkscape="http://www.inkscape.org/namespaces/inkscape"
   version="1.0"
   x="0"
   y="0"
   width="512"
   height="512"
   id="svg378"
   sodipodi:version="0.32"
   sodipodi:docname="ve.svg"
   inkscape:version="0.48.1 r9760">
  <sodipodi:namedview
     id="base"
     showgrid="false"
     inkscape:zoom="0.56900452"
     inkscape:cx="384.72796"
     inkscape:cy="442"
     inkscape:window-width="1280"
     inkscape:window-height="723"
     inkscape:window-x="0"
     inkscape:window-y="24"
     inkscape:window-maximized="1"
     inkscape:current-layer="svg378" />
  <metadata
     id="metadata3720">
    <rdf:RDF>
      <cc:Work
         rdf:about="">
        <dc:format>image/svg+xml</dc:format>
        <dc:type
           rdf:resource="http://purl.org/dc/dcmitype/StillImage" />
      </cc:Work>
    </rdf:RDF>
  </metadata>
  <defs
     id="defs380">
    <clipPath
       id="clipPath4328"
       clipPathUnits="userSpaceOnUse">
      <rect
         y="0.39667869"
         width="139.61855"
         style="fill:#000000;fill-opacity:0.67000002;stroke:none"
         x="35.102959"
         height="139.61855"
         id="rect4330" />
    </clipPath>
    <clipPath
       clipPathUnits="userSpaceOnUse"
       id="clipPath5767">
      <rect
         id="rect5769"
         height="512"
         x="0"
         style="fill:#000000;fill-opacity:0.67000002;stroke:none"
         width="512"
         y="0" />
    </clipPath>
  </defs>
  <g
     id="flag"
     clip-path="url(#clipPath5767)"
     inkscape:label="#g5717">
    <rect
       id="rect171"
       style="font-size:12px;fill:#dc0000;fill-opacity:1;fill-rule:evenodd;stroke-width:1pt"
       y="341.33331"
       x="-128"
       height="170.66669"
       width="769.45593" />
    <rect
       id="rect256"
       style="font-size:12px;fill:#ffcb00;fill-opacity:1;fill-rule:evenodd;stroke-width:1pt"
       y="4.8040874e-06"
       x="-128"
       height="170.66667"
       width="769.45593" />
    <rect
       id="rect255"
       style="font-size:12px;fill:#0000ba;fill-opacity:1;fill-rule:evenodd;stroke-width:1pt"
       y="170.66666"
       x="-128"
       height="170.66667"
       width="769.45593" />
    <g
       transform="matrix(3.3147679,0,0,3.6671345,-90.916028,1.2288359)"
       id="g595">
      <path
         id="path575"
         style="font-size:12px;fill:#ffffff;fill-opacity:1;fill-rule:evenodd;stroke-width:0.112872"
         transform="matrix(0.359332,0,0,0.32494,13.10641,-111.6294)"
         d="m 266.186,534.45 -10.408,-7.432 -10.357,7.505 3.852,-12.196 -10.338,-7.531 12.79,-0.105 3.967,-12.159 4.052,12.131 12.79,0.016 -10.285,7.602 3.937,12.169 z"
         inkscape:connector-curvature="0" />
      <path
         id="path576"
         style="font-size:12px;fill:#ffffff;fill-rule:evenodd;stroke-width:0.112872"
         transform="matrix(0.359332,0,0,0.32494,31.71735,-109.5615)"
         d="m 266.186,534.45 -10.408,-7.432 -10.357,7.505 3.852,-12.196 -10.338,-7.531 12.79,-0.105 3.967,-12.159 4.052,12.131 12.79,0.016 -10.285,7.602 3.937,12.169 z"
         inkscape:connector-curvature="0" />
      <path
         id="path577"
         style="font-size:12px;fill:#ffffff;fill-rule:evenodd;stroke-width:0.112872"
         transform="matrix(0.359332,0,0,0.32494,47.84687,-100.4628)"
         d="m 266.186,534.45 -10.408,-7.432 -10.357,7.505 3.852,-12.196 -10.338,-7.531 12.79,-0.105 3.967,-12.159 4.052,12.131 12.79,0.016 -10.285,7.602 3.937,12.169 z"
         inkscape:connector-curvature="0" />
      <path
         id="path578"
         style="font-size:12px;fill:#ffffff;fill-rule:evenodd;stroke-width:0.112872"
         transform="matrix(0.359332,0,0,0.32494,56.94556,-86.8148)"
         d="m 266.186,534.45 -10.408,-7.432 -10.357,7.505 3.852,-12.196 -10.338,-7.531 12.79,-0.105 3.967,-12.159 4.052,12.131 12.79,0.016 -10.285,7.602 3.937,12.169 z"
         inkscape:connector-curvature="0" />
      <path
         id="path579"
         style="font-size:12px;fill:#ffffff;fill-rule:evenodd;stroke-width:0.112872"
         transform="matrix(-0.359332,0,0,0.32494,178.2826,-109.5616)"
         d="m 266.186,534.45 -10.408,-7.432 -10.357,7.505 3.852,-12.196 -10.338,-7.531 12.79,-0.105 3.967,-12.159 4.052,12.131 12.79,0.016 -10.285,7.602 3.937,12.169 z"
         inkscape:connector-curvature="0" />
      <path
         id="path580"
         style="font-size:12px;fill:#ffffff;fill-rule:evenodd;stroke-width:0.112872"
         transform="matrix(-0.359332,0,0,0.32494,162.153,-100.4628)"
         d="m 266.186,534.45 -10.408,-7.432 -10.357,7.505 3.852,-12.196 -10.338,-7.531 12.79,-0.105 3.967,-12.159 4.052,12.131 12.79,0.016 -10.285,7.602 3.937,12.169 z"
         inkscape:connector-curvature="0" />
      <path
         id="path581"
         style="font-size:12px;fill:#ffffff;fill-rule:evenodd;stroke-width:0.112872"
         transform="matrix(-0.359332,0,0,0.32494,153.0544,-86.8148)"
         d="m 266.186,534.45 -10.408,-7.432 -10.357,7.505 3.852,-12.196 -10.338,-7.531 12.79,-0.105 3.967,-12.159 4.052,12.131 12.79,0.016 -10.285,7.602 3.937,12.169 z"
         inkscape:connector-curvature="0" />
    </g>
  </g>
</svg>
