<?xml version="1.0" encoding="UTF-8" standalone="no"?>
<!-- Created with Sodipodi ("http://www.sodipodi.com/") -->

<svg
   xmlns:dc="http://purl.org/dc/elements/1.1/"
   xmlns:cc="http://creativecommons.org/ns#"
   xmlns:rdf="http://www.w3.org/1999/02/22-rdf-syntax-ns#"
   xmlns:svg="http://www.w3.org/2000/svg"
   xmlns="http://www.w3.org/2000/svg"
   xmlns:sodipodi="http://sodipodi.sourceforge.net/DTD/sodipodi-0.dtd"
   xmlns:inkscape="http://www.inkscape.org/namespaces/inkscape"
   id="svg548"
   sodipodi:version="0.33pre"
   width="512"
   height="512"
   sodipodi:docname="zm.svg"
   version="1.1"
   inkscape:version="0.48.1 r9760">
  <sodipodi:namedview
     id="base"
     showgrid="false"
     inkscape:zoom="0.44080424"
     inkscape:cx="372.04724"
     inkscape:cy="248.03149"
     inkscape:window-width="1280"
     inkscape:window-height="723"
     inkscape:window-x="0"
     inkscape:window-y="24"
     inkscape:window-maximized="1"
     inkscape:current-layer="svg548" />
  <metadata
     id="metadata3819">
    <rdf:RDF>
      <cc:Work
         rdf:about="">
        <dc:format>image/svg+xml</dc:format>
        <dc:type
           rdf:resource="http://purl.org/dc/dcmitype/StillImage" />
      </cc:Work>
    </rdf:RDF>
  </metadata>
  <defs
     id="defs550">
    <clipPath
       clipPathUnits="userSpaceOnUse"
       id="clipPath4044">
      <rect
         id="rect4046"
         height="496.06302"
         x="248.03142"
         style="fill:#000000;fill-opacity:0.67000002;stroke:none"
         width="496.06302"
         y="0.00013923955" />
    </clipPath>
  </defs>
  <g
     transform="matrix(1.0321269,0,0,1.0321269,-255.9999,-1.4371289e-4)"
     id="flag"
     clip-path="url(#clipPath4044)"
     inkscape:label="#g3971">
    <rect
       style="font-size:12px;fill:#198a00;fill-opacity:1;fill-rule:evenodd;stroke-width:1pt"
       id="rect626"
       width="744.09448"
       height="496.06302"
       x="-9.8999997e-05"
       y="0.000153" />
    <rect
       style="font-size:12px;fill:#ef7d00;fill-rule:evenodd;stroke-width:1pt"
       id="rect616"
       width="87.320663"
       height="317.81952"
       x="656.7738"
       y="178.21254" />
    <rect
       style="font-size:12px;fill-rule:evenodd;stroke-width:1pt"
       id="rect617"
       width="87.227058"
       height="317.88937"
       x="569.55591"
       y="178.06442" />
    <rect
       style="font-size:12px;fill:#de2010;fill-opacity:1;fill-rule:evenodd;stroke-width:1pt"
       id="rect618"
       width="89.073647"
       height="317.80527"
       x="480.50787"
       y="178.2576" />
    <g
       id="g600"
       transform="matrix(0.966522,0,0,0.966522,32.50632,4.439301)">
      <path
         inkscape:connector-curvature="0"
         style="font-size:12px;fill:#ef7d00;fill-rule:evenodd;stroke:#000000;stroke-width:1.25;stroke-linejoin:round"
         d="m 292.598,63.4833 c 0,0 45.525,-19.4529 49.936,-23.464 2.006,2.4066 -18.25,26.8734 -57.557,35.898 35.697,-8.423 66.181,-34.8953 72.398,-34.0931 1.805,0.4011 1.403,25.8706 -80.42,47.9308 56.554,-14.8406 89.444,-42.1149 89.043,-39.1067 0.401,0.6016 -5.615,21.4585 -55.15,37.7028 13.838,-3.2092 51.34,-26.0711 50.939,-21.659 1.203,1.8049 -36.299,49.9359 -104.084,34.2939 54.148,14.038 89.243,-19.8546 94.257,-19.2529 1.003,0.2005 -10.028,29.6809 -78.213,31.4859 32.69,-3.409 23.263,-0.201 23.263,-0.201 0,0 -19.253,15.041 -42.516,4.814 18.25,5.014 20.255,5.214 20.656,6.818 -1.203,2.005 -16.244,5.014 -30.683,-2.808 11.631,4.813 22.06,5.616 22.26,7.421 -0.2,0.601 -7.62,4.813 -14.238,1.805 -6.618,-3.009 -67.585,-40.5108 -67.585,-40.5108 l 103.884,-28.4777 3.81,1.4038 z"
         id="path564"
         sodipodi:nodetypes="cccccccccccccccccccc"
         transform="matrix(0.746834,0,0,0.746834,457.1783,13.74506)" />
      <path
         inkscape:connector-curvature="0"
         style="font-size:12px;fill:#ef7d00;fill-rule:evenodd;stroke:#000000;stroke-width:1.25;stroke-linejoin:round"
         d="m 170.471,164.927 c -9.135,0 -9.387,8.129 -9.387,8.129 0,0 -0.754,0.587 -0.251,4.527 1.508,-2.683 2.263,-3.521 2.263,-3.521 1.006,0.168 5.196,1.425 11.817,-3.771 -6.035,6.285 -2.43,8.632 -2.43,8.632 0,0 -1.425,4.945 3.184,5.951 -1.424,-2.012 -0.586,-3.772 -0.586,-3.772 0,0 6.453,-0.67 6.034,-8.548 0.252,7.123 4.107,8.883 4.107,8.883 0,0 0,3.939 4.19,4.275 -2.262,-2.012 -1.76,-5.113 -1.76,-5.113 0,0 5.448,-3.939 0.838,-10.644 2.766,-1.593 5.029,-6.034 5.029,-6.034 0,0 -3.771,-1.593 -5.531,-2.933 -0.839,-1.761 -0.084,-11.399 -0.084,-11.399 l -2.263,-12.488 -6.454,19.445 c 0.251,-2.766 0.419,8.381 -8.716,8.381 z"
         id="path560"
         sodipodi:nodetypes="ccccccccccccccccccc"
         transform="matrix(0.746834,0,0,0.746834,457.1783,13.74506)" />
      <path
         inkscape:connector-curvature="0"
         style="font-size:12px;fill:#ef7d00;fill-rule:evenodd;stroke:#000000;stroke-width:1.25;stroke-linejoin:round"
         d="m 215.588,136.883 c 0.2,0.201 6.819,7.622 13.236,7.22 2.406,-2.005 -5.014,-6.417 -5.014,-7.42 2.607,2.407 13.637,11.832 20.657,8.423 2.807,-4.011 -5.014,-3.409 -13.638,-14.239 6.016,4.011 21.058,12.835 28.077,9.426 3.009,-3.209 -15.643,-13.237 -21.86,-21.058 l -16.043,-8.222 -21.86,17.849 16.445,8.021 z"
         id="path563"
         sodipodi:nodetypes="cccccccccc"
         transform="matrix(0.746834,0,0,0.746834,457.1783,13.74506)" />
      <path
         inkscape:connector-curvature="0"
         style="font-size:12px;fill:#ef7d00;fill-rule:evenodd;stroke:#000000;stroke-width:1.25;stroke-linecap:round;stroke-linejoin:round"
         d="m 190.921,75.9172 c 0,0 7.42,-4.412 37.101,-2.206 3.209,0.401 20.255,-5.8158 25.67,-7.6207 8.623,-1.6044 36.098,-7.6209 43.519,-13.2362 5.214,-0.6016 -1.405,9.6263 -8.022,12.0328 -7.02,3.2088 -32.489,12.0329 -41.514,10.8296 10.83,0.2006 4.814,9.0246 -13.236,4.8131 8.624,4.8131 5.415,5.6153 5.415,5.6153 0,0 -15.241,0.8022 -19.252,-2.6071 10.228,3.8104 6.016,5.2142 6.016,5.2142 0,0 -10.428,1.0027 -15.242,-1.2033 7.42,2.206 3.61,3.6099 3.61,3.6099 0,0 -6.016,1.0027 -11.03,-0.8022 -5.013,-1.8049 -12.634,-14.4394 -13.035,-14.4394 z"
         id="path562"
         sodipodi:nodetypes="cccccccccccccc"
         transform="matrix(0.746834,0,0,0.746834,457.1783,13.74506)" />
      <path
         inkscape:connector-curvature="0"
         style="font-size:12px;fill:#ef7d00;fill-rule:evenodd;stroke:#000000;stroke-width:1.25;stroke-linejoin:round"
         d="m 202.822,141.04 1.09,19.612 c 0,0 -0.587,1.006 -1.09,1.593 -0.503,0.586 -13.913,-2.096 -12.069,8.129 0,4.191 0.084,5.28 2.934,7.627 -0.755,-2.766 -0.503,-4.693 -0.503,-4.693 0,0 3.771,2.263 7.459,-3.939 -2.514,6.118 -0.755,8.297 -0.168,8.465 0.587,1.09 -1.005,6.034 4.023,5.95 -1.927,-1.844 -1.005,-4.526 -1.005,-4.526 0,0 5.28,-0.837 3.436,-10.392 1.928,-1.928 2.682,-0.084 2.682,-0.084 0,0 0.586,5.699 5.196,4.526 2.096,1.173 -0.335,4.274 -0.335,4.274 0,0 3.352,0.084 4.358,-2.766 1.006,-2.849 2.179,-7.962 -3.353,-10.057 -0.67,-2.011 2.18,-2.179 2.18,-2.179 0,0 3.52,1.173 4.525,2.933 1.006,1.76 0.671,-4.609 -3.687,-5.28 -5.364,-0.168 -5.699,-1.257 -5.699,-1.508 0,-0.252 -0.922,-14.248 -1.341,-18.271 l -8.633,0.586 z"
         id="path561"
         sodipodi:nodetypes="cccccccccccccccccccccc"
         transform="matrix(0.746834,0,0,0.746834,457.1783,13.74506)" />
      <path
         inkscape:connector-curvature="0"
         style="font-size:12px;fill:#ef7d00;fill-rule:evenodd;stroke:#000000;stroke-width:1pt;stroke-linecap:round;stroke-linejoin:round"
         d="m 221.477,157.753 c 0.066,-0.899 -9.15,-13.308 -6.812,-14.912 2.337,0.481 6.17,6.125 9.275,4.293 -0.941,-2.2 -3.715,-0.961 -6.865,-6.593 -3.149,-6.367 -3.609,-15.925 -14.639,-26.351 7.141,11.033 23.34,17.5 24.026,14.283 0.686,-3.217 -14.264,-15.382 -13.498,-18.314 2.973,6.021 17.984,19.437 29.044,18.326 0.758,-2.583 -9.057,-7.796 -11.583,-12.664 -7.065,-4.746 -25.972,-21.0435 -26.351,-24.8232 -6.88,-10.0344 -11.175,-13.07 -13.175,-14.2257 -0.773,-0.9105 -0.967,-1.7809 -1.118,-2.3343 -4.271,-10.0687 1.386,-13.3382 4.697,-13.8217 2.725,-0.3028 3.516,0.1051 5.477,-0.8445 -2.322,-0.9083 -4.643,-1.7578 -6.964,-2.6662 3.027,2.2204 10.759,0.2656 9.083,6.661 3.39,-1.2898 10.603,-9.8713 -8.175,-11.808 -6.111,-7.0106 -31.236,-11.0396 -37.525,19.5579 0.502,0.429 0.765,0.7815 2.363,1.9749 C 150.803,69.6455 129.4,66.68 121.687,65.4337 100.85,59.4218 79.2099,44.9339 77.1297,46.7156 74.3475,47.9505 89.7194,62.2518 88.9204,62.5683 75.5917,54.7968 63.4154,49.2908 52.0855,44.2804 44.1149,41.301 36.1315,34.3641 35.2512,35.6837 32.3178,41.7605 48.03,57.0355 50.9526,58.8324 53.8762,60.5512 76.8628,71.2139 76.5238,71.347 41.9017,55.6323 36.0969,52.7834 34.3595,50.9715 31.308,50.2842 23.8745,40.2476 21.8029,40.893 c -1.1341,1.1142 1.1405,16.9729 17.6616,24.0916 2.6929,1.9626 35.4136,13.7007 35.0932,14.621 C 74.4776,79.8356 37.0807,64.1708 35.6281,63.6108 28.4179,60.7834 19.5708,50.873 17.9168,51.9875 c -1.5787,1.0112 4.0784,11.738 11.3642,15.1023 3.8188,1.6853 18.4672,8.9405 31.6648,13.5582 0.8423,0.3046 -23.7225,-9.3154 -35.533,-14.2507 -5.3549,-2.9721 -7.8767,-6.6767 -8.6924,-5.8796 -1.2065,0.797 1.9493,16.6429 39.9024,25.5842 0.9999,0.4256 13.3596,-2.928 12.7487,-2.4832 -0.1528,0.1112 -12.2733,2.7499 -13.4534,2.6597 -1.0503,-0.1604 -7.6904,0.7861 -7.8105,1.1302 -0.4012,1.0719 2.4058,6.7457 22.0019,5.5625 2.5052,-0.1506 16.1003,-4.9509 14.9581,-3.9183 -0.5711,0.5166 -18.5128,6.3466 -19.8792,6.4616 -1.1868,0.1677 -7.4897,0.8268 -7.7227,1.4972 -0.2846,0.9143 4.6653,4.9524 15.1889,5.5994 9.3176,0.495 27.0227,-5.6933 26.6675,-5.2921 -0.3552,0.4011 -17.0682,6.1281 -17.5055,6.4771 -0.6048,0.342 -6.7248,0.674 -6.9396,1.144 -0.4987,1.169 8.8282,9.891 36.412,0.583 -2.771,3.743 -16.1414,6.303 -16.1222,6.977 -0.062,0.489 2.9457,3.395 7.6202,4.435 2.337,0.52 5.537,0.414 8.46,-0.048 5.25,-1.051 10.783,-3.128 17.813,-9.625 0.84,2.039 -17.561,11.351 -16.697,12.239 3.99,3.7 17.244,-0.477 18.112,-0.962 0.869,-0.486 25.523,-14.388 25.438,-15.997 0.383,2.062 -31.785,19.541 -31.438,20.258 2.065,3.295 13.054,-0.173 13.579,-0.476 0.524,-0.302 14.024,-7.595 14.394,-7.81 0.369,-0.215 -15.866,9.502 -14.42,10.981 -0.699,6.31 25.355,-4.355 27.397,-5.683 1.021,-0.664 -12.516,5.952 -12.552,9.095 4.359,7.37 18.317,5.032 20.47,3.411 1.077,-0.811 -1.267,5.475 -0.512,4.904 0.263,-0.118 3.036,-3.397 4.102,-5.77 -0.34,2.059 -1.87,5.303 -2.763,9.025 -0.894,3.722 -1.15,7.922 -2.377,12.384 -0.281,1.96 8.601,-3.832 7.311,-17.678 0.76,7.202 -2.805,20.669 -1.872,21.369 1.866,1.4 7.025,-6.707 7.546,-12.189 1.532,2.769 4.747,8.549 7.513,9.879 -0.301,-4.189 0.053,-3.997 -1.192,-8.114 0.718,-5.466 0.818,-13.031 0.992,-21.573 7.516,14.398 10.514,20.478 8.414,31.504 2.235,0.932 5.805,-7.696 5.517,-12.137 2.87,12.34 15.258,14.19 15.455,13.831 z"
         id="path553"
         sodipodi:nodetypes="ccccccccccccccccccccccccccccccssssccccsssssssssscssccccccccccccccscccccccccc"
         transform="matrix(0.746834,0,0,0.746834,457.1783,13.74506)" />
      <path
         inkscape:connector-curvature="0"
         style="font-size:12px;fill:#ef7d00;fill-rule:evenodd;stroke:#000000;stroke-width:1pt;stroke-linecap:round;stroke-linejoin:round"
         d="m 96.2893,66.342 c 0,0 -5.1157,3.8652 -11.4819,3.6379 1.5915,6.3662 14.7787,1.4779 14.7787,1.4779 0,0 -6.3662,7.0483 -10.9135,8.1851 2.7284,2.2736 14.2104,1.4779 16.1434,0.3411 1.932,-1.1369 5.343,-5.5705 5.343,-5.5705 0,0 -11.8234,13.6419 -13.5286,13.5283 -0.2274,1.5915 12.3916,1.0231 15.0066,-1.3642 2.614,-2.3874 9.208,-5.9115 9.208,-5.9115 0,0 -17.28,12.0503 -18.076,12.0503 6.48,1.7053 19.44,-2.0463 27.739,-7.162 -12.278,8.1852 -13.414,9.663 -19.667,12.3914 5.571,1.2506 8.412,5.0022 27.284,-3.1831 10.8,-5.1156 16.938,-14.4377 16.938,-14.4377 -6.707,8.981 -17.28,16.5983 -28.988,24.101 -0.683,1.364 12.504,6.934 29.329,-10.5727"
         id="path555"
         sodipodi:nodetypes="cccccccccccccccc"
         transform="matrix(0.746834,0,0,0.746834,457.1783,13.74506)" />
      <path
         inkscape:connector-curvature="0"
         style="font-size:12px;fill:#ef7d00;fill-rule:evenodd;stroke:#000000;stroke-width:1pt;stroke-linecap:round"
         d="m 187.69,104.312 c 0,0 1.137,5.343 5.684,9.436 4.548,4.092 4.889,8.071 4.889,8.071"
         id="path556"
         transform="matrix(0.746834,0,0,0.746834,457.1783,13.74506)" />
      <path
         inkscape:connector-curvature="0"
         style="font-size:12px;fill:#ef7d00;fill-rule:evenodd;stroke:#000000;stroke-width:1pt;stroke-linecap:round"
         d="m 185.417,69.5252 c 0,0 1.591,4.7746 6.252,7.8441 4.775,3.0694 11.938,12.7324 12.506,14.4376 0.55,2.0639 3.296,16.9391 3.069,18.5301"
         id="path557"
         sodipodi:nodetypes="ccsc"
         transform="matrix(0.746834,0,0,0.746834,457.1783,13.74506)" />
      <path
         inkscape:connector-curvature="0"
         style="font-size:12px;fill:#ef7d00;fill-rule:evenodd;stroke:#000000;stroke-width:1pt;stroke-linecap:round"
         d="m 156.428,76.9145 c 0.341,1.8189 -6.708,11.0273 2.955,21.8271 -8.754,10.6854 -8.753,12.0504 -8.753,12.0504 0,0 4.888,2.728 13.642,-4.775 14.437,17.735 9.626,25.851 9.626,25.851"
         id="path558"
         sodipodi:nodetypes="ccccc"
         transform="matrix(0.746834,0,0,0.746834,457.1783,13.74506)" />
      <path
         inkscape:connector-curvature="0"
         style="font-size:12px;fill:#ef7d00;fill-rule:evenodd;stroke:#000000;stroke-width:1pt;stroke-linecap:round;stroke-linejoin:round"
         d="m 172.748,119.348 c 0,0 -1.33,-1.905 1.041,-9.019 2.135,2.572 4.509,3.121 5.55,4.162 1.04,1.041 11.941,2.619 12.634,9.904"
         id="path559"
         sodipodi:nodetypes="cccc"
         transform="matrix(0.746834,0,0,0.746834,457.1783,13.74506)" />
      <path
         inkscape:connector-curvature="0"
         style="font-size:12px;fill:#ef7d00;fill-rule:evenodd;stroke:#000000;stroke-width:1pt"
         d="m 185.563,52.5742 c 0,-0.5352 -2.195,-5.2452 -10.384,0.6423 4.389,0.2675 8.724,2.7831 10.384,-0.6423 z"
         id="path552"
         sodipodi:nodetypes="ccc"
         transform="matrix(0.746834,0,0,0.746834,457.1783,13.74506)" />
      <path
         inkscape:connector-curvature="0"
         style="font-size:12px;fill:#ef7d00;fill-rule:evenodd;stroke:#000000;stroke-width:1pt;stroke-linejoin:round"
         d="m 263.719,74.1123 c 0.401,0.2005 24.467,5.4148 32.489,2.8077 -10.228,13.6372 -30.684,4.412 -30.684,4.412 10.027,3.0082 10.429,2.8077 13.637,5.6153 1.003,2.6071 -18.45,1.4038 -24.868,-2.206 17.849,5.6153 18.25,5.2142 18.852,7.4202 0.803,3.0082 -29.28,-0.8022 -31.887,-4.8131 8.022,6.217 12.434,7.4203 16.846,10.2279 -5.415,2.4066 -15.442,4.8127 -33.893,-8.2224 24.266,22.0601 46.126,20.6561 49.536,24.6671 -8.423,12.434 -41.113,-7.42 -56.154,-17.4475 -15.041,-10.0273 32.89,24.2665 37.303,23.6645 -2.207,3.409 -18.05,0.401 -19.053,-1.203"
         id="path565"
         sodipodi:nodetypes="ccccccccccccc"
         transform="matrix(0.746834,0,0,0.746834,457.1783,13.74506)" />
      <path
         inkscape:connector-curvature="0"
         style="font-size:12px;fill:#ef7d00;fill-rule:evenodd;stroke:#000000;stroke-width:1pt;stroke-linecap:round"
         d="m 269.936,97.1752 c -2.807,0.4011 -11.23,0.4011 -12.433,0.2005"
         id="path566"
         transform="matrix(0.746834,0,0,0.746834,457.1783,13.74506)" />
      <path
         inkscape:connector-curvature="0"
         style="font-size:12px;fill:#ef7d00;fill-rule:evenodd;stroke:#000000;stroke-width:1pt;stroke-linecap:round;stroke-linejoin:round"
         d="m 89.241,62.7042 c 0,0 18.303,9.663 26.033,8.9809 -2.046,1.9326 -5.116,2.7284 -5.116,2.7284 1.933,0.7958 7.276,3.6379 15.348,1.8189 -1.933,1.9326 -4.434,4.0927 -4.434,4.0927 0,0 6.935,2.6146 14.779,-1.478 -2.387,2.9557 -3.752,5.1158 -3.752,5.1158 l 5.457,0.341"
         id="path554"
         sodipodi:nodetypes="cccccccc"
         transform="matrix(0.746834,0,0,0.746834,457.1783,13.74506)" />
    </g>
  </g>
</svg>
