<svg width="20" height="20" fill="none" xmlns="http://www.w3.org/2000/svg"><path fill-rule="evenodd" clip-rule="evenodd" d="M6.77 8.45c0-1.936 1.373-3.554 3.23-3.554s3.23 1.618 3.23 3.554c0 1.873-1.32 3.738-3.23 3.738S6.77 10.322 6.77 8.45ZM10 6.354c-.905 0-1.77.81-1.77 2.096 0 1.35.92 2.28 1.77 2.28s1.77-.93 1.77-2.28c0-1.285-.865-2.096-1.77-2.096Z" fill="#000"/><path fill-rule="evenodd" clip-rule="evenodd" d="M18.646 7.969v4.062c0 .79 0 1.428-.042 1.944-.044.532-.136.998-.356 1.43a3.646 3.646 0 0 1-1.593 1.593c-.432.22-.899.312-1.43.356-.516.042-1.154.042-1.944.042H6.72c-.79 0-1.428 0-1.944-.042-.532-.044-.998-.136-1.43-.356a3.646 3.646 0 0 1-1.594-1.593c-.22-.432-.311-.898-.355-1.43-.042-.516-.042-1.154-.042-1.944V7.97c0-.79 0-1.428.042-1.944.044-.532.135-.998.356-1.43a3.646 3.646 0 0 1 1.593-1.593c.432-.22.898-.312 1.43-.356.516-.042 1.153-.042 1.944-.042h6.562c.79 0 1.428 0 1.944.042.531.044.998.135 1.43.356a3.64 3.64 0 0 1 1.593 1.593c.22.432.312.898.356 1.43.042.516.042 1.153.042 1.944ZM17.15 6.144c-.036-.442-.103-.695-.201-.887a2.187 2.187 0 0 0-.956-.956c-.192-.098-.446-.165-.887-.201-.45-.037-1.027-.038-1.856-.038h-6.5c-.829 0-1.407.001-1.856.038-.442.036-.695.103-.887.2-.412.21-.746.545-.956.957-.098.192-.165.445-.201.887-.037.45-.038 1.027-.038 1.856v4c0 .829.001 1.406.038 1.856.036.441.103.695.2.887.21.41.544.745.954.955C5.245 13.94 7.518 12.812 10 12.812c2.482 0 4.755 1.128 5.996 2.886.41-.21.744-.544.953-.955.098-.192.165-.446.201-.887.037-.45.038-1.027.038-1.856V8c0-.829-.001-1.407-.038-1.856Zm-2.865 9.79c-.99-.999-2.507-1.663-4.285-1.663s-3.294.664-4.285 1.662c.296.004.636.005 1.035.005h6.5c.399 0 .74 0 1.035-.005Z" fill="#000"/></svg>