<svg width="20" height="20" fill="none" xmlns="http://www.w3.org/2000/svg"><path fill-rule="evenodd" clip-rule="evenodd" d="M5.636 2.604h4.978c.674 0 1.224 0 1.67.037.463.037.878.118 1.265.315.608.31 1.102.804 1.412 1.411.197.388.277.803.315 1.265.037.447.037.997.037 1.67v5.395c0 .674 0 1.224-.037 1.671-.038.462-.118.877-.316 1.265a3.228 3.228 0 0 1-1.41 1.41c-.388.198-.803.279-1.265.316-.447.037-.997.037-1.67.037h-4.98c-.674 0-1.224 0-1.67-.037-.463-.037-.878-.118-1.265-.315a3.23 3.23 0 0 1-1.412-1.411c-.197-.388-.277-.803-.315-1.265-.037-.447-.037-.997-.036-1.67V7.302c0-.674 0-1.224.036-1.671.038-.462.118-.877.315-1.265A3.23 3.23 0 0 1 2.7 2.956c.387-.198.802-.279 1.264-.316.447-.037.997-.037 1.671-.037Zm-1.552 1.49c-.372.03-.574.086-.721.161a1.77 1.77 0 0 0-.774.774c-.075.148-.131.35-.162.722-.03.38-.031.87-.031 1.582v5.334c0 .712 0 1.202.031 1.582.03.372.087.574.162.722.17.333.44.604.774.774.147.075.35.13.721.16.38.032.87.033 1.583.033h4.916c.712 0 1.203-.001 1.583-.032.372-.03.574-.086.721-.162.333-.17.604-.44.774-.773.075-.148.131-.35.162-.722.03-.38.031-.87.031-1.582V7.333c0-.712 0-1.202-.031-1.582-.03-.372-.087-.574-.162-.722a1.771 1.771 0 0 0-.774-.774c-.147-.075-.35-.13-.721-.16-.38-.032-.87-.033-1.583-.033H5.667c-.712 0-1.203.001-1.583.032Z" fill="#000"/><path d="M16.667 4.167c0-.46.373-.834.833-.834h.625c.46 0 .833.373.833.834v11.666c0 .46-.373.834-.833.834H17.5a.833.833 0 0 1-.833-.834V4.167Z" fill="#000"/></svg>