<svg xmlns="http://www.w3.org/2000/svg" width="20" height="20" fill="none"><path fill="#000" fill-rule="evenodd" d="M5.208 2.188c-1.438 0-2.568 1.088-3.296 2.462C1.168 6.057.73 7.95.73 10s.439 3.943 1.183 5.35c.728 1.374 1.858 2.463 3.296 2.463 1.439 0 2.569-1.09 3.296-2.463.745-1.407 1.183-3.3 1.183-5.35S9.25 6.057 8.504 4.65c-.727-1.374-1.857-2.463-3.296-2.463ZM4.062 8.332c-.72 0-1.371.293-1.843.765.106-1.49.47-2.8.982-3.766.63-1.19 1.375-1.686 2.007-1.686s1.378.497 2.008 1.686C7.828 6.49 8.229 8.14 8.229 10c0 1.861-.4 3.51-1.013 4.668-.63 1.19-1.375 1.686-2.008 1.686-.632 0-1.377-.497-2.007-1.686a8 8 0 0 1-.615-1.585 2.604 2.604 0 1 0 1.477-4.75Zm-.729 2.5a.625.625 0 1 0 0-1.25.625.625 0 0 0 0 1.25m11.459-8.644c-1.44 0-2.57 1.088-3.296 2.462-.745 1.407-1.184 3.3-1.184 5.35s.439 3.943 1.184 5.35c.727 1.374 1.857 2.463 3.296 2.463s2.568-1.09 3.296-2.463c.744-1.407 1.183-3.3 1.183-5.35s-.439-3.943-1.183-5.35c-.728-1.374-1.858-2.463-3.296-2.463Zm-2.99 6.91c.107-1.49.47-2.8.982-3.766.63-1.19 1.375-1.686 2.008-1.686.632 0 1.377.497 2.007 1.686.613 1.158 1.014 2.807 1.014 4.668s-.401 3.51-1.014 4.668c-.63 1.19-1.375 1.686-2.007 1.686s-1.378-.497-2.008-1.686a8 8 0 0 1-.615-1.585 2.604 2.604 0 1 0-.366-3.985Zm1.74 1.11a.625.625 0 1 1-1.25 0 .625.625 0 0 1 1.25 0" clip-rule="evenodd"/></svg>