<svg width="20" height="20" fill="none" xmlns="http://www.w3.org/2000/svg"><path d="M6.875 4.375c.345 0 .625.28.625.625v1.25h1.25a.625.625 0 1 1 0 1.25H7.5v1.25a.625.625 0 1 1-1.25 0V7.5H5a.625.625 0 1 1 0-1.25h1.25V5c0-.345.28-.625.625-.625Zm1.9 7.734a.625.625 0 0 0-.884-.884L6.875 12.24l-1.016-1.016a.625.625 0 1 0-.884.884l1.016 1.016-1.016 1.016a.625.625 0 1 0 .884.884l1.016-1.016 1.016 1.016a.625.625 0 0 0 .884-.884L7.76 13.125l1.016-1.016Zm6.642-5.234c0 .345-.28.625-.625.625h-3.334a.625.625 0 0 1 0-1.25h3.334c.345 0 .625.28.625.625Zm-3.959 4.167a.625.625 0 0 0 0 1.25h3.334a.625.625 0 0 0 0-1.25h-3.334Zm0 2.5a.625.625 0 0 0 0 1.25h3.334a.625.625 0 0 0 0-1.25h-3.334Z" fill="#000"/><path d="M7.802 1.77h4.396c.907 0 1.632 0 2.217.049.601.049 1.12.152 1.596.395a4.063 4.063 0 0 1 1.775 1.775c.243.476.346.995.395 1.596.048.585.048 1.31.048 2.217v4.396c0 .907 0 1.632-.048 2.217-.049.601-.152 1.12-.395 1.596a4.063 4.063 0 0 1-1.775 1.775c-.476.243-.995.346-1.596.395-.585.048-1.31.048-2.217.048H7.802c-.907 0-1.632 0-2.217-.048-.601-.049-1.12-.152-1.596-.395a4.063 4.063 0 0 1-1.775-1.775c-.243-.476-.346-.995-.395-1.596-.048-.585-.048-1.31-.048-2.217V7.802c0-.907 0-1.632.048-2.217.049-.601.152-1.12.395-1.596a4.062 4.062 0 0 1 1.775-1.775c.476-.243.995-.346 1.596-.395.585-.048 1.31-.048 2.217-.048ZM5.703 3.273c-.51.042-.815.12-1.052.241-.49.25-.888.648-1.138 1.138-.12.237-.2.542-.24 1.052-.043.52-.044 1.185-.044 2.13v4.334c0 .945 0 1.61.043 2.13.042.51.12.815.241 1.052.25.49.648.888 1.138 1.138.237.12.542.2 1.052.24.52.043 1.185.044 2.13.044h4.334c.945 0 1.61 0 2.13-.043.51-.042.815-.12 1.052-.241.49-.25.888-.648 1.138-1.138.12-.237.2-.542.24-1.052.043-.52.044-1.185.044-2.13V7.833c0-.945 0-1.61-.043-2.13-.042-.51-.12-.815-.241-1.052a2.604 2.604 0 0 0-1.138-1.138c-.237-.12-.542-.2-1.052-.24-.52-.043-1.185-.044-2.13-.044H7.833c-.945 0-1.61 0-2.13.043Z" fill="#000"/></svg>