<svg width="20" height="20" fill="none" xmlns="http://www.w3.org/2000/svg"><path d="M1.77 17.917V2.083a.73.73 0 0 1 1.46 0v.522l4.436.002c1.178 0 2.282.569 2.966 1.526l.338.474a2.19 2.19 0 0 0 1.781.916l4.332-.002c.633 0 1.146.513 1.146 1.146v8.75c0 .632-.513 1.146-1.146 1.146h-4.332a3.646 3.646 0 0 1-2.967-1.527l-.339-.475a2.188 2.188 0 0 0-1.779-.916l-4.437-.001v4.273a.73.73 0 0 1-1.458 0ZM3.23 4.064v8.122l4.436.001c1.178 0 2.282.569 2.966 1.527l.339.474c.41.575 1.073.916 1.78.916h4.02V6.98l-4.019.002a3.646 3.646 0 0 1-2.968-1.527l-.339-.474a2.188 2.188 0 0 0-1.779-.916l-4.437-.001Z" fill="#000"/></svg>