<svg width="20" height="20" fill="none" xmlns="http://www.w3.org/2000/svg"><path d="M8.958 11.25a.625.625 0 1 0-1.25 0v1.25a.625.625 0 1 0 1.25 0v-1.25ZM10 10.625c.345 0 .625.28.625.625v1.25a.625.625 0 1 1-1.25 0v-1.25c0-.345.28-.625.625-.625Zm2.292.625a.625.625 0 0 0-1.25 0v1.25a.625.625 0 1 0 1.25 0v-1.25ZM5 10.208a1.667 1.667 0 1 0 0 3.334 1.667 1.667 0 0 0 0-3.334Zm8.333 1.667a1.667 1.667 0 1 1 3.334 0 1.667 1.667 0 0 1-3.334 0Z" fill="#000"/><path d="M4.189 4.159a2.813 2.813 0 0 1 2.515-1.555h6.592c1.065 0 2.039.602 2.515 1.555l1.825 3.65A2.396 2.396 0 0 1 19.063 10v7.083c0 .863-.7 1.563-1.563 1.563h-1.25c-.863 0-1.563-.7-1.563-1.563v-.937H5.313v.937c0 .863-.7 1.563-1.563 1.563H2.5c-.863 0-1.563-.7-1.563-1.563V10c0-.978.587-1.82 1.427-2.192l1.825-3.65Zm2.515-.096c-.513 0-.982.29-1.211.748L4.096 7.604h11.807l-1.396-2.793a1.354 1.354 0 0 0-1.211-.748H6.704ZM17.604 10a.938.938 0 0 0-.937-.937H3.333a.937.937 0 0 0-.937.937v3.75c0 .518.42.938.937.938h13.334c.517 0 .937-.42.937-.938V10Zm0 5.956a2.39 2.39 0 0 1-.937.19h-.521v.937c0 .058.046.105.104.105h1.25a.104.104 0 0 0 .104-.105v-1.127ZM2.396 17.082c0 .058.046.105.104.105h1.25a.104.104 0 0 0 .104-.105v-.937h-.52a2.39 2.39 0 0 1-.938-.19v1.127Z" fill="#000"/></svg>