<svg width="20" height="20" fill="none" xmlns="http://www.w3.org/2000/svg"><g clip-path="url(#emoji-activity__a)"><path d="M10 .938a9.062 9.062 0 1 1 0 18.124A9.062 9.062 0 0 1 10 .937Zm-3.133 2.13a7.629 7.629 0 0 0-2.671 2.018l.019 1.74 1.77.721 2.76-2.082-.207-1.9-1.67-.497ZM2.42 9.392a7.57 7.57 0 0 0 .934 4.306l1.945.474 1.355-2.24-1.077-3.2-1.823-.743L2.42 9.392Zm5.284 7.86a7.642 7.642 0 0 0 3.694.225L13 15.015l-1.806-2.394-3.503.01-1.368 2.26 1.38 2.36Zm9.101-3.855a7.572 7.572 0 0 0 .796-3.616l-1.887-1.972-2.55.694-.971 3.366 1.806 2.394 2.806-.866Zm-1.424-8.77a7.589 7.589 0 0 0-3.883-2.084l-1.716.899.213 1.957 2.782 1.914 2.525-.687.079-1.999Z" fill="#000"/></g><defs><clipPath id="emoji-activity__a"><path fill="#fff" d="M0 0h20v20H0z"/></clipPath></defs></svg>