<svg xmlns="http://www.w3.org/2000/svg" width="20" height="20" fill="none"><g fill="#000" clip-path="url(#a)"><path d="M7.027 14.214a.73.73 0 1 1-1.125-.928A5.3 5.3 0 0 1 10 11.354c1.65 0 3.125.753 4.098 1.932a.73.73 0 1 1-1.125.928A3.85 3.85 0 0 0 10 12.812a3.85 3.85 0 0 0-2.973 1.402m5.681-8.172c-.412 0-.735.25-.936.551a2.03 2.03 0 0 0-.314 1.115c0 .416.112.812.314 1.115.2.301.524.552.936.552s.736-.251.936-.552c.203-.303.314-.699.314-1.115s-.111-.811-.314-1.115c-.2-.3-.523-.551-.936-.551m-6.352.551c.2-.3.523-.551.936-.551.412 0 .735.25.936.551.202.304.314.7.314 1.115s-.112.812-.314 1.115c-.2.301-.524.552-.936.552s-.736-.251-.936-.552a2.03 2.03 0 0 1-.314-1.115c0-.416.111-.811.314-1.115"/><path fill-rule="evenodd" d="M10 .938a9.063 9.063 0 1 0 0 18.125A9.063 9.063 0 0 0 10 .938M2.396 10a7.604 7.604 0 1 1 15.208 0 7.604 7.604 0 0 1-15.208 0" clip-rule="evenodd"/></g><defs><clipPath id="a"><path fill="#fff" d="M0 0h20v20H0z"/></clipPath></defs></svg>