<svg width="20" height="20" fill="none" xmlns="http://www.w3.org/2000/svg"><path d="M6.335 4.875c.32-.797.34-1.684.055-2.495l-.105-.298a.625.625 0 1 1 1.18-.414l.104.298a4.792 4.792 0 0 1-.074 3.375l-.08.2a3.542 3.542 0 0 0-.055 2.495l.105.298a.625.625 0 1 1-1.18.415l-.104-.298a4.792 4.792 0 0 1 .074-3.376l.08-.2Z" fill="#000"/><path d="M3.898 7.534c.346-.104.718-.199 1.114-.283.029.485.114.968.256 1.436-.34.074-.658.156-.951.244-.716.214-1.243.456-1.574.69a1.226 1.226 0 0 0-.305.286.303.303 0 0 0-.038.071.067.067 0 0 0-.004.022c0 .003 0 .01.004.022a.3.3 0 0 0 .038.07c.049.072.142.17.305.286.331.235.858.476 1.574.691.075.023.152.045.23.067a.866.866 0 0 1 .075-.075 1.55 1.55 0 0 1 .416-.247c.305-.13.722-.238 1.205-.325.974-.175 2.302-.28 3.757-.28s2.783.105 3.757.28c.483.087.9.195 1.205.325.151.065.3.144.416.247a.87.87 0 0 1 .075.075c.078-.022.155-.044.23-.067.716-.215 1.242-.456 1.574-.69.163-.117.256-.215.305-.286a.295.295 0 0 0 .038-.071.068.068 0 0 0 .004-.022c0-.003 0-.01-.004-.022a.298.298 0 0 0-.038-.071 1.225 1.225 0 0 0-.305-.285c-.332-.235-.858-.477-1.574-.691a13.74 13.74 0 0 0-1.409-.336 1.664 1.664 0 0 0-.088-.59l-.065-.192a2.923 2.923 0 0 1-.148-.75c.782.123 1.5.282 2.13.47.791.238 1.485.536 1.997.9.494.35.962.868.962 1.567A9.062 9.062 0 1 1 .938 10c0-.699.47-1.218.963-1.568.512-.363 1.206-.66 1.998-.898Zm-1.235 4.47a7.608 7.608 0 0 0 14.674 0c-.37.174-.787.328-1.235.462-1.593.478-3.75.763-6.102.763-2.352 0-4.509-.285-6.102-.763a9.045 9.045 0 0 1-1.235-.462Z" fill="#000"/><path d="M9.307 2.38a3.544 3.544 0 0 1-.055 2.495l-.08.2a4.792 4.792 0 0 0-.075 3.376l.105.298a.625.625 0 0 0 1.18-.415l-.105-.298a3.542 3.542 0 0 1 .054-2.495l.08-.2a4.791 4.791 0 0 0 .075-3.375l-.105-.298a.625.625 0 0 0-1.179.414l.105.298Zm2.862 2.495c.32-.797.34-1.684.054-2.495l-.104-.298a.625.625 0 1 1 1.179-.414l.105.298a4.791 4.791 0 0 1-.075 3.375l-.08.2a3.542 3.542 0 0 0-.055 2.495l.105.298a.625.625 0 0 1-1.18.415l-.104-.298a4.791 4.791 0 0 1 .074-3.376l.08-.2Z" fill="#000"/></svg>