<svg width="20" height="20" fill="none" xmlns="http://www.w3.org/2000/svg"><g clip-path="url(#emoji__a)" fill="#000"><path d="M7.027 12.452a.73.73 0 0 0-1.125.929A5.303 5.303 0 0 0 10 15.312c1.65 0 3.125-.753 4.098-1.931a.73.73 0 0 0-1.125-.929A3.845 3.845 0 0 1 10 13.854a3.845 3.845 0 0 1-2.973-1.402Zm5.681-5.994c-.412 0-.735.251-.936.552a2.025 2.025 0 0 0-.314 1.115c0 .416.112.811.314 1.115.2.3.524.552.936.552.413 0 .736-.251.936-.552.203-.304.314-.699.314-1.115 0-.416-.111-.811-.314-1.115-.2-.3-.523-.552-.936-.552Zm-6.352.552c.2-.3.523-.552.936-.552.412 0 .735.251.936.552.202.304.314.699.314 1.115 0 .416-.112.811-.314 1.115-.2.3-.524.552-.936.552-.413 0-.736-.251-.936-.552a2.025 2.025 0 0 1-.314-1.115c0-.416.111-.811.314-1.115Z"/><path d="M10 .938a9.063 9.063 0 1 0 0 18.125A9.063 9.063 0 0 0 10 .938ZM2.396 10a7.604 7.604 0 1 1 15.208 0 7.604 7.604 0 0 1-15.208 0Z"/></g><defs><clipPath id="emoji__a"><path fill="#fff" d="M0 0h20v20H0z"/></clipPath></defs></svg>