<svg xmlns="http://www.w3.org/2000/svg" width="20" height="20" fill="none"><path fill="#000" fill-rule="evenodd" d="M9.792.938c-.504 0-.999.187-1.313.69-.265.423-.336.979-.336 1.566 0 2.293-.784 3.433-1.639 4.675l-.005.008c-.216.314-.436.634-.645.977H4.183c-.985 0-1.761.646-2.253 1.446-.5.81-.784 1.885-.784 3.033 0 1.149.285 2.223.784 3.034.492.8 1.268 1.445 2.253 1.445H6.86c.572.289 1.254.48 2.043.605 1.028.165 2.292.229 3.83.229h2.033a1.95 1.95 0 0 0 1.91-2.333 2.15 2.15 0 0 0 .903-2.648c.466-.394.762-.983.762-1.643 0-.588-.236-1.12-.618-1.508a2.152 2.152 0 0 0-1.94-3.082h-1.83c-1.009 0-1.383-.172-1.531-.309-.125-.114-.235-.342-.235-.995 0-.308.025-.465.057-.667v-.003c.047-.296.098-.634.098-1.352 0-.717-.174-1.476-.574-2.08C11.353 1.4 10.685.938 9.792.938m-.077 1.464c-.04.064-.114.273-.114.792 0 2.747-.995 4.194-1.894 5.5l-.001.002c-.833 1.21-1.56 2.273-1.56 4.343 0 1.901.313 2.773 1.057 3.287.408.282 1.012.505 1.93.651.916.147 2.09.21 3.6.21h2.033a.49.49 0 0 0 .365-.818.73.73 0 0 1 .495-1.216.694.694 0 0 0 .417-1.207.73.73 0 0 1 .313-1.25.694.694 0 0 0 .073-1.325.73.73 0 0 1-.209-1.25.694.694 0 0 0-.437-1.232h-1.83c-1.07 0-1.942-.159-2.522-.695-.603-.558-.702-1.347-.702-2.066 0-.42.038-.663.075-.897l.002-.01c.037-.24.078-.5.078-1.115 0-.504-.126-.964-.332-1.274-.191-.289-.434-.436-.76-.436a.4.4 0 0 0-.077.006m-6.543 8.662c-.336.546-.568 1.347-.568 2.27 0 .922.232 1.723.568 2.269.343.558.721.751 1.01.751H5.31c-.492-.891-.622-2.017-.622-3.315 0-1.099.178-1.979.45-2.726h-.955c-.29 0-.668.193-1.011.75Z" clip-rule="evenodd"/></svg>