<svg xmlns="http://www.w3.org/2000/svg" width="20" height="20" fill="none"><g fill="#000" clip-path="url(#a)"><path d="M7.355 14.28a.73.73 0 1 1-1.001-1.06A5.3 5.3 0 0 1 10 11.77c1.411 0 2.696.552 3.646 1.45a.73.73 0 0 1-1 1.06A3.84 3.84 0 0 0 10 13.23a3.84 3.84 0 0 0-2.645 1.05m7.008-7.007-1.343.896c.064.074.113.153.147.222.11.22.166.495.166.776 0 .28-.056.555-.166.775-.097.195-.31.475-.667.475s-.57-.28-.667-.475a1.8 1.8 0 0 1-.166-.775q0-.069.004-.136a.73.73 0 0 1-.617-1.304l2.5-1.667a.73.73 0 1 1 .809 1.213M8.329 9.031a.73.73 0 0 0 .617-1.304l-2.5-1.667a.73.73 0 0 0-.809 1.213l1.343.896a1 1 0 0 0-.147.222c-.11.22-.166.495-.166.776 0 .28.056.555.166.775.097.195.31.475.667.475s.57-.28.667-.475c.11-.22.166-.495.166-.775q0-.069-.004-.136"/><path fill-rule="evenodd" d="M10 .938a9.063 9.063 0 1 0 0 18.125A9.063 9.063 0 0 0 10 .938M2.396 10a7.604 7.604 0 1 1 15.208 0 7.604 7.604 0 0 1-15.208 0" clip-rule="evenodd"/></g><defs><clipPath id="a"><path fill="#fff" d="M0 0h20v20H0z"/></clipPath></defs></svg>