<svg width="20" height="20" fill="none" xmlns="http://www.w3.org/2000/svg"><path d="M7.707 8.077a.625.625 0 0 1 .883.047L10 9.69l1.41-1.567a.625.625 0 0 1 .93.836l-1.715 1.905v2.052a.625.625 0 0 1-1.25 0v-2.052L7.66 8.96a.625.625 0 0 1 .047-.883Zm3.335 7.756a.625.625 0 0 0 0-1.25H8.958a.625.625 0 0 0 0 1.25h2.084Zm-.209 1.667a.625.625 0 1 0 0-1.25H9.167a.625.625 0 1 0 0 1.25h1.666Z" fill="#000"/><path d="M10 .938a6.98 6.98 0 0 0-6.98 6.979c0 2.343 1.077 3.813 2.026 5.052l.072.095c.93 1.213 1.653 2.155 1.653 3.603v.416a2.396 2.396 0 0 0 2.396 2.396h1.666a2.396 2.396 0 0 0 2.396-2.396v-.416c0-1.448.722-2.39 1.653-3.603l.072-.095c.95-1.239 2.025-2.71 2.025-5.052A6.98 6.98 0 0 0 10 .937ZM4.48 7.917a5.522 5.522 0 0 1 11.04 0c0 1.823-.798 2.957-1.724 4.166l-.14.182c-.88 1.144-1.885 2.449-1.885 4.402v.416c0 .518-.42.938-.938.938H9.167a.937.937 0 0 1-.938-.938v-.416c0-1.953-1.005-3.258-1.885-4.402l-.14-.182c-.926-1.209-1.725-2.343-1.725-4.166Z" fill="#000"/></svg>