<svg xmlns="http://www.w3.org/2000/svg" width="20" height="20" fill="none"><path fill="#000" d="M7.94 3.077a.52.52 0 0 1 0-.737l.442-.442a.52.52 0 0 1 .736 0l.442.442a.52.52 0 0 1 0 .737l-.442.442a.52.52 0 0 1-.736 0zm5.04-.129a.73.73 0 0 0-1.377-.48L9.936 7.26a.73.73 0 0 0 1.378.48z"/><path fill="#000" fill-rule="evenodd" d="M8.333 5.121q.416.225.847.51L8.756 6.85a2 2 0 0 0-.062.214 11 11 0 0 0-1.053-.659c-.523-.282-.912-.414-1.171-.453a1 1 0 0 0-.18-.012 1 1 0 0 0 .01.18c.04.26.172.65.454 1.172.56 1.04 1.51 2.244 2.61 3.344s2.304 2.05 3.344 2.61c.523.282.912.414 1.171.453a1 1 0 0 0 .18.012 1 1 0 0 0-.011-.18c-.039-.26-.171-.65-.453-1.172a11 11 0 0 0-.659-1.053 2 2 0 0 0 .214-.062l1.22-.424q.284.43.509.847c.322.6.538 1.156.611 1.648.072.477.025 1.04-.38 1.446a1.35 1.35 0 0 1-.6.345L5.033 18.26c-2.034.677-3.97-1.258-3.293-3.292l3.178-9.562a1 1 0 0 1 .04-.1 1.3 1.3 0 0 1 .282-.415c.407-.407.969-.453 1.446-.381.492.073 1.049.289 1.648.611Zm-2.034.762-.002.004zm5.569 8.566-2.893.962c-.863-.345-1.782-.984-2.587-1.789-.807-.807-1.45-1.731-1.8-2.603l.96-2.891c.654 1.164 1.668 2.422 2.785 3.539 1.115 1.115 2.372 2.129 3.535 2.781Zm-8.745.979.83-2.499c.398.614.88 1.2 1.404 1.724.52.521 1.1.998 1.709 1.393l-2.494.83a1.146 1.146 0 0 1-1.45-1.448Z" clip-rule="evenodd"/><path fill="#000" d="M17.98 7.469a.73.73 0 0 1-.449.928l-4.791 1.667a.73.73 0 0 1-.48-1.378l4.792-1.666a.73.73 0 0 1 .928.449m-1.499 3.413a.52.52 0 0 0 0 .736l.442.442a.52.52 0 0 0 .737 0l.442-.442a.52.52 0 0 0 0-.736l-.442-.442a.52.52 0 0 0-.737 0zm-2.314-6.195a.52.52 0 0 1 .52-.52h.626a.52.52 0 0 1 .52.52v.625a.52.52 0 0 1-.52.521h-.626a.52.52 0 0 1-.52-.52z"/></svg>