<svg width="20" height="20" fill="none" xmlns="http://www.w3.org/2000/svg"><path d="M11.875 3.854a6.134 6.134 0 0 0-4.843 2.361.73.73 0 0 1-1.148-.899 7.604 7.604 0 1 1 0 9.368.73.73 0 0 1 1.148-.9 6.146 6.146 0 1 0 4.843-9.93Z" fill="#000"/><path d="M8.494 11.844a.73.73 0 0 1 1.026.098 3.045 3.045 0 0 0 2.355 1.11c.947 0 1.794-.43 2.355-1.11a.73.73 0 0 1 1.124.929 4.503 4.503 0 0 1-3.479 1.64c-1.4 0-2.653-.64-3.48-1.64a.73.73 0 0 1 .099-1.027Zm4.791-4.37c.17-.262.454-.495.828-.495.375 0 .658.233.828.495.173.265.266.607.266.963s-.093.698-.266.963c-.17.262-.453.495-.828.495-.374 0-.658-.233-.828-.495a1.781 1.781 0 0 1-.266-.963c0-.356.093-.698.266-.963Zm-3.65-.494c-.374 0-.658.232-.828.494a1.783 1.783 0 0 0-.265.963c0 .357.093.699.265.964.17.262.454.495.828.495.375 0 .659-.233.829-.495.172-.265.265-.607.265-.964 0-.356-.093-.698-.265-.963-.17-.262-.454-.495-.829-.495Zm-5.155.312a.73.73 0 1 0-1.46 0V9.27H1.043a.73.73 0 1 0 0 1.458H3.02v1.98a.73.73 0 0 0 1.458 0v-1.98h1.98a.73.73 0 1 0 0-1.458h-1.98V7.29Z" fill="#000"/></svg>