<svg xmlns="http://www.w3.org/2000/svg" width="20" height="20" fill="none"><g fill="#000" clip-path="url(#a)"><path fill-rule="evenodd" d="M4.683 10.313a.73.73 0 0 0-.715.868 6.148 6.148 0 0 0 12.064 0 .73.73 0 0 0-.715-.868zM10 14.686a4.69 4.69 0 0 1-4.342-2.916h8.684A4.69 4.69 0 0 1 10 14.687Z" clip-rule="evenodd"/><path d="M11.772 6.385c.2-.3.524-.552.936-.552s.736.251.936.552c.203.304.314.699.314 1.115a2.03 2.03 0 0 1-.335 1.146c-.201-.287-.516-.521-.915-.521-.398 0-.713.234-.915.52a2.03 2.03 0 0 1-.335-1.146c0-.415.112-.81.314-1.114m-4.48-.552c-.413 0-.736.251-.936.552A2.03 2.03 0 0 0 6.042 7.5a2.03 2.03 0 0 0 .335 1.146c.201-.287.516-.521.915-.521.398 0 .713.234.915.52l.02-.03c.203-.304.315-.699.315-1.115a2.03 2.03 0 0 0-.314-1.115c-.2-.3-.524-.552-.936-.552"/><path fill-rule="evenodd" d="M10 .938a9.063 9.063 0 1 0 0 18.125A9.063 9.063 0 0 0 10 .938M2.396 10a7.604 7.604 0 1 1 15.208 0 7.604 7.604 0 0 1-15.208 0" clip-rule="evenodd"/></g><defs><clipPath id="a"><path fill="#fff" d="M0 0h20v20H0z"/></clipPath></defs></svg>