<svg width="20" height="20" fill="none" xmlns="http://www.w3.org/2000/svg"><path fill-rule="evenodd" clip-rule="evenodd" d="M18.23 7.986v4.028c0 .805 0 1.428-.042 1.927-.04.506-.126.912-.31 1.275a3.23 3.23 0 0 1-1.412 1.411c-.363.185-.77.27-1.275.311-.499.041-1.122.041-1.927.041H6.736c-.805 0-1.428 0-1.927-.04-.506-.042-.912-.127-1.275-.312a3.228 3.228 0 0 1-1.411-1.41c-.185-.364-.27-.77-.311-1.276-.041-.499-.041-1.122-.041-1.927V7.986c0-.805 0-1.428.04-1.927.042-.506.127-.912.312-1.275a3.23 3.23 0 0 1 1.411-1.411c.363-.185.77-.27 1.275-.311.499-.041 1.122-.041 1.927-.041h6.528c.805 0 1.428 0 1.927.04.506.042.912.127 1.275.312a3.23 3.23 0 0 1 1.411 1.411c.185.363.27.77.311 1.275.041.499.041 1.122.041 1.927ZM9.557 6.225a.625.625 0 0 1 .884 0l2.917 2.916a.625.625 0 1 1-.884.884l-1.958-1.958.108 1.516v3.75a.625.625 0 1 1-1.25 0v-3.75l.108-1.516-1.958 1.958a.625.625 0 1 1-.884-.884l2.917-2.916Z" fill="#000"/></svg>