<svg width="16" height="16" fill="none" xmlns="http://www.w3.org/2000/svg"><path d="M6.177 1.704c.745-.645 1.903-.116 1.903.87v1.323c3.365.406 6.306 3.237 6.306 6.753a6.773 6.773 0 0 1-1.004 3.559c-.298.485-.831.444-1.107.321-.272-.12-.58-.42-.58-.866 0-.915-.273-1.775-.895-2.405-.535-.543-1.39-.977-2.72-1.084v1.251c0 .986-1.158 1.515-1.903.87L1.065 7.869a1.15 1.15 0 0 1 0-1.738l5.112-4.427Zm.603 1.198L2.047 7l4.733 4.098V9.5a.65.65 0 0 1 .65-.65c1.957 0 3.371.559 4.295 1.495.567.575.918 1.26 1.104 1.974a5.5 5.5 0 0 0 .257-1.67c0-2.94-2.665-5.413-5.675-5.5A.65.65 0 0 1 6.78 4.5V2.902ZM1.917 6.887Z" fill="#000"/></svg>