<svg width="20" height="20" fill="none" xmlns="http://www.w3.org/2000/svg"><path d="M7.864 1.85c.877-.76 2.24-.137 2.24 1.023v1.89c4.111.56 7.675 4.039 7.675 8.341a8.384 8.384 0 0 1-1.243 4.405c-.343.558-.956.513-1.279.369-.318-.142-.674-.49-.674-1.006 0-1.141-.336-2.207-1.103-2.995-.668-.685-1.73-1.231-3.376-1.38v1.713c0 1.16-1.363 1.783-2.24 1.024L1.318 9.565a1.354 1.354 0 0 1 0-2.047L7.864 1.85Zm.782 1.25L2.364 8.54l6.282 5.441v-2.254A.73.73 0 0 1 9.388 11c2.348.04 4.036.731 5.136 1.86.742.762 1.174 1.68 1.377 2.634.272-.745.42-1.55.42-2.389 0-3.664-3.26-6.745-6.986-6.95a.73.73 0 0 1-.69-.729V3.101ZM2.273 8.463Z" fill="#000"/></svg>