<svg width="24" height="24" viewBox="0 0 24 24" fill="none" xmlns="http://www.w3.org/2000/svg">
<path d="M2.61872 1.38128C2.27701 1.03957 1.72299 1.03957 1.38128 1.38128C1.03957 1.72299 1.03957 2.27701 1.38128 2.61872L21.3813 22.6187C21.723 22.9604 22.277 22.9604 22.6187 22.6187C22.9604 22.277 22.9604 21.723 22.6187 21.3813L2.61872 1.38128Z" fill="black"/>
<path d="M1.68922 6.67316C1.73053 6.16753 1.80012 5.70963 1.92522 5.28398L3.4352 6.79396L3.4334 6.81566C3.37568 7.52215 3.375 8.42544 3.375 9.7V14.3C3.375 15.5746 3.37568 16.4778 3.4334 17.1843C3.49029 17.8806 3.59819 18.3083 3.7701 18.6457C4.11764 19.3278 4.6722 19.8824 5.35428 20.2299C5.69168 20.4018 6.11939 20.5097 6.81566 20.5666C7.52215 20.6243 8.42544 20.625 9.7 20.625H14.3C15.5746 20.625 16.4778 20.6243 17.1843 20.5666L17.206 20.5648L18.716 22.0748C18.2904 22.1999 17.8325 22.2695 17.3268 22.3108C16.5407 22.375 15.566 22.375 14.3384 22.375H9.6616C8.43401 22.375 7.45926 22.375 6.67316 22.3108C5.86866 22.2451 5.18501 22.1077 4.5598 21.7892C3.54843 21.2738 2.72616 20.4516 2.21084 19.4402C1.89228 18.815 1.75495 18.1313 1.68922 17.3268C1.62499 16.5407 1.62499 15.566 1.625 14.3384V9.66162C1.62499 8.43403 1.62499 7.45926 1.68922 6.67316Z" fill="black"/>
<path d="M8.75 15.4641V12.1088L11.9753 15.334L10.25 16.3301C9.58333 16.715 8.75 16.2339 8.75 15.4641Z" fill="black"/>
<path d="M12.0922 8.7334L16.234 12.8752L16.25 12.866C16.9167 12.4811 16.9167 11.5188 16.25 11.1339L12.0922 8.7334Z" fill="black"/>
<path d="M20.5666 17.1843L20.5648 17.206L22.0748 18.716C22.1999 18.2904 22.2695 17.8325 22.3108 17.3268C22.375 16.5407 22.375 15.566 22.375 14.3384V9.6616C22.375 8.43401 22.375 7.45926 22.3108 6.67316C22.2451 5.86866 22.1077 5.18501 21.7892 4.5598C21.2738 3.54843 20.4516 2.72616 19.4402 2.21084C18.815 1.89228 18.1313 1.75495 17.3268 1.68922C16.5407 1.62499 15.566 1.62499 14.3384 1.625H9.66162C8.43403 1.62499 7.45926 1.62499 6.67316 1.68922C6.16753 1.73053 5.70963 1.80012 5.28398 1.92522L6.79396 3.4352L6.81566 3.4334C7.52215 3.37568 8.42544 3.375 9.7 3.375H14.3C15.5746 3.375 16.4778 3.37568 17.1843 3.4334C17.8806 3.49029 18.3083 3.59819 18.6457 3.7701C19.3278 4.11764 19.8824 4.6722 20.2299 5.35428C20.4018 5.69168 20.5097 6.11939 20.5666 6.81566C20.6243 7.52215 20.625 8.42544 20.625 9.7V14.3C20.625 15.5746 20.6243 16.4778 20.5666 17.1843Z" fill="black"/>
</svg>
