<svg xmlns="http://www.w3.org/2000/svg" width="20" height="20" fill="none"><g fill="#000" clip-path="url(#a)"><path d="M7.083 10a1.354 1.354 0 1 1-2.708 0 1.354 1.354 0 0 1 2.708 0M10 11.354a1.354 1.354 0 1 0 0-2.708 1.354 1.354 0 0 0 0 2.708m4.27 0a1.354 1.354 0 1 0 0-2.708 1.354 1.354 0 0 0 0 2.708"/><path d="M10 .833a9.167 9.167 0 1 0 0 18.334A9.167 9.167 0 0 0 10 .833M2.5 10a7.5 7.5 0 1 1 15 0 7.5 7.5 0 0 1-15 0"/></g><defs><clipPath id="a"><path fill="#fff" d="M0 0h20v20H0z"/></clipPath></defs></svg>