<svg width="20" height="20" fill="none" xmlns="http://www.w3.org/2000/svg"><path d="M7.806 1.875h4.388c.91 0 1.631 0 2.213.047.594.05 1.097.15 1.557.384.745.38 1.35.985 1.73 1.73.234.46.335.963.384 1.557.047.581.047 1.303.047 2.213v4.388c0 .91 0 1.631-.047 2.213-.05.594-.15 1.097-.384 1.557a3.959 3.959 0 0 1-1.73 1.73c-.46.234-.963.335-1.557.384-.582.047-1.303.047-2.213.047H7.806c-.91 0-1.632 0-2.213-.047-.594-.05-1.097-.15-1.557-.384a3.958 3.958 0 0 1-1.73-1.73c-.234-.46-.335-.963-.384-1.557-.047-.582-.047-1.303-.047-2.213V7.806c0-.91 0-1.632.047-2.213.05-.594.15-1.097.384-1.557.38-.745.985-1.35 1.73-1.73.46-.234.963-.335 1.557-.384.581-.047 1.303-.047 2.213-.047ZM5.695 3.168c-.517.043-.838.123-1.091.252A2.71 2.71 0 0 0 3.42 4.604c-.13.253-.21.574-.252 1.09-.043.525-.043 1.196-.043 2.14v4.333c0 .943 0 1.614.043 2.138.043.517.123.838.252 1.091.26.51.674.924 1.184 1.184.253.13.574.21 1.09.252.525.043 1.196.043 2.14.043h4.333c.943 0 1.614 0 2.138-.043.517-.043.838-.123 1.091-.252a2.71 2.71 0 0 0 1.184-1.184c.13-.254.21-.574.252-1.09.043-.525.043-1.196.043-2.14V7.834c0-.943 0-1.614-.043-2.138-.043-.517-.123-.838-.252-1.091a2.708 2.708 0 0 0-1.184-1.184c-.254-.13-.574-.21-1.09-.252-.525-.043-1.196-.043-2.14-.043H7.834c-.943 0-1.614 0-2.138.043Z" fill="#000"/><path d="M4.975 15.025a.625.625 0 0 1-.183-.442v-3.75a.625.625 0 0 1 1.25 0V13.3l1.016-1.242L8.516 10.6a.625.625 0 1 1 .884.884l-1.458 1.458L6.7 13.958h2.467a.625.625 0 0 1 0 1.25h-3.75a.625.625 0 0 1-.442-.183Zm10.233-9.608a.625.625 0 0 0-.625-.625h-3.75a.625.625 0 0 0 0 1.25H13.3l-1.242 1.016L10.6 8.516a.625.625 0 1 0 .884.884l1.458-1.458L13.958 6.7v2.467a.625.625 0 0 0 1.25 0v-3.75Z" fill="#000"/></svg>