<svg width="20" height="20" fill="none" xmlns="http://www.w3.org/2000/svg"><path d="M9.27 10V2.292a.73.73 0 1 1 1.46 0V10l-.106 1.47 3.027-3.027a.73.73 0 0 1 1.031 1.03l-4.166 4.168a.729.729 0 0 1-1.032 0L5.318 9.474a.73.73 0 1 1 1.031-1.031l3.027 3.027L9.27 10Z" fill="#000"/><path d="M3.23 13.542a.73.73 0 0 0-1.46 0v1.25a2.813 2.813 0 0 0 2.813 2.812h10.834a2.813 2.813 0 0 0 2.812-2.812v-1.25a.73.73 0 0 0-1.458 0v1.25c0 .748-.606 1.354-1.354 1.354H4.583a1.354 1.354 0 0 1-1.354-1.354v-1.25Z" fill="#000"/></svg>