<svg width="16" height="16" fill="none" xmlns="http://www.w3.org/2000/svg"><path d="M8.46 10.96a.65.65 0 0 1-.92 0l-3.5-3.5a.65.65 0 0 1 .92-.92l2.493 2.494L7.35 7.75V2.5a.65.65 0 0 1 1.3 0v5.25l-.103 1.283L11.04 6.54a.65.65 0 0 1 .92.92l-3.5 3.5Z" fill="#000"/><path d="M2.65 10.75a.65.65 0 1 0-1.3 0v.176c0 .433 0 .797.024 1.094.026.311.08.607.224.888.218.428.566.776.994.994.28.143.577.198.888.224.297.024.661.024 1.094.024h6.852c.433 0 .797 0 1.094-.024.311-.026.607-.081.888-.224.428-.218.776-.566.994-.994.143-.28.198-.577.224-.888.024-.297.024-.661.024-1.094v-.176a.65.65 0 1 0-1.3 0v.15c0 .466 0 .776-.02 1.014-.019.231-.052.337-.086.404a.975.975 0 0 1-.426.426c-.067.034-.173.067-.404.086-.238.02-.548.02-1.014.02H4.6c-.466 0-.776 0-1.014-.02-.231-.019-.337-.052-.404-.086a.975.975 0 0 1-.426-.426c-.034-.067-.067-.173-.086-.404-.02-.238-.02-.548-.02-1.014v-.15Z" fill="#000"/></svg>