<svg fill="none" height="24" viewBox="0 0 24 24" width="24" xmlns="http://www.w3.org/2000/svg"><path clip-rule="evenodd" d="m14.5833 2.91669c.884 0 1.7319.35119 2.357.97631s.9763 1.47297.9763 2.35702c0 1.21216-.4347 2.49132-1.1189 3.74998h1.4124c.5885-1.22874.9565-2.49772.9565-3.74998 0-1.21557-.4829-2.38136-1.3424-3.2409-.8596-.85954-2.0253-1.34243-3.2409-1.34243-.6024-.00071-1.199.11768-1.7555.34836-.5564.23069-1.0618.56911-1.487.99581-.4922.47395-.9409.99102-1.34085 1.545-.39995-.55398-.84868-1.07105-1.34084-1.545-.6408-.64144-1.45745-1.0784-2.34664-1.25562s-1.81096-.08673-2.64871.26002-1.55384.93418-2.05767 1.68799c-.50384.7538-.772779 1.6401-.772808 2.54677 0 4.96718 5.789968 10.19758 8.166708 12.13538v-1.6205c-2.83573-2.4499-6.91671-6.7921-6.91671-10.51488-.00003-.66004.1959-1.30523.56295-1.85381.36706-.54857.88871-.97582 1.49884-1.2276.61013-.25179 1.28128-.31676 1.92838-.1867.64711.13006 1.24103.44931 1.7065.91728.43217.41704.82779.87036 1.1825 1.355l1.0325 1.52583 1.03995-1.5225c.357-.48763.7551-.94375 1.19-1.36333.309-.31075.6765-.55715 1.0813-.72494.4048-.16778.8389-.25363 1.2771-.25256zm1.6667 10.08331h1.5v4h4.25v1.5h-4.25v4.5h-1.5v-4.5h-4.25v-1.5h4.25z" fill="#000" fill-rule="evenodd"/></svg>