<svg xmlns="http://www.w3.org/2000/svg" width="24" height="24" viewBox="0 0 24 24"><title>add-emoji-outline-24</title><path d="M14,21a8.912,8.912,0,0,1-6.545-2.823l1.09-1.029A7.432,7.432,0,0,0,14,19.5a7.5,7.5,0,0,0,0-15A7.432,7.432,0,0,0,8.545,6.852L7.455,5.823A8.912,8.912,0,0,1,14,3a9,9,0,0,1,0,18Zm4.608-5.812a.749.749,0,1,0-1.216-.876,4.266,4.266,0,0,1-6.786.015.749.749,0,1,0-1.212.882,5.762,5.762,0,0,0,9.214-.021ZM11.25,8.75A1.476,1.476,0,0,0,10,10.375,1.476,1.476,0,0,0,11.25,12a1.476,1.476,0,0,0,1.25-1.625A1.476,1.476,0,0,0,11.25,8.75Zm5.5,0a1.476,1.476,0,0,0-1.25,1.625A1.476,1.476,0,0,0,16.75,12,1.476,1.476,0,0,0,18,10.375,1.476,1.476,0,0,0,16.75,8.75ZM8,11.25H4.75V8H3.25v3.25H0v1.5H3.25V16h1.5V12.75H8Z"/></svg>