<svg viewBox="0 0 24 24" xmlns="http://www.w3.org/2000/svg"><path d="m15.37 6.36a.87.87 0 0 0 -.87.87v.87a4.1 4.1 0 0 0 -3.24-1.74c-2.74 0-5 2.53-5 5.64s2.24 5.64 5 5.64a4.19 4.19 0 0 0 3.56-2.21 3.4 3.4 0 0 0 3.46 2.21c2.45 0 4.23-2.5 4.23-5.94 0-6.2-4.42-10.7-10.51-10.7a11 11 0 1 0 5.93 20.26.87.87 0 0 0 .27-1.2.87.87 0 0 0 -1.2-.27 9.25 9.25 0 1 1 -5-17c5.16 0 8.76 3.68 8.76 9 0 2.39-1.07 4.19-2.48 4.19-1 0-2-.27-2-2.4v-6.35a.88.88 0 0 0 -.91-.87zm-4.11 9.53c-1.78 0-3.26-1.74-3.26-3.89s1.45-3.89 3.23-3.89 3.27 1.74 3.27 3.89-1.45 3.89-3.24 3.89z"/></svg>