<svg height="24" viewBox="0 0 24 24" width="24" xmlns="http://www.w3.org/2000/svg"><path d="m21.057 4.1-.957-1.156-2.786 2.318a5.981 5.981 0 0 0 -11.176 1.465l-1.427 6.843a7.284 7.284 0 0 1 -1.749 3.651l-2.019 1.679.957 1.156zm-14.877 9.776 1.42-6.832a4.5 4.5 0 0 1 8.533-.8l-10.323 8.605a3.552 3.552 0 0 0 .37-.973zm15.82 3.624a1.5 1.5 0 0 1 -1.5 1.5h-14.983l1.8-1.5h13.175a5.511 5.511 0 0 1 -2.664-3.606l-.915-4.387 1.306-1.088 1.074 5.151a4.033 4.033 0 0 0 1.975 2.646 1.486 1.486 0 0 1 .732 1.284zm-12.45 3h4.9a2.5 2.5 0 0 1 -4.9 0z"/></svg>