<svg height="24" width="24" xmlns="http://www.w3.org/2000/svg"><path d="M21.057 4.1 20.1 2.944l-2.786 2.318A5.981 5.981 0 0 0 6.138 6.727L4.711 13.57a7.284 7.284 0 0 1-1.749 3.651L.943 18.9l.957 1.156zM6.18 13.876 7.6 7.044a4.5 4.5 0 0 1 8.533-.8L5.81 14.849a3.552 3.552 0 0 0 .37-.973zM22 17.5a1.5 1.5 0 0 1-1.5 1.5H5.517l1.8-1.5h13.175a5.511 5.511 0 0 1-2.664-3.606l-.915-4.387 1.306-1.088 1.074 5.151a4.033 4.033 0 0 0 1.975 2.646A1.486 1.486 0 0 1 22 17.5zm-12.45 3h4.9a2.5 2.5 0 0 1-4.9 0z"/></svg>