<svg width="12" height="20" viewBox="0 0 12 20" fill="none" xmlns="http://www.w3.org/2000/svg"><path d="M1.7168 9.71191C1.7168 9.46289 1.812 9.25049 2.00244 9.06006L7.71533 3.47168C7.87646 3.31055 8.07422 3.22998 8.30859 3.22998C8.78467 3.22998 9.16553 3.59619 9.16553 4.07227C9.16553 4.30664 9.07031 4.51904 8.90918 4.6875L3.75293 9.71191L8.90918 14.7363C9.06299 14.8975 9.16553 15.1099 9.16553 15.3442C9.16553 15.8276 8.78467 16.1938 8.30859 16.1938C8.07422 16.1938 7.87646 16.1133 7.71533 15.9521L2.00244 10.3638C1.8047 10.1733 1.7168 9.96094 1.7168 9.71191Z" fill="#000"/></svg>
