<svg fill="none" height="24" viewBox="0 0 24 24" width="24" xmlns="http://www.w3.org/2000/svg"><g stroke="#000" stroke-linecap="round" stroke-linejoin="round" stroke-width="1.5"><path d="m14 12.37-.1-4.56c-.0053-.17991-.0459-.35703-.1196-.52123-.0737-.16421-.179-.31229-.3099-.43579-.131-.1235-.285-.22001-.4532-.284-.1682-.064-.3474-.09423-.5273-.08898s-.357.04589-.5212.11959-.3123.17903-.4358.30996-.22.2849-.284.45313-.0943.34741-.089.52732"/><path d="m16.79 12.74-.11-3.65c-.0119-.36335-.1677-.70707-.4331-.95556-.2653-.24848-.6186-.38137-.9819-.36944s-.7071.16772-.9556.43308c-.2484.26537-.3813.61857-.3694.98192"/><path d="m11.3 12.46-.3-9.13c-.0053-.17991-.0459-.35703-.1196-.52123-.0737-.16421-.179-.31229-.3099-.43579-.131-.1235-.285-.22001-.4532-.284-.1682-.064-.34739-.09423-.5273-.08898s-.35702.04589-.52123.11959-.31229.17903-.43579.30996-.22.2849-.284.45313-.09423.34741-.08898.52732l.29 9.13v1.37.78s-1.71-2.28-3.15-4.48c-1.06-1.65-2.8-.23-2.07 1 2.84 5.24 4.49 11.27 10.55 10.79s5.78-5.2 5.72-7-.12-4.11-.12-4.11v-.45c-.0106-.3633-.1651-.7076-.4295-.95702-.2645-.24942-.6172-.38359-.9805-.37298s-.7076.16512-.957.42955c-.2494.26442-.3836.61715-.373.98045"/></g></svg>