<svg id="Export" xmlns="http://www.w3.org/2000/svg" viewBox="0 0 24 24"><defs><style>.cls-1{fill:#020202;}</style></defs><path class="cls-1" d="M12,2.5c5.24,0,9.5,3.77,9.5,8.4A5.11,5.11,0,0,1,16.4,16H14.45a2.05,2.05,0,0,0-2,2.05,2.14,2.14,0,0,0,.47,1.3l0,0,0,0a1.34,1.34,0,0,1,.33.85A1.25,1.25,0,0,1,12,21.5a9.5,9.5,0,0,1,0-19M12,1a11,11,0,0,0,0,22,2.75,2.75,0,0,0,2.75-2.75,2.81,2.81,0,0,0-.7-1.84.58.58,0,0,1-.15-.36.54.54,0,0,1,.55-.55H16.4A6.61,6.61,0,0,0,23,10.9C23,5.44,18.06,1,12,1Zm3.5,4.5A1.5,1.5,0,1,0,17,7,1.5,1.5,0,0,0,15.5,5.5ZM18,10a1.5,1.5,0,1,0,1.5,1.5A1.5,1.5,0,0,0,18,10ZM10.5,4.5A1.5,1.5,0,1,0,12,6,1.5,1.5,0,0,0,10.5,4.5ZM6.25,7.75a1.5,1.5,0,1,0,1.5,1.5A1.5,1.5,0,0,0,6.25,7.75ZM6.5,13A1.5,1.5,0,1,0,8,14.5,1.5,1.5,0,0,0,6.5,13Z"/></svg>