<svg id="Export" xmlns="http://www.w3.org/2000/svg" viewBox="0 0 24 24"><defs><style>.cls-1{fill:#020202;}</style></defs><path class="cls-1" d="M12,1a11,11,0,0,0,0,22,2.75,2.75,0,0,0,2.75-2.75,2.81,2.81,0,0,0-.7-1.84.58.58,0,0,1-.15-.36.55.55,0,0,1,.55-.55H16.4A6.61,6.61,0,0,0,23,10.9C23,5.44,18.06,1,12,1ZM6.25,7.75a1.5,1.5,0,1,1-1.5,1.5A1.5,1.5,0,0,1,6.25,7.75ZM6.5,16A1.5,1.5,0,1,1,8,14.5,1.5,1.5,0,0,1,6.5,16Zm4-8.5A1.5,1.5,0,1,1,12,6,1.5,1.5,0,0,1,10.5,7.5Zm5,1A1.5,1.5,0,1,1,17,7,1.5,1.5,0,0,1,15.5,8.5ZM18,13a1.5,1.5,0,1,1,1.5-1.5A1.5,1.5,0,0,1,18,13Z"/></svg>