<svg fill="none" height="24" viewBox="0 0 24 24" width="24" xmlns="http://www.w3.org/2000/svg"><path d="m20.29 2.75001c.0332-.00143.0664.00405.0974.0161.0309.01205.0591.0304.0826.0539l.71.71c.0235.02352.0419.05167.0539.08265.0121.03099.0175.06414.0161.09735.0001.03155-.0061.0628-.0181.09197s-.0296.05569-.0519.07803l-9.5 9.49999c-.0331.0315-.0749.0524-.12.06l-1.31.31.31-1.31c.0076-.0451.0285-.0868.06-.12l9.5-9.49999c.0223-.02226.0489-.03991.078-.05192.0292-.01201.0605-.01815.092-.01808zm0-1.75c-.5296.00224-1.0367.21442-1.41.59l-9.5 9.48999c-.26926.2754-.4533.6226-.53 1l-.75 3.22c-.01837.0727-.0198.1487-.0042.222s.04783.1421.0942.201c.04636.059.10564.1065.17325.1389.06762.0324.14177.0489.21675.0481h.12l3.3-.76c.3774-.0767.7246-.2607 1-.53l9.49-9.49999c.186-.18574.3335-.40632.4341-.64912.1007-.24279.1525-.50305.1525-.76588s-.0518-.52308-.1525-.76588c-.1006-.24279-.2481-.46337-.4341-.64912l-.7-.7c-.1954-.19702-.4297-.35122-.6879-.4528-.2583-.10157-.5348-.148296-.8121-.1372zm-6.79 2h-6.62c-1.29253 0-2.53226.51277-3.44715 1.42579-.91489.91301-1.4302 2.15169-1.43285 3.44421v9.24999c.00264 1.2935.51763 2.5332 1.43224 3.4478.9146.9146 2.15432 1.4296 3.44776 1.4322h9.24c1.2934-.0026 2.5332-.5176 3.4478-1.4322s1.4296-2.1543 1.4322-3.4478v-6.62c.0131-.1228.0003-.2469-.0377-.3644s-.1002-.22563-.1828-.31746c-.0825-.09184-.1834-.16528-.2962-.21555s-.2348-.07625-.3583-.07625-.2455.02598-.3583.07625-.2137.12371-.2962.21555c-.0826.09183-.1448.19996-.1828.31746s-.0508.2416-.0377.3644v6.62c0 .8301-.3298 1.6263-.9168 2.2133-.5869.5869-1.3831.9167-2.2132.9167h-9.24c-.83013 0-1.62626-.3298-2.21324-.9167-.58699-.587-.91676-1.3832-.91676-2.2133v-9.24999c.00265-.82839.33358-1.62195.92028-2.20678.58671-.58483 1.38132-.91322 2.20972-.91322h6.62c.1228.01315.2469.00031.3644-.03767.1175-.03799.2256-.10026.3175-.18279.0918-.08253.1652-.18345.2155-.29622s.0763-.23485.0763-.35832c0-.12346-.026-.24555-.0763-.35831-.0503-.11277-.1237-.2137-.2155-.29622-.0919-.08253-.2-.14481-.3175-.18279s-.2416-.05082-.3644-.03768z" fill="#000"/></svg>