<svg fill="none" height="24" viewBox="0 0 24 24" width="24" xmlns="http://www.w3.org/2000/svg"><path clip-rule="evenodd" d="m20.6 2.6c-.2-.1-.3-.1-.4-.1s-.3 0-.3.2l-9.5 9.5s-.1.1-.1.2l-.40001 1.7 1.70001-.4c.0425 0 .0669 0 .0887-.0077.0294-.0104.0538-.0348.1113-.0923l9.5-9.5c.1-.2.1-.3.1-.4s0-.3-.1-.4zm-1.8-1c.4-.4.9-.6 1.4-.6s1 .2 1.5.6l.7.7c.8.8.8 2 0 2.8l-9.5 9.5c-.3.2-.6.4-1 .5l-3.30001.8h-.1c-.3 0-.6-.3-.5-.6l.8-3.2c0-.4.2-.7.5-1zm-12 20.3h9.2c2.6 0 4.8-2.2 4.8-4.8v-6.6c0-.5-.3-.79999-.8-.79999s-.8.39999-.8.79999v6.6c0 1.7-1.4 3.2-3.2 3.2h-9.3c-1.7 0-3.2-1.4-3.2-3.2v-9.19999c0-1.8 1.5-3.3 3.3-3.2h6.6c.5 0 .8-.3.8-.8s-.4-.8-.8-.8h-6.6c-2.7 0-4.8 2.2-4.8 4.8v9.19999c0 2.7 2.2 4.8 4.8 4.8z" fill="#000" fill-rule="evenodd"/></svg>