<svg fill="none" height="24" viewBox="0 0 24 24" width="24" xmlns="http://www.w3.org/2000/svg"><path d="m15.95 19.5c-.1179.6977-.4787 1.3312-1.0185 1.7887s-1.2239.7094-1.9315.7113h-7c-.79565 0-1.55871-.3161-2.12132-.8787s-.87868-1.3257-.87868-2.1213v-10c0-.79565.31607-1.55871.87868-2.12132s1.32567-.87868 2.12132-.87868h.5v1.5h-.5c-.39782 0-.77936.15804-1.06066.43934s-.43934.66284-.43934 1.06066v10c0 .3978.15804.7794.43934 1.0607s.66284.4393 1.06066.4393h7c.3091-.0013.6103-.098.8623-.277.2521-.179.4427-.4315.5457-.723zm2.05-16h-7c-.3978 0-.7794.15804-1.06066.43934-.2813.2813-.43934.66284-.43934 1.06066v10c0 .3978.15804.7794.43934 1.0607.28126.2813.66286.4393 1.06066.4393h7c.3978 0 .7794-.158 1.0607-.4393s.4393-.6629.4393-1.0607v-10c0-.39782-.158-.77936-.4393-1.06066s-.6629-.43934-1.0607-.43934zm0-1.5c.7956 0 1.5587.31607 2.1213.87868s.8787 1.32567.8787 2.12132v10c0 .7956-.3161 1.5587-.8787 2.1213s-1.3257.8787-2.1213.8787h-7c-.7956 0-1.55871-.3161-2.12132-.8787s-.87868-1.3257-.87868-2.1213v-10c0-.79565.31607-1.55871.87868-2.12132s1.32572-.87868 2.12132-.87868z" fill="#000"/></svg>