<svg width="16" height="14" viewBox="0 0 16 14" xmlns="http://www.w3.org/2000/svg">
  <path
    d="M13.35 1H2.65C2.07978 1 1.53292 1.24055 1.12972 1.66873C0.726517 2.09691 0.5 2.67765 0.5 3.28319V10.7168C0.5 11.3224 0.726517 11.9031 1.12972 12.3313C1.53292 12.7595 2.07978 13 2.65 13H13.35C13.9202 13 14.4671 12.7595 14.8703 12.3313C15.2735 11.9031 15.5 11.3224 15.5 10.7168V3.28319C15.5 2.67765 15.2735 2.09691 14.8703 1.66873C14.4671 1.24055 13.9202 1 13.35 1ZM1.3 4.82301V3.28319C1.29987 3.09734 1.33508 2.91337 1.40351 2.74232C1.47195 2.57127 1.5722 2.41665 1.69827 2.28774C1.82433 2.15883 1.9736 2.05827 2.13714 1.9921C2.30068 1.92593 2.47512 1.89551 2.65 1.90266H13.35C13.5249 1.89551 13.6993 1.92593 13.8629 1.9921C14.0264 2.05827 14.1757 2.15883 14.3017 2.28774C14.4278 2.41665 14.5281 2.57127 14.5965 2.74232C14.6649 2.91337 14.7001 3.09734 14.7 3.28319V4.82301H1.3ZM2.65 12.0973C2.47512 12.1045 2.30068 12.0741 2.13714 12.0079C1.9736 11.9417 1.82433 11.8412 1.69827 11.7123C1.5722 11.5833 1.47195 11.4287 1.40351 11.2577C1.33508 11.0866 1.29987 10.9027 1.3 10.7168V6.52212H14.7V10.7168C14.7001 10.9027 14.6649 11.0866 14.5965 11.2577C14.5281 11.4287 14.4278 11.5833 14.3017 11.7123C14.1757 11.8412 14.0264 11.9417 13.8629 12.0079C13.6993 12.0741 13.5249 12.1045 13.35 12.0973H2.65Z"
    fill="#5E5E5E" stroke="#5E5E5E" stroke-width="0.25" />
</svg>
