<svg viewBox="0 0 24 24" xmlns="http://www.w3.org/2000/svg"><g fill="#010101"><path d="m15 7.6a1.1 1.1 0 0 1 .2.6v1.3h1.8v-1.3a1.6 1.6 0 0 0 -.2-1 1.5 1.5 0 0 0 -.6-.9 1.6 1.6 0 0 0 -.8-.6l-1.1-.2h-7.3v-2.4a.9.9 0 0 0 -.3-.6.8.8 0 0 0 -.6-.2l-.6.2c-.1.2-.3.4-.3.6v2.4h-2.4a.5.5 0 0 0 -.5.3.9.9 0 0 0 -.3.6.7.7 0 0 0 .3.6.5.5 0 0 0 .5.3h11.5a.9.9 0 0 1 .7.3z"/><path d="m11.2 15.5h-3.3a.9.9 0 0 1 -.6-.3.6.6 0 0 1 -.3-.6v-5.1a.9.9 0 0 0 -.3-.6.8.8 0 0 0 -.6-.2l-.6.2c-.1.2-.3.4-.3.6v5.1a2.7 2.7 0 0 0 2.7 2.7h3.3z"/><path d="m21.1 15.9h-4.1v-2.5a2.5 2.5 0 1 0 -5 0v1.6h1.3v-1.6a1.2 1.2 0 1 1 2.4 0v2.5h-.4a.7.7 0 0 0 -.8.8v4.2a.7.7 0 0 0 .8.8h5.8a.8.8 0 0 0 .9-.8v-4.2a.8.8 0 0 0 -.9-.8z"/></g></svg>