<svg viewBox="0 0 24 24" xmlns="http://www.w3.org/2000/svg"><path d="m15 7.6a1.4 1.4 0 0 1 .2.6v1.3h1.9v-1.3a1.9 1.9 0 0 0 -.3-1 4.1 4.1 0 0 0 -.5-.9l-.9-.5a1.9 1.9 0 0 0 -1-.3h-7.3v-2.3a1.6 1.6 0 0 0 -.3-.6.7.7 0 0 0 -.6-.2c-.3 0-.5 0-.6.2a.6.6 0 0 0 -.3.6v2.3h-2.4l-.6.3a.8.8 0 0 0 -.2.7.7.7 0 0 0 .2.6l.6.3h11.5z"/><path d="m11.2 15.5h-3.3l-.6-.2a1.4 1.4 0 0 1 -.2-.6v-5.1a1.6 1.6 0 0 0 -.3-.6.7.7 0 0 0 -.6-.2c-.3 0-.5 0-.6.2a.6.6 0 0 0 -.3.6v5.1a2.6 2.6 0 0 0 .7 1.9 2.6 2.6 0 0 0 1.9.7h3.3z"/><path d="m21.1 15.9h-.5v-2.6a2.4 2.4 0 0 0 -2.4-2.4 2.4 2.4 0 0 0 -2.4 2.4v2.6h-.5a.7.7 0 0 0 -.8.8v4.1a.7.7 0 0 0 .8.8h5.8a.7.7 0 0 0 .8-.8v-4.1a.7.7 0 0 0 -.8-.8zm-2.9-3.8a1.2 1.2 0 0 1 1.2 1.2v2.6h-2.4v-2.6a1.2 1.2 0 0 1 1.2-1.2z"/></svg>