<svg xmlns="http://www.w3.org/2000/svg" viewBox="0 0 24 24"><path d="M2.786,9.824H13.9a.85.85,0,0,1,.84.84v5a.88.88,0,0,0,1.75,0v-5a2.59,2.59,0,0,0-2.59-2.59H6.836v-2.3a.88.88,0,0,0-1.75,0v2.3h-2.3a.88.88,0,0,0,0,1.75Z"/><path d="M19.633,18.93a.9.9,0,0,0-.007-.679.874.874,0,0,0-.494-.473.869.869,0,0,0-.346-.054H7.676a.85.85,0,0,1-.84-.84v-4.93a.88.88,0,0,0-1.75,0v4.93a2.591,2.591,0,0,0,2.59,2.59h7.11v2.3a.88.88,0,0,0,1.7,0v-2.3h2.34a.873.873,0,0,0,.807-.544Z"/><path d="M21.5,9.758a.88.88,0,0,0,.037-.364,6.758,6.758,0,0,0-6.63-6.76v-.26a.86.86,0,0,0-.114-.435.87.87,0,0,0-1.186-.325l-2,1.13a.88.88,0,0,0-.319,1.2.887.887,0,0,0,.319.322l2,1.13a.922.922,0,0,0,.43.11.871.871,0,0,0,.87-.87v-.24a5,5,0,0,1,4.88,5,.881.881,0,0,0,1.234.9.9.9,0,0,0,.3-.215A.888.888,0,0,0,21.5,9.758Z"/></svg>