<svg width="20" height="20" viewBox="0 0 20 20" fill="none" xmlns="http://www.w3.org/2000/svg">
  <path
    d="M10 19.375C15.1287 19.375 19.375 15.1195 19.375 10C19.375 4.87132 15.1195 0.625 9.99081 0.625C4.87132 0.625 0.625 4.87132 0.625 10C0.625 15.1195 4.88051 19.375 10 19.375ZM10 17.8125C5.66176 17.8125 2.19669 14.3382 2.19669 10C2.19669 5.66176 5.65257 2.1875 9.99081 2.1875C14.329 2.1875 17.8033 5.66176 17.8125 10C17.8217 14.3382 14.3382 17.8125 10 17.8125ZM6.38787 10.7812H13.6029C14.1176 10.7812 14.4669 10.5055 14.4669 10.0184C14.4669 9.52206 14.136 9.23713 13.6029 9.23713H6.38787C5.85478 9.23713 5.51471 9.52206 5.51471 10.0184C5.51471 10.5055 5.87316 10.7812 6.38787 10.7812Z"
    fill="#F44336" />
</svg>
