<svg height="16" viewBox="0 0 16 16" width="16" xmlns="http://www.w3.org/2000/svg"><path d="m14.839434 2.707452-1.414668-1.414666c-.187528-.187471-.441836-.292786-.706999-.292786-.265165 0-.519472.105315-.707.292786l-8.99666704 8.996667c-.128353.128783-.219165.290125-.262667.466667l-.741333 2.961333c-.014087.055917-.013428.114533.001914.170119s.044842.106242.085617.147017.09143.070274.147017.085615c.055586.015343.114201.016003.170119.001915l2.963333-.741334c.176542-.043501.337883-.134313.466667-.262665l9.00000004-8.996667c.186765-.188234.291123-.44294.2901301-.708104-.0010081-.265166-.1072831-.519077-.2954631-.705897zm-9.70400104 9.703333-1.885333.471335.471333-1.882 6.51466704-6.515333 1.414666 1.414666zm7.22199904-7.221999-1.413999-1.414 1.774667-1.774666 1.414 1.413999z" fill-rule="evenodd"/></svg>