<svg height="16" viewBox="0 0 16 16" width="16" xmlns="http://www.w3.org/2000/svg"><path d="m14.839434 4.121453-1.650001 1.649999-2.828667-2.828666 1.650001-1.65c.187528-.187471.441835-.292786.707-.292786.265163 0 .519471.105315.706999.292786l1.414668 1.414666c.187471.187528.292785.441837.292785.707001 0 .265163-.105314.519472-.292785.707zm-12.08800104 6.632666-.741333 2.963334c-.014087.055917-.013428.114533.001914.170119s.044842.106242.085617.147017.09143.070274.147017.085615c.055586.015343.114201.016003.170119.001915l2.963333-.741334c.176542-.043501.337883-.134313.466667-.262665l6.63933204-6.639334-2.83066604-2.828667-6.639333 6.639334c-.128039.128229-.218829.28884-.262667.464666z" fill-rule="evenodd"/></svg>