<svg height="20" width="20" xmlns="http://www.w3.org/2000/svg">
  <path d="M9.993 15.5a5.677 5.677 0 01-4.6-2.291.749.749 0 011.212-.882 4.266 4.266 0 006.786-.015.749.749 0 111.216.876A5.671 5.671 0 019.993 15.5zM10 2.5A7.254 7.254 0 002.5 10a7.254 7.254 0 007.5 7.5 7.254 7.254 0 007.5-7.5A7.254 7.254 0 0010 2.5M10 1a8.751 8.751 0 019 9 8.751 8.751 0 01-9 9 8.751 8.751 0 01-9-9 8.751 8.751 0 019-9zM7.25 6.75A1.476 1.476 0 006 8.375 1.476 1.476 0 007.25 10 1.476 1.476 0 008.5 8.375 1.476 1.476 0 007.25 6.75zm5.5 0a1.476 1.476 0 00-1.25 1.625A1.476 1.476 0 0012.75 10 1.476 1.476 0 0014 8.375a1.476 1.476 0 00-1.25-1.625z"/>
</svg>
