<svg xmlns="http://www.w3.org/2000/svg" width="20" height="20" viewBox="0 0 20 20"><title>emoji-smiley-outline-20</title><path d="M9.993,15.5a5.677,5.677,0,0,1-4.6-2.291.749.749,0,0,1,1.212-.882,4.266,4.266,0,0,0,6.786-.015.749.749,0,1,1,1.216.876A5.671,5.671,0,0,1,9.993,15.5ZM10,2.5A7.254,7.254,0,0,0,2.5,10,7.254,7.254,0,0,0,10,17.5,7.254,7.254,0,0,0,17.5,10,7.254,7.254,0,0,0,10,2.5M10,1a8.751,8.751,0,0,1,9,9,8.751,8.751,0,0,1-9,9,8.751,8.751,0,0,1-9-9,8.751,8.751,0,0,1,9-9ZM7.25,6.75A1.476,1.476,0,0,0,6,8.375,1.476,1.476,0,0,0,7.25,10,1.476,1.476,0,0,0,8.5,8.375,1.476,1.476,0,0,0,7.25,6.75Zm5.5,0A1.476,1.476,0,0,0,11.5,8.375,1.476,1.476,0,0,0,12.75,10,1.476,1.476,0,0,0,14,8.375,1.476,1.476,0,0,0,12.75,6.75Z"/></svg>