<svg height="24" width="24" xmlns="http://www.w3.org/2000/svg">
  <path d="M12 18.663a6.817 6.817 0 01-5.491-2.7.75.75 0 111.207-.89A5.31 5.31 0 0012 17.163a5.3 5.3 0 004.3-2.105.75.75 0 111.211.884A6.8 6.8 0 0112 18.663zM12 2.5A9.188 9.188 0 002.5 12a9.188 9.188 0 009.5 9.5 9.188 9.188 0 009.5-9.5A9.188 9.188 0 0012 2.5M12 1a10.7 10.7 0 0111 11 10.7 10.7 0 01-11 11A10.7 10.7 0 011 12 10.7 10.7 0 0112 1zM8.5 8C7.672 8 7 8.9 7 10s.672 2 1.5 2 1.5-.895 1.5-2-.672-2-1.5-2zm7 0c-.828 0-1.5.9-1.5 2s.672 2 1.5 2 1.5-.895 1.5-2-.672-2-1.5-2z"/>
</svg>
