<svg xmlns="http://www.w3.org/2000/svg" width="20" height="20" viewBox="0 0 20 20"><title>emoji-animal-solid-20</title><path d="M16.9,9c0-.2-.1-.5-.1-.7.1-.1.2-.1.2-.2,1.8-1.8,2.1-4.3.7-5.7S13.8,1.2,12,3c-.1.1-.1.2-.2.2a7.312,7.312,0,0,0-3.6,0c-.1,0-.1-.1-.2-.2C6.2,1.2,3.7.9,2.3,2.3S1.2,6.2,3,8l.2.2c0,.2-.1.5-.1.7a5.057,5.057,0,0,0-1.1,7A4.885,4.885,0,0,0,6,18s.8,0,1.8-.1a2.706,2.706,0,0,0,3.8.5c.2-.2.4-.3.5-.5,1,.1,1.9.1,1.9.1a4.892,4.892,0,0,0,4.9-5.1A5.025,5.025,0,0,0,16.9,9ZM3.8,6.7A4.065,4.065,0,0,1,3,4.8a1.792,1.792,0,0,1,.4-1.4A1.5,1.5,0,0,1,4.5,3a3.118,3.118,0,0,1,2.1.9h0A7.519,7.519,0,0,0,3.8,6.7ZM7,12.5c-.6,0-1-.7-1-1.5s.4-1.5,1-1.5,1,.7,1,1.5S7.6,12.5,7,12.5ZM11.2,16l-.8.7a.483.483,0,0,1-.7,0L8.8,16a.948.948,0,0,1-.2-1.3,1.27,1.27,0,0,1,.7-.4h1.4a.9.9,0,0,1,.9.9A1.234,1.234,0,0,1,11.2,16ZM13,12.5c-.6,0-1-.7-1-1.5s.4-1.5,1-1.5,1,.7,1,1.5S13.6,12.5,13,12.5Zm.3-8.7h0A3.5,3.5,0,0,1,15.5,3a1.922,1.922,0,0,1,1.2.4,1.792,1.792,0,0,1,.4,1.4,3.1,3.1,0,0,1-.9,1.8A8.647,8.647,0,0,0,13.3,3.8Z"/></svg>