<svg height="20" width="20" xmlns="http://www.w3.org/2000/svg">
  <path d="M10 1a8.751 8.751 0 00-9 9 8.751 8.751 0 009 9 8.751 8.751 0 009-9 8.751 8.751 0 00-9-9zm2.75 5.75A1.476 1.476 0 0114 8.375 1.476 1.476 0 0112.75 10a1.476 1.476 0 01-1.25-1.625 1.476 1.476 0 011.25-1.625zm-5.5 0A1.476 1.476 0 018.5 8.375 1.476 1.476 0 017.25 10 1.476 1.476 0 016 8.375 1.476 1.476 0 017.25 6.75zm7.358 6.438a5.762 5.762 0 01-9.214.021.749.749 0 011.212-.882 4.266 4.266 0 006.786-.015.749.749 0 111.216.876z"/>
</svg>
