<svg height="20" viewBox="0 0 20 20" width="20" xmlns="http://www.w3.org/2000/svg"><path d="m16 8.2 1.2-1.2c1.6-1.6 1.9-3.9.8-5a2.875 2.875 0 0 0 -1.8-.7 4.314 4.314 0 0 0 -3.2 1.4l-1.3 1.3-3.4-.4-5.1-1.7-2.3 2.3 4.6 3.8 1.1 1.1-1.2 1.2a7.459 7.459 0 0 0 -.7 1.2l-2.6.2-1.2 1.2 2.9 1.7c-.1.6-.2 1.1-.2 1.1l.8.8 1-.2 1.6 2.7 1.2-1.2.2-2.5a7.459 7.459 0 0 0 1.2-.7l1.2-1.2 1.1 1.1 3.7 4.7 2.3-2.3-1.5-5.3zm-9.5-1.3-3.6-3 .5-.5 4.6 1.7 2.5.2-2.9 2.8zm1.6 7a9.58 9.58 0 0 1 -3.2 1.2 12.814 12.814 0 0 1 1.1-3.3l8-8a3.029 3.029 0 0 1 2.2-1 1.445 1.445 0 0 1 .7.2c.4.4.3 1.8-.8 2.9zm7.8 3.1-2.9-3.6-1.1-1.1 2.8-2.8.2 2.5 1.5 4.7z"/></svg>