<svg xmlns="http://www.w3.org/2000/svg" width="20" height="20" viewBox="0 0 20 20"><title>emoji-food-outline-20</title><path d="M12.1,10.4a4.708,4.708,0,0,1,0-4.6A3.425,3.425,0,0,0,12.5,4a4.711,4.711,0,0,0-.4-1.7l1.4-.6A7.926,7.926,0,0,1,14,4.2a4.645,4.645,0,0,1-.6,2.3A4.711,4.711,0,0,0,13,8.2a4.193,4.193,0,0,0,.4,1.6Zm-1.7-.6A4.193,4.193,0,0,1,10,8.2a4.711,4.711,0,0,1,.4-1.7,4.708,4.708,0,0,0,0-4.6l-1.3.6a4.711,4.711,0,0,1,.4,1.7A5.84,5.84,0,0,1,9.1,6a4.032,4.032,0,0,0-.6,2.2,4.645,4.645,0,0,0,.6,2.3Zm8.6.5h0C19,13,16.7,19,10,19a8.966,8.966,0,0,1-9-8.7H1C1,9.1,2.8,8,5.6,7.4a8.8,8.8,0,0,1,.5-1.5,3.425,3.425,0,0,0,.4-1.8,4.711,4.711,0,0,0-.4-1.7l1.4-.6A6.874,6.874,0,0,1,8,4.2a4.645,4.645,0,0,1-.6,2.3A4.711,4.711,0,0,0,7,8.2v.5a5.638,5.638,0,0,0,.4,1.2L6,10.4A5.732,5.732,0,0,1,5.6,9a5.574,5.574,0,0,0-3,1.4c.4.6,2.9,1.9,7.5,1.9s7.1-1.3,7.5-1.9A6.061,6.061,0,0,0,14.7,9a2.2,2.2,0,0,1-.1-.8,1.7,1.7,0,0,1,.1-.7C17.2,8,19,9.1,19,10.3ZM17.2,12a1.555,1.555,0,0,1-.8.6,19.914,19.914,0,0,1-6.4,1,18.9,18.9,0,0,1-6.3-1,1.456,1.456,0,0,1-.9-.6,4.875,4.875,0,0,0,.4,1.1A7.185,7.185,0,0,0,10,17.6a7.268,7.268,0,0,0,6.9-4.5C17,12.7,17.1,12.4,17.2,12Z"/></svg>