<svg height="24" viewBox="0 0 24 24" width="24" xmlns="http://www.w3.org/2000/svg"><path d="m12 18.663a6.817 6.817 0 0 1 -5.491-2.7.75.75 0 1 1 1.207-.89 5.31 5.31 0 0 0 4.284 2.09 5.3 5.3 0 0 0 4.3-2.105.75.75 0 1 1 1.211.884 6.8 6.8 0 0 1 -5.511 2.721zm0-16.163a9.188 9.188 0 0 0 -9.5 9.5 9.188 9.188 0 0 0 9.5 9.5 9.188 9.188 0 0 0 9.5-9.5 9.188 9.188 0 0 0 -9.5-9.5m0-1.5a10.7 10.7 0 0 1 11 11 10.7 10.7 0 0 1 -11 11 10.7 10.7 0 0 1 -11-11 10.7 10.7 0 0 1 11-11zm-3.5 7c-.828 0-1.5.9-1.5 2s.672 2 1.5 2 1.5-.895 1.5-2-.672-2-1.5-2zm7 0c-.828 0-1.5.9-1.5 2s.672 2 1.5 2 1.5-.895 1.5-2-.672-2-1.5-2z"/></svg>