<svg height="20" viewBox="0 0 20 20" width="20" xmlns="http://www.w3.org/2000/svg"><path d="m16.9 9c0-.2-.1-.5-.1-.7.1-.1.2-.1.2-.2 1.8-1.8 2.1-4.3.7-5.7s-3.9-1.2-5.7.6c-.1.1-.1.2-.2.2a7.312 7.312 0 0 0 -3.6 0c-.1 0-.1-.1-.2-.2-1.8-1.8-4.3-2.1-5.7-.7s-1.1 3.9.7 5.7l.2.2c0 .2-.1.5-.1.7a5.057 5.057 0 0 0 -1.1 7 4.885 4.885 0 0 0 4 2.1s.8 0 1.8-.1a2.706 2.706 0 0 0 3.8.5c.2-.2.4-.3.5-.5 1 .1 1.9.1 1.9.1a4.892 4.892 0 0 0 4.9-5.1 5.025 5.025 0 0 0 -2-3.9zm-13.1-2.3a4.065 4.065 0 0 1 -.8-1.9 1.792 1.792 0 0 1 .4-1.4 1.5 1.5 0 0 1 1.1-.4 3.118 3.118 0 0 1 2.1.9 7.519 7.519 0 0 0 -2.8 2.8zm3.2 5.8c-.6 0-1-.7-1-1.5s.4-1.5 1-1.5 1 .7 1 1.5-.4 1.5-1 1.5zm4.2 3.5-.8.7a.483.483 0 0 1 -.7 0l-.9-.7a.948.948 0 0 1 -.2-1.3 1.27 1.27 0 0 1 .7-.4h1.4a.9.9 0 0 1 .9.9 1.234 1.234 0 0 1 -.4.8zm1.8-3.5c-.6 0-1-.7-1-1.5s.4-1.5 1-1.5 1 .7 1 1.5-.4 1.5-1 1.5zm.3-8.7a3.5 3.5 0 0 1 2.2-.8 1.922 1.922 0 0 1 1.2.4 1.792 1.792 0 0 1 .4 1.4 3.1 3.1 0 0 1 -.9 1.8 8.647 8.647 0 0 0 -2.9-2.8z"/></svg>