<svg height="20" width="20" xmlns="http://www.w3.org/2000/svg">
  <path d="M8 11c0 .8-.4 1.5-1 1.5s-1-.7-1-1.5.4-1.5 1-1.5 1 .7 1 1.5zm5-1.5c-.6 0-1 .7-1 1.5s.4 1.5 1 1.5 1-.7 1-1.5-.4-1.5-1-1.5zm6 3.5a4.951 4.951 0 01-5 5 17.356 17.356 0 01-1.8-.1 2.706 2.706 0 01-3.8.5c-.2-.2-.4-.3-.5-.5-1 .1-1.8.1-1.9.1a4.892 4.892 0 01-4.9-5.1 5.025 5.025 0 012-3.9 2.353 2.353 0 01.2-.8c-.1-.1-.2-.1-.3-.2C1.2 6.2.9 3.7 2.3 2.3a3.1 3.1 0 012.2-.9A5 5 0 018 3c.1.1.1.2.2.2a7.312 7.312 0 013.6 0c.1 0 .1-.1.2-.2a4.539 4.539 0 013.5-1.5 3.1 3.1 0 012.2.9c1.4 1.3 1.1 3.8-.7 5.6-.1.1-.2.1-.2.2.1.2.1.5.2.8a5.068 5.068 0 012 4zm-5.7-9.2a6.864 6.864 0 012.8 2.8 4.167 4.167 0 00.8-1.8 2.026 2.026 0 00-.4-1.5 1.493 1.493 0 00-1-.3 4.194 4.194 0 00-2.2.8zM3.8 6.7a7.1 7.1 0 012.8-2.9A3.037 3.037 0 004.5 3a1.5 1.5 0 00-1.1.4A1.792 1.792 0 003 4.8a4.065 4.065 0 00.8 1.9zM17.5 13a3.46 3.46 0 00-1.5-2.8l-.5-.4-.1-.6a5.374 5.374 0 00-6.2-4.6 5.515 5.515 0 00-4.7 4.6l-.1.6-.4.4A3.46 3.46 0 002.5 13 3.543 3.543 0 006 16.5s.8 0 1.7-.1l.8-.1.5.7a1.165 1.165 0 001.7.3l.3-.3.5-.6.8.1a16.007 16.007 0 001.7.1 3.7 3.7 0 003.5-3.6zm-5.7 1.8a.945.945 0 00-1-1H9.3a.945.945 0 00-1 1 1.039 1.039 0 00.4.8l.9.7a.608.608 0 00.8 0l.9-.7a1.02 1.02 0 00.5-.8z"/>
</svg>
