<svg height="20" viewBox="0 0 20 20" width="20" xmlns="http://www.w3.org/2000/svg"><path d="m10 1a9 9 0 1 0 9 9 8.963 8.963 0 0 0 -9-9zm5.5 14.1c-.1-1-.2-2.2-.3-3.2l-3.2-1.2c-.9.7-1.7 1.4-2.5 2l.5 3.3c.8.3 1.9.6 2.8.9a7.613 7.613 0 0 1 -6.1-.2l2.3-.7-.6-3.3c-.8-.6-1.7-1.2-2.6-1.8l-1.8 1.1c0 .7-.1 1.6-.1 2.3a7.14 7.14 0 0 1 -1.4-4.3 2.769 2.769 0 0 1 .1-.9l1.2 1.9 1.8-1c.3-.9.6-1.9.9-2.8l-1.2-1.6-1.8.8a6.886 6.886 0 0 1 3.9-3.4c-.4.6-.9 1.4-1.3 2l1.1 1.6c1-.1 1.9-.2 2.8-.2l2.4-2.4a14.931 14.931 0 0 0 -1.2-1.4 7.4 7.4 0 0 1 4.4 2.4c-.7-.2-1.5-.3-2.2-.5l-2.4 2.4c.4 1 .8 1.9 1.2 2.8l3.3 1.3c.6-.8 1.3-1.7 1.9-2.6a8.752 8.752 0 0 1 .2 1.6 8.044 8.044 0 0 1 -2.1 5.1z"/></svg>