<svg xmlns="http://www.w3.org/2000/svg" width="24" height="24" viewBox="0 0 24 24"><title>emoji-smiley-solid-24</title><path d="M12,1A10.7,10.7,0,0,0,1,12,10.7,10.7,0,0,0,12,23,10.7,10.7,0,0,0,23,12,10.7,10.7,0,0,0,12,1Zm3.5,7c.828,0,1.5.895,1.5,2s-.672,2-1.5,2S14,11.105,14,10,14.672,8,15.5,8Zm-7,0C9.328,8,10,8.9,10,10s-.672,2-1.5,2S7,11.105,7,10,7.672,8,8.5,8Zm9.009,7.942A6.8,6.8,0,0,1,12,18.663a6.817,6.817,0,0,1-5.491-2.7.75.75,0,1,1,1.207-.89A5.31,5.31,0,0,0,12,17.163a5.3,5.3,0,0,0,4.3-2.105.75.75,0,1,1,1.211.884Z"/></svg>