<svg fill="none" height="16" viewBox="0 0 16 16" width="16" xmlns="http://www.w3.org/2000/svg"><g fill="#000"><path d="m5.41817 2.42857h-1.96032l.33469 1.03594-2.61375 7.74559c-.446252 1.3229-.573749 1.5141-1.035937 1.5938v.6056h2.916557v-.6056c-.78093-.0478-1.11562-.1913-1.11562-.6694 0-.2072.06375-.4781.17531-.8128l.43031-1.3069h3.34687l.39846 1.2113c.12748.3665.2072.6374.2072.8606 0 .4781-.33469.6694-1.08377.7172v.6056h3.88874v-.6056c-.43029-.0797-.62154-.3666-1.03594-1.6575zm-1.17938 2.43844 1.38656 4.27128h-2.78906z"/><path d="m15.1813 11.6564c-.0956.4622-.2391.6694-.4303.6694-.2391 0-.3666-.1753-.3666-.5419v-3.69751c0-1.59377-.765-2.42251-2.1994-2.42251-1.6735 0-3.17157 1.16343-3.17157 2.48623 0 .68531.38251 1.16343.97223 1.16343.58964 0 1.02004-.3984 1.02004-.92435 0-.62154-.6535-.78091-.7651-1.37062.3347-.19126.7332-.31875 1.2432-.31875.7968 0 1.2431.46217 1.2431 1.40252v1.35468l-1.2591.43029c-1.3865.44619-2.03997 1.09969-2.03997 2.11969 0 .9881.68527 1.6256 1.72127 1.6256.749 0 1.3228-.4462 1.6734-1.2431.1753.8128.6216 1.1794 1.3547 1.1794.8606 0 1.3228-.5419 1.4981-1.785zm-3.3628.7171c-.4304 0-.7491-.2868-.7491-.7809 0-.5259.3506-.9084 1.0837-1.1953l.5738-.2072v1.2432.2868c-.255.4463-.5578.6534-.9084.6534z"/></g></svg>