<svg fill="none" height="16" viewBox="0 0 16 16" width="16" xmlns="http://www.w3.org/2000/svg"><path clip-rule="evenodd" d="m15.3715 10.1714-.1143.1715c-.4571.8571-.8571 1.4285-1.2571 1.7714-.2286.1714-.4.2857-.5143.4-.1715.0571-.2857.1143-.3429.1143-.1143 0-.1714-.0572-.2286-.1143-.0571-.1143-.0571-.1714-.0571-.2857 0-.1715.0571-.2857.1143-.4572.0571-.1714.1714-.3428.2857-.5143.1143-.1714.2286-.3428.2857-.5142.1143-.1715.1714-.3429.1714-.4572 0-.1714-.0571-.2857-.1714-.39999.0572 0 .1143-.05714.1714-.05714.2286-.17143.3429-.4.3429-.68572 0-.4-.1714-.74285-.5143-.97142-.3428-.22858-.6857-.34286-1.1428-.34286-.4 0-.8572.11428-1.2572.28571-.4.22857-.8.45715-1.1428.8-.34289.34286-.68575.68572-.97146 1.08572-.28572.4-.51429.8-.68572 1.2571-.05714.2286-.11428.4-.17143.5715-.05714.0571-.11428.1143-.11428.1714-.17143.1714-.28572.2857-.45715.3429-.11428.0571-.22857.1142-.28571.1142s-.11429 0-.17143-.0571c-.05714 0-.05714-.0571-.11428-.1714-.05715-.1715-.11429-.4572-.11429-.8572s.05714-.9143.11429-1.42855c.11428-.57143.17142-1.14285.34285-1.77142.11429-.62858.28572-1.2.45715-1.82858.17142-.57142.34285-1.14285.51428-1.59999.17143-.51429.34286-.91429.45714-1.25714.05715-.17143.17143-.28572.22858-.4.05714-.11429.11428-.17143.11428-.17143l.11429-.05714-.11429-.11429c-.17143-.17143-.4-.34286-.57143-.45714-.17143-.11429-.34285-.17143-.51428-.17143s-.34286.05714-.51429.22857c-.17143.11429-.4.28571-.62857.57143l.11429.11428-.11429-.11428c-.34286.34286-.74286.74286-1.14286 1.25714-.4.51429-.85714 1.08572-1.37143 1.71428-.45714.62857-.91428 1.25714-1.37143 1.94286-.17142 0-.34285-.05714-.51428-.05714s-.34286-.05715-.51429-.05715c-.4 0-.8.05714-1.142854.22857-.342858.17143-.571429.45715-.742858.8l-.0571428.17143h.4571428 1.028572c.17143 0 .4 0 .62857.05714-.34285.57143-.68571 1.08568-.97143 1.59998-.342854.5715-.571425 1.0857-.799998 1.5429-.171428.4571-.285714.8-.285714 1.1428 0 .1715.057143.2858.114286.5143.114286.2286.342858.4.628572.5715l.114286.0571.057138-.1714c.45715-.7429.85715-1.6572 1.25715-2.5715.4-.8571.85714-1.71425 1.31428-2.51425.28572.05715.57143.05715.85715.11429.28571.05714.62857.05714.97143.11428-.05715.34286-.11429.68568-.11429.91428-.05714.2857-.05714.5714-.05714.8 0 .7429.11428 1.3143.28571 1.7714.11429.2286.22857.4.45714.5143.17143.1143.4.1715.68572.1715.51428 0 .97143-.2286 1.37143-.5715.05714.1715.17143.3429.34285.5143.28572.2286.57143.3429.91429.3429.4 0 .80005-.1715 1.14285-.4572.2857-.2285.5714-.5143.9143-.9143.0571.2286.1714.4572.2857.6286.2286.2857.5714.4572 1.0286.4572.4 0 .8-.1143 1.2-.4.4-.2286.7428-.5715 1.0857-.9715s.6286-.9143.8571-1.4285l.0572-.1143zm-2.5143-.9714v.22857.11428c-.0571 0-.1143.05715-.1714.11429-.1715.22857-.4.57146-.6857.91426-.2286.3429-.5143.6857-.8 1.0286-.2858.3429-.5143.6286-.8.8-.2858.2286-.45718.2857-.68575.2857-.05714 0-.11429 0-.11429-.0571-.05714-.0572-.05714-.1143-.05714-.2857 0-.2858.05714-.5715.17143-.9143.11429-.3429.28575-.6857.45715-1.0286.2286-.3429.4-.68572.6857-.97143.2286-.28572.5143-.51429.8-.74286.2857-.17143.5143-.28571.7429-.28571.2285 0 .3428.05714.3428.17142.0572.34286.1143.45715.1143.62858zm-5.88571-5.08571c-.11428.28571-.22857.57143-.34285.91428-.17143.57143-.34286 1.14286-.57143 1.71428-.17143.57143-.28572 1.08572-.4 1.65715-.22857-.05715-.51429-.11429-.74286-.17143-.22857-.05715-.45714-.11429-.68571-.17143.4-.62857.74285-1.25714 1.08571-1.77143.4-.62856.8-1.14285 1.14286-1.54285.17143-.22857.34285-.45714.51428-.62857z" fill="#000" fill-rule="evenodd"/></svg>