<svg fill="none" height="16" viewBox="0 0 16 16" width="16" xmlns="http://www.w3.org/2000/svg"><g fill="#000"><path d="m6.36399 12.9235c-.08628 0-.13903-.0432-.15823-.1294l-.31634-1.6538c0-.0192-.0096-.0336-.02874-.0432-.0096-.0095-.024-.0143-.04314-.0143h-2.34405c-.01917 0-.03835.0048-.05752.0143-.00959.0096-.01438.024-.01438.0432l-.30199 1.6538c-.00959.0862-.06231.1294-.15818.1294h-1.09292c-.04793 0-.08628-.0144-.11505-.0432-.01917-.0287-.02396-.067-.01438-.115l2.1427-9.77873c.01917-.08628.0719-.12942.15818-.12942h1.27987c.09586 0 .14859.04314.15818.12942l2.15708 9.77873v.0288c0 .0862-.04314.1294-.12943.1294zm-2.71793-2.99115c0 .03834.01438.05754.04314.05754h1.91261c.02876 0 .04314-.0192.04314-.05754l-.97788-5.10508c-.00959-.01917-.01917-.02876-.02876-.02876s-.01917.00959-.02876.02876z"/><path d="m13.0346 12.9235c-.0863 0-.139-.0432-.1582-.1294l-.3163-1.6538c0-.0192-.0096-.0336-.0288-.0432-.0096-.0095-.024-.0143-.0431-.0143h-2.3441c-.0191 0-.0383.0048-.0575.0143-.0096.0096-.0144.024-.0144.0432l-.30197 1.6538c-.0096.0862-.06228.1294-.15817.1294h-1.09291c-.04795 0-.08629-.0144-.11503-.0432-.0192-.0287-.024-.067-.0144-.115l2.14268-9.77873c.0192-.08628.0719-.12942.1582-.12942h1.2799c.0958 0 .1485.04314.1581.12942l2.1571 9.77873v.0288c0 .0862-.0431.1294-.1294.1294zm-2.7179-2.99115c0 .03834.0144.05754.0431.05754h1.9127c.0287 0 .0431-.0192.0431-.05754l-.9779-5.10508c-.0096-.01917-.0192-.02876-.0287-.02876-.0096 0-.0192.00959-.0288.02876z"/></g></svg>