<svg fill="none" height="16" viewBox="0 0 16 16" width="16" xmlns="http://www.w3.org/2000/svg"><g fill="#000"><path d="m9.08903 13.5046-3.1824-11.07603h-2.1528l-3.182404 11.07603h1.840804l.7644-2.9328h3.2916l.7644 2.9328zm-4.5552-8.06523c.1092-.4524.2028-.8892.2808-1.404h.0312c.078.5148.1716.9516.2808 1.404l.9828 3.744h-2.5584z"/><path d="m11.4651 13.6918c1.092 0 1.9188-.5928 2.184-1.4976 0 .4056.0312.8892.1092 1.3104h1.6848c-.1248-.5772-.1716-1.2168-.1716-2.1528v-3.15124c0-1.9344-.8424-2.6832-2.8392-2.6832-1.638 0-2.97962.702-3.01082 2.73h1.76282c.0156-.9204.312-1.4976 1.2324-1.4976.7644 0 1.1076.4056 1.1076 1.3884v.5304l-1.4352.2496c-.9516.156-1.6068.4056-2.028.7488-.49922.39004-.82682.96724-.82682 1.77844 0 1.3572.82682 2.2464 2.23082 2.2464zm.6552-1.248c-.702 0-1.0764-.4212-1.0608-1.1544 0-.78.468-1.1856 1.326-1.35724l1.17-.234v1.06084c0 1.0452-.5772 1.6848-1.4352 1.6848z"/></g></svg>