<svg fill="none" height="16" viewBox="0 0 16 16" width="16" xmlns="http://www.w3.org/2000/svg"><g fill="#000"><path d="m9.46429 13.3229-2.95286-10.75147h-3.55857l-2.95286 10.75147h2.84686l.48457-2.1958h2.78628l.48458 2.1958zm-5.088-6.93547c.12114-.53.25742-1.04486.33314-1.68086h.03028c.09086.636.212 1.15086.33315 1.68086l.60571 2.77114h-1.908z"/><path d="m11.0356 13.5046c1.0751 0 1.9383-.5149 2.1654-1.2872 0 .3483.0303.7875.106 1.1055h2.65c-.1211-.53-.1514-.9389-.1514-1.7415v-3.24054c0-1.92314-1.0297-2.77114-3.3466-2.77114-2.1654 0-3.51312.954-3.51312 2.78628h2.74082c0-.75714.1969-1.09028.7269-1.09028.3937 0 .6057.19685.6057.72685v.62086l-1.6203.27257c-.8783.15143-1.58998.43915-1.96855.78743-.424.37857-.68143.92367-.68143 1.58997 0 1.3629.90857 2.2412 2.28658 2.2412zm1.1963-1.7263c-.3937 0-.636-.318-.636-.742 0-.5603.2726-.8934.8631-1.0146l.636-.13627v1.04487c0 .5148-.3483.848-.8631.848z"/></g></svg>