<svg xmlns="http://www.w3.org/2000/svg" width="24" height="24" viewBox="0 0 24 24">
  <title>reply-outline-24</title>
  <path d="M14.5 5.621v3.7l-1.309.169a10.932 10.932 0 0 0-9.364 7.253c-.161.406-.8 1.756-.8 1.756A19.408 19.408 0 0 1 4.5 17.2 17.455 17.455 0 0 1 12.885 14.5L14.5 14.38v4L20.879 12 14.5 5.621m-1.137-3.037a.758.758 0 0 1 .491.27L22.646 11.646a.5.5 0 0 1 0 .708l-8.792 8.792a.758.758 0 0 1-.491.27c-.219 0-.363-.217-.363-.623V16a14.706 14.706 0 0 0-10.905 5.426c-.282.355-.514.529-.677.529-.214 0-.3-.3-.222-.9C2.178 14.051 5.736 8.934 13 8V3.207c0-.406.144-.623.363-.623Z"/>
</svg>
