<svg width="24" height="24" viewBox="0 0 24 24" fill="none" xmlns="http://www.w3.org/2000/svg">
<path d="M14.521 5.621V9.321L13.212 9.49C11.1192 9.67161 9.12305 10.4522 7.46225 11.7385C5.80145 13.0247 4.54633 14.7622 3.847 16.743C3.687 17.149 3.047 18.499 3.047 18.499C3.51574 18.0411 4.00737 17.6072 4.52 17.199C7.03859 15.5971 9.92588 14.6679 12.906 14.5L14.521 14.376V18.376L20.9 12L14.521 5.621ZM13.384 2.584C13.5759 2.60783 13.7513 2.70449 13.874 2.854L22.667 11.646C22.7136 11.6924 22.7505 11.7476 22.7757 11.8084C22.8009 11.8691 22.8139 11.9342 22.8139 12C22.8139 12.0658 22.8009 12.1309 22.7757 12.1916C22.7505 12.2524 22.7136 12.3076 22.667 12.354L13.874 21.146C13.7513 21.2955 13.5759 21.3922 13.384 21.416C13.165 21.416 13.021 21.199 13.021 20.793V16C10.9221 16.0736 8.86323 16.596 6.98307 17.5319C5.10291 18.4679 3.44503 19.7957 2.121 21.426C1.839 21.781 1.607 21.955 1.444 21.955C1.23 21.955 1.139 21.655 1.222 21.055C2.2 14.051 5.757 8.934 13.021 8V3.207C13.021 2.801 13.165 2.584 13.384 2.584Z" fill="black"/>
</svg>
