<svg height="24" viewBox="0 0 24 24" width="24" xmlns="http://www.w3.org/2000/svg"><path d="m21.5 8.5h-4a1 1 0 0 1 -1-1v-2a1 1 0 0 1 1-1h4a1 1 0 0 1 1 1v2a1 1 0 0 1 -1 1zm-6.5-1v-2a1 1 0 0 0 -1-1h-4a1 1 0 0 0 -1 1v2a1 1 0 0 0 1 1h4a1 1 0 0 0 1-1zm-7.5 0v-2a1 1 0 0 0 -1-1h-4a1 1 0 0 0 -1 1v2a1 1 0 0 0 1 1h4a1 1 0 0 0 1-1zm7.5 5.5v-2a1 1 0 0 0 -1-1h-4a1 1 0 0 0 -1 1v2a1 1 0 0 0 1 1h4a1 1 0 0 0 1-1zm-7.5 0v-2a1 1 0 0 0 -1-1h-4a1 1 0 0 0 -1 1v2a1 1 0 0 0 1 1h4a1 1 0 0 0 1-1zm7.5 5.5v-2a1 1 0 0 0 -1-1h-4a1 1 0 0 0 -1 1v2a1 1 0 0 0 1 1h4a1 1 0 0 0 1-1zm-7.5 0v-2a1 1 0 0 0 -1-1h-4a1 1 0 0 0 -1 1v2a1 1 0 0 0 1 1h4a1 1 0 0 0 1-1zm15-5.5v-2a1 1 0 0 0 -1-1h-4a1 1 0 0 0 -1 1v2a1 1 0 0 0 1 1h4a1 1 0 0 0 1-1zm0 5.5v-2a1 1 0 0 0 -1-1h-4a1 1 0 0 0 -1 1v2a1 1 0 0 0 1 1h4a1 1 0 0 0 1-1z"/></svg>