<svg xmlns="http://www.w3.org/2000/svg" width="24" height="24" viewBox="0 0 24 24"><title>group-outline-24</title><path d="M19.513,9.942a4.25,4.25,0,1,0-6.538-.013,4.749,4.749,0,0,0-1.336.618,4.242,4.242,0,1,0-7.152,4.395A4.744,4.744,0,0,0,1,19.5V21H2.5V19.5a3.254,3.254,0,0,1,3.25-3.25h4A3.254,3.254,0,0,1,13,19.5V21h1.5V19.5a4.744,4.744,0,0,0-3.487-4.558A4.21,4.21,0,0,0,12,12.25c0-.029-.008-.055-.008-.083a3.259,3.259,0,0,1,2.258-.917h4A3.254,3.254,0,0,1,21.5,14.5V16H23V14.5A4.744,4.744,0,0,0,19.513,9.942ZM7.75,15a2.75,2.75,0,1,1,2.75-2.75A2.75,2.75,0,0,1,7.75,15Zm8.5-5A2.75,2.75,0,1,1,19,7.25,2.75,2.75,0,0,1,16.25,10Z"/></svg>