<svg xmlns="http://www.w3.org/2000/svg" width="24" height="24" viewBox="0 0 24 24"><title>group-solid-24</title><path d="M10.25,16.25m-2.5-8.5a3.5,3.5,0,1,0,3.5,3.5A3.5,3.5,0,0,0,7.75,7.75Zm3.539,7.027a4.988,4.988,0,0,1-7.078,0A4.735,4.735,0,0,0,1,19.25V20a1,1,0,0,0,1,1H13.5a1,1,0,0,0,1-1v-.75A4.735,4.735,0,0,0,11.289,14.777ZM16.25,2.75a3.5,3.5,0,1,0,3.5,3.5A3.5,3.5,0,0,0,16.25,2.75Zm3.539,7.027a4.989,4.989,0,0,1-7.074.005c-.063.022-.131.033-.193.057a4.675,4.675,0,0,1-.333,3.663A6.294,6.294,0,0,1,15.078,16H22a1,1,0,0,0,1-1v-.75A4.735,4.735,0,0,0,19.789,9.777Z"/></svg>