<svg height="20" viewBox="0 0 20 20" width="20" xmlns="http://www.w3.org/2000/svg"><path d="m16.149 7.961a3.5 3.5 0 1 0 -5.8 0 3.994 3.994 0 0 0 -.607.251 3.494 3.494 0 1 0 -5.893 3.749 4.074 4.074 0 0 0 -2.849 3.872v1.167h1.5v-1.167a2.586 2.586 0 0 1 2.583-2.583h3.334a2.586 2.586 0 0 1 2.583 2.583v1.167h1.5v-1.167a4.068 4.068 0 0 0 -2.853-3.87 3.483 3.483 0 0 0 .603-1.963 3.326 3.326 0 0 0 -.035-.349 2.553 2.553 0 0 1 1.368-.4h3.334a2.586 2.586 0 0 1 2.583 2.582v1.167h1.5v-1.167a4.074 4.074 0 0 0 -2.851-3.872zm-9.399 4.039a2 2 0 1 1 2-2 2 2 0 0 1 -2 2zm6.5-4a2 2 0 1 1 2-2 2 2 0 0 1 -2 2z"/></svg>