<svg xmlns="http://www.w3.org/2000/svg" width="20" height="20" viewBox="0 0 20 20"><title>group-outline-20</title><path d="M16.149,7.961a3.5,3.5,0,1,0-5.8,0,3.994,3.994,0,0,0-.607.251,3.494,3.494,0,1,0-5.893,3.749A4.074,4.074,0,0,0,1,15.833V17H2.5V15.833A2.586,2.586,0,0,1,5.083,13.25H8.417A2.586,2.586,0,0,1,11,15.833V17h1.5V15.833a4.068,4.068,0,0,0-2.853-3.87A3.483,3.483,0,0,0,10.25,10a3.326,3.326,0,0,0-.035-.349,2.553,2.553,0,0,1,1.368-.4h3.334A2.586,2.586,0,0,1,17.5,11.833V13H19V11.833A4.074,4.074,0,0,0,16.149,7.961ZM6.75,12a2,2,0,1,1,2-2A2,2,0,0,1,6.75,12Zm6.5-4a2,2,0,1,1,2-2A2,2,0,0,1,13.25,8Z"/></svg>