<svg height="24" viewBox="0 0 24 24" width="24" xmlns="http://www.w3.org/2000/svg"><path d="m7.75 7.75a3.5 3.5 0 1 0 3.5 3.5 3.5 3.5 0 0 0 -3.5-3.5zm3.539 7.027a4.988 4.988 0 0 1 -7.078 0 4.735 4.735 0 0 0 -3.211 4.473v.75a1 1 0 0 0 1 1h11.5a1 1 0 0 0 1-1v-.75a4.735 4.735 0 0 0 -3.211-4.473zm4.961-12.027a3.5 3.5 0 1 0 3.5 3.5 3.5 3.5 0 0 0 -3.5-3.5zm3.539 7.027a4.989 4.989 0 0 1 -7.074.005c-.063.022-.131.033-.193.057a4.675 4.675 0 0 1 -.333 3.663 6.294 6.294 0 0 1 2.889 2.498h6.922a1 1 0 0 0 1-1v-.75a4.735 4.735 0 0 0 -3.211-4.473z"/></svg>