<svg xmlns="http://www.w3.org/2000/svg" width="24pt" height="24pt" viewBox="0 0 24 24">
    <path d="M 9.75 16.25 C 9.753906 15.917969 9.886719 15.601562 10.117188 15.367188 C 10.351562 15.136719 10.667969 15.003906 11 15 C 11.164062 14.996094 11.328125 15.027344 11.480469 15.09375 C 11.628906 15.15625 11.765625 15.25 11.878906 15.371094 C 11.996094 15.484375 12.089844 15.621094 12.152344 15.773438 C 12.21875 15.921875 12.25 16.085938 12.25 16.25 C 12.25 16.414062 12.21875 16.578125 12.152344 16.726562 C 12.089844 16.878906 11.996094 17.015625 11.878906 17.128906 C 11.765625 17.25 11.628906 17.34375 11.480469 17.40625 C 11.328125 17.472656 11.164062 17.503906 11 17.5 C 10.667969 17.496094 10.351562 17.363281 10.117188 17.132812 C 9.886719 16.898438 9.753906 16.582031 9.75 16.25 Z M 11 1.5 C 9.121094 1.5 7.285156 2.058594 5.722656 3.101562 C 4.160156 4.144531 2.941406 5.628906 2.222656 7.363281 C 1.503906 9.101562 1.316406 11.011719 1.683594 12.851562 C 2.050781 14.695312 2.953125 16.390625 4.28125 17.71875 C 5.609375 19.046875 7.304688 19.949219 9.148438 20.316406 C 10.988281 20.683594 12.898438 20.496094 14.636719 19.777344 C 16.371094 19.058594 17.855469 17.839844 18.898438 16.277344 C 19.941406 14.714844 20.5 12.878906 20.5 11 C 20.496094 8.480469 19.496094 6.066406 17.714844 4.285156 C 15.933594 2.503906 13.519531 1.503906 11 1.5 Z M 11 0 C 13.175781 0 15.300781 0.644531 17.109375 1.855469 C 18.921875 3.0625 20.332031 4.78125 21.164062 6.789062 C 21.996094 8.800781 22.214844 11.011719 21.789062 13.144531 C 21.363281 15.28125 20.316406 17.238281 18.777344 18.777344 C 17.238281 20.316406 15.28125 21.363281 13.144531 21.789062 C 11.011719 22.214844 8.800781 21.996094 6.789062 21.164062 C 4.78125 20.332031 3.0625 18.921875 1.855469 17.109375 C 0.644531 15.300781 0 13.175781 0 11 C 0 8.082031 1.160156 5.285156 3.222656 3.222656 C 5.285156 1.160156 8.082031 0 11 0 Z M 10.121094 13.488281 L 11.851562 13.488281 L 11.851562 13.378906 C 11.796875 12.84375 11.90625 12.304688 12.164062 11.832031 C 12.421875 11.355469 12.820312 10.972656 13.300781 10.730469 C 13.824219 10.445312 14.261719 10.023438 14.5625 9.503906 C 14.863281 8.988281 15.015625 8.398438 15 7.800781 C 15 5.800781 13.519531 4.511719 11.300781 4.511719 C 10.832031 4.472656 10.363281 4.53125 9.917969 4.683594 C 9.476562 4.835938 9.066406 5.074219 8.71875 5.390625 C 8.371094 5.703125 8.09375 6.085938 7.898438 6.511719 C 7.703125 6.941406 7.597656 7.402344 7.589844 7.871094 L 9.429688 7.871094 C 9.425781 7.621094 9.46875 7.371094 9.566406 7.136719 C 9.660156 6.90625 9.800781 6.695312 9.980469 6.519531 C 10.160156 6.34375 10.371094 6.207031 10.605469 6.117188 C 10.839844 6.03125 11.089844 5.988281 11.339844 6 C 11.582031 5.984375 11.824219 6.015625 12.050781 6.097656 C 12.28125 6.183594 12.488281 6.3125 12.664062 6.480469 C 12.839844 6.644531 12.976562 6.847656 13.070312 7.074219 C 13.160156 7.296875 13.207031 7.539062 13.199219 7.78125 C 13.183594 8.199219 13.058594 8.601562 12.832031 8.957031 C 12.609375 9.308594 12.292969 9.59375 11.921875 9.78125 C 10.800781 10.46875 10.128906 11.160156 10.121094 13.398438 Z M 10.121094 13.488281 " />
</svg>