<svg xmlns="http://www.w3.org/2000/svg" width="24pt" height="24pt" viewBox="0 0 24 24">
    <path d="M 14.296875 11.730469 C 13.269531 12.367188 12.871094 12.988281 12.847656 14.378906 L 12.847656 14.492188 L 11.117188 14.492188 L 11.117188 14.378906 C 11.132812 12.136719 11.796875 11.453125 12.917969 10.765625 C 13.640625 10.316406 14.199219 9.683594 14.199219 8.78125 C 14.199219 7.710938 13.367188 7.03125 12.339844 7.03125 C 11.414062 7.03125 10.503906 7.589844 10.429688 8.875 L 8.59375 8.875 C 8.671875 6.699219 10.304688 5.507812 12.339844 5.507812 C 14.558594 5.507812 16.042969 6.835938 16.042969 8.800781 C 16.042969 10.160156 15.378906 11.078125 14.296875 11.730469 M 12.882812 18.132812 C 12.640625 18.378906 12.34375 18.5 12 18.5 C 11.652344 18.5 11.359375 18.378906 11.117188 18.132812 C 10.871094 17.890625 10.75 17.59375 10.75 17.25 C 10.75 16.90625 10.871094 16.609375 11.117188 16.367188 C 11.359375 16.121094 11.652344 16 12 16 C 12.34375 16 12.640625 16.121094 12.882812 16.367188 C 13.128906 16.609375 13.25 16.90625 13.25 17.25 C 13.25 17.59375 13.128906 17.890625 12.882812 18.132812 M 12 1 C 5.925781 1 1 5.925781 1 12 C 1 18.074219 5.925781 23 12 23 C 18.074219 23 23 18.074219 23 12 C 23 5.925781 18.074219 1 12 1 " />
</svg>