<svg fill="none" height="16" viewBox="0 0 16 16" width="16" xmlns="http://www.w3.org/2000/svg"><path d="m7.99999.666664c-1.45039 0-2.86822.430096-4.07418 1.235886-1.20596.8058-2.14589 1.95111-2.70093 3.2911-.555046 1.33999-.700271 2.81448-.417312 4.23701.282962 1.42254.981392 2.72924 2.006972 3.75474 1.02559 1.0256 2.33226 1.7241 3.75479 2.007 1.42253.283 2.89702.1378 4.23697-.4173 1.34-.555 2.4853-1.495 3.2911-2.7009.8058-1.206 1.2359-2.62381 1.2359-4.0742 0-1.94492-.7726-3.81019-2.1479-5.18545-1.3752-1.37527-3.24049-2.147886-5.18541-2.147886zm-.70666 3.292666c.13989-.13971.31805-.23483.51198-.27332s.39491-.01863.57756.05707c.18264.07569.33875.20383.44859.36822s.16849.35765.16853.55536c-.00017.19766-.05891.39083-.16881.55511-.10989.16429-.266.29233-.44862.36794-.18262.07562-.38355.09542-.57741.05691-.19387-.03851-.37197-.13361-.51182-.27329-.18747-.18753-.29279-.44184-.29279-.707s.10532-.51947.29279-.707zm2.70666 8.04067h-4v-1h1.66667v-3.33334h-1.33333v-1h2.33333v4.33334h1.33333z" fill="#000"/></svg>