<svg fill="none" height="16" viewBox="0 0 16 16" width="16" xmlns="http://www.w3.org/2000/svg"><path d="m7.99999 1.66666c1.25262 0 2.47711.37145 3.51861 1.06736 1.0415.69592 1.8533 1.68505 2.3326 2.84232.4794 1.15726.6048 2.43068.3604 3.65923-.2443 1.22853-.8475 2.35703-1.7333 3.24273-.8857.8858-2.0142 1.489-3.24273 1.7333-1.22855.2444-2.50197.119-3.65924-.3604-1.15726-.4793-2.1464-1.2911-2.84231-2.3326-.69592-1.0415-1.06736-2.26599-1.06736-3.5186.00194-1.67911.66982-3.28889 1.85713-4.4762s2.7971-1.8552 4.4762-1.85714zm0-.999996c-1.45039 0-2.86822.430096-4.07418 1.235886-1.20596.8058-2.14589 1.95111-2.70093 3.2911-.555046 1.33999-.700271 2.81448-.417312 4.23701.282962 1.42254.981392 2.72924 2.006972 3.75474 1.02559 1.0256 2.33226 1.7241 3.75479 2.007 1.42253.283 2.89702.1378 4.23697-.4173 1.34-.555 2.4853-1.495 3.2911-2.7009.8058-1.206 1.2359-2.62381 1.2359-4.0742 0-1.94492-.7726-3.81019-2.1479-5.18545-1.3752-1.37527-3.24049-2.147886-5.18541-2.147886zm0 4.999996c.26522 0 .51957-.10535.70711-.29289s.29289-.44189.29289-.70711c.00015-.16451-.0403-.32652-.11775-.47166s-.18951-.26894-.32626-.36041c-.13674-.09146-.29394-.14778-.45765-.16396-.16372-.01618-.3289.00829-.4809.07123-.152.06293-.28612.1624-.39048.28958-.10436.12717-.17573.27813-.20779.4395-.03205.16136-.0238.32813.02402.48554s.13375.30059.25015.41685c.09126.09489.20113.16992.32273.22039.12159.05047.2523.07531.38393.07294zm.66667 5.33334v-4.33334h-2.33333v1h1.33333v3.33334h-1.66667v1h4v-1z" fill="#000"/></svg>