<svg width="17" height="17" viewBox="0 0 17 17" fill="none" xmlns="http://www.w3.org/2000/svg">
<path d="M6.08342 10.875V16.5H4.83342V10.875H6.08342ZM14.0001 0.666664H7.33342C6.67037 0.666664 6.03449 0.930056 5.56565 1.3989C5.09681 1.86774 4.83342 2.50362 4.83342 3.16666V7.125H6.08342V3.16666C6.08342 2.83514 6.21511 2.5172 6.44953 2.28278C6.68395 2.04836 7.00189 1.91666 7.33342 1.91666H14.0001C14.3316 1.91666 14.6495 2.04836 14.884 2.28278C15.1184 2.5172 15.2501 2.83514 15.2501 3.16666V16.5H16.5001V3.16666C16.5001 2.50362 16.2367 1.86774 15.7679 1.3989C15.299 0.930056 14.6631 0.666664 14.0001 0.666664ZM8.92175 4.40416L8.03842 5.2875L10.5184 7.76833L11.3676 8.375H0.666748V9.625H11.3676L10.4151 10.3058L8.03592 12.7142L8.92425 13.5933L13.4901 8.9725L8.92175 4.40416Z" fill="#DEDEDE"/>
</svg>
