<svg fill="none" height="17" viewBox="0 0 17 17" width="17" xmlns="http://www.w3.org/2000/svg"><path d="m6.08342 10.875v5.625h-1.25v-5.625zm7.91668-10.208336h-6.66668c-.66305 0-1.29893.263392-1.76777.732236-.46884.46884-.73223 1.10472-.73223 1.76776v3.95834h1.25v-3.95834c0-.33152.13169-.64946.36611-.88388s.55236-.36612.88389-.36612h6.66668c.3315 0 .6494.1317.8839.36612.2344.23442.3661.55236.3661.88388v13.33334h1.25v-13.33334c0-.66304-.2634-1.29892-.7322-1.76776-.4689-.468844-1.1048-.732236-1.7678-.732236zm-5.07835 3.737496-.88333.88334 2.47998 2.48083.8492.60667h-10.700852v1.25h10.700852l-.9525.6808-2.37918 2.4084.88833.8791 4.56585-4.6208z" fill="#dedede"/></svg>