<svg height="16" viewBox="0 0 16 16" width="16" xmlns="http://www.w3.org/2000/svg"><path d="m6 10.5v3.5h-1v-3.5zm5-7.5h-4c-.530433 0-1.039141.210713-1.414214.585787-.375072.375072-.585786.88378-.585786 1.414213v2.5h1v-2.5c0-.265217.105357-.51957.292893-.707107.187537-.187536.441891-.292893.707107-.292893h4c.265217 0 .51957.105357.707107.292893.187536.187537.292893.44189.292893.707107v9h1v-9c0-.530433-.210714-1.039141-.585787-1.414213-.375072-.375074-.88378-.585787-1.414213-.585787zm-3.043 2.979-.7.71 1.414 1.411.7.4h-7.371v1h7.375l-.7.4-1.423 1.411.705.71 3.043-3.021z" fill-rule="evenodd"/></svg>