<svg width="19" height="19" viewBox="0 0 19 19" fill="none" xmlns="http://www.w3.org/2000/svg">
<path d="M6.5 12.25V19H5V12.25H6.5ZM16 0H8C7.20435 0 6.44129 0.316071 5.87868 0.87868C5.31607 1.44129 5 2.20435 5 3V7.75H6.5V3C6.5 2.60218 6.65804 2.22064 6.93934 1.93934C7.22064 1.65804 7.60218 1.5 8 1.5H16C16.3978 1.5 16.7794 1.65804 17.0607 1.93934C17.342 2.22064 17.5 2.60218 17.5 3V19H19V3C19 2.20435 18.6839 1.44129 18.1213 0.87868C17.5587 0.316071 16.7956 0 16 0ZM9.906 4.485L8.846 5.545L11.822 8.522L12.841 9.25H0V10.75H12.841L11.698 11.567L8.843 14.457L9.909 15.512L15.388 9.967L9.906 4.485Z" fill="#F44336"/>
</svg>
