<svg height="16" viewBox="0 0 16 16" width="16" xmlns="http://www.w3.org/2000/svg" xmlns:xlink="http://www.w3.org/1999/xlink"><mask id="a" fill="#fff"><path d="m2 0c-1.104569 0-2 .895431-2 2v3.5h4.371l-.7-.399996-1.414-1.411.7-.71 3.043 3.020996-3.043 3.021004-.705-.71 1.423-1.411001.7-.400003h-4.375v4.5h8v-9c0-1.104569-.895431-2-2-2z" fill="#fff" fill-rule="evenodd"/></mask><g fill="#000" fill-rule="evenodd" transform="translate(2 3)"><g transform="translate(3)"><path d="m2 0c-1.104569 0-2 .895431-2 2v3.5h4.371l-.7-.399996-1.414-1.411.7-.71 3.043 3.020996-3.043 3.021004-.705-.71 1.423-1.411001.7-.400003h-4.375v4.5h8v-9c0-1.104569-.895431-2-2-2z"/><path d="m0 5.500004h-1v1h1zm4.371 0v1h3.765567l-3.269428-1.868243zm-.7-.4-.706356.707857.094413.094212.115804.066174zm-1.414-1.411-.712104-.702074-.697853.707823.703601.702108zm.7-.71.704536-.709667-.71213-.706982-.70451.714575zm3.043 3.021.704537.709667.714836-.709667-.714836-.709668zm-3.043 3.021-.709601.704604.704537.709534.7096-.704471zm-.705-.71-.704106-.710095-.710593.7046.705098.710099zm1.423-1.411001-.496138-.868243-.114403.065373-.093565.092776zm.7-.399999.496139.868243 3.269428-1.868243h-3.765567zm-4.375 0v-1h-1v1zm0 4.499996h-1v1h1zm8 0v1h1v-1zm-7-9c0-.552284.447715-1 1-1v-2c-1.656854 0-3 1.343145-3 3zm0 3.5v-3.5h-2v3.5zm3.371-.999996h-4.371v2h4.371zm-1.196139 1.468243.700001.4.992277-1.736486-.700001-.4zm-1.624217-1.571386 1.414 1.411 1.412711-1.415714-1.413999-1.411zm.694252-2.119931-.7.71 1.424208 1.404148.7-.71zm4.459641 3.013406-3.043001-3.020999-1.409073 1.419334 3.043 3.021zm-3.043001 4.440335 3.043001-3.021-1.409074-1.419335-3.043 3.021001zm-2.119137-.715063.705.71 1.419202-1.409208-.705-.71zm1.428495-2.825699-1.423 1.411 1.408212 1.420189 1.423001-1.411zm.907967-.558148-.699999.399999.992277 1.736487.7-.4zm-3.878861 1.868243h4.375v-2h-4.375zm1 3.5v-4.5h-2v4.5zm7-1.000004h-8v2h8zm-1-8v9h2v-9zm-1-1c.552285 0 1 .447716 1 1h2c0-1.656855-1.343146-3-3-3zm-4 0h4v-2h-4z" mask="url(#a)"/></g><path d="m0 5.5h3v1h-3z"/></g></svg>