<svg fill="none" height="19" viewBox="0 0 19 19" width="19" xmlns="http://www.w3.org/2000/svg"><path d="m6.5 12.25v6.75h-1.5v-6.75zm9.5-12.25h-8c-.79565 0-1.55871.316071-2.12132.87868-.56261.56261-.87868 1.32567-.87868 2.12132v4.75h1.5v-4.75c0-.39782.15804-.77936.43934-1.06066s.66284-.43934 1.06066-.43934h8c.3978 0 .7794.15804 1.0607.43934s.4393.66284.4393 1.06066v16h1.5v-16c0-.79565-.3161-1.55871-.8787-2.12132-.5626-.562609-1.3257-.87868-2.1213-.87868zm-6.094 4.485-1.06 1.06 2.976 2.977 1.019.728h-12.841v1.5h12.841l-1.143.817-2.855 2.89 1.066 1.055 5.479-5.545z" fill="#f44336"/></svg>