<svg fill="none" height="8" viewBox="0 0 22 8" width="22" xmlns="http://www.w3.org/2000/svg"><path d="m21.5 4.25c0 .99456-.3951 1.94839-1.0984 2.65165-.7032.70326-1.657 1.09835-2.6516 1.09835h-6c-.9946 0-1.94839-.39509-2.65165-1.09835s-1.09835-1.65709-1.09835-2.65165c.00051-.25185.02563-.50304.075-.75h1.563c-.08883.24019-.13551.49392-.138.75 0 .59674.23705 1.16903.659 1.59099.422.42196.9943.65901 1.591.65901h6c.5967 0 1.169-.23705 1.591-.65901.4219-.42196.659-.99425.659-1.59099s-.2371-1.16903-.659-1.59099c-.422-.42196-.9943-.65901-1.591-.65901h-2.25l-1.5-1.5h3.75c.9946 0 1.9484.395088 2.6516 1.09835.7033.70326 1.0984 1.65709 1.0984 2.65165zm-17.25 3.75h3.75l-1.5-1.5h-2.25c-.59674 0-1.16903-.23705-1.59099-.65901s-.65901-.99425-.65901-1.59099.23705-1.16903.65901-1.59099.99425-.65901 1.59099-.65901h6c.5967 0 1.169.23705 1.591.65901.4219.42196.659.99425.659 1.59099-.0025.25608-.0492.50981-.138.75h1.563c.0494-.24696.0745-.49815.075-.75 0-.99456-.3951-1.94839-1.0983-2.65165-.7033-.703262-1.6571-1.09835-2.6517-1.09835h-6c-.99456 0-1.94839.395088-2.65165 1.09835-.703262.70326-1.09835 1.65709-1.09835 2.65165s.395088 1.94839 1.09835 2.65165c.70326.70326 1.65709 1.09835 2.65165 1.09835z" fill="#000"/></svg>