<svg xmlns="http://www.w3.org/2000/svg" width="32" height="32" fill="none"><path fill="#fff" fill-rule="evenodd" d="M20.648 18.834a.945.945 0 0 1 0-1.31l2.976-3.06c1.761-1.81 1.761-4.744 0-6.554a4.424 4.424 0 0 0-6.377 0l-2.976 3.059a.885.885 0 0 1-1.276 0 .945.945 0 0 1 0-1.311l2.976-3.06a6.194 6.194 0 0 1 8.929 0c2.465 2.535 2.465 6.643 0 9.178l-2.976 3.058a.885.885 0 0 1-1.276 0ZM10.02 14.028a.945.945 0 0 1 0 1.311l-2.976 3.059c-1.761 1.81-1.761 4.744 0 6.555a4.424 4.424 0 0 0 6.378 0l2.976-3.06a.885.885 0 0 1 1.275 0 .945.945 0 0 1 0 1.312l-2.976 3.059a6.193 6.193 0 0 1-8.928 0c-2.466-2.534-2.466-6.643 0-9.177l2.976-3.059a.885.885 0 0 1 1.275 0Zm8.504.437a.945.945 0 0 0 0-1.31.885.885 0 0 0-1.276 0l-5.102 5.243a.945.945 0 0 0 0 1.311.885.885 0 0 0 1.276 0l5.102-5.244Z" clip-rule="evenodd"/><path fill="#647392" fill-rule="evenodd" d="M19.573 19.88a2.445 2.445 0 0 1 0-3.403l2.976-3.059c1.195-1.227 1.195-3.234 0-4.462a2.924 2.924 0 0 0-4.227 0l-2.976 3.059a2.385 2.385 0 0 1-3.426 0 2.445 2.445 0 0 1 0-3.403l2.976-3.06L15.971 6.6l-2.976 3.059a.945.945 0 0 0 0 1.31.885.885 0 0 0 1.276 0l2.976-3.058a4.424 4.424 0 0 1 6.377 0c1.761 1.81 1.761 4.745 0 6.554l-2.976 3.06a.945.945 0 0 0 0 1.31.885.885 0 0 0 1.276 0l2.976-3.059c2.465-2.534 2.465-6.642 0-9.176a6.194 6.194 0 0 0-8.929 0l-1.075-1.046a7.693 7.693 0 0 1 11.079 0c3.032 3.116 3.032 8.152 0 11.269l-2.976 3.058a2.385 2.385 0 0 1-3.426 0Zm-1.765 1.882.94-.914a2.445 2.445 0 0 1 0 3.403l-2.977 3.058a7.693 7.693 0 0 1-11.078 0c-3.033-3.116-3.033-8.152 0-11.268l2.976-3.059a2.385 2.385 0 0 1 3.425 0 2.445 2.445 0 0 1 0 3.403l-2.976 3.059c-1.194 1.228-1.194 3.235 0 4.463a2.924 2.924 0 0 0 4.228 0l2.976-3.06a2.385 2.385 0 0 1 3.425 0l-.939.915Zm1.79-9.654a2.445 2.445 0 0 1 0 3.403l-5.102 5.244a2.385 2.385 0 0 1-3.426 0 2.445 2.445 0 0 1 0-3.403l5.102-5.244a2.385 2.385 0 0 1 3.426 0Zm-9.579 3.231a.945.945 0 0 0 0-1.31.885.885 0 0 0-1.275 0l-2.976 3.058c-2.466 2.534-2.466 6.643 0 9.177a6.193 6.193 0 0 0 8.928 0l2.976-3.06a.945.945 0 0 0 0-1.31.885.885 0 0 0-1.275 0l-2.976 3.059a4.424 4.424 0 0 1-6.378 0c-1.761-1.81-1.761-4.745 0-6.555l2.976-3.059Zm8.504-2.185a.945.945 0 0 1 0 1.311L13.42 19.71a.885.885 0 0 1-1.276 0 .945.945 0 0 1 0-1.31l5.102-5.245a.885.885 0 0 1 1.276 0Z" clip-rule="evenodd"/></svg>