<svg fill="none" height="24" viewBox="0 0 24 24" width="24" xmlns="http://www.w3.org/2000/svg"><path d="m11.6271 15.556 1.2775-1.2858c-1.0086-.0925-1.7145-.4119-2.2356-.9329-1.42036-1.4204-1.42036-3.43744-.0084-4.84938l2.7903-2.79027c1.4203-1.42035 3.429-1.42035 4.8493 0 1.4288 1.43716 1.4203 3.43741.0084 4.84935l-1.4456 1.4456c.269.6135.353 1.3615.2102 2.0086l2.412-2.4036c2.0675-2.05913 2.0759-4.98387-.0084-7.06817-2.0843-2.0927-5.009-2.07589-7.0681-.0168l-2.92474 2.93314c-2.05908 2.05908-2.07589 4.98383.00841 7.06813.49586.4874 1.15983.8572 2.13473 1.0421zm.7396-7.08489-1.2691 1.28588c1.0001.09244 1.7145.42021 2.2272.93291 1.4287 1.4287 1.4287 3.4374.0084 4.8493l-2.7903 2.7903c-1.42033 1.4203-3.42058 1.4203-4.84933 0-1.42875-1.4288-1.42035-3.4374 0-4.8494l1.43716-1.4455c-.26054-.6135-.35299-1.3531-.21012-2.0087l-2.40366 2.4037c-2.06749 2.0591-2.07589 4.9922.0084 7.0765 2.0843 2.0843 5.00904 2.0675 7.06815.0084l2.9163-2.9247c2.0675-2.0675 2.0759-4.9922-.0084-7.06814-.4875-.49586-1.1514-.86565-2.1347-1.05055z" fill="#000"/></svg>