<svg width="12" height="12" viewBox="0 0 12 12" fill="none" xmlns="http://www.w3.org/2000/svg">
<g clip-path="url(#clip0_1619_1707)">
<path d="M9 0C7.34 0 6 1.34 6 3V4.5H2C0.9 4.5 0 5.4 0 6.5V10C0 11.1 0.9 12 2 12H7C8.1 12 9 11.1 9 10V6.5C9 5.4 8.1 4.5 7 4.5V3C7 1.9 7.9 1 9 1C10.1 1 11 1.9 11 3V5H12V3C12 1.34 10.66 0 9 0ZM8 6.5V10C8 10.55 7.55 11 7 11H2C1.45 11 1 10.55 1 10V6.5C1 5.95 1.45 5.5 2 5.5H7C7.55 5.5 8 5.95 8 6.5ZM5 8.35V10H4V8.35C3.71 8.18 3.5 7.87 3.5 7.5C3.5 6.95 3.95 6.5 4.5 6.5C5.05 6.5 5.5 6.95 5.5 7.5C5.5 7.87 5.29 8.17 5 8.35Z" fill="black" fill-opacity="0.72"/>
</g>
<defs>
<clipPath id="clip0_1619_1707">
<rect width="12" height="12" fill="white"/>
</clipPath>
</defs>
</svg>
