<svg fill="none" height="21" viewBox="0 0 16 21" width="16" xmlns="http://www.w3.org/2000/svg"><path d="m13 8v-3c0-1.32608-.5268-2.59785-1.4645-3.53553-.9376-.937686-2.20942-1.46447-3.5355-1.46447s-2.59785.526784-3.53553 1.46447c-.93769.93768-1.46447 2.20945-1.46447 3.53553v3c-.79565 0-1.55871.31607-2.12132.87868-.562609.56261-.87868 1.32572-.87868 2.12132v7c0 .7956.316071 1.5587.87868 2.1213.56261.5626 1.32567.8787 2.12132.8787h10c.7956 0 1.5587-.3161 2.1213-.8787s.8787-1.3257.8787-2.1213v-7c0-.7956-.3161-1.55871-.8787-2.12132s-1.3257-.87868-2.1213-.87868zm-8.5-3c0-.92826.36875-1.8185 1.02513-2.47487.65637-.65638 1.54661-1.02513 2.47487-1.02513s1.8185.36875 2.4749 1.02513c.6564.65637 1.0251 1.54661 1.0251 2.47487v3h-7zm10 13c0 .3978-.158.7794-.4393 1.0607s-.6629.4393-1.0607.4393h-10c-.39782 0-.77936-.158-1.06066-.4393s-.43934-.6629-.43934-1.0607v-7c0-.3978.15804-.7794.43934-1.06066.2813-.2813.66284-.43934 1.06066-.43934h10c.3978 0 .7794.15804 1.0607.43934.2813.28126.4393.66286.4393 1.06066zm-5.75-3.208v2.208h-1.5v-2.208c-.28596-.1651-.50946-.4199-.63582-.725s-.14853-.6433-.06307-.9623c.08546-.3189.27378-.6008.53575-.8018.26196-.201.58294-.3099.91314-.3099s.65118.1089.91314.3099c.26197.201.45029.4829.53575.8018.08546.319.06329.6572-.06307.9623s-.34986.5599-.63582.725z" fill="#000"/></svg>