<svg xmlns="http://www.w3.org/2000/svg" width="32" height="32" fill="none"><path fill="#FFE3A5" d="M8 8.667a8 8 0 1 1 16 0v4.252c-.44-.22-.93-.32-1.525-.37a22.132 22.132 0 0 0-1.675-.048V8.8a4.8 4.8 0 1 0-9.6 0v3.7a22.12 22.12 0 0 0-1.675.048c-.595.05-1.084.15-1.525.37V8.666ZM8.658 14.266c.2-.102.476-.18.99-.222.526-.043 1.204-.044 2.192-.044h8.32c.988 0 1.666 0 2.192.044.514.042.79.12.99.222.456.235.828.609 1.06 1.069.102.2.179.479.22.996.044.53.045 1.213.045 2.209v5.587c0 .995-.001 1.678-.044 2.208-.042.518-.12.796-.22.997-.233.46-.605.834-1.061 1.068-.2.103-.476.18-.99.223-.526.043-1.204.044-2.192.044h-8.32c-.988 0-1.666-.001-2.192-.044-.514-.043-.79-.12-.99-.223a2.436 2.436 0 0 1-1.06-1.068c-.102-.201-.179-.48-.22-.997-.044-.53-.045-1.213-.045-2.208V18.54c0-.995.001-1.679.044-2.209.042-.517.119-.795.22-.996.233-.46.605-.834 1.061-1.069Z"/><path fill="#B3841C" fill-rule="evenodd" d="M16 .667a8 8 0 0 0-8 8v4.251c.435-.217.916-.317 1.5-.367V8.667a6.5 6.5 0 1 1 13 0v3.884c.584.05 1.065.15 1.5.367V8.668a8 8 0 0 0-8-8ZM20.8 12.5V8.8a4.8 4.8 0 1 0-9.6 0v3.7l.618-.001h.882V8.8a3.3 3.3 0 0 1 6.6 0v3.7h1.5Z" clip-rule="evenodd"/><path fill="#B2841C" fill-rule="evenodd" d="M11.818 12.5c-.952 0-1.696 0-2.293.05-.607.05-1.104.152-1.552.382-.74.38-1.339.984-1.714 1.726-.226.447-.328.943-.377 1.552-.049.6-.049 1.349-.049 2.31v5.628c0 .96 0 1.708.049 2.308.05.61.151 1.106.377 1.553a3.935 3.935 0 0 0 1.714 1.726c.448.23.945.333 1.552.383.597.049 1.341.049 2.293.049h8.364c.952 0 1.696 0 2.293-.05.607-.05 1.104-.152 1.552-.382.74-.38 1.339-.985 1.714-1.726.226-.447.328-.944.377-1.553.049-.6.049-1.348.049-2.308v-5.629c0-.96 0-1.708-.049-2.309-.05-.609-.151-1.105-.377-1.552a3.936 3.936 0 0 0-1.714-1.726c-.448-.23-.945-.333-1.552-.383-.597-.049-1.341-.049-2.293-.049h-8.364Zm-2.17 1.544c-.514.042-.79.12-.99.222a2.436 2.436 0 0 0-1.06 1.069c-.102.2-.179.479-.22.996-.044.53-.045 1.213-.045 2.209v5.587c0 .995.001 1.678.044 2.208.042.518.119.796.22.997.233.46.605.834 1.061 1.068.2.103.476.18.99.223.526.043 1.204.044 2.192.044h8.32c.988 0 1.666-.001 2.192-.044.514-.043.79-.12.99-.223a2.436 2.436 0 0 0 1.06-1.068c.102-.201.179-.48.22-.997.044-.53.045-1.213.045-2.208V18.54c0-.995-.001-1.679-.044-2.209-.042-.517-.12-.795-.22-.996a2.436 2.436 0 0 0-1.061-1.069c-.2-.102-.476-.18-.99-.222-.526-.043-1.204-.044-2.192-.044h-8.32c-.988 0-1.666 0-2.192.044Z" clip-rule="evenodd"/><path fill="#B2841C" d="M15 21.066a2 2 0 1 1 2 0v2.1a1 1 0 1 1-2 0v-2.1Z"/></svg>