<svg height="16" viewBox="0 0 16 16" width="16" xmlns="http://www.w3.org/2000/svg"><path d="m12.54.94c-.2754461-.11879507-.5953589-.05955195-.81.15-1.1149688 1.15260967-2.628075 1.83583255-4.23 1.91h-6.25c-.69035594 0-1.25.55964406-1.25 1.25v3.5c0 .69035594.55964406 1.25 1.25 1.25h.75v3.25c.00538581.4119621.33803794.7446142.75.75h1.5c.41196206-.0053858.74461419-.3380379.75-.75v-3.25h2.5c1.601925.07416745 3.1150312.75739033 4.23 1.91.1384594.1364429.3256201.212027.52.21.0997799.0003107.1985351-.0201214.29-.06.2781085-.116604.4593304-.3884368.46-.69v-8.74c-.0006696-.30156323-.1818915-.57339601-.46-.69zm-11.29 7.06c-.13807119 0-.25-.11192881-.25-.25v-3.5c0-.13807119.11192881-.25.25-.25h2.75v4zm2.75 4h-1v-3h1zm8-2.2c-1.240143-1.11294874-2.83441453-1.75065734-4.5-1.8h-2.5v-4h2.5c1.66558547-.04934266 3.259857-.68705126 4.5-1.8z" transform="translate(2 1)"/></svg>