<svg height="16" viewBox="0 0 16 16" width="16" xmlns="http://www.w3.org/2000/svg"><path d="m1.25 3h3.75v9.25c-.00538581.4119621-.33803794.7446142-.75.75h-.5c-.41196206-.0053858-.74461419-.3380379-.75-.75v-3.25h-1.75c-.69035594 0-1.25-.55964406-1.25-1.25v-3.5c0-.69035594.55964406-1.25 1.25-1.25zm11.29-2.06c-.2754461-.11879507-.5953589-.05955195-.81.15-1.1149688 1.15260967-2.628075 1.83583255-4.23 1.91h-1.5v6h1.5c1.601925.07416745 3.1150312.75739033 4.23 1.91.1384594.1364429.3256201.212027.52.2100397.0997799.000271.1985351-.0201611.29-.0600397.2781085-.116604.4593304-.3884368.46-.69v-8.74c-.0006696-.30156323-.1818915-.57339601-.46-.69z" transform="translate(2 1)"/></svg>