<svg height="16" viewBox="0 0 16 16" width="16" xmlns="http://www.w3.org/2000/svg"><g fill-rule="evenodd" transform="translate(1 3)"><path d="m11.283125 5.421051c.415879-.458721.692655-1.032725.796298-1.651437.103643-.618711.029636-1.255159-.212922-1.831091-.242559-.575931-.643096-1.06624-1.152363-1.410641-.509267-.344402-1.105065-.527882-1.714138-.527882s-1.204871.18348-1.714138.527882c-.509267.344401-.909803.83471-1.152362 1.410641-.242559.575932-.316567 1.21238-.212923 1.831091.103643.618712.38042 1.192716.796298 1.651437-.770767.181094-1.459154.626347-1.95265 1.262985s-.762916 1.42701-.764225 2.241938v1.074026h.9375v-1.074026c.000827-.697424.26995-1.366038.74834-1.859191s1.126989-.770582 1.803535-.771434h3.02125c.676546.000852 1.325144.278281 1.803534.771434.478391.493153.747514 1.161767.748341 1.859191v1.074026h.9375v-1.074026c-.001309-.814928-.270728-1.6053-.764225-2.241938-.493496-.636638-1.181883-1.081891-1.95265-1.262985zm-2.283125.068939c-.432647 0-.855577-.132254-1.21531-.380037s-.64011-.599967-.805676-1.012015c-.165567-.412049-.208887-.865455-.124482-1.302883s.292745-.839232.598672-1.1546.695702-.530137 1.120036-.617146c.424333-.087011.864167-.042354 1.26388.128322.399713.170677.741355.459706.98172.83054.240366.370833.36866.806816.36866 1.252813 0 .598065-.230468 1.171635-.640704 1.59453s-.966635.660476-1.546796.660476z"/><path d="m3.5556367 5.2727893-1.2727926-1.2727926 1.2727926-1.2727926-.2828428-.2828428-1.2727926 1.2727926-1.2727926-1.2727926-.2828428.2828428 1.2727926 1.2727926-1.2727926 1.2727926.2828428.2828428 1.2727926-1.2727926 1.2727926 1.2727926z"/><path d="m3.55563641 5.27278959.17677675.17677675.17677675-.17677675-.17677675-.17677675zm-1.2727926-1.2727926-.17677675-.17677675-.17677675.17677675.17677675.17677675zm1.2727933-1.2727933.17677675.17677675.17677675-.17677675-.17677675-.17677675zm-.2828428-.2828428.17677675-.17677675-.17677675-.17677675-.17677675.17677675zm-1.2727933 1.2727933-.17677675.17677675.17677675.17677675.17677675-.17677675zm-1.2727926-1.2727926.17677675-.17677675-.17677675-.17677675-.17677675.17677675zm-.2828421.2828421-.17677675-.17677675-.17677675.17677675.17677675.17677675zm1.2727926 1.2727926.17677675.17677675.17677675-.17677675-.17677675-.17677675zm-1.2727926 1.2727926-.17677675-.17677675-.17677675.17677675.17677675.17677675zm.2828428.2828428-.17677675.17677675.17677675.17677675.17677675-.17677675zm1.2727926-1.2727926.17677675-.17677675-.17677675-.17677675-.17677675.17677675zm1.2727926 1.2727926-.17677675.17677675.17677675.17677675.17677675-.17677675zm.45961885-.45961885-1.2727926-1.2727926-.3535535.3535535 1.2727926 1.2727926zm-1.2727926-.9192391 1.2727933-1.2727933-.3535535-.3535535-1.2727933 1.2727933zm1.2727933-1.6263468-.2828428-.2828428-.3535535.3535535.2828428.2828428zm-.6363963-.2828428-1.2727933 1.2727933.3535535.3535535 1.2727933-1.2727933zm-.9192398 1.2727933-1.2727926-1.2727926-.3535535.3535535 1.2727926 1.2727926zm-1.6263461-1.2727926-.2828421.2828421.3535535.3535535.2828421-.2828421zm-.2828421.6363956 1.2727926 1.2727926.3535535-.3535535-1.2727926-1.2727926zm1.2727926.9192391-1.2727926 1.2727926.3535535.3535535 1.2727926-1.2727926zm-1.2727926 1.6263461.2828428.2828428.3535535-.3535535-.2828428-.2828428zm.6363963.2828428 1.2727926-1.2727926-.3535535-.3535535-1.2727926 1.2727926zm.9192391-1.2727926 1.2727926 1.2727926.3535535-.3535535-1.2727926-1.2727926zm1.6263461 1.2727926.2828421-.2828421-.3535535-.3535535-.2828421.2828421z"/></g></svg>