<svg height="16" viewBox="0 0 16 16" width="16" xmlns="http://www.w3.org/2000/svg"><g fill-rule="evenodd" transform="translate(0 3)"><path d="m12.283125 5.421051c.415879-.458721.692655-1.032725.796298-1.651437.103643-.618711.029636-1.255159-.212922-1.831091-.242559-.575931-.643096-1.06624-1.152363-1.410641-.509267-.344402-1.105065-.527882-1.714138-.527882s-1.204871.18348-1.714138.527882c-.509267.344401-.909803.83471-1.152362 1.410641-.242559.575932-.316567 1.21238-.212923 1.831091.103643.618712.38042 1.192716.796298 1.651437-.770767.181094-1.459154.626347-1.95265 1.262985s-.762916 1.42701-.764225 2.241938v1.074026h.9375v-1.074026c.000827-.697424.26995-1.366038.74834-1.859191s1.126989-.770582 1.803535-.771434h3.02125c.676546.000852 1.325144.278281 1.803534.771434.478391.493153.747514 1.161767.748341 1.859191v1.074026h.9375v-1.074026c-.001309-.814928-.270728-1.6053-.764225-2.241938-.493496-.636638-1.181883-1.081891-1.95265-1.262985zm-2.283125.068939c-.432647 0-.855577-.132254-1.21531-.380037s-.64011-.599967-.805676-1.012015c-.165567-.412049-.208887-.865455-.124482-1.302883s.292745-.839232.598672-1.1546.695702-.530137 1.120036-.617146c.424333-.087011.864167-.042354 1.26388.128322.399713.170677.741355.459706.98172.83054.240366.370833.36866.806816.36866 1.252813 0 .598065-.230468 1.171635-.640704 1.59453s-.966635.660476-1.546796.660476z"/><path d="m5 3.8h-1.8v-1.8h-.4v1.8h-1.8v.4h1.8v1.8h.4v-1.8h1.8z"/><path d="m5 3.8h.25v-.25h-.25zm-1.8 0h-.25v.25h.25zm0-1.8h.25v-.25h-.25zm-.4 0v-.25h-.25v.25zm0 1.8v.25h.25v-.25zm-1.8 0v-.25h-.25v.25zm0 .4h-.25v.25h.25zm1.8 0h.25v-.25h-.25zm0 1.8h-.25v.25h.25zm.4 0v.25h.25v-.25zm0-1.8v-.25h-.25v.25zm1.8 0v.25h.25v-.25zm0-.65h-1.8v.5h1.8zm-1.55.25v-1.8h-.5v1.8zm-.25-2.05h-.4v.5h.4zm-.65.25v1.8h.5v-1.8zm.25 1.55h-1.8v.5h1.8zm-2.05.25v.4h.5v-.4zm.25.65h1.8v-.5h-1.8zm1.55-.25v1.8h.5v-1.8zm.25 2.05h.4v-.5h-.4zm.65-.25v-1.8h-.5v1.8zm-.25-1.55h1.8v-.5h-1.8zm2.05-.25v-.4h-.5v.4z"/></g></svg>