<svg height="16" viewBox="0 0 16 16" width="16" xmlns="http://www.w3.org/2000/svg"><g fill-rule="evenodd" transform="translate(0 3)"><path d="m10 0c-.512766 0-1.014017.154922-1.440367.445174-.42635.290253-.758649.702801-.954876 1.185474-.196227.482672-.247569 1.013792-.147533 1.526195.100035.512403.346956.983074.709537 1.352496.36258.369422.824536.621001 1.32745.722925.502913.101923 1.024197.049612 1.497932-.150318.473734-.199929.878642-.538498 1.16352-.972892.284877-.434394.43693-.945103.43693-1.467544 0-.700572-.273147-1.37245-.759353-1.867829-.486205-.49538-1.145641-.773681-1.83324-.773681zm2.621482 5.303397c-.343416.352279-.751837.631861-1.201746.822648-.449908.190786-.932415.289006-1.419736.289006-.48732 0-.969827-.09822-1.419735-.289006-.449909-.190787-.85833-.470369-1.201746-.822648-.692402.23982-1.293911.694155-1.720386 1.299454-.426474.605299-.656582 1.331283-.658133 2.076395v.566038c0 .200163.078042.392129.216958.533666s.327326.22105.523783.22105h8.518519c.196457 0 .384867-.079513.523783-.22105s.216957-.333503.216957-.533666v-.566038c-.001551-.745112-.231658-1.471096-.658133-2.076395-.426474-.605299-1.027983-1.059634-1.720385-1.299454z"/><path d="m4.5 3.800003h-1.575v.25h-.35v-.25h-1.575v.5h1.575v-.25h.35v.25h1.575z"/><path d="m4.5 3.800003h.25v-.25h-.25zm-1.575 0v-.25h-.25v.25zm-.35 0h.25v-.25h-.25zm-1.575 0v-.25h-.25v.25zm0 .5h-.25v.25h.25zm1.575 0v.25h.25v-.25zm.35 0h-.25v.25h.25zm1.575 0v.25h.25v-.25zm0-.75h-1.575v.5h1.575zm-1.825.25v.25h.5v-.25zm.25 0h-.35v.5h.35zm-.1.25v-.25h-.5v.25zm-.25-.5h-1.575v.5h1.575zm-1.825.25v.5h.5v-.5zm.25.75h1.575v-.5h-1.575zm1.825-.25v-.25h-.5v.25zm-.15-.25v.25h.5v-.25zm.25.5h1.575v-.5h-1.575zm1.825-.25v-.5h-.5v.5z"/></g></svg>