<svg height="16" viewBox="0 0 16 16" width="16" xmlns="http://www.w3.org/2000/svg"><path d="m12.964932 8.421051c.415879-.458721.692655-1.032725.796298-1.651437.103644-.618711.029637-1.255159-.212922-1.831091-.242559-.575931-.643096-1.06624-1.152362-1.410641-.509268-.344402-1.105066-.527882-1.714138-.527882-.609073 0-1.204871.18348-1.714139.527882-.509266.344401-.909803.83471-1.152362 1.410641-.242559.575932-.316566 1.21238-.212923 1.831091.103644.618712.38042 1.192716.796299 1.651437-.770768.181094-1.459155.626347-1.95265 1.262985-.493497.636638-.762917 1.42701-.764225 2.241938v1.074026h.9375v-1.074026c.000826-.697424.269949-1.366038.74834-1.859191.47839-.493153 1.126989-.770582 1.803535-.771434h3.021249c.676546.000852 1.325145.278281 1.803535.771434.478391.493153.747514 1.161767.748341 1.859191v1.074026h.9375v-1.074026c-.00131-.814928-.270729-1.6053-.764225-2.241938s-1.181883-1.081891-1.952651-1.262985zm-2.283124.068939c-.432647 0-.855578-.132254-1.215311-.380037-.359732-.247783-.64011-.599967-.805676-1.012015-.165566-.412049-.208886-.865455-.124481-1.302883s.292744-.839232.598672-1.1546c.305927-.315368.695702-.530137 1.120035-.617146.424333-.087011.864167-.042354 1.263881.128322.399713.170677.741354.459706.98172.83054.240365.370833.36866.806816.36866 1.252813 0 .598065-.230468 1.171635-.640705 1.59453-.410235.422895-.966634.660476-1.546795.660476zm-5.024964-3.257751.707107.707106-3.53553 3.53553.000006.000007-.707107.707107h-.00001l-.707106-.70711-1.414204-1.414211.707107-.707107 1.414207 1.414208z" fill-rule="evenodd"/></svg>