<svg height="16" viewBox="0 0 16 16" width="16" xmlns="http://www.w3.org/2000/svg"><g fill-rule="evenodd" transform="translate(1 3)"><path d="m9 0c-.512766 0-1.014017.154922-1.440367.445174-.42635.290253-.758649.702801-.954876 1.185474-.196227.482672-.247569 1.013792-.147533 1.526195.100035.512403.346956.983074.709537 1.352496.36258.369422.824536.621001 1.32745.722925.502913.101923 1.024197.049612 1.497932-.150318.473734-.199929.878642-.538498 1.16352-.972892.284877-.434394.43693-.945103.43693-1.467544 0-.700572-.273147-1.37245-.759353-1.867829-.486205-.49538-1.145641-.773681-1.83324-.773681zm2.621482 5.303397c-.343416.352279-.751837.631861-1.201746.822648-.449908.190786-.932415.289006-1.419736.289006-.48732 0-.969827-.09822-1.419735-.289006-.449909-.190787-.85833-.470369-1.201746-.822648-.692402.23982-1.293911.694155-1.720386 1.299454-.426474.605299-.656582 1.331283-.658133 2.076395v.566038c0 .200163.078042.392129.216958.533666s.327326.22105.523783.22105h8.518519c.196457 0 .384867-.079513.523783-.22105s.216957-.333503.216957-.533666v-.566038c-.001551-.745112-.231658-1.471096-.658133-2.076395-.426474-.605299-1.027983-1.059634-1.720385-1.299454z"/><path d="m3.5556357 5.2727893-1.2727926-1.2727926 1.2727926-1.2727926-.2828428-.2828428-1.2727926 1.2727926-1.2727926-1.2727926-.2828428.2828428 1.2727926 1.2727926-1.2727926 1.2727926.2828428.2828428 1.2727926-1.2727926 1.2727926 1.2727926z"/><path d="m3.55563641 5.27278959.17677675.17677675.17677675-.17677675-.17677675-.17677675zm-1.2727926-1.2727926-.17677675-.17677675-.17677675.17677675.17677675.17677675zm1.2727933-1.2727933.17677675.17677675.17677675-.17677675-.17677675-.17677675zm-.2828428-.2828428.17677675-.17677675-.17677675-.17677675-.17677675.17677675zm-1.2727933 1.2727933-.17677675.17677675.17677675.17677675.17677675-.17677675zm-1.2727926-1.2727926.17677675-.17677675-.17677675-.17677675-.17677675.17677675zm-.2828421.2828421-.17677675-.17677675-.17677675.17677675.17677675.17677675zm1.2727926 1.2727926.17677675.17677675.17677675-.17677675-.17677675-.17677675zm-1.2727926 1.2727926-.17677675-.17677675-.17677675.17677675.17677675.17677675zm.2828428.2828428-.17677675.17677675.17677675.17677675.17677675-.17677675zm1.2727926-1.2727926.17677675-.17677675-.17677675-.17677675-.17677675.17677675zm1.2727926 1.2727926-.17677675.17677675.17677675.17677675.17677675-.17677675zm.45961885-.45961885-1.2727926-1.2727926-.3535535.3535535 1.2727926 1.2727926zm-1.2727926-.9192391 1.2727933-1.2727933-.3535535-.3535535-1.2727933 1.2727933zm1.2727933-1.6263468-.2828428-.2828428-.3535535.3535535.2828428.2828428zm-.6363963-.2828428-1.2727933 1.2727933.3535535.3535535 1.2727933-1.2727933zm-.9192398 1.2727933-1.2727926-1.2727926-.3535535.3535535 1.2727926 1.2727926zm-1.6263461-1.2727926-.2828421.2828421.3535535.3535535.2828421-.2828421zm-.2828421.6363956 1.2727926 1.2727926.3535535-.3535535-1.2727926-1.2727926zm1.2727926.9192391-1.2727926 1.2727926.3535535.3535535 1.2727926-1.2727926zm-1.2727926 1.6263461.2828428.2828428.3535535-.3535535-.2828428-.2828428zm.6363963.2828428 1.2727926-1.2727926-.3535535-.3535535-1.2727926 1.2727926zm.9192391-1.2727926 1.2727926 1.2727926.3535535-.3535535-1.2727926-1.2727926zm1.6263461 1.2727926.2828421-.2828421-.3535535-.3535535-.2828421.2828421z"/></g></svg>