<svg height="16" viewBox="0 0 16 16" width="16" xmlns="http://www.w3.org/2000/svg"><path d="m10.68196 3c-.512766 0-1.014017.154922-1.440367.445174-.426349.290253-.758649.702801-.954876 1.185474-.196227.482672-.247569 1.013792-.147533 1.526195s.346956.983074.709537 1.352496c.36258.369422.824536.621001 1.327449.722925.502915.101923 1.024199.049612 1.497933-.150318.473735-.199929.878642-.538498 1.16352-.972892.284877-.434394.43693-.945103.43693-1.467544 0-.700572-.273147-1.37245-.759352-1.867829-.486206-.49538-1.145643-.773681-1.833241-.773681zm2.621482 5.303397c-.343416.352279-.751837.631861-1.201745.822648-.449909.190786-.932416.289006-1.419737.289006-.48732 0-.969827-.09822-1.419735-.289006-.449908-.190787-.858331-.470369-1.201746-.822648-.692402.23982-1.293911.694155-1.720386 1.299454-.426474.605299-.656582 1.331283-.658133 2.076395v.566038c0 .200163.078042.392129.216958.533666s.327326.22105.523783.22105h8.518519c.196457 0 .384867-.079513.523783-.22105s.216957-.333503.216957-.533666v-.566038c-.001551-.745112-.231658-1.471096-.658132-2.076395-.426475-.605299-1.027984-1.059634-1.720386-1.299454zm-7.646598-3.071158.707107.707106-3.53553 3.53553.000006.000007-.707107.707107h-.00001l-.707106-.70711-1.414204-1.414211.707107-.707107 1.414207 1.414208z" fill-rule="evenodd"/></svg>