<svg fill="none" height="20" viewBox="0 0 20 20" width="20" xmlns="http://www.w3.org/2000/svg"><g fill="#000"><path d="m1.5 8.99999c0-3.314 3.13333-5.99999 7-5.99999 2.8471 0 5.3406 1.49367 6.4246 3.62757-.4599-.08363-.9364-.12757-1.4246-.12757-3.818 0-7 2.75665-7 6.1578 0 .7718.16133 1.5103.45595 2.1911-.29877-.0589-.59436-.1348-.88528-.2276l-3.03867 1.0127c-.34733.116-.58267-.0854-.52267-.4467l.426-2.5573c-.91081-.9909-1.42217-2.2842-1.43533-3.63001z"/><path d="m13.5 8.33337c2.7619 0 5 1.90843 5 4.26313-.0094.9562-.3747 1.8751-1.0252 2.5792l.3042 1.817c.0429.2567-.1252.3998-.3733.3173l-2.1705-.7195c-.561.178-1.1463.2687-1.7352.2691-2.7619 0-5-1.9085-5-4.2631 0-2.3547 2.2729-4.26313 5-4.26313z"/></g></svg>