<svg xmlns="http://www.w3.org/2000/svg" width="32" height="32" fill="none"><path fill="#CCD1FF" fill-rule="evenodd" d="M23.806 5.583a1.167 1.167 0 0 0-2.28-.499l-1.11 5.083h-6.279l1.003-4.584a1.167 1.167 0 1 0-2.28-.499l-1.111 5.083H7.332a1.167 1.167 0 1 0 0 2.333h3.905l-1.531 7H5.333a1.167 1.167 0 1 0 0 2.333h3.863l-1.002 4.584a1.167 1.167 0 0 0 2.28.499l1.11-5.083h6.279l-1.003 4.584a1.167 1.167 0 1 0 2.28.499l1.111-5.083h4.416a1.167 1.167 0 1 0 0-2.333h-3.905l1.531-7h4.374a1.167 1.167 0 0 0 0-2.333h-3.863l1.002-4.584ZM19.905 12.5h-6.278l-1.532 7h6.278l1.532-7Z" clip-rule="evenodd"/><path fill="#6771CC" fill-rule="evenodd" d="M8.763 29.272a2.667 2.667 0 0 1-2.035-3.175l.605-2.764h-2a2.667 2.667 0 1 1 0-5.333H8.5l.875-4h-2.04a2.667 2.667 0 0 1 0-5.333h3.207l.854-3.904a2.667 2.667 0 1 1 5.21 1.14l-.604 2.764h3.207l.854-3.904a2.667 2.667 0 1 1 5.21 1.14l-.605 2.764h2a2.667 2.667 0 0 1 0 5.333H23.5l-.875 4h2.042a2.667 2.667 0 0 1 0 5.333h-3.208l-.854 3.904a2.667 2.667 0 1 1-5.21-1.14l.604-2.764h-3.207l-.854 3.904a2.667 2.667 0 0 1-3.175 2.035Zm-.57-2.855a1.167 1.167 0 0 0 2.28.499l1.112-5.083h6.278l-1.003 4.584a1.167 1.167 0 1 0 2.28.499l1.111-5.083h4.416a1.167 1.167 0 1 0 0-2.333h-3.905l1.531-7h4.374a1.167 1.167 0 0 0 0-2.333h-3.863l1.002-4.584a1.167 1.167 0 0 0-2.28-.499l-1.11 5.083h-6.279l1.003-4.584a1.167 1.167 0 1 0-2.28-.499l-1.111 5.083H7.332a1.167 1.167 0 1 0 0 2.333h3.905l-1.531 7H5.333a1.167 1.167 0 1 0 0 2.333h3.863l-1.002 4.584ZM14.834 14l-.874 4h3.207l.875-4h-3.207Zm-1.206-1.5-1.532 7h6.278l1.532-7h-6.278Z" clip-rule="evenodd"/></svg>