<svg width="20" height="20" viewBox="0 0 20 20" fill="none" xmlns="http://www.w3.org/2000/svg">
<path d="M8.66184 2.45477C9.38212 1.67172 10.6179 1.67172 11.3382 2.45477L11.4676 2.59553C11.8981 3.06346 12.5416 3.27257 13.1649 3.147L13.3524 3.10923C14.3954 2.8991 15.3951 3.62547 15.5176 4.68233L15.5396 4.87232C15.6128 5.50387 16.0105 6.05133 16.5885 6.31608L16.7624 6.39573C17.7297 6.83878 18.1116 8.01406 17.5895 8.94106L17.4956 9.1077C17.1836 9.66165 17.1836 10.3383 17.4956 10.8923L17.5895 11.0589C18.1116 11.9859 17.7297 13.1612 16.7624 13.6043L16.5885 13.6839C16.0105 13.9487 15.6128 14.4961 15.5396 15.1277L15.5176 15.3177C15.3951 16.3745 14.3954 17.1009 13.3524 16.8908L13.1649 16.853C12.5416 16.7274 11.8981 16.9365 11.4676 17.4045L11.3382 17.5452C10.6179 18.3283 9.38212 18.3283 8.66184 17.5452L8.53236 17.4045C8.10194 16.9365 7.45837 16.7274 6.83511 16.853L6.64762 16.8908C5.60464 17.1009 4.60489 16.3745 4.48243 15.3177L4.46042 15.1277C4.38724 14.4961 3.98949 13.9487 3.41146 13.6839L3.23757 13.6043C2.27027 13.1612 1.8884 11.9859 2.41054 11.0589L2.50441 10.8923C2.81642 10.3383 2.81642 9.66165 2.50441 9.1077L2.41054 8.94106C1.8884 8.01406 2.27027 6.83878 3.23757 6.39573L3.41146 6.31608C3.98949 6.05133 4.38724 5.50387 4.46042 4.87232L4.48243 4.68233C4.60489 3.62546 5.60464 2.8991 6.64762 3.10923L6.83511 3.147C7.45837 3.27257 8.10194 3.06346 8.53236 2.59553L8.66184 2.45477Z" fill="#2C6BED"/>
<path fill-rule="evenodd" clip-rule="evenodd" d="M14.1264 8.15304L13.1725 7.19922L9.07735 11.2948L7.13023 9.34766L6.17639 10.3015L9.07739 13.202L14.1264 8.15304Z" fill="white"/>
</svg>
