<svg id="Export" xmlns="http://www.w3.org/2000/svg" viewBox="0 0 22 22"><path d="M19.62,8.32A.85.85,0,0,1,19,8.07a11.51,11.51,0,0,0-4.26-2.69.87.87,0,1,1,.57-1.65,13.23,13.23,0,0,1,4.92,3.1.87.87,0,0,1,0,1.24A.86.86,0,0,1,19.62,8.32ZM3,8.07A11.51,11.51,0,0,1,7.25,5.38a.87.87,0,1,0-.57-1.65,13.23,13.23,0,0,0-4.92,3.1.87.87,0,0,0,0,1.24A.88.88,0,0,0,3,8.07Zm14.18,3.07a.88.88,0,0,0,0-1.24,8.71,8.71,0,0,0-2-1.5.87.87,0,1,0-.83,1.54,6.7,6.7,0,0,1,1.6,1.2.88.88,0,0,0,.62.25A.86.86,0,0,0,17.17,11.14Zm-11.1,0a6.7,6.7,0,0,1,1.6-1.2A.87.87,0,0,0,6.84,8.4a8.71,8.71,0,0,0-2,1.5.88.88,0,0,0,0,1.24.86.86,0,0,0,.62.25A.88.88,0,0,0,6.07,11.14ZM11,16a1.5,1.5,0,1,0,1.5,1.5A1.5,1.5,0,0,0,11,16ZM12.26,2.4a.85.85,0,0,0-.64-.28H10.38a.85.85,0,0,0-.64.28.88.88,0,0,0-.24.65l.63,10a.87.87,0,0,0,1.74,0l.63-10A.88.88,0,0,0,12.26,2.4Zm1,11.19a.88.88,0,1,0,1.75,0,.88.88,0,0,0-1.75,0ZM7,13.59a.88.88,0,1,0,.87-.87A.88.88,0,0,0,7,13.59Z"/></svg>