<svg xmlns="http://www.w3.org/2000/svg" viewBox="0 0 20 20"><path d="M17.072,2.929A10,10,0,1,0,20,10,9.933,9.933,0,0,0,17.072,2.929Zm-2.684,7.793a3.254,3.254,0,0,0-1.28-1.147l0-4.3a.569.569,0,0,0-.03-.339.566.566,0,0,0-.553-.347.524.524,0,0,0-.293.106l-5,2.54a.567.567,0,0,0-.26.227.547.547,0,0,0-.078.324V9.575a3.276,3.276,0,0,0-1.806,2.886v4.465A8.552,8.552,0,0,1,1.539,10,8.461,8.461,0,0,1,15.983,4.016,8.4,8.4,0,0,1,18.462,10a8.547,8.547,0,0,1-3.548,6.927V12.458A3.257,3.257,0,0,0,14.388,10.722Zm-7.68,1.739A1.654,1.654,0,0,1,8.36,10.809h3.282a1.641,1.641,0,0,1,1.167.484,1.665,1.665,0,0,1,.485,1.168v5.316A8.208,8.208,0,0,1,10,18.461H9.944a8.038,8.038,0,0,1-3.236-.684Z"/></svg>