<svg enable-background="new 0 0 20 20" viewBox="0 0 20 20" xmlns="http://www.w3.org/2000/svg"><path d="m10 0c-5.514 0-10 4.486-10 10s4.486 10 10 10 10-4.486 10-10-4.486-10-10-10zm-2.455 11.028h4.91l1.6 6.48c-1.29.671-2.653 1.011-4.055 1.011-1.361 0-2.798-.359-4.054-1.011zm6.362-.637c-.095-.572-.649-.926-1.109-.926h-.084l-1.784-3.971c-.177-.309-.509-.494-.889-.494s-.712.185-.895.505l-1.778 3.96h-.084c-.562 0-1.019.38-1.108.917l-1.519 6.235c-1.969-1.57-3.094-3.971-3.094-6.618-.039-2.255.81-4.382 2.391-5.99 1.603-1.631 3.749-2.528 6.046-2.528 4.697 0 8.519 3.821 8.519 8.519 0 2.536-1.098 4.875-3.096 6.608z"/></svg>