<svg fill="none" height="24" viewBox="0 0 24 24" width="24" xmlns="http://www.w3.org/2000/svg"><g fill="#000"><path clip-rule="evenodd" d="m19.513 10.9418c.5171-.6199.8469-1.37418.951-2.17469.104-.80051-.0221-1.6141-.3636-2.34555s-.8842-1.35053-1.5647-1.78478-1.4706-.66573-2.2778-.66734c-.8073-.0016-1.5983.22673-2.2805.65827-.6822.43155-1.2274 1.04845-1.5718 1.77855-.3444.73009-.4737 1.54316-.3729 2.34408s.4277 1.55656.9423 2.17846c-.4747.1353-.9255.3438-1.336.618-.2403-.5596-.5983-1.0609-1.0496-1.4698-.4513-.40888-.98542-.71581-1.56595-.8999s-1.19388-.24102-1.79837-.16692c-.6045.07409-1.18594.27749-1.70482.59634-.51887.31886-.96301.74568-1.3022 1.25148-.3392.5058-.56551 1.0787-.66354 1.6798s-.06549 1.2162.09541 1.8036c.16091.5874.4464 1.1332.83707 1.6004-.9993.2746-1.88119.8688-2.51088 1.6919-.62968.8231-.97253 1.8298-.97612 2.8661v1.5h1.5v-1.5c.00106-.8616.34381-1.6877.95307-2.2969.60927-.6093 1.4353-.952 2.29693-.9531h4c.8616.0011 1.6877.3438 2.2969.9531.6093.6092.952 1.4353.9531 2.2969v1.5h1.5v-1.5c-.0036-1.0363-.3464-2.043-.9761-2.8661s-1.5116-1.4173-2.5109-1.6919c.6338-.7542.9831-1.7068.987-2.692 0-.029-.008-.055-.008-.083.6058-.5862 1.4151-.9149 2.258-.917h4c.8616.0011 1.6877.3438 2.2969.9531.6093.6092.952 1.4353.9531 2.2969v1.5h1.5v-1.5c-.0036-1.0363-.3464-2.043-.9761-2.8661s-1.5116-1.4173-2.5109-1.6919zm-11.76301 5.0581c-.5439 0-1.07558-.1613-1.52782-.4635-.45223-.3021-.80471-.7316-1.01285-1.2341s-.2626-1.0555-.15649-1.5889c.10611-.5335.36802-1.0235.75262-1.408.38459-.3846.87459-.6465 1.40804-.7526s1.08638-.0517 1.58888.1565c.5025.2081.93199.5605 1.23413 1.0128.3022.4522.4635.9839.4635 1.5278 0 .7293-.2897 1.4288-.80547 1.9445-.51572.5158-1.21519.8055-1.94454.8055zm8.50001-4.9998c-.5439 0-1.0756-.1612-1.5278-.4634-.4523-.3022-.8047-.73169-1.0129-1.23418-.2081-.5025-.2626-1.05543-.1565-1.58888s.3681-1.02345.7527-1.40805c.3846-.38459.8746-.6465 1.408-.75261.5335-.10611 1.0864-.05165 1.5889.15649s.932.56061 1.2341 1.01285c.3022.45223.4635.98392.4635 1.52782 0 .36113-.0711.71873-.2093 1.05238-.1382.33364-.3408.6368-.5962.89218-.2553.2553-.5585.4579-.8921.5961-.3337.1382-.6913.2093-1.0524.2093z" fill-rule="evenodd"/><path d="m9.45703 5.76128h2.07207v-1.41158h-2.07207v-2.16797h-1.39027v2.16797h-2.06676v1.41158h2.06676v2.16797h1.39027z"/></g></svg>