<svg fill="none" height="16" viewBox="0 0 16 16" width="16" xmlns="http://www.w3.org/2000/svg"><path d="m3.12999 2.52c.2728-.14019.58713-.17692.88491-.10339.29777.07353.55888.25233.73509.50339l1.38 2c.17376.2435.25601.54051.23222.83871-.02378.29819-.15206.57842-.36222.79129-.23.22-.39.37-.6.54-.07094.04883-.13128.11146-.17744.18416-.04615.0727-.07716.15397-.09116.23893-.01401.08496-.01072.17188.00966.25555.02037.08366.05743.16235.10894.23136.39584.51581.82687 1.00364 1.29 1.46.4724.46493.97699.896 1.51 1.29.13218.0918.29408.1304.45346.1082.15938-.0223.30453-.1037.40654-.2282.17-.21.32-.37.54-.6.21026-.21988.49247-.35697.79531-.38634.3028-.02936.6061.05096.8547.22634l2 1.38c.251.1762.4299.4373.5034.7351s.0368.6121-.1034.8849c-.2234.4693-.5688.8699-1 1.16-.4612.2957-.9916.466-1.5388.494-.5471.0281-1.09216-.087-1.58121-.334-1.72436-.6593-3.29005-1.6753-4.59457-2.9815-1.30452-1.30624-2.31845-2.87327-2.97543-4.5985-.24257-.49162-.35262-1.03804-.3193-1.58523s.20887-1.07621.5093-1.53477c.2858-.41618.67531-.75054 1.13-.97zm11.72001-.67-.7-.7-4.15001 4.14v-3.29h-1v5h5.00001v-1h-3.29z" fill="#000"/></svg>