<svg xmlns="http://www.w3.org/2000/svg" width="24" height="24" viewBox="0 0 24 24"><title>phone-right-solid-24</title><path d="M21.11,16.608a26.24,26.24,0,0,1-4.513-2.5,1.384,1.384,0,0,0-1.918.284,9.116,9.116,0,0,0-.866,1.465,4.5,4.5,0,0,0-.357,1.242A13.113,13.113,0,0,1,6.9,10.542a4.474,4.474,0,0,0,1.243-.355,9.019,9.019,0,0,0,1.343-.779,1.444,1.444,0,0,0,.4-2A26.2,26.2,0,0,1,7.357,2.9a1.42,1.42,0,0,0-1.71-.825,8.63,8.63,0,0,0-1.1.421,4.284,4.284,0,0,0-2.5,4.392l-.014,0A16.948,16.948,0,0,0,17.073,21.953l0-.016a4.308,4.308,0,0,0,4.441-2.492,8.732,8.732,0,0,0,.431-1.13A1.42,1.42,0,0,0,21.11,16.608Z"/></svg>