<svg id="Export" xmlns="http://www.w3.org/2000/svg" viewBox="0 0 24 24"><title>phone-right-outline-24</title><path d="M7.34,2.5a.76.76,0,0,1,.41.13A.75.75,0,0,1,8,3L9.47,7a.69.69,0,0,1,0,.45.71.71,0,0,1-.26.38,9.6,9.6,0,0,1-1.34.82l-1.36.71.73,1.35a15.28,15.28,0,0,0,6.05,6l1.35.74.7-1.36a10.4,10.4,0,0,1,.83-1.35.72.72,0,0,1,.25-.21.62.62,0,0,1,.33-.07.73.73,0,0,1,.25,0L21,16a.71.71,0,0,1,.36.28.75.75,0,0,1,.12.44A9.39,9.39,0,0,1,21,19.28a3.27,3.27,0,0,1-3.07,2.22,3.79,3.79,0,0,1-.58-.05A18.45,18.45,0,0,1,2.55,6.68,3.25,3.25,0,0,1,3,4.44,3.3,3.3,0,0,1,4.72,3,9.38,9.38,0,0,1,7.29,2.5Zm0-1.5H7.19a11.19,11.19,0,0,0-3,.6A4.75,4.75,0,0,0,1.08,7,20,20,0,0,0,6.59,17.42a19.9,19.9,0,0,0,10.47,5.5,4.89,4.89,0,0,0,.85.08,4.82,4.82,0,0,0,2.75-.89,4.75,4.75,0,0,0,1.73-2.32,10.89,10.89,0,0,0,.6-3,2.22,2.22,0,0,0-1.46-2.23l-4-1.46a2.22,2.22,0,0,0-2.55.77,12.73,12.73,0,0,0-1,1.54A13.8,13.8,0,0,1,8.57,10a11.65,11.65,0,0,0,1.54-1,2.17,2.17,0,0,0,.81-1.14,2.23,2.23,0,0,0,0-1.4l-1.46-4A2.35,2.35,0,0,0,8.61,1.4,2.22,2.22,0,0,0,7.34,1Z"/></svg>