<svg width="24" height="24" fill="none" xmlns="http://www.w3.org/2000/svg"><path d="M17.21 22a8.084 8.084 0 0 1-2.66-.51 20.791 20.791 0 0 1-7.3-4.73 21 21 0 0 1-4.74-7.3c-.78-2.22-.67-4 .35-5.45a5 5 0 0 1 2-1.67 2.72 2.72 0 0 1 3.51.81l2.11 3a2.69 2.69 0 0 1-.35 3.49c-.37.34-.62.58-.93.85-.09.08-.15.22-.08.31A20.015 20.015 0 0 0 11 13c.69.69 1.428 1.328 2.21 1.91a.24.24 0 0 0 .3-.08c.28-.32.51-.57.85-.93a2.68 2.68 0 0 1 3.49-.35l3 2.11a2.679 2.679 0 0 1 .85 3.43 5.22 5.22 0 0 1-1.71 2 4.69 4.69 0 0 1-2.78.91ZM4.09 4.87c-.46.64-1 1.77-.16 4.08a19.28 19.28 0 0 0 4.38 6.74A19.493 19.493 0 0 0 15 20.07c2.31.81 3.44.3 4.09-.16a3.55 3.55 0 0 0 1.2-1.42A1.21 1.21 0 0 0 20 16.9l-3-2.12a1.18 1.18 0 0 0-1.53.15c-.33.36-.56.6-.82.9a1.72 1.72 0 0 1-2.33.29 21.914 21.914 0 0 1-2.37-2.05 22.204 22.204 0 0 1-2-2.37 1.71 1.71 0 0 1 .3-2.32l.89-.82A1.19 1.19 0 0 0 9.21 7L7.1 4a1.19 1.19 0 0 0-1.51-.38 3.72 3.72 0 0 0-1.5 1.25Z" fill="#000"/></svg>