<svg fill="none" height="16" viewBox="0 0 16 16" width="16" xmlns="http://www.w3.org/2000/svg"><path d="m10.31 15c-.56019-.0107-1.11458-.1155-1.64002-.31-1.67214-.646-3.19115-1.6337-4.45999-2.9-1.26378-1.2709-2.25112-2.78933-2.90001-4.46001-.24257-.52971-.349479-1.11147-.311072-1.69281.038412-.58135.220922-1.14399.531072-1.63719.31152-.431.72804-.77523 1.21-1 .36454-.19623.78816-.25269 1.19137-.1588.40321.0939.7583.33171.99863.6688l1.29 1.77c.23097.33114.33575.73402.2954 1.13573-.04036.4017-.22318.77569-.5154 1.05427l-.57.53c-.01298.01731-.02.03837-.02.06 0 .02164.00702.04269.02.06.33636.47321.71095.91803 1.12 1.33.41357.42333.8618.81131 1.34 1.16001h.12c.17-.2.31-.35.52-.57.27859-.29222.65257-.47505 1.05428-.5154s.80454.06443 1.13574.29539l1.84 1.29001c.3298.2342.5647.579.662.9717.0972.3927.0504.8072-.132 1.1683-.248.4967-.6243.9179-1.09 1.22-.4949.3474-1.0854.5326-1.69.53zm-6.76002-11.27001c-.10425-.00185-.20733.0222-.3.07-.36294.15823-.6746.41448-.9.74-.22783.36674-.35598.7866-.37176 1.21805-.01579.43145.08134.85955.28176 1.24195.5867 1.53649 1.49342 2.93066 2.66001 4.09001 1.15739 1.1618 2.54797 2.065 4.07999 2.65.38117.1986.8074.2947 1.23692.2789.4295-.0158.8475-.1429 1.2131-.3689.3115-.2141.56-.5076.72-.85.0864-.1492.1138-.3254.0768-.4939-.037-.1684-.1358-.3169-.2768-.4161l-1.83-1.29c-.1322-.0937-.29345-.1371-.45478-.1224-.16133.0146-.31213.0864-.42524.2024l-.5.55c-.17594.2117-.42607.3482-.69928.3816-.27322.0335-.54889-.0386-.77072-.2016-.51279-.3812-.99739-.799-1.45-1.25-.45103-.45261-.86878-.93721-1.24999-1.45001-.16298-.22182-.2351-.49749-.20165-.77071.03346-.27321.16997-.52334.38164-.69929l.55-.5c.11597-.11311.18775-.2639.20242-.42523s-.02874-.3226-.12242-.45477l-1.28999-1.86c-.06459-.0869-.14927-.15686-.24679-.20388-.09753-.04702-.205-.06971-.31322-.06612zm10.80002-1.38-.7-.7-2.15 2.14-2.15001-2.14-.70001.7 2.14002 2.15-2.14002 2.15.70001.7 2.15001-2.14 2.15 2.14.7-.7-2.14-2.15z" fill="#000"/></svg>