<svg viewBox="0 0 24 24" xmlns="http://www.w3.org/2000/svg"><path d="m2.51 17a25.59 25.59 0 0 1 4.85-1.39 1.32 1.32 0 0 0 .88-.53 1.34 1.34 0 0 0 .25-1 9.74 9.74 0 0 0 -.41-1.61 4.32 4.32 0 0 0 -.62-1.11 12.88 12.88 0 0 1 9.07 0 4.61 4.61 0 0 0 -.61 1.11 9 9 0 0 0 -.39 1.53 1.41 1.41 0 0 0 1.11 1.66 26.39 26.39 0 0 1 4.86 1.34 1.38 1.38 0 0 0 1 0 1.41 1.41 0 0 0 .76-.64 9.88 9.88 0 0 0 .47-1 4.21 4.21 0 0 0 -1.31-4.77 16.61 16.61 0 0 0 -20.83 0 4.2 4.2 0 0 0 -1.32 4.75 8.66 8.66 0 0 0 .48 1.08 1.41 1.41 0 0 0 .76.64 1.38 1.38 0 0 0 1-.06z"/></svg>