<svg fill="none" height="16" viewBox="0 0 16 16" width="16" xmlns="http://www.w3.org/2000/svg"><path d="m10.31 15c-.56019-.0107-1.11458-.1155-1.64002-.31-1.67292-.6445-3.1922-1.6324-4.45989-2.9001-1.26768-1.2677-2.25562-2.78698-2.90011-4.4599-.24257-.52971-.349479-1.11147-.311072-1.69282.038412-.58134.220922-1.14399.531072-1.63718.31152-.43101.72804-.77524 1.21-1 .36454-.19623.78816-.2527 1.19137-.1588s.7583.33171.99863.6688l1.29 1.77c.23097.33114.33575.73402.2954 1.13572-.04036.40171-.22318.7757-.5154 1.05428l-.57.53c-.01298.01731-.02.03836-.02.06s.00702.04269.02.06c.33636.4732.71095.91803 1.12 1.33.41357.42333.8618.8113 1.34 1.16.01731.013.03837.02.06.02.02164 0 .0427-.007.06-.02.17-.19.31-.35.52-.57.27859-.29221.65257-.47504 1.05428-.51539.40171-.04036.80454.06443 1.13574.29539l1.84 1.29c.3298.2342.5647.579.662.9717.0972.3927.0504.8072-.132 1.1683-.248.4967-.6243.9179-1.09 1.22-.4949.3474-1.0854.5326-1.69.53zm-8.00002-10.46c-.22163.37025-.34282.79193-.35159 1.22336s.09519.85769.30159 1.23664c.5867 1.53649 1.49342 2.93066 2.66001 4.09 1.15739 1.1618 2.54797 2.065 4.07999 2.65.38117.1986.8074.2947 1.23692.2789.4295-.0158.8475-.1429 1.2131-.3689.3115-.2141.56-.5076.72-.85.0864-.1492.1138-.3254.0768-.4939-.037-.1684-.1358-.3168-.2768-.4161l-1.83-1.29c-.1322-.0937-.29345-.1371-.45478-.1224s-.31213.0864-.42524.2024l-.5.55c-.17594.2117-.42607.3482-.69928.3816-.27322.0335-.54889-.0386-.77072-.2016-.51279-.3812-.99739-.799-1.45-1.25-.45103-.45261-.86878-.9372-1.24999-1.45-.1636-.22341-.23604-.50071-.20261-.77559s.17022-.52673.3826-.70441l.55-.49c.11597-.11311.18775-.2639.20242-.42524.01467-.16133-.02874-.32259-.12242-.45476l-1.28999-1.86c-.09033-.13704-.22848-.2355-.38749-.27618s-.32748-.02065-.47252.05618c-.36294.15822-.6746.41448-.9.74zm6.69-2.54v1h3.29002l-4.14002 4.15.70001.7 4.15001-4.14v3.29h1v-5z" fill="#000"/></svg>