<svg fill="none" height="16" viewBox="0 0 16 16" width="16" xmlns="http://www.w3.org/2000/svg"><path d="m14 2v5h-1v-3.29l-4.14999 4.14-.7-.7 4.13999-4.15h-3.28999v-1zm-11.99999 1.49c-.2957.46123-.46599.99161-.49404 1.53877-.02806.54716.08707 1.09217.33404 1.58123.65807 1.72621 1.67354 3.29385 2.97985 4.6001 1.3063 1.3064 2.87394 2.3218 4.60015 2.9799.48783.237 1.02859.3441 1.56999.3108.5413-.0333 1.0649-.2058 1.52-.5008.4313-.2901.7766-.6907 1-1.16.1402-.2728.1769-.5871.1034-.8849s-.2523-.5589-.5034-.7351l-2-1.38c-.2494-.17813-.5548-.26005-.8599-.23065-.30512.02941-.58929.16816-.80009.39065-.22.23-.37.39-.54.6-.10201.1245-.24716.2059-.40654.2282-.15938.0222-.32128-.0164-.45346-.1082-.53203-.3844-1.03659-.80539-1.51-1.26-.46313-.45636-.89416-.94419-1.29-1.46-.09178-.13218-.1304-.29409-.10816-.45346.02224-.15938.1037-.30453.22816-.40654.21-.17.37-.32.6-.54.23318-.21279.37875-.5048.40833-.8191.02958-.31429-.05895-.62834-.24833-.8809l-1.38-2c-.17621-.25106-.43732-.42987-.73509-.50339-.29778-.07353-.61211-.0368-.88491.10339-.45709.22501-.84684.56647-1.13.99z" fill="#000"/></svg>