<svg height="16" viewBox="0 0 16 16" width="16" xmlns="http://www.w3.org/2000/svg"><path d="m10.6667.33333h-7.33336c-.79565 0-1.55872.31607-2.12132.87868-.56261.56261-.87868 1.32567-.87868 2.12132v7.33337c0 .7956.31607 1.5587.87868 2.1213.5626.5626 1.32567.8787 2.12132.8787h7.33336c.7956 0 1.5587-.3161 2.1213-.8787s.8787-1.3257.8787-2.1213v-7.33337c0-.79565-.3161-1.55871-.8787-2.12132s-1.3257-.87868-2.1213-.87868zm-7.33336 1h7.33336c.5304 0 1.0391.21072 1.4142.58579s.5858.88378.5858 1.41421v4.5l-.414-.62133-2.586-2.586-2.00003 2-2.66667-2.66667-3.25266 3.25267-.414.62133v-4.5c0-.53043.21071-1.03914.58578-1.41421.37508-.37507.88378-.58579 1.41422-.58579zm7.33336 11.33337h-7.33336c-.53044 0-1.03914-.2107-1.41422-.5858-.37507-.3751-.58578-.8838-.58578-1.4142v-1.626l3.66666-3.6667 3.98 3.9793.7067-.70663-1.3127-1.31334 1.2927-1.29266 3 3.00003v1.626c0 .5304-.2107 1.0391-.5858 1.4142s-.8838.5858-1.4142.5858z" transform="translate(1 1)"/></svg>