<svg height="16" viewBox="0 0 16 16" width="16" xmlns="http://www.w3.org/2000/svg"><path d="m10.6667.33333h-7.33337c-.79565 0-1.55871.31607-2.12132.87868s-.87868 1.32567-.87868 2.12132v7.33337c0 .7956.31607 1.5587.87868 2.1213s1.32567.8787 2.12132.8787h7.33337c.7956 0 1.5587-.3161 2.1213-.8787s.8787-1.3257.8787-2.1213v-7.33337c0-.79565-.3161-1.55871-.8787-2.12132s-1.3257-.87868-2.1213-.87868zm2 7.5-.414-.62133-2.586-2.586-1.52804 1.52867 1.57534 1.57866-.4713.47134-4.2427-4.24534-3.25267 3.25267-.414.62133v-4.5c0-.53043.21071-1.03914.58578-1.41421.37508-.37507.88379-.58579 1.41422-.58579h7.33337c.5304 0 1.0391.21072 1.4142.58579.375.37507.5858.88378.5858 1.41421z" transform="translate(1 1)"/></svg>