<svg height="24" viewBox="0 0 24 24" width="24" xmlns="http://www.w3.org/2000/svg"><path d="m5 17.5a3 3 0 0 1 -3-3v-9.5a3 3 0 0 1 3-3h9.5a3 3 0 0 1 3 3h-1.5a1.5 1.5 0 0 0 -1.5-1.5h-9.5a1.5 1.5 0 0 0 -1.5 1.5v9.5a1.5 1.5 0 0 0 1.5 1.5zm17-8v9.5a3 3 0 0 1 -3 3h-9.5a3 3 0 0 1 -3-3v-9.5a3 3 0 0 1 3-3h9.5a3 3 0 0 1 3 3zm-14 0v4.75l.62-.93 3.14-3.15 3.5 3.51 2.5-2.51 2.06 2.06.68 1v-4.73a1.5 1.5 0 0 0 -1.5-1.5h-9.5a1.5 1.5 0 0 0 -1.5 1.5zm12.5 9.5v-3l-2.74-2.7-1.44 1.44 1.22 1.26-1.06 1-4.72-4.7-3.76 3.76v2.94a1.5 1.5 0 0 0 1.5 1.5h9.5a1.5 1.5 0 0 0 1.5-1.5z"/></svg>