<svg height="24" width="24" xmlns="http://www.w3.org/2000/svg">
  <path d="M12 1a11 11 0 1011 11A11 11 0 0012 1zm0 1.5a9.481 9.481 0 017.607 15.166 5.972 5.972 0 00-4.451-2.156A7.21 7.21 0 0017 10.647C17 7.333 14.761 5 12 5s-5 2.333-5 5.647a7.21 7.21 0 001.844 4.863 5.972 5.972 0 00-4.451 2.156A9.481 9.481 0 0112 2.5zm-3.5 8.147C8.5 8.283 10.005 6.5 12 6.5s3.5 1.783 3.5 4.147c0 2.54-1.668 4.853-3.5 4.853s-3.5-2.313-3.5-4.853zm-3.092 8.178A4.472 4.472 0 019 17h6a4.472 4.472 0 013.592 1.825 9.46 9.46 0 01-13.184 0z"/>
</svg>
