<svg height="24" viewBox="0 0 24 24" width="24" xmlns="http://www.w3.org/2000/svg"><path d="m12 1a11 11 0 1 0 11 11 11 11 0 0 0 -11-11zm0 1.5a9.481 9.481 0 0 1 7.607 15.166 5.972 5.972 0 0 0 -4.451-2.156 7.21 7.21 0 0 0 1.844-4.863c0-3.314-2.239-5.647-5-5.647s-5 2.333-5 5.647a7.21 7.21 0 0 0 1.844 4.863 5.972 5.972 0 0 0 -4.451 2.156 9.481 9.481 0 0 1 7.607-15.166zm-3.5 8.147c0-2.364 1.505-4.147 3.5-4.147s3.5 1.783 3.5 4.147c0 2.54-1.668 4.853-3.5 4.853s-3.5-2.313-3.5-4.853zm-3.092 8.178a4.472 4.472 0 0 1 3.592-1.825h6a4.472 4.472 0 0 1 3.592 1.825 9.46 9.46 0 0 1 -13.184 0z"/></svg>