<svg height="24" viewBox="0 0 24 24" width="24" xmlns="http://www.w3.org/2000/svg"><path d="m9.5 5.621v3.7l1.309.169a10.932 10.932 0 0 1 9.364 7.253c.161.406.8 1.756.8 1.756a19.408 19.408 0 0 0 -1.473-1.299 17.455 17.455 0 0 0 -8.385-2.7l-1.615-.12v4l-6.379-6.38zm1.137-3.037a.758.758 0 0 0 -.491.27l-8.792 8.792a.5.5 0 0 0 0 .708l8.792 8.792a.758.758 0 0 0 .491.27c.219 0 .363-.217.363-.623v-4.793a14.706 14.706 0 0 1 10.905 5.426c.282.355.514.529.677.529.214 0 .3-.3.222-.9-.982-7.004-4.54-12.121-11.804-13.055v-4.793c0-.406-.144-.623-.363-.623z"/></svg>