<svg height="24" width="24" xmlns="http://www.w3.org/2000/svg">
  <path d="M9.5 5.621v3.7l1.309.169a10.932 10.932 0 019.364 7.253c.161.406.8 1.756.8 1.756A19.408 19.408 0 0019.5 17.2a17.455 17.455 0 00-8.385-2.7L9.5 14.38v4L3.121 12zm1.137-3.037a.758.758 0 00-.491.27l-8.792 8.792a.5.5 0 000 .708l8.792 8.792a.758.758 0 00.491.27c.219 0 .363-.217.363-.623V16a14.706 14.706 0 0110.905 5.426c.282.355.514.529.677.529.214 0 .3-.3.222-.9C21.822 14.051 18.264 8.934 11 8V3.207c0-.406-.144-.623-.363-.623z"/>
</svg>
