<svg viewBox="0 0 28 28" xmlns="http://www.w3.org/2000/svg"><path d="m25.29 19.84a2.19 2.19 0 0 1 -2.29 2.16h-18a2.19 2.19 0 0 1 -2.25-2.11c0-1.31.91-1.89 1.9-2.33 2-.89 2.43-3.35 2.85-6 .5-3.39 1.19-7.56 6.5-7.56s6 4.22 6.54 7.61c.42 2.6.81 5.06 2.85 6 .99.39 1.9.92 1.9 2.23zm-1.64-8.16a.86.86 0 0 0 .84-.9c-.13-3.84-1.64-7.11-4.14-9a.88.88 0 1 0 -1.05 1.42c2.07 1.55 3.33 4.34 3.44 7.64a.88.88 0 0 0 .88.84zm-18.44-.84c.11-3.3 1.37-6.09 3.44-7.64a.88.88 0 1 0 -1.05-1.4c-2.5 1.87-4 5.14-4.14 9a.86.86 0 0 0 .84.9.88.88 0 0 0 .91-.86zm6.21 12.66a.5.5 0 0 0 -.44.73 3.46 3.46 0 0 0 6 0 .5.5 0 0 0 -.44-.73z"/></svg>