<svg viewBox="0 0 16 16" xmlns="http://www.w3.org/2000/svg"><path d="m14.55 6.68-1.1-.6a.49.49 0 0 1 -.24-.58l.36-1.2a1.51 1.51 0 0 0 -1.87-1.87l-1.2.36a.49.49 0 0 1 -.58-.24l-.6-1.1a1.5 1.5 0 0 0 -2.64 0l-.6 1.1a.49.49 0 0 1 -.58.24l-1.2-.36a1.51 1.51 0 0 0 -1.87 1.87l.36 1.2a.49.49 0 0 1 -.24.58l-1.1.6a1.5 1.5 0 0 0 0 2.64l1.1.6a.49.49 0 0 1 .24.58l-.36 1.2a1.51 1.51 0 0 0 1.87 1.87l1.2-.36a.49.49 0 0 1 .58.24l.6 1.1a1.5 1.5 0 0 0 2.64 0l.6-1.1a.49.49 0 0 1 .58-.24l1.2.36a1.51 1.51 0 0 0 1.87-1.87l-.36-1.2a.49.49 0 0 1 .24-.58l1.1-.6a1.5 1.5 0 0 0 0-2.64zm-6.55 5.32a4 4 0 1 1 4-4 4 4 0 0 1 -4 4z"/></svg>