<svg id="Source" xmlns="http://www.w3.org/2000/svg" viewBox="0 0 16 16"><title>settings-solid-16</title><path d="M14.55,6.68l-1.1-.6a.49.49,0,0,1-.24-.58l.36-1.2A1.51,1.51,0,0,0,11.7,2.43l-1.2.36a.49.49,0,0,1-.58-.24l-.6-1.1a1.5,1.5,0,0,0-2.64,0l-.6,1.1a.49.49,0,0,1-.58.24L4.3,2.43A1.51,1.51,0,0,0,2.43,4.3l.36,1.2a.49.49,0,0,1-.24.58l-1.1.6a1.5,1.5,0,0,0,0,2.64l1.1.6a.49.49,0,0,1,.24.58l-.36,1.2A1.51,1.51,0,0,0,4.3,13.57l1.2-.36a.49.49,0,0,1,.58.24l.6,1.1a1.5,1.5,0,0,0,2.64,0l.6-1.1a.49.49,0,0,1,.58-.24l1.2.36a1.51,1.51,0,0,0,1.87-1.87l-.36-1.2a.49.49,0,0,1,.24-.58l1.1-.6A1.5,1.5,0,0,0,14.55,6.68ZM8,12a4,4,0,1,1,4-4A4,4,0,0,1,8,12Z"/></svg>