<svg fill="none" height="88" viewBox="0 0 88 88" width="88" xmlns="http://www.w3.org/2000/svg"><path d="m30.6876 32.2705c6.3397 0 11.6353-5.2955 11.6353-11.6352 0-6.3771-5.2956-11.6353-11.6353-11.6353-6.377 0-11.6725 5.2582-11.6725 11.6353 0 6.3397 5.2955 11.6352 11.6725 11.6352zm26.0302 0c6.3397 0 11.6352-5.2955 11.6352-11.6352 0-6.3771-5.2955-11.6353-11.6352-11.6353s-11.6353 5.2582-11.6353 11.6353c0 6.3397 5.2956 11.6352 11.6353 11.6352zm-26.0302-2.7596c-4.848 0-8.8756-4.0649-8.8756-8.8756 0-4.8481 4.0276-8.8757 8.8756-8.8757 4.8108 0 8.8383 4.0276 8.8383 8.8757 0 4.8107-4.0275 8.8756-8.8383 8.8756zm26.0302 0c-4.848 0-8.8756-4.0649-8.8756-8.8756 0-4.8481 4.0276-8.8757 8.8756-8.8757s8.8756 4.0276 8.8756 8.8757c0 4.8107-4.0276 8.8756-8.8756 8.8756zm-39.0825 26.1047c6.377 0 11.6352-5.2955 11.6352-11.6353 0-6.377-5.2582-11.6352-11.6352-11.6352-6.3398 0-11.6353 5.2582-11.6353 11.6352 0 6.3398 5.2955 11.6353 11.6353 11.6353zm52.0975 0c6.3771 0 11.6726-5.2955 11.6726-11.6353 0-6.377-5.2955-11.6352-11.6726-11.6352-6.3397 0-11.6352 5.2582-11.6352 11.6352 0 6.3398 5.2955 11.6353 11.6352 11.6353zm-52.0975-2.7596c-4.8108 0-8.87566-4.0649-8.87566-8.8757 0-4.848 4.06486-8.8756 8.87566-8.8756 4.848 0 8.8756 4.0276 8.8756 8.8756 0 4.8108-4.0276 8.8757-8.8756 8.8757zm52.0975 0c-4.8107 0-8.8756-4.0649-8.8756-8.8757 0-4.848 4.0649-8.8756 8.8756-8.8756 4.8481 0 8.8757 4.0276 8.8757 8.8756 0 4.8108-4.0276 8.8757-8.8757 8.8757zm-39.0452 26.1047c6.3397 0 11.6353-5.2955 11.6353-11.6353 0-6.377-5.2956-11.6352-11.6353-11.6352-6.377 0-11.6725 5.2582-11.6725 11.6352 0 6.3398 5.2955 11.6353 11.6725 11.6353zm26.0302 0c6.3397 0 11.6352-5.2955 11.6352-11.6353 0-6.377-5.2955-11.6352-11.6352-11.6352s-11.6353 5.2582-11.6353 11.6352c0 6.3398 5.2956 11.6353 11.6353 11.6353zm-26.0302-2.7597c-4.848 0-8.8756-4.0648-8.8756-8.8756 0-4.848 4.0276-8.8756 8.8756-8.8756 4.8108 0 8.8383 4.0276 8.8383 8.8756 0 4.8108-4.0275 8.8756-8.8383 8.8756zm26.0302 0c-4.848 0-8.8756-4.0648-8.8756-8.8756 0-4.848 4.0276-8.8756 8.8756-8.8756s8.8756 4.0276 8.8756 8.8756c0 4.8108-4.0276 8.8756-8.8756 8.8756z" fill="#000"/></svg>