<svg fill="none" height="20" viewBox="0 0 20 20" width="20" xmlns="http://www.w3.org/2000/svg"><path d="m18.775 7.94165-.8833-.88334-2.0583 2.0575-2.0584-2.0575-.8833.88334 2.0575 2.05833-2.0575 2.05832.8833.8833 2.0584-2.0575 2.0583 2.0575.8833-.8833-2.0575-2.05832zm-7.1083-5.3275v14.77165c.0001.0809-.0234.1601-.0676.2279-.0441.0678-.1071.1213-.1812.1539-.074.0326-.156.043-.2358.0298s-.1541-.0494-.2137-.1041l-4.30171-3.9433h-3.33334c-.44202 0-.86595-.1756-1.17851-.4882-.31256-.3125-.48815-.7365-.48815-1.1785v-4.16665c0-.44203.17559-.86595.48815-1.17851.31256-.31257.73649-.48816 1.17851-.48816h3.33334l4.30171-3.94333c.0596-.05471.1339-.09086.2137-.10405.0798-.0132.1618-.00286.2358.02975.0741.03261.1371.08608.1812.15388.0442.0678.0677.147.0676.22792z" fill="#000"/></svg>