<svg height="24" viewBox="0 0 24 24" width="24" xmlns="http://www.w3.org/2000/svg"><path d="m19.778 19.778-1.06-1.06a9.512 9.512 0 0 0 0-13.436l1.06-1.06a11.012 11.012 0 0 1 0 15.556zm-.778-7.778a6.957 6.957 0 0 0 -2.051-4.95l-1.06 1.061a5.5 5.5 0 0 1 0 7.778l1.06 1.06a6.953 6.953 0 0 0 2.051-4.949zm-5-8.863v17.726a.5.5 0 0 1 -.5.5.494.494 0 0 1 -.335-.132l-5.165-4.731h-4a2 2 0 0 1 -2-2v-5a2 2 0 0 1 2-2h4l5.162-4.732a.494.494 0 0 1 .335-.132.5.5 0 0 1 .503.501zm-1.5 13.363v-9l.25-2.75-1.41 1.723-2.757 2.527h-4.583a.5.5 0 0 0 -.5.5v5a.5.5 0 0 0 .5.5h4.583l2.757 2.527 1.41 1.723z"/></svg>