<svg width="20" height="20" viewBox="0 0 20 20" fill="none" xmlns="http://www.w3.org/2000/svg">
<path fill-rule="evenodd" clip-rule="evenodd" d="M16.4817 3.51831L15.5983 4.40165C17.0808 5.88764 17.9133 7.90096 17.9133 9.99998C17.9133 11.7099 17.3609 13.3629 16.3546 14.7203L14.7565 13.3794C15.0104 13.0234 15.2237 12.6391 15.3919 12.2333C15.6853 11.5254 15.8353 10.7663 15.8333 9.99998C15.8352 9.23357 15.6852 8.47438 15.3918 7.76634C15.0984 7.05829 14.6676 6.41545 14.1242 5.87498L13.2408 6.75915C14.1003 7.61868 14.5832 8.78444 14.5832 9.99998C14.5832 10.9234 14.3045 11.818 13.7938 12.5716L11.6667 10.7867V2.61415C11.6668 2.53323 11.6433 2.45403 11.5991 2.38623C11.5549 2.31843 11.492 2.26496 11.4179 2.23235C11.3439 2.19974 11.2619 2.1894 11.1821 2.2026C11.1022 2.21579 11.028 2.25194 10.9683 2.30665L6.66667 6.24998H6.26005L2.12624 2.7813L1.55171 2.29921L0.587524 3.44828L1.16206 3.93037L18.015 18.0717L18.5896 18.5538L19.5538 17.4047L18.9792 16.9226L17.313 15.5245C18.5063 13.9419 19.1622 12.0047 19.1622 9.99998C19.1622 7.56971 18.1982 5.23868 16.4817 3.51831ZM1.66667 7.91665C1.66667 7.52358 1.80552 7.14483 2.05605 6.84597L11.6667 14.9102V17.3858C11.6668 17.4667 11.6433 17.5459 11.5991 17.6137C11.5549 17.6815 11.492 17.735 11.4179 17.7676C11.3439 17.8002 11.2619 17.8106 11.1821 17.7974C11.1022 17.7842 11.028 17.748 10.9683 17.6933L6.66667 13.75H3.33334C2.89131 13.75 2.46739 13.5744 2.15483 13.2618C1.84227 12.9493 1.66667 12.5253 1.66667 12.0833V7.91665Z" fill="black"/>
</svg>
