<svg xmlns="http://www.w3.org/2000/svg" width="24" height="24" viewBox="0 0 24 24"><title>sound-off-outline-24</title><path d="M20.061,12l2.469,2.47-1.06,1.06L19,13.061,16.53,15.53l-1.06-1.06L17.939,12,15.47,9.53l1.06-1.06L19,10.939,21.47,8.47l1.06,1.06ZM13.5,2.636a.494.494,0,0,0-.335.132L8,7.5H4a2,2,0,0,0-2,2v5a2,2,0,0,0,2,2H8l5.162,4.732a.494.494,0,0,0,.335.132.5.5,0,0,0,.5-.5V3.137A.5.5,0,0,0,13.5,2.636ZM12.75,19.25l-1.41-1.723L8.583,15H4a.5.5,0,0,1-.5-.5v-5A.5.5,0,0,1,4,9H8.583L11.34,6.473,12.75,4.75,12.5,7.5v9Z"/></svg>