<svg fill="none" height="20" viewBox="0 0 20 20" width="20" xmlns="http://www.w3.org/2000/svg"><path d="m16.4817 3.51831-.8833.88334c1.4824 1.48599 2.315 3.49931 2.315 5.59833s-.8326 4.11232-2.315 5.59832l.8833.8833c1.7165-1.7203 2.6806-4.0514 2.6806-6.48162 0-2.43027-.9641-4.7613-2.6806-6.48167zm-.6483 6.48167c.0019-.76641-.1482-1.5256-.4416-2.23364-.2934-.70805-.7242-1.35089-1.2676-1.89136l-.8833.88417c.8595.85953 1.3423 2.02529 1.3423 3.24083 0 1.21552-.4828 2.38132-1.3423 3.24082l.8833.8833c.5434-.5402.9743-1.1829 1.2677-1.8908s.4434-1.467.4415-2.23332zm-4.1667-7.38583v14.77165c.0001.0809-.0234.1601-.0676.2279-.0441.0678-.1071.1213-.1812.1539-.074.0326-.156.043-.2358.0298s-.1541-.0494-.2137-.1041l-4.30171-3.9433h-3.33334c-.44202 0-.86595-.1756-1.17851-.4882-.31256-.3125-.48815-.7365-.48815-1.1785v-4.16665c0-.44203.17559-.86595.48815-1.17851.31256-.31257.73649-.48816 1.17851-.48816h3.33334l4.30171-3.94333c.0596-.05471.1339-.09086.2137-.10405.0798-.0132.1618-.00286.2358.02975.0741.03261.1371.08608.1812.15388.0442.0678.0677.147.0676.22792z" fill="#000"/></svg>