<svg fill="none" height="20" viewBox="0 0 20 20" width="20" xmlns="http://www.w3.org/2000/svg" xmlns:xlink="http://www.w3.org/1999/xlink"><clipPath id="a"><path d="m0 0h20v20h-20z"/></clipPath><g clip-path="url(#a)"><path d="m16.4817 4.51833-.8834.88333c1.4825 1.48599 2.315 3.49932 2.315 5.59834 0 2.099-.8325 4.1123-2.315 5.5983l.8834.8834c1.7165-1.7204 2.6805-4.0514 2.6805-6.4817 0-2.43027-.964-4.7613-2.6805-6.48167zm-.6484 6.48167c.0019-.7664-.1481-1.52561-.4415-2.23365s-.7242-1.35089-1.2676-1.89136l-.8834.88417c.8595.85954 1.3424 2.02529 1.3424 3.24084 0 1.2155-.4829 2.3813-1.3424 3.2408l.8834.8834c.5434-.5403.9743-1.183 1.2677-1.8909s.4434-1.467.4414-2.2333zm-4.1666-7.38584v14.77164c.0001.0809-.0234.1601-.0676.2279s-.1071.1213-.1812.1539c-.074.0326-.156.043-.2358.0298-.0799-.0132-.1541-.0494-.2138-.1041l-4.30163-3.9433h-3.33334c-.44202 0-.86595-.1756-1.17851-.4882-.31256-.3125-.48815-.7364-.48815-1.1785v-4.16664c0-.44203.17559-.86595.48815-1.17851s.73649-.48816 1.17851-.48816h3.33334l4.30163-3.94333c.0597-.0547.1339-.09086.2138-.10405.0798-.01319.1618-.00285.2358.02976.0741.03261.137.08608.1812.15388s.0677.14699.0676.22791z" fill="#000"/></g></svg>