<svg fill="none" height="20" viewBox="0 0 20 20" width="20" xmlns="http://www.w3.org/2000/svg"><path d="m18.775 7.94166-.8833-.88333-2.0584 2.0575-2.0583-2.0575-.8833.88333 2.0575 2.05833-2.0575 2.05831.8833.8834 2.0583-2.0575 2.0584 2.0575.8833-.8834-2.0575-2.05831zm-7.1083-5.3275v14.77164c.0001.0809-.0234.1601-.0676.2279s-.1071.1213-.1812.1539c-.074.0326-.156.043-.2358.0298-.0799-.0132-.1541-.0494-.2138-.1041l-4.30164-3.9433h-3.33333c-.44203 0-.86595-.1756-1.17851-.4882-.31256-.3125-.48816-.7364-.48816-1.1785v-4.16664c0-.44203.1756-.86595.48816-1.17851s.73648-.48816 1.17851-.48816h3.33333l4.30164-3.94333c.0597-.0547.1339-.09086.2138-.10405.0798-.01319.1618-.00285.2358.02976.0741.03261.137.08608.1812.15388s.0677.14699.0676.22791z" fill="#000"/></svg>