<svg viewBox="0 0 24 24" xmlns="http://www.w3.org/2000/svg"><circle cx="21.2" cy="7.4" r="1"/><circle cx="3" cy="3" r="1"/><circle cx="3" cy="7.5" r="1"/><circle cx="7.5" cy="3" r="1"/><circle cx="12" cy="3" r="1"/><circle cx="16.5" cy="3" r="1"/><circle cx="21" cy="3" r="1"/><circle cx="21" cy="12" r="1"/><circle cx="21" cy="16.5" r="1"/><circle cx="21" cy="21" r="1"/><circle cx="16.5" cy="21" r="1"/><path d="m12.8 10.5h-10a.7.7 0 0 0 -.8.7v10a.7.7 0 0 0 .8.8h10a.7.7 0 0 0 .7-.8v-10a.7.7 0 0 0 -.7-.7zm-9.6 7.8 2.3-3.1 1.6 2.1 2.3-3.2 3 4.2z"/></svg>