<svg xmlns="http://www.w3.org/2000/svg" viewBox="0 0 24 24"><path d="M10,9c0,1.105-.672,2-1.5,2S7,10.105,7,9s.672-2,1.5-2S10,7.9,10,9Zm5.5-2c-.828,0-1.5.9-1.5,2s.672,2,1.5,2S17,10.105,17,9,16.328,7,15.5,7ZM22,9.692v2.257A3,3,0,0,1,20.734,14.4L10.482,21.456a3,3,0,0,1-1.7.53h-.1a7.322,7.322,0,0,1-3.61-.786A5.55,5.55,0,0,1,2.8,18.928c-.522-.977-.8-1.947-.8-4.62V9.692c0-2.673.278-3.643.8-4.62A5.55,5.55,0,0,1,5.072,2.8c.977-.522,1.947-.8,4.62-.8h4.616c2.673,0,3.643.278,4.62.8A5.55,5.55,0,0,1,21.2,5.072C21.722,6.049,22,7.019,22,9.692ZM8.743,20.485h.01a13.154,13.154,0,0,1,.352-3.464,6.521,6.521,0,0,1-2.6-2.053.75.75,0,0,1,1.188-.916l.019.026a5.025,5.025,0,0,0,1.967,1.57,6.165,6.165,0,0,1,2.532-2.507c1.1-.59,2.176-.89,4.975-.89h3.273a1.518,1.518,0,0,0,.036-.3V9.692c0-2.55-.258-3.23-.623-3.913a4.017,4.017,0,0,0-1.656-1.656C17.533,3.758,16.853,3.5,14.3,3.5H9.692c-2.55,0-3.23.258-3.913.623A4.017,4.017,0,0,0,4.123,5.779C3.758,6.461,3.5,7.142,3.5,9.692v4.616c0,2.55.258,3.23.623,3.913a4.017,4.017,0,0,0,1.656,1.656,5.822,5.822,0,0,0,2.96.608ZM19.028,13.75H17.191c-2.719,0-3.513.309-4.268.712a4.7,4.7,0,0,0-1.96,1.961,6.625,6.625,0,0,0-.7,3.362Z"/></svg>