<svg height="24" viewBox="0 0 24 24" width="24" xmlns="http://www.w3.org/2000/svg"><path d="m8.75 21.982c-.021 0-.041 0-.062 0a7.326 7.326 0 0 1 -3.616-.782 5.55 5.55 0 0 1 -2.272-2.272c-.522-.977-.8-1.947-.8-4.62v-4.616c0-2.673.278-3.643.8-4.62a5.55 5.55 0 0 1 2.272-2.272c.977-.522 1.947-.8 4.62-.8h4.616c2.673 0 3.643.278 4.62.8a5.55 5.55 0 0 1 2.272 2.272c.522.977.8 1.947.8 4.62v2.257c0 .1-.026.2-.036.3h-4.773c-2.8 0-3.872.3-4.975.89a6.172 6.172 0 0 0 -2.575 2.575c-.591 1.1-.891 2.177-.891 4.977zm8.441-8.232c-2.719 0-3.513.309-4.268.712a4.7 4.7 0 0 0 -1.96 1.961c-.4.755-.713 1.549-.713 4.269v.9c.078-.044.158-.083.232-.134l10.252-7.058a2.971 2.971 0 0 0 .644-.647z"/></svg>