<svg height="24" width="24" xmlns="http://www.w3.org/2000/svg">
  <path d="M8.75 21.982h-.062a7.326 7.326 0 01-3.616-.782A5.55 5.55 0 012.8 18.928c-.522-.977-.8-1.947-.8-4.62V9.692c0-2.673.278-3.643.8-4.62A5.55 5.55 0 015.072 2.8c.977-.522 1.947-.8 4.62-.8h4.616c2.673 0 3.643.278 4.62.8A5.55 5.55 0 0121.2 5.072c.522.977.8 1.947.8 4.62v2.257c0 .1-.026.2-.036.3h-4.773c-2.8 0-3.872.3-4.975.89a6.172 6.172 0 00-2.575 2.575c-.591 1.1-.891 2.177-.891 4.977zm8.441-8.232c-2.719 0-3.513.309-4.268.712a4.7 4.7 0 00-1.96 1.961c-.4.755-.713 1.549-.713 4.269v.9c.078-.044.158-.083.232-.134L20.734 14.4a2.971 2.971 0 00.644-.647z"/>
</svg>
