<svg height="24" width="24" xmlns="http://www.w3.org/2000/svg">
  <path d="M21.2 5.072A5.55 5.55 0 0018.928 2.8c-.977-.522-1.947-.8-4.62-.8H9.692c-2.673 0-3.643.278-4.62.8A5.55 5.55 0 002.8 5.072c-.522.977-.8 1.947-.8 4.62v4.616c0 2.673.278 3.643.8 4.62A5.55 5.55 0 005.072 21.2a7.326 7.326 0 003.616.785h.1a3 3 0 001.7-.53L20.734 14.4A3 3 0 0022 11.949V9.692c0-2.673-.278-3.643-.8-4.62zM8.739 20.485a5.82 5.82 0 01-2.96-.608 4.017 4.017 0 01-1.656-1.656c-.365-.683-.623-1.363-.623-3.913V9.692c0-2.55.258-3.231.623-3.913a4.017 4.017 0 011.656-1.656c.683-.365 1.363-.623 3.913-.623h4.616c2.55 0 3.231.258 3.913.623a4.017 4.017 0 011.656 1.656c.365.683.623 1.363.623 3.913v2.257a1.519 1.519 0 01-.036.3h-3.273c-2.8 0-3.872.3-4.975.89a6.172 6.172 0 00-2.575 2.575c-.575 1.074-.872 2.132-.888 4.769h-.014zm1.525-.7a6.631 6.631 0 01.7-3.362 4.7 4.7 0 011.96-1.961c.755-.4 1.549-.712 4.268-.712h1.837z"/>
</svg>
