<svg width="24" height="24" viewBox="0 0 24 24" fill="none" xmlns="http://www.w3.org/2000/svg">
<path fill-rule="evenodd" clip-rule="evenodd" d="M7.15564 4C7.15564 2.34315 8.49879 1 10.1556 1H19.1556C20.8125 1 22.1556 2.34315 22.1556 4V20C22.1556 21.6569 20.8125 23 19.1556 23H10.1556C8.49879 23 7.15564 21.6569 7.15564 20V4ZM10.1556 2.5H19.1556C19.9841 2.5 20.6556 3.17157 20.6556 4V20C20.6556 20.8284 19.9841 21.5 19.1556 21.5H10.1556C9.32721 21.5 8.65564 20.8284 8.65564 20V4C8.65564 3.17157 9.32721 2.5 10.1556 2.5Z" fill="black"/>
<path d="M2.59128 7.41026L5 14.0282V18.4026C4.98023 18.3558 4.96154 18.3082 4.94396 18.2599L1.18174 7.92329C0.615061 6.36635 1.41782 4.64483 2.97476 4.07815L5.43588 3.18237C5.16614 3.71024 5.01022 4.30594 5.00048 4.93711L3.48779 5.48769C2.70932 5.77103 2.30794 6.63179 2.59128 7.41026Z" fill="black"/>
</svg>
