<svg fill="none" height="56" viewBox="0 0 56 56" width="56" xmlns="http://www.w3.org/2000/svg"><g clip-rule="evenodd" fill="#000" fill-rule="evenodd"><path d="m11 3c-3.31371 0-6 2.68629-6 6v40c0 3.3137 2.68629 6 6 6h23c3.3137 0 6-2.6863 6-6v-40c0-3.31371-2.6863-6-6-6zm0 3c-1.65685 0-3 1.34314-3 3v40c0 1.6569 1.34315 3 3 3h23c1.6569 0 3-1.3431 3-3v-40c0-1.65685-1.3431-3-3-3z"/><path d="m40 44.7865 7.2953-27.2264c.8576-3.2008-1.0419-6.4908-4.2427-7.3484l-3.0526-.818v3.1058l2.2762.6099c1.6004.4289 2.5501 2.0739 2.1213 3.6743l-4.3975 16.4117z"/><path d="m40.1594 41.2569 9.5792-11.8292c2.0853-2.5753 1.6882-6.3535-.887-8.4388l-2.4168-1.9571-1.2632 2.8373 1.792 1.4512c1.2877 1.0427 1.4862 2.9318.4435 4.2194l-7.1655 8.8487z"/></g></svg>