<svg fill="none" height="24" viewBox="0 0 24 24" width="24" xmlns="http://www.w3.org/2000/svg"><path clip-rule="evenodd" d="m10.0762 1.20386c-1.51881 0-2.75003 1.23122-2.75003 2.75v16.00004c0 1.5187 1.23122 2.75 2.75003 2.75h8c1.5188 0 2.75-1.2313 2.75-2.75v-16.00004c0-1.51879-1.2312-2.75-2.75-2.75zm-1.25003 2.75c0-.69036.55965-1.25 1.25003-1.25h8c.6903 0 1.25.55964 1.25 1.25v16.00004c0 .6903-.5597 1.25-1.25 1.25h-8c-.69038 0-1.25003-.5597-1.25003-1.25zm-4.32617.04613c0-.33212.04048-.65478.11676-.96332-.92123.17877-1.61676.98982-1.61676 1.96332v14.00001c0 .9735.69553 1.7845 1.61676 1.9633-.07628-.3085-.11676-.6312-.11676-.9633z" fill="#000" fill-rule="evenodd"/></svg>