<svg xmlns="http://www.w3.org/2000/svg" viewBox="0 0 20 20"><path d="M14.513,0H5.487A5.493,5.493,0,0,0,0,5.487v9.026A5.493,5.493,0,0,0,5.487,20h9.026A5.493,5.493,0,0,0,20,14.513V5.487A5.493,5.493,0,0,0,14.513,0Zm4,5.487v9.026a4.011,4.011,0,0,1-4,4H5.487a4.011,4.011,0,0,1-4-4V5.487a4.011,4.011,0,0,1,4-4h9.026A4.011,4.011,0,0,1,18.512,5.487Z"/><path d="M14.44,4.709H5.586a.628.628,0,0,0-.627.628V6.393a.63.63,0,0,0,.627.629H8.875V15.58a.628.628,0,0,0,.628.626h1.02a.627.627,0,0,0,.626-.626V7.022h3.29a.629.629,0,0,0,.628-.629V5.337A.629.629,0,0,0,14.44,4.709Z"/></svg>