<svg fill="none" height="24" viewBox="0 0 24 24" width="24" xmlns="http://www.w3.org/2000/svg"><path d="m20.9417 3.05829c-.4258-.42616-.9314-.76421-1.4879-.99482s-1.1531-.34927-1.7555-.34918h-11.39658c-1.2166.00023-2.3833.48361-3.24355 1.34388-.86027.86025-1.34365 2.02695-1.34388 3.24355v11.39998c.00114 1.216.48493 2.3818 1.34509 3.2414.86016.8594 2.02634 1.3424 3.24234 1.3426h11.39998c1.216-.0011 2.3818-.4849 3.2414-1.3451.8594-.8601 1.3424-2.0263 1.3426-3.2423v-11.39658c.0001-.60242-.1185-1.19896-.3492-1.75548-.2306-.55654-.5686-1.06216-.9948-1.48795zm-7.6646 7.57031h-2.82v6.9368c-.0108.1257-.0711.242-.1674.3234-.0964.0815-.2211.1214-.34684.1112h-1.02857c-.12575.0102-.25046-.0297-.34679-.1112-.09637-.0814-.15659-.1977-.1675-.3234v-6.9368h-2.82c-.12428-.009-.23995-.0668-.32183-.1607s-.12333-.2164-.11531-.3408v-1.05424c-.00802-.12437.03343-.24686.11531-.34072.08188-.09394.19755-.15171.32183-.16071h7.6971c.1243.009.24.06677.3219.16071.0819.09386.1233.21635.1153.34072v1.05424c.008.1244-.0334.2469-.1153.3408s-.1976.1517-.3219.1607zm4.5558 2.8423c-1.5352.3085-1.482.3351-1.7906 1.7905-.0031.0468-.024.0907-.0584.1226s-.0798.0494-.1268.0489c-.1054 0-.1585-.0703-.1851-.1715-.3086-1.4571-.2571-1.482-1.7906-1.7905-.0968-.0266-.1714-.0798-.1714-.1852-.0005-.047.017-.0923.0489-.1268.0318-.0343.0757-.0552.1225-.0583 1.5352-.3 1.5257-.3266 1.7906-1.8.0059-.0445.0281-.0853.0623-.1145.0342-.029.0779-.0444.1228-.0432.0454-.0024.0899.0126.1243.0421.0346.0296.0563.0713.0609.1164.2734 1.4726.2571 1.4906 1.7906 1.8.0234.0008.0465.0062.0678.016.0214.0097.0406.0236.0565.0409.016.0171.0283.0373.0364.0594.0081.022.0117.0454.0107.0689-.0043.1045-.066.1577-.1714.1843zm2.004-5.35376c-1.95.37029-2.0572.36343-2.2843 2.26286-.0033.0624-.0299.1213-.0748.1648-.0448.0437-.1045.0686-.1669.0701-.0622.0013-.1224-.0218-.1677-.0645-.0452-.0426-.0718-.1014-.0741-.1635-.2494-1.92776-.3205-1.99204-2.2842-2.26976-.0582-.00473-.1124-.03116-.1519-.07404s-.0616-.09906-.0616-.15738c-.0006-.05955.0209-.11721.0603-.16185.0394-.04463.094-.07309.1532-.07987 1.9637-.37714 2.028-.37714 2.2842-2.27657.003-.06223.0304-.12078.0762-.16287.046-.04207.1068-.06426.169-.0617.0625.00143.1221.02643.167.06998.0448.04356.0714.10246.0747.16488.228 1.90028.3206 1.95 2.2551 2.26285.15.02143.2426.09943.2426.24172-.0006.05906-.0231.11579-.0632.15919-.0401.04339-.0948.07036-.1536.07566z" fill="#000"/></svg>