<svg fill="none" height="24" viewBox="0 0 24 24" width="24" xmlns="http://www.w3.org/2000/svg"><g fill="#000"><path d="m17.6981 3.00313c.8745.00091 1.713.34871 2.3313.96709.6184.61837.9662 1.4568.9671 2.33132v11.39706c-.0009.8745-.3487 1.713-.9671 2.3313-.6183.6184-1.4568.9662-2.3313.9671h-11.39705c-.87451-.0009-1.71295-.3487-2.33132-.9671-.61838-.6183-.96618-1.4568-.96709-2.3313v-11.39706c.00091-.87452.34871-1.71295.96709-2.33132.61837-.61838 1.45681-.96618 2.33132-.96709zm0-1.28877h-11.39705c-1.21653.00022-2.38316.48359-3.24338 1.3438-.86021.86021-1.34358 2.02685-1.3438 3.24338v11.39706c.00022 1.2165.48359 2.3832 1.3438 3.2434.86022.8602 2.02685 1.3436 3.24338 1.3438h11.39705c1.2165-.0002 2.3832-.4836 3.2434-1.3438s1.3436-2.0269 1.3438-3.2434v-11.39706c-.0002-1.21653-.4836-2.38317-1.3438-3.24338s-2.0269-1.34358-3.2434-1.3438z"/><path d="m9.94584 8.57129h-1.0357c-.28207 0-.51073.19452-.51073.43447v8.55964c0 .2399.22866.4345.51073.4345h1.0357c.28206 0 .51076-.1946.51076-.4345v-8.55964c0-.23995-.2287-.43447-.51076-.43447z"/><path d="m13.2772 8.57129h-7.69784c-.24123 0-.43678.22436-.43678.50112v1.05489c0 .2768.19555.5011.43678.5011h7.69784c.2413 0 .4368-.2243.4368-.5011v-1.05489c0-.27676-.1955-.50112-.4368-.50112z"/><path d="m17.3106 5.14328c-.1352 0-.2277.09249-.2419.22056-.2561 1.89969-.3202 1.89969-2.2839 2.27679-.1209.02134-.2134.10672-.2134.2419 0 .12807.0925.22057.2134.2348 1.9637.27748 2.0349.34152 2.2839 2.26967.0142.1352.1067.2277.2419.2277.1281 0 .2206-.0925.2419-.2348.2277-1.89971.3344-1.89259 2.2839-2.26257.121-.02135.2135-.10673.2135-.2348 0-.14229-.0925-.22056-.2419-.2419-1.9353-.31306-2.0278-.36287-2.2555-2.26256-.0213-.1423-.1138-.23479-.2419-.23479z"/><path d="m15.672 11.3017c.0264-.097.0793-.1587.1851-.1587.1059 0 .1676.0617.1852.1587.2734 1.4727.2558 1.4903 1.7902 1.799.1058.0176.1675.0793.1675.1852 0 .1058-.0617.1587-.1675.1851-1.5344.3087-1.4815.3351-1.7902 1.7902-.0176.097-.0793.1675-.1852.1675-.1058 0-.1587-.0705-.1851-.1675-.3087-1.4551-.2558-1.4815-1.7902-1.7902-.097-.0264-.1675-.0793-.1675-.1851 0-.1059.0705-.1676.1675-.1852 1.5344-.2999 1.5256-.3263 1.7902-1.799z"/></g></svg>