<svg height="12" viewBox="0 0 12 12" width="12" xmlns="http://www.w3.org/2000/svg"><path d="m5.5.026a5.986 5.986 0 0 1 5.423 9.394l-.877-.507a4.965 4.965 0 0 0 -4.546-7.873zm-2.92 10.9a6.014 6.014 0 0 0 .865.5l.508-.88a4.959 4.959 0 0 1 -.866-.5zm-1.539-5.426h-1.016a6.07 6.07 0 0 0 0 1h1.015a4.915 4.915 0 0 1 .001-1zm8.38 5.426-.513-.889a4.966 4.966 0 0 1 -.866.5l.513.889a6 6 0 0 0 .866-.5zm-2.921.034a4.915 4.915 0 0 1 -1 0v1.016a6.07 6.07 0 0 0 1 0zm-3.921-9.886.513.889a5.008 5.008 0 0 1 .866-.5l-.513-.888a6.057 6.057 0 0 0 -.866.499zm-.616 7.834a4.966 4.966 0 0 1 -.5-.866l-.889.513a6 6 0 0 0 .5.866zm-.507-4.955a4.959 4.959 0 0 1 .5-.866l-.879-.507a6.014 6.014 0 0 0 -.5.865zm4.919 1.4a.75.75 0 0 0 -.75 1.3l3.714 1.563.25-.432z"/></svg>