<svg height="24" viewBox="0 0 24 24" width="24" xmlns="http://www.w3.org/2000/svg"><path d="m12 21.5a7.491 7.491 0 0 1 -6.277-11.593l-1.075-1.076a8.989 8.989 0 0 0 12.526 12.526l-1.081-1.08a7.45 7.45 0 0 1 -4.093 1.223z"/><path d="m21.53 21.47-2.23-2.227a8.96 8.96 0 0 0 -.239-10.807 1.232 1.232 0 0 0 .939-1.186 1.25 1.25 0 0 0 -1.25-1.25 1.232 1.232 0 0 0 -1.186.935 8.948 8.948 0 0 0 -4.752-1.894l1.188-4.041h-4l1.188 4.041a8.915 8.915 0 0 0 -4.419 1.667l-2.239-2.238-1.06 1.06.872.873 2.327 2.329 4.431 4.431 1.78 1.781 4.385 4.386 1.063 1.063 2.142 2.137zm-8.66-8.661-.37-4.809h-1l-.246 3.194-3.421-3.422a7.491 7.491 0 0 1 10.4 10.4z"/></svg>