<svg xmlns="http://www.w3.org/2000/svg" width="12" height="12" viewBox="0 0 12 12"><title>timer-20-12</title><path d="M5.5.026A5.986,5.986,0,0,1,10.923,9.42l-.877-.507A4.965,4.965,0,0,0,5.5,1.04Zm-2.92,10.9a6.014,6.014,0,0,0,.865.5l.508-.88a4.959,4.959,0,0,1-.866-.5ZM1.041,5.5H.025a6.07,6.07,0,0,0,0,1H1.04A4.915,4.915,0,0,1,1.041,5.5Zm8.38,5.426-.513-.889a4.966,4.966,0,0,1-.866.5l.513.889A6,6,0,0,0,9.421,10.926ZM6.5,10.96a4.915,4.915,0,0,1-1,0v1.016a6.07,6.07,0,0,0,1,0ZM2.579,1.074l.513.889a5.008,5.008,0,0,1,.866-.5L3.445.575A6.057,6.057,0,0,0,2.579,1.074ZM1.963,8.908a4.966,4.966,0,0,1-.5-.866l-.889.513a6,6,0,0,0,.5.866ZM1.456,3.953a4.959,4.959,0,0,1,.5-.866L1.077,2.58a6.014,6.014,0,0,0-.5.865Zm4.919,1.4a.75.75,0,0,0-.75,1.3L9.339,8.216l.25-.432Z"/></svg>