<svg height="12" viewBox="0 0 12 12" width="12" xmlns="http://www.w3.org/2000/svg"><path d="m9.42 10.923a6.014 6.014 0 0 1 -.865.5l-.508-.88a4.959 4.959 0 0 0 .866-.5zm-3.92-9.882a4.915 4.915 0 0 1 1 0v-1.015a6.07 6.07 0 0 0 -1 0zm5.036 7a4.966 4.966 0 0 1 -.5.866l.889.513a6 6 0 0 0 .5-.866zm.387-5.462-.877.507a4.959 4.959 0 0 1 .5.866l.88-.508a6.014 6.014 0 0 0 -.503-.864zm.037 3.921h1.014a6.07 6.07 0 0 0 0-1h-1.015a4.915 4.915 0 0 1 .001 1zm-2.918-5.037a5.008 5.008 0 0 1 .866.5l.513-.889a6.057 6.057 0 0 0 -.866-.5zm-5.461-.387.506.878a4.959 4.959 0 0 1 .866-.5l-.507-.878a5.994 5.994 0 0 0 -.865.5zm1.377 9.46a4.966 4.966 0 0 1 -.866-.5l-.513.889a6 6 0 0 0 .866.5zm2.542.423a4.915 4.915 0 0 1 -1 0v1.014a6.07 6.07 0 0 0 1 0zm-4.546-2.046a4.959 4.959 0 0 1 -.5-.866l-.88.508a6.014 6.014 0 0 0 .5.865zm-.914-3.413h-1.014a6.07 6.07 0 0 0 0 1h1.015a4.915 4.915 0 0 1 -.001-1zm.424-1.542a4.966 4.966 0 0 1 .5-.866l-.889-.513a6 6 0 0 0 -.5.866zm4.786-1.958h-.5l-.5 4a.75.75 0 0 0 1.5 0z"/></svg>