<svg height="12" viewBox="0 0 12 12" width="12" xmlns="http://www.w3.org/2000/svg"><path d="m1.041 6.5h-1.016a6.07 6.07 0 0 1 0-1h1.015a4.915 4.915 0 0 0 .001 1zm4.459-5.459a4.988 4.988 0 0 1 5.044 2.912l.88-.508a6 6 0 0 0 -5.924-3.42zm5.036 7a4.966 4.966 0 0 1 -.5.866l.889.513a6 6 0 0 0 .5-.866zm.424-1.541h1.014a6.07 6.07 0 0 0 0-1h-1.015a4.915 4.915 0 0 1 .001 1zm-2.047 3.546a4.959 4.959 0 0 1 -.866.5l.508.88a6.014 6.014 0 0 0 .865-.5zm-6.332-8.97.506.878a4.959 4.959 0 0 1 .866-.5l-.507-.878a5.994 5.994 0 0 0 -.865.5zm3.919 9.883a4.915 4.915 0 0 1 -1 0v1.014a6.07 6.07 0 0 0 1 0zm-2.542-.423a4.966 4.966 0 0 1 -.866-.5l-.513.889a6 6 0 0 0 .866.5zm-2-1.623a4.959 4.959 0 0 1 -.5-.866l-.88.508a6.014 6.014 0 0 0 .5.865zm-.49-4.955a4.966 4.966 0 0 1 .5-.866l-.889-.513a6 6 0 0 0 -.5.866zm7.875-.174-3.718 1.566a.75.75 0 0 0 .75 1.3l3.214-2.434z"/></svg>