<svg height="12" viewBox="0 0 12 12" width="12" xmlns="http://www.w3.org/2000/svg"><path d="m5.5.025a6 6 0 0 1 3.921 1.049l-.513.889a4.972 4.972 0 0 0 -3.408-.922zm5.036 8.017a4.966 4.966 0 0 1 -.5.866l.889.513a6 6 0 0 0 .5-.866zm-1.623 2a4.959 4.959 0 0 1 -.866.5l.508.88a6.014 6.014 0 0 0 .865-.5zm1.631-6.093.88-.508a6.014 6.014 0 0 0 -.5-.865l-.877.507a4.959 4.959 0 0 1 .497.87zm.416 2.551h1.014a6.07 6.07 0 0 0 0-1h-1.015a4.915 4.915 0 0 1 .001 1zm-9.006 2.413a4.959 4.959 0 0 1 -.5-.866l-.88.508a6.014 6.014 0 0 0 .5.865zm.627-7.837.506.878a4.959 4.959 0 0 1 .866-.5l-.507-.878a5.994 5.994 0 0 0 -.865.5zm3.919 9.883a4.915 4.915 0 0 1 -1 0v1.014a6.07 6.07 0 0 0 1 0zm-5.036-7a4.966 4.966 0 0 1 .5-.866l-.889-.513a6 6 0 0 0 -.5.866zm-.424 1.541h-1.014a6.07 6.07 0 0 0 0 1h1.015a4.915 4.915 0 0 1 -.001-1zm2.918 5.036a4.966 4.966 0 0 1 -.866-.5l-.513.889a6 6 0 0 0 .866.5zm3.826-8.125-2.433 3.214a.75.75 0 0 0 1.3.75l1.565-3.714z"/></svg>