<svg height="12" viewBox="0 0 12 12" width="12" xmlns="http://www.w3.org/2000/svg"><path d="m1.05 6.5h-1a5.963 5.963 0 0 1 0-1h1a5.063 5.063 0 0 0 0 1zm.906 2.412a4.907 4.907 0 0 1 -.5-.865l-.864.5a5.94 5.94 0 0 0 .491.87zm-.5-4.959a4.907 4.907 0 0 1 .5-.865l-.874-.5a5.94 5.94 0 0 0 -.491.87zm8.788-2.2a5.962 5.962 0 0 0 -4.744-1.705v1a4.978 4.978 0 1 1 0 9.9v1a5.976 5.976 0 0 0 4.743-10.191zm-7.66-.671.5.873a4.97 4.97 0 0 1 .865-.5l-.5-.863a5.94 5.94 0 0 0 -.865.49zm1.369 9.463a4.907 4.907 0 0 1 -.865-.5l-.5.874a5.94 5.94 0 0 0 .87.491zm2.047-5.295a.75.75 0 0 0 -.75.75l.5 4h.5l.5-4a.75.75 0 0 0 -.75-.75z"/></svg>