<svg xmlns="http://www.w3.org/2000/svg" width="12" height="12" viewBox="0 0 12 12"><title>timer-30-12</title><path d="M1.05,6.5h-1a5.963,5.963,0,0,1,0-1h1A5.063,5.063,0,0,0,1.05,6.5Zm.906,2.412a4.907,4.907,0,0,1-.5-.865l-.864.5a5.94,5.94,0,0,0,.491.87Zm-.5-4.959a4.907,4.907,0,0,1,.5-.865l-.874-.5a5.94,5.94,0,0,0-.491.87Zm8.788-2.2A5.962,5.962,0,0,0,5.5.048v1a4.978,4.978,0,1,1,0,9.9v1A5.976,5.976,0,0,0,10.243,1.757ZM2.584,1.082l.5.873a4.97,4.97,0,0,1,.865-.5l-.5-.863A5.94,5.94,0,0,0,2.584,1.082Zm1.369,9.463a4.907,4.907,0,0,1-.865-.5l-.5.874a5.94,5.94,0,0,0,.87.491ZM6,5.25A.75.75,0,0,0,5.25,6l.5,4h.5l.5-4A.75.75,0,0,0,6,5.25Z"/></svg>