<svg height="12" viewBox="0 0 12 12" width="12" xmlns="http://www.w3.org/2000/svg"><path d="m1.077 9.42a6.014 6.014 0 0 1 -.5-.865l.88-.508a4.959 4.959 0 0 0 .5.866zm.387-5.462a4.966 4.966 0 0 1 .5-.866l-.889-.513a6 6 0 0 0 -.5.866zm-.424 1.542h-1.014a6.07 6.07 0 0 0 0 1h1.015a4.915 4.915 0 0 1 -.001-1zm1.541-4.424.506.878a4.959 4.959 0 0 1 .866-.5l-.507-.878a5.994 5.994 0 0 0 -.865.5zm1.377 9.46a4.966 4.966 0 0 1 -.866-.5l-.513.889a6 6 0 0 0 .866.5zm7.842-6.089a6 6 0 0 0 -6.3-4.422v1.016a4.981 4.981 0 0 1 2.547 9.5l.508.88a6 6 0 0 0 3.245-6.974zm-5.3 6.512a4.915 4.915 0 0 1 -1 0v1.014a6.07 6.07 0 0 0 1 0zm.15-5.334a.75.75 0 1 0 -1.3.75l2.434 3.214.432-.25z"/></svg>