<svg fill="none" height="16" viewBox="0 0 16 16" width="16" xmlns="http://www.w3.org/2000/svg"><path clip-rule="evenodd" d="m13.0072 5.03866c-.0974.09053-.2173.15317-.3472.18134.7141.88044 1.1641 1.94516 1.298 3.07084.1339 1.12569-.0539 2.26626-.5415 3.28966-.1499.3145-.3262.6139-.5263.8955l1.8377 1.8377-.7071.7071-1.7784-1.7784-9.26885-9.26886-.97355-.97354.70711-.70711 1.81443 1.81443c.85909-.62044 1.86928-1.00367 2.92846-1.10732l-.45-2h2l-.45 2c1.18584.11605 2.3103.58253 3.23 1.34.0282-.12991.0908-.24983.1813-.34717.0906-.09733.2056-.16849.3332-.20598.1275-.03749.2628-.03994.3916-.00709s.2464.09979.3404.19378c.094.094.1609.21158.1937.34038.0329.1288.0304.26408-.007.39161-.0375.12753-.1087.24261-.206.33313zm-9.89782.48492c-.5806.81689-.94854 1.76806-1.06738 2.76726-.13389 1.12569.05386 2.26626.54151 3.28966.48764 1.0233 1.25523 1.8876 2.21384 2.4927.95862.6051 2.06904.9263 3.20265.9263 1.13362 0 2.244-.3212 3.2027-.9263.0929-.0586.184-.1197.2732-.1831zm4.34405 1.51564.2549-2.03922h.58333l.41107 3.28852zm.51205-3.0391.03452-.00012.02821.00008c-.02091-.00012-.04182-.00011-.06273.00004z" fill="#000" fill-rule="evenodd"/></svg>