<svg height="12" viewBox="0 0 12 12" width="12" xmlns="http://www.w3.org/2000/svg"><path d="m1.074 2.579.889.513a5.035 5.035 0 0 0 -.5.866l-.888-.513a6 6 0 0 1 .499-.866zm-1.048 2.921a6.07 6.07 0 0 0 0 1h1.015a4.915 4.915 0 0 1 0-1zm11.774-1.053a6 6 0 0 0 -6.3-4.422v1.016a4.991 4.991 0 1 1 -4.044 7.006l-.88.508a6 6 0 0 0 11.224-4.108zm-9.219-3.371.506.878a4.959 4.959 0 0 1 .866-.5l-.507-.878a5.994 5.994 0 0 0 -.865.5zm4.069 4.549a.751.751 0 0 0 -1.025-.275l-3.214 2.434.25.432 3.714-1.567a.749.749 0 0 0 .275-1.024z"/></svg>