<svg fill="none" height="16" viewBox="0 0 16 16" width="16" xmlns="http://www.w3.org/2000/svg"><path clip-rule="evenodd" d="m12.66 5.22c.1299-.02817.2498-.09081.3472-.18134.0973-.09052.1685-.2056.206-.33313.0374-.12753.0399-.26281.007-.39161-.0328-.1288-.0997-.24638-.1937-.34038-.094-.09399-.2116-.16093-.3404-.19378s-.2641-.0304-.3916.00709c-.1276.03749-.2426.10865-.3332.20598-.0905.09734-.1531.21726-.1813.34717-.9197-.75747-2.04416-1.22395-3.23-1.34l.45-2h-2l.45 2c-1.18583.11605-2.31026.58253-3.23 1.34-.02816-.12991-.0908-.24983-.18133-.34717-.09053-.09733-.20561-.16849-.33314-.20598s-.2628-.03994-.39161-.00709c-.1288.03285-.24638.09979-.34037.19378-.094.094-.16094.21158-.19379.34038s-.0304.26408.00709.39161c.0375.12753.10865.24261.20599.33313.09733.09053.21725.15317.34716.18134-.71407.88044-1.16412 1.94516-1.298 3.07084-.13389 1.12569.05386 2.26626.54151 3.28966.48764 1.0233 1.25523 1.8876 2.21384 2.4927.95862.6051 2.06904.9263 3.20265.9263 1.13362 0 2.244-.3212 3.2027-.9263.9586-.6051 1.7262-1.4694 2.2138-2.4927.4876-1.0234.6754-2.16397.5415-3.28966-.1339-1.12568-.5839-2.1904-1.298-3.07084zm-4.66-1.22-.03452.00012c.02091-.00015.04182-.00016.06273-.00004zm.61872 6.2854c.16409-.1641.25628-.38667.25628-.61873l-.58333-4.66667h-.58334l-.58333 4.66667c0 .23206.09219.45463.25628.61873.1641.1641.38666.2563.61872.2563s.45462-.0922.61872-.2563z" fill="#000" fill-rule="evenodd"/></svg>