<svg xmlns="http://www.w3.org/2000/svg" width="12" height="12" viewBox="0 0 12 12"><title>timer-10-12</title><path d="M1.041,6.5H.025a6.07,6.07,0,0,1,0-1H1.04A4.915,4.915,0,0,0,1.041,6.5ZM5.5,1.041a4.988,4.988,0,0,1,5.044,2.912l.88-.508A6,6,0,0,0,5.5.025Zm5.036,7a4.966,4.966,0,0,1-.5.866l.889.513a6,6,0,0,0,.5-.866ZM10.96,6.5h1.014a6.07,6.07,0,0,0,0-1H10.959A4.915,4.915,0,0,1,10.96,6.5ZM8.913,10.046a4.959,4.959,0,0,1-.866.5l.508.88a6.014,6.014,0,0,0,.865-.5ZM2.581,1.076l.506.878a4.959,4.959,0,0,1,.866-.5L3.446.576A5.994,5.994,0,0,0,2.581,1.076ZM6.5,10.959a4.915,4.915,0,0,1-1,0v1.014a6.07,6.07,0,0,0,1,0Zm-2.542-.423a4.966,4.966,0,0,1-.866-.5l-.513.889a6,6,0,0,0,.866.5Zm-2-1.623a4.959,4.959,0,0,1-.5-.866l-.88.508a6.014,6.014,0,0,0,.5.865Zm-.49-4.955a4.966,4.966,0,0,1,.5-.866l-.889-.513a6,6,0,0,0-.5.866Zm7.875-.174L5.625,5.35a.75.75,0,0,0,.75,1.3L9.589,4.216Z"/></svg>