<svg xmlns="http://www.w3.org/2000/svg" width="12" height="12" viewBox="0 0 12 12"><title>timer-25-12</title><path d="M1.077,9.42a6.014,6.014,0,0,1-.5-.865l.88-.508a4.959,4.959,0,0,0,.5.866Zm.387-5.462a4.966,4.966,0,0,1,.5-.866l-.889-.513a6,6,0,0,0-.5.866ZM1.04,5.5H.026a6.07,6.07,0,0,0,0,1H1.041A4.915,4.915,0,0,1,1.04,5.5ZM2.581,1.076l.506.878a4.959,4.959,0,0,1,.866-.5L3.446.576A5.994,5.994,0,0,0,2.581,1.076Zm1.377,9.46a4.966,4.966,0,0,1-.866-.5l-.513.889a6,6,0,0,0,.866.5ZM11.8,4.447A6,6,0,0,0,5.5.025V1.041a4.981,4.981,0,0,1,2.547,9.5l.508.88A6,6,0,0,0,11.8,4.447ZM6.5,10.959a4.915,4.915,0,0,1-1,0v1.014a6.07,6.07,0,0,0,1,0Zm.15-5.334a.75.75,0,1,0-1.3.75L7.784,9.589l.432-.25Z"/></svg>