<svg height="12" viewBox="0 0 12 12" width="12" xmlns="http://www.w3.org/2000/svg"><path d="m1.05 6.5h-1a5.963 5.963 0 0 1 0-1h1a5.063 5.063 0 0 0 0 1zm9.495 1.547a4.907 4.907 0 0 1 -.5.865l.874.5a5.94 5.94 0 0 0 .491-.87zm-5.045-6.997a4.932 4.932 0 0 1 5.45 5.45h1a5.924 5.924 0 0 0 -6.45-6.452zm3.916 9.868-.5-.874a4.907 4.907 0 0 1 -.865.5l.5.864a5.889 5.889 0 0 0 .865-.49zm-5.463-.373a4.846 4.846 0 0 1 -.865-.5l-.5.874a5.94 5.94 0 0 0 .87.491zm2.547.4a5.063 5.063 0 0 1 -1 0v1a5.963 5.963 0 0 0 1 0zm-3.916-9.863.5.873a4.97 4.97 0 0 1 .865-.5l-.5-.863a5.94 5.94 0 0 0 -.865.49zm-.628 7.83a4.907 4.907 0 0 1 -.5-.865l-.864.5a5.94 5.94 0 0 0 .491.87zm-.5-4.959a4.907 4.907 0 0 1 .5-.865l-.874-.5a5.94 5.94 0 0 0 -.491.87zm4.544 1.297a.75.75 0 0 0 0 1.5l4-.5v-.5z"/></svg>