<svg width="24" height="24" fill="none" xmlns="http://www.w3.org/2000/svg"><path d="M23 8.563v6.874a1 1 0 0 1-1.42.908l-3.08-1.422V9.077l3.08-1.422a1 1 0 0 1 1.42.908ZM2.535 4.876A2.639 2.639 0 0 0 1.4 5.939 3.854 3.854 0 0 0 1 8.105V15.9c-.08.746.059 1.498.4 2.166.263.46.658.83 1.134 1.063a4.6 4.6 0 0 0 2.31.376h8.309a4.6 4.6 0 0 0 2.31-.376 2.639 2.639 0 0 0 1.137-1.068c.34-.666.48-1.417.4-2.161V8.105a3.854 3.854 0 0 0-.4-2.166 2.64 2.64 0 0 0-1.134-1.063 4.6 4.6 0 0 0-2.312-.376H4.846a4.6 4.6 0 0 0-2.311.376Z" fill="#000"/></svg>