<svg fill="none" height="16" viewBox="0 0 16 16" width="16" xmlns="http://www.w3.org/2000/svg"><path d="m14.23 4.16c-.2276-.09696-.4791-.12306-.7217-.07489-.2426.04816-.465.16836-.6383.34489l-1.87 1.86v-1.54c-.0026-.46332-.1878-.90691-.5155-1.23454-.3276-.32762-.77118-.51283-1.2345-.51546h-6.5c-.46332.00263-.90691.18784-1.23454.51546-.32762.32763-.51283.77122-.51546 1.23454v6.5c.00263.4633.18784.9069.51546 1.2345.32763.3277.77122.5129 1.23454.5155h6.5c.46332-.0026.9069-.1878 1.2345-.5155.3277-.3276.5129-.7712.5155-1.2345v-1.54l1.87 1.86c.1146.1172.2515.2103.4026.2739.1512.0635.3135.0962.4774.0961.1652.0006.3288-.0334.48-.1.2289-.0923.4248-.2513.5621-.4564s.2098-.4468.2079-.6936v-5.38c.0019-.24681-.0706-.48848-.2079-.69357s-.3332-.36413-.5621-.45643zm-4.23 7.09c-.00259.1981-.08244.3874-.22253.5275-.1401.1401-.32936.2199-.52747.2225h-6.5c-.19811-.0026-.38737-.0824-.52747-.2225-.14009-.1401-.21994-.3294-.22253-.5275v-6.5c.00259-.19811.08244-.38737.22253-.52747.1401-.14009.32936-.21994.52747-.22253h6.5c.19811.00259.38737.08244.52747.22253.14009.1401.21994.32936.22253.52747zm4-.56c.0002.0488-.0139.0966-.0406.1374-.0266.0409-.0647.0731-.1094.0926-.0465.0198-.0977.0256-.1474.0167-.0498-.0089-.0958-.0321-.1326-.0667l-2.57-2.58v-.58l2.57-2.58c.0418-.02672.0904-.04091.14-.04091s.0982.01419.14.04091c.0447.01952.0828.05169.1094.09256.0267.04087.0408.08865.0406.13744zm-9.29-.69h3.29v1h-5v-5h1v3.29l4.15-4.14.7.7z" fill="#000"/></svg>