<svg fill="none" height="16" viewBox="0 0 16 16" width="16" xmlns="http://www.w3.org/2000/svg"><path d="m9 3h-6c-.53043 0-1.03914.21071-1.41421.58579-.37508.37507-.58579.88378-.58579 1.41421v6c0 .5304.21071 1.0391.58579 1.4142.37507.3751.88378.5858 1.41421.5858h6c.53043 0 1.0391-.2107 1.4142-.5858s.5858-.8838.5858-1.4142v-6c0-.53043-.2107-1.03914-.5858-1.41421-.3751-.37508-.88377-.58579-1.4142-.58579zm-.15 7.15-.7.7-2.15-2.14-2.15 2.14-.7-.7 2.14-2.15-2.14-2.15.7-.7 2.15 2.14 2.15-2.14.7.7-2.14 2.15zm6.15-4.84v5.38c-.0001.1482-.0442.2931-.1266.4163s-.1995.2193-.3365.276c-.1369.0567-.2876.0715-.433.0427-.1454-.0289-.279-.1002-.3839-.205l-1.72-1.72v-3l1.72-1.72c.1049-.10476.2385-.17608.3839-.20497.1454-.02888.2961-.01403.433.04268.137.05671.2541.15274.3365.27596.0824.12321.1265.26809.1266.41633z" fill="#000"/></svg>