<svg width="16" height="16" viewBox="0 0 16 16" fill="none" xmlns="http://www.w3.org/2000/svg">
<g clip-path="url(#clip0_1_68)">
<path d="M5.25419 5.25419C5.48199 5.02638 5.85134 5.02638 6.07915 5.25419L8 7.17504L9.92085 5.25419C10.1487 5.02638 10.518 5.02638 10.7458 5.25419C10.9736 5.48199 10.9736 5.85134 10.7458 6.07915L8.82496 8L10.7458 9.92085C10.9736 10.1487 10.9736 10.518 10.7458 10.7458C10.518 10.9736 10.1487 10.9736 9.92085 10.7458L8 8.82496L6.07915 10.7458C5.85134 10.9736 5.48199 10.9736 5.25419 10.7458C5.02638 10.518 5.02638 10.1487 5.25419 9.92085L7.17504 8L5.25419 6.07915C5.02638 5.85134 5.02638 5.48199 5.25419 5.25419Z" fill="black"/>
<path fill-rule="evenodd" clip-rule="evenodd" d="M0.75 8C0.75 3.99594 3.99594 0.75 8 0.75C12.0041 0.75 15.25 3.99594 15.25 8C15.25 12.0041 12.0041 15.25 8 15.25C3.99594 15.25 0.75 12.0041 0.75 8ZM8 1.91667C4.64027 1.91667 1.91667 4.64027 1.91667 8C1.91667 11.3597 4.64027 14.0833 8 14.0833C11.3597 14.0833 14.0833 11.3597 14.0833 8C14.0833 4.64027 11.3597 1.91667 8 1.91667Z" fill="black"/>
</g>
<defs>
<clipPath id="clip0_1_68">
<rect width="16" height="16" fill="white"/>
</clipPath>
</defs>
</svg>
