<svg width="20" height="20" fill="none" xmlns="http://www.w3.org/2000/svg"><path fill-rule="evenodd" clip-rule="evenodd" d="M6.053 3.02c-.674 0-1.224 0-1.671.037-.462.038-.877.118-1.265.316a3.23 3.23 0 0 0-1.41 1.411c-.198.387-.279.803-.316 1.265-.037.446-.037.996-.037 1.67v4.562c0 .674 0 1.224.037 1.67.037.462.118.878.315 1.265a3.23 3.23 0 0 0 1.411 1.411c.388.198.803.278 1.265.316.447.036.997.036 1.67.036h7.895c.674 0 1.224 0 1.671-.036.462-.038.877-.118 1.265-.316a3.23 3.23 0 0 0 1.41-1.41c.198-.388.279-.804.316-1.266.037-.446.037-.996.037-1.67V7.719c0-.674 0-1.224-.037-1.67-.037-.462-.118-.878-.315-1.265a3.23 3.23 0 0 0-1.411-1.411c-.388-.198-.803-.278-1.265-.316-.447-.036-.997-.036-1.67-.036H6.052ZM3.779 4.673c.148-.075.35-.13.722-.161.38-.031.87-.032 1.582-.032h7.834c.712 0 1.202 0 1.582.032.372.03.574.086.722.161.333.17.604.44.773.774a.86.86 0 0 1 .053.122L11.05 9.987a1.77 1.77 0 0 1-2.1 0L2.953 5.568a1.04 1.04 0 0 1 .052-.122c.17-.333.441-.604.774-.774Zm-.966 2.605v4.973c0 .712 0 1.202.031 1.583.03.371.086.573.161.721.17.333.441.604.774.774.148.075.35.13.722.161.38.031.87.032 1.582.032h7.834c.712 0 1.202 0 1.582-.032.372-.03.574-.086.722-.161.333-.17.604-.44.773-.774.076-.148.131-.35.162-.721.03-.38.032-.87.032-1.583v-4.5l-.001-.473-5.272 3.884a3.23 3.23 0 0 1-3.83 0L2.812 7.277Z" fill="#000"/></svg>