<svg width="20" height="20" fill="none" xmlns="http://www.w3.org/2000/svg"><g clip-path="url(#appearance__a)" fill="#000"><path d="M9.583 6.458c0-.339.28-.639.648-.618a4.167 4.167 0 0 1 0 8.32.616.616 0 0 1-.648-.618V6.458Z"/><path d="M10.81.612a1.146 1.146 0 0 0-1.62 0l-2.2 2.2H3.958c-.632 0-1.145.513-1.145 1.146V6.99l-2.2 2.2a1.146 1.146 0 0 0 0 1.62l2.2 2.2v3.032c0 .632.513 1.145 1.145 1.145H6.99l2.2 2.201a1.147 1.147 0 0 0 1.62.002l2.2-2.192 3.035-.01a1.146 1.146 0 0 0 1.142-1.145V13.01l2.2-2.199a1.146 1.146 0 0 0-.003-1.623l-2.186-2.172-.01-3.061a1.146 1.146 0 0 0-1.145-1.143H13.01l-2.2-2.2ZM7.93 3.935 10 1.865l2.07 2.07c.216.215.507.336.811.336h2.85l.01 2.879c0 .303.122.595.338.809l2.055 2.043-2.07 2.069a1.146 1.146 0 0 0-.335.81v2.85l-2.852.01c-.301 0-.59.12-.805.333l-2.07 2.063-2.073-2.072a1.146 1.146 0 0 0-.81-.336H4.271v-2.848c0-.304-.12-.595-.336-.81L1.865 10l2.07-2.07c.215-.216.336-.507.336-.81V4.27h2.848c.304 0 .595-.12.81-.335Z"/></g><defs><clipPath id="appearance__a"><path fill="#fff" d="M0 0h20v20H0z"/></clipPath></defs></svg>