<svg width="12" height="12" fill="none" xmlns="http://www.w3.org/2000/svg"><g clip-path="url(#messagetimer-00__a)" fill="#000"><path d="M5.811 1.104a4.74 4.74 0 0 1 .377 0 .55.55 0 0 0 .043-1.1 5.958 5.958 0 0 0-.461 0 .55.55 0 0 0 .042 1.1ZM8.798.692a.55.55 0 0 0-.513.973c.11.059.22.121.326.189a.55.55 0 1 0 .587-.93 5.959 5.959 0 0 0-.4-.232Zm-5.083.974a.55.55 0 1 0-.512-.974 6.81 6.81 0 0 0-.4.23.55.55 0 1 0 .586.932c.105-.067.214-.13.326-.188Zm7.362 1.137a.55.55 0 1 0-.93.585c.066.106.129.215.187.327a.55.55 0 1 0 .974-.512 5.95 5.95 0 0 0-.23-.4Zm-9.223.587a.55.55 0 0 0-.93-.588c-.083.13-.16.264-.232.4a.55.55 0 1 0 .973.513c.059-.11.121-.22.189-.326Zm-.75 2.422a.55.55 0 0 0-1.1-.043 5.958 5.958 0 0 0 0 .462.55.55 0 1 0 1.1-.042 4.858 4.858 0 0 1 0-.377Zm10.892-.042a.55.55 0 0 0-1.1.041c.005.125.005.25 0 .377a.55.55 0 0 0 1.1.043 5.975 5.975 0 0 0 0-.462ZM1.666 8.285a.55.55 0 1 0-.974.512c.072.137.15.27.231.4a.55.55 0 1 0 .93-.585 4.863 4.863 0 0 1-.187-.327Zm9.642.513a.55.55 0 0 0-.973-.513c-.058.11-.121.22-.189.326a.55.55 0 0 0 .93.587c.083-.13.16-.264.232-.4ZM3.39 10.146a.55.55 0 0 0-.588.93c.131.083.264.16.4.232a.55.55 0 0 0 .513-.973 4.839 4.839 0 0 1-.326-.189Zm5.808.931a.55.55 0 1 0-.586-.93 5.225 5.225 0 0 1-.327.187.55.55 0 0 0 .513.974c.136-.072.27-.15.4-.23Zm-3.386-.181a.55.55 0 0 0-.043 1.1c.154.005.309.005.462 0a.55.55 0 0 0-.042-1.1 4.74 4.74 0 0 1-.377 0ZM6 2.2a.55.55 0 0 1 .55.55v2.415a1 1 0 1 1-1.1 0V2.75A.55.55 0 0 1 6 2.2Z"/></g><defs><clipPath id="messagetimer-00__a"><path fill="#fff" d="M0 0h12v12H0z"/></clipPath></defs></svg>