<svg width="12" height="12" fill="none" xmlns="http://www.w3.org/2000/svg"><g clip-path="url(#messagetimer-20__a)" fill="#000"><path d="M5.45.55A.55.55 0 0 1 6 0a6 6 0 0 1 5.197 9 .55.55 0 0 1-.952-.551A4.9 4.9 0 0 0 6 1.1a.55.55 0 0 1-.55-.55ZM3.946.922a.55.55 0 0 1-.23.743 4.86 4.86 0 0 0-.327.188.55.55 0 0 1-.586-.931 5.85 5.85 0 0 1 .4-.231.55.55 0 0 1 .743.23ZM1.682 2.63a.55.55 0 0 1 .172.758 5.62 5.62 0 0 0-.189.326.55.55 0 0 1-.972-.513 5.96 5.96 0 0 1 .23-.4.55.55 0 0 1 .76-.172ZM.576 5.24a.55.55 0 0 1 .528.571 4.86 4.86 0 0 0 0 .377.55.55 0 1 1-1.1.042 5.958 5.958 0 0 1 0-.462.55.55 0 0 1 .572-.528Zm.347 2.814a.55.55 0 0 1 .743.231c.059.112.121.22.188.326a.55.55 0 0 1-.93.586 5.96 5.96 0 0 1-.232-.4.55.55 0 0 1 .231-.743Zm1.707 2.264a.55.55 0 0 1 .76-.172 4.6 4.6 0 0 0 .326.189.55.55 0 1 1-.514.973 5.953 5.953 0 0 1-.4-.232.55.55 0 0 1-.171-.758Zm6.741.001a.55.55 0 0 1-.172.758c-.13.082-.264.159-.4.23a.55.55 0 1 1-.513-.973c.112-.059.22-.121.327-.188a.55.55 0 0 1 .758.173Zm-4.129 1.105a.55.55 0 0 1 .57-.528c.127.005.253.005.377 0a.55.55 0 1 1 .042 1.1 5.977 5.977 0 0 1-.461 0 .55.55 0 0 1-.528-.572Z"/><path d="M6.449 6.894a1 1 0 1 1 .55-.953l2.09 1.208a.55.55 0 0 1-.55.952L6.45 6.894Z"/></g><defs><clipPath id="messagetimer-20__a"><path fill="#fff" d="M0 0h12v12H0z"/></clipPath></defs></svg>