<svg width="12" height="12" fill="none" xmlns="http://www.w3.org/2000/svg"><g clip-path="url(#messagetimer-50__a)" fill="#000"><path d="M5.45.55A.55.55 0 0 1 6 0 6 6 0 1 1 .803 3a.55.55 0 0 1 .953.55A4.9 4.9 0 1 0 6 1.1a.55.55 0 0 1-.55-.55Z"/><path d="M3.945.922a.55.55 0 0 1-.23.743 4.202 4.202 0 0 0-.327.188.55.55 0 0 1-.586-.931 5.96 5.96 0 0 1 .4-.231.55.55 0 0 1 .743.23ZM7 6a1 1 0 0 1-1.998.059L2.91 4.85a.55.55 0 0 1 .55-.952l2.092 1.207A1 1 0 0 1 7 6Z"/></g><defs><clipPath id="messagetimer-50__a"><path fill="#fff" d="M0 0h12v12H0z"/></clipPath></defs></svg>