<svg width="12" height="12" fill="none" xmlns="http://www.w3.org/2000/svg"><g clip-path="url(#messagetimer-10__a)" fill="#000"><path d="M5.45.55A.55.55 0 0 1 6 0c2.22 0 4.16 1.207 5.196 2.998a.55.55 0 0 1-.953.551A4.896 4.896 0 0 0 6 1.1a.55.55 0 0 1-.55-.55ZM3.945.922a.55.55 0 0 1-.23.742c-.112.06-.22.122-.326.188a.55.55 0 1 1-.586-.93c.13-.082.263-.16.4-.231a.55.55 0 0 1 .742.23ZM1.682 2.63a.55.55 0 0 1 .172.758c-.068.107-.13.215-.189.326A.55.55 0 0 1 .692 3.2a6.47 6.47 0 0 1 .232-.4.55.55 0 0 1 .758-.17ZM.576 5.24a.55.55 0 0 1 .528.57 4.858 4.858 0 0 0 0 .377.55.55 0 1 1-1.1.042 5.958 5.958 0 0 1 0-.462.55.55 0 0 1 .572-.528Zm10.849 0a.55.55 0 0 1 .57.528c.007.153.007.307 0 .462a.55.55 0 0 1-1.099-.043 4.874 4.874 0 0 0 0-.377.55.55 0 0 1 .53-.57ZM.923 8.053a.55.55 0 0 1 .743.231c.059.112.121.22.188.326a.55.55 0 1 1-.931.586 5.958 5.958 0 0 1-.23-.4.55.55 0 0 1 .23-.743Zm10.155.001a.55.55 0 0 1 .23.743 5.952 5.952 0 0 1-.231.4.55.55 0 1 1-.93-.588 4.8 4.8 0 0 0 .188-.325.55.55 0 0 1 .743-.23ZM2.63 10.316a.55.55 0 0 1 .76-.171 4.8 4.8 0 0 0 .325.188.55.55 0 1 1-.513.973 5.95 5.95 0 0 1-.4-.23.55.55 0 0 1-.171-.76Zm6.74.001a.55.55 0 0 1-.172.759c-.13.081-.264.158-.4.23a.55.55 0 0 1-.513-.973 4.86 4.86 0 0 0 .327-.188.55.55 0 0 1 .758.172Zm-4.13 1.106a.55.55 0 0 1 .572-.528c.126.005.252.005.377 0a.55.55 0 1 1 .042 1.1 5.925 5.925 0 0 1-.462-.001.55.55 0 0 1-.528-.571Zm1.758-5.364a1 1 0 1 1-.55-.953L8.54 3.899a.55.55 0 1 1 .55.952L6.998 6.06Z"/></g><defs><clipPath id="messagetimer-10__a"><path fill="#fff" d="M0 0h12v12H0z"/></clipPath></defs></svg>