<svg width="12" height="12" fill="none" xmlns="http://www.w3.org/2000/svg"><g clip-path="url(#messagetimer-35__a)" fill="#000"><path d="M5.45.55A.55.55 0 0 1 6 0a6 6 0 1 1-3 11.195.55.55 0 1 1 .551-.952A4.9 4.9 0 1 0 6.001 1.1a.55.55 0 0 1-.55-.55ZM3.946.922a.55.55 0 0 1-.23.743 4.86 4.86 0 0 0-.327.188.55.55 0 0 1-.586-.931 5.85 5.85 0 0 1 .4-.231.55.55 0 0 1 .743.23ZM1.682 2.63a.55.55 0 0 1 .172.758 5.62 5.62 0 0 0-.189.326.55.55 0 0 1-.972-.513c.071-.136.148-.27.23-.4a.55.55 0 0 1 .76-.172ZM.576 5.24a.55.55 0 0 1 .528.571 4.86 4.86 0 0 0 0 .377.55.55 0 1 1-1.1.042 5.958 5.958 0 0 1 0-.462.55.55 0 0 1 .572-.528Zm.347 2.814a.55.55 0 0 1 .743.231c.059.112.121.22.188.326a.55.55 0 1 1-.93.586 5.958 5.958 0 0 1-.232-.4.55.55 0 0 1 .231-.743Z"/><path d="M6.059 6.998a1 1 0 1 0-.953-.55L3.9 8.54a.55.55 0 0 0 .952.55L6.06 6.998Z"/></g><defs><clipPath id="messagetimer-35__a"><path fill="#fff" d="M0 0h12v12H0z"/></clipPath></defs></svg>