<svg width="12" height="12" fill="none" xmlns="http://www.w3.org/2000/svg"><g clip-path="url(#messagetimer-40__a)" fill="#000"><path d="M5.45.55A.55.55 0 0 1 6 0 6 6 0 1 1 .806 9a.55.55 0 1 1 .952-.551A4.9 4.9 0 1 0 6 1.1a.55.55 0 0 1-.55-.55ZM3.946.922a.55.55 0 0 1-.23.743 4.86 4.86 0 0 0-.327.188.55.55 0 0 1-.586-.931 5.85 5.85 0 0 1 .4-.231.55.55 0 0 1 .743.23ZM1.682 2.63a.55.55 0 0 1 .172.758 5.62 5.62 0 0 0-.189.326.55.55 0 0 1-.972-.513 5.96 5.96 0 0 1 .23-.4.55.55 0 0 1 .76-.172ZM.576 5.24a.55.55 0 0 1 .528.571 4.86 4.86 0 0 0 0 .377.55.55 0 1 1-1.1.042 5.959 5.959 0 0 1 0-.462.55.55 0 0 1 .572-.528Z"/><path d="M7 6a1 1 0 0 1-1.448.894L3.46 8.101a.55.55 0 1 1-.55-.952L5.002 5.94A1 1 0 0 1 7 6Z"/></g><defs><clipPath id="messagetimer-40__a"><path fill="#fff" d="M0 0h12v12H0z"/></clipPath></defs></svg>