<svg width="20" height="20" fill="none" xmlns="http://www.w3.org/2000/svg"><path d="M13.125 5.625a1.25 1.25 0 1 1 0 2.5 1.25 1.25 0 0 1 0-2.5Z" fill="#000"/><path fill-rule="evenodd" clip-rule="evenodd" d="M12.994 1.98c.475 0 .832-.005 1.175.077.287.069.561.183.813.337.3.184.55.44.885.775l.964.964c.336.336.59.584.775.885.154.252.268.526.337.813.082.343.078.7.078 1.175v1.613c0 .475.004.832-.078 1.175a2.813 2.813 0 0 1-.337.813c-.184.3-.44.55-.775.885l-5.154 5.153c-.486.487-.882.883-1.229 1.178-.353.3-.704.537-1.117.671a3.23 3.23 0 0 1-1.995 0c-.414-.134-.764-.371-1.118-.671-.347-.295-.742-.691-1.229-1.178l-1.635-1.634c-.486-.487-.882-.882-1.177-1.23-.3-.353-.537-.703-.671-1.117a3.23 3.23 0 0 1 0-1.995c.134-.413.371-.764.671-1.117.295-.347.691-.743 1.177-1.23L8.508 3.17c.336-.336.584-.59.885-.775.252-.154.526-.268.813-.337.343-.082.7-.078 1.175-.078h1.613Zm-1.613 1.458c-.545 0-.698.004-.834.037-.138.033-.27.088-.392.162-.12.073-.23.179-.616.563L4.386 9.354c-.504.503-.85.85-1.097 1.141-.241.285-.345.467-.396.624a1.772 1.772 0 0 0 0 1.095c.051.157.155.34.396.624.247.291.593.638 1.097 1.142l1.634 1.634c.504.504.851.85 1.142 1.097.284.241.467.345.624.396a1.77 1.77 0 0 0 1.095 0c.157-.051.34-.155.624-.396.29-.247.638-.593 1.141-1.097l5.153-5.153c.385-.385.49-.497.564-.616.074-.122.129-.254.162-.392.033-.136.037-.29.037-.834V7.006c0-.544-.004-.698-.037-.834a1.356 1.356 0 0 0-.162-.392c-.073-.12-.179-.23-.563-.616l-.965-.964c-.384-.384-.496-.49-.616-.563a1.355 1.355 0 0 0-.39-.162c-.137-.033-.29-.037-.835-.037h-1.613Z" fill="#000"/></svg>