<svg xmlns="http://www.w3.org/2000/svg" width="40" height="40" viewBox="0 0 33 40" fill="none"><path fill="#000" stroke="#000" stroke-width=".3" d="m27.347 20.56-6.521-4.026h4.42c1.849 0 3.622-.818 4.929-2.275 1.307-1.457 2.041-3.432 2.041-5.492s-.734-4.036-2.041-5.492C28.867 1.818 27.095 1 25.246 1H9.813c-2.315.003-4.534 1.03-6.171 2.853-1.637 1.824-2.558 4.297-2.56 6.877 0 1.88.453 3.726 1.31 5.345.857 1.62 2.087 2.954 3.563 3.865l6.522 4.027H8.051a6.346 6.346 0 0 0-2.692.565 6.956 6.956 0 0 0-2.289 1.677 7.869 7.869 0 0 0-1.532 2.53A8.542 8.542 0 0 0 1 31.734c0 1.028.183 2.045.538 2.993a7.87 7.87 0 0 0 1.532 2.531 6.957 6.957 0 0 0 2.29 1.677c.854.385 1.77.577 2.691.566h15.433c2.315-.003 4.535-1.03 6.172-2.853 1.637-1.825 2.558-4.298 2.56-6.877 0-1.88-.452-3.725-1.308-5.345-.856-1.62-2.086-2.954-3.56-3.865Zm-20.35-2.725c-1.113-.688-2.044-1.687-2.703-2.9a8.822 8.822 0 0 1-1.05-4.014C3.156 6.79 6.27 3.406 9.979 3.406h15.128c2.587 0 4.816 2.207 4.944 5.09a5.927 5.927 0 0 1-.295 2.133 5.493 5.493 0 0 1-1.025 1.83c-.45.526-.99.945-1.59 1.232a4.395 4.395 0 0 1-1.895.435h-8.712a.918.918 0 0 0-.68.318c-.18.202-.28.475-.28.76v7.923l-8.577-5.292Zm16.321 19.258H8.191c-2.587 0-4.816-2.207-4.944-5.09a5.928 5.928 0 0 1 .295-2.131 5.491 5.491 0 0 1 1.025-1.83c.45-.527.99-.946 1.588-1.233a4.395 4.395 0 0 1 1.896-.436h8.713a.88.88 0 0 0 .37-.082.966.966 0 0 0 .313-.233c.09-.1.16-.219.209-.35.048-.13.073-.27.073-.411v-7.925l8.571 5.293c1.114.687 2.046 1.688 2.705 2.902a8.82 8.82 0 0 1 1.05 4.017c.087 4.126-3.027 7.509-6.737 7.509Z"/></svg>