<svg xmlns="http://www.w3.org/2000/svg" width="56" height="56" viewBox="0 0 46 56" fill="none"><path fill="#000" fill-rule="evenodd" d="M21.013.459A4.578 4.578 0 0 1 22.989 0l.01.02c.655 0 1.302.146 1.948.449.788.38 1.596.742 2.404 1.103l.93.42 4.381 2.012c1.425.65 2.85 1.303 4.276 1.955l.003.002c2.062.943 4.126 1.888 6.192 2.829 1.948.888 3.012 2.695 2.85 4.795-.011.114-.008.268-.004.443.003.095.005.196.005.3.01.243.01.497.01.79a378.737 378.737 0 0 0 0 8.048v.049l-.01.048V24.206c-.01.942-.02 1.894-.048 2.817-.047 2.452-.503 4.776-.902 6.524l-.029.117-.038.118c-.342 1.191-.731 2.46-1.235 3.77-.675 1.718-1.558 3.486-2.708 5.41l-.048.078-.057.078c-1.358 2.051-2.622 3.653-3.971 5.05a29.438 29.438 0 0 1-7.44 5.596c-.043.024-.088.05-.133.078l-.133.078-.143.078-.143.068c-1.33.606-2.917 1.28-4.655 1.758l-.038.02h-.039a5.066 5.066 0 0 1-2.527-.01 26.956 26.956 0 0 1-4.912-1.885l-.029-.03h-.029c-4.665-2.402-8.542-5.957-11.525-10.557l-.133-.156-.143-.244c-1.036-1.748-1.815-3.272-2.451-4.786-.522-1.253-.906-2.478-1.279-3.666l-.023-.074-.143-.45-.066-.224-.048-.224-.085-.435-.086-.435-.021-.107c-.193-.963-.392-1.953-.51-2.998C0 27.848.002 26.218.003 24.656V14.24l.002-.382c.002-.237.004-.459-.002-.664-.076-1.894.893-3.496 2.651-4.326l5.611-2.564 5.611-2.564 3.392-1.552.143-.069.237-.117.076-.039.44-.201c.267-.123.536-.246.805-.365.199-.091.397-.181.596-.27v-.001c.485-.22.968-.438 1.447-.667Zm4.854 25.24 4.432 2.492a6.468 6.468 0 0 1 2.42 2.393 6.592 6.592 0 0 1 .89 3.307 6.073 6.073 0 0 1-1.74 4.256 5.898 5.898 0 0 1-4.195 1.766h-10.49a4.676 4.676 0 0 1-1.829-.35 4.731 4.731 0 0 1-1.555-1.038c-.446-.447-.8-.98-1.042-1.566a4.869 4.869 0 0 1 0-3.705 4.811 4.811 0 0 1 1.042-1.566c.445-.447.974-.8 1.555-1.038a4.676 4.676 0 0 1 1.83-.35h3.008l-4.433-2.492a6.47 6.47 0 0 1-2.422-2.392 6.593 6.593 0 0 1-.89-3.308 6.074 6.074 0 0 1 1.74-4.256 5.898 5.898 0 0 1 4.194-1.766h10.49c1.256 0 2.46.507 3.349 1.408a4.843 4.843 0 0 1 1.388 3.4c0 1.274-.5 2.497-1.388 3.398a4.703 4.703 0 0 1-3.35 1.408h-3.004Zm-11.236-.989a4.99 4.99 0 0 0 1.837 1.795l5.83 3.275v-4.903a.67.67 0 0 1 .19-.47.65.65 0 0 1 .462-.197h5.921c.443 0 .882-.092 1.289-.27a3.27 3.27 0 0 0 1.08-.762 3.368 3.368 0 0 0 .897-2.452c-.087-1.785-1.602-3.15-3.36-3.15H18.494c-2.52 0-4.637 2.093-4.578 4.65.02.877.267 1.734.715 2.484Zm2.649 13.714H27.56c2.522 0 4.638-2.094 4.578-4.648a5.083 5.083 0 0 0-.713-2.486 4.988 4.988 0 0 0-1.838-1.796l-5.826-3.275v4.904a.673.673 0 0 1-.192.471.655.655 0 0 1-.463.195h-5.922c-.443 0-.881.093-1.288.27a3.273 3.273 0 0 0-1.08.763 3.364 3.364 0 0 0-.897 2.452c.087 1.784 1.602 3.15 3.36 3.15Z" clip-rule="evenodd"/></svg>