<svg width="20" height="20" fill="none" xmlns="http://www.w3.org/2000/svg"><path d="M10 5.938a4.063 4.063 0 1 0 0 8.125 4.063 4.063 0 0 0 0-8.126ZM7.396 10a2.604 2.604 0 1 1 5.208 0 2.604 2.604 0 0 1-5.208 0Z" fill="#000"/><path d="M.98 9.01a1.98 1.98 0 0 0 0 1.98l3.653 6.327a1.98 1.98 0 0 0 1.714.99h7.306c.707 0 1.36-.377 1.714-.99l3.653-6.327a1.979 1.979 0 0 0 0-1.98l-3.653-6.327a1.98 1.98 0 0 0-1.714-.99H6.347a1.98 1.98 0 0 0-1.714.99L.979 9.01Zm1.262 1.25a.52.52 0 0 1 0-.52l3.654-6.328a.52.52 0 0 1 .45-.26h7.307a.52.52 0 0 1 .451.26l3.654 6.328a.521.521 0 0 1 0 .52l-3.654 6.328a.52.52 0 0 1-.45.26H6.346a.52.52 0 0 1-.451-.26L2.242 10.26Z" fill="#000"/></svg>