<svg width="20" height="20" fill="none" xmlns="http://www.w3.org/2000/svg"><g clip-path="url(#plus-circle__a)" fill="#000"><path d="M10 5.104a.73.73 0 0 1 .73.73V9.27h3.437a.73.73 0 0 1 0 1.458h-3.438v3.438a.73.73 0 0 1-1.458 0v-3.438H5.833a.73.73 0 0 1 0-1.458h3.438V5.833A.73.73 0 0 1 10 5.104Z"/><path d="M.938 10a9.063 9.063 0 1 1 18.125 0A9.063 9.063 0 0 1 .938 10ZM10 2.396a7.604 7.604 0 1 0 0 15.208 7.604 7.604 0 0 0 0-15.208Z"/></g><defs><clipPath id="plus-circle__a"><path fill="#fff" d="M0 0h20v20H0z"/></clipPath></defs></svg>