<svg width="16" height="16" fill="none" xmlns="http://www.w3.org/2000/svg"><path d="M4.95 7.5V7l3.514 3.515A3.05 3.05 0 0 1 4.95 7.5Z" fill="#000"/><path d="M8 11.95c.565 0 1.105-.105 1.602-.297l.835.835a5.51 5.51 0 0 1-1.887.535V14.2h2.2a.55.55 0 0 1 0 1.1h-5.5a.55.55 0 1 1 0-1.1h2.2v-1.177a5.55 5.55 0 0 1-5-5.523v-.75a.55.55 0 0 1 1.1 0v.75A4.45 4.45 0 0 0 8 11.95Zm3.825-2.175.798.797c.586-.88.927-1.936.927-3.072v-.75a.55.55 0 1 0-1.1 0v.75a4.43 4.43 0 0 1-.625 2.275ZM5.044 2.994l5.744 5.744A3.04 3.04 0 0 0 11.05 7.5V3.75a3.05 3.05 0 0 0-6.006-.756ZM2.389 1.611a.55.55 0 0 0-.778.778l12 12a.55.55 0 0 0 .778-.778l-12-12Z" fill="#000"/></svg>