<svg width="16" height="16" fill="none" xmlns="http://www.w3.org/2000/svg"><path d="M8 .45a3.301 3.301 0 0 0-3.16 2.34l.959.96a2.2 2.2 0 0 1 4.4 0v3.5c0 .268-.048.526-.136.763l.828.828c.26-.472.408-1.014.408-1.591v-3.5A3.3 3.3 0 0 0 8 .45Zm-3.3 6.8v-.5l1.22 1.223c.22.634.723 1.137 1.357 1.357l1.189 1.188A3.3 3.3 0 0 1 4.7 7.25Z" fill="#000"/><path d="M8.425 11.947a4.45 4.45 0 0 0 1.243-.228l.849.848a5.53 5.53 0 0 1-1.967.475V14.2h2.2a.55.55 0 0 1 0 1.1h-5.5a.55.55 0 1 1 0-1.1h2.2v-1.158a5.55 5.55 0 0 1-5.246-5.324c-.004-.11-.004-.235-.004-.452V6.75a.55.55 0 0 1 1.1 0v.5c0 .237 0 .34.003.425a4.45 4.45 0 0 0 4.272 4.272c.085.003.188.003.425.003s.34 0 .425-.003Zm5.371-4.229a5.53 5.53 0 0 1-1.025 3.002l-.792-.791a4.432 4.432 0 0 0 .718-2.254c.003-.085.003-.188.003-.425v-.5a.55.55 0 1 1 1.1 0v.516c0 .217 0 .343-.004.452ZM2.389 1.611a.55.55 0 0 0-.778.778l12 12a.55.55 0 0 0 .778-.778l-12-12Z" fill="#000"/></svg>