<svg width="20" height="20" fill="none" xmlns="http://www.w3.org/2000/svg"><path d="M6.354 10V8.711l4.761 4.761A3.646 3.646 0 0 1 6.355 10Z" fill="#000"/><path d="M10 15.208c.83 0 1.615-.194 2.312-.54l.922.923a6.417 6.417 0 0 1-2.609.838v1.28h2.708a.625.625 0 1 1 0 1.25H6.667a.625.625 0 0 1 0-1.25h2.708v-1.28A6.46 6.46 0 0 1 3.542 10V8.75a.625.625 0 1 1 1.25 0V10A5.208 5.208 0 0 0 10 15.208Zm4.669-2.896.922.922A6.428 6.428 0 0 0 16.458 10V8.75a.625.625 0 1 0-1.25 0V10c0 .83-.194 1.615-.54 2.312ZM6.464 4.107l7.008 7.008c.113-.351.174-.726.174-1.115V5a3.646 3.646 0 0 0-7.182-.893ZM3.359 2.475a.625.625 0 1 0-.884.884l14.167 14.166a.625.625 0 1 0 .883-.884L3.36 2.475Z" fill="#000"/></svg>