<svg width="20" height="20" fill="none" xmlns="http://www.w3.org/2000/svg"><path d="M10 .938A4.062 4.062 0 0 0 5.937 5v4.583a4.062 4.062 0 1 0 8.125 0V5A4.062 4.062 0 0 0 10 .937ZM7.396 5a2.604 2.604 0 0 1 5.208 0v4.583a2.604 2.604 0 1 1-5.208 0V5Z" fill="#000"/><path d="M6.458 17.604a.73.73 0 1 0 0 1.459h7.084a.73.73 0 0 0 0-1.459h-2.813v-1.08a6.98 6.98 0 0 0 6.25-6.94V8.75a.73.73 0 0 0-1.458 0v.833a5.52 5.52 0 0 1-11.042 0V8.75a.73.73 0 1 0-1.458 0v.833a6.98 6.98 0 0 0 6.25 6.942v1.08H6.458Z" fill="#000"/></svg>