<svg width="20" height="20" fill="none" xmlns="http://www.w3.org/2000/svg"><path d="M16.363 2.273a.833.833 0 0 1 .114 1.173L4.81 17.613a.833.833 0 0 1-1.287-1.06L15.19 2.388a.833.833 0 0 1 1.173-.114Zm-5.147 0a.833.833 0 0 1 .114 1.173l-6.52 7.917a.833.833 0 0 1-1.287-1.06l6.52-7.916a.833.833 0 0 1 1.173-.114Zm5.261 7.423a.833.833 0 0 0-1.287-1.059l-6.52 7.917a.833.833 0 0 0 1.287 1.06l6.52-7.918ZM6.069 2.273a.833.833 0 0 1 .113 1.173L4.81 5.113a.833.833 0 1 1-1.287-1.06l1.373-1.666a.833.833 0 0 1 1.173-.114Zm10.408 13.674a.833.833 0 1 0-1.287-1.06l-1.373 1.667a.833.833 0 0 0 1.287 1.06l1.373-1.668Z" fill="#000"/></svg>