<svg width="20" height="20" fill="none" xmlns="http://www.w3.org/2000/svg"><path fill-rule="evenodd" clip-rule="evenodd" d="M5.937 2.5c-.747 0-1.354.606-1.354 1.354v12.292c0 .748.607 1.354 1.354 1.354h5.078c1.262 0 2.52-.324 3.478-1.043.974-.732 1.6-1.85 1.6-3.336 0-1.08-.399-1.978-1.086-2.603-.52-.472-1.18-.768-1.911-.882.603-.196 1.145-.5 1.571-.917.573-.562.914-1.31.914-2.209 0-1.45-.633-2.483-1.6-3.133-.94-.631-2.158-.877-3.337-.877H5.937Zm1.875 6.164V5.19h2.384c.678 0 1.219.184 1.578.472.349.279.559.679.559 1.207 0 .614-.218 1.038-.562 1.32-.357.292-.91.475-1.645.475H7.812Zm0 6.155v-3.696h2.613c.804 0 1.398.191 1.782.508.368.303.606.774.606 1.488 0 .624-.233 1.012-.608 1.267-.407.277-1.036.433-1.866.433H7.812Z" fill="#000"/></svg>