<svg width="20" height="20" fill="none" xmlns="http://www.w3.org/2000/svg"><path d="M6.35 3.406c.92-.732 2.186-1.114 3.65-1.114 2.6 0 4.57 1.228 4.961 3.103a.932.932 0 0 1-.914 1.121.94.94 0 0 1-.921-.759c-.16-.81-1.257-1.799-3.126-1.799-1.074 0-1.86.306-2.364.73-.496.418-.76.985-.76 1.635 0 .575.172 1.006.584 1.385H5.101a3.851 3.851 0 0 1-.205-1.279c0-1.214.521-2.28 1.455-3.023Zm6.722 8.886h2.225c.078.294.12.613.12.959 0 1.635-.767 2.796-1.877 3.512-1.069.688-2.416.945-3.646.945-1.355 0-2.513-.274-3.42-.835a4.107 4.107 0 0 1-1.825-2.415.932.932 0 0 1 .897-1.188c.435 0 .794.296.903.689.326 1.185 1.586 2.083 3.444 2.083.988 0 1.9-.281 2.543-.757.625-.462 1.002-1.104 1.002-1.928 0-.383-.091-.66-.23-.88a1.543 1.543 0 0 0-.136-.185Zm3.178-1.459a.833.833 0 0 0 0-1.666H3.75a.833.833 0 1 0 0 1.666h12.5Z" fill="#000"/></svg>