<svg width="20" height="20" fill="none" xmlns="http://www.w3.org/2000/svg"><path d="M16.297 2.354a.73.73 0 0 1 .1 1.026L4.73 17.547a.73.73 0 1 1-1.126-.927L15.27 2.453a.73.73 0 0 1 1.027-.1Zm-5.147 0a.73.73 0 0 1 .1 1.026l-6.52 7.917a.73.73 0 1 1-1.126-.927l6.52-7.917a.73.73 0 0 1 1.026-.1Zm5.246 7.276a.73.73 0 1 0-1.126-.927L8.75 16.62a.73.73 0 0 0 1.127.927l6.52-7.917ZM6.003 2.354a.73.73 0 0 1 .1 1.026L4.73 5.047a.73.73 0 0 1-1.126-.927l1.372-1.667a.73.73 0 0 1 1.027-.1ZM16.396 15.88a.73.73 0 0 0-1.126-.927l-1.372 1.667a.73.73 0 0 0 1.126.927l1.372-1.667Z" fill="#000"/></svg>