<svg width="20" height="20" fill="none" xmlns="http://www.w3.org/2000/svg"><path d="M6.416 3.487C7.312 2.774 8.553 2.396 10 2.396c2.573 0 4.482 1.213 4.86 3.02a.828.828 0 0 1-.813.996.836.836 0 0 1-.82-.675c-.172-.878-1.33-1.883-3.227-1.883-1.093 0-1.906.312-2.431.755a2.187 2.187 0 0 0-.798 1.714c0 .61.188 1.072.634 1.476.083.075.176.15.28.222H5.344A3.595 3.595 0 0 1 5 6.429c0-1.182.507-2.218 1.416-2.942Zm6.483 8.493h2.187c.146.374.226.796.226 1.271 0 1.597-.746 2.726-1.83 3.424-1.045.674-2.37.93-3.589.93-1.34 0-2.478-.273-3.365-.82A4.003 4.003 0 0 1 4.75 14.43a.828.828 0 0 1 .797-1.055c.387 0 .706.262.802.611.343 1.245 1.657 2.16 3.545 2.16 1.006 0 1.94-.286 2.605-.777.648-.479 1.044-1.15 1.044-2.011 0-.402-.096-.699-.245-.937a1.857 1.857 0 0 0-.398-.442Zm3.351-1.25a.73.73 0 0 0 0-1.46H3.75a.73.73 0 1 0 0 1.46h12.5Z" fill="#000"/></svg>