<?xml version="1.0" encoding="UTF-8"?>
<svg width="35px" height="30px" viewBox="0 0 35 30" version="1.1" xmlns="http://www.w3.org/2000/svg" xmlns:xlink="http://www.w3.org/1999/xlink">
    <!-- Generator: Sketch 57.1 (83088) - https://sketch.com -->
    <title>1A</title>
    <desc>Created with Sketch.</desc>
    <g id="Symbols" stroke="none" stroke-width="1" fill="none" fill-rule="evenodd">
        <g id="1A" transform="translate(0.000000, 1.000000)" fill="#FFFFFF" stroke="#FFFFFF" stroke-width="0.5">
            <path d="M33.187,12.438 L6.097,12.438 L16.113,2.608 C16.704,2.027 16.713,1.078 16.133,0.486 C15.551,-0.105 14.602,-0.113 14.011,0.466 L1.407,12.836 C1.121,13.117 0.959,13.5 0.957981241,13.9 C0.956,14.3 1.114,14.685 1.397,14.968 L14.022,27.593 C14.315,27.886 14.699,28.032 15.083,28.032 C15.466,28.032 15.85,27.886 16.143,27.593 C16.729,27.007 16.729,26.057 16.143,25.472 L6.109,15.438 L33.187,15.438 C34.015,15.438 34.687,14.766 34.687,13.938 C34.687,13.109 34.015,12.438 33.187,12.438"></path>
        </g>
    </g>
</svg>