<?xml version="1.0" encoding="UTF-8" standalone="no"?>
<svg xmlns="http://www.w3.org/2000/svg" viewBox="0 0 404.085 448.407"><defs><clipPath id="a" clipPathUnits="userSpaceOnUse"><path d="M0 336.305h303.064V0H0z"/></clipPath></defs><g clip-path="url(#a)" transform="matrix(1.33333 0 0 -1.33333 0 448.407)"><path d="M216.456 21.023H69.205c-25.182 0-46.881 19.31-48.123 44.46-1.328 26.886 20.162 49.183 46.765 49.183h84.804a9.394 9.394 0 019.395 9.394v69.229l83.435-46.234c22.062-12.225 35.95-35.251 36.54-60.386.85-36.095-29.461-65.646-65.565-65.646M57.584 189.25c-22.062 12.225-35.95 35.25-36.541 60.386-.85 36.095 29.462 65.646 65.565 65.646h147.25c25.183 0 46.882-19.311 48.125-44.462 1.328-26.884-20.162-49.181-46.764-49.181l-84.808-.014c-5.186-.001-9.374-4.206-9.376-9.392l-.016-69.217zm198.085-23.807l-63.478 35.173h43.028c37.408 0 67.845 30.434 67.845 67.843 0 37.408-30.437 67.846-67.845 67.846H84.995C38.13 336.305 0 298.174 0 251.31c0-33.425 18.162-64.248 47.396-80.45l63.477-35.171H67.847C30.437 135.689 0 105.254 0 67.846S30.437 0 67.847 0h150.222c46.866 0 84.995 38.13 84.995 84.995 0 33.425-18.162 64.248-47.395 80.448" fill="#fff"/></g></svg>