<?xml version="1.0" encoding="UTF-8"?>
<svg width="129px" height="89px" viewBox="0 0 129 89" version="1.1" xmlns="http://www.w3.org/2000/svg" xmlns:xlink="http://www.w3.org/1999/xlink">
    <!-- Generator: Sketch 62 (91390) - https://sketch.com -->
    <title>Combined Shape</title>
    <desc>Created with Sketch.</desc>
    <g id="Desktop-(Dark)" stroke="none" stroke-width="1" fill="none" fill-rule="evenodd">
        <g id="OnboardingOpenGroupJoin" transform="translate(-168.000000, -235.000000)">
            <g id="Combined-Shape" transform="translate(170.000000, 236.000000)">
                <path d="M82.281886,20 C106.03013,20 125.281886,34.7746033 125.281886,53 C125.281886,59.5808228 122.771868,65.7117359 118.446468,70.8596473 C118.386871,73.4480518 120.309061,77.1248835 124.21251,81.8902344 C120.039982,81.5926483 116.036545,81.0288787 112.202199,80.1989258 C110.522391,79.8353273 109.249113,79.5109067 108.382366,79.2256639 C101.146682,83.4755303 92.0984313,86 82.281886,86 C58.5336418,86 39.281886,71.2253967 39.281886,53 C39.281886,34.7746033 58.5336418,20 82.281886,20 Z" stroke="#02D370" stroke-width="3" stroke-linejoin="round"></path>
                <path d="M31.281886,1.13686838e-13 C48.4027133,1.13686838e-13 62.281886,10.9690236 62.281886,24.5 C62.281886,38.0309764 48.4027133,49 31.281886,49 C24.1228438,49 17.530598,47.0820895 12.2828822,43.860929 C11.6699441,44.0982914 10.6509168,44.3755915 9.22632153,44.6931419 C6.46202578,45.3093191 3.57582702,45.7278752 0.567725244,45.9488104 C3.76733392,41.9262539 5.12046225,38.9484139 4.62711023,37.0152905 C1.86698023,33.3528537 0.281886022,29.0727229 0.281886022,24.5 C0.281886022,10.9690236 14.1610588,1.13686838e-13 31.281886,1.13686838e-13 Z" stroke="#161616" stroke-width="2" fill="#FFFFFF" fill-rule="evenodd"></path>
                <circle id="Oval" fill="#02D370" fill-rule="evenodd" cx="62" cy="53" r="4"></circle>
                <circle id="Oval" fill="#02D370" fill-rule="evenodd" cx="82" cy="53" r="4"></circle>
                <ellipse id="Oval" fill="#02D370" fill-rule="evenodd" cx="101.5" cy="53" rx="3.5" ry="4"></ellipse>
            </g>
        </g>
    </g>
</svg>