<?xml version="1.0" encoding="UTF-8"?>
<svg width="27px" height="27px" viewBox="0 0 27 27" version="1.1" xmlns="http://www.w3.org/2000/svg" xmlns:xlink="http://www.w3.org/1999/xlink">
    <!-- Generator: Sketch 57.1 (83088) - https://sketch.com -->
    <title>plus</title>
    <desc>Created with Sketch.</desc>
    <g id="Desktop" stroke="none" stroke-width="1" fill="none" fill-rule="evenodd">
        <g id="Groups_DeSelected" transform="translate(-398.000000, -683.000000)" fill="#FFFFFF" fill-rule="nonzero" stroke="#FFFFFF" stroke-width="0.5">
            <g id="BottomBar" transform="translate(382.000000, 479.000000)">
                <g id="Icons">
                    <g id="Inactive" transform="translate(17.000000, 203.000000)">
                        <path d="M21.3433293,23.3433293 C26.2188902,18.4677683 26.2188902,10.5322317 21.3433293,5.65667075 C16.4677683,0.781109751 8.53223174,0.781109751 3.65667075,5.65667075 C-1.21889025,10.5322317 -1.21889025,18.4677683 3.65667075,23.3433293 C8.53223174,28.2188902 16.4677683,28.2188902 21.3433293,23.3433293 Z M20.4610363,6.53896369 C24.8521012,10.9300286 24.8521012,18.0699714 20.4610363,22.4610363 C16.0699714,26.8521012 8.93002856,26.8521012 4.53896369,22.4610363 C0.147898817,18.0699714 0.152998776,10.9300286 4.53896369,6.53896369 C8.93002856,2.14789882 16.0699714,2.14789882 20.4610363,6.53896369 Z M12.5101999,9.81823745 C12.1634027,9.81823745 11.8829049,10.0987352 11.8880049,10.4404325 L11.8880049,13.872705 L8.45573235,13.872705 C8.10893513,13.872705 7.82843737,14.1532028 7.83353733,14.4949 C7.83353733,14.8416973 8.11403509,15.122195 8.45573235,15.1170951 L11.8880049,15.1170951 L11.8880049,18.5493676 C11.872705,18.9012648 12.1532028,19.1817625 12.5,19.1817625 C12.6733986,19.1817625 12.8263974,19.1103631 12.9436965,18.998164 C13.0558956,18.8859649 13.127295,18.7278662 13.127295,18.5544676 L13.127295,15.122195 L16.5595675,15.122195 C16.7329661,15.122195 16.8859649,15.0507956 17.003264,14.9385965 C17.1154631,14.8263974 17.1868625,14.6682987 17.1868625,14.4949 C17.1868625,14.1481028 16.9063647,13.8676051 16.5646675,13.872705 L13.1323949,13.872705 L13.1323949,10.4404325 C13.1323949,10.0936353 12.8518972,9.81313749 12.5101999,9.81823745 Z" id="plus"></path>
                    </g>
                </g>
            </g>
        </g>
    </g>
</svg>