<?xml version="1.0" encoding="UTF-8"?>
<svg width="25px" height="25px" viewBox="0 0 25 25" version="1.1" xmlns="http://www.w3.org/2000/svg" xmlns:xlink="http://www.w3.org/1999/xlink">
    <!-- Generator: Sketch 57.1 (83088) - https://sketch.com -->
    <title>Happy</title>
    <desc>Created with Sketch.</desc>
    <g id="Desktop" stroke="none" stroke-width="1" fill="none" fill-rule="evenodd">
        <g id="Groups_DeSelected" transform="translate(-1045.000000, -682.000000)" fill="#FFFFFF" fill-rule="nonzero">
            <g id="BottomBar" transform="translate(382.000000, 479.000000)">
                <g id="Icons">
                    <g id="Inactive" transform="translate(17.000000, 203.000000)">
                        <path d="M658.5,23 L658.5,23 C664.29899,23 669,18.2989899 669,12.5 C669,6.70101013 664.29899,2 658.5,2 C652.70101,2 648,6.70101013 648,12.5 C648,18.2989899 652.70101,23 658.5,23 L658.5,23 Z M658.5,0 C665.403559,0 671,5.59644063 671,12.5 C671,19.3005212 665.569371,24.8326509 658.808227,24.9962742 L658.5,25 C651.596441,25 646,19.4035594 646,12.5 C646,5.59644063 651.596441,0 658.5,0 Z M660.798501,17.7873294 C660.742971,17.8419887 660.574401,17.9669753 660.297777,18.1043071 C659.802509,18.3501864 659.201612,18.5 658.48738,18.5 C657.77446,18.5 657.180037,18.3508621 656.694112,18.1065603 C656.532157,18.0251362 656.396978,17.9401014 656.288844,17.8583962 C656.235083,17.8177752 656.208774,17.7945605 656.210408,17.7962096 C655.821715,17.4038623 655.188557,17.4008996 654.79621,17.7895923 C654.403862,18.1782849 654.4009,18.811443 654.789592,19.2037904 C654.985716,19.4017586 655.319663,19.6540855 655.795746,19.8934397 C656.552967,20.2741379 657.453192,20.5 658.48738,20.5 C659.520256,20.5 660.423471,20.2748136 661.187124,19.8956929 C661.665852,19.6580247 662.003047,19.4080113 662.201499,19.2126706 C662.595096,18.8252434 662.600098,18.1920982 662.212671,17.7985011 C661.825243,17.404904 661.192098,17.3999023 660.798501,17.7873294 Z M653,12 C652.171573,12 651.5,12.6715729 651.5,13.5 C651.5,14.3284271 652.171573,15 653,15 C653.828427,15 654.5,14.3284271 654.5,13.5 C654.5,12.6715729 653.828427,12 653,12 Z M664,12 C663.171573,12 662.5,12.6715729 662.5,13.5 C662.5,14.3284271 663.171573,15 664,15 C664.828427,15 665.5,14.3284271 665.5,13.5 C665.5,12.6715729 664.828427,12 664,12 Z" id="Happy"></path>
                    </g>
                </g>
            </g>
                 </g>
    </g>
</svg>