<?xml version="1.0" encoding="UTF-8"?>
<svg width="24px" height="18px" viewBox="0 0 24 18" version="1.1" xmlns="http://www.w3.org/2000/svg" xmlns:xlink="http://www.w3.org/1999/xlink">
    <!-- Generator: Sketch 57.1 (83088) - https://sketch.com -->
    <title>Combined Shape</title>
    <desc>Created with Sketch.</desc>
    <defs>
        <path d="M12,3 C15.3798024,3 18.3386923,4.63249094 20.8545372,7.31605887 C21.7188737,8.23801779 22.4694995,9.22244509 23.1056644,10.2074746 C23.4900327,10.8026256 23.7538591,11.2716502 23.8944272,11.5527864 C24.0351909,11.8343139 24.0351909,12.1656861 23.8944272,12.4472136 C23.7538591,12.7283498 23.4900327,13.1973744 23.1056644,13.7925254 C22.4694995,14.7775549 21.7188737,15.7619822 20.8545372,16.6839411 C18.3386923,19.3675091 15.3798024,21 12,21 C8.62019756,21 5.66130774,19.3675091 3.1454628,16.6839411 C2.28112631,15.7619822 1.5305005,14.7775549 0.894335622,13.7925254 C0.50996726,13.1973744 0.246140906,12.7283498 0.105572809,12.4472136 C-0.0351909363,12.1656861 -0.0351909363,11.8343139 0.105572809,11.5527864 C0.246140906,11.2716502 0.50996726,10.8026256 0.894335622,10.2074746 C1.5305005,9.22244509 2.28112631,8.23801779 3.1454628,7.31605887 C5.66130774,4.63249094 8.62019756,3 12,3 Z M12,5 C9.25480244,5 6.77619226,6.36750906 4.6045372,8.68394113 C3.82824869,9.51198221 3.149187,10.4025549 2.57441438,11.2925254 C2.41127724,11.5451249 2.26658862,11.7823697 2.14071218,12 C2.26658862,12.2176303 2.41127724,12.4548751 2.57441438,12.7074746 C3.149187,13.5974451 3.82824869,14.4880178 4.6045372,15.3160589 C6.77619226,17.6324909 9.25480244,19 12,19 C14.7451976,19 17.2238077,17.6324909 19.3954628,15.3160589 C20.1717513,14.4880178 20.850813,13.5974451 21.4255856,12.7074746 C21.5887228,12.4548751 21.7334114,12.2176303 21.8592878,12 C21.7334114,11.7823697 21.5887228,11.5451249 21.4255856,11.2925254 C20.850813,10.4025549 20.1717513,9.51198221 19.3954628,8.68394113 C17.2238077,6.36750906 14.7451976,5 12,5 Z M12,8 C14.209139,8 16,9.790861 16,12 C16,14.209139 14.209139,16 12,16 C9.790861,16 8,14.209139 8,12 C8,9.790861 9.790861,8 12,8 Z M12,10 C10.8954305,10 10,10.8954305 10,12 C10,13.1045695 10.8954305,14 12,14 C13.1045695,14 14,13.1045695 14,12 C14,10.8954305 13.1045695,10 12,10 Z" id="path-1"></path>
    </defs>
    <g id="Symbols" stroke="none" stroke-width="1" fill="none" fill-rule="evenodd">
        <g id="eye" transform="translate(0.000000, -3.000000)">
            <mask id="mask-2" fill="white">
                <use xlink:href="#path-1"></use>
            </mask>
            <use id="Combined-Shape" fill="#000000" fill-rule="nonzero" xlink:href="#path-1"></use>
        </g>
    </g>
</svg>