<?xml version="1.0" encoding="UTF-8"?>
<svg width="18px" height="22px" viewBox="0 0 18 22" version="1.1" xmlns="http://www.w3.org/2000/svg" xmlns:xlink="http://www.w3.org/1999/xlink">
    <!-- Generator: Sketch 57.1 (83088) - https://sketch.com -->
    <title>Combined Shape</title>
    <desc>Created with Sketch.</desc>
    <defs>
        <path d="M13,1 C13.0425909,1 13.0845598,1.00266262 13.1257495,1.00783047 L13,1 C13.0528361,1 13.1052411,1.00418141 13.1567725,1.01236099 C13.1883933,1.0172036 13.2193064,1.02361582 13.249662,1.03141743 C13.2598053,1.0342797 13.2698902,1.03704988 13.2799252,1.0399762 C13.3109399,1.04873224 13.3413507,1.05922617 13.3710585,1.07110396 C13.3800191,1.07496957 13.3890567,1.0787342 13.3980377,1.08263089 C13.4262995,1.09463815 13.4536613,1.10806791 13.4802859,1.12267436 C13.4906553,1.12855823 13.5012587,1.13461331 13.5117542,1.14086468 C13.5399066,1.15749759 13.5670269,1.17554946 13.5931738,1.19484452 C13.5995817,1.19963491 13.6064603,1.20483437 13.6132762,1.21012666 C13.6177282,1.21353888 13.6216003,1.21659988 13.625449,1.21968877 L13.7071068,1.29289322 L13.7071068,1.29289322 L20.7071068,8.29289322 C20.7364445,8.32223095 20.7639678,8.3533831 20.7894939,8.38616693 L20.7071068,8.29289322 C20.7429509,8.32873733 20.7757929,8.36702236 20.8054709,8.40735764 C20.8244505,8.43297305 20.8425024,8.46009338 20.8592238,8.48809993 C20.8653867,8.49874131 20.8714418,8.50934473 20.8772982,8.52005033 C20.8919321,8.54633874 20.9053618,8.57370048 20.9175449,8.60172936 C20.9212658,8.61094326 20.9250304,8.61998091 20.9286618,8.62907226 C20.9407738,8.65864932 20.9512678,8.68906007 20.9602981,8.72009403 C20.9629501,8.73010978 20.9657203,8.7401947 20.9683328,8.75032594 C20.9763842,8.78069364 20.9827964,8.81160666 20.9877474,8.84300527 C20.9892866,8.85360724 20.990772,8.86402246 20.9920936,8.8744695 C20.9973374,8.91544017 21,8.95740914 21,9 L21,9 L21,20 C21,21.6568542 19.6568542,23 18,23 L6,23 C4.34314575,23 3,21.6568542 3,20 L3,4 C3,2.34314575 4.34314575,1 6,1 Z M12,3 L6,3 C5.44771525,3 5,3.44771525 5,4 L5,20 C5,20.5522847 5.44771525,21 6,21 L18,21 C18.5522847,21 19,20.5522847 19,20 L19,10 L13,10 C12.4871642,10 12.0644928,9.61395981 12.0067277,9.11662113 L12,9 L12,3 Z M17.586,8 L14,4.415 L14,8 L17.586,8 Z" id="path-1"></path>
    </defs>
    <g id="Symbols" stroke="none" stroke-width="1" fill="none" fill-rule="evenodd">
        <g id="file" transform="translate(-3.000000, -1.000000)">
            <mask id="mask-2" fill="white">
                <use xlink:href="#path-1"></use>
            </mask>
            <use id="Combined-Shape" fill="#000000" fill-rule="nonzero" xlink:href="#path-1"></use>
        </g>
    </g>
</svg>