<?xml version="1.0" encoding="UTF-8"?>
<svg width="28px" height="28px" viewBox="0 0 28 28" version="1.1" xmlns="http://www.w3.org/2000/svg" xmlns:xlink="http://www.w3.org/1999/xlink">
    <!-- Generator: Sketch 57.1 (83088) - https://sketch.com -->
    <title>Style</title>
    <desc>Created with Sketch.</desc>
    <g id="Symbols" stroke="none" stroke-width="1" fill="none" fill-rule="evenodd">
        <g id="Outlined/UI/globe" transform="translate(-2.000000, -2.000000)" fill="#252C32">
            <path d="M16,1.99999996 C8.26801348,1.99999996 1.99999996,8.26801348 1.99999996,16 C1.99999996,23.7319865 8.26801348,30 16,30 C23.7319865,30 30,23.7319865 30,16 C30,12.2869691 28.5250043,8.72601434 25.899495,6.10050503 C23.2739857,3.47499573 19.7130309,1.99999996 16,1.99999996 Z M24,15 C23.9541824,13.7847684 23.81713,12.5746962 23.59,11.38 C25.78,12.29 27.34,13.57 27.84,15 L24,15 Z M22,15 L17,15 L17,9.99999998 C18.4647569,10.0572205 19.9194297,10.2683827 21.34,10.63 C21.7186973,12.058241 21.9400138,13.5236242 22,15 Z M17,7.99999997 L17,4.18999996 C18.43,4.68999996 19.71,6.24999997 20.62,8.43999998 C19.426069,8.2027972 18.2159902,8.05571581 17,7.99999998 L17,7.99999997 Z M15,4.18999996 L15,7.99999997 C13.7847684,8.04581761 12.5746962,8.18286998 11.38,8.40999998 C12.29,6.24999997 13.57,4.68999996 15,4.18999996 Z M15,9.99999998 L15,15 L9.99999998,15 C10.0523471,13.5347995 10.2635844,12.0796099 10.63,10.66 C12.0592465,10.2861705 13.5241011,10.0649339 15,9.99999998 L15,9.99999998 Z M7.99999997,15 L4.18999996,15 C4.68999996,13.57 6.24999997,12.29 8.43999998,11.38 C8.2027972,12.573931 8.05571581,13.7840098 7.99999998,15 L7.99999997,15 Z M7.99999997,17 C8.04581761,18.2152316 8.18286998,19.4253038 8.40999998,20.62 C6.24999997,19.71 4.68999996,18.43 4.18999996,17 L7.99999997,17 Z M9.99999998,17 L15,17 L15,22 C13.5352431,21.9427795 12.0805703,21.7316173 10.66,21.37 C10.2813027,19.941759 10.0599862,18.4763758 9.99999998,17 L9.99999998,17 Z M15,24 L15,27.84 C13.57,27.34 12.29,25.78 11.38,23.59 C12.5746962,23.81713 13.7847684,23.9541824 15,24 Z M17,27.84 L17,24 C18.2152316,23.9541824 19.4253038,23.81713 20.62,23.59 C19.71,25.75 18.43,27.31 17,27.81 L17,27.84 Z M17,22 L17,17 L22,17 C21.9476529,18.4652005 21.7364156,19.9203901 21.37,21.34 C19.9407535,21.7138295 18.4758989,21.9350661 17,22 L17,22 Z M24,17 L27.84,17 C27.34,18.43 25.78,19.71 23.59,20.62 C23.81713,19.4253038 23.9541824,18.2152316 24,17 L24,17 Z M26.87,10.88 C25.6762805,10.0719416 24.3730724,9.43885859 23,8.99999998 C22.5705064,7.62858818 21.9475643,6.32546065 21.15,5.12999997 C23.6492047,6.33846833 25.6578129,8.36825686 26.84,10.88 L26.87,10.88 Z M10.87,5.15999997 C10.0679904,6.34500038 9.43836847,7.63791394 8.99999998,8.99999998 C7.62858818,9.42949358 6.32546065,10.0524357 5.12999997,10.85 C6.33846833,8.35079527 8.36825686,6.34218713 10.88,5.15999997 L10.87,5.15999997 Z M5.14999997,21.16 C6.33983272,21.9523657 7.63608858,22.571875 8.99999998,23 C9.42949358,24.3714118 10.0524357,25.6745393 10.85,26.87 C8.35079527,25.6615317 6.34218713,23.6317431 5.15999997,21.12 L5.14999997,21.16 Z M21.15,26.88 C21.9484187,25.681438 22.5713875,24.3748872 23,23 C24.3714118,22.5705064 25.6745393,21.9475643 26.87,21.15 C25.6615317,23.6492047 23.6317431,25.6578129 21.12,26.84 L21.15,26.88 Z" id="Style"></path>
        </g>
    </g>
</svg>