<?xml version="1.0" encoding="UTF-8" standalone="no"?>
<!DOCTYPE svg PUBLIC "-//W3C//DTD SVG 1.1//EN" "http://www.w3.org/Graphics/SVG/1.1/DTD/svg11.dtd">
<svg version="1.1" xmlns="http://www.w3.org/2000/svg" xmlns:xlink="http://www.w3.org/1999/xlink" preserveAspectRatio="xMidYMid meet" viewBox="0 0 640 640" width="640" height="640"><defs><path d="M290.62 0.86L301.03 1.92L311.31 3.39L321.47 5.26L331.48 7.52L341.34 10.17L351.04 13.2L360.58 16.59L369.94 20.34L379.12 24.44L388.1 28.89L396.89 33.66L405.47 38.77L413.83 44.19L421.96 49.92L429.87 55.95L437.53 62.28L444.94 68.89L452.09 75.77L458.97 82.92L465.58 90.33L471.9 97.99L477.93 105.89L483.66 114.03L489.09 122.39L494.19 130.97L498.97 139.75L503.42 148.74L507.52 157.92L511.27 167.28L514.66 176.81L517.68 186.52L520.33 196.38L522.6 206.39L524.47 216.54L525.94 226.83L527 237.24L527.64 247.76L527.86 258.4L527.82 262.97L527.7 267.53L527.5 272.08L527.22 276.61L526.86 281.14L526.42 285.65L525.9 290.14L525.31 294.62L524.64 299.09L523.89 303.54L523.07 307.96L522.16 312.38L521.19 316.77L520.13 321.14L519 325.48L517.8 329.81L516.52 334.11L515.16 338.39L513.73 342.64L512.23 346.87L510.66 351.07L509.01 355.24L507.29 359.38L505.49 363.49L503.63 367.58L501.69 371.63L499.68 375.65L497.6 379.63L495.45 383.58L493.23 387.5L490.94 391.37L488.58 395.22L486.15 399.02L483.65 402.79L481.08 406.51L478.45 410.2L475.74 413.84L472.97 417.44L470.14 421L467.23 424.52L619.55 582.94L620.5 583.96L621.39 585.01L622.23 586.08L623.02 587.18L623.76 588.31L624.46 589.45L625.1 590.62L625.69 591.8L626.23 593.01L626.73 594.23L627.17 595.46L627.57 596.71L627.91 597.97L628.21 599.23L628.45 600.51L628.65 601.79L628.8 603.08L628.89 604.37L628.94 605.67L628.94 606.96L628.89 608.25L628.79 609.55L628.64 610.83L628.45 612.11L628.2 613.39L627.9 614.65L627.56 615.91L627.16 617.15L626.72 618.38L626.23 619.6L625.69 620.8L625.1 621.98L624.46 623.14L623.77 624.28L623.04 625.4L622.25 626.49L621.42 627.56L620.53 628.6L619.6 629.61L618.62 630.6L618.15 631.05L617.66 631.49L617.17 631.92L616.67 632.33L616.17 632.74L615.66 633.14L615.14 633.53L614.61 633.9L614.08 634.27L613.54 634.63L613 634.97L612.45 635.3L611.9 635.63L611.34 635.94L610.77 636.24L610.2 636.53L609.62 636.81L609.04 637.07L608.45 637.33L607.86 637.57L607.27 637.81L606.67 638.03L606.06 638.24L605.45 638.44L604.84 638.62L604.22 638.8L603.6 638.96L602.98 639.12L602.35 639.26L601.72 639.38L601.09 639.5L600.45 639.6L599.81 639.7L599.17 639.78L598.52 639.84L597.88 639.9L597.23 639.94L596.57 639.98L595.92 639.99L595.26 640L594.57 639.99L593.88 639.97L593.2 639.94L592.51 639.89L591.83 639.83L591.15 639.75L590.48 639.67L589.8 639.56L589.14 639.45L588.47 639.32L587.81 639.18L587.15 639.03L586.5 638.86L585.85 638.68L585.21 638.49L584.57 638.28L583.93 638.06L583.3 637.83L582.68 637.59L582.06 637.33L581.44 637.06L580.83 636.78L580.23 636.49L579.63 636.18L579.04 635.86L578.46 635.53L577.88 635.19L577.3 634.83L576.74 634.47L576.18 634.09L575.62 633.7L575.08 633.3L574.54 632.88L574.01 632.46L573.48 632.02L572.96 631.57L572.46 631.11L571.95 630.64L571.46 630.16L570.98 629.66L417.5 470.04L414.21 472.31L410.91 474.53L407.57 476.69L404.21 478.79L400.82 480.84L397.4 482.84L393.96 484.78L390.5 486.66L387.01 488.49L383.5 490.27L379.97 491.98L376.41 493.65L372.83 495.25L369.23 496.8L365.61 498.29L361.97 499.73L358.3 501.11L354.62 502.43L350.91 503.7L347.19 504.9L343.45 506.06L339.69 507.15L335.92 508.18L332.12 509.16L328.31 510.08L324.49 510.94L320.64 511.74L316.79 512.49L312.91 513.17L309.02 513.8L305.12 514.37L301.21 514.88L297.28 515.33L293.34 515.72L289.39 516.05L285.42 516.32L281.45 516.53L277.46 516.68L273.46 516.77L269.46 516.8L258.82 516.58L248.29 515.94L237.88 514.88L227.6 513.41L217.45 511.54L207.44 509.28L197.57 506.63L187.87 503.6L178.33 500.21L168.97 496.46L159.79 492.36L150.81 487.91L142.02 483.13L133.44 478.03L125.08 472.61L116.95 466.88L109.05 460.85L101.39 454.52L93.98 447.91L86.83 441.03L79.94 433.88L73.34 426.47L67.01 418.81L60.98 410.91L55.25 402.77L49.83 394.41L44.72 385.83L39.94 377.05L35.5 368.06L31.4 358.88L27.64 349.52L24.25 339.99L21.23 330.28L18.58 320.42L16.32 310.41L14.44 300.26L12.98 289.97L11.91 279.56L11.27 269.03L11.06 258.4L11.27 247.76L11.91 237.24L12.98 226.83L14.44 216.54L16.32 206.39L18.58 196.38L21.23 186.52L24.25 176.81L27.64 167.28L31.4 157.92L35.5 148.74L39.94 139.75L44.72 130.97L49.83 122.39L55.25 114.03L60.98 105.89L67.01 97.99L73.34 90.33L79.94 82.92L86.83 75.77L93.98 68.89L101.39 62.28L109.05 55.95L116.95 49.92L125.08 44.19L133.44 38.77L142.02 33.66L150.81 28.89L159.79 24.44L168.97 20.34L178.33 16.59L187.87 13.2L197.57 10.17L207.44 7.52L217.45 5.26L227.6 3.39L237.88 1.92L248.29 0.86L258.82 0.22L269.46 0L280.09 0.22L290.62 0.86ZM253.81 68.04L246.12 68.83L238.52 69.91L231.01 71.3L223.61 72.97L216.32 74.93L209.15 77.16L202.1 79.67L195.18 82.44L188.4 85.47L181.76 88.76L175.26 92.29L168.92 96.06L162.74 100.07L156.73 104.31L150.89 108.77L145.23 113.44L139.75 118.32L134.47 123.41L129.38 128.7L124.5 134.17L119.82 139.83L115.36 145.67L111.13 151.69L107.12 157.87L103.35 164.21L99.81 170.7L96.53 177.34L93.5 184.13L90.73 191.05L88.22 198.1L85.98 205.27L84.03 212.56L82.35 219.96L80.97 227.46L79.88 235.06L79.1 242.76L78.62 250.54L78.47 258.4L78.62 266.26L79.1 274.04L79.88 281.74L80.97 289.34L82.35 296.84L84.03 304.24L85.98 311.53L88.22 318.7L90.73 325.75L93.5 332.67L96.53 339.46L99.81 346.1L103.35 352.59L107.12 358.93L111.13 365.11L115.36 371.12L119.82 376.97L124.5 382.63L129.38 388.1L134.47 393.39L139.75 398.48L145.23 403.36L150.89 408.03L156.73 412.49L162.74 416.73L168.92 420.74L175.26 424.51L181.76 428.04L188.4 431.33L195.18 434.36L202.1 437.13L209.15 439.64L216.32 441.87L223.61 443.83L231.01 445.5L238.52 446.89L246.12 447.97L253.81 448.76L261.6 449.23L269.46 449.39L277.32 449.23L285.1 448.76L292.79 447.97L300.4 446.89L307.9 445.5L315.3 443.83L322.59 441.87L329.76 439.64L336.81 437.13L343.73 434.36L350.51 431.33L357.15 428.04L363.65 424.51L369.99 420.74L376.17 416.73L382.18 412.49L388.02 408.03L393.68 403.36L399.16 398.48L404.45 393.39L409.53 388.1L414.42 382.63L419.09 376.97L423.55 371.12L427.79 365.11L431.79 358.93L435.57 352.59L439.1 346.1L442.38 339.46L445.42 332.67L448.19 325.75L450.69 318.7L452.93 311.53L454.89 304.24L456.56 296.84L457.94 289.34L459.03 281.74L459.81 274.04L460.29 266.26L460.45 258.4L460.29 250.54L459.81 242.76L459.03 235.06L457.94 227.46L456.56 219.96L454.89 212.56L452.93 205.27L450.69 198.1L448.19 191.05L445.42 184.13L442.38 177.34L439.1 170.7L435.57 164.21L431.79 157.87L427.79 151.69L423.55 145.67L419.09 139.83L414.42 134.17L409.53 128.7L404.45 123.41L399.16 118.32L393.68 113.44L388.02 108.77L382.18 104.31L376.17 100.07L369.99 96.06L363.65 92.29L357.15 88.76L350.51 85.47L343.73 82.44L336.81 79.67L329.76 77.16L322.59 74.93L315.3 72.97L307.9 71.3L300.4 69.91L292.79 68.83L285.1 68.04L277.32 67.57L269.46 67.41L261.6 67.57L253.81 68.04Z" id="ayCb4kSTt"></path></defs><g><g><g><use xlink:href="#ayCb4kSTt" opacity="1" fill="#ffffff" fill-opacity="1"></use><g><use xlink:href="#ayCb4kSTt" opacity="1" fill-opacity="0" stroke="#000000" stroke-width="1" stroke-opacity="0"></use></g></g></g></g></svg>