<?xml version="1.0" encoding="UTF-8" standalone="no"?>
<!DOCTYPE svg PUBLIC "-//W3C//DTD SVG 1.1//EN" "http://www.w3.org/Graphics/SVG/1.1/DTD/svg11.dtd">
<svg version="1.1" xmlns="http://www.w3.org/2000/svg" xmlns:xlink="http://www.w3.org/1999/xlink" preserveAspectRatio="xMidYMid meet" viewBox="0 0 640 640" width="640" height="640"><defs><path d="M397.38 0.06L398.13 0.14L398.88 0.25L399.62 0.38L400.34 0.54L401.06 0.74L401.76 0.96L402.45 1.2L403.13 1.47L403.8 1.77L404.45 2.09L405.08 2.44L405.7 2.81L406.31 3.2L406.9 3.62L407.47 4.05L408.02 4.51L408.56 4.99L409.08 5.49L409.58 6.01L410.06 6.55L410.51 7.1L410.95 7.68L411.36 8.27L411.76 8.87L412.13 9.5L412.47 10.13L412.79 10.79L413.09 11.45L413.36 12.13L413.61 12.82L413.82 13.53L414.02 14.24L414.18 14.97L414.32 15.71L414.42 16.46L414.5 17.21L414.54 17.98L414.56 18.75L414.56 59.11L414.65 62.35L414.91 65.52L415.33 68.63L415.92 71.66L416.66 74.62L417.55 77.5L418.58 80.31L419.75 83.03L421.06 85.66L422.5 88.21L424.06 90.66L425.74 93.02L427.53 95.28L429.43 97.44L431.43 99.5L433.53 101.45L435.72 103.29L438 105.01L440.35 106.62L442.79 108.11L445.29 109.47L447.86 110.71L450.49 111.83L453.17 112.81L455.91 113.65L458.68 114.36L461.5 114.93L464.35 115.35L467.23 115.63L470.13 115.75L473.05 115.72L475.98 115.54L478.92 115.2L481.86 114.7L484.79 114.03L487.72 113.19L490.63 112.18L493.53 111L496.39 109.64L499.23 108.1L534.12 87.92L534.8 87.54L535.48 87.2L536.17 86.89L536.87 86.61L537.58 86.36L538.29 86.14L539 85.94L539.72 85.78L540.44 85.65L541.17 85.54L541.89 85.47L542.61 85.42L543.34 85.4L544.06 85.41L544.78 85.45L545.5 85.52L546.21 85.61L546.92 85.73L547.63 85.87L548.33 86.05L549.02 86.25L549.7 86.47L550.37 86.72L551.04 87L551.69 87.31L552.33 87.63L552.96 87.99L553.58 88.37L554.18 88.77L554.77 89.2L555.35 89.65L555.91 90.13L556.45 90.63L556.97 91.15L557.47 91.7L557.96 92.27L558.42 92.86L558.87 93.48L559.29 94.12L559.69 94.78L634.85 225.22L635.22 225.9L635.56 226.59L635.88 227.28L636.16 227.98L636.41 228.69L636.63 229.4L636.82 230.11L636.98 230.83L637.11 231.56L637.22 232.28L637.29 233.01L637.34 233.73L637.36 234.46L637.35 235.18L637.31 235.9L637.25 236.62L637.16 237.34L637.04 238.05L636.89 238.75L636.72 239.45L636.52 240.14L636.3 240.82L636.04 241.5L635.77 242.16L635.46 242.82L635.14 243.46L634.78 244.09L634.41 244.71L634 245.32L633.57 245.91L633.12 246.48L632.65 247.04L632.15 247.58L631.63 248.11L631.08 248.61L630.51 249.1L629.92 249.57L629.3 250.01L628.66 250.43L628 250.83L593.12 271.02L590.36 272.71L587.75 274.52L585.28 276.44L582.95 278.46L580.76 280.59L578.71 282.8L576.81 285.1L575.04 287.48L573.42 289.93L571.94 292.45L570.59 295.03L569.39 297.67L568.34 300.35L567.42 303.08L566.64 305.85L566.01 308.64L565.51 311.46L565.16 314.3L564.95 317.15L564.88 320.01L564.95 322.86L565.16 325.71L565.52 328.55L566.01 331.37L566.65 334.16L567.43 336.93L568.34 339.66L569.4 342.34L570.6 344.98L571.94 347.56L573.43 350.08L575.05 352.53L576.82 354.91L578.72 357.21L580.77 359.42L582.96 361.54L585.28 363.56L587.75 365.48L590.36 367.29L593.12 368.98L628 389.17L628.66 389.57L629.3 389.99L629.92 390.43L630.51 390.9L631.08 391.39L631.63 391.89L632.15 392.42L632.65 392.96L633.12 393.52L633.57 394.09L634 394.68L634.41 395.29L634.78 395.91L635.14 396.54L635.46 397.18L635.77 397.84L636.04 398.5L636.3 399.18L636.52 399.86L636.72 400.55L636.89 401.25L637.04 401.95L637.16 402.66L637.25 403.38L637.31 404.1L637.35 404.82L637.36 405.54L637.34 406.27L637.29 406.99L637.22 407.72L637.11 408.44L636.98 409.17L636.82 409.89L636.63 410.6L636.41 411.31L636.16 412.02L635.88 412.72L635.56 413.41L635.22 414.1L634.85 414.78L559.68 545.22L559.28 545.88L558.86 546.52L558.42 547.14L557.95 547.73L557.47 548.3L556.96 548.85L556.44 549.37L555.9 549.87L555.34 550.35L554.77 550.8L554.18 551.23L553.57 551.64L552.96 552.02L552.32 552.37L551.68 552.7L551.03 553L550.36 553.28L549.69 553.53L549.01 553.76L548.32 553.96L547.62 554.13L546.92 554.28L546.21 554.4L545.49 554.49L544.78 554.55L544.06 554.59L543.33 554.6L542.61 554.58L541.88 554.53L541.16 554.46L540.44 554.35L539.72 554.22L539 554.06L538.28 553.87L537.57 553.64L536.87 553.39L536.17 553.11L535.48 552.8L534.79 552.46L534.12 552.08L499.23 531.9L496.39 530.36L493.52 529L490.62 527.81L487.71 526.81L484.78 525.97L481.84 525.3L478.9 524.79L475.96 524.45L473.03 524.27L470.11 524.24L467.21 524.37L464.33 524.65L461.48 525.07L458.66 525.64L455.88 526.35L453.15 527.2L450.47 528.18L447.84 529.29L445.27 530.53L442.77 531.9L440.33 533.39L437.98 535L435.7 536.73L433.51 538.57L431.41 540.52L429.41 542.57L427.52 544.73L425.73 546.99L424.05 549.35L422.49 551.81L421.05 554.35L419.74 556.99L418.57 559.71L417.54 562.51L416.65 565.39L415.91 568.35L415.32 571.38L414.9 574.49L414.64 577.66L414.56 580.89L414.56 621.25L414.54 622.02L414.49 622.79L414.42 623.54L414.31 624.29L414.18 625.03L414.01 625.76L413.82 626.47L413.6 627.18L413.36 627.87L413.08 628.55L412.79 629.21L412.47 629.87L412.12 630.5L411.75 631.13L411.36 631.73L410.94 632.32L410.51 632.9L410.05 633.45L409.57 633.99L409.07 634.51L408.56 635.01L408.02 635.49L407.47 635.95L406.89 636.38L406.3 636.8L405.7 637.19L405.08 637.56L404.44 637.91L403.79 638.23L403.13 638.53L402.45 638.8L401.76 639.04L401.05 639.26L400.34 639.46L399.61 639.62L398.88 639.75L398.13 639.86L397.37 639.94L396.61 639.98L395.84 640L245.51 640L244.74 639.98L243.98 639.94L243.22 639.86L242.48 639.75L241.74 639.62L241.01 639.46L240.3 639.26L239.6 639.04L238.91 638.8L238.23 638.53L237.56 638.23L236.91 637.91L236.27 637.56L235.65 637.19L235.05 636.8L234.46 636.38L233.89 635.95L233.33 635.49L232.8 635.01L232.28 634.51L231.78 633.99L231.3 633.45L230.84 632.9L230.41 632.32L229.99 631.73L229.6 631.13L229.23 630.5L228.89 629.87L228.56 629.21L228.27 628.55L228 627.87L227.75 627.18L227.53 626.47L227.34 625.76L227.18 625.03L227.04 624.29L226.94 623.54L226.86 622.79L226.81 622.02L226.8 621.25L226.8 580.89L226.71 577.65L226.45 574.48L226.03 571.37L225.44 568.34L224.7 565.38L223.81 562.49L222.78 559.69L221.6 556.97L220.29 554.33L218.86 551.79L217.3 549.33L215.62 546.97L213.83 544.71L211.93 542.55L209.93 540.5L207.83 538.55L205.64 536.71L203.36 534.99L201 533.38L198.57 531.89L196.06 530.52L193.49 529.28L190.87 528.17L188.18 527.19L185.45 526.35L182.67 525.64L179.85 525.07L177 524.65L174.13 524.37L171.23 524.25L168.31 524.27L165.38 524.46L162.44 524.8L159.5 525.3L156.56 525.97L153.64 526.81L150.72 527.82L147.83 529L144.96 530.36L142.12 531.9L107.24 552.08L106.56 552.46L105.88 552.8L105.18 553.11L104.49 553.39L103.78 553.64L103.07 553.87L102.35 554.06L101.64 554.22L100.91 554.35L100.19 554.46L99.47 554.53L98.74 554.58L98.02 554.6L97.3 554.59L96.57 554.55L95.86 554.49L95.14 554.39L94.43 554.27L93.73 554.13L93.03 553.96L92.34 553.76L91.66 553.53L90.99 553.28L90.32 553L89.67 552.7L89.02 552.37L88.39 552.01L87.78 551.63L87.17 551.23L86.58 550.8L86.01 550.35L85.45 549.87L84.91 549.37L84.39 548.85L83.88 548.3L83.4 547.73L82.93 547.14L82.49 546.52L82.07 545.88L81.67 545.22L6.51 414.78L6.13 414.1L5.79 413.41L5.48 412.72L5.2 412.02L4.95 411.31L4.73 410.6L4.54 409.89L4.38 409.17L4.24 408.44L4.14 407.72L4.06 406.99L4.02 406.27L4 405.54L4.01 404.82L4.04 404.1L4.11 403.38L4.2 402.66L4.32 401.95L4.46 401.25L4.64 400.55L4.84 399.86L5.06 399.18L5.31 398.5L5.59 397.84L5.89 397.18L6.22 396.54L6.58 395.91L6.95 395.29L7.36 394.68L7.78 394.09L8.24 393.52L8.71 392.96L9.21 392.42L9.74 391.89L10.28 391.39L10.85 390.9L11.44 390.43L12.06 389.99L12.7 389.57L13.36 389.17L48.24 368.98L50.99 367.29L53.61 365.48L56.08 363.56L58.41 361.54L60.6 359.41L62.65 357.2L64.55 354.9L66.32 352.52L67.94 350.07L69.42 347.55L70.76 344.97L71.96 342.33L73.02 339.65L73.94 336.92L74.71 334.15L75.35 331.36L75.84 328.54L76.2 325.7L76.41 322.85L76.48 319.99L76.41 317.14L76.19 314.29L75.84 311.45L75.34 308.63L74.71 305.84L73.93 303.07L73.01 300.34L71.95 297.66L70.75 295.02L69.41 292.44L67.93 289.92L66.31 287.47L64.54 285.09L62.64 282.79L60.59 280.58L58.4 278.46L56.07 276.44L53.6 274.52L50.99 272.71L48.24 271.02L13.35 250.83L12.69 250.44L12.06 250.01L11.44 249.57L10.85 249.1L10.28 248.62L9.73 248.11L9.21 247.59L8.71 247.04L8.23 246.49L7.78 245.91L7.35 245.32L6.95 244.71L6.57 244.1L6.22 243.46L5.89 242.82L5.59 242.17L5.31 241.5L5.06 240.83L4.84 240.14L4.64 239.45L4.46 238.75L4.32 238.05L4.2 237.34L4.11 236.62L4.04 235.9L4.01 235.18L4 234.46L4.02 233.73L4.06 233.01L4.14 232.28L4.24 231.56L4.38 230.83L4.54 230.11L4.73 229.4L4.95 228.69L5.2 227.98L5.48 227.28L5.79 226.59L6.13 225.9L6.51 225.22L81.67 94.78L82.07 94.12L82.49 93.48L82.94 92.86L83.4 92.27L83.89 91.7L84.39 91.15L84.91 90.63L85.46 90.13L86.01 89.65L86.59 89.2L87.18 88.77L87.78 88.36L88.4 87.98L89.03 87.63L89.67 87.3L90.33 87L90.99 86.72L91.67 86.47L92.35 86.24L93.04 86.04L93.74 85.87L94.44 85.72L95.15 85.6L95.86 85.51L96.58 85.45L97.3 85.41L98.02 85.4L98.75 85.42L99.47 85.47L100.2 85.54L100.92 85.65L101.64 85.78L102.36 85.94L103.07 86.13L103.78 86.36L104.49 86.61L105.19 86.89L105.88 87.2L106.56 87.54L107.24 87.92L142.12 108.1L144.97 109.64L147.84 111L150.73 112.18L153.65 113.19L156.58 114.03L159.52 114.7L162.46 115.21L165.4 115.55L168.33 115.73L171.25 115.76L174.15 115.63L177.03 115.35L179.88 114.93L182.69 114.36L185.47 113.65L188.2 112.8L190.89 111.82L193.51 110.71L196.08 109.47L198.59 108.1L201.02 106.61L203.38 105L205.65 103.27L207.84 101.44L209.94 99.49L211.94 97.43L213.84 95.27L215.63 93.01L217.3 90.65L218.86 88.2L220.3 85.65L221.61 83.01L222.78 80.29L223.81 77.49L224.7 74.61L225.44 71.65L226.03 68.62L226.45 65.52L226.71 62.35L226.8 59.11L226.8 18.75L226.81 17.98L226.86 17.21L226.94 16.46L227.04 15.71L227.18 14.97L227.34 14.24L227.53 13.53L227.75 12.82L228 12.13L228.27 11.45L228.57 10.79L228.89 10.13L229.23 9.5L229.6 8.87L229.99 8.27L230.41 7.68L230.85 7.1L231.3 6.55L231.78 6.01L232.28 5.49L232.8 4.99L233.33 4.51L233.89 4.05L234.46 3.62L235.05 3.2L235.66 2.81L236.28 2.44L236.91 2.09L237.56 1.77L238.23 1.47L238.91 1.2L239.6 0.96L240.3 0.74L241.02 0.54L241.74 0.38L242.48 0.25L243.22 0.14L243.98 0.06L244.74 0.02L245.51 0L395.84 0L396.62 0.02L397.38 0.06ZM264.23 59.11L264.08 64.49L263.65 69.77L262.95 74.93L261.97 79.98L260.74 84.9L259.26 89.7L257.54 94.36L255.59 98.89L253.42 103.27L251.03 107.5L248.43 111.58L245.64 115.51L242.66 119.27L239.5 122.86L236.17 126.28L232.68 129.52L229.04 132.57L225.26 135.44L221.33 138.12L217.29 140.59L213.12 142.87L208.85 144.93L204.48 146.78L200.01 148.41L195.47 149.81L190.85 150.99L186.17 151.94L181.43 152.64L176.64 153.1L171.81 153.31L166.96 153.26L162.09 152.96L157.2 152.39L152.31 151.55L147.43 150.44L142.56 149.05L137.72 147.37L132.9 145.4L128.13 143.13L123.41 140.57L104.73 129.77L48.28 227.73L66.96 238.54L71.54 241.36L75.89 244.37L80 247.56L83.87 250.93L87.51 254.46L90.92 258.14L94.09 261.97L97.02 265.92L99.72 270L102.19 274.19L104.42 278.49L106.41 282.87L108.17 287.33L109.7 291.87L110.99 296.47L112.04 301.12L112.86 305.81L113.45 310.53L113.8 315.26L113.91 320.01L113.8 324.76L113.44 329.5L112.85 334.22L112.03 338.91L110.97 343.56L109.68 348.16L108.15 352.69L106.39 357.16L104.4 361.54L102.17 365.83L99.7 370.02L97 374.1L94.07 378.05L90.9 381.87L87.49 385.55L83.85 389.08L79.98 392.45L75.87 395.64L71.53 398.65L66.96 401.46L48.28 412.27L104.73 510.23L123.41 499.43L128.13 496.86L132.91 494.6L137.72 492.63L142.57 490.95L147.44 489.56L152.33 488.44L157.22 487.6L162.11 487.04L166.98 486.73L171.84 486.69L176.66 486.9L181.45 487.36L186.19 488.07L190.87 489.01L195.49 490.19L200.03 491.6L204.5 493.23L208.87 495.08L213.14 497.15L217.31 499.42L221.35 501.9L225.27 504.57L229.06 507.44L232.7 510.5L236.19 513.74L239.51 517.16L242.67 520.75L245.65 524.52L248.44 528.44L251.03 532.52L253.42 536.75L255.6 541.14L257.55 545.66L259.27 550.32L260.75 555.11L261.98 560.04L262.95 565.08L263.65 570.24L264.08 575.51L264.23 580.89L264.23 602.5L377.13 602.5L377.13 580.89L377.27 575.51L377.7 570.23L378.41 565.07L379.38 560.02L380.61 555.1L382.09 550.3L383.81 545.64L385.77 541.11L387.94 536.73L390.33 532.5L392.93 528.42L395.72 524.49L398.7 520.73L401.86 517.14L405.18 513.72L408.67 510.48L412.32 507.43L416.1 504.56L420.02 501.88L424.07 499.41L428.23 497.13L432.51 495.07L436.88 493.22L441.34 491.59L445.89 490.19L450.51 489.01L455.19 488.06L459.93 487.36L464.72 486.9L469.54 486.69L474.4 486.74L479.27 487.04L484.16 487.61L489.05 488.45L493.93 489.56L498.8 490.95L503.64 492.63L508.45 494.6L513.23 496.87L517.95 499.43L536.62 510.23L593.08 412.27L574.4 401.46L569.82 398.64L565.47 395.63L561.36 392.44L557.49 389.07L553.85 385.54L550.44 381.86L547.27 378.03L544.34 374.08L541.64 370L539.17 365.81L536.94 361.51L534.95 357.13L533.19 352.67L531.66 348.13L530.37 343.53L529.32 338.88L528.49 334.19L527.91 329.47L527.56 324.74L527.44 319.99L527.56 315.24L527.91 310.5L528.5 305.78L529.33 301.09L530.38 296.44L531.68 291.84L533.2 287.31L534.96 282.84L536.96 278.46L539.19 274.17L541.66 269.98L544.36 265.9L547.29 261.95L550.46 258.13L553.86 254.45L557.5 250.92L561.38 247.55L565.48 244.36L569.83 241.35L574.4 238.54L593.08 227.73L536.62 129.77L517.95 140.57L513.22 143.14L508.45 145.4L503.63 147.37L498.78 149.05L493.91 150.44L489.03 151.56L484.14 152.4L479.25 152.96L474.37 153.27L469.52 153.31L464.69 153.1L459.91 152.64L455.17 151.93L450.48 150.99L445.87 149.81L441.32 148.4L436.86 146.77L432.49 144.92L428.21 142.85L424.05 140.58L420 138.1L416.08 135.43L412.3 132.56L408.66 129.5L405.17 126.26L401.84 122.84L398.69 119.25L395.71 115.48L392.92 111.56L390.32 107.48L387.94 103.25L385.76 98.86L383.81 94.34L382.09 89.68L380.61 84.89L379.38 79.96L378.41 74.92L377.7 69.76L377.27 64.49L377.13 59.11L377.13 37.5L264.23 37.5L264.23 59.11Z" id="a8NFUEnaL"></path><path d="M332.13 182.6L337.77 183.17L343.34 183.96L348.83 184.98L354.25 186.2L359.59 187.64L364.84 189.27L370 191.11L375.06 193.14L380.03 195.36L384.89 197.76L389.65 200.35L394.29 203.11L398.82 206.05L403.22 209.15L407.5 212.42L411.64 215.84L415.65 219.42L419.52 223.14L423.25 227.01L426.82 231.02L430.25 235.17L433.51 239.44L436.61 243.85L439.55 248.37L442.31 253.02L444.9 257.77L447.3 262.64L449.52 267.6L451.55 272.67L453.39 277.83L455.02 283.08L456.46 288.42L457.68 293.84L458.7 299.34L459.49 304.9L460.06 310.54L460.41 316.24L460.53 321.99L460.41 327.75L460.06 333.45L459.49 339.08L458.7 344.65L457.68 350.15L456.46 355.56L455.02 360.9L453.39 366.15L451.55 371.32L449.52 376.38L447.3 381.35L444.9 386.22L442.31 390.97L439.55 395.61L436.61 400.14L433.51 404.54L430.25 408.82L426.82 412.97L423.25 416.98L419.52 420.85L415.65 424.57L411.64 428.15L407.5 431.57L403.22 434.84L398.82 437.94L394.29 440.87L389.65 443.64L384.89 446.22L380.03 448.63L375.06 450.85L370 452.88L364.84 454.72L359.59 456.35L354.25 457.79L348.83 459.01L343.34 460.02L337.77 460.82L332.13 461.39L326.44 461.74L320.68 461.86L314.93 461.74L309.23 461.39L303.59 460.82L298.03 460.02L292.53 459.01L287.11 457.79L281.78 456.35L276.52 454.72L271.36 452.88L266.3 450.85L261.33 448.63L256.46 446.22L251.71 443.64L247.07 440.87L242.54 437.94L238.14 434.84L233.86 431.57L229.72 428.15L225.71 424.57L221.84 420.85L218.11 416.98L214.53 412.97L211.11 408.82L207.85 404.54L204.74 400.14L201.81 395.61L199.05 390.97L196.46 386.22L194.06 381.35L191.84 376.38L189.81 371.32L187.97 366.15L186.33 360.9L184.9 355.56L183.67 350.15L182.66 344.65L181.87 339.08L181.29 333.45L180.95 327.75L180.83 321.99L180.95 316.24L181.29 310.54L181.87 304.9L182.66 299.34L183.67 293.84L184.9 288.42L186.33 283.08L187.97 277.83L189.81 272.67L191.84 267.6L194.06 262.64L196.46 257.77L199.05 253.02L201.81 248.37L204.74 243.85L207.85 239.44L211.11 235.17L214.53 231.02L218.11 227.01L221.84 223.14L225.71 219.42L229.72 215.84L233.86 212.42L238.14 209.15L242.54 206.05L247.07 203.11L251.71 200.35L256.46 197.76L261.33 195.36L266.3 193.14L271.36 191.11L276.52 189.27L281.78 187.64L287.11 186.2L292.53 184.98L298.03 183.96L303.59 183.17L309.23 182.6L314.93 182.25L320.68 182.13L326.44 182.25L332.13 182.6ZM312.5 222.42L308.48 222.83L304.5 223.4L300.57 224.12L296.7 225L292.89 226.02L289.14 227.19L285.45 228.5L281.84 229.95L278.29 231.54L274.81 233.26L271.42 235.11L268.1 237.08L264.87 239.18L261.72 241.39L258.67 243.72L255.71 246.17L252.84 248.72L250.08 251.39L247.42 254.15L244.86 257.01L242.42 259.98L240.09 263.03L237.87 266.18L235.78 269.41L233.8 272.72L231.96 276.12L230.24 279.6L228.65 283.14L227.2 286.76L225.89 290.45L224.72 294.2L223.7 298.01L222.82 301.89L222.1 305.81L221.53 309.79L221.12 313.81L220.87 317.88L220.79 321.99L220.87 326.11L221.12 330.18L221.53 334.2L222.1 338.18L222.82 342.1L223.7 345.97L224.72 349.79L225.89 353.54L227.2 357.22L228.65 360.84L230.24 364.39L231.96 367.87L233.8 371.26L235.78 374.58L237.87 377.81L240.09 380.96L242.42 384.01L244.86 386.97L247.42 389.84L250.08 392.6L252.84 395.26L255.71 397.82L258.67 400.26L261.72 402.6L264.87 404.81L268.1 406.91L271.42 408.88L274.81 410.73L278.29 412.45L281.84 414.03L285.45 415.48L289.14 416.79L292.89 417.96L296.7 418.99L300.57 419.86L304.5 420.59L308.48 421.15L312.5 421.56L316.57 421.81L320.68 421.9L324.79 421.81L328.86 421.56L332.89 421.15L336.86 420.59L340.79 419.86L344.66 418.99L348.47 417.96L352.22 416.79L355.91 415.48L359.52 414.03L363.07 412.45L366.55 410.73L369.94 408.88L373.26 406.91L376.49 404.81L379.63 402.6L382.69 400.26L385.65 397.82L388.51 395.26L391.28 392.6L393.94 389.84L396.49 386.97L398.94 384.01L401.27 380.96L403.49 377.81L405.58 374.58L407.55 371.26L409.4 367.87L411.12 364.39L412.71 360.84L414.16 357.22L415.47 353.54L416.64 349.79L417.66 345.97L418.53 342.1L419.26 338.18L419.83 334.2L420.24 330.18L420.48 326.11L420.57 321.99L420.48 317.88L420.24 313.81L419.83 309.79L419.26 305.81L418.53 301.89L417.66 298.01L416.64 294.2L415.47 290.45L414.16 286.76L412.71 283.14L411.12 279.6L409.4 276.12L407.55 272.72L405.58 269.41L403.49 266.18L401.27 263.03L398.94 259.98L396.49 257.01L393.94 254.15L391.28 251.39L388.51 248.72L385.65 246.17L382.69 243.72L379.63 241.39L376.49 239.18L373.26 237.08L369.94 235.11L366.55 233.26L363.07 231.54L359.52 229.95L355.91 228.5L352.22 227.19L348.47 226.02L344.66 225L340.79 224.12L336.86 223.4L332.89 222.83L328.86 222.42L324.79 222.17L320.68 222.09L316.57 222.17L312.5 222.42Z" id="adWKS5bsO"></path></defs><g><g><g><use xlink:href="#a8NFUEnaL" opacity="1" fill="#ffffff" fill-opacity="1"></use><g><use xlink:href="#a8NFUEnaL" opacity="1" fill-opacity="0" stroke="#000000" stroke-width="1" stroke-opacity="0"></use></g></g><g><use xlink:href="#adWKS5bsO" opacity="1" fill="#ffffff" fill-opacity="1"></use><g><use xlink:href="#adWKS5bsO" opacity="1" fill-opacity="0" stroke="#000000" stroke-width="1" stroke-opacity="0"></use></g></g></g></g></svg>