<?xml version="1.0" encoding="UTF-8" standalone="no"?>
<!DOCTYPE svg PUBLIC "-//W3C//DTD SVG 1.1//EN" "http://www.w3.org/Graphics/SVG/1.1/DTD/svg11.dtd">
<svg version="1.1" xmlns="http://www.w3.org/2000/svg" xmlns:xlink="http://www.w3.org/1999/xlink" preserveAspectRatio="xMidYMid meet" viewBox="-1 -0.956220776530551 644.0005927555391 643.9124415530611" width="640" height="639.91"><defs><path d="M244.22 0.07L244.92 0.12L245.61 0.18L246.31 0.27L246.99 0.37L247.68 0.5L248.36 0.64L249.03 0.81L249.7 0.99L250.36 1.2L251.02 1.42L251.67 1.67L252.31 1.93L252.95 2.21L253.58 2.51L254.19 2.83L254.8 3.16L255.4 3.52L256 3.89L256.58 4.28L257.15 4.69L257.7 5.12L258.25 5.56L258.79 6.02L259.31 6.5L259.82 7L260.31 7.51L260.8 8.04L261.27 8.59L261.72 9.15L262.16 9.73L262.57 10.32L262.97 10.91L263.35 11.52L263.7 12.13L264.04 12.76L264.36 13.39L264.66 14.03L264.94 14.67L265.2 15.32L265.43 15.98L265.65 16.65L265.85 17.31L266.03 17.99L266.19 18.66L266.33 19.35L266.45 20.03L266.54 20.72L266.62 21.41L266.68 22.1L266.72 22.79L266.73 23.49L266.73 24.18L266.71 24.87L266.66 25.57L266.6 26.26L266.51 26.95L266.41 27.64L266.28 28.33L266.14 29.01L265.97 29.69L265.78 30.37L265.57 31.05L265.35 31.71L265.1 32.38L264.83 33.03L264.54 33.69L264.22 34.33L263.89 34.97L263.54 35.6L261.85 38.56L260.2 41.53L258.59 44.5L257.02 47.49L255.5 50.48L254.02 53.48L252.58 56.5L251.18 59.52L249.83 62.55L248.52 65.58L247.25 68.63L246.03 71.68L244.84 74.74L243.7 77.81L242.61 80.89L241.55 83.98L240.54 87.07L239.57 90.17L238.64 93.28L237.76 96.4L236.92 99.52L236.12 102.65L235.36 105.79L234.65 108.93L233.98 112.08L233.35 115.24L232.77 118.4L232.23 121.57L231.73 124.75L231.28 127.93L230.87 131.12L230.5 134.32L230.17 137.52L229.89 140.72L229.65 143.94L229.46 147.15L229.31 150.38L229.2 153.61L229.13 156.84L229.11 160.08L229.32 170.4L229.94 180.62L230.97 190.72L232.4 200.7L234.21 210.56L236.41 220.27L238.98 229.84L241.92 239.26L245.21 248.51L248.85 257.6L252.83 266.5L257.14 275.23L261.78 283.75L266.73 292.08L272 300.19L277.56 308.09L283.41 315.75L289.55 323.19L295.96 330.38L302.64 337.32L309.58 344L316.77 350.41L324.2 356.55L331.87 362.4L339.77 367.97L347.88 373.23L356.2 378.18L364.73 382.82L373.45 387.13L382.36 391.11L391.44 394.75L400.7 398.05L410.11 400.98L419.68 403.55L429.4 405.75L439.25 407.56L449.23 408.99L459.34 410.02L469.55 410.64L479.87 410.85L483.1 410.83L486.32 410.76L489.54 410.66L492.75 410.5L495.96 410.31L499.16 410.07L502.36 409.79L505.55 409.47L508.74 409.1L511.93 408.69L515.1 408.23L518.28 407.74L521.45 407.2L524.61 406.61L527.76 405.99L530.91 405.32L534.06 404.61L537.2 403.85L540.33 403.06L543.46 402.22L546.58 401.33L549.69 400.41L552.8 399.44L555.9 398.43L559 397.38L562.08 396.28L565.16 395.14L568.24 393.96L571.3 392.74L574.36 391.47L577.41 390.16L580.46 388.81L583.49 387.42L586.52 385.98L589.54 384.5L592.56 382.98L595.56 381.42L598.56 379.82L601.55 378.17L604.53 376.48L605.16 376.13L605.8 375.8L606.44 375.49L607.09 375.2L607.75 374.93L608.42 374.69L609.08 374.46L609.76 374.26L610.43 374.07L611.11 373.91L611.8 373.76L612.49 373.64L613.17 373.54L613.87 373.46L614.56 373.39L615.25 373.35L615.94 373.33L616.64 373.33L617.33 373.35L618.02 373.39L618.71 373.45L619.4 373.53L620.09 373.63L620.77 373.75L621.45 373.89L622.12 374.05L622.8 374.23L623.46 374.43L624.13 374.65L624.78 374.89L625.43 375.15L626.08 375.43L626.71 375.73L627.34 376.05L627.96 376.38L628.58 376.74L629.18 377.12L629.77 377.52L630.36 377.94L630.93 378.37L631.5 378.83L632.04 379.3L632.57 379.78L633.08 380.28L633.57 380.79L634.05 381.31L634.51 381.84L634.95 382.39L635.38 382.95L635.79 383.52L636.18 384.1L636.55 384.69L636.9 385.29L637.24 385.9L637.55 386.52L637.85 387.14L638.13 387.78L638.39 388.42L638.63 389.07L638.85 389.73L639.06 390.39L639.24 391.06L639.41 391.73L639.55 392.41L639.68 393.09L639.78 393.78L639.87 394.47L639.93 395.16L639.97 395.86L640 396.56L640 397.26L639.98 397.96L639.94 398.66L639.88 399.36L639.8 400.07L639.7 400.77L639.58 401.47L639.43 402.17L639.26 402.87L639.07 403.57L637.59 408.56L636.02 413.53L634.38 418.47L632.65 423.38L630.85 428.27L628.97 433.12L627.02 437.94L624.98 442.73L622.88 447.49L620.69 452.21L618.44 456.9L616.11 461.55L613.71 466.16L611.23 470.73L608.69 475.27L606.07 479.76L603.39 484.22L600.63 488.63L597.81 492.99L594.92 497.31L591.96 501.59L588.94 505.82L585.85 510L582.69 514.13L579.47 518.22L576.19 522.25L572.85 526.23L569.44 530.15L565.97 534.03L562.45 537.84L558.86 541.61L555.21 545.31L551.5 548.96L547.74 552.54L543.92 556.07L540.04 559.54L536.11 562.94L532.12 566.28L528.08 569.55L523.98 572.76L519.69 576.02L515.35 579.2L510.97 582.3L506.54 585.33L502.08 588.27L497.58 591.14L493.05 593.93L488.47 596.63L483.86 599.26L479.21 601.81L474.53 604.28L469.81 606.66L465.06 608.97L460.28 611.2L455.46 613.34L450.61 615.41L445.73 617.39L440.82 619.29L435.88 621.11L430.92 622.84L425.92 624.5L420.89 626.07L415.84 627.56L410.76 628.96L405.66 630.29L400.53 631.53L395.38 632.68L390.2 633.75L385 634.74L379.78 635.64L374.54 636.46L369.28 637.19L363.99 637.84L358.69 638.4L353.37 638.87L348.03 639.26L342.67 639.57L337.3 639.78L331.91 639.91L326.5 639.96L313.06 639.68L299.76 638.87L286.61 637.53L273.61 635.67L260.78 633.31L248.13 630.45L235.67 627.1L223.41 623.28L211.36 619L199.53 614.26L187.94 609.07L176.58 603.46L165.48 597.42L154.64 590.97L144.08 584.12L133.8 576.87L123.81 569.25L114.14 561.26L104.77 552.91L95.74 544.21L87.04 535.18L78.69 525.81L70.7 516.14L63.08 506.15L55.84 495.87L48.99 485.31L42.54 474.47L36.5 463.37L30.88 452.01L25.7 440.41L20.96 428.58L16.67 416.53L12.85 404.27L9.51 391.81L6.65 379.16L4.28 366.33L2.42 353.34L1.08 340.18L0.27 326.88L0 313.44L0.04 308.04L0.17 302.65L0.39 297.27L0.69 291.92L1.08 286.58L1.56 281.26L2.12 275.95L2.77 270.67L3.5 265.41L4.32 260.17L5.22 254.94L6.21 249.75L7.28 244.57L8.43 239.42L9.67 234.29L11 229.19L12.4 224.11L13.89 219.06L15.46 214.04L17.12 209.04L18.85 204.07L20.67 199.13L22.58 194.22L24.56 189.35L26.62 184.5L28.77 179.68L31 174.9L33.3 170.15L35.69 165.44L38.16 160.75L40.71 156.11L43.34 151.5L46.05 146.93L48.83 142.39L51.7 137.89L54.65 133.44L57.67 129.02L60.77 124.64L63.96 120.3L67.21 116L70.42 111.91L73.7 107.87L77.04 103.89L80.45 99.96L83.91 96.08L87.44 92.26L91.03 88.5L94.68 84.8L98.38 81.15L102.15 77.57L105.97 74.04L109.84 70.58L113.77 67.17L117.75 63.83L121.78 60.55L125.87 57.33L130 54.18L134.19 51.09L138.42 48.07L142.7 45.11L147.02 42.22L151.39 39.4L155.8 36.65L160.26 33.96L164.75 31.35L169.29 28.81L173.87 26.33L178.48 23.93L183.14 21.6L187.83 19.35L192.55 17.16L197.31 15.06L202.1 13.03L206.93 11.07L211.79 9.19L216.67 7.39L221.59 5.67L226.53 4.02L231.5 2.46L236.5 0.97L237.2 0.78L237.9 0.61L238.6 0.47L239.3 0.34L240.01 0.24L240.71 0.16L241.42 0.1L242.12 0.06L242.82 0.04L243.52 0.05L244.22 0.07ZM183.78 75.07L177.3 79.06L170.95 83.22L164.72 87.54L158.63 92.01L152.66 96.65L146.83 101.43L141.14 106.37L135.59 111.44L130.18 116.66L124.92 122.02L119.8 127.51L114.83 133.13L110.02 138.87L105.36 144.74L100.87 150.73L96.53 156.84L92.36 163.06L88.35 169.39L84.51 175.82L80.85 182.36L77.36 188.99L74.05 195.72L70.91 202.54L67.96 209.45L65.2 216.44L62.62 223.52L60.24 230.67L58.05 237.9L56.05 245.19L54.25 252.56L52.66 259.98L51.26 267.47L50.08 275.01L49.1 282.6L48.34 290.25L47.79 297.94L47.46 305.67L47.35 313.44L47.58 324.93L48.28 336.3L49.42 347.55L51.01 358.66L53.03 369.63L55.48 380.45L58.34 391.1L61.6 401.58L65.27 411.89L69.32 422L73.75 431.91L78.55 441.62L83.72 451.12L89.23 460.38L95.09 469.41L101.28 478.2L107.8 486.74L114.63 495.02L121.77 503.02L129.2 510.75L136.93 518.18L144.93 525.32L153.21 532.15L161.74 538.67L170.53 544.86L179.57 550.72L188.83 556.23L198.32 561.4L208.03 566.2L217.95 570.63L228.06 574.68L238.36 578.35L248.85 581.62L259.5 584.48L270.31 586.92L281.28 588.94L292.39 590.53L303.64 591.68L315.01 592.37L326.5 592.6L334.28 592.49L342.02 592.16L349.71 591.61L357.36 590.85L364.97 589.87L372.51 588.69L380.01 587.29L387.44 585.7L394.81 583.9L402.11 581.9L409.34 579.71L416.5 577.32L423.58 574.75L430.58 571.98L437.49 569.03L444.32 565.9L451.06 562.58L457.7 559.09L464.24 555.42L470.67 551.59L477.01 547.58L483.23 543.4L489.34 539.07L495.33 534.57L501.21 529.91L506.96 525.09L512.58 520.13L518.07 515.01L523.43 509.74L528.65 504.33L533.73 498.78L538.67 493.08L543.46 487.25L548.09 481.29L552.57 475.19L556.89 468.96L561.05 462.61L565.04 456.13L568.86 449.54L572.51 442.82L570.25 443.58L567.99 444.31L565.73 445.03L563.46 445.73L561.19 446.41L558.91 447.08L556.64 447.72L554.35 448.34L552.07 448.95L549.78 449.54L547.49 450.1L545.2 450.65L542.9 451.18L540.6 451.69L538.3 452.18L536 452.65L533.69 453.1L531.38 453.54L529.06 453.95L526.75 454.34L524.43 454.72L522.11 455.08L519.78 455.41L517.45 455.73L515.12 456.03L512.79 456.31L510.46 456.57L508.12 456.81L505.78 457.03L503.43 457.24L501.09 457.42L498.74 457.58L496.39 457.73L494.04 457.85L491.68 457.96L489.33 458.05L486.97 458.11L484.6 458.16L482.24 458.19L479.87 458.2L467.6 457.95L455.46 457.21L443.45 455.99L431.58 454.29L419.87 452.13L408.32 449.52L396.94 446.47L385.75 442.98L374.75 439.06L363.95 434.74L353.36 430L342.99 424.88L332.85 419.36L322.96 413.47L313.31 407.22L303.93 400.6L294.81 393.65L285.97 386.35L277.43 378.73L269.18 370.78L261.23 362.53L253.61 353.99L246.32 345.15L239.36 336.03L232.74 326.65L226.49 317L220.6 307.1L215.09 296.97L209.96 286.6L205.23 276.01L200.9 265.21L196.99 254.21L193.5 243.01L190.44 231.64L187.83 220.09L185.67 208.37L183.98 196.51L182.75 184.49L182.01 172.35L181.76 160.08L181.77 157.71L181.8 155.34L181.85 152.98L181.92 150.62L182 148.26L182.11 145.9L182.23 143.55L182.38 141.2L182.54 138.85L182.72 136.5L182.93 134.16L183.15 131.82L183.39 129.48L183.65 127.15L183.92 124.82L184.22 122.49L184.54 120.17L184.87 117.85L185.23 115.53L185.6 113.21L186 110.9L186.41 108.59L186.84 106.28L187.29 103.98L187.76 101.68L188.25 99.38L188.76 97.09L189.28 94.8L189.83 92.52L190.39 90.23L190.98 87.95L191.58 85.68L192.2 83.4L192.84 81.14L193.5 78.87L194.18 76.61L194.88 74.35L195.6 72.09L196.33 69.84L197.09 67.6L190.37 71.25L183.78 75.07Z" id="c4ajxXme8W"></path></defs><g><g><use xlink:href="#c4ajxXme8W" opacity="1" fill="#ffffff" fill-opacity="1"></use><g><use xlink:href="#c4ajxXme8W" opacity="1" fill-opacity="0" stroke="#000000" stroke-width="1" stroke-opacity="0"></use></g></g></g></svg>