<?xml version="1.0" encoding="UTF-8" standalone="no"?>
<!DOCTYPE svg PUBLIC "-//W3C//DTD SVG 1.1//EN" "http://www.w3.org/Graphics/SVG/1.1/DTD/svg11.dtd">
<svg version="1.1" xmlns="http://www.w3.org/2000/svg" xmlns:xlink="http://www.w3.org/1999/xlink" preserveAspectRatio="xMidYMid meet" viewBox="0 0 640 640" width="640" height="640"><defs><path d="M474.48 320C474.48 326.62 474.48 379.59 474.48 386.21C474.48 471.39 405.19 540.69 320 540.69C234.81 540.69 165.52 471.39 165.52 386.21C165.52 379.59 165.52 326.62 165.52 320C165.52 313.9 160.57 308.97 154.48 308.97C148.39 308.97 143.45 313.9 143.45 320C143.45 326.62 143.45 379.59 143.45 386.21C143.45 479.83 216.76 556.46 308.97 562.2C308.97 565.91 308.97 584.49 308.97 617.93C275.86 617.93 257.47 617.93 253.79 617.93C247.7 617.93 242.76 622.86 242.76 628.97C242.76 635.07 247.7 640 253.79 640C267.03 640 372.97 640 386.21 640C392.3 640 397.24 635.07 397.24 628.97C397.24 622.86 392.3 617.93 386.21 617.93C382.53 617.93 364.14 617.93 331.03 617.93C331.03 584.49 331.03 565.91 331.03 562.2C423.24 556.46 496.55 479.82 496.55 386.21C496.55 379.59 496.55 326.62 496.55 320C496.55 313.9 491.61 308.97 485.52 308.97C479.43 308.97 474.48 313.9 474.48 320Z" id="b2xX2Y4mdJ"></path><path d="M329.94 0.4L334.83 0.9L339.66 1.59L344.43 2.47L349.13 3.53L353.76 4.78L358.32 6.2L362.8 7.79L367.2 9.55L371.51 11.48L375.73 13.57L379.86 15.81L383.89 18.21L387.82 20.76L391.64 23.45L395.35 26.28L398.95 29.26L402.43 32.36L405.79 35.59L409.02 38.95L412.12 42.43L415.09 46.03L417.93 49.74L420.62 53.56L423.17 57.49L425.57 61.52L427.81 65.65L429.9 69.87L431.83 74.18L433.59 78.58L435.18 83.06L436.6 87.61L437.85 92.25L438.91 96.95L439.79 101.72L440.48 106.55L440.98 111.44L441.28 116.38L441.38 121.38L441.38 386.21L441.28 391.2L440.98 396.15L440.48 401.04L439.79 405.87L438.91 410.64L437.85 415.34L436.6 419.97L435.18 424.53L433.59 429.01L431.83 433.41L429.9 437.72L427.81 441.94L425.57 446.07L423.17 450.09L420.62 454.02L417.93 457.84L415.09 461.56L412.12 465.15L409.02 468.63L405.79 471.99L402.43 475.23L398.95 478.33L395.35 481.3L391.64 484.13L387.82 486.83L383.89 489.37L379.86 491.77L375.73 494.02L371.51 496.1L367.2 498.03L362.8 499.79L358.32 501.39L353.76 502.81L349.13 504.05L344.43 505.12L339.66 505.99L334.83 506.68L329.94 507.18L325 507.48L320 507.59L315 507.48L310.06 507.18L305.17 506.68L300.34 505.99L295.57 505.12L290.87 504.05L286.24 502.81L281.68 501.39L277.2 499.79L272.8 498.03L268.49 496.1L264.27 494.02L260.14 491.77L256.11 489.37L252.18 486.83L248.36 484.13L244.65 481.3L241.05 478.33L237.57 475.23L234.21 471.99L230.98 468.63L227.88 465.15L224.91 461.56L222.07 457.84L219.38 454.02L216.83 450.09L214.43 446.07L212.19 441.94L210.1 437.72L208.18 433.41L206.41 429.01L204.82 424.53L203.4 419.97L202.15 415.34L201.09 410.64L200.21 405.87L199.52 401.04L199.02 396.15L198.72 391.2L198.62 386.21L198.62 121.38L198.72 116.38L199.02 111.44L199.52 106.55L200.21 101.72L201.09 96.95L202.15 92.25L203.4 87.61L204.82 83.06L206.41 78.58L208.18 74.18L210.1 69.87L212.19 65.65L214.43 61.52L216.83 57.49L219.38 53.56L222.07 49.74L224.91 46.03L227.88 42.43L230.98 38.95L234.21 35.59L237.57 32.36L241.05 29.26L244.65 26.28L248.36 23.45L252.18 20.76L256.11 18.21L260.14 15.81L264.27 13.57L268.49 11.48L272.8 9.55L277.2 7.79L281.68 6.2L286.24 4.78L290.87 3.53L295.57 2.47L300.34 1.59L305.17 0.9L310.06 0.4L315 0.1L320 0L325 0.1L329.94 0.4ZM314.55 22.32L311.84 22.63L309.15 23.06L306.47 23.62L303.8 24.3L301.15 25.11L298.51 26.04L295.88 27.1L293.26 28.28L290.66 29.58L288.07 31.01L285.49 32.56L282.92 34.23L280.37 36.03L277.83 37.96L275.3 40.01L272.79 42.18L270.28 44.48L267.8 46.9L265.32 49.44L262.86 52.11L260.4 54.9L257.97 57.82L255.54 60.86L253.13 64.03L250.73 67.32L248.34 70.73L245.97 74.27L243.61 77.93L241.26 81.72L238.92 85.63L236.6 89.66L234.29 93.82L231.99 98.1L229.7 102.51L227.43 107.04L225.17 111.7L222.92 116.48L220.69 121.38L220.69 386.21L220.77 390.29L221.02 394.34L221.43 398.34L221.99 402.3L222.71 406.2L223.58 410.05L224.6 413.84L225.76 417.56L227.07 421.23L228.51 424.83L230.08 428.36L231.79 431.81L233.63 435.19L235.59 438.48L237.68 441.7L239.88 444.82L242.2 447.86L244.63 450.8L247.17 453.65L249.81 456.4L252.56 459.04L255.41 461.58L258.35 464.01L261.39 466.33L264.52 468.53L267.73 470.62L271.03 472.58L274.4 474.42L277.86 476.12L281.38 477.7L284.98 479.14L288.65 480.45L292.38 481.61L296.17 482.63L300.01 483.5L303.91 484.22L307.87 484.78L311.87 485.19L315.91 485.43L320 485.52L324.09 485.43L328.13 485.19L332.13 484.78L336.09 484.22L339.99 483.5L343.83 482.63L347.62 481.61L351.35 480.45L355.02 479.14L358.62 477.7L362.14 476.12L365.6 474.42L368.97 472.58L372.27 470.62L375.48 468.53L378.61 466.33L381.65 464.01L384.59 461.58L387.44 459.04L390.19 456.4L392.83 453.65L395.37 450.8L397.8 447.86L400.12 444.82L402.32 441.7L404.41 438.48L406.37 435.19L408.21 431.81L409.92 428.36L411.49 424.83L412.93 421.23L414.24 417.56L415.4 413.84L416.42 410.05L417.29 406.2L418.01 402.3L418.57 398.34L418.98 394.34L419.23 390.29L419.31 386.21L419.31 121.38L419.23 117.29L418.98 113.25L418.57 109.24L418.01 105.29L417.29 101.39L416.42 97.54L415.4 93.75L414.24 90.02L412.93 86.36L411.49 82.76L409.92 79.23L408.21 75.78L406.37 72.4L404.41 69.1L402.32 65.89L400.12 62.76L397.8 59.73L395.37 56.78L392.83 53.94L390.19 51.19L387.44 48.54L384.59 46L381.65 43.57L378.61 41.25L375.48 39.05L372.27 36.97L368.97 35.01L365.6 33.17L362.14 31.46L358.62 29.89L355.02 28.44L351.35 27.14L347.62 25.98L343.83 24.96L339.99 24.09L336.09 23.37L332.13 22.81L328.13 22.4L324.09 22.15L320 22.07L317.27 22.13L314.55 22.32Z" id="c4OQ7DWV8L"></path></defs><g><g><g><use xlink:href="#b2xX2Y4mdJ" opacity="1" fill="#ffffff" fill-opacity="1"></use><g><use xlink:href="#b2xX2Y4mdJ" opacity="1" fill-opacity="0" stroke="#000000" stroke-width="1" stroke-opacity="0"></use></g></g><g><use xlink:href="#c4OQ7DWV8L" opacity="1" fill="#ffffff" fill-opacity="1"></use><g><use xlink:href="#c4OQ7DWV8L" opacity="1" fill-opacity="0" stroke="#000000" stroke-width="1" stroke-opacity="0"></use></g></g></g></g></svg>