<?xml version="1.0" encoding="UTF-8" standalone="no"?>
<!DOCTYPE svg PUBLIC "-//W3C//DTD SVG 1.1//EN" "http://www.w3.org/Graphics/SVG/1.1/DTD/svg11.dtd">
<svg version="1.1" xmlns="http://www.w3.org/2000/svg" xmlns:xlink="http://www.w3.org/1999/xlink" preserveAspectRatio="xMidYMid meet" viewBox="0 0 640 640" width="640" height="640"><defs><path d="M628.27 68.33C643.91 52.71 643.91 27.36 628.27 11.74C612.64 -3.9 587.31 -3.9 571.68 11.74C554.9 28.52 471.01 112.41 320.01 263.41C169 112.41 85.1 28.52 68.32 11.74C52.69 -3.9 27.36 -3.9 11.73 11.74C-3.91 27.36 -3.91 52.71 11.73 68.33C28.51 85.11 112.4 169 263.41 320.01C112.4 471.01 28.51 554.9 11.73 571.68C-3.91 587.3 -3.91 612.65 11.73 628.27C19.55 636.08 29.79 639.99 40.02 639.99C50.26 639.99 60.5 636.08 68.32 628.26C85.1 611.48 169 527.59 320.01 376.59C471.01 527.59 554.9 611.48 571.68 628.26C579.5 636.08 589.74 639.99 599.98 639.99C610.21 639.99 620.45 636.08 628.27 628.26C643.91 612.64 643.91 587.29 628.27 571.67C611.49 554.89 527.6 471 376.6 320.01C527.6 169 611.49 85.11 628.27 68.33Z" id="a1PlFlmK0C"></path></defs><g><g><g><use xlink:href="#a1PlFlmK0C" opacity="1" fill="#ffffff" fill-opacity="1"></use><g><use xlink:href="#a1PlFlmK0C" opacity="1" fill-opacity="0" stroke="#000000" stroke-width="1" stroke-opacity="0"></use></g></g></g></g></svg>