<?xml version="1.0" encoding="UTF-8" standalone="no"?>
<!DOCTYPE svg PUBLIC "-//W3C//DTD SVG 1.1//EN" "http://www.w3.org/Graphics/SVG/1.1/DTD/svg11.dtd">
<svg version="1.1" xmlns="http://www.w3.org/2000/svg" xmlns:xlink="http://www.w3.org/1999/xlink" preserveAspectRatio="xMidYMid meet" viewBox="0 0 640 640" width="640" height="640"><defs><path d="M320 240C275.82 240 240 275.82 240 320C240 364.18 275.82 400 320 400C364.18 400 400 364.18 400 320C400 275.82 364.18 240 320 240Z" id="aHLiD5Eyx"></path><path d="M320 480C275.82 480 240 515.82 240 560C240 604.18 275.82 640 320 640C364.18 640 400 604.18 400 560C400 515.82 364.18 480 320 480Z" id="c3xckQkYml"></path><path d="M320 0C275.82 0 240 35.82 240 80C240 124.18 275.82 160 320 160C364.18 160 400 124.18 400 80C400 35.82 364.18 0 320 0Z" id="i1WFOiY6Kf"></path></defs><g><g><g><use xlink:href="#aHLiD5Eyx" opacity="1" fill="#ffffff" fill-opacity="1"></use><g><use xlink:href="#aHLiD5Eyx" opacity="1" fill-opacity="0" stroke="#000000" stroke-width="1" stroke-opacity="0"></use></g></g><g><use xlink:href="#c3xckQkYml" opacity="1" fill="#ffffff" fill-opacity="1"></use><g><use xlink:href="#c3xckQkYml" opacity="1" fill-opacity="0" stroke="#000000" stroke-width="1" stroke-opacity="0"></use></g></g><g><use xlink:href="#i1WFOiY6Kf" opacity="1" fill="#ffffff" fill-opacity="1"></use><g><use xlink:href="#i1WFOiY6Kf" opacity="1" fill-opacity="0" stroke="#000000" stroke-width="1" stroke-opacity="0"></use></g></g></g></g></svg>