<?xml version="1.0" encoding="UTF-8" standalone="no"?>
<!DOCTYPE svg PUBLIC "-//W3C//DTD SVG 1.1//EN" "http://www.w3.org/Graphics/SVG/1.1/DTD/svg11.dtd">
<svg version="1.1" xmlns="http://www.w3.org/2000/svg" xmlns:xlink="http://www.w3.org/1999/xlink" preserveAspectRatio="xMidYMid meet" viewBox="0.9415232104130666 2.4417535033512276 640.1169535791732 638.9854457826427" width="636.12" height="634.99"><defs><path d="M503.09 3.86L508.2 4.38L513.24 5.1L518.22 6.02L523.13 7.12L527.96 8.42L532.72 9.9L537.4 11.56L541.99 13.4L546.49 15.41L550.9 17.58L555.2 19.92L559.41 22.42L563.51 25.08L567.5 27.88L571.38 30.83L575.13 33.93L578.76 37.16L582.27 40.53L585.65 44.03L588.89 47.66L591.99 51.41L594.95 55.28L597.76 59.26L600.42 63.36L602.92 67.56L605.26 71.86L607.44 76.26L609.45 80.75L611.29 85.33L612.96 90L614.44 94.75L615.74 99.58L616.85 104.48L617.76 109.45L618.49 114.49L619.01 119.58L619.32 124.74L619.43 129.94L619.4 132.72L619.31 135.47L619.16 138.22L618.95 140.94L618.69 143.65L618.36 146.35L617.99 149.03L617.55 151.68L617.06 154.32L616.52 156.95L615.92 159.55L615.27 162.13L614.57 164.69L613.81 167.22L613 169.74L612.14 172.23L611.24 174.7L610.28 177.14L609.27 179.56L608.21 181.96L607.11 184.32L605.96 186.66L604.76 188.98L603.52 191.26L602.23 193.52L600.89 195.75L599.52 197.95L598.09 200.12L596.63 202.25L595.12 204.36L593.57 206.43L591.98 208.47L590.35 210.48L588.68 212.45L586.98 214.39L585.23 216.3L583.44 218.16L581.62 219.99L579.76 221.79L577.86 223.54L579.17 224.05L580.46 224.57L581.76 225.1L583.05 225.63L584.35 226.17L585.63 226.72L586.92 227.28L588.2 227.84L589.48 228.41L590.75 228.99L592.03 229.58L593.3 230.17L594.56 230.78L595.82 231.39L597.08 232.01L598.34 232.63L599.59 233.27L600.84 233.91L602.09 234.56L603.33 235.21L604.57 235.88L605.81 236.55L607.04 237.23L608.27 237.92L609.49 238.61L610.72 239.31L611.93 240.02L613.15 240.74L614.36 241.47L615.57 242.2L616.77 242.94L617.97 243.69L619.17 244.45L620.36 245.21L621.55 245.98L622.73 246.76L623.91 247.54L625.09 248.34L626.26 249.14L627.43 249.95L628.26 250.55L629.05 251.18L629.82 251.83L630.55 252.52L631.25 253.22L631.91 253.95L632.55 254.7L633.15 255.47L633.71 256.26L634.24 257.07L634.74 257.9L635.21 258.74L635.64 259.6L636.03 260.47L636.39 261.35L636.72 262.25L637.01 263.16L637.27 264.08L637.49 265L637.67 265.94L637.82 266.88L637.94 267.82L638.01 268.77L638.05 269.73L638.06 270.68L638.03 271.64L637.96 272.59L637.85 273.55L637.7 274.5L637.52 275.45L637.3 276.39L637.05 277.33L636.75 278.26L636.42 279.18L636.04 280.09L635.63 280.99L635.18 281.89L634.69 282.76L634.16 283.63L633.59 284.48L632.99 285.31L632.36 286.1L631.7 286.86L631.02 287.6L630.31 288.29L629.58 288.96L628.83 289.59L628.06 290.19L627.27 290.75L626.46 291.29L625.63 291.78L624.79 292.25L623.93 292.68L623.05 293.07L622.16 293.43L621.27 293.76L620.36 294.05L619.44 294.31L618.51 294.53L617.57 294.71L616.63 294.86L615.68 294.97L614.73 295.05L613.78 295.09L612.82 295.09L611.86 295.06L610.91 294.99L609.95 294.89L609 294.74L608.05 294.56L607.1 294.34L606.17 294.08L605.23 293.79L604.31 293.45L603.4 293.08L602.49 292.67L601.6 292.22L600.72 291.73L599.85 291.2L599 290.63L596.63 289.01L594.24 287.43L591.84 285.89L589.41 284.38L586.97 282.92L584.5 281.49L582.02 280.1L579.52 278.75L577 277.45L574.46 276.18L571.91 274.95L569.34 273.76L566.75 272.61L564.15 271.51L561.53 270.44L558.9 269.41L556.25 268.42L553.59 267.48L550.92 266.57L548.23 265.71L545.53 264.89L542.81 264.1L540.08 263.36L537.34 262.66L534.59 262L531.83 261.39L529.06 260.81L526.27 260.28L523.48 259.79L520.67 259.34L517.86 258.93L515.04 258.57L512.2 258.25L509.36 257.97L506.52 257.73L503.66 257.54L500.8 257.39L497.93 257.28L495.05 257.21L492.17 257.19L488.48 257.23L484.8 257.33L481.14 257.51L477.49 257.75L473.86 258.06L470.24 258.44L466.64 258.89L463.06 259.41L459.49 259.99L455.95 260.65L452.42 261.37L448.92 262.15L445.43 263.01L441.97 263.92L438.53 264.91L435.11 265.96L431.71 267.07L428.34 268.25L425 269.5L421.68 270.81L418.39 272.18L415.12 273.62L411.89 275.12L408.68 276.68L405.5 278.31L402.35 279.99L399.24 281.74L396.15 283.56L393.1 285.43L390.08 287.36L387.09 289.36L384.14 291.42L381.22 293.53L378.34 295.71L375.5 297.94L372.69 300.24L369.92 302.59L367.19 305.01L364.5 307.48L361.85 310.01L361.63 312.47L361.35 314.92L361.04 317.35L360.67 319.77L360.26 322.18L359.81 324.56L359.31 326.94L358.77 329.29L358.18 331.63L357.55 333.95L356.87 336.26L356.16 338.55L355.4 340.81L354.6 343.06L353.76 345.29L352.88 347.5L351.96 349.69L350.99 351.85L349.99 354L348.95 356.12L347.87 358.23L346.76 360.3L345.61 362.36L344.42 364.39L343.19 366.4L341.93 368.38L340.63 370.34L339.29 372.27L337.92 374.18L336.52 376.06L335.09 377.91L333.62 379.74L332.11 381.53L330.58 383.3L329.01 385.04L327.41 386.75L325.78 388.44L324.12 390.09L322.43 391.71L320.71 393.3L322.02 393.81L323.32 394.32L324.61 394.85L325.91 395.38L327.2 395.92L328.48 396.47L329.77 397.03L331.05 397.59L332.33 398.16L333.6 398.74L334.88 399.33L336.15 399.93L337.41 400.53L338.67 401.14L339.93 401.76L341.19 402.39L342.44 403.02L343.69 403.66L344.94 404.31L346.18 404.97L347.42 405.63L348.66 406.3L349.89 406.98L351.12 407.67L352.34 408.37L353.56 409.07L354.78 409.78L356 410.5L357.21 411.22L358.41 411.95L359.62 412.7L360.82 413.44L362.01 414.2L363.2 414.96L364.39 415.73L365.58 416.51L366.76 417.3L367.93 418.09L369.11 418.89L370.28 419.7L371.1 420.3L371.9 420.93L372.66 421.59L373.4 422.27L374.09 422.98L374.76 423.7L375.39 424.45L375.99 425.22L376.56 426.01L377.09 426.82L377.59 427.65L378.06 428.49L378.49 429.35L378.88 430.22L379.24 431.11L379.57 432.01L379.86 432.91L380.12 433.83L380.34 434.76L380.52 435.69L380.67 436.63L380.79 437.58L380.86 438.53L380.91 439.48L380.91 440.44L380.88 441.39L380.81 442.35L380.7 443.3L380.56 444.25L380.37 445.2L380.15 446.14L379.9 447.08L379.6 448.01L379.27 448.93L378.89 449.85L378.48 450.75L378.03 451.64L377.54 452.52L377.01 453.38L376.44 454.23L375.84 455.06L375.21 455.86L374.55 456.62L373.87 457.35L373.16 458.05L372.43 458.71L371.68 459.34L370.91 459.94L370.12 460.51L369.31 461.04L368.48 461.54L367.64 462L366.78 462.43L365.9 462.83L365.01 463.19L364.12 463.51L363.21 463.8L362.29 464.06L361.36 464.28L360.42 464.46L359.48 464.61L358.53 464.73L357.58 464.8L356.63 464.84L355.67 464.85L354.71 464.82L353.76 464.75L352.8 464.64L351.85 464.5L350.9 464.31L349.95 464.09L349.02 463.84L348.08 463.54L347.16 463.21L346.25 462.83L345.34 462.42L344.45 461.97L343.57 461.48L342.7 460.96L341.85 460.39L339.48 458.77L337.1 457.18L334.69 455.64L332.26 454.14L329.82 452.67L327.35 451.24L324.87 449.86L322.37 448.51L319.85 447.2L317.31 445.93L314.76 444.71L312.19 443.52L309.6 442.37L307 441.26L304.38 440.19L301.75 439.17L299.1 438.18L296.44 437.23L293.77 436.33L291.08 435.46L288.38 434.64L285.66 433.86L282.93 433.12L280.19 432.42L277.44 431.76L274.68 431.14L271.9 430.57L269.12 430.04L266.33 429.54L263.52 429.1L260.71 428.69L257.89 428.32L255.05 428L252.21 427.72L249.37 427.49L246.51 427.29L243.65 427.14L240.78 427.03L237.9 426.97L235.02 426.95L228.83 427.05L222.68 427.34L216.57 427.83L210.49 428.51L204.46 429.38L198.49 430.44L192.56 431.68L186.69 433.09L180.88 434.69L175.14 436.46L169.46 438.39L163.86 440.5L158.34 442.78L152.9 445.21L147.54 447.81L142.27 450.56L137.09 453.47L132.01 456.53L127.04 459.74L122.16 463.09L117.4 466.59L112.75 470.22L108.21 474L103.8 477.91L99.51 481.95L95.35 486.11L91.33 490.41L87.44 494.83L83.69 499.36L80.08 504.02L76.63 508.79L73.33 513.67L70.18 518.66L67.2 523.76L64.38 528.96L61.73 534.26L59.25 539.65L56.95 545.15L54.83 550.73L52.89 556.4L52.72 556.98L52.55 557.55L52.4 558.13L52.27 558.71L52.15 559.28L52.04 559.86L51.95 560.44L51.87 561.02L51.8 561.6L51.75 562.18L51.71 562.76L51.69 563.34L51.68 563.92L51.68 564.5L51.7 565.08L51.73 565.66L51.77 566.23L51.83 566.8L51.9 567.37L51.99 567.94L52.08 568.51L52.2 569.08L52.32 569.64L52.46 570.2L52.61 570.75L52.78 571.31L52.95 571.86L53.15 572.4L53.35 572.95L53.57 573.49L53.8 574.02L54.04 574.55L54.3 575.08L54.57 575.6L54.86 576.12L55.15 576.63L55.46 577.13L55.79 577.63L56.12 578.13L56.47 578.62L56.83 579.1L57.2 579.57L57.58 580.03L57.96 580.48L58.36 580.92L58.77 581.35L59.18 581.76L59.6 582.17L60.03 582.56L60.47 582.95L60.92 583.32L61.38 583.68L61.84 584.03L62.31 584.37L62.79 584.69L63.27 585.01L63.76 585.31L64.26 585.6L64.76 585.88L65.27 586.15L65.79 586.4L66.31 586.65L66.84 586.88L67.38 587.09L67.92 587.3L68.46 587.49L69.01 587.67L69.57 587.84L70.13 587.99L70.69 588.14L71.26 588.26L71.83 588.38L72.41 588.48L72.99 588.57L73.58 588.65L74.17 588.71L74.76 588.76L75.35 588.79L75.95 588.81L76.55 588.82L292.71 588.82L293.73 588.84L294.75 588.9L295.75 589L296.74 589.14L297.72 589.32L298.68 589.54L299.63 589.79L300.56 590.08L301.48 590.41L302.38 590.77L303.26 591.16L304.13 591.59L304.97 592.04L305.8 592.53L306.6 593.05L307.38 593.6L308.14 594.18L308.88 594.79L309.59 595.42L310.28 596.08L310.94 596.77L311.57 597.48L312.18 598.21L312.76 598.97L313.31 599.75L313.83 600.56L314.32 601.38L314.78 602.22L315.21 603.08L315.6 603.97L315.96 604.87L316.29 605.78L316.58 606.71L316.83 607.66L317.05 608.62L317.23 609.6L317.37 610.59L317.47 611.59L317.53 612.6L317.55 613.62L317.53 614.64L317.47 615.65L317.37 616.66L317.23 617.64L317.05 618.62L316.83 619.58L316.58 620.53L316.29 621.46L315.96 622.38L315.6 623.28L315.21 624.16L314.78 625.02L314.32 625.86L313.83 626.69L313.31 627.49L312.76 628.27L312.18 629.03L311.57 629.76L310.94 630.48L310.28 631.16L309.59 631.82L308.88 632.46L308.14 633.06L307.38 633.64L306.6 634.19L305.8 634.71L304.97 635.2L304.13 635.66L303.26 636.08L302.38 636.48L301.48 636.84L300.56 637.16L299.63 637.45L298.68 637.71L297.72 637.92L296.74 638.1L295.75 638.24L294.75 638.34L293.73 638.41L292.71 638.43L76.55 638.43L74.75 638.41L72.96 638.34L71.17 638.24L69.39 638.1L67.63 637.91L65.87 637.68L64.13 637.42L62.4 637.11L60.68 636.77L58.97 636.38L57.28 635.96L55.6 635.49L53.93 634.99L52.28 634.45L50.65 633.87L49.03 633.26L47.42 632.61L45.84 631.91L44.27 631.19L42.72 630.42L41.19 629.62L39.68 628.79L38.18 627.91L36.71 627L35.26 626.06L33.83 625.08L32.42 624.07L31.03 623.02L29.67 621.94L28.32 620.82L27.01 619.67L25.71 618.49L24.45 617.27L23.2 616.02L21.99 614.74L20.8 613.42L19.64 612.07L18.5 610.69L17.39 609.28L16.31 607.84L15.27 606.37L14.26 604.89L13.29 603.39L12.37 601.87L11.48 600.33L10.63 598.78L9.81 597.22L9.04 595.64L8.31 594.05L7.61 592.45L6.96 590.83L6.35 589.2L5.77 587.56L5.24 585.91L4.74 584.25L4.28 582.58L3.87 580.9L3.49 579.22L3.16 577.52L2.87 575.82L2.61 574.11L2.4 572.4L2.22 570.68L2.09 568.96L2 567.23L1.95 565.5L1.94 563.77L1.97 562.03L2.05 560.29L2.16 558.55L2.32 556.81L2.51 555.07L2.75 553.33L3.03 551.59L3.35 549.85L3.72 548.12L4.12 546.39L4.57 544.66L5.06 542.93L5.59 541.21L7.32 536.06L9.17 530.97L11.14 525.93L13.22 520.96L15.42 516.05L17.72 511.19L20.14 506.41L22.67 501.68L25.31 497.03L28.05 492.44L30.89 487.92L33.83 483.47L36.88 479.09L40.02 474.79L43.25 470.56L46.58 466.4L50.01 462.33L53.52 458.33L57.12 454.41L60.81 450.57L64.58 446.81L68.43 443.14L72.37 439.55L76.39 436.05L80.48 432.64L84.65 429.31L88.89 426.07L93.2 422.93L97.58 419.88L102.03 416.92L106.55 414.06L111.13 411.29L115.78 408.63L120.48 406.06L125.25 403.59L130.07 401.22L134.94 398.96L139.87 396.8L144.85 394.75L149.88 392.81L148.01 391.05L146.17 389.26L144.37 387.44L142.61 385.57L140.88 383.67L139.2 381.74L137.55 379.77L135.94 377.77L134.37 375.74L132.84 373.67L131.35 371.58L129.9 369.45L128.5 367.29L127.14 365.1L125.82 362.88L124.55 360.64L123.32 358.36L122.14 356.06L121 353.73L119.91 351.38L118.87 349L117.88 346.59L116.93 344.16L116.03 341.71L115.19 339.23L114.39 336.73L113.64 334.21L112.95 331.66L112.31 329.1L111.72 326.52L111.18 323.91L110.7 321.29L110.27 318.65L109.9 315.99L109.58 313.31L109.32 310.62L109.11 307.91L108.97 305.19L108.88 302.45L108.85 299.69L108.96 294.49L109.27 289.33L109.79 284.24L110.51 279.2L111.43 274.23L112.54 269.33L113.84 264.5L115.32 259.75L116.98 255.08L118.82 250.5L120.84 246.01L123.02 241.61L125.36 237.31L127.86 233.11L130.52 229.02L133.33 225.03L136.29 221.17L139.39 217.42L142.63 213.79L146.01 210.29L149.51 206.92L153.15 203.68L156.9 200.59L160.78 197.64L164.77 194.83L168.87 192.18L173.07 189.68L177.38 187.34L181.79 185.16L186.29 183.15L190.88 181.32L195.56 179.66L200.31 178.18L205.15 176.88L210.06 175.77L215.04 174.85L220.08 174.14L225.19 173.62L230.35 173.3L235.56 173.2L239.54 173.26L243.49 173.44L247.4 173.74L251.28 174.16L255.12 174.7L258.93 175.35L262.7 176.12L266.43 176.99L270.11 177.97L273.75 179.06L277.34 180.26L280.89 181.56L284.38 182.96L287.82 184.46L291.21 186.06L294.54 187.76L297.82 189.55L301.04 191.43L304.19 193.4L307.28 195.46L310.31 197.61L313.27 199.85L316.17 202.16L318.99 204.56L321.74 207.04L324.42 209.6L327.02 212.24L329.55 214.95L332 217.73L334.36 220.58L336.64 223.5L338.84 226.49L340.95 229.54L342.98 232.66L344.91 235.84L346.75 239.08L348.5 242.38L350.15 245.73L351.71 249.14L353.16 252.6L354.18 251.87L355.21 251.13L356.24 250.41L357.27 249.69L358.31 248.97L359.35 248.26L360.39 247.56L361.44 246.86L362.49 246.17L363.55 245.48L364.61 244.8L365.67 244.12L366.74 243.45L367.81 242.79L368.88 242.13L369.96 241.47L371.04 240.83L372.13 240.18L373.22 239.55L374.31 238.92L375.41 238.29L376.51 237.67L377.61 237.06L378.72 236.45L379.83 235.85L380.94 235.25L382.06 234.66L383.18 234.07L384.31 233.5L385.44 232.92L386.57 232.35L387.71 231.79L388.85 231.24L389.99 230.69L391.14 230.14L392.29 229.6L393.44 229.07L394.6 228.54L395.76 228.02L396.92 227.51L397.18 227.39L397.44 227.28L397.69 227.17L397.95 227.06L398.21 226.95L398.46 226.84L398.72 226.73L398.98 226.62L399.24 226.51L399.49 226.4L399.75 226.29L400.01 226.18L400.27 226.07L400.52 225.96L400.78 225.85L401.04 225.75L401.3 225.64L401.56 225.53L401.81 225.43L402.07 225.32L402.33 225.21L402.59 225.11L402.85 225L403.11 224.9L403.37 224.79L403.63 224.69L403.88 224.59L404.14 224.48L404.4 224.38L404.66 224.28L404.92 224.17L405.18 224.07L405.44 223.97L405.7 223.87L405.96 223.76L406.22 223.66L406.48 223.56L406.74 223.46L407 223.36L407.26 223.26L405.38 221.51L403.53 219.71L401.72 217.89L399.95 216.02L398.21 214.12L396.52 212.18L394.86 210.21L393.24 208.21L391.66 206.17L390.12 204.11L388.63 202L387.17 199.87L385.76 197.71L384.39 195.52L383.07 193.29L381.79 191.04L380.56 188.76L379.37 186.46L378.22 184.12L377.13 181.76L376.08 179.38L375.08 176.96L374.13 174.53L373.23 172.07L372.38 169.59L371.57 167.08L370.82 164.55L370.13 162L369.48 159.43L368.89 156.84L368.35 154.23L367.86 151.6L367.43 148.95L367.06 146.28L366.74 143.6L366.48 140.9L366.27 138.18L366.12 135.45L366.03 132.7L366 129.94L366.11 124.74L366.42 119.58L366.94 114.49L367.67 109.45L368.58 104.48L369.69 99.58L370.99 94.75L372.47 90L374.14 85.33L375.98 80.75L377.99 76.26L380.17 71.86L382.51 67.56L385.01 63.36L387.67 59.26L390.48 55.28L393.44 51.41L396.54 47.66L399.78 44.03L403.16 40.53L406.66 37.16L410.3 33.93L414.05 30.83L417.93 27.88L421.92 25.08L426.02 22.42L430.22 19.92L434.53 17.58L438.94 15.41L443.44 13.4L448.03 11.56L452.71 9.9L457.46 8.42L462.3 7.12L467.21 6.02L472.19 5.1L477.23 4.38L482.34 3.86L487.5 3.55L492.71 3.44L497.93 3.55L503.09 3.86ZM229.26 223.06L226.15 223.37L223.09 223.81L220.06 224.37L217.08 225.04L214.14 225.83L211.24 226.73L208.4 227.74L205.61 228.85L202.88 230.07L200.2 231.4L197.58 232.82L195.02 234.34L192.53 235.95L190.1 237.66L187.75 239.45L185.47 241.33L183.26 243.3L181.13 245.35L179.07 247.48L177.11 249.68L175.22 251.96L173.42 254.31L171.71 256.73L170.1 259.22L168.58 261.77L167.15 264.39L165.83 267.06L164.6 269.79L163.49 272.58L162.48 275.42L161.57 278.3L160.78 281.24L160.11 284.22L159.55 287.24L159.11 290.3L158.8 293.4L158.61 296.53L158.54 299.69L158.61 302.86L158.8 305.99L159.11 309.09L159.55 312.15L160.11 315.17L160.78 318.15L161.57 321.08L162.48 323.97L163.49 326.81L164.6 329.6L165.83 332.33L167.15 335L168.58 337.61L170.1 340.17L171.71 342.66L173.42 345.08L175.22 347.43L177.11 349.71L179.07 351.91L181.13 354.04L183.26 356.09L185.47 358.05L187.75 359.94L190.1 361.73L192.53 363.44L195.02 365.05L197.58 366.57L200.2 367.99L202.88 369.31L205.61 370.53L208.4 371.65L211.24 372.66L214.14 373.56L217.08 374.35L220.06 375.02L223.09 375.58L226.15 376.01L229.26 376.33L232.39 376.52L235.56 376.59L238.73 376.52L241.87 376.33L244.97 376.01L248.04 375.58L251.07 375.02L254.05 374.35L256.99 373.56L259.88 372.66L262.73 371.65L265.52 370.53L268.25 369.31L270.93 367.99L273.55 366.57L276.11 365.05L278.6 363.44L281.02 361.73L283.38 359.94L285.66 358.05L287.87 356.09L290 354.04L292.05 351.91L294.02 349.71L295.91 347.43L297.7 345.08L299.41 342.66L301.03 340.17L302.55 337.61L303.97 335L305.3 332.33L306.52 329.6L307.64 326.81L308.65 323.97L309.55 321.08L310.34 318.15L311.02 315.17L311.57 312.15L312.01 309.09L312.33 305.99L312.52 302.86L312.58 299.69L312.52 296.53L312.33 293.4L312.01 290.3L311.57 287.24L311.02 284.22L310.34 281.24L309.55 278.3L308.65 275.42L307.64 272.58L306.52 269.79L305.3 267.06L303.97 264.39L302.55 261.77L301.03 259.22L299.41 256.73L297.7 254.31L295.91 251.96L294.02 249.68L292.05 247.48L290 245.35L287.87 243.3L285.66 241.33L283.38 239.45L281.02 237.66L278.6 235.95L276.11 234.34L273.55 232.82L270.93 231.4L268.25 230.07L265.52 228.85L262.73 227.74L259.88 226.73L256.99 225.83L254.05 225.04L251.07 224.37L248.04 223.81L244.97 223.37L241.87 223.06L238.73 222.87L235.56 222.8L232.39 222.87L229.26 223.06ZM486.41 53.31L483.3 53.62L480.24 54.06L477.21 54.62L474.23 55.29L471.29 56.08L468.4 56.98L465.55 57.99L462.76 59.1L460.03 60.32L457.35 61.65L454.73 63.07L452.17 64.59L449.68 66.2L447.26 67.91L444.9 69.7L442.62 71.58L440.41 73.55L438.28 75.6L436.23 77.73L434.26 79.93L432.37 82.21L430.57 84.56L428.86 86.98L427.25 89.47L425.73 92.02L424.3 94.64L422.98 97.31L421.75 100.04L420.64 102.83L419.63 105.67L418.72 108.55L417.93 111.49L417.26 114.47L416.7 117.49L416.26 120.55L415.95 123.65L415.76 126.78L415.69 129.94L415.76 133.11L415.95 136.24L416.26 139.34L416.7 142.4L417.26 145.42L417.93 148.4L418.72 151.33L419.63 154.22L420.64 157.06L421.75 159.84L422.98 162.57L424.3 165.25L425.73 167.86L427.25 170.42L428.86 172.9L430.57 175.32L432.37 177.68L434.26 179.96L436.23 182.16L438.28 184.29L440.41 186.34L442.62 188.3L444.9 190.18L447.26 191.98L449.68 193.69L452.17 195.3L454.73 196.82L457.35 198.24L460.03 199.56L462.76 200.78L465.55 201.9L468.4 202.91L471.29 203.81L474.23 204.6L477.21 205.27L480.24 205.83L483.3 206.27L486.41 206.58L489.54 206.77L492.71 206.84L495.88 206.77L499.02 206.58L502.12 206.27L505.19 205.83L508.22 205.27L511.2 204.6L514.14 203.81L517.03 202.91L519.87 201.9L522.66 200.78L525.4 199.56L528.08 198.24L530.7 196.82L533.25 195.3L535.75 193.69L538.17 191.98L540.53 190.18L542.81 188.3L545.02 186.34L547.15 184.29L549.2 182.16L551.17 179.96L553.06 177.68L554.85 175.32L556.56 172.9L558.18 170.42L559.7 167.86L561.12 165.25L562.45 162.57L563.67 159.84L564.79 157.06L565.8 154.22L566.7 151.33L567.49 148.4L568.17 145.42L568.72 142.4L569.16 139.34L569.48 136.24L569.67 133.11L569.73 129.94L569.67 126.78L569.48 123.65L569.16 120.55L568.72 117.49L568.17 114.47L567.49 111.49L566.7 108.55L565.8 105.67L564.79 102.83L563.67 100.04L562.45 97.31L561.12 94.64L559.7 92.02L558.18 89.47L556.56 86.98L554.85 84.56L553.06 82.21L551.17 79.93L549.2 77.73L547.15 75.6L545.02 73.55L542.81 71.58L540.53 69.7L538.17 67.91L535.75 66.2L533.25 64.59L530.7 63.07L528.08 61.65L525.4 60.32L522.66 59.1L519.87 57.99L517.03 56.98L514.14 56.08L511.2 55.29L508.22 54.62L505.19 54.06L502.12 53.62L499.02 53.31L495.88 53.12L492.71 53.05L489.54 53.12L486.41 53.31Z" id="a5H1Mfd5UG"></path></defs><g><g><use xlink:href="#a5H1Mfd5UG" opacity="1" fill="#ffffff" fill-opacity="1"></use><g><use xlink:href="#a5H1Mfd5UG" opacity="1" fill-opacity="0" stroke="#000000" stroke-width="1" stroke-opacity="0"></use></g></g></g></svg>