<?xml version="1.0" encoding="UTF-8" standalone="no"?>
<!DOCTYPE svg PUBLIC "-//W3C//DTD SVG 1.1//EN" "http://www.w3.org/Graphics/SVG/1.1/DTD/svg11.dtd">
<svg version="1.1" xmlns="http://www.w3.org/2000/svg" xmlns:xlink="http://www.w3.org/1999/xlink" preserveAspectRatio="xMidYMid meet" viewBox="0 0 640 640" width="640" height="640"><defs><path d="M346.21 1.06L359.1 2.38L371.84 4.2L384.41 6.51L396.81 9.32L409.02 12.6L421.04 16.34L432.85 20.54L444.44 25.19L455.81 30.27L466.93 35.77L477.82 41.69L488.44 48.01L498.79 54.73L508.87 61.82L518.65 69.29L528.14 77.12L537.31 85.31L546.17 93.83L554.69 102.69L562.88 111.86L570.71 121.35L578.18 131.13L585.27 141.21L591.99 151.56L598.31 162.19L604.23 173.07L609.73 184.2L614.81 195.56L619.46 207.15L623.66 218.96L627.4 230.98L630.68 243.19L633.49 255.59L635.8 268.16L637.62 280.9L638.94 293.79L639.73 306.83L640 320L639.73 333.17L638.94 346.21L637.62 359.1L635.8 371.84L633.49 384.41L630.68 396.81L627.4 409.02L623.66 421.04L619.46 432.85L614.81 444.44L609.73 455.8L604.23 466.93L598.31 477.81L591.99 488.44L585.27 498.79L578.18 508.87L570.71 518.65L562.88 528.14L554.69 537.31L546.17 546.17L537.31 554.69L528.14 562.88L518.65 570.71L508.87 578.18L498.79 585.27L488.44 591.99L477.81 598.31L466.93 604.23L455.8 609.73L444.44 614.81L432.85 619.46L421.04 623.66L409.02 627.4L396.81 630.68L384.41 633.49L371.84 635.8L359.1 637.62L346.21 638.94L333.17 639.73L320 640L306.83 639.73L293.79 638.94L280.9 637.62L268.16 635.8L255.59 633.49L243.19 630.68L230.98 627.4L218.96 623.66L207.15 619.46L195.56 614.81L184.2 609.73L173.07 604.23L162.19 598.31L151.56 591.99L141.21 585.27L131.13 578.18L121.35 570.71L111.86 562.88L102.69 554.69L93.83 546.17L85.31 537.31L77.12 528.14L69.29 518.65L61.82 508.87L54.73 498.79L48.01 488.44L41.69 477.81L35.77 466.93L30.27 455.8L25.19 444.44L20.54 432.85L16.34 421.04L12.6 409.02L9.32 396.81L6.51 384.41L4.2 371.84L2.38 359.1L1.06 346.21L0.27 333.17L0 320L0.27 306.83L1.06 293.79L2.38 280.9L4.2 268.16L6.51 255.59L9.32 243.19L12.6 230.98L16.34 218.96L20.54 207.15L25.19 195.56L30.27 184.2L35.77 173.07L41.69 162.19L48.01 151.56L54.73 141.21L61.82 131.13L69.29 121.35L77.12 111.86L85.31 102.69L93.83 93.83L102.69 85.31L111.86 77.12L121.35 69.29L131.13 61.82L141.21 54.73L151.56 48.01L162.19 41.69L173.07 35.77L184.2 30.27L195.56 25.19L207.15 20.54L218.96 16.34L230.98 12.6L243.19 9.32L255.59 6.51L268.16 4.2L280.9 2.38L293.79 1.06L306.83 0.27L320 0L333.17 0.27L346.21 1.06ZM297.14 41.85L285.9 43L274.79 44.58L263.83 46.61L253.02 49.05L242.37 51.91L231.89 55.18L221.59 58.84L211.48 62.89L201.56 67.32L191.86 72.12L182.37 77.28L173.1 82.8L164.08 88.65L155.29 94.84L146.75 101.36L138.48 108.19L130.48 115.32L122.76 122.76L115.32 130.48L108.19 138.48L101.36 146.75L94.84 155.29L88.65 164.07L82.8 173.1L77.28 182.37L72.12 191.86L67.32 201.56L62.89 211.47L58.84 221.59L55.18 231.88L51.91 242.36L49.05 253.01L46.61 263.83L44.58 274.79L43 285.9L41.85 297.14L41.16 308.51L40.93 320L41.16 331.49L41.85 342.86L43 354.1L44.58 365.21L46.61 376.17L49.05 386.99L51.91 397.64L55.18 408.12L58.84 418.41L62.89 428.53L67.32 438.44L72.12 448.14L77.28 457.63L82.8 466.9L88.65 475.93L94.84 484.71L101.36 493.25L108.19 501.52L115.32 509.52L122.76 517.24L130.48 524.68L138.48 531.81L146.75 538.64L155.29 545.16L164.08 551.35L173.1 557.2L182.37 562.72L191.86 567.88L201.56 572.68L211.48 577.11L221.59 581.16L231.89 584.82L242.37 588.09L253.02 590.95L263.83 593.39L274.79 595.42L285.9 597L297.14 598.15L308.51 598.84L320 599.07L331.49 598.84L342.86 598.15L354.1 597L365.21 595.42L376.17 593.39L386.98 590.95L397.63 588.09L408.11 584.82L418.41 581.16L428.52 577.11L438.44 572.68L448.14 567.88L457.63 562.72L466.9 557.2L475.92 551.35L484.71 545.16L493.25 538.64L501.52 531.81L509.52 524.68L517.24 517.24L524.68 509.52L531.81 501.52L538.64 493.25L545.16 484.71L551.35 475.92L557.2 466.9L562.72 457.63L567.88 448.14L572.68 438.44L577.11 428.52L581.16 418.41L584.82 408.11L588.09 397.63L590.95 386.98L593.39 376.17L595.42 365.21L597 354.1L598.15 342.86L598.84 331.49L599.07 320L598.84 308.51L598.15 297.14L597 285.9L595.42 274.79L593.39 263.83L590.95 253.02L588.09 242.37L584.82 231.89L581.16 221.59L577.11 211.48L572.68 201.56L567.88 191.86L562.72 182.37L557.2 173.1L551.35 164.08L545.16 155.29L538.64 146.75L531.81 138.48L524.68 130.48L517.24 122.76L509.52 115.32L501.52 108.19L493.25 101.36L484.71 94.84L475.92 88.65L466.9 82.8L457.63 77.28L448.14 72.12L438.44 67.32L428.52 62.89L418.41 58.84L408.11 55.18L397.63 51.91L386.98 49.05L376.17 46.61L365.21 44.58L354.1 43L342.86 41.85L331.49 41.16L320 40.93L308.51 41.16L297.14 41.85Z" id="a1EDGYCRaA"></path><path d="M340.46 299.54C340.46 216.09 340.46 169.74 340.46 160.46C340.46 149.16 331.3 140 320 140C308.7 140 299.54 149.16 299.54 160.46C299.54 169.74 299.54 216.09 299.54 299.54C216.09 299.54 169.74 299.54 160.46 299.54C149.16 299.54 140 308.7 140 320C140 331.3 149.16 340.46 160.46 340.46C169.74 340.46 216.09 340.46 299.54 340.46C299.54 423.91 299.54 470.26 299.54 479.54C299.54 490.84 308.7 500 320 500C331.3 500 340.46 490.84 340.46 479.54C340.46 470.26 340.46 423.91 340.46 340.46C423.91 340.46 470.26 340.46 479.54 340.46C490.84 340.46 500 331.3 500 320C500 308.7 490.84 299.54 479.54 299.54C461 299.54 414.64 299.54 340.46 299.54Z" id="a1lnDMLQqx"></path></defs><g><g><g><use xlink:href="#a1EDGYCRaA" opacity="1" fill="#ffffff" fill-opacity="1"></use><g><use xlink:href="#a1EDGYCRaA" opacity="1" fill-opacity="0" stroke="#000000" stroke-width="1" stroke-opacity="0"></use></g></g><g><use xlink:href="#a1lnDMLQqx" opacity="1" fill="#ffffff" fill-opacity="1"></use><g><use xlink:href="#a1lnDMLQqx" opacity="1" fill-opacity="0" stroke="#000000" stroke-width="1" stroke-opacity="0"></use></g></g></g></g></svg>