<?xml version="1.0" encoding="UTF-8" standalone="no"?>
<!DOCTYPE svg PUBLIC "-//W3C//DTD SVG 1.1//EN" "http://www.w3.org/Graphics/SVG/1.1/DTD/svg11.dtd">
<svg version="1.1" xmlns="http://www.w3.org/2000/svg" xmlns:xlink="http://www.w3.org/1999/xlink" preserveAspectRatio="xMidYMid meet" viewBox="0 0 640 640" width="640" height="640"><defs><path d="M551.87 32.33L555.74 32.72L559.56 33.27L563.34 33.97L567.06 34.81L570.72 35.79L574.33 36.92L577.87 38.18L581.35 39.57L584.76 41.1L588.1 42.75L591.36 44.52L594.54 46.41L597.65 48.43L600.67 50.55L603.6 52.79L606.45 55.14L609.2 57.59L611.85 60.15L614.41 62.8L616.86 65.55L619.21 68.4L621.45 71.33L623.57 74.35L625.59 77.46L627.48 80.64L629.25 83.9L630.9 87.24L632.43 90.65L633.82 94.13L635.08 97.67L636.21 101.28L637.19 104.94L638.03 108.66L638.73 112.44L639.28 116.26L639.67 120.13L639.92 124.04L640 128L640 405.33L639.92 409.29L639.67 413.2L639.28 417.07L638.73 420.9L638.03 424.67L637.19 428.39L636.21 432.06L635.08 435.66L633.82 439.2L632.43 442.68L630.9 446.09L629.25 449.43L627.48 452.69L625.59 455.88L623.57 458.98L621.45 462L619.21 464.94L616.86 467.78L614.41 470.53L611.85 473.18L609.2 475.74L606.45 478.19L603.6 480.54L600.67 482.78L597.65 484.91L594.54 486.92L591.36 488.81L588.1 490.59L584.76 492.24L581.35 493.76L577.87 495.15L574.33 496.41L570.72 497.54L567.06 498.52L563.34 499.37L559.56 500.06L555.74 500.61L551.87 501.01L547.96 501.25L544 501.33L322.64 501.33L122.3 606.73L122.03 606.87L121.75 607L121.47 607.12L121.19 607.24L120.9 607.34L120.62 607.44L120.33 607.53L120.04 607.61L119.75 607.68L119.46 607.74L119.16 607.8L118.87 607.85L118.57 607.89L118.28 607.92L117.98 607.94L117.68 607.95L117.39 607.96L117.09 607.95L116.79 607.94L116.5 607.92L116.2 607.9L115.91 607.86L115.61 607.82L115.32 607.76L115.03 607.7L114.74 607.64L114.45 607.56L114.17 607.48L113.88 607.38L113.6 607.28L113.32 607.17L113.05 607.06L112.77 606.93L112.5 606.8L112.24 606.66L111.97 606.51L111.71 606.35L111.46 606.19L111.2 606.01L110.95 605.83L110.71 605.65L110.47 605.45L110.24 605.25L110.02 605.05L109.8 604.83L109.59 604.62L109.39 604.4L109.19 604.17L109 603.94L108.81 603.7L108.64 603.46L108.47 603.21L108.31 602.96L108.15 602.71L108.01 602.45L107.86 602.19L107.73 601.92L107.61 601.65L107.49 601.38L107.38 601.11L107.28 600.83L107.18 600.55L107.1 600.26L107.02 599.98L106.95 599.69L106.88 599.4L106.83 599.1L106.78 598.81L106.74 598.51L106.71 598.22L106.69 597.92L106.68 597.62L106.67 597.32L106.68 597.02L106.69 596.71L106.71 596.41L106.74 596.11L106.78 595.8L106.82 595.5L106.88 595.2L125.65 501.33L96 501.33L92.04 501.25L88.13 501.01L84.26 500.61L80.44 500.06L76.66 499.37L72.94 498.52L69.28 497.54L65.67 496.41L62.13 495.15L58.65 493.76L55.24 492.24L51.9 490.59L48.64 488.81L45.46 486.92L42.35 484.91L39.33 482.78L36.4 480.54L33.55 478.19L30.8 475.74L28.15 473.18L25.59 470.53L23.14 467.78L20.79 464.94L18.55 462L16.43 458.98L14.41 455.88L12.52 452.69L10.75 449.43L9.1 446.09L7.57 442.68L6.18 439.2L4.92 435.66L3.79 432.06L2.81 428.39L1.97 424.67L1.27 420.9L0.72 417.07L0.33 413.2L0.08 409.29L0 405.33L0 128L0.08 124.04L0.33 120.13L0.72 116.26L1.27 112.44L1.97 108.66L2.81 104.94L3.79 101.28L4.92 97.67L6.18 94.13L7.57 90.65L9.1 87.24L10.75 83.9L12.52 80.64L14.41 77.46L16.43 74.35L18.55 71.33L20.79 68.4L23.14 65.55L25.59 62.8L28.15 60.15L30.8 57.59L33.55 55.14L36.4 52.79L39.33 50.55L42.35 48.43L45.46 46.41L48.64 44.52L51.9 42.75L55.24 41.1L58.65 39.57L62.13 38.18L65.67 36.92L69.28 35.79L72.94 34.81L76.66 33.97L80.44 33.27L84.26 32.72L88.13 32.33L92.04 32.08L96 32L544 32L547.96 32.08L551.87 32.33ZM92.92 53.4L89.88 53.59L86.87 53.9L83.89 54.32L80.96 54.86L78.07 55.52L75.22 56.29L72.41 57.16L69.66 58.14L66.95 59.22L64.3 60.41L61.7 61.69L59.17 63.07L56.69 64.55L54.27 66.11L51.92 67.77L49.64 69.51L47.43 71.33L45.29 73.24L43.23 75.23L41.24 77.29L39.33 79.43L37.51 81.64L35.77 83.92L34.11 86.27L32.55 88.69L31.07 91.17L29.69 93.7L28.41 96.3L27.22 98.95L26.14 101.66L25.16 104.41L24.29 107.22L23.52 110.07L22.86 112.96L22.32 115.89L21.9 118.87L21.59 121.88L21.4 124.92L21.33 128L21.33 405.33L21.4 408.41L21.59 411.45L21.9 414.46L22.32 417.44L22.86 420.37L23.52 423.27L24.29 426.12L25.16 428.92L26.14 431.68L27.22 434.38L28.41 437.03L29.69 439.63L31.07 442.17L32.55 444.65L34.11 447.06L35.77 449.41L37.51 451.69L39.33 453.9L41.24 456.04L43.23 458.11L45.29 460.09L47.43 462L49.64 463.83L51.92 465.57L54.27 467.22L56.69 468.79L59.17 470.26L61.7 471.64L64.3 472.93L66.95 474.11L69.66 475.19L72.41 476.17L75.22 477.05L78.07 477.81L80.96 478.47L83.89 479.01L86.87 479.44L89.88 479.75L92.92 479.93L96 480L138.67 480L138.91 480L139.15 480.01L139.38 480.02L139.62 480.04L139.86 480.07L140.09 480.1L140.33 480.13L140.56 480.17L140.79 480.21L141.02 480.26L141.25 480.32L141.48 480.38L141.71 480.44L141.93 480.51L142.16 480.59L142.38 480.66L142.6 480.75L142.81 480.84L143.03 480.93L143.24 481.03L143.45 481.13L143.66 481.24L143.87 481.35L144.07 481.47L144.27 481.59L144.47 481.71L144.67 481.84L144.86 481.98L145.05 482.12L145.24 482.26L145.42 482.41L145.6 482.56L145.78 482.72L145.96 482.88L146.13 483.04L146.3 483.21L146.46 483.38L146.62 483.56L146.78 483.74L146.93 483.92L147.08 484.11L147.23 484.3L147.37 484.49L147.5 484.69L147.63 484.89L147.76 485.09L147.88 485.29L148 485.5L148.11 485.7L148.22 485.91L148.32 486.13L148.42 486.34L148.51 486.56L148.6 486.77L148.68 486.99L148.76 487.21L148.84 487.44L148.9 487.66L148.97 487.89L149.03 488.11L149.08 488.34L149.13 488.57L149.17 488.8L149.21 489.03L149.24 489.27L149.27 489.5L149.29 489.73L149.31 489.97L149.33 490.2L149.33 490.44L149.34 490.67L149.33 490.91L149.32 491.15L149.31 491.38L149.29 491.62L149.27 491.86L149.24 492.09L149.21 492.33L149.17 492.57L149.12 492.8L132.19 577.46L315.03 481.23L315.15 481.17L315.26 481.11L315.38 481.05L315.5 481L315.61 480.94L315.73 480.89L315.85 480.84L315.97 480.79L316.09 480.74L316.21 480.7L316.33 480.65L316.45 480.61L316.57 480.57L316.7 480.52L316.82 480.49L316.94 480.45L317.07 480.41L317.19 480.38L317.31 480.34L317.44 480.31L317.56 480.28L317.69 480.25L317.82 480.23L317.94 480.2L318.07 480.18L318.2 480.15L318.32 480.13L318.45 480.11L318.58 480.09L318.71 480.08L318.84 480.06L318.96 480.05L319.09 480.04L319.22 480.03L319.35 480.02L319.48 480.01L319.61 480.01L319.74 480L319.87 480L320 480L544 480L547.08 479.93L550.12 479.75L553.13 479.44L556.11 479.01L559.04 478.47L561.93 477.81L564.78 477.05L567.59 476.17L570.34 475.19L573.05 474.11L575.7 472.93L578.3 471.64L580.83 470.26L583.31 468.79L585.73 467.22L588.08 465.57L590.36 463.83L592.57 462L594.71 460.09L596.77 458.11L598.76 456.04L600.67 453.9L602.49 451.69L604.23 449.41L605.89 447.06L607.45 444.65L608.93 442.17L610.31 439.63L611.59 437.03L612.78 434.38L613.86 431.68L614.84 428.92L615.71 426.12L616.48 423.27L617.14 420.37L617.68 417.44L618.1 414.46L618.41 411.45L618.6 408.41L618.67 405.33L618.67 128L618.6 124.92L618.41 121.88L618.1 118.87L617.68 115.89L617.14 112.96L616.48 110.07L615.71 107.22L614.84 104.41L613.86 101.66L612.78 98.95L611.59 96.3L610.31 93.7L608.93 91.17L607.45 88.69L605.89 86.27L604.23 83.92L602.49 81.64L600.67 79.43L598.76 77.29L596.77 75.23L594.71 73.24L592.57 71.33L590.36 69.51L588.08 67.77L585.73 66.11L583.31 64.55L580.83 63.07L578.3 61.69L575.7 60.41L573.05 59.22L570.34 58.14L567.59 57.16L564.78 56.29L561.93 55.52L559.04 54.86L556.11 54.32L553.13 53.9L550.12 53.59L547.08 53.4L544 53.33L96 53.33L92.92 53.4Z" id="a2at1filSG"></path></defs><g><g><g><use xlink:href="#a2at1filSG" opacity="1" fill="#ffffff" fill-opacity="1"></use><g><use xlink:href="#a2at1filSG" opacity="1" fill-opacity="0" stroke="#000000" stroke-width="1" stroke-opacity="0"></use></g></g></g></g></svg>