<?xml version="1.0" encoding="UTF-8" standalone="no"?>
<!DOCTYPE svg PUBLIC "-//W3C//DTD SVG 1.1//EN" "http://www.w3.org/Graphics/SVG/1.1/DTD/svg11.dtd">
<svg version="1.1" xmlns="http://www.w3.org/2000/svg" xmlns:xlink="http://www.w3.org/1999/xlink" preserveAspectRatio="xMidYMid meet" viewBox="0 0 640 640" width="640" height="640"><defs><path d="M320.24 0L320.36 0L320.49 0L320.61 0L320.73 0L320.85 0L320.97 0.01L321.09 0.01L321.21 0.01L321.34 0.01L321.46 0.01L321.58 0.02L321.7 0.02L321.82 0.02L321.94 0.02L322.06 0.03L322.18 0.03L322.31 0.03L322.43 0.03L322.55 0.04L322.67 0.04L322.79 0.04L322.91 0.05L323.03 0.05L323.15 0.05L323.27 0.06L323.39 0.06L323.51 0.07L323.64 0.07L323.76 0.07L323.88 0.08L324 0.08L324.12 0.09L324.24 0.09L324.36 0.09L324.48 0.1L324.6 0.1L324.84 0.11L331.08 0.28L331.09 0.29L337.62 0.58L344.12 1L350.59 1.55L357.01 2.22L363.4 3.03L369.75 3.96L376.06 5.01L382.33 6.19L388.55 7.49L394.73 8.91L400.86 10.44L406.94 12.1L412.98 13.87L418.97 15.75L424.9 17.76L430.79 19.87L436.62 22.09L442.39 24.43L448.11 26.87L453.78 29.42L459.38 32.07L464.92 34.83L470.41 37.7L475.83 40.67L481.18 43.73L486.47 46.9L491.7 50.17L496.85 53.53L501.94 56.99L506.96 60.54L511.91 64.19L516.78 67.92L521.58 71.75L526.3 75.67L530.95 79.68L535.52 83.77L540.01 87.95L544.42 92.21L548.75 96.56L552.99 100.99L553 100.99L553 101L553 101L553.01 101.01L553.01 101.01L553.01 101.01L553.02 101.02L553.02 101.02L553.03 101.03L553.04 101.04L553.05 101.05L553.07 101.06L553.08 101.07L553.09 101.08L553.1 101.08L553.1 101.09L553.11 101.1L553.11 101.1L553.12 101.1L553.12 101.11L553.13 101.12L553.13 101.12L553.13 101.13L553.14 101.13L553.14 101.14L557.13 105.47L561.05 109.88L564.89 114.36L568.64 118.9L572.32 123.52L575.91 128.21L579.41 132.96L582.83 137.78L586.16 142.66L589.41 147.61L592.56 152.62L595.63 157.69L598.6 162.82L601.48 168.01L604.27 173.25L606.96 178.56L609.55 183.92L612.05 189.34L614.45 194.8L616.74 200.33L618.94 205.9L621.04 211.52L623.03 217.19L624.92 222.91L626.7 228.68L628.38 234.49L629.95 240.34L631.41 246.24L632.76 252.18L633.99 258.17L635.12 264.19L636.13 270.25L637.03 276.35L637.81 282.48L638.47 288.66L639.02 294.86L639.45 301.1L639.75 307.37L639.94 313.67L640 320L639.94 326.09L639.77 332.14L639.49 338.17L639.09 344.17L638.59 350.14L637.98 356.08L637.25 361.99L636.42 367.86L635.49 373.7L634.44 379.5L633.3 385.27L632.05 390.99L630.7 396.68L629.24 402.33L627.69 407.95L626.04 413.51L624.29 419.04L622.44 424.52L620.5 429.96L618.46 435.35L616.33 440.7L614.1 446L611.79 451.25L609.38 456.45L606.88 461.6L604.29 466.7L601.62 471.75L598.86 476.74L596.01 481.68L593.08 486.56L590.06 491.38L586.96 496.15L583.78 500.86L580.52 505.51L577.18 510.1L573.76 514.63L570.26 519.1L566.69 523.5L563.04 527.83L559.32 532.1L559.31 532.11L559.31 532.12L559.3 532.13L559.3 532.13L559.29 532.14L559.29 532.15L559.29 532.16L559.28 532.17L559.28 532.17L559.28 532.18L559.27 532.19L559.27 532.2L559.26 532.22L559.25 532.25L559.25 532.26L559.24 532.27L559.23 532.29L559.23 532.3L559.23 532.3L559.22 532.31L559.22 532.32L559.22 532.33L559.21 532.33L559.21 532.34L559.2 532.35L559.2 532.35L559.2 532.36L559.19 532.37L559.19 532.38L559.18 532.38L559.17 532.39L559.17 532.4L559.16 532.4L559.15 532.42L559.14 532.43L559.13 532.45L559.12 532.46L559.11 532.47L559.1 532.48L559.08 532.5L559.07 532.51L559.06 532.52L559.05 532.53L559.03 532.54L559.02 532.55L559.01 532.56L558.99 532.57L558.98 532.58L558.97 532.59L558.95 532.6L558.94 532.61L558.93 532.62L558.87 532.66L558.86 532.66L558.84 532.67L558.83 532.68L558.82 532.69L558.8 532.7L558.79 532.71L558.78 532.72L558.76 532.73L558.75 532.75L558.74 532.76L558.72 532.77L558.71 532.78L558.7 532.79L558.69 532.8L558.68 532.82L558.66 532.83L558.65 532.84L554.38 537.54L550.02 542.14L545.57 546.66L541.03 551.09L536.4 555.43L531.69 559.68L526.9 563.84L522.02 567.9L517.06 571.86L512.03 575.73L506.91 579.51L501.72 583.18L496.45 586.75L491.11 590.21L485.7 593.58L480.22 596.84L474.66 599.99L469.04 603.03L463.35 605.96L457.6 608.78L451.79 611.49L445.91 614.09L439.97 616.57L433.97 618.93L427.91 621.18L421.8 623.3L415.63 625.31L409.41 627.19L403.13 628.95L396.81 630.58L390.43 632.09L384.01 633.47L377.54 634.72L371.03 635.83L364.47 636.82L357.87 637.67L351.22 638.39L344.54 638.97L337.82 639.41L331.07 639.71L331.06 639.72L324.84 639.89L324.6 639.9L324.48 639.9L324.36 639.91L324.24 639.91L324.12 639.91L324 639.92L323.88 639.92L323.76 639.93L323.64 639.93L323.51 639.93L323.39 639.94L323.27 639.94L323.15 639.95L323.03 639.95L322.91 639.95L322.79 639.96L322.67 639.96L322.55 639.96L322.43 639.97L322.31 639.97L322.18 639.97L322.06 639.97L321.94 639.98L321.82 639.98L321.7 639.98L321.58 639.98L321.46 639.99L321.34 639.99L321.21 639.99L321.09 639.99L320.97 639.99L320.85 640L320.73 640L320.61 640L320.49 640L320.36 640L320.24 640L320.12 640L320 640L319.88 640L319.76 640L319.64 640L319.51 640L319.39 640L319.27 640L319.15 640L319.03 639.99L318.91 639.99L318.79 639.99L318.66 639.99L318.54 639.99L318.42 639.98L318.3 639.98L318.18 639.98L318.06 639.98L317.94 639.98L317.81 639.97L317.69 639.97L317.57 639.97L317.45 639.96L317.33 639.96L317.21 639.96L317.09 639.95L316.97 639.95L316.84 639.95L316.72 639.94L316.6 639.94L316.48 639.94L316.36 639.93L316.24 639.93L316.12 639.93L315.75 639.92L315.63 639.91L315.51 639.91L315.39 639.91L315.27 639.9L315.14 639.9L308.93 639.74L308.92 639.72L302.17 639.42L295.46 638.98L288.79 638.4L282.15 637.69L275.56 636.84L269.01 635.85L262.5 634.74L256.04 633.49L249.62 632.12L243.25 630.61L236.93 628.98L230.67 627.23L224.45 625.35L218.29 623.35L212.18 621.23L206.13 618.99L200.14 616.63L194.2 614.16L188.33 611.56L182.52 608.86L176.77 606.04L171.09 603.12L165.47 600.08L159.92 596.94L154.44 593.68L149.04 590.33L143.7 586.87L138.44 583.3L133.25 579.64L128.14 575.88L123.1 572.02L118.15 568.06L113.27 564L108.48 559.86L103.77 555.62L99.15 551.28L94.61 546.86L90.16 542.35L85.79 537.76L81.52 533.08L81.51 533.06L81.49 533.04L81.47 533.02L81.46 533L81.44 532.99L81.42 532.97L81.41 532.95L81.39 532.94L81.37 532.92L81.35 532.9L81.34 532.89L81.32 532.87L81.3 532.86L81.28 532.84L81.26 532.83L81.24 532.81L81.23 532.8L81.21 532.78L81.19 532.77L81.17 532.75L81.15 532.74L81.13 532.72L81.12 532.71L81.1 532.69L81.08 532.68L81.06 532.66L81.04 532.65L81.03 532.63L81.01 532.61L80.99 532.6L80.97 532.58L80.96 532.56L80.94 532.55L80.92 532.53L80.91 532.51L80.89 532.49L80.87 532.47L80.86 532.45L80.84 532.43L80.83 532.41L80.82 532.41L80.82 532.4L80.81 532.39L80.81 532.38L80.8 532.38L80.8 532.37L80.79 532.36L80.79 532.35L80.79 532.35L80.78 532.34L80.78 532.33L80.78 532.32L80.77 532.31L80.77 532.31L80.77 532.3L80.76 532.28L80.75 532.27L80.74 532.23L80.74 532.21L80.73 532.2L80.73 532.19L80.72 532.17L80.72 532.17L80.71 532.16L80.71 532.15L80.71 532.14L80.7 532.13L80.7 532.13L80.69 532.12L80.69 532.11L80.68 532.1L76.96 527.83L73.31 523.5L69.74 519.1L66.24 514.63L62.82 510.1L59.48 505.51L56.22 500.86L53.04 496.15L49.94 491.38L46.92 486.56L43.99 481.68L41.14 476.74L38.38 471.75L35.71 466.7L33.12 461.6L30.62 456.45L28.21 451.25L25.9 446L23.67 440.7L21.54 435.35L19.5 429.96L17.56 424.52L15.71 419.04L13.96 413.51L12.31 407.95L10.76 402.33L9.3 396.68L7.95 390.99L6.7 385.27L5.56 379.5L4.51 373.7L3.58 367.86L2.75 361.99L2.02 356.08L1.41 350.14L0.91 344.17L0.51 338.17L0.23 332.14L0.06 326.09L0 320L0.06 313.67L0.25 307.37L0.55 301.1L0.98 294.86L1.53 288.66L2.19 282.48L2.97 276.35L3.87 270.25L4.88 264.19L6.01 258.17L7.24 252.19L8.59 246.24L10.05 240.34L11.62 234.49L13.3 228.68L15.08 222.91L16.97 217.19L18.96 211.52L21.06 205.9L23.26 200.33L25.56 194.81L27.95 189.34L30.45 183.92L33.05 178.56L35.74 173.26L38.52 168.01L41.4 162.82L44.38 157.69L47.44 152.62L50.6 147.61L53.84 142.67L57.17 137.78L60.59 132.97L64.1 128.21L67.69 123.53L71.36 118.91L75.12 114.37L78.96 109.89L82.88 105.49L86.87 101.15L86.88 101.15L86.88 101.15L86.88 101.14L86.88 101.14L86.89 101.13L86.89 101.13L86.89 101.12L86.89 101.12L86.9 101.11L86.9 101.11L86.9 101.1L86.91 101.1L86.91 101.1L86.91 101.09L86.92 101.09L86.92 101.08L86.93 101.07L86.94 101.07L86.95 101.06L86.96 101.05L86.97 101.04L86.98 101.03L86.99 101.02L87 101.02L87 101.01L87.01 101.01L87.01 101.01L87.02 101L87.02 101L87.03 100.99L91.27 96.56L95.6 92.21L100.01 87.95L104.5 83.77L109.07 79.68L113.72 75.67L118.44 71.75L123.24 67.92L128.12 64.19L133.06 60.54L138.08 56.99L143.17 53.53L148.33 50.17L153.55 46.9L158.84 43.73L164.2 40.67L169.62 37.7L175.1 34.83L180.64 32.07L186.25 29.42L191.91 26.87L197.63 24.43L203.4 22.09L209.23 19.87L215.12 17.76L221.05 15.75L227.04 13.87L233.08 12.1L239.16 10.44L245.3 8.91L251.47 7.49L257.7 6.19L263.96 5.01L270.27 3.96L276.62 3.03L283.01 2.22L289.44 1.55L295.9 1L302.4 0.58L308.93 0.29L308.94 0.28L315.16 0.11L315.4 0.1L315.52 0.1L315.64 0.09L315.76 0.09L315.88 0.09L316 0.08L316.12 0.08L316.24 0.07L316.36 0.07L316.49 0.07L316.61 0.06L316.73 0.06L316.85 0.05L316.97 0.05L317.09 0.05L317.21 0.04L317.33 0.04L317.45 0.04L317.57 0.03L317.69 0.03L317.82 0.03L317.94 0.03L318.06 0.02L318.18 0.02L318.3 0.02L318.42 0.02L318.54 0.01L318.66 0.01L318.79 0.01L318.91 0.01L319.03 0.01L319.15 0L319.27 0L319.39 0L319.51 0L319.64 0L319.76 0L319.88 0L320 0L320.12 0L320.24 0ZM446.83 493.42L445.13 496.99L443.4 500.54L441.63 504.07L439.83 507.59L438 511.09L436.13 514.57L434.23 518.04L432.29 521.48L430.32 524.91L428.31 528.32L426.27 531.71L424.2 535.08L422.09 538.44L419.95 541.77L417.78 545.08L415.57 548.38L413.33 551.65L411.06 554.9L408.76 558.13L406.42 561.34L404.05 564.53L401.64 567.7L399.21 570.85L396.74 573.97L394.24 577.08L391.71 580.16L389.14 583.22L386.55 586.25L383.92 589.27L381.26 592.26L378.57 595.22L375.84 598.17L373.09 601.09L370.3 603.98L367.49 606.85L364.64 609.7L361.76 612.52L358.85 615.32L363.93 614.61L368.98 613.81L374 612.93L378.99 611.97L383.96 610.93L388.89 609.8L393.79 608.59L398.66 607.3L403.49 605.93L408.3 604.49L413.06 602.96L417.8 601.35L422.49 599.67L427.16 597.92L431.78 596.08L436.37 594.18L440.91 592.2L445.42 590.14L449.89 588.01L454.31 585.82L458.7 583.55L463.04 581.21L467.34 578.8L471.59 576.32L475.8 573.78L479.97 571.16L484.08 568.49L488.16 565.74L492.18 562.93L496.15 560.06L500.08 557.12L503.95 554.12L507.78 551.06L511.55 547.94L515.27 544.75L518.94 541.51L522.55 538.21L526.11 534.85L529.62 531.43L533.06 527.96L531.1 526.66L529.13 525.38L527.16 524.11L525.18 522.85L523.19 521.61L521.2 520.38L519.2 519.16L517.2 517.96L515.19 516.76L513.17 515.59L511.15 514.42L509.12 513.27L507.09 512.12L505.05 511L503 509.88L500.95 508.78L498.89 507.69L496.83 506.61L494.76 505.55L492.69 504.5L490.61 503.46L488.52 502.44L486.44 501.43L484.34 500.43L482.24 499.44L480.13 498.47L478.02 497.51L475.91 496.57L473.79 495.63L471.66 494.71L469.53 493.81L467.39 492.91L465.25 492.03L463.1 491.16L460.95 490.31L458.79 489.47L456.63 488.64L454.47 487.83L452.29 487.02L450.12 486.23L448.49 489.84L446.83 493.42ZM185.53 487.83L183.37 488.64L181.21 489.47L179.05 490.31L176.9 491.16L174.75 492.03L172.61 492.91L170.47 493.81L168.34 494.71L166.21 495.63L164.09 496.57L161.97 497.51L159.86 498.47L157.76 499.44L155.66 500.43L153.56 501.43L151.47 502.44L149.39 503.46L147.31 504.5L145.23 505.55L143.17 506.61L141.1 507.69L139.05 508.78L137 509.88L134.95 511L132.91 512.12L130.88 513.27L128.85 514.42L126.83 515.59L124.81 516.76L122.8 517.96L120.79 519.16L118.8 520.38L116.8 521.61L114.82 522.85L112.84 524.11L110.86 525.38L108.9 526.66L106.94 527.96L110.38 531.43L113.89 534.85L117.45 538.21L121.06 541.51L124.73 544.75L128.45 547.94L132.22 551.06L136.05 554.12L139.92 557.12L143.85 560.06L147.82 562.93L151.84 565.74L155.92 568.49L160.03 571.16L164.2 573.78L168.41 576.32L172.66 578.8L176.96 581.21L181.3 583.55L185.69 585.82L190.11 588.01L194.58 590.14L199.09 592.2L203.63 594.18L208.22 596.08L212.84 597.92L217.51 599.67L222.2 601.35L226.94 602.96L231.7 604.49L236.51 605.93L241.34 607.3L246.21 608.59L251.11 609.8L256.04 610.93L261.01 611.97L266 612.93L271.02 613.81L276.07 614.61L281.15 615.32L278.24 612.52L275.36 609.7L272.51 606.85L269.7 603.98L266.91 601.08L264.16 598.16L261.43 595.22L258.74 592.25L256.08 589.26L253.45 586.25L250.86 583.21L248.29 580.15L245.76 577.07L243.26 573.97L240.79 570.84L238.36 567.69L235.95 564.53L233.58 561.34L231.24 558.12L228.94 554.89L226.67 551.64L224.43 548.37L222.22 545.07L220.05 541.76L217.91 538.43L215.8 535.08L213.73 531.71L211.69 528.31L209.68 524.91L207.71 521.48L205.77 518.03L203.87 514.57L202 511.09L200.17 507.59L198.37 504.07L196.6 500.54L194.87 496.99L193.17 493.42L191.51 489.83L189.88 486.23L187.71 487.02L185.53 487.83ZM334.19 608.04L337.31 605.23L340.4 602.39L343.45 599.52L346.47 596.62L349.45 593.69L352.4 590.73L355.31 587.75L358.19 584.74L361.03 581.7L363.83 578.64L366.6 575.55L369.34 572.43L372.03 569.28L374.7 566.11L377.32 562.92L379.91 559.7L382.46 556.45L384.98 553.18L387.46 549.89L389.9 546.57L392.3 543.23L394.67 539.86L397 536.47L399.29 533.06L401.54 529.62L403.76 526.17L405.94 522.69L408.08 519.19L410.18 515.66L412.25 512.12L414.27 508.56L416.26 504.97L418.2 501.36L420.11 497.74L421.98 494.09L423.81 490.43L425.6 486.74L427.35 483.04L429.06 479.32L426.69 478.63L424.31 477.95L421.93 477.29L419.54 476.65L417.15 476.02L414.75 475.4L412.35 474.81L409.94 474.22L407.53 473.66L405.12 473.11L402.7 472.57L400.28 472.05L397.85 471.54L395.42 471.06L392.99 470.58L390.55 470.12L388.11 469.68L385.66 469.26L383.21 468.85L380.76 468.45L378.31 468.07L375.85 467.71L373.38 467.36L370.92 467.03L368.45 466.71L365.97 466.41L363.5 466.13L361.02 465.86L358.54 465.6L356.05 465.37L353.56 465.15L351.07 464.94L348.57 464.75L346.08 464.58L343.58 464.42L341.07 464.28L338.57 464.15L336.06 464.04L333.55 463.95L331.03 463.87L331.03 610.82L334.19 608.04ZM303.94 464.04L301.43 464.15L298.93 464.28L296.42 464.42L293.92 464.58L291.43 464.75L288.93 464.94L286.44 465.15L283.95 465.37L281.46 465.61L278.98 465.86L276.5 466.13L274.03 466.42L271.55 466.72L269.08 467.03L266.62 467.37L264.15 467.71L261.69 468.08L259.24 468.46L256.79 468.85L254.34 469.26L251.89 469.69L249.45 470.13L247.01 470.59L244.58 471.06L242.15 471.55L239.72 472.06L237.3 472.58L234.88 473.11L232.47 473.66L230.06 474.23L227.65 474.81L225.25 475.41L222.85 476.02L220.46 476.65L218.07 477.3L215.69 477.96L213.31 478.64L210.94 479.33L212.65 483.05L214.4 486.75L216.19 490.44L218.02 494.1L219.89 497.75L221.8 501.37L223.74 504.98L225.73 508.56L227.75 512.13L229.82 515.67L231.92 519.19L234.06 522.69L236.24 526.17L238.46 529.63L240.71 533.06L243 536.47L245.33 539.86L247.7 543.23L250.1 546.57L252.54 549.89L255.02 553.18L257.54 556.45L260.09 559.7L262.68 562.92L265.3 566.11L267.97 569.28L270.66 572.43L273.4 575.55L276.17 578.64L278.97 581.7L281.81 584.74L284.69 587.75L287.6 590.73L290.55 593.69L293.53 596.62L296.55 599.52L299.6 602.39L302.69 605.23L305.81 608.04L308.97 610.82L308.97 463.87L306.45 463.95L303.94 464.04ZM485.1 334.54L484.96 338.04L484.8 341.54L484.6 345.03L484.37 348.51L484.12 351.99L483.83 355.46L483.52 358.93L483.18 362.39L482.81 365.84L482.41 369.29L481.98 372.73L481.52 376.17L481.03 379.6L480.52 383.02L479.98 386.43L479.41 389.84L478.81 393.24L478.18 396.63L477.52 400.01L476.84 403.39L476.12 406.75L475.38 410.11L474.61 413.47L473.82 416.81L472.99 420.14L472.14 423.47L471.26 426.79L470.35 430.09L469.41 433.39L468.45 436.68L467.46 439.96L466.44 443.23L465.4 446.49L464.33 449.74L463.23 452.98L462.1 456.21L460.95 459.43L459.77 462.64L458.56 465.84L460.91 466.7L463.26 467.57L465.6 468.46L467.93 469.37L470.26 470.28L472.59 471.21L474.91 472.16L477.22 473.12L479.53 474.09L481.83 475.08L484.13 476.09L486.42 477.1L488.7 478.14L490.98 479.18L493.26 480.25L495.52 481.32L497.79 482.41L500.04 483.52L502.29 484.63L504.54 485.77L506.77 486.91L509 488.08L511.23 489.25L513.45 490.44L515.66 491.65L517.87 492.87L520.07 494.1L522.26 495.35L524.45 496.61L526.63 497.88L528.8 499.17L530.97 500.48L533.13 501.8L535.28 503.13L537.43 504.48L539.57 505.84L541.7 507.21L543.83 508.6L545.95 510.01L548.06 511.43L551.13 507.71L554.15 503.95L557.1 500.14L559.99 496.27L562.82 492.37L565.59 488.41L568.3 484.41L570.94 480.36L573.52 476.27L576.03 472.13L578.48 467.95L580.86 463.72L583.17 459.46L585.42 455.15L587.59 450.8L589.7 446.42L591.74 441.99L593.7 437.53L595.6 433.02L597.42 428.48L599.17 423.91L600.85 419.3L602.45 414.65L603.98 409.97L605.43 405.26L606.81 400.51L608.11 395.73L609.33 390.92L610.47 386.08L611.54 381.21L612.52 376.31L613.42 371.39L614.24 366.43L614.98 361.45L615.64 356.44L616.21 351.41L616.7 346.35L617.1 341.27L617.42 336.16L617.66 331.03L485.21 331.03L485.1 334.54ZM22.58 336.16L22.9 341.27L23.3 346.35L23.79 351.41L24.36 356.44L25.02 361.45L25.76 366.43L26.58 371.39L27.48 376.31L28.47 381.21L29.53 386.08L30.67 390.92L31.89 395.73L33.19 400.51L34.57 405.26L36.02 409.97L37.55 414.65L39.15 419.3L40.83 423.91L42.58 428.48L44.4 433.02L46.3 437.53L48.27 441.99L50.31 446.42L52.41 450.8L54.59 455.15L56.84 459.46L59.15 463.72L61.53 467.95L63.98 472.13L66.49 476.27L69.07 480.36L71.71 484.41L74.41 488.41L77.18 492.37L80.01 496.27L82.9 500.14L85.86 503.95L88.87 507.71L91.94 511.43L94.05 510.01L96.17 508.6L98.3 507.21L100.43 505.84L102.57 504.48L104.72 503.13L106.87 501.8L109.03 500.48L111.2 499.17L113.37 497.88L115.55 496.61L117.74 495.35L119.93 494.1L122.13 492.87L124.34 491.65L126.55 490.44L128.77 489.25L131 488.08L133.23 486.91L135.46 485.77L137.71 484.63L139.96 483.52L142.21 482.41L144.48 481.32L146.74 480.25L149.02 479.18L151.3 478.14L153.58 477.1L155.87 476.09L158.17 475.08L160.47 474.09L162.78 473.12L165.09 472.16L167.41 471.21L169.74 470.28L172.07 469.37L174.4 468.46L176.74 467.57L179.09 466.7L181.44 465.84L180.23 462.64L179.05 459.43L177.9 456.21L176.78 452.98L175.68 449.74L174.6 446.49L173.56 443.23L172.54 439.96L171.55 436.68L170.59 433.39L169.65 430.09L168.75 426.79L167.87 423.47L167.01 420.14L166.19 416.81L165.39 413.47L164.62 410.11L163.88 406.75L163.17 403.39L162.48 400.01L161.83 396.63L161.2 393.24L160.6 389.84L160.03 386.43L159.48 383.02L158.97 379.6L158.48 376.17L158.02 372.73L157.59 369.29L157.19 365.84L156.82 362.39L156.48 358.93L156.17 355.46L155.88 351.99L155.63 348.51L155.4 345.03L155.21 341.54L155.04 338.04L154.9 334.54L154.79 331.03L22.34 331.03L22.58 336.16ZM331.03 441.8L333.77 441.88L336.5 441.98L339.23 442.1L341.96 442.23L344.68 442.38L347.4 442.55L350.12 442.74L352.84 442.95L355.55 443.17L358.25 443.41L360.96 443.67L363.66 443.95L366.36 444.24L369.05 444.55L371.74 444.88L374.43 445.23L377.11 445.59L379.79 445.97L382.46 446.37L385.13 446.79L387.8 447.22L390.46 447.68L393.12 448.15L395.78 448.63L398.43 449.14L401.07 449.66L403.71 450.2L406.35 450.76L408.98 451.33L411.61 451.93L414.24 452.54L416.85 453.16L419.47 453.81L422.08 454.47L424.68 455.15L427.28 455.85L429.88 456.56L432.46 457.3L435.05 458.05L437.63 458.81L438.78 455.78L439.91 452.74L441.01 449.69L442.08 446.63L443.13 443.56L444.16 440.48L445.16 437.39L446.13 434.29L447.07 431.18L447.99 428.07L448.89 424.94L449.75 421.8L450.6 418.66L451.41 415.51L452.2 412.35L452.96 409.18L453.7 406L454.4 402.82L455.09 399.63L455.74 396.43L456.37 393.22L456.97 390L457.55 386.78L458.1 383.55L458.62 380.32L459.11 377.07L459.58 373.82L460.02 370.57L460.43 367.3L460.81 364.04L461.17 360.76L461.5 357.48L461.8 354.19L462.08 350.9L462.32 347.6L462.54 344.3L462.73 340.99L462.9 337.68L463.03 334.36L463.14 331.03L331.03 331.03L331.03 441.8ZM176.97 334.36L177.1 337.68L177.27 340.99L177.46 344.3L177.68 347.6L177.92 350.9L178.2 354.19L178.5 357.48L178.83 360.76L179.19 364.04L179.57 367.3L179.98 370.57L180.42 373.82L180.89 377.07L181.38 380.32L181.9 383.55L182.45 386.78L183.03 390L183.63 393.22L184.26 396.42L184.91 399.62L185.59 402.82L186.3 406L187.04 409.18L187.8 412.35L188.59 415.51L189.4 418.66L190.24 421.8L191.11 424.94L192 428.06L192.92 431.18L193.87 434.29L194.84 437.38L195.84 440.47L196.86 443.55L197.91 446.62L198.98 449.68L200.08 452.73L201.21 455.77L202.36 458.8L204.94 458.04L207.53 457.29L210.12 456.55L212.71 455.84L215.31 455.14L217.92 454.46L220.53 453.8L223.14 453.16L225.76 452.53L228.38 451.92L231.01 451.33L233.64 450.75L236.28 450.2L238.92 449.66L241.57 449.13L244.22 448.63L246.88 448.14L249.53 447.67L252.2 447.22L254.86 446.79L257.54 446.37L260.21 445.97L262.89 445.59L265.57 445.23L268.26 444.88L270.95 444.55L273.64 444.24L276.34 443.95L279.04 443.67L281.75 443.41L284.45 443.17L287.16 442.95L289.88 442.74L292.6 442.55L295.32 442.38L298.04 442.23L300.77 442.1L303.5 441.98L306.23 441.88L308.97 441.8L308.97 331.03L176.86 331.03L176.97 334.36ZM430.32 172.26L428.55 172.73L426.73 173.2L424.87 173.66L422.96 174.12L421.01 174.57L419.01 175.02L416.96 175.47L414.87 175.91L412.74 176.35L410.55 176.78L408.33 177.21L406.05 177.63L403.74 178.05L401.37 178.47L398.97 178.88L396.51 179.29L394.01 179.69L391.47 180.09L388.88 180.48L386.24 180.87L383.56 181.26L380.83 181.64L378.06 182.02L375.25 182.39L372.38 182.76L369.47 183.13L366.52 183.49L363.52 183.84L360.48 184.2L357.39 184.54L354.25 184.89L351.07 185.23L347.85 185.56L344.57 185.9L341.26 186.22L337.9 186.54L334.49 186.86L331.03 187.18L331.03 308.97L463.15 308.97L463.03 305.37L462.88 301.78L462.7 298.2L462.48 294.62L462.23 291.05L461.95 287.48L461.64 283.92L461.3 280.37L460.92 276.82L460.51 273.28L460.07 269.75L459.6 266.23L459.09 262.71L458.56 259.2L457.99 255.7L457.39 252.21L456.76 248.73L456.1 245.25L455.41 241.78L454.68 238.33L453.93 234.88L453.14 231.44L452.32 228.01L451.47 224.59L450.59 221.18L449.68 217.77L448.74 214.38L447.77 211L446.76 207.63L445.73 204.27L444.67 200.93L443.57 197.59L442.45 194.26L441.29 190.95L440.11 187.64L438.89 184.35L437.65 181.07L436.37 177.81L435.07 174.55L433.73 171.31L432.05 171.79L430.32 172.26ZM91.36 129.27L88.16 133.17L85.02 137.13L81.94 141.14L78.93 145.2L76 149.31L73.12 153.48L70.32 157.7L67.59 161.96L64.93 166.28L62.34 170.64L59.83 175.05L57.38 179.51L55.02 184.01L52.72 188.56L50.51 193.15L48.37 197.79L46.3 202.46L44.32 207.18L42.41 211.94L40.59 216.74L38.84 221.57L37.18 226.45L35.6 231.36L34.1 236.31L32.69 241.3L31.36 246.32L30.12 251.37L28.96 256.46L27.9 261.58L26.91 266.73L26.02 271.91L25.22 277.12L24.51 282.36L23.89 287.63L23.36 292.92L22.93 298.24L22.59 303.59L22.34 308.97L154.79 308.97L154.91 305.19L155.06 301.43L155.25 297.67L155.46 293.92L155.72 290.17L156 286.43L156.32 282.69L156.67 278.97L157.06 275.25L157.48 271.53L157.93 267.83L158.41 264.13L158.93 260.44L159.48 256.76L160.06 253.08L160.68 249.42L161.33 245.76L162.01 242.11L162.72 238.47L163.47 234.84L164.25 231.22L165.06 227.61L165.9 224.01L166.78 220.42L167.69 216.84L168.63 213.27L169.6 209.71L170.6 206.16L171.64 202.62L172.71 199.09L173.81 195.57L174.94 192.07L176.1 188.58L177.3 185.09L178.53 181.63L179.79 178.17L181.08 174.72L182.4 171.29L183.75 167.87L185.14 164.47L182.85 163.66L180.57 162.84L178.3 162L176.03 161.16L173.76 160.29L171.5 159.42L169.25 158.53L167 157.63L164.75 156.71L162.51 155.78L160.28 154.84L158.05 153.88L155.83 152.91L153.61 151.93L151.4 150.93L149.19 149.92L146.99 148.89L144.79 147.86L142.6 146.81L140.41 145.74L138.23 144.66L136.06 143.57L133.89 142.47L131.73 141.35L129.57 140.22L127.42 139.07L125.28 137.91L123.14 136.74L121.01 135.55L118.88 134.36L116.76 133.14L114.65 131.92L112.54 130.68L110.44 129.43L108.34 128.16L106.25 126.88L104.17 125.59L102.1 124.28L100.03 122.97L97.96 121.63L94.63 125.42L91.36 129.27ZM537.9 124.28L535.83 125.59L533.75 126.88L531.66 128.16L529.56 129.43L527.46 130.68L525.35 131.92L523.24 133.14L521.12 134.36L518.99 135.55L516.86 136.74L514.72 137.91L512.58 139.07L510.43 140.22L508.27 141.35L506.11 142.47L503.94 143.57L501.77 144.66L499.59 145.74L497.4 146.81L495.21 147.86L493.01 148.89L490.81 149.92L488.6 150.93L486.39 151.93L484.17 152.91L481.95 153.88L479.72 154.84L477.49 155.78L475.25 156.71L473 157.63L470.75 158.53L468.5 159.42L466.24 160.29L463.97 161.16L461.7 162L459.43 162.84L457.15 163.66L454.86 164.47L456.25 167.87L457.6 171.29L458.92 174.72L460.21 178.17L461.47 181.63L462.7 185.09L463.9 188.58L465.06 192.07L466.19 195.57L467.29 199.09L468.36 202.62L469.4 206.16L470.4 209.71L471.37 213.27L472.31 216.84L473.22 220.42L474.1 224.01L474.94 227.61L475.75 231.22L476.53 234.84L477.28 238.47L477.99 242.11L478.67 245.76L479.32 249.42L479.94 253.08L480.52 256.76L481.07 260.44L481.59 264.13L482.07 267.83L482.52 271.53L482.94 275.25L483.33 278.97L483.68 282.69L484 286.43L484.28 290.17L484.54 293.92L484.75 297.67L484.94 301.43L485.09 305.19L485.21 308.97L617.66 308.97L617.41 303.59L617.07 298.24L616.64 292.92L616.11 287.63L615.49 282.36L614.78 277.12L613.98 271.91L613.09 266.73L612.1 261.58L611.04 256.46L609.88 251.37L608.64 246.32L607.31 241.3L605.9 236.31L604.4 231.36L602.82 226.45L601.16 221.57L599.41 216.74L597.59 211.94L595.68 207.18L593.7 202.46L591.63 197.79L589.49 193.15L587.28 188.56L584.98 184.01L582.62 179.51L580.17 175.05L577.66 170.64L575.07 166.28L572.41 161.96L569.68 157.7L566.88 153.48L564 149.31L561.07 145.2L558.06 141.14L554.98 137.13L551.84 133.17L548.64 129.27L545.37 125.42L542.04 121.63L539.97 122.97L537.9 124.28ZM203.64 177.81L202.36 181.07L201.12 184.35L199.9 187.64L198.72 190.95L197.56 194.26L196.44 197.59L195.34 200.93L194.28 204.27L193.25 207.63L192.24 211L191.27 214.38L190.33 217.77L189.42 221.18L188.54 224.59L187.69 228.01L186.87 231.44L186.09 234.88L185.33 238.33L184.6 241.78L183.91 245.25L183.25 248.73L182.62 252.21L182.02 255.7L181.45 259.2L180.92 262.71L180.41 266.23L179.94 269.75L179.5 273.28L179.09 276.82L178.71 280.37L178.37 283.92L178.06 287.48L177.78 291.05L177.53 294.62L177.31 298.2L177.13 301.78L176.98 305.37L176.86 308.97L308.97 308.97L308.97 187.18L306.34 187.1L303.71 187L301.08 186.89L298.46 186.77L295.84 186.62L293.23 186.46L290.61 186.28L288 186.09L285.39 185.88L282.79 185.65L280.18 185.41L277.58 185.15L274.99 184.88L272.4 184.59L269.81 184.28L267.22 183.96L264.64 183.62L262.06 183.26L259.48 182.89L256.91 182.5L254.34 182.09L251.77 181.67L249.21 181.23L246.65 180.78L244.1 180.31L241.55 179.82L239 179.32L236.46 178.8L233.92 178.26L231.38 177.71L228.85 177.14L226.33 176.56L223.81 175.96L221.29 175.35L218.78 174.71L216.27 174.06L213.76 173.4L211.26 172.72L208.77 172.02L206.28 171.31L204.94 174.55L203.64 177.81ZM303.1 34.4L300.21 37.05L297.35 39.73L294.52 42.43L291.72 45.15L288.95 47.9L286.21 50.68L283.51 53.48L280.83 56.3L278.19 59.14L275.57 62.01L272.99 64.91L270.44 67.82L267.92 70.76L265.43 73.72L262.97 76.71L260.55 79.71L258.16 82.74L255.79 85.79L253.47 88.86L251.17 91.95L248.91 95.06L246.67 98.2L244.48 101.35L242.31 104.52L240.18 107.72L238.08 110.93L236.01 114.16L233.98 117.42L231.97 120.69L230.01 123.98L228.07 127.29L226.18 130.62L224.31 133.96L222.48 137.32L220.68 140.7L218.92 144.1L217.19 147.52L215.49 150.95L217.03 151.37L218.6 151.79L220.22 152.21L221.87 152.62L223.57 153.03L225.31 153.44L227.09 153.84L228.91 154.24L230.78 154.63L232.68 155.02L234.63 155.41L236.61 155.79L238.64 156.17L240.71 156.55L242.82 156.93L244.97 157.3L247.16 157.66L249.4 158.02L251.67 158.38L253.99 158.74L256.35 159.09L258.75 159.44L261.18 159.79L263.67 160.13L266.19 160.46L268.75 160.8L271.36 161.13L274 161.46L276.69 161.78L279.42 162.1L282.19 162.42L285 162.73L287.85 163.04L290.74 163.35L293.68 163.65L296.65 163.95L299.67 164.24L302.73 164.54L305.83 164.82L308.97 165.11L308.97 29.18L306.02 31.77L303.1 34.4ZM333.43 165.03L335.82 164.94L338.2 164.84L340.59 164.72L342.97 164.59L345.35 164.44L347.73 164.28L350.1 164.1L352.47 163.91L354.84 163.71L357.21 163.49L359.57 163.26L361.94 163.01L364.29 162.75L366.65 162.47L369 162.18L371.35 161.88L373.7 161.56L376.05 161.22L378.39 160.88L380.73 160.52L383.06 160.14L385.39 159.75L387.72 159.34L390.05 158.93L392.37 158.49L394.69 158.05L397 157.59L399.32 157.11L401.62 156.62L403.93 156.12L406.23 155.6L408.53 155.07L410.82 154.52L413.11 153.96L415.4 153.39L417.68 152.8L419.96 152.2L422.24 151.58L424.51 150.95L422.81 147.52L421.08 144.1L419.32 140.7L417.52 137.32L415.69 133.96L413.82 130.62L411.93 127.29L409.99 123.98L408.03 120.69L406.02 117.42L403.99 114.16L401.92 110.93L399.82 107.72L397.69 104.52L395.52 101.35L393.33 98.2L391.09 95.06L388.83 91.95L386.53 88.86L384.21 85.79L381.84 82.74L379.45 79.71L377.03 76.71L374.57 73.72L372.08 70.76L369.56 67.82L367.01 64.91L364.43 62.01L361.81 59.14L359.17 56.3L356.49 53.48L353.79 50.68L351.05 47.9L348.28 45.15L345.48 42.43L342.65 39.73L339.79 37.05L336.9 34.4L333.98 31.77L331.03 29.18L331.03 165.11L333.43 165.03ZM364.26 29.93L366.93 32.58L369.57 35.26L372.18 37.96L374.77 40.67L377.33 43.41L379.86 46.17L382.36 48.95L384.84 51.75L387.29 54.57L389.71 57.41L392.1 60.27L394.47 63.15L396.81 66.04L399.12 68.96L401.4 71.9L403.66 74.85L405.88 77.82L408.08 80.81L410.25 83.82L412.39 86.85L414.5 89.9L416.59 92.96L418.64 96.04L420.67 99.14L422.66 102.25L424.63 105.39L426.56 108.54L428.47 111.7L430.35 114.88L432.2 118.08L434.02 121.3L435.8 124.53L437.56 127.78L439.29 131.04L440.98 134.32L442.65 137.61L444.29 140.92L445.89 144.24L448 143.51L450.1 142.76L452.2 142.01L454.29 141.23L456.38 140.45L458.46 139.66L460.54 138.85L462.62 138.03L464.69 137.2L466.75 136.36L468.81 135.5L470.87 134.63L472.92 133.75L474.97 132.86L477.01 131.95L479.05 131.04L481.08 130.11L483.11 129.17L485.13 128.22L487.15 127.25L489.16 126.27L491.17 125.28L493.17 124.28L495.17 123.27L497.16 122.25L499.14 121.21L501.13 120.16L503.1 119.1L505.07 118.03L507.04 116.94L509 115.84L510.95 114.73L512.9 113.61L514.85 112.48L516.78 111.34L518.72 110.18L520.64 109.01L522.56 107.83L524.48 106.64L526.39 105.43L523.01 102.23L519.57 99.08L516.09 95.98L512.56 92.93L508.98 89.94L505.36 87.01L501.69 84.13L497.97 81.31L494.21 78.54L490.41 75.83L486.56 73.18L482.67 70.59L478.73 68.06L474.76 65.59L470.74 63.18L466.68 60.83L462.58 58.55L458.45 56.33L454.27 54.17L450.06 52.07L445.81 50.05L441.52 48.08L437.2 46.18L432.84 44.35L428.45 42.59L424.03 40.89L419.57 39.27L415.07 37.71L410.55 36.23L405.99 34.81L401.41 33.46L396.79 32.19L392.14 30.99L387.47 29.87L382.77 28.81L378.04 27.84L373.28 26.93L368.5 26.11L363.69 25.36L358.85 24.68L361.57 27.3L364.26 29.93ZM271.52 26.11L266.73 26.93L261.97 27.84L257.24 28.81L252.54 29.87L247.87 30.99L243.22 32.19L238.6 33.46L234.02 34.81L229.46 36.23L224.94 37.71L220.44 39.27L215.98 40.89L211.56 42.59L207.16 44.35L202.81 46.18L198.48 48.08L194.2 50.05L189.95 52.07L185.73 54.17L181.56 56.33L177.42 58.55L173.32 60.83L169.27 63.18L165.25 65.59L161.27 68.06L157.34 70.59L153.45 73.18L149.6 75.83L145.79 78.54L142.03 81.31L138.32 84.13L134.65 87.01L131.02 89.94L127.45 92.93L123.92 95.98L120.44 99.08L117 102.23L113.62 105.43L115.53 106.64L117.45 107.83L119.37 109.01L121.29 110.18L123.22 111.34L125.16 112.48L127.1 113.61L129.05 114.73L131.01 115.84L132.97 116.94L134.93 118.03L136.9 119.1L138.88 120.16L140.86 121.21L142.85 122.25L144.84 123.27L146.83 124.28L148.84 125.28L150.84 126.27L152.86 127.25L154.87 128.22L156.89 129.17L158.92 130.11L160.95 131.04L162.99 131.95L165.03 132.86L167.08 133.75L169.13 134.63L171.19 135.5L173.25 136.36L175.31 137.2L177.38 138.03L179.46 138.85L181.54 139.66L183.62 140.45L185.71 141.23L187.8 142.01L189.9 142.76L192 143.51L194.11 144.24L195.71 140.92L197.35 137.61L199.02 134.32L200.71 131.04L202.44 127.78L204.2 124.53L205.98 121.3L207.8 118.08L209.65 114.88L211.53 111.7L213.44 108.54L215.37 105.39L217.34 102.25L219.33 99.14L221.36 96.04L223.41 92.96L225.5 89.9L227.61 86.85L229.75 83.82L231.92 80.81L234.12 77.82L236.34 74.85L238.6 71.9L240.88 68.96L243.19 66.04L245.53 63.15L247.9 60.27L250.29 57.41L252.72 54.57L255.17 51.75L257.64 48.95L260.15 46.17L262.68 43.41L265.24 40.67L267.83 37.96L270.44 35.26L273.08 32.58L275.75 29.93L278.44 27.3L281.16 24.68L276.32 25.36L271.52 26.11Z" id="b7cow6IUwN"></path></defs><g><g><g><use xlink:href="#b7cow6IUwN" opacity="1" fill="#ffffff" fill-opacity="1"></use><g><use xlink:href="#b7cow6IUwN" opacity="1" fill-opacity="0" stroke="#000000" stroke-width="1" stroke-opacity="0"></use></g></g></g></g></svg>