<?xml version="1.0" encoding="iso-8859-1"?>
<!-- Generator: Adobe Illustrator 19.0.0, SVG Export Plug-In . SVG Version: 6.00 Build 0)  -->
<svg version="1.1" id="Capa_1" xmlns="http://www.w3.org/2000/svg" xmlns:xlink="http://www.w3.org/1999/xlink" x="0px" y="0px"
	 viewBox="0 0 512 512" style="enable-background:new 0 0 512 512;" xml:space="preserve">
<path style="fill:#7C8287;" d="M380.942,124.942v109.475h-74.598V124.403c0-27.768-22.586-50.354-50.344-50.354
	s-50.354,22.586-50.354,50.354v110.015h-74.588V124.942C131.058,56.046,187.104,0,256,0S380.942,56.046,380.942,124.942z"/>
<path style="fill:#596C76;" d="M380.942,124.942v109.475h-74.598V124.403c0-27.768-22.586-50.354-50.344-50.354V0
	C324.896,0,380.942,56.046,380.942,124.942z"/>
<path style="fill:#FF5B5B;" d="M420.543,254.198v188.986c0,37.943-30.874,68.817-68.816,68.817H160.264
	c-37.943,0-68.807-30.874-68.807-68.816V254.198c0-19.161,15.597-34.758,34.758-34.758h259.56
	C404.946,219.44,420.543,235.037,420.543,254.198z"/>
<path style="fill:#FF193D;" d="M420.543,254.198v188.986c0,37.943-30.874,68.817-68.816,68.817H256V219.44h129.775
	C404.946,219.44,420.543,235.037,420.543,254.198z"/>
<path style="fill:#D20041;" d="M297.747,387.572c5.851,5.851,5.851,15.337,0,21.188c-2.926,2.926-6.76,4.383-10.584,4.383
	c-3.834,0-7.668-1.458-10.594-4.383l-20.899-20.899l-20.24,20.23c-2.926,2.926-6.76,4.393-10.594,4.393
	c-3.824,0-7.658-1.468-10.584-4.393c-5.851-5.841-5.851-15.327,0-21.178l20.24-20.24l-21.388-21.378
	c-5.851-5.851-5.851-15.337,0-21.178c5.851-5.851,15.337-5.851,21.178,0l21.388,21.378l22.047-22.047
	c5.841-5.851,15.327-5.851,21.178,0c5.851,5.851,5.851,15.337,0,21.188l-22.047,22.037L297.747,387.572z"/>
<g>
</g>
<g>
</g>
<g>
</g>
<g>
</g>
<g>
</g>
<g>
</g>
<g>
</g>
<g>
</g>
<g>
</g>
<g>
</g>
<g>
</g>
<g>
</g>
<g>
</g>
<g>
</g>
<g>
</g>
</svg>
