<?xml version="1.0" encoding="UTF-8"?>
<svg width="18px" height="27px" viewBox="0 0 18 27" version="1.1" xmlns="http://www.w3.org/2000/svg" xmlns:xlink="http://www.w3.org/1999/xlink">
    <!-- Generator: Sketch 57.1 (83088) - https://sketch.com -->
    <title>microphone</title>
    <desc>Created with Sketch.</desc>
    <g id="Desktop" stroke="none" stroke-width="1" fill="none" fill-rule="evenodd">
        <g id="Groups_DeSelected" transform="translate(-433.000000, -683.000000)" fill="#FFFFFF" fill-rule="nonzero" stroke="#FFFFFF" stroke-width="0.5">
            <g id="BottomBar" transform="translate(382.000000, 479.000000)">
                <g id="Icons">
                    <g id="Inactive" transform="translate(17.000000, 203.000000)">
                        <path d="M43.362728,18.444286 C46.0752408,18.444286 48.2861946,16.2442453 48.2861946,13.5451212 L48.2861946,6.8991648 C48.2861946,4.20004074 46.0752408,2 43.362728,2 C40.6502153,2 38.4392615,4.20004074 38.4392615,6.8991648 L38.4392615,13.5451212 C38.4392615,16.249338 40.6502153,18.444286 43.362728,18.444286 Z M51.0908304,12.9238134 C51.4388509,12.9238134 51.7203381,13.2039112 51.7203381,13.5502139 C51.7203381,17.9248319 48.3066664,21.5202689 43.9871178,21.8411082 L43.9871178,21.8411082 L43.9871178,25.747199 L47.2574869,25.747199 C47.6055074,25.747199 47.8869946,26.0272968 47.8869946,26.3735995 C47.8869946,26.7199022 47.6055074,27 47.2574869,27 L47.2574869,27 L39.4628512,27 C39.1148307,27 38.8333435,26.7199022 38.8333435,26.3735995 C38.8333435,26.0272968 39.1148307,25.747199 39.4628512,25.747199 L39.4628512,25.747199 L42.7332204,25.747199 L42.7332204,21.8411082 C38.4136717,21.5253616 35,17.9248319 35,13.5502139 C35,13.2039112 35.2814872,12.9238134 35.6295077,12.9238134 C35.9775282,12.9238134 36.2538974,13.2039112 36.2436615,13.5502139 C36.2436615,17.4512121 39.4321435,20.623956 43.3524921,20.623956 C47.2728408,20.623956 50.4613228,17.4512121 50.4613228,13.5502139 C50.4613228,13.2039112 50.7428099,12.9238134 51.0908304,12.9238134 Z M43.362728,3.24770829 C45.3843177,3.24770829 47.0322972,4.88755347 47.0322972,6.8991648 L47.0322972,13.5451212 C47.0322972,15.5567325 45.3843177,17.1965777 43.362728,17.1965777 C41.3411383,17.1965777 39.6931589,15.5567325 39.6931589,13.5451212 L39.6931589,6.8991648 C39.6931589,4.88755347 41.3411383,3.24770829 43.362728,3.24770829 Z" id="microphone"></path>
                    </g>
                </g>
            </g>
        </g>
    </g>
</svg>