<?xml version="1.0" encoding="UTF-8"?>
<svg width="18px" height="18px" viewBox="0 0 18 18" version="1.1" xmlns="http://www.w3.org/2000/svg" xmlns:xlink="http://www.w3.org/1999/xlink">
    <!-- Generator: Sketch 57.1 (83088) - https://sketch.com -->
    <title>Combined Shape</title>
    <desc>Created with Sketch.</desc>
    <defs>
        <path d="M4,3 C4.55228475,3 5,3.44771525 5,4 L5,4 L5,11 C5,12.6568542 6.34314575,14 8,14 L8,14 L17.585,14 L14.2928932,10.7071068 C13.9324093,10.3466228 13.9046797,9.77939176 14.2097046,9.38710056 L14.2928932,9.29289322 C14.6834175,8.90236893 15.3165825,8.90236893 15.7071068,9.29289322 L15.7071068,9.29289322 L20.7071068,14.2928932 C20.7355731,14.3213595 20.7623312,14.3515341 20.787214,14.3832499 C20.788658,14.3849951 20.7902348,14.3870172 20.7918027,14.389044 C20.8140715,14.4179625 20.8348358,14.4480862 20.8539326,14.4793398 C20.8613931,14.4913869 20.8685012,14.5036056 20.8753288,14.5159379 C20.8862061,14.5357061 20.8966234,14.5561086 20.9063462,14.5769009 C20.914321,14.5939015 20.9218036,14.6112044 20.9287745,14.628664 C20.9366843,14.6484208 20.9438775,14.6682023 20.9504533,14.6882636 C20.9552713,14.7031487 20.9599023,14.7185367 20.9641549,14.734007 C20.9701664,14.7555635 20.9753602,14.7772539 20.9798348,14.7992059 C20.9832978,14.8166247 20.9863719,14.834051 20.9889822,14.8515331 C20.9962388,14.8996379 21,14.9493797 21,15 L20.9962979,14.9137692 C20.9978436,14.9317345 20.9989053,14.9497336 20.9994829,14.9677454 L21,15 C21,15.0112225 20.9998151,15.0224019 20.9994483,15.0335352 C20.9988772,15.050591 20.997855,15.0679231 20.996384,15.0852242 C20.994564,15.1070574 20.9920941,15.1281144 20.9889807,15.1489612 C20.9863719,15.165949 20.9832978,15.1833753 20.9797599,15.2007258 C20.9753602,15.2227461 20.9701664,15.2444365 20.964279,15.2658396 C20.9599023,15.2814633 20.9552713,15.2968513 20.9502619,15.3121425 C20.9438775,15.3317977 20.9366843,15.3515792 20.928896,15.3710585 C20.9218036,15.3887956 20.914321,15.4060985 20.9063266,15.4232215 C20.8974314,15.4421635 20.8879327,15.4609002 20.8778732,15.4792864 C20.8703855,15.4931447 20.862375,15.5070057 20.8540045,15.5207088 C20.8382813,15.546275 20.8215099,15.5711307 20.8036865,15.5951593 C20.774687,15.6343256 20.7425008,15.6717127 20.7071068,15.7071068 L20.787214,15.6167501 C20.7849289,15.6196628 20.7826279,15.6225624 20.7803112,15.625449 L20.7071068,15.7071068 L15.7071068,20.7071068 C15.3165825,21.0976311 14.6834175,21.0976311 14.2928932,20.7071068 C13.9023689,20.3165825 13.9023689,19.6834175 14.2928932,19.2928932 L14.2928932,19.2928932 L17.585,16 L8,16 C5.3112453,16 3.11818189,13.8776933 3.00461951,11.2168896 L3,11 L3,4 C3,3.44771525 3.44771525,3 4,3 Z" id="path-1"></path>
    </defs>
    <g id="Symbols" stroke="none" stroke-width="1" fill="none" fill-rule="evenodd">
        <g id="corner-down-right" transform="translate(-3.000000, -3.000000)">
            <mask id="mask-2" fill="white">
                <use xlink:href="#path-1"></use>
            </mask>
            <use id="Combined-Shape" fill="#000000" fill-rule="nonzero" xlink:href="#path-1"></use>
        </g>
    </g>
</svg>