<?xml version="1.0" encoding="iso-8859-1"?>
<!-- Generator: Adobe Illustrator 19.0.0, SVG Export Plug-In . SVG Version: 6.00 Build 0)  -->
<svg version="1.1" id="Capa_1" xmlns="http://www.w3.org/2000/svg" xmlns:xlink="http://www.w3.org/1999/xlink" x="0px" y="0px"
	 viewBox="0 0 512 512" style="enable-background:new 0 0 512 512;" xml:space="preserve">
<path style="fill:#7C8287;" d="M380.942,124.942v109.475h-74.598V124.403c0-27.768-22.586-50.354-50.344-50.354
	s-50.354,22.586-50.354,50.354v110.015h-74.588V124.942C131.058,56.046,187.104,0,256,0S380.942,56.046,380.942,124.942z"/>
<path style="fill:#596C76;" d="M380.942,124.942v109.475h-74.598V124.403c0-27.768-22.586-50.354-50.344-50.354V0
	C324.896,0,380.942,56.046,380.942,124.942z"/>
<path style="fill:#00EE84;" d="M420.543,254.198v188.986c0,37.943-30.874,68.817-68.816,68.817H160.264
	c-37.943,0-68.807-30.874-68.807-68.816V254.198c0-19.161,15.597-34.758,34.758-34.758h259.56
	C404.946,219.44,420.543,235.037,420.543,254.198z"/>
<path style="fill:#00DD7B;" d="M420.543,254.198v188.986c0,37.943-30.874,68.817-68.816,68.817H256V219.44h129.775
	C404.946,219.44,420.543,235.037,420.543,254.198z"/>
<path style="fill:#00AB5E;" d="M311.776,342.245L256,393.858l-5.382,4.983c-0.12,0.11-0.26,0.21-0.379,0.32
	c-0.18,0.16-0.359,0.31-0.549,0.459c-0.2,0.15-0.399,0.3-0.609,0.449c-0.19,0.14-0.389,0.27-0.579,0.399
	c-0.22,0.14-0.439,0.26-0.659,0.389c-0.2,0.11-0.389,0.23-0.589,0.329c-0.24,0.12-0.479,0.22-0.719,0.329
	c-0.19,0.09-0.389,0.18-0.579,0.26c-0.26,0.1-0.519,0.18-0.779,0.27c-0.19,0.06-0.369,0.13-0.559,0.18
	c-0.29,0.09-0.579,0.15-0.859,0.21c-0.18,0.04-0.339,0.09-0.519,0.12c-0.32,0.07-0.649,0.11-0.979,0.15
	c-0.14,0.01-0.27,0.04-0.409,0.05c-0.469,0.05-0.939,0.07-1.398,0.07c0,0,0,0-0.01,0c-0.489,0-0.979-0.03-1.468-0.08
	c-0.15-0.01-0.29-0.04-0.429-0.06c-0.349-0.04-0.689-0.09-1.038-0.15c-0.17-0.04-0.339-0.09-0.519-0.13
	c-0.31-0.07-0.609-0.15-0.919-0.24c-0.19-0.06-0.369-0.13-0.559-0.2c-0.28-0.09-0.559-0.19-0.839-0.3
	c-0.2-0.09-0.389-0.19-0.589-0.28c-0.26-0.12-0.509-0.23-0.759-0.369c-0.2-0.11-0.399-0.24-0.599-0.359
	c-0.24-0.14-0.469-0.27-0.689-0.429c-0.2-0.14-0.399-0.29-0.599-0.439c-0.21-0.16-0.419-0.32-0.629-0.489
	c-0.19-0.16-0.379-0.339-0.559-0.509c-0.13-0.12-0.27-0.23-0.389-0.349l-26.73-26.73c-5.841-5.851-5.841-15.327,0-21.178
	c5.851-5.851,15.337-5.851,21.188,0l16.535,16.535L256,353.049l35.437-32.791c6.071-5.622,15.547-5.252,21.158,0.819
	C318.216,327.148,317.847,336.624,311.776,342.245z"/>
<g>
</g>
<g>
</g>
<g>
</g>
<g>
</g>
<g>
</g>
<g>
</g>
<g>
</g>
<g>
</g>
<g>
</g>
<g>
</g>
<g>
</g>
<g>
</g>
<g>
</g>
<g>
</g>
<g>
</g>
</svg>
