<svg xmlns="http://www.w3.org/2000/svg" viewBox="0 0 766.2 102.3" fill="white">
  <path
    d="M.004 68.141h25.5c-.1 6.5 8.3 13.3 28.3 13.7 18.7.1 33.1-2.4 33.1-11.1 0-18.9-84.7 3.2-84.7-38.7 0-20 20.8-32.1 51.6-32.1 32 0 53.7 13.3 54 34h-25.5c.1-6.7-7.1-13.6-26.7-13.7-16.9-.1-29.2 2.6-29.2 10.8 0 18.3 84.5-2 84.5 38.9 0 20.1-22.1 32.3-55.1 32.3-34.1-.1-56.2-13.6-55.8-34.1M125.723 2.247h95.2v20.4h-71.2v18.1h69.9v19.1h-69.9v19.8h71.2v20.4h-95.2v-97.8zM234.365 68.141h25.5c-.1 6.5 8.3 13.3 28.3 13.7 18.7.1 33.1-2.4 33.1-11.1 0-18.9-84.7 3.2-84.7-38.7 0-20 20.8-32.1 51.6-32.1 32 0 53.7 13.3 54 34h-25.5c.1-6.7-7.1-13.6-26.7-13.7-16.9-.1-29.2 2.6-29.2 10.8 0 18.3 84.5-2 84.5 38.9 0 20.1-22.1 32.3-55.1 32.3-34.1-.1-56.2-13.6-55.8-34.1M354.285 68.141h25.4c-.1 6.5 8.3 13.3 28.3 13.7 18.7.1 33.1-2.4 33.1-11.1 0-18.9-84.7 3.2-84.7-38.7 0-20 20.8-32.1 51.6-32.1 32 0 53.7 13.3 54 34h-25.5c.1-6.7-7.1-13.6-26.7-13.7-16.9-.1-29.1 2.6-29.1 10.8 0 18.3 84.5-2 84.5 38.9 0 20.1-22.1 32.3-55.1 32.3-34.1-.1-56.2-13.6-55.8-34.1M480 2.3h24v97.6h-24V2.3zM616.48 51.112c0-19.9-14.4-30.7-37.9-30.7-23.3 0-37.7 10.9-37.7 30.7s14.4 30.7 37.7 30.7c23.5 0 37.9-10.9 37.9-30.7m-99.4 0c0-30.7 23.6-51.1 61.7-51.1s61.7 20.4 61.7 51.1-23.6 51.1-61.9 51.1c-37.9 0-61.5-20.4-61.5-51.1M653.525 2.247h20.1l68.5 62.2v-62.1h24v97.7h-20.3l-68.4-62.1v62.1h-24v-97.8z" />
</svg>
