<svg width="20" height="20" fill="none" xmlns="http://www.w3.org/2000/svg"><g clip-path="url(#x-circle__a)" fill="#000"><path d="M6.568 6.568a.73.73 0 0 1 1.03 0L10 8.968l2.401-2.4a.73.73 0 0 1 1.031 1.03L11.032 10l2.4 2.401a.73.73 0 0 1-1.03 1.031L10 11.032l-2.401 2.4a.73.73 0 0 1-1.031-1.03L8.968 10l-2.4-2.401a.73.73 0 0 1 0-1.031Z"/><path fill-rule="evenodd" clip-rule="evenodd" d="M.938 10a9.063 9.063 0 1 1 18.125 0A9.063 9.063 0 0 1 .938 10ZM10 2.396a7.604 7.604 0 1 0 0 15.208 7.604 7.604 0 0 0 0-15.208Z"/></g><defs><clipPath id="x-circle__a"><path fill="#fff" d="M0 0h20v20H0z"/></clipPath></defs></svg>