<svg width="16" height="16" fill="none" xmlns="http://www.w3.org/2000/svg"><g clip-path="url(#x-circle-compact__a)" fill="#000"><path d="M5.29 5.29a.65.65 0 0 1 .92 0L8 7.08l1.79-1.79a.65.65 0 1 1 .92.92L8.92 8l1.79 1.79a.65.65 0 1 1-.92.92L8 8.92l-1.79 1.79a.65.65 0 0 1-.92-.92L7.08 8 5.29 6.21a.65.65 0 0 1 0-.92Z"/><path fill-rule="evenodd" clip-rule="evenodd" d="M.85 8a7.15 7.15 0 1 1 14.3 0A7.15 7.15 0 0 1 .85 8ZM8 2.15a5.85 5.85 0 1 0 0 11.7 5.85 5.85 0 0 0 0-11.7Z"/></g><defs><clipPath id="x-circle-compact__a"><path fill="#fff" d="M0 0h16v16H0z"/></clipPath></defs></svg>