<svg width="20" height="20" fill="none" xmlns="http://www.w3.org/2000/svg"><path d="M4.721 2.604c-.442 0-.817 0-1.125.025-.323.027-.635.084-.934.236-.45.23-.817.597-1.047 1.047-.152.299-.21.611-.236.934-.025.308-.025.683-.025 1.125v.141c0 .442 0 .818.025 1.125.027.323.084.636.236.934.23.45.597.817 1.047 1.047.299.152.611.21.934.236.308.025.683.025 1.125.025h1.391c.442 0 .818 0 1.125-.025.323-.026.636-.084.934-.236.45-.23.817-.596 1.047-1.047.152-.298.21-.61.236-.934.025-.307.025-.683.025-1.125v-.14c0-.443 0-.818-.025-1.126-.026-.323-.084-.635-.236-.934a2.396 2.396 0 0 0-1.047-1.047c-.298-.152-.61-.21-.934-.236-.307-.025-.683-.025-1.125-.025h-1.39Zm-1.397 1.56c.059-.029.158-.062.39-.081.242-.02.557-.02 1.036-.02h1.333c.48 0 .794 0 1.036.02.232.019.332.052.39.082.176.09.32.233.41.41.03.058.063.157.082.39.02.241.02.556.02 1.035v.083c0 .48 0 .794-.02 1.036-.02.232-.053.332-.082.39a.937.937 0 0 1-.41.41c-.058.03-.158.063-.39.082-.242.02-.557.02-1.036.02H4.75c-.479 0-.794 0-1.035-.02-.233-.02-.332-.053-.39-.082a.937.937 0 0 1-.41-.41c-.03-.058-.063-.158-.082-.39a14.24 14.24 0 0 1-.02-1.036V6c0-.479 0-.794.02-1.035.019-.233.052-.332.082-.39a.937.937 0 0 1 .41-.41Zm1.397 6.356c-.442 0-.817 0-1.125.026-.323.026-.635.084-.934.236-.45.23-.817.596-1.047 1.047-.152.298-.21.61-.236.934-.025.307-.025.683-.025 1.125v.14c0 .443 0 .818.025 1.126.027.323.084.636.236.934.23.45.597.817 1.047 1.047.299.152.611.21.934.236.308.025.683.025 1.125.025h1.391c.442 0 .818 0 1.125-.025.323-.027.636-.084.934-.236.45-.23.817-.597 1.047-1.047.152-.299.21-.61.236-.934.025-.308.025-.683.025-1.125v-.141c0-.442 0-.818-.025-1.125-.026-.323-.084-.636-.236-.934a2.396 2.396 0 0 0-1.047-1.047c-.298-.152-.61-.21-.934-.236a14.812 14.812 0 0 0-1.125-.025h-1.39Zm-1.397 1.561c.059-.03.158-.063.39-.082.242-.02.557-.02 1.036-.02h1.333c.48 0 .794 0 1.036.02.232.02.332.053.39.082.176.09.32.234.41.41.03.058.063.158.082.39.02.242.02.557.02 1.036V14c0 .479 0 .794-.02 1.035-.02.233-.053.332-.082.39a.937.937 0 0 1-.41.41c-.058.03-.158.063-.39.082-.242.02-.557.02-1.036.02H4.75c-.479 0-.794 0-1.035-.02-.233-.019-.332-.052-.39-.082a.937.937 0 0 1-.41-.41c-.03-.058-.063-.157-.082-.39-.02-.241-.02-.556-.02-1.035v-.083c0-.48 0-.794.02-1.036.019-.232.052-.332.082-.39a.938.938 0 0 1 .41-.41Zm10.564-9.477h1.39c.443 0 .818 0 1.126.025.323.027.636.084.934.236.45.23.817.597 1.047 1.047.152.299.21.611.236.934.025.308.025.683.025 1.125v.141c0 .442 0 .818-.025 1.125-.027.323-.084.636-.236.934-.23.45-.597.817-1.047 1.047-.299.152-.61.21-.934.236-.308.025-.683.025-1.125.025h-1.391c-.442 0-.818 0-1.125-.025-.323-.026-.636-.084-.934-.236a2.396 2.396 0 0 1-1.047-1.047c-.152-.298-.21-.61-.236-.934a14.812 14.812 0 0 1-.025-1.125v-.14c0-.443 0-.818.025-1.126.026-.323.084-.635.236-.934.23-.45.596-.817 1.047-1.047.298-.152.61-.21.934-.236.307-.025.683-.025 1.125-.025ZM12.88 4.083c-.232.019-.332.052-.39.082a.938.938 0 0 0-.41.41c-.03.058-.063.157-.082.39-.02.241-.02.556-.02 1.035v.083c0 .48 0 .794.02 1.036.02.232.053.332.082.39.09.176.234.32.41.41.058.03.158.063.39.082.242.02.557.02 1.036.02h1.333c.479 0 .794 0 1.035-.02.233-.02.332-.053.39-.082a.937.937 0 0 0 .41-.41c.03-.058.063-.158.082-.39.02-.242.02-.557.02-1.036V6c0-.479 0-.794-.02-1.035-.019-.233-.052-.332-.082-.39a.937.937 0 0 0-.41-.41c-.058-.03-.157-.063-.39-.082-.241-.02-.556-.02-1.035-.02h-1.333c-.48 0-.794 0-1.036.02Zm1.008 6.437c-.442 0-.818 0-1.125.026-.323.026-.636.084-.934.236-.45.23-.817.596-1.047 1.047-.152.298-.21.61-.236.934-.025.307-.025.683-.025 1.125v.14c0 .443 0 .818.025 1.126.026.323.084.636.236.934.23.45.596.817 1.047 1.047.298.152.61.21.934.236.307.025.683.025 1.125.025h1.39c.443 0 .818 0 1.126-.025.323-.027.636-.084.934-.236.45-.23.817-.597 1.047-1.047.152-.299.21-.61.236-.934.025-.308.025-.683.025-1.125v-.141c0-.442 0-.818-.025-1.125-.027-.323-.084-.636-.236-.934a2.396 2.396 0 0 0-1.047-1.047c-.299-.152-.61-.21-.934-.236a14.814 14.814 0 0 0-1.125-.025h-1.391Zm-1.397 1.561c.058-.03.158-.063.39-.082.242-.02.557-.02 1.036-.02h1.333c.479 0 .794 0 1.035.02.233.02.332.053.39.082.177.09.32.234.41.41.03.058.063.158.082.39.02.242.02.557.02 1.036V14c0 .479 0 .794-.02 1.035-.019.233-.052.332-.082.39a.937.937 0 0 1-.41.41c-.058.03-.157.063-.39.082-.241.02-.556.02-1.035.02h-1.333c-.48 0-.794 0-1.036-.02-.232-.019-.332-.052-.39-.082a.937.937 0 0 1-.41-.41c-.03-.058-.063-.157-.082-.39A14.25 14.25 0 0 1 11.98 14v-.083c0-.48 0-.794.02-1.036.02-.232.053-.332.082-.39a.938.938 0 0 1 .41-.41Z" fill="#000"/></svg>