<svg width="20" height="20" fill="none" xmlns="http://www.w3.org/2000/svg"><path fill-rule="evenodd" clip-rule="evenodd" d="M4.389 3.02c-.385 0-.716 0-.99.023a2.227 2.227 0 0 0-.85.216c-.412.21-.747.545-.956.956-.141.276-.193.563-.217.851-.022.273-.022.605-.022.99v.389c0 .384 0 .716.022.989.024.288.076.575.217.85.21.412.544.747.956.957.275.14.562.192.85.216.274.022.605.022.99.022h2.056c.384 0 .716 0 .989-.022.288-.024.575-.076.85-.216.412-.21.747-.545.957-.956.14-.276.192-.563.216-.851.022-.273.022-.605.022-.99v-.389c0-.384 0-.716-.022-.989a2.227 2.227 0 0 0-.216-.85 2.187 2.187 0 0 0-.956-.957 2.227 2.227 0 0 0-.851-.216c-.273-.022-.605-.022-.99-.022H4.39ZM3.21 4.56c.036-.019.11-.046.307-.062.207-.017.478-.018.899-.018h2c.42 0 .691 0 .898.018.198.016.272.043.308.062a.73.73 0 0 1 .318.318c.019.036.046.11.062.308.017.207.018.478.018.898v.334c0 .42 0 .692-.018.898-.016.198-.043.272-.062.308a.73.73 0 0 1-.318.318c-.036.019-.11.046-.308.062-.207.017-.478.018-.898.018h-2c-.42 0-.692 0-.899-.018-.198-.016-.271-.043-.307-.062a.73.73 0 0 1-.32-.318c-.017-.036-.045-.11-.061-.308a12.398 12.398 0 0 1-.018-.898v-.334c0-.42.001-.691.018-.898.016-.198.044-.272.062-.308a.73.73 0 0 1 .319-.318Zm1.179 5.96c-.385 0-.716 0-.99.023a2.226 2.226 0 0 0-.85.216c-.412.21-.747.545-.956.956-.141.276-.193.563-.217.851-.022.273-.022.605-.022.99v.389c0 .384 0 .716.022.989.024.288.076.575.217.85.21.412.544.747.956.957.275.14.562.192.85.216.274.022.605.022.99.022h2.056c.384 0 .716 0 .989-.022.288-.024.575-.076.85-.216.412-.21.747-.545.957-.956.14-.276.192-.563.216-.851.022-.273.022-.605.022-.99v-.389c0-.384 0-.716-.022-.989a2.227 2.227 0 0 0-.216-.85 2.187 2.187 0 0 0-.956-.957 2.226 2.226 0 0 0-.851-.216c-.273-.022-.605-.022-.99-.022H4.39ZM3.21 12.06c.036-.019.11-.046.307-.062.207-.017.478-.018.899-.018h2c.42 0 .691 0 .898.018.198.016.272.043.308.062a.73.73 0 0 1 .318.318c.019.036.046.11.062.308.017.207.018.478.018.898v.334c0 .42 0 .692-.018.898-.016.198-.043.272-.062.308a.73.73 0 0 1-.318.318c-.036.019-.11.046-.308.062a12.38 12.38 0 0 1-.898.018h-2c-.42 0-.692 0-.899-.018-.198-.016-.271-.043-.307-.062a.73.73 0 0 1-.32-.318c-.017-.036-.045-.11-.061-.308a12.4 12.4 0 0 1-.018-.898v-.334c0-.42.001-.691.018-.898.016-.198.044-.272.062-.308a.729.729 0 0 1 .319-.318Zm10.345-9.04h2.056c.385 0 .716 0 .99.023.288.024.575.076.85.216.412.21.747.545.956.956.141.276.193.563.216.851.023.273.023.605.023.99v.389c0 .384 0 .716-.023.989a2.226 2.226 0 0 1-.216.85c-.21.412-.544.747-.956.957-.276.14-.562.192-.85.216-.274.022-.605.022-.99.022h-2.056c-.384 0-.716 0-.989-.022a2.227 2.227 0 0 1-.85-.216 2.187 2.187 0 0 1-.957-.956 2.226 2.226 0 0 1-.216-.851c-.022-.273-.022-.605-.022-.99v-.389c0-.384 0-.716.022-.989.024-.288.076-.575.216-.85.21-.412.545-.747.956-.957.276-.14.563-.192.851-.216.273-.022.605-.022.99-.022Zm-.87 1.477c-.198.016-.272.043-.308.062a.73.73 0 0 0-.318.318c-.019.036-.046.11-.062.308a12.38 12.38 0 0 0-.018.898v.334c0 .42 0 .692.018.898.016.198.043.272.062.308a.73.73 0 0 0 .318.318c.036.019.11.046.308.062.206.017.478.018.898.018h2c.42 0 .692 0 .899-.018.198-.016.271-.043.307-.062a.73.73 0 0 0 .319-.318c.018-.036.046-.11.062-.308.017-.206.017-.478.017-.898v-.334c0-.42 0-.691-.017-.898-.016-.198-.044-.272-.062-.308a.73.73 0 0 0-.319-.318c-.036-.019-.11-.046-.307-.062a12.397 12.397 0 0 0-.899-.018h-2c-.42 0-.692 0-.898.018Zm.87 6.023c-.384 0-.716 0-.989.023a2.226 2.226 0 0 0-.85.216c-.412.21-.747.545-.957.956-.14.276-.192.563-.216.851-.022.273-.022.605-.022.99v.389c0 .384 0 .716.022.989.024.288.076.575.216.85.21.412.545.747.956.957.276.14.563.192.851.216.273.022.605.022.99.022h2.055c.385 0 .716 0 .99-.022.288-.024.575-.076.85-.216.412-.21.747-.545.956-.956.141-.276.193-.563.216-.851.023-.273.023-.605.023-.99v-.389c0-.384 0-.716-.023-.989a2.226 2.226 0 0 0-.216-.85 2.188 2.188 0 0 0-.956-.957 2.226 2.226 0 0 0-.85-.216c-.274-.022-.605-.022-.99-.022h-2.056Zm-1.178 1.539c.036-.019.11-.046.308-.062.206-.017.478-.018.898-.018h2c.42 0 .692 0 .899.018.198.016.271.043.307.062a.73.73 0 0 1 .319.318c.018.036.046.11.062.308.017.207.017.478.017.898v.334c0 .42 0 .692-.017.898-.016.198-.044.272-.062.308a.73.73 0 0 1-.319.318c-.036.019-.11.046-.307.062-.207.017-.478.018-.899.018h-2c-.42 0-.692 0-.898-.018-.198-.016-.272-.043-.308-.062a.73.73 0 0 1-.318-.318c-.019-.036-.046-.11-.062-.308a12.381 12.381 0 0 1-.018-.898v-.334c0-.42 0-.691.018-.898.016-.198.043-.272.062-.308a.73.73 0 0 1 .318-.318Z" fill="#000"/></svg>