<svg width="24" height="24" viewBox="0 0 24 24" fill="none" xmlns="http://www.w3.org/2000/svg"><path fill-rule="evenodd" clip-rule="evenodd" d="M4.6654 3.625H10.3346C10.8652 3.62499 11.3155 3.62498 11.6848 3.65516C12.0725 3.68683 12.4474 3.75604 12.8052 3.93836C13.3462 4.21399 13.786 4.65381 14.0616 5.19478C14.244 5.5526 14.3132 5.92754 14.3448 6.31515C14.375 6.68455 14.375 7.13483 14.375 7.66539V16.3346C14.375 16.8652 14.375 17.3155 14.3448 17.6849C14.3132 18.0725 14.244 18.4474 14.0616 18.8052C13.786 19.3462 13.3462 19.786 12.8052 20.0616C12.4474 20.244 12.0725 20.3132 11.6848 20.3448C11.3155 20.375 10.8652 20.375 10.3346 20.375H4.66538C4.13483 20.375 3.68454 20.375 3.31515 20.3448C2.92754 20.3132 2.5526 20.244 2.19478 20.0616C1.65381 19.786 1.21399 19.3462 0.938357 18.8052C0.756038 18.4474 0.686825 18.0725 0.655156 17.6849C0.624975 17.3155 0.624987 16.8652 0.625001 16.3346V7.6654C0.624987 7.13484 0.624975 6.68455 0.655156 6.31515C0.686825 5.92754 0.756038 5.5526 0.938357 5.19478C1.21399 4.65381 1.65381 4.21399 2.19478 3.93836C2.5526 3.75604 2.92754 3.68683 3.31515 3.65516C3.68455 3.62498 4.13484 3.62499 4.6654 3.625ZM3.45766 5.39934C3.17826 5.42217 3.05926 5.46195 2.98926 5.49762C2.77758 5.60548 2.60548 5.77758 2.49762 5.98926C2.46195 6.05926 2.42217 6.17827 2.39934 6.45766C2.37568 6.74727 2.375 7.12551 2.375 7.7V16.3C2.375 16.8745 2.37568 17.2527 2.39934 17.5423C2.42217 17.8217 2.46195 17.9407 2.49762 18.0107C2.60548 18.2224 2.77758 18.3945 2.98926 18.5024C3.05926 18.5381 3.17826 18.5778 3.45766 18.6007C3.74727 18.6243 4.12551 18.625 4.7 18.625H10.3C10.8745 18.625 11.2527 18.6243 11.5423 18.6007C11.8217 18.5778 11.9407 18.5381 12.0107 18.5024C12.2224 18.3945 12.3945 18.2224 12.5024 18.0107C12.5381 17.9407 12.5778 17.8217 12.6007 17.5423C12.6243 17.2527 12.625 16.8745 12.625 16.3V7.7C12.625 7.12551 12.6243 6.74727 12.6007 6.45766C12.5778 6.17827 12.5381 6.05926 12.5024 5.98926C12.3945 5.77758 12.2224 5.60548 12.0107 5.49762C11.9407 5.46195 11.8217 5.42217 11.5423 5.39934C11.2527 5.37568 10.8745 5.375 10.3 5.375H4.7C4.12551 5.375 3.74727 5.37568 3.45766 5.39934Z" fill="black"/><path fill-rule="evenodd" clip-rule="evenodd" d="M18.8674 3.625C18.8782 3.625 18.8891 3.625 18.9 3.625L20.1326 3.625C20.5248 3.62498 20.8703 3.62497 21.1565 3.64834C21.4607 3.6732 21.7739 3.72879 22.0782 3.88386C22.5251 4.11156 22.8884 4.47489 23.1161 4.92177C23.2712 5.22612 23.3268 5.53931 23.3517 5.84355C23.375 6.12967 23.375 6.47525 23.375 6.86738V8.13262C23.375 8.52475 23.375 8.87034 23.3517 9.15645C23.3268 9.46069 23.2712 9.77389 23.1161 10.0782C22.8884 10.5251 22.5251 10.8884 22.0782 11.1161C21.7739 11.2712 21.4607 11.3268 21.1565 11.3517C20.8703 11.375 20.5247 11.375 20.1326 11.375H18.8674C18.4753 11.375 18.1297 11.375 17.8436 11.3517C17.5393 11.3268 17.2261 11.2712 16.9218 11.1161C16.4749 10.8884 16.1116 10.5251 15.8839 10.0782C15.7288 9.77389 15.6732 9.46069 15.6483 9.15645C15.625 8.87034 15.625 8.52475 15.625 8.13262L15.625 6.9C15.625 6.88909 15.625 6.87822 15.625 6.86738C15.625 6.47525 15.625 6.12967 15.6483 5.84355C15.6732 5.53931 15.7288 5.22612 15.8839 4.92177C16.1116 4.47489 16.4749 4.11156 16.9218 3.88386C17.2261 3.72879 17.5393 3.6732 17.8436 3.64834C18.1297 3.62497 18.4753 3.62498 18.8674 3.625ZM17.9861 5.39253C17.79 5.40855 17.7328 5.4347 17.7163 5.44312C17.5987 5.50304 17.503 5.59866 17.4431 5.71626C17.4347 5.73278 17.4085 5.79004 17.3925 5.98606C17.3757 6.19229 17.375 6.46552 17.375 6.9V8.1C17.375 8.53448 17.3757 8.80771 17.3925 9.01395C17.4085 9.20996 17.4347 9.26722 17.4431 9.28375C17.503 9.40135 17.5987 9.49696 17.7163 9.55688C17.7328 9.5653 17.79 9.59146 17.9861 9.60747C18.1923 9.62432 18.4655 9.625 18.9 9.625H20.1C20.5345 9.625 20.8077 9.62432 21.0139 9.60747C21.21 9.59146 21.2672 9.5653 21.2837 9.55688C21.4013 9.49696 21.497 9.40135 21.5569 9.28375C21.5653 9.26722 21.5915 9.20996 21.6075 9.01395C21.6243 8.80771 21.625 8.53448 21.625 8.1V6.9C21.625 6.46552 21.6243 6.19229 21.6075 5.98606C21.5915 5.79004 21.5653 5.73278 21.5569 5.71626C21.497 5.59866 21.4013 5.50304 21.2837 5.44312C21.2672 5.4347 21.21 5.40855 21.0139 5.39253C20.8077 5.37568 20.5345 5.375 20.1 5.375H18.9C18.4655 5.375 18.1923 5.37568 17.9861 5.39253Z" fill="black"/><path fill-rule="evenodd" clip-rule="evenodd" d="M18.8674 12.625C18.8782 12.625 18.8891 12.625 18.9 12.625L20.1326 12.625C20.5248 12.625 20.8703 12.625 21.1565 12.6483C21.4607 12.6732 21.7739 12.7288 22.0782 12.8839C22.5251 13.1116 22.8884 13.4749 23.1161 13.9218C23.2712 14.2261 23.3268 14.5393 23.3517 14.8436C23.375 15.1297 23.375 15.4753 23.375 15.8674V17.1326C23.375 17.5248 23.375 17.8703 23.3517 18.1565C23.3268 18.4607 23.2712 18.7739 23.1161 19.0782C22.8884 19.5251 22.5251 19.8884 22.0782 20.1161C21.7739 20.2712 21.4607 20.3268 21.1565 20.3517C20.8703 20.375 20.5247 20.375 20.1326 20.375H18.8674C18.4753 20.375 18.1297 20.375 17.8436 20.3517C17.5393 20.3268 17.2261 20.2712 16.9218 20.1161C16.4749 19.8884 16.1116 19.5251 15.8839 19.0782C15.7288 18.7739 15.6732 18.4607 15.6483 18.1565C15.625 17.8703 15.625 17.5248 15.625 17.1326L15.625 15.9C15.625 15.8891 15.625 15.8782 15.625 15.8674C15.625 15.4753 15.625 15.1297 15.6483 14.8436C15.6732 14.5393 15.7288 14.2261 15.8839 13.9218C16.1116 13.4749 16.4749 13.1116 16.9218 12.8839C17.2261 12.7288 17.5393 12.6732 17.8436 12.6483C18.1297 12.625 18.4753 12.625 18.8674 12.625ZM17.9861 14.3925C17.79 14.4085 17.7328 14.4347 17.7163 14.4431C17.5987 14.503 17.503 14.5987 17.4431 14.7163C17.4347 14.7328 17.4085 14.79 17.3925 14.9861C17.3757 15.1923 17.375 15.4655 17.375 15.9V17.1C17.375 17.5345 17.3757 17.8077 17.3925 18.0139C17.4085 18.21 17.4347 18.2672 17.4431 18.2837C17.503 18.4013 17.5987 18.497 17.7163 18.5569C17.7328 18.5653 17.79 18.5915 17.9861 18.6075C18.1923 18.6243 18.4655 18.625 18.9 18.625H20.1C20.5345 18.625 20.8077 18.6243 21.0139 18.6075C21.21 18.5915 21.2672 18.5653 21.2837 18.5569C21.4013 18.497 21.497 18.4013 21.5569 18.2837C21.5653 18.2672 21.5915 18.21 21.6075 18.0139C21.6243 17.8077 21.625 17.5345 21.625 17.1V15.9C21.625 15.4655 21.6243 15.1923 21.6075 14.9861C21.5915 14.79 21.5653 14.7328 21.5569 14.7163C21.497 14.5987 21.4013 14.503 21.2837 14.4431C21.2672 14.4347 21.21 14.4085 21.0139 14.3925C20.8077 14.3757 20.5345 14.375 20.1 14.375H18.9C18.4655 14.375 18.1923 14.3757 17.9861 14.3925Z" fill="black"/></svg>
