<svg width="20" height="20" fill="none" xmlns="http://www.w3.org/2000/svg"><path d="M9.27 13.537a1.353 1.353 0 0 1 .73-2.495 1.354 1.354 0 0 1 .73 2.495v1.255a.73.73 0 1 1-1.46 0v-1.255Z" fill="#000"/><path d="M4.896 5.625v2.327A2.813 2.813 0 0 0 3.744 9.14c-.175.343-.244.706-.276 1.099-.03.377-.03.84-.03 1.398v3.393c0 .558 0 1.02.03 1.398.032.392.101.756.276 1.099.27.529.7.96 1.23 1.229.342.175.706.244 1.098.276.378.03.84.03 1.398.03h5.06c.558 0 1.02 0 1.398-.03.392-.032.756-.101 1.099-.276.53-.27.96-.7 1.229-1.23.175-.342.244-.706.276-1.098.03-.378.03-.84.03-1.398v-3.393c0-.558 0-1.02-.03-1.398-.032-.393-.101-.756-.276-1.1a2.813 2.813 0 0 0-1.152-1.187V5.625a5.104 5.104 0 0 0-10.208 0Zm8.75 0v1.993c-.32-.014-.69-.014-1.116-.014H7.47c-.426 0-.796 0-1.116.014V5.625a3.646 3.646 0 1 1 7.292 0ZM5.636 9.21c.102-.052.253-.097.555-.122.31-.025.714-.026 1.309-.026h5c.595 0 .998.001 1.309.026.302.025.453.07.556.122.255.13.462.337.592.592.052.103.096.253.121.556.026.31.026.713.026 1.309V15c0 .595 0 .998-.026 1.309-.024.302-.069.453-.121.556-.13.255-.337.462-.592.592-.103.052-.254.096-.556.121-.31.026-.714.026-1.309.026h-5c-.595 0-.998 0-1.309-.026-.302-.024-.453-.069-.556-.121a1.355 1.355 0 0 1-.592-.592c-.052-.103-.096-.254-.121-.556-.026-.31-.026-.714-.026-1.309v-3.333c0-.596 0-.998.026-1.31.025-.302.069-.452.121-.555.13-.255.337-.462.592-.592Z" fill="#000"/></svg>