<svg width="20" height="20" fill="none" xmlns="http://www.w3.org/2000/svg"><path d="M7.5 9.896a1.25 1.25 0 1 1 2.5 0 1.25 1.25 0 0 1-2.5 0Z" fill="#000"/><path d="M15.729 5.94c0-.435-.005-.805-.03-1.118-.033-.392-.102-.756-.276-1.099a2.81 2.81 0 0 0-1.23-1.229c-.342-.175-.706-.244-1.099-.276-.377-.03-.84-.03-1.397-.03H4.97c-.558 0-1.02 0-1.398.03-.392.032-.756.101-1.099.276-.529.27-.96.7-1.229 1.23-.175.342-.244.706-.276 1.098-.03.378-.03.84-.03 1.398v3.393c0 .558 0 1.02.03 1.398.032.393.101.756.276 1.1.27.528.7.959 1.23 1.228.342.175.706.244 1.098.276.207.017.44.024.699.028v.137c0 .558 0 1.02.03 1.398.033.392.102.756.276 1.099.27.53.7.96 1.23 1.229.342.175.706.244 1.099.276.377.03.84.03 1.397.03h6.727c.558 0 1.02 0 1.398-.03.392-.032.756-.101 1.099-.276.53-.27.96-.7 1.229-1.23.175-.342.244-.706.276-1.098.03-.378.03-.84.03-1.398V9.97c0-.558 0-1.02-.03-1.398-.032-.392-.101-.756-.276-1.099a2.81 2.81 0 0 0-1.23-1.229c-.342-.175-.706-.244-1.098-.276-.207-.017-.44-.024-.699-.028Zm-1.458-.003H8.303c-.558 0-1.02 0-1.397.031-.393.032-.757.101-1.1.276-.529.27-.959.7-1.229 1.23-.174.342-.243.706-.275 1.098-.031.378-.031.84-.031 1.398v2.214a8.658 8.658 0 0 1-.58-.022c-.302-.025-.453-.07-.556-.122a1.354 1.354 0 0 1-.592-.592c-.052-.103-.097-.253-.121-.556-.026-.31-.026-.713-.026-1.309V6.25c0-.595 0-.998.026-1.309.024-.302.069-.453.121-.556.13-.255.337-.462.592-.592.103-.052.254-.097.556-.121.31-.026.714-.026 1.309-.026h6.667c.595 0 .998 0 1.309.026.302.024.452.069.555.121.255.13.462.337.592.592.053.103.097.254.122.556.02.253.025.567.026.997Zm3.186 2.198c.052.103.096.254.121.556.026.31.026.714.026 1.309v2.823l-1.621-1.621a1.98 1.98 0 0 0-2.8 0l-2.35 2.35-.684-.684a1.98 1.98 0 0 0-2.798 0l-1.619 1.618c-.003-.208-.003-.45-.003-.736V10c0-.595 0-.998.026-1.309.025-.302.07-.453.122-.556.13-.255.337-.462.592-.592.102-.052.253-.096.555-.121.311-.026.714-.026 1.31-.026H15c.595 0 .998 0 1.309.026.302.025.453.069.556.121.255.13.462.337.592.592Zm-2.505 4.098 2.638 2.638a5.442 5.442 0 0 1-.012.188c-.024.302-.069.453-.121.556-.13.255-.337.462-.592.592-.103.052-.254.096-.556.121-.31.026-.714.026-1.309.026H8.333c-.595 0-.998 0-1.309-.026-.302-.024-.453-.069-.555-.121a1.36 1.36 0 0 1-.24-.156L8.383 13.9a.52.52 0 0 1 .736 0l1.2 1.199a.73.73 0 0 0 1.03 0l2.867-2.866a.52.52 0 0 1 .737 0Z" fill="#000"/></svg>