<svg width="20" height="20" fill="none" xmlns="http://www.w3.org/2000/svg"><path d="M7.5 9.896a1.25 1.25 0 1 1 2.5 0 1.25 1.25 0 0 1-2.5 0Z" fill="#000"/><path d="m15.623 5.263.09.677c.266.003.504.011.715.028.392.032.756.101 1.099.276.53.27.96.7 1.229 1.23.175.342.244.706.276 1.098.03.378.03.84.03 1.398v3.81c0 .558 0 1.02-.03 1.398-.032.392-.101.756-.276 1.099-.27.529-.7.96-1.23 1.229-.342.175-.706.244-1.098.276-.378.03-.84.03-1.398.03H8.303c-.557 0-1.02 0-1.397-.03-.393-.032-.757-.101-1.1-.276-.529-.27-.959-.7-1.229-1.23-.174-.342-.243-.706-.275-1.098-.023-.282-.03-.61-.03-.99a2.585 2.585 0 0 1-.862-.136 2.812 2.812 0 0 1-1.38-1.058c-.217-.317-.333-.67-.416-1.054-.08-.37-.14-.829-.213-1.382L.958 7.194a18.553 18.553 0 0 1-.152-1.39c-.02-.393.002-.763.13-1.126A2.813 2.813 0 0 1 1.994 3.3c.317-.218.669-.333 1.054-.416.37-.08.829-.14 1.382-.213l6.669-.878c.553-.073 1.011-.134 1.39-.152.393-.02.763.001 1.125.13.56.198 1.043.568 1.38 1.058.217.317.333.669.416 1.053.08.37.14.83.213 1.382ZM4.271 12.73V9.97c0-.558 0-1.02.03-1.398.033-.392.102-.756.276-1.099.27-.53.7-.96 1.23-1.229.342-.175.706-.244 1.099-.276.377-.03.84-.03 1.397-.03h5.938l-.06-.455c-.077-.59-.13-.99-.196-1.294-.064-.297-.128-.44-.194-.535a1.354 1.354 0 0 0-.664-.51c-.108-.038-.264-.063-.566-.048-.312.016-.711.068-1.302.145l-6.61.87c-.59.078-.989.131-1.294.197-.296.064-.44.128-.535.193a1.354 1.354 0 0 0-.51.664c-.038.11-.062.264-.047.567.015.312.067.711.145 1.301l.435 3.305c.078.59.13.99.196 1.295.064.296.128.44.194.535.162.235.394.414.664.51.083.028.192.05.374.051Zm13.186-4.594a1.355 1.355 0 0 0-.592-.592c-.103-.052-.254-.097-.556-.121-.31-.026-.714-.026-1.309-.026H8.333c-.595 0-.998 0-1.309.026-.302.024-.453.069-.555.121-.255.13-.462.337-.592.592-.053.103-.097.254-.122.556-.025.31-.026.714-.026 1.309v3.75c0 .286 0 .528.003.736l1.619-1.618a1.979 1.979 0 0 1 2.798 0l.684.684 2.35-2.35a1.98 1.98 0 0 1 2.8 0l1.621 1.62V10c0-.595 0-.998-.026-1.309-.024-.302-.069-.453-.121-.556Zm-2.505 4.098a.52.52 0 0 0-.737 0L11.349 15.1a.73.73 0 0 1-1.031 0l-1.2-1.2a.52.52 0 0 0-.736 0L6.23 16.052c.073.06.153.112.239.155.102.053.253.098.555.122.311.026.714.026 1.31.026H15c.595 0 .998 0 1.309-.026.302-.024.453-.069.556-.122.255-.13.462-.336.592-.591.052-.103.096-.254.121-.556.005-.06.009-.121.012-.188l-2.638-2.638Z" fill="#000"/></svg>