<svg xmlns="http://www.w3.org/2000/svg" width="128" height="128"><path fill="#3a76f0" d="m48.64 1.87 1.44 5.82A57.84 57.84 0 0 0 34 14.34L30.92 9.2a63.76 63.76 0 0 1 17.72-7.33Zm30.72 0-1.44 5.82A57.84 57.84 0 0 1 94 14.34l3.1-5.14a63.76 63.76 0 0 0-17.74-7.33ZM9.2 30.92a63.76 63.76 0 0 0-7.33 17.72l5.82 1.44A57.84 57.84 0 0 1 14.34 34ZM6 64a57.9 57.9 0 0 1 .65-8.69l-5.93-.9a64.23 64.23 0 0 0 0 19.18l5.93-.9A57.9 57.9 0 0 1 6 64Zm91.08 54.8L94 113.66a57.84 57.84 0 0 1-16.06 6.65l1.44 5.82a63.76 63.76 0 0 0 17.7-7.33ZM122 64a57.9 57.9 0 0 1-.65 8.69l5.93.9a64.23 64.23 0 0 0 0-19.18l-5.93.9A57.9 57.9 0 0 1 122 64Zm4.13 15.36-5.82-1.44A57.84 57.84 0 0 1 113.66 94l5.14 3.1a63.76 63.76 0 0 0 7.33-17.74Zm-53.44 42a58.41 58.41 0 0 1-17.38 0l-.9 5.93a64.23 64.23 0 0 0 19.18 0Zm38-22.95a58.21 58.21 0 0 1-12.29 12.28l3.56 4.83A64.1 64.1 0 0 0 115.52 102ZM98.4 17.31a58.21 58.21 0 0 1 12.29 12.29l4.83-3.6A64.1 64.1 0 0 0 102 12.48ZM17.31 29.6A58.21 58.21 0 0 1 29.6 17.31L26 12.48A64.1 64.1 0 0 0 12.48 26Zm101.49 1.32L113.66 34a57.84 57.84 0 0 1 6.65 16.06l5.82-1.44a63.76 63.76 0 0 0-7.33-17.7ZM55.31 6.65a58.41 58.41 0 0 1 17.38 0l.9-5.93a64.23 64.23 0 0 0-19.18 0ZM20.39 117.11 8 120l2.89-12.39-5.84-1.37-2.89 12.39a6 6 0 0 0 7.21 7.21L21.75 123ZM6.3 100.89l5.84 1.36 2-8.59a57.75 57.75 0 0 1-6.45-15.74l-5.82 1.44a63.52 63.52 0 0 0 5.9 15.21Zm28 13-8.59 2 1.36 5.84 6.32-1.47a63.52 63.52 0 0 0 15.21 5.9l1.44-5.82a57.75 57.75 0 0 1-15.7-6.49ZM64 12a52 52 0 0 0-44 79.67L15 113l21.33-5A52 52 0 1 0 64 12Z"/></svg>