<svg width="16" height="16" viewBox="0 0 16 16" fill="none" xmlns="http://www.w3.org/2000/svg">
<path d="M5.33335 2.31672C3.4832 2.31672 1.98335 3.81657 1.98335 5.66672C1.98335 6.48907 2.27882 7.24071 2.77013 7.82381C2.93242 8.01642 3.02713 8.27476 3.00398 8.55045L2.90267 9.75728L3.85216 9.09739C4.08958 8.93239 4.37443 8.88846 4.63132 8.94318C4.72496 8.96313 4.82014 8.97918 4.91669 8.99113L4.91668 9.00006C4.91668 9.45039 4.96845 9.88864 5.06637 10.3092C4.86977 10.298 4.67621 10.2746 4.48648 10.2397L3.092 11.2088C2.40877 11.6837 1.48132 11.1482 1.55093 10.3191L1.69806 8.56648C1.06332 7.7716 0.68335 6.76276 0.68335 5.66672C0.68335 3.0986 2.76523 1.01672 5.33335 1.01672C7.07529 1.01672 8.59352 1.97456 9.39008 3.39227C8.95168 3.49166 8.53229 3.64113 8.13826 3.83436C7.54002 2.92046 6.50719 2.31672 5.33335 2.31672Z" fill="black"/>
<path fill-rule="evenodd" clip-rule="evenodd" d="M10.6667 4.35C13.2349 4.35 15.3167 6.43188 15.3167 9C15.3167 10.0917 14.9397 11.097 14.3095 11.8904L14.461 13.6955C14.5306 14.5246 13.6032 15.06 12.9199 14.5852L11.4737 13.5801C11.2112 13.6261 10.9415 13.65 10.6667 13.65C8.09862 13.65 6.01675 11.5681 6.01675 9C6.01675 6.43188 8.09862 4.35 10.6667 4.35ZM14.0167 9C14.0167 7.14985 12.5169 5.65 10.6667 5.65C8.81659 5.65 7.31675 7.14985 7.31675 9C7.31675 10.8502 8.81659 12.35 10.6667 12.35C10.8977 12.35 11.1225 12.3267 11.3392 12.2826C11.5936 12.2308 11.8747 12.2757 12.1094 12.4387L13.1093 13.1337L13.0036 11.8748C12.9805 11.6001 13.0745 11.3426 13.2357 11.1502C13.7236 10.5681 14.0167 9.81914 14.0167 9Z" fill="black"/>
</svg>
