<svg xmlns="http://www.w3.org/2000/svg" width="20" height="20" fill="none"><path fill="#000" d="M6.667 2.812a4.27 4.27 0 0 0-3.268 7.021c.19.226.3.527.273.848l-.142 1.685 1.333-.926c.276-.192.608-.244.909-.18.19.04.384.069.583.083.006.504.066.995.174 1.468a5.749 5.749 0 0 1-.94-.1l-1.772 1.232c-.796.553-1.876-.071-1.795-1.037l.186-2.224a5.73 5.73 0 1 1 9.548-6.232 6.93 6.93 0 0 0-1.398.485 4.269 4.269 0 0 0-3.691-2.123Z"/><path fill="#000" fill-rule="evenodd" d="M13.333 5.52a5.73 5.73 0 0 1 4.468 9.317l.192 2.29c.081.965-1 1.59-1.796 1.036l-1.836-1.276a5.73 5.73 0 1 1-1.028-11.366Zm4.271 5.73a4.27 4.27 0 1 0-3.413 4.185c.297-.06.625-.008.898.182l1.395.97-.147-1.75c-.026-.32.083-.62.271-.846a4.25 4.25 0 0 0 .996-2.741Z" clip-rule="evenodd"/></svg>