<svg width="1024" height="1024" fill="none" xmlns="http://www.w3.org/2000/svg"><path d="M512 128c19.922 0 39.49 1.517 58.595 4.442l-5.493 35.584A350.687 350.687 0 0 0 512 164a350.777 350.777 0 0 0-53.099 4.025l-5.493-35.583A386.95 386.95 0 0 1 512 128Zm91.127 10.878-8.543 34.98c35.086 8.539 68.09 22.397 98.11 40.671l18.692-30.773c-33.125-20.165-69.543-35.456-108.259-44.878Zm135.814 63.326-21.276 29.043a350.02 350.02 0 0 1 75.089 75.09l29.044-21.276a386.232 386.232 0 0 0-82.857-82.857Zm101.305 110.412-30.773 18.693c18.273 30.02 32.131 63.024 40.67 98.109l34.98-8.543c-9.422-38.715-24.713-75.133-44.877-108.259Zm51.312 140.792-35.583 5.493A350.777 350.777 0 0 1 860 512c0 18.055-1.375 35.788-4.026 53.101l35.584 5.494A386.999 386.999 0 0 0 896 512c0-19.921-1.517-39.488-4.442-58.592Zm-82.087 239.286c18.274-30.02 32.132-63.024 40.671-98.11l34.98 8.543c-9.422 38.716-24.713 75.134-44.878 108.259l-30.773-18.692Zm-16.718 24.972 29.043 21.275a386.232 386.232 0 0 1-82.857 82.857l-21.276-29.044a350.038 350.038 0 0 0 75.09-75.088Zm-100.062 91.807 18.693 30.773c-33.126 20.164-69.544 35.455-108.259 44.877l-8.543-34.98c35.085-8.539 68.089-22.397 98.109-40.67Zm-127.592 46.502 5.493 35.583A386.959 386.959 0 0 1 512 896c-19.922 0-39.49-1.517-58.595-4.442l5.492-35.579A350.922 350.922 0 0 0 512 860c18.054 0 35.786-1.375 53.099-4.025Zm-135.686-5.825-8.541 34.972a381.327 381.327 0 0 1-82.936-30.747l-36.445 8.504-8.181-35.059 49.25-11.491 11.717 5.968a345.3 345.3 0 0 0 75.136 27.853Zm-166.486-15.24 8.18 35.058-62.47 14.577c-41.572 9.7-78.882-27.61-69.182-69.182l14.577-62.47 35.058 8.18-14.576 62.47c-3.638 15.59 10.353 29.581 25.943 25.943l62.47-14.576ZM196.18 730.69l-35.059-8.181 8.504-36.445a381.283 381.283 0 0 1-30.748-82.939l34.972-8.542a345.292 345.292 0 0 0 27.854 75.141l5.968 11.716-11.491 49.25Zm-28.16-165.591-35.578 5.493A386.959 386.959 0 0 1 128 512c0-19.922 1.517-39.49 4.442-58.594l35.584 5.493A350.664 350.664 0 0 0 164 512c0 18.063 1.373 35.795 4.02 53.099Zm5.838-135.683-34.98-8.543c9.422-38.715 24.713-75.134 44.878-108.259l30.773 18.693c-18.274 30.019-32.132 63.023-40.671 98.109Zm57.389-123.081-29.043-21.276a386.232 386.232 0 0 1 82.857-82.857l21.276 29.044a350.02 350.02 0 0 0-75.09 75.089Zm100.062-91.807-18.693-30.773c33.126-20.165 69.544-35.456 108.259-44.878l8.543 34.98c-35.086 8.539-68.09 22.397-98.109 40.671Z" fill="#fff"/><path d="M824 512c0 172.313-139.687 312-312 312-54.656 0-106.029-14.054-150.703-38.745-4.302-2.377-9.321-3.161-14.107-2.045l-138.784 32.384 32.383-138.785c1.117-4.787.332-9.806-2.045-14.107C214.053 618.028 200 566.655 200 512c0-172.313 139.687-312 312-312s312 139.687 312 312Z" fill="#fff"/></svg>