<svg width="20" height="20" fill="none" xmlns="http://www.w3.org/2000/svg"><path fill-rule="evenodd" clip-rule="evenodd" d="M10.22.938c-.675 0-1.225 0-1.671.036-.462.038-.878.118-1.265.315a3.23 3.23 0 0 0-1.411 1.412c-.198.387-.278.802-.316 1.264-.036.447-.036.997-.036 1.671v8.728c0 .674 0 1.224.036 1.67.038.463.118.878.316 1.265.31.608.803 1.102 1.41 1.412.388.197.804.277 1.266.315.446.037.996.037 1.67.037h2.895c.674 0 1.224 0 1.67-.037.463-.038.878-.118 1.265-.316a3.229 3.229 0 0 0 1.412-1.41c.197-.388.277-.803.315-1.265.037-.447.037-.997.037-1.671V5.636c0-.674 0-1.224-.037-1.67-.038-.463-.118-.878-.316-1.265a3.23 3.23 0 0 0-1.41-1.412c-.388-.197-.803-.277-1.265-.315-.447-.037-.997-.037-1.671-.036h-2.895Zm-2.274 1.65c.147-.074.35-.13.721-.16.38-.032.87-.032 1.583-.032h2.833c.712 0 1.203 0 1.583.031.372.03.574.087.721.162.333.17.604.44.774.774.075.147.131.35.162.721.03.38.031.87.031 1.583v8.666c0 .712 0 1.203-.031 1.583-.03.372-.087.574-.162.721-.17.334-.44.604-.774.774-.147.075-.35.131-.721.162-.38.03-.87.031-1.583.031H10.25c-.712 0-1.202 0-1.583-.031-.371-.03-.574-.087-.721-.162a1.77 1.77 0 0 1-.774-.774c-.075-.147-.13-.35-.161-.721-.031-.38-.032-.87-.032-1.583V5.667c0-.712 0-1.203.032-1.583.03-.372.086-.574.161-.721.17-.333.44-.604.774-.774Z" fill="#000"/><path d="M4.485 2.837c-.1.355-.147.701-.174 1.027a11.35 11.35 0 0 0-.03.6c-.374.138-.65.243-.87.344-.276.127-.402.22-.481.305a1.353 1.353 0 0 0-.354.758c-.014.115-.004.271.076.564.082.3.22.68.423 1.239l1.196 3.285V14.4c0 .242 0 .476.002.702a5.321 5.321 0 0 1-.056-.118 18.513 18.513 0 0 1-.507-1.303L1.695 8.145c-.191-.525-.35-.96-.45-1.324-.104-.38-.163-.746-.116-1.128.072-.59.33-1.14.734-1.575.263-.281.58-.47.939-.635.344-.158.778-.316 1.303-.507l.38-.139Z" fill="#000"/></svg>