<svg width="40" height="40" fill="none" xmlns="http://www.w3.org/2000/svg"><path fill-rule="evenodd" clip-rule="evenodd" d="M18.357 3c-1.084 0-1.958 0-2.666.058-.729.06-1.369.185-1.961.487a5 5 0 0 0-2.185 2.185c-.302.592-.428 1.233-.487 1.961C11 8.4 11 9.273 11 10.357v19.286c0 1.084 0 1.958.058 2.666.06.729.185 1.369.487 1.961a5 5 0 0 0 2.185 2.185c.592.302 1.232.428 1.961.487.708.058 1.582.058 2.666.058h8.286c1.084 0 1.958 0 2.666-.058.729-.06 1.369-.185 1.961-.487a5 5 0 0 0 2.185-2.185c.302-.592.428-1.233.487-1.961C34 31.6 34 30.727 34 29.643V10.357c0-1.084 0-1.958-.058-2.666-.06-.728-.185-1.369-.487-1.96a5 5 0 0 0-2.185-2.186c-.592-.302-1.232-.428-1.961-.487C28.6 3 27.727 3 26.643 3h-8.286Zm-3.719 2.327c.263-.134.611-.226 1.216-.276.617-.05 1.41-.051 2.546-.051h8.2c1.137 0 1.929 0 2.546.051.605.05.953.142 1.216.276a3 3 0 0 1 1.311 1.311c.134.263.226.611.276 1.216.05.617.051 1.41.051 2.546v19.2c0 1.137 0 1.929-.051 2.546-.05.605-.142.953-.276 1.216a3 3 0 0 1-1.311 1.311c-.263.134-.611.226-1.216.276-.617.05-1.41.051-2.546.051h-8.2c-1.137 0-1.929 0-2.546-.051-.605-.05-.953-.142-1.216-.276a3 3 0 0 1-1.311-1.311c-.134-.263-.226-.611-.276-1.216-.05-.617-.051-1.41-.051-2.546V10.4c0-1.137 0-1.929.051-2.546.05-.605.142-.953.276-1.216a3 3 0 0 1 1.311-1.311Z" fill="#000"/><path d="M9.727 6.42a8.657 8.657 0 0 0-.164 1.15 17.28 17.28 0 0 0-.05 1.056l-.125.045c-1.068.389-1.813.66-2.375.919-.552.253-.847.459-1.048.675a3 3 0 0 0-.784 1.68c-.036.294-.004.652.157 1.238.163.596.434 1.341.822 2.41l3.34 9.175v4.924l.001.871a64.71 64.71 0 0 1-.69-1.842L4.265 16.236c-.37-1.018-.67-1.84-.857-2.525-.193-.705-.294-1.35-.213-2.01a5 5 0 0 1 1.306-2.8c.453-.486 1.012-.823 1.676-1.129.646-.296 1.467-.595 2.486-.966l1.063-.387Z" fill="#000"/></svg>