<svg width="16" height="16" fill="none" xmlns="http://www.w3.org/2000/svg"><path d="M8.182 1.1h2.136c.545 0 .978 0 1.328.029.358.029.664.09.944.233a2.4 2.4 0 0 1 1.048 1.048c.143.28.204.586.233.944.029.35.029.783.029 1.328v6.636c0 .545 0 .978-.029 1.328-.029.358-.09.664-.233.944a2.4 2.4 0 0 1-1.048 1.048c-.28.143-.586.204-.944.233-.35.029-.783.029-1.328.029H8.182c-.545 0-.978 0-1.328-.029-.358-.029-.664-.09-.944-.233a2.4 2.4 0 0 1-1.048-1.048c-.143-.28-.204-.586-.233-.944-.029-.35-.029-.783-.029-1.329V4.683c0-.545 0-.978.029-1.328.029-.358.09-.664.233-.944A2.4 2.4 0 0 1 5.91 1.362c.28-.143.586-.204.944-.233.35-.029.783-.029 1.328-.029Zm-4.65 2.164c.02-.241.054-.496.123-.755l-.302.11c-.447.163-.805.293-1.086.422-.288.133-.528.278-.721.485a2.15 2.15 0 0 0-.562 1.205c-.035.281.008.558.092.864.082.299.212.657.375 1.104l1.517 4.167c.162.446.292.805.422 1.085.037.082.075.16.116.233-.006-.26-.006-.538-.006-.832V4.648c0-.515 0-.988.032-1.384Z" fill="#000"/></svg>