<svg width="20" height="20" fill="none" xmlns="http://www.w3.org/2000/svg"><path d="M10.232 1.25h2.87c.684 0 1.223 0 1.657.035.443.037.813.112 1.148.283.55.28.995.726 1.275 1.275.171.335.246.705.283 1.148.035.434.035.973.035 1.657v8.704c0 .684 0 1.223-.035 1.657-.037.443-.112.813-.283 1.148-.28.55-.726.995-1.275 1.275-.335.171-.705.246-1.148.283-.434.035-.973.035-1.657.035h-2.87c-.685 0-1.224 0-1.658-.035-.443-.037-.812-.112-1.148-.283a2.916 2.916 0 0 1-1.275-1.274c-.171-.336-.246-.706-.282-1.149-.036-.434-.036-.973-.036-1.657V5.648c0-.684 0-1.223.036-1.657.036-.443.111-.813.282-1.148.28-.55.726-.995 1.275-1.275.336-.171.705-.246 1.148-.283.434-.035.973-.035 1.658-.035ZM4.623 3.889c.022-.265.057-.538.123-.814l-.523.19c-.534.195-.959.35-1.29.502-.341.156-.618.325-.841.564a2.5 2.5 0 0 0-.653 1.4c-.04.325.009.646.108 1.007.097.353.251.777.445 1.31L4 13.566c.194.533.349.958.501 1.29.028.06.055.117.084.173-.002-.203-.002-.415-.002-.635V5.607c0-.649 0-1.233.04-1.718Z" fill="#000"/></svg>