<svg width="40" height="40" viewBox="0 0 40 40" fill="none" xmlns="http://www.w3.org/2000/svg">
<path fill-rule="evenodd" clip-rule="evenodd" d="M18.3479 2.75C17.2721 2.74999 16.3892 2.74997 15.671 2.80865C14.9267 2.86946 14.25 2.99948 13.6165 3.32222C12.6287 3.82555 11.8256 4.6287 11.3222 5.61655C10.9995 6.24996 10.8695 6.92671 10.8086 7.67102C10.75 8.38918 10.75 9.27207 10.75 10.3479V29.6521C10.75 30.7279 10.75 31.6108 10.8086 32.329C10.8695 33.0733 10.9995 33.75 11.3222 34.3835C11.8256 35.3713 12.6287 36.1744 13.6165 36.6778C14.25 37.0005 14.9267 37.1305 15.671 37.1914C16.3892 37.25 17.272 37.25 18.3479 37.25H26.6521C27.728 37.25 28.6108 37.25 29.329 37.1914C30.0733 37.1305 30.75 37.0005 31.3834 36.6778C32.3713 36.1744 33.1744 35.3713 33.6778 34.3835C34.0005 33.75 34.1305 33.0733 34.1914 32.329C34.25 31.6108 34.25 30.728 34.25 29.6522V10.3479C34.25 9.27207 34.25 8.38916 34.1914 7.67102C34.1305 6.92671 34.0005 6.24996 33.6778 5.61655C33.1744 4.6287 32.3713 3.82555 31.3834 3.32222C30.75 2.99948 30.0733 2.86946 29.329 2.80865C28.6108 2.74997 27.7279 2.74999 26.6521 2.75H18.3479ZM14.7515 5.54973C14.9738 5.4365 15.2849 5.34853 15.8746 5.30035C16.4789 5.25097 17.2593 5.25 18.4 5.25H26.6C27.7407 5.25 28.5211 5.25097 29.1254 5.30035C29.7151 5.34853 30.0262 5.4365 30.2485 5.54973C30.7659 5.81339 31.1866 6.23408 31.4503 6.75153C31.5635 6.97377 31.6515 7.28489 31.6997 7.8746C31.749 8.4789 31.75 9.25927 31.75 10.4V29.6C31.75 30.7407 31.749 31.5211 31.6997 32.1254C31.6515 32.7151 31.5635 33.0262 31.4503 33.2485C31.1866 33.7659 30.7659 34.1866 30.2485 34.4503C30.0262 34.5635 29.7151 34.6515 29.1254 34.6997C28.5211 34.749 27.7407 34.75 26.6 34.75H18.4C17.2593 34.75 16.4789 34.749 15.8746 34.6997C15.2849 34.6515 14.9738 34.5635 14.7515 34.4503C14.2341 34.1866 13.8134 33.7659 13.5497 33.2485C13.4365 33.0262 13.3485 32.7151 13.3003 32.1254C13.251 31.5211 13.25 30.7407 13.25 29.6V10.4C13.25 9.25927 13.251 8.4789 13.3003 7.8746C13.3485 7.28489 13.4365 6.97377 13.5497 6.75153C13.8134 6.23408 14.2341 5.81339 14.7515 5.54973Z" fill="black"/>
<path d="M9.23414 6.33258C9.14574 6.74195 9.09596 7.14342 9.06449 7.52852C9.02634 7.99543 9.01074 8.51644 9.00438 9.07691C8.18127 9.37776 7.58408 9.60268 7.11743 9.81702C6.57977 10.064 6.31749 10.2531 6.14739 10.4355C5.75132 10.8602 5.49988 11.3994 5.42911 11.9758C5.39871 12.2234 5.42246 12.5459 5.57888 13.1165C5.73916 13.7012 6.00515 14.4349 6.3953 15.5068L9.00003 22.6632L9.00005 29.9612C8.86759 29.6089 8.72856 29.2269 8.57857 28.8148L4.02826 16.3129C3.66028 15.3019 3.35831 14.4723 3.16782 13.7774C2.97039 13.0572 2.86111 12.3768 2.94774 11.6712C3.08286 10.5707 3.56288 9.54133 4.319 8.73049C4.80383 8.21057 5.3953 7.85693 6.07392 7.54522C6.7287 7.24446 7.55834 6.94251 8.56931 6.57456L9.23414 6.33258Z" fill="black"/>
</svg>
