<svg width="20" height="20" fill="none" xmlns="http://www.w3.org/2000/svg"><path fill-rule="evenodd" clip-rule="evenodd" d="M1.354 5v7.697c0 .674 0 1.224.037 1.671.037.462.118.877.315 1.265a3.23 3.23 0 0 0 1.411 1.41c.388.198.803.279 1.265.316.447.037.997.037 1.67.037h7.895c.674 0 1.224 0 1.671-.037.462-.037.877-.118 1.265-.315a3.23 3.23 0 0 0 1.41-1.411c.198-.388.279-.803.316-1.265.037-.447.037-.997.037-1.67V8.135c0-.674 0-1.224-.037-1.67-.037-.463-.118-.878-.315-1.265a3.23 3.23 0 0 0-1.411-1.412c-.388-.197-.803-.277-1.265-.315-.447-.037-.997-.037-1.67-.037h-4.79c-.345 0-.676-.13-.927-.366L8.1 2.948a2.813 2.813 0 0 0-1.924-.76h-2.01A2.813 2.813 0 0 0 1.355 5Zm15.802 4.5c.03.381.032.871.032 1.583v1.584c0 .712-.001 1.202-.032 1.582-.03.372-.086.574-.162.722a1.77 1.77 0 0 1-.773.774c-.148.075-.35.13-.722.16-.38.032-.87.033-1.582.033H6.083c-.712 0-1.202-.001-1.582-.032-.372-.03-.574-.086-.722-.162a1.771 1.771 0 0 1-.774-.773c-.075-.148-.13-.35-.16-.722-.032-.38-.033-.87-.033-1.582v-1.584c0-.712.001-1.202.032-1.582.03-.372.086-.574.161-.722.17-.333.441-.604.774-.773.148-.076.35-.131.722-.162.38-.03.87-.032 1.582-.032h7.834c.712 0 1.202.001 1.582.032.372.03.574.086.722.162.333.17.604.44.773.773.076.148.131.35.162.722ZM2.812 5c0-.748.607-1.354 1.355-1.354h2.01c.343 0 .674.13.925.366l.132.123c.52.489 1.209.76 1.923.76h4.76c.712 0 1.202.001 1.582.032.372.03.574.087.722.162.333.17.604.44.773.774.05.096.097.214.121.389.041.296.108.409.477.77l-.091.088a2.97 2.97 0 0 0-.618-.404c-.388-.197-.803-.278-1.265-.315-.447-.037-.997-.037-1.67-.037H6.052c-.674 0-1.224 0-1.671.037-.462.037-.877.118-1.265.315a3.229 3.229 0 0 0-.665.452l-.068-.062c.353-.357.428-.507.428-.815V5Z" fill="#000"/></svg>