<svg width="20" height="20" fill="none" xmlns="http://www.w3.org/2000/svg"><path d="M17.018 13.436a6.668 6.668 0 0 1-12.678 1.81l-2.75-5.173a1.667 1.667 0 0 1 .569-2.249c.046-.03.1-.057.142-.08l.033-.018c.094-.05.174-.092.25-.126a2.5 2.5 0 0 1 2.833.551V4.167a2.083 2.083 0 0 1 2.532-2.035 2.084 2.084 0 0 1 3.992-.39 2.085 2.085 0 0 1 2.642 2.008v.042a2.083 2.083 0 0 1 2.5 2.042v7.083c0 .18-.022.353-.065.52Zm-9.101-9.27a.417.417 0 0 0-.834 0v7.5H5.504L4.411 9.612a3.95 3.95 0 0 0-.092-.17.833.833 0 0 0-1.051-.321 3.941 3.941 0 0 0-.23.12l-.003.002.001.002.031.059 1.922 3.614h.003l.834 1.568a5.001 5.001 0 0 0 9.574-1.568h.017V5.833a.417.417 0 0 0-.834 0v3.75h-1.666V3.75a.417.417 0 0 0-.834 0v5.833h-1.666V2.5a.417.417 0 0 0-.834 0v7.083H7.917V4.166Z" fill="#000"/></svg>