<svg width="20" height="20" fill="none" xmlns="http://www.w3.org/2000/svg"><path d="M16.814 13.395a6.46 6.46 0 0 1-12.286 1.76l-2.754-5.18A1.458 1.458 0 0 1 2.4 7.928l.03-.015c.096-.052.17-.091.239-.122a2.292 2.292 0 0 1 2.956.999V4.167a1.875 1.875 0 0 1 2.503-1.768 1.875 1.875 0 0 1 3.681-.393 1.875 1.875 0 0 1 2.566 1.744v.315a1.875 1.875 0 0 1 2.5 1.768v7.084c0 .165-.021.325-.061.478Zm-8.689-9.23a.625.625 0 0 0-1.25.002v7.5H5.74L4.595 9.513a3.907 3.907 0 0 0-.1-.182 1.042 1.042 0 0 0-1.313-.401 3.902 3.902 0 0 0-.244.127l-.013.008a.208.208 0 0 0-.074.275l.033.06 1.87 3.517h.01l.842 1.582a5.21 5.21 0 0 0 10.003-1.582h.016V5.833a.625.625 0 0 0-1.25 0v3.75h-1.25V3.75a.625.625 0 0 0-1.25 0v5.833h-1.25V2.5a.625.625 0 0 0-1.25 0v7.083h-1.25V4.166Z" fill="#000"/></svg>