<svg width="16" height="16" fill="none" xmlns="http://www.w3.org/2000/svg"><path d="M13.65 10h.002c0 .046 0 .09-.002.134v.033a5.318 5.318 0 0 1-10.166 2.018L1.287 8.051c-.018-.035-.04-.077-.059-.117A1.317 1.317 0 0 1 1.85 6.21l.026-.014a1.984 1.984 0 0 1 2.475.367v-3.23a1.65 1.65 0 0 1 2.023-1.607 1.65 1.65 0 0 1 3.17-.312A1.651 1.651 0 0 1 11.65 3v.054a1.65 1.65 0 0 1 2 1.613V10Zm-7.3-6.667a.35.35 0 0 0-.7 0v6H4.422l-.878-1.652a3.16 3.16 0 0 0-.075-.137.683.683 0 0 0-.862-.263 3.166 3.166 0 0 0-.185.097l-.004.002a.017.017 0 0 0-.006.019l.002.004.025.047L3.795 10h.002l.85 1.597a4.019 4.019 0 0 0 7.703-1.48v-5.45a.35.35 0 1 0-.7 0v3h-1.3V3a.35.35 0 1 0-.7 0v4.667h-1.3V2a.35.35 0 1 0-.7 0v5.667h-1.3V3.333Z" fill="#000"/></svg>