<svg width="16" height="16" fill="none" xmlns="http://www.w3.org/2000/svg"><path d="M13.75 10h.002c0 .046 0 .09-.002.135v.032c0 .061-.003.122-.01.182a5.418 5.418 0 0 1-10.345 1.88L1.198 8.097c-.018-.034-.042-.078-.062-.122a1.417 1.417 0 0 1 .547-1.786c.04-.025.085-.05.119-.067l.027-.015c.074-.039.14-.074.204-.103a2.084 2.084 0 0 1 2.217.323V3.333a1.75 1.75 0 0 1 2.044-1.725 1.75 1.75 0 0 1 3.309-.313 1.75 1.75 0 0 1 2.146 1.64 1.75 1.75 0 0 1 2.001 1.732V10Zm-7.5-6.667a.25.25 0 1 0-.5 0v6H4.31l-.855-1.605a3.227 3.227 0 0 0-.07-.131.583.583 0 0 0-.736-.225 1.912 1.912 0 0 0-.108.056l1.71 3.215v.002l.502.945a3.918 3.918 0 0 0 7.497-1.475V4.667a.25.25 0 0 0-.5 0v3h-1.5V3a.25.25 0 1 0-.5 0v4.667h-1.5V2a.25.25 0 0 0-.5 0v5.667h-1.5V3.333Z" fill="#000"/></svg>