<svg width="20" height="20" fill="none" xmlns="http://www.w3.org/2000/svg"><path d="M16.916 13.416A6.564 6.564 0 0 1 4.434 15.2l-2.753-5.177c-.023-.044-.05-.093-.07-.14a1.562 1.562 0 0 1 .602-1.971c.044-.028.094-.054.137-.077l.032-.017c.095-.05.172-.092.244-.124a2.396 2.396 0 0 1 2.895.739V4.167A1.98 1.98 0 0 1 8.035 2.26a1.98 1.98 0 0 1 3.842-.39 1.98 1.98 0 0 1 2.602 1.88v.172a1.982 1.982 0 0 1 2.5 1.91v7.084a2 2 0 0 1-.063.499ZM8.02 4.166a.52.52 0 0 0-1.042 0v7.5H5.625v.006l-1.122-2.11a3.922 3.922 0 0 0-.096-.176.937.937 0 0 0-1.182-.361 3.911 3.911 0 0 0-.237.124l-.01.005a.104.104 0 0 0-.039.129v-.001.002-.001l.005.009.031.06 2.65 4.983v.006l.142.268a5.105 5.105 0 0 0 9.737-1.692h.017V5.833a.52.52 0 0 0-1.042 0v3.75h-1.458V3.75a.52.52 0 0 0-1.042 0v5.833h-1.458V2.5a.52.52 0 0 0-1.042 0v7.083H8.021V4.166Z" fill="#000"/></svg>