<svg width="16" height="16" fill="none" xmlns="http://www.w3.org/2000/svg"><path d="M13.5 10.725a5.218 5.218 0 0 1-9.923 1.422L1.374 8.004a1.217 1.217 0 0 1 .413-1.645c.035-.022.074-.042.109-.061l.025-.013a1.883 1.883 0 0 1 2.53.567v-3.52a1.55 1.55 0 0 1 2.006-1.481 1.55 1.55 0 0 1 3.023-.313A1.55 1.55 0 0 1 11.55 3v.184a1.55 1.55 0 0 1 2 1.484v5.666c0 .136-.017.267-.05.392ZM6.45 3.332a.45.45 0 0 0-.9.001v6H4.535l-.903-1.7a3.124 3.124 0 0 0-.078-.142.783.783 0 0 0-.988-.302 3.127 3.127 0 0 0-.192.1l-.009.005a.117.117 0 0 0-.044.146l.004.009.026.048L4.4 11.35v.003l.178.335a4.117 4.117 0 0 0 7.859-1.356h.013V4.667a.45.45 0 1 0-.9 0v3h-1.1V3a.45.45 0 1 0-.9 0v4.667h-1.1V2a.45.45 0 0 0-.9 0v5.667h-1.1V3.332Z" fill="#000"/></svg>