<svg width="16" height="16" fill="none" xmlns="http://www.w3.org/2000/svg"><g clip-path="url(#brush-highlighter-compact__a)"><path fill-rule="evenodd" clip-rule="evenodd" d="M.85 8a7.15 7.15 0 1 1 14.3 0A7.15 7.15 0 0 1 .85 8ZM8 2.15a5.85 5.85 0 0 0-3.906 10.205l.744-2.084c.05-.142.124-.354.268-.522a1.15 1.15 0 0 1 .457-.322 1.14 1.14 0 0 1 .285-.066l-.571-3.047a.65.65 0 0 1 .505-.756l4.159-.875a.65.65 0 0 1 .776.732l-.591 3.943a1.15 1.15 0 0 1 .768.39c.144.169.218.38.268.523l.744 2.084A5.85 5.85 0 0 0 8 2.15Zm0 11.7a5.824 5.824 0 0 1-2.804-.715l.887-2.485h3.834l.888 2.485A5.824 5.824 0 0 1 8 13.85Z" fill="#000"/></g><defs><clipPath id="brush-highlighter-compact__a"><path fill="#fff" d="M0 0h16v16H0z"/></clipPath></defs></svg>