<svg width="16" height="16" fill="none" xmlns="http://www.w3.org/2000/svg"><g clip-path="url(#brush-pen-compact__a)"><path fill-rule="evenodd" clip-rule="evenodd" d="M.85 8a7.15 7.15 0 1 1 14.3 0A7.15 7.15 0 0 1 .85 8ZM8 2.15a5.85 5.85 0 0 0-4 10.118l.713-1.997c.05-.142.124-.354.268-.522a1.15 1.15 0 0 1 .555-.354l1.085-3.133c.148-.43.269-.777.381-1.03.105-.238.246-.5.491-.633.317-.17.698-.17 1.014 0 .245.133.386.395.491.632.113.254.233.602.382 1.031l1.084 3.133a1.15 1.15 0 0 1 .555.354c.144.168.218.38.268.522L12 12.268A5.85 5.85 0 0 0 8 2.15Zm0 11.7a5.823 5.823 0 0 1-2.909-.773l.867-2.427h4.084l.867 2.427A5.823 5.823 0 0 1 8 13.85Z" fill="#000"/></g><defs><clipPath id="brush-pen-compact__a"><path fill="#fff" d="M0 0h16v16H0z"/></clipPath></defs></svg>