<svg width="16" height="16" fill="none" xmlns="http://www.w3.org/2000/svg"><path d="M6.772 1.35c-.816 0-1.469 0-1.995.043-.54.044-1.006.137-1.434.355a3.65 3.65 0 0 0-1.595 1.595c-.218.428-.31.893-.355 1.434-.043.526-.043 1.179-.043 1.995v2.456c0 .816 0 1.469.043 1.995.044.54.137 1.006.355 1.434a3.65 3.65 0 0 0 1.595 1.595c.428.218.893.31 1.434.355.526.043 1.179.043 1.995.043h2.456c.816 0 1.469 0 1.995-.043.54-.044 1.006-.137 1.434-.355a3.65 3.65 0 0 0 1.595-1.595c.218-.428.31-.893.355-1.434.043-.527.043-1.179.043-1.995V8.5a.65.65 0 1 0-1.3 0v.7c0 .85 0 1.45-.039 1.918-.037.46-.108.735-.217.949a2.35 2.35 0 0 1-1.027 1.027c-.214.109-.49.18-.95.217-.467.039-1.066.039-1.917.039H6.8c-.85 0-1.45 0-1.917-.039-.46-.037-.736-.108-.95-.217a2.35 2.35 0 0 1-1.027-1.027c-.109-.214-.18-.49-.217-.95-.039-.467-.039-1.066-.039-1.917V6.8c0-.85 0-1.45.039-1.917.037-.46.108-.736.217-.95a2.35 2.35 0 0 1 1.027-1.027c.214-.109.49-.18.95-.217C5.35 2.65 5.949 2.65 6.8 2.65h.7a.65.65 0 0 0 0-1.3h-.728Z" fill="#000"/><path d="M14.65 2a.65.65 0 0 0-.65-.65h-4a.65.65 0 0 0 0 1.3h2.653L11.29 3.79l-4.5 4.5a.65.65 0 0 0 .92.92l4.5-4.5 1.14-1.363V6a.65.65 0 1 0 1.3 0V2Z" fill="#000"/></svg>