<svg width="16" height="16" fill="none" xmlns="http://www.w3.org/2000/svg"><path d="M6.768 1.25c-.813 0-1.469 0-2 .043-.546.045-1.026.14-1.47.366a3.75 3.75 0 0 0-1.64 1.639c-.226.444-.32.924-.365 1.47-.043.531-.043 1.187-.043 2v2.464c0 .813 0 1.469.043 2 .045.546.14 1.026.366 1.47a3.75 3.75 0 0 0 1.639 1.64c.444.226.924.32 1.47.365.531.043 1.187.043 2 .043h2.464c.813 0 1.469 0 2-.043.546-.045 1.026-.14 1.47-.366a3.75 3.75 0 0 0 1.64-1.638c.226-.445.32-.925.365-1.471.043-.531.043-1.187.043-2V8.75a.75.75 0 0 0-1.5 0v.45c0 .853 0 1.447-.038 1.91-.037.453-.107.714-.207.912-.216.423-.56.767-.984.983-.197.1-.458.17-.912.207-.462.037-1.056.038-1.909.038H6.8c-.852 0-1.447 0-1.91-.038-.453-.037-.714-.107-.911-.207a2.25 2.25 0 0 1-.984-.984c-.1-.197-.17-.458-.207-.912-.037-.462-.038-1.056-.038-1.909V6.8c0-.852 0-1.447.038-1.91.037-.453.107-.714.207-.911a2.25 2.25 0 0 1 .984-.984c.197-.1.458-.17.912-.207.462-.037 1.057-.038 1.909-.038h.45a.75.75 0 0 0 0-1.5h-.482Z" fill="#000"/><path d="M13.25 6V3.599L12.03 5.03 7.78 9.28a.75.75 0 0 1-1.06-1.06l4.25-4.25 1.43-1.22H10a.75.75 0 0 1 0-1.5h4a.75.75 0 0 1 .75.75v4a.75.75 0 0 1-1.5 0Z" fill="#000"/></svg>