<svg width="20" height="20" fill="none" xmlns="http://www.w3.org/2000/svg"><path d="M7.802 1.77c-.907 0-1.632 0-2.217.049-.601.049-1.12.152-1.596.395a4.062 4.062 0 0 0-1.775 1.775c-.243.476-.346.995-.395 1.596-.048.585-.048 1.31-.048 2.217v4.396c0 .907 0 1.632.048 2.217.049.601.152 1.12.395 1.596a4.063 4.063 0 0 0 1.775 1.775c.476.243.995.346 1.596.395.585.048 1.31.048 2.217.048h4.396c.907 0 1.632 0 2.217-.048.601-.049 1.12-.152 1.596-.395a4.063 4.063 0 0 0 1.775-1.775c.243-.476.346-.995.395-1.596.048-.585.048-1.31.048-2.217v-1.365a.73.73 0 0 0-1.458 0v1.334c0 .945 0 1.61-.043 2.13-.042.51-.12.815-.241 1.052-.25.49-.648.888-1.138 1.138-.237.12-.542.2-1.053.24-.519.043-1.184.044-2.13.044H7.834c-.945 0-1.61 0-2.13-.043-.51-.042-.815-.12-1.052-.241a2.604 2.604 0 0 1-1.138-1.138c-.12-.237-.2-.542-.24-1.052-.043-.52-.044-1.185-.044-2.13V7.833c0-.945 0-1.61.043-2.13.042-.51.12-.815.24-1.052a2.61 2.61 0 0 1 1.139-1.138c.237-.12.542-.2 1.052-.24.52-.043 1.185-.044 2.13-.044h1.334a.73.73 0 0 0 0-1.458H7.802Z" fill="#000"/><path d="M18.23 2.5a.729.729 0 0 0-.73-.73h-5.417a.73.73 0 1 0 0 1.46h3.866l-1.256 1.046-6.459 6.458a.73.73 0 1 0 1.032 1.032l6.458-6.459 1.047-1.256v3.866a.73.73 0 1 0 1.458 0V2.5Z" fill="#000"/></svg>