<svg width="20" height="20" fill="none" xmlns="http://www.w3.org/2000/svg"><path d="M10 1.146c-3.184 0-5.888 2.448-6.008 5.865-.106 3.03-.716 4.115-1.176 4.658a4.497 4.497 0 0 1-.443.448 5.86 5.86 0 0 0-.36.352c-.324.356-.555.791-.555 1.449 0 1.103.881 2.02 1.996 2.02h2.969c.326 1.69 1.772 2.916 3.577 2.916s3.251-1.226 3.577-2.916h2.969c1.114 0 1.996-.917 1.996-2.02 0-.658-.231-1.093-.555-1.45a5.826 5.826 0 0 0-.36-.351l-.062-.058a4.496 4.496 0 0 1-.381-.39c-.46-.543-1.07-1.628-1.177-4.658-.12-3.417-2.823-5.865-6.007-5.865ZM5.45 7.062C5.54 4.445 7.586 2.604 10 2.604c2.414 0 4.458 1.841 4.55 4.458.112 3.206.768 4.661 1.521 5.55.18.211.354.379.5.515l.082.075c.11.103.187.173.255.248.117.129.175.225.175.468a.55.55 0 0 1-.537.561H3.454a.55.55 0 0 1-.537-.561c0-.243.058-.34.175-.468.068-.075.144-.145.255-.248l.081-.075c.146-.136.321-.304.5-.516.753-.888 1.41-2.343 1.522-5.55Zm6.623 8.875c-.286.869-1.081 1.459-2.073 1.459s-1.787-.59-2.073-1.459h4.146Z" fill="#000"/></svg>