<svg width="20" height="20" fill="none" xmlns="http://www.w3.org/2000/svg"><path d="M2.737 11.601c.433-.511 1.03-1.548 1.147-4.476l1.554 1.554c-.244 2.133-.8 3.255-1.43 4a5.997 5.997 0 0 1-.509.524l-.082.077c-.11.102-.183.169-.248.24-.102.113-.148.184-.148.398 0 .267.208.457.433.457h7.68l2.322 2.322c-.562 1.346-1.876 2.261-3.456 2.261-1.825 0-3.296-1.221-3.662-2.916H3.454c-1.174 0-2.1-.966-2.1-2.124 0-.688.243-1.147.582-1.52a5.98 5.98 0 0 1 .367-.358l.061-.057a4.35 4.35 0 0 0 .373-.382Zm5.34 4.44c.307.752 1.03 1.25 1.923 1.25s1.616-.498 1.924-1.25H8.076Zm8.753-2.521a.488.488 0 0 1 .125.194l1.355 1.355c.213-.333.336-.73.336-1.151a2.13 2.13 0 0 0-.582-1.52c-.118-.13-.255-.255-.367-.358l-.03-.029-.031-.028a4.366 4.366 0 0 1-.373-.382c-.439-.518-1.046-1.576-1.152-4.594C15.99 3.533 13.24 1.042 10 1.042a6.1 6.1 0 0 0-4.128 1.59l1.18 1.18A4.437 4.437 0 0 1 10 2.707c2.359 0 4.356 1.798 4.446 4.357.113 3.219.772 4.7 1.546 5.614.183.217.362.387.509.524l.082.077c.11.102.183.169.248.24ZM2.673 1.494a.833.833 0 1 0-1.179 1.179l15.833 15.833a.833.833 0 1 0 1.179-1.179L2.673 1.494Z" fill="#000"/></svg>