<svg width="16" height="16" fill="none" xmlns="http://www.w3.org/2000/svg"><path fill-rule="evenodd" clip-rule="evenodd" d="M8 1.1c-2.54 0-4.693 1.962-4.788 4.692-.083 2.378-.56 3.213-.905 3.623a3.447 3.447 0 0 1-.292.3l-.048.045c-.088.081-.195.18-.288.283a1.67 1.67 0 0 0-.454 1.19c0 .907.722 1.667 1.643 1.667h2.51c.186 1.294 1.266 2.25 2.622 2.25 1.356 0 2.436-.956 2.622-2.25h2.51c.921 0 1.643-.76 1.643-1.666 0-.539-.19-.899-.455-1.191a4.457 4.457 0 0 0-.287-.283l-.048-.044a3.44 3.44 0 0 1-.292-.301c-.346-.41-.822-1.245-.905-3.623C12.693 3.062 10.54 1.1 8 1.1ZM4.511 5.837C4.581 3.816 6.151 2.4 8 2.4c1.848 0 3.418 1.416 3.489 3.437.088 2.534.605 3.698 1.21 4.416.144.17.284.305.399.412l.064.06c.087.081.144.134.195.19.08.09.118.148.118.319a.355.355 0 0 1-.343.366H2.868a.355.355 0 0 1-.343-.366c0-.171.037-.23.118-.319.051-.056.108-.109.194-.19l.065-.06a4.73 4.73 0 0 0 .399-.412c.605-.718 1.122-1.883 1.21-4.416ZM9.295 12.9h-2.59c.16.564.661.95 1.295.95.634 0 1.134-.386 1.295-.95Z" fill="#000"/></svg>