<svg width="20" height="20" fill="none" xmlns="http://www.w3.org/2000/svg"><path d="M1.568 1.568a.73.73 0 0 1 1.031 0L18.432 17.4a.73.73 0 1 1-1.03 1.031L1.567 2.6a.73.73 0 0 1 0-1.031Zm2.734 5.533c-.115 3.009-.73 4.158-1.247 4.77a4.91 4.91 0 0 1-.407.417l-.066.061a5.241 5.241 0 0 0-.337.33c-.28.307-.474.67-.474 1.239 0 .936.747 1.707 1.683 1.707h9.372L4.302 7.101Zm13.524 7.926c.252-.3.403-.688.403-1.109 0-.569-.194-.931-.473-1.239a5.507 5.507 0 0 0-.337-.33h-.001l-.03-.028-.036-.033a4.783 4.783 0 0 1-.407-.417c-.522-.617-1.143-1.781-1.25-4.85C15.582 3.778 13.02 1.459 10 1.459a5.68 5.68 0 0 0-4.058 1.685l11.884 11.884ZM7.458 17.08a.417.417 0 0 1 .36-.205h4.364a.417.417 0 0 1 .364.62c-.496.89-1.44 1.463-2.546 1.463-1.105 0-2.05-.573-2.546-1.463a.417.417 0 0 1 .004-.414Z" fill="#000"/></svg>