<svg width="20" height="20" fill="none" xmlns="http://www.w3.org/2000/svg"><path d="M4.609 1.9a.625.625 0 1 0-.884-.884 7.855 7.855 0 0 0-2.263 4.748.625.625 0 1 0 1.242.138A6.606 6.606 0 0 1 4.61 1.9Zm10.782 0a.625.625 0 1 1 .884-.884 7.855 7.855 0 0 1 2.263 4.748.625.625 0 0 1-1.242.138A6.606 6.606 0 0 0 15.39 1.9ZM10 1.562c-2.964 0-5.48 2.275-5.591 5.463-.108 3.081-.731 4.271-1.275 4.913a4.9 4.9 0 0 1-.482.489c-.113.103-.23.21-.33.322-.265.291-.447.63-.447 1.169 0 .88.702 1.603 1.58 1.603h13.09c.878 0 1.58-.723 1.58-1.603 0-.54-.182-.878-.447-1.169a5.345 5.345 0 0 0-.33-.322l-.067-.063a4.897 4.897 0 0 1-.415-.426c-.544-.642-1.167-1.832-1.275-4.913C15.48 3.837 12.964 1.562 10 1.562ZM7.548 16.717a.313.313 0 0 1 .27-.154h4.364a.312.312 0 0 1 .273.464c-.477.857-1.387 1.41-2.455 1.41s-1.978-.553-2.455-1.41a.313.313 0 0 1 .003-.31Z" fill="#000"/></svg>