<svg width="20" height="20" fill="none" xmlns="http://www.w3.org/2000/svg"><path d="M6.667 5.625a.625.625 0 1 0 0 1.25h6.666a.625.625 0 1 0 0-1.25H6.667Zm-.625 3.542c0-.345.28-.625.625-.625h6.666a.625.625 0 1 1 0 1.25H6.667a.625.625 0 0 1-.625-.625Zm.625 3.541a.625.625 0 0 1 0-1.25h4.166a.625.625 0 1 1 0 1.25H6.667Z" fill="#000"/><path fill-rule="evenodd" clip-rule="evenodd" d="M7.053 1.354c-.558 0-1.02 0-1.397.031-.393.032-.757.101-1.1.276-.529.27-.959.7-1.229 1.229-.174.343-.243.706-.275 1.099-.031.377-.031.84-.031 1.398v10.09c0 .25 0 .487.055.717.048.202.128.395.236.572.124.202.292.37.469.546l1.537 1.537a.73.73 0 0 0 1.03 0l1.569-1.568 1.567 1.568a.73.73 0 0 0 1.032 0l1.567-1.568 1.568 1.568a.73.73 0 0 0 1.031 0l1.537-1.537c.177-.177.345-.344.468-.546a1.95 1.95 0 0 0 .237-.572c.056-.23.056-.467.055-.717V5.387c0-.558 0-1.02-.03-1.398-.033-.393-.102-.756-.276-1.1-.27-.528-.7-.959-1.23-1.228-.342-.175-.706-.244-1.099-.276-.377-.03-.84-.03-1.397-.03H7.053ZM5.22 2.96c.102-.052.253-.097.555-.122.311-.025.714-.025 1.31-.025h5.833c.595 0 .998 0 1.309.025.302.025.453.07.555.122.255.13.462.337.592.592.053.103.097.253.122.556.025.31.026.713.026 1.309v10.005c0 .34-.005.391-.015.432a.52.52 0 0 1-.062.15c-.022.036-.055.075-.295.316l-.982.982-1.568-1.568a.73.73 0 0 0-1.031 0L10 17.302l-1.568-1.568a.73.73 0 0 0-1.03 0l-1.569 1.568-.982-.982c-.24-.24-.273-.28-.295-.316a.52.52 0 0 1-.062-.15c-.01-.04-.015-.092-.015-.432V5.417c0-.596 0-.998.026-1.31.025-.302.07-.452.122-.555.13-.255.337-.462.592-.592Z" fill="#000"/></svg>