<svg width="16" height="16" fill="none" xmlns="http://www.w3.org/2000/svg"><path fill-rule="evenodd" clip-rule="evenodd" d="M4.6 10.65H3A1.65 1.65 0 0 1 1.35 9V5.5c0-.911.739-1.65 1.65-1.65h6.723a.35.35 0 0 0 .252-.107l1.837-1.907c1.03-1.07 2.838-.341 2.838 1.144v8.54c0 1.485-1.808 2.214-2.838 1.144l-1.837-1.907a.35.35 0 0 0-.252-.107H8.15v2.475a1.775 1.775 0 0 1-3.55 0V10.65Zm8.148-7.913a.35.35 0 0 1 .602.243v8.54a.35.35 0 0 1-.602.243L10.91 9.855a1.65 1.65 0 0 0-1.188-.505H8.15v-4.2h1.573a1.65 1.65 0 0 0 1.188-.505l1.837-1.908ZM6.85 5.15H3a.35.35 0 0 0-.35.35V9c0 .193.157.35.35.35h3.85v-4.2Zm0 5.5H5.9v2.475a.475.475 0 0 0 .95 0V10.65Z" fill="#000"/></svg>