<svg width="20" height="20" fill="none" xmlns="http://www.w3.org/2000/svg"><path d="M7.5 8.333A.833.833 0 0 0 7.5 10h5a.833.833 0 0 0 0-1.667h-5Z" fill="#000"/><path d="M.938 3.75a1.98 1.98 0 0 1 1.979-1.98h14.166a1.98 1.98 0 0 1 1.98 1.98v.833a1.98 1.98 0 0 1-1.25 1.84v7.108c0 .674 0 1.224-.037 1.67-.038.462-.118.878-.316 1.265a3.229 3.229 0 0 1-1.41 1.411c-.388.198-.803.278-1.265.316-.447.036-.997.036-1.671.036H6.886c-.674 0-1.224 0-1.67-.036-.463-.038-.878-.119-1.265-.316a3.23 3.23 0 0 1-1.412-1.411c-.197-.387-.277-.803-.315-1.265-.037-.446-.037-.996-.037-1.67V6.424a1.98 1.98 0 0 1-1.25-1.84V3.75Zm2.708 2.812V13.5c0 .712 0 1.202.031 1.583.03.371.087.573.162.72.17.334.44.605.774.775.147.075.35.13.721.161.38.031.87.032 1.583.032h6.166c.712 0 1.203 0 1.583-.032.372-.03.574-.086.721-.161.333-.17.604-.44.774-.774.075-.148.131-.35.162-.721.03-.38.031-.87.031-1.583V6.562H3.646Zm-.73-3.333a.52.52 0 0 0-.52.521v.833a.52.52 0 0 0 .52.521h14.167a.52.52 0 0 0 .521-.52V3.75a.52.52 0 0 0-.52-.52H2.916Z" fill="#000"/></svg>