<svg width="16" height="16" viewBox="0 0 16 16" fill="none" xmlns="http://www.w3.org/2000/svg">
<g clip-path="url(#clip0_1106_15216)">
<path fill-rule="evenodd" clip-rule="evenodd" d="M7.99998 0.850006C7.06102 0.850006 6.13127 1.03495 5.26379 1.39427C4.39631 1.75359 3.6081 2.28025 2.94416 2.94419C2.28022 3.60813 1.75356 4.39634 1.39424 5.26382C1.03492 6.1313 0.849976 7.06105 0.849976 8.00001C0.849976 8.93896 1.03492 9.86871 1.39424 10.7362C1.75356 11.6037 2.28022 12.3919 2.94416 13.0558C3.6081 13.7198 4.39631 14.2464 5.26379 14.6057C6.13127 14.9651 7.06102 15.15 7.99998 15.15C9.89627 15.15 11.7149 14.3967 13.0558 13.0558C14.3967 11.7149 15.15 9.8963 15.15 8.00001C15.15 6.10371 14.3967 4.28508 13.0558 2.94419C11.7149 1.60331 9.89627 0.850006 7.99998 0.850006ZM2.14998 8.00001C2.14999 6.89834 2.46108 5.81906 3.04744 4.8864C3.63381 3.95374 4.47161 3.2056 5.46442 2.72811C6.45724 2.25061 7.5647 2.06317 8.65935 2.18734C9.754 2.31151 10.7913 2.74226 11.652 3.43001L3.42898 11.652C2.59981 10.6155 2.14867 9.32735 2.14998 8.00001ZM4.34898 12.57C5.47323 13.4683 6.88913 13.9207 8.32596 13.8407C9.76279 13.7607 11.1197 13.1539 12.1373 12.1363C13.1548 11.1187 13.7616 9.76182 13.8417 8.32499C13.9217 6.88816 13.4693 5.47226 12.571 4.34801L4.34898 12.571V12.57Z" fill="black"/>
</g>
<defs>
<clipPath id="clip0_1106_15216">
<rect width="16" height="16" fill="white"/>
</clipPath>
</defs>
</svg>
