<svg width="20" height="20" viewBox="0 0 20 20" fill="none" xmlns="http://www.w3.org/2000/svg">
<path fill-rule="evenodd" clip-rule="evenodd" d="M5.9375 2.60417C5.24714 2.60417 4.6875 3.16382 4.6875 3.85417V16.1458C4.6875 16.8362 5.24714 17.3958 5.9375 17.3958H11.0154C12.2611 17.3958 13.4958 17.0761 14.4302 16.374C15.3789 15.6612 15.9896 14.5736 15.9896 13.1215C15.9896 12.0686 15.6012 11.1986 14.937 10.595C14.3718 10.0813 13.6292 9.78038 12.8079 9.70488V9.61211C13.5016 9.42673 14.1231 9.10681 14.5945 8.64455C15.1478 8.10208 15.4764 7.37962 15.4764 6.51042C15.4764 5.0956 14.8614 4.09409 13.9229 3.46372C13.0061 2.84796 11.8109 2.60417 10.6438 2.60417H5.9375ZM7.70836 8.76855V5.08596H10.1964C10.8919 5.08596 11.4573 5.27424 11.8396 5.58044C12.2128 5.87938 12.4372 6.30938 12.4372 6.86936C12.4372 7.51106 12.2083 7.96586 11.8375 8.2689C11.4554 8.58117 10.8773 8.76855 10.1258 8.76855H7.70836ZM7.70836 14.9231V11.0188H10.4252C11.244 11.0188 11.8646 11.2134 12.2731 11.5501C12.6693 11.8767 12.9177 12.379 12.9177 13.119C12.9177 13.7749 12.6692 14.1962 12.2632 14.4722C11.8323 14.7652 11.1794 14.9231 10.3389 14.9231H7.70836Z" fill="black"/>
</svg>
