<svg width="16" height="16" viewBox="0 0 16 16" fill="none" xmlns="http://www.w3.org/2000/svg">
<path fill-rule="evenodd" clip-rule="evenodd" d="M1.35004 8.00001C1.35004 4.32731 4.32735 1.35001 8.00004 1.35001C11.6727 1.35001 14.65 4.32731 14.65 8.00001C14.65 11.6727 11.6727 14.65 8.00004 14.65C6.98452 14.65 6.02049 14.4219 5.15793 14.0136L2.72756 14.8886C1.81202 15.2182 0.926416 14.3326 1.25601 13.417L2.10043 11.0714C1.62089 10.152 1.35004 9.10669 1.35004 8.00001ZM8.00004 2.65001C5.04532 2.65001 2.65004 5.04528 2.65004 8.00001C2.65004 8.90696 2.87519 9.7594 3.27211 10.5064C3.42107 10.7867 3.46078 11.1306 3.3441 11.4548L2.58713 13.5574L4.77169 12.771C5.08007 12.66 5.40687 12.6906 5.67914 12.8219C6.3804 13.1601 7.16713 13.35 8.00004 13.35C10.9548 13.35 13.35 10.9547 13.35 8.00001C13.35 5.04528 10.9548 2.65001 8.00004 2.65001Z" fill="black"/>
</svg>
