<svg width="24" height="24" viewBox="0 0 24 24" fill="none" xmlns="http://www.w3.org/2000/svg">
<path fill-rule="evenodd" clip-rule="evenodd" d="M20.3686 3.63127C19.0604 2.32306 16.9393 2.32307 15.6311 3.63127L4.38113 14.8813C4.29072 14.9717 4.22122 15.0808 4.17753 15.201L2.54368 19.694C2.14467 20.7913 3.2085 21.8552 4.30579 21.4562L8.79887 19.8223C8.91903 19.7786 9.02816 19.7091 9.11857 19.6187L20.3686 8.36871C21.6768 7.0605 21.6768 4.93948 20.3686 3.63127ZM16.8686 4.86871C17.4934 4.24392 18.5063 4.24392 19.1311 4.86871C19.7559 5.4935 19.7559 6.50648 19.1311 7.13127L17.9998 8.26259L15.7373 6.00002L16.8686 4.86871ZM14.4998 7.23746L5.75583 15.9814L4.46293 19.5369L8.01839 18.244L16.7624 9.50002L14.4998 7.23746Z" fill="black"/>
</svg>
