<svg width="20" height="20" viewBox="0 0 20 20" fill="none" xmlns="http://www.w3.org/2000/svg">
<path d="M12.8125 16.6667C12.8125 17.0694 12.486 17.3958 12.0833 17.3958H6.14582C5.74312 17.3958 5.41666 17.0694 5.41666 16.6667C5.41666 16.264 5.74312 15.9375 6.14582 15.9375H8.23962L10.2806 4.06251H8.22916C7.82645 4.06251 7.49999 3.73605 7.49999 3.33334C7.49999 2.93063 7.82645 2.60417 8.22916 2.60417H14.1667C14.5694 2.60417 14.8958 2.93063 14.8958 3.33334C14.8958 3.73605 14.5694 4.06251 14.1667 4.06251H12.0729L10.0318 15.9375H12.0833C12.486 15.9375 12.8125 16.264 12.8125 16.6667Z" fill="black"/>
</svg>
