<svg width="16" height="16" viewBox="0 0 16 16" fill="none" xmlns="http://www.w3.org/2000/svg">
<g clip-path="url(#clip0_872_13049)">
<path d="M10.5 8.64998C10.859 8.64998 11.15 8.35896 11.15 7.99998C11.15 7.64099 10.859 7.34998 10.5 7.34998H5.50002C5.14104 7.34998 4.85002 7.64099 4.85002 7.99998C4.85002 8.35896 5.14104 8.64998 5.50002 8.64998H10.5Z" fill="black"/>
<path fill-rule="evenodd" clip-rule="evenodd" d="M7.99998 0.849976C4.05114 0.849976 0.849976 4.05114 0.849976 7.99998C0.849976 11.9488 4.05114 15.15 7.99998 15.15C11.9488 15.15 15.15 11.9488 15.15 7.99998C15.15 4.05114 11.9488 0.849976 7.99998 0.849976ZM2.14998 7.99998C2.14998 4.76911 4.76911 2.14998 7.99998 2.14998C11.2308 2.14998 13.85 4.76911 13.85 7.99998C13.85 11.2308 11.2308 13.85 7.99998 13.85C4.76911 13.85 2.14998 11.2308 2.14998 7.99998Z" fill="black"/>
</g>
<defs>
<clipPath id="clip0_872_13049">
<rect width="16" height="16" fill="white"/>
</clipPath>
</defs>
</svg>
