<svg width="20" height="20" viewBox="0 0 20 20" fill="none" xmlns="http://www.w3.org/2000/svg">
<path d="M6.30103 5.01118L6.45732 7.98254C6.45799 7.99529 6.45832 8.00806 6.45832 8.02084V16.7708C6.45832 17.2311 6.08523 17.6042 5.62499 17.6042C5.16475 17.6042 4.79166 17.2311 4.79166 16.7708V3.54167C4.79166 3.0239 5.21139 2.60417 5.72916 2.60417H6.31321C6.70564 2.60417 7.05654 2.84859 7.19258 3.21669L9.99999 10.8132L12.8074 3.21669C12.9434 2.84859 13.2943 2.60417 13.6868 2.60417H14.2708C14.7886 2.60417 15.2083 3.0239 15.2083 3.54167V16.7708C15.2083 17.2311 14.8352 17.6042 14.375 17.6042C13.9148 17.6042 13.5417 17.2311 13.5417 16.7708V8.02084C13.5417 8.00806 13.542 7.99529 13.5427 7.98254L13.699 5.01118L10.6839 13.1694C10.5781 13.4557 10.3052 13.6458 9.99999 13.6458C9.69477 13.6458 9.42184 13.4557 9.31604 13.1694L6.30103 5.01118Z" fill="black"/>
</svg>
