<svg width="16" height="16" viewBox="0 0 16 16" fill="none" xmlns="http://www.w3.org/2000/svg">
<path fill-rule="evenodd" clip-rule="evenodd" d="M2.91773 1.92588C3.76021 1.0834 5.15243 1.17789 5.87336 2.12647L7.2799 3.97719C7.87482 4.75998 7.80003 5.86189 7.1048 6.55712L6.46123 7.2007C6.48182 7.25097 6.51214 7.31523 6.55567 7.39358C6.72937 7.70625 7.04291 8.11804 7.46241 8.53754C7.88191 8.95704 8.2937 9.27058 8.60636 9.44428C8.68472 9.48781 8.74898 9.51812 8.79924 9.53872L9.44282 8.89514C10.1381 8.19991 11.24 8.12513 12.0228 8.72005L13.8735 10.1266C14.8221 10.8475 14.9165 12.2397 14.0741 13.0822L13.7915 13.3648C12.7572 14.3991 11.2069 14.9732 9.70868 14.4598C7.87144 13.8302 6.1462 12.7824 4.68188 11.3181C3.21756 9.85375 2.16978 8.12851 1.54014 6.29127C1.0267 4.79307 1.60087 3.24274 2.63519 2.20842L2.91773 1.92588ZM4.83835 2.91308C4.59409 2.5917 4.12241 2.55968 3.83697 2.84512L3.55443 3.12766C2.78146 3.90063 2.45476 4.95016 2.76993 5.86981C3.33675 7.52375 4.27994 9.07765 5.60112 10.3988C6.92229 11.72 8.4762 12.6632 10.1301 13.23C11.0498 13.5452 12.0993 13.2185 12.8723 12.4455L13.1548 12.163C13.4403 11.8775 13.4082 11.4059 13.0869 11.1616L11.2362 9.75506C10.9709 9.5535 10.5976 9.57883 10.3621 9.81438L9.55636 10.6201C9.25886 10.9176 8.87013 10.8917 8.66404 10.8517C8.43108 10.8066 8.1936 10.7021 7.97503 10.5807C7.52983 10.3334 7.02314 9.93674 6.54317 9.45678C6.0632 8.97681 5.6666 8.47012 5.41926 8.02492C5.29783 7.80634 5.19332 7.56887 5.1482 7.33591C5.10829 7.12982 5.08236 6.74109 5.37986 6.44359L6.18557 5.63789C6.42111 5.40234 6.44645 5.02901 6.24489 4.7638L4.83835 2.91308ZM8.92706 9.57776C8.92706 9.57776 8.92448 9.57776 8.91847 9.57677C8.92392 9.57711 8.92706 9.57776 8.92706 9.57776ZM6.42218 7.07289C6.42218 7.07289 6.42284 7.07603 6.42318 7.08148C6.42219 7.07547 6.42218 7.07289 6.42218 7.07289Z" fill="black"/>
</svg>
