<svg width="20" height="20" viewBox="0 0 20 20" fill="none" xmlns="http://www.w3.org/2000/svg">
<path d="M16.2969 2.35382C16.6078 2.60983 16.6522 3.06936 16.3962 3.38022L4.72955 17.5469C4.47355 17.8578 4.01401 17.9022 3.70315 17.6462C3.39229 17.3902 3.34782 16.9307 3.60382 16.6198L15.2705 2.45315C15.5265 2.14229 15.986 2.09782 16.2969 2.35382Z" fill="black"/>
<path d="M11.1498 2.35382C11.4607 2.60983 11.5052 3.06936 11.2492 3.38022L4.72955 11.2969C4.47355 11.6078 4.01401 11.6522 3.70315 11.3962C3.39229 11.1402 3.34782 10.6807 3.60382 10.3698L10.1234 2.45315C10.3794 2.14229 10.839 2.09782 11.1498 2.35382Z" fill="black"/>
<path d="M16.3962 9.63022C16.6522 9.31936 16.6077 8.85983 16.2968 8.60382C15.986 8.34782 15.5264 8.39229 15.2704 8.70315L8.75081 16.6198C8.49481 16.9307 8.53928 17.3902 8.85014 17.6462C9.16101 17.9022 9.62054 17.8578 9.87655 17.5469L16.3962 9.63022Z" fill="black"/>
<path d="M6.00277 2.35382C6.31364 2.60983 6.35811 3.06936 6.1021 3.38022L4.72955 5.04689C4.47355 5.35775 4.01401 5.40222 3.70315 5.14622C3.39229 4.89022 3.34782 4.43068 3.60382 4.11982L4.97637 2.45315C5.23237 2.14229 5.69191 2.09782 6.00277 2.35382Z" fill="black"/>
<path d="M16.3962 15.8802C16.6522 15.5694 16.6077 15.1098 16.2969 14.8538C15.986 14.5978 15.5265 14.6423 15.2705 14.9532L13.8979 16.6198C13.6419 16.9307 13.6864 17.3902 13.9972 17.6462C14.3081 17.9022 14.7676 17.8578 15.0236 17.5469L16.3962 15.8802Z" fill="black"/>
</svg>
