<svg width="20" height="20" viewBox="0 0 20 20" fill="none" xmlns="http://www.w3.org/2000/svg">
<path d="M6.4157 3.48725C7.31167 2.77375 8.5529 2.39583 10 2.39583C12.5734 2.39583 14.4825 3.60862 14.8592 5.4163C14.9719 5.95753 14.5447 6.4123 14.0467 6.4123C13.6292 6.4123 13.3013 6.11051 13.2277 5.73712C13.0547 4.85929 11.8973 3.85416 10 3.85416C8.90675 3.85416 8.09445 4.16558 7.56874 4.60895C7.04984 5.04657 6.77087 5.64249 6.77087 6.32267C6.77087 6.93203 6.95887 7.39512 7.40552 7.79937C7.48815 7.87416 7.58091 7.94804 7.68472 8.02083H5.34377C5.11991 7.55953 5.00003 7.03195 5.00003 6.42926C5.00003 5.24676 5.50671 4.21114 6.4157 3.48725Z" fill="black"/>
<path d="M12.8991 11.9792H15.0856C15.2317 12.3543 15.3125 12.7762 15.3125 13.251C15.3125 14.8478 14.5662 15.9773 13.483 16.6752C12.4373 17.3489 11.1119 17.6042 9.89344 17.6042C8.5524 17.6042 7.41491 17.3322 6.52818 16.7843C5.62928 16.229 5.03151 15.4158 4.74922 14.4295C4.59327 13.8846 5.01235 13.3745 5.54613 13.3745C5.93273 13.3745 6.25185 13.6373 6.34809 13.9864C6.69116 15.231 8.00511 16.1458 9.89344 16.1458C10.899 16.1458 11.834 15.8603 12.4984 15.3691C13.1465 14.89 13.5417 14.218 13.5417 13.3576C13.5417 12.9561 13.4463 12.6591 13.2967 12.4208C13.199 12.2651 13.0679 12.1186 12.8991 11.9792Z" fill="black"/>
<path d="M16.25 10.7292C16.6527 10.7292 16.9792 10.4027 16.9792 9.99999C16.9792 9.59729 16.6527 9.27083 16.25 9.27083H3.75001C3.3473 9.27083 3.02084 9.59729 3.02084 9.99999C3.02084 10.4027 3.3473 10.7292 3.75001 10.7292H16.25Z" fill="black"/>
</svg>
