<svg width="16" height="16" viewBox="0 0 16 16" fill="none" xmlns="http://www.w3.org/2000/svg">
<path fill-rule="evenodd" clip-rule="evenodd" d="M4.42316 2.34998C3.886 2.34997 3.44368 2.34996 3.08357 2.37938C2.70987 2.40992 2.36784 2.47534 2.04702 2.63881C1.54839 2.89287 1.143 3.29827 0.888931 3.7969C0.725467 4.11772 0.660038 4.45975 0.629505 4.83345C0.600083 5.19356 0.60009 5.63588 0.600098 6.17304V9.82692C0.60009 10.3641 0.600083 10.8064 0.629505 11.1665C0.660038 11.5402 0.725467 11.8822 0.888931 12.2031C1.143 12.7017 1.54839 13.1071 2.04702 13.3611C2.36784 13.5246 2.70987 13.59 3.08357 13.6206C3.44368 13.65 3.886 13.65 4.42316 13.65H7.82703C8.36419 13.65 8.80651 13.65 9.16663 13.6206C9.54033 13.59 9.88236 13.5246 10.2032 13.3611C10.7018 13.1071 11.1072 12.7017 11.3613 12.2031C11.5247 11.8822 11.5902 11.5402 11.6207 11.1665C11.638 10.9544 11.6451 10.7139 11.6481 10.4422L13.2601 12.0543C14.1421 12.9362 15.6501 12.3116 15.6501 11.0643V4.93564C15.6501 3.68837 14.1421 3.06373 13.2601 3.94569L11.6481 5.55777C11.6451 5.2861 11.638 5.04552 11.6207 4.83345C11.5902 4.45975 11.5247 4.11772 11.3613 3.7969C11.1072 3.29827 10.7018 2.89287 10.2032 2.63881C9.88236 2.47534 9.54033 2.40992 9.16663 2.37938C8.80651 2.34996 8.36419 2.34997 7.82704 2.34998H4.42316ZM10.3501 6.19998C10.3501 5.6292 10.3496 5.24021 10.325 4.93931C10.301 4.646 10.2575 4.4941 10.203 4.38709C10.0735 4.13307 9.867 3.92655 9.61299 3.79712C9.50598 3.74259 9.35407 3.69903 9.06076 3.67507C8.75987 3.65048 8.37088 3.64998 7.8001 3.64998H4.4501C3.87932 3.64998 3.49033 3.65048 3.18943 3.67507C2.89613 3.69903 2.74422 3.74259 2.63721 3.79712C2.38319 3.92655 2.17667 4.13307 2.04724 4.38709C1.99272 4.4941 1.94915 4.646 1.92519 4.93931C1.9006 5.24021 1.9001 5.6292 1.9001 6.19998V9.79998C1.9001 10.3708 1.9006 10.7597 1.92519 11.0606C1.94915 11.3539 1.99272 11.5059 2.04724 11.6129C2.17667 11.8669 2.38319 12.0734 2.63721 12.2028C2.74422 12.2574 2.89613 12.3009 3.18943 12.3249C3.49033 12.3495 3.87932 12.35 4.4501 12.35H7.8001C8.37088 12.35 8.75987 12.3495 9.06076 12.3249C9.35407 12.3009 9.50598 12.2574 9.61299 12.2028C9.867 12.0734 10.0735 11.8669 10.203 11.6129C10.2575 11.5059 10.301 11.3539 10.325 11.0606C10.3496 10.7597 10.3501 10.3708 10.3501 9.79998V6.19998ZM11.6501 7.99998C11.6501 8.38784 11.8042 8.75981 12.0784 9.03407L14.1794 11.135C14.2016 11.1572 14.2185 11.1626 14.2301 11.1646C14.2453 11.1672 14.2661 11.1659 14.2884 11.1567C14.3107 11.1475 14.3263 11.1337 14.3352 11.1211C14.342 11.1114 14.3501 11.0957 14.3501 11.0643V4.93564C14.3501 4.90421 14.342 4.88852 14.3352 4.87886C14.3263 4.86626 14.3107 4.85249 14.2884 4.84325C14.2661 4.83401 14.2453 4.83271 14.2301 4.83534C14.2185 4.83736 14.2016 4.84271 14.1794 4.86492L12.0784 6.96588C11.8042 7.24014 11.6501 7.61211 11.6501 7.99998Z" fill="black"/>
</svg>
