<svg width="24" height="24" viewBox="0 0 24 24" fill="none" xmlns="http://www.w3.org/2000/svg">
<path d="M18.6187 6.61872C18.9604 6.27701 18.9604 5.72299 18.6187 5.38128C18.277 5.03957 17.723 5.03957 17.3813 5.38128L12 10.7626L6.61872 5.38128C6.27701 5.03957 5.72299 5.03957 5.38128 5.38128C5.03957 5.72299 5.03957 6.27701 5.38128 6.61872L10.7626 12L5.38128 17.3813C5.03957 17.723 5.03957 18.277 5.38128 18.6187C5.72299 18.9604 6.27701 18.9604 6.61872 18.6187L12 13.2374L17.3813 18.6187C17.723 18.9604 18.277 18.9604 18.6187 18.6187C18.9604 18.277 18.9604 17.723 18.6187 17.3813L13.2374 12L18.6187 6.61872Z" fill="black"/>
</svg>
