<svg width="20" height="20" fill="none" xmlns="http://www.w3.org/2000/svg"><g clip-path="url(#color__a)" fill="#000"><path d="M5 12.917a1.25 1.25 0 1 1 2.5 0 1.25 1.25 0 0 1-2.5 0Zm9.688-5.208a1.25 1.25 0 1 0 0 2.499 1.25 1.25 0 0 0 0-2.5ZM4.063 8.958a1.25 1.25 0 1 1 2.499 0 1.25 1.25 0 0 1-2.499 0Zm8.02-4.478a1.25 1.25 0 1 0 0 2.498 1.25 1.25 0 0 0 0-2.499ZM6.667 5.73a1.25 1.25 0 1 1 2.5 0 1.25 1.25 0 0 1-2.5 0Z"/><path d="M10 .938a9.063 9.063 0 0 0 0 18.125 1.838 1.838 0 0 0 1.825-1.893c-.014-.542-.277-.942-.431-1.177a7.085 7.085 0 0 1-.04-.063c-.155-.24-.23-.388-.23-.623 0-.61.422-1.07 1.025-1.07h1.712c2.797-.005 5.201-1.98 5.201-5.202 0-2.159-1.147-4.186-2.81-5.654C14.588 1.91 12.337.938 10 .938ZM2.396 10C2.396 5.8 5.8 2.396 10 2.396c1.94 0 3.856.814 5.287 2.078 1.436 1.268 2.317 2.925 2.317 4.561 0 2.34-1.673 3.74-3.745 3.745h-1.71c-1.502 0-2.483 1.207-2.483 2.527 0 .668.267 1.11.46 1.41.203.318.239.384.242.493v.012a.38.38 0 0 1-.367.382A7.605 7.605 0 0 1 2.396 10Z"/></g><defs><clipPath id="color__a"><path fill="#fff" d="M0 0h20v20H0z"/></clipPath></defs></svg>