<svg width="20" height="20" fill="none" xmlns="http://www.w3.org/2000/svg"><path d="M10 5.313a4.896 4.896 0 1 0 0 9.791 4.896 4.896 0 0 0 0-9.791Zm-3.438 4.895a3.438 3.438 0 1 1 6.876 0 3.438 3.438 0 0 1-6.876 0Z" fill="#000"/><path d="M8.441 1.354c-.671 0-1.312.282-1.766.777L5.67 3.23H4.583A3.646 3.646 0 0 0 .937 6.875v7.708a3.646 3.646 0 0 0 3.646 3.646h10.834a3.646 3.646 0 0 0 3.646-3.646V6.875a3.646 3.646 0 0 0-3.646-3.646H14.33l-1.006-1.098a2.396 2.396 0 0 0-1.766-.777H8.442Zm-.69 1.763a.937.937 0 0 1 .69-.304h3.117c.263 0 .514.11.692.304l1.223 1.334a.73.73 0 0 0 .537.237h1.407c1.208 0 2.187.979 2.187 2.187v7.708c0 1.208-.98 2.188-2.187 2.188H4.583a2.188 2.188 0 0 1-2.187-2.188V6.875c0-1.208.98-2.187 2.187-2.187H5.99a.73.73 0 0 0 .537-.237L7.75 3.117Z" fill="#000"/></svg>