<svg width="20" height="20" fill="none" xmlns="http://www.w3.org/2000/svg"><path d="M6.667 14.189a.625.625 0 0 0 1.25-.045l-.21-5.833a.625.625 0 1 0-1.248.045l.208 5.833ZM10 7.708c.345 0 .625.28.625.625v5.834a.625.625 0 0 1-1.25 0V8.333c0-.345.28-.625.625-.625Zm3.541.648a.625.625 0 1 0-1.249-.045l-.208 5.833a.625.625 0 1 0 1.249.045l.208-5.833Z" fill="#000"/><path fill-rule="evenodd" clip-rule="evenodd" d="M10 .938c1.805 0 3.251 1.226 3.577 2.916H17.5a.73.73 0 1 1 0 1.458h-.564l-.528 8.711c-.045.746-.081 1.35-.15 1.837-.071.503-.183.944-.411 1.348a3.646 3.646 0 0 1-1.58 1.487c-.417.203-.863.288-1.37.328-.491.04-1.095.04-1.843.04H8.945c-.747 0-1.351 0-1.842-.04-.507-.04-.953-.125-1.37-.328a3.646 3.646 0 0 1-1.58-1.487c-.228-.404-.34-.845-.411-1.348-.069-.488-.105-1.09-.15-1.837l-.528-8.71H2.5a.73.73 0 1 1 0-1.459h3.923C6.749 2.164 8.195.937 10 .937Zm0 1.458c.992 0 1.787.59 2.073 1.458H7.927C8.213 2.986 9.008 2.396 10 2.396ZM4.525 5.313l.52 8.592c.048.783.081 1.328.141 1.752.059.415.135.653.237.834.218.387.549.698.948.893.187.09.43.152.847.186.427.034.973.034 1.758.034h2.048c.785 0 1.331 0 1.758-.034.417-.034.66-.096.847-.186.399-.195.73-.506.948-.893.102-.18.178-.42.237-.834.06-.424.093-.969.14-1.752l.521-8.592H4.525Z" fill="#000"/></svg>