<svg width="16" height="16" fill="none" xmlns="http://www.w3.org/2000/svg"><path fill-rule="evenodd" clip-rule="evenodd" d="m15.488 10.006-.114.171c-.454.853-.852 1.421-1.25 1.763-.228.17-.398.284-.512.398-.17.057-.284.113-.341.113-.114 0-.17-.056-.228-.113-.056-.114-.056-.171-.056-.285 0-.17.056-.284.113-.455.057-.17.17-.34.284-.511.114-.17.228-.341.285-.512.114-.17.17-.341.17-.455a.516.516 0 0 0-.17-.398c.057 0 .114-.057.17-.057a.81.81 0 0 0 .341-.682c0-.398-.17-.74-.511-.967a1.921 1.921 0 0 0-1.137-.34c-.398 0-.853.113-1.251.283-.398.228-.796.455-1.138.796-.34.342-.682.683-.966 1.08a5.35 5.35 0 0 0-.682 1.252 7.107 7.107 0 0 1-.171.568c-.057.057-.114.114-.114.17-.17.171-.284.285-.455.342-.113.057-.227.114-.284.114-.057 0-.114 0-.17-.057-.057 0-.057-.057-.114-.17a2.77 2.77 0 0 1-.114-.854c0-.398.057-.91.114-1.421.114-.569.17-1.137.341-1.763.114-.625.284-1.194.455-1.82.17-.568.341-1.136.512-1.591.17-.512.34-.91.454-1.251.057-.17.171-.284.228-.398.057-.114.114-.17.114-.17l.113-.058-.113-.113a3.982 3.982 0 0 0-.569-.455.917.917 0 0 0-.512-.17.695.695 0 0 0-.511.227 2.66 2.66 0 0 0-.626.568c-.341.341-.74.74-1.137 1.251-.398.512-.853 1.08-1.365 1.706-.455.625-.91 1.25-1.364 1.933-.17 0-.341-.057-.512-.057-.17 0-.341-.057-.512-.057-.398 0-.796.057-1.137.228-.341.17-.569.455-.74.796l-.056.17h1.478c.17 0 .398 0 .626.057-.341.569-.683 1.08-.967 1.592-.341.569-.568 1.08-.796 1.536-.17.455-.284.796-.284 1.137 0 .17.057.284.114.511.113.228.34.399.625.57l.114.056.057-.17c.454-.74.853-1.65 1.25-2.56a34.65 34.65 0 0 1 1.308-2.501c.285.057.569.057.853.114.284.057.626.057.967.113-.057.342-.114.683-.114.91-.057.284-.057.569-.057.796 0 .74.114 1.308.284 1.763.114.227.228.398.455.511.17.114.398.171.683.171.511 0 .966-.227 1.364-.569.057.171.17.342.341.512.285.228.569.341.91.341.398 0 .796-.17 1.137-.454.285-.228.569-.512.91-.91.057.227.17.455.284.625.228.284.569.455 1.024.455.398 0 .796-.114 1.194-.398.398-.227.74-.568 1.08-.966.341-.399.626-.91.853-1.422l.057-.114-.512-.455Zm-2.502-.966v.341c-.056 0-.113.057-.17.114-.17.227-.398.568-.682.91-.228.34-.512.682-.796 1.023-.285.341-.512.625-.796.796-.285.227-.455.284-.683.284-.057 0-.114 0-.114-.057-.056-.056-.056-.113-.056-.284 0-.284.056-.569.17-.91.114-.34.284-.682.455-1.023.227-.341.398-.682.682-.967.228-.284.512-.511.796-.739.285-.17.512-.284.74-.284.227 0 .34.057.34.17.058.341.114.455.114.626ZM7.13 3.98c-.114.284-.227.568-.341.91-.17.568-.341 1.136-.569 1.705-.17.568-.284 1.08-.398 1.649-.227-.057-.512-.114-.739-.17a84.945 84.945 0 0 0-.682-.171c.398-.626.739-1.251 1.08-1.763.398-.625.796-1.137 1.137-1.535.17-.228.341-.455.512-.626Z" fill="#000"/></svg>