<svg width="16" height="16" fill="none" xmlns="http://www.w3.org/2000/svg"><path fill-rule="evenodd" clip-rule="evenodd" d="m5.8 2.375 3.16 11.001H7.116l-.76-2.913H3.089l-.76 2.913H.5L3.66 2.375H5.8ZM4.713 3.971c-.077.511-.17.945-.278 1.394l-.977 3.72H6l-.976-3.72a15.84 15.84 0 0 1-.279-1.394h-.03Zm8.777 8.104c-.264.898-1.085 1.487-2.17 1.487-1.395 0-2.216-.883-2.216-2.231 0-.806.326-1.38.821-1.767.419-.34 1.07-.588 2.015-.743l1.425-.248v-.527c0-.976-.34-1.38-1.1-1.38-.914 0-1.209.574-1.224 1.488h-1.75c.03-2.014 1.363-2.711 2.99-2.711 1.983 0 2.82.744 2.82 2.665v3.13c0 .93.046 1.565.17 2.138h-1.673a7.5 7.5 0 0 1-.109-1.301Zm-2.573-.9c-.015.729.356 1.147 1.054 1.147.852 0 1.425-.635 1.425-1.673V9.595l-1.162.233c-.852.17-1.317.573-1.317 1.348Z" fill="#000"/></svg>