<svg width="16" height="16" fill="none" xmlns="http://www.w3.org/2000/svg"><path fill-rule="evenodd" clip-rule="evenodd" d="M5.757 13.323c.01.118.08.177.209.177H7.46c.118 0 .177-.048.177-.145v-.064L5.26 2.427c-.022-.118-.092-.177-.21-.177H3.347c-.118 0-.188.059-.209.177L.76 13.29c-.033.14.026.209.176.209h1.463c.128 0 .198-.059.209-.177l.305-1.687c0-.054.032-.08.097-.08h2.346c.064 0 .096.026.096.08l.306 1.687Zm-2.475-3.23c-.065 0-.091-.027-.08-.08l.915-5.08c.011-.031.027-.047.049-.047.021 0 .037.016.048.048l.932 5.078c.01.054-.016.08-.08.08H3.282Zm10.09 3.23c.01.118.08.177.209.177h1.494c.118 0 .177-.048.177-.145v-.064L12.873 2.427c-.02-.118-.09-.177-.208-.177H10.96c-.118 0-.188.059-.209.177L8.374 13.29c-.033.14.026.209.176.209h1.463c.128 0 .198-.059.209-.177l.305-1.687c0-.054.032-.08.097-.08h2.346c.064 0 .096.026.096.08l.306 1.687Zm-2.475-3.23c-.065 0-.091-.027-.08-.08l.915-5.08c.011-.031.027-.047.049-.047.021 0 .037.016.048.048l.932 5.078c.01.054-.016.08-.08.08h-1.784Z" fill="#000"/></svg>