<svg width="16" height="16" fill="none" xmlns="http://www.w3.org/2000/svg"><path fill-rule="evenodd" clip-rule="evenodd" d="m9.242 12.667.126.456H6.573L6.1 10.98H3.38l-.474 2.144H.126L3.01 2.625h3.474l2.22 8.08a1.97 1.97 0 0 1 .63-1.145c.37-.34 1.065-.621 1.923-.77l1.582-.265v-.606c0-.518-.207-.71-.592-.71-.517 0-.71.325-.71 1.064H8.861c0-1.789 1.316-2.72 3.43-2.72 2.263 0 3.268.828 3.268 2.706v3.164c0 .784.03 1.183.148 1.7H13.12a5.144 5.144 0 0 1-.103-1.08c-.222.755-1.065 1.258-2.114 1.258-.696 0-1.268-.23-1.66-.634Zm-4.78-6.585-.063.27-.591 2.705H5.67l-.59-2.706-.02-.087a17.919 17.919 0 0 1-.306-1.554h-.03c-.06.513-.162.945-.262 1.372Zm6.987 4.808c0 .415.236.725.62.725.503 0 .843-.325.843-.828v-1.02l-.62.133c-.577.118-.843.444-.843.99Z" fill="#000"/></svg>