<svg width="16" height="16" fill="none" xmlns="http://www.w3.org/2000/svg"><path fill-rule="evenodd" clip-rule="evenodd" d="M3.521 2.375h1.964l2.858 8.734c.415 1.293.607 1.58 1.038 1.66v.607H5.485v-.607c.75-.048 1.086-.24 1.086-.718 0-.224-.08-.495-.208-.863l-.399-1.213H2.611l-.431 1.31c-.112.335-.176.606-.176.814 0 .479.336.622 1.118.67v.607H.2v-.607c.463-.08.591-.271 1.038-1.597l2.619-7.76-.336-1.037Zm2.172 6.722-1.39-4.28L2.9 9.098h2.794Zm9.142 3.193c.191 0 .335-.207.431-.67l.495.128c-.176 1.245-.639 1.788-1.5 1.788-.735 0-1.182-.367-1.358-1.182-.351.799-.926 1.246-1.677 1.246-1.037 0-1.724-.64-1.724-1.629 0-1.022.655-1.677 2.044-2.124l1.261-.43V8.058c0-.942-.447-1.405-1.245-1.405-.511 0-.91.128-1.246.32.052.274.222.456.388.634.191.205.379.406.379.739 0 .527-.431.926-1.022.926-.59 0-.974-.48-.974-1.166 0-1.325 1.5-2.49 3.177-2.49 1.437 0 2.204.83 2.204 2.426v3.705c0 .367.127.542.367.542Zm-3.688-.734c0 .495.319.782.75.782.351 0 .655-.207.91-.654V10.15l-.575.207c-.734.288-1.085.671-1.085 1.198Z" fill="#000"/></svg>