<svg xmlns="http://www.w3.org/2000/svg" width="20" height="20" fill="none"><path fill="#000" d="M8.051 1.77h3.2a.73.73 0 0 1 0 1.46H8.082c-1.062 0-1.814 0-2.403.048-.58.047-.937.137-1.218.28a3.02 3.02 0 0 0-1.32 1.32c-.143.282-.233.638-.28 1.218-.049.59-.05 1.342-.05 2.404v3c0 1.062.001 1.815.05 2.404.047.58.137.936.28 1.217a3.02 3.02 0 0 0 1.32 1.32c.281.144.638.234 1.218.281.589.048 1.341.049 2.403.049h3.167c.983 0 1.68 0 2.225-.042.539-.04.871-.118 1.135-.241a3.02 3.02 0 0 0 1.461-1.461c.123-.264.2-.597.241-1.135.042-.546.042-1.243.042-2.225a.73.73 0 0 1 1.459 0v.03c0 .946 0 1.697-.046 2.305-.047.621-.146 1.151-.374 1.641a4.48 4.48 0 0 1-2.167 2.166c-.49.229-1.02.327-1.64.374-.608.046-1.36.046-2.306.046H8.05c-1.023 0-1.835 0-2.49-.053-.67-.055-1.24-.17-1.761-.435a4.48 4.48 0 0 1-1.958-1.957c-.265-.522-.38-1.091-.434-1.762-.054-.655-.054-1.467-.054-2.49V8.468c0-1.023 0-1.835.054-2.49.055-.67.169-1.24.434-1.761A4.48 4.48 0 0 1 3.8 2.259c.52-.265 1.09-.38 1.761-.435.655-.053 1.467-.053 2.49-.053Z"/><path fill="#000" d="m3.673 14.441 4.378-4.378a.106.106 0 0 1 .148 0l1.738 1.738c.61.61 1.6.61 2.21 0l4.838-4.837c.468-.47.81-.84 1.13-1.245l.059.023a10.4 10.4 0 0 0-.226 2.185l.001.406a.73.73 0 0 0 1.459 0V4.238a.73.73 0 0 0-.73-.729h-4.095a.73.73 0 1 0 0 1.458l.407.002c.746 0 1.443-.071 2.185-.226l.023.06c-.405.32-.776.66-1.245 1.13l-4.838 4.837a.104.104 0 0 1-.147 0L9.23 9.032c-.61-.61-1.6-.61-2.21 0L3.542 12.51c0 1.029.039 1.484.131 1.931"/></svg>