<svg width="16" height="16" fill="none" xmlns="http://www.w3.org/2000/svg"><path d="M9.233 8.6H6.767L8 5.275 9.233 8.6Z" fill="#000"/><path fill-rule="evenodd" clip-rule="evenodd" d="m8.765 11.075.46 1.238a1.934 1.934 0 0 0 3.627-1.345L10.215 3.86a2.2 2.2 0 0 0-2.063-1.435h-.304A2.2 2.2 0 0 0 5.785 3.86l-2.637 7.108a1.934 1.934 0 1 0 3.628 1.345l.459-1.238h1.53Zm-2.434-1.3-.774 2.086a.634.634 0 0 1-1.19-.441l2.637-7.108a.9.9 0 0 1 .844-.587h.304a.9.9 0 0 1 .844.587l2.637 7.108a.634.634 0 0 1-1.19.441L9.67 9.775H6.331Z" fill="#000"/></svg>