<svg width="16" height="16" fill="none" xmlns="http://www.w3.org/2000/svg"><path fill-rule="evenodd" clip-rule="evenodd" d="M5.213 11.9a.634.634 0 0 1-.594-.857l2.385-6.359a.9.9 0 0 1 .843-.584h.307a.9.9 0 0 1 .842.584l2.385 6.36a.634.634 0 1 1-1.187.444L9.55 9.776H6.449l-.642 1.713a.634.634 0 0 1-.594.412ZM6.89 8.6h2.22L8 5.64 6.89 8.6Z" fill="#000"/><path fill-rule="evenodd" clip-rule="evenodd" d="M6.772 1.35h2.456c.816 0 1.469 0 1.995.043.54.044 1.006.137 1.434.355a3.65 3.65 0 0 1 1.595 1.595c.218.428.31.893.355 1.434.043.526.043 1.179.043 1.995v2.456c0 .816 0 1.469-.043 1.995-.044.54-.137 1.006-.355 1.434a3.65 3.65 0 0 1-1.595 1.595c-.428.218-.893.31-1.434.355-.526.043-1.179.043-1.995.043H6.772c-.816 0-1.468 0-1.995-.043-.54-.044-1.006-.137-1.434-.355a3.65 3.65 0 0 1-1.595-1.595c-.218-.428-.31-.893-.355-1.434-.043-.527-.043-1.179-.043-1.995V6.772c0-.816 0-1.469.043-1.995.044-.54.137-1.006.355-1.434a3.65 3.65 0 0 1 1.595-1.595c.428-.218.893-.31 1.434-.355.527-.043 1.179-.043 1.995-.043Zm-1.89 1.339c-.46.037-.735.108-.949.217a2.35 2.35 0 0 0-1.027 1.027c-.109.214-.18.49-.217.95C2.65 5.35 2.65 5.949 2.65 6.8v2.4c0 .85 0 1.45.039 1.917.037.46.108.736.217.95a2.35 2.35 0 0 0 1.027 1.027c.214.109.49.18.95.217.467.039 1.066.039 1.917.039h2.4c.85 0 1.45 0 1.918-.039.46-.037.735-.108.949-.217a2.35 2.35 0 0 0 1.027-1.027c.109-.214.18-.49.217-.95.039-.467.04-1.066.04-1.917V6.8c0-.85-.001-1.45-.04-1.917-.037-.46-.108-.736-.217-.95a2.35 2.35 0 0 0-1.027-1.027c-.214-.109-.49-.18-.95-.217-.467-.039-1.066-.039-1.917-.039H6.8c-.85 0-1.45 0-1.917.039Z" fill="#000"/></svg>