<svg width="16" height="16" fill="none" xmlns="http://www.w3.org/2000/svg"><path d="M8 5.64 9.11 8.6H6.89L8 5.64Z" fill="#000"/><path fill-rule="evenodd" clip-rule="evenodd" d="M6.772 1.35h2.456c.816 0 1.469 0 1.995.043.54.044 1.006.137 1.434.355a3.65 3.65 0 0 1 1.595 1.595c.218.428.31.893.355 1.434.043.526.043 1.179.043 1.995v2.456c0 .816 0 1.469-.043 1.995-.044.54-.137 1.006-.355 1.434a3.65 3.65 0 0 1-1.595 1.595c-.428.218-.893.31-1.434.355-.526.043-1.179.043-1.995.043H6.772c-.816 0-1.468 0-1.995-.043-.54-.044-1.006-.137-1.434-.355a3.65 3.65 0 0 1-1.595-1.595c-.218-.428-.31-.893-.355-1.434-.043-.527-.043-1.179-.043-1.995V6.772c0-.816 0-1.469.043-1.995.044-.54.137-1.006.355-1.434a3.65 3.65 0 0 1 1.595-1.595c.428-.218.893-.31 1.434-.355.527-.043 1.179-.043 1.995-.043ZM5.212 11.9a.634.634 0 0 1-.593-.857l2.385-6.359a.9.9 0 0 1 .843-.584h.307a.9.9 0 0 1 .842.584l2.385 6.36a.634.634 0 0 1-1.187.444L9.55 9.776H6.449l-.642 1.713a.634.634 0 0 1-.594.412Z" fill="#000"/></svg>