<svg width="18" height="12" fill="none" xmlns="http://www.w3.org/2000/svg"><g clip-path="url(#messagestatus-read__a)" fill="#000"><path d="M6 .25c.688 0 1.348.12 1.96.342A6.74 6.74 0 0 0 5.34 7.1l-.123.189L4.19 5.92a.55.55 0 1 0-.88.66l1.5 2a.55.55 0 0 0 .902-.031l.022-.034a6.77 6.77 0 0 0 2.225 2.893A5.75 5.75 0 1 1 6 .25Z"/><path fill-rule="evenodd" clip-rule="evenodd" d="M12 .25a5.75 5.75 0 1 0 0 11.5 5.75 5.75 0 0 0 0-11.5Zm2.299 3.288a.55.55 0 0 1 .163.76l-2.75 4.25a.55.55 0 0 1-.902.032l-1.5-2a.55.55 0 1 1 .88-.66l1.027 1.369 2.321-3.588a.55.55 0 0 1 .76-.163Z"/></g><defs><clipPath id="messagestatus-read__a"><path fill="#fff" d="M0 0h18v12H0z"/></clipPath></defs></svg>