<svg width="18" height="12" fill="none" xmlns="http://www.w3.org/2000/svg"><g clip-path="url(#messagestatus-delivered__a)" fill="#000"><path d="M6 0c.67 0 1.316.11 1.918.313-.36.26-.695.552-1 .873a4.9 4.9 0 1 0 0 9.628c.305.321.64.614 1 .873A6 6 0 1 1 6 0Z"/><path d="m4.19 5.92.899 1.199c.09.556.244 1.09.456 1.595a.55.55 0 0 1-.735-.134l-1.5-2a.55.55 0 0 1 .88-.66Zm10.109-2.382a.55.55 0 0 1 .163.76l-2.75 4.25a.55.55 0 0 1-.902.032l-1.5-2a.55.55 0 0 1 .88-.66l1.027 1.369 2.321-3.588a.55.55 0 0 1 .76-.163Z"/><path fill-rule="evenodd" clip-rule="evenodd" d="M6 6a6 6 0 1 1 12 0A6 6 0 0 1 6 6Zm6-4.9a4.9 4.9 0 1 0 0 9.8 4.9 4.9 0 0 0 0-9.8Z"/></g><defs><clipPath id="messagestatus-delivered__a"><path fill="#fff" d="M0 0h18v12H0z"/></clipPath></defs></svg>