<svg width="12" height="12" fill="none" xmlns="http://www.w3.org/2000/svg"><g clip-path="url(#messagestatus-sending__a)" fill="#000"><path d="M6.188 1.104a4.858 4.858 0 0 0-.376 0 .55.55 0 1 1-.042-1.1c.153-.006.307-.005.461 0a.55.55 0 1 1-.043 1.1ZM8.055.922a.55.55 0 0 1 .743-.23c.136.072.27.149.4.231a.55.55 0 1 1-.587.93 4.86 4.86 0 0 0-.326-.188.55.55 0 0 1-.23-.743Zm-4.11.001a.55.55 0 0 1-.23.743c-.112.059-.22.121-.326.188a.55.55 0 1 1-.586-.931 5.45 5.45 0 0 1 .4-.23.55.55 0 0 1 .742.23Zm6.374 1.707a.55.55 0 0 1 .758.173c.082.13.159.263.23.4a.55.55 0 1 1-.973.512 4.858 4.858 0 0 0-.188-.327.55.55 0 0 1 .173-.758Zm-8.637 0a.55.55 0 0 1 .172.76c-.068.106-.13.215-.189.325a.55.55 0 0 1-.973-.513c.072-.136.149-.27.232-.4a.55.55 0 0 1 .758-.172ZM.576 5.24a.55.55 0 0 1 .528.572 4.858 4.858 0 0 0 0 .377.55.55 0 1 1-1.1.042 5.958 5.958 0 0 1 0-.462.55.55 0 0 1 .572-.528Zm10.849 0a.55.55 0 0 1 .57.53c.007.153.007.307 0 .461a.55.55 0 0 1-1.099-.043 4.873 4.873 0 0 0 0-.377.55.55 0 0 1 .53-.57ZM.923 8.055a.55.55 0 0 1 .743.23c.059.112.121.22.188.327a.55.55 0 1 1-.931.585 5.955 5.955 0 0 1-.23-.4.55.55 0 0 1 .23-.742Zm10.155 0a.55.55 0 0 1 .23.743 5.994 5.994 0 0 1-.231.4.55.55 0 0 1-.93-.587 5.08 5.08 0 0 0 .188-.326.55.55 0 0 1 .743-.23ZM2.63 10.318a.55.55 0 0 1 .76-.172c.106.068.215.13.325.189a.55.55 0 1 1-.513.973 5.952 5.952 0 0 1-.4-.232.55.55 0 0 1-.171-.758Zm6.74.001a.55.55 0 0 1-.172.758 5.45 5.45 0 0 1-.4.23.55.55 0 1 1-.512-.973c.111-.059.22-.121.326-.188a.55.55 0 0 1 .758.173Zm-4.129 1.105a.55.55 0 0 1 .571-.528c.126.005.252.005.377 0a.55.55 0 1 1 .042 1.1 5.975 5.975 0 0 1-.462 0 .55.55 0 0 1-.528-.572Z"/></g><defs><clipPath id="messagestatus-sending__a"><path fill="#fff" d="M0 0h12v12H0z"/></clipPath></defs></svg>