<svg width="32" height="32" viewBox="0 0 32 32" fill="none" xmlns="http://www.w3.org/2000/svg">
<path d="M16 32C24.8366 32 32 24.8366 32 16C32 7.16344 24.8366 0 16 0C7.16344 0 0 7.16344 0 16C0 24.8366 7.16344 32 16 32Z" fill="#676767"/>
<path d="M8 18C9.10457 18 10 17.1046 10 16C10 14.8954 9.10457 14 8 14C6.89543 14 6 14.8954 6 16C6 17.1046 6.89543 18 8 18Z" fill="#E9E9E9"/>
<path d="M16 18C17.1046 18 18 17.1046 18 16C18 14.8954 17.1046 14 16 14C14.8954 14 14 14.8954 14 16C14 17.1046 14.8954 18 16 18Z" fill="#E9E9E9"/>
<path d="M24 18C25.1046 18 26 17.1046 26 16C26 14.8954 25.1046 14 24 14C22.8954 14 22 14.8954 22 16C22 17.1046 22.8954 18 24 18Z" fill="#E9E9E9"/>
</svg>
