<?xml version="1.0" encoding="UTF-8"?>
<svg width="16px" height="16px" viewBox="0 0 16 16" version="1.1" xmlns="http://www.w3.org/2000/svg" xmlns:xlink="http://www.w3.org/1999/xlink">
    <!-- Generator: Sketch 51.2 (57519) - http://www.bohemiancoding.com/sketch -->
    <title>Link/broken-link-16</title>
    <desc>Created with Sketch.</desc>
    <defs></defs>
    <g id="Link/broken-link-16" stroke="none" stroke-width="1" fill="none" fill-rule="evenodd">
        <path d="M9.49509379,9.33333333 L12.6666667,9.33333333 C13.4030463,9.33333333 14,8.73637967 14,8 C14,7.26362033 13.4030463,6.66666667 12.6666667,6.66666667 L12.1617605,6.66666667 L13.3945435,5.43388365 C14.5135095,5.75065459 15.3333333,6.77958724 15.3333333,8 C15.3333333,9.47275933 14.139426,10.6666667 12.6666667,10.6666667 L8.66666667,10.6666667 C8.5081988,10.6666667 8.35295937,10.6528441 8.20208831,10.6263388 L9.49509379,9.33333333 Z" id="Combined-Shape" fill="#000000" fill-rule="nonzero"></path>
        <path d="M6.50490621,6.66666667 L3.33333333,6.66666667 C2.59695367,6.66666667 2,7.26362033 2,8 C2,8.73637967 2.59695367,9.33333333 3.33333333,9.33333333 L3.83823954,9.33333333 L2.60545653,10.5661163 C1.48649049,10.2493454 0.666666667,9.22041276 0.666666667,8 C0.666666667,6.52724067 1.860574,5.33333333 3.33333333,5.33333333 L7.33333333,5.33333333 C7.4918012,5.33333333 7.64704063,5.34715592 7.79791169,5.37366118 L6.50490621,6.66666667 Z" id="Combined-Shape" fill="#000000" fill-rule="nonzero"></path>
        <rect id="Rectangle-8" fill="#000000" fill-rule="nonzero" transform="translate(8.000000, 8.000000) rotate(45.000000) translate(-8.000000, -8.000000) " x="7.33333333" y="1.33333333" width="1.33333333" height="13.3333333"></rect>
    </g>
</svg>