<?xml version="1.0" encoding="UTF-8" standalone="no"?>
<svg width="20px" height="19px" viewBox="0 0 20 19" version="1.1" xmlns="http://www.w3.org/2000/svg" xmlns:xlink="http://www.w3.org/1999/xlink">
    <!-- Generator: Sketch 49.3 (51167) - http://www.bohemiancoding.com/sketch -->
    <title>Shape</title>
    <desc>Created with Sketch.</desc>
    <defs></defs>
    <g id="Key-View" stroke="none" stroke-width="1" fill="none" fill-rule="evenodd">
        <g id="1.1a-Received-Contact-(iOS)" transform="translate(-879.000000, -412.000000)" fill-rule="nonzero" stroke="#000000" stroke-width="0.833333333">
            <g id="Window" transform="translate(320.000000, 135.000000)">
                <g id="message" transform="translate(473.000000, 192.000000)">
                    <g id="Group-4" transform="translate(0.000000, 72.000000)">
                        <g id="Group" transform="translate(86.000000, 11.000000)">
                            <path d="M0.503004576,20.5808657 C2.44736376,20.5304175 4.1383603,19.7106004 5.53209251,18.5049654 L5.72548696,18.3376713 L5.96221887,18.4343498 C7.23137666,18.9526585 8.59754256,19.2261905 10,19.2261905 C15.3043498,19.2261905 19.5833333,15.4516724 19.5833333,10.8214286 C19.5833333,6.19118476 15.3043498,2.41666667 10,2.41666667 C4.69565023,2.41666667 0.416666667,6.19118476 0.416666667,10.8214286 C0.416666667,12.7612904 1.1698162,14.5979981 2.53343385,16.082656 L2.68151739,16.243884 L2.63276552,16.4573002 C2.40695363,17.4458143 1.9438817,18.4456758 1.33263084,19.4122874 C1.02870151,19.8929111 0.697423786,20.342753 0.503004576,20.5808657 Z" id="Shape"></path>
                        </g>
                    </g>
                </g>
            </g>
        </g>
    </g>
</svg>