<svg xmlns="http://www.w3.org/2000/svg" width="200" height="110" fill="none"><path fill="#c6c6c6" d="M39.3 15.1 12.9 15C9.1 15 6 18.1 6 21.9L5.9 88c0 3.8 3.1 6.9 6.9 6.9l26.3.1c3.8 0 6.9-3.1 6.9-6.9l.2-66.1c0-3.8-3.1-6.9-6.9-6.9m3.5 73c0 2-1.7 3.7-3.7 3.7l-26.4-.1C10.7 91.7 9 90 9 88l.1-66.1c0-2 1.7-3.7 3.7-3.7l26.4.1c2 0 3.7 1.7 3.7 3.7zm144.5-73-26.4-.1c-3.8 0-6.9 3.1-6.9 6.9l-.1 66.1c0 3.8 3.1 6.9 6.9 6.9l26.4.1c3.8 0 6.9-3.1 6.9-6.9l.1-66.1c0-3.8-3.1-6.9-6.9-6.9m3.5 73c0 2-1.7 3.7-3.7 3.7l-26.4-.1c-2 0-3.7-1.7-3.7-3.7l.1-66.1c0-2 1.7-3.7 3.7-3.7l26.4.1c2 0 3.7 1.7 3.7 3.7z"/><g fill="#848484"><circle cx="126" cy="56" r="2"/><circle cx="136" cy="56" r="2"/><circle cx="146" cy="56" r="2"/><circle cx="54" cy="56" r="2"/><circle cx="64" cy="56" r="2"/><circle cx="74" cy="56" r="2"/></g><circle cx="100" cy="56" r="18" fill="#2c6bed"/><path fill="#fff" d="M109.38 56a9.453 9.453 0 0 1-9.38 9.5 9.5 9.5 0 1 1 6.84-16.22l1 1-.35-1.3v-2.42H109v5.94h-6V51h2.39l1.42.38-1-1A8.001 8.001 0 0 0 92.12 56a7.88 7.88 0 1 0 15.76 0z"/></svg>