<svg fill="none" height="110" viewBox="0 0 200 110" width="200" xmlns="http://www.w3.org/2000/svg"><path d="m39.3 15.1-26.4-.1c-3.8 0-6.9 3.1-6.9 6.9l-.1 66.1c0 3.8 3.1 6.9 6.9 6.9l26.3.1c3.8 0 6.9-3.1 6.9-6.9l.2-66.1c0-3.8-3.1-6.9-6.9-6.9zm3.5 73c0 2-1.7 3.7-3.7 3.7l-26.4-.1c-2 0-3.7-1.7-3.7-3.7l.1-66.1c0-2 1.7-3.7 3.7-3.7l26.4.1c2 0 3.7 1.7 3.7 3.7z" fill="#c6c6c6"/><path d="m187.3 15.1-26.4-.1c-3.8 0-6.9 3.1-6.9 6.9l-.1 66.1c0 3.8 3.1 6.9 6.9 6.9l26.4.1c3.8 0 6.9-3.1 6.9-6.9l.1-66.1c0-3.8-3.1-6.9-6.9-6.9zm3.5 73c0 2-1.7 3.7-3.7 3.7l-26.4-.1c-2 0-3.7-1.7-3.7-3.7l.1-66.1c0-2 1.7-3.7 3.7-3.7l26.4.1c2 0 3.7 1.7 3.7 3.7z" fill="#c6c6c6"/><g fill="#848484"><circle cx="126" cy="56" r="2"/><circle cx="136" cy="56" r="2"/><circle cx="146" cy="56" r="2"/><circle cx="54" cy="56" r="2"/><circle cx="64" cy="56" r="2"/><circle cx="74" cy="56" r="2"/></g><circle cx="100" cy="56" fill="#2c6bed" r="18"/><path d="m109.38 56c.013 2.5029-.967 4.9088-2.725 6.6898-1.759 1.781-4.152 2.7917-6.655 2.8102-1.5566-.0206-3.0843-.4235-4.4487-1.1731s-2.5237-1.8231-3.3758-3.1259c-.8522-1.3028-1.3711-2.7951-1.5112-4.3455-.14-1.5505.1031-3.1116.708-4.546.6049-1.4345 1.5531-2.6983 2.761-3.6803 1.208-.9819 2.6388-1.652 4.1665-1.9512 1.5278-.2993 3.1052-.2184 4.5952.2353 1.489.4537 2.844 1.2664 3.945 2.3667l1 1-.35-1.3v-2.42h1.51v5.94h-6v-1.5h2.39l1.42.38-1-1c-1.115-1.128-2.54-1.8992-4.094-2.2156-1.554-.3165-3.167-.1638-4.6341.4384-1.4672.6023-2.7222 1.6271-3.6057 2.9442-.8834 1.3171-1.3555 2.867-1.3562 4.453 0 1.0348.2038 2.0595.5998 3.0155.396.9561.9765 1.8248 1.7082 2.5565s1.6004 1.3122 2.5565 1.7082c.956.396 1.9807.5998 3.0155.5998 1.035 0 2.059-.2038 3.016-.5998.956-.396 1.824-.9765 2.556-1.7082s1.312-1.6004 1.708-2.5565c.396-.956.6-1.9807.6-3.0155z" fill="#fff"/></svg>