<?xml version="1.0" encoding="UTF-8" standalone="no"?>
<svg width="18px" height="17px" viewBox="0 0 18 17" version="1.1" xmlns="http://www.w3.org/2000/svg" xmlns:xlink="http://www.w3.org/1999/xlink">
    <!-- Generator: Sketch 49.3 (51167) - http://www.bohemiancoding.com/sketch -->
    <title>Shape</title>
    <desc>Created with Sketch.</desc>
    <defs></defs>
    <g id="Key-View" stroke="none" stroke-width="1" fill="none" fill-rule="evenodd">
        <g id="1.1b-Received-Contact-(Android-Light)" transform="translate(-888.000000, -377.000000)" fill="#000000" fill-rule="nonzero">
            <g id="Window" transform="translate(320.000000, 135.000000)">
                <g id="Group-4" transform="translate(500.000000, 166.000000)">
                    <g id="Group-3" transform="translate(0.000000, 64.000000)">
                        <g id="Group-2" transform="translate(68.000000, 12.000000)">
                            <path d="M9,0 C4.02890625,0 0,3.5328125 0,7.89285714 C0,9.775 0.75234375,11.4977679 2.00390625,12.8524554 C1.56445312,14.7649554 0.094921875,16.46875 0.07734375,16.4877232 C0,16.575 -0.02109375,16.7040179 0.024609375,16.8178571 C0.0703125,16.9316964 0.16875,17 0.28125,17 C2.61210937,17 4.359375,15.7933036 5.22421875,15.0495536 C6.37382813,15.5162946 7.65,15.7857143 9,15.7857143 C13.9710937,15.7857143 18,12.2529018 18,7.89285714 C18,3.5328125 13.9710937,0 9,0 Z" id="Shape"></path>
                        </g>
                    </g>
                </g>
            </g>
        </g>
    </g>
</svg>