<svg height="512pt" viewBox="0 -92 512 512" width="512pt" xmlns="http://www.w3.org/2000/svg"><path d="m419.25 277.976562h-326.5c-4.988281 0-9.648438-2.464843-12.457031-6.585937-43.078125-63.171875-46.382813-184.691406-46.632813-202.730469-.015625-.707031-.023437-1.421875-.023437-2.132812 0-8.316406 6.734375-15.0625 15.050781-15.078125h.03125c8.300781 0 15.046875 6.714843 15.078125 15.019531 0 .101562.003906.992188.039063 2.570312 1.328124 42.902344 36.644531 77.390626 79.863281 77.390626 44.058593 0 79.902343-35.84375 79.902343-79.902344 0-8.328125 6.753907-15.078125 15.078126-15.078125h34.636718c8.328125 0 15.078125 6.75 15.078125 15.078125 0 44.058594 35.847657 79.902344 79.90625 79.902344 43.257813 0 78.597657-34.550782 79.867188-77.507813.027343-1.507813.035156-2.351563.035156-2.449219.03125-8.308594 6.773437-15.023437 15.078125-15.023437h.027344c8.316406.015625 15.050781 6.761719 15.050781 15.078125 0 .714844-.007813 1.425781-.019531 2.136718-.253906 18.035157-3.558594 139.558594-46.632813 202.730469-2.808593 4.117188-7.472656 6.582031-12.457031 6.582031zm0 0" fill="#fff780"/><path d="m463.308594 51.449219c-.007813 0-.015625 0-.027344 0-8.300781 0-15.046875 6.714843-15.078125 15.019531 0 .101562-.003906.945312-.035156 2.453125-1.269531 42.953125-36.609375 77.507813-79.867188 77.507813-44.058593 0-79.902343-35.84375-79.902343-79.902344 0-8.328125-6.753907-15.078125-15.078126-15.078125h-17.316406v226.523437h163.246094c4.988281 0 9.648438-2.464844 12.457031-6.582031 43.078125-63.171875 46.382813-184.695313 46.632813-202.730469.015625-.707031.023437-1.421875.023437-2.132812-.003906-8.316406-6.738281-15.0625-15.054687-15.078125zm0 0" fill="#ffc02e"/><path d="m256 0c-26.863281 0-48.71875 21.855469-48.71875 48.71875s21.855469 48.714844 48.71875 48.714844 48.71875-21.851563 48.71875-48.714844-21.855469-48.71875-48.71875-48.71875zm0 0" fill="#ffc02e"/><path d="m256.003906 0v97.4375c26.863282-.003906 48.714844-21.855469 48.714844-48.71875s-21.855469-48.71484375-48.714844-48.71875zm0 0" fill="#ffa73b"/><path d="m48.71875 37.597656c-26.863281 0-48.71875 21.855469-48.71875 48.71875 0 26.863282 21.855469 48.71875 48.71875 48.71875s48.714844-21.855468 48.714844-48.71875c0-26.863281-21.851563-48.71875-48.714844-48.71875zm0 0" fill="#ffc02e"/><path d="m463.28125 37.597656c-26.863281 0-48.714844 21.855469-48.714844 48.71875 0 26.859375 21.851563 48.714844 48.714844 48.714844s48.71875-21.855469 48.71875-48.714844c0-26.863281-21.855469-48.71875-48.71875-48.71875zm0 0" fill="#ffa73b"/><path d="m419.25 327.441406h-326.5c-8.328125 0-15.078125-6.75-15.078125-15.078125v-44.964843h356.65625v44.964843c0 8.328125-6.75 15.078125-15.078125 15.078125zm0 0" fill="#ffc02e"/><path d="m256.003906 327.441406h163.246094c8.328125 0 15.078125-6.75 15.078125-15.078125v-44.964843h-178.324219zm0 0" fill="#ffa73b"/></svg>