<?xml version="1.0" encoding="iso-8859-1"?>
<!-- Generator: Adobe Illustrator 16.0.0, SVG Export Plug-In . SVG Version: 6.00 Build 0)  -->
<!DOCTYPE svg PUBLIC "-//W3C//DTD SVG 1.1//EN" "http://www.w3.org/Graphics/SVG/1.1/DTD/svg11.dtd">
<svg version="1.1" id="Capa_1" xmlns="http://www.w3.org/2000/svg" xmlns:xlink="http://www.w3.org/1999/xlink" x="0px" y="0px"
	 width="156.745px" height="156.745px" viewBox="0 0 156.745 156.745" style="enable-background:new 0 0 156.745 156.745;"
	 xml:space="preserve">
<g>
	<path d="M155.656,49.94c-0.97-0.722-2.299-0.717-3.259,0.01l-43.321,33.072L80.844,19.236c-0.864-1.954-4.07-1.954-4.936,0
		L47.332,83.772L4.364,49.991c-0.949-0.762-2.299-0.772-3.262-0.056c-0.988,0.73-1.36,2.009-0.917,3.148l28.907,74.669
		c0.4,1.039,1.402,1.725,2.515,1.725h93.542c1.113,0,2.12-0.686,2.516-1.725l28.904-74.669
		C156.996,51.944,156.626,50.67,155.656,49.94z M77.635,42.22L52.489,97.472c-0.277,0.602-0.81,1.045-1.458,1.203
		c-0.169,0.042-0.335,0.062-0.52,0.062c-0.475,0-0.944-0.152-1.326-0.453L17.632,73.636c-0.939-0.74-1.107-2.101-0.372-3.034
		c0.738-0.939,2.088-1.113,3.035-0.367l29.392,22.966l24.002-52.763c0.499-1.092,1.788-1.562,2.864-1.076
		C77.654,39.855,78.134,41.134,77.635,42.22z M124.722,138.974H32.018c-1.485,0-2.7-1.207-2.7-2.699c0-1.482,1.215-2.7,2.7-2.7
		h92.704c1.481,0,2.7,1.218,2.7,2.7C127.422,137.767,126.204,138.974,124.722,138.974z"/>
</g>
<g>
</g>
<g>
</g>
<g>
</g>
<g>
</g>
<g>
</g>
<g>
</g>
<g>
</g>
<g>
</g>
<g>
</g>
<g>
</g>
<g>
</g>
<g>
</g>
<g>
</g>
<g>
</g>
<g>
</g>
</svg>
