<svg xmlns="http://www.w3.org/2000/svg" width="200" height="110" fill="none"><path fill="#C6C6C6" d="M39.3 15.1 12.9 15C9.1 15 6 18.1 6 21.9L5.9 88c0 3.8 3.1 6.9 6.9 6.9l26.3.1c3.8 0 6.9-3.1 6.9-6.9l.2-66.1c0-3.8-3.1-6.9-6.9-6.9m3.5 73c0 2-1.7 3.7-3.7 3.7l-26.4-.1C10.7 91.7 9 90 9 88l.1-66.1c0-2 1.7-3.7 3.7-3.7l26.4.1c2 0 3.7 1.7 3.7 3.7zm144.5-73-26.4-.1c-3.8 0-6.9 3.1-6.9 6.9l-.1 66.1c0 3.8 3.1 6.9 6.9 6.9l26.4.1c3.8 0 6.9-3.1 6.9-6.9l.1-66.1c0-3.8-3.1-6.9-6.9-6.9m3.5 73c0 2-1.7 3.7-3.7 3.7l-26.4-.1c-2 0-3.7-1.7-3.7-3.7l.1-66.1c0-2 1.7-3.7 3.7-3.7l26.4.1c2 0 3.7 1.7 3.7 3.7z"/><path fill="#848484" d="M126 58a2 2 0 1 0 0-4 2 2 0 0 0 0 4m10 0a2 2 0 1 0 0-4 2 2 0 0 0 0 4m10 0a2 2 0 1 0 0-4 2 2 0 0 0 0 4m-92 0a2 2 0 1 0 0-4 2 2 0 0 0 0 4m10 0a2 2 0 1 0 0-4 2 2 0 0 0 0 4m10 0a2 2 0 1 0 0-4 2 2 0 0 0 0 4"/><path fill="#FFC207" d="M118 56c0 9.941-8.059 18-18 18s-18-8.059-18-18 8.059-18 18-18 18 8.059 18 18"/><path fill="#fff" d="M102.083 47h-4.166l.833 11.25h2.5zm-.004 14.5c.274.37.421.805.421 1.25 0 .597-.263 1.169-.732 1.591A2.65 2.65 0 0 1 100 65c-.495 0-.978-.132-1.389-.38a2.3 2.3 0 0 1-.92-1.009 2.04 2.04 0 0 1-.143-1.3c.096-.436.335-.837.684-1.152s.795-.529 1.28-.616a2.76 2.76 0 0 1 1.445.128c.457.17.847.459 1.122.829"/></svg>