<svg height="12" viewBox="0 0 18 12" width="18" xmlns="http://www.w3.org/2000/svg"><path d="m7.91731278.31325719c-.32790187.23582695-.63457732.4993134-.91661079.7870438-.32335648-.06576997-.65802117-.10030099-1.00070199-.10030099-2.76 0-5 2.24-5 5s2.24 5 5 5c.34268082 0 .67734551-.034531 1.00070199-.100301.28203347.2877304.58870892.5512169.91661079.7870438-.60212935.203133-1.24693879.3132572-1.91731278.3132572-3.312 0-6-2.688-6-6s2.688-6 6-6c.67037399 0 1.31518343.11012424 1.91731278.31325719zm-2.84464825 6.69907828c.05711006.39424873.14707821.77785835.2670378 1.1479622l-.33970233.33970233-2.5-2.5.705-.705 1.795 1.79zm6.92733547-7.01233547c3.312 0 6 2.688 6 6s-2.688 6-6 6-6-2.688-6-6 2.688-6 6-6zm0 1c-2.76 0-5 2.24-5 5s2.24 5 5 5 5-2.24 5-5-2.24-5-5-5zm-1 7.5-2.5-2.5.705-.705 1.795 1.79 3.795-3.795.705.71z"/></svg>