<?xml version="1.0" encoding="UTF-8"?>
<svg width="24px" height="24px" viewBox="0 0 24 24" version="1.1" xmlns="http://www.w3.org/2000/svg" xmlns:xlink="http://www.w3.org/1999/xlink">
    <!-- Generator: Sketch 50.2 (55047) - http://www.bohemiancoding.com/sketch -->
    <title>Icons/Ellipses/ellipses-24</title>
    <desc>Created with Sketch.</desc>
    <defs>
        <path d="M6,10 C4.9,10 4,10.9 4,12 C4,13.1 4.9,14 6,14 C7.1,14 8,13.1 8,12 C8,10.9 7.1,10 6,10 Z M18,10 C16.9,10 16,10.9 16,12 C16,13.1 16.9,14 18,14 C19.1,14 20,13.1 20,12 C20,10.9 19.1,10 18,10 Z M12,10 C10.9,10 10,10.9 10,12 C10,13.1 10.9,14 12,14 C13.1,14 14,13.1 14,12 C14,10.9 13.1,10 12,10 Z" id="path-1"></path>
        <rect id="path-3" x="0" y="0" width="24" height="24"></rect>
    </defs>
    <g id="Icons/Ellipses/ellipses-24" stroke="none" stroke-width="1" fill="none" fill-rule="evenodd">
        <mask id="mask-2" fill="white">
            <use xlink:href="#path-1"></use>
        </mask>
        <use id="Shape" fill="#62656A" fill-rule="nonzero" xlink:href="#path-1"></use>
        <g id="Color/Dark/Black" mask="url(#mask-2)">
            <mask id="mask-4" fill="white">
                <use xlink:href="#path-3"></use>
            </mask>
            <use id="fill" fill="#000000" fill-rule="evenodd" xlink:href="#path-3"></use>
        </g>
    </g>
</svg>