<?xml version="1.0" encoding="utf-8"?>
<!-- Generator: Adobe Illustrator 23.0.3, SVG Export Plug-In . SVG Version: 6.00 Build 0)  -->
<svg version="1.1" id="Export" xmlns="http://www.w3.org/2000/svg" xmlns:xlink="http://www.w3.org/1999/xlink" x="0px" y="0px"
	 viewBox="0 0 20 20" style="enable-background:new 0 0 20 20;" xml:space="preserve">
<path d="M10,1C6.4,1,3.5,3.9,3.5,7.5c0,1.5,0.5,2.9,1.4,4.1c1.3,1.7,2.6,2.9,2.6,4.4v1.5c0,0.6,0.4,1.2,1,1.5h3c0.6-0.3,1-0.9,1-1.5
	H9V16h3.5c0-1.5,1.2-2.8,2.6-4.4c2.3-2.8,1.8-6.9-1-9.1C12.9,1.5,11.5,1,10,1z M8.7,14.5c-0.5-1.2-1.2-2.2-2.1-3.2l-0.5-0.7
	C5.4,9.8,5,8.6,5,7.5c0-2.8,2.2-5,5-5s5,2.2,5,5c0,1.2-0.4,2.3-1.1,3.2l-0.5,0.6c-0.9,0.9-1.6,2-2.1,3.2H8.7z"/>
</svg>
