<?xml version="1.0" encoding="utf-8"?>
<!-- Generator: Adobe Illustrator 23.0.3, SVG Export Plug-In . SVG Version: 6.00 Build 0)  -->
<svg version="1.1" id="Export" xmlns="http://www.w3.org/2000/svg" xmlns:xlink="http://www.w3.org/1999/xlink" x="0px" y="0px"
	 viewBox="0 0 20 20" style="enable-background:new 0 0 20 20;" xml:space="preserve">
<path d="M17.5,3.3c-2.4-0.8-4.9-0.8-7.3,0C8.1,4,5.8,4,3.8,3.3L3.5,3.2V2H2v16h1.5v-4.2c1,0.4,2.1,0.5,3.2,0.6
	c1.3,0,2.6-0.2,3.8-0.6c2.1-0.7,4.4-0.7,6.4,0l1,0.4V3.5L17.5,3.3z M16.5,12c-2.1-0.5-4.3-0.4-6.3,0.3c-2.1,0.7-4.4,0.7-6.4,0
	l-0.2-0.1V4.8c2.3,0.7,4.8,0.7,7.1,0c1.9-0.7,4-0.7,5.9-0.2V12z"/>
</svg>
