<?xml version="1.0" encoding="utf-8"?>
<!-- Generator: Adobe Illustrator 23.0.3, SVG Export Plug-In . SVG Version: 6.00 Build 0)  -->
<svg version="1.1" id="Export" xmlns="http://www.w3.org/2000/svg" xmlns:xlink="http://www.w3.org/1999/xlink" x="0px" y="0px"
	 viewBox="0 0 20 20" style="enable-background:new 0 0 20 20;" xml:space="preserve">
<path d="M12.1,10.4c-0.4-0.7-0.6-1.5-0.6-2.3c0-0.8,0.2-1.6,0.6-2.3c0.3-0.5,0.4-1.1,0.4-1.8c0-0.6-0.2-1.2-0.4-1.7l1.4-0.6
	C13.8,2.6,14,3.4,14,4.2c0,0.8-0.2,1.6-0.6,2.3C13.2,7,13,7.6,13,8.2c0,0.6,0.2,1.1,0.4,1.6L12.1,10.4z M10.4,9.8
	C10.2,9.3,10,8.8,10,8.2c0-0.6,0.2-1.2,0.4-1.7C10.8,5.8,11,5,11,4.2c0-0.8-0.2-1.6-0.6-2.3L9.1,2.5C9.3,3,9.5,3.6,9.5,4.2
	c0,0.6-0.2,1.2-0.4,1.8C8.7,6.6,8.5,7.4,8.5,8.2c0,0.8,0.2,1.6,0.6,2.3L10.4,9.8z M19,10.3L19,10.3c0,2.7-2.3,8.7-9,8.7
	c-4.9,0-8.8-3.8-9-8.7l0,0C1,9.1,2.8,8,5.6,7.4c0.1-0.5,0.3-1,0.5-1.5c0.3-0.5,0.4-1.1,0.4-1.8c0-0.6-0.2-1.2-0.4-1.7l1.4-0.6
	C7.8,2.6,8,3.4,8,4.2C8,5,7.8,5.8,7.4,6.5C7.2,7,7,7.6,7,8.2c0,0.2,0,0.3,0,0.5c0.1,0.4,0.2,0.8,0.4,1.2L6,10.4
	C5.8,10,5.7,9.5,5.6,9c-1.1,0.2-2.2,0.6-3,1.4c0.4,0.6,2.9,1.9,7.5,1.9s7.1-1.3,7.5-1.9c-0.8-0.7-1.8-1.2-2.9-1.4
	c-0.1-0.3-0.1-0.5-0.1-0.8c0-0.2,0-0.5,0.1-0.7C17.2,8,19,9.1,19,10.3z M17.2,12c-0.2,0.3-0.5,0.5-0.8,0.6c-2.1,0.7-4.2,1-6.4,1
	c-2.2,0-4.3-0.3-6.3-1C3.3,12.5,3,12.3,2.8,12c0.1,0.4,0.2,0.7,0.4,1.1c1.1,2.8,3.8,4.5,6.8,4.5c3,0.1,5.7-1.7,6.9-4.5
	C17,12.7,17.1,12.4,17.2,12z"/>
</svg>
