<?xml version="1.0" encoding="utf-8"?>
<!-- Generator: Adobe Illustrator 23.0.3, SVG Export Plug-In . SVG Version: 6.00 Build 0)  -->
<svg version="1.1" id="Export" xmlns="http://www.w3.org/2000/svg" xmlns:xlink="http://www.w3.org/1999/xlink" x="0px" y="0px"
	 viewBox="0 0 20 20" style="enable-background:new 0 0 20 20;" xml:space="preserve">
<path d="M14.2,3.5c1.6,0,2.9,1.1,3.2,2.6c0,0.2,0.1,0.4,0.1,0.5c0,3.6-4,7.5-7.5,10.4c-2.8-2.3-7.5-6.6-7.5-10.4
	c0-0.2,0-0.4,0.1-0.6l0,0C2.7,5.5,3,4.9,3.4,4.5c1.3-1.3,3.3-1.3,4.6,0l0,0l0,0C8.3,4.7,8.5,5,8.7,5.3L10,7.1l1.2-1.9
	c0.2-0.3,0.4-0.5,0.6-0.8l0,0l0,0l0,0C12.5,3.9,13.3,3.5,14.2,3.5 M14.2,2c-1.3,0-2.5,0.5-3.4,1.4c-0.3,0.3-0.6,0.7-0.8,1
	c-0.3-0.4-0.6-0.7-0.9-1c-1.9-1.9-4.9-1.9-6.7,0C1.7,4,1.3,4.8,1.1,5.7C1,6,1,6.3,1,6.7c0,4.6,5.1,9.1,9,12.4c4-3.2,9-7.8,9-12.4
	c0-0.3,0-0.6-0.1-0.9C18.4,3.6,16.5,2,14.2,2L14.2,2z"/>
</svg>
