<?xml version="1.0" encoding="utf-8"?>
<!-- Generator: Adobe Illustrator 23.0.3, SVG Export Plug-In . SVG Version: 6.00 Build 0)  -->
<svg version="1.1" id="Export" xmlns="http://www.w3.org/2000/svg" xmlns:xlink="http://www.w3.org/1999/xlink" x="0px" y="0px"
	 viewBox="0 0 20 20" style="enable-background:new 0 0 20 20;" xml:space="preserve">
<path d="M18.9,5.8c-0.2-0.9-0.6-1.7-1.3-2.4c-1.9-1.9-4.9-1.9-6.7,0c-0.3,0.3-0.6,0.7-0.9,1c-0.3-0.4-0.6-0.7-0.9-1
	c-1.9-1.9-4.9-1.9-6.7,0C1.7,4,1.3,4.8,1.1,5.7C1,6,1,6.3,1,6.7c0,4.6,5.1,9.1,9,12.4c4-3.2,9-7.8,9-12.4C19,6.4,19,6.1,18.9,5.8z"
	/>
</svg>
