<?xml version="1.0" encoding="utf-8"?>
<!-- Generator: Adobe Illustrator 23.0.3, SVG Export Plug-In . SVG Version: 6.00 Build 0)  -->
<svg version="1.1" id="Export" xmlns="http://www.w3.org/2000/svg" xmlns:xlink="http://www.w3.org/1999/xlink" x="0px" y="0px"
	 viewBox="0 0 20 20" style="enable-background:new 0 0 20 20;" xml:space="preserve">
<path d="M16.9,9c0-0.2-0.1-0.5-0.1-0.7c0.1-0.1,0.2-0.1,0.2-0.2c1.8-1.8,2.1-4.3,0.7-5.7S13.8,1.2,12,3c-0.1,0.1-0.1,0.2-0.2,0.2
	c-1.2-0.3-2.4-0.3-3.6,0C8.1,3.2,8.1,3.1,8,3C6.2,1.2,3.7,0.9,2.3,2.3S1.2,6.2,3,8l0.2,0.2C3.2,8.4,3.1,8.7,3.1,8.9
	c-2.2,1.6-2.7,4.7-1.1,7C2.9,17.2,4.4,18,6,18c0,0,0.8,0,1.8-0.1c0.9,1.2,2.6,1.4,3.8,0.5c0.2-0.2,0.4-0.3,0.5-0.5
	C13.1,18,14,18,14,18c2.8,0,5-2.3,4.9-5.1C18.9,11.4,18.1,9.9,16.9,9z M3.8,6.7C3.4,6.2,3.1,5.5,3,4.8C2.9,4.3,3.1,3.8,3.4,3.4
	C3.7,3.1,4.1,3,4.5,3c0.8,0,1.6,0.4,2.1,0.9l0,0C5.5,4.5,4.5,5.5,3.8,6.7z M7,12.5c-0.6,0-1-0.7-1-1.5s0.4-1.5,1-1.5s1,0.7,1,1.5
	S7.6,12.5,7,12.5z M11.2,16l-0.8,0.7c-0.2,0.2-0.5,0.2-0.7,0L8.8,16c-0.4-0.3-0.5-0.9-0.2-1.3c0.2-0.2,0.5-0.4,0.7-0.4h1.4
	c0.5,0,0.9,0.4,0.9,0.9C11.6,15.5,11.4,15.8,11.2,16z M13,12.5c-0.6,0-1-0.7-1-1.5s0.4-1.5,1-1.5s1,0.7,1,1.5S13.6,12.5,13,12.5z
	 M13.3,3.8L13.3,3.8C13.9,3.3,14.7,3,15.5,3c0.4,0,0.8,0.1,1.2,0.4c0.3,0.4,0.5,0.9,0.4,1.4c-0.1,0.7-0.4,1.3-0.9,1.8
	C15.5,5.5,14.5,4.5,13.3,3.8z"/>
</svg>
