<?xml version="1.0" encoding="utf-8"?>
<!-- Generator: Adobe Illustrator 23.0.3, SVG Export Plug-In . SVG Version: 6.00 Build 0)  -->
<svg version="1.1" id="Export" xmlns="http://www.w3.org/2000/svg" xmlns:xlink="http://www.w3.org/1999/xlink" x="0px" y="0px"
	 viewBox="0 0 20 20" style="enable-background:new 0 0 20 20;" xml:space="preserve">
<path d="M14.5,8.5l2.2-2.2c1.6-1.6,2.2-3.6,1.4-4.4s-2.9-0.1-4.4,1.4l-2.2,2.2L7.7,4.2l-4.8-2L1.1,4l4.5,3.9l1.7,1.7l-1.2,1.2
	c-0.2,0.3-0.4,0.5-0.6,0.9H2.1l-1,1.1l3.1,1.9c-0.2,0.5-0.3,0.9-0.3,0.9l0.6,0.6l0.9-0.3l1.9,3l1-1v-3.4c0.3-0.2,0.6-0.4,0.9-0.6
	l1.1-1.1l1.7,1.8l3.8,4.6l1.8-1.8l-1.9-4.9L14.5,8.5z"/>
</svg>
