<?xml version="1.0" encoding="utf-8"?>
<!-- Generator: Adobe Illustrator 23.0.3, SVG Export Plug-In . SVG Version: 6.00 Build 0)  -->
<svg version="1.1" id="Export" xmlns="http://www.w3.org/2000/svg" xmlns:xlink="http://www.w3.org/1999/xlink" x="0px" y="0px"
	 viewBox="0 0 20 20" style="enable-background:new 0 0 20 20;" xml:space="preserve">
<path d="M10,1c-5,0-9,4-9,9s4,9,9,9s9-4,9-9S15,1,10,1z M17.3,8.4c-0.6,0.9-1.3,1.8-1.9,2.6l-3.3-1.3c-0.4-0.9-0.8-1.8-1.2-2.8
	l2.4-2.4C14,4.6,14.8,4.8,15.6,5C16.4,5.9,17,7.1,17.3,8.4z M11.1,2.6C11.6,3.1,12,3.5,12.4,4L10,6.4c-0.9,0-1.9,0-2.8,0.1L6.1,5
	C6.5,4.3,7,3.6,7.4,3C8.2,2.7,9.1,2.5,10,2.5C10.4,2.5,10.8,2.5,11.1,2.6z M5.6,10L5.6,10l-1.8,1C3.4,10.4,3,9.7,2.6,9.1
	c0.1-1,0.4-1.9,0.9-2.7l1.9-0.7l1.1,1.6C6.1,8.1,5.8,9.1,5.6,10z M3.9,14.3C3.9,13.5,4,12.7,4,12l1.8-1c0.9,0.6,1.8,1.2,2.6,1.8
	L9,16l-2.3,0.7C5.6,16.1,4.6,15.3,3.9,14.3z M12.8,17c-1-0.3-1.9-0.6-2.8-0.9l-0.6-3.3c0.8-0.7,1.6-1.4,2.5-2l3.2,1.2
	c0.1,1,0.2,2.1,0.3,3.2C14.7,16,13.8,16.6,12.8,17z"/>
</svg>
