<?xml version="1.0" encoding="utf-8"?>
<!-- Generator: Adobe Illustrator 23.0.3, SVG Export Plug-In . SVG Version: 6.00 Build 0)  -->
<svg version="1.1" id="Export" xmlns="http://www.w3.org/2000/svg" xmlns:xlink="http://www.w3.org/1999/xlink" x="0px" y="0px"
	 viewBox="0 0 20 20" style="enable-background:new 0 0 20 20;" xml:space="preserve">
<path d="M17.5,3.3c-2.4-0.8-4.9-0.8-7.3,0C8.1,4,5.8,4,3.8,3.3L3.5,3.2V2H2v16h1.5v-4.2c1,0.4,2.1,0.5,3.2,0.6
	c1.3,0,2.6-0.2,3.8-0.6c2.1-0.7,4.4-0.7,6.4,0l1,0.4V3.5L17.5,3.3z M5,12.6c-0.4-0.1-0.8-0.2-1.2-0.4l-0.2-0.1V4.8
	C4,4.9,4.5,5.1,5,5.2V12.6z"/>
</svg>
