<?xml version="1.0" encoding="utf-8"?>
<!-- Generator: Adobe Illustrator 23.0.3, SVG Export Plug-In . SVG Version: 6.00 Build 0)  -->
<svg version="1.1" id="Export" xmlns="http://www.w3.org/2000/svg" xmlns:xlink="http://www.w3.org/1999/xlink" x="0px" y="0px"
	 viewBox="0 0 20 20" style="enable-background:new 0 0 20 20;" xml:space="preserve">
<path d="M10,1C5.2,0.9,1.1,4.7,1,9.5C1,9.7,1,9.8,1,10c-0.1,4.8,3.7,8.9,8.5,9c0.2,0,0.3,0,0.5,0c4.8,0.1,8.9-3.7,9-8.5
	c0-0.2,0-0.3,0-0.5c0.1-4.8-3.7-8.9-8.5-9C10.3,1,10.2,1,10,1z M12.8,6.8c0.8,0.1,1.3,0.8,1.2,1.6c0.1,0.8-0.5,1.5-1.2,1.6
	c-0.8-0.1-1.3-0.8-1.2-1.6C11.4,7.6,12,6.9,12.8,6.8z M7.2,6.8C8,6.9,8.6,7.6,8.5,8.4C8.6,9.2,8,9.9,7.2,10C6.5,9.9,5.9,9.2,6,8.4
	C5.9,7.6,6.5,6.9,7.2,6.8z M14.6,13.2c-1.9,2.5-5.5,3.1-8.1,1.1c-0.4-0.3-0.8-0.7-1.1-1.1c-0.2-0.3-0.2-0.8,0.2-1.1s0.8-0.2,1.1,0.2
	c1.4,1.9,4.1,2.2,6,0.8c0.3-0.2,0.6-0.5,0.8-0.8c0.2-0.3,0.7-0.4,1.1-0.2S14.9,12.9,14.6,13.2z"/>
</svg>
