<?xml version="1.0" encoding="utf-8"?>
<!-- Generator: Adobe Illustrator 23.0.3, SVG Export Plug-In . SVG Version: 6.00 Build 0)  -->
<svg version="1.1" id="Export" xmlns="http://www.w3.org/2000/svg" xmlns:xlink="http://www.w3.org/1999/xlink" x="0px" y="0px"
	 viewBox="0 0 20 20" style="enable-background:new 0 0 20 20;" xml:space="preserve">
<path d="M10,1c-5,0-9,4-9,9s4,9,9,9s9-4,9-9S15,1,10,1z M15.5,15.1c-0.1-1-0.2-2.2-0.3-3.2l-3.2-1.2c-0.9,0.7-1.7,1.4-2.5,2L10,16
	c0.8,0.3,1.9,0.6,2.8,0.9c-2,0.8-4.2,0.7-6.1-0.2L9,16l-0.6-3.3c-0.8-0.6-1.7-1.2-2.6-1.8L4,12c0,0.7-0.1,1.6-0.1,2.3
	C3,13.1,2.5,11.6,2.5,10c0-0.3,0-0.6,0.1-0.9L3.8,11l1.8-1l0,0c0.3-0.9,0.6-1.9,0.9-2.8L5.3,5.6L3.5,6.4C4.3,4.8,5.7,3.6,7.4,3
	C7,3.6,6.5,4.4,6.1,5l1.1,1.6C8.2,6.5,9.1,6.4,10,6.4L12.4,4c-0.3-0.4-0.8-1-1.2-1.4c1.7,0.3,3.3,1.1,4.4,2.4
	c-0.7-0.2-1.5-0.3-2.2-0.5l-2.4,2.4c0.4,1,0.8,1.9,1.2,2.8l3.3,1.3c0.6-0.8,1.3-1.7,1.9-2.6c0.1,0.5,0.2,1.1,0.2,1.6
	C17.5,11.9,16.8,13.7,15.5,15.1z"/>
</svg>
