<?xml version="1.0" encoding="utf-8"?>
<!-- Generator: Adobe Illustrator 23.0.3, SVG Export Plug-In . SVG Version: 6.00 Build 0)  -->
<svg version="1.1" id="Export" xmlns="http://www.w3.org/2000/svg" xmlns:xlink="http://www.w3.org/1999/xlink" x="0px" y="0px"
	 viewBox="0 0 20 20" style="enable-background:new 0 0 20 20;" xml:space="preserve">
<path d="M16.5,7.5C16.5,3.9,13.6,1,10,1C6.4,1,3.5,3.9,3.5,7.5c0,1.5,0.5,2.9,1.4,4.1l0,0l0,0v0.1c1.4,1.6,2.6,2.9,2.6,4.4v1.5
	c0,0.6,0.4,1.2,1,1.5h3c0.6-0.3,1-0.9,1-1.5H9V16h3.5c0-1.5,1.2-2.8,2.5-4.3v-0.1l0,0l0,0C16,10.5,16.5,9,16.5,7.5z"/>
</svg>
