<?xml version="1.0" encoding="utf-8"?>
<!-- Generator: Adobe Illustrator 23.0.3, SVG Export Plug-In . SVG Version: 6.00 Build 0)  -->
<svg version="1.1" id="Export" xmlns="http://www.w3.org/2000/svg" xmlns:xlink="http://www.w3.org/1999/xlink" x="0px" y="0px"
	 viewBox="0 0 20 20" style="enable-background:new 0 0 20 20;" xml:space="preserve">
<path d="M10,15.5c-1.8,0-3.5-0.8-4.6-2.3c-0.2-0.3-0.2-0.8,0.2-1.1c0.3-0.2,0.8-0.2,1.1,0.2c1.4,1.9,4.1,2.2,6,0.8
	c0.3-0.2,0.6-0.5,0.8-0.8c0.2-0.3,0.7-0.4,1.1-0.2s0.4,0.7,0.2,1.1l0,0C13.5,14.7,11.8,15.5,10,15.5z M10,2.5c-4-0.1-7.4,3-7.5,7
	c0,0.2,0,0.3,0,0.5c-0.1,4,3,7.4,7,7.5c0.2,0,0.3,0,0.5,0c4,0.1,7.4-3,7.5-7c0-0.2,0-0.3,0-0.5c0.1-4-3-7.4-7-7.5
	C10.3,2.5,10.2,2.5,10,2.5 M10,1c4.8-0.1,8.9,3.7,9,8.5c0,0.2,0,0.3,0,0.5c0.1,4.8-3.7,8.9-8.5,9c-0.2,0-0.3,0-0.5,0
	c-4.8,0.1-8.9-3.7-9-8.5c0-0.2,0-0.3,0-0.5C0.9,5.2,4.7,1.1,9.5,1C9.7,1,9.8,1,10,1z M7.2,6.8C6.5,6.9,5.9,7.6,6,8.4
	C5.9,9.2,6.5,9.9,7.2,10C8,9.9,8.6,9.2,8.5,8.4C8.6,7.6,8,6.9,7.2,6.8z M12.8,6.8c-0.8,0.1-1.3,0.8-1.2,1.6C11.4,9.2,12,9.9,12.8,10
	c0.8-0.1,1.3-0.8,1.2-1.6C14.1,7.6,13.5,6.9,12.8,6.8z"/>
</svg>
