<svg height="56" width="44" xmlns="http://www.w3.org/2000/svg" xmlns:xlink="http://www.w3.org/1999/xlink">
  <defs>
    <filter id="b" height="170%" width="200%" x="-50%" y="-30%">
      <feOffset dy="2" in="SourceAlpha" result="shadowOffsetOuter1"/>
      <feGaussianBlur in="shadowOffsetOuter1" result="shadowBlurOuter1" stdDeviation="4"/>
      <feColorMatrix in="shadowBlurOuter1" result="shadowMatrixOuter1" values="0 0 0 0 0 0 0 0 0 0 0 0 0 0 0 0 0 0 0.08 0"/>
      <feMorphology in="SourceAlpha" operator="dilate" radius=".5" result="shadowSpreadOuter2"/>
      <feOffset in="shadowSpreadOuter2" result="shadowOffsetOuter2"/>
      <feColorMatrix in="shadowOffsetOuter2" result="shadowMatrixOuter2" values="0 0 0 0 0 0 0 0 0 0 0 0 0 0 0 0 0 0 0.12 0"/>
      <feMerge>
        <feMergeNode in="shadowMatrixOuter1"/>
        <feMergeNode in="shadowMatrixOuter2"/>
      </feMerge>
    </filter>
    <filter id="d" height="216.7%" width="216.7%" x="-58.3%" y="-41.7%">
      <feOffset dy="2" in="SourceAlpha" result="shadowOffsetOuter1"/>
      <feGaussianBlur in="shadowOffsetOuter1" result="shadowBlurOuter1" stdDeviation="2"/>
      <feColorMatrix in="shadowBlurOuter1" values="0 0 0 0 0 0 0 0 0 0 0 0 0 0 0 0 0 0 0.12 0"/>
    </filter>
    <filter id="f" height="175%" width="175%" x="-37.5%" y="-20.8%">
      <feMorphology in="SourceAlpha" radius="1" result="shadowSpreadInner1"/>
      <feOffset in="shadowSpreadInner1" result="shadowOffsetInner1"/>
      <feComposite in="shadowOffsetInner1" in2="SourceAlpha" k2="-1" k3="1" operator="arithmetic" result="shadowInnerInner1"/>
      <feColorMatrix in="shadowInnerInner1" values="0 0 0 0 0 0 0 0 0 0 0 0 0 0 0 0 0 0 0.12 0"/>
    </filter>
    <path id="a" d="M27.461 10.64c.334.358.539.839.539 1.367v25a3 3 0 01-3 3H3a3 3 0 01-3-3v-34a3 3 0 013-3L16.027 0c.56.016 1.058.25 1.415.62.34.355 9.654 9.63 10.02 10.02z"/>
    <path id="e" d="M16 .007h12v12a2 2 0 00-2-2h-5a3 3 0 01-3-3v-5a2 2 0 00-2-2z"/>
    <mask id="c" fill="#fff">
      <use fill-rule="evenodd" xlink:href="#a"/>
    </mask>
  </defs>
  <g fill="none" fill-rule="evenodd" transform="translate(8 6)">
    <use fill="#000" filter="url(#b)" xlink:href="#a"/>
    <use fill="#fff" xlink:href="#a"/>
    <g mask="url(#c)">
      <use fill="#000" filter="url(#d)" xlink:href="#e"/>
      <use fill="#fff" xlink:href="#e"/>
      <use fill="#000" filter="url(#f)" xlink:href="#e"/>
    </g>
  </g>
</svg>
