<svg width="30" height="40" fill="none" xmlns="http://www.w3.org/2000/svg"><path d="M4.5 39.5h21a4 4 0 0 0 4-4v-23c0-.552-.224-1.052-.586-1.414l-10-10A1.994 1.994 0 0 0 17.5.5h-13a4 4 0 0 0-4 4v31a4 4 0 0 0 4 4Z" fill="color(display-p3 .9765 .9765 .9804)"/><path d="M28.914 11.086A1.994 1.994 0 0 0 27.5 10.5h-4a4 4 0 0 1-4-4v-4c0-.552-.224-1.052-.586-1.414l10 10Z" fill="#fff"/><path fill-rule="evenodd" clip-rule="evenodd" d="M4.5 40h21a4.5 4.5 0 0 0 4.5-4.5v-23c0-.69-.28-1.316-.732-1.768l-10-10A2.494 2.494 0 0 0 17.5 0h-13A4.5 4.5 0 0 0 0 4.5v31A4.5 4.5 0 0 0 4.5 40Zm0-.5h21a4 4 0 0 0 4-4v-23c0-.552-.224-1.052-.586-1.414A1.994 1.994 0 0 0 27.5 10.5h-4a4 4 0 0 1-4-4v-4c0-.552-.224-1.052-.586-1.414A1.994 1.994 0 0 0 17.5.5h-13a4 4 0 0 0-4 4v31a4 4 0 0 0 4 4ZM19.975 2.147c.016.115.025.233.025.353v4a3.5 3.5 0 0 0 3.5 3.5h4c.12 0 .238.008.353.025l-7.878-7.878Z" fill="#000" fill-opacity=".2"/></svg>