<svg xmlns="http://www.w3.org/2000/svg" width="30" height="40" fill="none"><path fill="#F9F9FA" d="M4.5 39.5h21a4 4 0 0 0 4-4v-23c0-.552-.224-1.052-.586-1.414l-10-10A2 2 0 0 0 17.5.5h-13a4 4 0 0 0-4 4v31a4 4 0 0 0 4 4"/><path fill="#fff" d="M28.914 11.086A2 2 0 0 0 27.5 10.5h-4a4 4 0 0 1-4-4v-4c0-.552-.224-1.052-.586-1.414z"/><path fill="#000" fill-opacity=".2" fill-rule="evenodd" d="M4.5 40h21a4.5 4.5 0 0 0 4.5-4.5v-23c0-.69-.28-1.316-.732-1.768l-10-10A2.5 2.5 0 0 0 17.5 0h-13A4.5 4.5 0 0 0 0 4.5v31A4.5 4.5 0 0 0 4.5 40m0-.5h21a4 4 0 0 0 4-4v-23c0-.552-.224-1.052-.586-1.414A2 2 0 0 0 27.5 10.5h-4a4 4 0 0 1-4-4v-4c0-.552-.224-1.052-.586-1.414A2 2 0 0 0 17.5.5h-13a4 4 0 0 0-4 4v31a4 4 0 0 0 4 4M19.975 2.147q.024.173.025.353v4a3.5 3.5 0 0 0 3.5 3.5h4q.18 0 .353.025z" clip-rule="evenodd"/></svg>