<?xml version="1.0" encoding="UTF-8"?>
<svg id="Export" xmlns="http://www.w3.org/2000/svg" viewBox="0 0 80 60">
  <defs>
    <style>
      .cls-1 {
        fill: #fff;
      }

      .cls-2 {
        fill: #2c6bed;
      }
    </style>
  </defs>
  <path class="cls-2" d="M78.738,36.229l-6.797-4.513c2.831-.994,5.188-2.288,6.311-3.947,.864-1.277,1.032-2.749,.473-4.147-3.227-8.067-7.676-15.12-13.223-20.963l-.889-.936-1.219,.424c-9.233,3.215-17.112,12.09-20.719,16.685-.825-.229-1.757-.292-2.677-.292s-1.852,.063-2.678,.291c-3.607-4.595-11.485-13.469-20.717-16.683l-1.219-.424-.889,.936C8.95,8.502,4.501,15.555,1.274,23.622c-.559,1.398-.391,2.871,.473,4.147,1.123,1.659,3.48,2.953,6.311,3.947l-6.797,4.513-1.052,.698,.178,1.25,2.573,18.069,.485,3.406,2.72-2.107c.786-.609,19.3-14.953,22.677-17.79,.925-.777,4.435-3.789,7.171-6.997,.981,.326,2.269,.482,3.986,.482s3.005-.156,3.986-.482c2.736,3.208,6.246,6.22,7.171,6.997,3.377,2.837,21.89,17.18,22.677,17.79l2.72,2.107,.485-3.406,2.573-18.069,.178-1.25-1.052-.698Z"/>
  <path class="cls-1" d="M54.872,34.542c2.815,0,9.139-.572,14.602-2.063l8.158,5.417-2.573,18.069s-19.23-14.896-22.615-17.74c-1.637-1.375-3.599-3.174-5.349-5.013,1.802,.578,3.962,1.099,6.284,1.28,.433,.034,.935,.051,1.493,.051ZM4.941,55.964s19.23-14.896,22.615-17.74c1.637-1.375,3.599-3.174,5.349-5.013-1.802,.578-3.962,1.099-6.284,1.28-.433,.034-.935,.051-1.493,.051-2.815,0-9.139-.572-14.602-2.063l-8.158,5.417,2.573,18.069ZM43.241,21.846c-.097-.513-.154-1.306-3.241-1.306s-3.144,.793-3.241,1.306l-1.227,7.615c-.123,.649-.002,1.779,4.468,1.779s4.591-1.13,4.468-1.779l-1.227-7.615Zm33.628,2.519c-2.298-5.745-6.187-13.346-12.816-20.329-8.561,2.981-16.064,11.33-19.62,15.81,.369,.409,.646,.933,.774,1.629l.005,.026,.004,.027,1.223,7.594c.123,.685,.025,1.246-.156,1.693,1.893,.709,4.464,1.464,7.252,1.682,.384,.03,.833,.045,1.337,.045,6.927,0,24.139-2.821,21.997-8.176Zm-43.308,4.756l1.223-7.594,.012-.065,.004-.022c.125-.683,.398-1.199,.762-1.601-3.558-4.481-11.058-12.824-19.615-15.803C9.318,11.019,5.429,18.62,3.131,24.365c-2.142,5.355,15.07,8.176,21.997,8.176,.504,0,.953-.015,1.337-.045,2.788-.218,5.359-.972,7.252-1.682-.181-.447-.28-1.008-.156-1.693Z"/>
</svg>