<?xml version="1.0" encoding="UTF-8"?>
<svg id="Layer_1" data-name="Layer 1" xmlns="http://www.w3.org/2000/svg" viewBox="0 0 54 54">
  <defs>
    <style>
      .cls-1 {
        fill: #fff;
      }

      .cls-2 {
        fill: #2c6bed;
      }
    </style>
  </defs>
  <rect class="cls-2" width="54" height="54"/>
  <rect class="cls-1" y="24" width="54" height="6"/>
  <rect class="cls-1" x="24" width="6" height="54"/>
  <path class="cls-2" d="M42.511,31.491l-2.634-1.805c1.097-.398,2.01-.915,2.445-1.579,.335-.511,.4-1.1,.183-1.659-1.25-3.227-2.974-6.048-5.124-8.385l-.344-.374-.472,.17c-3.578,1.286-6.631,4.836-8.029,6.674-.32-.092-.681-.117-1.037-.117s-.718,.025-1.038,.116c-1.398-1.838-4.45-5.388-8.028-6.673l-.472-.17-.344,.374c-2.149,2.337-3.873,5.158-5.123,8.385-.217,.559-.151,1.148,.183,1.659,.435,.664,1.349,1.181,2.446,1.579l-2.634,1.805-.408,.279,.069,.5,.997,7.228,.188,1.362,1.054-.843c.305-.244,7.479-5.981,8.787-7.116,.358-.311,1.719-1.516,2.779-2.799,.38,.13,.879,.193,1.545,.193s1.164-.062,1.545-.193c1.06,1.283,2.42,2.488,2.779,2.799,1.309,1.135,8.482,6.872,8.787,7.116l1.054,.843,.188-1.362,.997-7.228,.069-.5-.408-.279h0Z"/>
  <path class="cls-1" d="M33.263,30.817c1.091,0,3.541-.229,5.658-.825l3.161,2.167-.997,7.228s-7.452-5.958-8.763-7.096c-.634-.55-1.395-1.27-2.073-2.005,.698,.231,1.535,.44,2.435,.512,.168,.014,.362,.02,.579,.02h0Zm-19.348,8.568s7.452-5.958,8.763-7.096c.634-.55,1.395-1.27,2.073-2.005-.698,.231-1.535,.44-2.435,.512-.168,.014-.362,.02-.579,.02-1.091,0-3.541-.229-5.658-.825l-3.161,2.167,.997,7.228h0Zm14.841-13.648c-.038-.205-.06-.522-1.256-.522s-1.218,.317-1.256,.522l-.476,3.046c-.048,.26,0,.712,1.731,.712s1.779-.452,1.731-.712l-.475-3.046h0Zm13.031,1.008c-.89-2.298-2.397-5.338-4.966-8.132-3.317,1.192-6.225,4.532-7.603,6.324,.143,.164,.25,.373,.3,.652l.002,.01,.002,.011,.474,3.038c.048,.274,.01,.498-.061,.677,.734,.284,1.73,.586,2.81,.673,.149,.012,.323,.018,.518,.018,2.684,0,9.354-1.128,8.524-3.27h0Zm-16.782,1.902l.474-3.038,.005-.026,.002-.009c.048-.273,.154-.48,.295-.64-1.379-1.792-4.285-5.13-7.601-6.321-2.569,2.793-4.076,5.834-4.966,8.132-.83,2.142,5.84,3.27,8.524,3.27,.195,0,.369-.006,.518-.018,1.08-.087,2.077-.389,2.81-.673-.07-.179-.109-.403-.06-.677h0Z"/>
</svg>