<?xml version="1.0" encoding="utf-8"?>
<!-- Generator: Adobe Illustrator 24.3.0, SVG Export Plug-In . SVG Version: 6.00 Build 0)  -->
<svg version="1.1" id="katman_1" xmlns="http://www.w3.org/2000/svg" xmlns:xlink="http://www.w3.org/1999/xlink" x="0px" y="0px"
	 viewBox="0 0 24 24" style="enable-background:new 0 0 24 24;" xml:space="preserve">
<style type="text/css">
	.st0{fill:#010002;}
</style>
<g>
	<path class="st0" d="M19.7,2.6H4.3C3,2.6,2,3.6,2,4.9v14.2c0,1.2,1,2.3,2.3,2.3h15.5c1.2,0,2.3-1,2.3-2.3V4.9
		C22,3.6,21,2.6,19.7,2.6z M14.9,6c1.2,0,2.2,1,2.2,2.2s-1,2.2-2.2,2.2c-1.2,0-2.2-1-2.2-2.2S13.7,6,14.9,6z M19,19.3h-7H5.3
		c-0.6,0-0.9-0.4-0.6-1l3.7-7.4c0.3-0.5,0.8-0.6,1.2-0.1l3.8,4.9c0.4,0.5,1,0.5,1.4,0.1l0.9-0.9c0.4-0.4,1-0.4,1.4,0.1l2.4,3.4
		C19.8,18.9,19.6,19.3,19,19.3z"/>
</g>
</svg>
