<svg xmlns="http://www.w3.org/2000/svg" width="113" height="110" fill="none"><rect width="45.833" height="78.81" x="70.637" y="11.268" fill="#fff" stroke="#757575" stroke-width="2.797" rx="9.167" transform="rotate(25 70.637 11.268)"/><g fill="#4655FF" clip-path="url(#a)"><path d="M84.751 48.175a1.29 1.29 0 0 0-1.365-2.187l-7.159 4.47-.688-3.012a1.289 1.289 0 1 0-2.513.575l1.091 4.776a1.29 1.29 0 0 0 1.94.806z"/><path fill-rule="evenodd" d="M70.836 59.522a3.87 3.87 0 0 0 4.42 2.061l5.208-1.307a11.6 11.6 0 0 0 7.202-5.418l3.152-5.417a3.87 3.87 0 0 0-.684-4.753l-4.746-4.494a8.16 8.16 0 0 0-4.68-2.182l-6.494-.748a3.87 3.87 0 0 0-4.08 2.532l-2.124 5.896a11.6 11.6 0 0 0 .48 9zm3.792-.44a1.29 1.29 0 0 1-1.473-.687l-2.346-4.83a9.02 9.02 0 0 1-.373-7l2.123-5.896a1.29 1.29 0 0 1 1.36-.844l6.494.748a5.6 5.6 0 0 1 3.202 1.493l4.747 4.494a1.29 1.29 0 0 1 .228 1.584l-3.152 5.417a9.02 9.02 0 0 1-5.602 4.214z" clip-rule="evenodd"/></g><path stroke="#fff" stroke-linecap="round" stroke-width="3.437" d="m57.449 61.24 4.154 1.936m3.325 9.137 4.154 1.936M54.544 67.47l4.153 1.937m3.326 9.136 4.154 1.937M51.638 73.7l4.154 1.937"/><rect width="45.833" height="79.121" y="30.497" fill="#fff" stroke="#757575" stroke-width="2.797" rx="9.167" transform="rotate(-25 0 30.497)"/><g fill="#4655FF" clip-path="url(#b)"><path d="M37.321 43.463a1.289 1.289 0 1 0-2.553-.36L33.59 51.46l-2.749-1.409a1.29 1.29 0 1 0-1.175 2.295l4.36 2.234a1.29 1.29 0 0 0 1.864-.968z"/><path fill-rule="evenodd" d="M37.069 61.416a3.87 3.87 0 0 0 4.42-2.06l2.346-4.83a11.6 11.6 0 0 0 .48-9l-2.124-5.897a3.87 3.87 0 0 0-4.08-2.531l-6.495.747a8.16 8.16 0 0 0-4.68 2.182l-4.746 4.494a3.87 3.87 0 0 0-.684 4.753l3.153 5.417a11.6 11.6 0 0 0 7.202 5.418zm2.1-3.187a1.29 1.29 0 0 1-1.473.687l-5.207-1.308a9.02 9.02 0 0 1-5.602-4.213l-3.152-5.417a1.29 1.29 0 0 1 .228-1.585l4.746-4.494a5.6 5.6 0 0 1 3.202-1.493l6.494-.747a1.29 1.29 0 0 1 1.36.844l2.124 5.896a9.02 9.02 0 0 1-.373 7z" clip-rule="evenodd"/></g><defs><clipPath id="a"><path fill="#fff" d="m71.344 31.666 24.923 11.622-11.622 24.923L59.722 56.59z"/></clipPath><clipPath id="b"><path fill="#fff" d="M16.057 43.122 40.98 31.5l11.622 24.924L27.68 68.046z"/></clipPath></defs></svg>