<svg xmlns="http://www.w3.org/2000/svg" width="110" height="110" fill="none"><g clip-path="url(#a)"><rect width="45.833" height="78.81" x="69.636" y="11.268" fill="#3B3B3B" stroke="#949494" stroke-width="2.797" rx="9.167" transform="rotate(25 69.636 11.268)"/><g clip-path="url(#b)"><path fill="#3B3B3B" d="m70.344 31.666 24.923 11.622-11.622 24.923L58.722 56.59z"/><path fill="#99A1FF" d="M83.75 48.175a1.29 1.29 0 0 0-1.364-2.187l-7.159 4.47-.688-3.012a1.289 1.289 0 1 0-2.514.575l1.092 4.776a1.29 1.29 0 0 0 1.94.806z"/><path fill="#99A1FF" fill-rule="evenodd" d="M69.836 59.522a3.87 3.87 0 0 0 4.42 2.061l5.207-1.307a11.6 11.6 0 0 0 7.203-5.418l3.152-5.417a3.87 3.87 0 0 0-.684-4.753l-4.746-4.494a8.16 8.16 0 0 0-4.68-2.182l-6.494-.748a3.87 3.87 0 0 0-4.08 2.532l-2.124 5.896a11.6 11.6 0 0 0 .48 9zm3.792-.44a1.29 1.29 0 0 1-1.474-.687l-2.345-4.83a9.02 9.02 0 0 1-.373-7l2.123-5.896a1.29 1.29 0 0 1 1.36-.844l6.494.748c1.2.138 2.324.662 3.202 1.493l4.747 4.494a1.29 1.29 0 0 1 .228 1.584l-3.153 5.417a9.02 9.02 0 0 1-5.601 4.214z" clip-rule="evenodd"/></g><rect width="45.833" height="79.121" x="-1" y="30.497" fill="#3B3B3B" stroke="#949494" stroke-width="2.797" rx="9.167" transform="rotate(-25 -1 30.497)"/><g fill="#99A1FF" clip-path="url(#c)"><path d="M36.321 43.463a1.289 1.289 0 1 0-2.553-.36L32.59 51.46l-2.749-1.409a1.29 1.29 0 0 0-1.175 2.295l4.36 2.234a1.29 1.29 0 0 0 1.864-.968z"/><path fill-rule="evenodd" d="M36.068 61.416a3.87 3.87 0 0 0 4.42-2.06l2.347-4.83a11.6 11.6 0 0 0 .48-9l-2.124-5.897a3.87 3.87 0 0 0-4.08-2.531l-6.495.747a8.16 8.16 0 0 0-4.68 2.182l-4.746 4.494a3.87 3.87 0 0 0-.684 4.753l3.152 5.417a11.6 11.6 0 0 0 7.203 5.418zm2.102-3.187a1.29 1.29 0 0 1-1.474.687l-5.207-1.308a9.02 9.02 0 0 1-5.602-4.213l-3.152-5.417a1.29 1.29 0 0 1 .227-1.585L27.71 41.9a5.6 5.6 0 0 1 3.202-1.493l6.494-.747a1.29 1.29 0 0 1 1.36.844L40.89 46.4a9.02 9.02 0 0 1-.373 7z" clip-rule="evenodd"/></g></g><defs><clipPath id="a"><path fill="#fff" d="M0 0h110v110H0z"/></clipPath><clipPath id="b"><path fill="#fff" d="m70.344 31.666 24.923 11.622-11.622 24.923L58.722 56.59z"/></clipPath><clipPath id="c"><path fill="#fff" d="M15.057 43.122 39.98 31.5l11.622 24.924L26.68 68.046z"/></clipPath></defs></svg>