<?xml version="1.0" encoding="UTF-8"?><svg id="a" xmlns="http://www.w3.org/2000/svg" viewBox="0 0 138 92"><defs><style>.b{fill:#8f8f8f;fill-rule:evenodd;}.b,.c,.d{stroke-width:0px;}.c{fill:#6b88e8;}.d{fill:#e4e7ff;}</style></defs><path class="d" d="m61.26,29.835h-16.112c-.636,0-1.249.101-1.824.284v16.431c.576.184,1.188.284,1.824.284h16.112c3.314,0,6-2.686,6-6v-5c0-3.314-2.686-6-6-6Z"/><path class="c" d="m95.372,57.835c0-3.314,2.686-6,6-6h23.139c3.314,0,6,2.686,6,6v8c0,3.314-2.686,6-6,6h-23.139c-3.314,0-6-2.686-6-6v-8Z"/><path class="d" d="m34.128,16.835c0-3.314,2.686-6,6-6h36.192c3.314,0,6,2.686,6,6v5c0,3.314-2.686,6-6,6h-36.192c-3.314,0-6-2.686-6-6v-5Z"/><path class="c" d="m18.198,69.902c0-2.761,2.239-5,5-5h9.879c2.762,0,5,2.239,5,5v4.667c0,2.761-2.238,5-5,5h-9.879c-2.761,0-5-2.239-5-5v-4.667Z"/><path class="d" d="m5.681,56.568c0-2.835,2.298-5.133,5.133-5.133h9.612c2.835,0,5.133,2.298,5.133,5.133h0c0,2.835-2.298,5.133-5.133,5.133h-9.612c-2.835,0-5.133-2.298-5.133-5.133h0Z"/><path class="d" d="m5.681,45.102c0-2.835,2.298-5.133,5.133-5.133h15.502c2.835,0,5.133,2.298,5.133,5.133h0c0,2.835-2.298,5.133-5.133,5.133h-15.502c-2.835,0-5.133-2.298-5.133-5.133h0Z"/><path class="b" d="m125,0H38.033c-7.089,0-12.835,5.746-12.835,12.835v10.632h-13.198C5.464,23.467.165,28.765.165,35.302v44.533c0,6.536,5.299,11.835,11.835,11.835h20.495c4.654,0,8.669-2.693,10.602-6.6h81.903c7.089,0,12.835-5.746,12.835-12.835V12.835c0-7.089-5.746-12.835-12.835-12.835ZM40.659,79.835c0,4.509-3.656,8.165-8.165,8.165H12c-4.509,0-8.165-3.656-8.165-8.165v-44.533c0-4.509,3.656-8.165,8.165-8.165h20.495c4.509,0,8.165,3.656,8.165,8.165v44.533Zm93.505-7.6c0,5.062-4.103,9.165-9.165,9.165H44.214c.068-.513.115-1.033.115-1.565v-44.533c0-6.536-5.299-11.835-11.835-11.835h-3.627v-10.632c0-5.062,4.103-9.165,9.165-9.165h86.967c5.062,0,9.165,4.103,9.165,9.165v59.4Z"/></svg>