<svg xmlns="http://www.w3.org/2000/svg" id="a" viewBox="0 0 138 92"><defs><style>.c,.d{stroke-width:0}.c{fill:#6b88e8}.d{fill:#e4e7ff}</style></defs><path d="M61.26 29.835H45.148c-.636 0-1.249.101-1.824.284V46.55a6 6 0 0 0 1.824.284H61.26a6 6 0 0 0 6-6v-5a6 6 0 0 0-6-6Z" class="d"/><path d="M95.372 57.835a6 6 0 0 1 6-6h23.139a6 6 0 0 1 6 6v8a6 6 0 0 1-6 6h-23.139a6 6 0 0 1-6-6z" class="c"/><path d="M34.128 16.835a6 6 0 0 1 6-6H76.32a6 6 0 0 1 6 6v5a6 6 0 0 1-6 6H40.128a6 6 0 0 1-6-6z" class="d"/><path d="M18.198 69.902a5 5 0 0 1 5-5h9.879a5 5 0 0 1 5 5v4.667a5 5 0 0 1-5 5h-9.879a5 5 0 0 1-5-5z" class="c"/><path d="M5.681 56.568a5.133 5.133 0 0 1 5.133-5.133h9.612a5.133 5.133 0 1 1 0 10.266h-9.612a5.133 5.133 0 0 1-5.133-5.133m0-11.466a5.133 5.133 0 0 1 5.133-5.133h15.502a5.133 5.133 0 1 1 0 10.266H10.814a5.133 5.133 0 0 1-5.133-5.133" class="d"/><path d="M125 0H38.033c-7.089 0-12.835 5.746-12.835 12.835v10.632H12C5.464 23.467.165 28.765.165 35.302v44.533C.165 86.371 5.464 91.67 12 91.67h20.495c4.654 0 8.669-2.693 10.602-6.6H125c7.089 0 12.835-5.746 12.835-12.835v-59.4C137.835 5.746 132.089 0 125 0M40.659 79.835A8.166 8.166 0 0 1 32.494 88H12a8.166 8.166 0 0 1-8.165-8.165V35.302A8.166 8.166 0 0 1 12 27.137h20.495a8.166 8.166 0 0 1 8.165 8.165v44.533Zm93.505-7.6a9.165 9.165 0 0 1-9.165 9.165H44.214c.068-.513.115-1.033.115-1.565V35.302c0-6.536-5.299-11.835-11.835-11.835h-3.627V12.835a9.165 9.165 0 0 1 9.165-9.165h86.967a9.165 9.165 0 0 1 9.165 9.165z" style="fill:#8f8f8f;fill-rule:evenodd;stroke-width:0"/></svg>