<svg xmlns="http://www.w3.org/2000/svg" width="44" height="88" fill="none"><g clip-path="url(#a)"><path fill="#B9B9B9" fill-rule="evenodd" d="M36 3H8a5 5 0 0 0-5 5v72a5 5 0 0 0 5 5h28a5 5 0 0 0 5-5V8a5 5 0 0 0-5-5M8 0a8 8 0 0 0-8 8v72a8 8 0 0 0 8 8h28a8 8 0 0 0 8-8V8a8 8 0 0 0-8-8z" clip-rule="evenodd"/><circle cx="22" cy="43" r="14" fill="#2C6BED"/><path fill="#fff" fill-rule="evenodd" d="M21.5 36.167a.625.625 0 0 1 1 0L25 39.5c.309.412.015 1-.5 1h-1.562v.034c0 1.782.012 3.517.57 5.094.54 1.525 1.614 2.952 3.891 4.024a.938.938 0 0 1-.798 1.696c-2.426-1.141-3.823-2.701-4.601-4.445-.778 1.744-2.175 3.304-4.6 4.445a.938.938 0 0 1-.8-1.696c2.278-1.072 3.351-2.499 3.891-4.024.559-1.577.571-3.312.572-5.094V40.5H19.5a.625.625 0 0 1-.5-1z" clip-rule="evenodd"/></g><defs><clipPath id="a"><path fill="#fff" d="M0 0h44v88H0z"/></clipPath></defs></svg>