<svg xmlns="http://www.w3.org/2000/svg" xmlns:xlink="http://www.w3.org/1999/xlink" width="292" height="320"><clipPath id="b"><path d="M.34.31H292v318.95H.34z"/></clipPath><linearGradient id="a" x1="145.79" x2="145.79" y1="-4571.48" y2="-4645.26" gradientTransform="matrix(1 0 0 -1 0 -4326)" gradientUnits="userSpaceOnUse"><stop offset="0" stop-color="#fff" stop-opacity="0"/><stop offset="1" stop-color="#fff"/></linearGradient><linearGradient xlink:href="#a" id="c" x1="146" x2="146" y1="-4571.48" y2="-4646"/><g clip-path="url(#b)"><path fill="#dedede" fill-rule="evenodd" d="M.5 51.93A52 52 0 0 1 52.69 0l187.44.58A52 52 0 0 1 292 52.7l-.93 497.55a52 52 0 0 1-52.19 51.93l-187.44-.57A52 52 0 0 1-.43 549.48z"/><path fill="#fff" fill-rule="evenodd" d="M48.4 11.57a34.67 34.67 0 0 0-34.77 34.6l-1.25 507.29A34.69 34.69 0 0 0 47 588.23l197 .48a34.69 34.69 0 0 0 34.78-34.6l1.25-507.28a34.7 34.7 0 0 0-34.61-34.78z"/><g fill="#dbdbdb"><path fill-rule="evenodd" d="M204.65 111.36H99.48a3 3 0 1 1 0-5.91h105.11a2.93 2.93 0 0 1 3 3 2.88 2.88 0 0 1-2.94 2.91m-43.88 13.78H99.48a3 3 0 1 1 0-5.91h61.23a2.93 2.93 0 0 1 3 3 2.88 2.88 0 0 1-2.94 2.91m43.88 48.51H99.48a3 3 0 1 1 0-5.92h105.11a2.93 2.93 0 0 1 3 3 2.88 2.88 0 0 1-2.94 2.92m-43.88 13.84H99.48a3 3 0 1 1 0-5.92h61.23a2.93 2.93 0 0 1 3 3 2.88 2.88 0 0 1-2.94 2.92M204.65 236H99.48a3 3 0 1 1 0-5.92h105.11a2.93 2.93 0 0 1 3 3 2.88 2.88 0 0 1-2.94 2.92m-43.88 13.77H99.48a3 3 0 1 1 0-5.91h61.23a2.93 2.93 0 0 1 3 2.95 2.88 2.88 0 0 1-2.94 2.96m43.88 48.5H99.48a3 3 0 1 1 0-5.91h105.11a2.93 2.93 0 0 1 3 2.95 2.88 2.88 0 0 1-2.94 2.96"/><path d="M34.51 115.15a22.33 22.33 0 1 1 22.33 22.3 22.31 22.31 0 0 1-22.33-22.3m22.33 84.58a22.3 22.3 0 1 0-22.33-22.3 22.31 22.31 0 0 0 22.33 22.3m0 62.34a22.3 22.3 0 1 0-22.33-22.3 22.31 22.31 0 0 0 22.33 22.3m0 62.35a22.3 22.3 0 1 0-22.33-22.3 22.31 22.31 0 0 0 22.33 22.3m106.83-15.32a2.93 2.93 0 0 0-3-3H99.48a3 3 0 1 0 0 5.91h61.29a2.88 2.88 0 0 0 2.9-2.91"/></g><path fill="url(#a)" d="M.24 245.48h291.09v73.78H.24z"/><path fill="#dbdbdb" d="M56.25 74.76a13 13 0 1 0-13-13 13 13 0 0 0 13 13"/></g><path fill="#dedede" fill-rule="evenodd" d="M292 320V52.7A52 52 0 0 0 240.13.58L52.69 0A52 52 0 0 0 .5 51.93L0 320z"/><path fill="#fff" fill-rule="evenodd" d="m279.37 320 .68-273.17a34.7 34.7 0 0 0-34.61-34.78L219.08 12l-143.51-.37-27.17-.06a34.67 34.67 0 0 0-34.77 34.6L13 320z"/><path fill="#dbdbdb" d="M34.51 115.89a22.33 22.33 0 1 1 22.33 22.3 22.32 22.32 0 0 1-22.33-22.3M56.25 75.5a13 13 0 1 0-13-13 13 13 0 0 0 13 13m151.3 33.65a2.93 2.93 0 0 0-3-3H99.48a3 3 0 1 0 0 5.92h105.17a2.88 2.88 0 0 0 2.9-2.92m-43.88 13.78a2.93 2.93 0 0 0-3-3H99.48a3 3 0 1 0 0 5.92h61.29a2.88 2.88 0 0 0 2.9-2.92M56.84 200.47a22.3 22.3 0 1 0-22.33-22.29 22.3 22.3 0 0 0 22.33 22.29m150.71-29a2.93 2.93 0 0 0-3-3H99.48a3 3 0 1 0 0 5.92h105.17a2.88 2.88 0 0 0 2.9-2.96zm-43.88 13.84a2.93 2.93 0 0 0-3-3H99.48a3 3 0 1 0 0 5.92h61.29a2.88 2.88 0 0 0 2.9-2.96zM56.84 262.82a22.3 22.3 0 1 0-22.33-22.3 22.31 22.31 0 0 0 22.33 22.3m150.71-29a2.93 2.93 0 0 0-3-3H99.48a3 3 0 1 0 0 5.91h105.17a2.88 2.88 0 0 0 2.9-2.96zm-43.88 13.79a2.93 2.93 0 0 0-3-3H99.48a3 3 0 1 0 0 5.91h61.29a2.88 2.88 0 0 0 2.9-2.96zm43.88 48.5a2.93 2.93 0 0 0-3-3H99.48a3 3 0 1 0 0 5.92h105.17a2.88 2.88 0 0 0 2.9-2.97zm-43.88 13.78a2.93 2.93 0 0 0-3-3H99.48a3 3 0 1 0 0 5.92h61.29a2.88 2.88 0 0 0 2.9-2.97zM42.63 320h28.42a22.33 22.33 0 1 0-28.42 0"/><path fill="url(#c)" d="M0 245.48h292V320H0z"/><path fill="#2c6bed" d="M56.25 95.08a33.36 33.36 0 1 1 33.36-33.36 33.4 33.4 0 0 1-33.36 33.36m0-60.72a27.36 27.36 0 1 0 27.36 27.36 27.4 27.4 0 0 0-27.36-27.36"/></svg>