<svg height="320" viewBox="0 0 292 320" width="292" xmlns="http://www.w3.org/2000/svg" xmlns:xlink="http://www.w3.org/1999/xlink"><linearGradient id="a" gradientTransform="matrix(1 0 0 -1 0 -4326)" gradientUnits="userSpaceOnUse" x1="146" x2="146" y1="-4571.26" y2="-4645.78"><stop offset="0" stop-opacity="0"/><stop offset="1" stop-color="#2e2e2e"/></linearGradient><path d="m292 319.78v-267.29a52 52 0 0 0 -51.87-52.13l-187.44-.58a52 52 0 0 0 -52.19 51.94l-.5 268.06z" fill="#5e5e5e" fill-rule="evenodd"/><path d="m279.37 319.78.68-273.17a34.7 34.7 0 0 0 -34.61-34.78l-26.36-.06-143.51-.35-27.17-.07a34.67 34.67 0 0 0 -34.77 34.65l-.63 273.78z" fill="#121212" fill-rule="evenodd"/><path d="m34.51 115.67a22.33 22.33 0 1 1 22.33 22.33 22.32 22.32 0 0 1 -22.33-22.33zm21.74-40.39a13 13 0 1 0 -13-13 13 13 0 0 0 13 13zm151.3 33.65a2.93 2.93 0 0 0 -3-3h-105.07a3 3 0 1 0 0 5.92h105.17a2.88 2.88 0 0 0 2.9-2.92zm-43.88 13.78a2.93 2.93 0 0 0 -3-3h-61.19a3 3 0 1 0 0 5.92h61.29a2.88 2.88 0 0 0 2.9-2.92zm-106.83 77.54a22.3 22.3 0 1 0 -22.33-22.25 22.3 22.3 0 0 0 22.33 22.25zm150.71-29a2.93 2.93 0 0 0 -3-3h-105.07a3 3 0 1 0 0 5.92h105.17a2.88 2.88 0 0 0 2.9-2.96zm-43.88 13.84a2.93 2.93 0 0 0 -3-3h-61.19a3 3 0 1 0 0 5.91h61.29a2.88 2.88 0 0 0 2.9-2.95zm-106.83 77.51a22.3 22.3 0 1 0 -22.33-22.3 22.31 22.31 0 0 0 22.33 22.3zm150.71-29.05a2.93 2.93 0 0 0 -3-3h-105.07a3 3 0 1 0 0 5.91h105.17a2.88 2.88 0 0 0 2.9-2.91zm-43.88 13.79a2.93 2.93 0 0 0 -3-3h-61.19a3 3 0 1 0 0 5.91h61.29a2.88 2.88 0 0 0 2.9-2.91zm43.88 48.5a2.93 2.93 0 0 0 -3-3h-105.07a3 3 0 1 0 0 5.92h105.17a2.88 2.88 0 0 0 2.9-2.92zm-43.88 13.78a2.93 2.93 0 0 0 -3-3h-61.19a3 3 0 1 0 0 5.92h61.29a2.88 2.88 0 0 0 2.9-2.92zm-121 10.16h28.38a22.33 22.33 0 1 0 -28.42 0z" fill="#5e5e5e"/><path d="m0 245.26h292v74.52h-292z" fill="url(#a)"/><path d="m56.25 94.87a33.37 33.37 0 1 1 33.36-33.37 33.41 33.41 0 0 1 -33.36 33.37zm0-60.73a27.37 27.37 0 1 0 27.36 27.36 27.4 27.4 0 0 0 -27.36-27.36z" fill="#6191f3"/></svg>