<svg height="320" viewBox="0 0 292 320" width="292" xmlns="http://www.w3.org/2000/svg" xmlns:xlink="http://www.w3.org/1999/xlink"><clipPath id="a"><path d="m.34.31h291.66v318.95h-291.66z"/></clipPath><linearGradient id="b" gradientTransform="matrix(1 0 0 -1 0 -4326)" gradientUnits="userSpaceOnUse" x1="145.79" x2="145.79" y1="-4571.48" y2="-4645.26"><stop offset="0" stop-color="#fff" stop-opacity="0"/><stop offset="1" stop-color="#fff"/></linearGradient><linearGradient id="c" x1="146" x2="146" xlink:href="#b" y1="-4571.48" y2="-4646"/><g clip-path="url(#a)"><path d="m.5 51.93a52 52 0 0 1 52.19-51.93l187.44.58a52 52 0 0 1 51.87 52.12l-.93 497.55a52 52 0 0 1 -52.19 51.93l-187.44-.57a52 52 0 0 1 -51.87-52.13z" fill="#dedede" fill-rule="evenodd"/><path d="m48.4 11.57a34.67 34.67 0 0 0 -34.77 34.6l-1.25 507.29a34.69 34.69 0 0 0 34.62 34.77l197 .48a34.69 34.69 0 0 0 34.78-34.6l1.25-507.28a34.7 34.7 0 0 0 -34.61-34.78z" fill="#fff" fill-rule="evenodd"/><g fill="#dbdbdb"><path d="m204.65 111.36h-105.17a3 3 0 1 1 0-5.91h105.11a2.93 2.93 0 0 1 3 3 2.88 2.88 0 0 1 -2.94 2.91z" fill-rule="evenodd"/><path d="m160.77 125.14h-61.29a3 3 0 1 1 0-5.91h61.23a2.93 2.93 0 0 1 3 3 2.88 2.88 0 0 1 -2.94 2.91z" fill-rule="evenodd"/><path d="m204.65 173.65h-105.17a3 3 0 1 1 0-5.92h105.11a2.93 2.93 0 0 1 3 3 2.88 2.88 0 0 1 -2.94 2.92z" fill-rule="evenodd"/><path d="m160.77 187.49h-61.29a3 3 0 1 1 0-5.92h61.23a2.93 2.93 0 0 1 3 3 2.88 2.88 0 0 1 -2.94 2.92z" fill-rule="evenodd"/><path d="m204.65 236h-105.17a3 3 0 1 1 0-5.92h105.11a2.93 2.93 0 0 1 3 3 2.88 2.88 0 0 1 -2.94 2.92z" fill-rule="evenodd"/><path d="m160.77 249.77h-61.29a3 3 0 1 1 0-5.91h61.23a2.93 2.93 0 0 1 3 2.95 2.88 2.88 0 0 1 -2.94 2.96z" fill-rule="evenodd"/><path d="m204.65 298.27h-105.17a3 3 0 1 1 0-5.91h105.11a2.93 2.93 0 0 1 3 2.95 2.88 2.88 0 0 1 -2.94 2.96z" fill-rule="evenodd"/><path d="m34.51 115.15a22.33 22.33 0 1 1 22.33 22.3 22.31 22.31 0 0 1 -22.33-22.3z"/><path d="m56.84 199.73a22.3 22.3 0 1 0 -22.33-22.3 22.31 22.31 0 0 0 22.33 22.3z"/><path d="m56.84 262.07a22.3 22.3 0 1 0 -22.33-22.3 22.31 22.31 0 0 0 22.33 22.3z"/><path d="m56.84 324.42a22.3 22.3 0 1 0 -22.33-22.3 22.31 22.31 0 0 0 22.33 22.3z"/><path d="m163.67 309.1a2.93 2.93 0 0 0 -3-3h-61.19a3 3 0 1 0 0 5.91h61.29a2.88 2.88 0 0 0 2.9-2.91z"/></g><path d="m.24 245.48h291.09v73.78h-291.09z" fill="url(#b)"/><path d="m56.25 74.76a13 13 0 1 0 -13-13 13 13 0 0 0 13 13z" fill="#dbdbdb"/></g><path d="m292 320v-267.3a52 52 0 0 0 -51.87-52.12l-187.44-.58a52 52 0 0 0 -52.19 51.93l-.5 268.07z" fill="#dedede" fill-rule="evenodd"/><path d="m279.37 320 .68-273.17a34.7 34.7 0 0 0 -34.61-34.78l-26.36-.05-143.51-.37-27.17-.06a34.67 34.67 0 0 0 -34.77 34.6l-.63 273.83z" fill="#fff" fill-rule="evenodd"/><path d="m34.51 115.89a22.33 22.33 0 1 1 22.33 22.3 22.32 22.32 0 0 1 -22.33-22.3zm21.74-40.39a13 13 0 1 0 -13-13 13 13 0 0 0 13 13zm151.3 33.65a2.93 2.93 0 0 0 -3-3h-105.07a3 3 0 1 0 0 5.92h105.17a2.88 2.88 0 0 0 2.9-2.92zm-43.88 13.78a2.93 2.93 0 0 0 -3-3h-61.19a3 3 0 1 0 0 5.92h61.29a2.88 2.88 0 0 0 2.9-2.92zm-106.83 77.54a22.3 22.3 0 1 0 -22.33-22.29 22.3 22.3 0 0 0 22.33 22.29zm150.71-29a2.93 2.93 0 0 0 -3-3h-105.07a3 3 0 1 0 0 5.92h105.17a2.88 2.88 0 0 0 2.9-2.96zm-43.88 13.84a2.93 2.93 0 0 0 -3-3h-61.19a3 3 0 1 0 0 5.92h61.29a2.88 2.88 0 0 0 2.9-2.96zm-106.83 77.51a22.3 22.3 0 1 0 -22.33-22.3 22.31 22.31 0 0 0 22.33 22.3zm150.71-29a2.93 2.93 0 0 0 -3-3h-105.07a3 3 0 1 0 0 5.91h105.17a2.88 2.88 0 0 0 2.9-2.96zm-43.88 13.79a2.93 2.93 0 0 0 -3-3h-61.19a3 3 0 1 0 0 5.91h61.29a2.88 2.88 0 0 0 2.9-2.96zm43.88 48.5a2.93 2.93 0 0 0 -3-3h-105.07a3 3 0 1 0 0 5.92h105.17a2.88 2.88 0 0 0 2.9-2.97zm-43.88 13.78a2.93 2.93 0 0 0 -3-3h-61.19a3 3 0 1 0 0 5.92h61.29a2.88 2.88 0 0 0 2.9-2.97zm-121.04 10.11h28.42a22.33 22.33 0 1 0 -28.42 0z" fill="#dbdbdb"/><path d="m0 245.48h292v74.52h-292z" fill="url(#c)"/><path d="m56.25 95.08a33.36 33.36 0 1 1 33.36-33.36 33.4 33.4 0 0 1 -33.36 33.36zm0-60.72a27.36 27.36 0 1 0 27.36 27.36 27.4 27.4 0 0 0 -27.36-27.36z" fill="#2c6bed"/></svg>