<svg width="138" height="138" fill="none" xmlns="http://www.w3.org/2000/svg"><path d="M8.031 132.9c2.448 2.652 12.528-1.973 20.485-5.681 5.962-2.771 29.82-12.561 41.68-17.639 3.202-1.369 7.86-3.158 11.213-7.568 2.975-3.924 10.867-20.592-5.025-37.476-16.128-17.142-32.742-12.409-38.952-8.01-3.655 2.587-6.63 8.42-7.968 11.385-5.649 12.528-13.702 35.481-16.98 44.505-2.404 6.652-6.878 17.854-4.453 20.484z" fill="#FFC107"/><path d="M27.869 71.685c.15 1.876.528 4.927 1.822 10.802.884 4.033 2.329 8.259 3.504 11.051 3.525 8.399 8.474 11.784 13.487 14.501 8.517 4.614 14.307 5.477 14.307 5.477l-6.943 2.835s-4.205-.873-9.94-3.698c-5.467-2.695-11.16-7.255-15.32-16.182-1.801-3.87-2.847-7.623-3.45-10.598-.745-3.688-.863-5.78-.863-5.78l3.396-8.408zM19.34 93.549s.863 6.997 6.642 15.827c6.77 10.328 16.226 12.021 16.226 12.021l-6.286 2.587s-7.018-2.145-13.692-11.255c-4.161-5.682-5.326-12.474-5.326-12.474l2.437-6.706zM13.358 110.13s1.574 6.038 5.024 10.544c4.108 5.38 9.336 6.944 9.336 6.944l-4.819 2.134s-3.655-.765-7.654-5.832c-3.04-3.849-3.903-8.27-3.903-8.27l2.016-5.52z" fill="#FF8F00"/><path d="M10.737 125.461a1.8 1.8 0 01.01-1.509l27.46-56.947 4.517 16.98-28.893 41.735c-.776 1.164-2.523 1.013-3.094-.259z" fill="#FFFDE7" opacity=".44"/><path d="M44.904 89.69c12.83 15.007 27.438 13.131 32.3 9.336 4.874-3.806 8.723-16.884-4.053-31.643-13.39-15.46-28.549-11.051-32.053-7.709-3.504 3.342-7.967 16.248 3.806 30.015z" fill="url(#prefix__paint0_linear_1067_3048)"/><path d="M88.967 95.867c-4.679-3.925-7.17-3.224-10.512-1.833-4.312 1.79-11.093 3.116-20.3 0l2.77-6.674c5.466 1.844 9.423.95 12.84-1.067 4.4-2.587 10.415-6.134 19.773 1.725 3.903 3.278 7.903 5.455 10.836 4.463 2.134-.711 3.266-3.891 3.838-6.425.054-.227.14-.873.204-1.445.518-3.957 1.38-12.495 7.741-16.862 6.803-4.668 13.951-4.668 13.951-4.668l1.294 12.851c-3.288-.485-5.574.184-7.504 1.25-7.266 4.044-.938 19.569-12.247 24.787-10.878 5.056-19.773-3.666-22.684-6.102z" fill="#03A9F4"/><path d="M48.947 79.48l-4.68-4.195c8.593-9.595 6.33-16.646 4.68-21.778-.334-1.035-.647-2.016-.852-2.954-.733-3.32-.884-6.21-.658-8.732-3.299-4.108-4.754-8.41-4.851-8.701-2.005-6.07-.496-11.989 2.965-17.541C52.548 4.312 65.216 4.312 65.216 4.312l4.226 11.31c-3.213-.13-13.746.032-16.98 5.132-4.087 6.425-1.402 10.393-1.208 10.846a18.208 18.208 0 012.296-2.48c5.165-4.582 9.65-5.24 12.507-4.98 3.212.29 6.123 1.907 8.204 4.56 2.275 2.91 3.213 6.695 2.49 10.134-.7 3.353-2.932 6.188-6.285 7.989-5.854 3.148-10.727 2.717-13.994 1.628.022.075.032.162.054.237.119.54.356 1.294.636 2.167 1.908 5.908 5.455 15.288-8.215 28.624zm7.924-40.463c.625.453 1.283.83 1.962 1.1 2.264.906 4.733.604 7.536-.906 1.65-.884 1.844-1.832 1.909-2.145.194-.938-.13-2.135-.83-3.03-.615-.787-1.327-1.196-2.178-1.283-1.618-.14-3.806.885-5.995 2.836-1.045.938-1.843 2.092-2.404 3.428z" fill="#F44336"/><path d="M67.674 81.237l-6.696-.183s3.181-17.962 13.477-20.98c1.93-.561 4.043-1.133 6.167-1.445 1.261-.195 3.256-.486 4.237-.852.226-1.693-.485-3.85-1.283-6.297-.625-1.897-1.272-3.848-1.617-5.983-.669-4.162.442-7.838 3.126-10.372 3.278-3.072 8.572-4.053 14.544-2.695 3.407.776 5.919 2.447 8.129 3.914 3.159 2.102 5.003 3.17 8.863.571 4.668-3.148-1.434-15.471-4.68-22.587l12.108-5.045c1.628 3.558 9.487 21.864 4.302 32.311-1.747 3.515-4.755 5.844-8.701 6.717-8.582 1.919-13.606-1.423-17.271-3.86-1.736-1.153-3.256-2.06-4.906-2.533-11.46-3.267 4.539 13.595-2.954 21.174C90.023 67.63 79.037 68.828 78.325 69c-7.072 1.704-10.651 12.237-10.651 12.237z" fill="#F48FB1"/><path d="M47.426 41.82c-.205 2.372-.302 3.785.313 6.868 2.965 2.178 9.422 2.178 9.422 2.178-.28-.873-.528-1.628-.636-2.167-.021-.076-.032-.162-.054-.237-6.565-3.278-9.045-6.642-9.045-6.642z" fill="#C92B27"/><path d="M33.993 52.44l-11.147-5.466 5.552-8.021 8.744 5.79-3.149 7.697z" fill="#FFC107"/><path d="M17.563 37.303c-5.693-.766-11.493-5.596-12.13-6.145l5.596-6.566c1.693 1.434 5.283 3.838 7.687 4.161l-1.154 8.55z" fill="#FB8C00"/><path d="M27.61 22.932l-8.194-2.685a19.072 19.072 0 00.7-8.948l8.518-1.37c.7 4.335.345 8.83-1.024 13.003z" fill="#03A9F4"/><path d="M87.207 14.68l-8.426 1.843 2.433 11.122L89.64 25.8 87.207 14.68z" fill="#FB8C00"/><path d="M99.684 19.158l-5.93-6.264c3.105-2.943 3.816-6.792 3.816-6.835l8.518 1.39c-.108.68-1.197 6.782-6.404 11.71z" fill="#FFC107"/><path d="M110.511 50.022l-7.532 2.355 2.572 8.232 7.533-2.354-2.573-8.233z" fill="#FB8C00"/><path d="M105.171 121.861l-8.571-1.014c.367-3.051-1.908-6.792-2.534-7.622l6.9-5.175c.518.679 5.014 6.9 4.205 13.811z" fill="#F44336"/><path d="M129.773 110.928a52.988 52.988 0 00-9.779-.56l-.291-8.625c3.784-.13 7.612.086 11.353.658l-1.283 8.527z" fill="#FB8C00"/><path d="M124.238 116.663l-6.06 6.138 8.339 8.234 6.06-6.138-8.339-8.234z" fill="#F48FB1"/><path d="M106.604 75.404l-6.231-7.125-7.125 6.231 6.231 7.125 7.125-6.231z" fill="#F44336"/><defs><linearGradient id="prefix__paint0_linear_1067_3048" x1="80.196" y1="66.67" x2="48.103" y2="85.925" gradientUnits="userSpaceOnUse"><stop offset=".024" stop-color="#8F4700"/><stop offset="1" stop-color="#703E2D"/></linearGradient></defs></svg>
