<svg xmlns="http://www.w3.org/2000/svg" width="97" height="26" fill="none" viewBox="0 0 97 26"><g clip-path="url(#a)"><path fill="#253b80" d="M36.045 5.317H30.71a.744.744 0 0 0-.732.632L27.82 19.766a.447.447 0 0 0 .44.519h2.547a.744.744 0 0 0 .732-.633l.582-3.727a.74.74 0 0 1 .732-.632h1.688c3.514 0 5.542-1.718 6.072-5.121.239-1.49.01-2.66-.68-3.479-.758-.9-2.103-1.376-3.888-1.376m.615 5.047c-.292 1.933-1.754 1.933-3.168 1.933h-.805l.564-3.61a.446.446 0 0 1 .44-.38h.368c.964 0 1.873 0 2.342.555.28.331.366.823.259 1.502m15.33-.063h-2.554a.446.446 0 0 0-.44.38l-.113.72-.178-.26c-.553-.811-1.786-1.082-3.017-1.082-2.823 0-5.234 2.16-5.704 5.189-.244 1.51.103 2.956.952 3.963.778.927 1.892 1.313 3.218 1.313 2.274 0 3.535-1.477 3.535-1.477l-.114.717a.448.448 0 0 0 .439.52h2.3a.74.74 0 0 0 .733-.633l1.38-8.831a.446.446 0 0 0-.437-.519m-3.56 5.022c-.247 1.474-1.405 2.464-2.883 2.464-.741 0-1.334-.24-1.715-.696-.377-.452-.52-1.096-.4-1.813.23-1.461 1.407-2.483 2.862-2.483.725 0 1.315.243 1.703.703.39.464.544 1.111.432 1.825m17.166-5.021h-2.567a.74.74 0 0 0-.614.328l-3.54 5.268-1.501-5.062a.74.74 0 0 0-.712-.534H54.14a.45.45 0 0 0-.422.594l2.828 8.381-2.659 3.79a.45.45 0 0 0 .363.71h2.564c.243 0 .47-.12.609-.322l8.538-12.448a.45.45 0 0 0-.365-.705"/><path fill="#179bd7" d="M74.094 5.317h-5.335a.74.74 0 0 0-.732.632l-2.158 13.817a.447.447 0 0 0 .439.519h2.738a.52.52 0 0 0 .511-.443l.613-3.917a.74.74 0 0 1 .731-.632h1.688c3.515 0 5.542-1.718 6.072-5.121.24-1.49.01-2.66-.68-3.479-.758-.9-2.102-1.376-3.887-1.376m.615 5.047c-.29 1.933-1.753 1.933-3.168 1.933h-.804l.565-3.61a.444.444 0 0 1 .438-.38h.37c.962 0 1.871 0 2.341.555.28.331.365.823.258 1.502m15.33-.063h-2.553a.444.444 0 0 0-.439.38l-.113.72-.18-.26c-.552-.811-1.785-1.082-3.016-1.082-2.822 0-5.233 2.16-5.702 5.189-.243 1.51.102 2.956.95 3.963.78.927 1.893 1.313 3.218 1.313 2.275 0 3.536-1.477 3.536-1.477l-.114.717a.448.448 0 0 0 .44.52h2.3a.74.74 0 0 0 .732-.633l1.381-8.831a.448.448 0 0 0-.44-.519m-3.561 5.022c-.245 1.474-1.405 2.464-2.882 2.464-.74 0-1.335-.24-1.716-.696-.377-.452-.519-1.096-.4-1.813.231-1.461 1.407-2.483 2.862-2.483.726 0 1.315.243 1.704.703.39.464.545 1.111.432 1.825m6.572-9.627-2.19 14.07a.447.447 0 0 0 .439.519H93.5a.74.74 0 0 0 .733-.633l2.159-13.816a.447.447 0 0 0-.439-.52h-2.465a.45.45 0 0 0-.438.38"/><path fill="#253b80" d="m5.667 22.97.408-2.618-.908-.02H.827L3.844 1.017a.26.26 0 0 1 .084-.151.25.25 0 0 1 .161-.06h7.316c2.43 0 4.105.51 4.98 1.518.411.473.672.967.799 1.51.132.57.135 1.252.005 2.083l-.01.061v.533l.411.234q.517.278.83.64c.352.404.579.918.675 1.527.099.626.066 1.372-.096 2.216-.187.97-.49 1.816-.899 2.508a5.1 5.1 0 0 1-1.423 1.575 5.8 5.8 0 0 1-1.918.874c-.706.186-1.512.28-2.396.28h-.57a1.716 1.716 0 0 0-1.693 1.46l-.043.235-.72 4.613-.033.17c-.009.053-.023.08-.045.098a.12.12 0 0 1-.075.028z"/><path fill="#179bd7" d="M17.977 6.041q-.032.211-.074.433c-.965 5.004-4.266 6.733-8.482 6.733H7.274c-.515 0-.95.378-1.03.892l-1.1 7.04-.31 1.996a.553.553 0 0 0 .542.641h3.807a.92.92 0 0 0 .905-.78l.037-.195.717-4.595.046-.252a.92.92 0 0 1 .905-.782h.57c3.688 0 6.575-1.513 7.42-5.89.352-1.829.17-3.356-.764-4.43a3.6 3.6 0 0 0-1.042-.811"/><path fill="#222d65" d="M16.968 5.634a8 8 0 0 0-.938-.21 12 12 0 0 0-1.893-.14H8.404a.92.92 0 0 0-.904.782l-1.22 7.805-.035.227c.08-.514.515-.892 1.03-.892h2.147c4.216 0 7.517-1.73 8.482-6.732q.042-.222.074-.433a5 5 0 0 0-1.009-.407"/><path fill="#253b80" d="M7.499 6.066a.92.92 0 0 1 .904-.78h5.734c.68 0 1.314.044 1.893.139q.248.04.483.092a8 8 0 0 1 .672.186q.428.143.793.338c.287-1.85-.002-3.109-.992-4.249C15.895.537 13.926 0 11.406 0H4.088a1.05 1.05 0 0 0-1.034.893L.008 20.404a.633.633 0 0 0 .62.735h4.517l1.134-7.268z"/></g><defs><clipPath id="a"><path fill="#fff" d="M0 0h96.72v26H0z"/></clipPath></defs></svg>