<svg xmlns="http://www.w3.org/2000/svg" width="40" height="40" fill="none"><g clip-path="url(#a)"><path fill="#F3D48F" d="M12.758 7.518a3.52 3.52 0 0 0-5.29-.36l-.755.756C4.296 10.33 3.092 13.806 4.2 17.04a33.3 33.3 0 0 0 7.985 12.776A33.3 33.3 0 0 0 24.961 37.8c3.233 1.108 6.709-.096 9.125-2.512l.755-.756a3.52 3.52 0 0 0-.359-5.29l-4.948-3.761a3.52 3.52 0 0 0-4.618.313l-2.155 2.154c-.687.688-3.194-.705-5.599-3.11s-3.798-4.912-3.11-5.6l2.154-2.154a3.52 3.52 0 0 0 .313-4.618z" style="fill:#f3d48f;fill:color(display-p3 .9527 .8304 .5627);fill-opacity:1"/><path fill="#DBB96E" fill-rule="evenodd" d="M16.539 16.705a3.48 3.48 0 0 0 .086-4.316L12.91 7.5a3.477 3.477 0 0 0-5.001-.56c.181 4.945 3.856 8.998 8.63 9.764m8.087 9.14.293-.292a3.476 3.476 0 0 1 4.561-.31l4.888 3.716a3.48 3.48 0 0 1 1.108 4.102q-.502.05-1.02.05c-4.628 0-8.542-3.059-9.83-7.265" clip-rule="evenodd" style="fill:#dbb96e;fill:color(display-p3 .8588 .7255 .4314);fill-opacity:1"/><path fill="#000" fill-rule="evenodd" d="m5.452 6.654.755-.756a5.302 5.302 0 0 1 7.97.541l3.762 4.949a5.3 5.3 0 0 1-.473 6.957l-1.7 1.7q.08.192.24.483c.462.832 1.297 1.93 2.417 3.05s2.217 1.954 3.049 2.416q.291.16.483.24l1.7-1.7a5.3 5.3 0 0 1 6.957-.473l4.949 3.761a5.302 5.302 0 0 1 .54 7.97l-.755.756c-2.774 2.775-6.937 4.319-10.963 2.939a35.1 35.1 0 0 1-13.458-8.412 35.1 35.1 0 0 1-8.412-13.458c-1.38-4.026.164-8.189 2.939-10.963m2.016.505a3.52 3.52 0 0 1 5.29.359l3.761 4.948a3.52 3.52 0 0 1-.313 4.618l-2.154 2.155c-.688.687.705 3.194 3.11 5.599s4.912 3.798 5.6 3.11l2.154-2.154a3.52 3.52 0 0 1 4.618-.313l4.948 3.76a3.52 3.52 0 0 1 .36 5.291l-.756.756c-2.416 2.416-5.892 3.62-9.125 2.512a33.3 33.3 0 0 1-12.776-7.985A33.3 33.3 0 0 1 4.2 17.039c-1.108-3.233.096-6.709 2.513-9.125z" clip-rule="evenodd" style="fill:#000;fill-opacity:1"/><path fill="#D9D9D9" fill-rule="evenodd" d="M28.742.78a4.457 4.457 0 0 0-4.457 4.456V7.02h2.674V5.236a1.783 1.783 0 1 1 3.565 0V7.02h2.674V5.236A4.457 4.457 0 0 0 28.742.78" clip-rule="evenodd" style="fill:#d9d9d9;fill:color(display-p3 .851 .851 .851);fill-opacity:1"/><path fill="#000" fill-rule="evenodd" d="M28.742 1.56a3.677 3.677 0 0 0-3.677 3.676V7.91h-1.56V5.236a5.236 5.236 0 1 1 10.473 0V7.91h-1.56V5.236a3.677 3.677 0 0 0-3.676-3.676" clip-rule="evenodd" style="fill:#000;fill-opacity:1"/><path fill="#000" fill-rule="evenodd" d="M28.742 4.234c-.554 0-1.003.449-1.003 1.002V7.02h-1.56V5.236a2.563 2.563 0 0 1 5.125 0V7.02h-1.56V5.236c0-.553-.448-1.002-1.002-1.002" clip-rule="evenodd" style="fill:#000;fill-opacity:1"/><path fill="#D3D3D3" d="M23.84 9.693c0-.984.798-1.783 1.782-1.783h6.24c.984 0 1.782.799 1.782 1.783v5.348c0 .984-.798 1.782-1.783 1.782h-6.239a1.783 1.783 0 0 1-1.782-1.782z" style="fill:#d3d3d3;fill:color(display-p3 .8276 .8276 .8276);fill-opacity:1"/><path fill="#000" fill-rule="evenodd" d="M25.622 6.395h6.24a3.3 3.3 0 0 1 3.297 3.298v5.348a3.3 3.3 0 0 1-3.298 3.298h-6.239a3.3 3.3 0 0 1-3.298-3.298V9.693a3.3 3.3 0 0 1 3.298-3.298m0 1.515c-.984 0-1.782.799-1.782 1.783v5.348c0 .984.798 1.782 1.782 1.782h6.24c.984 0 1.782-.798 1.782-1.782V9.693c0-.984-.798-1.783-1.783-1.783z" clip-rule="evenodd" style="fill:#000;fill-opacity:1"/></g><defs><clipPath id="a"><path fill="#fff" d="M0 0h40v40H0z" style="fill:#fff;fill-opacity:1"/></clipPath></defs></svg>