<svg xmlns="http://www.w3.org/2000/svg" width="40" height="40" fill="none"><path fill="#F3D48F" d="M12.296 7.032a3.673 3.673 0 0 0-5.52-.375l-.79.789c-2.521 2.521-3.778 6.149-2.622 9.523a34.75 34.75 0 0 0 8.334 13.333 34.75 34.75 0 0 0 13.334 8.334c3.373 1.156 7-.101 9.522-2.623l.789-.788a3.673 3.673 0 0 0-.375-5.521l-5.164-3.925a3.67 3.67 0 0 0-4.82.327l-2.248 2.248c-.717.717-3.334-.736-5.844-3.246s-3.963-5.127-3.246-5.844l2.248-2.248a3.67 3.67 0 0 0 .327-4.82z" style="fill:#f3d48f;fill:color(display-p3 .9527 .8304 .5627);fill-opacity:1"/><path fill="#F8E3B5" fill-rule="evenodd" d="M16.242 16.62a3.63 3.63 0 0 0 .09-4.505l-3.877-5.101a3.63 3.63 0 0 0-5.22-.585c.19 5.161 4.025 9.391 9.007 10.19m8.44 9.54.306-.306a3.63 3.63 0 0 1 4.76-.323l5.101 3.877a3.63 3.63 0 0 1 1.157 4.281q-.526.053-1.065.053c-4.83 0-8.915-3.193-10.26-7.582" clip-rule="evenodd" style="fill:#f8e3b5;fill:color(display-p3 .973 .8908 .7105);fill-opacity:1"/><path fill="#A48338" fill-rule="evenodd" d="M11.556 7.595a2.743 2.743 0 0 0-4.123-.28l-.789.788c-2.334 2.335-3.414 5.604-2.4 8.564a33.8 33.8 0 0 0 8.112 12.977 33.8 33.8 0 0 0 12.977 8.112c2.96 1.014 6.229-.066 8.564-2.4l.788-.789a2.743 2.743 0 0 0-.28-4.123l-5.164-3.925a2.74 2.74 0 0 0-3.6.244l-2.247 2.249c-.514.513-1.215.497-1.698.404-.52-.101-1.09-.345-1.661-.662-1.153-.64-2.502-1.69-3.8-2.989s-2.349-2.647-2.99-3.8c-.316-.57-.56-1.14-.66-1.661-.094-.483-.11-1.184.403-1.697l2.249-2.249a2.74 2.74 0 0 0 .244-3.599zM6.117 5.999a4.603 4.603 0 0 1 6.92.47l3.925 5.164a4.6 4.6 0 0 1-.41 6.04l-2.158 2.159q.003.042.017.118c.048.25.19.625.461 1.112.535.962 1.466 2.176 2.678 3.388s2.426 2.143 3.388 2.678c.487.27.863.413 1.112.461q.076.015.118.017l2.158-2.158a4.6 4.6 0 0 1 6.04-.41l5.165 3.925a4.603 4.603 0 0 1 .47 6.92l-.789.788c-2.709 2.709-6.694 4.143-10.482 2.845a35.7 35.7 0 0 1-13.69-8.556 35.7 35.7 0 0 1-8.556-13.69C1.186 13.482 2.62 9.496 5.33 6.788zm16.114 21.607-.01.001zm-7.837-7.837-.001.01z" clip-rule="evenodd" style="fill:#a48338;fill:color(display-p3 .6444 .5137 .2203);fill-opacity:1"/><path fill="#D3D3D3" fill-rule="evenodd" d="M24.636 4.61c0-2.546 1.944-4.61 4.341-4.61s4.341 2.064 4.341 4.61v2.1c.42.245.762.619.98 1.073.148.31.207.638.234.993.026.34.026.758.026 1.262v3.064c0 .504 0 .922-.026 1.262-.027.355-.086.683-.234.993-.23.478-.596.866-1.046 1.11-.291.158-.6.22-.934.249-.321.028-.715.028-1.19.028h-4.302c-.475 0-.868 0-1.19-.028-.333-.03-.643-.091-.934-.25a2.47 2.47 0 0 1-1.045-1.11c-.149-.309-.208-.637-.235-.992-.026-.34-.026-.758-.026-1.262v-3.064c0-.504 0-.922.026-1.262.027-.355.086-.683.235-.993a2.5 2.5 0 0 1 .98-1.073zm7.442 0v1.799c-.272-.013-.587-.013-.95-.013h-4.302c-.363 0-.678 0-.95.013v-1.8c0-1.818 1.389-3.292 3.101-3.292 1.713 0 3.1 1.474 3.1 3.292" clip-rule="evenodd" style="fill:#d3d3d3;fill:color(display-p3 .8276 .8276 .8276);fill-opacity:1"/><path fill="#77736B" fill-rule="evenodd" d="M23.657 7.783a2.5 2.5 0 0 1 .98-1.073v-2.1c0-2.546 1.943-4.61 4.34-4.61 2.398 0 4.341 2.064 4.341 4.61v2.1q.08.047.155.099c.35.242.634.577.825.974.148.31.207.638.234.993.026.34.026.758.026 1.262v3.064c0 .504 0 .922-.026 1.262-.027.355-.086.683-.234.993-.23.478-.596.866-1.046 1.11-.291.158-.6.22-.934.249-.321.028-.715.028-1.19.028h-4.302c-.475 0-.868 0-1.19-.028-.333-.03-.643-.091-.934-.25a2.47 2.47 0 0 1-1.045-1.11c-.149-.309-.208-.637-.235-.992-.026-.34-.026-.758-.026-1.262v-3.064c0-.504 0-.922.026-1.262.027-.355.086-.683.235-.993m8.357.02.442.02.16.092c.17.1.322.26.424.472.042.088.08.222.101.496.021.275.022.632.022 1.155v3.064c0 .523 0 .88-.022 1.155-.021.274-.06.409-.101.496a1.1 1.1 0 0 1-.452.487c-.055.03-.15.065-.391.086-.247.021-.572.022-1.068.022h-4.303c-.497 0-.822 0-1.069-.022-.24-.021-.336-.057-.391-.086a1.1 1.1 0 0 1-.451-.487c-.043-.088-.08-.222-.102-.496a17 17 0 0 1-.022-1.155v-3.064c0-.523.001-.88.022-1.155.021-.274.06-.408.102-.496.101-.212.254-.372.424-.472l.159-.092.442-.02c.233-.01.513-.011.886-.011h4.303c.372 0 .652 0 .885.01m-5.828-3.264c0-1.782 1.294-3.144 2.791-3.144s2.79 1.362 2.79 3.144v1.495l-.522-.001H26.71l-.523.001z" clip-rule="evenodd" style="fill:#77736b;fill:color(display-p3 .4668 .4528 .4212);fill-opacity:1"/></svg>