<svg width="32" height="34" viewBox="0 0 32 34" fill="none" xmlns="http://www.w3.org/2000/svg">
<path fill-rule="evenodd" clip-rule="evenodd" d="M25.5918 26.1585C24.9159 25.4686 24.9159 24.359 25.5918 23.6691L27.8097 21.405C28.7087 20.4872 28.7087 18.9901 27.8097 18.0723C26.9229 17.167 25.4945 17.167 24.6077 18.0723L22.3898 20.3365C21.7017 21.0389 20.5766 21.0389 19.8885 20.3365C19.2127 19.6465 19.2127 18.537 19.8885 17.8471L22.1065 15.5829C24.3694 13.2728 28.0479 13.2728 30.3109 15.5829M24.7831 22.1648L25.5585 22.9243L21.7563 26.8056C21.0683 27.5081 19.9432 27.5081 19.2551 26.8056C18.5793 26.1157 18.5793 25.0062 19.2551 24.3163L23.0573 20.4349C23.7453 19.7325 24.8704 19.7325 25.5585 20.4349C26.2343 21.1248 26.2343 22.2343 25.5585 22.9243L24.7831 22.1648ZM24.7831 22.1648L20.981 26.0461C20.7185 26.3141 20.2929 26.3141 20.0305 26.0461C19.768 25.7782 19.768 25.3437 20.0305 25.0758L23.8326 21.1944C24.0951 20.9265 24.5207 20.9265 24.7831 21.1944C25.0456 21.4624 25.0456 21.8968 24.7831 22.1648ZM30.3109 15.5829C32.5617 17.8806 32.5617 21.5967 30.3109 23.8944L28.093 26.1585C27.4049 26.8609 26.2799 26.8609 25.5918 26.1585M19.2217 21.0818C19.8975 21.7718 19.8975 22.8813 19.2217 23.5712L17.0037 25.8354C16.1047 26.7531 16.1047 28.2502 17.0037 29.168C17.8906 30.0733 19.3189 30.0733 20.2057 29.168L22.4237 26.9039C23.1118 26.2015 24.2368 26.2015 24.9249 26.9039C25.6008 27.5938 25.6007 28.7033 24.9249 29.3933L22.707 31.6574C20.444 33.9675 16.7655 33.9675 14.5025 31.6574C12.2518 29.3598 12.2518 25.6436 14.5025 23.346L16.7204 21.0818C17.4085 20.3794 18.5336 20.3794 19.2217 21.0818ZM26.3671 24.4286C26.1046 24.6966 26.1046 25.131 26.3671 25.399C26.6296 25.6669 27.0552 25.6669 27.3177 25.399L29.5356 23.1349C31.373 21.2592 31.373 18.2181 29.5356 16.3425C27.6982 14.4668 24.7192 14.4668 22.8818 16.3425L20.6639 18.6066C20.4014 18.8745 20.4014 19.309 20.6639 19.5769C20.9264 19.8449 21.3519 19.8449 21.6144 19.5769L23.8323 17.3128C25.1448 15.973 27.2726 15.973 28.585 17.3128C29.8975 18.6526 29.8975 20.8247 28.585 22.1645L26.3671 24.4286ZM18.4463 22.8117C18.7088 22.5438 18.7088 22.1093 18.4463 21.8414C18.1838 21.5734 17.7583 21.5734 17.4958 21.8414L15.2779 24.1055C13.4405 25.9812 13.4405 29.0222 15.2779 30.8979C17.1153 32.7735 20.0942 32.7735 21.9316 30.8979L24.1496 28.6338C24.412 28.3658 24.412 27.9314 24.1496 27.6634C23.8871 27.3955 23.4615 27.3955 23.199 27.6634L20.9811 29.9275C19.6687 31.2673 17.5408 31.2673 16.2284 29.9275C14.916 28.5878 14.916 26.4156 16.2284 25.0758L18.4463 22.8117Z" fill="#647392"/>
<path d="M2.56503 5.82115C2.56503 4.6814 2.56503 4.11153 2.78684 3.6762C2.98195 3.29328 3.29328 2.98195 3.6762 2.78684C4.11153 2.56503 4.6814 2.56503 5.82115 2.56503H6.30448C7.44422 2.56503 8.0141 2.56503 8.44942 2.78684C8.83234 2.98195 9.14367 3.29328 9.33878 3.6762C9.56059 4.11153 9.56059 4.6814 9.56059 5.82115V6.30448C9.56059 7.44422 9.56059 8.0141 9.33878 8.44942C9.14367 8.83234 8.83234 9.14367 8.44942 9.33878C8.0141 9.56059 7.44422 9.56059 6.30448 9.56059H5.82115C4.6814 9.56059 4.11153 9.56059 3.6762 9.33878C3.29328 9.14367 2.98195 8.83234 2.78684 8.44942C2.56503 8.0141 2.56503 7.44422 2.56503 6.30448V5.82115Z" fill="#C2E0F0"/>
<path fill-rule="evenodd" clip-rule="evenodd" d="M5.79619 1.97147H6.32943C6.87811 1.97146 7.32581 1.97145 7.68944 2.00116C8.0655 2.03189 8.4036 2.09732 8.71889 2.25797C9.2135 2.50999 9.61563 2.91212 9.86764 3.40673C10.0283 3.72201 10.0937 4.06012 10.1245 4.43618C10.1542 4.79981 10.1542 5.2475 10.1541 5.79617V6.32944C10.1542 6.87811 10.1542 7.32581 10.1245 7.68944C10.0937 8.0655 10.0283 8.4036 9.86764 8.71889C9.61563 9.2135 9.2135 9.61563 8.71889 9.86764C8.4036 10.0283 8.0655 10.0937 7.68944 10.1245C7.32581 10.1542 6.87811 10.1542 6.32944 10.1541H5.79617C5.2475 10.1542 4.79981 10.1542 4.43618 10.1245C4.06012 10.0937 3.72201 10.0283 3.40673 9.86764C2.91212 9.61563 2.50999 9.2135 2.25797 8.71889C2.09732 8.4036 2.03189 8.0655 2.00116 7.68944C1.97145 7.32581 1.97146 6.87811 1.97147 6.32943V5.79619C1.97146 5.24751 1.97145 4.79981 2.00116 4.43618C2.03189 4.06012 2.09732 3.72201 2.25797 3.40673C2.50999 2.91212 2.91212 2.50999 3.40673 2.25797C3.72201 2.09732 4.06012 2.03189 4.43618 2.00116C4.79981 1.97145 5.24751 1.97146 5.79619 1.97147ZM4.53285 3.18435C4.2302 3.20907 4.06571 3.25454 3.94567 3.31571C3.67443 3.45391 3.45391 3.67443 3.31571 3.94567C3.25454 4.06571 3.20907 4.2302 3.18435 4.53285C3.15905 4.84242 3.15859 5.24147 3.15859 5.82114V6.30447C3.15859 6.88414 3.15905 7.28319 3.18435 7.59277C3.20907 7.89541 3.25454 8.0599 3.31571 8.17995C3.45391 8.45118 3.67443 8.67171 3.94567 8.80991C4.06571 8.87107 4.2302 8.91654 4.53285 8.94127C4.84242 8.96656 5.24147 8.96702 5.82114 8.96702H6.30447C6.88414 8.96702 7.28319 8.96656 7.59277 8.94127C7.89541 8.91654 8.0599 8.87107 8.17995 8.80991C8.45118 8.67171 8.67171 8.45118 8.80991 8.17995C8.87107 8.0599 8.91654 7.89541 8.94127 7.59277C8.96656 7.28319 8.96702 6.88414 8.96702 6.30447V5.82114C8.96702 5.24147 8.96656 4.84242 8.94127 4.53285C8.91654 4.2302 8.87107 4.06571 8.80991 3.94567C8.67171 3.67443 8.45118 3.45391 8.17995 3.31571C8.0599 3.25454 7.89541 3.20907 7.59277 3.18435C7.28319 3.15905 6.88414 3.15859 6.30447 3.15859H5.82114C5.24147 3.15859 4.84242 3.15905 4.53285 3.18435Z" fill="#628192"/>
<path d="M2.56503 16.0813C2.56503 14.9416 2.56503 14.3717 2.78684 13.9364C2.98195 13.5534 3.29328 13.2421 3.6762 13.047C4.11153 12.8252 4.6814 12.8252 5.82115 12.8252H6.30448C7.44422 12.8252 8.0141 12.8252 8.44942 13.047C8.83234 13.2421 9.14367 13.5534 9.33878 13.9364C9.56059 14.3717 9.56059 14.9416 9.56059 16.0813V16.5646C9.56059 17.7044 9.56059 18.2743 9.33878 18.7096C9.14367 19.0925 8.83234 19.4038 8.44942 19.5989C8.0141 19.8208 7.44422 19.8208 6.30448 19.8208H5.82115C4.6814 19.8208 4.11153 19.8208 3.6762 19.5989C3.29328 19.4038 2.98195 19.0925 2.78684 18.7096C2.56503 18.2743 2.56503 17.7044 2.56503 16.5646V16.0813Z" fill="#C2E0F0"/>
<path fill-rule="evenodd" clip-rule="evenodd" d="M5.79619 12.2316H6.32943C6.87811 12.2316 7.32581 12.2316 7.68944 12.2613C8.0655 12.2921 8.4036 12.3575 8.71889 12.5181C9.2135 12.7701 9.61563 13.1723 9.86764 13.6669C10.0283 13.9822 10.0937 14.3203 10.1245 14.6963C10.1542 15.06 10.1542 15.5077 10.1541 16.0563V16.5896C10.1542 17.1383 10.1542 17.586 10.1245 17.9496C10.0937 18.3257 10.0283 18.6638 9.86764 18.9791C9.61563 19.4737 9.2135 19.8758 8.71889 20.1278C8.4036 20.2885 8.0655 20.3539 7.68944 20.3846C7.32581 20.4143 6.87811 20.4143 6.32944 20.4143H5.79617C5.2475 20.4143 4.79981 20.4143 4.43618 20.3846C4.06012 20.3539 3.72201 20.2885 3.40673 20.1278C2.91212 19.8758 2.50999 19.4737 2.25797 18.9791C2.09732 18.6638 2.03189 18.3257 2.00116 17.9496C1.97145 17.586 1.97146 17.1383 1.97147 16.5896V16.0564C1.97146 15.5077 1.97145 15.06 2.00116 14.6963C2.03189 14.3203 2.09732 13.9822 2.25797 13.6669C2.50999 13.1723 2.91212 12.7701 3.40673 12.5181C3.72201 12.3575 4.06012 12.2921 4.43618 12.2613C4.79981 12.2316 5.24751 12.2316 5.79619 12.2316ZM4.53285 13.4445C4.2302 13.4692 4.06571 13.5147 3.94567 13.5759C3.67443 13.7141 3.45391 13.9346 3.31571 14.2058C3.25454 14.3259 3.20907 14.4904 3.18435 14.793C3.15905 15.1026 3.15859 15.5016 3.15859 16.0813V16.5646C3.15859 17.1443 3.15905 17.5434 3.18435 17.8529C3.20907 18.1556 3.25454 18.3201 3.31571 18.4401C3.45391 18.7113 3.67443 18.9319 3.94567 19.0701C4.06571 19.1312 4.2302 19.1767 4.53285 19.2014C4.84242 19.2267 5.24147 19.2272 5.82114 19.2272H6.30447C6.88414 19.2272 7.28319 19.2267 7.59277 19.2014C7.89541 19.1767 8.0599 19.1312 8.17995 19.0701C8.45118 18.9319 8.67171 18.7113 8.80991 18.4401C8.87107 18.3201 8.91654 18.1556 8.94127 17.8529C8.96656 17.5434 8.96702 17.1443 8.96702 16.5646V16.0813C8.96702 15.5016 8.96656 15.1026 8.94127 14.793C8.91654 14.4904 8.87107 14.3259 8.80991 14.2058C8.67171 13.9346 8.45118 13.7141 8.17995 13.5759C8.0599 13.5147 7.89541 13.4692 7.59277 13.4445C7.28319 13.4192 6.88414 13.4188 6.30447 13.4188H5.82114C5.24147 13.4188 4.84242 13.4192 4.53285 13.4445Z" fill="#628192"/>
<path d="M12.8252 5.82115C12.8252 4.6814 12.8252 4.11153 13.047 3.6762C13.2421 3.29328 13.5534 2.98195 13.9364 2.78684C14.3717 2.56503 14.9416 2.56503 16.0813 2.56503H16.5646C17.7044 2.56503 18.2743 2.56503 18.7096 2.78684C19.0925 2.98195 19.4038 3.29328 19.5989 3.6762C19.8208 4.11153 19.8208 4.6814 19.8208 5.82115V6.30448C19.8208 7.44422 19.8208 8.0141 19.5989 8.44942C19.4038 8.83234 19.0925 9.14367 18.7096 9.33878C18.2743 9.56059 17.7044 9.56059 16.5646 9.56059H16.0813C14.9416 9.56059 14.3717 9.56059 13.9364 9.33878C13.5534 9.14367 13.2421 8.83234 13.047 8.44942C12.8252 8.0141 12.8252 7.44422 12.8252 6.30448V5.82115Z" fill="#C2E0F0"/>
<path fill-rule="evenodd" clip-rule="evenodd" d="M16.0564 1.97147H16.5896C17.1383 1.97146 17.586 1.97145 17.9496 2.00116C18.3257 2.03189 18.6638 2.09732 18.9791 2.25797C19.4737 2.50999 19.8758 2.91212 20.1278 3.40673C20.2885 3.72201 20.3539 4.06012 20.3846 4.43618C20.4143 4.79981 20.4143 5.2475 20.4143 5.79617V6.32944C20.4143 6.87811 20.4143 7.32581 20.3846 7.68944C20.3539 8.0655 20.2885 8.4036 20.1278 8.71889C19.8758 9.2135 19.4737 9.61563 18.9791 9.86764C18.6638 10.0283 18.3257 10.0937 17.9496 10.1245C17.586 10.1542 17.1383 10.1542 16.5896 10.1541H16.0563C15.5077 10.1542 15.06 10.1542 14.6963 10.1245C14.3203 10.0937 13.9822 10.0283 13.6669 9.86764C13.1723 9.61563 12.7701 9.2135 12.5181 8.71889C12.3575 8.4036 12.2921 8.0655 12.2613 7.68944C12.2316 7.32581 12.2316 6.87811 12.2316 6.32943V5.79619C12.2316 5.24751 12.2316 4.79981 12.2613 4.43618C12.2921 4.06012 12.3575 3.72201 12.5181 3.40673C12.7701 2.91212 13.1723 2.50999 13.6669 2.25797C13.9822 2.09732 14.3203 2.03189 14.6963 2.00116C15.06 1.97145 15.5077 1.97146 16.0564 1.97147ZM14.793 3.18435C14.4904 3.20907 14.3259 3.25454 14.2058 3.31571C13.9346 3.45391 13.7141 3.67443 13.5759 3.94567C13.5147 4.06571 13.4692 4.2302 13.4445 4.53285C13.4192 4.84242 13.4188 5.24147 13.4188 5.82114V6.30447C13.4188 6.88414 13.4192 7.28319 13.4445 7.59277C13.4692 7.89541 13.5147 8.0599 13.5759 8.17995C13.7141 8.45118 13.9346 8.67171 14.2058 8.80991C14.3259 8.87107 14.4904 8.91654 14.793 8.94127C15.1026 8.96656 15.5016 8.96702 16.0813 8.96702H16.5646C17.1443 8.96702 17.5434 8.96656 17.8529 8.94127C18.1556 8.91654 18.3201 8.87107 18.4401 8.80991C18.7113 8.67171 18.9319 8.45118 19.0701 8.17995C19.1312 8.0599 19.1767 7.89541 19.2014 7.59277C19.2267 7.28319 19.2272 6.88414 19.2272 6.30447V5.82114C19.2272 5.24147 19.2267 4.84242 19.2014 4.53285C19.1767 4.2302 19.1312 4.06571 19.0701 3.94567C18.9319 3.67443 18.7113 3.45391 18.4401 3.31571C18.3201 3.25454 18.1556 3.20907 17.8529 3.18435C17.5434 3.15905 17.1443 3.15859 16.5646 3.15859H16.0813C15.5016 3.15859 15.1026 3.15905 14.793 3.18435Z" fill="#628192"/>
<path d="M13.0584 13.3976C13.0584 13.2102 13.2102 13.0584 13.3976 13.0584H14.1183C14.3056 13.0584 14.4575 13.2102 14.4575 13.3976V14.1183C14.4575 14.3056 14.3056 14.4575 14.1183 14.4575H13.3976C13.2102 14.4575 13.0584 14.3056 13.0584 14.1183V13.3976Z" fill="#628192"/>
<path fill-rule="evenodd" clip-rule="evenodd" d="M12.7192 13.3976C12.7192 13.0229 13.0229 12.7192 13.3976 12.7192H14.1183C14.493 12.7192 14.7967 13.0229 14.7967 13.3976V14.1183C14.7967 14.493 14.493 14.7967 14.1183 14.7967H13.3976C13.0229 14.7967 12.7192 14.493 12.7192 14.1183V13.3976ZM14.1183 13.3976H13.3976V14.1183H14.1183V13.3976Z" fill="#628192"/>
<path d="M15.6234 15.9626C15.6234 15.7753 15.7753 15.6234 15.9626 15.6234H16.6833C16.8707 15.6234 17.0225 15.7753 17.0225 15.9626V16.6833C17.0225 16.8707 16.8707 17.0225 16.6833 17.0225H15.9626C15.7753 17.0225 15.6234 16.8707 15.6234 16.6833V15.9626Z" fill="#628192"/>
<path fill-rule="evenodd" clip-rule="evenodd" d="M15.2842 15.9626C15.2842 15.588 15.588 15.2842 15.9626 15.2842H16.6834C17.058 15.2842 17.3617 15.588 17.3617 15.9626V16.6834C17.3617 17.058 17.058 17.3617 16.6834 17.3617H15.9626C15.588 17.3617 15.2842 17.058 15.2842 16.6834V15.9626ZM16.6834 15.9626H15.9626V16.6834H16.6834V15.9626Z" fill="#628192"/>
<path d="M5.36325 15.9626C5.36325 15.7753 5.51511 15.6234 5.70243 15.6234H6.42318C6.61051 15.6234 6.76236 15.7753 6.76236 15.9626V16.6833C6.76236 16.8707 6.61051 17.0225 6.42318 17.0225H5.70243C5.51511 17.0225 5.36325 16.8707 5.36325 16.6833V15.9626Z" fill="#628192"/>
<path fill-rule="evenodd" clip-rule="evenodd" d="M4.68491 15.9626C4.68491 15.4006 5.14047 14.9451 5.70244 14.9451H6.4232C6.98517 14.9451 7.44073 15.4006 7.44073 15.9626V16.6834C7.44073 17.2453 6.98517 17.7009 6.4232 17.7009H5.70244C5.14047 17.7009 4.68491 17.2453 4.68491 16.6834V15.9626ZM6.04162 16.3018V16.3442H6.08402V16.3018H6.04162Z" fill="#628192"/>
<path d="M5.36325 5.70243C5.36325 5.51511 5.51511 5.36325 5.70243 5.36325H6.42318C6.61051 5.36325 6.76236 5.51511 6.76236 5.70243V6.42318C6.76236 6.61051 6.61051 6.76236 6.42318 6.76236H5.70243C5.51511 6.76236 5.36325 6.61051 5.36325 6.42318V5.70243Z" fill="#628192"/>
<path fill-rule="evenodd" clip-rule="evenodd" d="M4.68491 5.70244C4.68491 5.14047 5.14047 4.68491 5.70244 4.68491H6.4232C6.98517 4.68491 7.44073 5.14047 7.44073 5.70244V6.4232C7.44073 6.98517 6.98517 7.44073 6.4232 7.44073H5.70244C5.14047 7.44073 4.68491 6.98517 4.68491 6.4232V5.70244ZM6.04162 6.04162V6.08402H6.08402V6.04162H6.04162Z" fill="#628192"/>
<path d="M15.6234 5.70243C15.6234 5.51511 15.7753 5.36325 15.9626 5.36325H16.6833C16.8707 5.36325 17.0225 5.51511 17.0225 5.70243V6.42318C17.0225 6.61051 16.8707 6.76236 16.6833 6.76236H15.9626C15.7753 6.76236 15.6234 6.61051 15.6234 6.42318V5.70243Z" fill="#628192"/>
<path fill-rule="evenodd" clip-rule="evenodd" d="M14.9451 5.70244C14.9451 5.14047 15.4006 4.68491 15.9626 4.68491H16.6834C17.2453 4.68491 17.7009 5.14047 17.7009 5.70244V6.4232C17.7009 6.98517 17.2453 7.44073 16.6834 7.44073H15.9626C15.4006 7.44073 14.9451 6.98517 14.9451 6.4232V5.70244ZM16.3018 6.04162V6.08402H16.3442V6.04162H16.3018Z" fill="#628192"/>
<path d="M18.1884 13.3976C18.1884 13.2102 18.3403 13.0584 18.5276 13.0584H19.2484C19.4357 13.0584 19.5876 13.2102 19.5876 13.3976V14.1183C19.5876 14.3056 19.4357 14.4575 19.2484 14.4575H18.5276C18.3403 14.4575 18.1884 14.3056 18.1884 14.1183V13.3976Z" fill="#628192"/>
<path fill-rule="evenodd" clip-rule="evenodd" d="M17.8493 13.3976C17.8493 13.0229 18.153 12.7192 18.5276 12.7192H19.2484C19.623 12.7192 19.9267 13.0229 19.9267 13.3976V14.1183C19.9267 14.493 19.623 14.7967 19.2484 14.7967H18.5276C18.153 14.7967 17.8493 14.493 17.8493 14.1183V13.3976ZM19.2484 13.3976H18.5276V14.1183H19.2484V13.3976Z" fill="#628192"/>
<path d="M13.0584 18.5276C13.0584 18.3403 13.2102 18.1884 13.3976 18.1884H14.1183C14.3056 18.1884 14.4575 18.3403 14.4575 18.5276V19.2484C14.4575 19.4357 14.3056 19.5876 14.1183 19.5876H13.3976C13.2102 19.5876 13.0584 19.4357 13.0584 19.2484V18.5276Z" fill="#628192"/>
<path fill-rule="evenodd" clip-rule="evenodd" d="M12.7192 18.5276C12.7192 18.153 13.0229 17.8493 13.3976 17.8493H14.1183C14.493 17.8493 14.7967 18.153 14.7967 18.5276V19.2484C14.7967 19.623 14.493 19.9267 14.1183 19.9267H13.3976C13.0229 19.9267 12.7192 19.623 12.7192 19.2484V18.5276ZM14.1183 18.5276H13.3976V19.2484H14.1183V18.5276Z" fill="#628192"/>
</svg>
