<svg xmlns="http://www.w3.org/2000/svg" width="40" height="40" fill="none"><rect width="28.9" height="28.9" fill="#8ab8d1" stroke="#5c8fab" stroke-width="1.65" rx="7.7" style="fill:#8ab8d1;fill:color(display-p3 .5403 .7217 .8212);fill-opacity:1;stroke:#5c8fab;stroke:color(display-p3 .3614 .5616 .6714)" transform="rotate(-15 48.922 9.918)"/><path fill="#fff" d="M6.052 19.125a2.664 2.664 0 0 1 1.884-3.262l12.862-3.446c1.42-.38 2.88.462 3.261 1.883l3.444 12.863a2.664 2.664 0 0 1-1.884 3.262L12.757 33.87a2.663 2.663 0 0 1-3.261-1.883z" style="fill:#fff;fill-opacity:1"/><path fill="#8AB8D1" d="M11.648 20.57a.477.477 0 0 1 .337-.583l.614-.164a.477.477 0 0 1 .584.337l.164.613a.477.477 0 0 1-.337.584l-.614.165a.477.477 0 0 1-.584-.337z" style="fill:#8ab8d1;fill:color(display-p3 .5403 .7217 .8212);fill-opacity:1"/><path fill="#8AB8D1" fill-rule="evenodd" d="m10.889 18.06 1.697-.455c.24-.064.453-.121.633-.154a1.5 1.5 0 0 1 .604-.007c.312.067.595.23.808.467.145.161.23.344.296.527.061.172.118.384.183.625l.454 1.697c.065.24.121.453.154.633.035.19.052.392.007.604a1.5 1.5 0 0 1-.467.808 1.5 1.5 0 0 1-.527.296 9 9 0 0 1-.624.183l-1.698.455c-.24.064-.453.121-.632.154a1.5 1.5 0 0 1-.605.007 1.5 1.5 0 0 1-.808-.466 1.5 1.5 0 0 1-.296-.528 9 9 0 0 1-.182-.624l-.455-1.698a9 9 0 0 1-.154-.632 1.5 1.5 0 0 1-.007-.605 1.5 1.5 0 0 1 .467-.808c.161-.145.344-.23.527-.296.172-.061.384-.118.625-.183m-.25 1.23a.5.5 0 0 0-.158.076.4.4 0 0 0-.123.212.5.5 0 0 0 .013.174 8 8 0 0 0 .14.564l.444 1.658c.071.267.116.434.16.558a.5.5 0 0 0 .076.157c.056.063.13.106.212.123.012.002.051.01.175-.013a8 8 0 0 0 .563-.14l1.658-.444c.267-.071.434-.117.558-.161a.5.5 0 0 0 .157-.075.4.4 0 0 0 .123-.213.5.5 0 0 0-.013-.174 8 8 0 0 0-.14-.564l-.443-1.658a8 8 0 0 0-.161-.558.5.5 0 0 0-.076-.157.4.4 0 0 0-.212-.123.5.5 0 0 0-.174.014c-.13.023-.297.068-.564.14l-1.658.443a8 8 0 0 0-.558.161" clip-rule="evenodd" style="fill:#8ab8d1;fill:color(display-p3 .5403 .7217 .8212);fill-opacity:1"/><path fill="#8AB8D1" d="M13.793 26.74a.477.477 0 0 0-.337.584l.164.614c.069.254.33.405.584.337l.614-.165a.477.477 0 0 0 .337-.583l-.164-.614a.476.476 0 0 0-.584-.337z" style="fill:#8ab8d1;fill:color(display-p3 .5403 .7217 .8212);fill-opacity:1"/><path fill="#8AB8D1" fill-rule="evenodd" d="m12.697 24.813 1.697-.455a9 9 0 0 1 .633-.154c.19-.034.392-.052.604-.007.312.067.595.23.808.467.145.161.23.344.296.527.061.172.118.384.183.625l.454 1.697c.064.241.121.453.154.633.035.19.052.392.007.604a1.5 1.5 0 0 1-.467.808 1.5 1.5 0 0 1-.527.296 9 9 0 0 1-.625.183l-1.697.455c-.24.064-.453.121-.632.154a1.5 1.5 0 0 1-.605.007 1.5 1.5 0 0 1-.808-.466 1.5 1.5 0 0 1-.296-.527 9 9 0 0 1-.182-.625l-.455-1.698c-.064-.24-.121-.453-.154-.632a1.5 1.5 0 0 1-.007-.605 1.5 1.5 0 0 1 .467-.808c.161-.145.344-.23.527-.296.172-.061.384-.118.625-.183m-.25 1.23a.5.5 0 0 0-.158.076.4.4 0 0 0-.123.212.5.5 0 0 0 .013.174 8 8 0 0 0 .14.564l.444 1.658c.071.267.116.434.16.558a.5.5 0 0 0 .076.157c.056.063.13.106.212.123a.5.5 0 0 0 .175-.013 8 8 0 0 0 .563-.14l1.658-.444c.267-.071.434-.117.558-.16a.5.5 0 0 0 .157-.076.4.4 0 0 0 .123-.213.5.5 0 0 0-.013-.174 8 8 0 0 0-.14-.564l-.443-1.657a8 8 0 0 0-.161-.559.5.5 0 0 0-.076-.157.4.4 0 0 0-.212-.123.5.5 0 0 0-.174.014 7 7 0 0 0-.564.14l-1.658.443a8 8 0 0 0-.558.161" clip-rule="evenodd" style="fill:#8ab8d1;fill:color(display-p3 .5403 .7217 .8212);fill-opacity:1"/><path fill="#8AB8D1" d="M18.738 18.178a.477.477 0 0 0-.337.583l.164.614c.068.255.33.406.584.337l.614-.164a.477.477 0 0 0 .337-.584l-.165-.614a.477.477 0 0 0-.583-.337z" style="fill:#8ab8d1;fill:color(display-p3 .5403 .7217 .8212);fill-opacity:1"/><path fill="#8AB8D1" fill-rule="evenodd" d="M17.641 16.25c-.24.065-.452.122-.624.184a1.5 1.5 0 0 0-.527.296 1.5 1.5 0 0 0-.467.808 1.5 1.5 0 0 0 .007.604c.033.18.09.392.154.633l.454 1.697c.065.241.122.453.183.625.065.183.15.366.296.527.213.237.496.4.808.467.212.045.413.027.604-.007.18-.033.392-.09.633-.154l1.697-.455c.241-.065.453-.122.625-.183.183-.065.366-.151.527-.296.237-.214.4-.496.467-.808a1.5 1.5 0 0 0-.007-.605c-.033-.18-.09-.391-.154-.632l-.455-1.698a9 9 0 0 0-.182-.625 1.5 1.5 0 0 0-.296-.527 1.5 1.5 0 0 0-.808-.466 1.5 1.5 0 0 0-.605.007c-.18.033-.391.09-.632.154zm-.407 1.306a.5.5 0 0 1 .157-.075c.124-.044.291-.09.558-.161l1.657-.444c.267-.072.435-.116.564-.14a.5.5 0 0 1 .174-.013c.082.017.157.06.213.123.008.008.033.04.075.157.045.124.09.291.161.558l.444 1.658a8 8 0 0 1 .14.564.5.5 0 0 1 .013.174.4.4 0 0 1-.123.212.5.5 0 0 1-.157.076c-.124.044-.292.09-.558.16l-1.658.445a8 8 0 0 1-.564.14.5.5 0 0 1-.174.013.4.4 0 0 1-.212-.123.5.5 0 0 1-.076-.157 8 8 0 0 1-.16-.559l-.444-1.657a8 8 0 0 1-.14-.564.5.5 0 0 1-.013-.174.4.4 0 0 1 .122-.213" clip-rule="evenodd" style="fill:#8ab8d1;fill:color(display-p3 .5403 .7217 .8212);fill-opacity:1"/><path fill="#8AB8D1" d="M18.406 23.695a.477.477 0 0 0-.337.584l.164.613c.068.255.33.406.584.338l.613-.165a.477.477 0 0 0 .338-.584l-.165-.614a.476.476 0 0 0-.583-.337zm1.803 1.82a.477.477 0 0 1 .337-.584l.614-.165a.477.477 0 0 1 .584.337l.164.614a.477.477 0 0 1-.337.584l-.614.165a.477.477 0 0 1-.584-.338zm2.14 1.235a.477.477 0 0 1 .337-.583l.614-.165a.477.477 0 0 1 .584.337l.164.614a.477.477 0 0 1-.337.584l-.614.164a.477.477 0 0 1-.584-.337zm-.567-3.96a.477.477 0 0 0-.337.584l.164.614c.068.254.33.405.584.337l.614-.165a.477.477 0 0 0 .337-.583l-.164-.614a.476.476 0 0 0-.584-.337zm-2.809 4.865a.477.477 0 0 1 .337-.584l.614-.164a.477.477 0 0 1 .583.337l.165.614a.477.477 0 0 1-.338.584l-.613.164a.477.477 0 0 1-.584-.337z" style="fill:#8ab8d1;fill:color(display-p3 .5403 .7217 .8212);fill-opacity:1"/><rect width="28.9" height="28.9" x="10.3" y=".845" fill="#88A5E4" stroke="#6384cb" stroke-width="1.65" rx="7.7" style="fill:#88a5e4;fill:color(display-p3 .5328 .6468 .8924);fill-opacity:1;stroke:#6384cb;stroke:color(display-p3 .3887 .5181 .7969)"/><path fill="#fff" d="M15.427 8.595a2.664 2.664 0 0 1 2.663-2.663h13.317a2.663 2.663 0 0 1 2.662 2.663l-.003 13.316a2.664 2.664 0 0 1-2.663 2.663H18.087a2.663 2.663 0 0 1-2.663-2.663z" style="fill:#fff;fill-opacity:1"/><path fill="#6384CB" d="M20.458 11.44c0-.264.213-.477.477-.477h.635c.263 0 .477.213.477.477v.635a.477.477 0 0 1-.477.477h-.636a.477.477 0 0 1-.476-.477z" style="fill:#6384cb;fill:color(display-p3 .3887 .5181 .7969);fill-opacity:1"/><path fill="#6384CB" fill-rule="evenodd" d="M20.374 8.818h1.758c.249 0 .468 0 .65.015.194.016.393.051.586.15.284.144.515.375.66.66.098.193.133.392.149.585.015.182.015.402.015.65v1.758c0 .25 0 .469-.016.65a1.5 1.5 0 0 1-.15.587 1.5 1.5 0 0 1-.66.66 1.5 1.5 0 0 1-.585.149c-.182.015-.401.015-.65.015h-1.758c-.25 0-.469 0-.65-.015a1.5 1.5 0 0 1-.587-.15 1.5 1.5 0 0 1-.66-.66 1.5 1.5 0 0 1-.149-.585c-.015-.182-.014-.402-.014-.65v-1.758c0-.25 0-.47.015-.65.016-.194.051-.393.15-.587a1.5 1.5 0 0 1 .66-.66c.193-.098.392-.133.585-.15.182-.014.402-.014.651-.014m-.56 1.123a.5.5 0 0 0-.172.033.4.4 0 0 0-.173.173.5.5 0 0 0-.033.172c-.01.13-.01.304-.01.58l-.001 1.716c0 .277 0 .45.01.581.011.125.028.161.033.172a.4.4 0 0 0 .174.173.5.5 0 0 0 .171.032c.131.011.305.012.58.012h1.717c.276 0 .45 0 .58-.012a.5.5 0 0 0 .172-.032.4.4 0 0 0 .174-.173.5.5 0 0 0 .032-.172c.01-.13.011-.304.011-.58V10.9c0-.277 0-.45-.01-.581a.5.5 0 0 0-.033-.172.4.4 0 0 0-.173-.173.5.5 0 0 0-.172-.033 8 8 0 0 0-.58-.01h-1.716c-.276 0-.45 0-.581.01" clip-rule="evenodd" style="fill:#6384cb;fill:color(display-p3 .3887 .5181 .7969);fill-opacity:1"/><path fill="#6384CB" d="M20.933 17.954a.477.477 0 0 0-.477.477v.635c0 .263.214.477.477.477h.635a.477.477 0 0 0 .477-.477v-.635a.476.476 0 0 0-.476-.477z" style="fill:#6384cb;fill:color(display-p3 .3887 .5181 .7969);fill-opacity:1"/><path fill="#6384CB" fill-rule="evenodd" d="M20.373 15.809h1.757c.25 0 .469 0 .65.015.194.016.393.051.586.15.285.144.515.375.66.66.099.193.134.392.15.585.014.182.014.401.014.65v1.758c0 .25 0 .469-.015.65a1.5 1.5 0 0 1-.15.587 1.5 1.5 0 0 1-.66.66 1.5 1.5 0 0 1-.585.149c-.182.015-.402.015-.651.015H20.37c-.249 0-.468 0-.65-.015a1.5 1.5 0 0 1-.586-.15 1.5 1.5 0 0 1-.66-.66 1.5 1.5 0 0 1-.15-.585c-.014-.182-.014-.402-.014-.65V17.87c0-.25 0-.47.015-.651.016-.193.052-.392.15-.586a1.5 1.5 0 0 1 .66-.66c.194-.098.393-.133.586-.15.182-.014.401-.014.65-.014m-.56 1.123a.5.5 0 0 0-.172.033.4.4 0 0 0-.174.173.5.5 0 0 0-.032.171 8 8 0 0 0-.011.581v1.716c0 .276 0 .45.01.581a.5.5 0 0 0 .033.172.4.4 0 0 0 .173.173.5.5 0 0 0 .172.032c.13.011.304.012.58.012h1.716c.276 0 .45 0 .581-.012a.5.5 0 0 0 .172-.032.4.4 0 0 0 .173-.173.5.5 0 0 0 .033-.172c.01-.13.01-.305.01-.58l.001-1.717c0-.276 0-.45-.01-.58a.5.5 0 0 0-.033-.172.4.4 0 0 0-.174-.174.5.5 0 0 0-.171-.032 8 8 0 0 0-.58-.01h-1.717c-.276 0-.45 0-.58.01" clip-rule="evenodd" style="fill:#6384cb;fill:color(display-p3 .3887 .5181 .7969);fill-opacity:1"/><path fill="#6384CB" d="M27.926 10.963a.477.477 0 0 0-.477.477v.635c0 .264.213.477.476.477h.636a.477.477 0 0 0 .477-.477v-.635a.477.477 0 0 0-.477-.477z" style="fill:#6384cb;fill:color(display-p3 .3887 .5181 .7969);fill-opacity:1"/><path fill="#6384CB" fill-rule="evenodd" d="M27.365 8.818c-.25 0-.469 0-.65.015a1.5 1.5 0 0 0-.587.15 1.5 1.5 0 0 0-.66.66 1.5 1.5 0 0 0-.15.585c-.014.182-.014.402-.014.65v1.758c0 .25 0 .469.014.65.016.194.051.393.15.587.145.284.375.515.66.66.193.098.392.133.585.149.182.015.402.015.65.015h1.758c.25 0 .47 0 .65-.015.194-.016.393-.051.587-.15a1.5 1.5 0 0 0 .66-.66c.098-.193.133-.392.15-.585.014-.182.014-.402.014-.65v-1.758c0-.25 0-.47-.014-.65a1.5 1.5 0 0 0-.15-.587 1.5 1.5 0 0 0-.66-.66 1.5 1.5 0 0 0-.585-.15c-.182-.014-.401-.014-.65-.014zm-.732 1.156a.5.5 0 0 1 .172-.033c.13-.01.304-.01.58-.01h1.717c.276 0 .45 0 .58.01a.5.5 0 0 1 .172.033.4.4 0 0 1 .173.173.5.5 0 0 1 .032.172c.011.13.011.304.011.58v1.716c0 .277 0 .45-.011.581a.5.5 0 0 1-.032.172.4.4 0 0 1-.174.173.5.5 0 0 1-.171.032 8 8 0 0 1-.581.012h-1.716c-.276 0-.45 0-.581-.012a.5.5 0 0 1-.171-.032.4.4 0 0 1-.174-.173.5.5 0 0 1-.032-.172 8 8 0 0 1-.011-.58V10.9c0-.277 0-.45.011-.581a.5.5 0 0 1 .033-.172.4.4 0 0 1 .173-.173" clip-rule="evenodd" style="fill:#6384cb;fill:color(display-p3 .3887 .5181 .7969);fill-opacity:1"/><path fill="#6384CB" d="M26.177 16.206a.477.477 0 0 0-.477.477v.635c0 .264.213.477.476.477h.636a.477.477 0 0 0 .477-.477v-.635a.477.477 0 0 0-.477-.477zm1.27 2.224c0-.263.214-.476.477-.476h.636c.263 0 .476.213.476.477v.635a.477.477 0 0 1-.477.477h-.635a.476.476 0 0 1-.477-.477zm1.748 1.748c0-.263.213-.476.476-.476h.636c.263 0 .477.213.477.476v.636a.477.477 0 0 1-.477.477h-.636a.476.476 0 0 1-.476-.477zm.477-3.972a.477.477 0 0 0-.477.477v.635c0 .264.214.477.477.477h.635a.477.477 0 0 0 .477-.477v-.635a.476.476 0 0 0-.476-.477zM25.7 20.178c0-.263.213-.476.476-.476h.636c.263 0 .476.213.476.476v.636a.477.477 0 0 1-.477.477h-.635a.477.477 0 0 1-.477-.477z" style="fill:#6384cb;fill:color(display-p3 .3887 .5181 .7969);fill-opacity:1"/></svg>