<svg width="40" height="40" viewBox="0 0 40 40" fill="none" xmlns="http://www.w3.org/2000/svg">
  <g transform="translate(-0.9 13) rotate(-15)">
    <rect width="28.9" height="28.9" fill="#8ab8d1" style="fill:#8AB8D1;fill:color(display-p3 0.5403 0.7217 0.8212);fill-opacity:1;stroke:#5C8FAB;stroke:color(display-p3 0.3614 0.5616 0.6714);" stroke-width="1.65" stroke="#5c8fab" rx="7.7"/>
  </g>
  <path d="M6.0521 19.1251C5.67171 17.7043 6.51507 16.2439 7.9358 15.8632L20.7981 12.4168C22.2188 12.0361 23.6789 12.8793 24.0593 14.3001L27.5031 27.1631C27.8835 28.5839 27.0401 30.0443 25.6194 30.4249L12.7571 33.8714C11.3364 34.2521 9.87629 33.4089 9.4959 31.9881L6.0521 19.1251Z" fill="white" style="fill:white;fill-opacity:1;"/>
  <path d="M11.6481 20.5708C11.58 20.3165 11.7309 20.0551 11.9852 19.987L12.5991 19.8225C12.8534 19.7544 13.1147 19.9053 13.1828 20.1596L13.3471 20.7735C13.4152 21.0278 13.2643 21.2892 13.01 21.3573L12.3961 21.5218C12.1418 21.5899 11.8805 21.439 11.8124 21.1847L11.6481 20.5708Z" fill="#8AB8D1" style="fill:#8AB8D1;fill:color(display-p3 0.5403 0.7217 0.8212);fill-opacity:1;"/>
  <path fill-rule="evenodd" clip-rule="evenodd" d="M10.8886 18.0602L12.5862 17.6053C12.8269 17.5408 13.039 17.484 13.2185 17.4513C13.4094 17.4165 13.6108 17.3991 13.8231 17.4442C14.1349 17.5105 14.4176 17.6738 14.6308 17.9107C14.7761 18.072 14.8617 18.2552 14.9269 18.4379C14.9883 18.6097 15.0451 18.8218 15.1095 19.0625L15.5641 20.7602C15.6285 21.0009 15.6853 21.2131 15.718 21.3926C15.7527 21.5834 15.7701 21.7849 15.7249 21.9972C15.6586 22.309 15.4953 22.5918 15.2584 22.8051C15.097 22.9504 14.9139 23.036 14.7312 23.1013C14.5594 23.1627 14.3473 23.2196 14.1066 23.2841L12.409 23.7389C12.1683 23.8034 11.9561 23.8603 11.7767 23.893C11.5858 23.9278 11.3844 23.9452 11.1721 23.9C10.8603 23.8338 10.5776 23.6705 10.3643 23.4336C10.2191 23.2722 10.1335 23.0891 10.0683 22.9064C10.0069 22.7346 9.95008 22.5224 9.88564 22.2817L9.43114 20.5841C9.36667 20.3434 9.30986 20.1312 9.27719 19.9517C9.24244 19.7608 9.22509 19.5594 9.27026 19.3471C9.33659 19.0353 9.49991 18.7524 9.73682 18.5392C9.89817 18.3939 10.0813 18.3082 10.264 18.2429C10.4358 18.1815 10.6479 18.1247 10.8886 18.0602ZM10.6381 19.2903C10.5204 19.3324 10.4896 19.3578 10.4808 19.3657C10.4185 19.4219 10.3755 19.4963 10.358 19.5783C10.3556 19.5899 10.3489 19.6293 10.3713 19.7523C10.3949 19.8817 10.4394 20.0495 10.5108 20.3163L10.9546 21.9738C11.026 22.2406 11.0713 22.4082 11.1156 22.532C11.1576 22.6497 11.1831 22.6806 11.191 22.6893C11.2471 22.7517 11.3215 22.7947 11.4035 22.8121C11.415 22.8145 11.4545 22.8212 11.5775 22.7988C11.7068 22.7752 11.8747 22.7307 12.1414 22.6592L13.7989 22.2151C14.0656 22.1436 14.2332 22.0983 14.357 22.054C14.4747 22.0119 14.5056 21.9864 14.5144 21.9785C14.5767 21.9224 14.6197 21.848 14.6371 21.7659C14.6396 21.7544 14.6462 21.715 14.6239 21.592C14.6003 21.4626 14.5558 21.2947 14.4844 21.028L14.0406 19.3704C13.9692 19.1037 13.9239 18.9361 13.8796 18.8122C13.8376 18.6945 13.8121 18.6637 13.8042 18.6549C13.7481 18.5926 13.6737 18.5496 13.5917 18.5322C13.5801 18.5297 13.5407 18.5231 13.4177 18.5455C13.2884 18.5691 13.1205 18.6136 12.8538 18.6851L11.1963 19.1292C10.9296 19.2007 10.762 19.246 10.6381 19.2903Z" fill="#8AB8D1" style="fill:#8AB8D1;fill:color(display-p3 0.5403 0.7217 0.8212);fill-opacity:1;"/>
  <path d="M13.7932 26.7401C13.5389 26.8082 13.388 27.0696 13.4561 27.3239L13.6204 27.9378C13.6885 28.1921 13.9498 28.343 14.2041 28.2748L14.818 28.1104C15.0723 28.0422 15.2232 27.7808 15.1551 27.5266L14.9908 26.9126C14.9227 26.6583 14.6614 26.5074 14.4071 26.5756L13.7932 26.7401Z" fill="#8AB8D1" style="fill:#8AB8D1;fill:color(display-p3 0.5403 0.7217 0.8212);fill-opacity:1;"/>
  <path fill-rule="evenodd" clip-rule="evenodd" d="M12.6966 24.8133L14.3942 24.3584C14.6349 24.2939 14.847 24.2371 15.0265 24.2043C15.2174 24.1696 15.4188 24.1522 15.6311 24.1973C15.9429 24.2636 16.2256 24.4269 16.4388 24.6638C16.5841 24.8251 16.6697 25.0082 16.7349 25.1909C16.7963 25.3627 16.8531 25.5749 16.9175 25.8156L17.372 27.5133C17.4365 27.754 17.4933 27.9662 17.526 28.1456C17.5607 28.3365 17.5781 28.5379 17.5329 28.7503C17.4666 29.0621 17.3033 29.3449 17.0664 29.5582C16.905 29.7035 16.7219 29.7891 16.5392 29.8544C16.3674 29.9158 16.1553 29.9727 15.9145 30.0371L14.217 30.492C13.9763 30.5565 13.7641 30.6134 13.5847 30.6461C13.3938 30.6809 13.1924 30.6982 12.9801 30.6531C12.6683 30.5868 12.3856 30.4235 12.1723 30.1866C12.0271 30.0253 11.9415 29.8422 11.8762 29.6595C11.8149 29.4877 11.7581 29.2755 11.6936 29.0348L11.2391 27.3372C11.1747 27.0964 11.1179 26.8843 11.0852 26.7048C11.0504 26.5139 11.0331 26.3125 11.0783 26.1001C11.1446 25.7883 11.3079 25.5055 11.5448 25.2922C11.7062 25.147 11.8893 25.0613 12.072 24.996C12.2438 24.9346 12.4559 24.8778 12.6966 24.8133ZM12.4461 26.0434C12.3284 26.0854 12.2976 26.1109 12.2888 26.1188C12.2265 26.1749 12.1835 26.2494 12.166 26.3314C12.1636 26.3429 12.1569 26.3824 12.1793 26.5054C12.2029 26.6347 12.2474 26.8026 12.3188 27.0693L12.7626 28.7269C12.834 28.9936 12.8793 29.1613 12.9235 29.2851C12.9656 29.4028 12.9911 29.4337 12.9989 29.4424C13.0551 29.5048 13.1295 29.5477 13.2115 29.5652C13.223 29.5676 13.2625 29.5743 13.3855 29.5518C13.5148 29.5283 13.6827 29.4837 13.9494 29.4123L15.6069 28.9682C15.8736 28.8967 16.0412 28.8513 16.165 28.8071C16.2827 28.765 16.3136 28.7395 16.3224 28.7316C16.3847 28.6755 16.4277 28.6011 16.4451 28.519C16.4476 28.5075 16.4542 28.468 16.4318 28.3451C16.4083 28.2157 16.3638 28.0478 16.2924 27.7811L15.8486 26.1235C15.7772 25.8568 15.7319 25.6892 15.6876 25.5653C15.6456 25.4476 15.6201 25.4168 15.6122 25.408C15.5561 25.3457 15.4817 25.3027 15.3997 25.2852C15.3881 25.2828 15.3487 25.2762 15.2257 25.2986C15.0963 25.3221 14.9285 25.3667 14.6618 25.4381L13.0043 25.8823C12.7376 25.9537 12.57 25.9991 12.4461 26.0434Z" fill="#8AB8D1" style="fill:#8AB8D1;fill:color(display-p3 0.5403 0.7217 0.8212);fill-opacity:1;"/>
  <path d="M18.7379 18.1776C18.4836 18.2457 18.3327 18.5071 18.4008 18.7614L18.5651 19.3753C18.6332 19.6296 18.8945 19.7805 19.1488 19.7124L19.7627 19.5479C20.017 19.4798 20.1679 19.2184 20.0998 18.9641L19.9355 18.3502C19.8674 18.0959 19.6061 17.945 19.3518 18.0131L18.7379 18.1776Z" fill="#8AB8D1" style="fill:#8AB8D1;fill:color(display-p3 0.5403 0.7217 0.8212);fill-opacity:1;"/>
  <path fill-rule="evenodd" clip-rule="evenodd" d="M17.6413 16.2508C17.4006 16.3153 17.1885 16.3721 17.0167 16.4336C16.834 16.4989 16.6509 16.5845 16.4895 16.7298C16.2526 16.9431 16.0893 17.2259 16.023 17.5377C15.9778 17.75 15.9951 17.9515 16.0299 18.1423C16.0626 18.3218 16.1194 18.534 16.1838 18.7747L16.6383 20.4723C16.7028 20.7131 16.7596 20.9252 16.821 21.097C16.8862 21.2797 16.9718 21.4629 17.117 21.6242C17.3303 21.8611 17.613 22.0244 17.9248 22.0907C18.1371 22.1358 18.3385 22.1184 18.5294 22.0836C18.7088 22.0509 18.921 21.9941 19.1617 21.9296L20.8593 21.4747C21.1 21.4102 21.3121 21.3534 21.4839 21.2919C21.6666 21.2266 21.8497 21.141 22.0111 20.9957C22.248 20.7824 22.4113 20.4996 22.4776 20.1878C22.5228 19.9755 22.5054 19.7741 22.4707 19.5832C22.438 19.4037 22.3812 19.1915 22.3168 18.9508L21.8622 17.2532C21.7978 17.0124 21.741 16.8003 21.6796 16.6285C21.6144 16.4458 21.5288 16.2627 21.3836 16.1013C21.1703 15.8644 20.8876 15.7011 20.5758 15.6349C20.3635 15.5897 20.1621 15.6071 19.9712 15.6419C19.7917 15.6746 19.5796 15.7315 19.3389 15.796L17.6413 16.2508ZM17.2335 17.5563C17.2423 17.5485 17.2731 17.523 17.3908 17.4809C17.5147 17.4366 17.6823 17.3913 17.949 17.3198L19.6065 16.8757C19.8732 16.8042 20.0411 16.7597 20.1704 16.7361C20.2934 16.7137 20.3328 16.7203 20.3444 16.7228C20.4264 16.7402 20.5008 16.7832 20.5569 16.8455C20.5648 16.8543 20.5903 16.8852 20.6323 17.0029C20.6766 17.1267 20.7219 17.2943 20.7933 17.5611L21.2371 19.2186C21.3085 19.4854 21.353 19.6532 21.3766 19.7826C21.3989 19.9056 21.3923 19.945 21.3898 19.9566C21.3724 20.0386 21.3294 20.113 21.2671 20.1692C21.2583 20.1771 21.2274 20.2025 21.1098 20.2446C20.9859 20.2889 20.8183 20.3342 20.5516 20.4057L18.8941 20.8498C18.6274 20.9213 18.4595 20.9658 18.3302 20.9894C18.2072 21.0118 18.1677 21.0052 18.1562 21.0027C18.0742 20.9853 17.9998 20.9423 17.9437 20.88C17.9358 20.8712 17.9103 20.8404 17.8683 20.7226C17.824 20.5988 17.7787 20.4312 17.7073 20.1644L17.2635 18.5069C17.1921 18.2401 17.1476 18.0723 17.124 17.9429C17.1016 17.8199 17.1083 17.7805 17.1107 17.769C17.1282 17.6869 17.1712 17.6125 17.2335 17.5563Z" fill="#8AB8D1" style="fill:#8AB8D1;fill:color(display-p3 0.5403 0.7217 0.8212);fill-opacity:1;"/>
  <path d="M18.4057 23.6948C18.1514 23.7629 18.0005 24.0243 18.0686 24.2786L18.2329 24.8925C18.301 25.1468 18.5623 25.2977 18.8166 25.2295L19.4305 25.0651C19.6848 24.9969 19.8357 24.7355 19.7676 24.4813L19.6033 23.8673C19.5352 23.613 19.2739 23.4621 19.0196 23.5303L18.4057 23.6948Z" fill="#8AB8D1" style="fill:#8AB8D1;fill:color(display-p3 0.5403 0.7217 0.8212);fill-opacity:1;"/>
  <path d="M20.2088 25.5145C20.1407 25.2602 20.2916 24.9988 20.5459 24.9307L21.1598 24.7662C21.4141 24.6981 21.6754 24.849 21.7435 25.1033L21.9078 25.7172C21.9759 25.9715 21.825 26.2328 21.5707 26.301L20.9568 26.4655C20.7025 26.5336 20.4412 26.3827 20.3731 26.1284L20.2088 25.5145Z" fill="#8AB8D1" style="fill:#8AB8D1;fill:color(display-p3 0.5403 0.7217 0.8212);fill-opacity:1;"/>
  <path d="M22.3489 26.7504C22.2808 26.4961 22.4318 26.2347 22.6861 26.1666L23.2999 26.0021C23.5542 25.934 23.8156 26.0849 23.8836 26.3392L24.048 26.9531C24.1161 27.2074 23.9651 27.4688 23.7109 27.5369L23.097 27.7014C22.8427 27.7695 22.5814 27.6186 22.5133 27.3643L22.3489 26.7504Z" fill="#8AB8D1" style="fill:#8AB8D1;fill:color(display-p3 0.5403 0.7217 0.8212);fill-opacity:1;"/>
  <path d="M21.7821 22.7901C21.5278 22.8582 21.3768 23.1196 21.4449 23.3739L21.6093 23.9878C21.6774 24.2421 21.9387 24.393 22.193 24.3249L22.8069 24.1604C23.0611 24.0922 23.2121 23.8309 23.144 23.5766L22.9796 22.9626C22.9116 22.7084 22.6502 22.5574 22.396 22.6256L21.7821 22.7901Z" fill="#8AB8D1" style="fill:#8AB8D1;fill:color(display-p3 0.5403 0.7217 0.8212);fill-opacity:1;"/>
  <path d="M18.9726 27.6551C18.9045 27.4008 19.0554 27.1394 19.3097 27.0713L19.9236 26.9068C20.1779 26.8387 20.4392 26.9896 20.5073 27.2439L20.6716 27.8578C20.7397 28.1121 20.5888 28.3735 20.3345 28.4416L19.7206 28.6061C19.4663 28.6742 19.205 28.5233 19.1369 28.269L18.9726 27.6551Z" fill="#8AB8D1" style="fill:#8AB8D1;fill:color(display-p3 0.5403 0.7217 0.8212);fill-opacity:1;"/>

  <rect x="10.3" y="0.845" width="28.9" height="28.9" fill="#88A5E4" style="fill:#88A5E4;fill:color(display-p3 0.5328 0.6468 0.8924);fill-opacity:1;stroke:#6384CB;stroke:color(display-p3 0.3887 0.5181 0.7969);" stroke-width="1.65" stroke="#6384cb" rx="7.7"/>

  <path d="M15.4267 8.59483C15.427 7.12399 16.6196 5.93163 18.0905 5.93163H31.4065C32.8774 5.93163 34.0695 7.12399 34.0692 8.59483L34.0664 21.9109C34.0661 23.3817 32.8735 24.5741 31.4027 24.5741H18.0867C16.6158 24.5741 15.4237 23.3817 15.424 21.9109L15.4267 8.59483Z" fill="white" style="fill:white;fill-opacity:1;"/>
  <path d="M20.4578 11.4397C20.4579 11.1764 20.6713 10.963 20.9346 10.963H21.5701C21.8334 10.963 22.0467 11.1764 22.0467 11.4397L22.0466 12.0752C22.0465 12.3385 21.8331 12.5519 21.5698 12.5519H20.9343C20.671 12.5519 20.4577 12.3385 20.4577 12.0752L20.4578 11.4397Z" fill="#6384CB" style="fill:#6384CB;fill:color(display-p3 0.3887 0.5181 0.7969);fill-opacity:1;"/>
  <path fill-rule="evenodd" clip-rule="evenodd" d="M20.3741 8.81808H22.1315C22.3807 8.81807 22.6004 8.81806 22.7822 8.83292C22.9755 8.84871 23.1746 8.88404 23.368 8.9826C23.652 9.12731 23.8828 9.35822 24.0275 9.64223C24.126 9.83565 24.1613 10.0347 24.177 10.2281C24.1919 10.4099 24.1918 10.6295 24.1917 10.8787L24.1914 12.6362C24.1913 12.8854 24.1913 13.105 24.1764 13.2868C24.1606 13.4802 24.1252 13.6792 24.0266 13.8727C23.8818 14.1567 23.6509 14.3876 23.3668 14.5323C23.1734 14.6308 22.9743 14.6662 22.781 14.682C22.5992 14.6968 22.3795 14.6968 22.1303 14.6968H20.3729C20.1237 14.6968 19.904 14.6968 19.7222 14.682C19.5289 14.6662 19.3298 14.6308 19.1364 14.5323C18.8524 14.3876 18.6216 14.1567 18.4769 13.8727C18.3784 13.6792 18.3431 13.4802 18.3274 13.2868C18.3125 13.105 18.3126 12.8854 18.3127 12.6361L18.313 10.8787C18.3131 10.6295 18.3131 10.4099 18.328 10.2281C18.3438 10.0347 18.3792 9.83565 18.4778 9.64223C18.6226 9.35822 18.8535 9.12731 19.1376 8.9826C19.331 8.88404 19.53 8.84871 19.7234 8.83292C19.9052 8.81806 20.1249 8.81807 20.3741 8.81808ZM19.8137 9.94141C19.6892 9.95159 19.6528 9.96821 19.6423 9.97357C19.5675 10.0116 19.5067 10.0724 19.4687 10.1472C19.4633 10.1577 19.4467 10.194 19.4365 10.3186C19.4257 10.4497 19.4253 10.6233 19.4252 10.8995L19.4249 12.6154C19.4248 12.8915 19.4252 13.0652 19.4359 13.1963C19.446 13.3208 19.4626 13.3572 19.468 13.3677C19.5061 13.4425 19.5668 13.5032 19.6415 13.5413C19.652 13.5467 19.6884 13.5633 19.813 13.5735C19.9441 13.5842 20.1177 13.5846 20.3938 13.5846H22.1098C22.3859 13.5846 22.5596 13.5842 22.6906 13.5735C22.8152 13.5633 22.8516 13.5467 22.8621 13.5413C22.9369 13.5032 22.9976 13.4425 23.0357 13.3677C23.0411 13.3572 23.0577 13.3208 23.0679 13.1963C23.0787 13.0652 23.0791 12.8915 23.0792 12.6154L23.0795 10.8995C23.0796 10.6233 23.0792 10.4497 23.0685 10.3186C23.0584 10.194 23.0418 10.1577 23.0364 10.1472C22.9983 10.0724 22.9376 10.0116 22.8629 9.97357C22.8524 9.96821 22.816 9.95159 22.6914 9.94141C22.5603 9.9307 22.3867 9.93027 22.1105 9.93027H20.3946C20.1185 9.93027 19.9448 9.9307 19.8137 9.94141Z" fill="#6384CB" style="fill:#6384CB;fill:color(display-p3 0.3887 0.5181 0.7969);fill-opacity:1;"/>
  <path d="M20.9332 17.9539C20.6699 17.9539 20.4565 18.1673 20.4564 18.4306L20.4563 19.0661C20.4562 19.3294 20.6696 19.5428 20.9328 19.5428H21.5684C21.8316 19.5428 22.0451 19.3294 22.0451 19.0661L22.0452 18.4306C22.0453 18.1673 21.8319 17.9539 21.5687 17.9539H20.9332Z" fill="#6384CB" style="fill:#6384CB;fill:color(display-p3 0.3887 0.5181 0.7969);fill-opacity:1;"/>
  <path fill-rule="evenodd" clip-rule="evenodd" d="M20.3727 15.809H22.1301C22.3793 15.809 22.5989 15.809 22.7808 15.8238C22.9741 15.8396 23.1731 15.875 23.3665 15.9735C23.6505 16.1182 23.8814 16.3491 24.026 16.6331C24.1246 16.8266 24.1598 17.0256 24.1756 17.219C24.1904 17.4008 24.1904 17.6204 24.1903 17.8696L24.1899 19.6271C24.1899 19.8763 24.1899 20.0959 24.175 20.2777C24.1591 20.4711 24.1238 20.6701 24.0252 20.8636C23.8804 21.1476 23.6494 21.3785 23.3654 21.5232C23.172 21.6217 22.9729 21.6571 22.7795 21.6729C22.5977 21.6877 22.3781 21.6877 22.1289 21.6877H20.3714C20.1222 21.6877 19.9026 21.6877 19.7208 21.6729C19.5274 21.6571 19.3284 21.6217 19.135 21.5232C18.851 21.3785 18.6201 21.1476 18.4755 20.8636C18.377 20.6701 18.3417 20.4711 18.3259 20.2777C18.3111 20.0959 18.3112 19.8763 18.3112 19.6271L18.3116 17.8696C18.3116 17.6204 18.3117 17.4008 18.3265 17.219C18.3424 17.0256 18.3778 16.8266 18.4763 16.6331C18.6211 16.3491 18.8521 16.1182 19.1361 15.9735C19.3296 15.875 19.5286 15.8396 19.722 15.8238C19.9038 15.809 20.1234 15.809 20.3727 15.809ZM19.8123 16.9323C19.6877 16.9425 19.6513 16.9591 19.6408 16.9645C19.5661 17.0026 19.5053 17.0633 19.4672 17.1381C19.4619 17.1486 19.4452 17.185 19.435 17.3095C19.4243 17.4406 19.4238 17.6143 19.4238 17.8904L19.4234 19.6063C19.4234 19.8825 19.4238 20.0561 19.4344 20.1872C19.4446 20.3117 19.4612 20.3481 19.4666 20.3586C19.5046 20.4334 19.5654 20.4941 19.6401 20.5322C19.6506 20.5376 19.687 20.5542 19.8116 20.5644C19.9426 20.5751 20.1163 20.5755 20.3924 20.5755H22.1084C22.3845 20.5755 22.5581 20.5751 22.6892 20.5644C22.8138 20.5542 22.8502 20.5376 22.8607 20.5322C22.9354 20.4941 22.9962 20.4334 23.0343 20.3586C23.0397 20.3481 23.0563 20.3117 23.0665 20.1872C23.0772 20.0561 23.0777 19.8825 23.0778 19.6063L23.0781 17.8904C23.0782 17.6143 23.0778 17.4406 23.0671 17.3095C23.0569 17.185 23.0403 17.1486 23.035 17.1381C22.9969 17.0633 22.9361 17.0026 22.8614 16.9645C22.8509 16.9591 22.8145 16.9425 22.69 16.9323C22.5589 16.9216 22.3852 16.9212 22.1091 16.9212H20.3932C20.117 16.9212 19.9434 16.9216 19.8123 16.9323Z" fill="#6384CB" style="fill:#6384CB;fill:color(display-p3 0.3887 0.5181 0.7969);fill-opacity:1;"/>
  <path d="M27.9255 10.963C27.6623 10.963 27.4488 11.1764 27.4487 11.4397L27.4486 12.0752C27.4486 12.3385 27.6619 12.5519 27.9252 12.5519H28.5607C28.824 12.5519 29.0374 12.3385 29.0375 12.0752L29.0376 11.4397C29.0376 11.1764 28.8243 10.963 28.561 10.963H27.9255Z" fill="#6384CB" style="fill:#6384CB;fill:color(display-p3 0.3887 0.5181 0.7969);fill-opacity:1;"/>
  <path fill-rule="evenodd" clip-rule="evenodd" d="M27.365 8.81808C27.1158 8.81807 26.8962 8.81806 26.7143 8.83292C26.521 8.84871 26.3219 8.88404 26.1285 8.9826C25.8444 9.12731 25.6135 9.35822 25.4687 9.64223C25.3701 9.83565 25.3347 10.0347 25.3189 10.2281C25.304 10.4099 25.304 10.6295 25.3039 10.8787L25.3036 12.6361C25.3035 12.8854 25.3034 13.105 25.3183 13.2868C25.334 13.4802 25.3693 13.6792 25.4678 13.8727C25.6125 14.1567 25.8433 14.3876 26.1273 14.5323C26.3207 14.6308 26.5198 14.6662 26.7131 14.682C26.8949 14.6968 27.1146 14.6968 27.3637 14.6968H29.1212C29.3704 14.6968 29.5901 14.6968 29.7719 14.682C29.9653 14.6662 30.1643 14.6308 30.3577 14.5323C30.6418 14.3876 30.8727 14.1567 31.0175 13.8727C31.1161 13.6792 31.1515 13.4802 31.1673 13.2868C31.1822 13.105 31.1822 12.8854 31.1823 12.6362L31.1826 10.8787C31.1827 10.6295 31.1828 10.4099 31.1679 10.2281C31.1522 10.0347 31.1169 9.83565 31.0184 9.64223C30.8737 9.35822 30.6429 9.12731 30.3589 8.9826C30.1655 8.88404 29.9664 8.84871 29.7731 8.83292C29.5913 8.81806 29.3716 8.81807 29.1224 8.81808H27.365ZM26.6332 9.97357C26.6437 9.96821 26.6801 9.95159 26.8047 9.94141C26.9357 9.9307 27.1094 9.93027 27.3855 9.93027H29.1015C29.3776 9.93027 29.5512 9.9307 29.6823 9.94141C29.8069 9.95159 29.8433 9.96821 29.8538 9.97357C29.9285 10.0116 29.9892 10.0724 30.0273 10.1472C30.0327 10.1577 30.0493 10.194 30.0594 10.3186C30.0701 10.4497 30.0705 10.6233 30.0705 10.8995L30.0701 12.6154C30.07 12.8915 30.0696 13.0652 30.0588 13.1963C30.0486 13.3208 30.032 13.3572 30.0267 13.3677C29.9886 13.4425 29.9278 13.5032 29.853 13.5413C29.8425 13.5467 29.8061 13.5633 29.6816 13.5735C29.5505 13.5842 29.3768 13.5846 29.1007 13.5846H27.3848C27.1086 13.5846 26.935 13.5842 26.8039 13.5735C26.6793 13.5633 26.643 13.5467 26.6325 13.5413C26.5577 13.5032 26.497 13.4425 26.4589 13.3677C26.4536 13.3572 26.4369 13.3208 26.4268 13.1963C26.4161 13.0652 26.4157 12.8915 26.4158 12.6154L26.4161 10.8995C26.4162 10.6233 26.4166 10.4497 26.4274 10.3186C26.4376 10.194 26.4542 10.1577 26.4596 10.1472C26.4977 10.0724 26.5584 10.0116 26.6332 9.97357Z" fill="#6384CB" style="fill:#6384CB;fill:color(display-p3 0.3887 0.5181 0.7969);fill-opacity:1;"/>
  <path d="M26.1767 16.2062C25.9134 16.2062 25.7 16.4196 25.6999 16.6829L25.6998 17.3184C25.6998 17.5816 25.9131 17.795 26.1764 17.795H26.8119C27.0752 17.795 27.2886 17.5816 27.2887 17.3184L27.2888 16.6829C27.2888 16.4196 27.0755 16.2062 26.8122 16.2062H26.1767Z" fill="#6384CB" style="fill:#6384CB;fill:color(display-p3 0.3887 0.5181 0.7969);fill-opacity:1;"/>
  <path d="M27.4473 18.4306C27.4474 18.1673 27.6608 17.9539 27.9241 17.9539H28.5596C28.8228 17.9539 29.0362 18.1673 29.0362 18.4306L29.036 19.0661C29.036 19.3294 28.8225 19.5428 28.5593 19.5428H27.9237C27.6605 19.5428 27.4471 19.3294 27.4472 19.0661L27.4473 18.4306Z" fill="#6384CB" style="fill:#6384CB;fill:color(display-p3 0.3887 0.5181 0.7969);fill-opacity:1;"/>
  <path d="M29.1947 20.1783C29.1947 19.9151 29.4082 19.7017 29.6714 19.7017H30.307C30.5702 19.7017 30.7836 19.9151 30.7835 20.1783L30.7834 20.8138C30.7833 21.0771 30.5699 21.2905 30.3066 21.2905H29.6711C29.4079 21.2905 29.1945 21.0771 29.1946 20.8138L29.1947 20.1783Z" fill="#6384CB" style="fill:#6384CB;fill:color(display-p3 0.3887 0.5181 0.7969);fill-opacity:1;"/>
  <path d="M29.6722 16.2062C29.4089 16.2062 29.1955 16.4196 29.1954 16.6829L29.1953 17.3184C29.1952 17.5816 29.4086 17.795 29.6718 17.795H30.3074C30.5706 17.795 30.7841 17.5816 30.7841 17.3184L30.7842 16.6829C30.7843 16.4196 30.5709 16.2062 30.3077 16.2062H29.6722Z" fill="#6384CB" style="fill:#6384CB;fill:color(display-p3 0.3887 0.5181 0.7969);fill-opacity:1;"/>
  <path d="M25.6992 20.1783C25.6993 19.9151 25.9127 19.7017 26.176 19.7017H26.8115C27.0748 19.7017 27.2881 19.9151 27.2881 20.1783L27.2879 20.8138C27.2879 21.0771 27.0744 21.2905 26.8112 21.2905H26.1757C25.9124 21.2905 25.699 21.0771 25.6991 20.8138L25.6992 20.1783Z" fill="#6384CB" style="fill:#6384CB;fill:color(display-p3 0.3887 0.5181 0.7969);fill-opacity:1;"/>
</svg>
