<svg height="12" viewBox="0 0 18 12" width="18" xmlns="http://www.w3.org/2000/svg" xmlns:xlink="http://www.w3.org/1999/xlink"><mask id="a" fill="#fff"><path d="m7.91731278.31325719c-1.76677902 1.27066705-2.91731278 3.34434415-2.91731278 5.68674281 0 .343797.0247846.68180525.07266453 1.01233547l-.07266453.07266453-1.795-1.79-.705.705 2.5 2.5.33970233-.33970233c.46469584 1.43369719 1.3794459 2.66472543 2.57761045 3.52644513-.60212935.203133-1.24693879.3132572-1.91731278.3132572-3.312 0-6-2.688-6-6s2.688-6 6-6c.67037399 0 1.31518343.11012424 1.91731278.31325719zm4.08268722-.31325719c3.312 0 6 2.688 6 6s-2.688 6-6 6-6-2.688-6-6 2.688-6 6-6zm-1 8.5 4.5-4.5-.705-.71-3.795 3.795-1.795-1.79-.705.705z" fill="#fff" fill-rule="evenodd"/></mask><g fill="none" fill-rule="evenodd" mask="url(#a)"><path d="m0 0h18v12h-18z" fill="#000" fill-rule="evenodd"/></g></svg>