<svg height="12" width="18" xmlns="http://www.w3.org/2000/svg">
  <mask id="a" fill="#fff">
    <path d="M7.917.313a6.99 6.99 0 00-2.844 6.7L5 7.084l-1.795-1.79L2.5 6 5 8.5l.34-.34a7.015 7.015 0 002.577 3.527A6.002 6.002 0 010 6 6.002 6.002 0 017.917.313zM12 0c3.312 0 6 2.688 6 6s-2.688 6-6 6-6-2.688-6-6 2.688-6 6-6zm-1 8.5L15.5 4l-.705-.71L11 7.085l-1.795-1.79L8.5 6z" fill-rule="evenodd"/>
  </mask>
  <g fill="none" fill-rule="evenodd" mask="url(#a)">
    <path d="M0 0h18v12H0z" fill="#000"/>
  </g>
</svg>
