<?xml version="1.0" encoding="utf-8"?>
<!-- Generator: Adobe Illustrator 23.0.3, SVG Export Plug-In . SVG Version: 6.00 Build 0)  -->
<svg version="1.1" id="Export" xmlns="http://www.w3.org/2000/svg" xmlns:xlink="http://www.w3.org/1999/xlink" x="0px" y="0px"
	 viewBox="0 0 20 20" style="enable-background:new 0 0 20 20;" xml:space="preserve">
<path d="M10,2.5c4.1,0,7.5,3.4,7.5,7.5s-3.4,7.5-7.5,7.5S2.5,14.1,2.5,10S5.9,2.5,10,2.5 M10,1c-5,0-9,4-9,9s4,9,9,9s9-4,9-9
	S15,1,10,1z M11,4h-1L9.6,9.6L5,10v1l5.5,0.5c0.6,0,1-0.4,1-1L11,4z"/>
</svg>
