<?xml version="1.0" encoding="utf-8"?>
<!-- Generator: Adobe Illustrator 23.0.3, SVG Export Plug-In . SVG Version: 6.00 Build 0)  -->
<svg version="1.1" id="Export" xmlns="http://www.w3.org/2000/svg" xmlns:xlink="http://www.w3.org/1999/xlink" x="0px" y="0px"
	 viewBox="0 0 24 24" style="enable-background:new 0 0 24 24;" xml:space="preserve">
<path d="M12,2.5c5.2,0,9.5,4.3,9.5,9.5s-4.3,9.5-9.5,9.5S2.5,17.2,2.5,12C2.5,6.8,6.8,2.5,12,2.5 M12,1C5.9,1,1,5.9,1,12
	s4.9,11,11,11s11-4.9,11-11S18.1,1,12,1z M13,4h-1l-0.4,7.6L5,12v1l7.5,0.5c0.6,0,1-0.4,1-1L13,4z"/>
</svg>
