<svg xmlns="http://www.w3.org/2000/svg" id="Export" width="160" height="160"><defs><style>.cls-6{fill:#401968}</style></defs><circle cx="80" cy="80" r="80" style="fill:#e3e3fe"/><path d="M158.63 94.68A80 80 0 1 0 .8 91.2c59.69-11.94 119.98-9.09 157.83 3.48" style="fill:#c5c5ef"/><path d="m111.5 19.83-.31.47.14-.3s-27 3.67-39.66 20.33-20.34 52.4-20.34 52.4A25.3 25.3 0 0 0 64 104a.88.88 0 0 0 .56 0 25.24 25.24 0 0 0 16.27 5s26.46-25.2 34.05-44.71-3.38-44.46-3.38-44.46" style="fill:#cde4cd"/><path d="m110.8 22.07-.41.05c-1.67 8.09-5.51 25-11.06 39.21-5.84 15-21.61 35.31-28.59 43.89a28 28 0 0 0 9.26 2s25.23-23.77 33.26-42.93c7.4-17.63-2.46-42.22-2.46-42.22" style="fill:#aca"/><circle cx="87" cy="61.67" r="12.67" style="fill:#fdf1c0"/><path d="M92 47.88a14.66 14.66 0 1 0 9.67 13.79A14.9 14.9 0 0 0 92 47.88m-1.22 23.77a10.67 10.67 0 1 1 6.89-10 10.79 10.79 0 0 1-6.89 10M119 40.06a79.8 79.8 0 0 0-5.43-20.51 1.8 1.8 0 0 0-.29-.71 2 2 0 0 0-2.74-.72 75.7 75.7 0 0 0-15.65 4.2C85 26 75.69 31.45 69.44 40c-6.1 8.35-9.95 18.4-13.26 28.12-.57 1.68-1.11 3.36-1.65 5l-5.4 1.45a1 1 0 0 0-.62.49l-14.78 28.8a1 1 0 0 0 1.36 1.28l15.8-9.28a26.6 26.6 0 0 0 4.42 5 30 30 0 0 0 3.47 2.61l-7.12 15.13a1.91 1.91 0 0 0 3.34 1.83l10-13.63c.75.44 1.56.83 2.24 1.17a29.3 29.3 0 0 0 4.63 1.87 27.5 27.5 0 0 0 5.8 1.16v18.54a1 1 0 0 0 1.79.52l17.31-27.36a.94.94 0 0 0 .11-.78l-1.49-5.39 1.24-1.41C103.08 87.65 109.32 79.74 114 71a45.1 45.1 0 0 0 5-14.27 59 59 0 0 0 0-16.67M114.43 59c-1.89 7.86-6.5 14.93-11.17 21.41a193 193 0 0 1-15 18c-2.7 2.93-5.45 5.81-8.32 8.57a22.36 22.36 0 0 1-11.12-2.71c-.66-.35-1.3-.72-1.92-1.12l8.59-17.13a1.91 1.91 0 0 0-3.29-1.93l-11.33 16-.87-.59a24.7 24.7 0 0 1-5.11-4.86 19 19 0 0 1-1.47-2.18 201.6 201.6 0 0 1 10.5-33.66c3.12-7.57 6.9-15.43 12.85-21.2S90.25 28.08 98 25.43a78 78 0 0 1 12.34-3.26c.23.61.47 1.21.68 1.83a87 87 0 0 1 2.66 9.1c1.93 8.41 2.78 17.43.75 25.9m-54.38 87.38q-1.81 3.3-3.74 6.54a2 2 0 0 1-3.46-2q1.93-3.24 3.74-6.54a2 2 0 1 1 3.46 2m3.11-15.55-.08.19c0-.06.09-.21.11-.26l.22-.54a2.45 2.45 0 0 1 .92-1.2 2 2 0 0 1 2.74.72 2 2 0 0 1 .2 1.54c-1.13 2.72-2.32 5.41-3.61 8.07a2 2 0 0 1-2.73.72 2.05 2.05 0 0 1-.72-2.74c.59-1.23 1.17-2.46 1.73-3.7l.81-1.84c.13-.32.25-.63.41-.96" class="cls-6"/><path d="M72.69 115.62a2 2 0 0 1 .2 1.54c-1 2.41-1.9 4.82-2.85 7.23a2.3 2.3 0 0 1-.92 1.2 2 2 0 0 1-2.73-.72 2 2 0 0 1-.2-1.54L69 116.1a2.34 2.34 0 0 1 .92-1.2 2.06 2.06 0 0 1 1.54-.2 2.1 2.1 0 0 1 1.23.92m-47.8 22.09a2 2 0 0 1-.72-2.73c1.26-2.18 2.55-4.33 3.89-6.46a2 2 0 0 1 2.73-.71 2 2 0 0 1 .72 2.73c-1.33 2.13-2.63 4.28-3.88 6.46a2 2 0 0 1-2.74.71m14.93-19.12c-.07 0-.26.35-.31.41l-1.23 1.63c-.82 1.1-1.61 2.21-2.4 3.32a2 2 0 0 1-2.73.72 2 2 0 0 1-.72-2.73c1.69-2.42 3.45-4.77 5.28-7.08a1.9 1.9 0 0 1 1.41-.59 2 2 0 0 1 2 2 2.12 2.12 0 0 1-.59 1.41l-.63.81-.15.2c-.14.17-.11.14.07-.1m3.96-6.1a2 2 0 0 1-2-2 2.12 2.12 0 0 1 .59-1.41l4.92-6a1.9 1.9 0 0 1 1.41-.59 2 2 0 0 1 1.42.59 2 2 0 0 1 .58 1.41 2.2 2.2 0 0 1-.58 1.42l-4.92 6a1.93 1.93 0 0 1-1.42.58" class="cls-6"/></svg>