<svg id="Export" xmlns="http://www.w3.org/2000/svg" width="160" height="160" viewBox="0 0 160 160">
  <defs>
    <style>
      .cls-1 {
        fill: #e3e3fe;
      }

      .cls-2 {
        fill: #c5c5ef;
      }

      .cls-3 {
        fill: #cde4cd;
      }

      .cls-4 {
        fill: #aca;
      }

      .cls-5 {
        fill: #fdf1c0;
      }

      .cls-6 {
        fill: #401968;
      }
    </style>
  </defs>
  <circle class="cls-1" cx="80" cy="80" r="80"/>
  <path class="cls-2" d="M158.63,94.68A80,80,0,1,0,.8,91.2C60.49,79.26,120.78,82.11,158.63,94.68Z"/>
  <path class="cls-3" d="M111.5,19.83l-.31.47.14-.3s-27,3.67-39.66,20.33-20.34,52.4-20.34,52.4A25.29,25.29,0,0,0,64,104a.88.88,0,0,0,.56,0,.1.1,0,0,0,0,0A25.24,25.24,0,0,0,80.83,109s26.46-25.2,34.05-44.71S111.5,19.83,111.5,19.83Z"/>
  <path class="cls-4" d="M110.8,22.07l-.41.05c-1.67,8.09-5.51,25-11.06,39.21-5.84,15-21.61,35.31-28.59,43.89a27.94,27.94,0,0,0,9.26,2s25.23-23.77,33.26-42.93C120.66,46.66,110.8,22.07,110.8,22.07Z"/>
  <circle class="cls-5" cx="87" cy="61.67" r="12.67"/>
  <path class="cls-6" d="M92,47.88a14.66,14.66,0,1,0,9.67,13.79A14.9,14.9,0,0,0,92,47.88ZM90.78,71.65a10.67,10.67,0,1,1,6.89-10A10.79,10.79,0,0,1,90.78,71.65ZM119,40.06a79.77,79.77,0,0,0-5.43-20.51,1.78,1.78,0,0,0-.29-.71v0a2,2,0,0,0-2.74-.72l0,0a75.7,75.7,0,0,0-15.65,4.2C85,26,75.69,31.45,69.44,40c-6.1,8.35-9.95,18.4-13.26,28.12-.57,1.68-1.11,3.36-1.65,5l-5.4,1.45a1,1,0,0,0-.62.49L33.73,103.86a1,1,0,0,0,1.36,1.28l15.8-9.28a26.61,26.61,0,0,0,4.42,5,30.25,30.25,0,0,0,3.47,2.61l-7.12,15.13A1.91,1.91,0,0,0,55,120.43L65,106.8c.75.44,1.56.83,2.24,1.17a29.31,29.31,0,0,0,4.63,1.87A27.54,27.54,0,0,0,77.67,111v18.54a1,1,0,0,0,1.79.52L96.77,102.7a.94.94,0,0,0,.11-.78l-1.49-5.39,1.24-1.41C103.08,87.65,109.32,79.74,114,71a45.08,45.08,0,0,0,5-14.27A58.92,58.92,0,0,0,119,40.06ZM114.43,59c-1.89,7.86-6.5,14.93-11.17,21.41a192.84,192.84,0,0,1-15,18c-2.7,2.93-5.45,5.81-8.32,8.57a22.36,22.36,0,0,1-11.12-2.71c-.66-.35-1.3-.72-1.92-1.12l8.59-17.13a1.91,1.91,0,0,0-3.29-1.93l-11.33,16L60,99.5a24.7,24.7,0,0,1-5.11-4.86,18.9,18.9,0,0,1-1.47-2.18A201.62,201.62,0,0,1,63.92,58.8c3.12-7.57,6.9-15.43,12.85-21.2S90.25,28.08,98,25.43a77.83,77.83,0,0,1,12.34-3.26c.23.61.47,1.21.68,1.83a87,87,0,0,1,2.66,9.1C115.61,41.51,116.46,50.53,114.43,59Z"/>
  <path class="cls-6" d="M60.05,146.38q-1.81,3.3-3.74,6.54a2,2,0,0,1-3.46-2q1.93-3.24,3.74-6.54a2,2,0,1,1,3.46,2Z"/>
  <path class="cls-6" d="M63.16,130.83l-.08.19c0-.06.09-.21.11-.26l.22-.54a2.45,2.45,0,0,1,.92-1.2,2,2,0,0,1,2.74.72,2,2,0,0,1,.2,1.54c-1.13,2.72-2.32,5.41-3.61,8.07a2,2,0,0,1-2.73.72,2.05,2.05,0,0,1-.72-2.74c.59-1.23,1.17-2.46,1.73-3.7l.81-1.84C62.88,131.47,63,131.16,63.16,130.83Z"/>
  <path class="cls-6" d="M72.69,115.62a2,2,0,0,1,.2,1.54c-1,2.41-1.9,4.82-2.85,7.23a2.29,2.29,0,0,1-.92,1.2,2,2,0,0,1-2.73-.72,2,2,0,0,1-.2-1.54L69,116.1a2.34,2.34,0,0,1,.92-1.2,2.06,2.06,0,0,1,1.54-.2A2.09,2.09,0,0,1,72.69,115.62Z"/>
  <path class="cls-6" d="M24.89,137.71a2,2,0,0,1-.72-2.73c1.26-2.18,2.55-4.33,3.89-6.46a2,2,0,0,1,2.73-.71,2,2,0,0,1,.72,2.73c-1.33,2.13-2.63,4.28-3.88,6.46A2,2,0,0,1,24.89,137.71Z"/>
  <path class="cls-6" d="M39.82,118.59c-.07,0-.26.35-.31.41l-1.23,1.63c-.82,1.1-1.61,2.21-2.4,3.32a2,2,0,0,1-2.73.72,2,2,0,0,1-.72-2.73c1.69-2.42,3.45-4.77,5.28-7.08a1.91,1.91,0,0,1,1.41-.59,2,2,0,0,1,2,2,2.12,2.12,0,0,1-.59,1.41l-.63.81-.15.2C39.61,118.86,39.64,118.83,39.82,118.59Z"/>
  <path class="cls-6" d="M43.78,112.49a2,2,0,0,1-2-2,2.12,2.12,0,0,1,.59-1.41l4.92-6a1.91,1.91,0,0,1,1.41-.59,2,2,0,0,1,1.42.59,2,2,0,0,1,.58,1.41,2.2,2.2,0,0,1-.58,1.42l-4.92,6A1.93,1.93,0,0,1,43.78,112.49Z"/>
</svg>
