<svg xmlns="http://www.w3.org/2000/svg" width="48" height="48" fill="none"><rect width="20" height="32" x="29.349" y="6" fill="#86A1E3" stroke="#3D62BC" stroke-width="1.75" rx="4" transform="rotate(25 29.349 6)"/><g clip-path="url(#a)"><path fill="#fff" d="M36.711 19.426a.563.563 0 1 0-.596-.954l-3.123 1.95-.3-1.314a.563.563 0 0 0-1.097.25l.476 2.085a.563.563 0 0 0 .846.351z"/><path fill="#fff" fill-rule="evenodd" d="M30.639 24.377a1.69 1.69 0 0 0 1.929.9l2.272-.571a5.06 5.06 0 0 0 3.143-2.364l1.376-2.364a1.69 1.69 0 0 0-.299-2.074l-2.071-1.961a3.56 3.56 0 0 0-2.042-.952l-2.834-.326a1.69 1.69 0 0 0-1.78 1.104l-.927 2.574a5.06 5.06 0 0 0 .21 3.927zm1.655-.191a.56.56 0 0 1-.643-.3l-1.024-2.108a3.94 3.94 0 0 1-.163-3.054l.927-2.573a.56.56 0 0 1 .594-.369l2.833.326c.524.06 1.015.29 1.398.652l2.07 1.961c.19.18.231.466.1.691l-1.375 2.364a3.94 3.94 0 0 1-2.445 1.839z" clip-rule="evenodd"/><path stroke="#fff" stroke-width=".25" d="M36.711 19.426a.563.563 0 1 0-.596-.954l-3.123 1.95-.3-1.314a.563.563 0 0 0-1.097.25l.476 2.085a.563.563 0 0 0 .846.351z"/><path stroke="#fff" stroke-width=".25" d="M30.639 24.377a1.69 1.69 0 0 0 1.929.9l2.272-.571a5.06 5.06 0 0 0 3.143-2.364l1.376-2.364a1.69 1.69 0 0 0-.299-2.074l-2.071-1.961a3.56 3.56 0 0 0-2.042-.952l-2.834-.326a1.69 1.69 0 0 0-1.78 1.104l-.927 2.574a5.06 5.06 0 0 0 .21 3.927zm1.655-.191a.56.56 0 0 1-.643-.3l-1.024-2.108a3.94 3.94 0 0 1-.163-3.054l.927-2.573a.56.56 0 0 1 .594-.369l2.833.326c.524.06 1.015.29 1.398.652l2.07 1.961c.19.18.231.466.1.691l-1.375 2.364a3.94 3.94 0 0 1-2.445 1.839z" clip-rule="evenodd"/></g><path stroke="#fff" stroke-linecap="round" stroke-width="1.5" d="m28.63 28.836 1.813.845M24.1 26.723l1.812.845m7.25 3.382 1.813.845m-7.612-.24 1.812.845m-6.344-2.958 1.813.845m7.25 3.381 1.813.845m-7.612-.239 1.812.845m-6.344-2.959 1.813.846m7.251 3.381 1.812.845"/><rect width="20" height="32" y="14.452" fill="#EBEAE8" stroke="#837D72" stroke-width="1.75" rx="4" transform="rotate(-25 0 14.452)"/><g clip-path="url(#b)"><path fill="#837D72" d="M15.017 17.443a.562.562 0 0 0-1.114-.158l-.514 3.647-1.2-.615a.563.563 0 0 0-.512 1.002l1.902.974a.563.563 0 0 0 .814-.422z"/><path fill="#837D72" fill-rule="evenodd" d="M14.907 25.277a1.69 1.69 0 0 0 1.929-.9l1.023-2.107a5.06 5.06 0 0 0 .21-3.927l-.927-2.574a1.69 1.69 0 0 0-1.78-1.104l-2.834.326a3.56 3.56 0 0 0-2.042.952l-2.072 1.961a1.69 1.69 0 0 0-.298 2.074l1.376 2.364a5.06 5.06 0 0 0 3.142 2.364zm.917-1.391a.56.56 0 0 1-.643.3l-2.273-.571a3.94 3.94 0 0 1-2.444-1.839l-1.376-2.363a.56.56 0 0 1 .1-.692l2.071-1.961a2.44 2.44 0 0 1 1.397-.652l2.834-.326c.26-.03.505.123.594.369l.926 2.573c.36.998.301 2.1-.163 3.054z" clip-rule="evenodd"/><path stroke="#837D72" stroke-width=".25" d="M15.017 17.443a.562.562 0 0 0-1.114-.158l-.514 3.647-1.2-.615a.563.563 0 0 0-.512 1.002l1.902.974a.563.563 0 0 0 .814-.422z"/><path stroke="#837D72" stroke-width=".25" d="M14.907 25.277a1.69 1.69 0 0 0 1.929-.9l1.023-2.107a5.06 5.06 0 0 0 .21-3.927l-.927-2.574a1.69 1.69 0 0 0-1.78-1.104l-2.834.326a3.56 3.56 0 0 0-2.042.952l-2.072 1.961a1.69 1.69 0 0 0-.298 2.074l1.376 2.364a5.06 5.06 0 0 0 3.142 2.364zm.917-1.391a.56.56 0 0 1-.643.3l-2.273-.571a3.94 3.94 0 0 1-2.444-1.839l-1.376-2.363a.56.56 0 0 1 .1-.692l2.071-1.961a2.44 2.44 0 0 1 1.397-.652l2.834-.326c.26-.03.505.123.594.369l.926 2.573c.36.998.301 2.1-.163 3.054z" clip-rule="evenodd"/></g><path stroke="#837D72" stroke-linecap="round" stroke-width="1.5" d="m17.032 29.681 1.812-.845M12.5 31.794l1.813-.845m7.251-3.381 1.812-.845M18.3 32.4l1.812-.845m-6.344 2.958 1.813-.845m7.25-3.381 1.813-.845m-5.077 5.678 1.813-.846m-6.344 2.958 1.813-.845m7.251-3.381 1.812-.845"/><defs><clipPath id="a"><path fill="#fff" d="m30.86 12.222 10.876 5.071-5.07 10.876-10.877-5.071z"/></clipPath><clipPath id="b"><path fill="#fff" d="m5.738 17.294 10.876-5.072 5.071 10.876-10.875 5.071z"/></clipPath></defs></svg>