<svg height="12" viewBox="0 0 12 12" width="12" xmlns="http://www.w3.org/2000/svg"><path d="m11.5 0h1v1h-1zm0 11h1v1h-1zm-5.5-5.5h1v1h-1zm11 0h1v1h-1zm-.0538476-2.9330127.5.8660254-.8660254.5-.5-.8660254zm-9.52627942 5.5.5.8660254-.8660254.5-.5-.8660254zm2.01313972-7.51313972.5.8660254-.8660254.5-.5-.8660254zm5.5 9.52627942.5.8660254-.8660254.5-.5-.8660254zm-.3660254-9.52627942.8660254.5-.5.8660254-.8660254-.5zm-5.5 9.52627942.8660254.5-.5.8660254-.8660254-.5zm-2.01313972-7.5131397.8660254.5-.5.8660254-.8660254-.5zm9.52627942 5.5.8660254.5-.5.8660254-.8660254-.5z" fill-rule="evenodd" transform="translate(-6)"/></svg>