<svg xmlns="http://www.w3.org/2000/svg" width="560" height="160" fill="none"><path fill="#3B45FD" d="M80 0c4.15 0 8.227.316 12.207.925L91.063 8.34A73 73 0 0 0 80 7.5a73 73 0 0 0-11.062.839L67.793.925A80.6 80.6 0 0 1 80 0m18.985 2.266-1.78 7.288a72 72 0 0 1 20.439 8.473l3.895-6.411a79.5 79.5 0 0 0-22.554-9.35m28.294 13.194-4.432 6.05a73 73 0 0 1 15.643 15.644l6.051-4.433a80.5 80.5 0 0 0-17.262-17.262m21.105 23.003-6.411 3.894a72 72 0 0 1 8.473 20.44l7.288-1.78a79.5 79.5 0 0 0-9.35-22.554m10.691 29.331-7.414 1.145c.553 3.606.839 7.3.839 11.062s-.286 7.456-.839 11.063l7.414 1.144A81 81 0 0 0 160 80c0-4.15-.316-8.227-.925-12.207m-17.102 49.852a72 72 0 0 0 8.473-20.44l7.288 1.78a79.5 79.5 0 0 1-9.35 22.554zm-3.483 5.202 6.051 4.432a80.5 80.5 0 0 1-17.262 17.262l-4.433-6.051a72.9 72.9 0 0 0 15.644-15.643m-20.846 19.126 3.894 6.411a79.5 79.5 0 0 1-22.554 9.35l-1.78-7.288a72 72 0 0 0 20.44-8.473m-26.582 9.688 1.145 7.414c-3.98.609-8.057.925-12.207.925s-8.227-.316-12.207-.925l1.144-7.413c3.605.552 7.3.838 11.063.838a73 73 0 0 0 11.062-.839m-28.267-1.213-1.78 7.286a79.4 79.4 0 0 1-17.278-6.406l-7.593 1.772-1.704-7.304 10.26-2.394 2.44 1.243a72 72 0 0 0 15.654 5.803m-34.684-3.175 1.704 7.304-13.015 3.036c-8.66 2.021-16.433-5.752-14.412-14.412l3.036-13.015 7.304 1.704-3.037 13.015c-.757 3.248 2.157 6.162 5.405 5.405zM14.204 125.56 6.9 123.856l1.772-7.593a79.4 79.4 0 0 1-6.406-17.279l7.286-1.78a72 72 0 0 0 5.803 15.655l1.243 2.441zM8.338 91.062.925 92.207A80.6 80.6 0 0 1 0 80c0-4.15.316-8.227.925-12.207l7.414 1.144A73 73 0 0 0 7.5 80c0 3.763.286 7.457.838 11.062m1.216-28.267-7.288-1.78a79.5 79.5 0 0 1 9.35-22.554l6.41 3.895a72 72 0 0 0-8.472 20.439M21.51 37.153l-6.05-4.432a80.5 80.5 0 0 1 17.26-17.262l4.433 6.05A73 73 0 0 0 21.51 37.154m20.846-19.127-3.894-6.411a79.5 79.5 0 0 1 22.554-9.35l1.78 7.288a72 72 0 0 0-20.44 8.473"/><path fill="#3B45FD" d="M145 80c0 35.899-29.101 65-65 65-11.387 0-22.09-2.928-31.397-8.072a4.14 4.14 0 0 0-2.938-.426l-28.914 6.747 6.747-28.914a4.14 4.14 0 0 0-.426-2.939C17.928 102.089 15 91.386 15 80c0-35.898 29.102-65 65-65 35.899 0 65 29.102 65 65m138.473-36.723c-5.469 0-9.98-4.511-9.98-9.98s4.511-9.98 9.98-9.98 9.981 4.511 9.981 9.98-4.512 9.98-9.981 9.98M275.202 129V52.574h16.543V129zm282.876 0V24.547h-16.543V129z"/><path fill="#3B45FD" fill-rule="evenodd" d="M458.716 90.787c0 25.361 13.672 39.443 31.787 39.443 9.571 0 17.227-4.99 22.012-13.535V129h16.748V52.574h-16.748v12.237c-4.785-8.545-12.236-13.467-21.533-13.467-18.594 0-32.266 14.082-32.266 39.443m54.756 0c0 15.381-6.494 25.908-18.662 25.908-12.305 0-18.799-11.142-18.799-25.908s6.494-25.43 18.799-25.43c12.168 0 18.662 10.05 18.662 25.43" clip-rule="evenodd"/><path fill="#3B45FD" d="M400.849 84.088V129h-16.885V52.574h15.996l.205 14.97c4.649-10.663 12.51-15.927 23.584-15.927 15.723 0 26.114 10.254 26.114 28.78V129h-16.885V82.857c0-10.527-5.811-16.816-15.313-16.816-9.775 0-16.816 6.63-16.816 18.047"/><path fill="#3B45FD" fill-rule="evenodd" d="M336.35 159.215c19.483 0 35.342-9.024 35.342-31.377V52.574h-16.543v13.262c-4.785-9.092-12.646-14.492-22.764-14.492-18.115 0-31.787 13.74-31.787 38.281s13.672 38.281 31.787 38.281c9.981 0 17.774-5.195 22.559-14.15v14.971c0 11.005-6.562 17.431-18.594 17.431-8.476 0-14.834-3.281-16.953-9.912h-16.064c2.256 14.287 14.15 22.969 33.017 22.969m19.004-69.59c0 14.629-6.494 24.746-18.662 24.746-12.305 0-18.799-10.732-18.799-24.746s6.494-24.268 18.799-24.268c12.168 0 18.662 9.64 18.662 24.268" clip-rule="evenodd"/><path fill="#3B45FD" d="M188.828 99.742c.889 19.483 15.586 30.899 38.965 30.899 24.131 0 38.145-12.373 38.145-30.079 0-17.978-15.518-25.498-29.668-28.984l-9.708-2.53c-7.998-2.05-17.773-5.536-17.773-14.56 0-8.135 7.383-14.082 19.277-14.082 11.211 0 18.936 5.196 19.961 14.15h16.543c-.478-16.679-14.834-28.779-36.23-28.779-20.986 0-36.709 11.895-36.709 29.668 0 14.22 9.98 22.764 26.797 27.207l11.758 3.145c10.937 2.871 18.798 6.289 18.798 14.629 0 9.297-8.955 15.449-21.328 15.449-11.621 0-21.054-5.127-21.875-16.133z"/></svg>