<?xml version="1.0" encoding="utf-8"?>
<!-- Generator: Adobe Illustrator 24.3.0, SVG Export Plug-In . SVG Version: 6.00 Build 0)  -->
<svg version="1.1" xmlns="http://www.w3.org/2000/svg" xmlns:xlink="http://www.w3.org/1999/xlink" x="0px" y="0px"
	 viewBox="0 0 128 128" style="enable-background:new 0 0 128 128;" xml:space="preserve">
<style type="text/css">
	.st0{display:none;}
	.st1{display:inline;fill:url(#SVGID_1_);}
	.st2{display:inline;fill:#FFFFFF;}
	.st3{display:inline;fill:#50BAFF;}
	.st4{display:inline;fill:#2AF3FF;}
	.st5{fill:url(#SVGID_2_);}
	.st6{fill:none;stroke:#FFFFFF;stroke-width:3.3401;}
	.st7{fill:#4CC0FF;}
	.st8{font-family:'AvenirLTStd65MediumTR-Bold';}
	.st9{font-size:34.7903px;}
	.st10{letter-spacing:-1;}
	.st11{fill:url(#SVGID_3_);}
	.st12{fill:url(#SVGID_4_);}
	.st13{letter-spacing:-2;}
	.st14{fill:url(#SVGID_5_);}
	.st15{fill:url(#SVGID_6_);}
	.st16{fill:#FFFFFF;}
	.st17{display:inline;fill:none;}
</style>
<g id="katman_12">
	<linearGradient id="SVGID_2_" gradientUnits="userSpaceOnUse" x1="26.1956" y1="-1.6302" x2="101.9788" y2="129.6302">
		<stop  offset="0" style="stop-color:#2AF3FF"/>
		<stop  offset="1" style="stop-color:#4EBCFF"/>
	</linearGradient>
	<path class="st5" d="M101.73,126H26.44c-13.45,0-24.35-10.9-24.35-24.35V26.35C2.09,12.9,12.99,2,26.44,2h75.29
		c13.45,0,24.35,10.9,24.35,24.35v75.29C126.09,115.1,115.18,126,101.73,126z"/>
</g>
<g id="orjinal_balon_kopya">
	<g>
		<path class="st6" d="M61.21,17.54C39.2,18.93,21.49,36.51,19.96,58.51c-1,14.43,4.92,27.51,14.78,36.26v0l-2.05,15.57
			c-0.06,0.47,0.39,0.83,0.84,0.67l18.67-6.73h0c3.09,0.86,6.32,1.39,9.64,1.56c26.26,1.31,47.99-20.66,46.39-46.9
			C106.75,34.86,86.01,15.98,61.21,17.54z"/>
	</g>
</g>
</svg>
