<svg xmlns="http://www.w3.org/2000/svg" width="64" height="64" fill="none" viewBox="0 0 64 64"><g fill="#f76e6e" clip-path="url(#a)"><path d="M18.83 3.884c1.714-.024 3.42.221 5.056.727l1.301-2.795A19.2 19.2 0 0 0 18.83.831a17 17 0 0 0-3.702.419l.672 2.972a14.3 14.3 0 0 1 3.031-.338M5.358 11.695l-2.64-1.576A18.57 18.57 0 0 0 0 19.176l3.098.04c.102-2.654.88-5.24 2.26-7.52m7.863-6.679-.966-2.886a19.95 19.95 0 0 0-7.828 5.625L6.915 9.55a16.64 16.64 0 0 1 6.306-4.534m18.78 4.93 2.016-1.703A22 22 0 0 1 37.6 5.699l-1.555-2.646a25.5 25.5 0 0 0-4.043 2.868 25.6 25.6 0 0 0-4.044-2.87L26.4 5.697a22 22 0 0 1 3.583 2.544zM12.286 40.832l-2.548 1.754a86 86 0 0 0 5.614 6.323l2.427-1.92a82 82 0 0 1-5.493-6.157m5.181 10.183a117 117 0 0 0 6.347 5.691l2.23-2.146a116 116 0 0 1-6.323-5.65zM3.188 21.95l-3.094.199a29 29 0 0 0 2.263 8.484l2.858-1.191a26.2 26.2 0 0 1-2.027-7.491m3.195 9.969-2.754 1.413a53 53 0 0 0 4.299 6.885l2.692-1.557a50.5 50.5 0 0 1-4.237-6.741M45.17 3.884c1.02.003 2.035.115 3.03.335l.672-2.972A17 17 0 0 0 45.17.828a19.3 19.3 0 0 0-6.358.985l1.302 2.797a16.4 16.4 0 0 1 5.056-.726m15.732 15.332 3.098-.04a18.57 18.57 0 0 0-2.718-9.057l-2.64 1.576a15.7 15.7 0 0 1 2.26 7.52m-3.817-9.663 2.488-1.795a19.95 19.95 0 0 0-7.83-5.626l-.967 2.886c2.438.997 4.6 2.552 6.309 4.535"/><path d="M44.783 6.939c-5.034 0-10.717 3.897-12.782 8.149-2.066-4.254-7.747-8.147-12.782-8.147-7.36 0-13.04 6.026-13.04 12.987C6.178 37.115 32 55.32 32 55.32s25.823-18.206 25.823-35.392c0-6.964-5.681-12.988-13.04-12.988M32 59.203c-.963-.7-2.282-1.688-3.822-2.91l-2.035 2.312C29.613 61.363 32 62.96 32 62.96s2.388-1.597 5.858-4.355l-2.036-2.311A117 117 0 0 1 32 59.204m14.223-12.216 2.427 1.921a86 86 0 0 0 5.613-6.323l-2.549-1.754a83 83 0 0 1-5.491 6.156m-8.264 7.572 2.23 2.147a119 119 0 0 0 6.347-5.691l-2.253-2.106a116 116 0 0 1-6.324 5.65m20.826-25.118 2.858 1.19a29.1 29.1 0 0 0 2.264-8.483l-3.094-.198a26.1 26.1 0 0 1-2.028 7.49m-5.403 9.221 2.692 1.556a53 53 0 0 0 4.298-6.885L57.62 31.92a50.5 50.5 0 0 1-4.237 6.741"/></g><defs><clipPath id="a"><path fill="#fff" d="M0 0h64v64H0z"/></clipPath></defs></svg>