<svg xmlns="http://www.w3.org/2000/svg" width="128" height="128"><path d="M64 0c3.32 0 6.582.253 9.766.74l-.916 5.931A58.45 58.45 0 0 0 64 6c-3.009 0-5.964.23-8.85.67L54.235.74A64.498 64.498 0 0 1 64 0ZM79.188 1.813l-1.424 5.83a57.657 57.657 0 0 1 16.352 6.779l3.115-5.13a63.623 63.623 0 0 0-18.043-7.479ZM101.823 12.367l-3.545 4.84a58.323 58.323 0 0 1 12.514 12.516l4.841-3.546a64.364 64.364 0 0 0-13.81-13.81ZM118.708 30.77l-5.129 3.115a57.67 57.67 0 0 1 6.778 16.351l5.83-1.423a63.63 63.63 0 0 0-7.479-18.044ZM127.26 54.235l-5.931.915A58.42 58.42 0 0 1 122 64c0 3.01-.229 5.965-.671 8.85l5.931.916c.487-3.184.74-6.446.74-9.766 0-3.32-.253-6.581-.74-9.765ZM113.579 94.116a57.669 57.669 0 0 0 6.778-16.352l5.83 1.424a63.603 63.603 0 0 1-7.48 18.043l-5.128-3.115ZM110.792 98.278l4.841 3.546a64.38 64.38 0 0 1-13.81 13.809l-3.546-4.841a58.33 58.33 0 0 0 12.515-12.514ZM94.115 113.579l3.116 5.129a63.63 63.63 0 0 1-18.044 7.479l-1.423-5.83a57.67 57.67 0 0 0 16.351-6.778ZM72.85 121.329l.915 5.931c-3.184.487-6.445.74-9.765.74-3.32 0-6.582-.253-9.766-.74l.916-5.93c2.884.441 5.84.67 8.85.67a58.42 58.42 0 0 0 8.85-.671ZM50.236 120.358l-1.424 5.829a63.528 63.528 0 0 1-13.823-5.125l-6.074 1.418-1.363-5.843 8.208-1.916 1.953.995a57.481 57.481 0 0 0 12.523 4.642ZM22.488 117.818l1.363 5.843-10.411 2.43C6.51 127.707.293 121.489 1.91 114.56l2.429-10.411 5.843 1.363-2.43 10.412c-.606 2.598 1.726 4.93 4.324 4.324l10.412-2.43ZM11.363 100.448 5.52 99.085l1.418-6.074a63.55 63.55 0 0 1-5.125-13.824l5.829-1.423a57.55 57.55 0 0 0 4.642 12.523l.994 1.953-1.915 8.208ZM6.67 72.85l-5.93.915A64.497 64.497 0 0 1 0 64c0-3.32.253-6.582.74-9.766l5.931.916A58.45 58.45 0 0 0 6 64c0 3.01.229 5.966.67 8.85ZM7.643 50.236l-5.83-1.424a63.622 63.622 0 0 1 7.48-18.043l5.129 3.115a57.656 57.656 0 0 0-6.779 16.352ZM17.208 29.723l-4.84-3.546a64.37 64.37 0 0 1 13.809-13.81l3.546 4.84a58.334 58.334 0 0 0-12.515 12.515ZM33.885 14.421l-3.116-5.129a63.621 63.621 0 0 1 18.044-7.48l1.423 5.83a57.654 57.654 0 0 0-16.351 6.78Z"/><path d="M116 64c0 28.719-23.281 52-52 52-9.11 0-17.672-2.342-25.117-6.457a3.307 3.307 0 0 0-2.351-.341L13.4 114.599l5.397-23.13a3.31 3.31 0 0 0-.34-2.352C14.341 81.671 12 73.109 12 64c0-28.719 23.281-52 52-52s52 23.281 52 52Z"/></svg>