<?xml version="1.0" encoding="utf-8"?>
<!-- Generator: Adobe Illustrator 23.0.3, SVG Export Plug-In . SVG Version: 6.00 Build 0)  -->
<svg version="1.1" id="Export" xmlns="http://www.w3.org/2000/svg" xmlns:xlink="http://www.w3.org/1999/xlink" x="0px" y="0px"
	 viewBox="0 0 24 24" style="enable-background:new 0 0 24 24;" xml:space="preserve">
<path d="M9,22H7.1c-1.1,0.1-2.1-0.1-3.1-0.5c-0.6-0.3-1.2-0.8-1.5-1.5c-0.5-1-0.6-2.1-0.5-3.1V7.1C1.9,6.1,2.1,5,2.5,4.1
	c0.3-0.6,0.9-1.2,1.5-1.5c1-0.5,2-0.6,3.1-0.5h9.7C17.9,1.9,19,2.1,20,2.5c0.6,0.3,1.2,0.9,1.5,1.5c0.4,1,0.6,2,0.5,3.1V9
	c0,0.5,0,1-1.5,1h-4.6c-1.2-0.1-2.4,0.1-3.4,0.6c-0.8,0.4-1.4,1.1-1.8,1.8c-0.5,1.1-0.7,2.3-0.6,3.4v4.6C10,21.9,9.6,22,9,22z
	 M15.9,11.5c-0.9-0.1-1.9,0-2.7,0.4c-0.5,0.3-0.9,0.7-1.2,1.2c-0.4,0.8-0.6,1.8-0.4,2.7v4.6c0,0.2,0,0.4,0,0.5l9.5-9.6
	c-0.2,0-0.4,0-0.5,0L15.9,11.5z"/>
</svg>
