<svg xmlns="http://www.w3.org/2000/svg" width="32" height="32" fill="none" viewBox="0 0 32 32"><path fill="#99a1ff" fill-opacity=".25" d="M22.75 4H16.5l-7 6-5.75 6v4L12 28.25h3L27.25 16.5 28 8.75z"/><path fill="#99a1ff" d="M21 9.166a1.833 1.833 0 1 1 0 3.667 1.833 1.833 0 0 1 0-3.667"/><path fill="#99a1ff" fill-rule="evenodd" d="M20.791 3.333c.768 0 1.315-.006 1.84.12.442.106.865.281 1.253.519.46.282.842.673 1.385 1.216l1.543 1.543c.543.543.934.925 1.216 1.385.238.388.413.81.519 1.253.126.525.12 1.072.12 1.84v2.582c0 .767.006 1.314-.12 1.84a4.3 4.3 0 0 1-.519 1.252c-.282.46-.673.843-1.216 1.386l-8.246 8.246c-.78.78-1.407 1.408-1.956 1.874-.557.473-1.1.837-1.732 1.042a5 5 0 0 1-3.09 0c-.632-.205-1.174-.569-1.731-1.042-.549-.466-1.176-1.094-1.956-1.874l-2.616-2.616c-.78-.78-1.408-1.407-1.874-1.956-.473-.557-.837-1.1-1.042-1.732a5 5 0 0 1 0-3.09c.205-.632.569-1.174 1.042-1.731.465-.549 1.094-1.176 1.874-1.956l8.246-8.246c.543-.543.925-.934 1.386-1.216.387-.238.81-.413 1.252-.52.526-.125 1.073-.119 1.84-.119zm-2.582 2c-.863 0-1.131.006-1.373.065a2.3 2.3 0 0 0-.674.279c-.212.13-.407.315-1.017.925L6.9 14.848c-.803.804-1.363 1.365-1.763 1.837-.393.462-.574.773-.666 1.054a3 3 0 0 0 0 1.854c.092.282.273.592.666 1.055.4.472.96 1.033 1.763 1.837L9.515 25.1c.804.803 1.365 1.363 1.837 1.763.463.393.773.574 1.054.666a3 3 0 0 0 1.855 0c.28-.092.591-.273 1.054-.666.472-.4 1.033-.96 1.837-1.763l8.246-8.246c.61-.61.795-.805.925-1.017.128-.208.222-.436.28-.674.057-.242.064-.51.064-1.373v-2.582c0-.863-.007-1.132-.065-1.373a2.3 2.3 0 0 0-.279-.675c-.13-.212-.315-.406-.925-1.016l-1.543-1.543c-.61-.61-.804-.795-1.016-.925a2.3 2.3 0 0 0-.675-.28c-.242-.058-.51-.064-1.373-.064z" clip-rule="evenodd"/></svg>