<?xml version="1.0" encoding="UTF-8"?>
<svg width="12px" height="12px" viewBox="0 0 12 12" version="1.1" xmlns="http://www.w3.org/2000/svg" xmlns:xlink="http://www.w3.org/1999/xlink">
    <!-- Generator: Sketch 50.2 (55047) - http://www.bohemiancoding.com/sketch -->
    <title>Icons/Timer 15/timer15_12</title>
    <desc>Created with Sketch.</desc>
    <defs></defs>
    <g id="Icons/Timer-15/timer15_12" stroke="none" stroke-width="1" fill="none" fill-rule="evenodd">
        <path d="M6.5,0.0207420606 C7.86488275,0.134195272 9.19834885,0.713067711 10.2426405,1.75735938 C11.5457669,3.06048577 12.1241674,4.8138991 11.977842,6.51675063 L10.9737111,6.51360374 L10.975089,6.50000007 L5.9999995,6.50000007 L5.9999995,5.50000007 L10.975089,5.50000007 C10.8643627,4.39176576 10.384511,3.31344338 9.53553374,2.46446616 C8.55922305,1.48815547 7.27961153,1.00000011 6,1.00000007 C5.8312503,1 5.66445312,1.00835972 5.5,1.02468762 L5.5,0.0205368885 C5.66486669,0.00693566443 5.83162339,0 6,0 C6.16837661,0 6.33513331,0.00693566443 6.5,0.0205368885 L6.5,0.0207420606 Z M10.928367,9.42274426 L10.0587469,8.92066889 C10.1551138,8.78641226 10.2457522,8.64614153 10.330127,8.5 C10.4145019,8.35385847 10.4906607,8.20522802 10.5587469,8.05464349 L11.428367,8.55671885 C11.3577126,8.7062982 11.2803407,8.85418158 11.1961524,9 C11.1119641,9.14581842 11.0225793,9.28676613 10.928367,9.42274426 Z M8.55671885,11.428367 L8.05464349,10.5587469 C8.20522802,10.4906607 8.35385847,10.4145019 8.5,10.330127 C8.64614153,10.2457522 8.78641226,10.1551138 8.92066889,10.0587469 L9.42274426,10.928367 C9.28676613,11.0225793 9.14581842,11.1119641 9,11.1961524 C8.85418158,11.2803407 8.7062982,11.3577126 8.55671885,11.428367 Z M2.57725574,10.928367 L3.07933111,10.0587469 C3.21358774,10.1551138 3.35385847,10.2457522 3.5,10.330127 C3.64614153,10.4145019 3.79477198,10.4906607 3.94535651,10.5587469 L3.44328115,11.428367 C3.2937018,11.3577126 3.14581842,11.2803407 3,11.1961524 C2.85418158,11.1119641 2.71323387,11.0225793 2.57725574,10.928367 Z M5.5,11.9794631 L5.5,10.9753124 C5.66445312,10.9916403 5.8312503,11 6,11 C6.1687497,11 6.33554688,10.9916403 6.5,10.9753124 L6.5,11.9794631 C6.33513331,11.9930643 6.16837661,12 6,12 C5.83162339,12 5.66486669,11.9930643 5.5,11.9794631 Z M0.571633044,8.55671885 L1.44125309,8.05464349 C1.50933927,8.20522802 1.58549813,8.35385847 1.66987298,8.5 C1.75424783,8.64614153 1.84488615,8.78641226 1.94125309,8.92066889 L1.07163304,9.42274426 C0.977420696,9.28676613 0.888035884,9.14581842 0.803847577,9 C0.719659271,8.85418158 0.642287382,8.7062982 0.571633044,8.55671885 Z M0.0205368885,5.5 L1.02468762,5.5 C1.00835972,5.66445312 1,5.8312503 1,6 C1,6.1687497 1.00835972,6.33554688 1.02468762,6.5 L0.0205368885,6.5 C0.00693566443,6.33513331 -1.13006288e-12,6.16837661 -1.13009381e-12,6 C-1.13012474e-12,5.83162339 0.00693566443,5.66486669 0.0205368885,5.5 Z M1.07163304,2.57725574 L1.94125309,3.07933111 C1.84488615,3.21358774 1.75424783,3.35385847 1.66987298,3.5 C1.58549813,3.64614153 1.50933927,3.79477198 1.44125309,3.94535651 L0.571633044,3.44328115 C0.642287382,3.2937018 0.719659271,3.14581842 0.803847577,3 C0.888035884,2.85418158 0.977420696,2.71323387 1.07163304,2.57725574 Z M3.44328115,0.571633044 L3.94535651,1.44125309 C3.79477198,1.50933927 3.64614153,1.58549813 3.5,1.66987298 C3.35385847,1.75424783 3.21358774,1.84488615 3.07933111,1.94125309 L2.57725574,1.07163304 C2.71323387,0.977420696 2.85418158,0.888035884 3,0.803847577 C3.14581842,0.719659271 3.2937018,0.642287382 3.44328115,0.571633044 Z" id="Combined-Shape" fill="#000000"></path>
    </g>
</svg>