<?xml version="1.0" encoding="UTF-8"?>
<svg width="12px" height="12px" viewBox="0 0 12 12" version="1.1" xmlns="http://www.w3.org/2000/svg" xmlns:xlink="http://www.w3.org/1999/xlink">
    <!-- Generator: Sketch 50.2 (55047) - http://www.bohemiancoding.com/sketch -->
    <title>Icons/Timer 50/timer50_12</title>
    <desc>Created with Sketch.</desc>
    <defs></defs>
    <g id="Icons/Timer-50/timer50_12" stroke="none" stroke-width="1" fill="none" fill-rule="evenodd">
        <path d="M8.49999998,1.66987313 L8.99999998,0.80384773 C10.3298113,1.57161469 11.3667294,2.84668755 11.7955548,4.4470858 C12.6532057,7.64788242 10.7537107,10.9379042 7.5529141,11.795555 C4.35211748,12.6532059 1.06209574,10.753711 0.204444873,7.55291434 C-0.27253249,5.77281059 0.103264647,3.96510985 1.08141192,2.56355986 L1.94944135,3.0683506 L1.94144625,3.07944279 L6.25000012,5.56698754 L5.75000012,6.43301294 L1.44144624,3.9454682 C0.98322086,4.96059039 0.85962347,6.13437085 1.1703707,7.29409529 C1.88507976,9.96142581 4.62676454,11.5443383 7.29409506,10.8296292 C9.96142557,10.1149201 11.544338,7.37323536 10.829629,4.70590484 C10.4722744,3.37223964 9.60817605,2.30967894 8.49999998,1.66987313 Z" id="Combined-Shape" fill="#000000"></path>
        <path d="M6.00250506,1.00000061 L6,1 C5.8312503,1 5.66445312,1.00835972 5.5,1.02468762 L5.5,0.0205368885 C5.66486669,0.00693566443 5.83162339,0 6,0 L6.00250686,5.12480482e-07 C9.31506271,0.0013544265 12,2.68712686 12,6 L11,6 C11,3.23941132 8.76277746,1.00135396 6.00250506,1.00000061 Z M3.44328115,0.571633044 L3.94535651,1.44125309 C3.79477198,1.50933927 3.64614153,1.58549813 3.5,1.66987298 C3.35385847,1.75424783 3.21358774,1.84488615 3.07933111,1.94125309 L2.57725574,1.07163304 C2.71323387,0.977420696 2.85418158,0.888035884 3,0.803847577 C3.14581842,0.719659271 3.2937018,0.642287382 3.44328115,0.571633044 Z" id="Combined-Shape" fill="#000000"></path>
    </g>
</svg>