<?xml version="1.0" encoding="UTF-8"?>
<svg width="12px" height="12px" viewBox="0 0 12 12" version="1.1" xmlns="http://www.w3.org/2000/svg" xmlns:xlink="http://www.w3.org/1999/xlink">
    <!-- Generator: Sketch 50.2 (55047) - http://www.bohemiancoding.com/sketch -->
    <title>Icons/Timer 35/timer35_12</title>
    <desc>Created with Sketch.</desc>
    <defs></defs>
    <g id="Icons/Timer-35/timer35_12" stroke="none" stroke-width="1" fill="none" fill-rule="evenodd">
        <path d="M6.5,1.02370354 L6.5,1.02468762 C6.33554688,1.00835972 6.1687497,1 6,1 C5.8312503,1 5.66445312,1.00835972 5.5,1.02468762 L5.5,0.0205368885 C5.66486669,0.00693566443 5.83162339,4.09828421e-17 6,4.09828421e-17 L5.87059244,4.2745538e-14 C8.57132199,-0.0604001451 11.0652567,1.72157611 11.7955548,4.4470858 C12.6532057,7.64788242 10.7537107,10.9379042 7.5529141,11.795555 C5.77281035,12.2725324 3.96510962,11.8967353 2.56355963,10.918588 L3.06835037,10.0505585 L3.07944256,10.0585537 L5.5669873,5.74999978 L6.4330127,6.24999978 L3.94546796,10.5585537 C4.96059016,11.016779 6.13437061,11.1403764 7.29409506,10.8296292 C9.96142558,10.1149201 11.544338,7.37323536 10.829629,4.70590484 C10.2763071,2.64087963 8.50807111,1.22582514 6.5,1.02370354 Z M0.571633044,8.55671885 L1.44125309,8.05464349 C1.50933927,8.20522802 1.58549813,8.35385847 1.66987298,8.5 C1.75424783,8.64614153 1.84488615,8.78641226 1.94125309,8.92066889 L1.07163304,9.42274426 C0.977420696,9.28676613 0.888035884,9.14581842 0.803847577,9 C0.719659271,8.85418158 0.642287382,8.7062982 0.571633044,8.55671885 Z M0.0205368885,5.5 L1.02468762,5.5 C1.00835972,5.66445312 1,5.8312503 1,6 C1,6.1687497 1.00835972,6.33554688 1.02468762,6.5 L0.0205368885,6.5 C0.00693566443,6.33513331 -9.95062878e-13,6.16837661 -9.95093808e-13,6 C-9.95124738e-13,5.83162339 0.00693566443,5.66486669 0.0205368885,5.5 Z M1.07163304,2.57725574 L1.94125309,3.07933111 C1.84488615,3.21358774 1.75424783,3.35385847 1.66987298,3.5 C1.58549813,3.64614153 1.50933927,3.79477198 1.44125309,3.94535651 L0.571633044,3.44328115 C0.642287382,3.2937018 0.719659271,3.14581842 0.803847577,3 C0.888035884,2.85418158 0.977420696,2.71323387 1.07163304,2.57725574 Z M3.44328115,0.571633044 L3.94535651,1.44125309 C3.79477198,1.50933927 3.64614153,1.58549813 3.5,1.66987298 C3.35385847,1.75424783 3.21358774,1.84488615 3.07933111,1.94125309 L2.57725574,1.07163304 C2.71323387,0.977420696 2.85418158,0.888035884 3,0.803847577 C3.14581842,0.719659271 3.2937018,0.642287382 3.44328115,0.571633044 Z" id="Combined-Shape" fill="#000000"></path>
    </g>
</svg>