<?xml version="1.0" encoding="UTF-8"?>
<svg width="12px" height="12px" viewBox="0 0 12 12" version="1.1" xmlns="http://www.w3.org/2000/svg" xmlns:xlink="http://www.w3.org/1999/xlink">
    <!-- Generator: Sketch 50.2 (55047) - http://www.bohemiancoding.com/sketch -->
    <title>Icons/Timer 45/timer45_12</title>
    <desc>Created with Sketch.</desc>
    <defs></defs>
    <g id="Icons/Timer-45/timer45_12" stroke="none" stroke-width="1" fill="none" fill-rule="evenodd">
        <path d="M6.5,0.0207420343 C7.86488252,0.134195174 9.19834876,0.713067624 10.2426405,1.75735938 C12.5857863,4.10050513 12.5857863,7.89949501 10.2426405,10.2426408 C7.89949477,12.5857865 4.1005049,12.5857865 1.75735914,10.2426408 C0.454232755,8.93951437 -0.124167745,7.18610104 0.0221576434,5.48324951 L1.02628856,5.4863964 L1.02491069,5.50000007 L6.00000017,5.50000007 L6.00000017,6.50000007 L1.02491069,6.50000007 C1.13563696,7.60823437 1.61548871,8.68655676 2.46446593,9.53553398 C4.41708738,11.4881554 7.58291228,11.4881554 9.53553374,9.53553398 C11.4881552,7.58291252 11.4881552,4.41708762 9.53553374,2.46446616 C8.60186704,1.53079946 7.39081643,1.04357542 6.16765005,1.00279403 C6.11199694,1.00092412 6.05610639,1 6,1 C5.8312503,1 5.66445312,1.00835972 5.5,1.02468762 L5.5,0.0205368885 C5.66486669,0.00693566443 5.83162339,0 6,0 C6.16837661,0 6.33513331,0.00693566443 6.5,0.0205368885 L6.5,0.0207420343 Z M1.07163304,2.57725574 L1.94125309,3.07933111 C1.84488615,3.21358774 1.75424783,3.35385847 1.66987298,3.5 C1.58549813,3.64614153 1.50933927,3.79477198 1.44125309,3.94535651 L0.571633044,3.44328115 C0.642287382,3.2937018 0.719659271,3.14581842 0.803847577,3 C0.888035884,2.85418158 0.977420696,2.71323387 1.07163304,2.57725574 Z M3.44328115,0.571633044 L3.94535651,1.44125309 C3.79477198,1.50933927 3.64614153,1.58549813 3.5,1.66987298 C3.35385847,1.75424783 3.21358774,1.84488615 3.07933111,1.94125309 L2.57725574,1.07163304 C2.71323387,0.977420696 2.85418158,0.888035884 3,0.803847577 C3.14581842,0.719659271 3.2937018,0.642287382 3.44328115,0.571633044 Z" id="Combined-Shape" fill="#000000"></path>
    </g>
</svg>