<?xml version="1.0" encoding="UTF-8"?>
<svg width="12px" height="12px" viewBox="0 0 12 12" version="1.1" xmlns="http://www.w3.org/2000/svg" xmlns:xlink="http://www.w3.org/1999/xlink">
    <!-- Generator: Sketch 50.2 (55047) - http://www.bohemiancoding.com/sketch -->
    <title>Icons/Timer 60/timer60_12</title>
    <desc>Created with Sketch.</desc>
    <defs></defs>
    <g id="Icons/Timer-60/timer60_12" stroke="none" stroke-width="1" fill="none" fill-rule="evenodd">
        <path d="M6.51360423,1.02605705 L6.5136035,1.02628879 L6.49999983,1.02491092 L6.49999983,6.0000004 L5.49999983,6.0000004 L5.49999983,1.02491092 C4.39176553,1.1356372 3.31344314,1.61548894 2.46446592,2.46446616 C0.511844466,4.41708762 0.511844466,7.58291251 2.46446592,9.53553397 C4.41708738,11.4881554 7.58291228,11.4881554 9.53553374,9.53553397 C10.5118444,8.55922329 10.9999998,7.27961177 10.9999998,6.00000024 L11.9999998,6.00000024 C11.9999998,7.53553409 11.4142133,9.07106792 10.2426405,10.2426408 C7.89949477,12.5857865 4.10050489,12.5857865 1.75735914,10.2426408 C-0.585786607,7.899495 -0.585786607,4.10050513 1.75735914,1.75735938 C3.01051112,0.504207398 4.68007561,-0.0787387759 6.32064441,0.00852085708 C9.4853004,0.175084568 12,2.7938725 12,6 L11,6 C11,3.411981 9.0337411,1.28320638 6.51360423,1.02605705 Z" id="Combined-Shape" fill="#000000"></path>
    </g>
</svg>