<?xml version="1.0" encoding="UTF-8"?>
<svg width="12px" height="12px" viewBox="0 0 12 12" version="1.1" xmlns="http://www.w3.org/2000/svg" xmlns:xlink="http://www.w3.org/1999/xlink">
    <!-- Generator: Sketch 50.2 (55047) - http://www.bohemiancoding.com/sketch -->
    <title>Icons/Timer 55/timer55_12</title>
    <desc>Created with Sketch.</desc>
    <defs></defs>
    <g id="Icons/Timer-55/timer55_12" stroke="none" stroke-width="1" fill="none" fill-rule="evenodd">
        <path d="M10.8871515,4.93877116 C10.7764707,4.43108229 10.5875051,3.94579225 10.3301269,3.50000021 L10.3308482,3.49958378 C9.46665561,2.00598422 7.8519922,1.00090744 6.00250515,1.00000061 L6.00250515,4.75001343e-07 C8.87812128,0.0011754551 11.2807698,2.02530154 11.8645776,4.72650571 C12.0619293,5.63173625 12.0518761,6.59631008 11.7955548,7.55291434 C10.9379039,10.753711 7.64788218,12.6532059 4.44708556,11.795555 C1.24628894,10.9379042 -0.653205997,7.64788242 0.204444873,4.4470858 C0.681422235,2.66698205 1.91072247,1.28936585 3.45859785,0.564661592 L3.95793802,1.43583792 L3.94546796,1.44144648 L6.4330127,5.75000036 L5.5669873,6.25000036 L3.07944256,1.94144648 C2.17504663,2.5914554 1.48111793,3.54618039 1.1703707,4.70590484 C0.455661641,7.37323536 2.03857409,10.1149201 4.7059046,10.8296292 C7.37323512,11.5443383 10.1149199,9.96142581 10.829629,7.29409529 C10.9454889,6.86170024 11.0009697,6.42735124 11.0012398,6 L11,6 C11,5.63585356 10.9610724,5.28079915 10.8871515,4.93877116 Z" id="Combined-Shape" fill="#000000"></path>
    </g>
</svg>