<?xml version="1.0" encoding="UTF-8"?>
<svg width="12px" height="12px" viewBox="0 0 12 12" version="1.1" xmlns="http://www.w3.org/2000/svg" xmlns:xlink="http://www.w3.org/1999/xlink">
    <!-- Generator: Sketch 50.2 (55047) - http://www.bohemiancoding.com/sketch -->
    <title>Icons/Timer 40/timer40_12</title>
    <desc>Created with Sketch.</desc>
    <defs></defs>
    <g id="Icons/Timer-40/timer40_12" stroke="none" stroke-width="1" fill="none" fill-rule="evenodd">
        <path d="M6.5,1.02430376 L6.5,1.02468762 C6.33554688,1.00835972 6.1687497,1 6,1 C5.8312503,1 5.66445312,1.00835972 5.5,1.02468762 L5.5,0.0205368885 C5.66486669,0.00693566443 5.83162339,-9.97465999e-18 6,-9.97465999e-18 L5.86308481,-6.71970472e-11 C6.4198906,-0.0124561805 6.98779302,0.0530213744 7.5529141,0.204445112 C10.7537107,1.06209598 12.6532057,4.35211772 11.7955548,7.55291434 C10.9379039,10.753711 7.64788218,12.6532059 4.44708556,11.795555 C2.66698181,11.3185777 1.28936562,10.0892774 0.564661357,8.54140205 L1.43583768,8.04206188 L1.44144625,8.05453194 L5.75000012,5.5669872 L6.25000012,6.4330126 L1.94144625,8.92055734 C2.59145516,9.82495327 3.54618016,10.518882 4.70590461,10.8296292 C7.37323512,11.5443383 10.1149199,9.96142581 10.829629,7.29409529 C11.544338,4.62676478 9.96142558,1.88508 7.29409506,1.17037094 C7.02944452,1.09945804 6.764062,1.05116398 6.5,1.02430376 Z M0.0205368885,5.5 L1.02468762,5.5 C1.00835972,5.66445312 1,5.8312503 1,6 C1,6.1687497 1.00835972,6.33554688 1.02468762,6.5 L0.0205368885,6.5 C0.00693566443,6.33513331 -9.95062878e-13,6.16837661 -9.95093808e-13,6 C-9.95124738e-13,5.83162339 0.00693566443,5.66486669 0.0205368885,5.5 Z M1.07163304,2.57725574 L1.94125309,3.07933111 C1.84488615,3.21358774 1.75424783,3.35385847 1.66987298,3.5 C1.58549813,3.64614153 1.50933927,3.79477198 1.44125309,3.94535651 L0.571633044,3.44328115 C0.642287382,3.2937018 0.719659271,3.14581842 0.803847577,3 C0.888035884,2.85418158 0.977420696,2.71323387 1.07163304,2.57725574 Z M3.44328115,0.571633044 L3.94535651,1.44125309 C3.79477198,1.50933927 3.64614153,1.58549813 3.5,1.66987298 C3.35385847,1.75424783 3.21358774,1.84488615 3.07933111,1.94125309 L2.57725574,1.07163304 C2.71323387,0.977420696 2.85418158,0.888035884 3,0.803847577 C3.14581842,0.719659271 3.2937018,0.642287382 3.44328115,0.571633044 Z" id="Combined-Shape" fill="#000000"></path>
    </g>
</svg>