<svg xmlns="http://www.w3.org/2000/svg" width="32" height="32" fill="none"><circle cx="16" cy="16.051" r="16" fill="url(#a)"/><path fill="#fff" d="m13.582 6.271.227.915a9.007 9.007 0 0 0-2.519 1.05l-.495-.81a10.074 10.074 0 0 1 2.787-1.155Zm4.836 0-.227.915c.888.22 1.737.574 2.519 1.05l.486-.81c-.863-.522-1.8-.911-2.778-1.155ZM7.374 10.846a10.075 10.075 0 0 0-1.154 2.787l.915.227a9.008 9.008 0 0 1 1.05-2.518l-.81-.496Zm-.504 5.205c0-.458.033-.915.101-1.368l-.932-.143a10.129 10.129 0 0 0 0 3.022l.932-.142a9.171 9.171 0 0 1-.1-1.369Zm14.335 8.626-.487-.81a9.01 9.01 0 0 1-2.518 1.05l.226.914a10.073 10.073 0 0 0 2.779-1.154Zm3.925-8.626c0 .458-.034.916-.101 1.369l.932.142c.15-1.001.15-2.02 0-3.022l-.932.143c.067.453.101.91.1 1.368Zm.65 2.418-.915-.227a9.007 9.007 0 0 1-1.05 2.519l.81.487c.523-.863.912-1.8 1.155-2.779Zm-8.395 6.611a9.346 9.346 0 0 1-2.737 0l-.142.932c1.001.151 2.02.151 3.022 0l-.143-.932Zm5.965-3.614a9.192 9.192 0 0 1-1.935 1.935l.562.76a10.27 10.27 0 0 0 2.133-2.132l-.76-.563ZM21.415 8.701a9.191 9.191 0 0 1 1.935 1.935l.76-.562a10.267 10.267 0 0 0-2.133-2.132l-.562.76ZM8.65 10.636a9.191 9.191 0 0 1 1.935-1.935l-.562-.76a10.317 10.317 0 0 0-2.133 2.133l.76.563Zm15.976.21-.81.487a9.03 9.03 0 0 1 1.05 2.519l.914-.227a10.076 10.076 0 0 0-1.154-2.779Zm-9.994-3.824a9.344 9.344 0 0 1 2.736 0l.143-.931a10.129 10.129 0 0 0-3.022 0l.143.931ZM9.137 24.41l-1.952.457.458-1.952-.924-.214-.453 1.952a.944.944 0 0 0 1.133 1.133l1.952-.453-.214-.923Zm-2.22-2.552.919.213.319-1.351a8.987 8.987 0 0 1-1.02-2.477l-.915.227c.206.834.52 1.638.932 2.393l-.235.995Zm4.415 2.04-1.351.319.214.919.99-.235c.756.411 1.562.724 2.397.931l.227-.915a8.988 8.988 0 0 1-2.477-1.02ZM16 7.866a8.185 8.185 0 0 0-6.93 12.537l-.785 3.358 3.358-.785A8.185 8.185 0 1 0 16 7.867Z"/><defs><linearGradient id="a" x1="16" x2="16" y1=".051" y2="32.051" gradientUnits="userSpaceOnUse"><stop stop-color="#2A6DF4"/><stop offset="1" stop-color="#3A76F0"/></linearGradient></defs></svg>