<svg xmlns="http://www.w3.org/2000/svg" width="40" height="40" fill="none"><circle cx="20" cy="20" r="19.175" fill="#ADB4F1" stroke="#000" stroke-width="1.65"/><path fill="#fff" fill-rule="evenodd" d="M10 20c0-5.523 4.477-10 10-10s10 4.477 10 10c0 1.532-.322 2.528-.733 3.108-.381.538-.876.78-1.49.78-.729 0-1.666-.8-1.666-1.944V20a6.111 6.111 0 1 0-1.61 4.134c.7 1.171 1.928 1.977 3.277 1.977 1.331 0 2.503-.59 3.302-1.719.77-1.086 1.142-2.591 1.142-4.392 0-6.75-5.472-12.222-12.222-12.222S7.778 13.25 7.778 20 13.25 32.222 20 32.222a12.17 12.17 0 0 0 6.112-1.636 1.111 1.111 0 1 0-1.113-1.923A9.95 9.95 0 0 1 20 30c-5.523 0-10-4.477-10-10m13.889 0a3.889 3.889 0 1 0-7.778 0 3.889 3.889 0 0 0 7.778 0" clip-rule="evenodd"/></svg>