<svg xmlns="http://www.w3.org/2000/svg" width="40" height="40" fill="none"><path fill="#ADB4F1" d="M40 20C40 8.954 31.046 0 20 0S0 8.954 0 20s8.954 20 20 20 20-8.954 20-20" style="fill:#adb4f1;fill:color(display-p3 .6765 .7053 .9461);fill-opacity:1"/><path fill="#6A73C0" fill-rule="evenodd" d="M20 38.333C9.875 38.333 1.667 30.125 1.667 20S9.875 1.667 20 1.667 38.333 9.875 38.333 20 30.125 38.333 20 38.333M20 40c11.046 0 20-8.954 20-20S31.046 0 20 0 0 8.954 0 20s8.954 20 20 20" clip-rule="evenodd" style="fill:#6a73c0;fill:color(display-p3 .4162 .4523 .7544);fill-opacity:1"/><path fill="#fff" fill-rule="evenodd" d="M10 20c0-5.523 4.477-10 10-10s10 4.477 10 10c0 1.532-.322 2.528-.733 3.108-.381.538-.876.78-1.49.78-.729 0-1.666-.8-1.666-1.944V20a6.111 6.111 0 1 0-1.61 4.134c.7 1.172 1.928 1.977 3.277 1.977 1.331 0 2.503-.59 3.302-1.719.77-1.086 1.142-2.591 1.142-4.392 0-6.75-5.472-12.222-12.222-12.222S7.778 13.25 7.778 20 13.25 32.222 20 32.222c2.224 0 4.313-.595 6.112-1.636a1.111 1.111 0 0 0-1.113-1.923A9.95 9.95 0 0 1 20 30c-5.523 0-10-4.477-10-10m13.889 0a3.889 3.889 0 1 1-7.778 0 3.889 3.889 0 0 1 7.778 0" clip-rule="evenodd" style="fill:#fff;fill-opacity:1"/></svg>