<svg width="64" height="64" viewBox="0 0 64 64" fill="none" xmlns="http://www.w3.org/2000/svg">
    <circle cx="32" cy="32" r="32" fill="#F8E0D9"/>
    <path d="M18 39.6L30.8 19.2H33.6L46.8 39.6L43.6 43.6H20.8L18 42.8V39.6Z" fill="#FDEEEB"/>
    <path d="M31.9998 24.2806C31.0232 24.2806 30.2533 25.112 30.3282 26.0857L30.9223 33.8091C30.9657 34.3722 31.4351 34.8069 31.9998 34.8069C32.5645 34.8069 33.034 34.3722 33.0773 33.8091L33.6714 26.0857C33.7463 25.112 32.9764 24.2806 31.9998 24.2806Z" fill="#C34922"/>
    <path d="M30.2454 38.3157C30.2454 37.3468 31.0309 36.5613 31.9998 36.5613C32.9687 36.5613 33.7542 37.3468 33.7542 38.3157C33.7542 39.2846 32.9687 40.0701 31.9998 40.0701C31.0309 40.0701 30.2454 39.2846 30.2454 38.3157Z" fill="#C34922"/>
    <path fill-rule="evenodd" clip-rule="evenodd" d="M27.9118 19.0087C29.7412 15.8835 34.2584 15.8835 36.0878 19.0087L46.8102 37.3263C48.6587 40.4841 46.3813 44.456 42.7223 44.456H21.2773C17.6183 44.456 15.3409 40.4841 17.1894 37.3262L27.9118 19.0087ZM33.9681 20.2495C33.0873 18.7448 30.9123 18.7448 30.0315 20.2495L19.309 38.567C18.419 40.0875 19.5156 41.9999 21.2773 41.9999H42.7223C44.484 41.9999 45.5806 40.0875 44.6906 38.567L33.9681 20.2495Z" fill="#C34922"/>
</svg>
