<svg width="20" height="20" fill="none" xmlns="http://www.w3.org/2000/svg"><path fill-rule="evenodd" clip-rule="evenodd" d="M16.974 3.026a2.791 2.791 0 0 0-3.948 0L4.043 12.01c-.333.333-.59.736-.751 1.18L2.12 16.412c-.333.914.554 1.8 1.468 1.468l3.223-1.172a3.228 3.228 0 0 0 1.18-.751l8.983-8.983a2.792 2.792 0 0 0 0-3.948Zm-2.917 1.031a1.333 1.333 0 1 1 1.886 1.886L15 6.885 13.114 5l.943-.943Zm-1.974 1.974-7.009 7.01a1.77 1.77 0 0 0-.412.646l-.943 2.594 2.594-.943c.243-.089.464-.23.647-.412l7.009-7.01-1.886-1.885Z" fill="#000"/></svg>