<svg width="16" height="16" fill="none" xmlns="http://www.w3.org/2000/svg"><path fill-rule="evenodd" clip-rule="evenodd" d="M13.71 2.29a2.418 2.418 0 0 0-3.42 0L3.347 9.234a2.65 2.65 0 0 0-.608.943l-.961 2.565c-.347.924.556 1.827 1.48 1.48l2.565-.961c.354-.133.675-.34.943-.608L13.71 5.71a2.418 2.418 0 0 0 0-3.42Zm-2.5.92a1.118 1.118 0 0 1 1.58 1.58l-.79.79L10.42 4l.79-.79ZM9.5 4.92l-5.234 5.233a1.35 1.35 0 0 0-.31.48l-.845 2.256 2.255-.845c.18-.068.344-.174.48-.31L11.082 6.5 9.5 4.92Z" fill="#000"/></svg>