<svg width="24" height="24" viewBox="0 0 24 24" fill="none" xmlns="http://www.w3.org/2000/svg">
<path d="M12 1C9.82441 1 7.69767 1.64514 5.88873 2.85383C4.07979 4.06253 2.66989 5.78049 1.83733 7.79048C1.00477 9.80047 0.786929 12.0122 1.21137 14.146C1.6358 16.2798 2.68345 18.2398 4.22183 19.7782C5.76021 21.3166 7.72022 22.3642 9.85401 22.7886C11.9878 23.2131 14.1995 22.9952 16.2095 22.1627C18.2195 21.3301 19.9375 19.9202 21.1462 18.1113C22.3549 16.3023 23 14.1756 23 12C23 9.08262 21.8411 6.28473 19.7782 4.22183C17.7153 2.15893 14.9174 1 12 1ZM13.25 6L12.75 13.5H11.25L10.75 6H13.25ZM12 18C11.7033 18 11.4133 17.912 11.1666 17.7472C10.92 17.5824 10.7277 17.3481 10.6142 17.074C10.5007 16.7999 10.4709 16.4983 10.5288 16.2074C10.5867 15.9164 10.7296 15.6491 10.9393 15.4393C11.1491 15.2296 11.4164 15.0867 11.7074 15.0288C11.9983 14.9709 12.2999 15.0006 12.574 15.1142C12.8481 15.2277 13.0824 15.42 13.2472 15.6666C13.412 15.9133 13.5 16.2033 13.5 16.5C13.5 16.8978 13.342 17.2794 13.0607 17.5607C12.7794 17.842 12.3978 18 12 18Z" fill="black"/>
</svg>
