<svg width="20" height="20" fill="none" xmlns="http://www.w3.org/2000/svg"><g clip-path="url(#error-circle__a)" fill="#000"><path d="M10 5.417a.995.995 0 0 0-.992 1.071l.352 4.586a.642.642 0 0 0 1.28 0l.352-4.586A.995.995 0 0 0 10 5.417ZM8.958 13.75a1.042 1.042 0 1 1 2.084 0 1.042 1.042 0 0 1-2.084 0Z"/><path d="M.938 10a9.063 9.063 0 1 1 18.125 0A9.063 9.063 0 0 1 .938 10ZM10 2.396a7.604 7.604 0 1 0 0 15.208 7.604 7.604 0 0 0 0-15.208Z"/></g><defs><clipPath id="error-circle__a"><path fill="#fff" d="M0 0h20v20H0z"/></clipPath></defs></svg>