<svg width="16" height="16" fill="none" xmlns="http://www.w3.org/2000/svg"><g clip-path="url(#error-circle-compact__a)" fill="#000"><path d="M8 4.225a.858.858 0 0 0-.854.933l.32 3.628a.537.537 0 0 0 1.069 0l.32-3.628A.858.858 0 0 0 8 4.225ZM7.1 11a.9.9 0 1 1 1.8 0 .9.9 0 0 1-1.8 0Z"/><path fill-rule="evenodd" clip-rule="evenodd" d="M.85 8a7.15 7.15 0 1 1 14.3 0A7.15 7.15 0 0 1 .85 8ZM8 2.15a5.85 5.85 0 1 0 0 11.7 5.85 5.85 0 0 0 0-11.7Z"/></g><defs><clipPath id="error-circle-compact__a"><path fill="#fff" d="M0 0h16v16H0z"/></clipPath></defs></svg>