<svg width="20" height="20" fill="none" xmlns="http://www.w3.org/2000/svg"><g clip-path="url(#signal_backups__a)" fill="#000"><path d="M5.526 3.85A7.567 7.567 0 0 1 10 2.396c1.673 0 3.218.54 4.474 1.454a.73.73 0 1 0 .859-1.178A9.025 9.025 0 0 0 10 .937a9.025 9.025 0 0 0-5.333 1.735.73.73 0 1 0 .86 1.178ZM3.85 5.527a.73.73 0 0 0-1.178-.86A9.025 9.025 0 0 0 .937 10a9.03 9.03 0 0 0 2.24 5.965l-.255.153a.625.625 0 0 0 .166 1.141l2.343.6c.46.117.879-.3.76-.76l-.599-2.344a.625.625 0 0 0-1.141-.166l-.22.366A7.572 7.572 0 0 1 2.396 10 7.57 7.57 0 0 1 3.85 5.527Zm13.478-.859a.73.73 0 1 0-1.178.859A7.567 7.567 0 0 1 17.604 10a7.57 7.57 0 0 1-1.454 4.473.73.73 0 0 0 1.178.86A9.025 9.025 0 0 0 19.063 10a9.025 9.025 0 0 0-1.735-5.332Zm-1.995 12.66a.73.73 0 1 0-.86-1.178 7.584 7.584 0 0 1-1.853.99.73.73 0 0 0 .503 1.37 9.044 9.044 0 0 0 2.21-1.182Zm-7.113.067a.73.73 0 1 0-.34 1.418 9.08 9.08 0 0 0 2.472.243.73.73 0 0 0-.056-1.457 7.647 7.647 0 0 1-2.076-.204ZM9.583 4.167c-.34 0-.62.27-.631.61l-.2 6.008a.833.833 0 0 0 .897.879l4.328-.197a.635.635 0 0 0 0-1.268l-3.587-.163-.175-5.258a.632.632 0 0 0-.632-.611Z"/></g><defs><clipPath id="signal_backups__a"><path fill="#fff" d="M0 0h20v20H0z"/></clipPath></defs></svg>