<svg width="20" height="20" fill="none" xmlns="http://www.w3.org/2000/svg"><path d="M10 2.917a.92.92 0 0 1 .92.951l-.288 8.334a.632.632 0 0 1-1.264 0L9.08 3.868a.92.92 0 0 1 .92-.951Zm-2.164 1.14a11.511 11.511 0 0 0-6.012 3.184.73.73 0 1 0 1.031 1.031 10.055 10.055 0 0 1 5.032-2.737l-.05-1.478Zm.124 3.601a7.986 7.986 0 0 0-3.632 2.087.73.73 0 1 0 1.031 1.031 6.533 6.533 0 0 1 2.653-1.615L7.96 7.658Zm4.027 1.502.052-1.502a7.986 7.986 0 0 1 3.632 2.087.73.73 0 0 1-1.03 1.031 6.534 6.534 0 0 0-2.654-1.615Zm-3.899 2.205a4.47 4.47 0 0 0-1.255.884.73.73 0 1 0 1.03 1.032c.13-.13.268-.244.412-.345a1.878 1.878 0 0 1-.156-.69l-.03-.881Zm3.636 1.571c.093-.213.149-.446.157-.69l.03-.881c.455.214.88.509 1.256.884a.73.73 0 0 1-1.031 1.032 3.05 3.05 0 0 0-.412-.345Zm.388-7.401.051-1.478a11.512 11.512 0 0 1 6.013 3.184.73.73 0 0 1-1.031 1.031 10.055 10.055 0 0 0-5.033-2.737ZM10 14.375a1.042 1.042 0 1 0 0 2.083 1.042 1.042 0 0 0 0-2.083Z" fill="#000"/></svg>