<svg width="24" height="24" viewBox="0 0 24 24" fill="none" xmlns="http://www.w3.org/2000/svg">
<path d="M12.5 7.875C12.9832 7.875 13.375 7.48325 13.375 7C13.375 6.51675 12.9832 6.125 12.5 6.125H11.5C11.0168 6.125 10.625 6.51675 10.625 7C10.625 7.48325 11.0168 7.875 11.5 7.875H12.5Z" fill="black" style="fill:black;fill-opacity:1;"/>
<path fill-rule="evenodd" clip-rule="evenodd" d="M6.96412 3.625H17.0359C17.7054 3.62499 18.2605 3.62498 18.7132 3.66197C19.1842 3.70045 19.6209 3.78329 20.0322 3.99285C20.6673 4.31643 21.1836 4.83274 21.5071 5.46778C21.7167 5.87908 21.7996 6.31576 21.838 6.78675C21.875 7.23946 21.875 7.79456 21.875 8.4641V17.25H22.5C23.1904 17.25 23.75 17.8096 23.75 18.5C23.75 19.1904 23.1904 19.75 22.5 19.75H1.5C0.809644 19.75 0.25 19.1904 0.25 18.5C0.25 17.8096 0.809644 17.25 1.5 17.25H2.125L2.125 8.46412C2.12499 7.79457 2.12498 7.23947 2.16197 6.78675C2.20045 6.31576 2.28329 5.87908 2.49285 5.46778C2.81643 4.83274 3.33274 4.31643 3.96778 3.99285C4.37908 3.78329 4.81576 3.70045 5.28675 3.66197C5.73947 3.62498 6.29457 3.62499 6.96412 3.625ZM20.125 8.5V17.25H3.875V8.5C3.875 7.7855 3.87568 7.30224 3.90615 6.92926C3.93579 6.56649 3.9892 6.38575 4.05211 6.26227C4.20791 5.9565 4.4565 5.70791 4.76227 5.55212C4.88575 5.4892 5.06649 5.43579 5.42926 5.40616C5.80224 5.37568 6.2855 5.375 7 5.375H17C17.7145 5.375 18.1978 5.37568 18.5707 5.40616C18.9335 5.43579 19.1143 5.4892 19.2377 5.55212C19.5435 5.70791 19.7921 5.9565 19.9479 6.26227C20.0108 6.38575 20.0642 6.56649 20.0938 6.92926C20.1243 7.30224 20.125 7.7855 20.125 8.5Z" fill="black" style="fill:black;fill-opacity:1;"/>
</svg>
