<svg width="16" height="16" fill="none" xmlns="http://www.w3.org/2000/svg"><path d="M8.423.85c-.537 0-.98 0-1.34.03-.373.03-.715.095-1.036.259A2.65 2.65 0 0 0 4.89 2.297c-.163.32-.229.663-.26 1.036l-.001.024c-.145.007-.274.02-.395.044a2.65 2.65 0 0 0-2.082 2.082c-.051.257-.051.55-.05.95v4.894c0 .537 0 .98.029 1.34.03.373.095.715.259 1.036.254.499.66.904 1.158 1.158.32.164.663.23 1.037.26.36.029.802.029 1.34.029h2.394c.399 0 .692 0 .95-.05a2.65 2.65 0 0 0 2.081-2.083 2.66 2.66 0 0 0 .044-.394l.024-.002c.373-.03.715-.096 1.036-.26a2.65 2.65 0 0 0 1.158-1.158c.164-.32.23-.663.26-1.037.03-.36.03-.802.03-1.34V4.674c0-.537 0-.98-.03-1.34-.03-.373-.096-.715-.26-1.036a2.65 2.65 0 0 0-1.158-1.158c-.32-.164-.663-.23-1.036-.26-.36-.029-.803-.029-1.34-.029H8.423Zm1.666 11.8a.987.987 0 0 1-.015.113 1.35 1.35 0 0 1-1.06 1.061c-.115.023-.268.026-.764.026h-2.3c-.57 0-.96 0-1.26-.025-.294-.024-.446-.068-.553-.122a1.35 1.35 0 0 1-.59-.59c-.054-.107-.098-.259-.122-.552A17.61 17.61 0 0 1 3.4 11.3V6.5c0-.496.003-.649.026-.763a1.35 1.35 0 0 1 1.06-1.061.972.972 0 0 1 .114-.015v4.166c0 .537 0 .98.03 1.34.03.373.096.715.259 1.036.254.499.66.904 1.158 1.158.32.164.663.23 1.037.26.36.029.802.029 1.34.029h1.665ZM6.637 2.297c.107-.054.26-.098.552-.122.301-.024.69-.025 1.261-.025h1.6c.57 0 .96 0 1.26.025.294.024.446.068.553.122.254.13.46.336.59.59.055.107.098.259.122.552.025.301.025.69.025 1.261v4.1c0 .57 0 .96-.025 1.26-.024.294-.067.446-.122.553a1.35 1.35 0 0 1-.59.59c-.107.054-.259.098-.552.122-.301.025-.69.025-1.26.025h-1.6c-.572 0-.96 0-1.262-.025-.293-.024-.445-.068-.552-.122a1.35 1.35 0 0 1-.59-.59c-.054-.107-.098-.259-.122-.552A17.625 17.625 0 0 1 5.9 8.8V4.7c0-.57 0-.96.025-1.26.024-.294.068-.446.122-.553.13-.254.336-.46.59-.59Z" fill="#000"/></svg>