<svg width="20" height="20" fill="none" xmlns="http://www.w3.org/2000/svg"><path d="M9.762.938c-.558 0-1.02 0-1.398.03-.392.032-.756.101-1.099.276-.53.27-.96.7-1.23 1.23-.174.342-.243.706-.275 1.098-.017.208-.024.44-.028.702-.26.003-.494.01-.701.028-.393.032-.757.1-1.1.275-.529.27-.959.7-1.228 1.23-.175.342-.244.706-.276 1.099-.031.377-.031.84-.031 1.397v6.727c0 .558 0 1.02.03 1.398.033.392.102.756.277 1.099.27.53.7.96 1.229 1.229.342.175.706.244 1.099.276.377.03.84.03 1.398.03h3.81c.557 0 1.02 0 1.397-.03.393-.032.757-.101 1.1-.276.529-.27.959-.7 1.228-1.23.175-.342.244-.706.276-1.098.017-.208.025-.44.028-.702.26-.003.494-.01.701-.028.393-.032.757-.1 1.1-.275.529-.27.96-.7 1.229-1.23.174-.342.244-.706.276-1.099.03-.377.03-.84.03-1.397V4.97c0-.558 0-1.02-.03-1.398-.033-.392-.102-.756-.276-1.099a2.81 2.81 0 0 0-1.23-1.229c-.342-.175-.706-.244-1.099-.276-.377-.03-.84-.03-1.397-.03h-3.81Zm3.048 14.791a8.8 8.8 0 0 1-.023.58c-.025.302-.07.453-.122.556-.13.255-.337.462-.592.592-.103.052-.253.096-.556.121-.31.026-.713.026-1.308.026h-3.75c-.596 0-.999 0-1.31-.026-.302-.024-.452-.069-.555-.121a1.355 1.355 0 0 1-.592-.592c-.052-.103-.097-.254-.122-.556-.025-.31-.026-.714-.026-1.309V8.333c0-.595 0-.998.026-1.309.025-.302.07-.453.122-.555.13-.255.337-.462.592-.592.103-.053.253-.097.556-.122.163-.013.351-.02.58-.023v5.965c0 .558 0 1.02.03 1.397.032.393.101.757.276 1.1.27.529.7.959 1.229 1.229.343.174.707.243 1.1.275.376.031.839.031 1.397.031h3.048ZM7.927 2.543c.103-.052.254-.097.556-.121.31-.026.713-.026 1.309-.026h3.75c.595 0 .998 0 1.309.026.302.024.453.069.556.121.254.13.462.337.591.592.053.103.097.254.122.556.025.31.026.714.026 1.309v6.667c0 .595 0 .998-.026 1.309-.025.302-.07.452-.122.555-.13.255-.337.462-.591.592-.103.053-.254.097-.556.122-.311.025-.714.026-1.31.026h-3.75c-.595 0-.997 0-1.308-.026-.302-.025-.453-.07-.556-.122a1.354 1.354 0 0 1-.592-.592c-.052-.103-.097-.253-.121-.555-.026-.311-.026-.714-.026-1.31V5c0-.595 0-.998.026-1.309.024-.302.069-.453.121-.556.13-.255.337-.462.592-.592Z" fill="#000"/></svg>