<svg xmlns="http://www.w3.org/2000/svg" width="24" height="24" fill="none"><path fill="#848484" d="M14 21a8.91 8.91 0 0 1-6.545-2.823l1.09-1.029A7.43 7.43 0 0 0 14 19.5a7.5 7.5 0 0 0 0-15 7.432 7.432 0 0 0-5.455 2.352l-1.09-1.029A8.912 8.912 0 0 1 14 3a9 9 0 0 1 0 18Zm4.608-5.812a.749.749 0 1 0-1.216-.876 4.267 4.267 0 0 1-6.786.015.748.748 0 0 0-1.245.05.75.75 0 0 0 .033.832 5.762 5.762 0 0 0 9.214-.021ZM11.25 8.75A1.476 1.476 0 0 0 10 10.375 1.477 1.477 0 0 0 11.25 12a1.476 1.476 0 0 0 1.25-1.625 1.476 1.476 0 0 0-1.25-1.625Zm5.5 0a1.476 1.476 0 0 0-1.25 1.625A1.476 1.476 0 0 0 16.75 12 1.476 1.476 0 0 0 18 10.375a1.476 1.476 0 0 0-1.25-1.625ZM8 11.25H4.75V8h-1.5v3.25H0v1.5h3.25V16h1.5v-3.25H8v-1.5Z"/></svg>