<svg xmlns="http://www.w3.org/2000/svg" width="20" height="20"><path d="M12.1 10.4a4.708 4.708 0 0 1 0-4.6 3.425 3.425 0 0 0 .4-1.8 4.711 4.711 0 0 0-.4-1.7l1.4-.6a7.926 7.926 0 0 1 .5 2.5 4.645 4.645 0 0 1-.6 2.3 4.711 4.711 0 0 0-.4 1.7 4.193 4.193 0 0 0 .4 1.6zm-1.7-.6a4.193 4.193 0 0 1-.4-1.6 4.711 4.711 0 0 1 .4-1.7 4.708 4.708 0 0 0 0-4.6l-1.3.6a4.711 4.711 0 0 1 .4 1.7A5.84 5.84 0 0 1 9.1 6a4.032 4.032 0 0 0-.6 2.2 4.645 4.645 0 0 0 .6 2.3zm8.6.5c0 2.7-2.3 8.7-9 8.7a8.966 8.966 0 0 1-9-8.7C1 9.1 2.8 8 5.6 7.4a8.8 8.8 0 0 1 .5-1.5 3.425 3.425 0 0 0 .4-1.8 4.711 4.711 0 0 0-.4-1.7l1.4-.6A6.874 6.874 0 0 1 8 4.2a4.645 4.645 0 0 1-.6 2.3A4.711 4.711 0 0 0 7 8.2v.5a5.638 5.638 0 0 0 .4 1.2l-1.4.5A5.732 5.732 0 0 1 5.6 9a5.574 5.574 0 0 0-3 1.4c.4.6 2.9 1.9 7.5 1.9s7.1-1.3 7.5-1.9A6.061 6.061 0 0 0 14.7 9a2.2 2.2 0 0 1-.1-.8 1.7 1.7 0 0 1 .1-.7c2.5.5 4.3 1.6 4.3 2.8zM17.2 12a1.555 1.555 0 0 1-.8.6 19.914 19.914 0 0 1-6.4 1 18.9 18.9 0 0 1-6.3-1 1.456 1.456 0 0 1-.9-.6 4.875 4.875 0 0 0 .4 1.1 7.185 7.185 0 0 0 6.8 4.5 7.268 7.268 0 0 0 6.9-4.5c.1-.4.2-.7.3-1.1z"/></svg>