<svg xmlns="http://www.w3.org/2000/svg" width="20" height="20"><path d="M10 1a8.751 8.751 0 0 0-9 9 8.751 8.751 0 0 0 9 9 8.751 8.751 0 0 0 9-9 8.751 8.751 0 0 0-9-9zm2.75 5.75A1.476 1.476 0 0 1 14 8.375 1.476 1.476 0 0 1 12.75 10a1.476 1.476 0 0 1-1.25-1.625 1.476 1.476 0 0 1 1.25-1.625zm-5.5 0A1.476 1.476 0 0 1 8.5 8.375 1.476 1.476 0 0 1 7.25 10 1.476 1.476 0 0 1 6 8.375 1.476 1.476 0 0 1 7.25 6.75zm7.358 6.438a5.762 5.762 0 0 1-9.214.021.749.749 0 0 1 1.212-.882 4.266 4.266 0 0 0 6.786-.015.749.749 0 1 1 1.216.876z"/></svg>