<svg xmlns="http://www.w3.org/2000/svg" width="600" height="600" fill="none"><path fill="#000" d="M600 300c0 165.685-134.315 300-300 300S0 465.685 0 300 134.315 0 300 0s300 134.315 300 300" opacity=".8"/><path fill="red" d="M310.002 295.313c0 5.523-4.477 10-10 10s-10-4.477-10-10 4.477-10 10-10 10 4.477 10 10"/><path fill="#FFBE20" d="M320 300c0 11.046-8.954 20-20 20s-20-8.954-20-20 8.954-20 20-20 20 8.954 20 20"/><path fill="#fff" d="M283.959 83.409v-54.47h-5.486c-1.175 5.565-5.407 8.23-9.953 8.23h-1.332v6.034h2.116c2.586 0 6.426-.94 8.15-3.057V83.41zm42.067 0v-5.957h-23.277c5.878-5.721 10.502-10.424 14.421-15.361 5.565-6.662 8.229-13.167 8.229-19.593 0-9.64-5.407-14.735-14.969-14.735-9.718 0-15.596 5.487-15.596 14.656q0 2.352.47 4.468l7.054.862a24.2 24.2 0 0 1-.549-5.173c0-5.8 3.057-9.091 8.308-9.091 5.172 0 8.072 3.213 8.072 9.326 0 5.565-2.038 10.894-6.818 16.85-4.938 5.957-10.738 11.756-17.086 18.183v5.565zm106.285 34.226V62.723h-5.531c-1.185 5.61-5.452 8.296-10.034 8.296h-1.344v6.084h2.134c2.607 0 6.478-.949 8.217-3.082v43.614zm96.38 88.732v-6.004h-23.466c5.925-5.768 10.587-10.509 14.537-15.486 5.61-6.716 8.297-13.274 8.297-19.753 0-9.718-5.452-14.854-15.091-14.854-9.798 0-15.724 5.531-15.724 14.775q0 2.37.475 4.504l7.11.869a24.4 24.4 0 0 1-.553-5.215c0-5.847 3.082-9.165 8.375-9.165 5.215 0 8.139 3.239 8.139 9.402 0 5.61-2.055 10.982-6.874 16.987-4.978 6.005-10.825 11.852-17.225 18.331v5.609zm-2.79 221.286h-7.506v-36.187h-7.743l-20.148 36.74v4.74h21.491v13.432h6.4v-13.432h7.506zm-13.906 0h-15.249c1.422-1.739 2.528-3.714 3.95-6.242l7.98-14.933c1.501-2.924 2.45-5.057 3.319-7.822h.158c-.158 2.923-.158 4.977-.158 8.612zm-95.806 103.543c10.35 0 16.355-7.347 16.355-19.515 0-11.931-4.978-18.647-13.827-18.647-5.215 0-9.086 2.292-11.298 6.637l1.501-18.646h21.254v-5.926h-26.706l-2.291 31.051 6.479.711c.948-5.056 4.187-8.217 9.007-8.217 5.847 0 8.849 4.741 8.849 13.432 0 8.77-3.239 13.432-9.165 13.432-5.294 0-8.296-4.109-8.928-10.114l-7.032.791c.711 9.086 6.558 15.011 15.802 15.011m-116.801-5.688c-5.531 0-9.561 2.607-11.773 7.032.158-14.064 3.556-20.938 10.351-20.938 4.898 0 7.427 3.082 8.059 9.481l7.032-1.185c-.949-9.244-6.163-13.826-15.012-13.826-11.062 0-17.225 8.138-17.225 28.838 0 20.464 5.531 28.444 16.988 28.444 9.876 0 15.881-7.19 15.881-19.278 0-11.694-5.294-18.568-14.301-18.568m-1.58 32.236c-5.926 0-9.64-4.74-10.114-17.066 1.501-6.005 4.741-9.639 9.956-9.639 5.688 0 9.007 4.819 9.007 13.116 0 9.007-3.319 13.589-8.849 13.589M174.488 527.7v-4.346c.079-15.96 5.135-31.999 15.802-45.589v-4.978h-30.577v6.163h23.466c-10.192 14.617-15.723 29.866-15.881 46.458v2.292zM96.071 417.677c6.088-2.134 8.935-6.088 8.935-12.571 0-9.172-6.01-14.153-15.576-14.153-9.409 0-15.655 5.218-15.655 14.232 0 7.274 3.162 10.99 8.934 13.52-6.72 2.135-10.2 6.721-10.2 14.074 0 9.725 6.326 15.497 17.158 15.497 10.358 0 16.841-5.377 16.841-15.813 0-8.144-3.637-12.097-10.437-14.786m-6.72-21.664c5.613 0 8.934 2.926 8.934 9.093 0 6.246-1.897 8.618-7.59 10.753l-2.056-.712c-5.218-1.818-8.064-4.032-8.064-10.12s3.32-9.014 8.776-9.014m.316 46.886c-6.483 0-10.279-3.795-10.279-10.278 0-6.721 2.61-9.884 8.777-12.018l2.767.949c5.693 1.976 8.697 4.664 8.697 11.148 0 7.195-3.637 10.199-9.962 10.199M71.09 211.055v-54.912h-5.53c-1.186 5.609-5.453 8.296-10.035 8.296h-1.343v6.084h2.133c2.607 0 6.479-.949 8.217-3.082v43.614zm29.688 1.185c11.456 0 17.935-7.269 17.935-28.681s-6.479-28.601-17.935-28.601c-11.457 0-17.935 7.189-17.935 28.601s6.478 28.681 17.935 28.681m0-5.61c-7.19 0-10.982-5.372-10.982-23.071 0-17.698 3.792-22.992 10.982-22.992s10.982 5.294 10.982 22.992c0 17.699-3.792 23.071-10.982 23.071m58.568-86.683V65.034h-5.531c-1.185 5.61-5.452 8.296-10.034 8.296h-1.343v6.084h2.133c2.607 0 6.479-.948 8.217-3.081v43.614zm27.16 0V65.034h-5.531c-1.185 5.61-5.452 8.296-10.035 8.296h-1.343v6.084h2.134c2.607 0 6.478-.948 8.217-3.081v43.614zm357.763 207.874c10.034 0 16.039-5.61 16.039-15.96 0-7.822-3.555-12.958-10.113-14.064 5.61-1.422 9.007-6.558 9.007-13.274 0-9.244-5.531-13.985-14.933-13.985-10.429 0-15.881 6.479-15.96 17.067l6.795 1.027c.079-8.612 2.844-12.405 9.007-12.405 5.057 0 8.059 2.844 8.059 8.77 0 6.558-3.081 10.272-8.849 10.272h-2.528v5.688h2.765c6.321 0 9.718 3.793 9.718 10.983 0 6.874-3.16 10.192-9.007 10.192-5.926 0-9.481-4.108-9.56-12.326l-6.953.791c.158 11.377 6.163 17.224 16.513 17.224M50.575 270.538c-10.034 0-15.96 7.032-15.96 18.015 0 11.535 5.689 17.777 14.696 17.777 5.136 0 9.402-2.37 11.615-6.953 0 18.014-3.24 22.913-10.193 22.913-5.214 0-7.98-3.555-8.612-9.876l-6.953 1.343c1.107 9.165 6.4 14.064 15.407 14.064 10.825 0 16.671-6.716 16.671-29.313 0-21.965-5.925-27.97-16.67-27.97Zm.158 30.261c-5.688 0-9.165-4.503-9.165-12.404s3.319-12.326 9.007-12.326c6.637 0 9.56 3.635 10.193 14.143-1.107 6.716-4.978 10.587-10.035 10.587"/></svg>