<svg xmlns="http://www.w3.org/2000/svg" width="600" height="600" fill="none"><circle cx="300" cy="300" r="300" fill="#000" opacity=".5"/><path fill="#fff" d="M291 42.001h20v64h-20zM291 493.999h20v64h-20zM421.334 71.567l17.32 10-32 55.426-17.32-10zM195.336 463.01l17.32 10-32 55.426-17.32-10zM519.434 162.34l10 17.32-55.426 32-10-17.32zM127.99 388.34l10 17.32-55.426 32-10-17.32zM529.439 420.34l-10 17.32-55.426-32 10-17.32zM137.988 194.341l-10 17.32-55.426-32 10-17.32zM438.656 518.436l-17.32 10-32-55.426 17.32-10zM212.66 126.99l-17.32 10-32-55.426 17.32-10zM42.004 309.998v-20h64v20zM494.531 309.998v-20h64v20z"/></svg>