<svg xmlns="http://www.w3.org/2000/svg" width="600" height="600" fill="none"><circle cx="300" cy="300" r="300" fill="#000" opacity=".8"/><rect width="28" height="80" x="286" y="488" fill="#fff" rx="2"/><rect width="28" height="80" x="286" y="488" fill="#fff" rx="2"/><rect width="28" height="80" x="286" y="488" fill="#D1FFC1" rx="2"/><rect width="28" height="80" x="32" y="314" fill="#fff" rx="2" transform="rotate(-90 32 314)"/><rect width="28" height="80" x="32" y="314" fill="#fff" rx="2" transform="rotate(-90 32 314)"/><rect width="28" height="80" x="32" y="314" fill="#D1FFC1" rx="2" transform="rotate(-90 32 314)"/><rect width="28" height="80" x="488" y="314" fill="#fff" rx="2" transform="rotate(-90 488 314)"/><rect width="28" height="80" x="488" y="314" fill="#fff" rx="2" transform="rotate(-90 488 314)"/><rect width="28" height="80" x="488" y="314" fill="#D1FFC1" rx="2" transform="rotate(-90 488 314)"/><circle cx="424.049" cy="86.941" r="23.875" fill="#fff" transform="rotate(30 424.049 86.94)"/><circle cx="424.049" cy="86.941" r="23.875" fill="#fff" transform="rotate(30 424.049 86.94)"/><circle cx="424.049" cy="86.941" r="23.875" fill="#D1FFC1" transform="rotate(30 424.049 86.94)"/><circle cx="178.028" cy="513.062" r="23.875" fill="#fff" transform="rotate(30 178.028 513.062)"/><circle cx="178.028" cy="513.062" r="23.875" fill="#fff" transform="rotate(30 178.028 513.062)"/><circle cx="178.028" cy="513.062" r="23.875" fill="#D1FFC1" transform="rotate(30 178.028 513.062)"/><circle cx="514.099" cy="176.989" r="23.875" fill="#fff" transform="rotate(60 514.099 176.989)"/><circle cx="514.099" cy="176.989" r="23.875" fill="#fff" transform="rotate(60 514.099 176.989)"/><circle cx="514.099" cy="176.989" r="23.875" fill="#D1FFC1" transform="rotate(60 514.099 176.989)"/><circle cx="87.978" cy="423.011" r="23.875" fill="#fff" transform="rotate(60 87.978 423.011)"/><circle cx="87.978" cy="423.011" r="23.875" fill="#fff" transform="rotate(60 87.978 423.011)"/><circle cx="87.978" cy="423.011" r="23.875" fill="#D1FFC1" transform="rotate(60 87.978 423.011)"/><circle cx="514.096" cy="423.01" r="23.875" fill="#fff" transform="rotate(120 514.096 423.01)"/><circle cx="514.096" cy="423.01" r="23.875" fill="#fff" transform="rotate(120 514.096 423.01)"/><circle cx="514.096" cy="423.01" r="23.875" fill="#D1FFC1" transform="rotate(120 514.096 423.01)"/><circle cx="87.976" cy="176.989" r="23.875" fill="#fff" transform="rotate(120 87.976 176.989)"/><circle cx="87.976" cy="176.989" r="23.875" fill="#fff" transform="rotate(120 87.976 176.989)"/><circle cx="87.976" cy="176.989" r="23.875" fill="#D1FFC1" transform="rotate(120 87.976 176.989)"/><circle cx="424.049" cy="513.06" r="23.875" fill="#fff" transform="rotate(150 424.049 513.06)"/><circle cx="424.049" cy="513.06" r="23.875" fill="#fff" transform="rotate(150 424.049 513.06)"/><circle cx="424.049" cy="513.06" r="23.875" fill="#D1FFC1" transform="rotate(150 424.049 513.06)"/><circle cx="178.028" cy="86.939" r="23.875" fill="#fff" transform="rotate(150 178.028 86.939)"/><circle cx="178.028" cy="86.939" r="23.875" fill="#fff" transform="rotate(150 178.028 86.939)"/><circle cx="178.028" cy="86.939" r="23.875" fill="#D1FFC1" transform="rotate(150 178.028 86.939)"/><path fill="#fff" d="M301.829 115.866c-.703 1.588-2.955 1.588-3.658 0l-32.435-73.307a2 2 0 0 1 1.829-2.809h64.87a2 2 0 0 1 1.829 2.81z"/><path fill="#fff" d="M301.829 115.866c-.703 1.588-2.955 1.588-3.658 0l-32.435-73.307a2 2 0 0 1 1.829-2.809h64.87a2 2 0 0 1 1.829 2.81z"/><path fill="#D1FFC1" d="M301.829 115.866c-.703 1.588-2.955 1.588-3.658 0l-32.435-73.307a2 2 0 0 1 1.829-2.809h64.87a2 2 0 0 1 1.829 2.81z"/></svg>