<svg xmlns="http://www.w3.org/2000/svg" width="600" height="600" fill="none"><circle cx="300" cy="300" r="300" fill="#fff" opacity=".3"/><rect width="20" height="40" x="519.434" y="162.34" fill="#fff" rx="10" transform="rotate(60 519.434 162.34)"/><rect width="20" height="40" x="107.209" y="400.339" fill="#fff" rx="10" transform="rotate(60 107.209 400.339)"/><rect width="20" height="40" x="421.344" y="71.566" fill="#fff" rx="10" transform="rotate(30 421.344 71.566)"/><rect width="20" height="40" x="183.344" y="483.794" fill="#fff" rx="10" transform="rotate(30 183.344 483.794)"/><rect width="20" height="40" x="163.34" y="81.565" fill="#fff" rx="10" transform="rotate(-30 163.34 81.565)"/><rect width="20" height="40" x="401.34" y="493.794" fill="#fff" rx="10" transform="rotate(-30 401.34 493.794)"/><rect width="20" height="40" x="72.566" y="179.66" fill="#fff" rx="10" transform="rotate(-60 72.566 179.66)"/><rect width="20" height="40" x="484.789" y="417.66" fill="#fff" rx="10" transform="rotate(-60 484.789 417.66)"/><circle cx="300.002" cy="300" r="10" fill="red"/><circle cx="300" cy="300" r="22" fill="#fff"/><path fill="#fff" d="M285.472 80.644v-54.47h-7.288c-1.489 5.486-5.486 8.151-10.424 8.151h-1.332v8.15h1.959c2.9 0 6.505-.861 8.229-2.82v40.989zm43.133 0V73.12h-22.336c5.956-5.408 10.345-9.64 13.95-14.107 5.33-6.27 7.916-12.383 7.916-18.732 0-10.267-5.799-15.282-16.223-15.282s-16.772 5.72-16.772 15.126c0 1.489.157 2.9.47 4.31l9.248 1.019a28.5 28.5 0 0 1-.47-5.016c0-5.172 2.586-8.15 7.132-8.15 4.467 0 6.975 2.82 6.975 8.307 0 5.408-1.881 10.267-6.426 15.753-4.468 5.33-10.111 10.737-17.243 17.32v6.976zm-28.329 455.925c-5.452 0-9.244 2.291-11.456 6.241.158-12.878 3.16-18.409 9.086-18.409 4.266 0 6.479 2.765 7.111 8.454l9.086-1.422c-.948-9.402-6.4-14.064-16.039-14.064-11.615 0-18.252 8.138-18.252 28.76 0 20.306 6.005 28.523 18.094 28.523 10.429 0 16.829-7.427 16.829-19.674 0-11.93-5.61-18.409-14.459-18.409m-2.528 30.972c-5.294 0-8.533-4.425-8.928-16.039 1.501-4.978 4.424-7.901 8.849-7.901 4.977 0 7.901 4.108 7.901 11.693 0 8.217-2.924 12.247-7.822 12.247m255.915-237.798c10.746 0 17.146-5.846 17.146-16.197 0-7.585-3.556-12.562-10.351-13.668 5.847-1.423 9.402-6.558 9.402-13.116 0-9.402-5.925-14.301-16.118-14.301-10.982 0-17.066 6.321-17.145 17.224l9.086 1.264c.079-7.98 2.529-11.298 7.822-11.298 4.425 0 6.953 2.449 6.953 7.901 0 5.847-2.765 9.244-7.98 9.244h-2.449v6.953h2.607c5.768 0 8.77 3.239 8.77 9.718 0 6.005-2.765 9.007-7.743 9.007-5.135 0-8.217-3.713-8.217-11.298l-9.323 1.027c.158 11.615 6.558 17.54 17.54 17.54M45.991 272.461c-10.745 0-16.987 7.19-16.987 18.33 0 11.378 5.768 17.778 15.012 17.778 4.82 0 8.928-1.976 11.14-6.005-.158 15.881-3.002 20.069-8.928 20.069-4.503 0-7.032-3.24-7.585-8.85l-9.007 1.581c.948 9.244 6.637 14.379 16.276 14.379 11.694 0 17.857-6.715 17.857-29.154 0-22.044-6.163-28.128-17.778-28.128m.158 29.155c-4.977 0-8.059-4.109-8.059-11.062 0-7.269 2.923-11.14 7.98-11.14 5.926 0 8.533 3.318 9.007 13.748-1.264 5.451-4.661 8.454-8.928 8.454"/></svg>