<svg width="20" height="20" fill="none" xmlns="http://www.w3.org/2000/svg"><path d="M2.814 3.758c.853-.95 2.033-1.466 3.327-1.466 1.604 0 3.048.98 3.859 2.361.81-1.38 2.254-2.361 3.86-2.361 1.293 0 2.473.516 3.326 1.466.851.948 1.356 2.303 1.356 3.95 0 .583-.104 1.202-.295 1.84a5.417 5.417 0 0 0-6.837 8.264c-.4.248-.808.478-1.224.686a.416.416 0 0 1-.372 0c-2.298-1.148-4.376-2.966-5.882-4.92-1.498-1.943-2.474-4.079-2.474-5.87 0-1.647.505-3.002 1.356-3.95Z" fill="#000"/><path d="M15.417 10.52a.73.73 0 0 1 .729.73v2.188h2.187a.73.73 0 1 1 0 1.458h-2.187v2.187a.73.73 0 0 1-1.459 0v-2.187H12.5a.73.73 0 0 1 0-1.459h2.187V11.25a.73.73 0 0 1 .73-.73Z" fill="#000"/></svg>