<svg width="20" height="20" fill="none" xmlns="http://www.w3.org/2000/svg"><path d="M2.814 3.758c.853-.95 2.033-1.466 3.327-1.466 1.605 0 3.048.98 3.859 2.361.811-1.38 2.255-2.361 3.86-2.361 1.293 0 2.473.516 3.326 1.466.851.948 1.356 2.303 1.356 3.95 0 .392-.047.8-.135 1.218a6.25 6.25 0 0 0-8.012 9.466l-.209.106a.417.417 0 0 1-.372 0c-2.298-1.147-4.376-2.966-5.882-4.92-1.498-1.943-2.474-4.079-2.474-5.87 0-1.647.505-3.002 1.356-3.95Z" fill="#000"/><path d="M15 10.52a.73.73 0 0 1 .73.73v2.188h2.187a.73.73 0 1 1 0 1.458h-2.188v2.187a.73.73 0 0 1-1.458 0v-2.187h-2.188a.73.73 0 1 1 0-1.459h2.188V11.25a.73.73 0 0 1 .729-.73Z" fill="#000"/></svg>