<svg xmlns="http://www.w3.org/2000/svg" width="20" height="20" fill="none"><path fill="#000" d="M2.405 3.377c.934-1.04 2.226-1.606 3.637-1.606 1.607 0 3.049.888 3.958 2.172.91-1.284 2.351-2.172 3.958-2.172 1.41 0 2.703.566 3.637 1.606.93 1.038 1.468 2.505 1.468 4.258 0 1.935-1.046 4.193-2.6 6.212-1.569 2.038-3.735 3.937-6.137 5.138a.73.73 0 0 1-.652 0c-2.402-1.2-4.568-3.1-6.137-5.138-1.554-2.019-2.6-4.277-2.6-6.212 0-1.753.537-3.22 1.468-4.258m1.086.974c-.653.727-1.095 1.828-1.095 3.284 0 1.471.83 3.417 2.296 5.322 1.38 1.792 3.254 3.458 5.308 4.555 2.054-1.097 3.928-2.763 5.308-4.555 1.466-1.905 2.296-3.85 2.296-5.322 0-1.456-.442-2.557-1.095-3.284-.65-.725-1.545-1.122-2.55-1.122-1.39 0-2.734 1.038-3.274 2.517a.729.729 0 0 1-1.37 0c-.54-1.479-1.885-2.517-3.273-2.517-1.006 0-1.901.397-2.551 1.122"/></svg>