<svg width="20" height="20" fill="none" xmlns="http://www.w3.org/2000/svg"><path d="M3.426 4.28c-.613.681-1.03 1.714-1.03 3.085 0 1.17.562 2.675 1.6 4.223a16.416 16.416 0 0 0 4.13 4.193.73.73 0 0 1-.836 1.195 17.875 17.875 0 0 1-4.504-4.575C1.668 10.735.937 8.943.937 7.365c0-1.67.513-3.07 1.405-4.06.894-.994 2.132-1.534 3.48-1.534 1.523 0 2.89.83 3.761 2.032.872-1.203 2.238-2.032 3.76-2.032 1.35 0 2.588.54 3.482 1.534.891.99 1.404 2.39 1.404 4.06 0 .286-.024.577-.069.87a.73.73 0 0 1-1.441-.22 4.3 4.3 0 0 0 .052-.65c0-1.371-.418-2.404-1.03-3.085-.61-.679-1.45-1.05-2.397-1.05-1.303 0-2.568.971-3.076 2.359a.73.73 0 0 1-1.37 0c-.507-1.388-1.773-2.36-3.075-2.36-.946 0-1.787.372-2.397 1.05Z" fill="#000"/><path d="M14.583 9.687a.73.73 0 0 1 .73.73v3.02h3.02a.73.73 0 1 1 0 1.459h-3.02v3.02a.73.73 0 1 1-1.459 0v-3.02h-3.02a.73.73 0 1 1 0-1.459h3.02v-3.02a.73.73 0 0 1 .73-.73Z" fill="#000"/></svg>