<svg width="16" height="16" fill="none" xmlns="http://www.w3.org/2000/svg"><path d="M2.977 3.975c-.49.53-.827 1.338-.827 2.417 0 .907.446 2.086 1.285 3.311a13.232 13.232 0 0 0 3.34 3.327.65.65 0 0 1-.739 1.07 14.53 14.53 0 0 1-3.674-3.662C1.452 9.108.85 7.67.85 6.392c0-1.354.427-2.493 1.172-3.3.746-.807 1.775-1.242 2.89-1.242 1.24 0 2.36.647 3.088 1.598.728-.95 1.847-1.598 3.088-1.598 1.116 0 2.145.435 2.89 1.243.745.806 1.172 1.945 1.172 3.299 0 .14-.007.28-.02.42a.65.65 0 0 1-1.295-.125c.01-.102.015-.2.015-.295 0-1.079-.337-1.886-.827-2.417-.49-.53-1.167-.825-1.935-.825-1.055 0-2.073.767-2.48 1.849a.65.65 0 0 1-1.216 0C6.985 3.917 5.967 3.15 4.912 3.15c-.768 0-1.445.295-1.935.825Z" fill="#000"/><path d="M11.75 7.85a.65.65 0 0 1 .65.65v2.35h2.35a.65.65 0 1 1 0 1.3H12.4v2.35a.65.65 0 1 1-1.3 0v-2.35H8.75a.65.65 0 1 1 0-1.3h2.35V8.5a.65.65 0 0 1 .65-.65Z" fill="#000"/></svg>