<svg width="20" height="20" fill="none" xmlns="http://www.w3.org/2000/svg"><g clip-path="url(#stop-circle__a)" fill="#000"><path d="M7.083 8.125c0-.575.467-1.042 1.042-1.042h3.75c.575 0 1.042.467 1.042 1.042v3.75c0 .575-.467 1.042-1.042 1.042h-3.75a1.042 1.042 0 0 1-1.042-1.042v-3.75Z"/><path fill-rule="evenodd" clip-rule="evenodd" d="M10 .938a9.063 9.063 0 1 0 0 18.125A9.063 9.063 0 0 0 10 .938ZM2.396 10a7.604 7.604 0 1 1 15.208 0 7.604 7.604 0 0 1-15.208 0Z"/></g><defs><clipPath id="stop-circle__a"><path fill="#fff" d="M0 0h20v20H0z"/></clipPath></defs></svg>