<svg xmlns="http://www.w3.org/2000/svg" width="1024" height="1024" fill="none" viewBox="0 0 56 56"><path fill="#8cc63f" d="m24.669 55.804 1.862-12.492 3.072-10.19 3.793-2.616 7.942-1.52 4.08-1.816 1.386-1.454.076-2.84-1.306-3.571-2.185-1.167-6.04-.953-3.133-.223s-1.018-.586-1.237-.586-.508-2.114-.508-2.114l-1.526-3.425-2.258-1.46-2.767-.076-3.717.652-2.915 1.307-1.24 2.546s.287 3.424.287 3.643.215 2.986.215 2.986l-1.314 3.13s-3.36 6.26-3.36 6.551c0 .245-2.099 6.196-2.827 8.26-.142.403-.232.658-.243.694-.074.218-1.394 8.083-1.394 8.083l-.003 1.785a27.9 27.9 0 0 0 15.26 6.866"/><g fill="#000"><path d="M25.2 55.862q.056-.933.131-1.864c.423-5.318 1.284-10.638 2.999-15.702.714-2.116 1.553-4.309 3.096-5.968a6.8 6.8 0 0 1 2.82-1.821c1.028-.351 2.117-.491 3.192-.63l.35-.045c2.56-.332 5.065-.96 7.316-2.272.935-.546 1.823-1.293 2.131-2.37.345-1.196 0-2.595-.324-3.763-.302-1.085-.822-2.063-1.793-2.685-.952-.61-2.08-.864-3.185-1.04a93 93 0 0 0-2.8-.393q-.567-.074-1.132-.15-1.068-.141-2.135-.29l-.504-.069-.503-.068-.224-.026c-.231-.026-.47-.052-.681-.132-.509-.191-.658-.806-.777-1.298l-.032-.13q-.104-.43-.198-.862a25 25 0 0 0-.198-.861c-.287-1.129-.73-2.166-1.617-2.952-1.86-1.644-4.605-1.684-6.917-1.235-1.278.25-2.574.607-3.794 1.065-1.048.393-2.002 1.023-2.496 2.06-.73 1.53-.48 3.156-.23 4.775.121.784.242 1.566.25 2.334.017 1.355-.448 2.533-1.107 3.693q-.315.549-.635 1.093c-.41.698-.819 1.396-1.202 2.113a53 53 0 0 0-2.969 6.65 55.1 55.1 0 0 0-3.248 15.346q.53.5 1.086.973c.203-4.242.9-8.461 2.074-12.545a53 53 0 0 1 2.436-6.738c.97-2.211 2.119-4.316 3.345-6.391.629-1.065 1.207-2.189 1.333-3.44.104-1.042-.061-2.075-.226-3.103-.051-.32-.102-.638-.145-.957-.141-1.058-.184-2.186.154-3.211.351-1.073 1.126-1.795 2.16-2.22 1.165-.48 2.447-.808 3.678-1.058 1.16-.236 2.362-.322 3.512-.003 1.01.279 1.963.86 2.571 1.726s.837 1.905 1.06 2.924l.086.384.052.236c.101.468.21.972.45 1.371.31.515.893.687 1.452.783.911.154 1.831.27 2.75.385q.665.082 1.327.171.606.082 1.214.16c.89.113 1.78.227 2.662.378 1.008.173 2.04.463 2.813 1.164.883.8 1.17 2.028 1.391 3.148.24 1.202.41 2.49-.37 3.54-.676.912-1.783 1.455-2.795 1.91a16.8 16.8 0 0 1-3.644 1.156c-.681.132-1.374.224-2.067.315-1.711.226-3.423.452-4.96 1.3-1.921 1.06-3.143 2.97-4 4.93-.984 2.254-1.681 4.659-2.261 7.045a67 67 0 0 0-1.371 7.718 93 93 0 0 0-.482 5.31q.562.08 1.13.136z"/><path d="M30.188 19.799a1.093 1.093 0 1 1-2.186-.003 1.093 1.093 0 0 1 2.186.003"/></g></svg>