<svg xmlns="http://www.w3.org/2000/svg" width="1024" height="1024" fill="none" viewBox="0 0 56 56"><path fill="#5aa87d" d="M23.515 55.65c1.448.23 2.933.35 4.446.35C43.446 56 56 43.464 56 28S43.446 0 27.96 0c-2.17 0-4.283.246-6.312.712 1.092 1.341 4.207 5.46 5.101 8.63 1.06 3.76 2.77 12.155-2.941 18.652s-6.636 7.768-6.636 7.768l14.058-1.24s-7.799 4.854-8.243 15.387c.136 1.148.364 3.827.527 5.741z"/><g fill="#043419"><path d="M20.96.893A28 28 0 0 1 22.157.61c.93.871 1.726 1.95 2.453 3.023a25 25 0 0 1 1.945 3.413c1.103 2.35 1.851 4.923 2.05 7.566.203 2.712-.222 5.405-1.17 7.913-.98 2.602-2.452 4.945-4.134 7.057-1.654 2.081-3.51 3.95-5.383 5.785a406 406 0 0 1 1.927-.157q5.564-.447 11.143-.728c.233-.01.549.077.685.277s.013.37-.156.49c-.173.124-.346.247-.515.378l-.017.013-.02.014-.027.022-.002.001-.027.02-.064.05-.114.091-.115.092q-.475.385-.924.801a19 19 0 0 0-1.675 1.745 18.6 18.6 0 0 0-2.373 3.531 19.4 19.4 0 0 0-1.673 4.478l.104.024.097.02.066.013.079.014.014.003q.375.07.755.117l.125.013q.135.016.267.027l.097.008h.001l.126.011h.019a12 12 0 0 0 1.124.01h.01q.05-.001.113-.01a.7.7 0 0 1 .232-.006c-.03-.007-.156.01-.05.003q.05 0 .1-.006l.084-.008.053-.005.036-.004a12 12 0 0 0 1.003-.133 4 4 0 0 0 .218-.038l.025-.005.042-.008h.001l.027-.006.093-.02q.085-.016.17-.037.678-.155 1.336-.38l.028-.01.017-.007.05-.017.094-.033.008-.004.006-.002.004-.002.01-.004.02-.007-.018.006a15 15 0 0 0 .997-.414q.64-.295 1.243-.654l.046-.027a4 4 0 0 0 .204-.124q.14-.09.275-.18a13.6 13.6 0 0 0 2.665-2.333c.224-.256.602-.286.921-.25.14.017.333.067.446.164.063.053.153.187.076.273a14.4 14.4 0 0 1-2.569 2.333 15 15 0 0 1-5.72 2.416 14.1 14.1 0 0 1-5.33.02 19.5 19.5 0 0 0 .234 8.497 28 28 0 0 1-1.56-.266 19.92 19.92 0 0 1 2.001-14.207 20.3 20.3 0 0 1 4.86-5.786l-1.464.082a376 376 0 0 0-8.279.576h-.005l-.042.005h-.006l-.1.008-.1.009-.164.013-.165.013-.317.028q-.173.014-.344.03l-1.386.12c-.29.023-.778.013-.92-.314a.28.28 0 0 1 .008-.25c-.028-.01-.045-.018-.038-.025q.377-.368.75-.735c1.995-1.966 3.959-3.98 5.664-6.257 1.602-2.138 2.971-4.525 3.822-7.145a18.3 18.3 0 0 0 .764-7.895c-.322-2.631-1.17-5.171-2.356-7.477a25.4 25.4 0 0 0-2.04-3.312c-.513-.706-1.054-1.426-1.669-2.045z"/><path d="m32.945 44.846.025-.016-.018.012h-.001l-.004.003zm-2.388 1.156-.002.001-.02.007zm5.061-24.268c0 1.362-.684 2.466-1.529 2.466s-1.528-1.104-1.528-2.466.684-2.467 1.528-2.467c.845 0 1.529 1.105 1.529 2.467m-15.066.164c0 1.393-.71 2.522-1.584 2.522s-1.583-1.13-1.583-2.522.71-2.521 1.583-2.521 1.584 1.129 1.584 2.521"/></g></svg>