<svg fill="none" height="1024" viewBox="0 0 56 56" width="1024" xmlns="http://www.w3.org/2000/svg" xmlns:xlink="http://www.w3.org/1999/xlink"><clipPath id="a"><path d="m0 0h56v56h-56z"/></clipPath><g clip-path="url(#a)"><path d="m48.8511 46.6969c-5.1264 5.7169-12.5688 9.3135-20.851 9.3135-1.6804 0-3.3262-.148-4.9252-.4318.8771-1.7512 1.1827-3.9584.5836-5.8169-.5429-1.6878-1.7519-2.839-2.6123-3.6583-.6494-.6183-1.1002-1.0476-.9164-1.3758.1251-.2227.4448-.2252.9311-.2291.1234-.001.2576-.0021.402-.0068.9892-.032 1.4068-.2074 2.7217-.7597.7854-.3298 1.8911-.7942 3.63-1.4428.2514-.094.4853-.1803.7028-.2606 1.7943-.6623 2.4832-.9166 2.8259-1.7058.2313-.5309.3136-1.3136-.0784-1.7304-.1373-.1456-.6038-.5388-2.4309 0-1.169.3451-1.7759.7405-2.4571 1.1844-.4132.2692-.8538.5562-1.4637.8606-.9018.4523-2.6269.7473-6.0772 1.3372-.4587.0787-1.5448.2517-2.6661-.236-.1922-.0825-1.0508-.4562-1.0194-.8652.0287-.3561.72-.5543 1.564-.7963.0786-.0225.1586-.0454.2395-.0689 0 0 2.0467-.5978 4.8226-1.8091 1.4193-.6175 3.1523-1.5574 3.0582-1.8091-.0362-.0962-.3125-.028-.7854.0887-.7067.1744-1.8524.4571-3.2922.4619-2.7485.0078-4.7481-1.0069-5.7636-1.5339l-.0235-.0122c-1.4781-.7705-2.2154-1.1549-2.2505-1.7182-.039-.651.7884-1.0363 2.0422-1.6202 1.3974-.6508 3.3245-1.5483 5.172-3.3352.7724-.7473 2.325-2.285 3.1758-4.7981.8077-2.3873.5725-4.456.4705-5.1521-.4979-3.394-2.6112-6.5364-4.0384-8.6523-.0712-.106-.1417-.20978-.211-.31177-.679-.99869-1.2431-1.82851-1.2004-2.99183.0392-1.14446.6626-2.60749 2.078-3.3036 1.4114-.69612 3.0699-.36183 3.9992.47194.377.33823.505.64419.6606 1.01591.105.25069.2224.53129.4372.87186.5136.81411 1.4899 1.81699 3.5287 2.51704.7684-.02753 1.9839-.10619 3.4503-.39329.7644-.14898 1.3304-.30122 1.8156-.43173.8213-.2209 1.4112-.37956 2.3404-.35484.941.0236 2.5093.06686 3.4111 1.1012.3254.37362.7449 1.08154.4705 4.40481-.1178 1.4286-.3019 2.6003-.4434 3.5012-.2025 1.2889-.3179 2.0232-.0271 2.1621.1782.0851.377-.1156.6875-.4289.393-.3966.9648-.9737 1.9002-1.3802l.0059-.0026c.5159-.2229 2.0897-.903 3.6012-.1547 1.3291.6568 2.2897 2.2614 2.0388 3.5789-.1176.614-.4509.9221-.9394 1.3737-.4566.422-1.0487.9693-1.7267 2.0086l-.0077.0117c-.7359 1.1327-1.1055 1.7016-1.0117 2.4266.0826.6408.4688.9674 1.4017 1.7562.3954.3344.8892.7518 1.4996 1.3115 2.1839 2.0057 2.2623 2.5249 2.2741 2.753.0337.5721-.2445.8983-.6647 1.3911-.3625.4251-.8308.9743-1.2957 1.9125l-.0064.0131c-.4275.8692-1.0703 2.1766-.7778 3.5658.1622.7694.5259 1.1613.9382 1.6057.2558.2756.5303.5714.787.99.9684 1.5769.7505 3.3799.2956 5.5875z" fill="#3995c3"/><g fill="#0b3a52"><path clip-rule="evenodd" d="m23.5126 55.653c.504-1.3474.9336-2.7285 1.0154-4.1704.0511-.8879-.0393-1.7836-.3064-2.6322-.2514-.8015-.7031-1.5047-1.2176-2.1608-.4346-.5502-.9185-1.0533-1.4027-1.5567-.0337-.0349-.0673-.0699-.1009-.1049l-.06-.0624c2.3191-.6806 4.6418-1.4253 6.8506-2.4012.331-.1459.652-.3118.973-.4777l.0001-.0001c.1285-.0664.2569-.1328.386-.1979.7227-.3654 1.3394-.8486 1.9011-1.434.2435-.2514.4792-.5343.5263-.8918.0393-.2946-.0824-.5814-.2671-.8054-.4203-.5107-1.1862-.5932-1.799-.5461-.8484.0629-1.6301.4125-2.3803.8015-.0511.0275-.1061.0511-.1611.0746-.0027.0014-.0053.0026-.0079.0038l-.0036.0017c-.0035.0015-.0068.0029-.0101.0044-.0055.0023-.0111.0047-.0171.0076l-.0104.0041c-.0245.0099-.0491.0197-.0726.0295-.2004.0786-.4046.1572-.6089.2279-.9117.3294-1.8326.6312-2.7519.9325-.1223.0401-.2446.0802-.3669.1204-.1152.0379-.2304.0755-.3456.113-.2304.0751-.4609.1502-.6913.2288-.3143.106-.6285.2082-.9428.2985-.1767.0511-.3574.1022-.5342.1493l-.0132.0035-.041.0107c-.0869.0227-.1721.0449-.26.0644-.0216.0059-.0432.0108-.0648.0157s-.0432.0098-.0648.0157c-.0151.0037-.0274.0066-.0373.0091-.0115.0024-.0275.0059-.0491.0106-.436.0943-.872.1728-1.312.2318-.2083.0265-.4203.0494-.6324.0651l-.017.0009h-.0002-.0005c-.0496.0028-.1525.0086-.1787.0086-.1335.0079-.271.0118-.4045.0079-.1061 0-.2122-.0039-.3143-.0079-.0236-.0019-.0471-.0029-.0707-.0039l-.0153-.0007c-.0013-.0001-.004-.0002-.0084-.0005-.006-.0004-.0151-.0009-.028-.0016l-.019-.0011.0022.0001c-.0148-.0009-.0298-.002-.0411-.0029l-.0041-.0004-.004-.0003-.0041-.0005c-.106-.0118-.2081-.0235-.3142-.0393-.0471-.0078-.0943-.0157-.1375-.0235-.0111-.0037-.1901-.0424-.1178-.0237-.1712-.0441-.3965-.1231-.5146-.1688-.0245-.0094-.042-.0156-.0542-.0196-.0002-.0026-.0036-.0075-.0125-.0158-.0012-.0012-.0087-.0094-.0179-.0195l-.0002-.0003c-.0209-.0229-.0505-.0554-.0369-.0391-.0216-.0247-.0745-.0879-.0983-.1236.0123.0083.0188-.0358.0158-.0296.0019-.004.0019-.0197.0019-.0364 0-.0059 0-.012.0001-.0177.0001-.0054.0003-.0106.0006-.0149.0016-.0064.0034-.0129.0052-.0175.0079-.0157.0157-.0304.0236-.0452l.0003-.0006.0062-.0115.0046-.0087c.0041-.0079.0083-.016.0125-.0243l.0011-.002.0006-.0012.0011-.0021.001-.0019c.0005-.001.0009-.0019.0013-.0027.0042-.0039.009-.0084.0145-.0137.0471-.0472.0943-.0904.1453-.1297l.0099-.0086.0063-.0055c.0022-.0009.0058-.0028.0112-.006.0033-.0019.0072-.0044.0119-.0074.0472-.0314.0982-.0628.1493-.0903.165-.0943.3378-.1807.5145-.2593.1925-.0904.3693-.165.5303-.2239.8563-.3183 1.7048-.6601 2.5414-1.0254 1.5044-.6561 2.9656-1.3987 4.4268-2.1451l.001-.0005c.3394-.1748.6789-.3496 1.0207-.5244l.0703-.0173c.2553-.0628.491-.3457.2632-.5736-.2514-.2553-.6913-.2278-1.0095-.1493-.22.055-.5224.1258-.817.1886-.2986.0629-.5971.1218-.8956.1729-.5224.0903-1.0488.1571-1.5751.2043-.0157.0019-.0305.0029-.0452.0039-.0042.0003-.0084.0006-.0126.0009-.0619.0036-.1241.0073-.1897.0109-.1217.0079-.2435.0118-.3692.0157-.2278.0079-.4517.0079-.6795.0039-.2161-.0039-.4282-.0117-.6442-.0275-.0011 0-.0022.0001-.0035.0001l-.0005-.0001c-.0589-.0039-.1139-.0078-.1728-.0157-.0351-.004-.0707-.0076-.1064-.0112-.0682-.0069-.1369-.0138-.2039-.0241-.381-.0472-.7581-.11-1.1312-.1925-.0168-.0031-.0366-.0091-.057-.0153-.0282-.0086-.0577-.0176-.0823-.0197l-.0022-.0004-.271-.0707c-.1728-.0472-.3417-.0982-.5106-.1532-.6638-.2122-1.312-.4715-1.9522-.7465-.0472-.0196-.0943-.0403-.1414-.0609-.0472-.0206-.0943-.0412-.1414-.0609-.0274-.0124-.0547-.0249-.0831-.0373l.0045.002c-.0203-.0102-.0435-.0203-.0646-.028l-.0061-.0026c-.0021-.0009-.0031-.0013-.0026-.0011.0006.0003.0027.0012.0068.003-.0028-.001-.0055-.0019-.0081-.0028h-.0001c-.2318-.1022-.4635-.2043-.6873-.3221-.4469-.2347-.8338-.4906-1.0803-.9385.7206-.4449 1.4428-.874 2.1634-1.3023l.0007-.0004c1.1951-.7101 2.386-1.4178 3.559-2.1911 1.5948-1.0489 2.9224-2.6944 3.8809-4.3405.9348-1.603 1.6693-3.4455 1.6497-5.3274-.0157-1.8897-.7267-3.7401-1.5162-5.4295-.5988-1.2739-1.2925-2.4975-1.9863-3.7212l-.0002-.0004-.0001-.0001c-.4529-.7989-.9059-1.59794-1.3325-2.41099-.0022-.00405-.0045-.00803-.0069-.01196-.2078-.46603-.3704-.95467-.4723-1.45345-.11-.5343-.1886-1.14325-.0432-1.68148.1178-.44395.4046-.87218.707-1.18255.3928-.40465.7385-.63645 1.2373-.86039.0078-.00388.016-.00777.0244-.01152.0045-.00154.0183-.00653.0311-.01162.0065-.00235.0142-.0051.0231-.00829.0472-.01889.097-.03526.1452-.05113.0119-.00392.0238-.00784.0355-.01172.0121-.00381.0242-.00762.0361-.0114.0497-.01571.0978-.03094.1485-.04361.0178-.00486.0638-.0151.1003-.02321.0244-.00543.0446-.00991.0492-.01122.1039-.0186.2058-.03448.3105-.04763.0053-.00009.0117-.00023.0192-.00044.0353 0 .0707-.00098.106-.00196.0354-.00099.0708-.00197.1061-.00197.004 0 .0097-.00016.0166-.00035.0056-.00016.0118-.00033.0185-.00046l.0042.00081c.0323.00606.0657.01005.0995.01409.032.00381.0645.0077.0969.01341.0137.00393.0285.00786.0432.01179s.0295.00786.0432.01178c.0196.0059.0383.01179.0569.01768.0187.00589.0374.01179.057.01768.0125.00417.0204.00661.0248.0078.2736.11649.445.22986.6587.40472.5883.48663 1.0072 1.11919 1.4262 1.7519.244.36847.488.73699.7656 1.07677.4085.49895.8838.92325 1.4533 1.22576.5814.31037 1.2295.49502 1.8815.58931 1.3552.20036 2.7142.00393 4.0419-.29466.2304-.05238.4609-.10826.6913-.16414.1152-.02793.2305-.05587.3457-.08337.0824-.01964.1659-.04026.2494-.06088.0834-.02063.1669-.04126.2494-.06091.0825-.01964.165-.03928.2514-.05893l.1061-.02357c.0157-.00393.1649-.03536.0746-.01571.3339-.07072.6678-.13358 1.0056-.18072.1689-.02358.3378-.04322.5067-.05893.0257-.00271.0442-.00461.057-.00588.0116-.00092.0213-.00188.0239-.00219.0028-.00034-.0029.00009-.0239.00219-.0126.001-.0274.00195-.0374.00195.0182-.00202.0363-.003.055-.00401.0177-.00096.0359-.00194.055-.00385l.0109-.00044h.0001c.0943-.00378.1852-.00742.2797-.00742h.2513c.0216 0 .0442.00098.0668.00197.0226.00098.0452.00196.0668.00196.0023 0 .0135.00067.0262.00142.0227.00133.0498.00293.0388.00152.0183.00185.0352.00374.041.00492.0177.00196.0344.00393.0511.00589l.0208.00243c.0099.00116.0199.00231.0303.00346.0451.0059.0893.01277.1335.01965.0442.00687.0884.01375.1336.01964l.0063.0013c.0063.0013.015.00313.024.00501l.022.0046.0203.00481c.0087.00203.0174.00407.0259.00611.0079.00189.0157.00378.0232.00567.0747.01964.1493.04322.2239.06679.0186.00676.0372.01279.0555.01873.0242.00785.0478.01553.0702.02449-.0095-.00238-.0291-.01053-.0291-.01047 0 0 .0001.00005.0003.00016l.005.00214c.0049.00214.0137.00593.0278.01209.0824.03536.161.07465.2396.12179.2003.11394.4242.30252.6049.51467.1728.20429.3103.44001.4242.67966.5679 1.20141.4236 2.57151.2884 3.85401l-.0095.0904c-.0766.7444-.1532 1.4879-.2298 2.2313-.0766.7436-.1532 1.4872-.2298 2.2317-.0196.1886-.0393.3762-.0589.5638-.0197.1876-.0393.3752-.0589.5638-.0236.2357.381.3496.542.3693.2711.0314.6128.0118.8328-.1768l.0696-.0605c.8725-.7577 1.8203-1.5807 2.8724-1.9864.0825-.0314.2592-.0903.381-.1257.0334-.0098.0668-.0187.1002-.0275s.0667-.0177.1001-.0275c.0017 0 .0218-.005.0395-.0095.0053-.001.0124-.0023.0206-.0039l.0003-.0001c.0359-.007.092-.0179.1007-.0179h.0001c.0667-.0118.1335-.0236.2002-.0315.0177-.0019.0344-.0039.0511-.0058.0167-.002.0334-.004.051-.0059.0096-.0019.0479-.0048.0744-.0067l.0049-.0004c.0139-.0004.0271-.0008.0307-.0008h.1021c.0638 0 .1276 0 .1913.0021-.0317-.0003.052.0078.1085.0134l.0132.0012c.0128.0013.0231.0023.0288.0029.0176.002.0343.0049.051.0079h.0001c.0167.003.0334.0059.051.0079.0039 0 .1139.0196.0432.0078-.0668-.0118.0432.0118.0432.0118.0141.0042.0286.0079.0433.0117.0264.0067.0532.0136.0785.0237.0668.0196.1296.0393.1925.0628l.0096.0035.0807.0358c.0511.0236.1061.0511.1571.0786.0511.0275.1021.055.1532.0864.0086.0054.0175.0108.0265.0162.0212.0128.043.026.0636.0407.0021.0016.0048.0036.0081.006-.0027-.002-.0054-.004-.0081-.006-.0258-.0191.0283.0184.0356.0256.8681.6404 1.3512 1.6265 1.2805 2.7148-.0353.5539-.216 1.0764-.5224 1.54-.275.4125-.6481.7543-1.0173 1.0883l-.0088.0079c-.7984.7242-1.6026 1.4536-1.8531 2.5457-.2514 1.0961.1532 2.204.9388 2.978.3535.3497.7699.6286 1.1862.8918.1022.0649.2054.1287.3085.1926.1031.0638.2061.1276.3082.1924.0492.0315.0983.0619.1474.0924l.0008.0005.0003.0002c.0487.0302.0974.0604.1461.0916.0216.0137.0442.0284.0667.0432.0226.0147.0452.0294.0669.0432l.0074.0051c.0055.0041.0113.0082.0142.0102.0018.0012.0024.0016.0011.0006-.0016-.0011-.0062-.0044-.0153-.0108-.0048-.0035-.0094-.007-.0114-.009.0177.0118.0364.0246.0551.0373.0186.0128.0373.0256.0549.0373.8288.5815 1.4573 1.3161 1.4887 2.3848.0344 1.1278-.6752 1.9134-1.383 2.697-.0195.0216-.039.0432-.0585.0648-.5212.5744-1.0778 1.2966-1.2228 2.089-.0072.0135-.011.0283-.0106.0443 0 .0057.0001.0113.0003.0169-.0381.2453-.036.4971.0193.7532.0589.2671.1532.5028.3221.7189.0021.0027.0042.0053.0063.0079.2129.4972.4977.9694.7793 1.4261.0416.0677.0836.1353.1255.203l.0001.0001c.2427.3916.486.7841.6836 1.1994.2553.5343.4281 1.104.5224 1.6894.2866 1.7741-.1034 3.5236-.6901 5.1995.7431-.7307 1.4455-1.5026 2.1037-2.3119.1421-.8086.1985-1.6328.1183-2.4515-.0589-.5854-.1846-1.1629-.3967-1.709-.2004-.5147-.4753-.9979-.7621-1.4733-.0631-.1037-.1273-.2076-.1917-.3118-.3045-.4928-.6137-.993-.8361-1.523.0108-.0449.0004-.0935-.0406-.1452-.0123-.0158-.0243-.0317-.0358-.0476-.1397-.3749-.2319-.7656-.2455-1.1797.0959-.5602.4259-1.1144.7763-1.5228.1335-.156.2717-.309.4098-.462l.0006-.0007c.6622-.7337 1.3228-1.4655 1.4593-2.4957.1532-1.1432-.385-2.1961-1.2452-2.919-.4046-.3379-.8563-.6168-1.3002-.8879-.2081-.1257-.4124-.2514-.6166-.385-.0158-.0098-.0305-.0196-.0452-.0295-.0147-.0098-.0295-.0196-.0452-.0294.0079.0078.055.0393.0039.0039l-.1531-.1061c-.0982-.0707-.1964-.1453-.2946-.2239-.3928-.3182-.6835-.6365-.8917-1.104-.2278-.5029-.2828-1.0725-.1885-1.6186.1628-.9493.8815-1.593 1.5689-2.2088.0921-.0825.1837-.1645.2733-.2467.4006-.3693.7895-.7661 1.0802-1.2297.3142-.5068.491-1.1157.5145-1.7089.0511-1.1669-.5027-2.3023-1.4376-3.0016-1.147-.8564-2.6042-1.0018-3.9751-.6954-.9799.2214-1.8577.7068-2.6636 1.2911.1112-1.0737.2217-2.1479.3304-3.224.0207-.1995.0436-.4002.0665-.6017.1464-1.2861.2963-2.604-.0704-3.85738-.1729-.59323-.4753-1.14325-.9035-1.59113-.5027-.52251-1.1784-.8211-1.8775-.97432-1.5516-.33787-3.166-.01571-4.6822.34573-.1296.03134-.2591.06319-.3886.095l-.0005.00014c-.2274.05588-.4541.11161-.6793.16416-.1649.03928-.3338.07857-.4988.11393.0903-.01965-.0275.00393-.0393.00785-.0471.00786-.0943.01965-.1414.03144-.0864.01964-.1768.03535-.2671.05107-.3064.055-.6167.09822-.9309.12965-.0214.00194-.0419.00389-.0623.00584l-.0006.00005-.018.00172-.0055.00024c-.0374.00197-.0738.00394-.1102.00591l-.0522.00281c-.0191.00103-.0382.00205-.0576.00307-.1689.00786-.3339.00786-.5028.00393l-.0107-.00056c-.068-.0036-.1331-.00703-.2013-.00728l-.0001-.00002c-.0196-.00196-.0401-.00391-.0607-.00587l-.0002-.00002c-.0206-.00197-.0412-.00393-.0609-.0059-.1532-.01571-.3064-.03928-.4556-.06678l-.0001-.00003c-.0356-.00711-.0712-.01422-.1096-.02133-.0047-.00098-.0089-.00176-.0121-.00222l.0121.00222c.0352.00734.0985.02554-.016-.00222-.0668-.01571-.1375-.03535-.2043-.055l-.0001-.00004c-.0667-.01963-.1335-.03926-.2002-.06282-.0196-.00589-.0383-.01277-.0569-.01964-.0187-.00686-.0374-.01376-.057-.01964-.0354-.01179-.0825-.03143-.0196-.00786-.5735-.23965-1.0017-.56967-1.418-1.04897-.3352-.38589-.617-.81252-.8986-1.23889-.4179-.6328-.8354-1.26504-1.4268-1.76264-.5342-.44788-1.1744-.76217-1.8697-.85646-.6678-.09036-1.3512-.02358-1.9993.15714-1.1234.31823-2.2075 1.04111-2.7928 2.07437-.6049 1.06468-.3614 2.34151.0118 3.44548.0661.19254.1384.38298.2187.56978.0026.02014.0094.04106.0209.06274.0145.02772.0291.05541.0437.0831.0045.00979.009.01956.0135.02933.0045.00968.009.01935.0135.029.0094.02293.0222.04432.0379.0642.3955.74412.8116 1.47732 1.2277 2.21052.5599.9866 1.1197 1.973 1.6293 2.9858.8406 1.6737 1.6183 3.4769 1.7872 5.3627.165 1.8229-.3928 3.5398-1.2137 5.1466-.8681 1.6894-2.0936 3.3702-3.6216 4.5135-.3703.2786-.7636.5265-1.1571.7747l-.0003.0002c-.0948.0597-.1897.1195-.2842.1798-.5224.3339-1.0488.6679-1.5751.9979-.5622.353-1.1245.674-1.6872.9953l-.0004.0002c-.5145.2937-1.0293.5877-1.5451.9066-.0829.0518-.1088.1067-.0998.1592-.0525.0719-.0692.1589-.018.2612.4787.9576 1.4928 1.4015 2.4278 1.8107l.1175.0515c.6717.2946 1.3512.5854 2.0464.8211 1.7008.5775 3.492.8132 5.2871.7072.2941-.0169.587-.0412.879-.0721-.7046.356-1.4125.7054-2.1281 1.0385-.762.3536-1.4416.6522-2.1761.9429-.2227.0887-.4488.1728-.6754.2571l-.0002.0001c-.6167.2295-1.2371.4603-1.803.7878-.2906.169-.6402.3968-.7777.719-.1571.3771.0432.7347.3457.9704.2012.1626.4673.2527.708.3342l.0108.0037c.2474.0864.5028.1453.762.1925.4635.0903.9466.1178 1.418.1178 1.7362.004 3.4802-.4086 5.1181-.9547.4282-.1434.8564-.2838 1.2845-.4243.4281-.1404.8563-.2809 1.2844-.4243.1711-.057.3433-.1133.5161-.1697l.0004-.0001.0003-.0001.0005-.0002c.7787-.2543 1.5679-.5121 2.3069-.8592.0576-.0262.1118-.0559.1659-.0855.027-.0149.0541-.0297.0816-.0441l.0002-.0002c.0982-.051.1963-.102.2944-.1491.0069-.0032.0139-.0064.0209-.0096l.0152-.0069.0001-.0001.0007-.0003c.0401-.0181.0813-.0368.1202-.0578.1061-.0471-.0157.004.0943-.0392.1689-.0668.3378-.1258.5106-.1729.0061-.0014.0122-.0028.0183-.0044.0043-.0011.0087-.0022.013-.0034-.0133.0053-.0039.0043.0748-.0197-.0177.0039-.0354.0088-.0531.0137l-.0121.0034-.0096.0026c.0106-.0042.0355-.0123.0512-.0158.0825-.0157.161-.0275.2435-.0393l.0081-.0014.0232-.0013c.005.0052.0326.01.0918.003l.0043.0008c.0128.0044.0272.0086.04.0117.0043.0025.009.0052.0137.0079.004.0023.008.0045.0119.0067.0222.0276.0621.0588.0897.0796.0056.0089.0117.0175.0179.0264l.0005.0007c.0027.0038.0054.0077.0082.0118.0016.0024.0033.0048.005.0073.0314.059.0589.114.0785.1768.055.2004-.0668.4243-.2042.5815-.2789.3221-.6089.6247-.9427.8879-.3306.2598-.777.4877-1.2.7036-.0307.0157-.0612.0312-.0915.0467-.0192.0099-.0384.0197-.0575.0295-.0192.0099-.0383.0197-.0572.0295-.2475.1257-.5028.2475-.7581.3575-.0431.0177-.0862.0371-.1282.056-.0231.0104-.0459.0207-.0682.0304-.0354.0157-.2397.1022-.1022.0433-.0785.0333-.158.0657-.2375.0981l-.0001.0001c-.0796.0324-.1591.0648-.2377.0982-.6363.2554-1.2765.4871-1.9247.715-1.2412.4361-2.4981.8368-3.759 1.214-.1182.0348-.2353.0697-.3525.1046l-.0011.0003-.0039.0012c-.1188.0353-.2376.0707-.3574.106-.2234.066-.4672.2855-.3051.5028.0087.0541.0376.111.093.169.1395.147.2814.2936.4239.4408l.0005.0005c.9198.9504 1.8624 1.9243 2.3487 3.1692.6207 1.5872.4321 3.4023-.0196 5.0091-.1588.5616-.3495 1.113-.5531 1.6592.4649.0996.9342.1877 1.4074.264zm6.8029-16.6506.0037.0002c.0022 0 .0045.0001.0068.0001l.0023.0009.0041.0015-.0015.0002-.0013-.0003-.0018-.0003c-.0041-.0008-.0082-.0015-.0123-.0023zm0 0c-.011-.002-.022-.0039-.033-.0052-.0117-.0021-.0215-.0026-.0288-.0021-.0009.0004-.0022.0008-.004.0013-.0026.0008-.0061.0017-.0108.0027-.0005.0005-.0007.0011-.0006.0017 0 .0005.0003.001.0008.0015.0131-.0007.0263-.0012.0394-.0012.0075 0 .0161.0004.0252.0008.0039.0002.0079.0004.0118.0005zm-9.37-35.29005c.016-.0071.0325-.01363.0474-.0186-.0048.00236-.0118.00534-.0192.00829-.0145.00523-.0234.00851-.0282.01031zm0 0c-.0048.00182-.0055.00214-.0034.00146l.0005-.00015zm-6.0918 31.18995.0019.0007.0312.0135c-.0071-.003-.0143-.0061-.0216-.0091zm2.724 6.7351c.0115.0008.0228.0015.0321.002l.0141.0008c-.0154-.0007-.0308-.0015-.0462-.0028zm.0535.0032c.0008 0 .0008 0-.0003-.0001zm-1.3912-.5887-.0008.0046c.0002-.0018.0005-.0033.0008-.0046zm-.0031.0174c-.0023.0126-.0031.016-.0029.0143.0003-.0016.0013-.0074.0029-.0143zm-.0283.069c.0005.0017.0011.0032.0016.0046-.0008-.0018-.0014-.0033-.0016-.0046zm3.4919-4.8048c-.0018 0 .0311.0025.059.0044-.0196.0008-.0471.0015-.059-.0044zm25.6927-19.6219-.003-.001c-.0032-.0012-.008-.0029-.0133-.005.014.005.0183.0067.0171.0063zm-.0183-.0067c-.0099-.0039-.0208-.0084-.0248-.011zm-8.3425-9.09292c.0013.0001.0088.00076.0193.00172-.0153-.00134-.0206-.00182-.0193-.00172zm-14.8729-4.11859c.0001 0 0-.00003-.0003-.0001zm-.0003-.0001c-.0025-.00045-.0171-.00239-.0338-.00443.0135.00057.0258.00185.0338.00443z" fill-rule="evenodd"/><path d="m18.2656 24.5c1.1477 0 2.0782-.9059 2.0782-2.0234 0-1.1176-.9305-2.0235-2.0782-2.0235s-2.0781.9059-2.0781 2.0235c0 1.1175.9304 2.0234 2.0781 2.0234z"/><path d="m29.9141 24.7188c1.1175 0 2.0234-.906 2.0234-2.0235s-.9059-2.0234-2.0234-2.0234-2.0235.9059-2.0235 2.0234.906 2.0235 2.0235 2.0235z"/></g></g></svg>