<svg xmlns="http://www.w3.org/2000/svg" width="1024" height="1024" fill="none" viewBox="0 0 56 56"><path fill="#ededed" d="M12.096 51.048 32.66 27.062 49.507 45.93c.818-.98 1.57-2.017 2.25-3.104L32.407 22.02 9.07 48.63c.95.873 1.962 1.681 3.027 2.418zM2.387 39.33l5.87-7.028 7.766 8.356 1.528-2.057-9.536-10.277s-3.535 4.05-6.81 7.83a27.8 27.8 0 0 0 1.182 3.177z"/><path fill="#c3dfc3" d="m9.066 48.628 7.053-8.068-7.863-8.258S5.33 35.708 2.334 39.21a28.07 28.07 0 0 0 6.732 9.418z"/><path fill="#f9dae9" d="M49.864 45.494C44.732 51.9 36.845 56 28 56a27.87 27.87 0 0 1-15.763-4.856l.497-1.323c.192-.295 19.633-22.95 19.633-22.95z"/><path fill="#5b7691" d="m55.188 21.279-22.488.737 19.108 20.728A27.87 27.87 0 0 0 56 28c0-2.317-.281-4.568-.812-6.721zm-37.44 17.515L8.211 28.42l19.516-1.186z"/><path fill="#1c344c" fill-rule="evenodd" d="m27.802 56 .023-3.578.002-.296c.01-1.305.018-2.61.027-3.918l10.82-.127-.037 5.828c.328-.135.653-.276.974-.422l.008-1.203.002-.313.027-3.901.968-.012-.032 4.962c.329-.166.653-.338.974-.516l.002-.243.01-1.487c.05.005.096.006.133.006l2.624-.03c.365-.263.722-.533 1.073-.811l-3.706.043a1.4 1.4 0 0 0-.118.007l.013-1.942.54-.007c.257-.003.826-.09.9-.415a.154.154 0 0 0 .009-.053v-.03l-.004-.3 5.367-.064a28 28 0 0 0 .73-.806l-6.106.072-.013-1.08a.154.154 0 0 0-.012-.06.328.328 0 0 0 .01-.087c-.004-.389-.653-.474-.92-.47l-18.25.214c-.175.002-.491.042-.7.169a.322.322 0 0 0-.105.08.329.329 0 0 0-.104.243.318.318 0 0 0 .055.174l.005.424-6.406.075c.938-1.113 1.88-2.223 2.82-3.332l26.398-.31 2.24 2.463 1.19 1.307c.262-.305.518-.616.767-.932a8362.726 8362.726 0 0 0-5.64-6.206l-3.165-3.478-2.736-3.007-.022-.024-2.714-2.982c-.28-.309-.558-.62-.837-.93v-.001a89.245 89.245 0 0 0-1.83-2.001l-.002-.004-.002-.002-.003-.003-.004-.005-.014-.015c-.167-.183-.503-.213-.737-.206-.238.008-.564.026-.732.223l-.216.252-.002.002a887.06 887.06 0 0 0-1.745 2.041l-2.341 2.739-.002.002-.002.002-2.34 2.738c-1.891 2.217-3.783 4.433-5.669 6.655l-1.235 1.456a1077.78 1077.78 0 0 0-3.11 3.673c-.137.061-.243.154-.248.294l-.34.406c-.256.302-.747.842-1.255 1.4a61.345 61.345 0 0 0-1.711 1.93 35.82 35.82 0 0 0-.126.146c.332.25.67.49 1.013.725a.805.805 0 0 1 .1-.128l.038-.045.403-.501.082-.098a1.5 1.5 0 0 0 .445.067l11.62-.136-.017 2.757a1.19 1.19 0 0 0-.077-.002l-9.123.107a27.88 27.88 0 0 0 1.736.777l7.396-.086.063-.003-.012 1.978c.321.035.645.066.97.09l.022-3.474.029-4.214.973-.012-.05 7.757c.323.013.646.021.971.023zm-14.295-6.364 11.42-.134.008-1.26-1.056.013c-.263.003-.911-.082-.92-.472a.31.31 0 0 1 .05-.179l-.008-.755-7.095.083-.575.683c-.233.279-.714.806-1.207 1.345-.21.23-.421.46-.617.677zm29.36-10.378 2.217 2.436-24.994.294c.704-.83 1.409-1.658 2.114-2.487zm-20.077-.445 19.465-.229-.112-.123-2.775-3.05c-.165.05-.356.063-.457.064l-13.408.157c-.905 1.06-1.81 2.12-2.713 3.18zm13.335-6.972c.9.99 1.801 1.981 2.7 2.973l-12.75.15 2.047-2.399.45-.526 7.057-.082c.139-.002.337-.036.496-.116zm-6.756-.736 1.254-1.47c.258-.3.52-.598.782-.897.31-.353.62-.706.925-1.064l1.191 1.307.227.248 1.644 1.806zM23.85 45.924l18.25-.214.063-.002.016 1.37h-.026l-.037-.001-18.254.214h-.005l-.016-1.367h.01z" clip-rule="evenodd"/><path fill="#1c344c" fill-rule="evenodd" d="M9.67 49.166a.3.3 0 0 0 .13-.153.57.57 0 0 1 .12-.168l.058-.067c.153-.192.312-.384.475-.575.458-.55.923-1.092 1.389-1.636l.001-.002.328-.382a640.25 640.25 0 0 1 2.51-2.915c1.023-1.185 2.046-2.365 3.069-3.545l.66-.761.026-.03.001-.001.014-.016c.863-.995 1.708-1.968 2.597-2.987l1.078-1.24h.001l.004-.005a1269.5 1269.5 0 0 0 2.283-2.629c.526-.602 1.052-1.206 1.577-1.81l.005-.005 1.572-1.803 2.65-3.039.615-.703c.434-.497.866-.992 1.297-1.49.095-.11.193-.22.291-.33l1.22 1.339.218.239c1.744 1.915 3.489 3.83 5.228 5.751l3.164 3.478 3.166 3.48 2.712 2.98.021.024.003.002 2.736 3.007.235.258c0 .029.008.06.027.094.02.038.05.07.088.097.243-.36.478-.726.704-1.099a3482.67 3482.67 0 0 1-2.711-2.98c.707.07 1.42.064 2.104-.15.713-.227 1.296-.72 1.717-1.334a4.841 4.841 0 0 0 .819-2.219c.248.25.519.48.807.684.127-.398.245-.799.354-1.204a5.542 5.542 0 0 1-.96-1.598c-.021-.054-.095-.098-.173-.13a4.16 4.16 0 0 0 1.856-1.883c.125-.94.203-1.895.231-2.863a2.471 2.471 0 0 1-.156.023 6.1 6.1 0 0 1-.375.006c.045 0-.06-.01-.132-.017l-.033-.004a2.5 2.5 0 0 1-.262-.049.626.626 0 0 0-.053-.019l-.063-.02-.001-.001-.075-.025c-.046-.016-.091-.036-.137-.056l-.069-.03-.066-.03a6.701 6.701 0 0 1-.355-.212c-.496-.33-.916-.8-1.24-1.325a2.807 2.807 0 0 0 1.156-1.589c.14-.5.187-1.013.182-1.53a6.43 6.43 0 0 0 1.548 1.17 28.034 28.034 0 0 0-.208-1.593 5.415 5.415 0 0 1-1.145-1.719l.807-.032c-.086-.381-.18-.76-.282-1.135l-.471.02c-3.19.132-6.38.265-9.575.385-1.374.054-2.75.11-4.127.166h-.014c-1.376.057-2.753.113-4.127.167-.489.021-.977.037-1.465.053-.848.028-1.696.056-2.547.114-.01-.001-.019 0-.027.002s-.018.003-.028.001a.923.923 0 0 0-.189.03c-.22-.008-.563.016-.71.18l-.198.228c-.141.162-.283.325-.426.485l-.848.971-.03.035-.817.936-2.216 2.544a.886.886 0 0 0-.096 0l-7.556.37a9541.845 9541.845 0 0 0-9.678.471h-.006l-1.868.092a1.893 1.893 0 0 0-.164-.002c-.234.008-.57.026-.732.218-.36.427-.72.86-1.075 1.287l-2.591 3.11c-.816.981-1.629 1.961-2.44 2.943.13.474.273.942.427 1.405.896-1.085 1.794-2.17 2.69-3.252l.415-.5c.902-1.086 1.804-2.172 2.71-3.258.137-.162.275-.323.415-.485l.227-.264 2.57 2.765 2.668 2.874 2.65 2.854c.376.404.753.808 1.13 1.216l-.797.916-.677-.714-1.35-1.422c-.43-.45-.858-.902-1.287-1.354a.514.514 0 0 0-.286-.3l-.57-.6-2.143-2.255c-.33-.347-.66-.693-.986-1.04-.172-.178-.503-.208-.737-.2s-.569.026-.732.217c-.36.428-.72.86-1.075 1.288l-2.591 3.11c-.554.666-1.106 1.33-1.657 1.997.171.425.353.846.545 1.261l1.79-2.163.414-.499.07-.084 6.949-.081.417.439 2.13 2.241.002.001.32.336-11.937.14c.15.316.308.63.47.939l11.506-.135c.212-.003.469-.11.564-.306l.061.065.003.003a.09.09 0 0 0 .005.004l.007.007-1.407 1.627-.98 1.134a1.83 1.83 0 0 0-.096-.002l-8.184.096c.182.274.368.544.56.811l7.01-.082-.979 1.14c-.648.757-1.296 1.514-1.94 2.271-.087.104-.179.208-.27.312H9.05c-.108.123-.217.247-.323.373.308.291.622.576.942.854zm36.028-26.987c2.307-.095 4.615-.19 6.923-.279l.024.2c.1.825.2 1.664.122 2.486-.043.436-.139.849-.378 1.233a1.638 1.638 0 0 1-.853.658c-.021.007-.043.014-.065.023a2.237 2.237 0 0 0-.106.028l-.048.009a6.253 6.253 0 0 1-.206.032l-.177.017-.1.002h-.007.063c-.122.002-.239-.006-.36-.014a4.41 4.41 0 0 1-.359-.038c.13.017-.054-.013-.13-.026l-.024-.004a7.487 7.487 0 0 1-.732-.204l-.05-.016a1.703 1.703 0 0 1-.23-.09 7.104 7.104 0 0 1-.337-.15 5.475 5.475 0 0 1-1.76-1.262c-.654-.722-1.107-1.636-1.21-2.605zm-5.519.228h.008c1.137-.046 2.273-.092 3.41-.14.249 1.554.263 3.202-.421 4.645-.323.685-.802 1.313-1.415 1.758a3.962 3.962 0 0 1-1.457.665 3.582 3.582 0 0 1-.315.045l-1.324-1.456-.097-.106-2.736-3.007c-.444-.486-.886-.974-1.329-1.461v-.001l-.621-.684c.223-.01.447-.018.67-.027.554-.021 1.108-.043 1.662-.067 1.32-.056 2.641-.11 3.962-.164zM10.801 35.858l-.75-.789-1.35-1.422-.019-.02-.552-.581-.235.274c-.14.162-.278.323-.414.485-.588.704-1.174 1.409-1.76 2.113zm38.316 3.12a2.83 2.83 0 0 0-.433-.038l-1.05-1.159-2.286-2.512c.097-.026.193-.057.285-.095.484-.195.86-.54 1.18-.943a3.64 3.64 0 0 0 .72-1.592c.913.853 2.211 1.352 3.401 1.485.425.048.857.044 1.282-.011a4.593 4.593 0 0 1-.371 3.417c-.281.519-.664 1.024-1.181 1.337-.49.295-.86.23-1.392.137h-.001l-.154-.026zm-8.71-9.138.897.984 3.166 3.48.132.146c.082.012.162.033.237.063.1-.063.189-.145.277-.228.226-.217.413-.462.56-.736a3.225 3.225 0 0 0 .396-1.617c-.106.005-.214.007-.322.005-.837-.014-1.705-.199-2.42-.648-.69-.433-1.16-1.041-1.482-1.767a6.27 6.27 0 0 1-1.44.318zM26.14 28.21l-.94.047h-.002c-.71.035-1.418.07-2.127.103l-4.553.223c.242.009.598.068.633.307.01.058.016.116.023.174.216.04.389.127.43.278.107.373.344.716.644.96.138.11.295.216.456.297a1.957 1.957 0 0 0 .584.195l.06.012.024.002.02.002.023.002.014.001.03.003c.09.008.117.01.25.005.151-.002.399-.04.603-.085.514-.118 1.008-.3 1.502-.485.19-.074.417-.11.636-.102.32-.367.64-.733.958-1.1l.016-.017.716-.822zm-2.52 2.89c-1.01.293-2.056.442-3.113.226a3.754 3.754 0 0 1-1.484-.646 4.622 4.622 0 0 1-1.446 2.184 9.241 9.241 0 0 1-.617.486l.02.032c.34.707.909 1.289 1.6 1.597.097.043.194.08.291.113l.022.007.076.023.026.007.026.007.03.008a1.697 1.697 0 0 1 .188.04l.007.001c.092.014.184.022.277.026-.217-.012.262-.017.046 0a.867.867 0 0 0 .124-.012c-.005 0 .175-.026.097-.01-.074.015.1-.021.096-.021l.038-.01.033-.008.049-.013a.817.817 0 0 0 .151-.052l.37-.426a1179.58 1179.58 0 0 1 3.093-3.558zm-4.077 4.692c-1.423.017-2.888-.58-3.699-1.797a3.922 3.922 0 0 1-1.486.335l3.335 3.589c.616-.708 1.234-1.417 1.85-2.127zm24.28-7.55c.854-.927 1.287-2.175 1.41-3.421.749 1.018 1.825 1.814 3.018 2.29.446.179.914.332 1.392.435-.392 1.132-1 2.201-1.988 2.914-.13.094-.265.173-.4.253a2.99 2.99 0 0 1-.393.19 2.006 2.006 0 0 1-.251.083l-.015.004-.02.005a.4.4 0 0 0-.086.025l-.2.04-.102.016h-.006l-.006.001-.034.005-.027.004-.016.002-.017.001a.783.783 0 0 1-.098.006l-.068.003h-.12c-.04-.002-.08-.002-.119-.002h-.01l-.023-.002-.042-.004-.027-.002a2.767 2.767 0 0 1-.185-.027l-.083-.014a1.06 1.06 0 0 0-.063-.011l-.042-.01-.007-.002a3.903 3.903 0 0 1-.225-.066 1.528 1.528 0 0 1-.19-.07c.068.028-.113-.057-.147-.072-.71-.366-1.141-1.042-1.433-1.807a.345.345 0 0 0-.094-.133c.258-.183.498-.394.718-.634zm7.822-.63c-.168.03-.337.05-.507.061a7.159 7.159 0 0 1-1.01 1.999 5.706 5.706 0 0 1-1.977 1.701c.326.65.838 1.173 1.455 1.555.294.182.607.339.935.461.318.118.708.226.995.232l.102-.001h.03l.058-.008.097-.011a3.541 3.541 0 0 0 .402-.11c.32-.11.62-.275.895-.477 1.02-.744 1.543-1.972 1.584-3.206-1.294-.276-2.346-1.115-3.06-2.196zM9.433 29.025c2.028-.1 4.055-.198 6.082-.296l2.672-.13c-.243.029-.586.105-.555.309.18 1.2-.18 2.42-1.012 3.31-.432.468-.997.878-1.553 1.191-.12.07-.246.13-.377.18a1.18 1.18 0 0 1-.17.06l-.1.026-.021.005-.02.005a.847.847 0 0 0-.029.007h-.091a.774.774 0 0 0-.065-.009.53.53 0 0 0-.048-.015l-.005-.001-.01-.004c-.038-.016-.098-.04-.137-.066a1.177 1.177 0 0 0-.45-.144l-1.171-1.263-2.579-2.777v-.001l-.361-.387z" clip-rule="evenodd"/><path fill="#d8dbde" d="M13.94 28.848c-.002-.195 2.273-10.319 2.273-10.319l-2.199.026.167-2.333 1.94-.086.597-4.342 1.944.235.505 4.46 2.324-.61-.234 2.075-1.42.406 1.557 5.87 1.347 4.514-1.478.86-3.684.432-3.307-.672z"/><g fill="#1c344c"><path d="M15.378 18.71 13.35 28.732c-.074.36.183.645.539.699.292.05.856-.04.93-.415l2.027-10.023c.074-.361-.182-.645-.538-.7-.293-.045-.856.04-.93.415zm3.715.175a108.693 108.693 0 0 0 2.798 9.957c.217.65 1.708.442 1.461-.304a110.286 110.286 0 0 1-2.798-9.958c-.03-.14-.232-.27-.354-.317-.176-.07-.4-.087-.584-.046-.34.072-.61.304-.523.668z"/><path d="M13.45 29.34c.503.617 1.319.846 2.079.949a23.37 23.37 0 0 0 2.796.225c1.693.029 3.539-.295 4.863-1.43.25-.212.291-.514-.008-.715-.275-.181-.81-.214-1.075.013-1.07.918-2.347 1.137-3.695 1.123-.779-.005-1.49-.08-2.27-.168-.14-.017-.287-.035-.428-.058-.083-.013-.166-.032-.25-.05-.033-.01-.067-.014-.102-.023.069.018.059.014-.024-.01-.269-.104-.391-.156-.574-.378-.232-.28-.728-.298-1.043-.167-.296.115-.501.41-.27.689zm-.031-12.987a4.66 4.66 0 0 0-.146 2.055c.052.32.496.398.763.39.185-.007.807-.092.755-.408a4.221 4.221 0 0 1 .095-1.845c.089-.313-.283-.46-.536-.485-.224-.022-.842-.015-.931.293z"/><path d="M14.174 18.894a36.49 36.49 0 0 0 7.1-.332c.233-.032.674-.222.524-.527-.144-.31-.66-.328-.937-.285-2.21.318-4.438.412-6.697.297-.244-.012-.758.111-.754.432.004.341.53.403.764.415zm.792-2.618c-.006-.014-.015-.029-.02-.043l.002.253c-.018.092-.883.185-.44.229.064.004.127.013.185.017.142.013.283.021.424.034.317.02.633.041.955.057.579.022 1.158.025 1.742.009a26.754 26.754 0 0 0 3.524-.343c.262-.042.663-.266.523-.586-.14-.324-.646-.367-.938-.32-1.282.21-2.512.317-3.826.318-.603.002-1.265-.02-1.82-.066-.37-.03-.76-.118-1.13-.04-.33.067-.838.335-.643.751.15.32.632.377.938.32.248-.051.673-.265.524-.59z"/><path d="M20.396 16.305c.118.505.115 1.05-.006 1.557-.083.356.193.65.539.71.307.05.841-.045.93-.416a4.673 4.673 0 0 0-.002-2.17c-.087-.364-.638-.464-.939-.393-.354.073-.609.343-.522.712zm-3.611-.079c.13-1.374.308-2.738.53-4.099.023-.131-.134-.28-.227-.343a.992.992 0 0 0-.537-.134c-.33.013-.694.134-.753.495a57.922 57.922 0 0 0-.531 4.099c-.035.345.512.49.764.477.312-.008.724-.13.754-.495zm1.045-4.192c.147 1.302.337 2.594.576 3.886.078.422 1.58.302 1.518-.018a57.975 57.975 0 0 1-.576-3.886c-.043-.404-1.556-.327-1.518.018z"/><path d="M16.918 12.648c.485-.137.97-.206 1.419-.168.336.03.798-.024.93-.4.117-.332-.227-.65-.539-.68-.75-.069-1.494-.03-2.227.177-.3.086-.662.33-.522.692.13.335.624.465.939.379z"/></g></svg>