<svg xmlns="http://www.w3.org/2000/svg" width="1024" height="1024" fill="none" viewBox="0 0 56 56"><path fill="#fa775c" d="M55.922 30.102H38.345L.204 31.395A28.285 28.285 0 0 1 0 28C0 12.536 12.536 0 28 0s28 12.536 28 28c0 .707-.026 1.408-.078 2.102z"/><path fill="#fae15c" d="M11.75 28.309s-.48-1.973 1.91-5.924c2.392-3.951 5.1-5.218 5.74-5.643.636-.424 5.261-2.116 6.058-1.973s4.146-.424 6.22-.143c2.072.281 5.895 2.965 7.015 3.808 1.115.849 3.667 4.656 3.823 5.505.156.848.797 5.918.797 5.918l-31.72.987z"/><g fill="#21457c"><path d="m2.568 39.73 19.715-.801c1.832-.074 3.664-.153 5.496-.231h.005c4.814-.206 9.628-.412 14.442-.55 1.845-.055 3.69-.098 5.534-.098 1.365 0 2.762.05 4.07.467-3.474 1.482-7.185 2.29-10.896 2.933-1.12.196-2.243.378-3.367.56-2.94.476-5.88.952-8.772 1.673-2.226.553-4.415 1.26-6.512 2.201-.148.068-.271.185-.197.35.295.683 1.051.997 1.734 1.145.7.15 1.43.182 2.15.213.221.01.442.02.66.033 1.034.06 2.067.122 3.1.184h.004c.969.058 1.937.116 2.905.172l5.997.36h.026l5.999.36.363.021 1.696.1a28.1 28.1 0 0 0 .728-.678l-7.568-.452-11.65-.695-1.042-.06-.002-.001a245.22 245.22 0 0 1-2.025-.123c-.542-.038-1.146-.09-1.476-.557 3.57-1.552 7.4-2.378 11.223-3.04a299.81 299.81 0 0 1 3.196-.53c2.996-.485 5.994-.97 8.937-1.71 2.22-.559 4.41-1.272 6.5-2.225.27-.123.29-.388 0-.51-1.482-.64-3.08-.843-4.686-.898-1.373-.048-2.755-.014-4.131.02l-.678.016c-2.888.064-5.777.181-8.665.299l-1.445.058c-3.373.135-6.747.272-10.122.409-3.375.137-6.75.274-10.122.409l-5.707.23-5.707.231-.028.001c.103.24.209.477.318.713z"/><path fill-rule="evenodd" d="m.202 31.377 7.844-.153c4.633-.091 9.265-.182 13.898-.271h.003c9.217-.178 18.435-.357 27.646-.541 2.104-.04 4.21-.08 6.315-.122.023-.286.042-.573.056-.861l-4.674.091-7.018.137c-.593-3.179-1.26-6.463-3.024-9.22-1.863-2.909-4.907-4.876-8.21-5.793a17.949 17.949 0 0 0-10.233.21 16.48 16.48 0 0 0-8 5.602A16.749 16.749 0 0 0 11.36 29.2c-.035.37-.048.732-.054 1.1l-1.563.032-7.778.15h-.018l-1.836.036c.025.288.055.574.09.859zm37.19-1.586c-8.184.158-16.368.316-24.547.479.118-6.089 3.872-11.875 9.5-14.273 5.638-2.398 13.092-1.187 16.904 3.911 2.117 2.832 2.852 6.374 3.49 9.78l-5.347.103z" clip-rule="evenodd"/></g></svg>