<svg fill="none" height="1024" viewBox="0 0 56 56" width="1024" xmlns="http://www.w3.org/2000/svg"><path d="m14.0561 34.379 3.9135-4.5128 1.3045-4.313-.5015-6.2169.9011-5.3158 2.8088-3.6117 3.7099-2.10753h3.7136l3.9097 1.10464 2.707 3.61179 1.4063 6.115v5.7193l1.0029 4.5128 1.7041 3.1199 1.8015 1.3929-6.3144-.1018.3996 3.2121 1.8059 3.7098 2.3074 1.8058 3.1104 1.8059-2.0057 1.5043-2.9106.5014-1.904-1.5043-1.0029-1.3044-1.8059-.1998-1.3045.7012-1.2027 1.0028-1.5043.1999-.9048-.7013-2.1038-1.5042-1.7079-.5015-2.0057.7013-1.3007 1.3044-1.806 1.0029-1.3045-.1018-1.6061-1.2027-1.5043-.803-2.707.6032 2.5072-3.3101 2.0058-3.6118.803-2.1037.3016-1.1046z" fill="#fff"/><g fill="#203f44"><path d="m28.4506 7.76549c-2.0736.11687-4.0831.81811-5.7759 2.02453-1.6287 1.16118-2.9747 2.73708-3.7891 4.57308-.4109.9313-.6748 1.9228-.7879 2.9332-.1395 1.2366-.0717 2.4882.0339 3.7248.2036 2.394.5957 4.9238-.2074 7.2499-.7427 2.1452-2.3262 3.8266-3.9172 5.3799-.1998.1961-.4034.3883-.6032.5844-.1546.147-.0981.3506.0565.4713.1961.1545.5015.1998.7427.1508 1.6099-.313 3.2311-.5429 4.8598-.6975-.2903-.1734-.5806-.3469-.8709-.5203-.6975 2.9218-2.2621 5.5307-3.9662 7.97-.4751.6786-.9614 1.3459-1.4516 2.017-.1658.23-.064.4335.181.5466.2752.1282.6636.132.9275-.0339.0603-.0377.1206-.0716.181-.1055.0263-.0151.1809-.0905.098-.0528.1282-.0566.2601-.1018.3921-.1433.0075-.0038.1055-.0264.0301-.0075-.0791.0188.0453-.0076.0604-.0113.0603-.0113.1168-.0227.1772-.0302.0527-.0075.2224-.0188.0791-.0113.0792-.0038.1584-.0075.2413-.0075.0604 0 .1207.0037.181.0075-.1621-.0075.0415.0075.0792.0113.0678.0113.1395.0226.2073.0377.0076 0 .1056.0226.0302.0075-.0792-.0188.0905.0264.0867.0264.0566.0189.1131.0377.1697.0566.0377.0151.0754.0301.1093.0452.0038 0 .0905.0415.0377.0151s.0339.0189.0377.0189c.0339.0188.0679.0377.1018.0565.0566.0302.1131.0641.1659.1018.2413.1546.3732.2639.5655.4185.2262.1847.4487.3694.6787.5504.4599.3544.9651.6258 1.5382.7503 1.3648.2978 2.6203-.411 3.6269-1.2592.4185-.3544.837-.7729 1.248-1.0934.1847-.147.4411-.3204.6748-.4486.0604-.0339.1207-.0641.1848-.0943-.083.0415.0452-.0188.0716-.0301.0641-.0264.1282-.049.1923-.0679.0264-.0075.0565-.0188.0829-.0264.1697-.0528-.0716.0076.0264-.0075.0679-.0076.132-.0226.1998-.034.1358-.0188-.0942-.0037.0453 0h.1169c.015 0 .1131.0114.0226 0-.0867-.0113.0113.0038.0226.0038.0452.0076.0943.0189.1433.0264.0754.0075-.0189-.0075-.0302-.0113.0377.0113.0716.0226.1093.0339.0528.0189.1094.0377.1622.0566.0339.0151.0716.0301.1055.0452-.0113-.0037-.0754-.0377-.0151-.0037.0679.0339.1358.0716.2036.1093.23.1357.411.2714.5844.4147.2149.181.4223.3695.6296.558.9803.901 2.1189 1.689 3.5214 1.5344.6296-.0679 1.1688-.3921 1.625-.8143.1847-.1697.3581-.3544.5391-.5279.2149-.2035.2828-.2714.5165-.4071.0226-.0113.0453-.0264.0716-.0377-.0113.0075-.0904.0339-.0188.0075.0641-.0226.1282-.049.196-.0678-.1168.0377.0453-.0001.0868-.0114.0791-.0188-.034 0-.0453 0 .0377 0 .0792-.0037.1169-.0037s.0792.0037.1169.0037c-.0113 0-.1207-.015-.0415-.0037.0679.0113.1357.0188.2036.0339.1244.0226-.0566-.0226.0641.0151.0792.0226.1546.049.23.0792.0377.015.0754.0301.1131.0452 0 0 .0905.0415.0414.0188-.0527-.0226.0415.0189.0415.0189.0377.0188.0716.0377.1094.0565.1281.0679.2488.1433.3694.2262.2149.1433.3884.2941.6108.4864.4524.3996.886.8143 1.3724 1.1687.4939.3582 1.0443.5995 1.6362.7352 1.1273.2526 2.4167.0302 3.3781-.607.2338-.1546.4562-.3355.6523-.5391.2262-.2338-.0076-.5014-.2526-.5806-.2979-.098-.7315-.0905-.969.1508-.2036.2111-.2978.2903-.524.426-.0453.0302-.0943.0566-.1395.083-.0302.0188-.0641.0339-.0981.0527-.0075.0038-.0867.0453-.0264.0151.0604-.0301-.0226.0076-.0263.0113-.034.0151-.0679.0302-.1018.0415-.0679.0264-.1358.0528-.2036.0754-.0528.0188-.1056.0339-.1584.049-.0301.0075-.1206.0226.0113-.0038-.0264.0038-.0528.0114-.0791.0189-.1245.0264-.2526.0415-.3771.0565-.1018.0114.1282-.0037.0227-.0037-.0264 0-.0528.0037-.083.0037-.0528 0-.1093 0-.1621 0-.0226 0-.2224-.0113-.1244-.0037.0942.0075 0 0-.0151-.0038-.0452-.0075-.0905-.0113-.1357-.0189-.0641-.0113-.1244-.0226-.1885-.0339-.1282-.0264.0829.0264-.0415-.0113-.132-.0415-.2602-.0829-.3846-.1395-.0603-.0264.0038 0 .0113.0076-.0264-.0151-.0565-.0264-.0829-.0415-.0641-.0339-.1244-.0679-.1885-.1056-.1207-.0716-.2413-.1508-.3544-.2337-.1772-.1282-.3997-.3205-.5995-.4977-.2149-.1923-.426-.3883-.6447-.5768-.9652-.8407-2.2206-1.5307-3.5477-1.2668-.6146.1245-1.1122.4374-1.5609.8672-.181.1734-.3544.3581-.5391.5316-.0377.0377-.0792.0716-.1207.1093-.0188.0188-.1319.1055-.1093.0905-.0302.0226-.1923.1206-.2752.1696.0867-.0264-.0754.0453 0 0-.0264.0076-.0566.0226-.083.0302-.0075.0038-.1018.0339-.0339.0151.0754-.0227-.0453.0075-.0603.0113-.0302.0037-.0604.0075-.0868.0151.0114-.0038.1207 0 .0415-.0038-.0377 0-.0792-.0038-.1169 0-.1018.0075.1094.0188.0114.0038-.0679-.0114-.1395-.0227-.2074-.034.1093.0189-.0264-.0075-.0641-.0188-.0679-.0226-.1357-.0453-.2036-.0754-.0302-.0113-.0565-.0226-.0867-.0377.0792.0339-.0415-.0227-.0566-.0302-.5165-.2639-.8897-.5994-1.312-.9878-.9124-.8369-1.9002-1.6211-3.2009-1.6136-1.2969.0076-2.3526.7691-3.2801 1.6023-.4222.3808-.8143.7578-1.2667 1.0557-.1207.0791-.2489.1583-.3771.2262-.0301.015-.147.0754-.1206.0641.0565-.0264-.0566.0226-.0679.0301-.0377.0151-.0754.0302-.1131.0453-.0641.0226-.1319.0452-.1998.0678-.1206.0377.0603-.0075-.0641.0151-.0377.0075-.0792.0113-.1169.0188-.0113.0038-.1131.0151-.0226.0038.0867-.0113-.0113 0-.0226 0-.049 0-.098-.0037-.1508 0-.0792.0038.0264.0038.0377.0038-.0302-.0038-.0603-.0075-.0905-.0113-.0528-.0076-.2111-.049-.0829-.0113-.0604-.0189-.1207-.0377-.181-.0603-.0339-.0114-.181-.0792-.0792-.0302-.23-.1131-.4411-.2564-.6485-.411-.0075-.0037-.0791-.064-.0226-.015-.0226-.0189-.0452-.034-.0641-.0528-.0528-.0415-.1018-.083-.1546-.1244-.1018-.083-.2035-.1697-.3053-.2526-.2263-.1848-.4525-.3657-.6938-.5278-1.0745-.7164-2.477-.8558-3.6985-.4562-.2941.098-.5806.2337-.8445.3996.3694.1697.7389.3431 1.1084.5127 1.7908-2.4505 3.6118-4.9425 4.7731-7.7701.3242-.7842.5881-1.5948.7879-2.4204.1169-.4826-.5353-.5542-.8709-.5203-1.6363.1471-3.2574.3808-4.8673.6937.2677.2074.5316.4147.7993.6221 1.6136-1.5495 3.2725-3.1631 4.2641-5.2027 1.0782-2.2131.9991-4.6561.7842-7.0463-.2036-2.2659-.4939-4.6448.1998-6.8314.5844-1.8361 1.6626-3.4007 3.1142-4.6523.0867-.0754.1772-.1508.2677-.2225.0263-.0226.0565-.0452.0829-.0678 0 0 .0716-.0566.0302-.0227-.0415.0302.0301-.0226.0301-.0226.0302-.0226.0566-.0414.0867-.0641.1923-.1432.3921-.2827.592-.4109.4034-.26391.8256-.49389 1.2592-.70124.0641-.03017-.0151.00754-.0226.01131.0339-.01508.0641-.03017.098-.04525.049-.02262.098-.04147.147-.06409.1132-.04901.23-.09425.3469-.13949.2224-.08671.4524-.16211.6786-.23375.1094-.03393.2225-.06409.3318-.09425.0113-.00377.1018-.02639.0189-.00377-.0867.02262.0226-.00377.0452-.01131.0603-.01508.1207-.02639.181-.04147.2337-.05278.4713-.09425.7088-.12441.1131-.01508.23-.03016.3431-.04147.0264-.00377.0527-.00377.0791-.00754.083-.00754-.0527.00377-.0527.00377.0339.01885.1734-.01131.2149-.01508.245-.01508.7088-.09426.7088-.42602 0-.30915-.4203-.4383-.7051-.42225z"/><path d="m35.5537 33.4662c.0414 1.919.2224 3.8983 1.1235 5.6287.8106 1.5533 2.1754 2.7183 3.6194 3.6646.8294.5429 1.7003 1.0217 2.575 1.4967-.0226-.0641-.049-.1244-.0716-.1885-.5165.6032-1.1009 1.1386-1.7569 1.591-.2451.1696.098.3016.2526.3317.2752.0528.7201.083.9689-.0867.7013-.4863 1.3422-1.0594 1.9002-1.7078.0603-.0717-.0076-.1546-.0717-.1885-1.493-.8106-3.0199-1.64-4.2829-2.7974-.6145-.5618-1.165-1.2027-1.5872-1.919-.4751-.803-.7729-1.6928-.9539-2.6051-.2111-1.0594-.2752-2.1415-.2979-3.2197-.0037-.2337-.5579-.2451-.7088-.2451-.1319.0038-.7125.0114-.7087.2451z"/><path d="m28.6655 8.64744c.1244.00393.2526.00786.377.01573.0641.00393.1244.00786.1885.01179.2111.0118-.1433-.01573.0641.00393.2715.02753.5467.05898.8181.10224.23.03538.4562.08257.6824.13368.2036.04325-.1244-.03539.0755.01966.0603.01573.1206.03146.1847.04719.1433.03932.2828.08257.4223.12975.8897.2949 1.7229.73135 2.4581 1.39189 1.4365 1.2897 2.2885 3.1613 2.7296 5.0526.543 2.3356.4826 4.7734.5053 7.1562.0226 2.2806.1206 4.5926.7955 6.7827.3468 1.1245.8445 2.2137 1.5834 3.1141.3469.4207.7579.7943 1.2178 1.0734.5542.3382 1.1612.4994 1.7984.5505.2262.0157.7088-.0983.7088-.4089 0-.3342-.4901-.3893-.7088-.4089.1847.0157-.0038-.004-.0339-.0079-.0566-.0079-.1094-.0197-.1621-.0314.1583.0314-.0189-.0079-.0453-.0158-.0528-.0157-.1056-.0354-.1546-.0511-.0113-.0039-.1809-.0747-.0603-.0197-.049-.0235-.098-.0471-.147-.0747-.1131-.0589-.2262-.1258-.3356-.2005-.1169-.0786-.2714-.2045-.4185-.346-.1809-.173-.3506-.3617-.5089-.5623-.607-.7706-1.0218-1.7497-1.3272-2.6973-.6861-2.1469-.7653-4.451-.7842-6.6962-.0226-2.3906.0302-4.8166-.5052-7.1562-.4486-1.9778-1.2931-3.9044-2.7447-5.3003-1.8021-1.73005-4.5053-2.4272-6.8881-2.49011-.23-.00394-.4939.15453-.4939.47302 0 .32636.4901.40106.7088.40893z"/><path d="m42.3783 33.5756c-2.0648-.1285-4.1297-.2569-6.1953-.3817-.1895-.0113-.6528.0505-.5639.3424.0853.2913.5669.3823.8127.3999 2.0649.1285 4.1298.257 6.1954.3817.1895.0113.6528-.0504.5638-.3424-.0889-.2919-.5668-.3822-.8127-.3999z"/><path d="m25.4843 20.6717c.604 0 1.0937-.4896 1.0937-1.0937s-.4897-1.0938-1.0937-1.0938c-.6041 0-1.0938.4897-1.0938 1.0938s.4897 1.0937 1.0938 1.0937z"/><path d="m31.828 20.5624c.6041 0 1.0938-.4652 1.0938-1.0391s-.4897-1.0391-1.0938-1.0391c-.604 0-1.0937.4652-1.0937 1.0391s.4897 1.0391 1.0937 1.0391z"/></g></svg>