<svg xmlns="http://www.w3.org/2000/svg" width="1024" height="1024" fill="none" viewBox="0 0 56 56"><path fill="#df579a" d="M28.392 45.65c-1.721.45-3.302-2.743-8.33-9.03-2.774-3.467-4.016-4.654-5.548-7.592-1.188-2.284-1.719-4.023-1.847-5.876-.08-1.157-.177-2.948.775-4.883.405-.834 1.302-2.665 3.329-3.438 1.698-.649 3.251-.19 4.267.106.577.171 2.621.798 4.187 2.689s1.484 3.636 2.235 3.66c.762.024.836-1.76 2.708-3.723.528-.552 1.55-1.598 3.212-2.143 1.576-.514 2.916-.313 3.726-.182 1.064.175 2.973.48 4.322 2 .905 1.025 1.132 2.121 1.393 3.456.585 3.005.018 5.552-.336 6.773-.77 2.673-2.054 4.4-3.547 6.409-.838 1.126-.429.423-4.351 4.912-1.557 1.782-3.255 3.441-4.718 5.306-.955 1.21-1.062 1.447-1.477 1.556"/><g fill="#730173"><path d="M28.881 45.362c-2.656-2.391-5.078-5.029-7.45-7.697-2.26-2.539-4.521-5.141-6.074-8.181-1.498-2.922-2.37-6.38-1.59-9.637.358-1.495 1.113-2.91 2.31-3.9 1.123-.923 2.487-1.27 3.91-.957 3.156.697 5.682 3.349 6.622 6.378.082.271.677.254.888.22.234-.041.58-.16.485-.449-.884-2.853-3.128-5.25-5.912-6.347-1.697-.67-3.666-.9-5.404-.232-1.506.58-2.733 1.695-3.505 3.1-1.696 3.094-1.253 6.954-.04 10.123 1.282 3.356 3.522 6.216 5.86 8.896 2.439 2.798 4.934 5.57 7.64 8.12q.514.48 1.035.952c.236.216.698.192.982.098.221-.07.484-.271.243-.487"/><path d="M28.048 21.446c1.098-2.614 3.187-4.987 5.98-5.805 1.203-.354 2.429-.321 3.63.044 1.218.365 2.349 1.08 3.128 2.103.987 1.297 1.306 3.013 1.375 4.604.073 1.73-.21 3.445-.746 5.089-1.078 3.315-3.119 6.179-5.413 8.764-2.4 2.709-5.107 5.129-7.284 8.03q-.419.562-.814 1.132c-.417.606.946.83 1.248.393a38 38 0 0 1 3.67-4.505c1.3-1.374 2.652-2.698 3.922-4.1 2.441-2.681 4.69-5.66 5.913-9.105.603-1.708.963-3.529.945-5.345-.015-1.713-.322-3.6-1.308-5.04-1.714-2.504-5.017-3.511-7.934-3.027-3.138.519-5.734 2.804-7.2 5.548q-.27.514-.496 1.043c-.241.567 1.176.686 1.384.177"/></g></svg>