<svg fill="none" height="1024" viewBox="0 0 56 56" width="1024" xmlns="http://www.w3.org/2000/svg"><path d="m25.7169 40.6825c-.4039-.2426-5.6409-5.8106-5.7755-6.1745-.1347-.3639-3.6215-8.2246-3.7561-8.5885s-.5385-5.3254-.6731-5.6893c-.1347-.3639 1.077-5.8106 1.077-5.8106l3.3589-3.6331 4.9677-2.54138 5.7755.24261 5.5063 3.99707 2.1473 6.1745.2692 6.1745-3.0897 8.5946-4.9677 4.8341-2.9551 2.42.1347 1.2131-1.3463 1.0918-1.6088-.7279.1346-1.2131z" fill="#e75b14"/><path clip-rule="evenodd" d="m41.0156 52.7974c-.4172-.5866-.9449-1.1063-1.5405-1.5503-1.5596-1.163-3.4755-1.6739-5.3713-1.9966-.4998-.0854-.9996-.1589-1.4993-.2324h-.0002c-.5623-.0827-1.1247-.1654-1.687-.265l-.0143-.0027c-.8428-.1538-1.731-.3159-2.4663-.7772-1.6047-1.0122-1.3792-3.1407-1.0661-4.7987.6238-.1626 1.205-.5158 1.5188-1.0777.3107-.5583.1657-1.2007-.2402-1.6209 4.3478-2.9791 7.6654-7.1377 9.4109-11.8111.9546-2.5593 1.4655-5.2703 1.3983-7.9691-.0739-2.905-.8403-5.901-2.7092-8.3088-1.7075-2.2015-4.1881-3.86931-7.1057-4.48792-2.9647-.6368-6.1512.0182-8.6788 1.51014-2.5882 1.52828-4.4168 3.85118-5.3579 6.49538-1.0017 2.8201-1.0487 5.8343-.4572 8.7272.632 3.0385 1.8756 5.9557 3.3344 8.7394 1.237 2.3592 2.7764 4.7427 5.0823 6.3923.4168.2982.8472.5718 1.2986.8141-.3995.3555-.5719.9301-.4191 1.4722.1662.5795.6867.9339 1.2564 1.1052-.2866 1.555-.4401 3.2582.5228 4.61 1.0906 1.5333 3.2467 1.8605 5.0015 2.1267.0839.0127.1669.0253.2488.0379.2839.0431.5706.0837.8588.1245l.0002.0001c1.6429.2325 3.3325.4717 4.8081 1.2266 1.0003.5145 1.9231 1.2416 2.517 2.1838.4589-.2105.9111-.433 1.3562-.6671zm-19.9568-17.9707c1.331 2.1772 3.0587 4.2332 5.5528 5.3976.0569.0262.1027.0574.1381.092.4538-.2887.8976-.5934 1.3274-.9107 4.3025-3.1901 7.415-7.6053 8.8603-12.445 1.4857-4.9974 1.3714-11.2198-2.6352-15.2772-1.7344-1.75877-4.2016-3.08696-6.7965-3.13548-2.642-.04852-5.2436 1.10379-7.1326 2.79588-4.4907 4.0331-4.5781 10.395-2.9445 15.5562.8672 2.7352 2.1109 5.434 3.6302 7.9267zm5.4164 6.2978c-.0666.0633-.1495.1125-.2412.1387-.0397.0122-.0627.0188-.0704.0193-.0307.0223-.0264.0215.0099.0008-.0577.1226-.0438.0789-.0341.0483.0084-.0264.0136-.0431-.0331.066-.0471.1076-.0605.242-.0404.363.0269.1546.1009.2488.2219.3362.0739.047.2084.0672.2622.0672.0806 0 .2353-.0202.3764-.0874.1479-.074.2891-.1815.3765-.3294.0672-.1143.1008-.2756.0739-.4101-.0056-.0283-.016-.0648-.0292-.1017-.2955.0551-.645.0093-.8724-.1109z" fill="#4b064b" fill-rule="evenodd"/></svg>