<svg fill="none" height="1024" viewBox="0 0 56 56" width="1024" xmlns="http://www.w3.org/2000/svg"><path d="m16.9849 53.7504.2211-1.0396 4.4673-4.2882 2.6812-1.2489 6.9516-1.9651 6.0743-2.6812 5.2685-3.7511 2.6812-2.1441 2.7708-1.5175 1.1594-2.7707-.3581-1.7861-3.393.1791s-5.6266-1.0698-6.1638-1.0698c-.5371 0-4.2882-1.0698-4.2882-1.0698s-2.4977-2.5023-2.8558-2.5023c-.3537 0-.7014-3.1244-.7014-3.1244l1.2385-.4476 2.4127-.8952s3.0349-1.1594 3.4825-1.3384c.4476-.1791 1.6965-1.5175 1.8755-1.786.1791-.2686.4477-1.8756.4477-1.8756l-1.8756-1.6069-3.2139 1.2488-2.3232 1.8756-1.6069 2.1441s-.7162 2.0546-.8058 2.3231c-.0895.2686-1.1593.3581-1.1593.3581l-2.5917.1791s-2.5873-.7162-3.214-.8953c-.6222-.179-1.3384-1.1593-1.5174-1.5174-.1791-.3581.2686-2.6813.2686-2.6813l1.965-.6266 4.8209-1.786 2.5917-2.0546s2.5023-3.3035 2.7708-3.4825c.2686-.17909.0896-3.48255.0896-3.48255l-1.607-1.33839-2.7708 1.60696-3.572 2.85584s-3.7511 5.08944-3.8406 5.35804-1.1594 2.7708-1.1594 2.7708-2.5872-.8953-2.8558-.8057c-.2686.0895-5.8057.2685-5.8057.2685s-4.46277 2.3232-4.73134 2.4127c-.26858.0896-3.03489 3.393-3.21394 3.7511-.17904.3581-3.1244 4.2882-3.4825 4.5568-.1785.1339-1.133346.9551-2.0572938 1.7785.6973688 10.7592 7.4718138 19.8624 16.9255738 23.9117z" fill="#f0cec7"/><g fill="#621a0b"><path clip-rule="evenodd" d="m17.2835 53.876c.7854-1.634 1.9175-3.0978 3.329-4.2719 1.0589-.8831 2.2704-1.579 3.5722-2.0301 1.4906-.1893 2.9683-.4988 4.4089-.8974 4.3733-1.213 8.5228-3.1468 12.1664-5.8683.6465-.4823 1.2651-.9999 1.8835-1.5174l.0017-.0014c.4599-.3848.9201-.7699 1.3914-1.1401.5237-.4118 1.0877-.7878 1.6741-1.1101.0389-.0213.0778-.0426.1167-.064l.0062-.0034.0014-.0008c.2431-.1336.4869-.2676.7359-.3809.0959-.0072.1855-.0249.2589-.0522.1558-.058.308-.1226.4562-.1938.0666-.0142.1339-.0258.2018-.0345.1932-.0265.5018-.1653.5134-.381.6304-.4371 1.1558-1.012 1.5322-1.7049.5461-1.0072.7833-2.274.4566-3.3885-.2652-.9048-1.4274-.6849-2.2284-.5334-.1184.0224-.229.0433-.3275.0589-.0481.0074-.1173.0219-.1894.0448-2.359-.0373-4.7182-.3003-7.0442-.7923-2.2963-.4835-4.7314-1.1639-6.4637-2.838-.8236-.7967-1.4816-1.7994-1.7592-2.9229-.0706-.286-.1138-.5744-.1312-.8627.3664-.0745.7311-.1568 1.0936-.2475 1.3697-.3446 2.7081-.7922 4.0018-1.3563 1.1593-.5013 2.3097-1.0608 3.2631-1.9023.7879-.6983 1.6876-1.8353 1.3877-2.9678-.3089-1.1638-1.6294-1.4055-2.6723-1.3697-2.5694.0895-5.1164 1.3921-6.7636 3.3572-.7923.9444-1.419 2.0769-1.6428 3.2989-.0548.2977-.0794.5977-.0765.8967-.1935.0334-.3873.0643-.5815.0926-.6088.0895-1.2265.1522-1.8397.1969-.5327.0403-1.034.0582-1.5578-.0179-.9892-.1477-1.8397-.7117-2.4171-1.5443-.658-.9444-.9087-2.1127-.846-3.2542.0019-.0365.0042-.073.0068-.1095 2.7394-.2748 5.4575-1.2229 7.6609-2.894.5775-.4387 1.1236-.9177 1.6204-1.4414.2552-.2686.4924-.5461.7207-.837.0785-.1014.1641-.1908.2517-.2823.0323-.0337.0649-.0677.0975-.1027.0874-.0961.1368-.1979.1879-.303.0273-.0563.0552-.1137.0896-.1715.0996-.1742.2117-.3416.3243-.5096.1101-.1644.2207-.3294.3203-.502.1835-.3268.3536-.6625.4968-1.0071.282-.68939.4611-1.44139.4611-2.18892 0-.83706-.1701-1.64278-.8595-2.17545-.752-.58191-1.9471-.70277-2.7484-.15219-.0732.05061-.1259.11152-.1568.17648-2.1685 1.27794-4.1413 2.89246-5.8144 4.77418-.8908 1.0027-1.701 2.077-2.4083 3.214-.6714 1.0787-1.2488 2.247-1.5129 3.5004-.0266.1257-.0493.2523-.0681.3795-2.2626-1.0451-4.816-1.4112-7.2864-1.0375-2.5335.3849-4.89697 1.5935-6.75013 3.3572-1.02058.9713-1.88001 2.1172-2.53802 3.3661-.0155.0292-.02505.0575-.02948.085-.01206.0141-.02315.029-.03317.0448-1.42567 2.2541-3.21019 4.227-5.1962059 5.9838.0227517.4831.0577487.963.1046879 1.4395.501455-.4138.993438-.8393 1.474728-1.2775 1.83525-1.6741 3.49145-3.5541 4.82089-5.6579.04862-.0773.07363-.1532.07803-.2251.05729-.0432.10574-.0973.1413-.1643 1.05639-2.0009 2.66783-3.6929 4.62397-4.8254.9534-.5506 2.0277-.9713 3.0886-1.1907.3088-.0626.6177-.1164.931-.1522.0381-.0044.075-.0089.1119-.0134.037-.0045.0739-.009.1119-.0134.0358-.0045.0761-.009.1119-.009.1612-.0134.3268-.0224.4879-.0268.3134-.009.6267-.009.9445.0089.0761.0045.1522.009.2238.0134.018.0023.037.0034.056.0045s.038.0023.056.0045c.1611.0134.3267.0313.4879.0537 1.3786.188 2.6767.6133 3.9077 1.3115l.0057.0033c.0509 1.8865.9636 3.715 2.8188 4.4685 1.3071.5282 2.7977.4655 4.1719.3402.5615-.0504 1.1223-.1167 1.6807-.2001.0892.7625.3498 1.5058.7364 2.1741 1.2847 2.2336 3.7332 3.4154 6.1235 4.0958 2.7395.7788 5.5953 1.2085 8.4332 1.3473.4268.0209.8551.0358 1.2831.0445.1978.1407.567.1505.7581.1211.1119-.0179.2249-.0358.3379-.0537l.1811-.0287c.0525-.0083.1048-.0167.1569-.025.0367-.0059.0739-.0108.1111-.0157.012.0217.0228.0425.0277.0604.0165.0498.0257.1044.0349.1585.0032.019.0063.0378.0098.0564.0314.1611.0493.3223.0582.4879.0358.5998-.0537 1.2086-.2641 1.7726-.2104.555-.5192 1.0967-.9266 1.5309-.2085.2218-.4346.4217-.6827.5995-.5538.1087-1.1011.323-1.5822.6001-.1092.0627-.2186.1245-.3279.1863-.4058.2295-.8097.4579-1.1941.7224-.8288.5667-1.5988 1.2119-2.3697 1.8579l-.0028.0024c-.2025.1696-.405.3393-.6086.5076-1.7458 1.4413-3.6571 2.6857-5.6625 3.7332-1.9247 1.0071-3.948 1.8084-6.0339 2.4529-1.0967.3402-2.1844.6267-3.3079.8505-1.1639.2283-2.3859.3984-3.5049.4611-2.6634.1522-5.2417-.1567-7.7529-1.1236-.2864-.1119-.7341-.085-.9579.1478-.2327.2417.0179.4744.2507.564 2.6443 1.0188 5.4433 1.3647 8.2384 1.24-2.2028 1.0274-4.09 2.7191-5.3826 4.7805-.1733.2757-.335.557-.4851.8431.3683.172.7409.3362 1.1176.4924zm14.3987-47.21684c.2074-.14017.4172-.27644.6294-.40913.183.00311.3667-.03929.5031-.1325.0626-.04028.1119-.07162.1387-.08057.0092-.00344.0163-.00615.0216-.00825l.0035-.00057c.0178.0078.1886.01409.0689-.00461l.0105.00148c.0287.00404.0601.00846.088.01643.0153.00319.0237.00438.0274.00428.0097.00379.0213.0083.0353.01362l.0178.00694c.1439.05587.1528.05933.2776.14973.0493.03581.1746.15219.2373.24619.3178.44315.3133 1.1862.2685 1.7323-.0537.64906-.2462 1.26678-.5147 1.8576-.1433.3223-.3134.6312-.4924.9311-.0707.1179-.151.2328-.2313.3478-.1179.1688-.2359.3377-.3238.5161-.0671.1388-.1074.2104-.2193.3223-.0902.0902-.1696.189-.2487.2875-.0347.0432-.0694.0865-.1049.1288-.2015.2507-.4118.4879-.6357.7207-.4252.4476-.8862.8683-1.3786 1.2399-1.0027.7609-2.0591 1.3384-3.2005 1.777-.3313.1254-.6715.2418-1.0117.3447l-.0257.0078-.0245.0074c-.0716.0216-.1412.0427-.2139.0609-.0156.0045-.0324.009-.0492.0134-.0168.0045-.0336.009-.0492.0135-.0178.0059-.0572.0157-.061.0165-.0011.0003.0009-.0003.0073-.002.0048-.0012.012-.003.0223-.0056-.179.0448-.3581.0895-.5371.1298-.4579.1034-.9216.1834-1.3885.2439.4157-2.0148 1.6751-3.8594 2.9149-5.4408 1.5353-1.95609 3.3751-3.67049 5.4386-5.05364zm1.8845 15.27284c-.5667.1805-1.1413.3404-1.7214.4782.0386-.6846.2162-1.3595.5083-1.9911.9624-2.077 2.8469-3.7063 5.0045-4.4449.5371-.1835 1.0787-.2999 1.6293-.3492l.01-.001c.0024.0004.005.0007.0079.001.0302.0031.0644.002.0972.001.0159-.0005.0315-.001.0461-.001h.008.007c.008.0013.0178.0028.0297.0045.0179.0045.2059.0314.0627.0045.1746.0313.2462.0448.4252.1567.4074.2551.5775.743.564 1.2041-.0179.5595-.2864 1.0698-.6132 1.5085-.6804.9131-1.6473 1.5398-2.6499 2.0501-1.0967.555-2.2471 1.0071-3.4154 1.3786z" fill-rule="evenodd"/><path d="m27.9714 31.632c.5192 0 .94-.4208.94-.94 0-.5191-.4208-.94-.94-.94-.5191 0-.94.4209-.94.94 0 .5192.4209.94.94.94z"/></g></svg>