<svg xmlns="http://www.w3.org/2000/svg" width="1024" height="1024" fill="none" viewBox="0 0 56 56"><path fill="#e75b14" d="M25.717 40.682c-.404-.242-5.641-5.81-5.776-6.174s-3.621-8.225-3.756-8.589-.538-5.325-.673-5.689 1.077-5.81 1.077-5.81l3.36-3.634 4.967-2.54 5.775.242 5.507 3.997 2.147 6.174.27 6.175-3.09 8.594-4.968 4.834-2.955 2.42.134 1.214-1.346 1.091-1.609-.728.135-1.213z"/><path fill="#4b064b" fill-rule="evenodd" d="M41.016 52.797a7 7 0 0 0-1.54-1.55c-1.56-1.163-3.476-1.674-5.372-1.996-.5-.086-1-.16-1.5-.233-.562-.083-1.124-.165-1.687-.265l-.014-.003c-.843-.153-1.731-.315-2.466-.777-1.605-1.012-1.38-3.14-1.066-4.798.623-.163 1.205-.516 1.518-1.078.311-.558.166-1.2-.24-1.621 4.348-2.98 7.666-7.138 9.411-11.811.955-2.56 1.466-5.27 1.398-7.97-.074-2.904-.84-5.9-2.709-8.308-1.707-2.202-4.188-3.87-7.106-4.488-2.964-.637-6.15.018-8.678 1.51a12.3 12.3 0 0 0-5.358 6.496c-1.002 2.82-1.049 5.834-.457 8.727.632 3.038 1.875 5.955 3.334 8.74 1.237 2.358 2.776 4.742 5.082 6.391.417.299.847.572 1.299.815-.4.355-.572.93-.42 1.472.167.58.687.934 1.257 1.105-.286 1.555-.44 3.258.523 4.61 1.09 1.533 3.247 1.86 5.001 2.127l.25.038q.425.063.858.124c1.643.233 3.333.472 4.808 1.227 1 .514 1.923 1.241 2.517 2.184q.689-.316 1.357-.668m-19.957-17.97c1.33 2.177 3.058 4.233 5.553 5.397a.5.5 0 0 1 .138.092q.681-.433 1.327-.91c4.303-3.19 7.415-7.606 8.86-12.445 1.486-4.998 1.372-11.22-2.635-15.278-1.734-1.758-4.201-3.087-6.796-3.135-2.642-.049-5.244 1.104-7.133 2.796-4.49 4.033-4.578 10.395-2.944 15.556a36.7 36.7 0 0 0 3.63 7.927m5.416 6.298a.6.6 0 0 1-.241.138l-.07.02q-.046.032.01 0c-.058.123-.044.08-.035.049.009-.027.014-.043-.033.066a.66.66 0 0 0-.04.363.5.5 0 0 0 .222.336.6.6 0 0 0 .262.067c.08 0 .235-.02.376-.087a.9.9 0 0 0 .377-.33.62.62 0 0 0 .074-.41 1 1 0 0 0-.03-.102c-.295.055-.644.01-.872-.11" clip-rule="evenodd"/></svg>