<svg xmlns="http://www.w3.org/2000/svg" width="1024" height="1024" fill="none" viewBox="0 0 56 56"><path fill="#5cadd6" d="m9.456 41.969.065-23.924 1.987.193-.065 20.91 1.025 1.731s0-1.09 2.114-1.538c2.114-.449 7.11-.642 8.327-.32 1.216.32 3.522 1.475 3.522 1.475s.32-.77 1.281-.77 1.346.386 1.536.707c.193.32 1.537-.256 2.755-.897 1.216-.641 3.97-.834 4.931-.834.961 0 4.1.962 4.676 1.027.576.065 1.73.77 1.73.77l1.473-1.09-.193-23.476 2.242-.128-.255 26.361-16.655-.192s-.193.706-.833.834c-.641.127-1.667.32-2.05.065-.385-.256-1.215-.642-1.215-.642z"/><path fill="#fff" d="M11.57 38.89c0-.256.282-20.689.092-21.482-.215-.87 5.325-3.367 8.592-3.367 3.268 0 4.701.617 5.277.938.575.32 2.502.886 2.502.886s3.318-1.696 4.022-1.824c.703-.127 3.684-.52 4.262-.52.576 0 2.86 0 4.783.52 1.715.938 2.52 1.824 3.119 1.824.32.256.659 22.962.659 22.962l-1.73 1.731-1.345-.641s-2.69-1.027-4.163-1.027-4.869.065-5.895.641c-1.025.576-2.499 1.348-2.499 1.348s-.32-1.283-1.026-1.155-1.473.514-1.6.641-1.09-.385-1.09-.385-3.46-.834-3.907-.834c-.448 0-3.715-.321-4.036-.193-.32.127-2.82.576-3.074.769-.256.193-2.05 1.09-2.05 1.09l-1.025-1.539"/><g fill="#000"><path d="M30.281 21.095a11.05 11.05 0 0 1 4.43-1.828l.042-.007.013-.003.012-.002c.006 0 .01-.002.016-.003-.02.003-.068.01.017-.002l.144-.022c.104-.014.207-.029.31-.038a10.74 10.74 0 0 1 .839-.063c.106-.002.211-.005.317-.005.097 0 .193.003.292.005h.007l.075.003a3.208 3.208 0 0 1 .144.005h-.013l.028.002-.015-.002.022.002c.212.014.424.031.635.055.1.012.198.024.297.039l.073.01.04.006.033.005.009.002c-.013-.003-.027-.005.008 0l.104.02c.412.073.819.169 1.22.287.839.248 1.722.634 2.5 1.102.176.104.424.108.619.063.094-.022.34-.13.161-.237a12.155 12.155 0 0 0-5.14-1.66 12.385 12.385 0 0 0-5.404.722 11.89 11.89 0 0 0-2.612 1.367c-.162.114.057.215.161.237.18.038.453.053.616-.06zm1.089 3.488c-.369.2-.723.42-1.064.658-.171.119-.468.092-.636.003-.063-.034-.133-.104-.133-.181 0-.084.07-.137.133-.18a11.959 11.959 0 0 1 2.634-1.373 12.191 12.191 0 0 1 5.29-.704c1.789.157 3.551.726 5.093 1.65.163.098.166.265 0 .361a.687.687 0 0 1-.639 0 12.318 12.318 0 0 0-1.03-.55l-.077-.036-.048-.021a4.537 4.537 0 0 1-.049-.022c-.002-.003-.067-.03-.026-.012a11.008 11.008 0 0 0-1.645-.57l-.144-.035a2.533 2.533 0 0 1-.031-.008l-.012-.002c.024.005-.028-.008-.036-.01a14.44 14.44 0 0 0-.627-.125 10.338 10.338 0 0 0-.609-.09 7.637 7.637 0 0 0-.337-.035l-.04-.004-.044-.004a3.783 3.783 0 0 1-.06-.005l-.035-.002-.04-.002a11.373 11.373 0 0 0-1.25-.003c-.03.003-.062.004-.093.006l-.094.006-.02.001h-.006l-.022.002-.02.002a10.57 10.57 0 0 0-.91.116 10.2 10.2 0 0 0-.65.129l-.034.008c.044-.012-.017.003-.026.005l-.04.01-.031.008-.071.018c-.101.027-.2.053-.301.082a11.788 11.788 0 0 0-1.238.435l-.077.033-.05.022a5.872 5.872 0 0 0-.315.145 11.29 11.29 0 0 0-.54.274z"/><path d="M38.986 23.56h-.007l-.013-.004.02.005z"/><path fill-rule="evenodd" d="M30.375 29.511c.66-.46 1.39-.85 2.14-1.157.692-.28 1.525-.514 2.243-.634a13.1 13.1 0 0 1 .618-.087h.002l.29-.029.072-.006.062-.005h.015l.042-.003.042-.003a11.186 11.186 0 0 1 1.32.009h.014l.021.002h.002l.059.005.042.003.033.003c.106.01.212.022.317.034.212.024.422.055.631.094a10.444 10.444 0 0 1 .436.086c-.05-.011-.015-.003.005.002l.012.003.033.008.019.004.025.007.027.005c.2.049.4.102.594.16a10.8 10.8 0 0 1 2.55 1.12c.176.107.462.097.638 0 .171-.09.16-.238 0-.334a11.997 11.997 0 0 0-5.092-1.645 12.116 12.116 0 0 0-5.329.719c-.946.357-1.835.824-2.665 1.403-.174.12.04.29.161.323a.74.74 0 0 0 .621-.087zm6.853-1.915h.01l.002.001.016.001-.014-.001-.02-.001h.006zm-1.422-.003h-.004a1.023 1.023 0 0 1 .004 0z" clip-rule="evenodd"/><path d="M30.924 33.417c-.178.11-.351.227-.522.345a.61.61 0 0 1-.646.005.272.272 0 0 1 0-.458 11.9 11.9 0 0 1 2.635-1.384c1.656-.62 3.45-.88 5.213-.721a12.14 12.14 0 0 1 5.17 1.673c.187.11.148.34 0 .458-.181.145-.454.11-.639 0a10.764 10.764 0 0 0-1.883-.887c-.113-.041-.226-.08-.342-.118l-.161-.051-.02-.006h-.003a.161.161 0 0 1-.01-.004l-.06-.017a11.57 11.57 0 0 0-1.975-.39l-.068-.007c.06.005.008 0-.034-.004l-.036-.004a11.373 11.373 0 0 0-1.878-.002l-.082.007a.09.09 0 0 1 .012-.002l-.14.014c-.206.022-.413.053-.618.087a11.832 11.832 0 0 0-1.726.436c-.198.07-.393.143-.585.222-.38.155-.752.33-1.113.526 0-.003-.091.048-.065.034l-.009.005-.037.021-.127.072a8.396 8.396 0 0 0-.25.15z"/><path fill-rule="evenodd" d="M13.928 21.017a11.126 11.126 0 0 1 2.653-1.35 13.1 13.1 0 0 1 .597-.188c.2-.058.402-.108.607-.154l.03-.007.006-.002.024-.006.048-.01c-.025.007-.009.003.008 0l.021-.004.041-.009.04-.008a11.803 11.803 0 0 1 .928-.142l.291-.03.073-.005.061-.005h.006l.01-.001.042-.003c.014 0 .027 0 .042-.002a11.773 11.773 0 0 1 1.31.008l-.017-.001-.008-.001h-.005.005l.01.001h.015l.012.002h.019l.075.007.074.006.318.033c.212.025.422.056.631.094.099.017.195.037.291.056l.062.012.018.005.185.043c.2.048.4.101.595.16.896.262 1.729.631 2.55 1.12.173.104.462.092.638 0 .173-.089.154-.226 0-.318a12.028 12.028 0 0 0-5.093-1.642 12.155 12.155 0 0 0-5.328.716 12.28 12.28 0 0 0-2.666 1.399c-.17.118.044.277.162.308.207.053.443.041.619-.082zm5.433-1.92.006-.001h-.005zm0 0-.031.001h-.002.002l.026-.001z" clip-rule="evenodd"/><path d="M15.016 24.523c-.369.198-.722.42-1.064.658a.597.597 0 0 1-.64 0c-.172-.11-.165-.333 0-.446a11.992 11.992 0 0 1 2.633-1.381 11.928 11.928 0 0 1 5.213-.719 12.19 12.19 0 0 1 5.17 1.67c.18.11.156.336 0 .447-.186.133-.448.113-.638 0-.11-.065-.221-.127-.332-.19a.741.741 0 0 0-.075-.041.298.298 0 0 0-.022-.013l-.152-.08a10.732 10.732 0 0 0-1.305-.566 14.007 14.007 0 0 0-.376-.129l-.046-.014-.08-.025a1.718 1.718 0 0 1-.102-.032 11.605 11.605 0 0 0-1.847-.374l-.04-.004-.055-.006a45.1 45.1 0 0 1-.165-.018 11.375 11.375 0 0 0-1.878-.002l-.04.003h-.001l-.04.003a.083.083 0 0 1 .01-.001l-.138.013c-.207.022-.415.054-.62.087a11.88 11.88 0 0 0-1.279.297l-.03.01a2.18 2.18 0 0 1-.07.021l-.035.01c-.011.005-.023.008-.035.012l-.277.091a12.185 12.185 0 0 0-1.505.647c-.021.011-.043.023-.065.033l-.013.007-.014.008-.013.007-.034.017z"/><path d="m23.205 23.665-.008-.003a.11.11 0 0 0 .008.003zm-9.253 5.839a10.9 10.9 0 0 1 1.064-.658l.04-.023.011-.005a2.045 2.045 0 0 0 .09-.05l.007-.003.007-.004.013-.006a.67.67 0 0 1 .015-.008l.02-.01.092-.046a12.161 12.161 0 0 1 .761-.344 11.795 11.795 0 0 1 1.207-.416l-.034.01.08-.021.07-.018.037-.01.035-.008a10.263 10.263 0 0 1 .917-.193c.205-.034.412-.065.62-.087l.144-.014.05-.006a7.878 7.878 0 0 1 .35-.023 11.375 11.375 0 0 1 1.615.031l.19.022c.205.024.407.053.61.089.209.036.418.08.625.125.097.022.193.046.29.07a15.439 15.439 0 0 1 .188.05c.014.005.025.008.005.001l.015.004.054.015a11.59 11.59 0 0 1 1.97.786c-.01-.005-.04-.02.002.003l.094.05.149.082.332.19c.188.112.453.128.638 0 .16-.108.179-.32 0-.426a12.144 12.144 0 0 0-5.17-1.668 12.003 12.003 0 0 0-7.846 2.095c-.16.11-.174.318 0 .426.185.111.462.123.643-.002z"/><path fill-rule="evenodd" d="M15.112 32.985c-.368.2-.722.42-1.064.659-.18.125-.458.113-.64 0-.174-.109-.16-.319 0-.43a11.967 11.967 0 0 1 7.847-2.098c1.825.162 3.594.727 5.17 1.67.177.105.158.32 0 .428-.186.128-.451.111-.639 0a9.862 9.862 0 0 0-1.23-.631 11.59 11.59 0 0 0-1.391-.497l-.02-.006a13.432 13.432 0 0 0-.169-.045 13.585 13.585 0 0 0-.915-.195 10.259 10.259 0 0 0-.61-.089l-.094-.01-.095-.012a4.068 4.068 0 0 0-.366-.029 11.373 11.373 0 0 0-1.582.02h-.007l-.01.001-.028.003-.023.003-.144.014c-.207.022-.414.053-.619.087a10.263 10.263 0 0 0-.917.193l-.02.005-.01.003-.041.01-.071.018-.056.016c-.041.011-.082.023-.038.01-.393.116-.78.249-1.16.403a12.795 12.795 0 0 0-.762.345l-.094.046-.019.01-.055.028-.077.043-.05.027zm4.16-1.263z" clip-rule="evenodd"/><path d="M35.356 36.96h-.013.013zm1.731.002z"/><path fill-rule="evenodd" d="M44.374 15.72c.08-.009.159-.01.2-.012h.009c.05-.001.179 0 .288.024.42-.074.841-.121 1.268-.142.091-.005.295.02.395.106.19-.005.388.051.388.17v26.04c0 .041-.024.075-.064.1a.168.168 0 0 1 .01.061c0 .196-.307.249-.452.249H30.198c-.625.595-1.479.896-2.341.887a3.581 3.581 0 0 1-1.426-.299 3.14 3.14 0 0 1-.578-.335l-.01-.008c-.091-.067-.206-.152-.256-.255H9.777a1.17 1.17 0 0 1-.105-.005c-.208.116-.594.047-.594-.205V18.334c0-.06.022-.11.057-.149a.065.065 0 0 1-.004-.027c.01-.145.361-.145.453-.145h1.468v-.453c0-.07.04-.121.096-.158a.068.068 0 0 1 .018-.06 9.203 9.203 0 0 1 2.555-1.9c1.866-.943 3.96-1.318 6.031-1.435a16.667 16.667 0 0 1 3.565.168c.284.047.566.1.848.163l.045.01c.3.066.603.132.886.253a.392.392 0 0 1 .012.004l.006.003.005.002.003.001c.013.006.015.007.048.015l.037.011.005.001.087.02c.057.013.115.025.17.044.093.031.185.071.276.11l.13.056.086.035c.1.04.202.08.297.132a1.525 1.525 0 0 1 .138.082c.028.018.058.037.086.053l.014.007.017.01a.732.732 0 0 1 .238.098l.076.05c.051.034.102.068.155.1l.117.07c.142.083.284.167.415.266l.158.122c.11-.066.297-.08.385-.081.025 0 .059 0 .097.004a9.271 9.271 0 0 1 2.15-1.337c1.908-.854 4.016-1.13 6.092-1.149a16.7 16.7 0 0 1 3.553.335c.282.06.56.126.839.202l.045.012c.296.08.596.161.873.295l.025.011a.275.275 0 0 0 .047.018l.038.012.004.001.086.024c.057.015.114.03.168.052.092.036.181.08.27.123l.128.062.027.013c.02.008.038.017.057.026.099.044.198.09.29.146.038.021.073.046.11.072l.024.016a1.587 1.587 0 0 0 .096.064h.001v.001l.017.01a.72.72 0 0 1 .233.11l.074.053c.05.037.099.073.15.107l.114.075c.138.09.276.18.402.286.104.087.206.175.307.265zm-13.633-.815a8.784 8.784 0 0 0-2.219 1.543l-.003.003c-.002 1.592-.004 3.184-.004 4.776-.003 3.07-.003 6.14-.003 9.21 0 2.74.002 5.48.005 8.221.184-.134.379-.254.577-.366a13.8 13.8 0 0 1 1.83-.844c2.3-.88 4.833-1.164 7.272-.832a14.711 14.711 0 0 1 5.919 2.17V16.365a8.3 8.3 0 0 0-.725-.69 5.22 5.22 0 0 0-.497-.367c-.095-.065-.19-.13-.284-.199a1.223 1.223 0 0 1-.29-.147 2.52 2.52 0 0 0-.351-.2c-.044-.02-.086-.041-.13-.063a4.047 4.047 0 0 0-.259-.12c.023.01-.035-.01-.063-.02l-.009-.003a1.899 1.899 0 0 1-.425-.153.684.684 0 0 0-.105-.049c-.045-.016-.102-.032-.156-.048l-.022-.006-.05-.014a14.193 14.193 0 0 0-.396-.11 15.558 15.558 0 0 0-.928-.208l-.018-.004-.207-.038a14.639 14.639 0 0 0-.079-.013l-.033-.005a.182.182 0 0 0-.015-.003l-.005-.001a21.228 21.228 0 0 0-4.406-.061 13.53 13.53 0 0 0-1.391.212l-.103.023-.044.01-.018.004-.014.003-.027.005a7.242 7.242 0 0 0-.424.106 12.52 12.52 0 0 0-.653.194 9.635 9.635 0 0 0-1.247.506zm-18.708 2.588a8.79 8.79 0 0 1 2.144-1.646 9.662 9.662 0 0 1 1.223-.564 11.912 11.912 0 0 1 1.062-.35l.05-.014a13.955 13.955 0 0 1 1.532-.32 21.46 21.46 0 0 1 1.586-.18 15.912 15.912 0 0 1 1.596-.045 15.5 15.5 0 0 1 1.242.083c.039.005.077.01.113.013.07.008.139.018.209.029l.018.002a15.544 15.544 0 0 1 1.409.273c.056.013.113.026.16.04a.765.765 0 0 1 .106.044c.029.013.058.027.084.036.107.042.211.07.324.092l.032.007h.002c.027.009.086.026.063.017.09.032.178.07.265.11l.132.056c.127.052.242.111.36.182.1.062.195.105.297.135.096.064.194.124.293.185.175.108.35.215.513.343.257.203.509.41.74.64-.002 2.859-.004 5.716-.004 8.574 0 3.072 0 6.141.003 9.213 0 1.455.001 2.911.003 4.366-1.916-.803-3.873-1.523-5.921-1.892-2.454-.44-5.02-.294-7.392.49-.822.273-1.624.626-2.32 1.133V17.551a.326.326 0 0 0 .076-.058zM43.976 39.45h-.001a13.471 13.471 0 0 0-3.212-1.698 13.844 13.844 0 0 0-1.609-.48c-.067-.017-.135-.031-.202-.046-.135-.029.077.015-.055-.012a1.244 1.244 0 0 1-.041-.008l-.014-.003a11.79 11.79 0 0 0-1.639-.232l-.03-.003-.126-.01.009.002-.016-.001-.013-.001c-.067-.005-.133-.01-.201-.011a12.78 12.78 0 0 0-1.286.002c-.068.002-.134.007-.201.011l-.013.001h.017a1.36 1.36 0 0 0-.046.003l-.068.004-.036.003h-.002a14.6 14.6 0 0 0-1.727.248h.002l-.033.007-.063.015h-.001l-.061.014-.188.044a13.94 13.94 0 0 0-1.965.632c-.522.212-1.035.455-1.521.74-.326.19-.65.425-.904.724-.002.052-.04.104-.111.14a2.223 2.223 0 0 0-.078.115c.239.072.462.191.642.366.101.097.172.222.243.348l.06.104a8.732 8.732 0 0 1 2.324-1.166c2.006-.668 4.144-.709 6.23-.494 1.717.176 3.492.483 5.012 1.335.316-.22.624-.45.924-.693zm-31.35.86a7.832 7.832 0 0 1-.56-.985c.67-.708 1.55-1.154 2.456-1.486 1.01-.372 2.126-.6 3.234-.702l.226-.02.106-.006a13.623 13.623 0 0 1 1.363-.014h.007c.065.002.133.004.198.009l.078.005.052.004.448.039a14.846 14.846 0 0 1 1.654.26c.277.06.551.126.826.196.563.147 1.12.318 1.67.504 1.067.361 2.15.808 3.207 1.263v.203a2.069 2.069 0 0 0-1.238.617c-1.682-.835-3.584-1.178-5.44-1.353-1.972-.186-3.995-.132-5.91.415a9.206 9.206 0 0 0-2.377 1.051zm32.234-.671c-.441.364-.902.708-1.377 1.028-.153.101-.384.101-.56.037a.565.565 0 0 1-.176-.076 6.847 6.847 0 0 0-1.286-.668 7.92 7.92 0 0 0-.653-.229 12.21 12.21 0 0 0-1.36-.325l-.052-.01.016.003a1.267 1.267 0 0 0-.022-.004l-.02-.004-.04-.007a2.972 2.972 0 0 0-.032-.005l-.051-.008a3.973 3.973 0 0 1-.083-.013c-.104-.017-.207-.034-.31-.049-.468-.067-.94-.123-1.41-.164l-.373-.03h-.026a3.368 3.368 0 0 0-.164-.013c-.094-.007-.043-.002-.021-.002a.761.761 0 0 0-.027-.002h-.02l-.047-.003a15.733 15.733 0 0 0-1.625-.005h-.019l-.016.001h-.013l-.002.001h-.009l-.014.002h-.02l-.093.008c-.125.007-.25.02-.375.031a11.967 11.967 0 0 0-.771.103l-.05.008-.02.004-.076.014-.025.005-.013.003-.011.002-.032.006-.15.033-.15.032a8.737 8.737 0 0 0-1.188.352 7.93 7.93 0 0 0-2.23 1.268c-.119.097-.317.11-.482.092a.72.72 0 0 1-.398-.092c-.188-.118-.292-.296-.399-.476a3.621 3.621 0 0 0-.12-.194.913.913 0 0 0-.266-.268.621.621 0 0 0-.133-.068l-.01-.004a.55.55 0 0 0-.06-.022l-.029-.007-.034-.008c.037.01.02.007-.004.002a.78.78 0 0 0-.041-.008l-.008-.001h-.01l-.008.002-.007.001-.008.001h-.003l-.007.002-.008.002c-.087.022-.19.058-.301.128a1.716 1.716 0 0 0-.525.524c.026.05-.032.097-.099.129a.534.534 0 0 1-.148.057l-.013.003a1.117 1.117 0 0 1-.347.017c-.073-.006-.314-.048-.33-.153-.917-.523-1.918-.863-2.923-1.088a14.595 14.595 0 0 0-.717-.145 10.373 10.373 0 0 0-.51-.084l-.086-.012-.013-.002-.037-.006c-.007 0-.014-.002-.02-.003l-.016-.001c-.46-.063-.922-.116-1.387-.152l-.061-.004a22.321 22.321 0 0 1-.293-.02 3.59 3.59 0 0 1-.088-.005h-.001l-.089-.005c-.014 0-.096-.005-.038-.003l-.039-.002c-.229-.01-.46-.014-.69-.017-.225 0-.449.003-.673.01l-.099.003-.09.004c-.02 0-.05.003-.07.004h-.015a14.586 14.586 0 0 0-1.016.097l-.087.012-.087.012a.256.256 0 0 1-.018.002l-.015.002-.022.004-.048.007c-.101.017-.205.036-.306.055a9.58 9.58 0 0 0-1.238.316 8.297 8.297 0 0 0-2.322 1.18c.017.128-.266.206-.34.219-.186.03-.436.002-.557-.155a7.807 7.807 0 0 1-.821-1.323c-.1-.038-.18-.101-.18-.2v-21.02H9.798l.001.03v23.593h16.118c.068 0 .256.01.367.072.136.039.224.106.18.191-.04.077.163.206.244.257l.023.016c.13.089.265.164.412.224.171.07.25.091.433.132l.038.008-.03-.005c.019.005.038.007.057.01l.138.014.019.002h.149a28.836 28.836 0 0 1 .157-.017l.045-.005.02-.004a1.823 1.823 0 0 0 .192-.044l.033-.01c-.032.009.005-.003.037-.014l.037-.012a2.484 2.484 0 0 0 .985-.646.35.35 0 0 1 .103-.075c.047-.156.314-.2.446-.2H46.2V16.03a2.315 2.315 0 0 1-.06.005l-.08.004h-.003l-.04.002-.06.005a7.472 7.472 0 0 0-.395.042 7.495 7.495 0 0 0-.325.048l-.137.024a1.598 1.598 0 0 0-.049.008v23.348c0 .069-.088.105-.19.124z" clip-rule="evenodd"/></g></svg>