<svg xmlns="http://www.w3.org/2000/svg" width="1024" height="1024" fill="none" viewBox="0 0 56 56"><path fill="#e75c14" d="M27.189 35.609c-.056-.148-.088-.234-.11-.227-.043.016.08.38.281.97.33.967.868 2.547 1.218 4.211.272 1.298.286 1.967.332 4.224.017.802.038 1.805.076 3.108.093 3.094.177 4.325.228 5.067.047.68.065.95.036 1.866-.014.414-.032.794-.053 1.147-.397.017-.796.025-1.197.025C12.536 56 0 43.464 0 28S12.536 0 28 0c3.405 0 6.667.608 9.686 1.72-.05 1.003-.284 2.672-1.44 4.276-.583.807-1.448 2.001-2.908 2.318-.7.15-1.322.052-1.794-.023-.436-.07-.744-.118-.868.07-.15.227.116.573.49 1.058.252.33.555.723.81 1.186.648 1.188.683 2.276.633 4.258-.056 2.35-.17 3.637-.265 4.715-.086.97-.157 1.774-.158 3.033v.036c.002 1.59.004 3.57.53 6.095l.061.296c.633 3.022.952 4.552 1.157 5.156l.128.37c.375 1.073.705 2.018.208 2.824-.446.73-1.332.972-1.805 1.1-1.239.338-2.65.107-3.66-.603-1.033-.724-1.44-1.81-1.616-2.276z"/><g fill="#570000"><path fill-rule="evenodd" d="M31.743 8.166c1.866.239 3.427-1.53 4.119-2.976.467-.987.697-2.044.852-3.11.032-.222.06-.446.08-.671.538.178 1.069.371 1.592.58a14.326 14.326 0 0 1-.341 1.698c-.52 1.97-1.653 3.801-3.646 4.694a5.79 5.79 0 0 1-2.646.489c1.286 2.056 1.749 4.518 1.821 6.904.024.732.01 1.46-.035 2.188-.013.226-.03.452-.045.678a24.317 24.317 0 0 0-.08 1.808 9.65 9.65 0 0 1-.049.882c-.016.191-.033.383-.042.574a43.54 43.54 0 0 0-.043 1.45c-.01.929.022 1.856.08 2.783.129 1.9.404 3.79.79 5.655.157.746.366 1.467.577 2.2l.025.083.064.224.033.113c.232.801.466 1.612.244 2.44-.485 1.81-2.814 2.167-4.472 2.04a5.788 5.788 0 0 1-1.092-.19c.36 3.39.613 6.79.756 10.193.098 2.332.149 4.666.148 7a28.21 28.21 0 0 1-1.646.094c0-.3 0-.598-.002-.897-.015-3.31-.133-6.613-.348-9.914-1.228.383-2.591.405-3.841.186-1.608-.283-3.07-.97-4.455-1.778-.288-.17-.314-.45-.011-.627.308-.18.85-.205 1.165-.02 1.119.658 2.358 1.293 3.607 1.542a6.342 6.342 0 0 0 1.851.11l.03-.004.015-.002.02-.002a3.52 3.52 0 0 1 .057-.008l.009-.001.008-.001.015-.002.018-.002.028-.004.013-.002.014-.001.014-.002.012-.002.028-.004c.084-.012.168-.028.252-.045.026-.005.184-.038.094-.016.316-.076.577-.176.834-.306a1.06 1.06 0 0 1 .15-.065 159.655 159.655 0 0 0-.558-6.115.255.255 0 0 1 .02-.135 3.822 3.822 0 0 1-.646-.64 3.51 3.51 0 0 1-.32-.466 2.373 2.373 0 0 1-.125-.259 1.308 1.308 0 0 1-.055-.16 1.336 1.336 0 0 1-.05-.189l-.008-.01-.005-.005a.57.57 0 0 1-.085-.119.606.606 0 0 1-.042-.205 1.153 1.153 0 0 0-.017-.141l-.005-.04-.004-.027a2.354 2.354 0 0 1-.039-.538c.031-.332.536-.431.815-.43.216 0 .86.064.83.401-.018.188.01.366.04.548l.001.008c.002.014.007.032.012.052.01.04.022.086.012.113-.005.016-.013.03-.024.03l.013.014.006.006a.917.917 0 0 1 .022.025c.05.058.063.11.082.177l.004.015.002.007c.101.35.286.657.512.944.442.55 1.107.879 1.758 1.028.037.01.08.014.122.018l.036.005c.082.012.16.023.244.03l.013.001c.03.004.06.007.09.007a5.294 5.294 0 0 0 .614-.01l.033-.003-.049.003h.006l.007-.002a.766.766 0 0 0 .02-.003l.04-.006h.001a3.395 3.395 0 0 0 .294-.05c.024-.006.049-.01.074-.015l.039-.006.005-.001h.002l.048-.012c.31-.085.515-.144.764-.364a1.78 1.78 0 0 0 .553-.903c.185-.698-.039-1.444-.245-2.13a32.204 32.204 0 0 1-.076-.257l-.057-.2a11.313 11.313 0 0 1-.112-.4 3.4 3.4 0 0 1-.038-.166c-.025-.118-.05-.238-.102-.342-.14-.283-.2-.606-.26-.922a11.68 11.68 0 0 0-.057-.282 42.278 42.278 0 0 1-.794-5.323 36.937 36.937 0 0 1-.05-5.292c.035-.579.06-1.158.087-1.737l.04-.869c.01-.192.023-.384.035-.576.03-.481.06-.962.062-1.442.027-2.654-.333-5.447-1.818-7.749a8.116 8.116 0 0 0-1.239-1.493 4.025 4.025 0 0 0-.833-.633 8.128 8.128 0 0 0-1.02-.473c-.76-.283-1.416-.412-2.193-.499a8.932 8.932 0 0 0-1.076-.061c-.39-.003-.78.004-1.165.025l-.3.02-.063.004-.048.003a23.85 23.85 0 0 0-.647.067c-.305.036-.854.04-1.017-.273-.127-.289.37-.478.602-.507 1.816-.213 3.645-.24 5.439.13.862.18 1.711.467 2.488.865.729.378 1.318.875 1.85 1.477.145.165.283.335.413.507.185-.021.37-.017.471-.006zm-3.666 27.585a.064.064 0 0 0 0 .001zm4.023 2.227a.763.763 0 0 0 .028-.005z" clip-rule="evenodd"/><path d="M23.635 21.31c-.13-.514-.465-.974-.877-1.318a2.777 2.777 0 0 0-.657-.399l-.048-.016a.74.74 0 0 0-.089-.028c-.056-.02-.115-.035-.172-.05l-.006-.002c.039.01-.014 0-.064-.01h-.001a1.053 1.053 0 0 0-.064-.013c-.006-.002-.05-.006-.087-.01h-.001l-.044-.005-.06.001h-.124a.579.579 0 0 1-.033-.002l-.041.008a3.486 3.486 0 0 0-.226.04.752.752 0 0 1-.045.006.76.76 0 0 1-.05.02c-.283.1-.44.158-.716.349a2.639 2.639 0 0 0-.964 1.27c-.2.55-1.827.444-1.59-.212.553-1.535 2.308-2.464 3.965-2.382 1.705.08 3.236 1.127 3.644 2.73.034.125-.148.273-.237.325a1.23 1.23 0 0 1-.577.146c-.348-.004-.745-.093-.836-.447zm-.229 5.706a1.75 1.75 0 1 1-3.5 0 1.75 1.75 0 0 1 3.5 0zm14.984 1.75a1.75 1.75 0 1 0 0-3.5 1.75 1.75 0 0 0 0 3.5zm2.952-7.456c-.13-.514-.465-.974-.877-1.318a2.78 2.78 0 0 0-.657-.399l-.048-.016a.747.747 0 0 0-.089-.028c-.056-.02-.115-.035-.172-.05l-.006-.002c.039.01-.014 0-.064-.01h-.001a1.038 1.038 0 0 0-.064-.013c-.006-.002-.05-.006-.087-.01h-.001l-.044-.005-.06.001h-.124a.587.587 0 0 1-.033-.002l-.041.008a4.233 4.233 0 0 0-.27.046.77.77 0 0 1-.05.02c-.283.1-.44.158-.717.349a2.638 2.638 0 0 0-.963 1.27c-.202.55-1.828.444-1.591-.212.553-1.535 2.308-2.464 3.965-2.382 1.705.08 3.236 1.127 3.644 2.73.034.125-.148.273-.237.325a1.23 1.23 0 0 1-.577.146c-.348-.004-.745-.093-.836-.447z"/></g></svg>