<svg fill="none" height="1024" viewBox="0 0 56 56" width="1024" xmlns="http://www.w3.org/2000/svg"><path d="m22.9294 10.5988 2.163 1.9751 1.131-1.5038-.1885-1.40942-1.2252-.94278z" fill="#39b54a"/><path d="m40.8883 21.7 1.786-2.6351 2.9169 1.5038-2.1629 2.3522z" fill="#ff8649"/><path d="m38.0703 15.3033-.4712 1.9751 3.3835-1.0371-.377-1.8808z" fill="#fcee21"/><path clip-rule="evenodd" d="m24.8515 20.3442.1467-4.1029 3.949-.0942 5.0799 2.9179 2.441 2.9132 1.6022 3.6721.655 3.3846-2.0687 2.7247-.3664.099.0837-.0048-20.0229 8.6548-4.7029 1.598c.0942-.2828 13.1616-25.2996 13.1616-25.2996v3.3846zm1.1232 4.1028.7152 2.6128 3.4778 3.856 2.9169 1.1266.2329-.0134-3.4278-1.4903-2.7285-3.1018z" fill="#fcee21" fill-rule="evenodd"/><path d="m35.2476 35.1488 1.786-1.6923 1.9745 1.3152-1.8803 2.3523z" fill="#fcee21"/><path d="m15.974 33.4566s.4712 2.4465.5655 2.7294c.0942.2828 1.9745 2.2579 1.9745 2.2579l1.409.3771 4.5144-1.598-1.409-.8485-2.6342-2.0741-1.6022-3.1018-.377-2.9179z" fill="#8f2af4"/><path d="m21.2378 23.5809s3.6662-6.9578 3.6662-6.6797c0 .2782.0943 4.9827.0943 4.9827l1.6917 5.1711 3.6662 3.856 3.7605 1.5038-2.6342 1.6923-1.8803.4714-2.9169-.7543-2.7285-2.3522-2.0687-3.0075z" fill="#8f2af4"/><g fill="#09165f"><path d="m12.1099 42.5026c1.5739-3.3846 3.195-6.7409 4.8632-10.0784 1.6681-3.3374 3.3834-6.6513 5.1412-9.9417.9895-1.8525 1.998-3.6957 3.0206-5.5341.2073-.3724-.8106-.4997-.999-.1556-1.8096 3.2574-3.5767 6.543-5.2967 9.8521-1.7201 3.3092-3.3929 6.6467-5.0234 10.003-.9189 1.8903-1.819 3.79-2.7049 5.6944-.1838.396.8341.5091.999.1603z"/><path d="m24.4469 16.7517c-.4447 3.3364-.0239 6.8533 1.626 9.8332 1.4204 2.5665 3.8259 4.8287 6.7049 5.6509 1.5734.4515 3.2855.3375 4.5624-.7556 1.0521-.903 1.6547-2.2766 1.7025-3.6501.0622-1.6872-.5787-3.3221-1.4012-4.7716-.7748-1.364-1.7169-2.6568-2.8408-3.7594-2.3481-2.305-5.6049-3.707-8.9382-3.2413-.4256.057-.8417.1473-1.253.2662-.196.057-.1674.1948 0 .2614.2296.0903.5165.0665.7461 0 2.8694-.8127 5.8966.5085 8.0104 2.4143 1.0952.9838 2.0182 2.1482 2.8025 3.3886.8369 1.3213 1.5543 2.7661 1.7695 4.325.1865 1.3782-.0718 2.7708-.9039 3.9066-.3682.4991-.8321.9268-1.3917 1.212-.5882.2994-1.2051.3469-1.8459.2043-1.3678-.2946-2.6686-1.0836-3.7351-1.9581-1.0712-.8745-1.9751-1.9486-2.6924-3.1272-1.6404-2.69-2.2095-5.9076-1.9847-9.0158.0287-.3992.0717-.7984.1243-1.1929.0191-.2234-1.0234-.2852-1.0617.0095z"/><path d="m18.1902 27.9196c-.2826 3.2826 1.2156 6.5196 3.8162 8.2622.7067.4711 1.4653.8307 2.2662 1.0739.1979.0608.5465.0709.7114-.0861.1696-.1621-.0424-.2787-.1837-.3242-2.7043-.8258-4.8056-3.2978-5.4087-6.241-.1837-.8814-.2308-1.7881-.1554-2.6898.0141-.304-1.0177-.3445-1.046.005z"/><path d="m11.8259 42.775c3.2421-1.3718 6.489-2.7388 9.7311-4.1106 3.2138-1.3623 6.4276-2.7293 9.632-4.1247 1.8049-.7872 3.3296-1.5709 5.125-2.3817.1885-.0849.3487-.2876.1838-.4808-.1555-.1839-.4995-.2216-.7116-.1273-3.1949 1.4424-6.1334 2.8296-9.3566 4.2107-3.2139 1.3765-6.4324 2.7341-9.6557 4.0917-1.8237.7731-3.6521 1.5415-5.4758 2.3146-.1932.0801-.344.2922-.1837.4808.1602.1885.4948.2168.7115.1273z"/><path d="m15.4745 33.5462c.0613 2.4088 1.3195 5.2513 4.0715 5.3408.1696.0047.5136-.0612.5184-.2828.0047-.2263-.3676-.2781-.5184-.2828-.9519-.0283-1.7341-.8014-2.1865-1.5745-.5608-.9663-.82-2.093-.8483-3.2007-.0094-.3913-1.0461-.3866-1.0367 0z"/><path d="m20.7666 23.1934c-.325 2.1709.2073 4.397 1.2718 6.3103 1.0221 1.8397 2.553 3.4955 4.5125 4.4061 1.1163.5198 2.3551.7405 3.5892.621.1272-.0138.4428-.0828.3627-.2668-.0801-.1794-.4899-.1656-.6359-.1518-1.8888.1794-3.6787-.9428-4.9505-2.2077-1.4461-1.4395-2.5059-3.3299-2.9581-5.2938-.259-1.1222-.3203-2.2812-.1507-3.4173.0377-.2713-.9892-.3265-1.041 0z"/><path d="m37.4153 15.2703c-.0471.7589-.099 1.5178-.1461 2.2768-.0283.4431 1.0085.4572 1.0367 0 .0472-.759.099-1.5179.1461-2.2768.0283-.4384-1.0084-.4526-1.0367 0z"/><path d="m38.2541 15.3598c.7964-.2357 1.5928-.4667 2.3892-.7023-.2592-.066-.5184-.132-.7823-.198.0377.2969.0707.5939.1084.8956.0141.132.033.2687.0471.4007.0142.1037.0848.3441.0047.4243.0425-.033.0896-.066.132-.099-.1932.0942-.443.1319-.6456.2074-.2403.0848-.4807.1885-.7069.3017-.4524.2262-.8765.4996-1.2676.8202-.1791.1461.0471.2734.1838.3111.2026.0519.5325.0613.7116-.0801.6079-.495 1.3006-.8863 2.0546-1.1078.1743-.0519.4146-.0801.5372-.231.1131-.1461.0565-.33.0377-.4997-.0519-.4478-.1084-.8956-.1603-1.3434-.0329-.2782-.6031-.2499-.7822-.198-.7964.2357-1.5928.4667-2.3892.7024-.1461.0424-.3534.1555-.1838.3111.1603.1508.5231.1414.7116.0848z"/><path d="m22.5977 10.3714c.7021.8344 1.4702 1.6075 2.2949 2.3193.1838.1603.4854.1744.7115.1037.1556-.0519.3723-.231.1838-.3913-.8293-.7118-1.5927-1.4848-2.2949-2.3192-.2309-.26871-1.2252-.099-.8953.2875z"/><path d="m23.4478 10.4715c.5844-.54213 1.1734-1.07952 1.7578-1.62162.1837-.1697-.0142-.41482-.1838-.48553-.2404-.099-.5184-.04714-.7116.12727-.5843.5421-1.1734 1.07949-1.7577 1.62158-.1838.1697.0141.4148.1838.4855.245.0943.5231.0472.7115-.1272z"/><path d="m24.2914 8.5906c.4429.49967.8812.99935 1.3241 1.499.132.1462.4618.1273.6362.1132.0565-.0048.4807-.066.3628-.198-.4429-.4997-.8812-.99938-1.3241-1.49905-.132-.14614-.4618-.12728-.6362-.11314-.0613.00472-.4807.066-.3628.19799z"/><path d="m25.7946 10.2122c-.4383.6977-.7069 1.4613-.8341 2.2721-.0377.2404.3487.3488.5184.3488.2309 0 .4806-.0989.5183-.3488.1178-.7448.4006-1.4519.7964-2.0883.1367-.2121-.2026-.3959-.3628-.42421-.2451-.04714-.4996.02357-.6362.24041z"/><path d="m36.2462 33.057c-.5043.627-1.0085 1.2492-1.5127 1.8762-.3158.3912.6738.5562.8953.2828.5043-.6269 1.0085-1.2492 1.5127-1.8761.3157-.3913-.6739-.5563-.8953-.2829z"/><path d="m34.8094 35.4836c.8152.5326 1.5315 1.1831 2.13 1.9468.1602.2027.4806.2451.7115.1414.2074-.0943.344-.3394.1838-.5421-.6456-.8202-1.4184-1.5367-2.2949-2.1071-.2168-.1414-.5184-.165-.7352 0-.1743.1414-.2026.4242.0048.561z"/><path d="m36.4917 33.433c.5843.4997 1.2063.9428 1.8661 1.334.2214.132.5136.165.7351 0 .1743-.1319.2168-.4242 0-.5515-.6597-.3912-1.2818-.8343-1.8661-1.334-.3864-.3253-1.2252.132-.7351.5515z"/><path d="m38.2117 34.3758c-.4571.8438-.8247 1.7253-1.1027 2.6445-.1602.5374.8529.6882.999.2074.2781-.9192.6456-1.8007 1.1027-2.6445.1225-.231-.1743-.4431-.3628-.4855-.2592-.0519-.509.0471-.6362.2781z"/><path d="m40.9542 21.7869c.523-.8815 1.1404-1.7017 1.8284-2.4607.1649-.1838 0-.3912-.1838-.4666-.2215-.0849-.5419-.0613-.7116.1225-.7351.8061-1.3807 1.6829-1.9368 2.621-.1272.2168.2027.3912.3629.4195.2403.0471.5136-.0189.6409-.2357z"/><path d="m42.0947 19.3195c.8105.5987 1.7106 1.0653 2.6625 1.3859.2261.0754.5089.1037.7351 0 .1649-.0754.2073-.231 0-.3017-.9001-.3017-1.7389-.7354-2.5023-1.301-.1838-.1368-.4995-.1273-.7115-.0755-.1273.033-.3723.1556-.1838.2923z"/><path d="m40.2898 22.1761c.9425.2027 1.8614.4761 2.7615.8203.2214.0848.5466.0659.7115-.1273.1603-.1886.0095-.4054-.1838-.4808-.9801-.3724-1.9839-.6694-3.0064-.891-.2121-.0471-.5467.0189-.6362.2451-.099.2405.1649.3913.3534.4337z"/><path d="m44.8952 20.5738c-.7053.6784-1.3386 1.4136-1.9 2.1969-.1247.1707.8637.302 1.0172.0832.5614-.7834 1.1947-1.5186 1.9-2.1969.1344-.1269-.3119-.1926-.3694-.197-.1872-.0131-.5038-.0218-.6478.1138z"/></g><path d="m33.8245 27.0409 2.5352-.6599 2.8512-.1857 2.1345.5628 3.195 1.6923 2.4457 2.2579-1.6917 1.5981-1.8803 1.2256-1.5975-2.6351-2.8227-2.4465-2.5173-.9973z" fill="#2e51ff"/><path d="m46.0654 30.5343c-.8886.9976-1.9134 1.8582-3.0511 2.5485-.1834.1087-.1881.2979 0 .4066.2021.1135.5312.123.7334 0 1.1988-.7234 2.2847-1.617 3.2156-2.6667.3338-.3735-.6582-.5579-.8979-.2884z" fill="#09165f"/><path d="m34.0789 27.2575c2.9327-.0185 5.7707 1.5938 7.5438 3.9407.5189.6837.9475 1.4368 1.2724 2.2406.0947.231 1.0602.1571.9565-.0924-1.2318-3.0306-3.9389-5.2574-7.0159-6.0889-.8979-.2403-1.8318-.3558-2.7613-.3511-.0992 0-.4963.0092-.4963.1755.0045.1617.4151.1756.5008.1756z" fill="#09165f"/><path d="m34.3947 27.0362c1.7153-.6175 3.5767-.7731 5.3674-.4148 1.6399.3252 3.1761 1.0606 4.4908 2.093.7446.5892 1.409 1.2727 1.9792 2.0317.1273.165.4524.1602.6362.1414.0801-.0094.4854-.0849.3628-.2451-1.1026-1.4613-2.5446-2.6351-4.1892-3.4365-1.8379-.8956-3.8972-1.2633-5.9329-1.1502-1.1781.066-2.3373.3017-3.4495.7024-.1885.0707-.1696.2074 0 .2828.2168.0849.5137.0707.7352-.0047z" fill="#09165f"/><path d="m32.2035 8.36438-1.5975 10.06422-2.2572 4.7941 2.5399-1.598 3.1008-4.516 1.8802-7.24058z" fill="#df579a"/><path d="m32.194 8.78858c1.032.21685 2.3656.35826 2.9735 1.34352.1791.2875 1.1828.1697.999-.132-.7162-1.15966-2.2289-1.38122-3.4494-1.64048-.2168-.04714-.5325-.07543-.7116.08956-.1649.15085.0283.30641.1885.3394z" fill="#09165f"/><path d="m35.1446 9.75758c-.1691 4.05352-1.7251 7.99652-4.3248 11.11832-.7297.8741-1.5415 1.6809-2.4258 2.4013-.1788.1489.0483.2786.1884.3122.2078.0528.5509.0624.7297-.0816 3.2038-2.6271 5.4653-6.2964 6.4172-10.3067.2658-1.1334.4253-2.2861.4736-3.44832.0193-.30737-1.0438-.32658-1.0583.0048z" fill="#09165f"/><path d="m28.3487 22.6428c-.0942.132-.1932.264-.2874.396.3157.0943.6314.1886.9472.2828 1.8944-3.4694 3.1149-7.2877 3.6191-11.2144.1413-1.1172.2215-2.24382.245-3.37045.0094-.49496-1.0273-.49967-1.0367 0-.0754 3.91725-.8954 7.80155-2.3986 11.41715-.4241 1.0135-.9001 2.0034-1.4278 2.9698-.1084.2027.1413.3912.3015.4383.2027.0613.509.0378.6456-.1508.0943-.132.1932-.264.2875-.396.3393-.4761-.6267-.7495-.8954-.3724z" fill="#09165f"/></svg>