<svg fill="none" height="1024" viewBox="0 0 56 56" width="1024" xmlns="http://www.w3.org/2000/svg"><path d="m28.3918 45.6503c-1.7212.4495-3.3014-2.7437-8.3306-9.0306-2.7729-3.4672-4.0148-4.6538-5.5476-7.5914-1.1877-2.2848-1.7186-4.0232-1.8465-5.876-.0792-1.1573-.1767-2.9481.7748-4.8834.4051-.8343 1.3024-2.6653 3.3291-3.4378 1.6982-.6488 3.2511-.1909 4.2669.1054.5773.1718 2.6215.7983 4.187 2.6895 1.5656 1.8913 1.4843 3.6359 2.2348 3.6599.7619.0237.8363-1.7607 2.7084-3.7226.5278-.5522 1.5507-1.5985 3.2119-2.1434 1.5763-.5139 2.9157-.3126 3.7264-.1818 1.0639.175 2.9729.4797 4.3217 2.0002.9053 1.025 1.1315 2.1209 1.3932 3.4557.5847 3.0049.0172 5.5518-.3368 6.773-.7699 2.6727-2.0536 4.4006-3.5467 6.4087-.8374 1.1266-.4284.4237-4.351 4.9124-1.5569 1.7815-3.2546 3.4413-4.7175 5.3058-.9552 1.21-1.0628 1.4473-1.4775 1.5564z" fill="#df579a"/><g fill="#730173"><path d="m28.8814 45.3619c-2.656-2.391-5.0787-5.0287-7.4508-7.6964-2.2596-2.5395-4.521-5.1419-6.074-8.1817-1.498-2.9214-2.3704-6.3807-1.5887-9.6364.3574-1.4955 1.1121-2.911 2.3084-3.8995 1.1238-.9235 2.4873-1.2714 3.91-.9583 3.1566.6972 5.6827 3.349 6.6229 6.378.0823.2718.677.2546.8878.22.2335-.041.5792-.1596.485-.4482-.8837-2.8534-3.1277-5.2506-5.9123-6.347-1.6963-.6708-3.6661-.8995-5.4039-.2325-1.5056.5805-2.7326 1.6955-3.5048 3.1001-1.6964 3.0936-1.253 6.9537-.0398 10.1233 1.2816 3.356 3.5219 6.216 5.86 8.8962 2.4388 2.7971 4.934 5.5698 7.6404 8.1193.3412.3215.688.6371 1.0348.9526.2352.216.698.1912.9815.0974.2212-.0692.4844-.271.2435-.4869z"/><path d="m28.0482 21.446c1.0979-2.6136 3.1871-4.9874 5.9794-5.8048 1.2031-.3546 2.4289-.3215 3.6299.0437 1.2181.3647 2.3491 1.0804 3.1284 2.1032.9875 1.2968 1.306 3.0127 1.3749 4.6044.0728 1.7287-.2097 3.4448-.746 5.0883-1.0776 3.3156-3.1184 6.1792-5.4132 8.7646-2.4001 2.7083-5.1061 5.1284-7.2831 8.0302-.2811.3737-.5506.7528-.8144 1.1317-.4174.6061.9455.8295 1.2476.3924 1.1043-1.597 2.3374-3.095 3.6704-4.5044 1.2996-1.3741 2.6521-2.6984 3.9223-4.1003 2.4409-2.681 4.6901-5.6591 5.9128-9.1046.6031-1.7082.9627-3.5294.9446-5.3454-.0151-1.7132-.3214-3.6008-1.3073-5.0404-1.7149-2.5039-5.0178-3.511-7.9342-3.027-3.1386.519-5.734 2.8046-7.2001 5.5488-.179.3422-.3464.6897-.4965 1.0425-.2411.5668 1.176.6858 1.3845.1771z"/></g></svg>