<svg xmlns="http://www.w3.org/2000/svg" width="1024" height="1024" fill="none" viewBox="0 0 56 56"><clipPath id="a"><path d="M0 0h56v56H0z"/></clipPath><g clip-path="url(#a)"><path fill="#3995c3" d="M48.851 46.697c-5.126 5.717-12.569 9.313-20.85 9.313-1.681 0-3.327-.148-4.926-.431.877-1.752 1.183-3.959.584-5.817-.543-1.688-1.752-2.84-2.613-3.659-.65-.618-1.1-1.047-.916-1.375.125-.223.445-.226.93-.23q.186 0 .403-.006c.99-.032 1.407-.208 2.722-.76.785-.33 1.89-.794 3.63-1.443l.702-.26c1.795-.663 2.484-.917 2.826-1.706.232-.531.314-1.314-.078-1.73-.137-.146-.604-.54-2.431 0-1.169.344-1.776.74-2.457 1.184-.413.269-.854.556-1.464.86-.902.453-2.627.748-6.077 1.338-.459.078-1.545.251-2.666-.236-.192-.083-1.05-.457-1.02-.866.03-.356.72-.554 1.565-.796l.239-.069s2.047-.598 4.823-1.809c1.419-.617 3.152-1.557 3.058-1.809-.036-.096-.313-.028-.786.089-.706.174-1.852.457-3.292.462-2.748.007-4.748-1.007-5.763-1.534l-.024-.013c-1.478-.77-2.215-1.154-2.25-1.718-.04-.65.788-1.036 2.042-1.62 1.397-.65 3.324-1.548 5.172-3.335.772-.747 2.325-2.285 3.176-4.798.807-2.388.572-4.456.47-5.152-.498-3.394-2.611-6.537-4.038-8.653l-.211-.311c-.68-1-1.243-1.829-1.2-2.992.039-1.145.662-2.608 2.077-3.304 1.412-.696 3.07-.362 4 .472.377.338.505.644.66 1.016.105.25.223.531.437.872.514.814 1.49 1.817 3.529 2.517a22 22 0 0 0 3.45-.393c.765-.15 1.33-.302 1.816-.432.821-.221 1.411-.38 2.34-.355.941.024 2.51.067 3.411 1.101.326.374.745 1.082.47 4.405-.117 1.429-.301 2.6-.442 3.501-.203 1.29-.318 2.023-.028 2.162.179.085.377-.115.688-.429.393-.396.965-.973 1.9-1.38l.006-.002c.516-.223 2.09-.903 3.601-.155 1.33.657 2.29 2.261 2.039 3.579-.118.614-.45.922-.94 1.374-.456.422-1.048.969-1.726 2.008l-.008.012c-.736 1.133-1.105 1.702-1.011 2.427.082.64.468.967 1.401 1.756.396.334.89.752 1.5 1.311 2.184 2.006 2.262 2.525 2.274 2.753.034.572-.245.898-.665 1.391-.362.425-.83.975-1.295 1.913l-.007.013c-.427.87-1.07 2.177-.778 3.566.163.77.526 1.161.939 1.605.255.276.53.572.787.99.968 1.577.75 3.38.295 5.588"/><g fill="#0b3a52"><path fill-rule="evenodd" d="M23.513 55.653c.504-1.347.933-2.728 1.015-4.17a7.4 7.4 0 0 0-.306-2.633c-.252-.801-.704-1.504-1.218-2.16-.435-.55-.919-1.054-1.403-1.557l-.1-.105-.06-.062c2.319-.681 4.641-1.426 6.85-2.402.331-.146.652-.311.973-.477l.386-.198a7 7 0 0 0 1.901-1.434c.244-.252.48-.535.526-.892.04-.295-.082-.582-.267-.806-.42-.51-1.186-.593-1.799-.546-.848.063-1.63.413-2.38.802a2 2 0 0 1-.161.074l-.008.004-.003.002-.01.004-.018.008-.01.004-.073.03c-.2.078-.404.157-.609.227-.911.33-1.832.632-2.751.933l-.367.12-.346.113q-.345.111-.691.23a22 22 0 0 1-1.477.447l-.013.003-.041.011a7 7 0 0 1-.26.065l-.065.015-.065.016-.037.01q-.017.002-.05.01a17 17 0 0 1-1.312.231q-.313.041-.632.066h-.017l-.18.01a8 8 0 0 1-.79-.004l-.014-.002h-.008l-.028-.002h-.02.003l-.041-.004h-.013a9 9 0 0 1-.451-.064c-.011-.003-.19-.042-.118-.023a5 5 0 0 1-.569-.189l-.03-.035-.037-.04a2 2 0 0 1-.099-.123c.013.008.02-.036.016-.03.002-.004.002-.02.002-.036v-.033l.006-.017.023-.045.007-.012.005-.009.012-.024.001-.002v-.002l.002-.002v-.002l.002-.002.015-.014a2 2 0 0 1 .145-.13l.01-.008.006-.006.011-.006.012-.007a6 6 0 0 1 .664-.35q.29-.135.53-.224 1.286-.477 2.542-1.025c1.504-.656 2.965-1.399 4.427-2.145l1.021-.525.07-.017c.256-.063.492-.346.264-.574-.252-.255-.692-.228-1.01-.15a25 25 0 0 1-1.712.362q-.786.134-1.575.205l-.046.004h-.012l-.19.011a13 13 0 0 1-1.693-.008h-.003a3 3 0 0 1-.174-.015l-.106-.012a12 12 0 0 1-1.335-.217l-.057-.014a.4.4 0 0 0-.082-.02h-.003l-.27-.071a11 11 0 0 1-.511-.153 22 22 0 0 1-1.952-.747l-.142-.06-.141-.062-.083-.037.004.002-.064-.028-.006-.003h-.003l.007.002-.008-.002c-.232-.103-.464-.205-.688-.323-.447-.234-.834-.49-1.08-.938.72-.445 1.443-.874 2.163-1.302h.001c1.195-.71 2.386-1.419 3.559-2.192 1.595-1.049 2.922-2.694 3.88-4.34.936-1.603 1.67-3.446 1.65-5.328-.015-1.89-.726-3.74-1.516-5.43-.598-1.273-1.292-2.497-1.986-3.72v-.001c-.453-.799-.906-1.598-1.333-2.411a7 7 0 0 1-.48-1.465c-.109-.535-.187-1.144-.042-1.682.118-.444.405-.872.707-1.182a3.7 3.7 0 0 1 1.293-.884l.023-.008a2 2 0 0 1 .145-.051l.036-.012.036-.011q.073-.024.148-.044l.1-.023.05-.012a6 6 0 0 1 .33-.048l.105-.002.106-.002h.04q.048.009.1.015.047.004.096.013l.043.012.044.012q.03.008.056.017l.057.018.025.008c.274.116.445.23.659.404.588.487 1.007 1.12 1.426 1.752.244.369.488.737.766 1.077.408.499.884.923 1.453 1.226.581.31 1.23.495 1.881.59 1.356.2 2.715.003 4.042-.296q.345-.079.692-.164l.345-.083.25-.06q.125-.033.25-.062.122-.03.25-.059l.107-.023.074-.016c.334-.07.668-.134 1.006-.18a11 11 0 0 1 .581-.068l.055-.003h.011q.14-.008.28-.008h.251l.067.002.067.002.026.001.039.002.04.004.052.006.02.003.031.003.134.02.133.02h.006l.024.006.022.004.02.005.05.012q.113.03.224.067l.055.019.07.024c-.01-.002-.029-.01-.029-.01l.006.002.027.012q.123.052.24.122c.2.114.424.302.605.514.173.205.31.44.424.68.568 1.202.424 2.572.289 3.854l-.01.09-.23 2.232-.23 2.232-.058.563-.06.564c-.023.236.382.35.543.37.27.03.612.011.832-.177l.07-.06c.873-.759 1.82-1.582 2.872-1.987a6 6 0 0 1 .621-.19l.02-.004h.001c.036-.007.092-.018.1-.018q.101-.019.201-.032l.051-.006.051-.006.075-.006h.005l.03-.001h.102l.192.002c-.032 0 .052.007.108.013l.013.001.03.003.05.008.051.008c.004 0 .114.02.043.008-.066-.012.044.012.044.012l.043.011a3 3 0 0 1 .271.087l.01.003.08.036a3 3 0 0 1 .337.181l.072.047-.008-.006c-.026-.02.028.018.035.026.868.64 1.351 1.626 1.28 2.714a3.14 3.14 0 0 1-.522 1.54c-.275.413-.648.755-1.017 1.089l-.009.008c-.798.724-1.602 1.453-1.853 2.545-.251 1.096.153 2.204.939 2.978.353.35.77.629 1.186.892l.309.193q.155.094.308.192.073.048.147.092h.001v.001a12 12 0 0 1 .28.178l.007.005.015.01q.002.003 0 .001l-.015-.01-.011-.01.055.038.055.037c.829.581 1.457 1.316 1.489 2.385.034 1.127-.675 1.913-1.383 2.697l-.059.064c-.521.575-1.078 1.297-1.223 2.09a.1.1 0 0 0-.01.044v.017a2 2 0 0 0 .02.753 1.7 1.7 0 0 0 .328.727c.213.497.498.969.78 1.426l.125.203c.242.391.486.784.683 1.2a6.2 6.2 0 0 1 .523 1.689c.286 1.774-.104 3.523-.69 5.2a28 28 0 0 0 2.103-2.313 9 9 0 0 0 .119-2.451 6.5 6.5 0 0 0-.397-1.71c-.2-.514-.475-.997-.762-1.473l-.192-.311c-.304-.493-.614-.993-.836-1.523.01-.045 0-.094-.04-.146l-.036-.047a3.7 3.7 0 0 1-.246-1.18c.096-.56.426-1.114.776-1.523q.202-.233.41-.462c.663-.734 1.324-1.466 1.46-2.496.153-1.143-.385-2.196-1.245-2.92-.405-.337-.856-.616-1.3-.887a20 20 0 0 1-.707-.444c.008.008.055.04.004.004l-.153-.106a7 7 0 0 1-.295-.224c-.393-.318-.684-.637-.892-1.104a2.8 2.8 0 0 1-.188-1.619c.163-.949.881-1.593 1.569-2.208l.273-.247c.4-.37.79-.766 1.08-1.23a3.56 3.56 0 0 0 .515-1.709 3.59 3.59 0 0 0-1.438-3.001c-1.147-.857-2.604-1.002-3.975-.696-.98.222-1.858.707-2.664 1.291q.168-1.61.33-3.224.032-.3.067-.601c.147-1.286.297-2.604-.07-3.858a3.85 3.85 0 0 0-.904-1.59c-.502-.523-1.178-.822-1.877-.975-1.552-.338-3.166-.016-4.682.346q-.195.046-.389.095-.342.084-.68.164a23 23 0 0 1-.68.153q-.13.029-.266.051a12 12 0 0 1-.994.136l-.018.001h-.006l-.11.007-.052.002-.058.003a7 7 0 0 1-.502.004h-.011a4 4 0 0 0-.201-.007l-.061-.006-.061-.006a6 6 0 0 1-.456-.067l-.11-.021-.012-.003.012.003a4 4 0 0 1-.22-.057q-.1-.03-.2-.063l-.057-.02-.057-.02-.02-.008c-.573-.24-1.001-.57-1.418-1.049-.335-.385-.617-.812-.898-1.238-.418-.633-.836-1.266-1.427-1.763-.534-.448-1.175-.762-1.87-.857a5 5 0 0 0-2 .158c-1.123.318-2.207 1.04-2.792 2.074-.605 1.065-.361 2.341.012 3.445q.098.29.219.57.003.03.02.063l.058.112.013.03a.3.3 0 0 0 .038.064 91 91 0 0 0 1.228 2.21c.56.987 1.12 1.973 1.629 2.986.84 1.674 1.618 3.477 1.787 5.363.165 1.822-.393 3.54-1.213 5.146-.869 1.69-2.094 3.37-3.622 4.514-.37.278-.764.526-1.157.774l-.285.18q-.784.502-1.575.998c-.562.353-1.124.674-1.687.996-.515.293-1.03.587-1.545.906-.083.052-.11.107-.1.16a.24.24 0 0 0-.018.26c.478.958 1.493 1.402 2.428 1.811l.117.052c.672.295 1.351.585 2.046.821 1.701.578 3.492.813 5.288.707q.441-.025.879-.072c-.705.356-1.413.706-2.129 1.039a41 41 0 0 1-2.176.943q-.334.13-.675.257c-.617.23-1.237.46-1.803.788-.29.169-.64.396-.778.719-.157.377.043.734.346.97.2.163.467.253.708.334l.01.004c.248.086.503.145.763.192.463.09.946.118 1.418.118 1.736.004 3.48-.408 5.118-.955q.642-.214 1.284-.424.642-.209 1.285-.424l.516-.17c.78-.255 1.569-.512 2.308-.86q.085-.04.166-.085l.081-.044q.148-.077.295-.15l.02-.009.016-.007q.061-.027.12-.058c.107-.047-.015.004.095-.04a5 5 0 0 1 .53-.177l.012-.003c-.013.005-.004.004.075-.02l-.053.014-.012.003-.01.003.051-.016a7 7 0 0 1 .244-.039l.008-.001.023-.002c.005.005.033.01.092.003l.004.001.04.012.014.008.012.006a.6.6 0 0 0 .09.08l.017.026v.001l.01.012.004.007c.032.06.059.114.079.177.055.2-.067.424-.205.581a7 7 0 0 1-.942.888c-.33.26-.777.488-1.2.704l-.092.047-.057.03-.057.029c-.248.125-.503.247-.759.357l-.128.056-.068.03-.102.044-.238.098-.237.098c-.637.256-1.277.487-1.925.715a84 84 0 0 1-3.76 1.214l-.352.105-.005.001-.357.106c-.223.066-.467.286-.305.503a.32.32 0 0 0 .093.17l.424.44c.92.95 1.863 1.925 2.349 3.17.62 1.587.432 3.402-.02 5.009-.158.561-.35 1.113-.553 1.659q.697.15 1.408.264m6.802-16.65h.013l.004.002h-.004l-.012-.003zm0 0-.033-.006q-.017-.003-.028-.002l-.004.001-.011.003v.003h.077zm-9.37-35.29h-.003zm-6.091 31.19h.002l.03.013-.02-.009zm2.724 6.734.032.002.014.001zm.053.004q.002 0 0 0m-1.391-.59v.005zm-.003.018-.003.015zm-.028.07.001.004-.001-.005zm3.492-4.806.059.005a.2.2 0 0 1-.06-.005zm25.692-19.621-.003-.001-.013-.005.017.006zm-.018-.007-.025-.011zM22.16 3.493" clip-rule="evenodd"/><path d="M18.266 24.5c1.147 0 2.078-.906 2.078-2.023 0-1.118-.93-2.024-2.078-2.024s-2.078.906-2.078 2.024.93 2.023 2.078 2.023m11.648.219a2.023 2.023 0 1 0 0-4.047 2.023 2.023 0 0 0 0 4.047"/></g></g></svg>