<svg xmlns="http://www.w3.org/2000/svg" width="1024" height="1024" fill="none" viewBox="0 0 56 56"><clipPath id="a"><path d="M0 0h56v56H0z"/></clipPath><g clip-path="url(#a)"><path fill="#3995c3" d="M48.851 46.697c-5.126 5.717-12.569 9.313-20.85 9.313-1.681 0-3.327-.148-4.926-.431.877-1.752 1.183-3.959.584-5.817-.543-1.688-1.752-2.84-2.613-3.659-.65-.618-1.1-1.047-.916-1.375.125-.223.445-.226.93-.23.124 0 .259-.002.403-.006.99-.032 1.407-.208 2.722-.76.785-.33 1.89-.794 3.63-1.443l.702-.26c1.795-.663 2.484-.917 2.826-1.706.232-.531.314-1.314-.078-1.73-.137-.146-.604-.54-2.431 0-1.169.344-1.776.74-2.457 1.184-.413.269-.854.556-1.464.86-.902.453-2.627.748-6.077 1.338-.459.078-1.545.251-2.666-.236-.192-.083-1.05-.457-1.02-.866.03-.356.72-.554 1.565-.796l.239-.069s2.047-.598 4.823-1.809c1.419-.617 3.152-1.557 3.058-1.809-.036-.096-.313-.028-.786.089-.706.174-1.852.457-3.292.462-2.748.007-4.748-1.007-5.763-1.534l-.024-.013c-1.478-.77-2.215-1.154-2.25-1.718-.04-.65.788-1.036 2.042-1.62 1.397-.65 3.324-1.548 5.172-3.335.772-.747 2.325-2.285 3.176-4.798.807-2.388.572-4.456.47-5.152-.498-3.394-2.611-6.537-4.038-8.653a70.08 70.08 0 0 0-.211-.311c-.68-1-1.243-1.829-1.2-2.992.039-1.145.662-2.608 2.077-3.304 1.412-.696 3.07-.362 4 .472.377.338.505.644.66 1.016.105.25.223.531.437.872.514.814 1.49 1.817 3.529 2.517a21.963 21.963 0 0 0 3.45-.393c.765-.15 1.33-.302 1.816-.432.821-.221 1.411-.38 2.34-.355.941.024 2.51.067 3.411 1.101.326.374.745 1.082.47 4.405-.117 1.429-.301 2.6-.442 3.501-.203 1.29-.318 2.023-.028 2.162.179.085.377-.115.688-.429.393-.396.965-.973 1.9-1.38l.006-.002c.516-.223 2.09-.903 3.601-.155 1.33.657 2.29 2.261 2.039 3.579-.118.614-.45.922-.94 1.374-.456.422-1.048.969-1.726 2.008l-.008.012c-.736 1.133-1.105 1.702-1.011 2.427.082.64.468.967 1.401 1.756.396.334.89.752 1.5 1.311 2.184 2.006 2.262 2.525 2.274 2.753.034.572-.245.898-.665 1.391-.362.425-.83.975-1.295 1.913l-.007.013c-.427.87-1.07 2.177-.778 3.566.163.77.526 1.161.939 1.605.255.276.53.572.787.99.968 1.577.75 3.38.295 5.588z"/><g fill="#0b3a52"><path fill-rule="evenodd" d="M23.513 55.653c.504-1.347.933-2.728 1.015-4.17a7.361 7.361 0 0 0-.306-2.633c-.252-.801-.704-1.504-1.218-2.16-.435-.55-.919-1.054-1.403-1.557l-.1-.105-.06-.062c2.319-.681 4.641-1.426 6.85-2.402.331-.146.652-.311.973-.477.129-.067.257-.133.386-.198a6.985 6.985 0 0 0 1.901-1.434c.244-.252.48-.535.526-.892.04-.295-.082-.582-.267-.806-.42-.51-1.186-.593-1.799-.546-.848.063-1.63.413-2.38.802a1.995 1.995 0 0 1-.161.074l-.008.004-.003.002-.01.004a.338.338 0 0 0-.018.008l-.01.004-.073.03c-.2.078-.404.157-.609.227-.911.33-1.832.632-2.751.933l-.367.12-.346.113c-.23.075-.46.15-.691.23a21.782 21.782 0 0 1-1.477.447l-.013.003-.041.011a7.147 7.147 0 0 1-.26.065l-.065.015-.065.016-.037.01c-.012.001-.028.005-.05.01a16.83 16.83 0 0 1-1.312.231c-.208.027-.42.05-.632.066h-.017a6.32 6.32 0 0 1-.18.01 8.038 8.038 0 0 1-.79-.004l-.014-.002h-.008c-.006 0-.016 0-.028-.002h-.02.003l-.041-.004h-.013a8.448 8.448 0 0 1-.451-.064c-.011-.003-.19-.042-.118-.023a5.388 5.388 0 0 1-.569-.189 1.653 1.653 0 0 1-.03-.035l-.037-.04a1.62 1.62 0 0 1-.099-.123c.013.008.02-.036.016-.03.002-.004.002-.02.002-.036v-.033a.157.157 0 0 1 .006-.017 2.08 2.08 0 0 1 .023-.045l.007-.012.005-.009.012-.024.001-.002v-.002l.002-.002v-.002l.002-.002.015-.014a1.49 1.49 0 0 1 .145-.13l.01-.008.006-.006a.099.099 0 0 0 .011-.006l.012-.007a5.74 5.74 0 0 1 .664-.35c.193-.09.37-.165.53-.224.857-.318 1.705-.66 2.542-1.025 1.504-.656 2.965-1.399 4.427-2.145l1.021-.525.07-.017c.256-.063.492-.346.264-.574-.252-.255-.692-.228-1.01-.15a25.418 25.418 0 0 1-1.712.362c-.523.09-1.05.157-1.575.205l-.046.004h-.012l-.19.011a12.936 12.936 0 0 1-1.693-.008h-.003a2.52 2.52 0 0 1-.174-.015 8.283 8.283 0 0 0-.106-.012 12.156 12.156 0 0 1-1.335-.217.562.562 0 0 1-.057-.014.406.406 0 0 0-.082-.02h-.003l-.27-.071a11.027 11.027 0 0 1-.511-.153 21.718 21.718 0 0 1-1.952-.747l-.142-.06-.141-.062-.083-.037.004.002a.633.633 0 0 0-.064-.028l-.006-.003h-.003l.007.002-.008-.002c-.232-.103-.464-.205-.688-.323-.447-.234-.834-.49-1.08-.938.72-.445 1.443-.874 2.163-1.302h.001c1.195-.71 2.386-1.419 3.559-2.192 1.595-1.049 2.922-2.694 3.88-4.34.936-1.603 1.67-3.446 1.65-5.328-.015-1.89-.726-3.74-1.516-5.43-.598-1.273-1.292-2.497-1.986-3.72v-.001c-.453-.799-.906-1.598-1.333-2.411a7.045 7.045 0 0 1-.48-1.465c-.109-.535-.187-1.144-.042-1.682.118-.444.405-.872.707-1.182a3.663 3.663 0 0 1 1.293-.884l.023-.008a1.56 1.56 0 0 1 .145-.051l.036-.012.036-.011c.05-.016.097-.031.148-.044l.1-.023.05-.012a5.973 5.973 0 0 1 .33-.048c.035 0 .07 0 .105-.002a3.8 3.8 0 0 1 .106-.002h.04c.032.007.065.01.1.015.031.003.064.007.096.013l.043.012.044.012c.02.005.038.011.056.017l.057.018.025.008c.274.116.445.23.659.404.588.487 1.007 1.12 1.426 1.752.244.369.488.737.766 1.077.408.499.884.923 1.453 1.226.581.31 1.23.495 1.881.59 1.356.2 2.715.003 4.042-.296.23-.052.461-.108.692-.164l.345-.083.25-.06c.083-.022.167-.042.25-.062.082-.02.164-.04.25-.059l.107-.023.074-.016c.334-.07.668-.134 1.006-.18a11.097 11.097 0 0 1 .581-.068l.055-.003h.011c.094-.005.185-.008.28-.008h.251a.76.76 0 0 1 .067.002l.067.002.026.001.039.002a.654.654 0 0 1 .04.004l.052.006.02.003.031.003.134.02.133.02h.006l.024.006.022.004.02.005a4.241 4.241 0 0 1 .05.012c.075.02.15.043.224.067l.055.019a.719.719 0 0 1 .07.024c-.01-.002-.029-.01-.029-.01l.006.002.027.012c.083.035.161.075.24.122.2.114.424.302.605.514.173.205.31.44.424.68.568 1.202.424 2.572.289 3.854l-.01.09-.23 2.232-.23 2.232-.058.563-.06.564c-.023.236.382.35.543.37.27.03.612.011.832-.177l.07-.06c.873-.759 1.82-1.582 2.872-1.987a6.27 6.27 0 0 1 .621-.19l.02-.004h.001c.036-.007.092-.018.1-.018.068-.012.134-.024.201-.032l.051-.006.051-.006.075-.006h.005l.03-.001h.102c.064 0 .128 0 .192.002-.032 0 .052.007.108.013l.013.001.03.003a.789.789 0 0 1 .05.008.789.789 0 0 0 .051.008c.004 0 .114.02.043.008-.066-.012.044.012.044.012l.043.011a2.78 2.78 0 0 1 .271.087l.01.003.08.036a2.912 2.912 0 0 1 .337.181.988.988 0 0 1 .072.047l-.008-.006c-.026-.02.028.018.035.026.868.64 1.351 1.626 1.28 2.714a3.139 3.139 0 0 1-.522 1.54c-.275.413-.648.755-1.017 1.089l-.009.008c-.798.724-1.602 1.453-1.853 2.545-.251 1.096.153 2.204.939 2.978.353.35.77.629 1.186.892.102.065.206.129.309.193.103.063.206.127.308.192.049.032.098.062.147.092h.001v.001a11.7 11.7 0 0 1 .28.178l.007.005a.529.529 0 0 0 .015.01c.001.002.002.002 0 .001l-.015-.01a.123.123 0 0 1-.011-.01l.055.038.055.037c.829.581 1.457 1.316 1.489 2.385.034 1.127-.675 1.913-1.383 2.697l-.059.064c-.521.575-1.078 1.297-1.223 2.09a.088.088 0 0 0-.01.044v.017a2.05 2.05 0 0 0 .02.753 1.729 1.729 0 0 0 .328.727c.213.497.498.969.78 1.426.04.067.083.135.125.203.242.391.486.784.683 1.2a6.18 6.18 0 0 1 .523 1.689c.286 1.774-.104 3.523-.69 5.2a28.172 28.172 0 0 0 2.103-2.313 9.065 9.065 0 0 0 .119-2.451 6.519 6.519 0 0 0-.397-1.71c-.2-.514-.475-.997-.762-1.473a52.812 52.812 0 0 0-.192-.311c-.304-.493-.614-.993-.836-1.523.01-.045 0-.094-.04-.146a1.69 1.69 0 0 1-.036-.047 3.707 3.707 0 0 1-.246-1.18c.096-.56.426-1.114.776-1.523.134-.156.272-.309.41-.462.663-.734 1.324-1.466 1.46-2.496.153-1.143-.385-2.196-1.245-2.92-.405-.337-.856-.616-1.3-.887a20.094 20.094 0 0 1-.707-.444c.008.008.055.04.004.004l-.153-.106a7.257 7.257 0 0 1-.295-.224c-.393-.318-.684-.637-.892-1.104a2.785 2.785 0 0 1-.188-1.619c.163-.949.881-1.593 1.569-2.208l.273-.247c.4-.37.79-.766 1.08-1.23a3.558 3.558 0 0 0 .515-1.709 3.588 3.588 0 0 0-1.438-3.001c-1.147-.857-2.604-1.002-3.975-.696-.98.222-1.858.707-2.664 1.291.112-1.073.222-2.148.33-3.224.021-.2.044-.4.067-.601.147-1.286.297-2.604-.07-3.858a3.854 3.854 0 0 0-.904-1.59c-.502-.523-1.178-.822-1.877-.975-1.552-.338-3.166-.016-4.682.346-.13.03-.26.063-.389.095-.228.056-.455.111-.68.164a22.702 22.702 0 0 1-.68.153c-.086.02-.176.035-.266.051a12.062 12.062 0 0 1-.994.136l-.018.001h-.006l-.11.007-.052.002-.058.003a7.15 7.15 0 0 1-.502.004h-.011a4.032 4.032 0 0 0-.201-.007l-.061-.006-.061-.006a5.774 5.774 0 0 1-.456-.067l-.11-.021a.208.208 0 0 0-.012-.003l.012.003a3.923 3.923 0 0 1-.22-.057c-.067-.02-.134-.04-.2-.063a.964.964 0 0 1-.057-.02l-.057-.02a.504.504 0 0 1-.02-.008c-.573-.24-1.001-.57-1.418-1.049-.335-.385-.617-.812-.898-1.238-.418-.633-.836-1.266-1.427-1.763-.534-.448-1.175-.762-1.87-.857a4.984 4.984 0 0 0-2 .158c-1.123.318-2.207 1.04-2.792 2.074-.605 1.065-.361 2.341.012 3.445.066.193.138.383.219.57.002.02.009.041.02.063a28.676 28.676 0 0 0 .058.112l.013.03a.3.3 0 0 0 .038.064 91.43 91.43 0 0 0 1.228 2.21c.56.987 1.12 1.973 1.629 2.986.84 1.674 1.618 3.477 1.787 5.363.165 1.822-.393 3.54-1.213 5.146-.869 1.69-2.094 3.37-3.622 4.514-.37.278-.764.526-1.157.774l-.285.18c-.522.334-1.048.668-1.575.998-.562.353-1.124.674-1.687.996-.515.293-1.03.587-1.545.906-.083.052-.11.107-.1.16a.235.235 0 0 0-.018.26c.478.958 1.493 1.402 2.428 1.811l.117.052c.672.295 1.351.585 2.046.821 1.701.578 3.492.813 5.288.707.294-.017.587-.04.879-.072-.705.356-1.413.706-2.129 1.039a40.62 40.62 0 0 1-2.176.943c-.222.088-.448.172-.675.257-.617.23-1.237.46-1.803.788-.29.169-.64.396-.778.719-.157.377.043.734.346.97.2.163.467.253.708.334l.01.004c.248.086.503.145.763.192.463.09.946.118 1.418.118 1.736.004 3.48-.408 5.118-.955.428-.143.856-.283 1.284-.424.428-.14.856-.28 1.285-.424l.516-.17c.78-.255 1.569-.512 2.308-.86.057-.026.112-.055.166-.085l.081-.044c.099-.051.197-.102.295-.15l.02-.009.016-.007c.04-.018.082-.037.12-.058.107-.047-.015.004.095-.04a4.869 4.869 0 0 1 .53-.177l.012-.003c-.013.005-.004.004.075-.02l-.053.014-.012.003-.01.003a.439.439 0 0 1 .051-.016 6.87 6.87 0 0 1 .244-.039l.008-.001.023-.002c.005.005.033.01.092.003l.004.001a.464.464 0 0 0 .04.012l.014.008.012.006a.555.555 0 0 0 .09.08l.017.026v.001a.772.772 0 0 1 .01.012l.004.007c.032.06.059.114.079.177.055.2-.067.424-.205.581a6.958 6.958 0 0 1-.942.888c-.33.26-.777.488-1.2.704l-.092.047-.057.03-.057.029c-.248.125-.503.247-.759.357l-.128.056-.068.03-.102.044-.238.098-.237.098c-.637.256-1.277.487-1.925.715a83.763 83.763 0 0 1-3.76 1.214l-.352.105-.005.001-.357.106c-.223.066-.467.286-.305.503a.322.322 0 0 0 .093.17l.424.44c.92.95 1.863 1.925 2.349 3.17.62 1.587.432 3.402-.02 5.009-.158.561-.35 1.113-.553 1.659.465.1.934.188 1.408.264zm6.802-16.65h.013l.004.002h-.004l-.012-.003zm0 0a.538.538 0 0 0-.033-.006c-.011-.002-.021-.002-.028-.002l-.004.001a.128.128 0 0 1-.011.003v.003a.74.74 0 0 1 .04 0h.037zm-9.37-35.29zm0 0h-.003zm-6.091 31.19h.002l.03.013-.02-.009zm2.724 6.734.032.002.014.001-.046-.003zm.053.004c.001 0 .001 0 0 0zm-1.391-.59v.005a.04.04 0 0 1 0-.004zm-.003.018a.08.08 0 0 1-.003.015l.003-.015zm-.028.07.001.004a.02.02 0 0 1-.001-.005zm3.492-4.806.059.005a.16.16 0 0 1-.06-.005zm25.692-19.621-.003-.001-.013-.005a.33.33 0 0 1 .017.006zm-.018-.007a.199.199 0 0 1-.025-.011zm-8.343-9.093zM22.16 3.493zm0 0z" clip-rule="evenodd"/><path d="M18.266 24.5c1.147 0 2.078-.906 2.078-2.023 0-1.118-.93-2.024-2.078-2.024s-2.078.906-2.078 2.024c0 1.117.93 2.023 2.078 2.023zm11.648.219a2.023 2.023 0 1 0 0-4.047 2.023 2.023 0 0 0 0 4.047z"/></g></g></svg>