<svg xmlns="http://www.w3.org/2000/svg" width="1024" height="1024" fill="none" viewBox="0 0 56 56"><path fill="#3995c3" d="M32.271 55.676A28 28 0 0 1 28 56a27.87 27.87 0 0 1-15.94-4.978 17.6 17.6 0 0 1-.326-3.643 37 37 0 0 1 .033-1.036c.054-1.324.107-2.643-.392-4.4a8 8 0 0 0-.443-1.204c-.159-.362-.348-.79-.637-1.662-.528-1.589-1.034-3.127-1.145-5.153-.043-.774.002-1.1.06-1.539.066-.484.15-1.103.155-2.61l.001-.215c.001-.723.002-1.298.215-1.36.158-.045.3.23.51.636.318.617.792 1.533 1.712 2.082 1.428.854 3.212.391 4.153.144h.003c.71-.187 1.71-.45 2.574-1.287.277-.269.471-.53.618-.728.174-.232.282-.378.383-.345.14.045.095.376.023.905-.088.648-.217 1.594-.095 2.674.244 2.138 1.36 3.751 1.935 4.58.597.86 1.15 1.427 1.407 1.691l.025.027c1.9 1.947 4.907 5.626 6.734 9.015l.004.007c1.207 2.244 2.555 4.749 2.704 8.075"/><path fill="#c2dce9" d="M12.198 51.118c-.375-1.644-.558-2.927-.543-4.388q.008-.46.027-.967c.065-1.92.145-4.26-1.028-6.116-.09-.143-.61-.95-.858-.857-.135.05-.109.35-.064.857.038.431.089 1.013.064 1.718-.04 1.122-.115 1.972-.143 2.148-.283 1.82-.885 3.03-1.496 4.242a28 28 0 0 0 4.04 3.363z"/><path fill="#fcf6c4" d="M10.51 23.693c-.28-.14.711-4.11 3.726-8.159 1.292-1.736 2.915-3.916 5.872-5.508 4.1-2.206 8.109-1.85 10.097-1.646 5.159.53 8.647 2.905 11.314 4.723.668.455 4.642 3.213 7.95 8.158.694 1.037 2.654 3.963 1.936 4.723-.449.477-1.666-.2-3.583-.857 0 0-3.855-1.327-8.665-1.43-1.773-.04-4.87-.072-8.377 1.43-1.368.585-3.873 1.693-5.944 4.293-.88 1.1-2.445 3.07-2.506 5.723-.05 2.199.959 3.705.646 3.863-.348.179-1.812-1.557-2.649-3.58-.574-1.387-.71-2.564-.857-3.862-.166-1.441-.24-2.18.071-3.077.399-1.136.923-1.119 1.217-2.148.406-1.416-.215-2.747-.502-3.364-.284-.606-.894-1.868-2.362-2.646-.32-.169-1.766-.893-3.367-.502-2.7.667-3.755 3.995-4.017 3.866"/><path fill="#c3dfc3" d="M10.012 25.41c.01-.451.1-2.158 1.432-3.65 1.421-1.592 3.255-1.818 3.726-1.861.542-.05 2.394-.219 3.865 1.072 1.429 1.255 1.53 3.034 1.576 3.862.032.6.104 2.263-1.001 3.863-1.134 1.638-2.764 2.151-3.439 2.36-.97.304-2.333.73-3.794.071-1.805-.814-2.355-2.65-2.434-2.933a4.76 4.76 0 0 1 .069-2.783z"/><g fill="#401968"><path d="M16.096 25.733a1.252 1.252 0 1 1-2.505-.001 1.252 1.252 0 0 1 2.505.001"/><path fill-rule="evenodd" d="M12.687 51.445a43 43 0 0 1-.586-4.912l-.038-.603c-.122-1.99-.246-4.008-.885-5.91a12 12 0 0 0-.287-.767.1.1 0 0 0-.031-.04c-1.206-3.145-1.382-6.542-1.015-9.878q.118.255.274.49c.37.556.865 1.022 1.436 1.366 2.429 1.47 5.585.52 7.512-1.352a9.55 9.55 0 0 0 1.752 7.176 9.5 9.5 0 0 0 1.378 1.488c.414.844 1.007 1.58 1.599 2.315l.114.142.459.57c2.59 3.209 5.279 6.541 6.519 10.522a14.4 14.4 0 0 1 .656 3.726q.532-.067 1.058-.154a15.5 15.5 0 0 0-.225-2.009c-.79-4.368-3.463-8.08-6.16-11.486q-.457-.575-.919-1.147l-.001-.001q-.577-.712-1.147-1.434c-.664-.843-1.285-1.79-1.392-2.883-.108-1.112.132-2.234.488-3.285.309-.911.746-1.775 1.278-2.59 1.07-1.638 2.534-3.026 4.192-4.059 1.899-1.183 4.045-1.911 6.242-2.28 4.76-.804 9.609.15 14.16 1.56.596.182 1.188.376 1.777.573.095.032.194.03.286.002a.5.5 0 0 0 .163-.016c.294-.083.438-.377.377-.664-.5-2.324-1.64-4.46-3.048-6.354-1.418-1.905-3.069-3.64-4.853-5.207-1.762-1.55-3.686-2.938-5.764-4.038-2.1-1.112-4.358-1.94-6.702-2.346-2.39-.412-4.845-.42-7.229.068a16 16 0 0 0-6.367 2.851c-1.845 1.388-3.4 3.12-4.649 5.06-1.36 2.116-2.344 4.472-3.047 6.882a36.7 36.7 0 0 0-1.379 7.517c-.161 2.15-.087 4.343.353 6.46q.05.527.11 1.052c.063.554.126 1.107.158 1.665a12.5 12.5 0 0 1-.193 3.012c-.3 1.627-.858 3.188-1.429 4.74q.32.336.651.663l.121-.329c.532-1.439 1.064-2.88 1.407-4.378.238-1.045.38-2.112.36-3.187q.036.015.074.025c.616 1.847.745 3.825.865 5.758.103 1.654.249 3.297.51 4.929q.501.36 1.017.697m2.02-32.16c-1.145.185-2.103.788-2.866 1.618 1.168-3.064 2.87-5.907 5.314-8.141 1.615-1.478 3.531-2.618 5.631-3.278 2.193-.688 4.49-.886 6.78-.681 4.516.398 8.748 2.467 12.27 5.275a35.5 35.5 0 0 1 4.92 4.784c1.447 1.703 2.736 3.615 3.475 5.734q.123.351.226.706c-4.496-1.463-9.217-2.551-13.966-2.126-4.466.402-8.873 2.152-11.82 5.63-1.325 1.568-2.333 3.418-2.786 5.426-.187.83-.288 1.707-.194 2.559a9 9 0 0 1-1.827-6.184 9 9 0 0 1 .618-2.597.3.3 0 0 0 .024-.133 6.24 6.24 0 0 0 .27-5.024c-.456-1.19-1.256-2.248-2.365-2.9-1.113-.657-2.437-.876-3.705-.668zm-2.958 3.604a12 12 0 0 0-.966 2.086c-.289 1.167-.479 2.373-.122 3.501.09.277.183.485.36.76.146.227.254.36.48.575l.005.004a4 4 0 0 0 .175.157l.01.008q.034.03.072.06l-.015-.01.033.024a4.4 4.4 0 0 0 .834.476l.19.07c1.162.405 2.44.261 3.55-.216a7 7 0 0 0 .785-.405q.184-.11.363-.233a5 5 0 0 0 .276-.201 7 7 0 0 0 1.156-1.158c.043-.061.154-.219.222-.32.076-.11.144-.225.212-.34a5 5 0 0 0 .242-.458l.053-.112.03-.07.004-.01.005-.012.01-.027c.098-.261.187-.523.252-.792q.054-.21.086-.42c.004-.014.022-.122.011-.06l.007-.061q.011-.093.018-.184a6 6 0 0 0-.013-1.04l-.001-.017-.009-.083-.006-.036a5.5 5.5 0 0 0-.359-1.316 6 6 0 0 0-.273-.538 5 5 0 0 0-.37-.559l-.01-.013a5 5 0 0 0-.592-.615l-.061-.052-.086-.073-.007-.006-.133-.095a4.6 4.6 0 0 0-.71-.405l-.098-.043.003.001-.02-.008-.173-.065a5 5 0 0 0-.819-.211l-.109-.019-.034-.003a5 5 0 0 0-.578-.032 4 4 0 0 0-.523.028l-.045.005a4.5 4.5 0 0 0-.962.254l-.06.024-.004.001-.072.032q-.028.016-.057.028l-.108.055a3.6 3.6 0 0 0-.994.739c-.427.433-.74.885-1.055 1.43m7.945 4.2-.003.007v-.002zm0-.003.013-.026z" clip-rule="evenodd"/></g></svg>