<svg fill="none" height="1024" viewBox="0 0 56 56" width="1024" xmlns="http://www.w3.org/2000/svg" xmlns:xlink="http://www.w3.org/1999/xlink"><clipPath id="a"><path d="m0 0h56v56h-56z"/></clipPath><g clip-path="url(#a)"><path d="m56 28.0001c0 15.4639-12.536 28-28 28s-28-12.5361-28-28c0-.8435.037293-1.6782.11032-2.5027l55.64778-1.1942c.1596 1.2097.2419 2.4437.2419 3.6969z" fill="#fcf6c4"/><path d="m19.6205 54.7246-2.4975-11.0677 1.1275-12.6242 2.2037-8.8076 3.1065-6.2922 4.3637-4.9594 2.6502 1.9157 4.6134 8.7895 2.0159 12.5045-.3267 14.9197-1.2153 5.8359c-2.4351.6912-5.0052 1.0612-7.6618 1.0612-2.9191 0-5.7338-.4467-8.3796-1.2754z" fill="#c3dfc3"/><path d="m27.9964 56 .7121-20.2208.8947-23.2383-1.7864-1.782-1.339 1.4739-.578 27.2497s-.3021 8.3422-.5932 16.3897c.8853.0844 1.7825.1277 2.6898.1278z" fill="#e75b14"/><path d="m28.7975 55.9888c-.2649.0075-.5308.0112-.7975.0112-.1868 0-.3732-.0018-.5591-.0055l1.4571-43.6369c.0021-.0706.0229-.1321.0579-.1849-.23-.2209-.4699-.4321-.7206-.6322-.1809.1592-.3591.3205-.5331.4848.0108.0402.0159.0835.0141.1297-.0714 2.1696-.1441 4.3378-.2168 6.5053l-.0007.019c-.0725 2.1616-.145 4.3225-.2161 6.4835l-1.0281 30.7837c-.4539-.0279-.9048-.0667-1.3526-.116l1.4144-42.3567c-1.9559 2.2512-3.4325 4.8913-4.5932 7.6332-1.5548 3.6639-2.6114 7.5376-3.198 11.4738-.6051 4.0116-.7241 8.0916-.3918 12.1305.2752 3.4141.8793 6.7933 1.761 10.0975-.5061-.1528-1.0061-.3195-1.4996-.4997-.9316-3.6496-1.5234-7.3855-1.7238-11.148-.2166-4.1007.0286-8.2312.7701-12.2713.3355-1.8187.7658-3.6288 1.3006-5.4077-.28-.0063-.5598-.0128-.8395-.0193h-.0019c-.9996-.0231-1.9983-.0463-2.9996-.0646-4.9326-.0933-9.87695-.1068-14.8012127.2242.0225107-.2677.0487887-.5343.0787797-.7999 1.038783-.0675 2.079583-.1193 3.122513-.1585 5.22703-.2013 10.45522-.089 15.68322.0366.5675-1.775 1.2417-3.5152 2.0322-5.1977 1.5552-3.306 3.6309-6.4233 6.4489-8.776.2558-.2149.6154-.2749.9261-.1411.0918.0389.19.1179.2549.2118.0496.0192.0961.0426.1381.0708.3723.2495.7222.5254 1.0606.8227 1.3427 1.1888 2.3622 2.6773 3.1892 4.2578.8887 1.6962 1.5898 3.5008 2.204 5.3137.3588 1.0657.6783 2.144.9607 3.2321.1125-.037.234-.0538.335-.0594v-.0005l.0141-.0001c.0814-.003.1639-.0071.2465-.0112.0855-.0043.1711-.0086.2553-.0116.0528-.0028.1119.0025.1724.0155 1.261-.014 2.5194-.0291 3.7819-.052 4.9057-.0843 9.8041-.2396 14.6995-.4656.0448.3065.0847.6147.1196.9244-1.1804.0542-2.3607.1049-3.5409.1522-5.2555.21-10.514.3332-15.7701.3806-.0306-.0003-.0633-.0028-.0971-.0075.6146 2.556 1.029 5.1615 1.2694 7.7802.3829 4.1651.3147 8.3605-.0669 12.5196-.2806 3.0473-.7314 6.0762-1.2986 9.0842-.474.1473-.9534.2823-1.4377.4047.6947-3.613 1.2239-7.2576 1.4985-10.9296.3099-4.1178.29-8.2669-.1759-12.3748-.4527-3.999-1.3187-7.9614-2.7161-11.7385-.8245-2.2259-1.8067-4.5792-3.2745-6.5121-.0587 1.7722-.1181 3.5435-.1775 5.3143l-.0004.0104c-.0725 2.1628-.1451 4.3249-.2162 6.487z" fill="#0b5f65"/></g></svg>