<svg fill="none" height="1024" viewBox="0 0 56 56" width="1024" xmlns="http://www.w3.org/2000/svg"><path d="m12.7468 36.1143.1408-25.0433 2.8291-1.41475 7.207 2.97055 21.2011 8.9142.5659 2.9705.1408 20.376-2.9673 2.6887-10.7427-3.396-14.2758-5.5182z" fill="#dc674f"/><g fill="#631505"><path d="m12.3642 36.6302c1.8091.8962 3.6314 1.7605 5.4696 2.5902 1.8357.8297 3.6845 1.6249 5.5467 2.3855 1.8542.7579 3.7217 1.4812 5.6025 2.17 1.8887.6914 3.7907 1.3483 5.7034 1.9706 1.9047.6196 3.8173 1.2047 5.7432 1.7525.2418.0692.4862.1383.7279.2048.1806.0505.4277.0585.5685-.0904.1275-.1383.0026-.3059-.1488-.3484-1.9259-.5399-3.8439-1.1169-5.7512-1.7259-1.8994-.609-3.7854-1.2499-5.6609-1.9281-1.8834-.6808-3.7562-1.3935-5.6131-2.1434-1.8595-.7473-3.7031-1.5318-5.5334-2.3456-1.8117-.8084-3.6074-1.6461-5.3873-2.5211-.2258-.1117-.4542-.2233-.68-.335-.178-.0878-.4118-.1117-.5871 0-.1381.093-.1673.2819 0 .3643z"/><path d="m12.2978 10.9806v9.9434 9.9433 5.582c0 .2686.8315.2713.8315 0 0-3.3135 0-6.6298 0-9.9433 0-3.3136 0-6.6298 0-9.9434 0-1.8616 0-3.7231 0-5.582-.0027-.2686-.8315-.2713-.8315 0z"/><path d="m41.1309 22.1233v9.9434 9.8902 5.582c0 .3431.8288.3431.8288 0 0-3.3136 0-6.6298 0-9.9434 0-3.2976 0-6.5925 0-9.8901 0-1.8616 0-3.7232 0-5.5821 0-.3404-.8288-.343-.8288 0z"/><path d="m12.5634 11.3103c1.8303.8138 3.6925 1.5531 5.568 2.2499 1.8701.6941 3.7588 1.3483 5.6502 1.9865 1.8994.6436 3.8041 1.2739 5.7034 1.9254 1.8861.6462 3.7669 1.3137 5.6291 2.0291 1.8595.7154 3.7031 1.4786 5.5094 2.3243.2258.1064.449.2127.6721.3191.1727.0825.3826.0931.5685.0532.0717-.016.3214-.1197.1488-.2021-1.8091-.8696-3.6527-1.6621-5.5201-2.3961-1.8728-.7366-3.7642-1.4174-5.6662-2.077-1.8968-.6568-3.7988-1.2898-5.7008-1.9307-1.91-.6409-3.8173-1.2924-5.7087-1.9839-1.8808-.6861-3.7483-1.4121-5.5839-2.2099-.2284-.0984-.4542-.1994-.6827-.2978-.1673-.0745-.4197-.0639-.5871 0-.154.0585-.1407.1462 0 .21z"/><path d="m41.6383 22.4132c.0186-.0186.0345-.0346.0531-.0532.0293-.0266.0452-.0585.0505-.0957.0133-.0346.0106-.0692-.008-.1037-.0159-.0373-.0398-.0665-.0743-.0878-.0346-.0319-.0718-.0532-.1169-.0665-.0319-.008-.0664-.0186-.0983-.0266-.0744-.0133-.1461-.0133-.2205 0-.0319.008-.0664.0186-.0983.0266-.0558.0186-.1062.0505-.1487.0931-.0186.0186-.0346.0346-.0532.0532-.0292.0266-.0451.0585-.0504.0957-.0133.0346-.0107.0692.0079.1037.016.0373.0399.0665.0744.0878.0345.0319.0717.0532.1169.0665.0319.008.0664.0186.0983.0266.0744.0133.1461.0133.2205 0 .0318-.008.0664-.0186.0982-.0266.0585-.0186.1063-.0506.1488-.0931z"/><path d="m12.3642 12.0656c1.1556 2.545 2.6644 4.9012 4.2716 7.1803 1.5806 2.2365 3.2276 4.4225 4.6939 6.7362.8979 1.4148 1.74 2.8615 2.5343 4.3374.0956.1782.3188.2367.51.1995.1382-.0266.3879-.1729.2896-.3537-1.3973-2.5956-2.954-5.1007-4.6568-7.5101-1.5513-2.194-3.1798-4.3321-4.6063-6.6112-.8314-1.327-1.5859-2.7046-2.234-4.13-.0824-.1835-.3294-.2367-.5101-.1994-.1487.0266-.3772.1649-.2922.351z"/><path d="m44.1513 22.7084v8.7015 8.6482 4.8826c0 .3138.8288.3165.8288 0 0-2.9013 0-5.8 0-8.7014 0-2.8828 0-5.7655 0-8.6483 0-1.6275 0-3.255 0-4.8826.0027-.3138-.8288-.3164-.8288 0z"/><path d="m27.4316 31.846c1.6231-1.4547 3.5012-2.5929 5.3262-3.771 1.9631-1.2685 3.9262-2.537 5.8867-3.8056 1.0998-.71 2.1995-1.4227 3.2993-2.1328.1461-.0931.1541-.25 0-.343-.1594-.0958-.4277-.1037-.5871 0-1.9764 1.2765-3.9554 2.5556-5.9318 3.8321-1.9206 1.2419-3.8598 2.4599-5.7592 3.7338-1.0254.6887-2.0295 1.4147-2.9513 2.2418-.1461.1303.0186.2872.1487.3324.1807.0612.4224.0452.5685-.0877z"/><path d="m41.896 47.3687c-.0266-.0345-.0531-.0691-.0797-.1037-.1195.125-.2391.25-.3586.375.8739.0292 1.5912-.5452 2.242-1.0584.3161-.25.6057-.5213.8342-.8537.2311-.3377.3798-.7207.5153-1.1063.1249-.3563-.696-.4361-.7996-.133-.1222.3484-.2524.6941-.4489 1.0079-.1833.2926-.4437.5319-.7093.7473-.2577.2101-.5286.4122-.8076.5931-.1408.0904-.2842.1755-.433.2313-.1753.0665-.2337.0745-.3905.0692-.1992-.008-.5392.1409-.3586.3749.0266.0346.0531.0692.0797.1038.1886.2526.9776.0957.7146-.2474z"/><path d="m41.8402 22.5196c.1833-.2606.4011-.4734.6615-.6409.1381-.0904.2205-.1303.3666-.1888.0743-.0293.1514-.0559.2284-.0798.0266-.008.0266-.008-.0026 0 .0185-.0053.0398-.0107.0584-.0133.0398-.008.0797-.016.1195-.0239.0346-.0054.0664-.0107.101-.016.0717-.0106.0133-.008.0797-.0053-.0053 0 .1381.0106.0797.0026.0637.008.0239.0054.0717.0187.0717.0239-.0186-.024.0398.0212 0 0 .0797.0612.0425.0293.0505.0452.0957.101.1355.1569.1408.2101.2179.5265.2736.7898.016.0745.1302.1383.1913.1622.0983.0373.2178.0452.3188.0266.1753-.0319.332-.1409.2895-.3324-.0743-.3457-.1753-.6941-.4011-.976-.3214-.4015-.8368-.4787-1.3203-.4175-.8049.0984-1.5832.5531-2.0534 1.2153-.2577.3644.5233.5479.7199.2713z"/><path d="m23.8241 29.0217c-.0478 1.1489-.0478 2.3004-.0026 3.4519.008.1941.2497.2846.4144.2792.1514-.0053.4224-.0771.4144-.2792-.0452-1.1488-.0425-2.3003.0027-3.4519.0159-.3723-.8129-.3802-.8289 0z"/><path d="m12.4014 11.0524c.0027.0053.0027.008.0053.0133.0133-.0479.0292-.0931.0425-.141-.0053.0027-.0106.008-.0133.0107.1886-.0213.3799-.0452.5685-.0665-.0053-.0027-.0106-.0027-.0159-.0053.069.0532.1381.1064.2045.1595-.0053-.0531.1435-.1675.1807-.1994.0743-.0638.154-.1223.239-.1702.1701-.0984.356-.1675.5313-.2181.4915-.1436.9962-.2207 1.4744-.4069.154-.06112.1408-.19675 0-.26058-.1754-.07978-.4091-.06914-.5871 0-.5047.19414-1.0467.24998-1.5514.42548-.2258.0798-.4436.1782-.6455.3085-.0956.0638-.1886.1356-.271.2154-.0743.0745-.2151.1862-.2045.3032.0106.0957.1275.1383.2045.1595.186.0479.4384.0532.5977-.0718.0532-.0425.0638-.0824.0426-.1409-.0027-.0053-.0027-.008-.0054-.0133-.0212-.0585-.1434-.0984-.1912-.109-.101-.0266-.2179-.0319-.3188-.0186-.1116.0132-.3453.0664-.2869.226z"/><path d="m15.4935 10.1908c1.8276.7632 3.6526 1.5264 5.4936 2.2578 1.8542.7366 3.7216 1.4307 5.6077 2.0769 1.8781.6436 3.7323 1.351 5.5653 2.1142 1.8409.7659 3.6659 1.5664 5.4962 2.3589 1.8569.8031 3.7111 1.6062 5.5679 2.4094.2338.101.4676.2021.7013.3031.178.0772.441.0532.5685-.109.1249-.1596.0159-.3484-.1488-.4202-1.8568-.8031-3.711-1.6062-5.5679-2.4094-1.8436-.7978-3.6845-1.6036-5.5334-2.3854-1.825-.7712-3.6659-1.5052-5.5387-2.1541-1.8807-.6515-3.7509-1.3137-5.6051-2.0397-1.8436-.7234-3.6712-1.4813-5.4988-2.24454-.2312-.09574-.4623-.19148-.6907-.28987-.1807-.07447-.441-.05319-.5685.10903-.1222.16222-.0159.35368.1514.42288z"/><path d="m26.3664 30.2956c-.008 1.0956-.0133 2.194-.0213 3.2896-.0026.2979.8288.3005.8288 0 .008-1.0956.0133-2.194.0213-3.2896.0026-.2979-.8288-.3005-.8288 0z"/><path d="m24.026 29.1308c.781.4016 1.5594.8031 2.3404 1.2047.1726.0877.417.0957.587 0 .1462-.0825.1568-.242 0-.3218-.7809-.4016-1.5593-.8031-2.3403-1.2047-.1727-.0878-.417-.0957-.5871 0-.1461.0824-.1593.242 0 .3218z"/><path d="m23.8082 32.1492c.0478.6701.3666 1.3616.9749 1.694.6455.3537 1.6098.3882 2.2049-.0958.1381-.1143-.0399-.2021-.1488-.2287-.1567-.0372-.4303-.0505-.5685.0585-.0903.0745-.1833.133-.2948.1676-.0213.008-.0532.0133-.0744.0159-.0239.0027-.0505.0054-.0744.008.0903-.0053-.0345-.0026-.0425-.0026.0425.0026.0319.0026-.0053-.0027-.1195-.016.0345.0106-.0345-.0053-.0718-.016-.085-.0186-.1382-.0399-.1115-.0426-.2098-.1011-.3055-.1729-.425-.3297-.6269-.8776-.6641-1.3988-.0159-.242-.8447-.2234-.8288.0027z"/><path d="m24.1243 31.1599c.6721.2792 1.3468.5585 2.0189.8377.17.0718.4171.0612.5871 0 .1514-.0559.1435-.1436 0-.2048-.6721-.2792-1.3468-.5584-2.0189-.8377-.17-.0718-.4171-.0611-.5871 0-.1514.0559-.1434.1463 0 .2048z"/><path d="m28.0107 29.41c-.0053-.0026-.008-.0026-.0133-.0053-.1647-.0505-.4914-.0505-.611.1117-.0159.0239-.0292.0532-.0212.0824.0372.125.1886.1649.3055.1782.263.0293.4436-.0372.6535-.1835.1381-.0984.2736-.1968.4091-.2978.2683-.2021.5313-.4149.7863-.6356.1381-.1197-.0319-.2234-.1488-.2527-.1594-.0425-.4303-.0505-.5685.0665-.2098.1809-.425.359-.6455.5292-.1062.0825-.2152.1649-.3241.2447-.1009.0745-.2045.1702-.3161.226.1355-.0159.2683-.0319.4038-.0478-.0106 0-.0213-.0027-.0292-.0027.1009.0585.2019.1197.3055.1782-.0027.0053-.0053.0106-.008.016-.2046.0372-.4064.0744-.611.1117.0053.0026.008.0026.0133.0053.1647.0505.4277.0478.5685-.0665.1487-.125-.0399-.2234-.1488-.258z"/><path d="m30.9913 27.7373c.4914-.2899.951-.6303 1.376-1.0133.1302-.117-.0319-.2021-.1488-.2313-.1487-.0373-.4383-.0559-.5684.0611-.4251.383-.8846.7207-1.3761 1.0133-.162.0957.0611.21.1488.2313.1806.0426.4038.0346.5685-.0611z"/><path d="m34.2295 25.7108c.4516-.2154.8846-.46 1.299-.7419.154-.1038.1514-.2899 0-.3963-.1621-.1117-.4251-.1117-.5871 0-.3613.2447-.7358.4654-1.1317.6542-.1487.0718-.2815.2261-.1487.383.1222.1462.4011.1808.5685.101z"/><path d="m37.1861 23.8386c.5207-.234 1.0201-.5132 1.4929-.835.1461-.0984-.0584-.1702-.1487-.1888-.1568-.0319-.4251-.0479-.5685.0505-.4729.3218-.9723.6037-1.4929.835-.1727.0772.085.1756.1487.1889.186.0372.3958.0292.5685-.0506z"/><path d="m39.4494 22.3707c.4596-.1516.9005-.3617 1.3043-.6276.1488-.0984-.0611-.1702-.1487-.1862-.1594-.0319-.4224-.0479-.5685.0479-.3666.242-.7571.4361-1.1742.5717-.0345.0107-.1222.0452-.1222.0958 0 .0532.0877.0851.1222.0957.178.0638.4118.0612.5871.0027z"/><path d="m13.5862 12.6241c.4011.6223.7996 1.2472 1.2007 1.8695.0956.1463.3586.1516.51.133.085-.0107.3852-.0851.2896-.234-.4011-.6223-.7996-1.2473-1.2007-1.8696-.0957-.1462-.3587-.1516-.5101-.1329-.085.0106-.3852.0851-.2895.234z"/><path d="m16.0195 16.3844c.3533.3883.6508.8244.8979 1.2872.1301.2446.943.1595.7996-.1091-.2657-.5026-.5977-.9653-.9803-1.3882-.1753-.1888-.9749-.0718-.7172.2101z"/><path d="m18.0411 19.3257c.3586.6569.7969 1.2685 1.3069 1.819.1355.1463.3932.1596.5685.0931.1461-.0559.2843-.2128.1488-.359-.4755-.5133-.8873-1.0771-1.2247-1.6914-.0956-.1729-.3294-.2154-.51-.1835-.1275.0213-.3852.1463-.2895.3218z"/><path d="m20.4319 22.7164c.2975.46.5977.9228.8952 1.3828.1089.1676.3214.2154.51.1809.1142-.0186.3985-.1516.2896-.3191-.2976-.4601-.5977-.9229-.8953-1.3829-.1089-.1676-.3214-.2154-.51-.1809-.1142.0213-.3985.1516-.2895.3192z"/><path d="m22.2728 25.7055c.2922.617.6614 1.1967 1.0997 1.718.1302.1569.3879.1808.5685.1064.1594-.0665.279-.2474.1488-.4043-.4064-.4813-.7465-1.0079-1.0174-1.577-.0877-.1835-.3215-.2446-.5101-.2074-.1487.0319-.3772.1782-.2895.3643z"/></g><path d="m22.8519 12.0603c.0718-.3537 1.06-1.9095 1.2725-1.9813s2.9699-.84829 3.464-.63554 3.3205.77924 3.8173.98924c.4941.2128 3.2515 2.7605 3.2515 2.7605l.3533 1.5557-.425 1.8403.2816 1.2738-2.1916-.7074s-.0717-.9893 0-1.202c.0717-.2128 1.554-1.202 1.554-1.202l-.7783-.9893-3.4614-1.9839-2.4731-.9893-2.1199.3537-1.8383.7792z" fill="#dc674f"/><path d="m23.5081 13.0363c-.4437-.7898-.0983-1.819.5499-2.3908.3639-.3217.8102-.5238 1.2671-.6435.255-.0665.4436-.10108.7146-.13299.1222-.01595.247-.02659.3692-.03723.0292-.00266.0585-.00532.0877-.00532-.0638.00532.0159 0 .0239 0 .0797-.00266.1567-.00798.2364-.01064 1.1051-.03723 2.1757.08776 3.2489.43078.9643.3085 1.8621.8058 2.6299 1.4654.8288.7127 1.4902 1.6089 1.8887 2.6301.0239.0611.1408.101.1913.1143.1009.0293.2178.0319.3187.0186.1143-.0159.3533-.0744.2896-.2366-.8076-2.0584-2.6299-3.5343-4.678-4.24972-1.1662-.40688-2.4174-.57974-3.6527-.56378-1.1582.01329-2.4067.15158-3.3896.8217-.8926.6117-1.469 1.8749-.8979 2.8908.1302.2313.9404.1436.8023-.1011z" fill="#631505"/><path d="m21.4334 13.3528c-.008.0026.1222-.0346.077-.0266.1036-.0213-.0345-.0054.0744-.0027.0531 0 .1275.0106.2205.0266.1859.0292.3666.0638.5552.0745.3639.0212.7677-.0532 1.0307-.3245.1355-.1383-.0106-.2845-.1488-.3324-.17-.0585-.433-.0505-.5685.0878 0 0-.0664.0611-.0478.0452-.0106.0053-.0212.0133-.0318.0186.0239-.008.0239-.008.0026 0-.0239.0106-.0797.0239-.0239.0106-.0106.0027-.1302.016-.0398.0107-.0319.0026-.0638.0026-.0957.0026s-.085-.0053-.0239 0c-.0744-.008-.1487-.0186-.2205-.0319-.3905-.0691-.7943-.1223-1.1741.0239-.1382.0532-.2843.1915-.1488.3325.1249.1329.3958.1489.5632.0851z" fill="#631505"/><path d="m23.176 13.1107c.1196-.3244.3214-.6222.5632-.8643.2364-.2366.5632-.46.8315-.5983.7491-.3856 1.5248-.5372 2.3562-.4654.356.0293.8395.1436 1.1981.2659.425.1436.8368.3218 1.2406.5106.7597.3564 1.4796.7606 2.1756 1.218.7996.5266 1.5567 1.1196 2.2659 1.7658.3055.2793.9697-.0983.5871-.4494-1.3415-1.226-2.8663-2.2498-4.5053-3.0343-.8501-.4069-1.7559-.7766-2.7043-.8883-.9669-.1116-1.9551.0266-2.8424.4335-.8501.391-1.6311 1.0372-1.9658 1.936-.1594.4202.6562.5505.7996.1702z" fill="#631505"/><path d="m34.0064 13.4033c.1381.2048.2524.4255.332.6595.0611.1782.1568.4654-.0478.5851.0213-.0133-.1036.0399-.0451.0213-.0452.0159-.0957.0239-.1408.0319.0451-.008.0398-.0053-.016.0026-.0478.008-.0956.016-.1434.024-.0611.0106-.1222.0213-.1806.0345-.2444.0506-.4915.1197-.712.2341-.4038.2101-.7013.5638-.8022 1.0105-.0983.4362.0478.9095.34 1.2366.1169.133.348.1383.51.1197.0585-.008.4038-.0851.2896-.2101-.2975-.3297-.4224-.7925-.2922-1.2233.1222-.4016.4383-.6994.8368-.8138.2337-.0664.4303-.0797.6614-.1356.2072-.0479.4516-.1303.5765-.3164.1408-.2128.0425-.4787-.0319-.6968-.0824-.234-.1939-.4548-.3321-.6595-.0956-.141-.3639-.1357-.51-.1197-.077.0106-.3852.0745-.2922.2154z" fill="#631505"/><path d="m34.5802 14.2995c-.8315 1.1489-.8102 2.795.0637 3.9146.1275.1622.3879.1888.5685.1117.1647-.0718.2736-.2606.1488-.4228-.7226-.9282-.7545-2.3403-.0638-3.2923.279-.3857-.4888-.625-.7172-.3112z" fill="#631505"/></svg>