<svg fill="none" height="1024" viewBox="0 0 56 56" width="1024" xmlns="http://www.w3.org/2000/svg"><path d="m15.9897 41.4276-2.0896-7.1962.1675-3.0109 1.1726-3.8497 1.5033-1.5893 4.7613-2.0926 10.3601.3355 6.0175 1.9248 1.8384 2.1765.582 6.1057-2.1691 6.781-3.5092 4.5164-5.5151 2.3442-6.7671-.5032-3.0109-1.5894z" fill="#dc674f"/><path d="m15.7385 26.2847s2.6717-1.5054 3.0905-1.8409c.4187-.3355 6.5996-1.5894 6.5996-1.5894l8.3542 1.5055 5.0125 1.5894.5863 1.5054-2.6717 1.7571-4.3467 1.5894-4.5938.7548-5.7663-.5032-4.51-1.6732-1.6708-1.3378z" fill="#ededed"/><g fill="#4a155d"><path d="m13.494 32.0844c2.0854 3.3506 5.8919 5.0993 9.69 5.6067 2.1106.281 4.2672.2307 6.3777-.0167 1.8886-.2223 3.7563-.6458 5.536-1.321 1.943-.7381 3.773-1.82 5.268-3.2751.2052-.2013-.0335-.3733-.2345-.4278-.2471-.0713-.691-.0881-.8962.1132-1.2604 1.2204-2.7386 2.1681-4.3509 2.86-1.5829.6794-3.2705 1.1071-4.9371 1.3503-3.6558.5368-7.6256.4613-10.9924-1.2706-1.7002-.8723-3.191-2.1555-4.2044-3.7826-.1507-.239-.5611-.2516-.804-.218-.1382.0168-.603.1426-.4522.3816z"/><path d="m16.0609 35.2254c.1382 1.6732.8334 3.3926 2.2069 4.42 1.4321 1.0693 3.4841 1.3796 5.1088.5703.9129-.4529 1.6039-1.2245 2.2571-1.9835.3979-.4613-.8542-.6542-1.1306-.3355-.5109.5871-1.0301 1.2035-1.6834 1.6396-.3057.2013-.5695.3146-.9003.4068-.0126.0042-.1131.0252-.0293.0084-.0419.0084-.0838.0168-.1215.021-.0837.0126-.1675.0251-.2471.0293.1131-.0084-.0963.0042-.1381.0042-.0419 0-.0838 0-.1257 0-.201-.0042.1215.0168-.0795-.0042-.0838-.0084-.1675-.0168-.2513-.0335-.0419-.0084-.0837-.0126-.1256-.021-.0126-.0042-.1131-.0252-.0293-.0042-.1843-.0461-.3685-.0964-.5486-.1677-.2387-.0965-.5779-.281-.825-.4655-.582-.4319-1.0301-1.0106-1.3609-1.6523-.3895-.759-.5988-1.5851-.67-2.4322-.021-.2726-.4439-.3355-.6533-.3313-.1717.0042-.6784.0587-.6533.3313z"/><path d="m27.9202 37.6995c.7035 1.4132 2.1733 2.3316 3.7353 2.4574.9087.0713 1.8258-.0713 2.6507-.4571.7412-.348 1.3484-.8974 1.8174-1.56.5193-.7338.8585-1.5809 1.1642-2.4196.0963-.26-.2596-.3775-.4565-.3984-.201-.0252-.7118-.0294-.804.2264-.4648 1.2707-1.0259 2.6629-2.1985 3.4471-.2554.172-.5402.3062-.8123.39-.1592.0503-.289.0839-.3979.1007-.0753.0125-.1549.0251-.2303.0335-.046.0042-.0879.0084-.134.0126.0921-.0042-.0251 0-.0586 0-.0796 0-.1549 0-.2345 0-.134-.0042-.0545-.0042-.0251 0-.0461-.0042-.088-.0084-.134-.0126-.088-.0126-.1759-.0251-.2639-.0419.067.0126.0126.0042 0 0-.0502-.0126-.1005-.0252-.1507-.0378-.2931-.0838-.5235-.1887-.8082-.3564-.6072-.3607-1.0846-.9142-1.3987-1.5432-.1926-.4068-1.4782-.2768-1.2604.1593z"/><path d="m13.9755 29.5641c1.0218 1.3797 2.3953 2.4197 3.8735 3.2584 1.5159.8596 3.1617 1.5558 4.8199 2.0884.9213.2935 1.8551.5283 2.8183.629.9799.1048 1.9556.0839 2.9313-.0294 1.8928-.2222 3.7269-.8345 5.4773-1.5684 2.031-.847 3.9992-1.8493 5.9548-2.8599.2512-.13.4355-.4068.2345-.671-.1885-.2474-.624-.3145-.8961-.1761-1.6918.8722-3.3962 1.7277-5.134 2.5035-1.6499.7339-3.3082 1.3629-5.0837 1.6858-1.7211.3145-3.4046.2558-5.1256-.2139-1.6081-.4403-3.237-1.128-4.7362-1.9122-1.5075-.7842-2.9648-1.8284-4.0033-3.2332-.3685-.4907-1.5829-.1091-1.1307.499z"/><path d="m27.4344 38.1483c.1047 1.4174.3141 2.9355 1.6039 3.7742.2512.1635.67.1509.9254 0 .2471-.1468.2303-.3858 0-.5368-1.0385-.6752-1.139-2.1219-1.2186-3.2374-.0209-.2894-.4187-.3858-.6532-.3816-.201.0042-.6784.088-.6575.3816z"/><path d="m31.9486 43.994c1.7295.1049 3.6684.1426 5.1298-.9477.2262-.1677.2471-.4319 0-.5997-.2429-.1593-.6825-.1803-.9254 0-.3183.2349-.5612.3691-.9297.4949-.1968.0713-.2219.0754-.4397.1216-.1926.0419-.3894.0713-.5862.0964-.0461.0042-.088.0084-.134.0126.0712-.0084.0083 0-.0252 0-.1005.0084-.201.0126-.3015.0168-.1926.0084-.3852.0084-.5737.0084-.4062-.0042-.8082-.0252-1.2102-.0504-.2429-.0167-.6532.1258-.6532.4236-.0042.3187.4103.4068.649.4235z"/><path d="m28.9964 31.7238c-.0251.9812-.4774 1.9458-1.1977 2.5622-.2303.1971-.2512.5116 0 .7087.2429.1887.6826.2055.9255 0 .9589-.8219 1.5452-2.0003 1.5787-3.2709.0209-.6626-1.2898-.6668-1.3065 0z"/><path d="m24.4319 38.2489c.1298 1.17-.18 2.3735-.9129 3.3045-.4229.5368.8208.7968 1.1307.4026.8249-1.0442 1.2395-2.3778 1.0929-3.7071-.0335-.2936-.3978-.4068-.6532-.3984-.201.0042-.6868.1007-.6575.3984z"/><path d="m22.1413 42.7486c-.469.4403-1.0385.8135-1.5955 1.0609-.1465.0671-.2973.1258-.448.1803-.088.0294-.1759.0588-.2639.0881-.0418.0126-.0879.0252-.134.0378.0461-.0126.0294-.0084-.0418.0083-.155.0378-.3141.0713-.4732.1007-.0922.0168-.1801.0293-.2722.0419-.0251.0042-.268.0294-.1675.021-.2471.021-.6533.109-.6533.4361 0 .2978.4104.4529.6533.4361 1.7001-.1342 3.2789-.7967 4.5268-1.9667.2303-.2181-.0168-.5074-.2346-.5955-.3015-.1216-.6616-.0671-.8961.151z"/><path d="m17.7737 29.9709c-.067.2348-.201.4571-.3685.6332-.1341.1384-.3602.2809-.49.3145-.1549.0419-.469.1887-.2345.3606.2219.1636.6407.1636.8961.0965.7245-.1971 1.3024-.6668 1.5076-1.4048.0795-.2852-1.1935-.4152-1.3107 0z"/><path d="m24.1304 31.556c-.2219.3942-.5276.801-.8291 1.0778-.3644.3396-.6994.5577-1.1181.7548-.268.1258-.4271.4361-.2345.6961.1926.2642.6114.3145.8961.1845 1.005-.4654 1.8719-1.2287 2.4163-2.1974.1549-.2767.0586-.5619-.2346-.6961-.2554-.1174-.737-.1006-.8961.1803z"/><path d="m35.8933 29.6899c-.247 1.1448-.8542 2.2142-1.7462 2.948-.2261.1846-.2513.4697 0 .65.2387.172.6868.1971.9255 0 1.0385-.8554 1.8006-2.0254 2.0812-3.3506.0628-.3019-.1675-.5158-.4565-.5619-.2345-.042-.737.0042-.804.3145z"/><path d="m23.0165 43.6166c.7412-.8303 1.7379-1.2538 2.835-1.4006.1214-.0168-.0377 0 .0838-.0084.067-.0042.1298-.0084.1968-.0126.1507-.0084.3057-.0084.4564-.0042l.2262.0126c.0335.0042.067.0042.1005.0084-.0796-.0084-.0168 0 0 0 .1591.0168.3224.0419.4773.0755.6114.1174 1.093.2893 1.6751.5787.5988.2977 1.1557.6877 1.6876 1.1448.2428.2097.6784.1929.9254 0 .2555-.1971.2345-.5116 0-.7087-2.1566-1.8577-5.2303-2.7719-7.9271-1.56-.716.3229-1.3442.7842-1.8676 1.3671-.2178.2433-.0126.5745.2345.6878.3015.1384.6742.0671.8961-.1804z"/><path d="m21.978 43.2602c.3476 1.4593 1.8718 2.1093 3.2286 2.2645.8375.0964 1.6834.0503 2.5209-.0042.825-.0545 1.6499-.1762 2.4247-.4697.7286-.2768 1.4028-.7297 1.8592-1.3755.155-.218-.335-.3313-.4564-.3438-.2345-.0252-.6449-.0294-.804.197-.6952.9855-1.8467 1.321-2.9732 1.4258-.6198.0588-1.2688.0923-1.9305.063-.2177-.0126-.5821-.0588-.8501-.13-.2303-.063-.4564-.1552-.6616-.281-.4941-.3061-.9087-.7632-1.0469-1.3378-.1005-.4361-1.3861-.3312-1.3107-.0083z"/><path d="m15.1062 26.0625c-2.1776 3.2248-2.3492 7.2967-1.3191 10.9577.5318 1.8913 1.3652 3.6987 2.3618 5.3845.9213 1.5516 2.0854 3.0193 3.6516 3.9545 1.7169 1.0274 3.7144 1.4551 5.6909 1.6061 1.964.151 3.9656-.0587 5.8333-.6961 3.3333-1.1323 5.9045-3.7784 7.4288-6.9026 1.7211-3.5309 2.0184-7.5945 1.6415-11.4567-.0503-.4907-.1089-.9813-.1759-1.472-.0419-.3103-.3559-.478-.6533-.4696-.2261.0084-.6993.1467-.6532.4696.5276 3.7826.5192 7.7665-.8543 11.3813-.5653 1.4845-1.3484 2.8768-2.3618 4.1013-.5109.6206-1.0511 1.1658-1.6541 1.6606-.3099.2558-.6365.4949-.9715.7171-.3392.2223-.6156.3858-.9422.5494-.8082.4109-1.6206.7003-2.4665.8974-.9296.2181-1.742.3103-2.6633.3271-1.7588.0335-3.5678-.1971-5.2051-.8555-1.6164-.6542-2.856-1.8116-3.8526-3.2416-1.0302-1.4803-1.8426-3.1493-2.4581-4.8435-1.2312-3.38-1.5076-7.2213.1214-10.5216.1843-.3732.3936-.7297.624-1.0778.4229-.6122-.7915-.9603-1.1223-.4696z"/><path d="m40.3699 27.3457c-1.0427-1.5097-2.7597-2.2561-4.4389-2.818-2.0142-.671-4.0954-1.1533-6.2018-1.4259-1.9849-.2558-4.0033-.3522-6.0008-.239-1.8676.1049-3.7604.3984-5.4899 1.1365-.8752.3732-1.7378.8387-2.4623 1.4635-.3476.2977-.6909.671-.8585 1.1071-.1758.4571-.0921.9226.1341 1.3461.8668 1.6229 2.7386 2.4155 4.4137 2.8936 3.5385 1.0106 7.3115 1.2832 10.9505.7129 1.7839-.2768 3.5469-.7633 5.2093-1.472.8417-.3606 1.6583-.7674 2.4414-1.2412.3685-.2223.7244-.4655 1.0846-.7004.0209-.0125.046-.0251.0712-.0377-.1089.0629-.0252.0084.0083-.0042.067-.0252.1299-.0503.1969-.0755.1758-.0629.3517-.1258.515-.2139.2722-.1425.5235-.4612.201-.7129-.247-.1929-.5988-.239-.8961-.1342-.1884.0629-.4858.3188-.2345.5159.0628.0503-.0084-.0336-.0168-.0671-.0125-.0671.0126-.1007.0503-.151-.0335.0419.0879-.0545-.021.0084-.0795.0461.0126-.0042.0294-.0084-.0335.0126-.067.0293-.1005.0419-.0796.0294-.1592.0587-.2387.0881-.3308.1258-.5989.2893-.892.4822-.7035.4655-1.4405.8849-2.1985 1.2539-.7077.3439-1.4656.6458-2.2403.9016-.8082.2684-1.5327.4613-2.3241.6207-.8208.1677-1.6499.2851-2.4833.3606-.0544.0042-.113.0084-.1675.0126-.0125 0-.1298.0084-.0293.0042-.1005.0084-.2052.0126-.3057.021-.2135.0125-.4313.0251-.6449.0293-.4313.0126-.8626.0168-1.2939.0084-.8878-.0168-1.5494-.0671-2.4121-.1719-.8333-.1049-1.6624-.2475-2.4832-.4362-.3559-.0796-.691-.1635-1.0888-.2809-.402-.1133-.804-.2433-1.1976-.3942-.6784-.2642-1.3819-.6333-1.9389-1.1616-.2931-.2768-.5611-.5955-.7412-.9562-.1926-.3858-.201-.738.0126-1.1154.3936-.6962 1.2018-1.1658 1.8844-1.5307 1.4615-.7884 3.0318-1.1448 4.6859-1.3168.1173-.0125.2303-.0251.3476-.0335.046-.0042.0921-.0084.1382-.0126-.0922.0084.0209 0 .0335-.0042.2303-.0168.4648-.0293.6951-.0419.4146-.0168.8333-.0252 1.2479-.0252.9171 0 1.8844.0336 2.7471.1132 1.9304.172 3.8483.5117 5.7118 1.0359.8836.2474 1.7672.5241 2.6214.8722.6617.2726 1.3778.6374 1.9556 1.1365.2806.2432.5402.5116.7496.8177.1759.2516.5151.3103.804.2642.1592-.0294.6324-.2139.4607-.4655z"/></g><path d="m28.2719 28.9895c.1675-.1132 6.1808-5.0741 6.1808-5.0741l1.3945.8932-4.5687 3.4596-2.1733 1.2833" fill="#ff0"/><path d="m44.0925 15.0461.8376-1.9542s.67-.1678.8375-.1678 1.0008 1.0023 1.0008 1.0023l-.3894 1.1155h-2.2865z" fill="#ff0"/><path d="m30.9771 17.277 13.0903-2.0632-1.0594 12.5513-2.0603-.4446-3.6767-1.2832-3.4548-2.9606s-2.2278-2.6755-2.1733-2.8432c.0544-.1678-.6658-2.9565-.6658-2.9565z" fill="#39b54a"/><path d="m43.523 27.589c.289-3.1661.5779-6.3365.8668-9.5026.0838-.8974.1634-1.799.2471-2.6964.0251-.2726-1.2772-.3313-1.3065 0-.289 3.1661-.5779 6.3364-.8668 9.5025-.0838.8974-.1634 1.7991-.2471 2.6965-.0293.2726 1.273.3313 1.3065 0z" fill="#4a155d"/><path d="m30.1772 17.2645c.3224 2.1512 1.3568 4.1516 2.8015 5.7619 1.5452 1.7193 3.5385 2.9606 5.67 3.8119 1.2395.4948 2.5335.8471 3.84 1.1029.2596.0503.6658.0797.8961-.0755.2303-.1551-.0963-.2642-.2345-.2893-4.2755-.8303-8.4338-3.0403-10.5569-6.9948-.5569-1.0359-.9338-2.1555-1.1097-3.3171-.0502-.3397-1.3442-.26-1.3065 0z" fill="#4a155d"/><path d="m31.1404 17.4951c3.2998-.5619 6.608-1.0777 9.9245-1.5516.9464-.1342 1.897-.2684 2.8476-.3942.1298-.0168.5821-.0923.4564-.3187-.1172-.2139-.6155-.2055-.804-.1803-3.3835.4571-6.7629.9603-10.1339 1.5096-.9841.1594-1.9682.3229-2.9481.4907-.1633.0293-.4606.1887-.2345.3564.2345.1678.6198.1342.892.0881z" fill="#4a155d"/><path d="m34.0465 23.6009c-2.0937 1.7529-4.1833 3.51-6.2771 5.2629-.2178.1845-.2555.4445 0 .6248.2345.1636.6909.1971.9254 0 2.0938-1.7529 4.1834-3.51 6.2772-5.2629.2178-.1845.2554-.4445 0-.6248-.2345-.1636-.6951-.1971-.9255 0z" fill="#4a155d"/><path d="m44.6369 15.3229c.0545-.5284.1131-1.1239.423-1.5684.0586-.0839.1759-.2055.2303-.2432-.0042.0042.1424-.0881.0879-.0587.0377-.0168.0796-.0294.1173-.042-.0545.0126-.0461.0084.0251-.0042.0796-.0084.0838-.0126.0126 0h.0628c-.0712-.0042-.067-.0042.0084.0084-.0587-.0126-.0503-.0084.0209.0126-.0628-.0377.0712.0419.0796.0545-.0168-.0126.0837.0923.1047.1174.1172.172.1675.411.1046.6123-.0376.1174-.1088.2097-.201.2893-.046.042-.0753.0587-.1423.0965.0041 0-.1466.0797-.088.0503-.5862.2768-1.3651.4068-1.9556.4529-.2261.0168-.6532.0797-.6532.39 0 .2852.4397.4068.6532.39.8082-.0629 1.6164-.1971 2.3828-.4655.6113-.2138 1.2981-.6206 1.3316-1.3461.0335-.7423-.5988-1.2497-1.2646-1.3922-.7287-.1594-1.5913.088-2.052.6961-.4313.5619-.536 1.2748-.603 1.9626-.0293.2893.4523.3941.6533.39.2554-.021.6323-.1007.6616-.4026z" fill="#4a155d"/><path d="m27.5265 29.2915c.4062.6375 1.3819.6207 2.0016.3775.3015-.1175.5737-.302.8459-.4781.2848-.1803.5737-.3648.8543-.5536 1.0971-.7212 2.165-1.4929 3.1951-2.3022.5947-.4655 1.1767-.9436 1.7462-1.4384.2262-.1929-.046-.3858-.2345-.4403-.2638-.0797-.67-.0755-.8961.1174-1.1055.9519-2.2487 1.8536-3.4338 2.7006-.5905.4236-1.1935.8346-1.8049 1.2329-.2889.1888-.5778.3817-.8752.5494-.0628.0377-.1298.0713-.1968.1006-.0963.042-.0837.0126-.0293.021.0126 0 .1591.0168.1549.021-.0125.0168-.0628-.0587-.0795-.0797-.155-.239-.5528-.26-.804-.2264-.134.0209-.5989.1551-.4439.3983z" fill="#4a155d"/><path d="m11.8398 14.1528c0-.1677 1.0595-1.4509 1.0595-1.4509l1.0008-.1678 6.7965 10.878 3.1742 4.9065-1.3359.5577-1.2814-.2222z" fill="#f3c2da"/><path d="m11.4588 14.3918c2.2655 3.8665 4.6566 7.6574 7.1775 11.3603.7077 1.0442 1.428 2.08 2.1566 3.1074.3434.4865 1.562.13 1.1307-.478-2.588-3.6568-5.0544-7.4016-7.3911-11.2219-.6575-1.0778-1.3065-2.1597-1.943-3.2458-.1592-.2726-.6449-.2768-.8962-.1719-.2889.1258-.3936.3774-.2345.6499z" fill="#4a155d"/><path d="m12.6858 14.1529c-.0042-.3355.1088-.6207.335-.8849.0083-.0084.0921-.0964.0377-.0461.0293-.0252.0586-.0503.0879-.0755.0377-.0293.0754-.0587.1131-.088.0293-.021.113-.0671.0377-.0294.0418-.021.0837-.0419.1298-.0629.0209-.0084.1465-.0545.0335-.0168.0921-.0293.1884-.0419.2847-.0545.2806-.0335.5612-.3229.4565-.6122-.1173-.3271-.5109-.3817-.804-.3481-1.0972.1216-2.031 1.1071-2.0226 2.2184.0041.6625 1.3149.6625 1.3107 0z" fill="#4a155d"/><path d="m12.9035 12.5593c2.5796 4.2522 5.2429 8.4541 7.9899 12.6015.7663 1.1575 1.541 2.3107 2.3241 3.4639.3141.4613 1.541.151 1.1307-.4529-2.7555-4.0551-5.4313-8.169-8.0234-12.3332-.7287-1.1658-1.4448-2.34-2.1608-3.5142-.1675-.2767-.4942-.3732-.804-.3103-.201.0336-.624.2684-.4565.5452z" fill="#4a155d"/><path d="m21.6555 28.1089c-.3015-.0293-.7244-.0042-.8626.3271-.1047.2474.0879.4529.2848.5703.3475.2097.7495.3062 1.1515.3271.7329.042 1.4992-.2348 1.9933-.7884.2052-.2348.0042-.5032-.2345-.5996-.2805-.1133-.6867-.0797-.8961.1551-.1047.1174-.1633.172-.3225.2558-.0335.021-.0335.021.0042-.0042-.0167.0084-.0335.0168-.0544.0252-.0377.0126-.0712.0294-.1089.0419-.046.0168-.0754.021-.0125.0042-.0461.0126-.0964.021-.1424.0294-.0126.0042-.134.0126-.0587.0084.0796-.0042-.046 0-.0586 0-.0293 0-.1633-.0126-.0293.0042-.0377-.0042-.0754-.0084-.1131-.0168-.0376-.0084-.0753-.0168-.113-.0252.0628.0168.0335.0126-.0084-.0084.0042 0-.134-.0587-.0921-.0377s-.0796-.0545-.0796-.0545c.0545.0629.1131.13.1675.1929-.0084-.0168-.0167-.0294-.0251-.0461v.2348c-.0126.0168-.0209.0293-.0335.0461-.2471.0671-.4941.1342-.737.2013.0125 0 .0209 0 .0335.0042.2764.0252.6826 0 .804-.3061.1089-.281-.2136-.5158-.4565-.541z" fill="#4a155d"/></svg>