<svg fill="none" height="1024" viewBox="0 0 56 56" width="1024" xmlns="http://www.w3.org/2000/svg"><path d="m7.393 36.7011c.54115-1.2695 3.5175-2.1922 4.3057-2.8329 6.1409-5.0016 16.9699-12.3952 23.6343-17.4203 2.8117-2.1218 6.7468-5.5659 8.6114-4.6196.4706.241.6823.6876.8412 1.052 1.9058 4.3434 1.0646 8.6397 1.0529 9.1334-.1118 3.5616-.1765 5.7186-1.1529 8.6044-.5 1.4752-1.4588 4.1964-3.8881 6.9293-.4235.4761-2.294 2.5273-5.4645 4.1964-4.0469 2.1335-7.7232 2.3392-9.4525 2.4156-.8294.0353-4.5998.1587-9.1408-1.3635-2.1764-.7347-3.9352-1.8514-7.45855-4.0906-1.07642-.6936-2.18226-1.3224-1.88815-2.0042z" fill="#aee8bf"/><path d="m11.381 34.1856c-.1706 1.7573 3.4881 3.4324 4.9351 4.0906 4.141 1.8925 7.8879 1.9278 9.2408 1.8867 1.747-.0471 4.5175-.147 7.6703-1.681 3.2881-1.5986 5.1292-3.8555 5.5644-4.4079 2.3705-3.0092 2.9293-6.0713 3.2587-7.8698.4588-2.5213.3177-4.4902.2118-5.9831-.0177-.2586-.1588-2.057-.8412-4.3022-.7235-2.3803-1.2411-2.5801-1.4705-2.6213-.6294-.1116-1.1117.6407-2.0999 1.5752-1.347 1.2695-1.947 1.293-3.994 2.6212-2.1822 1.4165-2.594 2.1041-4.935 3.9907-1.5235 1.2225-1.3294.9169-6.6174 4.5138-9.5055 6.4592-6.3292 4.8606-8.2997 5.9831-1.5234.864-2.5352 1.3166-2.6234 2.204z" fill="#f2dafb"/><g fill="#5e117b"><path d="m8.02238 37.3181c2.25282-1.7925 4.60572-3.4558 6.92912-5.1485 2.3646-1.7279 4.7292-3.45 7.0879-5.1779 4.6646-3.4088 9.3055-6.8471 14.0112-10.203 2.5882-1.8455 5.2116-3.6498 7.9056-5.3425.2941-.1881.2529-.5936 0-.7876-.3059-.2351-.7294-.1939-1.0411 0-4.8234 3.0269-9.4055 6.4063-13.9995 9.7623-4.7115 3.4499-9.429 6.8941-14.1464 10.3382-2.6058 1.9042-5.25865 3.7614-7.78207 5.7715-.27058.2116-.27646.576 0 .7875.27646.2175.75879.2234 1.03525 0z"/><path d="m37.874 19.0103c-.8999.3879-1.5999 1.2049-1.6352 2.2158-.0353.9697.5882 1.9219 1.4705 2.3098.5294.2351 1.3353.3056 1.847-.0059.3765-.2233.4235-.6583.1236-.9756-.4353-.4585-1.2235-.4643-1.7882-.3233-.5412.1352-.9588.4996-1.3176.9051-.6882.7876-1.1235 1.8161-1.2058 2.8564-.0706.8816.1823 1.916 1.1235 2.2157.5529.1764 1.2293.1587 1.7587-.0764.3294-.1469.6647-.4231.6588-.8169-.0059-.5172-.5235-.8346-.9647-.9521-.6411-.1646-1.3529-.0823-1.9352.2233-.9294.4878-1.4823 1.4752-1.8646 2.4156-.1941.4819-.3823.9756-.5294 1.4752-.1471.5172-.2176 1.0814.0176 1.5869.4177.8757 1.8823 1.0109 2.6588.6288.3705-.1822.5882-.5583.4646-.9638-.147-.482-.6117-.7817-1.0764-.8993-1.2588-.3174-2.3881.3056-3.4175.958-.8882.5642-1.7705 1.2519-2.294 2.1864-.2294.4114-.3941.9286-.1706 1.3812.2294.4525.8647.5407 1.3176.5407.3941 0 1.0529-.0882 1.1941-.5349.1411-.4349-.3-.7288-.6529-.8522-.5824-.2057-1.2176-.1763-1.8294-.1352-.5705.0353-1.1411.1293-1.694.2704-1.1.2821-2.1588.7464-3.0823 1.4047-.3764.2703-.9293.623-.994 1.1284-.0765.6054.6117.8229 1.0882.8287.6117.0118 1.1411-.2057 1.2823-.8404.1-.4585-.0706-.9639-.3412-1.3342-.6588-.8875-1.9411-1.1578-2.9822-1.2401-1.2-.094-2.4235.0529-3.5411.4878-.4882.1881-1.0352.4232-1.4293.7758-.1647.147-.3235.3644-.2235.5936.1.2351.3705.3292.6058.3762.6118.1293 1.2647-.0118 1.8058-.3056.3412-.1881.7647-.5114.8059-.9345.047-.5114-.5353-.7464-.9353-.8464-.6294-.1528-1.2999-.2057-1.947-.2233-1.1881-.0294-2.5234.094-3.6174.5819-.753.335-1.8 1.1695-1.4059 2.1217.1941.4643.7412.6935 1.1764.8757.5236.2174 1.0412.4408 1.5588.6759 2.2705 1.0461 4.6175 1.7573 7.1174 1.9512 2.3587.1822 4.7703.0177 7.0526-.6171 2.1411-.5936 4.1704-1.5633 5.9409-2.9092.2-.1529.3824-.335.5883-.4702.0764-.0529.1705-.0764.247-.1352.1176-.0764.2176-.1881.3235-.2821.4059-.3762.8059-.7641 1.1823-1.1755.7118-.7699 1.3647-1.5986 1.9058-2.4978 2.3587-3.8791 2.9705-8.7749 2.2352-13.2064-.1823-1.099-.4529-2.1863-.7999-3.2501-.1412-.4408-1.5588-.2704-1.4706 0 1.0882 3.35 1.3941 6.9587.7647 10.4322-.3176 1.7279-.8529 3.4324-1.6588 4.9957-.7529 1.4694-1.7763 2.7741-2.941 3.932-.2529.2527-.5235.5818-.8235.764-.3588.2233-.6823.4996-1.0294.7523-.6764.4996-1.3881.9463-2.1352 1.3342-1.4411.7581-2.994 1.2753-4.5939 1.5751-1.7117.3173-3.4763.3409-5.1998.1352-1.8352-.2175-3.5587-.7817-5.2351-1.534-.4176-.1881-.8293-.3938-1.247-.576-.347-.1528-.7235-.2586-1.0588-.4467-.3293-.1822-.547-.4231-.4999-.8228.0411-.3526.2529-.6877.5176-.9169.5764-.4995 1.4176-.6465 2.147-.7229.3999-.0411.7999-.0529 1.1999-.0235.2235.0176.4529.0412.6765.0764.1235.0177.2823.0294.3823.1117.2588.2233.0353.576-.1588.7523-.1059.094-.2353.1763-.3647.241-.0412.0176-.1235.047-.1412.0587-.0882.047-.4176-.0176.2118.047.2411.1117.3294.1058.2705 0-.0176-.0235-.0176-.047-.0117-.0705.1235-.3526.6176-.5466.9411-.6935.3529-.1646.7235-.288 1.1-.3762 1.2411-.2762 3.4704-.1175 3.5939 1.5517.0118.1704 0 .3467-.0588.5054-.0294.0764-.0882.1352-.1235.2057-.1.2116.8058-.1234.8353.0294-.0059-.0353-.0589-.0823-.0765-.1175-.1588-.3821.2706-.7112.5294-.911.6588-.5114 1.3999-.9169 2.1822-1.199.7235-.2586 1.4823-.3997 2.2529-.4114 0 0 .1588 0 .0765 0-.0765-.0059.047.0059.0529.0059-.0647-.0294.0353.0176.0471.0235.1058.0646.1823.1587.1764.288 0 .0587-.0529.1704-.0529.1704-.0177-.0411.5176.0059.5235 0-.0059.0118-.0647-.0705-.0824-.094-.2176-.3115-.0705-.7817.0824-1.0873.1882-.3644.4411-.6936.7235-.9874.5647-.5878 1.2588-1.0403 1.9587-1.4517.1706-.0999.3412-.2057.5235-.2939.0824-.0411.1706-.0764.253-.1117.0353-.0117.0764-.0293.1176-.0411.0529-.0176.2059-.0176.0412-.0235-.0765 0-.1-.047-.0647 0s.1294.0823.1764.1234c.1177.1058.2118.2586.2471.4114.0294.1411.0118.288-.0647.4056 0 0-.1059.141-.1177.1234 0 0 .2471-.0294.2647-.0294.0706 0 .1.0353.0706 0-.0176-.0235-.1-.0529-.1235-.0647-.1118-.0705-.2-.1763-.2647-.2879-.3941-.7347.0647-1.7339.3235-2.4391.2765-.7464.6059-1.4929 1.1353-2.0924.1235-.1351.2529-.2586.3941-.3702.0764-.0588.1588-.1176.247-.1646.0353-.0176.0706-.0353.1059-.0529.0882-.0411.0765 0 .0471-.0294-.0059-.0059-.2177-.0117-.2177-.0117 0 .0117.0236.0117.0294.0176.0236.0529.1412.1117.1824.1704.0882.1235.1294.2822.0941.435-.0235.0999-.0882.1939-.1647.2586-.0353.0294-.0765.047-.1118.0705-.0235.0176-.0529.0176-.0529.0176 0-.0058.1882-.0176.2117-.0176.1471.0118.1883.0882.0942 0-.053-.0529-.1118-.0882-.1647-.1411-.1177-.1234-.2059-.2762-.2647-.4349-.2706-.6817-.1471-1.5398.0647-2.2216.2353-.7582.6882-1.4987 1.2823-2.0218.0764-.0705.1647-.1352.2529-.1881.0176-.0117.0882-.0411.1-.0588.0706-.1116-.4294.0529-.4529-.0352.0176.0881.1647.1704.1882.2821.0118.0588.0118.1234-.0059.1822-.0588.1528-.247.1234.1706.0764.3588-.0411.2882.0059.1529-.0823-.0823-.0529-.1647-.1058-.247-.1704-.5588-.4643-.847-1.2284-.747-1.9454.0941-.6759.5529-1.34 1.1881-1.6163.2471-.1058.2647-.288 0-.3879-.3117-.0705-.7587-.0823-1.0529.047z"/><path d="m6.91651 36.9715c3.02929 2.9445 6.75859 5.1661 10.81719 6.371 4.0704 1.2107 8.4526 1.4223 12.5877.429 3.8822-.9345 7.5291-2.8564 10.3761-5.6716 3.0528-3.0209 4.9351-7.0234 5.6586-11.2316.8058-4.6959.1529-9.5388-1.3941-14.0174-.1882-.5524-.3941-1.1049-.6117-1.6515-.1647-.4173-1.547-.1998-1.4706 0 1.7058 4.3022 2.6587 8.957 2.2705 13.5943-.3529 4.2199-1.8176 8.381-4.5174 11.6841-2.4117 2.9504-5.6939 5.1367-9.2997 6.3592-3.6469 1.2343-7.4408 1.3812-11.1818.529-3.9293-.8993-7.6409-2.8446-10.68195-5.4777-.38822-.335-.76468-.6818-1.13525-1.0403-.21176-.2057-.62939-.1998-.90584-.1704-.07059 0-.69998.1117-.51175.2939z"/></g></svg>