<svg xmlns="http://www.w3.org/2000/svg" width="1024" height="1024" fill="none" viewBox="0 0 56 56"><circle cx="28.109" cy="28" r="17.172" fill="#fff"/><g fill="#003e00"><path d="M44.716 28.053a17 17 0 0 1-.117 2.032l-.02.164-.003.027c.006-.06-.007.037-.007.05-.017.11-.03.217-.05.328a17.3 17.3 0 0 1-1.06 3.78c-.01.023-.064.154-.03.07l-.064.147-.14.311a17 17 0 0 1-1.986 3.286c.05-.067-.013.02-.033.04-.033.04-.063.084-.097.124a17 17 0 0 1-2.454 2.5l-.243.2c-.04.034-.084.067-.124.098l-.054.04c-.066.05.09-.07-.023.016a17.5 17.5 0 0 1-3.292 1.976l-.271.12-.147.064a18 18 0 0 1-.689.267 17 17 0 0 1-3.182.826l-.304.047c-.014.003-.11.016-.05.006l-.027.004q-.094.01-.187.023a17.5 17.5 0 0 1-4.065-.007l-.164-.02c-.06-.006.007 0 .017.004l-.094-.014-.324-.05a17.2 17.2 0 0 1-3.777-1.066l-.083-.034c.006.004.066.03.013.007l-.147-.063-.29-.13a17.5 17.5 0 0 1-3.287-1.983c.074.057-.04-.03-.06-.047-.04-.033-.084-.063-.124-.097a12 12 0 0 1-.26-.214 17 17 0 0 1-2.527-2.61l-.04-.054c.03.04.02.027-.004-.006a17.5 17.5 0 0 1-1.701-2.72 14 14 0 0 1-.274-.576l-.13-.291-.047-.107c.02.05-.007-.02-.01-.023-.014-.037-.03-.07-.044-.107a17 17 0 0 1-.795-2.477 16 16 0 0 1-.301-1.618l-.01-.07-.024-.187a17 17 0 0 1-.057-3.376c.02-.228.04-.458.07-.686l.02-.164.007-.053a17 17 0 0 1 .318-1.651q.313-1.266.805-2.47c.01-.02.017-.044.027-.064l.004-.007.053-.127.14-.31a17 17 0 0 1 .906-1.701 17 17 0 0 1 .883-1.311l.093-.127.054-.07.03-.04c-.034.043.013-.017.017-.02l.056-.07a15 15 0 0 1 .31-.384 17.5 17.5 0 0 1 2.492-2.431l.107-.084c.01-.007.083-.067.036-.03-.04.033.03-.023.04-.03a17.4 17.4 0 0 1 3.293-1.969l.29-.13.07-.03.171-.07a18 18 0 0 1 1.825-.625 17 17 0 0 1 2.263-.468c.06-.007-.006 0-.016.003a1 1 0 0 0 .093-.014q.094-.01.187-.023 1.351-.155 2.711-.094a19 19 0 0 1 1.494.128 11 11 0 0 1 .424.063c.218.037.432.074.646.12a16.6 16.6 0 0 1 3.125.96c.004.003.074.03.024.01l.047.02c.043.016.083.037.127.053l.31.14a17 17 0 0 1 3.012 1.792l.127.094.077.06a17.2 17.2 0 0 1 2.935 2.905l.083.107c.01.013.057.073.004.006l.053.07a17.2 17.2 0 0 1 1.965 3.296l.131.291c.01.027.054.127.02.047l.07.17a16.8 16.8 0 0 1 1.046 3.787q.026.165.048.328c-.014-.09.006.05.01.077l.02.164a17 17 0 0 1 .11 1.952c0 .27.23.501.501.501a.51.51 0 0 0 .502-.501 17.7 17.7 0 0 0-.856-5.438 17.6 17.6 0 0 0-2.383-4.754 18 18 0 0 0-3.727-3.86 17.54 17.54 0 0 0-10.022-3.597 17.58 17.58 0 0 0-10.345 2.865 17.8 17.8 0 0 0-3.94 3.526 17.9 17.9 0 0 0-2.759 4.613 17.76 17.76 0 0 0-.796 10.84 17.6 17.6 0 0 0 2.043 4.94 17.8 17.8 0 0 0 3.383 4.065 17.5 17.5 0 0 0 4.429 2.881 17.8 17.8 0 0 0 5.301 1.464 17.7 17.7 0 0 0 5.566-.244 17.5 17.5 0 0 0 5.03-1.865 17.75 17.75 0 0 0 7.22-7.554 17.5 17.5 0 0 0 1.638-5.134q.211-1.367.218-2.751a.51.51 0 0 0-.502-.502.51.51 0 0 0-.501.505"/><path d="m22.163 27.298 5.201-4.8 6.271 4.201-2.136 7.337-5.8.264zm-7.604-9.671c.067.268 1.2 8.805 1.2 8.805l-1.802 4.87-2.931-1.003-.268-3.867 1.067-4.47zm2.002 23.078c.067-.2.468-4.269.468-4.269l5 1.869 3.604 4.733-1.334 1.802-4.201-1.535zM21.03 13.96l1.468-2.27 4.933-.999 5.004.87 1 2.931-6.271 1.601zm18.408 4.934-.067 6.271 2.534 7.07 3.135-2.668.268-3.336-.87-4-1.868-3.47zM33.1 42.904c.134-.267 3.203-4.201 3.203-4.201l3.8-1.602.134 3.002-2.668 2.467-2.734 1.4z"/><path d="M22.457 27.866a31.2 31.2 0 0 1 5.222-5.088c.214-.163.327-.43.18-.685-.124-.21-.468-.344-.685-.18a32 32 0 0 0-5.425 5.244c-.17.21-.204.505 0 .709.174.177.535.214.708 0m3.056 6.712c1.985.134 3.984.1 5.963-.104.26-.027.515-.21.501-.501-.01-.248-.22-.532-.501-.502a35 35 0 0 1-5.963.104c-.261-.017-.512.244-.502.501.014.285.22.482.502.502"/><path d="M27.258 22.865c.879.926 1.928 1.675 2.994 2.37 1.134.739 2.283 1.45 3.427 2.176.227.144.551.047.685-.18a.51.51 0 0 0-.18-.685c-1.127-.712-2.257-1.418-3.377-2.143-1.033-.672-1.992-1.35-2.84-2.246a.51.51 0 0 0-.71 0 .51.51 0 0 0 0 .708zm-5.586 4.998a101 101 0 0 0 3.242 6.247.51.51 0 0 0 .685.18.51.51 0 0 0 .181-.685 100 100 0 0 1-3.242-6.247c-.117-.244-.468-.308-.686-.18-.25.146-.297.44-.18.685"/><path d="M27.906 22.364a77 77 0 0 1-.18-6.314c.003-.261-.235-.515-.502-.502a.51.51 0 0 0-.501.502c-.027 2.106.03 4.211.18 6.314.02.26.217.515.501.501.258-.01.522-.22.502-.501m5.432 4.639c-.134 1.14-.498 2.324-.91 3.423-.437 1.163-.939 2.303-1.42 3.446-.104.244.11.562.35.619.295.067.509-.09.62-.351.972-2.31 2.068-4.62 2.366-7.137.03-.26-.254-.511-.502-.5-.3.012-.47.22-.504.5m-8.407 6.809-3.31 4.296c-.243.317.094.748.435.755a.81.81 0 0 0 .729-.418.507.507 0 0 0-.18-.685.505.505 0 0 0-.686.18.2.2 0 0 1 .137-.08l.435.756 3.31-4.296c.163-.214.033-.561-.181-.685-.261-.154-.522-.04-.689.177"/><path d="M31.355 34.625c1.378 1.467 2.751 2.938 4.129 4.405.183.197.521.187.708 0a.51.51 0 0 0 0-.709c-1.377-1.467-2.75-2.938-4.128-4.405-.184-.197-.521-.187-.709 0a.507.507 0 0 0 0 .709m9.35 2.537 1.745-4.8c.09-.248-.1-.562-.351-.619-.285-.063-.522.087-.619.351l-1.745 4.8c-.09.248.1.562.351.619.284.063.522-.084.619-.351"/><path d="M35.734 38.666a30 30 0 0 1-3.021 3.837.51.51 0 0 0 0 .709c.187.187.524.2.708 0a32.4 32.4 0 0 0 3.176-4.038c.15-.224.043-.555-.18-.685-.241-.147-.532-.05-.683.177m-1.658-11.392a65 65 0 0 1 5.385-1.397c.264-.057.418-.368.351-.618-.077-.275-.35-.408-.618-.351q-2.722.582-5.385 1.397a.515.515 0 0 0-.351.618.51.51 0 0 0 .618.351"/><path d="m39.027 25.63 2.336 6.334c.094.254.341.428.619.35.244-.066.444-.36.35-.617q-1.167-3.17-2.336-6.335c-.093-.254-.34-.428-.618-.35-.248.07-.448.364-.351.618"/><path d="M39.953 25.366a68 68 0 0 1 .067-6c.013-.261-.241-.512-.502-.502a.514.514 0 0 0-.501.502 68 68 0 0 0-.067 6c.01.26.224.514.501.501.264-.013.512-.22.502-.501m-12.518-9.179a80 80 0 0 0 5.876-1.103c.264-.06.421-.365.35-.619-.073-.27-.35-.41-.618-.35a80 80 0 0 1-5.876 1.102c-.267.04-.414.378-.35.619.08.287.347.39.618.35z"/><path d="M33.328 15.004a102 102 0 0 0 5.866 4.375c.224.154.558.04.685-.18.147-.251.044-.532-.18-.686a100 100 0 0 1-5.663-4.218c-.21-.17-.501-.207-.708 0-.174.174-.21.538 0 .709"/><path d="m33.836 14.432-.933-2.801c-.087-.258-.344-.425-.618-.351-.25.07-.435.357-.351.618q.467 1.401.929 2.801c.087.258.344.425.618.351.255-.07.438-.36.355-.618m8.487 18.288a47 47 0 0 1 2.874-2.728c.204-.177.184-.528 0-.709-.204-.204-.505-.177-.708 0a47 47 0 0 0-2.875 2.728.51.51 0 0 0 0 .708.51.51 0 0 0 .709 0zM39.84 19.422c.908-.046 1.82-.097 2.73-.143.26-.014.515-.221.501-.502-.01-.26-.22-.515-.501-.501l-2.73.144c-.262.013-.516.22-.502.501.01.26.22.518.501.501zM21.659 38.693a58 58 0 0 0 3.362 4.626c.17.21.532.177.709 0 .207-.208.17-.498 0-.709a56 56 0 0 1-3.206-4.422.51.51 0 0 0-.685-.18c-.224.13-.327.457-.18.685"/><path d="m24.313 44.816.026.014-.18-.18c.003.01.01.016.013.026a6 6 0 0 1-.067-.254q0 .015-.003.03l.147-.354-.02.023.354-.147h-.03l.355.147-.024-.02.13.22-.01-.03v.268l.01-.027-.13.22.595-.691a8 8 0 0 0 .288-.368c-.027.033.026-.03.023-.03.03-.033.094-.134.137-.14 0 0-.08.066-.087.05 0 .003.16.01.177.01.16.01.325.016.485.023a38 38 0 0 0 6.668-.284c.261-.033.515-.207.502-.501-.01-.244-.224-.539-.502-.502a38.5 38.5 0 0 1-6.798.281c-.405-.02-.78-.084-1.12.187-.124.1-.217.224-.314.351q-.03.04-.06.084c.006-.01-.094.12-.047.067.036-.047-.037.04-.04.043-.037.04-.07.084-.107.124l-.425.494c-.194.224-.328.478-.16.763.18.31.615.35.862.096.234-.24.18-.711-.14-.859-.248-.11-.538-.07-.686.181-.127.214-.07.575.178.685m-2.487-6.856a28 28 0 0 1-4.155-1.544c-.244-.113-.542-.07-.685.18-.127.218-.067.572.18.686a30 30 0 0 0 4.392 1.645c.251.07.558-.087.619-.351a.513.513 0 0 0-.351-.615z"/><path d="M16.608 36.9a26 26 0 0 0-.25 4.002c.003.26.227.515.5.501.268-.013.505-.22.502-.501-.02-1.247.047-2.51.214-3.737.037-.257-.064-.552-.351-.618-.234-.047-.575.077-.615.354zm4.89-10.114a56 56 0 0 1-5.669-.772c-.257-.047-.555.07-.618.351-.057.247.073.565.35.618 1.963.368 3.945.639 5.937.806.26.023.511-.247.501-.501-.013-.291-.22-.478-.5-.502z"/><path d="M15.14 26.696a46 46 0 0 1-1.744 4.416c-.114.247-.07.538.18.685.217.127.572.067.685-.18a48 48 0 0 0 1.849-4.657c.083-.247-.097-.558-.351-.618a.524.524 0 0 0-.618.354z"/><path d="m13.49 31.71 3.322 5.435a.51.51 0 0 0 .685.18.51.51 0 0 0 .18-.685c-1.106-1.811-2.216-3.623-3.322-5.435a.51.51 0 0 0-.685-.18.51.51 0 0 0-.18.685"/><path d="M13.56 30.627a8 8 0 0 1-2.013-.558c-.247-.107-.538-.074-.685.18-.124.214-.07.578.18.685a8.6 8.6 0 0 0 2.253.659c.258.037.552-.064.619-.351.05-.237-.077-.575-.355-.615zm.695-12.064c.237 2.701.575 5.395 1.016 8.07.043.267.374.417.618.35.284-.076.395-.347.351-.618-.428-2.59-.752-5.188-.983-7.805-.023-.26-.214-.515-.5-.501-.255.013-.53.224-.502.504m7.648-6.805a9.3 9.3 0 0 1-1.491 2.049.51.51 0 0 0 0 .708.507.507 0 0 0 .708 0 10.6 10.6 0 0 0 1.648-2.253.51.51 0 0 0-.18-.685.51.51 0 0 0-.685.18z"/><path d="M27.505 15.482c-2.203-.345-4.255-1.274-6.435-1.725-.257-.054-.555.073-.618.35-.057.251.077.559.35.619 2.177.451 4.233 1.38 6.435 1.725.258.04.552-.067.619-.351.053-.24-.074-.575-.351-.618"/><path d="M20.325 13.783c-.712.622-1.568 1.15-2.427 1.638-.869.492-1.755.95-2.597 1.484-.498.315-.98.659-1.434 1.037-.207.173-.18.531 0 .708.207.208.501.174.709 0 .715-.591 1.604-1.123 2.456-1.6.87-.485 1.755-.95 2.59-1.495q.746-.479 1.415-1.06c.204-.177.184-.528 0-.708-.207-.207-.508-.184-.712-.004M32.84 43.646q.749.286 1.517.522c.25.077.558-.09.619-.351a.51.51 0 0 0-.351-.619 25 25 0 0 1-1.518-.521c-.244-.094-.561.104-.618.351-.067.287.087.518.35.618zm3.359-4.342c.565-.34 1.17-.538 1.792-.779l1.992-.768c.254-.097.428-.338.35-.619-.066-.24-.364-.448-.618-.35l-2.055.792c-.666.257-1.354.484-1.97.855a.51.51 0 0 0-.18.685c.14.234.458.325.689.184"/><path d="M39.722 37.242a20.5 20.5 0 0 0-.154 2.861c.004.26.228.515.502.501.267-.013.504-.22.501-.5q-.02-1.437.154-2.862c.033-.26-.254-.512-.502-.501-.3.013-.468.22-.5.5z"/></g></svg>