<svg xmlns="http://www.w3.org/2000/svg" width="1024" height="1024" fill="none" viewBox="0 0 56 56"><path fill="#f0cec7" d="m16.985 53.75.221-1.04 4.467-4.287 2.681-1.25 6.952-1.964 6.074-2.682 5.269-3.75 2.681-2.145 2.77-1.517 1.16-2.771-.358-1.786-3.393.179s-5.626-1.07-6.164-1.07-4.288-1.07-4.288-1.07-2.498-2.502-2.856-2.502c-.353 0-.701-3.124-.701-3.124l1.238-.448 2.413-.895s3.035-1.16 3.483-1.338c.447-.18 1.696-1.518 1.875-1.786.18-.27.448-1.876.448-1.876L39.08 15.02l-3.214 1.249-2.323 1.875-1.607 2.144s-.716 2.055-.806 2.324c-.089.268-1.159.358-1.159.358l-2.592.179s-2.587-.716-3.214-.896c-.622-.179-1.338-1.159-1.517-1.517s.269-2.681.269-2.681l1.965-.627 4.82-1.786 2.592-2.054s2.503-3.304 2.771-3.483c.269-.179.09-3.482.09-3.482l-1.607-1.339-2.771 1.607-3.572 2.856s-3.751 5.09-3.84 5.358-1.16 2.77-1.16 2.77-2.587-.895-2.856-.805-5.806.269-5.806.269-4.462 2.323-4.73 2.412c-.27.09-3.036 3.393-3.215 3.751s-3.124 4.289-3.482 4.557c-.179.134-1.134.955-2.058 1.779C.757 40.598 7.531 49.7 16.985 53.75"/><g fill="#621a0b"><path fill-rule="evenodd" d="M17.284 53.876a12.7 12.7 0 0 1 3.329-4.272 11.5 11.5 0 0 1 3.572-2.03c1.49-.19 2.968-.499 4.409-.897 4.373-1.213 8.522-3.147 12.166-5.869.646-.482 1.265-1 1.883-1.517l.002-.001c.46-.385.92-.77 1.392-1.14a12.3 12.3 0 0 1 1.674-1.11l.116-.065.007-.003h.001c.243-.134.487-.268.736-.382a1 1 0 0 0 .259-.052q.234-.087.456-.194a2 2 0 0 1 .202-.034c.193-.027.502-.166.513-.381a4.9 4.9 0 0 0 1.532-1.705c.546-1.007.784-2.274.457-3.389-.265-.904-1.427-.685-2.228-.533q-.18.034-.328.059a1.3 1.3 0 0 0-.19.045 37 37 0 0 1-7.044-.793c-2.296-.483-4.73-1.164-6.463-2.838-.824-.796-1.482-1.8-1.76-2.923a5 5 0 0 1-.13-.862 25.7 25.7 0 0 0 5.095-1.604c1.16-.501 2.31-1.06 3.263-1.902.788-.699 1.687-1.836 1.388-2.968-.31-1.164-1.63-1.406-2.673-1.37-2.57.09-5.116 1.392-6.763 3.357-.793.945-1.42 2.077-1.643 3.3q-.082.447-.077.896a25 25 0 0 1-2.421.29c-.533.04-1.034.058-1.558-.018-.989-.148-1.84-.712-2.417-1.545-.658-.944-.908-2.112-.846-3.254l.007-.11c2.74-.274 5.458-1.222 7.661-2.894a13.4 13.4 0 0 0 1.62-1.44c.256-.27.493-.547.721-.838.079-.101.164-.19.252-.282l.097-.103c.088-.096.137-.198.188-.303a2 2 0 0 1 .09-.171c.1-.175.211-.342.324-.51.11-.164.22-.33.32-.502a10 10 0 0 0 .497-1.007c.282-.69.461-1.441.461-2.189 0-.837-.17-1.643-.86-2.175-.751-.582-1.946-.703-2.748-.153a.46.46 0 0 0-.156.177 24.3 24.3 0 0 0-5.815 4.774 23.7 23.7 0 0 0-2.408 3.214c-.671 1.079-1.249 2.247-1.513 3.5a6 6 0 0 0-.068.38 12.86 12.86 0 0 0-7.286-1.038c-2.534.385-4.897 1.594-6.75 3.358a13 13 0 0 0-2.539 3.366.3.3 0 0 0-.03.085l-.032.044C3.802 25.61 2.018 27.582.03 29.34q.035.724.105 1.44.753-.621 1.475-1.278c1.835-1.674 3.491-3.554 4.82-5.658a.5.5 0 0 0 .079-.225.5.5 0 0 0 .141-.164 12.14 12.14 0 0 1 4.624-4.825 10.6 10.6 0 0 1 3.089-1.191c.309-.063.617-.117.93-.152l.113-.014.112-.013a9 9 0 0 1 .6-.036 11 11 0 0 1 1.768.085c1.378.188 2.676.613 3.907 1.312l.006.003c.05 1.886.964 3.715 2.819 4.468 1.307.529 2.797.466 4.172.34q.842-.075 1.68-.2c.09.763.35 1.506.737 2.175 1.284 2.233 3.733 3.415 6.123 4.095 2.74.78 5.596 1.209 8.433 1.348q.641.03 1.284.044c.197.14.567.15.758.121l.338-.053.18-.03.158-.024.11-.016a.3.3 0 0 1 .028.06c.017.05.026.105.035.16l.01.055a4.35 4.35 0 0 1-.206 2.26 4.7 4.7 0 0 1-.926 1.532 4.7 4.7 0 0 1-.683.6 5.2 5.2 0 0 0-1.582.6l-.328.186c-.406.23-.81.458-1.194.722-.83.567-1.6 1.212-2.37 1.858l-.003.002q-.303.255-.608.508a32.6 32.6 0 0 1-5.663 3.733c-1.925 1.007-3.948 1.809-6.034 2.453-1.097.34-2.184.627-3.308.85a26 26 0 0 1-3.505.462c-2.663.152-5.241-.157-7.753-1.124-.286-.112-.734-.085-.957.148-.233.242.017.474.25.564 2.645 1.019 5.444 1.365 8.239 1.24-2.203 1.027-4.09 2.72-5.383 4.78q-.26.414-.485.844.551.258 1.118.492zM31.681 6.659q.311-.21.63-.409a.9.9 0 0 0 .503-.132 1 1 0 0 1 .16-.09h.004c.017.008.188.014.068-.004l.01.001q.046.005.089.016l.027.005.036.013.017.007c.144.056.153.06.278.15.05.036.175.152.237.246.318.443.314 1.186.269 1.733-.054.649-.246 1.266-.515 1.857a9 9 0 0 1-.492.931 6 6 0 0 1-.232.348c-.117.169-.235.338-.323.516a1 1 0 0 1-.22.322c-.09.09-.17.19-.248.288l-.105.129q-.302.374-.636.72a11 11 0 0 1-1.379 1.24 12.9 12.9 0 0 1-3.2 1.777 16 16 0 0 1-1.012.345l-.025.008-.025.007a4 4 0 0 1-.214.061l-.05.013-.048.014-.032.009q-.268.069-.537.13a15 15 0 0 1-1.388.244c.415-2.015 1.675-3.86 2.915-5.441a23.7 23.7 0 0 1 5.438-5.054m1.885 15.273q-.851.27-1.722.478a5.5 5.5 0 0 1 .509-1.99c.962-2.078 2.847-3.707 5.004-4.446a7 7 0 0 1 1.63-.349l.01-.001.007.001q.047.004.098.001l.046-.001h.015l.03.005c.017.004.205.03.062.004a.94.94 0 0 1 .425.157c.408.255.578.743.564 1.204-.018.56-.286 1.07-.613 1.508-.68.913-1.647 1.54-2.65 2.05a23 23 0 0 1-3.415 1.379" clip-rule="evenodd"/><path d="M27.971 31.632a.94.94 0 1 0 0-1.88.94.94 0 0 0 0 1.88"/></g></svg>