<svg xmlns="http://www.w3.org/2000/svg" width="1024" height="1024" fill="none" viewBox="0 0 56 56"><path fill="#fdf1c0" d="M40.627 52.998A27.883 27.883 0 0 1 28 56a27.898 27.898 0 0 1-18.857-7.302c.507-1.498.86-3.08 1.248-4.808l.002-.01c.547-2.45.594-4.932.689-9.889v-.002c.015-.764.018-1.393.021-1.929.01-1.815.014-2.547.44-3.774 1.13-3.265 2.835-5.993 2.835-5.993s-3.332-2.378-3.46-4.263c-.058-.902.573-1.408 3.51-3.767a459.743 459.743 0 0 0 3.075-2.49C20.046 9.695 21 8.915 22.87 8.062c2.234-1.017 3.572-1.132 4.214-1.154a9.5 9.5 0 0 1 4.598 1.01c2.081 1.067 3.107 2.623 3.6 3.394.579.903.71 1.423.848 1.973.128.508.262 1.041.762 1.925.24.423 1.629 2.808 4.519 4.404 1.5.829 2.356 1.299 3.524 1.227.19-.013.371-.038.546-.063.489-.069.918-.13 1.293.135.272.191.35.436.432.698.086.268.176.554.489.818.386.33.847.397 1.162.443.211.03.357.052.372.136.065.391-2.452 1.01-2.452 1.01-4.38 1.078-8.39 3.54-10.033 4.766-.994.742-5.037 3.764-5.592 8.519-.471 4.053 1.828 7.31 2.988 8.953 2.385 3.379 4.913 5.495 6.487 6.74z"/><path fill="#dbdbca" d="M14.367 22.148c.018-1.028 1.414-2.417 4.214-5.2.95-.945 2.538-2.454 4.978-3.612 1.429-.677 2.36-.861 3.064-.506.7.354.972 1.125 1.074 1.588.152 4.043-.301 8.979-.537 12.493-.087 1.274-.617 2.826-1.839 3.322-.652.264-1.32.13-1.914 0-1.875-.406-3.111-1.506-3.677-2.023-3.59-3.264-5.381-4.9-5.363-6.062z"/><path fill="#c7e4c7" d="M15.325 52.974a247.67 247.67 0 0 1 4.25-.362c4.082-.326 6.124-.489 8.887-.384 3.147.12 5.138.196 7.916.673.582.102 1.11.205 1.578.296h.001c.696.136 1.258.246 1.665.284.253-.115.504-.234.753-.357-.153-.59-1.556-1.738-2.975-2.484-1.708-.894-3.332-1.147-6.23-1.347l-.073-.004c-3.063-.207-4.892-.331-7.792-.187-4.1.202-6.632.752-11.132 1.733l-.29.064a27.992 27.992 0 0 0 3.442 2.075zm35.299-31.839c0 .957-.777 1.733-1.736 1.733a1.735 1.735 0 1 1 0-3.467c.959 0 1.737.776 1.737 1.734z"/><g fill="#6d2313"><path d="M48.873 19.74a.108.108 0 0 1-.014.002h.005l.01-.002z"/><path fill-rule="evenodd" d="M15.878 53.247c1.053-.125 2.108-.23 3.163-.334.421-.042.843-.085 1.264-.129 1.957-.2 3.914-.402 5.883-.443a49.381 49.381 0 0 1 7.81.46c1.704.231 3.395.544 5.07.926a27.86 27.86 0 0 0 1.701-.802c-.426-.348-.833-.72-1.23-1.102a38.87 38.87 0 0 1-1.301-1.332.444.444 0 0 0-.194-.208 74.495 74.495 0 0 1-1.703-1.92c-1.994-2.308-3.85-4.863-4.521-7.896-.32-1.44-.323-2.964.083-4.386.403-1.404 1.139-2.685 2.027-3.836 1.704-2.215 3.913-4.028 6.378-5.341 1.78-.947 3.697-1.552 5.614-2.158 1.051-.332 2.103-.664 3.133-1.052.307-.117.612-.24.917-.366.26-.086.509-.205.732-.355.428-.285.766-.67.929-1.158a2.145 2.145 0 0 0-.055-1.458c-.431-1.068-1.595-1.65-2.72-1.567a.58.58 0 0 0-.154.032c-.75.12-1.355.61-1.71 1.303-.095.189-.183.39-.246.598a5.91 5.91 0 0 1-1.515.025 10.649 10.649 0 0 1-1.839-.416 9.34 9.34 0 0 1-3.133-1.694 11.09 11.09 0 0 1-2.404-2.747c-.486-.78-.846-1.621-1.206-2.464-.15-.352-.302-.705-.462-1.053a14.03 14.03 0 0 0-1.095-1.962c-.198-.296-.406-.6-.637-.882a.308.308 0 0 0-.045-.073c-.649-.818-1.534-1.39-2.487-1.795a12.608 12.608 0 0 0-3.166-.887 9.784 9.784 0 0 0-3.133.047 11.14 11.14 0 0 0-2.277.706c-1.534.637-2.966 1.527-4.311 2.493a39.016 39.016 0 0 0-3.333 2.7c-.362.326-.718.655-1.066.992l-.173.16a6.15 6.15 0 0 0-.22.206.51.51 0 0 0-.082.06 72.53 72.53 0 0 0-2.495 2.435l-.776.78-.362.361a.42.42 0 0 0-.131.324c-.055.153-.006.323.105.458a128.15 128.15 0 0 0 3.136 3.71c-1.004 1.586-1.868 3.266-2.356 5.084-.551 2.059-.664 4.209-.703 6.33l-.014.734c-.04 2.302-.08 4.6-.342 6.89-.26 2.284-.769 4.556-1.566 6.728l-.076.202c.245.235.493.466.746.692.835-2.103 1.387-4.305 1.712-6.543.355-2.461.442-4.951.479-7.434l.004-.309v-.002c.016-1.147.032-2.293.115-3.438.073-1.017.178-1.907.388-2.88.4-1.86 1.12-3.46 2.096-5.063l.162-.262.407.453c.433.581.91 1.128 1.393 1.669.058.064.115.13.172.196.104.119.208.238.318.35.04.04.073.063.113.09l.057.04c.02.016.031.023.036.025a2.9 2.9 0 0 0 .221.243h.001a18.898 18.898 0 0 0 1.069 1.04c.163.144.33.289.504.426.028.022.06.045.093.068.054.038.108.076.14.11l.077.084c.06.066.12.132.194.19.352.286.722.558 1.099.807a20.57 20.57 0 0 0 2.386 1.35l.262.13v.001c.776.389 1.637.82 2.512.626.895-.2 1.49-.985 1.83-1.788.374-.887.65-1.802.839-2.743.17-.847.244-1.716.318-2.578v-.004l.033-.382c.182-2.045.196-4.104.087-6.152a57.506 57.506 0 0 0-.246-3.062l-.007-.063a45.544 45.544 0 0 0-.073-.646.897.897 0 0 0-.123-.41 2.233 2.233 0 0 0-.174-.238c-.352-.405-.827-.467-1.342-.481-.968-.026-1.907.242-2.796.604-.884.358-1.7.803-2.498 1.328-.54.358-1.02.787-1.5 1.217-.18.161-.361.322-.545.48a32.642 32.642 0 0 0-2.241 2.121c-1.004 1.038-1.999 2.148-2.766 3.382-.91-1.04-1.805-2.096-2.682-3.166a.194.194 0 0 0-.074-.09l-.007-.009a257.077 257.077 0 0 1 2.793-2.768c.212-.206.422-.41.64-.61a.47.47 0 0 0 .096-.119l.013-.013.105-.1c.275-.267.555-.535.838-.795a42.422 42.422 0 0 1 2.987-2.533 29.417 29.417 0 0 1 1.959-1.39 20.91 20.91 0 0 1 2.07-1.19 14.563 14.563 0 0 1 1.628-.696c.023-.007.152-.05.073-.025.04-.014.083-.029.127-.04a9.23 9.23 0 0 1 .223-.07l.067-.02a9.038 9.038 0 0 1 1.32-.282 1.416 1.416 0 0 1 .195-.019c.272-.021.544-.032.816-.032 1.12-.007 2.212.217 3.275.564.895.294 1.809.695 2.523 1.336.17.152.323.315.465.496a.494.494 0 0 0 .193.145c.13.174.253.353.372.531.38.568.722 1.162 1.012 1.777.196.414.376.836.556 1.257.348.817.696 1.632 1.163 2.391 1.338 2.19 3.365 3.941 5.816 4.762 1.279.43 2.614.68 3.952.556-.007.168.01.336.058.501.145.5.54.89.936 1.202.16.126.326.232.501.315a79.507 79.507 0 0 1-3.105 1.032l-.101.031c-1.498.475-2.992.952-4.41 1.636-2.618 1.26-4.993 3.04-6.875 5.255-.975 1.147-1.834 2.42-2.386 3.829a9.214 9.214 0 0 0-.554 4.512c.399 3.167 2.154 5.925 4.148 8.338.517.627 1.05 1.245 1.594 1.853a32.609 32.609 0 0 0-5.401-1.07c-2.18-.24-4.377-.24-6.564-.102-2.197.14-4.395.38-6.574.695l-.093.013c-1.82.263-3.668.531-5.433 1.054-.292.086-.581.18-.868.28.272.198.548.392.827.58 1.683-.524 3.44-.796 5.18-1.063a82.564 82.564 0 0 1 6.189-.705c2.165-.167 4.344-.217 6.509-.036 2.197.184 4.416.636 6.549 1.292.256.079.513.16.767.245.171.181.343.361.516.54a25.524 25.524 0 0 0 1.715 1.623 58.828 58.828 0 0 0-4.656-.907 52.2 52.2 0 0 0-7.984-.622c-2.426.004-4.834.25-7.245.5l-1.24.125h-.002c-1.316.132-2.632.264-3.942.436.385.208.776.408 1.172.598zm33.275-33.52a.55.55 0 0 1-.088.007c-.064 0-.128 0-.192.006h.005l.006-.002a.097.097 0 0 0 .006-.001l-.053.008c-.083.018-.167.04-.25.065l-.01.004-.015.006-.008.003-.002.001a.322.322 0 0 1-.041.019 1.599 1.599 0 0 1-.04.022l-.02.01a1.935 1.935 0 0 0-.153.097.786.786 0 0 1-.023.023 1.857 1.857 0 0 0-.207.203c-.029.036-.058.072-.083.112a2.946 2.946 0 0 0-.254.47c.03-.065-.027.076-.033.09l-.009.027c-.01.033-.022.066-.03.1a1.318 1.318 0 0 0-.055.265.688.688 0 0 0 .105.437c.17.28.479.543.765.71.32.184.664.177 1.012.083.33-.087.66-.239.9-.46.467-.43.51-1.07.166-1.6-.295-.454-.846-.676-1.399-.704zm-32.98 4.071a18.028 18.028 0 0 1-.477-.589.502.502 0 0 0-.092-.142l-.094-.104c-.127-.17-.249-.342-.367-.518a.404.404 0 0 0-.09-.095.397.397 0 0 0-.218-.249l-.004-.001-.01-.005-.017-.008c1.172-1.937 2.786-3.6 4.455-5.11.138-.126.279-.25.42-.372.162-.143.324-.284.483-.432.892-.817 1.824-1.563 2.915-2.102.725-.362 1.494-.691 2.288-.869a4.653 4.653 0 0 1 1.182-.112c.09.004.182.007.272.018l.04.007a.7.7 0 0 1 .08.015c-.058-.014.056.046.012.008.078.067.145.152.212.255.246 2.113.4 4.237.4 6.363a39.745 39.745 0 0 1-.153 3.55c-.07.915-.14 1.846-.319 2.747-.196.999-.471 2.009-.91 2.928-.16.336-.388.662-.689.883-.326.239-.696.239-1.091.12-.324-.1-.64-.256-.95-.41a19.908 19.908 0 0 0-.287-.14 23.77 23.77 0 0 1-1.28-.663 15.869 15.869 0 0 1-1.182-.724 15.18 15.18 0 0 1-.515-.37l-.13-.095a2.742 2.742 0 0 1-.407-.335c-.143-.157-.307-.288-.473-.421l-.18-.147a17.28 17.28 0 0 1-1.189-1.122l-.148-.154-.149-.153a.862.862 0 0 0-.102-.098 2.808 2.808 0 0 1-.096-.063.401.401 0 0 0-.02-.021l-.008-.008-.01-.01a5.01 5.01 0 0 0-.357-.406 9.203 9.203 0 0 1-.205-.223 46.365 46.365 0 0 1-.54-.623zm-1.41-1.714a.336.336 0 0 1-.007-.015l.003.006.003.005.002.004zm.018.06v-.019l.002-.003c.003.011.004.02-.002.023z" clip-rule="evenodd"/><path d="M26.41 7.492zm9.028 11.321a1.312 1.312 0 1 1-2.625 0 1.312 1.312 0 0 1 2.625 0z"/></g></svg>