<svg xmlns="http://www.w3.org/2000/svg" width="1024" height="1024" fill="none" viewBox="0 0 56 56"><path fill="#fdf1c0" d="M34.787 55.172A28 28 0 0 1 28 56a28 28 0 0 1-4.734-.399l1.333-3.8.896-5.916-.448-5.198-1.612-4.437-1.97-2.689-3.582-2.599-3.761-1.434-4.209-.627s7.164-5.781 8.776-8.291 4.478-8.784 4.478-8.784l1.79-6.184.807 3.406 1.164 2.51.448.896.85-2.151 1.075-2.151.627-.897-.09 3.137.537 2.33.985 3.407.806 1.971 2.06 1.883 3.85 2.375 3.672 1.254 1.523.359.09-.538.805-.806 1.164-.09.717.538-.09.986-1.074 1.075-1.97 1.345-4.836 4.481-3.403 6.543-1.433 7.842.448 6.454z"/><g fill="#6d2313"><path fill-rule="evenodd" d="M24.044 55.723c.884-2.744 1.53-5.575 1.769-8.453.134-1.613.139-3.24-.018-4.854-.152-1.572-.439-3.159-1.066-4.615a15 15 0 0 0-.514-1.073 53 53 0 0 1 4.871-4.498 39 39 0 0 1 3.394-2.451c.161-.103.246-.282.094-.44-.157-.165-.48-.214-.694-.165a89 89 0 0 0-11.008 3.31 14 14 0 0 0-1.574-1.186c-2.431-1.573-5.283-2.397-8.167-2.55l-.093-.004c2.552-2.087 4.959-4.358 7.06-6.897a33.5 33.5 0 0 0 5.588-9.68 42 42 0 0 0 1.192-3.695q.109.282.215.564c.247.65.492 1.299.8 1.926a25 25 0 0 0 3.153 4.84c1.164 1.407 2.52 2.666 3.953 3.795a25.6 25.6 0 0 0 4.5 2.846 21.5 21.5 0 0 0 5.69 1.883c.172.187.356.363.538.54-.518.368-1.022.756-1.5 1.18-.51.458-1.007.938-1.503 1.416l-.06.058-.214.207a33 33 0 0 0-3.094 3.4 21.8 21.8 0 0 0-3.936 7.969 26.3 26.3 0 0 0-.68 9.28c.16 1.547.452 3.08.864 4.576a29 29 0 0 0 .745 2.325q.591-.136 1.172-.299-.204-.555-.386-1.12a27.4 27.4 0 0 1-1.03-4.36c-.438-2.986-.385-6.055.233-9.013.596-2.86 1.72-5.575 3.399-7.963a22 22 0 0 1 1.12-1.458c.572 2.617 1.29 5.2 2.148 7.74.18.534 1.393.372 1.187-.233a73 73 0 0 1-2.13-7.656c2.115 1.279 3.758 3.217 5.34 5.084a.71.71 0 0 0 .842.18c.237-.113.425-.44.22-.677-1.865-2.2-3.807-4.446-6.407-5.793q.268-.29.54-.575c.465-.485.95-.943 1.438-1.402l.215-.203.156-.147c.528-.496 1.047-.985 1.626-1.426.3-.228.614-.448.927-.663a.4.4 0 0 0 .132-.15q.151-.108.306-.213c.285-.195.57-.39.816-.636.47-.47.752-1.21.138-1.694-.55-.435-1.437-.493-2.104-.422-.638.07-1.332.435-1.46 1.111-3.042-.67-5.88-2.068-8.39-3.943a27 27 0 0 1-1.006-.789c-.36-.377-.643-.83-.884-1.286a17 17 0 0 1-.95-2.209 20.1 20.1 0 0 1-1.148-7.691c.082-.248-.251-.445-.45-.488-.286-.058-.613.032-.757.3q-.242.45-.491.895a32 32 0 0 0-1.044 1.987q-.228.484-.412.987c-.408-.808-.729-1.638-1.055-2.483l-.015-.04-.13-.334c-.333-.852-.667-1.707-.529-2.643a.3.3 0 0 0-.095-.26.57.57 0 0 0-.361-.246c-.256-.058-.703.054-.761.368-.336 1.94-.892 3.862-1.54 5.722-.632 1.815-1.393 3.59-2.334 5.266-1.714 3.056-3.962 5.78-6.46 8.223a60 60 0 0 1-4.505 3.948.477.477 0 0 0 0 .735.66.66 0 0 0 .45.151c.06.01.117.015.163.015 2.642-.013 5.31.6 7.652 1.932.747.426 1.456.913 2.108 1.47a86 86 0 0 0-4.467 1.877c-.197.09-.426.283-.22.498.184.179.61.224.842.116q2.225-1.006 4.5-1.887.212.21.412.43a15 15 0 0 1 1.965 2.74 74 74 0 0 0-2.695 2.998c-.863.997-1.76 2.035-2.22 3.284-.189.51 1.025.632 1.186.193.422-1.149 1.22-2.08 2.002-2.996l.044-.052a79 79 0 0 1 2.181-2.458c.594 1.281.93 2.633 1.11 4.036.202 1.564.25 3.146.166 4.723-.164 3.119-.835 6.185-1.79 9.151q.59.109 1.185.194m21.157-31.89a3.4 3.4 0 0 1-.564.46l-.318-.317-.027-.028c-.152-.155-.333-.34-.282-.578.098-.484.671-.425 1.02-.363l.046.008c.154.024.34.054.398.176.103.22-.135.498-.273.641zM28.92 10.158q.134-.28.277-.556c.133 2.14.594 4.285 1.394 6.27a24 24 0 0 1-2.465-3.287.3.3 0 0 0-.022-.065v-.004q.001-.06.01-.121c.008-.063.022-.121.04-.198a7 7 0 0 1 .179-.61c.161-.488.362-.963.586-1.429zm-5.233 25.65a14.8 14.8 0 0 0-2.163-2.719 88 88 0 0 1 8.356-2.652c-2.218 1.602-4.27 3.421-6.193 5.371" clip-rule="evenodd"/><path d="M31.719 26.36a1.422 1.422 0 1 0 0-2.844 1.422 1.422 0 0 0 0 2.843z"/></g></svg>