<svg fill="none" height="1024" viewBox="0 0 56 56" width="1024" xmlns="http://www.w3.org/2000/svg"><path d="m34.7872 55.1717c-2.1731.5411-4.4466.8283-6.7873.8283-1.6136 0-3.1953-.1365-4.7342-.3986l1.3337-3.8008.8956-5.9155-.4478-5.1984-1.6119-4.4366-1.9701-2.6888-3.5821-2.5993-3.7611-1.434-4.20891-.6274s7.16411-5.781 8.77601-8.2906 4.4775-8.7836 4.4775-8.7836l1.791-6.18431.806 3.40587 1.1642 2.50954.4477.8963.8508-2.151 1.0746-2.15112.6268-.89628-.0895 3.137.5373 2.3303.985 3.4059.806 1.9718 2.0597 1.8822 3.8507 2.3751 3.6716 1.2548 1.5223.3585.0896-.5377.8059-.8067 1.1642-.0896.7164.5378-.0895.9859-1.0747 1.0755-1.9701 1.3444-4.8357 4.4814-3.403 6.5429-1.4328 7.8425.4478 6.4532z" fill="#fdf1c0"/><g fill="#6d2313"><path clip-rule="evenodd" d="m24.0444 55.7228c.8833-2.7438 1.5289-5.5752 1.7685-8.4529.1343-1.6133.1388-3.2401-.0179-4.8534-.1522-1.573-.4388-3.1594-1.0657-4.6158-.1576-.3645-.3293-.7226-.5144-1.0731 1.5341-1.5932 3.1494-3.1092 4.8711-4.4973 1.0881-.8784 2.2164-1.694 3.394-2.4514.1612-.103.2463-.2823.094-.4391-.1567-.1658-.4791-.2151-.694-.1658-3.7353.8685-7.4134 1.9694-11.0075 3.3106-.4949-.4314-1.0205-.8285-1.5744-1.1865-2.4313-1.5729-5.2835-2.3975-8.1671-2.5499-.0309-.0016-.0618-.0031-.0928-.0045 2.5523-2.0869 4.9585-4.3582 7.0599-6.8969 2.3955-2.9039 4.2761-6.1484 5.588-9.6798.4488-1.2082.8545-2.44327 1.1915-3.69478.0729.18775.1442.37578.2154.56362v.00013l.0001.00013c.2465.65051.4923 1.2988.8004 1.9254.8463 1.7209 1.9298 3.3611 3.1522 4.8399 1.1642 1.4072 2.5209 2.6665 3.9537 3.7958 1.397 1.0979 2.9059 2.0614 4.4999 2.8457 1.7866.8783 3.694 1.5237 5.6552 1.8777.0116.0021.0234.004.0354.0056.1714.1866.3546.3631.5374.5391l.0006.0005c-.5186.3677-1.0226.7564-1.5003 1.1801-.5103.4578-1.0079.938-1.5035 1.4162l-.0002.0003-.0599.0578c-.0713.0688-.1427.1376-.214.2063-1.1014 1.0576-2.1537 2.2003-3.094 3.4014-1.8402 2.3482-3.1925 5.0819-3.9357 7.9679-.7791 3.0205-1.003 6.1799-.6806 9.281.1612 1.5461.4522 3.0787.8642 4.5755.2059.7439.4388 1.4833.7029 2.2093.0139.0386.028.0771.0421.1155.394-.0913.7848-.191 1.1722-.2988-.1362-.3707-.2653-.7445-.3859-1.1208-.4567-1.4206-.8105-2.8815-1.0299-4.3604-.4388-2.9846-.385-6.0543.2329-9.0121.5955-2.8591 1.7193-5.5748 3.3984-7.9634.3524-.5031.7287-.987 1.1211-1.4573.5715 2.6167 1.2895 5.2 2.1476 7.7402.1791.5333 1.3925.372 1.1865-.233-.8489-2.5132-1.5607-5.0685-2.1293-7.6567 2.1141 1.2788 3.7571 3.2171 5.3397 5.0843.2015.242.5552.3137.8418.1793.2373-.112.4253-.4392.2194-.6767-1.8648-2.1993-3.8066-4.4458-6.4069-5.793.179-.193.3597-.3845.5413-.5751.4647-.4847.9499-.9421 1.4377-1.402l.2145-.2023c.0522-.049.1042-.098.1561-.1469.5277-.4966 1.0472-.9855 1.626-1.4261.3-.2285.6134-.4481.9268-.6632.0604-.0407.1041-.0924.1325-.1499.1006-.0725.203-.1427.3053-.2128.2855-.1957.5705-.3911.8159-.6367.4702-.4705.7523-1.21.1388-1.694-.5507-.4347-1.4372-.4929-2.1044-.4212-.6382.07-1.3318.4347-1.4603 1.1107-3.0417-.67-5.8805-2.0683-8.3903-3.943-.3419-.2551-.6772-.518-1.0057-.7887-.36-.3771-.6432-.8304-.8839-1.2862-.3716-.708-.6805-1.4564-.9492-2.2093-.5642-1.5774-.9268-3.2221-1.0836-4.8892-.0877-.93103-.1067-1.86635-.0653-2.80176.0825-.24778-.2512-.44537-.4496-.48761-.2865-.05826-.6134.03137-.7567.30025-.1609.29969-.3262.5972-.4914.8947-.3637.65452-.7273 1.30903-1.0444 1.98682-.1507.3228-.2892.6518-.4115.9868-.4086-.8077-.729-1.63831-1.0547-2.48289l-.0159-.041c-.0423-.11117-.0858-.22223-.1292-.33333-.3332-.85182-.6676-1.70674-.5289-2.64232.0154-.10365-.0257-.19075-.0957-.26037-.0742-.11862-.1983-.20649-.3611-.24605-.2552-.05825-.7029.05378-.7611.36748-.3359 1.94045-.8911 3.86297-1.5403 5.72278-.6314 1.8149-1.3925 3.5896-2.3328 5.2656-1.7149 3.0564-3.9627 5.781-6.4611 8.2234-1.4284 1.3937-2.9418 2.7023-4.50444 3.9481-.23731.1883-.22388.5423 0 .735.12516.1067.28871.1558.4509.1509.05947.0103.11584.0149.16254.0149 2.6417-.0134 5.3104.6005 7.6521 1.9315.7468.4263 1.4557.9138 2.1074 1.4706-.3256.1262-.6504.2545-.9745.3847-1.1732.4705-2.3373.968-3.4925 1.4923-.197.0896-.4254.2823-.2194.4974.1835.1793.6089.2241.8417.1166 1.4826-.6702 2.9836-1.2995 4.5008-1.8869.1405.1396.2776.283.4111.4304.7567.8331 1.4148 1.7561 1.965 2.7388-.8539.8984-1.6824 1.8211-2.4889 2.7599-.0683.0794-.1371.1589-.2062.2387-.8627.9971-1.7604 2.0348-2.2206 3.2837-.188.5109 1.0254.6319 1.1866.1927.4219-1.1481 1.2192-2.0804 2.0022-2.9959l.044-.0515c.7093-.8335 1.4363-1.6528 2.181-2.4579.5937 1.2812.929 2.6326 1.11 4.0354.2015 1.564.2507 3.1459.1656 4.7234-.1637 3.1188-.8351 6.185-1.7891 9.1511.3921.0727.7871.1373 1.1848.1936zm21.1563-31.8907c-.1661.1765-.3613.322-.5633.4602-.1062-.105-.2125-.2104-.3188-.3168-.0086-.0089-.0175-.018-.0264-.0271-.1523-.1558-.3333-.3408-.2825-.5779.0985-.484.6716-.4257 1.0209-.363.0146.0025.0298.0049.0452.0073.1546.0246.3411.0543.3981.1765.1029.2196-.1344.4974-.2732.6408zm-16.2804-13.6728c.0895-.18716.1824-.37256.2777-.5567.1334 2.1408.5939 4.2858 1.3942 6.2705-.9125-1.0216-1.739-2.1188-2.4651-3.2867-.0045-.0213-.0116-.0431-.0217-.0654l-.0003-.0007c.0001-.0012.0002-.0024.0003-.0037 0-.0403.0045-.0806.009-.1209.0089-.0628.0224-.1211.0403-.1973.0492-.2062.1119-.4078.1791-.6095.1612-.4885.3627-.9635.5865-1.4296zm-5.232 25.6498c-.6131-.9881-1.3386-1.9034-2.1634-2.7187 2.3223-.8662 4.681-1.6349 7.0686-2.3031.4281-.1204.8574-.2367 1.2878-.3495-2.2181 1.6019-4.2702 3.4214-6.193 5.3713z" fill-rule="evenodd"/><path d="m31.7188 26.3594c.7852 0 1.4218-.6366 1.4218-1.4219s-.6366-1.4219-1.4218-1.4219c-.7853 0-1.4219.6366-1.4219 1.4219s.6366 1.4219 1.4219 1.4219z"/></g></svg>