<svg fill="none" height="1024" viewBox="0 0 56 56" width="1024" xmlns="http://www.w3.org/2000/svg" xmlns:xlink="http://www.w3.org/1999/xlink"><clipPath id="a"><path d="m0 0h56v56h-56z"/></clipPath><g clip-path="url(#a)"><g fill="#ef9364"><path d="m37.7392 54.26c-3.0332 1.1254-6.3144 1.7402-9.7391 1.7402-3.164 0-6.2054-.5247-9.0419-1.492.0144-.0392.0286-.0798.0426-.1219.3906-1.1747.5851-1.9993.6337-2.5734-.3423.0185-.631-.4509-.7687-1.0557.2077.0384.4307.0482.5134-.0275-.1414-.1188-.3314-.1612-.5512-.1642-.1171-.6983-.036-1.5187.3764-1.9792.0131-.7814.243-1.559.4759-2.0775-.337-.0939-.741-.3643-.887-.7207-.155-.3752.0301-.7153.3576-1.3172.0785-.1441.1651-.3033.2572-.4816.0499-.0922.8338-1.6412 1.2258-3.1978.1089-.434.1291-.6373.1582-.9301.0315-.3166.0734-.7377.2491-1.6682.0954-.4987.1608-.7866.2167-1.0327.0655-.2887.118-.5198.1906-.966.2536-1.5566.2036-2.2985.1037-2.7981-.1904.1857-.6463-.0696-1.3594-.469-.438-.2453-.973-.545-1.6032-.8302-.7728-.3497-1.1381-.6429-1.545-.9695-.2729-.2191-.5645-.4531-1.0103-.7293-1.5787-.9897-2.8876-1.1249-3.8407-1.2234-.7681-.0794-1.3051-.1349-1.5658-.5947-.3976-.706.3137-1.5467 1.525-2.9786 1.1298-1.3355 2.6947-3.1852 4.2004-5.9193 1.3334-2.4215 2.2095-4.793 3.1702-7.3989.6686-1.8104 1.0067-2.74052 1.2257-4.00123.0785-.45157.1288-.84248.1698-1.16056.0734-.56992.1167-.90597.2375-.93804.9338-.24984 3.1932 7.07223 3.1932 7.07223l3.5582-.9763s-.5337 1.4368.4947 1.6812c-.5258-.1357 1.5544-.4362 1.7969-.2803.2127-.216.4563-.5742.771-1.1972.2657-.5292.3758-.8378.5252-1.256.0969-.2713.2102-.5888.3931-1.0424.2882-.71495.5572-1.37605 1.0221-2.19858.1592-.28145.2525-.42553.3669-.6024.1231-.19029.2707-.41853.5515-.89661.2138-.36418.3625-.63134.4704-.82522.2121-.3811.2666-.47901.3481-.47392.2429.01493.2968.92956.3739 2.23968.0619 1.05209.1389 2.35922.3408 3.66025.7393 4.7588 2.9526 8.1655 4.5842 10.677l.0154.0236c1.3064 2.0064 2.0634 3.1402 3.5774 4.201 1.3043.9108 1.9663 1.9956 2.8427 2.2985.7141.2469 1.3568.2921 1.7568 0-.0236.2872-.6812.3776-1.7568.5255-1.3715.1886-3.4226.4707-5.7054 1.3733-2.0366.8033-4.0539 1.6027-5.1106 3.5015-.6698 1.2028-.5269 2.4386-.3336 4.1093.0939.8119.1997 1.7265.2298 2.79.0657 2.2696.5125 4.2869.8015 5.5917.1843.832.3044 1.3742.2206 1.5074-.1182.1897-.3663.1304-.6059.0732-.2119-.0506-.4171-.0996-.5199.0267-.2458.3013.1777 1.0891.5278 1.6348-.0404-.0264-.081-.0404-.1205-.0358-.2498.0269-.4458.7802-.4073 1.399.0478.7545.4358 1.1893 1.0627 1.8921.229.2567.49.5492.7779.9061l.0049.0061c.1892.2351.3681.4573.5351.6709z"/><path d="m35.8864 49.4216c.2082.3247.3905.5638.3905.5638s-.1913-.4333-.3905-.5638z"/><path d="m18.828 50.5655c.0109.0651.0235.1291.0378.1917-.2802-.0519-.5328-.1557-.3761-.1722.1184-.013.2318-.0209.3383-.0195z"/></g><path d="m25.375 24.5c0 .7853-.6366 1.4219-1.4219 1.4219s-1.4219-.6366-1.4219-1.4219.6366-1.4219 1.4219-1.4219 1.4219.6366 1.4219 1.4219z" fill="#672402"/><path d="m31.2812 25.9219c.7853 0 1.4219-.6366 1.4219-1.4219s-.6366-1.4219-1.4219-1.4219c-.7852 0-1.4218.6366-1.4218 1.4219s.6366 1.4219 1.4218 1.4219z" fill="#672402"/><path clip-rule="evenodd" d="m19.2237 54.597c.09-.2317.1809-.4635.2718-.6952.0709-.1807.1418-.3613.2122-.542.0515-.134.1054-.2685.1595-.4036.1602-.3995.3222-.8038.4284-1.2145.226-.8887-.5507-1.1485-1.3247-1.1701.0849-.2369.1697-.4741.2546-.7114.1172-.3277.2344-.6553.3516-.982.0744-.2083.1522-.4162.2301-.6242.1591-.4253.3184-.8512.45-1.2823.1115-.3689.1653-.8878-.1691-1.1569-.2112-.1685-.5052-.216-.7843-.2183l-.0013-.0063-.0014-.006-.0024-.0107c-.0068-.0299-.0136-.0598-.0136-.0931 0-.1153.0384-.2267.0806-.3305.4996-1.2031.9722-2.3984 1.3334-3.6514.3612-1.2492.634-2.5253.8146-3.8129.1525-1.0674.2406-2.1411.2675-3.2179l.0323.0239c.6878.515 1.3525 1.0608 1.9942 1.6335.6302.5612 1.2374 1.1454 1.8214 1.7488.6264.6496 1.1758 1.2569 1.6639 2.0026.0668.1027.1315.207.1936.3128-.1489.2724-.2866.5507-.4088.8364-.3497.8225-.6148 1.8065-.4266 2.702.0577.2652.1384.4651.3382.6611.2382.2383.5956.3537.9184.4113.6455.1192 1.5216.0077 1.8674-.6303.2114-.3921.3151-.8841.3497-1.3261.0384-.492-.0346-.9801-.1614-1.4567-.1123-.4226-.2754-.8253-.4761-1.2107.1575-.2693.3246-.5329.4953-.7918.4292-.6555.8966-1.2918 1.3908-1.9014-.0421.052.0196-.0207.0233-.0281.0192-.0231.0394-.0471.0596-.0711l.0127-.0152c.0159-.0189.0317-.0377.0468-.0559.0269-.0308.0538-.0625.0807-.0942s.0538-.0634.0807-.0942c.1422-.1652.2882-.3267.4342-.4881.2767-.3037.561-.5996.8531-.884.5195-.5098 1.0622-.9964 1.628-1.4549-.3647 3.415-.2119 6.8792.4585 10.249.1679.8459.3698 1.6821.6017 2.5105-.0561-.0289-.1119-.0585-.1675-.089-.2152-.1192-.5149-.1192-.7493-.0846l-.0063.001c-.1233.0199-.4189.0674-.3395.2412.369.828.7071 1.6684 1.0171 2.5185-.2076.0534-.3972.1546-.5215.345-.1306.2037-.1498.4266-.0345.6418.103.189.2359.3715.3653.5493.0443.0609.0882.1212.1304.181.1448.2064.2923.4111.4398.6159v.0001l.0004.0005.0006.0009c.4978.6911.9959 1.3828 1.3959 2.1385.0505.0954.0995.1924.1468.2907.3425-.121.6818-.2484 1.018-.3822-.2362-.4531-.5062-.8895-.7998-1.3153-.2007-.2943-.4082-.5819-.616-.8699l-.0003-.0003c-.1422-.1971-.2845-.3944-.425-.5942-.0473-.0676-.0992-.1364-.1519-.2065-.1273-.1689-.2596-.3444-.3438-.5238-.0576-.1191-.0538-.2575.0039-.3766.0037-.0075.0076-.0145.0117-.0213.3462.0146.7324-.0495.6838-.1863-.2546-.7192-.5296-1.4323-.8249-2.1363l.0203.0067c.0125.0041.025.0081.0375.0122.0239.0076.0477.0152.0716.0226.2075.0654.4419.0769.657.0423.0577-.0077.4074-.0653.3689-.1883-1.1066-3.686-1.5831-7.5604-1.3987-11.404.0494-1.001.1407-1.9988.277-2.9904.0724-.0512.1475-.1024.2226-.1536-.0116.0076.169-.1153.0922-.0615-.0769.0538.1076-.0692.0922-.0615.1883-.123.3766-.246.5687-.3613.6994-.4305 1.4218-.8226 2.1595-1.18.3689-.1768.7417-.3459 1.1221-.5074l.0008-.0003c.0997-.0422.1993-.0844.3027-.1265.0212-.0077.0413-.0164.0615-.025l.0022-.0009c.0111-.0043.0265-.0103.0423-.0166.0282-.011.0579-.0228.0669-.0267.2037-.0807.4112-.1576.6187-.2306.8185-.296 1.6523-.5458 2.4977-.7572.1875-.0478.3785-.0921.5697-.1329.0045-.0007.0139-.0024.0297-.0055.0269-.0057.0548-.0115.0826-.0173.0279-.0057.0557-.0115.0826-.0173.1115-.023.2229-.0461.3343-.0653.4496-.0846.8992-.1614 1.3526-.2229.4342-.0577.8684-.1077 1.3065-.1423.269-.023.853-.2421.6724-.6111-.1562-.3157-.6324-.3668-.9854-.3575-2.8909-1.2041-5.1579-3.6647-6.7765-6.3073-.9837-1.6105-1.7791-3.3285-2.5054-5.0659-.757-1.8141-1.4986-3.6514-2.0365-5.5424-.6033-2.11786-.9299-4.33946-.611-6.53415.0346-.23062-.4611-.28443-.5995-.28059-.1404 0-.3856.01711-.5155.12789-.0514.03566-.0959.08084-.13.13732-.5324.88542-.9427 1.8375-1.3511 2.78542l-.0006.00144c-.0719.16673-.1437.33333-.2161.49942-.2556.58824-.5102 1.17746-.7649 1.76667-.2545.58888-.509 1.17768-.7644 1.76558l-.8234 1.9074c-.6624.0556-1.3342.0932-2.009.1108.3914-.38.7934-.7504 1.2031-1.1111.1268-.1115.0807-.2498-.0461-.3382-.169-.1153-.4342-.1461-.6302-.1076-1.3116.2346-2.6331.494-3.8192 1.0828-1.1262-2.4615-2.1353-4.97571-3.0205-7.53241-.1049-.30429-.6913-.3472-.9944-.17638-.144.04274-.2671.1225-.2929.2571-.6532 3.31703-1.6215 6.56869-2.8896 9.69739-1.2565 3.1018-2.805 6.0921-4.6264 8.9018-1.0091 1.5534-2.0986 3.0518-3.26165 4.4917-.11882.0537-.23927.1328-.29274.2398-.18445.3766.42652.5727.67629.6073.4649.0653.9261.1383 1.3833.2267.0519.0096.1028.0202.1537.0308.0509.0105.1018.0211.1537.0307l.0002.0001c.0303.006.0606.0121.0903.0181.006.0015.0135.0034.0227.0056l.0183.0044.0107.0026c.2267.0499.4496.1038.6724.1614.8608.2152 1.71.4805 2.5477.7841.1994.0729.3989.1496.5984.2264l.001.0004.0286.0115c.0514.0207.1235.0497-.0055-.0038.0266.0097.0533.0209.079.0317l.0003.0001.0001.0001c.0149.0063.0295.0124.0435.018l.0003.0002c.1229.0499.2458.0998.3686.1536.3843.1652.7685.3382 1.1451.5189.7839.3766 1.5447.7956 2.2863 1.2453.1883.1153.3727.2306.5533.3459.0884.0538.173.1115.2575.1691l.0099.0066c.0125.0083.0344.0229.055.0365.0115 2.4928-.3085 4.9822-.9564 7.3905-.3381 1.2607-.7646 2.4945-1.2834 3.6937-.0223.0514-.047.1039-.0722.1574-.0878.1864-.181.3843-.1929.5844-.0154.3228.2574.4727.5418.5266.1268.023.2574.0345.3842.0345.0018 0 .0037.0001.0058.0001.0026.0001.0055.0002.0087.0003l.0085.0089c.0113.0117.0217.0225.027.0292.1037.1653.0922.4036.0692.5842-.0314.2479-.1191.4829-.2067.7177-.0197.0528-.0394.1057-.0585.1587-.0634.1787-.1278.3575-.1922.5362-.0643.1787-.1287.3574-.192.5361l-.807 2.2485c-.0355.096.2118.1592.2825.1772.0057.0014.0102.0026.0134.0035.196.0423.4112.0423.6071 0 .0251-.0063.0514-.0114.0782-.0167.0223-.0044.0451-.0088.0678-.0141.0119-.0023.0214-.0042.0289-.0059.0043-.0002.0091-.0005.0146-.0008.0043-.0003.009-.0006.0142-.001.0254-.0028.0509-.0056.0763-.0069l.0011.0004.002.0008c-.0634.0054-.0297.0048.0097.0036-.0128.0042.0103.0127.025.0159.0026.0006.0049.001.0068.0012.0018.0002.0031.0001.0037-.0002.038.0208.0784.0485.1213.1005.2537.3058.0477.8098-.1031 1.1789-.0274.067-.053.1295-.0737.1856-.1994.5413-.4095 1.0779-.6197 1.615-.0206.0526-.0412.1053-.0618.1579.3482.1306.6997.2545 1.0544.3714zm-.3528-3.6262h-.0001l-.0046-.0017c-.0016-.0005-.0033-.0012-.0051-.0019l.0039-.0003.0073.0035-.0006.0001zm-.0084-.005.0056-.0002.0037-.0002c.0046-.0001.0091-.0002.0136-.0002-.0076.0007-.0144.0012-.0204.0017zm0 0c-.0521-.0244-.0261-.0087-.0045.0002zm.0084.005h-.0001l.0054.002.0053.002-.0038-.0019-.0047-.0022zm4.933-37.3538c.0209.0444.0496.0824.0841.1147-.0122.1301.1837.2577.3002.2927.2689.0807.5879.0538.8223-.1076.7413-.5106 1.5842-.7982 2.4429-1.0028-.2898.2727-.575.5506-.856.8336-.3035.3075.3113.4574.5188.4574 1.1412 0 2.2825-.0538 3.4237-.1537.0303-.0029.0679-.0098.1084-.0207.2505.0004.5003-.0791.5756-.2522.3162-.7312.6301-1.4635.944-2.1957l.0004-.0008c.601-1.4019 1.2019-2.8036 1.8184-4.19688.1882 3.11728 1.3828 6.16148 2.5515 9.02238 1.4063 3.4439 3.0663 6.8801 5.7869 9.4899 1.0377.9931 2.2126 1.8327 3.4978 2.4574-3.331.4344-6.6053 1.5063-9.5268 3.1581-3.101 1.7527-5.7869 4.1818-7.8235 7.1145l-.0147.0211c-.5331-.652-1.1343-1.2541-1.7106-1.8238-1.2834-1.2684-2.6629-2.433-4.1423-3.4592-3.1893-2.2101-6.7859-3.7514-10.5978-4.4932-.2916-.0559-.5833-.1072-.875-.1529 1.972-2.4909 3.7195-5.161 5.221-7.9609 1.5946-2.975 2.9088-6.1037 3.9117-9.3284.3936-1.261.7375-2.53665 1.0343-3.82323.7574 2.03407 1.5935 4.03923 2.5047 6.01023zm16.7997 17.177c-.017.0067-.0306.0122-.0414.0164.0135-.0057.0273-.0112.0414-.0164zm-12.7573 13.1913c.0013-.0012.0026-.0023.004-.0034-.0015.0013-.0028.0024-.004.0034zm.015-.0007-.0035.0045c.0015-.0019.003-.0038.0045-.0057.002-.0026.0039-.0052.0059-.0079-.0021.0028-.0044.0059-.0069.0091zm.8342-.0493c-.0011.0011-.008-.0039-.0173-.0118.0054.0036.0111.0076.0173.0118z" fill="#672402" fill-rule="evenodd"/></g></svg>