<svg fill="none" height="1024" viewBox="0 0 56 56" width="1024" xmlns="http://www.w3.org/2000/svg"><path d="m24.6686 55.804 1.8624-12.4916 3.0721-10.1906 3.7927-2.6159 7.9422-1.5194 4.0802-1.8162 1.3854-1.4546.0766-2.8397-1.3061-3.5713-2.1853-1.1671-6.0407-.953-3.132-.2229s-1.0178-.5853-1.2369-.5856c-.219-.0003-.5084-2.114-.5084-2.114l-1.5254-3.4256-2.2579-1.45923-2.7671-.07649-3.7173.65232-2.9149 1.3067-1.2408 2.5461s.2878 3.4241.2875 3.6431.2153 2.986.2153 2.986l-1.3146 3.1301s-3.3592 6.2592-3.3596 6.5512c-.0003.2443-2.0989 6.196-2.8268 8.2603-.142.4025-.2318.6572-.2437.6929-.0733.2189-1.39383 8.0831-1.39383 8.0831l-.00225 1.7856c4.16328 3.6992 9.43748 6.1756 15.25918 6.8658z" fill="#8cc63f"/><g fill="#000"><path d="m25.1992 55.8616c.0384-.6215.0821-1.2427.1318-1.8636.4229-5.3176 1.2838-10.6382 2.9987-15.7023.7146-2.1161 1.5534-4.3087 3.096-5.9675.7787-.8385 1.7396-1.4542 2.8207-1.8215 1.0275-.3508 2.117-.4909 3.1912-.629.1172-.0151.2341-.0301.3508-.0454 2.5596-.3326 5.0647-.9609 7.3152-2.2721.9353-.5463 1.8234-1.2934 2.1314-2.3698.3447-1.1968-.0004-2.5952-.3238-3.7636-.3017-1.0844-.8225-2.0633-1.7928-2.685-.9521-.6107-2.0798-.864-3.1858-1.0406-.9285-.1494-1.8644-.2711-2.7999-.3926h-.0001l-.0005-.0001c-.3771-.049-.7541-.098-1.1306-.1488l-.0008-.0001c-.7115-.0958-1.423-.1915-2.1345-.291-.1679-.0221-.3358-.0451-.5037-.0681s-.3358-.0461-.5037-.0682c-.0729-.01-.1477-.0182-.2234-.0265h-.0002c-.2313-.0254-.4699-.0516-.6816-.1316-.5086-.1914-.6575-.8058-.7767-1.2979-.0108-.0445-.0214-.0881-.0319-.1302-.0709-.2867-.1344-.5742-.1979-.8617s-.1271-.575-.1979-.8617c-.287-1.1282-.7311-2.1653-1.6172-2.9512-1.8598-1.64485-4.605-1.68481-6.9165-1.23512-1.2781.25024-2.5745.60631-3.7944 1.06472-1.0483.3928-2.0019 1.0231-2.4961 2.0591-.7298 1.5308-.4791 3.1573-.2297 4.7755.1209.7841.2414 1.5663.25 2.3347.0165 1.3542-.4486 2.5326-1.1072 3.6925-.2092.3659-.4223.7293-.6354 1.0928-.4093.6979-.8187 1.3961-1.2013 2.1132-1.1417 2.1448-2.1338 4.37-2.9691 6.6503-1.6704 4.5567-2.73513 9.3296-3.1574 14.1617-.03458.3944-.06491.7893-.09096 1.1844.35335.3335.71539.6579 1.08573.9729.20363-4.2425.90093-8.4614 2.07393-12.545.66-2.2987 1.4733-4.5498 2.4362-6.7386.9702-2.2106 2.1192-4.3153 3.3448-6.3906.6293-1.065 1.2075-2.1885 1.3332-3.4403.1044-1.0412-.0611-2.0743-.2257-3.1022l-.0001-.0003c-.0511-.3194-.1022-.6383-.1451-.9567-.141-1.0587-.1834-2.1866.1537-3.2119.3518-1.0726 1.1267-1.7944 2.1604-2.2201 1.1652-.4803 2.447-.80723 3.6776-1.05753 1.1612-.23579 2.3624-.32188 3.512-.00288 1.0108.27867 1.963.86021 2.5715 1.72601.6084.8662.8366 1.9047 1.0606 2.9241v.0003c.0282.1285.0564.2566.0852.384.0175.077.0345.1558.0518.2355.1014.4683.2103.9716.45 1.3711.3097.5151.8936.6874 1.452.783.9115.1539 1.8315.2695 2.7507.3851h.0002c.4425.0557.885.1113 1.3262.1712.4042.0553.8091.107 1.214.1587l.0007.0001c.8894.1137 1.779.2274 2.6617.3789 1.0074.1729 2.0402.4625 2.8132 1.1643.8825.8005 1.1693 2.0272 1.3906 3.1481.2395 1.2011.4094 2.4898-.3695 3.54-.6765.9117-1.7834 1.4541-2.7952 1.9091-1.1689.5241-2.3887.9095-3.6448 1.1561-.681.1328-1.3738.2243-2.0666.3158-1.711.226-3.4227.452-4.9594 1.2996-1.9216 1.0598-3.1434 2.9708-4.0001 4.9298-.9849 2.2545-1.6816 4.659-2.2614 7.0453-.6165 2.5397-1.0578 5.1233-1.3714 7.7181-.214 1.7653-.3695 3.536-.4815 5.3098.3744.0527.7511.0978 1.1301.1355z"/><path d="m30.1882 19.7988c-.0008.6036-.4909 1.0924-1.0946 1.0916-.6038-.0007-1.0926-.4907-1.0918-1.0944.0007-.6036.4908-1.0924 1.0945-1.0916.6038.0008 1.0926.4907 1.0919 1.0944z"/></g></svg>