<svg fill="none" height="1024" viewBox="0 0 56 56" width="1024" xmlns="http://www.w3.org/2000/svg"><path d="m55.9223 30.1023h-17.5777l-38.140829 1.293c-.1345326-1.113-.203771-2.246-.203771-3.3953 0-15.464 12.536-28 28-28s28 12.536 28 28c0 .7072-.0262 1.4083-.0777 2.1023z" fill="#fa775c"/><path d="m11.7497 28.3088s-.4794-1.9729 1.9112-5.9238c2.3906-3.951 5.0987-5.2185 5.7398-5.6428.6351-.4242 5.2605-2.116 6.0574-1.9728s4.1461-.4243 6.2191-.1432c2.0731.2811 5.8956 2.9645 7.016 3.8078 1.1144.8485 3.6668 4.6563 3.8226 5.5048.1557.8486.7968 5.9185.7968 5.9185l-31.7187.9864z" fill="#fae15c"/><g fill="#21457c"><path d="m2.56768 39.7293 19.71492-.8003c1.8322-.0745 3.6643-.1528 5.4965-.2312l.0049-.0002c4.8139-.2057 9.6278-.4115 14.4418-.5496 1.8448-.0553 3.6897-.0983 5.5346-.0983 1.3651 0 2.7621.05 4.0696.4675-3.4738 1.4819-7.1847 2.2896-10.8956 2.9332-1.1205.1955-2.2438.3774-3.3672.5593-2.9397.4761-5.8801.9522-8.7722 1.673-2.2261.5535-4.4154 1.2607-6.5124 2.2015-.1476.0677-.2706.1845-.1968.3506.2952.6826 1.0516.9962 1.7342 1.1438.7007.1505 1.4302.1823 2.1499.2137.2215.0096.442.0193.6605.0323 1.0333.0602 2.0666.1221 3.0991.1839l.0041.0002c.9693.058 1.9378.116 2.9049.1726 2.0003.1196 3.999.2392 5.9978.3589l.026.0016c1.9991.1196 3.9981.2393 5.9987.359l.3631.0214c.565.0334 1.1303.0669 1.6957.1004.2466-.2218.4893-.448.7279-.6784-2.5227-.1504-5.0454-.3012-7.568-.452-3.8835-.2321-7.7669-.4643-11.6504-.6949-.3465-.0209-.6938-.041-1.0412-.0612h-.0005l-.0012-.0001c-.6756-.0392-1.352-.0785-2.0258-.1232-.542-.0379-1.1461-.0902-1.4755-.5568 3.57-1.5519 7.3992-2.3776 11.2226-3.0407 1.0638-.184 2.1301-.3566 3.1965-.5292 2.9962-.4849 5.9933-.97 8.9367-1.7092 2.22-.5596 4.4093-1.273 6.5001-2.2262.2706-.123.2891-.3874 0-.5104-1.482-.6396-3.0809-.8425-4.686-.8978-1.3731-.0476-2.7554-.0135-4.1311.0205-.2262.0056-.4521.0111-.6779.0164-2.8883.0632-5.7766.1807-8.6649.2981h-.0006c-.4815.0196-.9629.0392-1.4444.0585-3.373.1353-6.7476.2721-10.1222.409-3.3746.1368-6.7492.2736-10.1223.4089-1.9033.0769-3.80504.1538-5.7068.2306-1.90176.0769-3.80353.1538-5.70683.2306-.00877.0003-.01803.0006-.02773.001.10259.2394.20842.4772.31744.7132z"/><path clip-rule="evenodd" d="m.201536 31.3769c2.615104-.0509 5.229924-.1021 7.844744-.1533h.00044c4.63208-.0907 9.26408-.1814 13.89768-.2706h.0003.0021c9.2174-.1784 18.4349-.3567 27.6462-.5411 2.1041-.0399 4.2093-.0807 6.3147-.1218.0231-.2859.042-.5731.0565-.8614-1.5581.0304-3.116.061-4.674.0915-2.3395.0458-4.6789.0916-7.0186.1372-.5925-3.1791-1.2604-6.4637-3.0236-9.2202-1.8633-2.9088-4.9074-4.8766-8.2097-5.7929-3.327-.9286-6.9429-.8487-10.233.2091-3.1793 1.0208-5.9528 2.9641-8.0006 5.6022-1.9433 2.5029-3.167 5.5777-3.4438 8.7448-.0345.3688-.0475.7321-.0541 1.1003-.5211.0104-1.0422.0208-1.56323.0312-2.59148.0491-5.18449.0997-7.7775.1503h-.0008l-.01723.0003c-.61212.012-1.224244.0239-1.836346.0358.025625.2875.055594.5737.089842.8586zm37.190664-1.5862c-8.184.1584-16.368.3167-24.5476.4793.1189-6.0889 3.8723-11.8751 9.4995-14.2728 5.6392-2.3984 13.0925-1.1869 16.9053 3.9111 2.1162 2.8316 2.8517 6.3734 3.49 9.7789-1.7823.0347-3.5646.0692-5.3472.1035z" fill-rule="evenodd"/></g></svg>