<svg fill="none" height="1024" viewBox="0 0 56 56" width="1024" xmlns="http://www.w3.org/2000/svg"><path d="m40.6272 52.9976c-3.794 1.9202-8.0842 3.0021-12.6272 3.0021-7.2634 0-13.8808-2.7656-18.85669-7.3013.50637-1.4988.86029-3.0798 1.24729-4.8088l.0023-.0102c.5474-2.4496.5946-4.9318.6889-9.8883v-.0021c.0149-.764.0183-1.3934.0212-1.9287.0098-1.8151.0137-2.5478.4393-3.7747 1.1314-3.2642 2.8357-5.9929 2.8357-5.9929s-3.3324-2.3776-3.4593-4.263c-.0586-.9013.5719-1.4078 3.5084-3.7667.5181-.4161 1.1079-.8899 1.7784-1.4337.4763-.3864.9057-.737 1.2974-1.0569 2.5431-2.07661 3.4978-2.85619 5.3674-3.70915 2.2337-1.01691 3.5717-1.13271 4.2135-1.15443 2.3171-.08323 4.0359.72378 4.5979 1.00967 2.0814 1.06758 3.1076 2.62371 3.6008 3.39451.5784.9026.7094 1.4231.8478 1.9728.1279.5083.2622 1.0416.7621 1.9248.2394.4234 1.6282 2.8082 4.5182 4.4042 1.5012.8287 2.3569 1.2991 3.5245 1.2268.1896-.0124.3714-.038.5456-.0625.4891-.0689.9186-.1293 1.2929.1348.272.1911.3497.436.4328.6977.0852.2685.176.5547.4882.8187.3865.3293.8471.3966 1.1623.4426.2111.0309.357.0522.3716.1364.0652.3908-2.4513 1.0097-2.4513 1.0097-4.3803 1.0784-8.3908 3.5392-10.0334 4.766-.9936.7419-5.0367 3.7637-5.5915 8.5189-.4714 4.0532 1.8276 7.3102 2.9879 8.9532 2.3849 3.3784 4.9132 5.4952 6.487 6.7405z" fill="#fdf1c0"/><path d="m14.3671 22.1481c.0181-1.0277 1.4142-2.4174 4.2135-5.2003.9501-.9445 2.5383-2.4536 4.9787-3.6117 1.4286-.6767 2.3605-.8613 3.064-.5066.6998.3546.9718 1.1255 1.0733 1.5887.1523 4.0423-.3009 8.9785-.5366 12.4924-.087 1.2739-.6165 2.8264-1.8385 3.3221-.6527.2642-1.3199.1303-1.9145 0-1.8747-.4053-3.1112-1.5054-3.6769-2.0229-3.5899-3.2643-5.3812-4.9-5.363-6.0617z" fill="#dbdbca"/><path d="m15.3255 52.9737c1.1719-.1155 2.5547-.2262 4.2486-.3618 4.083-.3257 6.1245-.4885 8.8876-.3836 3.1475.1195 5.1382.1955 7.9158.6732.5826.1011 1.111.2044 1.5789.2958l.0008.0001.0002.0001c.6955.1359 1.2573.2457 1.6651.2837.2528-.1155.5036-.2346.7523-.3574-.153-.5902-1.5555-1.7378-2.9747-2.4842-1.7079-.8938-3.3324-1.1471-6.2297-1.3462l-.0732-.0049c-3.0633-.207-4.8922-.3305-7.7918-.1869-4.1011.2027-6.6322.7528-11.1322 1.7335-.095.0206-.1918.0419-.2904.0638 1.0926.7704 2.2427 1.4646 3.4427 2.0748z" fill="#c7e4c7"/><path d="m50.6245 21.1348c0 .9574-.7777 1.7335-1.7369 1.7335-.9593 0-1.7369-.7761-1.7369-1.7335 0-.9573.7776-1.7334 1.7369-1.7334.9592 0 1.7369.7761 1.7369 1.7334z" fill="#c7e4c7"/><g fill="#6d2313"><path d="m48.8731 19.7403c-.0053.0008-.0107.0014-.0144.0014l.0055-.0006c.003-.0003.006-.0006.0089-.0008z"/><path clip-rule="evenodd" d="m15.8779 53.2471c1.053-.125 2.1085-.2302 3.1633-.3346.4213-.0417.8425-.085 1.2637-.1282h.0002c1.9568-.201 3.9139-.4019 5.8831-.4436 2.6108-.0579 5.2253.1049 7.8107.4596 1.7026.2319 3.3944.5443 5.0693.9271.5774-.2487 1.1447-.5163 1.7013-.802-.4264-.3482-.834-.7204-1.2299-1.1022-.4444-.4321-.8774-.8777-1.3018-1.3319-.0345-.0873-.1074-.1574-.1939-.2088-.5808-.629-1.146-1.2729-1.7026-1.919-1.9943-2.3088-3.8509-4.8638-4.5217-7.8964-.3191-1.4403-.3227-2.9639.0834-4.3861.4025-1.4041 1.1386-2.6852 2.027-3.836 1.7042-2.2148 3.9125-4.0279 6.3783-5.3415 1.7794-.9464 3.6963-1.5517 5.6132-2.1571 1.0519-.3322 2.1038-.6644 3.133-1.0529.3076-.117.6129-.2386.9177-.3651.2595-.0866.5083-.2055.7321-.3551.4279-.2858.7652-.6694.9283-1.158.156-.4632.1306-1.006-.0544-1.4584-.4315-1.0676-1.5954-1.6502-2.7195-1.567-.0534.0038-.1055.0148-.1545.0324-.7498.1202-1.3554.609-1.7094 1.303-.0959.1887-.1836.3899-.2467.5973-.5035.0705-1.0108.0851-1.5156.0251-.6273-.076-1.2365-.2316-1.8384-.4161-1.1422-.3547-2.2083-.9373-3.1329-1.6937-.9501-.7744-1.7587-1.7081-2.4042-2.7467-.4859-.7811-.8456-1.6217-1.2063-2.4645-.1506-.352-.3014-.7044-.4617-1.0531-.3118-.6803-.678-1.339-1.095-1.9614-.1983-.296-.4058-.60013-.6374-.88231-.0107-.02504-.0253-.04956-.0444-.07311-.649-.81787-1.5338-1.38966-2.4875-1.79497-1.0153-.43065-2.0813-.73464-3.1656-.88663-1.037-.14476-2.1031-.14476-3.1329.04705-.7832.14475-1.5447.39807-2.2772.70568-1.5338.63692-2.9662 1.52717-4.3114 2.49339-1.1604.8324-2.27 1.7443-3.3324 2.6997-.3626.3257-.718.655-1.0661.9916-.0561.0536-.1145.1067-.1733.1603-.0742.0675-.1491.1357-.2207.206-.0276.0166-.0547.0367-.081.0607-.8572.784-1.6767 1.6098-2.4951 2.4344-.2583.2603-.5164.5205-.7757.7792l-.3626.3619c-.0993.1009-.1368.2147-.1309.3235-.0551.1536-.0058.3233.1055.4582 1.0225 1.2569 2.067 2.4938 3.136 3.7106-1.0044 1.5858-1.8683 3.2657-2.3563 5.0833-.5512 2.0591-.6636 4.2088-.7035 6.3294-.0045.245-.0088.4898-.0131.7347-.04 2.3021-.0801 4.6007-.3423 6.8903-.26104 2.2836-.76869 4.5562-1.56644 6.7276-.02476.0676-.04982.1351-.07519.2024.24416.235.49258.4657.74513.6918.8357-2.103 1.3872-4.3054 1.7124-6.5433.3554-2.4609.4424-4.9507.4787-7.4332.0015-.103.0029-.206.0043-.309l.0001-.002c.016-1.1479.0321-2.2931.1152-3.4382.0725-1.0169.1777-1.9072.388-2.8807.3989-1.8601 1.1205-3.4596 2.0959-5.0628.0539-.0878.1079-.1751.162-.262.1351.1513.2706.3023.4064.453.4337.5815.9103 1.1285 1.3933 1.6691.058.0643.1151.13.1722.1957l.0001.0002c.1036.1192.2075.2387.3173.3506.0402.0401.0735.0629.1131.09.0175.0119.0362.0247.0573.0403.0205.0153.0314.0221.0365.0242.0062.0084.0163.0214.0324.0409.0584.0709.1238.1365.189.2018l.0001.0001.0003.0003c.0278.0278.0555.0556.0825.0837.3191.3293.6455.6514.9863.9554.1632.1447.33.2895.5041.427.0274.0219.0601.0449.0928.0679h.0001c.0537.0378.1076.0757.1391.1094.027.028.0526.0562.0781.0843.0604.0666.12.1322.1939.1908.3517.2859.7216.5573 1.0987.807.7615.5066 1.5629.9481 2.386 1.3498.0863.0423.1737.0862.2624.1306l.0004.0003.0002.0001c.7753.3887 1.6358.8202 2.511.6254.8956-.1991 1.4903-.9844 1.8311-1.7878.3735-.8866.6491-1.8022.8377-2.7431.1703-.8467.2446-1.7154.3183-2.5773l.0002-.0026.0001-.0008.0001-.0008v-.0005c.0109-.1274.0218-.2548.033-.3819.1813-2.0446.1958-4.1038.087-6.1521-.0544-1.0241-.1378-2.0446-.2465-3.0616l-.0068-.0627v-.0002c-.0232-.2148-.0466-.4321-.073-.6464-.0181-.1556-.0399-.275-.1233-.4089-.0544-.0832-.1088-.1628-.1741-.2388-.3517-.4054-.8267-.4669-1.3416-.4814-.9682-.0253-1.9073.2425-2.7957.6044-.8848.3583-1.7007.8034-2.4984 1.3281-.5405.3579-1.0197.7865-1.5002 1.2164-.1804.1614-.3609.3229-.545.4809-.7832.6695-1.5265 1.3824-2.2409 2.1207-1.0038 1.0381-1.9986 2.1482-2.7654 3.3822-.9109-1.0407-1.8055-2.0961-2.6827-3.1662-.0131-.0359-.0394-.0654-.0735-.0896l-.0075-.0092c.8839-.8878 1.7713-1.772 2.6681-2.6468.0419-.0407.0837-.0813.1255-.1219.2113-.2053.4216-.4098.6396-.6091.0416-.0381.0732-.0783.0959-.1196l.0129-.0125c.0344-.0335.0689-.067.1051-.0996.2756-.2678.5548-.5356.8377-.7961.9573-.8866 1.9508-1.7371 2.9879-2.5332.6345-.4886 1.2872-.9554 1.9581-1.38969.6345-.41256 1.3416-.82873 2.0705-1.19062.3553-.17732.7143-.34017 1.0842-.48855.1813-.07238.359-.14114.5439-.20628l.0002-.00006c.0224-.00746.1518-.05051.0723-.02527.0399-.01447.0834-.02895.1269-.03981.0751-.02495.1501-.04778.2235-.07012.0223-.00681.0446-.01358.0666-.02035.3518-.10133.7107-.18818 1.0734-.24608.0797-.01448.1631-.02534.2465-.03619.0134-.00334.135-.01594.1079-.01215.0283-.00237.0754-.00595.0879-.00595.272-.02171.544-.03257.8159-.03257 1.1205-.00724 2.2119.21714 3.2744.56455.8956.29313 1.8094.69483 2.5238 1.33537.1704.152.3227.31485.4641.49579.0516.065.1186.11379.1931.14581.1305.17367.2535.35267.3726.53097.3807.5681.7216 1.1616 1.0116 1.7768.1964.4141.3763.8357.5562 1.2571v.0001l.0001.0002v.0002c.3483.816.6963 1.6315 1.1625 2.3903 1.3381 2.1894 3.3651 3.941 5.8163 4.7624 1.2789.4286 2.6139.6786 3.9522.5557-.007.1675.0098.3356.0583.5011.145.4994.5403.8902.9355 1.2014.1595.1259.3265.2323.5013.3157-1.0243.3716-2.0648.7014-3.1057 1.0312l-.0002.0001-.1005.0318c-1.4976.4741-2.9915.9518-4.4093 1.6358-2.6181 1.2594-4.9932 3.0398-6.8751 5.2546-.9754 1.1472-1.8348 2.421-2.386 3.8288-.562 1.4367-.747 2.9856-.5548 4.5128.3989 3.1665 2.1539 5.9241 4.1483 8.3379.5171.6267 1.0494 1.245 1.5938 1.8525-1.7679-.5054-3.5701-.8694-5.4012-1.0708-2.1793-.2389-4.3767-.2389-6.5633-.1014-2.1974.1412-4.3948.38-6.5741.6949l-.0932.0135c-1.8193.2633-3.6682.531-5.433 1.054-.2921.0864-.5814.1798-.8679.2799.272.1983.5476.3917.8268.5803 1.6829-.5242 3.4405-.7966 5.1793-1.0628 2.0524-.3149 4.1193-.5465 6.1898-.7057 2.1648-.1665 4.3441-.2171 6.5088-.0362 2.1975.1846 4.4166.6369 6.5488 1.292.2567.079.5134.1609.7677.2455.1711.1811.343.361.5159.5398.5481.5644 1.1164 1.1121 1.7146 1.6236-1.5391-.3637-3.0921-.6686-4.6554-.9071-2.6398-.4053-5.3122-.6261-7.9846-.6225-2.4259.0037-4.8336.2497-7.245.4995-.4134.0426-.8269.084-1.2403.1255l-.0012.0001c-1.3161.1318-2.6318.2636-3.9423.4358.3853.2083.7761.4078 1.172.5983zm33.2754-33.5195c-.0278.0045-.0571.0068-.088.0068-.064 0-.1281 0-.1922.0059.0016-.0003.0032-.0005.0048-.0008.0021-.0004.0041-.0007.006-.0011.0026-.0005.0048-.001.0063-.0014.0068-.0017-.001-.0014-.0533.0083-.0834.0181-.1668.0398-.2502.0651-.0035.0012-.007.0025-.0105.0038-.0048.0018-.0095.0037-.0142.0056l-.0079.0033-.0026.0011c.0013.0001-.0123.0066-.0409.0188-.0127.0072-.0263.0145-.0399.0217-.0069.0037-.0138.0073-.0205.011-.0066.0036-.0131.0072-.0194.0107-.0363.0217-.0762.0471-.1124.0724-.0086.0058-.0156.0104-.0212.014-.0051.0053-.0123.0126-.0223.0222-.0581.0507-.1125.1013-.1632.1556-.0073.0109-.0907.1086-.0435.0471-.029.0361-.0581.0723-.0834.1121-.0979.1484-.185.3076-.2539.4705.0295-.0653-.0266.0754-.0326.0905-.0029.0088-.0059.0174-.0088.026-.0114.0337-.0224.066-.0311.1006-.0254.0869-.0471.1737-.0544.2642-.0109.1737.0218.304.1052.4379.1704.2787.4786.5428.7651.7093.3191.1846.6636.1773 1.0117.0832.33-.0868.6599-.2388.8993-.4596.4677-.4306.5112-1.0712.1668-1.5995-.2954-.4544-.8465-.677-1.3988-.7053zm-32.9803 4.0708c-.163-.1932-.3224-.3894-.477-.589-.0217-.0508-.0528-.0989-.0924-.142-.0314-.0347-.0628-.0694-.0941-.1041-.1262-.17-.2485-.3426-.3663-.5183-.0259-.038-.0566-.0697-.0908-.0955-.0313-.1059-.1089-.1997-.2175-.2483-.0008-.0003-.0022-.0008-.004-.0016-.0024-.0011-.0057-.0025-.0095-.0042-.0051-.0023-.0113-.0052-.0179-.0082 1.1721-1.9377 2.7861-3.5998 4.4553-5.1104.1381-.1261.2787-.2491.4193-.3722l.0001-.0001.0003-.0002.0001-.0001.0001-.0001c.1619-.1417.324-.2836.483-.4307.892-.8178 1.8239-1.5633 2.9154-2.1025.7252-.3619 1.4939-.6912 2.288-.8686.3917-.0868.7833-.1266 1.1822-.1122.0906.0037.1813.0073.2719.0181.0133.0024.0266.0045.0399.0065.0266.004.0532.008.0798.0152-.0575-.0143.0557.0459.0122.0084.078.0666.1445.1517.2124.2551.2455 2.1129.3991 4.2361.3991 6.3627 0 1.0749-.0399 2.1497-.127 3.2209-.0085.1093-.0169.2191-.0253.329-.07.9153-.1411 1.8456-.3191 2.747-.1958.9988-.4714 2.0085-.9102 2.9277-.1595.3366-.388.6623-.6889.883-.3264.2389-.6963.2389-1.0915.1194-.3237-.0994-.6389-.2556-.9489-.4093-.0964-.0478-.1922-.0953-.2876-.1407-.4315-.2099-.863-.4271-1.28-.6623-.4025-.2244-.7978-.4632-1.1821-.7238-.1741-.1194-.3445-.2424-.5149-.3691-.0417-.0314-.0857-.0633-.1304-.0958-.1464-.1063-.3008-.2185-.4063-.3348-.1438-.1569-.3072-.2883-.4729-.4216-.0599-.0482-.1201-.0967-.1798-.1466-.2067-.1773-.4097-.3583-.6092-.5465-.1958-.1881-.3916-.3799-.5802-.5754-.0489-.0506-.0988-.1022-.1486-.1538l-.1487-.1538c-.0326-.0362-.0653-.0687-.1015-.0977-.0326-.02-.0652-.0417-.0966-.0628-.0028-.0031-.0063-.0068-.0105-.0111-.0029-.003-.0062-.0064-.0098-.0101l-.0078-.0078-.0095-.0095c-.1071-.1418-.2322-.2746-.357-.4071l-.0001-.0001c-.0695-.0738-.1388-.1475-.2049-.2225l-.0002-.0002c-.1812-.2062-.3625-.4124-.5401-.6223zm-1.4091-1.714c-.0023-.0039-.0051-.0088-.0084-.0151.0007.0012.0017.003.0031.0054l.0001.0001.0028.0048.0025.0044zm.0166.0602v-.0192l.002-.0032c.0036.0109.0043.0199-.002.0224z" fill-rule="evenodd"/><path d="m26.4094 7.49172c.0045-.00055.0078-.00098.01-.00129-.021.00175-.0316.00283-.01.00129z"/><path d="m35.4376 18.8125c0 .7249-.5876 1.3125-1.3125 1.3125s-1.3125-.5876-1.3125-1.3125.5876-1.3125 1.3125-1.3125 1.3125.5876 1.3125 1.3125z"/></g></svg>