<svg xmlns="http://www.w3.org/2000/svg" width="1024" height="1024" fill="none" viewBox="0 0 56 56"><path fill="#e75c14" d="M27.189 35.609c-.056-.148-.088-.234-.11-.227-.043.016.08.38.281.97.33.967.868 2.547 1.218 4.211.272 1.298.286 1.967.332 4.224.017.802.038 1.805.076 3.108.093 3.094.177 4.325.228 5.067.047.68.065.95.036 1.866q-.021.62-.053 1.147Q28.601 56 28 56C12.536 56 0 43.464 0 28S12.536 0 28 0c3.405 0 6.667.608 9.686 1.72-.05 1.003-.284 2.672-1.44 4.276-.583.807-1.448 2.001-2.908 2.318-.7.15-1.322.052-1.794-.023-.436-.07-.744-.118-.868.07-.15.227.116.573.49 1.058.252.33.555.723.81 1.186.648 1.188.683 2.276.633 4.258-.056 2.35-.17 3.637-.265 4.715-.086.97-.157 1.774-.158 3.033v.036c.002 1.59.004 3.57.53 6.095l.061.296c.633 3.022.952 4.552 1.157 5.156l.128.37c.375 1.073.705 2.018.208 2.824-.446.73-1.332.972-1.805 1.1-1.239.338-2.65.107-3.66-.603-1.033-.724-1.44-1.81-1.616-2.276"/><g fill="#570000"><path fill-rule="evenodd" d="M31.743 8.166c1.866.239 3.427-1.53 4.119-2.976.467-.987.697-2.044.852-3.11q.049-.333.08-.671.807.267 1.592.58a14 14 0 0 1-.341 1.698c-.52 1.97-1.653 3.801-3.646 4.694a5.8 5.8 0 0 1-2.646.489c1.286 2.056 1.749 4.518 1.821 6.904q.034 1.097-.035 2.188-.021.339-.045.678a24 24 0 0 0-.08 1.808 10 10 0 0 1-.049.882c-.016.191-.033.383-.042.574a44 44 0 0 0-.043 1.45c-.01.929.022 1.856.08 2.783.129 1.9.404 3.79.79 5.655.157.746.366 1.467.577 2.2l.025.083.064.224.033.113c.232.801.466 1.612.244 2.44-.485 1.81-2.814 2.167-4.472 2.04a6 6 0 0 1-1.092-.19q.54 5.087.756 10.193.148 3.499.148 7a28 28 0 0 1-1.646.094q0-.45-.002-.897-.024-4.964-.348-9.914c-1.228.383-2.591.405-3.841.186-1.608-.283-3.07-.97-4.455-1.778-.288-.17-.314-.45-.011-.627.308-.18.85-.205 1.165-.02 1.119.658 2.358 1.293 3.607 1.542a6.3 6.3 0 0 0 1.851.11l.03-.004.015-.002.02-.002.057-.008.009-.001.008-.001.015-.002.018-.002.028-.004.013-.002.014-.001.014-.002.012-.002.028-.004q.126-.019.252-.045c.026-.005.184-.038.094-.016.316-.076.577-.176.834-.306a1 1 0 0 1 .15-.065 160 160 0 0 0-.558-6.115.26.26 0 0 1 .02-.135 3.8 3.8 0 0 1-.646-.64 3.5 3.5 0 0 1-.32-.466 2 2 0 0 1-.125-.259 1 1 0 0 1-.055-.16 1.3 1.3 0 0 1-.05-.189l-.008-.01-.005-.005a.6.6 0 0 1-.085-.119.6.6 0 0 1-.042-.205 1 1 0 0 0-.017-.141l-.005-.04-.004-.027a2.4 2.4 0 0 1-.039-.538c.031-.332.536-.431.815-.43.216 0 .86.064.83.401-.018.188.01.366.04.548l.001.008q.004.022.012.052c.01.04.022.086.012.113-.005.016-.013.03-.024.03l.013.014.006.006.022.025c.05.058.063.11.082.177l.004.015.002.007c.101.35.286.657.512.944.442.55 1.107.879 1.758 1.028q.057.014.122.018l.036.005c.082.012.16.023.244.03l.013.001q.045.007.09.007a5 5 0 0 0 .614-.01l.033-.003-.049.003h.006l.007-.002.02-.003.04-.006h.001a3 3 0 0 0 .294-.05l.074-.015.039-.006.005-.001h.002l.048-.012c.31-.085.515-.144.764-.364a1.8 1.8 0 0 0 .553-.903c.185-.698-.039-1.444-.245-2.13l-.076-.257-.057-.2a11 11 0 0 1-.112-.4 3 3 0 0 1-.038-.166c-.025-.118-.05-.238-.102-.342-.14-.283-.2-.606-.26-.922l-.057-.282a42 42 0 0 1-.794-5.323 37 37 0 0 1-.05-5.292c.035-.579.06-1.158.087-1.737l.04-.869q.016-.288.035-.576c.03-.481.06-.962.062-1.442.027-2.654-.333-5.447-1.818-7.749a8 8 0 0 0-1.239-1.493 4 4 0 0 0-.833-.633 8 8 0 0 0-1.02-.473c-.76-.283-1.416-.412-2.193-.499a9 9 0 0 0-1.076-.061q-.586-.006-1.165.025l-.3.02-.063.004-.048.003a24 24 0 0 0-.647.067c-.305.036-.854.04-1.017-.273-.127-.289.37-.478.602-.507 1.816-.213 3.645-.24 5.439.13.862.18 1.711.467 2.488.865.729.378 1.318.875 1.85 1.477q.218.248.413.507c.185-.021.37-.017.471-.006m-3.666 27.585v.001zm4.023 2.227.028-.005z" clip-rule="evenodd"/><path d="M23.635 21.31c-.13-.514-.465-.974-.877-1.318a2.8 2.8 0 0 0-.657-.399l-.048-.016a1 1 0 0 0-.089-.028q-.085-.029-.172-.05l-.006-.002c.039.01-.014 0-.064-.01h-.001l-.064-.013c-.006-.002-.05-.006-.087-.01h-.001l-.044-.005-.06.001h-.124l-.033-.002-.041.008a4 4 0 0 0-.226.04l-.045.006-.05.02c-.283.1-.44.158-.716.349a2.64 2.64 0 0 0-.964 1.27c-.2.55-1.827.444-1.59-.212.553-1.535 2.308-2.464 3.965-2.382 1.705.08 3.236 1.127 3.644 2.73.034.125-.148.273-.237.325a1.2 1.2 0 0 1-.577.146c-.348-.004-.745-.093-.836-.447zm-.229 5.706a1.75 1.75 0 1 1-3.5 0 1.75 1.75 0 0 1 3.5 0m14.984 1.75a1.75 1.75 0 1 0 0-3.5 1.75 1.75 0 0 0 0 3.5m2.952-7.456c-.13-.514-.465-.974-.877-1.318a2.8 2.8 0 0 0-.657-.399l-.048-.016a1 1 0 0 0-.089-.028q-.085-.029-.172-.05l-.006-.002c.039.01-.014 0-.064-.01h-.001l-.064-.013c-.006-.002-.05-.006-.087-.01h-.001l-.044-.005-.06.001h-.124l-.033-.002-.041.008a4 4 0 0 0-.27.046l-.05.02c-.283.1-.44.158-.717.349a2.64 2.64 0 0 0-.963 1.27c-.202.55-1.828.444-1.591-.212.553-1.535 2.308-2.464 3.965-2.382 1.705.08 3.236 1.127 3.644 2.73.034.125-.148.273-.237.325a1.2 1.2 0 0 1-.577.146c-.348-.004-.745-.093-.836-.447z"/></g></svg>