<svg xmlns="http://www.w3.org/2000/svg" width="1024" height="1024" fill="none" viewBox="0 0 56 56"><path fill="#39b54a" d="m22.93 10.599 2.162 1.975 1.131-1.504-.188-1.41-1.225-.942z"/><path fill="#ff8649" d="m40.888 21.7 1.786-2.635 2.917 1.504-2.163 2.352z"/><path fill="#fcee21" d="m38.07 15.303-.47 1.975 3.383-1.037-.377-1.88z"/><path fill="#fcee21" fill-rule="evenodd" d="m24.852 20.344.146-4.103 3.95-.094 5.08 2.918 2.44 2.913 1.602 3.672.655 3.385-2.068 2.725-.367.099.084-.005-20.023 8.655-4.703 1.598c.094-.283 13.162-25.3 13.162-25.3v3.385zm1.123 4.103.715 2.613 3.478 3.856 2.917 1.126.233-.013-3.428-1.49-2.729-3.102z" clip-rule="evenodd"/><path fill="#fcee21" d="m35.248 35.149 1.786-1.692 1.974 1.315-1.88 2.352z"/><path fill="#8f2af4" d="M15.974 33.457s.471 2.446.566 2.729 1.974 2.258 1.974 2.258l1.409.377 4.514-1.598-1.409-.849-2.634-2.074-1.602-3.101-.377-2.918zm5.264-9.877s3.666-6.957 3.666-6.679.094 4.983.094 4.983l1.692 5.171 3.666 3.856 3.76 1.504-2.633 1.692-1.88.472-2.918-.755-2.728-2.352-2.069-3.007z"/><g fill="#09165f"><path d="M12.11 42.503a396 396 0 0 1 4.863-10.079 412 412 0 0 1 5.141-9.942 386 386 0 0 1 3.02-5.534c.208-.372-.81-.5-.998-.155a403 403 0 0 0-10.32 19.855 352 352 0 0 0-2.705 5.694c-.184.396.834.51.999.16z"/><path d="M24.447 16.752c-.445 3.336-.024 6.853 1.626 9.833 1.42 2.566 3.826 4.829 6.705 5.65 1.573.452 3.285.338 4.562-.755 1.052-.903 1.655-2.276 1.703-3.65.062-1.687-.579-3.322-1.402-4.772-.774-1.364-1.716-2.656-2.84-3.759-2.348-2.305-5.605-3.707-8.939-3.241a8.6 8.6 0 0 0-1.253.266c-.196.057-.167.195 0 .261.23.09.517.067.747 0 2.869-.812 5.896.509 8.01 2.415 1.095.983 2.018 2.148 2.802 3.388.837 1.322 1.555 2.766 1.77 4.325.186 1.378-.072 2.771-.904 3.907a4 4 0 0 1-1.392 1.212c-.588.3-1.205.347-1.846.204-1.367-.294-2.668-1.083-3.735-1.958a12.3 12.3 0 0 1-2.692-3.127c-1.64-2.69-2.21-5.908-1.985-9.016q.044-.6.125-1.193c.019-.223-1.024-.285-1.062.01M18.19 27.92c-.282 3.282 1.216 6.52 3.816 8.262.707.47 1.466.83 2.267 1.074.198.06.546.07.711-.086.17-.163-.042-.28-.184-.325-2.704-.825-4.805-3.297-5.408-6.24a9.4 9.4 0 0 1-.156-2.69c.014-.304-1.018-.345-1.046.005"/><path d="M11.826 42.775c3.242-1.372 6.489-2.739 9.731-4.11 3.214-1.363 6.428-2.73 9.632-4.125 1.805-.787 3.33-1.571 5.125-2.382.189-.085.349-.288.184-.48-.156-.185-.5-.222-.712-.128-3.195 1.442-6.133 2.83-9.356 4.21a1740 1740 0 0 1-9.656 4.092c-1.824.773-3.652 1.542-5.476 2.315-.193.08-.344.292-.184.48.16.19.495.218.712.128"/><path d="M15.475 33.546c.06 2.409 1.319 5.251 4.071 5.341.17.005.514-.061.518-.283.005-.226-.367-.278-.518-.283-.952-.028-1.734-.801-2.187-1.574-.56-.966-.82-2.093-.848-3.2-.01-.392-1.046-.387-1.036 0zm5.292-10.353c-.325 2.171.207 4.397 1.271 6.31 1.022 1.84 2.553 3.496 4.513 4.407 1.116.52 2.355.74 3.59.62.126-.013.442-.082.362-.266-.08-.18-.49-.166-.636-.152-1.889.18-3.679-.943-4.95-2.208-1.447-1.439-2.507-3.33-2.959-5.293a9.2 9.2 0 0 1-.15-3.418c.037-.27-.99-.326-1.041 0m16.648-7.923c-.047.76-.099 1.518-.146 2.277-.028.443 1.009.457 1.037 0 .047-.759.099-1.518.146-2.277.028-.438-1.008-.452-1.037 0"/><path d="M38.254 15.36c.797-.236 1.593-.467 2.39-.702l-.783-.198c.038.296.07.593.108.895l.048.4c.014.104.084.345.004.425.043-.033.09-.066.132-.099-.193.094-.443.132-.645.207a6.8 6.8 0 0 0-1.974 1.122c-.18.146.046.274.183.311.203.052.532.062.712-.08a5.9 5.9 0 0 1 2.054-1.107c.174-.052.415-.08.537-.231.113-.147.057-.33.038-.5l-.16-1.344c-.033-.278-.603-.25-.783-.198-.796.236-1.592.467-2.389.703-.146.042-.353.155-.184.311.16.15.524.141.712.085m-15.656-4.989a20.5 20.5 0 0 0 2.295 2.32c.183.16.485.174.711.103.156-.052.372-.23.184-.39a20 20 0 0 1-2.295-2.32c-.23-.269-1.225-.1-.895.287"/><path d="M23.448 10.472c.584-.543 1.173-1.08 1.758-1.622.183-.17-.015-.415-.184-.486a.68.68 0 0 0-.712.128c-.584.542-1.173 1.08-1.758 1.621-.183.17.015.415.184.486a.69.69 0 0 0 .712-.128z"/><path d="m24.291 8.59 1.324 1.5c.133.146.462.127.637.113.056-.005.48-.066.363-.198l-1.325-1.5c-.132-.145-.461-.127-.636-.112-.061.004-.48.066-.363.198z"/><path d="M25.795 10.212a6 6 0 0 0-.835 2.272c-.037.24.35.35.519.35.23 0 .48-.1.518-.35.118-.745.4-1.452.797-2.088.136-.212-.203-.396-.363-.424-.245-.047-.5.023-.636.24m10.451 22.845q-.756.939-1.513 1.876c-.315.391.674.556.896.283q.756-.939 1.513-1.876c.315-.391-.674-.556-.896-.283"/><path d="M34.81 35.484a8.8 8.8 0 0 1 2.13 1.946c.16.203.48.246.71.142.208-.094.345-.34.185-.542a9.6 9.6 0 0 0-2.295-2.107c-.217-.142-.519-.165-.735 0-.175.141-.203.424.004.56zm1.682-2.051q.876.749 1.866 1.334c.221.132.513.165.735 0 .174-.132.217-.424 0-.551a13.3 13.3 0 0 1-1.866-1.334c-.387-.326-1.225.132-.735.551"/><path d="M38.212 34.376a14 14 0 0 0-1.103 2.644c-.16.538.853.688.999.208q.417-1.38 1.103-2.645c.122-.23-.175-.443-.363-.485-.26-.052-.51.047-.636.278m2.742-12.589a15.3 15.3 0 0 1 1.829-2.46c.165-.185 0-.392-.184-.467-.222-.085-.542-.062-.712.122a16 16 0 0 0-1.937 2.621c-.127.217.203.391.363.42.24.047.514-.02.641-.236"/><path d="M42.095 19.32a9.7 9.7 0 0 0 2.662 1.385c.226.076.51.104.735 0 .165-.075.208-.23 0-.301a9 9 0 0 1-2.502-1.301c-.184-.137-.5-.128-.711-.076-.128.033-.373.156-.184.292zm-1.805 2.856q1.412.304 2.761.82c.222.085.547.066.712-.127.16-.189.01-.405-.184-.48q-1.471-.56-3.006-.892c-.212-.047-.547.02-.637.245-.099.24.165.392.354.434"/><path d="M44.895 20.574a16 16 0 0 0-1.9 2.197c-.124.17.864.302 1.017.083a16 16 0 0 1 1.9-2.197c.135-.127-.311-.193-.369-.197-.187-.013-.504-.022-.648.114"/></g><path fill="#2e51ff" d="m33.825 27.04 2.535-.659 2.85-.186 2.135.563 3.195 1.692 2.446 2.258-1.692 1.598-1.88 1.226-1.597-2.635-2.823-2.447-2.517-.997z"/><path fill="#09165f" d="M46.065 30.534a13.4 13.4 0 0 1-3.05 2.549c-.184.109-.189.298 0 .406.201.114.53.123.733 0a13.9 13.9 0 0 0 3.215-2.666c.334-.374-.658-.558-.898-.289"/><path fill="#09165f" d="M34.079 27.258c2.933-.019 5.77 1.593 7.544 3.94a9.8 9.8 0 0 1 1.272 2.24c.095.232 1.06.158.957-.092-1.232-3.03-3.94-5.257-7.016-6.088a10.5 10.5 0 0 0-2.762-.352c-.099 0-.496.01-.496.176.005.162.415.176.5.176z"/><path fill="#09165f" d="M34.395 27.036a10.05 10.05 0 0 1 5.367-.415c1.64.326 3.176 1.061 4.49 2.093.746.59 1.41 1.273 1.98 2.032.127.165.453.16.636.142.08-.01.486-.085.363-.246a11.6 11.6 0 0 0-4.19-3.436c-1.837-.896-3.896-1.263-5.932-1.15a12.2 12.2 0 0 0-3.45.702c-.188.07-.17.208 0 .283.217.085.514.07.736-.005"/><path fill="#df579a" d="M32.203 8.364 30.606 18.43l-2.257 4.794 2.54-1.598 3.1-4.516 1.88-7.24z"/><path fill="#09165f" d="M32.194 8.789c1.032.216 2.366.358 2.974 1.343.179.288 1.182.17.999-.132-.717-1.16-2.23-1.381-3.45-1.64-.217-.048-.532-.076-.711.09-.165.15.028.306.188.339"/><path fill="#09165f" d="M35.145 9.758c-.17 4.053-1.726 7.996-4.325 11.118a18 18 0 0 1-2.426 2.401c-.179.15.048.279.188.312.208.053.551.063.73-.081 3.204-2.627 5.465-6.297 6.417-10.307.266-1.133.426-2.286.474-3.448.02-.308-1.044-.327-1.058.005"/><path fill="#09165f" d="M28.349 22.643c-.094.132-.193.264-.288.396l.947.283a31.9 31.9 0 0 0 3.62-11.215c.14-1.117.221-2.244.245-3.37.009-.495-1.028-.5-1.037 0a31.4 31.4 0 0 1-2.399 11.417 32 32 0 0 1-1.428 2.97c-.108.202.142.39.302.438.203.061.509.038.646-.15.094-.133.193-.265.287-.397.34-.476-.627-.75-.895-.372"/></svg>