<svg fill="none" height="1024" viewBox="0 0 56 56" width="1024" xmlns="http://www.w3.org/2000/svg"><path d="m23.5145 55.65c1.448.2303 2.933.35 4.446.35 15.4858 0 28.0395-12.536 28.0395-28s-12.5537-28-28.0395-28c-2.1706 0-4.2836.2463-6.3126.712438 1.092 1.340602 4.2071 5.459042 5.1014 8.629822 1.0603 3.76044 2.7705 12.15494-2.9416 18.65124s-6.6358 7.7689-6.6358 7.7689l14.0582-1.2403s-7.7986 4.8534-8.2433 15.3869c.1359 1.1476.3647 3.8272.5277 5.741z" fill="#5aa87d"/><g fill="#043419"><path d="m20.9593.892662c.3962-.102631.7959-.196802 1.1987-.28231.9304.870948 1.7265 1.950248 2.4535 3.022328.7312 1.07818 1.3826 2.21849 1.9443 3.41362 1.1034 2.35007 1.8512 4.9231 2.0506 7.5655.2027 2.7119-.2227 5.4055-1.1699 7.9128-.9804 2.6022-2.4527 4.9449-4.1344 7.0574-1.6537 2.0813-3.5101 3.9491-5.3827 5.7849.6421-.0541 1.2841-.1063 1.9262-.1574 3.7091-.297 7.4247-.5406 11.1438-.7275.2326-.01.5483.0767.6846.277.1363.2002.0133.3704-.1562.4905l-.0002.0002c-.1728.1234-.3455.2468-.5149.3769-.0057.0044-.0114.0087-.017.013-.0065.005-.013.01-.0194.0149l-.0276.0211-.0018.0014-.0267.0204c-.0029.002-.0502.038-.0638.0493-.0382.0301-.0764.0609-.1146.0918l-.0004.0003c-.0381.0308-.0762.0615-.1143.0915-.3157.2569-.6248.5239-.9239.8009-.5949.5472-1.1533 1.1279-1.6751 1.7452-.9372 1.1046-1.6916 2.2225-2.373 3.5306-.7012 1.3449-1.2463 2.7698-1.6152 4.2414-.0198.0787-.0392.1576-.058.2366.0349.0081.0697.016.1045.0237.0316.0067.064.0133.0964.02l.066.0137c.0273.0029.0525.008.0792.0135l.0144.0029c.2492.0467.5018.0867.7544.1168.0414.0042.0832.0088.1251.0134l.0002.0001c.0891.0098.1787.0197.2669.0265.0327.0033.0647.0058.0965.0082l.0011.0001h.0004l.0004.0001h.0004c.0322.0025.0643.005.0972.0083.0123.0012.0215.0021.0281.0028l.0052.0002.003.0001c.0035.0001.0069.0002.0103.0002.2625.0134.5251.02.7877.0167.113 0 .2228-.0031.3357-.0064h.0001l.0098-.0003c.0335-.0011.0725-.006.1133-.0111h.0005c.0806-.0101.1679-.021.2318-.0056-.0299-.0066-.1562.0101-.0498.0034.0332 0 .0665-.0034.0997-.0067.0285-.0032.0562-.0056.0836-.008h.0002c.0176-.0015.0351-.0031.0525-.0048.0122-.0012.0244-.0024.0365-.0039h.0003c.1063-.01.2125-.02.3188-.0333.2293-.0267.4586-.0601.6846-.1002.0665-.01.1296-.02.1961-.0333.0036-.0006.0112-.002.021-.0039.0075-.0014.0162-.0032.0255-.0051.0134-.0027.0279-.0057.0413-.0084l.0012-.0003.0269-.0055c.0332-.0074.0779-.0171.0935-.0202.0565-.01.113-.0234.1695-.0367.452-.1035.8973-.2303 1.336-.3804.0095-.0035.0189-.0069.0283-.0103.0055-.0019.0109-.0039.0164-.0058.0167-.0058.0333-.0116.0499-.0173h.0001c.0316-.0109.0632-.0217.0948-.0334l.0079-.0034.006-.0025.0037-.0016c.0034-.0014.0067-.0028.0101-.0042.0066-.0024.0139-.005.0203-.0073l-.0182.0064c.0119-.0047.0237-.0092.0356-.0128.1078-.0395.2156-.0821.3201-.1248.216-.0867.4287-.1801.6415-.2769.4254-.1969.8408-.4138 1.2429-.6541.0152-.0089.0306-.0179.046-.0269.034-.0197.0685-.0398.1021-.0608-.0034.0027.0854-.0519.1012-.0625.0931-.06.1861-.1201.2759-.1802.2027-.1368.4021-.2769.5982-.4238.7445-.5572 1.479-1.2313 2.0672-1.9088.2227-.2569.6016-.2869.9206-.2502.1396.0167.3324.0667.4454.1635.0631.0534.1529.1869.0764.2736-.7644.8777-1.6185 1.6652-2.569 2.3326-1.7183 1.2047-3.6659 2.0123-5.7198 2.416-1.752.345-3.5743.3514-5.3301.0192-.547 2.7943-.4675 5.7448.234 8.4976-.5252-.0743-1.0458-.1631-1.5613-.2661-.3729-1.6232-.5493-3.2872-.5114-4.9536.0731-3.2303.9339-6.4372 2.5125-9.2537 1.2455-2.2193 2.8981-4.1819 4.86-5.7855-.4878.0267-.9756.0543-1.4633.0825-1.8313.1068-3.6625.2269-5.4905.3604-.9087.0657-1.8207.1378-2.7295.21.0523-.0041-.0071.0011-.0587.0056l-.0053.0004c-.0164.0015-.0316.0028-.0416.0037l-.0065.0006c-.0332.0033-.0665.0058-.0997.0083s-.0665.005-.0997.0083c-.0548.005-.1097.0092-.1645.0134s-.1097.0083-.1645.0133c-.1065.0096-.2123.0184-.3177.0272-.1148.0096-.2293.0191-.3437.0296l-1.3859.1201c-.2892.0234-.7777.0133-.9206-.3137-.0403-.092-.0312-.1766.0081-.2505-.0273-.0088-.0444-.0175-.038-.0245.2525-.2448.5018-.4897.7511-.7346 1.9941-1.9663 3.9583-3.9801 5.6632-6.2571 1.602-2.1381 2.9713-4.5247 3.8221-7.1452.8242-2.5328 1.0901-5.2264.7644-7.8944-.3224-2.6315-1.1699-5.17165-2.3564-7.47785-.5982-1.16224-1.2829-2.26966-2.0406-3.31129-.5122-.7059-1.0535-1.4262-1.6681-2.045598z"/><path d="m32.9454 44.8459c.0083-.0052.0166-.0104.0248-.0157-.0085.0053-.0146.0091-.0186.0117l-.0011.0007-.0034.0022c-.0009.0006-.0014.0009-.0017.0011z"/><path d="m30.5572 46.0022-.0021.0009c-.0091.0032-.0171.0061-.0205.0072-.0047.0017-.0004.0001.0226-.0081z"/><path d="m30.9102 35.6974-.0007.0005c-.0109.0083-.0219.0168-.0331.0255.0266-.0204.0351-.027.0338-.026z"/><path d="m35.6179 21.7339c0 1.3622-.6843 2.4665-1.5285 2.4665-.8441 0-1.5284-1.1043-1.5284-2.4665s.6843-2.4665 1.5284-2.4665c.8442 0 1.5285 1.1043 1.5285 2.4665z"/><path d="m20.5515 21.8983c0 1.3925-.7088 2.5213-1.5831 2.5213s-1.583-1.1288-1.583-2.5213.7087-2.5213 1.583-2.5213 1.5831 1.1288 1.5831 2.5213z"/></g></svg>