<svg fill="none" height="1024" viewBox="0 0 56 56" width="1024" xmlns="http://www.w3.org/2000/svg"><path d="m12.0957 51.0477 20.5656-23.9856 16.846 18.8676c.8178-.98 1.57-2.0167 2.2496-3.1035l-19.3494-20.8072-23.33875 26.6115c.95075.873 1.96205 1.681 3.02695 2.4172z" fill="#ededed"/><path d="m2.38724 39.3306 5.86924-7.0285 7.76682 8.3562 1.5282-2.0568-9.53633-10.277s-3.53526 4.0504-6.80948 7.8292c.33082 1.0885.72616 2.149 1.18155 3.1769z" fill="#ededed"/><path d="m9.06627 48.6281 7.05323-8.0683-7.86301-8.2578s-2.92783 3.4055-5.92238 6.9077c1.5732 3.5969 3.88037 6.7995 6.73216 9.4184z" fill="#c3dfc3"/><path d="m49.8635 45.4941c-5.1313 6.4046-13.0184 10.5059-21.8635 10.5059-5.8459 0-11.2734-1.7915-15.7634-4.8555l.4978-1.3239c.1912-.2942 19.6327-22.9497 19.6327-22.9497z" fill="#f9dae9"/><path d="m55.188 21.2785-22.4885.7372 19.1088 20.7282c2.6573-4.2819 4.1917-9.3337 4.1917-14.7439 0-2.317-.2814-4.5683-.812-6.7215z" fill="#5b7691"/><path d="m17.7484 38.7939-9.5374-10.3744 19.5156-1.1851z" fill="#5b7691"/><path clip-rule="evenodd" d="m27.802 55.9993c.0076-1.1924.0153-2.3848.0232-3.5771l.002-.2966c.009-1.3048.0179-2.6098.0268-3.9178l10.8206-.1269c-.0128 1.9426-.025 3.8851-.0371 5.8277.3276-.1346.6521-.2753.9734-.4219.0026-.401.0052-.802.0079-1.2029l.0021-.3129c.0089-1.2994.0178-2.5989.0267-3.9014l.9683-.0114c-.0109 1.6538-.0214 3.3077-.0317 4.9615.3285-.1656.6533-.3374.9743-.5154.0005-.0811.0011-.1621.0016-.2432l.0102-1.4865c.0504.0044.096.006.1329.0056l2.6243-.0308c.3641-.2618.7217-.5321 1.0724-.8106l-3.706.0435c-.0341.0004-.0744.0025-.1183.0068.0045-.6469.0089-1.2942.0133-1.9423l.5397-.0063c.2579-.0031.8265-.0897.9009-.4151.0057-.0165.0086-.0342.0083-.053l-.0002-.0185v-.0026-.0032c0-.002-.0001-.0039-.0001-.0058l-.0035-.3007 5.3667-.063c.2484-.2641.4917-.533.7297-.8066l-6.1058.0717-.0127-1.0802c-.0002-.021-.0045-.0406-.0121-.0587.0072-.0273.0108-.0563.0105-.0872-.0046-.3892-.6528-.4741-.9204-.4709l-18.2499.2141c-.1745.002-.491.0423-.7007.1689-.0415.0209-.0772.0474-.1039.0795-.0653.0647-.1056.145-.1044.244.0016.0664.0218.1239.0555.1737l.005.424-6.4067.0752c.9384-1.1125 1.8794-2.2232 2.8208-3.3322l26.3972-.3097c.7469.8204 1.4937 1.6415 2.2406 2.4626.3963.4358.7927.8716 1.1891 1.3073.2624-.3049.5183-.6155.7675-.9316-.826-.9083-1.6514-1.8172-2.4757-2.7272-1.0549-1.1603-2.1098-2.3194-3.1648-3.4785-1.0549-1.1591-2.1098-2.3183-3.1648-3.4786-.9119-1.0014-1.8239-2.0041-2.7359-3.0067l-.0007-.0008-.0211-.0232c-.9047-.9947-1.8094-1.9893-2.7141-2.9827-.2798-.3084-.5581-.6192-.8367-.9303l-.0003-.0004-.0004-.0004c-.5998-.6699-1.2008-1.341-1.8196-1.9914-.0033-.0032-.0063-.0064-.0092-.0095-.0009-.0011-.0019-.0022-.0028-.0033l-.0019-.0022-.0031-.0035-.0038-.0046c-.0049-.0058-.0093-.0111-.0138-.0155-.1675-.1829-.5037-.213-.7371-.2054-.2384.0076-.5642.0261-.7322.2227l-.2161.2522-.0018.0021c-.5811.6781-1.1652 1.3596-1.7454 2.0411-.7794.9136-1.56 1.8259-2.3407 2.7383l-.0017.002-.0018.002c-.7806.9124-1.5613 1.8247-2.3407 2.7383-1.8912 2.2168-3.7824 4.4335-5.6687 6.6551-.4116.4854-.8236.9706-1.2355 1.4557-1.0385 1.223-2.077 2.446-3.1105 3.6737-.1363.0608-.2423.1541-.2468.2934-.1138.1353-.2274.2707-.3411.4061-.2547.3021-.7466.8424-1.2543 1.4001-.5826.6399-1.186 1.3026-1.4757 1.6544-.0764.0922-.1555.1836-.2349.2754-.0421.0486-.0843.0974-.1262.1463.3321.249.6699.4908 1.0132.7251.0258-.045.0638-.0881.0991-.1282.0136-.0154.0268-.0304.0388-.0449l.4028-.5011c.0246-.0298.0519-.0624.0818-.0976.1583.052.3382.0678.4454.0665l11.6203-.1363c-.0059.919-.0117 1.838-.0175 2.757-.0285-.0015-.0545-.0021-.0771-.0018l-9.1226.107c.5682.2782 1.1472.5377 1.7362.7777l7.3958-.0868c.0191-.0002.0402-.001.0628-.0024-.0042.6592-.0082 1.3184-.0123 1.9776.3216.0355.6449.0657.9697.0903.0074-1.1581.0148-2.3162.0225-3.4742.0096-1.4037.0192-2.8073.0288-4.2143l.9732-.0114c-.017 2.5856-.0331 5.1712-.0491 7.7568.322.0132.6454.021.9701.0232zm-14.2948-6.3628 11.4194-.134c.0027-.4201.0055-.8403.0082-1.2604l-1.0561.0124c-.2628.0031-.9109-.0818-.9204-.471-.0008-.0683.0182-.1277.0514-.1792l-.0088-.7555-7.0952.0832c-.1916.2276-.3831.4553-.5744.6831-.2332.2786-.7146.8054-1.2071 1.3444l-.0003.0002-.0001.0002c-.2096.2294-.4212.461-.6166.6766zm29.3607-10.3782c.7388.8118 1.4776 1.6237 2.2163 2.4362l-24.994.2932c.704-.8291 1.4086-1.6581 2.114-2.487zm-20.0779-.4457 19.4645-.2283-.1118-.1229c-.9249-1.0162-1.8499-2.0325-2.7748-3.0496-.1647.0499-.356.0622-.4572.0634l-13.4073.1573c-.9056 1.0592-1.8101 2.1194-2.7134 3.1801zm13.3349-6.9718c.9009.9904 1.8013 1.9814 2.7004 2.9736l-12.7508.1496c.6831-.8 1.3655-1.5993 2.0478-2.3986l.449-.526 7.0573-.0828c.1389-.0016.3377-.0354.4963-.1158zm-6.7563-.7353c.4181-.4897.8363-.9795 1.2549-1.4697.2578-.3008.5198-.5991.7819-.8975.3102-.3532.6205-.7065.9242-1.0643.3973.4365.7951.8725 1.1916 1.3072l.2264.2482c.548.6017 1.096 1.2035 1.6439 1.8055zm-5.5173 14.8185 18.2499-.2141c.0194-.0002.0406-.0009.0632-.0022l.0161 1.3701c-.0092-.0003-.018-.0005-.0266-.0007-.0129-.0002-.0251-.0002-.0366-.0001l-18.2539.2142-.0058.0001-.016-1.3672c.0033 0 .0065-.0001.0097-.0001z" fill="#1c344c" fill-rule="evenodd"/><path clip-rule="evenodd" d="m9.66906 49.166c.0617-.0384.1086-.0883.13136-.1527.01953-.0575.07167-.1153.11941-.1683.02125-.0236.04163-.0462.05787-.0674.1535-.1915.3118-.3832.475-.5749.4584-.549.9232-1.0917 1.3893-1.6357l.0002-.0002.0004-.0006.0002-.0001.0004-.0006.0002-.0002.0004-.0005c.1091-.1273.2181-.2546.3272-.3821.8353-.9733 1.6706-1.9466 2.5107-2.915 1.0226-1.1847 2.0452-2.3646 3.0678-3.5444.2223-.256.4422-.5095.6609-.7615l.0254-.0293.0015-.0017.014-.0161c.8631-.9946 1.7075-1.9677 2.5967-2.9867.3593-.4135.7186-.8265 1.0777-1.2393l.0002-.0002.0012-.0013.0036-.0042c.7622-.8761 1.5237-1.7514 2.2829-2.6289.5259-.6024 1.0519-1.2061 1.5778-1.8098l.0042-.0049c.5242-.6016 1.0484-1.2032 1.5725-1.8037l2.6504-3.0383c.2048-.2349.4096-.4693.6142-.7035l.0006-.0007c.4333-.4959.8659-.9911 1.2962-1.4884.0957-.1107.1935-.2204.2916-.3301.4066.4468.8137.893 1.2195 1.3379l.0011.0012.2171.2379c1.7444 1.9156 3.4888 3.8311 5.2284 5.7515 1.0546 1.1599 2.1092 2.3186 3.1637 3.4774 1.0553 1.1595 2.1106 2.319 3.1659 3.4797.9042.9929 1.8084 1.987 2.7126 2.9811l.021.0232.0023.0025c.912 1.0026 1.824 2.0053 2.7359 3.0067.0786.0861.1571.1722.2355.2583-.0006.0286.0075.0598.0266.0938.0207.0381.0511.0704.0886.0976.2429-.3605.4776-.727.7039-1.0992-.9042-.9931-1.8082-1.9864-2.7113-2.9806.7068.0708 1.4202.0648 2.1045-.1492.7126-.2274 1.2956-.7208 1.7167-1.334.4555-.665.7352-1.4321.8188-2.2193.2484.2506.5187.4795.8067.6836.1269-.3974.2452-.7988.3546-1.2037-.4095-.472-.7333-1.0208-.9605-1.5984-.0212-.0537-.0951-.0973-.1724-.1299.7122-.37 1.3234-.9209 1.733-1.6499.0434-.0766.0844-.1544.1231-.2332.1245-.9402.2023-1.8951.231-2.8623-.0501.0091-.1002.0166-.1517.0227-.0924.0108-.0924.0108-.0049 0-.0486.0055-.0924.006-.141.0065-.0781.001-.1562.0019-.2343-.0001.0457.0002-.0593-.0105-.1316-.0179-.012-.0013-.0231-.0024-.0325-.0034-.0117-.0012-.0207-.0022-.0253-.0028-.0798-.0116-.1596-.0269-.2364-.0458-.0003-.001-.0236-.0091-.0539-.0193-.0195-.0065-.0419-.014-.063-.021l-.0012-.0003-.0001-.0001c-.0355-.0118-.0672-.0222-.0749-.0252-.0455-.0157-.0911-.0357-.1368-.0557h-.0001c-.0228-.01-.0456-.02-.0685-.0295-.0363-.0164-.0582-.0271-.0658-.0308-.0367-.0198-.0728-.0397-.1055-.0597-.0833-.0476-.1666-.1001-.2499-.1527h-.0001c-.4955-.3287-.9159-.7984-1.2408-1.3238.5471-.3674.963-.9022 1.1569-1.5893.1407-.5003.1866-1.0136.1821-1.5305.4534.4652.9775.8623 1.5475 1.1697-.0544-.5354-.1238-1.0663-.2079-1.5923-.0669-.0678-.1326-.1377-.1973-.2097-.3978-.4446-.7145-.9574-.9472-1.5091.2689-.0106.5379-.0213.8069-.0321-.0862-.3814-.1803-.7598-.282-1.135-.157.0066-.314.0132-.4711.0199-3.1904.1323-6.3809.2646-9.5746.3854-1.3748.0536-2.7513.1097-4.1277.1658l-.0134.0006c-1.3764.0561-2.7529.1122-4.1277.1658-.4884.0218-.9767.0378-1.4651.0537h-.0002c-.8476.0277-1.6958.0554-2.5464.1137-.0097-.0014-.0185.0001-.0273.0016s-.0176.003-.0273.0016c-.0351.0011-.1065.0078-.1891.0291-.2195-.0073-.5628.0164-.7104.1812-.0659.0754-.1318.1512-.1979.2272l-.0005.0006-.0001.0001c-.1407.1619-.2821.3246-.4257.485-.2833.3245-.5654.6478-.8475.971l-.0305.035c-.2719.3116-.5439.6232-.817.936l-2.2155 2.5439c-.0333-.0016-.0657-.0014-.0966.0005-2.5194.1236-5.0377.2461-7.5559.3685-2.5173.1224-5.0346.2448-7.5531.3684-.708.0335-1.4161.0684-2.12425.1033l-.00273.0002-.00347.0002c-.62282.0307-1.24564.0614-1.86833.0911-.05801-.0031-.11363-.0033-.16384-.0016-.23348.0076-.56902.0261-.73221.2178-.35994.4276-.71981.86-1.07488 1.2875l-2.59116 3.1106c-.81555.9801-1.62816 1.9602-2.4401 2.9426.13064.4733.2734.9417.42793 1.4046.89523-1.085 1.79395-2.1699 2.69007-3.2517l.41421-.5001.00062-.0007c.90186-1.0857 1.80373-2.1715 2.71045-3.2572.13591-.1622.27466-.3234.41373-.485l.00019-.0002c.07574-.088.15158-.1761.22712-.2645l2.56985 2.7655c.8901.9587 1.779 1.9162 2.6678 2.8737.8829.9511 1.7657 1.9022 2.6498 2.8544.3767.4038.7533.8076 1.13 1.2153-.2654.3052-.5307.6107-.796.9164-.2259-.238-.4517-.476-.6774-.7141-.4496-.474-.8992-.948-1.35-1.422-.429-.4508-.858-.9021-1.287-1.3535-.041-.1365-.1519-.235-.2855-.3005l-.5708-.6008c-.7144-.7519-1.4287-1.5037-2.14301-2.2544-.33008-.3465-.66017-.693-.98539-1.0395-.1724-.178-.50364-.2082-.73712-.2006s-.56902.0262-.73222.2178c-.35993.4276-.71981.86-1.07488 1.2876l-2.59115 3.1105c-.5535.6652-1.10564 1.3304-1.65714 1.9963.17164.4257.35344.8462.5451 1.2613.59699-.7219 1.19461-1.4434 1.79109-2.1635l.41305-.4986.06937-.0835 6.9497-.0816.4169.4388c.7103.7476 1.4206 1.4952 2.1309 2.2417l.0007.0007c.1067.112.2135.2241.3201.3362l-11.9367.14c.15104.3162.30784.629.47025.9385l11.50605-.135c.2119-.0025.4684-.1092.5642-.3057l.0608.0648.0031.0031c.0014.0015.0028.003.0043.0044.0023.0023.0046.0045.0069.0068-.4694.5421-.9383 1.0847-1.4062 1.6273-.3272.3782-.6538.7559-.9799 1.1335-.0378-.0016-.0707-.002-.0968-.0017l-8.18409.096c.18207.2737.36884.5441.56017.8109l7.01092-.0822c-.3267.3793-.6531.7592-.9795 1.1404-.648.7569-1.29604 1.5139-1.93921 2.2708-.088.104-.1795.2076-.27164.312l-.00053.0006-.00012.0001c-.10807.1224-.217.2458-.32219.3719.30735.2917.62132.5765.94165.8542zm36.02914-26.9869c2.3071-.0954 4.6144-.1899 6.9233-.279.0079.0663.0158.1327.0238.1992l.0001.0006c.0988.8252.1994 1.6645.1218 2.4858-.0433.436-.1388.849-.3786 1.2331-.1959.3089-.5184.5413-.7879.6357-.0225.0082-.0437.0154-.0649.0225-.0212.0072-.0424.0143-.0649.0226.0059-.0025-.0651.0168-.1058.0285-.0131.0023-.0305.0055-.0479.0086l-.0005.0001-.0002.0001c-.0364.0066-.0724.0132-.0682.0114-.0222.0034-.0456.0068-.0689.0101-.0234.0033-.0468.0067-.069.0101l-.1767.0176c-.0223.0013-.0809.0018-.1002.002h-.0063c0 .0001.0039.0001.013 0h.0495c-.122.0017-.2385-.006-.3599-.014-.1214-.0079-.2376-.0205-.3583-.0382.1287.0172-.0544-.0131-.131-.0258h-.0002l-.0229-.0038c-.2499-.0555-.494-.1252-.7326-.2043-.019-.0062-.0353-.0116-.0498-.0163-.0982-.0321-.107-.035-.2309-.0899-.114-.0465-.2277-.0979-.3364-.149-.2461-.1137-.4864-.2417-.7157-.3884-.3371-.2124-.7536-.5519-1.0445-.8733-.654-.7227-1.1061-1.6371-1.2093-2.606zm-5.5188.2281.0076-.0003c1.1367-.0462 2.2734-.0923 3.4104-.1403.2483 1.554.263 3.2027-.4217 4.645-.3228.685-.802 1.3135-1.4148 1.7586-.304.2225-.6473.4066-1.001.5324-.1502.0553-.3005.1008-.4559.1319-.1152.0223-.2279.0371-.3147.0458-.4416-.4853-.8832-.9708-1.3248-1.4563l-.0967-.1064c-.912-1.0026-1.824-2.0052-2.7359-3.0067-.4437-.4863-.8862-.9738-1.3287-1.4613l-.0008-.001c-.2069-.228-.4139-.456-.6209-.6838.2236-.0089.4472-.0176.6707-.0264.5538-.0215 1.1075-.0431 1.6617-.0674 1.3209-.0564 2.6414-.11 3.962-.1637zm-29.3782 13.4513c-.2503-.2632-.5005-.5263-.7507-.7893-.45081-.474-.90039-.948-1.34997-1.422l-.01825-.0193c-.18402-.194-.36805-.388-.55216-.5821-.07819.0916-.15674.1829-.23517.274-.13915.1617-.27797.323-.41394.4852-.58822.7044-1.17439 1.4087-1.75984 2.1131zm38.3163 3.1192c-.1304-.0205-.2813-.0375-.4336-.0375-.3504-.3861-.7006-.7723-1.0506-1.1587-.7619-.838-1.5238-1.6753-2.2856-2.5125.0976-.0256.193-.0573.285-.0946.4843-.1955.8598-.5405 1.1811-.9433.3652-.4607.6117-1.0144.7185-1.5919.914.8533 2.2121 1.3516 3.4017 1.4853.4251.0472.8572.0432 1.2818-.0115.3176 1.1337.1965 2.3721-.3709 3.4167-.281.5191-.6643 1.0248-1.1813 1.3374-.4904.2949-.8589.2305-1.3917.1373l-.0011-.0002c-.0496-.0087-.1006-.0176-.1533-.0265zm-8.7098-9.1376c.2987.3282.5973.6563.896.9843 1.0553 1.1607 2.1106 2.3202 3.1659 3.4798l.1324.1454c.0819.0127.1618.0335.2371.0633.1007-.0629.1889-.1454.2771-.2278.2261-.2167.413-.4622.5607-.7365.2746-.5024.4053-1.0521.3953-1.6165-.1065.0051-.2138.0068-.3219.0051-.8371-.0145-1.7054-.199-2.4211-.648-.6883-.433-1.1597-1.0415-1.4816-1.7667-.4618.163-.9474.2666-1.4399.3176zm-14.2683-1.6297c-.3136.0153-.6273.0308-.9409.0463l-.0016.0001c-.709.0349-1.4181.0699-2.1269.1035-1.518.0745-3.0356.1485-4.5529.2224.242.0091.5981.0687.6333.307.0087.0583.0161.1165.0222.1746.2159.0393.3893.127.4307.2775.1066.3734.3442.7161.6439.9608.1375.1103.2945.2155.456.2963.2007.0998.3179.1374.4984.1791.0293.0045.0573.0102.0854.016.0197.004.0393.0081.0594.0117.0068.0005.0155.0013.0247.0021.0068.0006.0139.0013.0207.002.0077.0006.0151.0013.0221.0019l.0146.0013.0291.0026c.0913.0083.1174.0107.2506.0051.1508-.0018.3986-.0388.6024-.0849.5144-.118 1.0086-.299 1.5028-.4848.1905-.0737.4166-.1108.6361-.1022.3192-.3663.6386-.7326.958-1.0989l.0156-.018c.2388-.2738.4776-.5476.7163-.8215zm-2.5189 2.8902c-1.0112.2922-2.0564.4418-3.1131.2256-.5314-.1094-1.0544-.3239-1.4847-.6462-.2494.8388-.7568 1.596-1.4461 2.1842-.1966.1681-.4024.3321-.6168.4859.0076.0102.0141.0209.0195.0321.3402.7064.9095 1.2885 1.6001 1.5967.0973.0427.1946.0804.2918.1134l.0221.0069c.0454.0141.0605.0188.0757.023.0075.0021.0151.004.0263.0069l.0006.0001c.0067.0018.0148.0038.0249.0064.0086.0023.0187.0049.0308.0081.0508.0091.1016.0182.1525.0322.0163.0038.0276.0066.0351.0085l.0065.0008c.0924.0135.1847.0222.2769.0259-.2168-.012.2626-.0176.0461-.0005.0415-.0005.0829-.0058.1243-.0112-.0046.0001.1749-.0264.0967-.0109-.0735.0155.1012-.0206.0966-.0206.0129-.0031.0253-.0063.0375-.0095l.0328-.0085c.0161-.0042.0323-.0084.0492-.0126.0409-.0083.0818-.023.1517-.0521.1232-.142.2464-.284.3695-.426 1.0283-1.189 2.0607-2.374 3.0935-3.5586zm-4.0773 4.6917c-1.4234.0168-2.8878-.5797-3.6988-1.7976-.151.0652-.3049.1224-.4617.1702-.3286.0986-.6761.1558-1.0244.1645l3.3348 3.5895c.6163-.708 1.2335-1.4171 1.8501-2.1266zm24.2807-7.5502c.8529-.9271 1.2864-2.1752 1.4089-3.4213.7491 1.0183 1.8248 1.8144 3.0185 2.2909.4459.1779.914.3316 1.3918.4345-.3924 1.1318-1.0006 2.2009-1.988 2.9137-.1303.094-.2656.1734-.4009.2529-.1789.0994-.2563.1343-.3919.1895-.0727.03-.1502.0553-.223.0756-.0056.0016-.0159.0044-.0285.0078l-.0146.0039-.0205.0054c-.0511.0135-.1086.0287-.0858.0249l-.2.0399-.102.0158c.0003 0-.0003.0001-.0016.0003l-.0045.0007-.0056.0008c-.0085.0012-.0207.0029-.0342.0047l-.0006.0001-.0261.0036-.0166.0023-.0165.0014c-.014.0012-.0273.0023-.0303.0023-.0219.0003-.0451.0018-.0682.0033-.023.0014-.0461.0029-.068.0032-.0388.0004-.0789-.0003-.1189-.001l-.0004-.0001c-.0401-.0007-.0803-.0014-.1192-.001-.0039.0001-.0075.0001-.0107.0002l-.0228-.0022h-.0003c-.0139-.0013-.0278-.0026-.0414-.0039-.0091-.0009-.0182-.0017-.0271-.0026-.0604-.006-.1232-.0166-.1852-.0271h-.0002c-.0278-.0047-.0555-.0094-.0827-.0136-.0016 0-.0151-.0025-.0296-.0052l-.0008-.0002c-.0128-.0024-.0262-.0049-.0325-.0058-.0163-.0039-.0326-.0078-.0424-.0102l-.0069-.0016c-.0732-.0186-.1513-.042-.2246-.0655-.0634-.0187-.127-.0423-.1906-.0707.0685.0284-.1126-.0571-.1468-.0713-.7099-.3663-1.1411-1.0425-1.4323-1.8079-.0195-.0507-.0519-.0949-.0942-.1328.2574-.1832.4982-.3938.7178-.6337zm7.821-.6303c-.1681.0308-.337.0509-.5064.0615-.2388.712-.5577 1.3831-1.011 1.9985-.5313.7209-1.2066 1.3061-1.9765 1.7012.3258.6493.8385 1.1727 1.4551 1.5554.2941.1815.6074.3384.9349.461.3176.118.7082.2253.9953.2317l.1022-.0012c.0114-.0002.0201-.0002.0266-.0002l.0026-.0002c.0132-.0016.0347-.0042.0582-.007.0351-.0043.0746-.0091.0976-.0119.0127-.0016.0203-.0026.0191-.0026.0922-.0205.2572-.0614.3832-.1067.3198-.1108.6196-.2749.8946-.4776 1.0203-.744 1.5423-1.9712 1.5839-3.2058-1.2941-.2756-2.3465-1.115-3.0594-2.1961zm-42.21235 1.4133c2.02805-.0992 4.05545-.1978 6.08285-.2964.8905-.0433 1.7809-.0866 2.6714-.1299-.2423.0289-.5854.1054-.5544.3087.1795 1.1998-.1808 2.4205-1.0122 3.311-.4325.4674-.997.8779-1.5529 1.191-.1208.0695-.2466.1294-.3774.1796-.0581.025-.1114.0451-.1696.0604.0026-.0001-.0577.0146-.1006.0251l-.021.0051c-.0093.0023-.0163.004-.0192.0048-.012.0028-.0217.0052-.0294.0073-.0122-.0007-.0309-.0011-.058-.0007l-.0326.0003c-.0075-.0017-.0295-.0045-.0659-.008-.0208-.0071-.0529-.0174-.0478-.015l-.0047-.0019-.0097-.004-.0006-.0002c-.0377-.0154-.0982-.0401-.1367-.0651-.135-.0784-.2897-.1249-.4495-.1443l-1.1719-1.2625c-.8591-.9254-1.7181-1.8508-2.57836-2.7774l-.00106-.0011c-.12024-.1289-.24049-.2578-.36073-.3868z" fill="#1c344c" fill-rule="evenodd"/><path d="m13.9401 28.8475c-.0022-.1946 2.2731-10.3183 2.2731-10.3183l-2.1992.0258.1673-2.3327 1.9405-.0861.5963-4.3426 1.9443.2351.5048 4.4611 2.3237-.6112-.2336 2.0757-1.4209.4059 1.5578 5.8696 1.3473 4.5145-1.4789.8591-3.6833.4325-3.3071-.6716z" fill="#d8dbde"/><g fill="#1c344c"><path d="m15.3784 18.7093c-.6761 3.3411-1.3522 6.6823-2.0284 10.0235-.0736.3609.1828.645.5386.6992.2926.0501.856-.0392.9295-.4148.6761-3.3411 1.3522-6.6823 2.0283-10.0234.0736-.361-.1828-.6451-.5386-.6993-.2925-.0452-.856.0393-.9294.4148z"/><path d="m19.0932 18.8847c.7742 3.3631 1.7085 6.6853 2.798 9.9571.2168.6495 1.7083.4423 1.4611-.3042-1.0895-3.2718-2.0189-6.5941-2.798-9.9571-.0309-.1408-.2319-.2698-.3541-.317-.176-.0709-.4-.0878-.5845-.0467-.3397.0721-.6095.304-.5225.6679z"/><path d="m13.4496 29.3399c.5036.6169 1.3189.8458 2.0792.9488.9212.1254 1.8662.2117 2.7957.2251 1.6938.0288 3.539-.2946 4.8639-1.4293.2505-.2122.2908-.5143-.0084-.7152-.2746-.1817-.8103-.2143-1.0752.0126-1.0695.9177-2.3467 1.137-3.6948 1.1236-.7786-.0054-1.4899-.0798-2.2695-.168-.1413-.0178-.2875-.0355-.4289-.0582-.0829-.0136-.1658-.0321-.2488-.0506-.0341-.0094-.0682-.0138-.1024-.0231.0683.0186.0585.0139-.0245-.0095-.2688-.1039-.3911-.156-.5737-.3777-.232-.2795-.7285-.298-1.0433-.1678-.2955.1154-.5013.4098-.2693.6893z"/><path d="m13.4189 16.3528c-.1965.6738-.2565 1.3606-.1462 2.0552.0524.3205.4961.398.7637.39.1848-.007.8066-.0922.7543-.4078-.0997-.612-.0779-1.2448.0951-1.8454.0888-.3124-.2827-.4589-.5361-.4851-.2241-.0217-.842-.0145-.9308.2931z"/><path d="m14.1738 18.8938c2.3712.123 4.7542.0075 7.1005-.3315.2332-.0319.6738-.222.5242-.5268-.1447-.3097-.6608-.328-.9376-.2858-2.2103.3179-4.4379.4121-6.697.2975-.2435-.0117-.7578.1111-.7541.4322.004.3406.5303.4025.764.4144z"/><path d="m14.9655 16.2763c-.0051-.0145-.015-.029-.02-.0436.0009.0828.0019.1655.0029.253-.0183.0927-.8834.1856-.4401.229.0633.0042.1267.0132.1851.0173.1413.013.2825.021.4238.034.3165.0206.633.0412.9544.0569.5793.0224 1.1584.0254 1.7421.0088 1.1821-.0334 2.3582-.1542 3.5239-.3431.2622-.042.6635-.2656.5235-.5852-.1401-.3243-.6466-.3671-.938-.3198-1.2822.2096-2.5121.3165-3.8259.3173-.6033.0023-1.2654-.0192-1.8206-.0662-.3702-.0297-.7605-.1176-1.1294-.0403-.3301.0672-.8379.3359-.6432.7521.1497.3194.6321.377.938.3199.2475-.0516.6732-.2658.5235-.5901z"/><path d="m20.3962 16.305c.1179.5047.1145 1.0498-.006 1.5572-.0834.3562.1925.6498.5387.709.3071.0499.8413-.0439.9294-.4148.1715-.7319.168-1.4423-.0011-2.1702-.087-.3639-.6381-.4645-.9389-.3929-.3544.0723-.6091.343-.5221.7117z"/><path d="m16.7847 16.2258c.1299-1.3738.3085-2.7383.531-4.0986.0228-.1316-.1347-.2806-.2279-.3428-.1471-.0956-.3666-.1417-.5368-.1348-.3307.0136-.6943.1347-.7533.4954-.2273 1.3603-.4011 2.7248-.531 4.0986-.0348.3459.5119.4903.7647.4776.3114-.0085.7236-.1301.7533-.4954z"/><path d="m17.8304 12.0336c.1467 1.3024.337 2.5945.576 3.886.0779.4225 1.5801.3027 1.518-.0178-.2341-1.2867-.4293-2.5836-.576-3.886-.0437-.4034-1.5561-.3272-1.518.0178z"/><path d="m16.9179 12.6477c.485-.1371.9708-.206 1.4189-.1675.3361.0301.7977-.024.9296-.4002.1177-.3323-.2266-.6494-.5384-.6798-.7502-.069-1.4942-.0311-2.2265.177-.3007.0862-.6628.3289-.5223.6922.1304.3342.6234.4647.9387.3783z"/></g></svg>