<svg fill="none" height="1024" viewBox="0 0 56 56" width="1024" xmlns="http://www.w3.org/2000/svg"><path d="m9.67374 34.757 4.26336-.6027 2.0339-2.1293s1.6285-1.6225 3.4553-1.1117c1.8268.5109 3.5515.514 4.2588 1.8356.7073 1.3215 1.7188 3.2504 1.7188 3.2504s1.83-1.2139 2.4365-1.1136 2.6403.1079 2.9412.4099c.3047.3058 1.0189-2.1312 1.4236-2.2296.4046-.1023 1.5251-1.4167 2.1358-1.5186s2.5395-1.1134 3.3515-.7036c.812.406 2.6389.9168 3.0424 1.4251.4035.5082.9094 1.4211 1.4167 1.525.5073.104 2.3358-.3009 2.3358-.3009l2.7402-.3003-.0018 1.015s-1.218.4023-1.9288 1.0115c-.7109.6092-1.9296 1.4159-2.1366 1.923s-.9159 2.1314-1.1229 2.6385c-.2031.5071-.7123 1.4181-1.3236 1.8253-.6112.4034-2.2342 1.1139-3.0474 1.3147-.8131.2007-2.4344-.0045-3.1476-.208-.7094-.2036-2.3324-1.5268-2.6368-2.0349-.3043-.508-1.1154-1.4215-1.1141-2.135.0013-.7136-.3021-1.7253-.3021-1.7253s-1.0142-.4063-1.7243-.2054-2.03-.0037-2.4352.4-.813.1015-1.0163.7079c-.2034.6101-.408 1.9262-.8171 2.3337-.4052.4037-1.1211 1.7227-2.0337 2.0263-.9125.3036-1.2187.8105-2.5389.8081-1.3203-.0025-3.3501-.1092-3.9595-.717-.6094-.6079-2.0278-1.221-2.331-2.3396-.3032-1.1185-.4015-1.6262-1.0112-2.0318-.6098-.4056-2.1306-1.3242-2.1306-1.3242l-.81184-.509.00222-1.2096z" fill="#666"/><path d="m3.84473 28.7208c.27695-.0934 12.15827-5.1582 12.15827-5.1582l1.9352-4.4209 4.4174-8.7483 2.1187.8274 2.5792.7374 2.9461-1.1043 2.3956-1.28788 1.5648-.27696 2.2087 2.11874 1.5648 5.4352 1.7483 4.6043 1.9352 1.1979s7.4604 3.133 7.7374 3.0395c.2769-.0934 2.9461 1.1044 2.9461 1.1044l-7.277.7374-8.7483-.0762-9.4856.5539-10.5901.5332-9.11867.5539z" fill="#666"/><g fill="#000"><path d="m24.7343 37.0015c-.0158 2.4077-1.5005 4.641-3.7419 5.4993-.1642.0646-.1909.0721-.3627.1214-.1489.0417-.2978.0796-.4505.1099-.0343.0075-.0687.0151-.103.0189.0954-.019.0076 0-.0115-.0001-.0763.0113-.1565.0226-.2328.0339-.0763.0114-.1565.0188-.2366.0263-.0344.0038-.0687.0037-.1069.0075.1069-.0075-.0114-.0001-.0534-.0001-.1412.0035-.2862.0033-.4274-.0008.0038 0-.1717-.008-.0801-.004.0763.004-.0343-.0039-.0534-.0039-.0878-.0078-.1755-.0156-.2594-.0272-.0763-.0116-.1564-.0232-.2327-.0348-.0191-.0038-.1068-.0192-.0115 0-.0343-.0077-.0686-.0116-.103-.0192-.1526-.0309-.3013-.0693-.45-.1115-.1717-.0499-.1983-.0576-.3623-.1228-.1411-.0537-.2822-.115-.4156-.1801-.2631-.1264-.4879-.2527-.7319-.4211-.4687-.3214-.8954-.7075-1.2494-1.1508-1.5457-1.9222-1.7543-4.6776-.4874-6.8006.5933-.991 1.48-1.8136 2.5112-2.2925.1298-.0608.2597-.1178.3933-.1672.1718-.0645.1833-.0683.3627-.1214.1489-.0417.2978-.0796.4505-.1099.0343-.0075.0687-.0151.103-.0188-.0229.0037-.0992.015.0115 0 .0878-.0113.1718-.0264.2595-.0377.0687-.0075.1374-.015.2099-.0225.0344-.0038.0687-.0037.1069-.0074-.1221.0074-.0038-.0001.0267 0 .1679-.0073.3396-.0032.5075.0009.1183.0117.0229.0001 0 0 .0343.0039.0687.004.1068.0079.0687.0077.1412.0117.2099.0232.0763.0078.1564.0194.2327.0348.0152.0039.122.0193.0572.0077-.0534-.0115.0877.0193.1068.0231 1.068.2309 2.1124.8052 2.9084 1.6614.8111.8753 1.3548 1.9791 1.5319 3.1585.0453.3015.0638.6106.067.9197-.0004.2251.446.2603.5948.2606.145-.0036.5991-.0295.5957-.2584-.0065-2.6673-1.7497-5.0668-4.2627-5.949-2.6617-.9321-5.7842-.2586-7.6351 1.9168-1.7208 2.0192-1.9438 5.0141-.5552 7.2718 1.499 2.4372 4.4581 3.4806 7.2064 2.9552 2.6033-.4989 4.7249-2.567 5.1647-5.199.054-.3319.0813-.6638.0819-.9996.0045-.3587-1.1898-.3647-1.1905.0016z"/><path d="m32.036 39.9798c-1.2057-2.12-.9947-4.8021.5389-6.7034.371-.461.8296-.8646 1.3262-1.1881.2369-.1521.5119-.3005.7754-.4183s.4773-.1937.7904-.2771c.0649-.0189.1336-.0341.2023-.0492.0344-.0076.0687-.0151.0993-.0227-.1031.0227.0076 0 .0343-.0038.1527-.0264.3015-.049.4542-.064.0267-.0038.2671-.0224.1221-.0112.0687-.0037.1336-.0074.2023-.0073.1526-.0035.3052.0006.454.0047.1145.004.0153 0-.0076 0 .0343.0038.0687.0039.0992.0078.0763.0077.1488.0155.2251.0233.0763.0077.1488.0193.2251.0347.0343.0039.0648.0116.0991.0193.0115.0038.145.027.0763.0154-.0801-.0154.0801.0192.0763.0192.0343.0077.0648.0154.0992.0231.0648.0154.1296.0346.1945.0538.1449.0422.2898.0883.4309.1419.0953.0346.0419.0154.0191.0077.0381.0153.0762.0307.1182.046.061.0268.122.0537.183.0805.1449.0651.2859.1379.4269.2183.2402.134.4422.2679.667.4438.4763.371.8952.8106 1.2339 1.3111.6888 1.0163 1.0529 2.2113 1.0316 3.4399-.0174 1.1752-.3859 2.3155-1.0516 3.2834-.3367.4878-.7457.9145-1.2119 1.2761-.2369.1865-.4738.3387-.7335.4833-.1337.0722-.2674.1407-.4087.2015-.1489.0684-.2673.1139-.3666.1519-.1374.0494-.2787.0949-.4238.1328-.0763.0189-.1489.0379-.2252.0568-.0344.0076-.0687.0151-.0993.0227.0955-.0189-.0305.0038-.061.0114-.1336.0226-.271.0452-.4046.0564-.0344.0038-.0687.0076-.1031.0113 0 0-.1679.015-.0725.0075.0802-.0075-.0305-.0001-.0458.0037-.0419 0-.0839.0037-.1259.0036-.1526.0036-.3014-.0005-.4541-.0046-.0267-.0001-.1182-.0079.0077 0-.0344-.0039-.0687-.004-.0992-.0078-.084-.0078-.1679-.0156-.2518-.0272-.1335-.0193-.2671-.0386-.3967-.0656.1106.0231-.103-.0231-.1259-.0308-.0801-.0192-.164-.0422-.2441-.0653-.5034-.1459-1.0143-.372-1.4716-.6819-.4879-.3252-.9374-.7229-1.3029-1.1814-.1941-.2561-.3692-.512-.5251-.7832-.2016-.3438-1.3657-.2162-1.1488.1543 1.3998 2.4103 4.2555 3.6252 6.9846 3.1875 1.3741-.2226 2.6879-.8421 3.6818-1.8286.9251-.9179 1.5416-2.092 1.7767-3.3737.4895-2.6587-.8793-5.3513-3.2274-6.6415-2.4511-1.3477-5.6874-1.0598-7.8237.7564-2.0065 1.7058-2.7443 4.5472-1.8139 7.01.1177.3093.2583.6034.4219.8899.1978.3476 1.3618.22 1.1488-.1543z"/><path d="m25.9341 36.0841c.3477-.2436.6456-.3995 1.0351-.5323.0916-.0304.1871-.0607.2825-.0872-.0725.0189.0344-.0076.0573-.0152.0496-.0114.0954-.0227.145-.0303.0955-.0189.1947-.0378.2901-.049.0573-.0076.1183-.0151.1756-.0226.1069-.0113-.0153 0 .0496-.0037.1984-.0111.393-.0108.5915-.0028.0343.0039.1335.0117.0495.0039.0573.0078.1183.0117.1755.0194.0992.0117.1946.0309.2899.0502.3052.0616.717.1997 1.0144.3605.2516.134.5911.1614.8433.0016.2063-.1294.2373-.4041.0009-.5266-1.8107-.9573-4.1499-.8776-5.8463.306-.2101.1446-.2258.385-.001.5266.2287.1454.6217.1575.8471.0015z"/><path d="m9.36865 34.6648c-.00383.0076-.01147.0114-.0153.019.24433-.0682.48867-.1365.73305-.2047-.0077 0-.0191-.0038-.0268-.0039.1183.046.2365.0921.3547.1381-.0077-.0077-.0153-.0115-.0229-.0192.0266.0497.0532.0993.0799.149-.0001.0076-.0001.0114-.0001.0191-.0497.0419-.1032.0876-.1528.1294.0114-.0076.0267-.0114.0381-.019-.0878.0266-.1756.0493-.2634.0759.5344-.1059 1.0916-.1469 1.6336-.2184.5534-.0714 1.1106-.1467 1.6641-.2182.1526-.0188.5344-.1326.4165-.3618-.114-.2215-.5299-.2337-.7322-.2074-.8244.1092-1.6526.2183-2.4809.3237-.1984.0263-.3931.0527-.5915.079-.22523.0301-.54579.0448-.68354.2544-.13011.202.09474.3589.27398.4126.30509.0921.70196.0662.91616-.1891.0612-.0724-.0073-.1794-.0607-.2291-.0876-.0802-.2439-.1225-.3546-.138-.25177-.0271-.54944-.001-.72535.2086z"/><path d="m10.1651 35.2424c.0038-.0038.0115-.0076.0153-.0076.1375-.0722.3094-.1788.2945-.362-.0372-.5457-.8842-.6007-1.17868-.2387-.10709.1334-.09595.3051-.09625.4692-.00029.1564-.00058.3129-.00087.4693-.0003.1679-.01973.3548.05248.5152.08361.1833.25895.2867.43432.3671.25545.115.5147.2223.7625.3601.4269.2336.9185.5741 1.3224.9182.4115.348.7808.7532 1.1082 1.1811.1751.2293.5643.2567.8163.1542.2368-.0988.3898-.3465.2147-.5758-.5633-.7337-1.249-1.3798-2.015-1.9001-.3926-.2641-.8042-.4976-1.2312-.6968-.0953-.0459-.1907-.0843-.286-.1264-.2516-.1073.0266.0878.0189.0878.0039 0 .0004-.2023.0004-.2099.0002-.1221.0005-.2404.0007-.3625.0001-.0725.0003-.145.0004-.2175 0-.0305.0271-.206-.0075-.1068-.0497.0609-.1032.1219-.1529.1866.0076-.0076.0191-.0152.0267-.0228-.1946.034-.3855.0718-.58016.1058.00763 0 .01525.0038.02288.0038-.11817-.065-.23634-.1301-.3545-.1952.0038.0076.01141.0153.01522.0191-.02657-.0726-.05316-.1413-.07974-.2138-.00001.0076-.00002.0152-.00004.0229.09944-.122.19886-.2401.29448-.362-.00382.0038-.01146.0076-.01528.0076-.2177.1141-.40509.3389-.21474.5758.16751.2102.57567.2796.81248.1541z"/><path d="m42.2428 33.9925c1.4923-.1766 3.0074-.315 4.4843-.4115.1908-.0111.5953-.06.5958-.3309.0005-.2519-.4114-.3442-.5946-.3331-1.6028.1039-3.2057.246-4.801.4338-.1794.0226-.5269.167-.4167.4076.1102.2444.5108.2604.7322.2341z"/><path d="m46.3611 33.3933c.0565.3855.1207.771.1887 1.1527.0993-.0837.1987-.1637.2942-.2475-1.0955.2537-2.142.7554-3.0133 1.4674-.8331.6815-1.6857 1.6262-1.7412 2.7556-.0198.3892 1.1707.4104 1.1905.0022.0476-1.0111.8352-1.8568 1.5804-2.4659.7605-.6206 1.6389-1.0463 2.5856-1.2659.0878-.0189.3208-.1139.2943-.2475-.0718-.3817-.1321-.7672-.1887-1.1527-.0339-.2405-.4001-.2907-.5947-.2873-.1298.0074-.6297.0523-.5958.2889z"/><path d="m25.9884 37.7364c.3477-.2435.6456-.3994 1.035-.5323.0917-.0303.1871-.0607.2825-.0872-.0725.0189.0344-.0076.0573-.0152.0496-.0113.0954-.0227.1451-.0302.0954-.0189.1946-.0378.2901-.0491.0572-.0075.1183-.015.1755-.0226.1069-.0112-.0152 0 .0496-.0037.1985-.0111.3931-.0107.5915-.0027.0343.0038.1335.0117.0496.0039.0572.0077.1183.0116.1755.0194.0992.0116.1945.0309.2899.0501.3051.0616.717.1998 1.0143.3606.2516.134.5912.1613.8433.0015.2063-.1294.2373-.404.001-.5266-1.8108-.9572-4.15-.8776-5.8464.306-.2101.1446-.2258.385-.0009.5266.2286.1454.6216.1614.8471.0015z"/><path d="m3.67857 29.2747c1.57864.2423 3.17805.1973 4.76707.0865 1.59946-.1108 3.19536-.2354 4.79476-.3427 3.178-.2146 6.3561-.4016 9.5341-.5574 6.3596-.315 12.7261-.5193 19.0925-.6127 3.5277-.052 7.0831-.0589 10.5624-.734.1973-.038.4708-.1938.3773-.4362-.09-.2354-.4535-.2873-.6647-.2458-3.043.592-6.1449.6509-9.2329.6924-3.1469.0416-6.2903.1073-9.4338.2008-6.3318.1904-12.6637.4881-18.9851.9001-1.7656.1143-3.5277.2389-5.28986.3704-1.74135.1281-3.5.2597-5.23443-.0069-.2181-.0346-.57121.0069-.66468.2458-.09694.2389.18002.4085.37734.4397z"/><path d="m16.273 23.7944c3.2369-.09 6.4704-.18 9.7073-.27s6.4703-.18 9.7072-.27c1.8175-.0519 3.6385-.1004 5.456-.1523.2008-.007.5401-.0935.5401-.3497 0-.2493-.3462-.3566-.5401-.3497-3.2369.0901-6.4703.1801-9.7072.2701s-6.4704.18-9.7073.27c-1.8175.0519-3.6384.1004-5.456.1523-.2007.007-.54.0935-.54.3497 0 .2527.3462.3566.54.3496z"/><path d="m16.4946 23.3513c1.3329-3.5658 2.96-7.0208 4.864-10.3165.5435-.9382 1.1078-1.866 1.6929-2.7765.1385-.2181-.2181-.40501-.3774-.42924-.2561-.03808-.5192.01731-.6646.24234-2.0564 3.2023-3.8462 6.5742-5.3453 10.0742-.4258.997-.8308 2.0044-1.2082 3.0188-.1869.4812.8828.6058 1.0386.1869z"/><path d="m22.2587 10.5387c.9313.4536 1.8591.9694 2.8353 1.3225.9694.3531 1.9837.4501 2.9842.1696.8897-.2492 1.6894-.7027 2.4857-1.1632.7616-.4431 1.5405-.93469 2.3956-1.0974.0589-.01039.1177-.02077.1766-.03116.18-.03115-.0866 0 .0934-.01038.1178-.00693.2355-.01039.3566 0-.0242-.00347-.0831-.01385.0312.00346.0588.00692.1177.01731.1731.03116.1108.02423.1731.045.2977.10039.0415.01731.0831.03808.1246.05885-.0865-.045.0416.0277.0485.03116.0623.03808.1246.08312.1835.12812.1212.0934.2319.2042.3635.3635.4431.5504.6924 1.2809.8932 1.9837.27.9416.5019 1.8902.7927 2.8249.3116 1.0074.6543 2.0079 1.0317 2.9945.2042.5332.4154 1.0663.637 1.5925.1904.457.3808.914.6301 1.3433.2423.4189.5227.7997.8966 1.1078.3947.3289.8759.4881 1.3813.5262.2146.0138.5401-.1246.5401-.3774 0-.2735-.3289-.36-.5401-.3773.1281.0104-.0242-.0035-.045-.0069-.045-.007-.09-.0173-.135-.0312.1108.0312-.0312-.0138-.045-.0208-.0416-.0173-.0831-.0346-.1247-.0554.0866.0416-.0415-.0242-.0484-.0311-.0243-.0173-.0519-.0346-.0762-.0519-.0381-.0277-.0761-.0554-.1108-.0831-.0242-.0208-.0484-.0381-.0727-.0589.0277.0243.0208.0173-.0207-.0173-.2735-.2631-.4882-.5816-.6613-.9036-.45-.8377-.7858-1.7517-1.1251-2.6379-.3704-.9659-.7097-1.9422-1.0178-2.9288-.2977-.9521-.547-1.9145-.8101-2.8734-.2042-.7443-.4604-1.4817-.9035-2.1187-.4882-.69933-1.2429-1.16668-2.0945-1.25669-1.0247-.10732-2.0079.25272-2.8976.727-.8032.42929-1.5614.93129-2.3645 1.29819-.4535.2077-.7893.3289-1.2602.4016-.0519.0069-.1073.0139-.1592.0208.1004-.0104-.1073.0069-.1246.0069-.1108.0035-.2251.0035-.3359-.0035-.1661-.0069-.5158-.0796-.7062-.135-.5193-.1454-1.0143-.3877-1.5059-.6231-.5401-.2631-1.0836-.5262-1.6237-.78933-.2215-.10732-.5781-.05886-.7408.13503-.1696.2112-.0035.4154.1973.5123z"/><path d="m22.276 10.7915c.592.8516 1.2048 1.6859 1.8418 2.5064.6023.772 1.2047 1.5544 1.8729 2.2745.6681.7201 1.4747 1.229 2.4856 1.2359.9867.0069 1.9318-.4293 2.7246-.9867.8066-.5643 1.5509-1.2913 2.4302-1.6928.2043-.0935.3601-.3185.1939-.5228-.1627-.2008-.5158-.2389-.7409-.1385-.8066.3705-1.4817.9313-2.181 1.4679-.6543.5054-1.3467.9624-2.1256 1.087 0 0-.1835.0243-.0796.0139-.0554.0069-.1108.0069-.1696.0069-.0381 0-.0762 0-.1108 0-.0035 0-.1835-.0138-.0797-.0035-.2215-.0242-.3323-.0588-.5192-.1419-.142-.0658-.3012-.1696-.4536-.2908-.1488-.1177-.2769-.2423-.4085-.3808-.6404-.6785-1.2151-1.4263-1.7898-2.1568-.682-.8689-1.3363-1.7552-1.9663-2.6622-.2666-.3947-1.274-.1177-.9244.3843z"/><path d="m40.5342 22.7039c2.8907 1.1356 5.7987 2.2399 8.7171 3.3062.824.3012 1.6514.5989 2.4788.8966.2111.0762.5642.0589.7408-.0935.1939-.1661-.0485-.3011-.1939-.3565-2.863-1.0248-5.7121-2.0841-8.5509-3.1781-.8101-.3115-1.6167-.6266-2.4234-.9416-.2354-.0935-.5296-.1177-.765 0-.1835.09-.2181.2839-.0035.3669z"/><path d="m4.38137 28.9804c3.08803-1.5302 6.22453-2.9703 9.39913-4.3135.907-.3843 1.8175-.7617 2.7314-1.1286.2043-.0831.1801-.2701 0-.3566-.2284-.1108-.5331-.0935-.765 0-3.1989 1.2913-6.35613 2.6761-9.47186 4.1543-.88972.4224-1.77597.8516-2.65876 1.2878-.1904.0935-.19387.2631 0 .3566.21464.1039.54698.1073.76509 0z"/></g></svg>