<svg xmlns="http://www.w3.org/2000/svg" width="1024" height="1024" fill="none" viewBox="0 0 56 56"><clipPath id="a"><path d="M0 0h56v56H0z"/></clipPath><g clip-path="url(#a)"><path fill="#fcf6c4" d="M56 28c0 15.464-12.536 28-28 28S0 43.464 0 28q0-1.265.11-2.503l55.648-1.194Q55.999 26.119 56 28"/><path fill="#c3dfc3" d="m19.62 54.725-2.497-11.068 1.127-12.624 2.204-8.808 3.107-6.292 4.363-4.96 2.65 1.916 4.614 8.79 2.016 12.504-.327 14.92-1.215 5.836A28 28 0 0 1 28 56a28 28 0 0 1-8.38-1.275"/><path fill="#e75b14" d="m27.996 56 .713-20.22.894-23.24-1.786-1.781-1.34 1.474-.577 27.25-.593 16.39q1.328.127 2.69.127z"/><path fill="#0b5f65" d="M28.797 55.989a28 28 0 0 1-1.356.006l1.457-43.637a.35.35 0 0 1 .058-.185q-.345-.332-.72-.632-.273.238-.534.484.017.06.014.13-.107 3.255-.217 6.505v.02q-.11 3.24-.216 6.483l-1.028 30.784a28 28 0 0 1-1.353-.117l1.414-42.356c-1.955 2.251-3.432 4.891-4.593 7.633-1.555 3.664-2.611 7.538-3.198 11.474a52.5 52.5 0 0 0-.392 12.13c.276 3.414.88 6.794 1.761 10.098a28 28 0 0 1-1.5-.5 57.5 57.5 0 0 1-1.723-11.148c-.217-4.1.029-8.231.77-12.271a51 51 0 0 1 1.3-5.408l-.839-.02H17.9q-1.498-.034-3-.064c-4.932-.093-9.876-.107-14.8.224q.033-.4.078-.8 1.559-.1 3.123-.158c5.227-.201 10.455-.089 15.683.037a43 43 0 0 1 2.032-5.198c1.555-3.306 3.631-6.423 6.45-8.776a.9.9 0 0 1 .925-.141c.092.039.19.118.255.212q.075.028.138.07c.373.25.722.526 1.06.823 1.344 1.189 2.363 2.677 3.19 4.258.889 1.696 1.59 3.5 2.204 5.314q.538 1.599.96 3.232a1.4 1.4 0 0 1 .336-.06h.014l.246-.011q.129-.008.256-.012a.7.7 0 0 1 .172.015 508 508 0 0 0 18.481-.518q.068.461.12.925a510 510 0 0 1-19.311.533 1 1 0 0 1-.097-.007 55 55 0 0 1 1.27 7.78c.382 4.165.314 8.36-.068 12.52a97 97 0 0 1-1.298 9.084q-.712.22-1.438.404c.695-3.613 1.224-7.257 1.499-10.93.31-4.117.29-8.266-.176-12.374-.453-4-1.319-7.962-2.716-11.739-.825-2.226-1.807-4.579-3.275-6.512l-.177 5.314v.01q-.11 3.246-.217 6.488z"/></g></svg>