<svg fill="none" height="1024" viewBox="0 0 56 56" width="1024" xmlns="http://www.w3.org/2000/svg"><path d="m27.1887 35.6089c-.0557-.1482-.0879-.2341-.1094-.2265-.0437.016.0799.3788.2809.969.3296.968.8675 2.5477 1.2177 4.2119.2717 1.2979.2856 1.9669.3324 4.2235.0167.8023.0375 1.8052.0755 3.1085.0927 3.0935.1772 4.3245.2281 5.0664.0467.6805.0651.9494.0358 1.8668-.0136.4136-.0315.794-.0526 1.1464-.3969.0167-.796.0251-1.1971.0251-15.464 0-28-12.536-28-28s12.536-28 28-28c3.4046 0 6.6673.607657 9.6856 1.72043-.0503 1.00246-.284 2.67124-1.4405 4.27523-.5817.80781-1.4466 2.00184-2.9069 2.31839-.7011.15036-1.3226.05173-1.7942-.02309-.4364-.06925-.7442-.1181-.8677.06973-.1499.22683.116.57286.489 1.05835.253.32921.5553.72256.8106 1.18636.6482 1.1876.6831 2.2755.6335 4.2579-.056 2.3504-.17 3.6363-.2655 4.7147-.0861.9709-.1573 1.7735-.1577 3.0332l.0001.0357c.0015 1.5892.0034 3.5701.5292 6.0952l.0619.2962c.6321 3.022.952 4.5515 1.1567 5.1555.0426.1253.0857.249.1283.371.3744 1.0726.7043 2.0177.2071 2.8236-.4457.7298-1.3318.9712-1.8043 1.1l-.0008.0002c-1.2384.3377-2.6503.1066-3.6593-.6031-1.0333-.7245-1.441-1.8097-1.6164-2.2766z" fill="#e75c14"/><g fill="#570000"><path clip-rule="evenodd" d="m31.7431 8.16642c1.8655.2382 3.4268-1.52988 4.1186-2.97672.4678-.98642.6971-2.0439.8524-3.11012.032-.22181.0594-.44588.0794-.67089.5382.17789 1.0692.37166 1.5924.58077-.0772.57563-.1981 1.14735-.3413 1.69717-.5191 1.97055-1.6523 3.80136-3.6455 4.69411-.82.36862-1.7413.53439-2.6462.48883 1.286 2.05663 1.7489 4.51883 1.8214 6.90483.0233.732.0097 1.4597-.0355 2.1879-.0133.2259-.029.452-.0446.678-.0417.6027-.0835 1.2054-.0806 1.8073.0019.2923-.0233.587-.0486.8824v.0002c-.0164.1911-.0328.3825-.0419.5738-.0232.482-.0358.9638-.0431 1.4505-.0101.9282.022 1.8557.0804 2.7828.1282 1.899.4039 3.7904.7898 5.6548.1565.7455.3654 1.4671.5773 2.1992l.0002.0007.024.0831c.0216.0744.0431.1489.0646.2236.0108.0376.0217.0752.0326.1129.2319.8017.4663 1.6126.2441 2.4406-.485 1.8095-2.8145 2.1663-4.4724 2.0399-.3703-.0287-.7367-.0916-1.0918-.1896.3594 3.3902.6129 6.7904.7562 10.1926.0982 2.3315.149 4.6659.1481 7.0006-.5444.0469-1.0933.0782-1.6462.0934.0004-.2992-.0001-.5984-.0015-.8975-.015-3.3091-.1338-6.6122-.3486-9.9133-1.2275.3825-2.591.4051-3.8409.1859-1.6079-.2829-3.0699-.9696-4.4549-1.778-.2878-.1706-.3138-.4511-.011-.6269.3079-.181.8505-.2056 1.1649-.0204 1.1188.6576 2.3584 1.293 3.6072 1.542.6138.1247 1.1258.1559 1.7841.1143.0571-.0045.0685-.0046.0668-.0037.0066-.0009.0161-.0023.0298-.0041l.0155-.002.0195-.0026c.0193-.0029.0382-.0055.0569-.008l.009-.0012.0084-.001.0145-.0018.0179-.0023.0013-.0001c.009-.0011.018-.0022.027-.0034l.0135-.0017.0137-.0018c.0048-.0006.0096-.0012.0143-.0019l.0113-.0015c.0092-.0013.0185-.0027.0279-.0041.0842-.0116.1683-.0281.2523-.0446.0263-.0055.1839-.0383.0946-.0167.3151-.0758.577-.1757.8331-.3056.0479-.0249.0986-.0468.1513-.0656-.1464-2.0437-.3345-4.0816-.5589-6.114-.0055-.0495.0025-.0946.021-.1355-.2405-.1873-.4533-.3975-.6468-.6403-.1186-.1484-.2268-.302-.3193-.466-.0489-.0844-.0873-.169-.1258-.2586-.0219-.0498-.0387-.1047-.0555-.1596-.0083-.0188-.0488-.1626-.0493-.1894l-.0079-.0092-.0055-.0063c-.0317-.0368-.0622-.0722-.0853-.1186-.0291-.0627-.0352-.1348-.0411-.2053-.0029-.0358-.0059-.0711-.0118-.1048-.0017-.012-.0034-.024-.0052-.0361-.0019-.0133-.0039-.0267-.0058-.0401l-.004-.0269c-.0267-.1795-.053-.3567-.0384-.538.0311-.3317.5355-.4308.815-.4307.2162.0012.8606.0652.8296.4019-.0175.1881.0109.3658.0401.5481l.0012.008c.002.0144.0067.0324.0117.0516.0106.0405.0226.0861.0123.1135-.0052.0158-.0134.0303-.0239.0306.0043.0045.0086.0091.0128.0134l.0055.0057v.0001c.0042.0043.008.0083.0113.0118.0016.0017.0031.0033.0045.0048.0015.0016.0028.0031.0038.0044.0016.0018.0026.0032.0031.0041.0489.0583.0629.109.0819.1774l.004.0147.002.0071c.101.3493.2857.6571.5122.9441.442.5491 1.1068.8786 1.758 1.0277.0371.0094.0793.0137.1216.0179l.0356.0051h.0002c.0821.0116.1612.0228.2442.0301l.0127.0013.0001.0001c.0309.0031.0595.0061.0901.0066.0015-.0007.0137-.0011.0449-.0005.095.0033.1898.0017.2847 0h.0002c.0948-.0016.1897-.0033.2844-.01.0549-.0037.0511-.0034.033-.0022-.0148.0009-.0393.0023-.0488.0025l.0056-.0007.007-.001c.0067-.0009.0135-.0019.0203-.003.0134-.002.027-.0043.0407-.0066l.0002-.0001c.0249-.0042.0498-.0083.0734-.0113h.0003c.0735-.0113.147-.0226.2205-.0389.0236-.0055.0486-.0097.0735-.0139.013-.0021.026-.0043.0388-.0067l.0053-.0012.0019-.0004c.012-.0026.0307-.0068.0486-.0109.3096-.0857.5142-.1444.7634-.3645.2753-.2406.4649-.555.5537-.9026.1843-.698-.0393-1.4441-.245-2.1301-.026-.0867-.0517-.1726-.0763-.2572-.0187-.0665-.0381-.1331-.0574-.1996-.0386-.1331-.0773-.2662-.1113-.3994-.0146-.0536-.0265-.1099-.0386-.1667-.025-.118-.0505-.2385-.1021-.3425-.1388-.2831-.2003-.6061-.2605-.922-.018-.0949-.036-.1891-.0559-.2815-.3734-1.7542-.6472-3.5353-.7945-5.3236-.1416-1.7583-.162-3.5288-.0506-5.2915.0356-.579.0617-1.1579.0879-1.7367v-.0005c.0131-.2896.0262-.5791.0405-.8686.0102-.1923.0221-.3845.034-.5768v-.0002c.0298-.4806.0595-.9612.0624-1.4414.0273-2.6542-.3327-5.4471-1.8177-7.7487-.3522-.54062-.7618-1.04513-1.2389-1.49327-.2574-.24632-.5195-.45743-.8337-.63252-.3247-.17992-.6915-.34907-1.0206-.47373-.759-.28268-1.415-.41165-2.1916-.49837-.4596-.04713-.6391-.05903-1.0768-.0614-.3902-.00319-.7803.00364-1.1648.02543l-.3002.02031c-.021.00037-.0421.00199-.0631.00361-.016.00123-.032.00247-.048.00315-.0213.00173-.046.0041-.0521.00613-.2.01856-.3948.03702-.5947.06059-.3052.03545-.8535.04004-1.0172-.27313-.1263-.28875.3713-.47806.6028-.5072 1.8153-.2124 3.6445-.23944 5.4384.13045.8626.18053 1.7113.46665 2.488.86439.729.37851 1.3177.87486 1.8503 1.47754.1448.16524.2825.33441.4134.50718.1844-.02155.3686-.01736.4706-.00594zm-3.6662 27.58478c.0005.0013.001.0026.0016.0039-.0005-.001-.0009-.0019-.0012-.0027-.0002-.0004-.0003-.0008-.0004-.0012zm4.0235 2.2273c.0094-.0018.0188-.0037.0279-.0058z" fill-rule="evenodd"/><path d="m23.6349 21.3108c-.1303-.5145-.4652-.9751-.8773-1.319-.1915-.1569-.4073-.2898-.6569-.3987-.0013.0002-.0225-.0071-.0478-.0158-.0394-.0136-.0887-.0306-.0887-.0281-.0559-.0194-.1153-.0354-.1725-.0509l-.0058-.0015c.0388.0111-.0142.0002-.0636-.0099l-.0003-.0001-.0004-.0001-.0007-.0001c-.031-.0064-.0602-.0124-.0638-.0123-.0063-.0019-.0494-.0063-.0873-.0102l-.0012-.0001c-.0167-.0018-.0324-.0034-.0434-.0046-.0201 0-.0405.0003-.0608.0007-.0382.0007-.0764.0013-.1134-.0005-.0038-.0001-.0074-.0001-.0108-.0002-.0055-.0001-.0106-.0002-.015-.0004-.0068-.0002-.0123-.0005-.0169-.0008-.0102.0021-.0238.0047-.0415.0079-.0736.0113-.1473.0226-.2261.039-.021.0038-.0353.0059-.0447.007-.0088.0041-.0244.0104-.0497.0198-.283.1002-.4401.1582-.7162.3486-.4377.2987-.7828.7662-.9638 1.271-.2012.5504-1.8271.4434-1.5908-.2129.5531-1.5347 2.3085-2.4634 3.9655-2.3821 1.7045.0805 3.2361 1.1272 3.6439 2.7304.0338.1248-.1482.2735-.2369.3252-.1618.0931-.3929.1473-.5774.1455-.3481-.0039-.7451-.0922-.8357-.4468z"/><path d="m23.4061 27.0156c0 .9665-.7835 1.75-1.75 1.75s-1.75-.7835-1.75-1.75.7835-1.75 1.75-1.75 1.75.7835 1.75 1.75z"/><path d="m38.3905 28.7656c.9664 0 1.75-.7835 1.75-1.75s-.7836-1.75-1.75-1.75c-.9665 0-1.75.7835-1.75 1.75s.7835 1.75 1.75 1.75z"/><path d="m41.3421 21.3108c-.1303-.5145-.4653-.9751-.8773-1.319-.1916-.1569-.4074-.2898-.657-.3987-.0013.0002-.0225-.0071-.0478-.0158-.0394-.0136-.0887-.0306-.0886-.0281-.056-.0194-.1154-.0354-.1726-.0509l-.0057-.0015c.0387.0111-.0143.0002-.0636-.0099l-.0004-.0001-.0003-.0001-.0008-.0001c-.031-.0064-.0601-.0124-.0638-.0123-.0063-.0019-.0494-.0063-.0873-.0102l-.0011-.0001c-.0168-.0018-.0325-.0034-.0434-.0046-.0202 0-.0405.0003-.0609.0007-.0382.0007-.0764.0013-.1133-.0005-.0038-.0001-.0074-.0001-.0108-.0002-.0056-.0001-.0106-.0002-.0151-.0004-.0067-.0002-.0123-.0005-.0169-.0008-.0102.0021-.0238.0047-.0415.0079-.0736.0113-.1472.0226-.226.039-.0211.0038-.0354.0059-.0447.007-.0089.0041-.0244.0104-.0498.0198-.2829.1002-.4401.1582-.7162.3486-.4377.2987-.7828.7662-.9637 1.271-.2013.5504-1.8272.4434-1.5909-.2129.5531-1.5347 2.3085-2.4634 3.9656-2.3821 1.7045.0805 3.2361 1.1272 3.6438 2.7304.0338.1248-.1481.2735-.2369.3252-.1618.0931-.3928.1473-.5774.1455-.3481-.0039-.7451-.0922-.8356-.4468z"/></g></svg>