<svg xmlns="http://www.w3.org/2000/svg" width="1024" height="1024" fill="none" viewBox="0 0 56 56"><path fill="#aee8bf" d="M7.393 36.701c.541-1.27 3.518-2.192 4.306-2.833 6.14-5.001 16.97-12.395 23.634-17.42 2.812-2.122 6.747-5.566 8.611-4.62.471.241.683.688.842 1.052 1.905 4.344 1.064 8.64 1.053 9.134-.112 3.561-.177 5.718-1.153 8.604-.5 1.475-1.46 4.196-3.888 6.93-.424.475-2.295 2.527-5.465 4.196-4.047 2.133-7.723 2.339-9.453 2.415-.829.036-4.6.16-9.14-1.363-2.177-.735-3.935-1.852-7.459-4.09-1.076-.694-2.182-1.323-1.888-2.005"/><path fill="#f2dafb" d="M11.381 34.186c-.17 1.757 3.488 3.432 4.935 4.09 4.141 1.893 7.888 1.928 9.24 1.887 1.748-.047 4.518-.147 7.671-1.681 3.288-1.599 5.13-3.856 5.565-4.408 2.37-3.01 2.929-6.071 3.258-7.87.46-2.521.318-4.49.212-5.983-.018-.258-.159-2.057-.841-4.302-.724-2.38-1.241-2.58-1.47-2.621-.63-.112-1.112.64-2.1 1.575-1.348 1.27-1.948 1.293-3.995 2.621-2.182 1.417-2.594 2.104-4.935 3.99-1.523 1.223-1.329.918-6.617 4.515-9.505 6.459-6.33 4.86-8.3 5.983-1.523.864-2.535 1.316-2.623 2.204"/><g fill="#5e117b"><path d="M8.022 37.318c2.253-1.792 4.606-3.456 6.93-5.148 2.364-1.728 4.729-3.45 7.087-5.178 4.665-3.41 9.306-6.847 14.012-10.203 2.588-1.846 5.211-3.65 7.905-5.343.294-.188.253-.593 0-.787-.306-.235-.73-.194-1.04 0-4.824 3.027-9.406 6.406-14 9.762q-7.07 5.173-14.147 10.338c-2.606 1.904-5.258 3.762-7.782 5.772-.27.211-.276.576 0 .787.277.218.759.224 1.035 0M37.874 19.01c-.9.388-1.6 1.205-1.635 2.216-.035.97.588 1.922 1.47 2.31.53.235 1.336.306 1.847-.006.377-.223.424-.658.124-.976-.435-.458-1.224-.464-1.788-.323-.541.135-.96.5-1.318.905a5 5 0 0 0-1.206 2.857c-.07.881.183 1.916 1.124 2.215.553.177 1.23.159 1.759-.076.329-.147.664-.423.658-.817-.006-.517-.523-.835-.964-.952a2.76 2.76 0 0 0-1.936.223c-.929.488-1.482 1.475-1.864 2.416-.194.482-.383.975-.53 1.475-.147.517-.217 1.081.018 1.587.418.876 1.882 1.01 2.659.629.37-.182.588-.559.464-.964-.147-.482-.611-.782-1.076-.9-1.259-.317-2.388.306-3.418.959-.888.564-1.77 1.252-2.294 2.186-.229.411-.394.929-.17 1.381.23.453.865.54 1.317.54.395 0 1.053-.087 1.195-.534.14-.435-.3-.729-.653-.852-.583-.206-1.218-.176-1.83-.135a9 9 0 0 0-1.694.27c-1.1.282-2.159.746-3.082 1.405-.376.27-.93.623-.994 1.128-.076.606.612.823 1.088.829.612.012 1.141-.206 1.282-.84.1-.46-.07-.964-.34-1.335-.66-.887-1.942-1.158-2.983-1.24-1.2-.094-2.423.053-3.541.488-.488.188-1.035.423-1.43.776-.164.147-.323.364-.223.593.1.235.37.33.606.376.612.13 1.265-.011 1.806-.305.341-.188.764-.512.806-.935.047-.511-.536-.746-.936-.846-.629-.153-1.3-.206-1.947-.223-1.188-.03-2.523.094-3.617.582-.753.335-1.8 1.17-1.406 2.121.194.465.741.694 1.176.876q.784.324 1.56.676c2.27 1.046 4.617 1.757 7.117 1.951 2.358.182 4.77.018 7.052-.617 2.141-.594 4.17-1.563 5.941-2.91.2-.152.383-.334.588-.47.077-.052.171-.076.247-.135.118-.076.218-.188.324-.282a20 20 0 0 0 1.182-1.175 15.4 15.4 0 0 0 1.906-2.498c2.359-3.88 2.97-8.775 2.235-13.206a22 22 0 0 0-.8-3.25c-.14-.441-1.558-.27-1.47 0 1.088 3.35 1.394 6.958.764 10.432-.317 1.728-.852 3.432-1.658 4.995-.753 1.47-1.777 2.774-2.941 3.932-.253.253-.524.582-.824.764-.359.224-.682.5-1.03.753q-1.014.751-2.134 1.334a16.3 16.3 0 0 1-4.594 1.575c-1.712.317-3.477.34-5.2.135-1.835-.217-3.559-.782-5.235-1.534-.418-.188-.83-.394-1.247-.576-.347-.153-.724-.258-1.059-.447-.33-.182-.547-.423-.5-.822.041-.353.253-.688.518-.917.576-.5 1.417-.647 2.147-.723a7 7 0 0 1 1.876.053c.124.017.282.03.382.111.26.224.036.576-.158.753a1.7 1.7 0 0 1-.365.24c-.041.018-.124.048-.141.06-.089.046-.418-.018.211.046.242.112.33.106.271 0-.018-.023-.018-.047-.012-.07.124-.353.618-.547.941-.694a5.7 5.7 0 0 1 1.1-.376c1.241-.276 3.47-.117 3.594 1.552.012.17 0 .347-.059.505-.029.077-.088.136-.123.206-.1.212.806-.123.835.03-.006-.036-.059-.083-.076-.118-.159-.382.27-.711.53-.911a8 8 0 0 1 2.181-1.199 7 7 0 0 1 2.253-.411h.077c-.077-.006.047.005.053.005-.065-.029.035.018.047.024.106.065.182.159.176.288a.6.6 0 0 1-.053.17c-.017-.04.518.006.524 0-.006.012-.065-.07-.083-.094-.217-.311-.07-.781.083-1.087a4.2 4.2 0 0 1 .723-.987c.565-.588 1.26-1.04 1.959-1.452.17-.1.341-.206.523-.294.083-.041.171-.076.253-.112.036-.011.077-.029.118-.04.053-.018.206-.018.041-.024-.076 0-.1-.047-.064 0s.129.082.176.123a.83.83 0 0 1 .247.412.54.54 0 0 1-.065.405s-.106.141-.117.124c0 0 .247-.03.264-.03.071 0 .1.035.071 0-.018-.023-.1-.053-.124-.065a.8.8 0 0 1-.264-.287c-.394-.735.064-1.734.323-2.44.277-.746.606-1.492 1.136-2.092q.183-.203.394-.37c.076-.059.158-.118.247-.165l.106-.053c.088-.04.076 0 .047-.029a3 3 0 0 0-.218-.012c0 .012.024.012.03.018.023.053.14.112.182.17.088.124.13.282.094.435a.5.5 0 0 1-.165.259c-.035.03-.076.047-.112.07-.023.018-.053.018-.053.018 0-.006.189-.018.212-.018.147.012.188.089.094 0-.053-.053-.111-.088-.164-.14a1.3 1.3 0 0 1-.265-.436c-.27-.681-.147-1.54.065-2.221.235-.758.688-1.499 1.282-2.022.076-.07.165-.135.253-.188.017-.012.088-.041.1-.059.07-.112-.43.053-.453-.035.018.088.165.17.188.282a.4.4 0 0 1-.006.182c-.059.153-.247.124.17.077.36-.042.29.005.154-.083-.082-.053-.165-.106-.247-.17a2.18 2.18 0 0 1-.747-1.946c.094-.675.553-1.34 1.188-1.616.247-.106.265-.288 0-.388-.312-.07-.759-.082-1.053.047"/><path d="M6.917 36.971c3.029 2.945 6.758 5.167 10.817 6.372 4.07 1.21 8.452 1.422 12.587.428 3.883-.934 7.53-2.856 10.376-5.671 3.053-3.021 4.936-7.023 5.66-11.232.805-4.696.152-9.538-1.395-14.017a35 35 0 0 0-.612-1.652c-.164-.417-1.547-.2-1.47 0 1.705 4.303 2.658 8.957 2.27 13.595-.353 4.22-1.817 8.38-4.517 11.684-2.412 2.95-5.694 5.137-9.3 6.359-3.647 1.234-7.44 1.381-11.182.529-3.929-.9-7.64-2.845-10.682-5.478a27 27 0 0 1-1.135-1.04c-.212-.206-.63-.2-.906-.17-.07 0-.7.111-.511.294z"/></g></svg>