<svg fill="none" height="1024" viewBox="0 0 56 56" width="1024" xmlns="http://www.w3.org/2000/svg"><path d="m9.45618 41.9687.06501-23.924 1.98641.1929-.065 20.9103 1.0258 1.7311s0-1.0898 2.114-1.5382c2.1141-.4484 7.1103-.6413 8.3263-.3207 1.2159.3207 3.5226 1.4755 3.5226 1.4755s.3203-.7691 1.281-.7691 1.346.3858 1.5362.7065c.1926.3206 1.5362-.2556 2.7545-.8969 1.216-.6413 3.9705-.8342 4.9313-.8342.9607 0 4.1005.962 4.6759 1.0271.5755.0651 1.7289.7691 1.7289.7691l1.4735-1.0898-.1926-23.4756 2.2417-.1278-.2552 26.3615-16.6549-.1928s-.1927.7064-.8331.8342c-.6405.1277-1.6663.3206-2.0491.0651-.3853-.2556-1.2159-.6414-1.2159-.6414z" fill="#5cadd6"/><path d="m11.5702 38.8899c0-.2556.2817-20.6885.0915-21.4817-.2143-.8704 5.3253-3.3668 8.5928-3.3668 3.2674 0 4.7008.6167 5.2762.9374.5755.3206 2.5018.8864 2.5018.8864s3.319-1.696 4.0221-1.8238c.7031-.1277 3.6848-.5207 4.2627-.5207.5754 0 2.859 0 4.7824.5207 1.7155.9374 2.5204 1.8238 3.119 1.8238.3202.2555.6589 22.962.6589 22.962l-1.7288 1.7311-1.346-.6413s-2.6895-1.0271-4.1631-1.0271-4.8686.0651-5.8944.6413c-1.0257.5762-2.4993 1.3477-2.4993 1.3477s-.3202-1.2826-1.0257-1.1548-1.4736.5135-1.6012.6413-1.0884-.3857-1.0884-.3857-3.46-.8342-3.9079-.8342c-.4478 0-3.7152-.3207-4.0355-.1929-.3202.1278-2.8195.5762-3.0748.7691-.2552.1929-2.049 1.0897-2.049 1.0897l-1.0258-1.5382" fill="#fff"/><g fill="#000"><path d="m30.2814 21.0945c1.3388-.933 2.8485-1.5527 4.4304-1.8275.0132-.0024.027-.0048.0408-.0072h.0002l.0131-.0023c.0042-.0008.0083-.0015.0124-.0022.0052-.0009.0103-.0018.0154-.0028-.0193.0024-.0675.0097.0168-.0024l.1445-.0217c.1035-.0144.2071-.0289.3106-.0386.2071-.0241.4141-.0409.6236-.053.0045 0 .064-.002.0339-.0024.0141-.0006.029-.0015.0335-.0024.0482-.0024.0988-.0048.1469-.0048.106-.0024.2119-.0049.3179-.0049.0964 0 .1928.0023.2915.0047l.007.0002c.0253.0012.05.0018.0746.0024.0247.0006.0494.0012.0747.0024.0237 0 .0474.0016.0698.0035-.0044-.0002-.0079-.0004-.0104-.0004-.0039-.0002-.0051-.0001-.0024.0001.0031.0003.0117.0008.0273.0016-.0048-.0004-.0096-.0009-.0145-.0013.0059.0003.0134.0007.0217.0013.2119.0145.4238.0313.6357.0555.0987.012.1974.0241.2961.0385.0241.0037.0488.0073.0735.0109l.0396.0058c.0114.0017.0227.0034.0338.005.0349.0061.0217.0037.0084.0012-.0132-.0024-.0264-.0048.0085.0012.0361.0049.0698.0121.1035.0193.4117.0724.8187.1688 1.2208.2869.8379.2484 1.7216.6341 2.4993 1.1018.1758.1037.4238.1085.6188.0627.0939-.0217.3395-.1302.1613-.2362-1.5602-.9331-3.3324-1.4997-5.1407-1.6612-1.8275-.1615-3.6815.082-5.4031.7233-.9222.3448-1.8035.8053-2.6125 1.367-.1613.1133.0578.2146.1613.2363.1806.0386.4527.053.6164-.0603z"/><path d="m31.3697 24.5832c-.3684.2001-.7223.4195-1.0642.6582-.171.1181-.4671.0916-.6357.0024-.0626-.0337-.1324-.1037-.1324-.1808 0-.0844.0698-.1374.1324-.1808.8163-.5666 1.7048-1.0247 2.6342-1.3719 1.6855-.6268 3.4985-.8583 5.29-.704 1.789.1567 3.5515.7257 5.0925 1.6491.1637.0989.1662.2652 0 .3617-.1782.1036-.4599.106-.6381 0-.207-.123-.4165-.2411-.6308-.352-.106-.0555-.2143-.1109-.3227-.1616-.0252-.012-.0511-.0241-.077-.0361-.0259-.0121-.0518-.0241-.0771-.0362-.0155-.0072-.0317-.0144-.0478-.0216l-.0003-.0001c-.0162-.0072-.0325-.0145-.0482-.0217-.0024-.0024-.0674-.0289-.0265-.0121-.4261-.188-.8692-.3447-1.317-.4773-.1084-.0314-.2168-.0627-.3275-.0916l-.1445-.0362c-.0108-.0024-.021-.0048-.0312-.0072l-.0116-.0028c.0235.0053-.0284-.0072-.0366-.0093-.2095-.0458-.4166-.0892-.6261-.1254-.2022-.0361-.4045-.0651-.6091-.0892-.1108-.0144-.224-.0265-.3371-.0361-.007-.0007-.0232-.0022-.0404-.0039-.0158-.0014-.0325-.003-.044-.0041-.0202-.0012-.0402-.0026-.0601-.0041-.0115-.0008-.023-.0017-.0346-.0025-.0132-.0009-.0266-.0017-.0401-.0023-.4165-.0241-.8331-.0241-1.2496-.0024-.0313.0024-.0626.0042-.0939.006s-.0626.0036-.0939.006c-.0105.0005-.0165.0007-.0192.0007l-.007.0006c-.0071.0006-.0142.0013-.0213.0019-.0066.0005-.0132.0011-.0199.0017-.0988.0072-.1951.0168-.2914.0289-.2071.0217-.4141.053-.6188.0868-.2071.0337-.4117.0747-.614.1205-.0126.0032-.0248.0059-.0367.0085-.0114.0026-.0226.005-.0337.0078.0443-.0116-.0169.0032-.0259.0054-.0134.0034-.0266.0067-.0397.0101-.0104.0026-.0208.0053-.0312.008-.0235.006-.0471.0121-.0712.0181-.1011.0265-.1998.053-.3009.082-.3925.1133-.7802.2483-1.1606.4026-.0253.0108-.0511.0217-.077.0325-.0259.0109-.0518.0217-.0771.0326-.0072.0024-.0843.0362-.0506.0217.0289-.0121-.0337.0169-.0313.0145-.0963.0409-.1902.0843-.2841.1302-.183.0867-.3612.1784-.5394.2748z"/><path d="m38.9862 23.5606-.0068-.0015-.013-.003c.0068.0015.0133.003.0198.0045z"/><path clip-rule="evenodd" d="m30.3753 29.5112c.6598-.4605 1.3893-.8511 2.1406-1.1572.691-.2797 1.5241-.5136 2.2416-.6341.2047-.0338.4118-.0627.6189-.0868l.0019-.0002c.0957-.0096.1914-.0192.2894-.0288.0241-.0024.0482-.0042.0723-.006.0206-.0015.0412-.0031.0618-.005.0019-.0002.0037-.0003.0054-.0005l.0098-.0005c.0144-.0012.0283-.0018.0421-.0024.0139-.0006.0277-.0012.0422-.0024.4237-.0217.8475-.0217 1.2713.0048.0105.0012.0211.0018.0313.0023.0035.0003.007.0005.0105.0007.0028.0001.0056.0003.0083.0006-.003-.0002-.0033-.0002-.0018-.0001.0013.0001.0041.0003.0076.0006.0023.0002.0045.0004.0067.0007.0124.0008.0188.0012.0213.0013.0007.0001.0011.0001.0011.0001.02.0018.0397.0032.0594.0046.0141.0011.0282.0021.0425.0032.0106.0009.0214.0018.0322.0029.106.0096.2119.0217.3178.0337.2119.0241.4214.0555.6309.094.0987.0169.195.0362.2913.0555.0482.0096.0964.0193.1445.0313-.05-.0115-.0155-.0031.0053.002.0053.0013.0096.0024.0116.0029.0107.0023.0216.0048.0326.0074.0064.0015.0128.0031.0191.0046.0086.0021.0172.0042.0257.0062.0088.002.0175.004.0261.0059.1998.0482.3997.1012.5947.1591.9054.2676 1.7264.6268 2.5499 1.1211.1758.1061.4623.0964.6381 0 .1709-.0916.1589-.2387 0-.3351-1.541-.921-3.3035-1.49-5.0926-1.6443-1.8034-.1567-3.6334.0771-5.3285.7185-.9462.3568-1.8347.8245-2.6654 1.4031-.1734.1206.0409.2894.1613.3231.2143.0579.4406.0386.6212-.0868zm6.8532-1.915.0103.0007.0014.0001c.0068.0005.0133.001.0161.0012-.0046-.0004-.0092-.0008-.0139-.0013-.0103-.0007-.0165-.001-.0197-.0012l.0022.0001c.0012.0001.0024.0003.0036.0004zm-1.4224-.0035-.0043.0004c-.0106.0008-.0236.0015-.0285.0017-.0059.0002-.0006-.0003.0328-.0021z" fill-rule="evenodd"/><path d="m30.9243 33.417c-.1782.1109-.3515.2266-.5225.3447-.1854.1278-.4527.123-.6453.0049-.1685-.1134-.1661-.3424 0-.4581.8163-.569 1.7047-1.0367 2.6342-1.3839 1.6565-.6196 3.4504-.88 5.2129-.7209 1.8299.1639 3.5925.7281 5.1696 1.6732.1878.1109.1493.34 0 .4581-.1806.1446-.4527.1109-.6381 0-.2239-.135-.3467-.2025-.5779-.3207-.2142-.1109-.431-.2121-.6525-.3086-.2143-.0916-.4334-.1784-.6525-.2579-.1132-.041-.2263-.0796-.3419-.1182-.053-.0169-.1084-.0337-.1613-.0506-.0072-.0024-.0139-.0042-.0205-.006-.0008-.0003-.0017-.0005-.0025-.0007.0153.0047.0117.0045-.0107-.003-.0193-.0048-.041-.012-.0602-.0168-.4094-.1182-.8235-.2146-1.2425-.2869-.2022-.0362-.4045-.0651-.6091-.0892-.0403-.0047-.0816-.0094-.1226-.014-.0227-.0026-.0453-.0052-.0677-.0077.0598.0052.0079.0002-.0339-.0038-.0154-.0015-.0294-.0028-.0359-.0035-.0987-.0096-.1974-.0169-.2962-.0217-.4165-.0241-.8331-.0241-1.2496-.0024-.1108.0048-.2215.0121-.3323.0217-.0265.0024-.053.0048-.0819.0072.0017-.0005.0061-.0012.0114-.0018l-.139.0139c-.207.0217-.4141.053-.6188.0868-.4093.0699-.8162.1639-1.2183.2773-.053.0144-.106.0289-.159.0458.0201-.0065.0235-.0076.0179-.0059-.0132.0042-.0766.0242-.0901.0276-.0915.0289-.1854.0602-.2769.0916-.1974.0699-.3925.1422-.5851.2218-.3804.1543-.7512.3303-1.1124.5256 0-.0024-.0915.0482-.065.0337.019-.0101.0073-.0036-.0091.0056-.0147.0083-.0333.0187-.0367.021-.0433.0241-.0867.0482-.1276.0723-.0843.0482-.1685.0988-.2504.1495z"/><path clip-rule="evenodd" d="m13.9275 21.0174c.6669-.4629 1.3893-.8511 2.1405-1.1573.1758-.0723.3131-.123.5129-.1929.1974-.0675.3973-.1302.5971-.188.1999-.0579.4021-.1085.6068-.1543.0096-.0024.0199-.0048.0301-.0073l.0064-.0015c.0081-.0019.0161-.0038.0237-.0057.0096-.0024.0939-.0193.0482-.0096-.0256.006-.0089.0026.0078-.0008.0101-.002.0202-.0041.0211-.0041.0132-.0024.027-.0054.0409-.0084.0138-.003.0277-.006.0409-.0084.1012-.0193.2047-.0386.3082-.0555.2047-.0337.4118-.0627.6188-.0868.0963-.0096.1927-.0193.2914-.0289.0241-.0024.0481-.0042.0722-.006l.0003-.0001c.0205-.0015.041-.003.0615-.005.0019-.0001.0038-.0003.0055-.0004l.0098-.0006c.0144-.0012.0283-.0018.0421-.0024.0139-.0006.0277-.0012.0421-.0024.4238-.0217.8476-.0193 1.2714.0048.0041 0 .0557.0035.0391.0031l-.0175-.0013h-.0004l-.0079-.0006c-.0069-.0004-.0098-.0006-.0044-.0001.0012.0001.003.0003.0053.0005.0026.0002.0058.0005.0098.0008.0074.0004.0122.0006.0151.0007l.0121.0008.006.0004c.0058.0003.0104.0006.0126.0006.0253.0024.0499.0042.0746.006s.0494.0036.0747.006c.1059.0097.2119.0217.3178.0338.2119.0241.4214.0554.6309.094.0987.0169.195.0362.2913.0554.0071.0018.0547.0114.062.0125l.0175.0044c.0626.0145.1252.0289.1854.0434.1998.0482.3997.1013.5947.1591.8957.2628 1.7288.6317 2.5499 1.1211.1734.1037.4623.0917.6381 0 .1733-.0892.1541-.2266 0-.3182-1.541-.921-3.3036-1.4852-5.0926-1.6419-1.801-.1567-3.6334.0772-5.3285.7161-.9439.3568-1.8348.8221-2.6655 1.3983-.1709.1182.0434.2773.1614.3086.207.0531.443.041.6188-.0819zm5.4332-1.921.0061-.0006-.0016.0002-.0034.0004zm0 0c-.0168.001-.0265.0015-.0312.0019-.0048.0003-.0045.0004-.0015.0003l.0023-.0001c.006-.0003.0169-.0009.026-.0017z" fill-rule="evenodd"/><path d="m15.0158 24.5229c-.3684.1977-.7223.4195-1.0642.6582-.183.1278-.4551.1206-.6405 0-.171-.1109-.1638-.3327 0-.446.8162-.5666 1.7047-1.0343 2.6341-1.3815 1.6566-.6172 3.4504-.8776 5.213-.7185 1.8275.164 3.5924.7281 5.1696 1.6708.1805.1085.1565.3352 0 .4461-.1854.1326-.4479.1133-.6381 0-.1105-.065-.2209-.1275-.3314-.19l-.0009-.0005c-.012-.0072-.0247-.0139-.0373-.0205-.0127-.0066-.0253-.0133-.0373-.0205.0457.0241-.0169-.0096-.0217-.0121l-.1517-.0795c-.2143-.1109-.431-.2122-.6525-.3086-.2143-.0916-.4334-.1784-.6525-.258-.1132-.041-.2264-.0796-.3419-.1181-.0114-.0037-.0229-.0073-.0345-.0109l-.0462-.0144c-.0271-.0085-.0542-.0169-.0807-.0254-.0168-.0048-.0337-.0102-.0506-.0156-.0168-.0055-.0337-.0109-.0505-.0157-.0396-.0119-.0174-.0042-.0028.0002-.4069-.1171-.8185-.2128-1.2348-.2847-.2023-.0362-.4045-.0651-.6092-.0892l-.0398-.0046-.0553-.0063c-.0319-.0036-.0638-.0072-.0951-.0108-.0048 0-.0747-.0072-.0241-.0024.0554.0048-.0337-.0048-.0457-.0048-.0988-.0097-.1975-.0169-.2962-.0217-.4166-.0241-.8331-.0241-1.2497-.0024-.1107.0048-.2215.012-.3322.0217-.0133.0012-.0272.0024-.041.0036h-.0001c-.0138.0012-.0276.0024-.0408.0036.0016-.0006.0061-.0012.0114-.0019l-.139.0139c-.2071.0217-.4142.0531-.6188.0868-.4094.07-.8163.164-1.2184.2773-.0204.0074-.0408.0134-.0612.0191l-.0303.0098c-.01.0032-.0202.0064-.0304.0095-.0131.0041-.0263.0082-.0395.0123-.0115.0035-.0231.0071-.0346.0106-.0118.0037-.0235.0074-.0351.011-.0915.029-.1855.0603-.2769.0916-.1975.07-.3925.1423-.5851.2219-.1927.0795-.3853.1639-.5731.2531-.0963.0434-.1878.0892-.2817.1374-.0217.0109-.0434.0223-.0651.0338-.0216.0114-.0433.0229-.0649.0337-.0024.0012-.0073.0038-.0135.007l-.0141.0074-.013.0069c-.0303.0161-.0614.0325-.0341.0173z"/><path d="m23.2048 23.6646-.0076-.0022c.0031.001.0059.0018.0076.0022z"/><path d="m13.9516 29.504c.3419-.2387.6958-.4581 1.0642-.6582.0138-.0077.0275-.015.0411-.0224l.0101-.0054c.026-.0138.0517-.0276.0764-.0421.005-.0025.0098-.005.0145-.0075l.0063-.0033.0069-.0037c.0043-.0023.0086-.0046.0129-.0068.0048-.0026.0097-.0051.0148-.0077l.0193-.0096c.0313-.0153.0623-.0308.0934-.0464.062-.031.1241-.0621.1883-.091.1878-.0892.3804-.1736.5731-.2532.3804-.1543.7681-.2893 1.1605-.4026.0341-.0101.0452-.0134.0452-.0134 0 .0001-.0219.0067-.0331.011l.0794-.0217c.0241-.0061.0476-.0121.071-.0181l.0363-.0093c.0115-.0029.0231-.0059.0348-.0088.1011-.0265.2022-.0506.3034-.0723.2022-.0458.4069-.0868.614-.1206.2046-.0337.4117-.0651.6188-.0868l.1444-.0144c.0173-.002.0331-.0039.0498-.0058-.0634.0071.0018-.0015.0177-.0015.1107-.0096.2215-.0168.3322-.0217.4166-.0217.8332-.0217 1.2497.0024.0658.0033.1316.0086.1974.014.0329.0027.0658.0053.0988.0077.007.0005.0121.0008.0157.001.0188.0021.0373.0042.0541.0063.0626.0072.1276.0144.1902.0217.2047.0241.4069.053.6092.0892.2095.0361.419.0795.626.1254.0963.0216.1925.0457.2888.0698l.0002.0001.0005.0001c.0552.0144.1104.0289.1632.0433.001 0 .0138.0036.0248.0067h.0002c.0142.0041.0254.0072.0047.0008l.0148.0041c.0216.006.0494.0137.0542.0149.4479.1326.8885.2917 1.3171.4774.2215.0964.4382.1977.6525.3086-.0096-.0049-.0385-.0193.0024.0024l.0939.0506c.0506.0265.0987.053.1493.082.1108.0627.2215.1253.3323.1904.1878.111.4527.1278.6381 0 .1589-.1084.1781-.3206 0-.4267-1.5748-.9427-3.3445-1.5069-5.1696-1.6684-1.7626-.1543-3.554.0989-5.213.7161-.9294.3472-1.8179.8125-2.6341 1.379-.1589.111-.1734.3183 0 .4268.1854.1109.4623.1229.6429-.0024z"/><path clip-rule="evenodd" d="m15.1121 32.9854c-.3684.2001-.7223.4195-1.0642.6582-.1806.1254-.4575.1133-.6405 0-.1734-.1085-.1589-.3183 0-.4292.8162-.569 1.7047-1.0343 2.6341-1.3815 1.659-.6172 3.4505-.8727 5.213-.716 1.8251.1615 3.5949.7257 5.1696 1.6684.1782.1061.1589.3206 0 .4291-.1854.1278-.4503.1109-.6381 0-.4214-.2531-.7705-.4315-1.2304-.6316-.4286-.1857-.8692-.3448-1.3171-.4774-.006-.0015-.0483-.0133-.069-.0191.0207.0065.0095.0034-.0047-.0006-.007-.002-.0148-.0043-.0198-.0056-.0029-.0008-.0048-.0012-.0052-.0012-.053-.0145-.1083-.029-.1637-.0434-.0963-.0241-.1927-.0483-.289-.07-.207-.0458-.4165-.0892-.626-.1253-.2023-.0362-.4045-.0651-.6092-.0892-.0313-.0036-.0632-.0073-.0951-.0109l-.0951-.0108c-.0167-.0021-.0353-.0042-.0541-.0063-.0036-.0002-.0087-.0005-.0157-.001-.0329-.0024-.0658-.005-.0987-.0077-.0659-.0054-.1317-.0107-.1975-.014-.4165-.0241-.8331-.0241-1.2496-.0024-.1108.0049-.2216.0121-.3323.0217-.0017 0-.004.0001-.0066.0002l-.0108.0013-.0279.0032c-.0072.0009-.0145.0017-.0221.0026l-.1445.0144c-.2071.0217-.4142.0531-.6188.0868-.2071.0338-.4118.0748-.614.1206-.1011.0217-.2023.0458-.3034.0723-.0066.0016-.0131.0033-.0196.0049l-.011.0028c-.0136.0035-.027.0069-.0404.0104-.0235.006-.047.012-.0711.0181-.0063.0018-.031.0087-.0556.0156-.041.0115-.0819.0229-.0383.0109-.3924.1157-.7801.2483-1.1605.4026-.1927.0796-.3853.164-.5731.2532-.0642.0289-.1263.06-.1884.0911-.031.0155-.062.031-.0933.0463l-.0193.0096c-.0192.0097-.0361.0193-.0554.029-.0247.0146-.0504.0283-.0764.0422l-.0004.0002c-.0168.009-.0338.018-.0508.0275zm4.1593-1.2629c.0062-.0006.023-.002.0345-.0026-.0359.0031-.0412.0033-.0345.0026z" fill-rule="evenodd"/><path d="m35.3557 36.9594-.013.0007c.0229-.0012.0226-.0013.013-.0007z"/><path d="m37.0871 36.9615c.0032 0-.0034-.0005-.0315-.002.0118.001.0279.0019.0315.002z"/><path clip-rule="evenodd" d="m44.3743 15.7209c.0805-.0099.1587-.0117.1995-.0126l.0088-.0003c.0502-.0012.179.0008.2888.0239.4198-.0737.8409-.1209 1.2679-.1416.0908-.0054.2949.0196.395.1061.1889-.0055.3876.0511.3876.1687v26.0409c0 .0411-.0244.0746-.0641.1005.0072.0186.0111.0389.0111.061 0 .1953-.3082.2483-.4527.2483h-16.2178c-.625.5953-1.4791.8963-2.3417.8873-.4863-.0048-.9799-.0989-1.4254-.299-.2022-.0916-.3997-.2025-.5779-.3351l-.0105-.0078c-.0912-.0676-.2055-.1525-.2558-.255h-15.8107c-.02373 0-.06124-.0012-.10477-.0052-.2077.1165-.59351.0474-.59351-.2045v-23.7625c0-.06.02158-.1096.05727-.1488-.00329-.0084-.00481-.0175-.0043-.0272.00963-.1447.36118-.1447.45267-.1447h1.46874v-.4537c0-.0698.039-.1206.0955-.1574-.0035-.0212.0006-.0424.0179-.0606.7346-.78 1.6017-1.4181 2.5548-1.8996 1.8666-.9434 3.9594-1.3175 6.0317-1.4345 1.1897-.0662 2.3857-.021 3.5646.168.2845.0462.5663.0994.8476.1623l.0455.01c.2999.066.6031.1327.8861.2531.0044.0017.0082.0032.0115.0046l.0064.0026.0046.0019.003.0012c.0137.0058.0158.0067.0479.0152.0171.0048.0294.0083.0379.0108l.0049.0011c.0285.0071.0574.0134.0863.0197.0577.0127.1155.0253.1708.0443.093.0309.1845.0707.2756.1102l.0002.0001.0005.0002c.0433.0188.0865.0376.1298.0554.0284.0116.0571.0231.0858.0346.1002.0401.2014.0806.2962.1324.0386.0198.0754.0428.1132.0665.0082.0051.0165.0103.0248.0155.028.0183.0584.0368.0865.0527.0028.0016.0079.0043.0139.0075.0054.0029.0116.0061.0173.0092.0826.0194.162.0492.2378.0986.0256.0166.051.0335.0764.0504.0507.0337.1015.0675.1545.0992.039.0234.0781.0465.1173.0695l.0001.0001c.142.0837.2841.1674.415.2669.053.0403.1057.0809.1581.122.1091-.0667.2966-.0796.3844-.0813.0255-.0005.0591.0006.0967.004.6513-.5426 1.3758-.9902 2.15-1.3366 1.9085-.8544 4.0165-1.1297 6.0921-1.1492 1.1915-.0102 2.3841.091 3.5529.3352.2821.0594.5611.1258.8391.2017l.045.0122c.2966.08.5963.1609.8734.2943.0121.0054.0195.009.025.0116.0134.0064.0155.0073.0471.0174.017.0055.0291.0096.0375.0125l.0047.0013c.0282.0085.0568.0161.0853.0238.0571.0153.1143.0307.1686.0522.0915.0353.181.0793.2702.1231.0426.0209.0852.0417.1278.0616.009.0042.018.0084.027.0126.0189.0087.0379.0173.057.026.0983.0448.1975.0899.2898.1461.0376.0217.0733.0464.11.0718.0079.0055.016.011.024.0166.0271.0196.0566.0395.084.0567.0025.0016.0069.0042.0122.0073l.0005.0003.0004.0003.0004.0002c.0053.0031.0113.0067.0168.01.0816.0233.1596.0568.233.1097.0248.0178.0493.0358.0738.0538h.0001c.0492.0361.0983.0722.1498.1064.0378.0252.0759.0501.114.075.138.0902.276.1805.4022.286.1036.0868.2062.1749.307.265zm-13.6336-.8156c-.8114.4013-1.5658.9125-2.2182 1.5427l-.0033.0031c-.0022 1.5919-.0043 3.1839-.0043 4.7759-.0025 3.0692-.0025 6.1409-.0025 9.2102 0 2.7403.002 5.4806.0042 8.2209.1843-.1337.3792-.2542.5778-.3661.5851-.3304 1.2039-.6028 1.8299-.8439 2.2995-.88 4.8325-1.1645 7.2716-.8318 2.1018.2859 4.1328 1.0299 5.9189 2.1705v-22.4225c-.2247-.2479-.4722-.4709-.7248-.6898-.1563-.1358-.3262-.2514-.4966-.3673-.0954-.065-.191-.13-.2844-.1987-.1-.0348-.1939-.082-.2908-.1479-.1134-.0766-.2256-.141-.3506-.1994-.0431-.0204-.0859-.0416-.1287-.0628-.0857-.0424-.1713-.0847-.2597-.1209.0227.0101-.0355-.0104-.0627-.02l-.0013-.0004-.0081-.0023c-.0103-.0029-.0216-.006-.0242-.0062-.111-.028-.2143-.06-.3186-.1067-.026-.0109-.0544-.0256-.0825-.0403-.0372-.0193-.0741-.0385-.1048-.0484-.0451-.0162-.1017-.0323-.1564-.0479l-.022-.0063c-.017-.0049-.0337-.0097-.0495-.0144-.1412-.0406-.233-.0667-.3958-.1095-.3068-.0788-.6169-.1482-.928-.2081l-.018-.0035c-.0696-.0136-.1376-.0269-.2077-.0383-.0252-.0042-.0516-.0085-.0783-.0128l-.0337-.0055c-.0025-.0008-.0082-.002-.0148-.0033l-.0051-.001c-.0031-.0006-.0062-.0012-.0092-.0017-.1294-.0197-.2612-.0375-.393-.0552h-.0001c-.2701-.0341-.5433-.0611-.8147-.0808-.5191-.0369-1.0191-.0453-1.5965-.0298-.5606.017-1.0551.0504-1.5929.106-.4669.0482-.9311.1184-1.3905.2133-.0346.0074-.0686.015-.1026.0225l-.0438.0097-.0187.004-.014.0031-.0262.0057c.0544-.0116-.0819.0209-.0917.0224-.1114.0253-.223.0529-.3325.0833-.2186.0582-.438.1236-.653.1943-.4378.1455-.8432.3062-1.2476.5059zm-18.7074 2.5875c.6223-.6604 1.3521-1.2066 2.1439-1.6458.3946-.2184.7921-.3981 1.2226-.5641.2115-.0807.4276-.1564.6433-.2248.1079-.0355.2181-.0684.3281-.0989.0098-.0019.1444-.0407.0906-.0266.0167-.0045.0333-.0089.0497-.0134.0173-.0046.0344-.0092.0515-.0139h.0003c.0336-.0092.0672-.0183.1015-.0274.4544-.1164.9149-.2083 1.379-.2784.5346-.0809 1.027-.1374 1.5862-.1808.576-.0425 1.0759-.0576 1.596-.0451.2721.0069.5462.0211.8176.0424.1325.0115.265.0231.3952.0367.0114.0015.025.0035.0294.0046.0384.0044.0767.0088.1127.0131.0704.0081.1387.0181.2087.0284h.0005l.0001.0001.0181.0026c.3135.0452.6266.1001.9367.1644.1646.0351.2575.0568.4004.0908.0227.0056.0469.0113.0716.0171l.0007.0002h.0001c.0554.013.1127.0265.1585.0405.0311.0085.0688.0259.1069.0435.0288.0133.0578.0267.0843.0364.1063.0418.211.0689.3231.0916.0034.0002.021.0043.0327.007l.0014.0004c.0276.0083.0867.0261.0635.017.09.032.1775.0703.265.1087.0438.0191.0875.0383.1316.0567.1275.0524.2426.1115.3595.1827.0998.0613.1958.1041.2973.1341.0964.0643.1949.1247.2931.1851l.0003.0001c.1755.1078.3506.2154.5131.3437.2567.2023.5087.4088.7404.6396-.0022 2.8586-.0044 5.7155-.0044 8.5744 0 3.0716 0 6.1409.0025 9.2126 0 1.4554.0017 2.9109.0037 4.3663-1.9163-.8037-3.8729-1.5233-5.9217-1.8919-2.4535-.4412-5.0203-.2941-7.392.4895-.8218.2726-1.6239.6264-2.3187 1.1331v-20.3874c.0001-.0023.0001-.0046 0-.0068v-.5938c0-.0018 0-.0037-.0001-.0056.0277-.0158.0532-.0352.0755-.0587zm31.943 21.9576-.0016-.0012c-.4984-.3568-1.0185-.6775-1.5627-.9644-.2745-.1446-.5538-.2796-.8379-.405-.2889-.1278-.5418-.2291-.8114-.3279-.5249-.1929-1.0643-.352-1.6085-.4798-.0674-.0169-.1348-.0313-.2022-.0458-.1349-.0289.077.0145-.0554-.0121-.0132-.0024-.0271-.0054-.0409-.0084l-.0132-.0028c-.0094-.0021-.0187-.004-.0278-.0056-.1348-.0266-.2696-.0507-.4069-.0748-.2721-.0482-.5466-.0868-.8211-.1157-.1268-.0134-.2556-.0247-.3828-.0358l-.0005-.0001-.0308-.0027c-.0433-.0048-.0843-.0072-.1252-.0096.0022.0003.0051.0005.0082.0008l-.0154-.0008-.013-.0009c-.0676-.0045-.1334-.0089-.2013-.0112-.2841-.012-.5707-.0168-.8572-.012-.1421.0024-.2865.0072-.4286.0144-.0679.0023-.1337.0067-.2013.0112l-.013.0009.0169-.001c-.0158.001-.0369.0024-.0458.0034-.0218.0016-.0446.0031-.0677.0047l-.0359.0024-.0023.0001c-.2842.0241-.5683.0555-.8524.0965s-.5658.0916-.8452.147c-.0577.0119-.0353.0064-.0291.005l.0013-.0003c-.0011.0002-.0088.002-.0323.0074-.0206.0048-.0417.0097-.0628.0145l-.0015.0003-.0004.0001c-.0204.0047-.0407.0094-.0606.014l-.1878.0434c-.1324.0314-.2648.0651-.3948.1013-.5346.1471-1.0908.3327-1.5699.5304-.5225.2122-1.0354.4557-1.5218.7402-.3253.1913-.6492.4257-.9038.7243-.0018.0518-.0401.1037-.1111.1406-.027.0372-.053.0752-.0777.1141.2389.0726.4618.1918.6423.3663.1009.0968.172.2225.2429.3479l.0002.0004c.0197.0348.0393.0697.0596.1038.7085-.5053 1.4994-.8925 2.3243-1.1658 2.0057-.6678 4.1438-.7088 6.229-.4942 1.7177.1765 3.4924.4832 5.0128 1.3351.3162-.2197.6242-.4508.9241-.6926zm-31.3499.8596c-.21-.3139-.3971-.6431-.5599-.9846.6693-.7087 1.5493-1.1541 2.4557-1.4867 1.0089-.3713 2.1261-.6003 3.2337-.7016.0747-.0072.1517-.0145.2264-.0193.0264-.0024.1805-.012.1059-.0072.1589-.0096.3178-.0169.4768-.0193.2961-.0072.5923-.0072.886.0048l.007.0003c.0652.0023.1326.0047.1977.0094.0266.0016.0521.0033.0781.005.0016.0004.015.0018.0519.0046.1493.0121.2986.0241.4479.0386.2889.0289.5779.0675.8644.1133.3082.0482.508.0868.7897.1471.2769.0602.5514.1253.8259.1953.5635.147 1.1197.3182 1.6711.5039 1.0666.3617 2.1485.8081 3.2064 1.2635l.0003.2024c-.4731.0629-.9087.2714-1.2379.6172-1.6824-.8344-3.5847-1.1782-5.4409-1.3526-1.972-.1857-3.9946-.1326-5.9088.4147-.8359.2394-1.6425.5876-2.3774 1.0512zm32.2338-.671c-.4415.3645-.9017.7077-1.3767 1.0277-.1531.1015-.3845.1016-.5596.0368-.0641-.0158-.1245-.0404-.1772-.0753-.4045-.2701-.8355-.4895-1.2858-.6679-.2287-.0916-.4454-.1663-.6525-.229-.2335-.0699-.4695-.1326-.7055-.1881-.2167-.0506-.4358-.0964-.6549-.1374-.012-.0027-.0396-.0076-.0519-.0098-.0099-.0017-.0099-.0017.0158.0026-.0073-.0014-.0147-.0027-.0222-.004l-.0188-.0033c-.0138-.0024-.0277-.0048-.0409-.0072-.0105-.0018-.021-.0036-.0316-.0053-.0171-.0027-.0343-.0053-.0515-.008-.0277-.0042-.0553-.0084-.083-.0132l-.0005-.0001c-.1034-.0168-.2067-.0337-.3101-.0481-.4672-.0676-.9391-.123-1.4086-.164-.1239-.0113-.2499-.0204-.3741-.0295l-.0256-.0018c-.053-.0049-.1084-.0097-.1638-.0121-.0939-.0072-.0433-.0024-.0216-.0024-.0087-.0007-.0174-.0012-.0261-.0016-.0066-.0003-.0132-.0005-.0198-.0008h-.0013c-.0155-.0006-.0311-.0012-.0467-.0024-.2504-.0121-.5033-.0193-.7537-.0217-.2528-.0024-.5032.0024-.7536.012-.0385 0-.0795.0024-.118.0049-.001 0-.0028 0-.0053.0001l-.0047.0002-.0083.0003-.0157.0007-.0129.0006-.002.0001-.0095.0007-.0135.0008-.0196.0013-.0939.0072c-.1251.0072-.2502.0193-.3754.0313l-.0002.0001c-.2408.0241-.4816.0554-.72.094-.0168.0024-.0337.0054-.0505.0084l-.0003.0001c-.0168.003-.0335.006-.0503.0084l-.0192.0032c-.025.0046-.0504.0097-.0759.0148l-.0007.0002-.0244.0048-.0129.0026-.0116.0023c-.0104.002-.0208.0039-.0311.0058-.0506.0109-.1006.0217-.1506.0326-.0499.0108-.0998.0217-.1503.0325-.4262.0964-.8043.2074-1.1871.352-.8066.3038-1.5603.7209-2.2296 1.2682-.1194.0971-.3182.1089-.4824.0913-.1417.0038-.288-.0209-.3989-.0913-.1876-.1187-.2919-.296-.3981-.4764-.0383-.0651-.0768-.1305-.1196-.1938-.0722-.1085-.1565-.1953-.2673-.2677-.0637-.041-.0801-.0475-.1325-.0685l-.0095-.0038c-.006-.003-.0242-.0094-.039-.0146-.0125-.0043-.0226-.0079-.0208-.0078-.0097-.0023-.0195-.0044-.0293-.0065-.0115-.0025-.0229-.0049-.0344-.0078.0374.0101.0196.0063-.0042.0013-.0156-.0033-.0338-.0071-.0409-.008-.0027-.0003-.0052-.0006-.0075-.0008l-.0068.0006-.0025.0002-.0017.0002-.0085.0012-.0067.001-.0078.0012-.0034.0005c-.0025.0004-.0048.0007-.007.001l-.0083.0022c-.0866.0217-.1902.0578-.3009.1277-.2157.1347-.3878.315-.5248.5239.0259.0508-.0322.0971-.0987.1291-.0434.0284-.1013.0442-.1485.0571l-.013.0036c-.1132.0265-.2311.0265-.3467.0169-.0733-.0062-.3137-.0485-.3308-.1533-.9163-.5232-1.917-.8629-2.9222-1.0884-.2384-.0554-.4767-.1013-.7175-.1447-.1276-.0241-.2552-.0458-.3829-.065.0072.0014-.0394-.0057-.0671-.0102-.0137-.0015-.0556-.0075-.0605-.0091-.0289-.0037-.0572-.0079-.0855-.0121l-.0126-.0019c-.0124-.0018-.0247-.0036-.0371-.0054-.0069-.0009-.0138-.0019-.0207-.0028-.005-.0007-.01-.0013-.015-.0019-.4599-.0627-.9222-.1158-1.3869-.1519-.0206-.0013-.0412-.0026-.0617-.004-.0384-.0026-.0769-.0053-.1153-.0081-.059-.0042-.118-.0084-.177-.0121-.0299-.0011-.0593-.0029-.0886-.0047l-.0009-.0001c-.0294-.0018-.0587-.0036-.0887-.0048-.0144 0-.0963-.0048-.0385-.0024s-.0241-.0024-.0385-.0024c-.2288-.0097-.4599-.0145-.6911-.0169-.2239 0-.4478.0024-.6717.0097-.0326.0012-.0658.0024-.099.0036l-.0895.0033c-.0207.0011-.051.0028-.0711.0041-.0061.0004-.0113.0007-.0149.001-.1132.0072-.224.0145-.3347.0241-.2264.0169-.4551.0434-.6814.0723-.0289.0037-.0578.0079-.0867.0121s-.0578.0084-.0867.0121c-.0104.0011-.0159.0016-.0182.0016l-.0151.0023-.0224.0033c-.0161.0024-.0323.0048-.0478.0072-.1012.0169-.2047.0362-.3058.0555-.4527.0868-.8259.1808-1.2377.3158-.8333.2726-1.6146.6637-2.3227 1.1805.017.127-.2661.2051-.3403.2179-.1854.0313-.4358.0024-.5562-.1543-.3172-.4123-.5924-.8561-.8216-1.3236-.0987-.0376-.1801-.1011-.1801-.2002v-21.0188h-1.25382c.00118.0094.00179.019.00179.0289v23.5937h16.11793c.0679 0 .2553.0103.3666.0716.1357.0392.224.1059.18.1913-.0407.0773.163.2062.2438.2573.0098.0063.018.0114.0235.0151.13.0892.2648.164.4117.2242.171.0699.2504.0916.4334.1326.0254.0051.0381.0075.0381.0076-.0001.0001-.0103-.0017-.0308-.0052.0192.0049.0385.0073.0577.0097l.1373.0145c.008.0009.0142.0018.0189.0025.0048-.0001.0104-.0001.0172-.0001h.118.0137c.005-.0007.0123-.0015.0224-.0024.0227-.0024.0448-.0048.0669-.0072h.0001l.0004-.0001c.0223-.0024.0446-.0048.0674-.0072l.0446-.0056c.0055-.0011.0123-.0024.0205-.0041.0385-.0072.0746-.0144.1131-.0241.0254-.0051.0521-.0125.0782-.0199h.0002l.0002-.0001c.0108-.003.0216-.0061.0322-.0089-.0315.0079.0049-.0038.0373-.0142.0171-.0055.0332-.0106.0373-.0123.0771-.0265.1541-.0579.2312-.094.2769-.1278.5417-.3255.7536-.5522.0294-.0315.0645-.0561.1032-.075.0464-.1557.3141-.1998.4458-.1998h16.1974v-25.7895c-.0226.0019-.043.0032-.0602.0042-.0065 0-.0461.002-.0801.0037l-.0018.0001-.0018.0001c-.0163.0008-.031.0016-.0397.002-.0196.0019-.0396.0034-.0596.0049-.0234.0018-.0469.0037-.0698.0061-.1083.0096-.2167.0217-.325.0361l-.0006.0001c-.1082.0145-.2163.0289-.3245.0481-.0457.0073-.0915.0145-.1372.0242-.0167.0025-.0327.0051-.0487.008v23.3479c0 .0687-.0887.1047-.1903.1238z" fill-rule="evenodd"/></g></svg>