<svg xmlns="http://www.w3.org/2000/svg" width="1024" height="1024" fill="none" viewBox="0 0 56 56"><path fill="#666" d="m9.674 34.757 4.263-.603 2.034-2.129s1.629-1.623 3.455-1.112c1.827.511 3.552.514 4.26 1.836.706 1.321 1.718 3.25 1.718 3.25s1.83-1.214 2.436-1.113 2.64.108 2.942.41c.304.305 1.019-2.132 1.423-2.23.405-.102 1.525-1.417 2.136-1.519s2.54-1.113 3.352-.703c.812.406 2.638.917 3.042 1.425.403.508.91 1.421 1.417 1.525.507.104 2.335-.301 2.335-.301l2.74-.3-.001 1.015s-1.218.402-1.929 1.011c-.71.61-1.93 1.416-2.137 1.923s-.916 2.132-1.123 2.639c-.203.507-.712 1.418-1.323 1.825-.611.403-2.234 1.114-3.048 1.315-.813.2-2.434-.005-3.147-.208-.71-.204-2.333-1.527-2.637-2.035-.304-.508-1.115-1.422-1.114-2.135.001-.714-.302-1.725-.302-1.725s-1.014-.407-1.724-.206-2.03-.004-2.436.4-.813.102-1.016.708c-.203.61-.408 1.926-.817 2.334-.405.403-1.121 1.722-2.034 2.026-.912.304-1.218.81-2.539.808-1.32-.002-3.35-.11-3.96-.717-.609-.608-2.027-1.22-2.33-2.34-.303-1.118-.402-1.626-1.011-2.031a88.406 88.406 0 0 0-2.13-1.324l-.813-.51.002-1.21zM3.845 28.72c.277-.093 12.158-5.157 12.158-5.157l1.935-4.421 4.418-8.749 2.118.828 2.58.737L30 10.854l2.395-1.288 1.565-.277 2.209 2.119 1.565 5.435 1.748 4.604 1.935 1.198s7.46 3.133 7.737 3.04c.277-.094 2.946 1.104 2.946 1.104l-7.276.738-8.749-.077-9.485.554-10.59.533-9.12.554z"/><g fill="#000"><path d="M24.734 37.002c-.016 2.407-1.5 4.64-3.742 5.499a2.9 2.9 0 0 1-.362.121 5.899 5.899 0 0 1-.554.129c.096-.019.008 0-.011 0l-.233.034a4.295 4.295 0 0 1-.237.026c-.034.004-.068.004-.107.008.107-.008-.011 0-.053 0a8.013 8.013 0 0 1-.427-.001l-.08-.004a5.417 5.417 0 0 1-.313-.031l-.233-.035c-.02-.004-.107-.02-.012 0-.034-.008-.068-.012-.103-.02a6.02 6.02 0 0 1-.45-.11 2.807 2.807 0 0 1-.362-.124 5.06 5.06 0 0 1-.415-.18 5.778 5.778 0 0 1-1.981-1.572c-1.546-1.922-1.755-4.677-.488-6.8.593-.991 1.48-1.814 2.511-2.293a5.085 5.085 0 0 1 1.207-.398 1.17 1.17 0 0 1 .103-.02c-.023.005-.1.016.011 0 .088-.01.172-.025.26-.037l.21-.022c.034-.004.068-.004.106-.008-.122.008-.003 0 .027 0 .168-.007.34-.003.508.001.118.012.022 0 0 0 .034.004.068.004.106.008.07.008.142.012.21.023.077.008.157.02.233.035.015.004.122.02.057.008a5.642 5.642 0 0 1 3.015 1.684 5.974 5.974 0 0 1 1.532 3.159c.046.301.064.61.067.92 0 .225.446.26.595.26.145-.004.6-.03.596-.258-.007-2.668-1.75-5.067-4.263-5.95-2.662-.931-5.784-.258-7.635 1.917-1.72 2.02-1.944 5.015-.555 7.272 1.499 2.437 4.458 3.48 7.206 2.955 2.604-.498 4.725-2.567 5.165-5.199.054-.331.081-.663.082-1 .004-.358-1.19-.364-1.19.002zm7.302 2.978a6.001 6.001 0 0 1 .539-6.704 5.71 5.71 0 0 1 2.101-1.606 4.789 4.789 0 0 1 .993-.326l.1-.023c-.104.023.007 0 .034-.004.153-.026.301-.049.454-.064.027-.004.267-.022.122-.011a8.996 8.996 0 0 1 .656-.003c.115.004.016 0-.007 0 .034.004.069.004.099.008l.225.023a2.5 2.5 0 0 1 .225.035c.035.004.065.012.1.02.01.003.144.027.076.015-.08-.015.08.02.076.02l.1.022a5.711 5.711 0 0 1 .625.196c.095.035.041.015.019.008l.118.046.183.08c.145.065.286.138.427.218a5.754 5.754 0 0 1 1.9 1.755 5.94 5.94 0 0 1-.02 6.724 5.744 5.744 0 0 1-2.72 2.112c-.137.05-.279.095-.424.133l-.225.057-.1.023a4.929 4.929 0 0 1-.466.068l-.102.01s-.168.016-.073.008c.08-.007-.03 0-.045.004-.042 0-.084.004-.126.004a8.58 8.58 0 0 1-.454-.005.545.545 0 0 1 .007 0c-.034-.004-.068-.004-.099-.008a5.644 5.644 0 0 1-.252-.027c-.133-.02-.267-.039-.396-.066.11.023-.103-.023-.126-.03a5.244 5.244 0 0 1-1.716-.747 5.732 5.732 0 0 1-1.303-1.182 7.391 7.391 0 0 1-.525-.783c-.202-.344-1.366-.216-1.149.154 1.4 2.41 4.256 3.625 6.985 3.188 1.374-.223 2.688-.842 3.682-1.829a6.359 6.359 0 0 0 1.776-3.374c.49-2.658-.879-5.351-3.227-6.641-2.451-1.348-5.688-1.06-7.824.756-2.006 1.706-2.744 4.547-1.814 7.01.118.31.259.604.422.89.198.348 1.362.22 1.149-.154z"/><path d="M25.934 36.084a3.86 3.86 0 0 1 1.035-.532c.092-.03.187-.06.283-.087-.073.018.034-.008.057-.016.05-.011.095-.022.145-.03a3.81 3.81 0 0 1 .29-.049l.176-.022c.107-.012-.016 0 .05-.004a6.11 6.11 0 0 1 .59-.003.746.746 0 0 0 .05.004c.058.008.119.012.176.02a4.037 4.037 0 0 1 1.304.41c.252.134.591.161.843.002.207-.13.238-.404.001-.527-1.81-.957-4.15-.878-5.846.306-.21.145-.226.385-.001.527.229.145.622.157.847.001zM9.369 34.665c-.004.007-.012.011-.016.019l.733-.205c-.007 0-.019-.004-.026-.004l.354.138c-.007-.007-.015-.011-.023-.019l.08.15v.018l-.153.13c.012-.008.027-.012.039-.02-.088.027-.176.05-.264.076.535-.105 1.092-.146 1.634-.218.553-.071 1.11-.147 1.664-.218.152-.019.534-.133.416-.362-.114-.221-.53-.234-.732-.207-.824.109-1.653.218-2.48.323l-.592.08c-.226.03-.546.044-.684.254-.13.202.095.359.274.412.305.092.702.067.916-.189.061-.072-.007-.18-.06-.229-.088-.08-.244-.122-.355-.138-.252-.027-.55 0-.725.209z"/><path d="M10.165 35.242a.03.03 0 0 1 .015-.007c.138-.072.31-.179.295-.362-.037-.546-.884-.6-1.179-.239-.107.134-.096.305-.096.47v.469c-.001.168-.02.354.052.515.083.183.259.287.434.367.255.115.515.222.762.36.427.234.919.574 1.323.918.411.348.78.753 1.108 1.181.175.23.564.257.816.155.237-.1.39-.347.215-.576a8.742 8.742 0 0 0-3.246-2.597c-.096-.046-.19-.084-.286-.127-.252-.107.026.088.019.088.004 0 0-.202 0-.21v-.362l.001-.218c0-.03.027-.206-.007-.106-.05.06-.103.121-.153.186l.027-.023c-.195.034-.386.072-.58.106.007 0 .015.004.022.004l-.354-.195a.083.083 0 0 0 .015.019l-.08-.214v.023c.1-.122.199-.24.295-.362a.029.029 0 0 1-.016.008c-.217.114-.405.338-.214.575.167.21.575.28.812.154zm32.078-1.25a86.277 86.277 0 0 1 4.484-.411c.19-.011.595-.06.596-.33 0-.253-.412-.345-.595-.334a91.972 91.972 0 0 0-4.8.434c-.18.022-.528.167-.417.407.11.245.51.26.732.234z"/><path d="M46.361 33.393c.057.386.12.771.189 1.153.1-.084.199-.164.294-.247a7.435 7.435 0 0 0-3.013 1.467c-.833.681-1.686 1.626-1.742 2.756-.02.389 1.171.41 1.191.002.048-1.011.835-1.857 1.58-2.466a6.333 6.333 0 0 1 2.586-1.266c.088-.019.32-.114.294-.248a29.129 29.129 0 0 1-.188-1.152c-.034-.24-.4-.291-.595-.288-.13.008-.63.053-.596.29zm-20.373 4.343a3.894 3.894 0 0 1 1.035-.532c.092-.03.187-.06.283-.087l.057-.015c.05-.012.096-.023.145-.03.096-.02.195-.038.29-.05l.176-.022c.107-.011-.015 0 .05-.004a6.11 6.11 0 0 1 .591-.003.792.792 0 0 0 .05.004c.057.008.118.012.175.02a4.037 4.037 0 0 1 1.304.41c.252.134.591.162.844.002.206-.13.237-.404 0-.527-1.81-.957-4.15-.877-5.846.306-.21.145-.226.385 0 .527.228.145.62.161.846.001zM3.679 29.275c1.578.242 3.178.197 4.767.086 1.6-.11 3.195-.235 4.794-.343a548.67 548.67 0 0 1 28.627-1.17c3.528-.052 7.083-.059 10.562-.734.198-.038.471-.193.378-.436-.09-.235-.454-.287-.665-.246-3.043.592-6.145.651-9.233.693A542.832 542.832 0 0 0 9.2 28.596c-1.741.128-3.5.26-5.234-.007-.218-.034-.571.007-.665.246-.097.239.18.408.378.44zm12.594-5.481 9.707-.27 9.707-.27c1.818-.052 3.639-.1 5.457-.152.2-.007.54-.093.54-.35 0-.249-.347-.356-.54-.35l-9.708.27-9.707.27c-1.817.053-3.638.101-5.456.153-.2.007-.54.094-.54.35 0 .253.346.356.54.35z"/><path d="M16.495 23.351a68.758 68.758 0 0 1 6.556-13.093c.139-.218-.218-.405-.377-.429-.256-.038-.52.017-.665.242a68.735 68.735 0 0 0-6.553 13.093c-.187.482.883.606 1.039.187z"/><path d="M22.259 10.539c.931.453 1.859.97 2.835 1.322.97.353 1.984.45 2.984.17.89-.25 1.69-.703 2.486-1.163.762-.443 1.54-.935 2.396-1.098l.176-.031c.18-.031-.086 0 .094-.01a2.45 2.45 0 0 1 .356 0 .622.622 0 0 1 .031.003c.06.007.118.017.173.031a2.024 2.024 0 0 1 .422.16c-.086-.045.042.027.05.03a2.238 2.238 0 0 1 .547.492c.442.55.692 1.281.892 1.984.27.942.502 1.89.793 2.825a48.483 48.483 0 0 0 1.032 2.994c.204.534.415 1.067.637 1.593.19.457.38.914.63 1.343.242.42.523.8.897 1.108.394.329.875.488 1.38.526.215.014.54-.124.54-.377 0-.274-.328-.36-.54-.377.129.01-.023-.004-.044-.007a.953.953 0 0 1-.135-.032c.11.032-.031-.013-.045-.02a1.94 1.94 0 0 1-.125-.056c.087.042-.041-.024-.048-.03l-.076-.053a3.134 3.134 0 0 1-.111-.083c-.024-.02-.049-.038-.073-.059l-.02-.017a3.63 3.63 0 0 1-.662-.904c-.45-.837-.786-1.751-1.125-2.638-.37-.966-.71-1.942-1.018-2.928-.298-.953-.547-1.915-.81-2.874-.204-.744-.46-1.482-.903-2.119a2.936 2.936 0 0 0-2.095-1.256c-1.025-.108-2.008.253-2.898.727-.803.43-1.561.931-2.364 1.298-.454.208-.79.329-1.26.402l-.16.02c.1-.01-.107.007-.124.007-.11.004-.225.004-.336-.003a4.004 4.004 0 0 1-.706-.135c-.52-.146-1.014-.388-1.506-.623l-1.624-.79c-.221-.107-.578-.058-.74.135-.17.212-.004.416.197.513z"/><path d="M22.276 10.791a58.987 58.987 0 0 0 1.842 2.507c.602.772 1.205 1.554 1.873 2.274.668.72 1.474 1.23 2.485 1.236.987.007 1.932-.429 2.725-.986.807-.565 1.55-1.292 2.43-1.693.204-.094.36-.319.194-.523-.163-.2-.516-.239-.74-.139-.808.371-1.483.932-2.182 1.468-.654.506-1.347.963-2.126 1.087 0 0-.183.025-.08.014-.054.007-.11.007-.169.007h-.11c-.004 0-.184-.014-.08-.003a1.476 1.476 0 0 1-.52-.142 2.36 2.36 0 0 1-.453-.291 3.864 3.864 0 0 1-.408-.38c-.64-.68-1.216-1.427-1.79-2.158a56.652 56.652 0 0 1-1.967-2.662c-.266-.395-1.274-.118-.924.384zm18.258 11.913a388.291 388.291 0 0 0 11.196 4.203c.211.076.564.059.74-.094.195-.166-.048-.3-.193-.356a378.473 378.473 0 0 1-8.55-3.178c-.811-.312-1.618-.627-2.424-.942-.236-.093-.53-.118-.765 0-.184.09-.218.284-.004.367zM4.381 28.98a173.042 173.042 0 0 1 12.13-5.442c.205-.083.181-.27 0-.356-.227-.111-.532-.094-.764 0a174.349 174.349 0 0 0-12.13 5.442c-.191.093-.195.263 0 .356a.963.963 0 0 0 .764 0z"/></g></svg>