<svg xmlns="http://www.w3.org/2000/svg" width="1024" height="1024" fill="none" viewBox="0 0 56 56"><path fill="#dc674f" d="M15.99 41.428 13.9 34.23l.168-3.01 1.172-3.85 1.503-1.59 4.762-2.092 10.36.335 6.017 1.925 1.839 2.177.582 6.105-2.17 6.781-3.509 4.517-5.515 2.344-6.767-.503-3.01-1.59z"/><path fill="#ededed" d="M15.739 26.285s2.671-1.506 3.09-1.841c.419-.336 6.6-1.59 6.6-1.59l8.354 1.506 5.012 1.59.587 1.505-2.672 1.757-4.347 1.59-4.594.754-5.766-.503-4.51-1.673-1.67-1.338z"/><g fill="#4a155d"><path d="M13.494 32.084c2.085 3.351 5.892 5.1 9.69 5.607 2.11.281 4.267.23 6.378-.017 1.888-.222 3.756-.645 5.536-1.32 1.943-.739 3.773-1.82 5.268-3.276.205-.201-.034-.373-.235-.427-.247-.072-.69-.089-.896.113-1.26 1.22-2.739 2.168-4.35 2.86-1.584.68-3.271 1.107-4.938 1.35-3.656.537-7.626.461-10.992-1.27-1.7-.873-3.191-2.156-4.205-3.783-.15-.24-.56-.252-.804-.218-.138.017-.603.142-.452.381"/><path d="M16.06 35.225c.14 1.674.834 3.393 2.208 4.42 1.432 1.07 3.484 1.38 5.109.57.913-.452 1.604-1.224 2.257-1.983.398-.461-.854-.654-1.13-.335-.512.587-1.031 1.203-1.684 1.64-.306.2-.57.314-.9.406-.013.004-.114.025-.03.009l-.121.02a3 3 0 0 1-.247.03c.113-.009-.097.004-.139.004h-.125c-.201-.004.121.017-.08-.004a3 3 0 0 1-.251-.034c-.042-.008-.084-.012-.126-.02-.012-.005-.113-.026-.029-.005a4 4 0 0 1-.549-.168 4 4 0 0 1-.825-.465c-.582-.432-1.03-1.01-1.36-1.652-.39-.76-.6-1.585-.67-2.433-.021-.272-.444-.335-.654-.33-.172.003-.678.058-.653.33zM27.92 37.7c.704 1.413 2.173 2.331 3.735 2.457a5.3 5.3 0 0 0 2.651-.457c.741-.348 1.349-.898 1.818-1.56.519-.734.858-1.581 1.164-2.42.096-.26-.26-.377-.457-.398-.2-.025-.712-.03-.804.226-.465 1.27-1.026 2.663-2.198 3.447-.256.172-.54.306-.813.39q-.237.075-.397.101a4 4 0 0 1-.23.034l-.135.012c.092-.004-.025 0-.058 0h-.235c-.134-.004-.054-.004-.025 0l-.134-.013a6 6 0 0 1-.264-.041c.067.012.013.004 0 0l-.15-.038a3.3 3.3 0 0 1-.809-.357c-.607-.36-1.084-.914-1.398-1.543-.193-.407-1.479-.277-1.26.16zm-13.944-8.136c1.021 1.38 2.395 2.42 3.873 3.258a26 26 0 0 0 4.82 2.089c.921.293 1.855.528 2.818.629.98.105 1.956.084 2.932-.03 1.892-.222 3.726-.834 5.477-1.568 2.03-.847 3.999-1.85 5.955-2.86.25-.13.435-.407.234-.67-.188-.248-.624-.315-.896-.177-1.692.872-3.396 1.728-5.134 2.504-1.65.734-3.308 1.363-5.084 1.685a11.34 11.34 0 0 1-5.125-.214c-1.608-.44-3.237-1.128-4.736-1.912-1.508-.784-2.965-1.828-4.004-3.233-.368-.49-1.583-.109-1.13.5z"/><path d="M27.434 38.148c.105 1.418.314 2.936 1.604 3.774.251.164.67.151.926 0 .247-.146.23-.385 0-.536-1.039-.676-1.14-2.122-1.219-3.238-.02-.29-.419-.386-.653-.381-.201.004-.678.088-.658.381m4.515 5.846c1.73.105 3.668.143 5.13-.948.226-.167.247-.432 0-.6-.243-.159-.683-.18-.926 0-.318.236-.561.37-.93.496-.196.07-.222.075-.44.121a7 7 0 0 1-.586.097l-.134.012c.072-.008.009 0-.025 0q-.15.012-.301.017-.29.01-.574.008a23 23 0 0 1-1.21-.05c-.243-.017-.653.126-.653.424-.005.318.41.406.649.423m-2.953-12.27c-.025.981-.477 1.946-1.197 2.562-.23.197-.251.512 0 .709.243.188.682.205.925 0 .96-.822 1.545-2 1.579-3.271.02-.663-1.29-.667-1.307 0m-4.564 6.525c.13 1.17-.18 2.373-.913 3.304-.423.537.82.797 1.13.403.826-1.044 1.24-2.378 1.094-3.707-.034-.294-.398-.407-.654-.399-.2.005-.686.101-.657.399m-2.291 4.5a5.9 5.9 0 0 1-2.043 1.24l-.264.089-.134.038q.068-.019-.042.008a6 6 0 0 1-.745.143c-.025.004-.268.029-.168.02-.247.022-.653.11-.653.437 0 .298.41.453.653.436 1.7-.134 3.28-.797 4.527-1.967.23-.218-.017-.507-.235-.595a.86.86 0 0 0-.896.15zM17.774 29.97a1.56 1.56 0 0 1-.369.634c-.134.138-.36.281-.49.315-.155.041-.469.188-.234.36.222.164.64.164.896.097.724-.197 1.302-.667 1.507-1.405.08-.285-1.193-.415-1.31 0zm6.356 1.586a4.6 4.6 0 0 1-.829 1.078c-.364.34-.7.558-1.118.755-.268.125-.427.436-.234.696.192.264.611.314.896.184 1.005-.465 1.872-1.228 2.416-2.197.155-.277.059-.562-.235-.696-.255-.118-.737-.1-.896.18m11.763-1.866c-.247 1.145-.854 2.214-1.746 2.948-.226.185-.251.47 0 .65.239.172.687.197.926 0 1.038-.855 1.8-2.025 2.08-3.35.064-.303-.167-.516-.456-.563-.234-.042-.737.005-.804.315"/><path d="M23.017 43.617c.74-.83 1.737-1.254 2.835-1.401.12-.017-.038 0 .083-.008l.197-.013c.15-.008.306-.008.456-.004l.227.012c.033.005.067.005.1.009-.08-.009-.017 0 0 0 .16.017.323.042.477.075.612.118 1.093.29 1.676.579a8.2 8.2 0 0 1 1.687 1.145c.243.21.679.193.926 0 .255-.197.234-.512 0-.709-2.157-1.858-5.23-2.772-7.928-1.56a5.6 5.6 0 0 0-1.867 1.367c-.218.243-.013.575.234.688a.78.78 0 0 0 .896-.18z"/><path d="M21.978 43.26c.348 1.46 1.872 2.11 3.229 2.265.837.096 1.683.05 2.52-.005.826-.054 1.65-.176 2.425-.47.729-.276 1.403-.729 1.86-1.375.154-.218-.336-.331-.457-.344-.234-.025-.645-.029-.804.197-.695.986-1.847 1.321-2.973 1.426-.62.06-1.269.093-1.93.063a5 5 0 0 1-.85-.13 2.6 2.6 0 0 1-.662-.28c-.494-.307-.91-.764-1.047-1.339-.1-.436-1.386-.33-1.311-.008"/><path d="M15.106 26.063c-2.177 3.224-2.349 7.296-1.319 10.957.532 1.891 1.365 3.699 2.362 5.385.921 1.551 2.085 3.019 3.651 3.954 1.717 1.028 3.715 1.455 5.691 1.606 1.964.151 3.966-.058 5.834-.696 3.333-1.132 5.904-3.778 7.429-6.902 1.72-3.531 2.018-7.595 1.641-11.457a44 44 0 0 0-.176-1.472c-.042-.31-.356-.478-.653-.47-.226.009-.7.147-.653.47.527 3.783.519 7.766-.855 11.381a14.5 14.5 0 0 1-2.361 4.102 12 12 0 0 1-1.655 1.66q-.467.384-.971.717a9 9 0 0 1-.942.55c-.808.41-1.62.7-2.467.897-.93.218-1.742.31-2.663.327-1.759.034-3.568-.197-5.205-.855-1.617-.655-2.856-1.812-3.853-3.242-1.03-1.48-1.842-3.15-2.458-4.843-1.231-3.38-1.507-7.222.122-10.522a10 10 0 0 1 .624-1.078c.422-.612-.792-.96-1.123-.47z"/><path d="M40.37 27.346c-1.043-1.51-2.76-2.256-4.439-2.818a33 33 0 0 0-6.202-1.426 32.6 32.6 0 0 0-6-.24c-1.868.106-3.761.4-5.49 1.137-.876.374-1.738.839-2.463 1.464-.347.298-.69.67-.858 1.107-.176.457-.092.923.134 1.346.867 1.623 2.738 2.416 4.414 2.894 3.538 1.01 7.311 1.283 10.95.713a22 22 0 0 0 5.21-1.472 20 20 0 0 0 2.44-1.242c.37-.222.725-.465 1.085-.7q.032-.019.072-.038c-.11.063-.026.009.008-.004l.197-.075a4 4 0 0 0 .515-.214c.272-.143.523-.462.2-.713a.96.96 0 0 0-.895-.135c-.189.063-.486.32-.235.516.063.05-.008-.033-.017-.067-.012-.067.013-.1.05-.15-.033.041.089-.055-.02.008-.08.046.012-.004.029-.009-.033.013-.067.03-.1.042l-.24.088c-.33.126-.598.29-.891.482a18.2 18.2 0 0 1-4.439 2.155c-.808.27-1.533.462-2.324.622a23 23 0 0 1-2.483.36l-.168.013c-.012 0-.13.008-.03.004l-.305.021a27 27 0 0 1-1.939.038 22 22 0 0 1-2.412-.172 25 25 0 0 1-2.483-.436 17 17 0 0 1-1.089-.281 14 14 0 0 1-1.197-.394c-.679-.265-1.382-.634-1.94-1.162a3.5 3.5 0 0 1-.74-.956c-.193-.386-.201-.738.012-1.116.394-.696 1.202-1.165 1.885-1.53 1.461-.789 3.031-1.145 4.685-1.317.118-.013.23-.025.348-.034l.138-.012c-.092.008.021 0 .034-.004.23-.017.465-.03.695-.042a31 31 0 0 1 1.248-.026c.917 0 1.884.034 2.747.114a31.4 31.4 0 0 1 5.712 1.036c.883.247 1.767.524 2.621.872.662.272 1.378.637 1.956 1.136.28.243.54.512.75.818.175.252.514.31.803.264.16-.03.633-.214.46-.465z"/></g><path fill="#ff0" d="M28.272 28.99c.167-.114 6.18-5.075 6.18-5.075l1.395.894-4.569 3.46-2.173 1.283m14.988-14.506.837-1.954s.67-.168.838-.168 1 1.002 1 1.002l-.389 1.116h-2.287z"/><path fill="#39b54a" d="m30.977 17.277 13.09-2.063-1.059 12.551-2.06-.445-3.677-1.283-3.455-2.96s-2.228-2.676-2.173-2.844c.054-.167-.666-2.956-.666-2.956"/><path fill="#4a155d" d="m43.523 27.589.867-9.503c.084-.897.163-1.799.247-2.696.025-.273-1.277-.331-1.307 0l-.866 9.502c-.084.898-.164 1.8-.247 2.697-.03.273 1.273.331 1.306 0"/><path fill="#4a155d" d="M30.177 17.265c.323 2.15 1.357 4.151 2.802 5.761 1.545 1.72 3.538 2.961 5.67 3.812 1.24.495 2.533.847 3.84 1.103.26.05.665.08.896-.075s-.097-.264-.235-.29c-4.275-.83-8.434-3.04-10.557-6.994a10.2 10.2 0 0 1-1.11-3.317c-.05-.34-1.344-.26-1.306 0"/><path fill="#4a155d" d="M31.14 17.495a376 376 0 0 1 12.773-1.946c.13-.016.582-.092.456-.318-.117-.214-.616-.206-.804-.18a376 376 0 0 0-13.082 2c-.163.029-.46.188-.235.356.235.168.62.134.892.088m2.907 6.105c-2.094 1.754-4.184 3.51-6.278 5.264-.217.184-.255.444 0 .625.235.163.691.197.926 0 2.094-1.753 4.183-3.51 6.277-5.263.218-.185.255-.445 0-.625-.234-.164-.695-.197-.925 0z"/><path fill="#4a155d" d="M44.637 15.323c.054-.528.113-1.124.423-1.568.058-.084.176-.206.23-.244-.004.005.143-.088.088-.058.038-.017.08-.03.117-.042l.025-.005c.08-.008.084-.012.013 0h.063c-.071-.004-.067-.004.008.009q-.086-.02.021.012c-.063-.037.071.042.08.055-.017-.013.084.092.105.117a.74.74 0 0 1 .104.613.64.64 0 0 1-.2.289.7.7 0 0 1-.143.096c.004 0-.147.08-.088.05-.586.278-1.365.408-1.956.454-.226.016-.653.08-.653.39 0 .285.44.406.653.39.808-.063 1.617-.197 2.383-.466.611-.214 1.298-.62 1.332-1.346.033-.742-.6-1.25-1.265-1.392-.729-.16-1.591.088-2.052.696-.431.562-.536 1.275-.603 1.963-.03.289.452.394.653.39.256-.021.633-.101.662-.403M27.526 29.291c.407.638 1.382.621 2.002.378.302-.117.574-.302.846-.478.285-.18.574-.365.854-.554a47 47 0 0 0 3.195-2.302 44 44 0 0 0 1.747-1.438c.226-.193-.046-.386-.235-.44-.264-.08-.67-.076-.896.117a48 48 0 0 1-5.239 3.933c-.289.19-.577.382-.875.55a2 2 0 0 1-.197.1c-.096.042-.083.013-.029.021.013 0 .16.017.155.021-.013.017-.063-.058-.08-.08-.155-.238-.552-.26-.804-.226-.134.021-.598.155-.443.398z"/><path fill="#f3c2da" d="M11.84 14.153c0-.168 1.06-1.451 1.06-1.451l1-.168 6.797 10.878 3.174 4.907-1.336.557-1.281-.222z"/><path fill="#4a155d" d="M11.459 14.392a199 199 0 0 0 9.334 14.467c.343.487 1.562.13 1.13-.478a201 201 0 0 1-9.333-14.467c-.16-.273-.645-.277-.897-.172-.289.126-.393.377-.234.65"/><path fill="#4a155d" d="M12.686 14.153c-.004-.336.109-.62.335-.885.008-.008.092-.096.038-.046l.087-.076.113-.088c.03-.02.113-.067.038-.029q.062-.032.13-.063c.02-.008.146-.054.033-.017.093-.029.189-.042.285-.054.28-.034.561-.323.457-.612-.118-.327-.511-.382-.804-.348-1.098.121-2.031 1.107-2.023 2.218.004.662 1.315.662 1.31 0z"/><path fill="#4a155d" d="M12.903 12.56a376 376 0 0 0 10.315 16.065c.314.461 1.54.15 1.13-.453a367 367 0 0 1-10.184-15.848c-.167-.276-.494-.373-.804-.31-.201.034-.624.269-.456.545z"/><path fill="#4a155d" d="M21.655 28.109c-.301-.03-.724-.004-.862.327-.105.247.088.453.285.57.347.21.75.306 1.151.327.733.042 1.5-.234 1.993-.788.206-.235.005-.503-.234-.6-.28-.113-.687-.08-.896.156a.95.95 0 0 1-.323.255q-.05.032.005-.004l-.055.025c-.038.013-.071.03-.109.042-.046.017-.075.021-.012.004-.046.013-.097.021-.143.03-.012.004-.134.012-.058.008.08-.004-.046 0-.059 0-.03 0-.163-.012-.03.004q-.056-.005-.112-.016l-.113-.026c.063.017.033.013-.009-.008.004 0-.134-.059-.092-.038s-.08-.054-.08-.054l.168.193-.025-.046v.234l-.033.047-.737.2c.012 0 .02 0 .033.005.276.025.683 0 .804-.306.109-.281-.214-.516-.456-.541z"/></svg>