<svg fill="none" height="1024" viewBox="0 0 56 56" width="1024" xmlns="http://www.w3.org/2000/svg"><path d="m32.2713 55.6761c-1.3926.2132-2.8191.3238-4.2713.3238-5.9231 0-11.4166-1.8392-15.9407-4.9776-.2239-1.1706-.343-2.3252-.3249-3.6433.0045-.3508.0184-.6936.0324-1.036.054-1.3239.1077-2.6427-.3913-4.4006-.1628-.5656-.2889-.8524-.4433-1.2036-.1589-.3613-.3477-.7906-.6371-1.6618-.52767-1.5886-1.03378-3.1271-1.14505-5.1533-.04265-.7739.00147-1.1005.06067-1.5387.06534-.4837.14905-1.1034.1547-2.6104.00031-.0729.00044-.1446.00055-.2149.00122-.723.00219-1.2974.21481-1.3595.15822-.0455.30058.2301.51022.6361.3184.6163.7919 1.5331 1.7116 2.0822 1.4286.8535 3.2126.3909 4.153.1435l.0034-.0009c.7105-.1864 1.7101-.4487 2.5738-1.2865.2769-.2685.4713-.5294.6187-.7271.1735-.2329.2818-.3782.3827-.3452.1403.0451.0952.376.0231.9047-.0885.6483-.2174 1.5938-.0949 2.6743.2441 2.1373 1.3604 3.7511 1.9347 4.5795.5967.8595 1.1497 1.4276 1.4065 1.6913.0089.0092.0175.018.0257.0265 1.8988 1.9473 4.9067 5.6266 6.7338 9.0156l.0038.0072c1.2073 2.2439 2.5547 4.7484 2.7044 8.0747z" fill="#3995c3"/><path d="m12.1976 51.1177c-.3748-1.644-.5574-2.9263-.5421-4.3878.0037-.306.0148-.6299.0262-.9667.0654-1.9204.145-4.2609-1.0277-6.1159-.0897-.1435-.6102-.9503-.85782-.8571-.1356.0503-.10916.3502-.06455.8564.03805.4317.08933 1.0135.06455 1.7185-.03949 1.1224-.11486 1.9723-.14358 2.1481-.28223 1.8193-.88454 3.0297-1.49513 4.242 1.23671 1.2421 2.58923 2.3688 4.04013 3.3625z" fill="#c2dce9"/><path d="m10.5104 23.6927c-.28-.1399.7107-4.1097 3.7258-8.1585 1.2922-1.7357 2.9146-3.9161 5.8723-5.5084 4.0991-2.20544 8.1085-1.85041 10.097-1.646 5.158.53075 8.6469 2.9048 11.3139 4.723.6676.4554 4.6411 3.2132 7.9505 8.1585.6928 1.0364 2.6526 3.9627 1.9347 4.7229-.4486.477-1.6655-.2008-3.5822-.857 0 0-3.855-1.3269-8.6649-1.4309-1.7731-.0395-4.8708-.0717-8.3777 1.4309-1.3675.5845-3.8729 1.6926-5.944 4.2926-.8794 1.1009-2.4444 3.0697-2.5055 5.7235-.0502 2.1983.9584 3.7045.6461 3.8623-.3481.1793-1.8126-1.5564-2.6489-3.579-.5744-1.3878-.7108-2.5641-.8579-3.8623-.1651-1.4416-.2405-2.1804.0718-3.0769.3984-1.1368.9224-1.1189 1.2168-2.1481.4056-1.4166-.2154-2.747-.5025-3.3638-.2836-.6061-.8938-1.8684-2.3619-2.6466-.3194-.1686-1.766-.893-3.3668-.5021-2.6993.667-3.7546 3.995-4.0166 3.8659z" fill="#fcf6c4"/><path d="m10.0116 25.4107c.0108-.4519.1005-2.1589 1.4322-3.6507 1.4214-1.5923 3.2556-1.8182 3.7258-1.8612.542-.0502 2.3942-.2188 3.8658 1.0722 1.4286 1.2552 1.5291 3.0339 1.5758 3.8623.0323.5989.1041 2.2629-1.0015 3.8623-1.1342 1.6389-2.7638 2.1517-3.4386 2.3597-.9692.3048-2.3331.7316-3.794.0717-1.8055-.814-2.3547-2.6501-2.43366-2.9334-.36253-1.2624-.07896-2.3418.06816-2.7829z" fill="#c3dfc3"/><g fill="#401968"><path d="m19.6958 23.022c.0014.0041.006.0146.0096.0227-.0031-.0075-.0063-.0151-.0096-.0227z"/><path d="m16.0956 25.7331c0 .6912-.5608 1.2516-1.2527 1.2516-.6918 0-1.2527-.5604-1.2527-1.2516s.5609-1.2516 1.2527-1.2516c.6919 0 1.2527.5604 1.2527 1.2516z"/><path clip-rule="evenodd" d="m12.6869 51.4454c-.2949-1.6245-.4798-3.2651-.5863-4.9126-.0128-.2004-.0252-.4013-.0375-.6025-.1222-1.9901-.2461-4.0082-.885-5.9099-.0861-.2582-.183-.5128-.2871-.7675-.0063-.0149-.0169-.0285-.031-.0407-1.2055-3.1441-1.38244-6.5411-1.01536-9.8771.07912.1691.17026.3329.27466.4898.3697.5559.865 1.0221 1.4357 1.3664 2.429 1.4688 5.5851.5192 7.5117-1.352-.3967 2.5002.2164 5.1145 1.7526 7.1759.4031.5426.8676 1.0421 1.3773 1.4874.414.8439 1.0074 1.5809 1.5991 2.3155.0381.0473.0761.0946.1141.1418.1525.1895.3056.3793.4591.5695l.0008.0009c2.589 3.2084 5.2779 6.5407 6.518 10.5216.3338 1.0687.5527 2.1696.6317 3.2885.0103.1458.0185.2916.025.4374.3545-.0448.7069-.0962 1.0572-.1541-.0323-.6682-.1031-1.3375-.2243-2.0082-.7897-4.368-3.4638-8.0796-6.1595-11.4865-.3047-.3841-.6122-.7653-.9197-1.1466l-.0012-.0014c-.384-.4762-.7681-.9523-1.1466-1.434-.664-.8428-1.285-1.7895-1.3927-2.8833-.1077-1.1117.1328-2.2342.4882-3.2849.3087-.9109.7466-1.7751 1.2778-2.5892 1.0697-1.6389 2.5341-3.0267 4.1925-4.0595 1.8988-1.1835 4.0452-1.9115 6.242-2.2808 4.7595-.8033 9.6088.1506 14.1602 1.56.5959.1828 1.1881.3765 1.7768.5737.0946.032.1934.0294.2855.0015.0552.0032.1104-.0018.1631-.0158.2944-.0825.4379-.3766.3769-.6635-.4989-2.3238-1.6403-4.4611-3.0474-6.3546-1.4178-1.9043-3.0689-3.64-4.8529-5.2071-1.7624-1.5492-3.6863-2.9371-5.7646-4.038-2.0998-1.11175-4.3575-1.94015-6.7014-2.34538-2.3906-.41241-4.8458-.41958-7.2291.06813-2.3008.47338-4.4868 1.44164-6.3677 2.85095-1.8449 1.3879-3.3991 3.12-4.6483 5.0601-1.3603 2.1158-2.3438 4.472-3.0474 6.8818-.71426 2.4422-1.18807 4.9812-1.37831 7.5166-.16162 2.151-.08748 4.3435.35229 6.4607.03201.3513.07151.7015.11101 1.0518.06244.5536.12488 1.1072.15769 1.6645.06102 1.0113-.01077 2.019-.19383 3.0124-.29935 1.6273-.85784 3.1875-1.42828 4.7393.21322.2248.43012.446.65062.6636.04035-.1095.08079-.219.12124-.3286.53145-1.4393 1.06387-2.8812 1.40661-4.3786.23846-1.0448.37986-2.1122.35996-3.1868.024.0102.0489.0186.0745.025.6154 1.8471.7444 3.825.8649 5.7582.1028 1.6541.2487 3.2969.5099 4.9283.3335.2399.6725.4726 1.0168.6979zm2.0196-32.1602c-1.1445.1845-2.1026.7876-2.8656 1.6175 1.1679-3.0637 2.8706-5.9065 5.3136-8.1407 1.6153-1.4775 3.532-2.6179 5.6318-3.27777 2.1932-.68854 4.4904-.88578 6.7804-.68137 4.5155.39807 8.7474 2.46724 12.2687 5.27524 1.7875 1.4273 3.4422 3.0375 4.9211 4.7839 1.4465 1.7035 2.7351 3.6149 3.4745 5.7343.0817.2337.157.4688.2255.7056-4.4955-1.4628-9.2161-2.5509-13.9658-2.1257-4.4652.4016-8.873 2.1517-11.8199 5.6303-1.3245 1.5671-2.3331 3.4176-2.7854 5.4258-.1872.8305-.2887 1.7071-.1944 2.5585-1.3384-1.7437-2.0072-3.9578-1.8265-6.1841.0718-.8929.2872-1.7644.6174-2.5964.0196-.048.027-.0926.0243-.1333.21-.4223.376-.8657.489-1.3226.3015-1.2158.2297-2.5319-.219-3.701-.4558-1.1906-1.2562-2.2485-2.3654-2.9012-1.1127-.6562-2.4372-.875-3.7043-.667zm-2.9576 3.6041c-.391.6702-.7112 1.3639-.966 2.0853-.2885 1.1677-.4789 2.3739-.1216 3.5019.0897.2762.183.4842.3589.7603.1472.2259.2549.3586.481.5738l.0052.0049c.0559.0523.1151.1078.1743.1565l.0094.008c.0227.0196.048.0412.0731.0601-.0046-.0031-.0104-.007-.0157-.0106-.0197-.0133-.034-.023.0337.0249.1076.0789.2225.1542.3374.2224.1256.0753.2548.1434.384.2044.0103.0051.0492.0217.0793.0345.0146.0062.0271.0116.0332.0143l.1891.0695c1.1629.4053 2.4408.2618 3.5499-.2151.2692-.1184.5348-.2546.7861-.4053.122-.0753.244-.1506.3625-.2331.0574-.0394.1184-.0824.1759-.1255.016-.0128.1233-.094.1006-.0759.4227-.3322.8611-.7712 1.1557-1.1577.0431-.061.1543-.2188.2225-.3192.0754-.1111.1436-.2259.2118-.3406.0789-.1291.1472-.2654.2154-.4017.0086-.0185.0176-.0373.0268-.0565.0175-.0366.0357-.0744.0521-.1121l.031-.0696.0038-.0096.0049-.0124.0106-.0267c.0969-.2618.1866-.5236.2512-.7926.0359-.1398.0646-.2797.0862-.4195.0036-.0144.0215-.122.0108-.061-.0051.0286-.0038.0201-.0011.0016.0032-.021.0082-.0549.0082-.0626.0072-.0609.0144-.1219.018-.1829.0215-.2797.0215-.563.0036-.8463-.0033-.0657-.0096-.1284-.0162-.1936l-.0018-.018c-.0028-.0258-.0057-.0539-.0086-.0825-.0019-.0133-.0043-.0303-.0057-.0358-.0216-.1327-.0431-.2618-.0718-.3909-.0575-.2654-.1364-.5308-.2333-.7854-.0153-.0426-.0305-.0825-.0479-.1243.0059.013.0095.0198-.006-.0155-.0287-.0646-.0574-.1256-.0897-.1901-.0574-.1184-.1185-.2331-.1831-.3479-.0682-.1219-.1435-.2402-.2225-.355-.0395-.0574-.079-.1147-.1221-.1721-.0033-.0034-.0168-.0208-.0252-.0318l-.0107-.0131c-.008-.0098-.0161-.0197-.0251-.0304-.1723-.208-.3625-.4053-.5671-.5846-.0197-.0179-.0404-.0349-.061-.052-.0207-.017-.0413-.034-.061-.052-.0028-.0027-.0149-.0128-.0253-.0214l-.0067-.0055-.1332-.095c-.1076-.0753-.2189-.147-.3338-.2116-.122-.0681-.2476-.1363-.3769-.1936l-.0969-.0431.0029.001-.0208-.0082-.1723-.0645c-.2656-.0932-.5384-.165-.8184-.2116l-.1095-.0182-.0341-.0033c-.061-.0072-.122-.0143-.183-.0179-.1293-.0108-.2621-.0144-.3949-.0144-.14 0-.28.0036-.4199.018-.0106 0-.0639.0059-.1035.0104-.0228.0025-.0411.0046-.0442.0047-.0612.0094-.1201.0191-.179.0315-.2692.0502-.5312.1255-.7825.2223-.0078.002-.0435.0168-.0608.0239l-.0037.0016-.0719.0319c-.0194.0097-.0384.019-.0571.0281-.0367.018-.0724.0354-.108.0544-.1184.0609-.2297.1255-.341.1972-.2405.1542-.4307.3156-.6532.5415-.4272.4339-.7395.8858-1.0553 1.4309zm7.9448 4.1999c-.0017.0042-.0028.0069-.0027.0067l.0008-.002zm.0012-.0029c.0033-.008.0081-.0191.0117-.0263z" fill-rule="evenodd"/></g></svg>