<svg xmlns="http://www.w3.org/2000/svg" width="1024" height="1024" fill="none" viewBox="0 0 56 56"><circle cx="28.109" cy="28" r="17.172" fill="#fff"/><g fill="#003e00"><path d="M44.716 28.053a17.107 17.107 0 0 1-.117 2.032l-.02.164-.003.027c.006-.06-.007.037-.007.05-.017.11-.03.217-.05.328a17.307 17.307 0 0 1-1.06 3.78c-.01.023-.064.154-.03.07-.02.05-.043.097-.064.147l-.14.311a17.11 17.11 0 0 1-1.986 3.286c.05-.067-.013.02-.033.04-.033.04-.063.084-.097.124a17.185 17.185 0 0 1-2.454 2.5l-.243.2c-.04.034-.084.067-.124.098-.017.013-.037.026-.054.04-.066.05.09-.07-.023.016a17.476 17.476 0 0 1-3.292 1.976l-.271.12c-.05.02-.097.044-.147.064a18.342 18.342 0 0 1-.689.267 16.916 16.916 0 0 1-3.182.826l-.304.047c-.014.003-.11.016-.05.006a.637.637 0 0 1-.027.004c-.064.006-.124.016-.187.023a17.47 17.47 0 0 1-4.065-.007l-.164-.02c-.06-.006.007 0 .017.004l-.094-.014-.324-.05a17.17 17.17 0 0 1-3.777-1.066l-.083-.034c.006.004.066.03.013.007-.05-.02-.097-.043-.147-.063l-.29-.13a17.452 17.452 0 0 1-3.287-1.983c.074.057-.04-.03-.06-.047-.04-.033-.084-.063-.124-.097a12.24 12.24 0 0 1-.26-.214 16.86 16.86 0 0 1-2.527-2.61c-.014-.017-.027-.037-.04-.054.03.04.02.027-.004-.006a17.517 17.517 0 0 1-1.701-2.72 13.715 13.715 0 0 1-.274-.576l-.13-.291a3.814 3.814 0 0 0-.047-.107c.02.05-.007-.02-.01-.023-.014-.037-.03-.07-.044-.107a17.236 17.236 0 0 1-.795-2.477 15.78 15.78 0 0 1-.301-1.618l-.01-.07c-.007-.064-.017-.124-.024-.187a17.104 17.104 0 0 1-.057-3.376c.02-.228.04-.458.07-.686l.02-.164a.677.677 0 0 0 .007-.053 17.268 17.268 0 0 1 .318-1.651c.207-.843.478-1.668.805-2.47.01-.02.017-.044.027-.064a.263.263 0 0 0 .004-.007c.016-.043.036-.083.053-.127l.14-.31a16.47 16.47 0 0 1 .906-1.701 16.528 16.528 0 0 1 .883-1.311c.03-.044.063-.084.093-.127.017-.024.037-.047.054-.07l.03-.04c-.034.043.013-.017.017-.02.02-.024.036-.047.056-.07a14.858 14.858 0 0 1 .31-.384 17.508 17.508 0 0 1 2.492-2.431c.036-.027.07-.057.107-.084.01-.007.083-.067.036-.03-.04.033.03-.023.04-.03a17.394 17.394 0 0 1 3.293-1.969l.29-.13.07-.03.171-.07a17.46 17.46 0 0 1 1.825-.625 16.853 16.853 0 0 1 2.263-.468c.06-.007-.006 0-.016.003a.746.746 0 0 0 .093-.014c.064-.006.124-.016.187-.023.9-.104 1.805-.134 2.711-.094a18.526 18.526 0 0 1 1.494.128 10.633 10.633 0 0 1 .424.063c.218.037.432.074.646.12a16.563 16.563 0 0 1 3.125.96c.004.003.074.03.024.01l.047.02c.043.016.083.037.127.053l.31.14a17.033 17.033 0 0 1 3.012 1.792c.044.03.084.064.127.094l.077.06a17.161 17.161 0 0 1 2.935 2.905c.027.037.057.07.083.107.01.013.057.073.004.006.017.024.037.047.053.07a17.189 17.189 0 0 1 1.965 3.296l.131.291c.01.027.054.127.02.047l.07.17a16.808 16.808 0 0 1 1.046 3.787c.017.111.034.218.048.328-.014-.09.006.05.01.077l.02.164a17.203 17.203 0 0 1 .11 1.952c0 .27.23.501.501.501a.51.51 0 0 0 .502-.501 17.666 17.666 0 0 0-.856-5.438 17.61 17.61 0 0 0-2.383-4.754 18.065 18.065 0 0 0-3.727-3.86 17.544 17.544 0 0 0-10.022-3.597 17.578 17.578 0 0 0-10.345 2.865 17.839 17.839 0 0 0-3.94 3.526 17.889 17.889 0 0 0-2.759 4.613 17.763 17.763 0 0 0-.796 10.84 17.563 17.563 0 0 0 2.043 4.94 17.793 17.793 0 0 0 3.383 4.065 17.528 17.528 0 0 0 4.429 2.881 17.817 17.817 0 0 0 5.301 1.464 17.68 17.68 0 0 0 5.566-.244 17.486 17.486 0 0 0 5.03-1.865 17.746 17.746 0 0 0 7.22-7.554 17.452 17.452 0 0 0 1.638-5.134c.14-.91.214-1.829.218-2.751a.51.51 0 0 0-.502-.502.512.512 0 0 0-.501.505z"/><path d="m22.163 27.298 5.201-4.8 6.271 4.201-2.136 7.337-5.8.264zm-7.604-9.671c.067.268 1.2 8.805 1.2 8.805l-1.802 4.87-2.931-1.003-.268-3.867 1.067-4.47zm2.002 23.078c.067-.2.468-4.269.468-4.269l5 1.869 3.604 4.733-1.334 1.802-4.201-1.535zM21.03 13.96l1.468-2.27 4.933-.999 5.004.87 1 2.931-6.271 1.601zm18.408 4.934-.067 6.271 2.534 7.07 3.135-2.668.268-3.336-.87-4-1.868-3.47zM33.1 42.904c.134-.267 3.203-4.201 3.203-4.201l3.8-1.602.134 3.002-2.668 2.467-2.734 1.4z"/><path d="M22.457 27.866a31.18 31.18 0 0 1 5.222-5.088c.214-.163.327-.43.18-.685-.124-.21-.468-.344-.685-.18a31.978 31.978 0 0 0-5.425 5.244c-.17.21-.204.505 0 .709.174.177.535.214.708 0zm3.056 6.712c1.985.134 3.984.1 5.963-.104.26-.027.515-.21.501-.501-.01-.248-.22-.532-.501-.502a35.183 35.183 0 0 1-5.963.104c-.261-.017-.512.244-.502.501.014.285.22.482.502.502z"/><path d="M27.258 22.865c.879.926 1.928 1.675 2.994 2.37 1.134.739 2.283 1.45 3.427 2.176.227.144.551.047.685-.18a.508.508 0 0 0-.18-.685c-1.127-.712-2.257-1.418-3.377-2.143-1.033-.672-1.992-1.35-2.84-2.246a.508.508 0 0 0-.71 0 .508.508 0 0 0 0 .708zm-5.586 4.998a101.197 101.197 0 0 0 3.242 6.247.508.508 0 0 0 .685.18.508.508 0 0 0 .181-.685 99.52 99.52 0 0 1-3.242-6.247c-.117-.244-.468-.308-.686-.18-.25.146-.297.44-.18.685z"/><path d="M27.906 22.364a76.594 76.594 0 0 1-.18-6.314c.003-.261-.235-.515-.502-.502a.512.512 0 0 0-.501.502c-.027 2.106.03 4.211.18 6.314.02.26.217.515.501.501.258-.01.522-.22.502-.501zm5.432 4.639c-.134 1.14-.498 2.324-.91 3.423-.437 1.163-.939 2.303-1.42 3.446-.104.244.11.562.35.619.295.067.509-.09.62-.351.972-2.31 2.068-4.62 2.366-7.137.03-.26-.254-.511-.502-.5-.3.012-.47.22-.504.5zm-8.407 6.809c-1.103 1.431-2.206 2.865-3.31 4.296-.243.317.094.748.435.755a.81.81 0 0 0 .729-.418.507.507 0 0 0-.18-.685.505.505 0 0 0-.686.18.208.208 0 0 1 .137-.08l.435.756c1.103-1.431 2.206-2.865 3.31-4.296.163-.214.033-.561-.181-.685-.261-.154-.522-.04-.689.177z"/><path d="M31.355 34.625c1.378 1.467 2.751 2.938 4.129 4.405.183.197.521.187.708 0a.508.508 0 0 0 0-.709c-1.377-1.467-2.75-2.938-4.128-4.405-.184-.197-.521-.187-.709 0a.507.507 0 0 0 0 .709zm9.35 2.537 1.745-4.8c.09-.248-.1-.562-.351-.619-.285-.063-.522.087-.619.351l-1.745 4.8c-.09.248.1.562.351.619.284.063.522-.084.619-.351z"/><path d="M35.734 38.666a30.332 30.332 0 0 1-3.021 3.837.51.51 0 0 0 0 .709c.187.187.524.2.708 0a32.44 32.44 0 0 0 3.176-4.038c.15-.224.043-.555-.18-.685-.241-.147-.532-.05-.683.177zm-1.658-11.392a64.937 64.937 0 0 1 5.385-1.397c.264-.057.418-.368.351-.618-.077-.275-.35-.408-.618-.351-1.815.387-3.61.855-5.385 1.397a.515.515 0 0 0-.351.618.51.51 0 0 0 .618.351z"/><path d="m39.027 25.63 2.336 6.334c.094.254.341.428.619.35.244-.066.444-.36.35-.617-.778-2.113-1.557-4.226-2.336-6.335-.093-.254-.34-.428-.618-.35-.248.07-.448.364-.351.618z"/><path d="M39.953 25.366a67.804 67.804 0 0 1 .067-6c.013-.261-.241-.512-.502-.502a.514.514 0 0 0-.501.502 67.804 67.804 0 0 0-.067 6c.01.26.224.514.501.501.264-.013.512-.22.502-.501zm-12.518-9.179a79.722 79.722 0 0 0 5.876-1.103c.264-.06.421-.365.35-.619-.073-.27-.35-.41-.618-.35a79.785 79.785 0 0 1-5.876 1.102c-.267.04-.414.378-.35.619.08.287.347.39.618.35z"/><path d="M33.328 15.004a102.433 102.433 0 0 0 5.866 4.375c.224.154.558.04.685-.18.147-.251.044-.532-.18-.686a99.465 99.465 0 0 1-5.663-4.218c-.21-.17-.501-.207-.708 0-.174.174-.21.538 0 .709z"/><path d="m33.836 14.432-.933-2.801c-.087-.258-.344-.425-.618-.351-.25.07-.435.357-.351.618.31.933.622 1.869.929 2.801.087.258.344.425.618.351.255-.07.438-.36.355-.618zm8.487 18.288a47.1 47.1 0 0 1 2.874-2.728c.204-.177.184-.528 0-.709-.204-.204-.505-.177-.708 0a47.13 47.13 0 0 0-2.875 2.728.51.51 0 0 0 0 .708.51.51 0 0 0 .709 0zM39.84 19.422c.908-.046 1.82-.097 2.73-.143.26-.014.515-.221.501-.502-.01-.26-.22-.515-.501-.501l-2.73.144c-.262.013-.516.22-.502.501.01.26.22.518.501.501zM21.659 38.693a57.669 57.669 0 0 0 3.362 4.626c.17.21.532.177.709 0 .207-.208.17-.498 0-.709a55.516 55.516 0 0 1-3.206-4.422.512.512 0 0 0-.685-.18c-.224.13-.327.457-.18.685z"/><path d="M24.313 44.816a.11.11 0 0 1 .026.014l-.18-.18c.003.01.01.016.013.026a5.537 5.537 0 0 1-.067-.254c0 .01 0 .02-.003.03.05-.117.097-.237.147-.354a.118.118 0 0 0-.02.023c.117-.05.237-.097.354-.147h-.03c.117.05.238.097.355.147l-.024-.02.13.22-.01-.03v.268l.01-.027-.13.22c.197-.23.398-.46.595-.691a7.552 7.552 0 0 0 .288-.368c-.027.033.026-.03.023-.03.03-.033.094-.134.137-.14 0 0-.08.066-.087.05 0 .003.16.01.177.01.16.01.325.016.485.023a38.073 38.073 0 0 0 6.668-.284c.261-.033.515-.207.502-.501-.01-.244-.224-.539-.502-.502a38.45 38.45 0 0 1-6.798.281c-.405-.02-.78-.084-1.12.187-.124.1-.217.224-.314.351-.02.027-.04.054-.06.084.006-.01-.094.12-.047.067.036-.047-.037.04-.04.043-.037.04-.07.084-.107.124l-.425.494c-.194.224-.328.478-.16.763.18.31.615.35.862.096.234-.24.18-.711-.14-.859-.248-.11-.538-.07-.686.181-.127.214-.07.575.178.685zm-2.487-6.856a27.911 27.911 0 0 1-4.155-1.544c-.244-.113-.542-.07-.685.18-.127.218-.067.572.18.686a29.94 29.94 0 0 0 4.392 1.645c.251.07.558-.087.619-.351a.513.513 0 0 0-.351-.615z"/><path d="M16.608 36.9a25.828 25.828 0 0 0-.25 4.002c.003.26.227.515.5.501.268-.013.505-.22.502-.501-.02-1.247.047-2.51.214-3.737.037-.257-.064-.552-.351-.618-.234-.047-.575.077-.615.354zm4.89-10.114a55.785 55.785 0 0 1-5.669-.772c-.257-.047-.555.07-.618.351-.057.247.073.565.35.618 1.963.368 3.945.639 5.937.806.26.023.511-.247.501-.501-.013-.291-.22-.478-.5-.502z"/><path d="M15.14 26.696a45.72 45.72 0 0 1-1.744 4.416c-.114.247-.07.538.18.685.217.127.572.067.685-.18a48.187 48.187 0 0 0 1.849-4.657c.083-.247-.097-.558-.351-.618a.524.524 0 0 0-.618.354z"/><path d="M13.49 31.71c1.106 1.812 2.215 3.623 3.322 5.435a.51.51 0 0 0 .685.18.508.508 0 0 0 .18-.685c-1.106-1.811-2.216-3.623-3.322-5.435a.511.511 0 0 0-.685-.18.508.508 0 0 0-.18.685z"/><path d="M13.56 30.627a7.976 7.976 0 0 1-2.013-.558c-.247-.107-.538-.074-.685.18-.124.214-.07.578.18.685a8.563 8.563 0 0 0 2.253.659c.258.037.552-.064.619-.351.05-.237-.077-.575-.355-.615zm.695-12.064c.237 2.701.575 5.395 1.016 8.07.043.267.374.417.618.35.284-.076.395-.347.351-.618-.428-2.59-.752-5.188-.983-7.805-.023-.26-.214-.515-.5-.501-.255.013-.53.224-.502.504zm7.648-6.805a9.329 9.329 0 0 1-1.491 2.049.51.51 0 0 0 0 .708.507.507 0 0 0 .708 0 10.575 10.575 0 0 0 1.648-2.253.508.508 0 0 0-.18-.685.508.508 0 0 0-.685.18z"/><path d="M27.505 15.482c-2.203-.345-4.255-1.274-6.435-1.725-.257-.054-.555.073-.618.35-.057.251.077.559.35.619 2.177.451 4.233 1.38 6.435 1.725.258.04.552-.067.619-.351.053-.24-.074-.575-.351-.618z"/><path d="M20.325 13.783c-.712.622-1.568 1.15-2.427 1.638-.869.492-1.755.95-2.597 1.484-.498.315-.98.659-1.434 1.037-.207.173-.18.531 0 .708.207.208.501.174.709 0 .715-.591 1.604-1.123 2.456-1.6.87-.485 1.755-.95 2.59-1.495.496-.32.97-.672 1.415-1.06.204-.177.184-.528 0-.708-.207-.207-.508-.184-.712-.004zM32.84 43.646c.498.19 1.006.365 1.517.522.25.077.558-.09.619-.351a.512.512 0 0 0-.351-.619 24.645 24.645 0 0 1-1.518-.521c-.244-.094-.561.104-.618.351-.067.287.087.518.35.618zm3.359-4.342c.565-.34 1.17-.538 1.792-.779l1.992-.768c.254-.097.428-.338.35-.619-.066-.24-.364-.448-.618-.35l-2.055.792c-.666.257-1.354.484-1.97.855a.512.512 0 0 0-.18.685c.14.234.458.325.689.184z"/><path d="M39.722 37.242a20.47 20.47 0 0 0-.154 2.861c.004.26.228.515.502.501.267-.013.504-.22.501-.5-.013-.957.037-1.913.154-2.862.033-.26-.254-.512-.502-.501-.3.013-.468.22-.5.5z"/></g></svg>