<svg fill="none" height="1024" viewBox="0 0 56 56" width="1024" xmlns="http://www.w3.org/2000/svg"><circle cx="28.1094" cy="28" fill="#fff" r="17.1719"/><g fill="#003e00"><path d="m44.7159 28.053c0 .4579-.0168.9125-.0535 1.3705-.0167.2206-.0401.4412-.0635.6618-.0067.0535-.0134.1103-.0201.1638 0 .0067-.01.0836-.0033.0267.0067-.0601-.0067.0368-.0067.0502-.0167.1103-.0301.2172-.0502.3275-.1403.8725-.3476 1.7349-.6183 2.5739-.1337.4078-.2808.8089-.4413 1.2066-.01.0234-.0635.1538-.03.0702-.0201.0502-.0435.097-.0636.1471-.0468.1036-.0936.2073-.1403.3109-.0903.1938-.1805.3844-.2775.5749-.3844.7588-.8256 1.4908-1.3203 2.1861-.127.1771-.2541.3543-.3878.5248.0502-.0669-.0133.02-.0334.0401-.0334.0401-.0635.0835-.0969.1237-.0702.0869-.1404.1738-.214.2607-.2674.3242-.5481.6351-.8389.9393-.2975.3075-.6051.605-.9226.8891-.1571.1404-.3142.2774-.478.4111-.0802.0669-.1638.1337-.244.2006-.0401.0334-.0836.0668-.1237.0969-.0167.0134-.0368.0268-.0535.0401-.0668.0502.0903-.0702-.0234.0168-.6785.5147-1.3905.9827-2.1359 1.3938-.3777.2073-.7621.4011-1.1566.5816-.0902.0402-.1805.0803-.2707.1204-.0501.02-.0969.0434-.1471.0635.0836-.0334-.0601.0267-.0902.0368-.1972.0802-.3978.1571-.5984.2306-.8189.3008-1.6612.5348-2.5136.7053-.2206.0434-.4446.0836-.6685.1203-.1003.0167-.2006.0301-.3042.0468-.0134.0034-.1103.0167-.0501.0067.0568-.0067-.0235.0033-.0268.0033-.0635.0067-.1237.0168-.1872.0234-.4512.0535-.9025.087-1.3571.1037-.9025.0334-1.8083-.0034-2.7075-.1103-.0535-.0067-.1103-.0134-.1638-.0201-.0602-.0067.0067 0 .0167.0033-.0301-.0033-.0635-.01-.0936-.0133-.1103-.0167-.2172-.0335-.3242-.0502-.2173-.0334-.4312-.0735-.6451-.117-.4312-.0869-.8624-.1905-1.2869-.3108-.4212-.1204-.8357-.2541-1.2468-.4045-.2006-.0735-.3978-.1504-.5984-.234-.0267-.01-.0568-.0234-.0835-.0334.0067.0034.0668.0301.0133.0067-.0501-.0201-.0969-.0435-.147-.0635-.097-.0435-.1939-.0869-.2908-.1304-.7822-.361-1.5376-.7788-2.2563-1.2501-.351-.2307-.6953-.4747-1.0295-.732.0735.0568-.0401-.0301-.0602-.0468-.0401-.0335-.0836-.0636-.1237-.097-.0869-.0702-.1738-.1404-.2607-.2139-.1604-.1337-.3209-.2708-.4747-.4111-.6317-.5649-1.22-1.18-1.7582-1.8318-.0668-.0802-.1337-.1638-.1972-.244-.0334-.0401-.0668-.0836-.0969-.1237-.0134-.0167-.0268-.0368-.0401-.0535.0301.0401.02.0268-.0034-.0067-.1303-.1738-.2607-.3476-.3877-.5281-.2474-.351-.4814-.712-.702-1.0797-.2172-.3643-.4211-.7353-.6117-1.113-.0969-.1906-.1872-.3811-.2741-.575-.0434-.0969-.0869-.1938-.1303-.2908-.0101-.0234-.0635-.1471-.0468-.1069.02.0501-.0067-.0201-.01-.0234-.0134-.0368-.0301-.0702-.0435-.107-.3276-.8022-.5916-1.6312-.7955-2.4769-.1037-.4312-.1906-.8691-.2574-1.307-.0167-.1002-.0301-.2005-.0435-.3041-.0033-.0167-.0134-.1003 0-.0067-.0033-.0234-.0067-.0468-.01-.0702-.0067-.0635-.0167-.1237-.0234-.1872-.0267-.2206-.0468-.4412-.0635-.6618-.0702-.9025-.0669-1.8117.0067-2.7142.02-.2273.0401-.458.0702-.6853.0066-.0535.0133-.1103.02-.1638-.01.0869.0034-.0234.0067-.0534.0167-.117.0334-.234.0535-.3477.0702-.4379.1604-.8724.2641-1.3036.2072-.8423.4779-1.668.8055-2.4702.0101-.0201.0167-.0434.0268-.0635-.0335.0836-.0034.01.0033-.0067.0167-.0434.0368-.0836.0535-.127.0468-.1036.0936-.2073.1404-.3109.0936-.2005.1872-.3977.2874-.5916.1906-.3777.3978-.7454.6184-1.1098.224-.3677.458-.7253.7087-1.0729.0568-.0803.1136-.1571.1738-.2374.0301-.0434.0635-.0835.0936-.127.0167-.0234.0367-.0468.0535-.0702.0066-.0067.0601-.0802.03-.0401-.0334.0435.0134-.0167.0168-.0201.02-.0234.0367-.0467.0568-.0701.0334-.0402.0668-.0836.0969-.1237.0702-.0869.1404-.1738.2139-.2607.5449-.6485 1.1365-1.2602 1.7683-1.8218.1571-.1404.3175-.2774.478-.4111.0802-.0669.1638-.1337.244-.1972.0368-.0268.0702-.0569.107-.0836.01-.0067.0835-.0668.0367-.0301-.0401.0334.0301-.0234.0401-.0301.341-.2607.692-.508 1.0496-.7387.7153-.4646 1.4674-.8757 2.2429-1.2301.0969-.0434.1939-.0869.2908-.1303.0234-.0101.1571-.0669.0702-.0301.0568-.0234.1137-.0468.1705-.0702.1972-.0802.3978-.1571.5983-.2306.4045-.1471.8123-.2775 1.2268-.3945.4245-.1203.8557-.2206 1.2902-.3075.2139-.0434.4312-.0802.6451-.1136.107-.0168.2173-.0335.3276-.0468.0602-.0067-.0067 0-.0167.0033.0301-.0033.0635-.0067.0936-.0134.0635-.0067.1237-.0167.1872-.0234.8991-.1036 1.805-.1337 2.7108-.0936.4513.0201.9059.0569 1.3538.1103.0468.0067.0936.0134.1404.0168-.0969-.0134.0535.0066.0769.01.117.0167.234.0334.3476.0535.2173.0367.4312.0735.6451.1203.8624.1738 1.7081.4178 2.5304.7254.2005.0735.3978.1537.595.2339.0033.0034.0735.0301.0234.0101-.0535-.0234.0334.0133.0468.02.0434.0167.0835.0368.127.0535.1036.0468.2072.0936.3109.1404.391.1805.7754.3777 1.1532.5883.3676.2072.7286.4245 1.083.6585.1805.1203.361.244.5381.371.0803.0568.1571.1137.2374.1738.0434.0301.0835.0635.127.0936.0267.0201.147.1137.0769.0602.6685.5181 1.3002 1.0897 1.8852 1.7014.2941.3075.5783.6284.8524.9593.0668.0802.1337.1638.1972.244.0267.0368.0568.0702.0835.107.0101.0134.0569.0735.0034.0067.0167.0234.0367.0468.0535.0702.127.1671.2507.3376.371.508.4947.702.9359 1.4441 1.3203 2.2129.0936.1905.1872.381.2741.5749.0435.0969.0869.1939.1304.2908.01.0267.0535.127.02.0468.0234.0568.0468.1136.0702.1705.1638.4044.3109.8156.4446 1.2301.2674.8356.468 1.6913.6017 2.5571.0167.1103.0334.2172.0468.3275-.0134-.0902.0067.0502.01.0769.0067.0535.0134.1103.0201.1638.0234.2139.0434.4245.0601.6384.0334.4346.0502.8758.0502 1.3137 0 .2707.2306.5014.5014.5014.2707 0 .5013-.2307.5013-.5014-.0033-1.8418-.2841-3.6869-.8557-5.4385-.5481-1.6913-1.3537-3.3025-2.3833-4.7532-1.0462-1.4674-2.2963-2.7643-3.727-3.8607-1.4106-1.083-2.9816-1.9354-4.6496-2.547-1.7214-.6285-3.5431-.9794-5.3715-1.0496-1.8485-.0702-3.717.147-5.4986.6518-1.7148.4847-3.3594 1.2367-4.8468 2.2128-1.4775.9727-2.8145 2.1627-3.941 3.5265-1.1499 1.3938-2.0724 2.9415-2.7576 4.6128-.692 1.688-1.1031 3.483-1.2435 5.298-.1437 1.8552.01 3.7371.4479 5.5421.4212 1.7348 1.1164 3.4128 2.0423 4.9404.9159 1.5108 2.0624 2.8913 3.3828 4.0646 1.3237 1.1732 2.8145 2.156 4.4289 2.8813 1.6847.7621 3.463 1.2502 5.3014 1.4641 1.8518.2173 3.7371.127 5.5655-.244 1.7582-.3543 3.4629-.9928 5.0306-1.8652 1.5443-.8591 2.9649-1.9588 4.185-3.239 1.2167-1.2769 2.2496-2.7376 3.0351-4.3153.8022-1.6145 1.3671-3.3493 1.6379-5.1343.1404-.9092.2139-1.8284.2172-2.751 0-.2707-.2306-.5013-.5013-.5013-.2741.0033-.5014.2339-.5014.5047z"/><path d="m22.1633 27.2976 5.2011-4.8 6.2708 4.2017-2.136 7.337-5.7994.2641z"/><path d="m14.5588 17.6274c.0669.2674 1.2 8.8044 1.2 8.8044l-1.8016 4.8702-2.9315-1.0028-.2674-3.8674 1.0663-4.469z"/><path d="m16.5611 40.7048c.0668-.2005.4679-4.2685.4679-4.2685l5.0006 1.8685 3.6033 4.7332-1.3337 1.8017-4.2016-1.5343z"/><path d="m21.0302 13.9605 1.4674-2.2696 4.9337-.9994 5.0039.869.9994 2.9315-6.2707 1.6011z"/><path d="m39.438 18.8942-.0669 6.2708 2.5337 7.0696 3.1354-2.6674.2674-3.3359-.8691-4.0011-1.8685-3.4697z"/><path d="m33.1003 42.9043c.1338-.2675 3.2023-4.2017 3.2023-4.2017l3.8005-1.6011.1337 3.0016-2.6674 2.4669-2.7342 1.4006z"/><path d="m22.4575 27.8658c1.5309-1.8852 3.3125-3.6301 5.2211-5.0874.214-.1638.3276-.4312.1805-.6853-.1237-.2106-.4679-.3443-.6852-.1805-2.0089 1.5343-3.834 3.2858-5.4251 5.2446-.1705.2106-.2039.5047 0 .7086.1738.1772.5348.2139.7087 0z"/><path d="m25.5126 34.5778c1.9855.1337 3.9844.1003 5.9632-.1036.2607-.0268.5148-.2106.5014-.5014-.01-.2474-.2206-.5315-.5014-.5014-1.9821.2039-3.9777.2373-5.9632.1036-.2607-.0167-.5114.244-.5014.5014.0134.2841.2206.4813.5014.5014z"/><path d="m27.2575 22.8653c.8791.9259 1.9286 1.6746 2.9949 2.3699 1.1332.7387 2.283 1.4507 3.4262 2.176.2273.1438.5516.0468.6853-.1805.1403-.2406.0501-.5415-.1805-.6852-1.1265-.712-2.2563-1.4173-3.3761-2.1426-1.0329-.6719-1.9922-1.3504-2.8412-2.2463-.1872-.1972-.5215-.1871-.7086 0-.1973.1973-.1872.5115 0 .7087z"/><path d="m21.6719 27.8625c1.0062 2.1192 2.0892 4.2017 3.2424 6.2473.1337.2374.4546.3142.6852.1805.2373-.1404.3142-.4479.1805-.6852-1.1532-2.0423-2.2362-4.1281-3.2423-6.2473-.117-.2441-.468-.3076-.6853-.1805-.2507.147-.2975.4412-.1805.6852z"/><path d="m27.9059 22.3639c-.147-2.1025-.2072-4.2084-.1805-6.3142.0034-.2608-.234-.5148-.5014-.5014-.2741.0133-.498.2206-.5014.5014-.0267 2.1058.0301 4.2117.1805 6.3142.0201.2607.2173.5147.5014.5014.2574-.0101.5215-.2207.5014-.5014z"/><path d="m33.3377 27.0034c-.1337 1.1399-.4981 2.3232-.9092 3.4229-.4379 1.1632-.9393 2.303-1.4206 3.4462-.1037.244.1103.5616.3509.6184.2942.0669.5081-.0902.6184-.351.9727-2.3097 2.0691-4.6195 2.3666-7.1365.0301-.2607-.254-.5114-.5014-.5013-.3008.0133-.4713.2206-.5047.5013z"/><path d="m24.931 33.8123c-1.1031 1.4307-2.2061 2.8647-3.3092 4.2953-.244.3176.0936.7487.4345.7554.3042.0067.5817-.1537.7287-.4178.1337-.2373.0569-.5482-.1805-.6852-.2306-.1371-.5515-.0569-.6852.1805.02-.0368.0969-.0803.137-.0803.1438.2507.2875.5014.4346.7555 1.103-1.4307 2.2061-2.8646 3.3092-4.2953.1638-.2139.0334-.5615-.1805-.6852-.2608-.1538-.5215-.0401-.6886.1771z"/><path d="m31.3555 34.6246c1.3772 1.4674 2.751 2.9382 4.1281 4.4056.1839.1972.5215.1871.7087 0 .1972-.1973.1872-.5115 0-.7087-1.3772-1.4674-2.751-2.9381-4.1282-4.4055-.1838-.1973-.5214-.1872-.7086 0-.1972.1972-.1872.5114 0 .7086z"/><path d="m40.7048 37.1617c.5816-1.6011 1.1632-3.1989 1.7448-4.8.0903-.2474-.1002-.5616-.3509-.6184-.2842-.0635-.5215.0869-.6184.351-.5816 1.6011-1.1633 3.1988-1.7449 4.8-.0902.2473.1003.5615.351.6183.2841.0635.5215-.0835.6184-.3509z"/><path d="m35.7343 38.6659c-.9058 1.3637-1.9053 2.6306-3.0217 3.8373-.1838.1972-.1972.5114 0 .7086.1872.1872.5248.2006.7086 0 1.1633-1.2601 2.2262-2.6106 3.1755-4.0379.1504-.2239.0435-.5548-.1805-.6852-.2406-.1471-.5315-.0501-.6819.1772z"/><path d="m34.0764 27.2742c1.7749-.5415 3.5699-1.0095 5.3849-1.3972.2641-.0569.4179-.3677.351-.6184-.0769-.2741-.351-.4078-.6184-.351-1.815.3878-3.61.8557-5.3849 1.3972-.2574.0802-.4245.351-.351.6184.0702.2574.3577.4279.6184.351z"/><path d="m39.0268 25.6296c.7788 2.1126 1.5577 4.2251 2.3365 6.3343.0936.254.3409.4278.6184.351.244-.0669.4445-.361.351-.6184-.7789-2.1126-1.5577-4.2251-2.3365-6.3343-.0936-.254-.341-.4278-.6184-.351-.2474.0702-.4479.3644-.351.6184z"/><path d="m39.9527 25.3656c-.0668-1.9989-.0434-4.0011.0669-6 .0133-.2608-.2407-.5115-.5014-.5014-.2841.0133-.4847.2206-.5014.5014-.1103 1.9989-.1337 4.0011-.0669 6 .0101.2607.224.5147.5014.5014.2641-.0134.5114-.2207.5014-.5014z"/><path d="m27.4346 16.1867c1.9722-.2941 3.9309-.6618 5.8763-1.103.2641-.0602.4212-.3644.351-.6184-.0735-.2708-.351-.4112-.6184-.351-1.9454.4412-3.9042.8089-5.8763 1.1031-.2674.0401-.4145.3777-.351.6183.0803.2875.3477.3911.6184.351z"/><path d="m33.3276 15.0035c1.902 1.5275 3.8608 2.9883 5.8663 4.3755.224.1537.5583.0401.6853-.1805.147-.2507.0434-.5315-.1805-.6853-1.9354-1.3404-3.8273-2.7443-5.6624-4.2184-.2106-.1704-.5014-.2072-.7087 0-.1738.1738-.2105.5382 0 .7087z"/><path d="m33.8357 14.4318c-.3108-.9325-.6217-1.8685-.9326-2.8011-.0869-.2574-.3443-.4245-.6183-.3509-.2507.0701-.4346.3576-.351.6183.3108.9326.6217 1.8686.9292 2.8011.0869.2574.3443.4246.6184.351.2541-.0702.4379-.361.3543-.6184z"/><path d="m42.3226 32.7193c.9192-.9493 1.8786-1.8585 2.8747-2.7275.2039-.1772.1838-.5282 0-.7087-.2039-.2039-.5048-.1771-.7087 0-.9961.8691-1.9554 1.7783-2.8746 2.7276-.1872.1939-.1939.5148 0 .7086.1872.1872.5181.1939.7086 0z"/><path d="m39.8391 19.4224c.9092-.0468 1.8217-.097 2.7309-.1438.2607-.0133.5147-.2206.5014-.5013-.0101-.2608-.2206-.5148-.5014-.5014-.9092.0468-1.8217.0969-2.7309.1437-.2608.0134-.5148.2206-.5014.5014.01.2607.2206.5181.5014.5014z"/><path d="m21.6586 38.6926c1.0429 1.5978 2.166 3.1387 3.3626 4.6262.1705.2106.5315.1771.7087 0 .2072-.2073.1704-.4981 0-.7087-1.1399-1.4172-2.2095-2.898-3.2056-4.4222-.1471-.2273-.4446-.3209-.6852-.1805-.224.1303-.3276.4579-.1805.6852z"/><path d="m24.3126 44.8162c.01.0034.0167.0067.0267.0134-.0601-.0602-.1203-.1203-.1805-.1805.0034.01.0101.0167.0134.0267-.0234-.0835-.0468-.1671-.0668-.254 0 .01 0 .0201-.0034.0301.0502-.117.097-.2373.1471-.3543-.0067.0067-.0134.0133-.0201.0234.117-.0502.2374-.097.3544-.1471-.0101 0-.0201 0-.0301 0 .117.0501.2373.0969.3543.1471-.0067-.0067-.0167-.0134-.0234-.0201.0434.0736.0869.1471.1303.2206-.0033-.01-.0066-.02-.01-.0301v.2675c.0034-.0101.0067-.0201.01-.0268-.0434.0735-.0869.1471-.1303.2206.1972-.2306.3978-.4613.595-.6919.0869-.1036.1704-.2106.2507-.3175.0067-.0067.0668-.0903.0367-.0502-.0267.0334.0268-.0301.0234-.0301.0301-.0334.0936-.1337.1371-.1404 0 0-.0802.0669-.0869.0502 0 .0033.1604.01.1771.01.1605.01.3243.0167.4847.0234.2975.0134.595.0234.8891.0301 1.2335.0267 2.4702-.0067 3.7037-.1003.6952-.0535 1.3872-.1237 2.0757-.2139.2608-.0334.5148-.2073.5014-.5014-.01-.244-.2239-.5382-.5014-.5014-1.5108.1972-3.0317.3042-4.556.3209-.7487.0067-1.4974-.0067-2.2428-.0401-.4045-.0201-.7789-.0836-1.1198.1872-.1237.1002-.2173.2239-.3142.3509-.0201.0268-.0401.0535-.0602.0836.0067-.01-.0936.1203-.0468.0669.0368-.0468-.0368.0401-.0401.0434-.0368.0401-.0702.0836-.107.1237-.1404.1638-.2841.3309-.4245.4947-.1939.224-.3276.478-.1604.7621.1805.3109.615.351.8624.0969.234-.2406.1805-.7119-.1404-.859-.2474-.1103-.5382-.0702-.6853.1805-.127.2139-.0702.5749.1772.6852z"/><path d="m21.8257 37.9605c-1.4273-.4078-2.8178-.9192-4.1549-1.5442-.244-.1137-.5415-.0702-.6852.1805-.127.2172-.0669.5715.1805.6852 1.4206.6618 2.888 1.2134 4.3922 1.6446.2507.0702.5582-.0869.6184-.351.0601-.2641-.0803-.5348-.351-.6151z"/><path d="m16.6079 36.9009c-.1839 1.327-.2741 2.6607-.2507 4.0011.0033.2607.2273.5148.5014.5014.2674-.0134.5047-.2206.5014-.5014-.0201-1.2468.0468-2.5103.2139-3.737.0368-.2574-.0635-.5516-.351-.6184-.234-.0468-.5749.0769-.615.3543z"/><path d="m21.4981 26.7862c-1.9086-.1605-3.7872-.4178-5.6691-.7722-.2573-.0467-.5548.0702-.6183.351-.0569.2474.0735.5649.3509.6184 1.9621.3677 3.9443.6384 5.9365.8056.2607.0234.5114-.2474.5014-.5014-.0134-.2908-.2206-.478-.5014-.5014z"/><path d="m15.1405 26.6959c-.5081 1.5042-1.0864 2.9783-1.7449 4.4156-.1136.2474-.0702.5382.1805.6853.2173.127.5716.0668.6853-.1805.6952-1.5176 1.3136-3.0719 1.8484-4.6563.0836-.2474-.0969-.5582-.351-.6184-.2807-.0568-.5281.0902-.6183.3543z"/><path d="m13.4892 31.7099c1.1064 1.8117 2.2162 3.6234 3.3226 5.4351.1404.2306.4479.3175.6852.1805.2306-.1337.3209-.4546.1805-.6853-1.1064-1.8117-2.2161-3.6234-3.3226-5.4351-.1403-.2306-.4479-.3175-.6852-.1805-.2306.1337-.3209.4513-.1805.6853z"/><path d="m13.5594 30.6268c-.6852-.1003-1.3972-.2874-2.0123-.5582-.2473-.107-.5381-.0735-.6852.1805-.1237.2139-.0702.5783.1805.6852.722.3176 1.4708.5482 2.2529.6585.2574.0368.5516-.0635.6184-.3509.0502-.2374-.0769-.575-.3543-.6151z"/><path d="m14.2547 18.5633c.2373 2.7009.5749 5.395 1.0161 8.0691.0435.2674.3744.4178.6184.351.2841-.0769.3944-.3476.351-.6184-.4279-2.5905-.7521-5.1877-.9827-7.805-.0234-.2607-.214-.5148-.5014-.5014-.2541.0134-.5282.224-.5014.5047z"/><path d="m21.9026 11.7578c-.4145.7654-.8958 1.4273-1.4908 2.049-.1872.1972-.1939.5147 0 .7086.1872.1872.5214.1972.7086 0 .6451-.6752 1.2033-1.434 1.6479-2.2529.1304-.2373.0602-.5449-.1805-.6852-.2273-.1337-.5549-.0569-.6852.1805z"/><path d="m27.5048 15.4815c-2.2028-.3443-4.2551-1.2736-6.4345-1.7248-.2574-.0535-.5549.0735-.6184.3509-.0568.2507.0769.5583.351.6184 2.176.4513 4.2317 1.3805 6.4345 1.7248.2574.0401.5515-.0668.6184-.351.0535-.2406-.0736-.5749-.351-.6183z"/><path d="m20.3249 13.7834c-.712.6217-1.5677 1.1499-2.4268 1.6379-.8691.4913-1.7549.9493-2.5972 1.4841-.498.3142-.9794.6585-1.434 1.0362-.2072.1738-.1805.5315 0 .7087.2073.2072.5014.1738.7087 0 .7153-.5917 1.6044-1.1232 2.4568-1.6012.8691-.4846 1.7549-.9493 2.5905-1.4941.4947-.3209.9694-.6719 1.4139-1.0596.2039-.1772.1839-.5282 0-.7087-.2072-.2072-.508-.1838-.7119-.0033z"/><path d="m32.8396 43.6463c.4981.1906 1.0061.3644 1.5176.5215.2507.0769.5582-.0903.6184-.351.0635-.2707-.0803-.5348-.351-.6184-.5114-.1571-1.0162-.3309-1.5176-.5214-.244-.0936-.5615.1036-.6184.351-.0668.2874.087.5181.351.6183z"/><path d="m36.1989 39.3043c.5649-.341 1.17-.5382 1.7917-.7789.6652-.2573 1.327-.5114 1.9922-.7688.254-.0969.4278-.3376.351-.6183-.0669-.2407-.3644-.448-.6184-.351-.6853.264-1.3705.5281-2.0557.7922-.6652.2574-1.3538.4847-1.9688.8557-.2307.1404-.3176.4512-.1805.6852.1404.234.4579.3243.6885.1839z"/><path d="m39.7221 37.2419c-.117.9493-.1705 1.9053-.1538 2.8612.0034.2608.2273.5148.5014.5014.2674-.0133.5047-.2206.5014-.5014-.0134-.9559.0368-1.9119.1538-2.8612.0334-.2608-.2541-.5115-.5014-.5014-.3009.0133-.468.2206-.5014.5014z"/></g></svg>