<svg fill="none" height="1024" viewBox="0 0 56 56" width="1024" xmlns="http://www.w3.org/2000/svg" xmlns:xlink="http://www.w3.org/1999/xlink"><clipPath id="a"><path d="m0 0h56v56h-56z"/></clipPath><g clip-path="url(#a)"><path d="m56.0001 28.0001c0 15.464-12.5361 28-28 28-3.4516 0-6.7573-.6245-9.8103-1.7667-.3016-.3312-.5755-.6759-.8144-1.0344-.538-.8074-1.1333-1.5702-1.7363-2.3429-1.7181-2.2016-3.4987-4.4832-4.1936-8.1034-.0069-.0358-.0433-.1759-.1012-.3991-.4146-1.5985-1.93568-7.4624-1.69145-9.8585.07931-.7651.10677-1.929.13831-3.2661.08102-3.4346.189-8.0118 1.27224-9.9061 1.5049-2.6316 5.2694-7.9042 5.2694-7.9042s5.0808-3.29191 8.1896-3.38623 8.85.37257 10.6427 2.16003c.5521.5519 1.3106 1.1757 2.1093 1.8327 1.7881 1.4706 3.7776 3.1069 4.1036 4.4727.4718 1.9761.5661 8.2816-.283 9.5031-.5749.827-2.3999 4.7609-3.6064 7.3617-.5755 1.2404-1.0103 2.1777-1.1017 2.33-.283.4716-1.5992 4.235-1.5049 5.0792.0944.8442.7548 3.7635 1.1275 4.1408.3774.3773 2.6371 1.6931 2.9202 1.6931.283 0 5.1751-1.8817 6.2129-3.1975 1.0331-1.3158 7.2461-9.7813 7.9065-11.1018.2881-.5739 1.5068-3.4931 2.8444-6.7665.0706.8106.1066 1.6312.1066 2.4601z" fill="#cbb294"/><path d="m16.7148 39.5549c.2689-1.4808.4717-5.7395.9435-6.6827.4717-.9433 3.1984-4.3295 3.3871-4.6124.1887-.283 2.4484-1.3158 2.5428-2.0704.0943-.7546 0-1.2215-.1887-1.5045-.1887-.2829-1.3162-.3773-1.8823-.1886-.5661.1886-3.0098.7546-3.3872.6603-.3774-.0944-1.5992-.6603-1.6936-1.3158-.0943-.6603.0944-2.1648.5661-2.7307.4718-.5659 1.788-1.6931 2.071-1.9761.2831-.2829 2.4484-.5659 2.4484-.5659l2.354.5659s1.1275 1.5045 1.3162 1.7875c.1887.2829 1.2218 1.7874 1.2218 1.7874l1.788.1886s1.2218-.5659 1.4105-1.0328c.1887-.4716.5661-1.4101.7548-1.8818.1887-.4716.3774-1.4101.7548-1.7874s1.0331-1.0328 1.2218-.7546c.1887.283 1.4106.3773 1.9767.7546s1.8823 1.4102 1.9766 1.8818c.0944.4716.4718 2.6363.4718 2.6363s.283 1.0328 0 1.2215c-.2831.1886-.7548.5659-1.2219.4716-.4717-.0943-.9435-.3773-1.5992-.283s-1.5992.3773-1.9766.6603c-.3774.2829-.8492 1.6931-.8492 1.6931s0 1.2215.2831 1.2215c.283 0 1.4105.1886 1.7879.2829s1.5992.7546 1.5992.7546l1.0332 1.7874s.8491 1.5045.9435 1.8818c.0943.3773.1887 1.5987.1887 1.5987s-.9435 2.2591-1.0332 2.7307c-.0943.4716-.5661 2.7306-.5661 3.3862 0 .6555-.3774 3.3862 0 3.7635s.7548 1.0328 1.1275 1.3158c.3774.2829 3.1985 1.3158 3.1985 1.3158l-4.425 1.2214s-4.9864.9433-6.0243.6603c-1.0331-.283-3.6702-.283-4.142-.4716-.4717-.1887-4.0476-1.3158-4.3306-1.6931-.2831-.3773-2.8258-2.6363-3.0098-3.1032-.1934-.4716-1.2265-2.542-1.0378-3.5749z" fill="#e8e3de"/><path d="m24.0552 29.2976c.283-.3773 1.7879-1.1272 2.1653-1.2215s2.1653 0 2.1653 0 .8492.283.7548.6603c-.0943.3773 0 1.0328-.4717 1.1271-.4718.0943-.7548.283-1.4105.3773-.6558.0943-1.4106.0943-1.788 0s-.6604-.0943-.9435-.283c-.283-.1933-.4717-.6602-.4717-.6602z" fill="#a78666"/><g fill="#513412"><path clip-rule="evenodd" d="m28.9001 27.9628c-.0698-.0195-.1399-.0379-.2105-.055-.0955-.0425-.2042-.0622-.3127-.0678-.963-.1842-1.9755-.1527-2.9205.0945-.618.1603-2.4248.7357-1.8068 1.7072.2453.382.75.6226 1.1652.764.5283.1793 1.085.2453 1.6417.25.8916.0047 1.9483-.1179 2.6654-.7027.3396-.2783.6415-.6933.6038-1.1555-.0189-.2122-.1085-.4197-.2831-.5517-.0849-.0671-.1825-.1087-.2848-.145-.0527-.0681-.1749-.1166-.2577-.138zm-3.1277.4622c.6866-.2353 1.4025-.2782 2.1043-.1504.1001.0627.2088.1033.3347.1362.0175.0046.0339.0085.0494.0122.0974.0231.1584.0377.2195.1435.1368.2546.0519.58-.0897.8111-.3255.5188-.9482.731-1.4954.7829-.2878.0283-.6086.033-.9294-.0189-.3443-.0566-.6698-.1839-.9482-.3914-.283-.2122-.4151-.5093-.1698-.8112.2139-.2638.577-.3916.8903-.5019z" fill-rule="evenodd"/><path clip-rule="evenodd" d="m19.503 54.6875c-1.3359-1.2168-2.5352-2.5843-3.5713-4.0684-1.8492-2.6504-3.1937-5.6263-4.1042-8.7154-.9199-3.1362-1.4011-6.3904-1.5332-9.6492-.066-1.6318-.0471-3.2636.0566-4.8907.1133-1.8157.3114-3.6361.6982-5.4141.434-2.0185 1.1228-3.9946 2.1559-5.7867.9105-1.5799 2.104-2.9712 3.5098-4.1361 2.6937-2.24013 6.147-3.5748 9.6568-3.60781 3.7126-.03302 7.4064 1.29694 10.3124 3.59371 1.5191 1.2026 2.9154 2.6646 3.7316 4.4426.8444 1.8346.9623 3.8861.6699 5.8622-.4577 3.0858-1.86 5.8436-3.2577 8.5922l-.0002.0003c-.2176.428-.4352.8559-.6491 1.2847-.2665-.8744-.6045-1.7255-1.1219-2.4823-.7359-1.08-1.821-1.8865-3.123-2.1317-.0647-.0125-.1339-.0236-.2056-.0351-.4144-.0662-.9078-.1451-1.0445-.5875-.1793-.5753.283-1.278.6557-1.6789.3632-.3914.8444-.698 1.3633-.8348.1369-.0377.2029-.0471.3397-.0566.0708-.0047.0189 0 .0047 0h.0991c.0273 0 .0363 0 .0363-.0002s-.0022-.0004-.0055-.0007c-.0074-.0006-.0201-.0018-.0261-.0038.0353 0 .0728.0044.1096.0087h.0002c.0171.002.0341.004.0506.0055.1209.0157.2727.052.4282.0892.1235.0296.2495.0597.3643.0806.6322.1131 1.5521.1886 2.0191-.3632.3822-.4527.2831-1.2828.2076-1.8251-.1651-1.1791-.7076-2.3062-1.5049-3.1881-.8303-.9197-2.0238-1.6884-3.2692-1.8535-.7407-.099-1.4766.0802-1.9483.6839-.3449.438-.5327.9877-.7136 1.517-.0294.0861-.0587.1718-.0884.2562-.2406.6791-.4906 1.3771-.9341 1.9525-.3255.4245-.8538.9008-1.3964.9527-.0037.0004-.007.0007-.0099.0011-.0015-.0005-.0032-.001-.0052-.0016-.0045-.0012-.0103-.0027-.0179-.0042-.033-.0048-.0707-.0142-.099-.0236-.1085-.033-.2076-.0849-.3067-.1415-.2217-.1368-.401-.316-.5661-.5094-.2635-.316-.4772-.6713-.69-1.025-.0729-.1212-.1458-.2423-.2205-.3615-.3113-.4999-.6604-.9574-1.1322-1.3205-.5095-.3962-1.1133-.6509-1.736-.8065-1.3539-.3395-2.8352-.1556-4.0665.4999-1.1133.5895-2.0804 1.5988-2.5852 2.7543-.25.5753-.4151 1.2309-.283 1.8581.1273.6037.5189 1.0894 1.0708 1.3677 1.3917.7074 2.9579.2971 4.3637-.1368l.0672-.021c.2856-.0895.605-.1896.8716-.2289.0146-.0029.0527-.0059.0908-.0088.0235-.0018.0469-.0036.0649-.0054l.006-.0005c.0054.0003.0153.0005.0317.0005h.0666c.0026.0022.0514.008.0542.0074.0598.0127.1045.0224.1576.0445.5849.2452.6227.9857.3679 1.4903-.2628.5137-.7506.835-1.2221 1.1456l-.0002.0001-.0005.0003c-.0953.0628-.19.1252-.2821.1887-.5047.349-.9765.7404-1.4199 1.1601-.8869.8395-1.6417 1.811-2.2503 2.8675-1.2171 2.1175-1.8634 4.584-1.7549 7.0317.0146.3079.0403.6144.0779.9191-.0034.0228-.0043.0466-.0024.0713.1604 1.9384 1.0143 3.7588 2.2975 5.2067 1.3775 1.5563 3.1843 2.6457 5.1562 3.2824 4.4628 1.4431 9.1897.6272 13.6194-.5235 1.9594-.5073 3.9251-1.1178 5.6756-2.1442.0859-.0169.1656-.047.2307-.0913 2.3022-1.5704 4.2269-3.6031 5.8875-5.8291 1.484-1.9864 2.6373-4.1037 3.8151-6.2662l.0004-.0008c.1811-.3325.3628-.6662.5464-1.0006.9414-1.7133 1.8205-3.4598 2.6347-5.2353-.0302-.7886-.0929-1.5688-.187-2.3393-.9096 2.1454-1.9119 4.2506-3.0043 6.3107-.1984.3734-.3944.7459-.5898 1.1171-1.1148 2.1182-2.2081 4.1957-3.5929 6.174-1.4734 2.0979-3.1581 4.1028-5.1701 5.703-.1232.0135-.2428.0562-.34.1262-1.3144.9637-2.8197 1.5982-4.3641 2.0849-.0532-.0726-.1457-.1296-.2402-.156-1.8351-.5188-2.7172-2.5043-2.8399-4.2634-.1462-2.0892.4482-4.1974 1.2124-6.1216.2197-.5546.4581-1.1012.7083-1.6427.0337-.0265.0497-.0562.0418-.0881l-.0004-.0012c.4291-.9228.8916-1.8312 1.354-2.7393l.0001-.0002c1.1371-2.2332 2.2736-4.4654 2.9109-6.9085.5142-1.9666.7406-4.0512.2878-6.0555-.4576-2.0044-1.5757-3.7069-3.0145-5.1454-2.7598-2.7495-6.463-4.5416-10.3219-5.04622-3.774-.4952-7.6424.27353-10.921 2.21182-1.5757.9338-3.0098 2.1176-4.1939 3.5136-1.2879 1.5186-2.2644 3.273-2.9484 5.1406-1.27846 3.4946-1.64171 7.3147-1.68417 11.0122-.04246 3.3296.2689 6.6733 1.00487 9.9274.7265 3.2117 1.8587 6.3385 3.5145 9.1871 1.0483 1.8034 2.3027 3.4877 3.7464 4.9906.7045.2901 1.4234.5522 2.1553.785zm-2.0711-14.3826c.0037.0195-.0001.0379-.0104.0553.3396 1.6683 1.2544 3.2055 2.473 4.3873 2.9107 2.8344 7.2508 3.4428 11.138 3.0184 2.2266-.2453 4.4297-.7593 6.5903-1.3536l.0135-.0037c-.735-.2638-1.3925-.7316-1.8911-1.3356-1.3114-1.58-1.4529-3.7069-1.1557-5.6641.304-1.9668.9996-3.8435 1.8317-5.6435-.1335-.5232-.2677-1.0462-.4261-1.5631-1.1014.6256-2.2568 1.1342-3.4625 1.5189-4.7136 1.4964-9.8395 1.2435-14.5832-.0096-.7533 2.1-.9524 4.4019-.5175 6.5933zm.8443-7.4142c.9048-2.0681 2.3432-3.9221 4.2034-5.2109.1026-.0711.2087-.141.3157-.2115.4536-.2989.9236-.6086 1.2175-1.0666.3208-.4952.4293-1.2026 0-1.6742-.4199-.4622-1.1369-.5659-1.7313-.5565-.7068.0092-1.3733.2147-2.0431.4213l-.0562.0173c-.3491.1085-.7029.2169-1.0615.2877-.1415.0283-.283.0472-.4245.0566-.0519.0047-.1982 0-.3019-.0142-.5095-.0613-1.0002-.3631-1.2691-.8206-.6604-1.1271.0944-2.5797.8162-3.4758.7312-.9055 1.7973-1.6931 2.972-1.8487.4859-.066.9765-.0094 1.5002.1792.5519.2028 1.0567.5377 1.4435.981.2983.3416.5321.7321.7654 1.1218.3239.541.6469 1.0805 1.1405 1.4862 1.0237.8395 2.6512.698 3.6513-.1085.8516-.6846 1.2049-1.6726 1.5582-2.6604.1066-.2982.2132-.5963.3336-.8861.1132-.2735.25-.5377.434-.7735.0849-.1084.1792-.2122.2925-.2924.0035-.0023.0102-.0061.0189-.0109.0084-.0045.0186-.01.0299-.0159.0397-.0211.0917-.0487.1158-.0664.0185.0043.0441.0088.0675.0128.0211.0037.0404.0071.0509.0097.033.0094.0649.02.0967.0307.0318.0106.0637.0212.0967.0306.1368.0472.2736.099.4104.1604.2548.1131.5001.2546.736.4103.9718.6461 1.7266 1.6176 2.1606 2.6976.217.5424.3444 1.1272.3774 1.712.0141.2971.0236.6131-.0378.9055-.033.1556-.0943.3112-.2122.4197-.0151.0132-.0491.0309-.0795.0468l-.0089.0046c-.0074.004-.0146.0077-.021.0112-.0076.0042-.0143.0081-.0193.0114-.008-.0003-.0166-.0005-.0252-.0006-.0246-.0006-.0489-.0011-.0584-.0027-.0236-.0047-.0944-.0188-.1321-.0235-.0903-.0175-.1807-.0386-.2721-.06h-.0003c-.0565-.0132-.1135-.0265-.1711-.0391-.3349-.0754-.6698-.1179-1.0095-.1179-.6557-.0047-1.302.1368-1.8917.4245-.5095.2452-.9671.6178-1.2973 1.08-.3255.4574-.6605 1.1554-.368 1.6978.2642.4952.9435.6272 1.4436.7215.5802.1038 1.0803.2547 1.5709.5896.9962.6723 1.6478 1.7303 2.0851 2.8337-.0663.0212-.1299.0501-.1887.0856-4.0334 2.3958-8.9302 2.8721-13.5062 2.2401-1.253-.1732-2.4935-.426-3.7175-.7503z" fill-rule="evenodd"/><path d="m18.6868 27.8826c0 .5704-.4626 1.0329-1.0332 1.0329-.5705 0-1.0331-.4625-1.0331-1.0329s.4626-1.0328 1.0331-1.0328c.5706 0 1.0332.4624 1.0332 1.0328z"/><path d="m36.4812 28.0713c.5706 0 1.0331-.4625 1.0331-1.0329s-.4625-1.0328-1.0331-1.0328-1.0331.4624-1.0331 1.0328.4625 1.0329 1.0331 1.0329z"/></g></g></svg>