<svg xmlns="http://www.w3.org/2000/svg" width="1024" height="1024" fill="none" viewBox="0 0 56 56"><clipPath id="a"><path d="M0 0h56v56H0z"/></clipPath><g clip-path="url(#a)"><g fill="#ef9364"><path d="M37.74 54.26A28 28 0 0 1 28 56c-3.164 0-6.205-.525-9.042-1.492q.022-.059.043-.122c.39-1.174.585-1.999.633-2.573-.342.018-.63-.451-.768-1.056.208.039.43.048.513-.027-.141-.12-.331-.161-.551-.164-.117-.699-.036-1.52.376-1.98a5.6 5.6 0 0 1 .476-2.077c-.337-.094-.74-.364-.887-.72-.155-.376.03-.716.358-1.318q.118-.215.257-.482c.05-.092.834-1.64 1.226-3.197.109-.435.129-.638.158-.93.032-.317.073-.738.25-1.669.095-.499.16-.786.216-1.033.065-.288.118-.52.19-.965.254-1.557.204-2.299.104-2.799-.19.186-.646-.07-1.36-.469-.437-.245-.972-.545-1.602-.83-.773-.35-1.139-.643-1.545-.97a9 9 0 0 0-1.01-.729c-1.58-.99-2.888-1.124-3.841-1.223-.769-.08-1.306-.135-1.566-.595-.398-.706.313-1.546 1.525-2.978 1.13-1.336 2.694-3.185 4.2-5.92 1.334-2.421 2.21-4.793 3.17-7.398.669-1.81 1.007-2.741 1.226-4.002.079-.451.129-.842.17-1.16.073-.57.117-.906.237-.938.934-.25 3.194 7.072 3.194 7.072l3.558-.976s-.534 1.436.494 1.68c-.525-.135 1.555-.435 1.797-.28.213-.215.457-.574.771-1.197.266-.529.376-.838.526-1.256.097-.271.21-.589.393-1.042.288-.715.557-1.376 1.022-2.199.159-.281.252-.425.367-.602.123-.19.27-.419.551-.897.214-.364.363-.631.47-.825.213-.381.267-.479.349-.474.243.015.296.93.374 2.24.062 1.052.139 2.36.34 3.66.74 4.759 2.953 8.166 4.585 10.677l.015.024c1.306 2.006 2.063 3.14 3.577 4.2 1.305.911 1.967 1.996 2.843 2.3.714.246 1.357.291 1.757 0-.024.286-.681.377-1.757.525-1.371.188-3.422.47-5.705 1.373-2.037.803-4.054 1.603-5.11 3.501-.67 1.203-.528 2.44-.334 4.11.093.812.2 1.726.23 2.79.065 2.27.512 4.287.8 5.591.185.832.305 1.375.221 1.508-.118.19-.366.13-.606.073-.211-.05-.417-.1-.52.027-.245.301.178 1.089.528 1.635a.2.2 0 0 0-.12-.036c-.25.027-.446.78-.407 1.399.047.754.435 1.19 1.062 1.892.23.257.49.55.778.906l.005.006q.285.351.535.671z"/><path d="M35.886 49.422c.209.324.39.563.39.563s-.19-.433-.39-.563m-17.058 1.144q.016.098.038.191c-.28-.052-.533-.156-.376-.172q.178-.02.338-.02z"/></g><path fill="#672402" d="M25.375 24.5a1.422 1.422 0 1 1-2.844 0 1.422 1.422 0 0 1 2.844 0m5.906 1.422a1.422 1.422 0 1 0 0-2.844 1.422 1.422 0 0 0 0 2.844"/><path fill="#672402" fill-rule="evenodd" d="M19.224 54.597q.135-.348.272-.695l.212-.542q.077-.201.16-.404c.16-.4.321-.804.428-1.214.226-.889-.551-1.149-1.325-1.17l.255-.712.351-.982q.112-.312.23-.624c.16-.425.319-.851.45-1.282.112-.37.165-.888-.169-1.157-.211-.169-.505-.216-.784-.218l-.001-.007-.002-.006-.002-.01a.4.4 0 0 1-.014-.094.9.9 0 0 1 .08-.33c.5-1.203.973-2.398 1.334-3.651.361-1.25.634-2.526.815-3.813q.227-1.602.267-3.218l.032.024q1.032.773 1.995 1.633a34 34 0 0 1 1.821 1.749c.626.65 1.176 1.257 1.664 2.002q.1.155.194.313a10 10 0 0 0-.41.837c-.349.822-.614 1.806-.426 2.702.058.265.139.465.338.66.239.24.596.354.919.412.645.12 1.521.008 1.867-.63.212-.392.315-.884.35-1.326.038-.492-.035-.98-.162-1.457a6 6 0 0 0-.476-1.21 23 23 0 0 1 1.969-2.792l.013-.016.047-.056.161-.189q.214-.246.434-.488a23 23 0 0 1 2.481-2.339 34 34 0 0 0 .46 10.25q.252 1.267.6 2.51l-.167-.09c-.215-.118-.515-.118-.749-.084l-.006.001c-.124.02-.42.068-.34.241q.553 1.243 1.017 2.519c-.207.053-.397.155-.521.345a.61.61 0 0 0-.035.642c.103.189.236.371.366.55q.067.09.13.18.218.309.44.616v.001c.499.692.997 1.383 1.397 2.139q.076.143.146.29.514-.18 1.018-.381c-.236-.454-.506-.89-.8-1.316-.2-.294-.408-.582-.615-.87a60 60 0 0 1-.426-.594 6 6 0 0 0-.152-.207c-.127-.169-.26-.344-.343-.524a.43.43 0 0 1 .015-.397c.346.014.733-.05.684-.187a41 41 0 0 0-.825-2.136l.02.007.038.012.072.022c.207.066.441.077.657.043.057-.008.407-.066.368-.189a34.1 34.1 0 0 1-1.398-11.404q.073-1.501.277-2.99a16 16 0 0 1 .407-.277c.188-.123.376-.246.568-.36a24.5 24.5 0 0 1 3.282-1.688q.149-.064.304-.127l.061-.025h.002l.11-.044a25.6 25.6 0 0 1 3.686-1.12l.03-.006.082-.018.082-.017q.167-.036.335-.065a25 25 0 0 1 2.66-.365c.268-.024.852-.243.671-.612-.156-.315-.632-.366-.985-.357-2.891-1.204-5.158-3.665-6.777-6.307-.983-1.61-1.779-3.329-2.505-5.066-.757-1.814-1.499-3.652-2.037-5.543-.603-2.118-.93-4.34-.61-6.534.034-.23-.462-.284-.6-.28-.14 0-.386.017-.516.127a.45.45 0 0 0-.13.138c-.532.885-.942 1.837-1.35 2.785l-.001.002-.216.499-.765 1.767-.765 1.765-.823 1.908q-.995.083-2.009.11.587-.57 1.203-1.11c.127-.112.08-.25-.046-.339-.169-.115-.434-.146-.63-.107-1.312.234-2.633.494-3.82 1.082a85 85 0 0 1-3.02-7.532c-.105-.304-.691-.347-.994-.176-.144.042-.267.122-.293.257a53.2 53.2 0 0 1-7.516 18.599 54 54 0 0 1-3.262 4.492c-.119.053-.24.132-.293.24-.184.376.427.572.677.607a27 27 0 0 1 1.537.257q.075.016.153.03v.001l.09.018.024.006.018.004.01.003a26 26 0 0 1 3.819 1.172h.001l.029.011.074.028.043.019q.184.074.369.153a27 27 0 0 1 3.985 2.11q.131.082.257.17l.01.006.055.037a28 28 0 0 1-.956 7.39 27 27 0 0 1-1.284 3.694l-.072.157c-.088.187-.18.385-.193.585-.015.322.258.472.542.526q.192.035.384.035h.015l.008.01.027.028c.104.166.092.404.07.585-.032.247-.12.482-.207.717l-.059.159-.192.536-.192.536-.807 2.249c-.036.096.212.159.282.177l.014.003c.196.043.411.043.607 0l.078-.016.068-.014.029-.006.014-.001.015-.001.076-.007h.001l.002.001c-.063.006-.03.005.01.004-.013.004.01.013.025.016h.01c.038.022.079.05.122.101.253.306.047.81-.104 1.18q-.042.1-.073.185c-.2.541-.41 1.078-.62 1.615l-.062.158q.522.195 1.055.371m-.353-3.626-.005-.002-.005-.002h.004l.007.003zm-.008-.005h.022-.02zm0 0c-.053-.025-.027-.009-.005 0zm.008.005.005.002.006.002-.004-.002-.005-.002zm4.933-37.354q.031.066.084.115c-.012.13.184.257.3.292.27.081.588.054.823-.107.74-.51 1.584-.798 2.442-1.003q-.435.409-.856.834c-.303.307.312.457.52.457q1.71-.002 3.423-.154a1 1 0 0 0 .108-.02c.25 0 .5-.08.576-.253q.473-1.096.944-2.195v-.001c.601-1.402 1.202-2.804 1.819-4.197.188 3.117 1.382 6.162 2.551 9.022 1.406 3.444 3.066 6.88 5.787 9.49a13.8 13.8 0 0 0 3.498 2.458 26.4 26.4 0 0 0-9.527 3.158 23.75 23.75 0 0 0-7.823 7.114l-.015.021c-.533-.652-1.134-1.254-1.71-1.823a31 31 0 0 0-4.143-3.46 28 28 0 0 0-10.598-4.493 26 26 0 0 0-.875-.153 54 54 0 0 0 5.221-7.96A53.2 53.2 0 0 0 21.3 7.606a85 85 0 0 0 2.505 6.01zm16.8 17.177-.042.016zM27.861 43.985l-.003.004.004-.006.006-.007zm.834-.05q-.002 0-.017-.012z" clip-rule="evenodd"/></g></svg>