<svg fill="none" height="1024" viewBox="0 0 56 56" width="1024" xmlns="http://www.w3.org/2000/svg"><path d="m13.0257 45.2932c-.7556-.5739-.6576-1.7849-.2529-5.0329.5247-4.2099.7966-6.3417 1.176-7.6346.7777-2.6331 1.7451-4.5284 2.1023-5.2 1.9759-3.7211 4.3596-6.0957 5.3839-7.048.9927-.924 3.7527-3.3522 7.989-5.1181 1.8051-.7537 3.2309-1.1132 4.4576-1.4254 2.2762-.5771 4.9413-1.233 8.3271-1.006 2.0139.1356 2.8801-.0946 3.3638.5046.5501.678.2308 1.6272-.0854 3.4404-.5437 3.1251-.0316 2.8255-.5058 5.3704-.588 3.1629-1.723 5.4586-2.4374 6.8777-.6639 1.3213-1.5871 3.1503-3.2816 5.1181-1.9727 2.2894-3.9044 3.5035-6.3924 5.0329-3.4301 2.1128-6.209 3.1503-9.0006 4.1941-3.5913 1.3434-1.1507.0694-8.5801 2.0119-.6164.1609-1.5965.4226-2.2635-.0851z" fill="#dc674f" stroke="#631505" stroke-miterlimit="10" stroke-width="1.6"/><path d="m13.2789 35.3945c.5027.7789 2.0581.6969 3.6167 2.9359.7461 1.0722 2.3963 2.3651 2.9433 4.4464.1296.4982.2782 1.296.8409 1.5105.2719.104.4995-.0095 1.429-.4194 1.4447-.637 2.1687-.9555 2.1877-.924.0221.0378-.2561.3185-.4205.2523-.2592-.1041.1201-.9303-.1676-1.8448-.1896-.6055-.4805-.637-1.0938-1.5105-.5786-.8199-.5027-1.0501-1.0085-1.9299-.528-.9145-1.0781-1.4759-1.8494-2.2642-.6039-.6181-1.1951-1.0911-2.3553-2.0119-2.6145-2.0813-3.0444-2.157-3.2816-2.012-.2213.1325-.1675.3879-.3351 1.4254-.2845 1.7344-.7935 1.9047-.5058 2.3462z" fill="#fff"/><path d="m32.3707 14.4208c-.1675.719 2.3521 1.2771 4.8781 3.6075 1.1571 1.0691 1.9285 2.1507 2.6082 3.1031.7429 1.0406 1.4068 1.9772 2.017 3.3552.7619 1.7218.9199 2.958 1.2614 2.9359.1991-.0126.2023-.4415.6734-1.7628.4362-1.2235.667-1.5073.8409-2.4313.0948-.5045.1612-.8672.0854-1.3434-.0759-.473-.2498-.8136-.7556-1.5925-.6386-.987-1.0085-1.5546-1.6819-2.3493-.5122-.6055-.9168-1.006-1.5143-1.5925-.9326-.924-1.4005-1.3844-1.7673-1.5925-1.0053-.5771-1.3657-.2996-2.4374-1.006-.5058-.3342-.6197-.5203-1.0148-.5897-.3035-.0536-.6133-.0126-1.7673.5046-.9294.4162-1.3973.6244-1.4258.7537z" fill="#fff"/><g fill="#631505"><path d="m13.857 45.7252c-.3161-1.6934-.4647-3.4183-.4521-5.1401.0127-1.7155.1834-3.4278.5059-5.1118.3224-1.6808.7966-3.3332 1.4163-4.9289.6228-1.6051 1.3878-3.1566 2.292-4.6229.8884-1.4443 1.9095-2.8098 3.0571-4.0586 1.1666-1.2677 2.4564-2.4155 3.8443-3.4341.7018-.5172 1.3531-.946 2.0928-1.3875.7398-.4415 1.4986-.8483 2.2731-1.2204.3825-.1829.7714-.3595 1.1634-.5266.196-.082.392-.164.5912-.2429.0474-.0189.0948-.0378.1423-.0567.0569-.0221 0 0-.0095.0031.0253-.0094.0474-.0189.0727-.0283.1043-.041.2055-.0789.3098-.1167.8062-.2996 1.625-.5645 2.4564-.7884.4205-.1135.841-.2176 1.2646-.3153.0506-.0126.1012-.0221.1486-.0347.0411-.0095.1517-.0316.0474-.0095.1075-.0221.2182-.0441.3256-.0662.2087-.041.4173-.082.6292-.1167.8472-.1482 1.7008-.2586 2.5576-.3311.1011-.0095.2023-.0158.3066-.0221.0727-.0063-.0348.0032-.0411.0032.0253-.0032.0506-.0032.0759-.0063.0601-.0032.1201-.0063.177-.0095.2118-.0126.4237-.0221.6386-.0284.4332-.0157.8663-.0189 1.3025-.0126.4268.0063.8505.0221 1.2741.0473.0506.0032.1012.0063.1517.0095-.1138-.0095-.0221 0 .0348.0031.1107.0095.2213.0158.332.0253.2213.0189.4394.041.6607.0662.4142.0473.8283.1041 1.2393.1703.2244.0347.6576.0157.7777-.2239.1264-.2491-.2814-.3658-.4426-.3911-1.7451-.2869-3.5282-.3973-5.3017-.3374-1.821.0599-3.6262.2933-5.4029.6843-1.7261.3784-3.4143.9208-5.0425 1.602-1.6344.6811-3.1961 1.52-4.6757 2.4881-1.4543.9523-2.82 2.0371-4.0624 3.2512-1.2583 1.2235-2.3932 2.5764-3.3891 4.0175-.9927 1.438-1.8494 2.9706-2.5576 4.5694-.7144 1.602-1.274 3.2701-1.6882 4.973-.4141 1.6997-.6733 3.4373-.7713 5.1843-.0949 1.7376-.0285 3.4846.2054 5.2064.057.4225.1265.8451.2055 1.2645.0475.2586.411.3248.6323.3185.1423-.0031.6829-.063.6323-.3185z"/><path d="m25.0832 31.0238c2.2288-2.5575 4.6284-4.9667 7.1765-7.2057.7145-.6275 1.4384-1.2393 2.175-1.8416.1771-.1419-.3951-.246-.4426-.2491-.2466-.019-.5722-.0253-.7777.1419-2.6303 2.1443-5.1183 4.4621-7.442 6.9344-.6512.6938-1.2867 1.397-1.9126 2.1129-.1486.1702.3699.2428.4426.2491.1612.0126.3288.0126.4868-.0189.1012-.0221.2277-.0442.294-.123z"/><path d="m29.0066 23.4428c1.0085.842 1.7071 1.971 2.0201 3.2544.0253.1041.2087.1861.2909.2145.1454.0504.3351.063.4868.0346.2371-.0441.509-.1608.4426-.4414-.3256-1.3308-1.0938-2.5449-2.1466-3.4247-.2244-.1892-.5912-.2302-.8662-.1293-.1834.0694-.4647.2964-.2276.4919z"/><path d="m24.8019 28.6114c-.0158-.0032-.0285-.0063-.0443-.0095.0917.0284.1865.0568.2782.0852.0633.0788.0822.0851.0538.0189-.098.1261-.1929.2491-.2909.3752.1771-.0599.0506-.063-.3762-.0126-.0569-.0252-.0569-.0252 0 .0032-.0443-.0347.0854.0693.098.082.0917.0851.1707.1829.2498.2775.1802.2113.354.4257.5248.6464.3572.4604.6955.9366 1.0179 1.4254.1549.2334.5217.2775.7777.2334.1455-.0253.6007-.1672.4426-.41-.4046-.6149-.8377-1.2046-1.2993-1.7786-.2055-.2554-.4078-.5455-.6576-.7599-.3793-.328-.9389-.4541-1.4163-.2775-.1739.0662-.3604.1671-.2908.3752.0822.246.373.3217.5943.369.2245.0504.6607.0063.7777-.2334.1296-.2617-.275-.3752-.4394-.4099z"/><path d="m25.3614 27.2901c.9358.7 1.7167 1.5798 2.3079 2.5858.1928.3311 1.4195.1924 1.2203-.1451-.6196-1.0564-1.4543-1.9835-2.4343-2.7151-.2213-.1671-.607-.1703-.8662-.0978-.1581.0442-.4584.1987-.2277.3722z"/><path d="m27.0781 25.7732c.2561.1798.5027.3785.7303.5929.0411.0378-.0348-.0347.0316.0284.0285.0315.0601.0599.0917.0883.0537.0536.1075.1103.1581.164.1106.1198.2149.2396.3161.3658.196.2459.3762.5014.5374.7694.019.0284.0348.0568.0506.0883-.0348-.0599.019.0347.0253.0441.038.0663.0727.1356.1075.2019.0759.1513.1454.3059.2118.4604.117.2806.4995.3879.7777.3216.2403-.0567.5659-.2712.4426-.5676-.5406-1.2866-1.4416-2.4092-2.5829-3.2165-.2434-.1735-.6544-.1955-.8946 0-.2245.186-.253.4824-.0032.659z"/><path d="m31.0267 22.1373c.1233.082.2466.1703.3667.2617.0253.019.0538.041.0791.0631-.0032-.0031.1011.082.0664.0536-.0317-.0252.0379.0347.0442.0379.0316.0283.0633.0567.0917.0819.2213.2019.4268.4226.6165.6528.373.4604.6386.9177.8694 1.4885.1106.2711.5248.3437.7777.2901.2276-.0505.5564-.2239.4426-.5109-.49-1.2235-1.3594-2.2768-2.4564-3.0084-.2435-.1608-.6545-.1766-.8947 0-.2276.1671-.2466.4289-.0032.5897z"/><path d="m44.7125 13.4085c.196 3.1881-.0284 6.4078-.7398 9.5235-.705 3.0809-1.9 6.0546-3.6451 8.7004-1.7641 2.671-4.0814 4.9036-6.7275 6.6979-2.6904 1.8227-5.6494 3.1882-8.7097 4.2793-1.7261.6149-3.4365 1.1289-5.2195 1.5736-.9231.2302-1.8494.4383-2.7821.6244-.9642.1923-1.7767.3311-2.7188.473-.215.0315-.4299.0631-.6449.0914-.0506.0063-.1012.0126-.1549.0221-.1423.0189-.1707-.0284.1043.0126.4616.0726.3003.0284.2466.1262.0474-.0883-.1549.0693-.0601.0346-.0917.0221-.1865.0442-.2782.0663-.0411.0031-.0822.0031-.1233.0063-.1486-.0252-.2971-.0505-.4457-.0726-.0475-.0378-.098-.0788-.1455-.1166.0032.227.4837.2554.6323.2522.1391-.0031.6355-.022.6323-.2522-.0032-.3406-.6481-.3311-.8631-.3059-.1865.0189-.5722.0977-.5975.3437-.0284.2775.4395.3753.626.3973.2877.0347.569-.0031.8536-.0409 1.0116-.1388 2.0201-.3059 3.0255-.4951 1.9474-.369 3.879-.8357 5.779-1.4002 3.4144-1.0122 6.756-2.3052 9.8542-4.0711 2.9559-1.6871 5.6684-3.8378 7.7834-6.5151 2.0549-2.6016 3.5092-5.6352 4.426-8.8139.9295-3.2197 1.3057-6.5939 1.2108-9.9397-.0126-.4005-.0284-.801-.0537-1.1984-.0127-.2302-.4742-.2554-.6323-.2522-.1296 0-.6481.022-.6323.2491z"/><path d="m35.4938 13.8374c.2055.063.4078.1293.6102.2049.0822.0316.1675.0631.2497.0946.0506.019.098.0379.1486.06-.0822-.0347.1012.0441.117.0504.3762.1608.7429.3406 1.1001.5361.743.4068 1.3816.842 2.036 1.3781 1.2583 1.0249 2.3015 2.2925 3.0919 3.7053.4394.7884.7967 1.6209 1.0717 2.4818.0316.1009.2087.1734.2909.1986.1485.0473.3351.06.4868.0347.2087-.0347.528-.1419.4426-.4099-.509-1.5799-1.2962-3.0589-2.3363-4.355-1.0938-1.3654-2.4374-2.5007-3.9581-3.371-.8567-.492-1.7704-.8861-2.7125-1.1763-.2592-.0788-.6544-.0788-.8662.1199-.2087.1923.0316.3879.2276.4478z"/><path d="m31.7254 14.6636c.5343.2491 1.0527.5329 1.5681.823.1201.0663.2402.1356.3604.205.06.0347.1201.0694.1802.1009.0853.0505-.0569-.0378.0253.0126.041.0253.0821.0505.1201.0757.2339.1482.4616.3091.686.4762.4489.3343.8915.6811 1.3247 1.0406.2149.1766.4236.3564.6291.5424.0948.0852.1897.1735.2813.2586.0475.0442.0917.0883.1391.1325.0253.0252.0538.0504.0791.0757.0095.0094.1043.1009.0664.0662.0379.0347.1707.1703.2402.2396.1012.1041.2055.2113.3035.3154.1866.1955.3668.3942.547.596.0189.0221.0505.0662.0758.0851.0664.0473.0348.1325.0064-.0946.0158.1167.0442.2018.1232.2933.0886.1072.1866.2207.2877.3153.0854.082.0285.019.0095-.0094.0316.0441.0474.1072.0759.1482s.0601.0788.0917.1167c.098.1167.1928.2333.2877.3532.3509.4446.6702.9145.9705 1.3938.2909.4699.5596.9744.8283 1.4853.313.5928.5659 1.1983.7967 1.829.117.3185.2339.6338.3446.9555.1043.3027.1486.6212.2624.9177.1106.2869.4963.4036.7777.3342.2561-.063.5564-.2869.4426-.5897-.1043-.2712-.1454-.5581-.234-.8356-.0916-.2839-.2023-.5614-.3034-.842-.2087-.574-.4174-1.1353-.6924-1.6808-.5501-1.1006-1.1318-2.1507-1.8621-3.1377-.1675-.2271-.3414-.4478-.5248-.6654-.0253-.0284-.0474-.0599-.0758-.0883.0063.0095.0094.0158.0158.0252.0189.0316.0221.0347.0094.0095.0285-.0095-.1011-.1703-.1296-.2018-.0506-.0568-.1011-.1104-.1517-.1672-.0222-.0252-.0474-.063-.0759-.0851-.0126-.0126-.0253-.0284-.0379-.041.0095.0441.0189.0914.0284.1356-.0348-.1356-.0506-.205-.1391-.3154-.0411-.0504-.0885-.1009-.1328-.1482-.1011-.1103-.1991-.2207-.3035-.3311-.1865-.2018-.3762-.4036-.569-.5991-.8188-.8326-1.704-1.5768-2.6303-2.2926-.5375-.4163-1.0939-.7726-1.6851-1.1069-.5911-.3342-1.1823-.6654-1.7988-.9523-.2624-.123-.6892-.0852-.8662.1734-.1771.2554-.038.5298.2276.6528z"/><path d="m13.9519 32.1496c3.427 1.7848 6.288 4.5883 8.2039 7.9341.5469.9555 1.0179 1.9551 1.4036 2.9863.038.0978.2055.1671.2909.1955.1486.0442.3351.0599.4868.0316.1929-.0316.5407-.1388.4426-.4005-.6955-1.848-1.6565-3.5918-2.8452-5.1717-1.1982-1.5894-2.6082-3.0179-4.1984-4.213-.9105-.6843-1.8779-1.2961-2.8864-1.8227-.2561-.1356-.6386-.1356-.8947 0-.2307.1198-.2371.3374-.0031.4604z"/><path d="m12.8549 35.5048c.2908.2176.5817.4415.863.6717.1423.1167.2814.2334.4205.3501.0664.0567.1328.1135.1992.1703.0758.063-.0885-.0789.0379.0346.0379.0347.079.0694.117.1041.5469.4856 1.0717.9933 1.5712 1.5263 1.0117 1.069 1.9253 2.2295 2.7252 3.4625.4109.637.8314 1.3812 1.1918 2.1034.1328.268.4995.3594.7777.2964.2118-.0473.5817-.2428.4426-.5235-1.3436-2.6962-3.212-5.1181-5.4408-7.1394-.6449-.5834-1.3151-1.1384-2.0107-1.6588-.2339-.1734-.6607-.1734-.8946 0-.234.1735-.234.4289 0 .6023z"/></g></svg>