<svg xmlns="http://www.w3.org/2000/svg" width="1024" height="1024" fill="none" viewBox="0 0 56 56"><path fill="#dc674f" stroke="#631505" stroke-miterlimit="10" stroke-width="1.6" d="M13.026 45.293c-.756-.574-.658-1.785-.253-5.033.525-4.21.796-6.341 1.176-7.634a28.3 28.3 0 0 1 2.102-5.2c1.976-3.721 4.36-6.096 5.384-7.048.993-.924 3.753-3.352 7.989-5.118 1.805-.754 3.23-1.114 4.458-1.426 2.276-.577 4.94-1.233 8.327-1.006 2.014.136 2.88-.094 3.364.505.55.678.23 1.627-.086 3.44-.544 3.125-.031 2.826-.506 5.37-.588 3.164-1.723 5.46-2.437 6.878-.664 1.322-1.587 3.15-3.282 5.118-1.972 2.29-3.904 3.504-6.392 5.033-3.43 2.113-6.21 3.15-9 4.194-3.592 1.344-1.151.07-8.58 2.012-.617.161-1.597.423-2.264-.085z"/><path fill="#fff" d="M13.279 35.395c.503.778 2.058.696 3.617 2.935.746 1.073 2.396 2.365 2.943 4.447.13.498.278 1.296.84 1.51.273.104.5-.01 1.43-.42 1.445-.636 2.169-.955 2.188-.923.022.038-.257.318-.421.252-.26-.104.12-.93-.168-1.845-.19-.605-.48-.637-1.093-1.51-.579-.82-.503-1.05-1.009-1.93-.528-.915-1.078-1.476-1.85-2.264-.603-.618-1.194-1.091-2.355-2.012-2.614-2.081-3.044-2.157-3.281-2.012-.222.132-.168.388-.335 1.425-.285 1.735-.794 1.905-.506 2.346zM32.37 14.42c-.167.72 2.353 1.278 4.879 3.608 1.157 1.07 1.928 2.151 2.608 3.103.743 1.041 1.407 1.978 2.017 3.356.762 1.721.92 2.958 1.261 2.936.2-.013.203-.442.674-1.763.436-1.224.667-1.508.84-2.432.096-.504.162-.867.086-1.343-.076-.473-.25-.814-.755-1.592-.64-.987-1.009-1.555-1.682-2.35-.513-.605-.917-1.006-1.515-1.592-.932-.924-1.4-1.385-1.767-1.593-1.005-.577-1.366-.3-2.437-1.006-.506-.334-.62-.52-1.015-.59-.304-.053-.613-.012-1.767.505-.93.416-1.398.625-1.426.754z"/><g fill="#631505"><path d="M13.857 45.725a27 27 0 0 1-.452-5.14 28.3 28.3 0 0 1 1.922-10.04 28.3 28.3 0 0 1 2.292-4.624 26.6 26.6 0 0 1 3.057-4.058 26.7 26.7 0 0 1 5.937-4.822 29 29 0 0 1 3.437-1.747q.293-.124.591-.243l.142-.056c.057-.022 0 0-.01.003.026-.01.048-.02.074-.029a28 28 0 0 1 2.766-.905q.629-.169 1.264-.315.077-.017.149-.035c.041-.01.152-.031.047-.01l.326-.065q.312-.063.63-.117a29 29 0 0 1 2.863-.353c.073-.007-.034.003-.04.003l.075-.006.177-.01a26 26 0 0 1 1.941-.041q.64.01 1.274.047l.152.01.035.003.332.025a27 27 0 0 1 1.9.236c.224.036.657.017.778-.223.126-.25-.282-.366-.443-.391a27 27 0 0 0-5.302-.338 29.7 29.7 0 0 0-10.445 2.287 28.7 28.7 0 0 0-4.676 2.488 26.9 26.9 0 0 0-7.451 7.269 28 28 0 0 0-2.558 4.569 29 29 0 0 0-1.688 4.973 28.7 28.7 0 0 0-.771 5.184 27.6 27.6 0 0 0 .205 5.207q.086.634.205 1.264c.048.259.411.325.633.319.142-.003.683-.063.632-.319"/><path d="M25.083 31.024a76.5 76.5 0 0 1 9.352-9.047c.177-.142-.395-.246-.443-.25-.246-.019-.572-.025-.778.142a77 77 0 0 0-9.354 9.048c-.149.17.37.242.442.249.162.012.33.012.487-.02.101-.021.228-.043.294-.122"/><path d="M29.007 23.443a6.1 6.1 0 0 1 2.02 3.254c.025.104.208.186.29.215.146.05.336.063.487.034.237-.044.51-.16.443-.441A6.52 6.52 0 0 0 30.1 23.08c-.224-.189-.59-.23-.866-.13-.183.07-.465.297-.227.493m-4.205 5.168-.044-.01q.138.045.278.086.095.118.054.019l-.291.375q.264-.09-.376-.012-.085-.04 0 .003c-.045-.035.085.07.098.082.091.085.17.183.25.277q.269.317.524.647.535.69 1.018 1.425c.155.233.522.278.778.233.145-.025.6-.167.442-.41a23 23 0 0 0-1.299-1.778c-.206-.255-.408-.546-.658-.76-.379-.328-.939-.454-1.416-.278-.174.067-.36.168-.29.376.081.246.372.321.594.369.224.05.66.006.777-.234.13-.261-.275-.375-.44-.41zm.559-1.321a8.8 8.8 0 0 1 2.308 2.586c.193.331 1.42.192 1.22-.145a9.2 9.2 0 0 0-2.434-2.715c-.221-.167-.607-.17-.866-.098-.158.044-.458.199-.228.372m1.717-1.517c.256.18.503.379.73.593.041.038-.034-.035.032.028q.044.047.092.089a7 7 0 0 1 1.088 1.432q.055.1.107.201.113.229.212.46c.117.281.499.389.777.322.24-.056.566-.27.443-.567a7.5 7.5 0 0 0-2.583-3.217c-.243-.173-.654-.195-.895 0-.224.186-.253.483-.003.66zm3.949-3.636a7 7 0 0 1 .446.325l.066.054c-.032-.025.038.034.044.038l.092.082c.221.201.427.422.616.652.373.46.639.918.87 1.489.11.27.525.343.777.29.228-.05.557-.224.443-.511a6.6 6.6 0 0 0-2.456-3.008c-.244-.161-.655-.177-.895 0-.228.167-.247.428-.003.59z"/><path d="M44.712 13.409c.196 3.188-.028 6.407-.74 9.523-.704 3.08-1.9 6.055-3.644 8.7-1.765 2.671-4.082 4.904-6.728 6.698-2.69 1.823-5.65 3.189-8.71 4.28a55 55 0 0 1-5.22 1.573 57 57 0 0 1-5.5 1.098q-.322.048-.645.091-.075.009-.155.022c-.142.019-.17-.028.105.013.461.072.3.028.246.126.048-.088-.155.07-.06.034l-.278.067-.123.006q-.225-.038-.446-.073l-.146-.116c.004.227.484.255.633.252.139-.003.635-.022.632-.252-.003-.34-.648-.331-.863-.306-.187.019-.572.098-.598.344-.028.277.44.375.626.397.288.035.57-.003.854-.04a62 62 0 0 0 3.025-.496 59 59 0 0 0 5.78-1.4c3.414-1.012 6.755-2.305 9.854-4.071 2.956-1.687 5.668-3.838 7.783-6.515 2.055-2.602 3.51-5.636 4.426-8.814.93-3.22 1.306-6.594 1.21-9.94q-.017-.601-.053-1.198c-.013-.23-.474-.256-.632-.253-.13 0-.648.022-.632.25z"/><path d="M35.494 13.837q.307.094.61.205l.25.095q.074.028.148.06l.117.05a12.9 12.9 0 0 1 3.136 1.914 12.9 12.9 0 0 1 3.092 3.706c.44.788.797 1.62 1.072 2.482.032.1.209.173.29.198.15.047.336.06.488.035.208-.035.528-.142.442-.41a13.6 13.6 0 0 0-2.336-4.355 13.9 13.9 0 0 0-3.958-3.371 13.3 13.3 0 0 0-2.713-1.176c-.259-.08-.654-.08-.866.12-.209.192.032.387.228.447m-3.769.827c.535.249 1.053.533 1.568.823q.18.1.36.205.09.052.181.1c.085.051-.057-.037.025.013q.062.037.12.076.35.224.687.476.673.501 1.324 1.04a18 18 0 0 1 .91.802l.14.132q.04.037.079.076c.01.01.104.1.066.066.038.035.17.17.24.24.102.104.206.21.304.315q.279.294.547.596c.019.022.05.066.076.085.066.047.035.133.006-.094a.5.5 0 0 0 .123.293c.089.107.187.22.288.315.085.082.029.02.01-.01.031.045.047.108.075.149s.06.079.092.117q.146.173.288.353c.35.444.67.914.97 1.394.291.47.56.974.829 1.485.313.593.566 1.198.796 1.829q.177.475.345.955c.104.303.149.622.262.918.11.287.497.404.778.334.256-.063.556-.287.443-.59-.105-.27-.146-.557-.234-.835-.092-.284-.203-.561-.304-.842-.209-.574-.417-1.135-.692-1.68-.55-1.101-1.132-2.151-1.862-3.138a13 13 0 0 0-.525-.666c-.025-.028-.047-.06-.076-.088l.016.025q.028.048.01.01c.028-.01-.102-.17-.13-.202q-.075-.084-.152-.167c-.022-.026-.047-.063-.076-.086l-.038-.04.029.135c-.035-.136-.051-.205-.14-.315-.04-.05-.088-.101-.132-.149q-.15-.165-.304-.33a26 26 0 0 0-.569-.6c-.819-.832-1.704-1.577-2.63-2.292a14 14 0 0 0-1.685-1.107 26 26 0 0 0-1.799-.953c-.262-.123-.69-.085-.866.174-.177.255-.038.53.227.653M13.952 32.15c3.427 1.784 6.288 4.588 8.204 7.934a20.4 20.4 0 0 1 1.403 2.986c.038.098.206.167.291.196a1.1 1.1 0 0 0 .487.031c.193-.031.54-.139.443-.4a20.8 20.8 0 0 0-2.846-5.172 21.3 21.3 0 0 0-4.198-4.213 21 21 0 0 0-2.886-1.823 1.03 1.03 0 0 0-.895 0c-.23.12-.237.338-.003.46zm-1.097 3.355a25 25 0 0 1 1.483 1.192c.075.063-.089-.079.038.034.037.035.079.07.117.105q.82.727 1.57 1.526a24 24 0 0 1 2.726 3.462c.41.637.831 1.382 1.192 2.104.133.268.5.36.777.296.212-.047.582-.243.443-.523-1.344-2.697-3.212-5.118-5.44-7.14a28 28 0 0 0-2.011-1.659c-.234-.173-.661-.173-.895 0-.234.174-.234.43 0 .603"/></g></svg>