<svg xmlns="http://www.w3.org/2000/svg" width="1024" height="1024" fill="none" viewBox="0 0 56 56"><path fill="#ededed" d="M12.096 51.048 32.66 27.062 49.507 45.93q1.228-1.472 2.25-3.104L32.407 22.02 9.07 48.63c.95.873 1.962 1.681 3.027 2.418zM2.387 39.33l5.87-7.028 7.766 8.356 1.528-2.057-9.536-10.277s-3.535 4.05-6.81 7.83a28 28 0 0 0 1.182 3.177z"/><path fill="#c3dfc3" d="m9.066 48.628 7.053-8.068-7.863-8.258S5.33 35.708 2.334 39.21a28.1 28.1 0 0 0 6.732 9.418"/><path fill="#f9dae9" d="M49.864 45.494C44.732 51.9 36.845 56 28 56a27.87 27.87 0 0 1-15.763-4.856l.497-1.323c.192-.295 19.633-22.95 19.633-22.95z"/><path fill="#5b7691" d="m55.188 21.279-22.488.737 19.108 20.728A27.87 27.87 0 0 0 56 28c0-2.317-.281-4.568-.812-6.721m-37.44 17.515L8.211 28.42l19.516-1.186z"/><path fill="#1c344c" fill-rule="evenodd" d="m27.802 56 .023-3.578.002-.296.027-3.918 10.82-.127-.037 5.828q.492-.203.974-.422l.008-1.203.002-.313.027-3.901.968-.012-.032 4.962q.493-.249.974-.516l.002-.243.01-1.487q.076.007.133.006l2.624-.03q.547-.394 1.073-.811l-3.706.043a1 1 0 0 0-.118.007l.013-1.942.54-.007c.257-.003.826-.09.9-.415a.2.2 0 0 0 .009-.053v-.03l-.004-.3 5.367-.064a28 28 0 0 0 .73-.806l-6.106.072-.013-1.08a.2.2 0 0 0-.012-.06.3.3 0 0 0 .01-.087c-.004-.389-.653-.474-.92-.47l-18.25.214c-.175.002-.491.042-.7.169a.3.3 0 0 0-.105.08.33.33 0 0 0-.104.243.3.3 0 0 0 .055.174l.005.424-6.406.075q1.409-1.669 2.82-3.332l26.398-.31 2.24 2.463 1.19 1.307q.393-.458.767-.932a8363 8363 0 0 0-5.64-6.206l-3.165-3.478-2.736-3.007-.022-.024-2.714-2.982q-.42-.464-.837-.93v-.001a89 89 0 0 0-1.83-2.001l-.002-.004-.002-.002-.003-.003-.004-.005-.014-.015c-.167-.183-.503-.213-.737-.206-.238.008-.564.026-.732.223l-.216.252-.002.002a887 887 0 0 0-1.745 2.041l-2.341 2.739-.002.002-.002.002-2.34 2.738q-2.838 3.324-5.669 6.655l-1.235 1.456a1078 1078 0 0 0-3.11 3.673c-.137.061-.243.154-.248.294l-.34.406c-.256.302-.747.842-1.255 1.4a61 61 0 0 0-1.711 1.93l-.126.146q.498.374 1.013.725a1 1 0 0 1 .1-.128l.038-.045.403-.501.082-.098a1.5 1.5 0 0 0 .445.067l11.62-.136-.017 2.757-.077-.002-9.123.107a28 28 0 0 0 1.736.777l7.396-.086.063-.003-.012 1.978q.482.053.97.09l.022-3.474.029-4.214.973-.012-.05 7.757q.484.02.971.023zm-14.295-6.364 11.42-.134.008-1.26-1.056.013c-.263.003-.911-.082-.92-.472a.3.3 0 0 1 .05-.179l-.008-.755-7.095.083-.575.683c-.233.279-.714.806-1.207 1.345-.21.23-.421.46-.617.677zm29.36-10.378 2.217 2.436-24.994.294q1.056-1.244 2.114-2.487zm-20.077-.445 19.465-.229-.112-.123-2.775-3.05c-.165.05-.356.063-.457.064l-13.408.157q-1.358 1.59-2.713 3.18zm13.335-6.972q1.35 1.485 2.7 2.973l-12.75.15 2.047-2.399.45-.526 7.057-.082c.139-.002.337-.036.496-.116m-6.756-.736 1.254-1.47q.388-.45.782-.897.466-.528.925-1.064l1.191 1.307.227.248 1.644 1.806zM23.85 45.924l18.25-.214.063-.002.016 1.37h-.026l-.037-.001-18.254.214h-.005l-.016-1.367h.01z" clip-rule="evenodd"/><path fill="#1c344c" fill-rule="evenodd" d="M9.67 49.166a.3.3 0 0 0 .13-.153.6.6 0 0 1 .12-.168l.058-.067q.23-.288.475-.575c.458-.55.923-1.092 1.389-1.636l.001-.002.328-.382a640 640 0 0 1 2.51-2.915q1.535-1.776 3.069-3.545l.66-.761.026-.03.001-.001.014-.016c.863-.995 1.708-1.968 2.597-2.987l1.078-1.24h.001l.004-.005a1270 1270 0 0 0 2.283-2.629q.79-.903 1.577-1.81l.005-.005 1.572-1.803 2.65-3.039.615-.703q.65-.744 1.297-1.49.143-.165.291-.33l1.22 1.339.218.239q2.618 2.871 5.228 5.751l3.164 3.478 3.166 3.48 2.712 2.98.021.024.003.002 2.736 3.007.235.258q0 .043.027.094.03.057.088.097.365-.54.704-1.099l-2.711-2.98c.707.07 1.42.064 2.104-.15.713-.227 1.296-.72 1.717-1.334a4.84 4.84 0 0 0 .819-2.219q.373.376.807.684.19-.597.354-1.204a5.5 5.5 0 0 1-.96-1.598c-.021-.054-.095-.098-.173-.13a4.16 4.16 0 0 0 1.856-1.883q.188-1.41.231-2.863a3 3 0 0 1-.156.023 6 6 0 0 1-.375.006c.045 0-.06-.01-.132-.017l-.033-.004a3 3 0 0 1-.262-.049l-.053-.019-.063-.02-.001-.001-.075-.025q-.069-.025-.137-.056l-.069-.03-.066-.03a7 7 0 0 1-.355-.212c-.496-.33-.916-.8-1.24-1.325a2.8 2.8 0 0 0 1.156-1.589c.14-.5.187-1.013.182-1.53a6.4 6.4 0 0 0 1.548 1.17 28 28 0 0 0-.208-1.593 5.4 5.4 0 0 1-1.145-1.719l.807-.032q-.129-.572-.282-1.135l-.471.02c-3.19.132-6.38.265-9.575.385l-4.127.166h-.014q-2.065.086-4.127.167-.733.03-1.465.053c-.848.028-1.696.056-2.547.114q-.015-.001-.027.002l-.028.001a1 1 0 0 0-.189.03c-.22-.008-.563.016-.71.18l-.198.228q-.212.244-.426.485l-.848.971-.03.035-.817.936-2.216 2.544a1 1 0 0 0-.096 0l-7.556.37a9542 9542 0 0 0-9.678.471h-.006l-1.868.092a2 2 0 0 0-.164-.002c-.234.008-.57.026-.732.218-.36.427-.72.86-1.075 1.287l-2.591 3.11q-1.224 1.47-2.44 2.943.196.71.427 1.405 1.345-1.628 2.69-3.252l.415-.5q1.352-1.629 2.71-3.258.205-.242.415-.485l.227-.264 2.57 2.765 2.668 2.874 2.65 2.854q.564.605 1.13 1.216l-.797.916-.677-.714-1.35-1.422q-.644-.675-1.287-1.354a.5.5 0 0 0-.286-.3l-.57-.6-2.143-2.255q-.496-.52-.986-1.04c-.172-.178-.503-.208-.737-.2s-.569.026-.732.217c-.36.428-.72.86-1.075 1.288l-2.591 3.11q-.83.998-1.657 1.997.257.638.545 1.261l1.79-2.163.414-.499.07-.084 6.949-.081.417.439 2.13 2.241.002.001.32.336-11.937.14q.226.475.47.939l11.506-.135c.212-.003.469-.11.564-.306l.061.065.003.003.005.004.007.007-1.407 1.627-.98 1.134-.096-.002-8.184.096q.273.41.56.811l7.01-.082-.979 1.14q-.973 1.135-1.94 2.271-.132.156-.27.312H9.05q-.163.184-.323.373.462.437.942.854zm36.028-26.987q3.46-.144 6.923-.279l.024.2c.1.825.2 1.664.122 2.486-.043.436-.139.849-.378 1.233a1.64 1.64 0 0 1-.853.658q-.032.01-.065.023l-.106.028-.048.009-.206.032-.177.017-.1.002h-.007.063c-.122.002-.239-.006-.36-.014a4 4 0 0 1-.359-.038c.13.017-.054-.013-.13-.026l-.024-.004a8 8 0 0 1-.732-.204l-.05-.016a2 2 0 0 1-.23-.09 7 7 0 0 1-.337-.15 5.5 5.5 0 0 1-1.76-1.262c-.654-.722-1.107-1.636-1.21-2.605m-5.519.228h.008q1.705-.068 3.41-.14c.249 1.554.263 3.202-.421 4.645-.323.685-.802 1.313-1.415 1.758a4 4 0 0 1-1.457.665 4 4 0 0 1-.315.045l-1.324-1.456-.097-.106-2.736-3.007-1.329-1.461v-.001l-.621-.684.67-.027q.831-.031 1.662-.067 1.98-.084 3.962-.164zM10.801 35.858l-.75-.789-1.35-1.422-.019-.02-.552-.581-.235.274q-.21.242-.414.485-.881 1.056-1.76 2.113zm38.316 3.12a3 3 0 0 0-.433-.038l-1.05-1.159-2.286-2.512q.146-.039.285-.095c.484-.195.86-.54 1.18-.943a3.64 3.64 0 0 0 .72-1.592c.913.853 2.211 1.352 3.401 1.485.425.048.857.044 1.282-.011a4.6 4.6 0 0 1-.371 3.417c-.281.519-.664 1.024-1.181 1.337-.49.295-.86.23-1.392.137h-.001zm-8.71-9.138.897.984 3.166 3.48.132.146q.124.018.237.063c.1-.063.189-.145.277-.228q.34-.325.56-.736a3.2 3.2 0 0 0 .396-1.617q-.16.008-.322.005c-.837-.014-1.705-.199-2.42-.648-.69-.433-1.16-1.041-1.482-1.767a6.3 6.3 0 0 1-1.44.318zM26.14 28.21l-.94.047h-.002q-1.064.053-2.127.103l-4.553.223c.242.009.598.068.633.307q.014.087.023.174c.216.04.389.127.43.278.107.373.344.716.644.96.138.11.295.216.456.297a2 2 0 0 0 .584.195l.06.012.024.002.02.002.023.002.014.001.03.003c.09.008.117.01.25.005.151-.002.399-.04.603-.085.514-.118 1.008-.3 1.502-.485.19-.074.417-.11.636-.102l.958-1.1.016-.017zm-2.52 2.89c-1.01.293-2.056.442-3.113.226a3.75 3.75 0 0 1-1.484-.646 4.6 4.6 0 0 1-1.446 2.184 9 9 0 0 1-.617.486l.02.032c.34.707.909 1.289 1.6 1.597q.146.064.291.113l.022.007.076.023.026.007.026.007.03.008a2 2 0 0 1 .188.04l.007.001q.138.02.277.026c-.217-.012.262-.017.046 0a1 1 0 0 0 .124-.012c-.005 0 .175-.026.097-.01-.074.015.1-.021.096-.021l.038-.01.033-.008.049-.013a1 1 0 0 0 .151-.052l.37-.426a1180 1180 0 0 1 3.093-3.558zm-4.077 4.692c-1.423.017-2.888-.58-3.699-1.797a3.9 3.9 0 0 1-1.486.335l3.335 3.589zm24.28-7.55c.854-.927 1.287-2.175 1.41-3.421.749 1.018 1.825 1.814 3.018 2.29.446.179.914.332 1.392.435-.392 1.132-1 2.201-1.988 2.914-.13.094-.265.173-.4.253a3 3 0 0 1-.393.19 2 2 0 0 1-.251.083l-.015.004-.02.005a.4.4 0 0 0-.086.025l-.2.04-.102.016h-.006l-.006.001-.034.005-.027.004-.016.002-.017.001a1 1 0 0 1-.098.006l-.068.003h-.12q-.06-.003-.119-.002h-.01l-.023-.002-.042-.004-.027-.002a3 3 0 0 1-.185-.027l-.083-.014-.063-.011-.042-.01-.007-.002a4 4 0 0 1-.225-.066 2 2 0 0 1-.19-.07c.068.028-.113-.057-.147-.072-.71-.366-1.141-1.042-1.433-1.807a.35.35 0 0 0-.094-.133q.388-.274.718-.634zm7.822-.63q-.252.045-.507.061a7.2 7.2 0 0 1-1.01 1.999 5.7 5.7 0 0 1-1.977 1.701c.326.65.838 1.173 1.455 1.555.294.182.607.339.935.461.318.118.708.226.995.232l.102-.001h.03l.058-.008.097-.011a4 4 0 0 0 .402-.11c.32-.11.62-.275.895-.477 1.02-.744 1.543-1.972 1.584-3.206-1.294-.276-2.346-1.115-3.06-2.196zM9.433 29.025q3.042-.15 6.082-.296l2.672-.13c-.243.029-.586.105-.555.309.18 1.2-.18 2.42-1.012 3.31-.432.468-.997.878-1.553 1.191q-.18.105-.377.18a1 1 0 0 1-.17.06l-.1.026-.021.005-.02.005-.029.007h-.091l-.065-.009-.048-.015-.005-.001-.01-.004c-.038-.016-.098-.04-.137-.066a1.2 1.2 0 0 0-.45-.144l-1.171-1.263-2.579-2.777v-.001z" clip-rule="evenodd"/><path fill="#d8dbde" d="M13.94 28.848c-.002-.195 2.273-10.319 2.273-10.319l-2.199.026.167-2.333 1.94-.086.597-4.342 1.944.235.505 4.46 2.324-.61-.234 2.075-1.42.406 1.557 5.87 1.347 4.514-1.478.86-3.684.432-3.307-.672z"/><g fill="#1c344c"><path d="M15.378 18.71 13.35 28.732c-.074.36.183.645.539.699.292.05.856-.04.93-.415l2.027-10.023c.074-.361-.182-.645-.538-.7-.293-.045-.856.04-.93.415zm3.715.175a109 109 0 0 0 2.798 9.957c.217.65 1.708.442 1.461-.304a110 110 0 0 1-2.798-9.958c-.03-.14-.232-.27-.354-.317-.176-.07-.4-.087-.584-.046-.34.072-.61.304-.523.668"/><path d="M13.45 29.34c.503.617 1.319.846 2.079.949a23 23 0 0 0 2.796.225c1.693.029 3.539-.295 4.863-1.43.25-.212.291-.514-.008-.715-.275-.181-.81-.214-1.075.013-1.07.918-2.347 1.137-3.695 1.123-.779-.005-1.49-.08-2.27-.168-.14-.017-.287-.035-.428-.058q-.124-.021-.25-.05c-.033-.01-.067-.014-.102-.023q.102.027-.024-.01c-.269-.104-.391-.156-.574-.378-.232-.28-.728-.298-1.043-.167-.296.115-.501.41-.27.689zm-.031-12.987a4.66 4.66 0 0 0-.146 2.055c.052.32.496.398.763.39.185-.007.807-.092.755-.408a4.2 4.2 0 0 1 .095-1.845c.089-.313-.283-.46-.536-.485-.224-.022-.842-.015-.931.293"/><path d="M14.174 18.894a36.5 36.5 0 0 0 7.1-.332c.233-.032.674-.222.524-.527-.144-.31-.66-.328-.937-.285-2.21.318-4.438.412-6.697.297-.244-.012-.758.111-.754.432.004.341.53.403.764.415m.792-2.618-.02-.043.002.253c-.018.092-.883.185-.44.229.064.004.127.013.185.017.142.013.283.021.424.034q.474.032.955.057.867.033 1.742.009a27 27 0 0 0 3.524-.343c.262-.042.663-.266.523-.586-.14-.324-.646-.367-.938-.32-1.282.21-2.512.317-3.826.318-.603.002-1.265-.02-1.82-.066-.37-.03-.76-.118-1.13-.04-.33.067-.838.335-.643.751.15.32.632.377.938.32.248-.051.673-.265.524-.59"/><path d="M20.396 16.305c.118.505.115 1.05-.006 1.557-.083.356.193.65.539.71.307.05.841-.045.93-.416a4.7 4.7 0 0 0-.002-2.17c-.087-.364-.638-.464-.939-.393-.354.073-.609.343-.522.712m-3.611-.079q.196-2.06.53-4.099c.023-.131-.134-.28-.227-.343a1 1 0 0 0-.537-.134c-.33.013-.694.134-.753.495a58 58 0 0 0-.531 4.099c-.035.345.512.49.764.477.312-.008.724-.13.754-.495m1.045-4.192c.147 1.302.337 2.594.576 3.886.078.422 1.58.302 1.518-.018a58 58 0 0 1-.576-3.886c-.043-.404-1.556-.327-1.518.018"/><path d="M16.918 12.648c.485-.137.97-.206 1.419-.168.336.03.798-.024.93-.4.117-.332-.227-.65-.539-.68-.75-.069-1.494-.03-2.227.177-.3.086-.662.33-.522.692.13.335.624.465.939.379"/></g></svg>