<svg xmlns="http://www.w3.org/2000/svg" width="1024" height="1024" fill="none" viewBox="0 0 56 56"><path fill="#fff" d="m14.056 34.379 3.914-4.513 1.304-4.313-.501-6.217.9-5.315 2.81-3.612 3.71-2.108h3.713l3.91 1.105 2.707 3.612 1.406 6.115v5.719l1.003 4.513 1.704 3.12 1.801 1.393-6.314-.102.4 3.212 1.806 3.71 2.307 1.806 3.11 1.805-2.005 1.505-2.91.501-1.905-1.504-1.003-1.305-1.806-.2-1.304.702-1.203 1.003-1.504.2-.905-.702-2.104-1.504-1.708-.502-2.005.702-1.301 1.304-1.806 1.003-1.305-.102-1.606-1.202-1.504-.803-2.707.603 2.507-3.31 2.006-3.612.803-2.104.302-1.104z"/><g fill="#203f44"><path d="M28.45 7.765a11.035 11.035 0 0 0-5.775 2.025c-1.629 1.161-2.975 2.737-3.79 4.573a10.06 10.06 0 0 0-.787 2.933c-.14 1.237-.072 2.488.034 3.725.203 2.394.595 4.924-.208 7.25-.743 2.145-2.326 3.827-3.917 5.38-.2.196-.403.388-.603.584-.155.147-.098.35.056.472.196.154.502.2.743.15a50.416 50.416 0 0 1 4.86-.697l-.871-.52c-.698 2.921-2.262 5.53-3.966 7.97-.475.678-.962 1.346-1.452 2.017-.166.23-.064.433.181.546.275.128.664.132.928-.034.06-.037.12-.071.18-.105.027-.015.181-.09.099-.053a3.754 3.754 0 0 1 .422-.15c-.08.018.045-.008.06-.012.06-.011.117-.023.177-.03.053-.008.223-.02.08-.012.079-.003.158-.007.24-.007.061 0 .121.004.182.007-.162-.007.041.008.079.012.068.011.14.022.207.037.008 0 .106.023.03.008-.079-.019.091.026.087.026l.17.057.11.045c.003 0 .09.042.037.015s.034.02.038.02l.101.056c.057.03.114.064.166.101.242.155.374.264.566.419.226.185.449.37.679.55.46.355.965.626 1.538.75 1.365.298 2.62-.41 3.627-1.259.418-.354.837-.772 1.248-1.093a5.12 5.12 0 0 1 .674-.449 3.2 3.2 0 0 1 .185-.094c-.083.042.045-.019.072-.03.064-.026.128-.049.192-.068.026-.007.057-.019.083-.026.17-.053-.072.007.026-.008.068-.007.132-.022.2-.034.136-.019-.094-.003.045 0h.117c.015 0 .113.012.023 0a.323.323 0 0 0 .023.004c.045.008.094.019.143.026.075.008-.019-.007-.03-.01.037.01.071.022.109.033l.162.057.106.045c-.012-.004-.076-.038-.015-.004.068.034.135.072.203.11.23.135.411.27.585.414.215.181.422.37.63.558.98.901 2.118 1.69 3.52 1.535.63-.068 1.17-.393 1.626-.815.184-.17.358-.354.539-.528.215-.203.283-.271.516-.407.023-.011.045-.026.072-.037-.011.007-.09.033-.019.007.064-.023.128-.049.196-.068-.117.038.045 0 .087-.011.079-.019-.034 0-.046 0 .038 0 .08-.004.117-.004s.08.004.117.004c-.011 0-.12-.015-.041-.004.068.011.136.019.203.034.125.023-.056-.023.064.015.08.023.155.05.23.08l.114.045s.09.041.041.018c-.053-.022.042.02.042.02l.109.056c.128.068.249.143.37.226.214.143.388.294.61.486.453.4.886.815 1.373 1.169a4.44 4.44 0 0 0 1.636.735c1.127.253 2.416.03 3.378-.607.234-.154.456-.335.652-.539.226-.234-.007-.501-.252-.58-.298-.098-.732-.091-.97.15a2.1 2.1 0 0 1-.523.426c-.046.03-.095.057-.14.083-.03.02-.064.034-.098.053-.008.004-.087.045-.026.015.06-.03-.023.008-.027.011a4.453 4.453 0 0 1-.305.117c-.053.02-.106.034-.159.05-.03.007-.12.022.012-.004a.46.46 0 0 0-.08.018c-.124.027-.252.042-.376.057-.102.011.128-.004.022-.004-.026 0-.053.004-.083.004h-.162c-.022 0-.222-.011-.124-.004.094.008 0 0-.015-.004-.046-.007-.09-.01-.136-.018l-.189-.034c-.128-.027.083.026-.041-.012a3.327 3.327 0 0 1-.385-.14c-.06-.026.004 0 .012.008-.027-.015-.057-.026-.083-.041a4.694 4.694 0 0 1-.543-.34c-.177-.128-.4-.32-.6-.497-.215-.192-.426-.388-.644-.577-.966-.84-2.221-1.53-3.548-1.267-.615.125-1.112.438-1.561.868-.181.173-.354.358-.54.531-.037.038-.078.072-.12.11-.019.018-.132.105-.11.09-.03.022-.191.12-.274.17.086-.027-.076.045 0 0-.027.007-.057.022-.083.03-.008.004-.102.034-.034.015.075-.023-.045.007-.06.011a.576.576 0 0 0-.087.015c.011-.004.12 0 .041-.004-.037 0-.079-.003-.117 0-.101.008.11.02.012.004l-.208-.034c.11.02-.026-.007-.064-.019a2.235 2.235 0 0 1-.29-.113c.08.034-.042-.022-.057-.03-.516-.264-.89-.6-1.312-.988-.912-.837-1.9-1.62-3.2-1.613-1.297.007-2.353.769-3.28 1.602-.423.38-.815.758-1.267 1.056a4.79 4.79 0 0 1-.566.32l-.113.045a12.15 12.15 0 0 1-.2.068c-.12.038.06-.007-.064.015-.038.008-.08.012-.117.02-.011.003-.113.014-.022.003.086-.011-.012 0-.023 0-.05 0-.098-.004-.15 0-.08.004.026.004.037.004l-.09-.012c-.053-.007-.212-.049-.084-.01-.06-.02-.12-.039-.18-.061-.034-.012-.182-.08-.08-.03a4.176 4.176 0 0 1-.648-.411c-.008-.004-.08-.064-.023-.015-.022-.02-.045-.034-.064-.053l-.155-.125c-.101-.083-.203-.17-.305-.252a9.336 9.336 0 0 0-.694-.528c-1.074-.716-2.477-.856-3.698-.456a3.93 3.93 0 0 0-.845.4l1.109.512c1.79-2.45 3.612-4.942 4.773-7.77.324-.784.588-1.595.788-2.42.117-.483-.536-.555-.871-.52a48.03 48.03 0 0 0-4.867.693c.267.207.531.415.799.622 1.613-1.55 3.272-3.163 4.264-5.203 1.078-2.213.999-4.656.784-7.046-.203-2.266-.494-4.645.2-6.831.584-1.836 1.663-3.401 3.114-4.653.087-.075.177-.15.268-.222.026-.023.056-.045.083-.068 0 0 .071-.057.03-.023l.03-.022.087-.064a10.813 10.813 0 0 1 1.851-1.112c.064-.03-.015.007-.023.01.034-.014.064-.03.098-.044.05-.023.098-.042.147-.064a11.091 11.091 0 0 1 1.026-.373c.11-.035.222-.065.332-.095.01-.004.101-.026.019-.004a.62.62 0 0 0 .045-.011c.06-.015.12-.026.18-.042a10.638 10.638 0 0 1 1.052-.166c.027-.003.053-.003.08-.007l-.053.004c.034.019.173-.011.215-.015.245-.015.709-.095.709-.426 0-.31-.42-.439-.705-.423z"/><path d="M35.554 33.466c.041 1.92.222 3.898 1.123 5.629.81 1.553 2.176 2.718 3.62 3.665.829.542 1.7 1.021 2.575 1.496-.023-.064-.05-.124-.072-.188a9.155 9.155 0 0 1-1.757 1.59c-.245.17.098.302.253.332.275.053.72.083.969-.086a10.097 10.097 0 0 0 1.9-1.708c.06-.072-.008-.155-.072-.189-1.493-.81-3.02-1.64-4.283-2.797a8.427 8.427 0 0 1-1.587-1.919c-.475-.803-.773-1.693-.954-2.605-.211-1.06-.275-2.142-.298-3.22-.003-.234-.558-.245-.709-.245-.131.004-.712.012-.708.245zM28.666 8.647c.124.004.252.008.377.016l.188.012c.211.012-.143-.016.064.004a10.56 10.56 0 0 1 1.501.236c.203.043-.125-.036.075.02l.185.047c.143.039.283.082.422.13.89.294 1.723.73 2.458 1.391 1.437 1.29 2.289 3.162 2.73 5.053.543 2.336.482 4.773.505 7.156.023 2.28.12 4.593.796 6.783.346 1.124.844 2.213 1.583 3.114a4.9 4.9 0 0 0 1.218 1.073c.554.338 1.161.5 1.798.55.226.016.709-.098.709-.408 0-.334-.49-.39-.709-.409.185.016-.004-.004-.034-.008-.056-.008-.11-.02-.162-.031.158.031-.019-.008-.045-.016-.053-.016-.106-.036-.155-.051-.011-.004-.18-.075-.06-.02a2.48 2.48 0 0 1-.147-.075 3.297 3.297 0 0 1-.336-.2 3.342 3.342 0 0 1-.418-.346 5.441 5.441 0 0 1-.509-.562c-.607-.771-1.022-1.75-1.327-2.698-.686-2.147-.765-4.45-.784-6.696-.023-2.39.03-4.816-.506-7.156-.448-1.978-1.293-3.904-2.744-5.3-1.802-1.73-4.506-2.428-6.888-2.49-.23-.004-.494.154-.494.473 0 .326.49.4.708.408z"/><path d="M42.378 33.576c-2.064-.129-4.13-.257-6.195-.382-.19-.011-.653.05-.564.342.085.292.567.383.813.4 2.065.129 4.13.257 6.195.382.19.011.653-.05.564-.342-.089-.292-.567-.383-.813-.4zM25.484 20.672a1.094 1.094 0 1 0 0-2.188 1.094 1.094 0 0 0 0 2.188zm6.344-.11c.604 0 1.094-.465 1.094-1.039s-.49-1.039-1.094-1.039c-.604 0-1.094.465-1.094 1.04s.49 1.038 1.094 1.038z"/></g></svg>