<svg xmlns="http://www.w3.org/2000/svg" width="1024" height="1024" fill="none" viewBox="0 0 56 56"><clipPath id="a"><path d="M0 0h56v56H0z"/></clipPath><g clip-path="url(#a)"><path fill="#cbb294" d="M56 28c0 15.464-12.536 28-28 28a28 28 0 0 1-9.81-1.767 9 9 0 0 1-.815-1.034c-.538-.807-1.133-1.57-1.736-2.343-1.718-2.201-3.499-4.483-4.193-8.103-.007-.036-.044-.176-.102-.4-.414-1.598-1.935-7.462-1.691-9.858.08-.765.107-1.929.138-3.266.081-3.435.19-8.012 1.272-9.906 1.505-2.632 5.27-7.904 5.27-7.904s5.08-3.292 8.19-3.387 8.85.373 10.642 2.16c.552.552 1.31 1.176 2.11 1.833 1.788 1.47 3.777 3.107 4.103 4.473.472 1.976.566 8.282-.283 9.503-.575.827-2.4 4.76-3.606 7.362-.576 1.24-1.01 2.177-1.102 2.33-.283.471-1.6 4.235-1.505 5.079.094.844.755 3.763 1.127 4.14.378.378 2.638 1.694 2.92 1.694.284 0 5.176-1.882 6.214-3.198 1.033-1.315 7.246-9.781 7.906-11.101.288-.574 1.507-3.494 2.844-6.767Q56 26.756 56 28"/><path fill="#e8e3de" d="M16.715 39.555c.269-1.48.472-5.74.943-6.683.472-.943 3.199-4.33 3.387-4.612.19-.283 2.449-1.316 2.543-2.07.094-.755 0-1.222-.189-1.505-.188-.283-1.316-.377-1.882-.189-.566.189-3.01.755-3.387.66s-1.6-.66-1.694-1.315c-.094-.66.095-2.165.566-2.73.472-.567 1.788-1.694 2.071-1.977s2.449-.566 2.449-.566l2.354.566s1.127 1.505 1.316 1.788c.189.282 1.222 1.787 1.222 1.787l1.788.189s1.222-.566 1.41-1.033l.755-1.882c.189-.472.378-1.41.755-1.787s1.033-1.033 1.222-.755c.188.283 1.41.377 1.976.755s1.883 1.41 1.977 1.881.472 2.637.472 2.637.283 1.032 0 1.221-.755.566-1.222.472c-.472-.095-.944-.378-1.6-.283s-1.598.377-1.976.66-.849 1.693-.849 1.693 0 1.222.283 1.222 1.41.188 1.788.283 1.6.754 1.6.754l1.032 1.788s.85 1.504.944 1.881c.094.378.189 1.599.189 1.599s-.944 2.26-1.034 2.73c-.094.472-.566 2.731-.566 3.387 0 .655-.377 3.386 0 3.763s.755 1.033 1.128 1.316c.377.283 3.198 1.316 3.198 1.316l-4.425 1.221s-4.986.944-6.024.66c-1.033-.282-3.67-.282-4.142-.47-.472-.19-4.048-1.317-4.33-1.694-.284-.377-2.826-2.636-3.01-3.103-.194-.472-1.227-2.542-1.038-3.575"/><path fill="#a78666" d="M24.055 29.298c.283-.378 1.788-1.128 2.165-1.222s2.166 0 2.166 0 .849.283.755.66c-.095.378 0 1.033-.472 1.127s-.755.283-1.41.378c-.656.094-1.411.094-1.789 0s-.66-.094-.943-.283c-.283-.193-.472-.66-.472-.66"/><g fill="#513412"><path fill-rule="evenodd" d="M28.9 27.963q-.105-.03-.21-.055a.9.9 0 0 0-.313-.068 6.7 6.7 0 0 0-2.92.095c-.619.16-2.425.735-1.807 1.707.245.382.75.622 1.165.764.528.179 1.085.245 1.641.25.892.004 1.949-.118 2.666-.703.34-.278.641-.693.604-1.155a.77.77 0 0 0-.283-.552 1 1 0 0 0-.285-.145c-.053-.068-.175-.117-.258-.138m-3.128.462a4.15 4.15 0 0 1 2.105-.15c.1.062.208.103.334.136l.05.012c.097.023.158.038.22.143.136.255.051.58-.09.812-.326.518-.949.73-1.496.782a3.6 3.6 0 0 1-.93-.018 2.16 2.16 0 0 1-.947-.392c-.283-.212-.416-.51-.17-.811.214-.264.577-.392.89-.502z" clip-rule="evenodd"/><path fill-rule="evenodd" d="M19.503 54.688a24.4 24.4 0 0 1-3.571-4.069c-1.85-2.65-3.194-5.626-4.105-8.715-.92-3.137-1.4-6.39-1.533-9.65a47 47 0 0 1 .057-4.89c.113-1.816.311-3.636.698-5.414.434-2.019 1.123-3.995 2.156-5.787a15.3 15.3 0 0 1 3.51-4.136c2.693-2.24 6.147-3.575 9.657-3.608 3.712-.033 7.406 1.297 10.312 3.594 1.52 1.202 2.915 2.664 3.732 4.442.844 1.835.962 3.887.67 5.863-.458 3.085-1.86 5.843-3.258 8.592q-.328.642-.65 1.285c-.266-.875-.604-1.726-1.121-2.483-.736-1.08-1.821-1.886-3.123-2.131l-.206-.035c-.414-.067-.908-.145-1.044-.588-.18-.575.283-1.278.655-1.679a2.9 2.9 0 0 1 1.364-.835c.136-.037.202-.047.34-.056.07-.005.018 0 .004 0h.135l-.005-.001-.026-.004q.053.002.11.009l.05.005c.121.016.273.052.428.09.124.03.25.06.365.08.632.113 1.552.189 2.019-.363.382-.453.283-1.283.207-1.825a6.06 6.06 0 0 0-1.505-3.188c-.83-.92-2.023-1.689-3.269-1.854-.74-.099-1.476.08-1.948.684-.345.438-.533.988-.714 1.517l-.088.256c-.24.68-.49 1.378-.934 1.953-.326.424-.854.9-1.397.953h-.015a1.5 1.5 0 0 1-.424-.17 2.4 2.4 0 0 1-.565-.51c-.264-.316-.478-.67-.69-1.025l-.22-.361c-.312-.5-.661-.957-1.133-1.32-.51-.397-1.113-.651-1.736-.807a5.77 5.77 0 0 0-4.067.5c-1.113.59-2.08 1.599-2.585 2.754-.25.575-.415 1.231-.283 1.858a1.98 1.98 0 0 0 1.071 1.368c1.392.707 2.958.297 4.364-.137l.067-.02c.286-.09.605-.19.872-.23.014-.003.052-.006.09-.009l.065-.005h.105a.8.8 0 0 1 .212.052c.584.245.622.986.367 1.49-.263.514-.75.835-1.222 1.146a12 12 0 0 0-1.702 1.349 12.6 12.6 0 0 0-2.25 2.868c-1.218 2.117-1.864 4.584-1.756 7.031q.022.462.078.92a.3.3 0 0 0-.002.07c.16 1.939 1.014 3.76 2.297 5.207 1.378 1.557 3.185 2.646 5.156 3.283 4.463 1.443 9.19.627 13.62-.524 1.96-.507 3.925-1.118 5.675-2.144a.6.6 0 0 0 .231-.091c2.302-1.57 4.227-3.603 5.888-5.83 1.484-1.986 2.637-4.103 3.815-6.266q.271-.5.547-1.001a81 81 0 0 0 2.634-5.235 28 28 0 0 0-.187-2.34 81 81 0 0 1-3.004 6.311L52.198 32c-1.115 2.118-2.208 4.196-3.593 6.174-1.473 2.098-3.158 4.103-5.17 5.703a.7.7 0 0 0-.34.126c-1.314.964-2.82 1.599-4.364 2.085a.46.46 0 0 0-.24-.156c-1.835-.518-2.717-2.504-2.84-4.263-.146-2.09.448-4.197 1.212-6.122q.331-.83.709-1.642c.033-.027.05-.057.041-.088v-.002c.43-.922.892-1.83 1.354-2.739 1.137-2.233 2.274-4.466 2.911-6.909.514-1.966.74-4.05.288-6.055-.458-2.005-1.576-3.707-3.015-5.146-2.76-2.75-6.463-4.541-10.322-5.046-3.774-.495-7.642.274-10.92 2.212a16.6 16.6 0 0 0-4.194 3.514c-1.288 1.518-2.265 3.273-2.949 5.14C9.488 22.28 9.124 26.1 9.082 29.797c-.043 3.33.269 6.674 1.005 9.928.726 3.212 1.859 6.338 3.514 9.187a26.2 26.2 0 0 0 3.747 4.99q1.056.436 2.155.786m-2.071-14.383q.006.03-.01.055c.34 1.669 1.254 3.206 2.472 4.388 2.911 2.834 7.251 3.442 11.138 3.018 2.227-.245 4.43-.76 6.59-1.354l.014-.003a4.4 4.4 0 0 1-1.89-1.336c-1.312-1.58-1.454-3.707-1.157-5.664.304-1.967 1-3.844 1.832-5.644a34 34 0 0 0-.426-1.563 18.2 18.2 0 0 1-3.462 1.52c-4.714 1.496-9.84 1.243-14.584-.01-.753 2.1-.952 4.402-.517 6.593m.844-7.414c.905-2.068 2.343-3.922 4.204-5.211q.154-.106.315-.212c.454-.299.924-.608 1.218-1.066.32-.495.43-1.203 0-1.674-.42-.463-1.137-.566-1.732-.557-.706.01-1.373.215-2.043.421l-.056.018c-.349.108-.703.217-1.061.287a3 3 0 0 1-.425.057 2 2 0 0 1-.302-.014 1.73 1.73 0 0 1-1.269-.82c-.66-1.128.095-2.58.816-3.477.732-.905 1.798-1.693 2.972-1.848a3.1 3.1 0 0 1 1.5.179 3.54 3.54 0 0 1 1.444.98c.298.342.532.733.765 1.123.324.54.647 1.08 1.141 1.486 1.024.84 2.651.698 3.651-.109.852-.684 1.205-1.672 1.558-2.66.107-.298.214-.596.334-.886.113-.274.25-.538.434-.774a1.4 1.4 0 0 1 .311-.303l.03-.016c.04-.021.092-.049.116-.066a1 1 0 0 0 .119.022l.096.03a5 5 0 0 1 .507.191c.255.114.5.256.736.411.972.646 1.727 1.618 2.161 2.698.217.542.344 1.127.377 1.712.014.297.024.613-.037.905a.8.8 0 0 1-.213.42c-.015.013-.049.03-.08.047l-.008.004-.021.012-.02.011h-.025l-.058-.003c-.024-.005-.094-.02-.132-.024a7 7 0 0 1-.272-.06l-.172-.039a4.6 4.6 0 0 0-1.009-.118 4.2 4.2 0 0 0-1.892.425 3.4 3.4 0 0 0-1.297 1.08c-.326.457-.66 1.155-.368 1.698.264.495.943.627 1.444.721.58.104 1.08.255 1.57.59.997.672 1.648 1.73 2.086 2.833a1 1 0 0 0-.19.086c-4.033 2.396-8.93 2.872-13.505 2.24a31 31 0 0 1-3.718-.75" clip-rule="evenodd"/><path d="M18.687 27.883a1.033 1.033 0 1 1-2.066 0 1.033 1.033 0 0 1 2.066 0m17.794.188a1.033 1.033 0 1 0 0-2.066 1.033 1.033 0 0 0 0 2.066"/></g></g></svg>