<svg xmlns="http://www.w3.org/2000/svg" width="1024" height="1024" fill="none" viewBox="0 0 56 56"><path fill="#5cadd6" d="m9.456 41.969.065-23.924 1.987.193-.065 20.91 1.025 1.731s0-1.09 2.114-1.538c2.114-.449 7.11-.642 8.327-.32 1.216.32 3.522 1.475 3.522 1.475s.32-.77 1.281-.77 1.346.386 1.536.707c.193.32 1.537-.256 2.755-.897 1.216-.641 3.97-.834 4.931-.834s4.1.962 4.676 1.027 1.73.77 1.73.77l1.473-1.09-.193-23.476 2.242-.128-.255 26.361-16.655-.192s-.193.706-.833.834c-.641.127-1.667.32-2.05.065-.385-.256-1.215-.642-1.215-.642z"/><path fill="#fff" d="M11.57 38.89c0-.256.282-20.689.092-21.482-.215-.87 5.325-3.367 8.592-3.367s4.701.617 5.277.938c.575.32 2.502.886 2.502.886s3.318-1.696 4.022-1.824c.703-.127 3.684-.52 4.262-.52.576 0 2.86 0 4.783.52 1.715.938 2.52 1.824 3.119 1.824.32.256.659 22.962.659 22.962l-1.73 1.731-1.345-.641s-2.69-1.027-4.163-1.027-4.869.065-5.895.641-2.499 1.348-2.499 1.348-.32-1.283-1.026-1.155-1.473.514-1.6.641-1.09-.385-1.09-.385-3.46-.834-3.907-.834-3.715-.321-4.036-.193c-.32.127-2.82.576-3.074.769-.256.193-2.05 1.09-2.05 1.09l-1.025-1.539"/><g fill="#000"><path d="M30.281 21.095a11.05 11.05 0 0 1 4.43-1.828l.042-.007.013-.003.012-.002q.008 0 .016-.003c-.02.003-.068.01.017-.002l.144-.022q.156-.023.31-.038a11 11 0 0 1 .839-.063q.159-.004.317-.005.145.001.292.005h.007l.075.003.144.005h-.013l.028.002-.015-.002.022.002q.318.02.635.055.15.017.297.039l.073.01.04.006.033.005.009.002c-.013-.003-.027-.005.008 0l.104.02q.618.11 1.22.287c.839.248 1.722.634 2.5 1.102.176.104.424.108.619.063.094-.022.34-.13.161-.237a12.16 12.16 0 0 0-5.14-1.66 12.4 12.4 0 0 0-5.404.722 12 12 0 0 0-2.612 1.367c-.162.114.057.215.161.237.18.038.453.053.616-.06m1.089 3.488q-.553.3-1.064.658c-.171.119-.468.092-.636.003-.063-.034-.133-.104-.133-.181 0-.084.07-.137.133-.18a12 12 0 0 1 2.634-1.373 12.2 12.2 0 0 1 5.29-.704c1.789.157 3.551.726 5.093 1.65.163.098.166.265 0 .361a.69.69 0 0 1-.639 0 12 12 0 0 0-1.03-.55l-.077-.036-.048-.021-.049-.022c-.002-.003-.067-.03-.026-.012a11 11 0 0 0-1.645-.57l-.144-.035-.031-.008-.012-.002c.024.005-.028-.008-.036-.01a14 14 0 0 0-.627-.125 10 10 0 0 0-.609-.09 8 8 0 0 0-.337-.035l-.04-.004-.044-.004-.06-.005-.035-.002-.04-.002a11 11 0 0 0-1.25-.003q-.046.004-.093.006l-.094.006-.02.001h-.006l-.022.002-.02.002a11 11 0 0 0-.91.116 10 10 0 0 0-.65.129l-.034.008c.044-.012-.017.003-.026.005l-.04.01-.031.008-.071.018-.301.082a12 12 0 0 0-1.238.435l-.077.033-.05.022a6 6 0 0 0-.315.145 11 11 0 0 0-.54.274"/><path d="M38.986 23.56h-.007l-.013-.004z"/><path fill-rule="evenodd" d="M30.375 29.511c.66-.46 1.39-.85 2.14-1.157.692-.28 1.525-.514 2.243-.634a13 13 0 0 1 .618-.087h.002l.29-.029.072-.006.062-.005h.015l.042-.003.042-.003a11 11 0 0 1 1.32.009h.014l.021.002h.002l.059.005.042.003.033.003q.16.015.317.034.318.036.631.094a10 10 0 0 1 .436.086c-.05-.011-.015-.003.005.002l.012.003.033.008.019.004.025.007.027.005q.302.073.594.16a10.8 10.8 0 0 1 2.55 1.12c.176.107.462.097.638 0 .171-.09.16-.238 0-.334a12 12 0 0 0-5.092-1.645 12.1 12.1 0 0 0-5.329.719q-1.42.535-2.665 1.403c-.174.12.04.29.161.323a.74.74 0 0 0 .621-.087m6.853-1.915h.01l.002.001.016.001-.014-.001-.02-.001zm-1.422-.003h-.004z" clip-rule="evenodd"/><path d="M30.924 33.417q-.266.166-.522.345a.61.61 0 0 1-.646.005.272.272 0 0 1 0-.458 12 12 0 0 1 2.635-1.384c1.656-.62 3.45-.88 5.213-.721a12.14 12.14 0 0 1 5.17 1.673c.187.11.148.34 0 .458-.181.145-.454.11-.639 0a11 11 0 0 0-1.883-.887q-.169-.061-.342-.118l-.161-.051-.02-.006h-.003l-.01-.004-.06-.017a11.6 11.6 0 0 0-1.975-.39l-.068-.007c.06.005.008 0-.034-.004l-.036-.004a11.4 11.4 0 0 0-1.878-.002l-.082.007.012-.002-.14.014q-.31.034-.618.087a12 12 0 0 0-1.726.436q-.297.104-.585.222-.57.232-1.113.526c0-.003-.091.048-.065.034l-.009.005-.037.021-.127.072a8 8 0 0 0-.25.15z"/><path fill-rule="evenodd" d="M13.928 21.017a11 11 0 0 1 2.653-1.35 13 13 0 0 1 .597-.188q.3-.086.607-.154l.03-.007.006-.002.024-.006.048-.01c-.025.007-.009.003.008 0l.021-.004.041-.009.04-.008a12 12 0 0 1 .928-.142l.291-.03.073-.005.061-.005h.006l.01-.001.042-.003.042-.002a12 12 0 0 1 1.31.008l-.017-.001-.008-.001h-.005.005l.01.001h.015l.012.002h.019l.075.007.074.006.318.033q.318.037.631.094.148.026.291.056l.062.012.018.005.185.043q.301.072.595.16c.896.262 1.729.631 2.55 1.12.173.104.462.092.638 0 .173-.089.154-.226 0-.318a12 12 0 0 0-5.093-1.642 12.16 12.16 0 0 0-5.328.716 12.3 12.3 0 0 0-2.666 1.399c-.17.118.044.277.162.308.207.053.443.041.619-.082m5.433-1.92.006-.001h-.005zm0 0-.031.001h-.002.002l.026-.001z" clip-rule="evenodd"/><path d="M15.016 24.523c-.369.198-.722.42-1.064.658a.6.6 0 0 1-.64 0c-.172-.11-.165-.333 0-.446a12 12 0 0 1 2.633-1.381 11.9 11.9 0 0 1 5.213-.719 12.2 12.2 0 0 1 5.17 1.67c.18.11.156.336 0 .447-.186.133-.448.113-.638 0q-.165-.096-.332-.19l-.075-.041-.022-.013-.152-.08a11 11 0 0 0-1.305-.566 14 14 0 0 0-.376-.129l-.046-.014-.08-.025-.102-.032a11.6 11.6 0 0 0-1.847-.374l-.04-.004-.055-.006-.165-.018a11.4 11.4 0 0 0-1.878-.002l-.04.003h-.001l-.04.003.01-.001-.138.013c-.207.022-.415.054-.62.087a12 12 0 0 0-1.279.297l-.03.01-.07.021-.035.01q-.017.007-.035.012l-.277.091a12 12 0 0 0-1.505.647l-.065.033-.013.007-.014.008-.013.007zm8.189-.858-.008-.003zm-9.253 5.839a11 11 0 0 1 1.064-.658l.04-.023.011-.005.09-.05.007-.003.007-.004.013-.006.015-.008.02-.01.092-.046a12 12 0 0 1 .761-.344 12 12 0 0 1 1.207-.416l-.034.01.08-.021.07-.018.037-.01.035-.008a10 10 0 0 1 .917-.193q.308-.052.62-.087l.144-.014.05-.006a8 8 0 0 1 .35-.023 11 11 0 0 1 1.615.031l.19.022q.307.036.61.089.314.056.625.125.145.033.29.07l.188.05c.014.005.025.008.005.001l.015.004.054.015a11.6 11.6 0 0 1 1.97.786c-.01-.005-.04-.02.002.003l.094.05.149.082.332.19c.188.112.453.128.638 0 .16-.108.179-.32 0-.426a12.14 12.14 0 0 0-5.17-1.668 12 12 0 0 0-7.846 2.095c-.16.11-.174.318 0 .426.185.111.462.123.643-.002"/><path fill-rule="evenodd" d="M15.112 32.985q-.552.3-1.064.659c-.18.125-.458.113-.64 0-.174-.109-.16-.319 0-.43a11.97 11.97 0 0 1 7.847-2.098c1.825.162 3.594.727 5.17 1.67.177.105.158.32 0 .428-.186.128-.451.111-.639 0a10 10 0 0 0-1.23-.631 12 12 0 0 0-1.391-.497l-.02-.006-.169-.045a14 14 0 0 0-.915-.195 10 10 0 0 0-.61-.089l-.094-.01-.095-.012a4 4 0 0 0-.366-.029 11 11 0 0 0-1.582.02h-.007l-.01.001-.028.003-.023.003-.144.014q-.311.034-.619.087a10 10 0 0 0-.917.193l-.02.005-.01.003-.041.01-.071.018-.056.016c-.041.011-.082.023-.038.01q-.59.173-1.16.403a13 13 0 0 0-.762.345l-.094.046-.019.01-.055.028-.077.043zm4.16-1.263" clip-rule="evenodd"/><path d="M35.356 36.96h-.013zm1.731.002"/><path fill-rule="evenodd" d="M44.374 15.72c.08-.009.159-.01.2-.012h.009c.05-.001.179 0 .288.024q.629-.11 1.268-.142c.091-.005.295.02.395.106.19-.005.388.051.388.17v26.04c0 .041-.024.075-.064.1a.2.2 0 0 1 .01.061c0 .196-.307.249-.452.249H30.198c-.625.595-1.479.896-2.341.887a3.6 3.6 0 0 1-1.426-.299 3 3 0 0 1-.578-.335l-.01-.008c-.091-.067-.206-.152-.256-.255H9.777a1 1 0 0 1-.105-.005c-.208.116-.594.047-.594-.205V18.334c0-.06.022-.11.057-.149l-.004-.027c.01-.145.361-.145.453-.145h1.468v-.453c0-.07.04-.121.096-.158a.07.07 0 0 1 .018-.06 9.2 9.2 0 0 1 2.555-1.9c1.866-.943 3.96-1.318 6.031-1.435a16.7 16.7 0 0 1 3.565.168q.425.07.848.163l.045.01c.3.066.603.132.886.253l.012.004.006.003.005.002.003.001c.013.006.015.007.048.015l.037.011.005.001.087.02c.057.013.115.025.17.044.093.031.185.071.276.11l.13.056.086.035c.1.04.202.08.297.132a2 2 0 0 1 .138.082q.043.028.086.053l.014.007.017.01a.7.7 0 0 1 .238.098l.076.05q.076.052.155.1l.117.07c.142.083.284.167.415.266l.158.122c.11-.066.297-.08.385-.081q.039-.001.097.004a9.3 9.3 0 0 1 2.15-1.337c1.908-.854 4.016-1.13 6.092-1.149a16.7 16.7 0 0 1 3.553.335q.422.089.839.202l.045.012c.296.08.596.161.873.295l.025.011a.3.3 0 0 0 .047.018l.038.012.004.001.086.024q.086.02.168.052c.092.036.181.08.27.123l.128.062.027.013q.03.012.057.026c.099.044.198.09.29.146q.056.032.11.072l.024.016.096.064h.001v.001l.017.01a.7.7 0 0 1 .233.11l.074.053q.074.056.15.107l.114.075c.138.09.276.18.402.286q.156.13.307.265zm-13.633-.815a8.8 8.8 0 0 0-2.219 1.543l-.003.003-.004 4.776q-.004 4.605-.003 9.21 0 4.11.005 8.221.278-.2.577-.366a14 14 0 0 1 1.83-.844c2.3-.88 4.833-1.164 7.272-.832a14.7 14.7 0 0 1 5.919 2.17V16.365a8 8 0 0 0-.725-.69 5 5 0 0 0-.497-.367q-.143-.097-.284-.199a1.2 1.2 0 0 1-.29-.147 2.5 2.5 0 0 0-.351-.2q-.065-.03-.13-.063a4 4 0 0 0-.259-.12c.023.01-.035-.01-.063-.02l-.009-.003a2 2 0 0 1-.425-.153 1 1 0 0 0-.105-.049c-.045-.016-.102-.032-.156-.048l-.022-.006-.05-.014a14 14 0 0 0-.396-.11 16 16 0 0 0-.928-.208l-.018-.004-.207-.038-.079-.013-.033-.005-.015-.003-.005-.001a21.2 21.2 0 0 0-4.406-.061 14 14 0 0 0-1.391.212l-.103.023-.044.01-.018.004-.014.003-.027.005a7 7 0 0 0-.424.106 13 13 0 0 0-.653.194 10 10 0 0 0-1.247.506zm-18.708 2.588a8.8 8.8 0 0 1 2.144-1.646 10 10 0 0 1 1.223-.564 12 12 0 0 1 1.062-.35l.05-.014a14 14 0 0 1 1.532-.32 22 22 0 0 1 1.586-.18 16 16 0 0 1 1.596-.045 16 16 0 0 1 1.242.083q.059.008.113.013.105.012.209.029l.018.002a16 16 0 0 1 1.409.273c.056.013.113.026.16.04a1 1 0 0 1 .106.044q.044.021.084.036c.107.042.211.07.324.092l.032.007h.002c.027.009.086.026.063.017q.135.049.265.11l.132.056c.127.052.242.111.36.182.1.062.195.105.297.135q.144.095.293.185c.175.108.35.215.513.343.257.203.509.41.74.64l-.004 8.574q0 4.606.003 9.213 0 2.183.003 4.366c-1.916-.803-3.873-1.523-5.921-1.892-2.454-.44-5.02-.294-7.392.49-.822.273-1.624.626-2.32 1.133V17.551a.3.3 0 0 0 .076-.058M43.976 39.45a13.5 13.5 0 0 0-3.212-1.698 14 14 0 0 0-1.609-.48q-.101-.025-.202-.046c-.135-.029.077.015-.055-.012l-.041-.008-.014-.003a12 12 0 0 0-1.639-.232l-.03-.003-.126-.01.009.002-.016-.001-.013-.001q-.1-.008-.201-.011a13 13 0 0 0-1.286.002q-.101.004-.201.011l-.013.001h.017l-.046.003-.068.004-.036.003h-.002a15 15 0 0 0-1.727.248h.002l-.033.007-.063.015h-.001l-.061.014-.188.044a14 14 0 0 0-1.965.632c-.522.212-1.035.455-1.521.74-.326.19-.65.425-.904.724-.002.052-.04.104-.111.14a2 2 0 0 0-.078.115c.239.072.462.191.642.366.101.097.172.222.243.348l.06.104a8.7 8.7 0 0 1 2.324-1.166c2.006-.668 4.144-.709 6.23-.494 1.717.176 3.492.483 5.012 1.335q.474-.33.924-.693m-31.35.86a8 8 0 0 1-.56-.985c.67-.708 1.55-1.154 2.456-1.486 1.01-.372 2.126-.6 3.234-.702l.226-.02.106-.006a14 14 0 0 1 1.363-.014h.007q.099.002.198.009l.078.005.052.004.448.039a15 15 0 0 1 1.654.26q.415.09.826.196c.563.147 1.12.318 1.67.504 1.067.361 2.15.808 3.207 1.263v.203a2.07 2.07 0 0 0-1.238.617c-1.682-.835-3.584-1.178-5.44-1.353-1.972-.186-3.995-.132-5.91.415a9.2 9.2 0 0 0-2.377 1.051m32.234-.671q-.663.547-1.377 1.028c-.153.101-.384.101-.56.037a.6.6 0 0 1-.176-.076 7 7 0 0 0-1.286-.668 8 8 0 0 0-.653-.229 12 12 0 0 0-1.36-.325l-.052-.01.016.003-.022-.004-.02-.004-.04-.007-.032-.005-.051-.008-.083-.013q-.156-.026-.31-.049-.703-.102-1.41-.164l-.373-.03h-.026a3 3 0 0 0-.164-.013c-.094-.007-.043-.002-.021-.002l-.027-.002h-.02l-.047-.003a16 16 0 0 0-1.625-.005h-.019l-.016.001h-.013l-.002.001h-.009l-.014.002h-.02l-.093.008c-.125.007-.25.02-.375.031a12 12 0 0 0-.771.103l-.05.008-.02.004-.076.014-.025.005-.013.003-.011.002-.032.006-.15.033-.15.032a9 9 0 0 0-1.188.352 8 8 0 0 0-2.23 1.268c-.119.097-.317.11-.482.092a.7.7 0 0 1-.398-.092c-.188-.118-.292-.296-.399-.476a4 4 0 0 0-.12-.194.9.9 0 0 0-.266-.268.6.6 0 0 0-.133-.068l-.01-.004-.06-.022-.029-.007-.034-.008c.037.01.02.007-.004.002l-.041-.008-.008-.001h-.01l-.008.002-.007.001-.008.001h-.003l-.007.002-.008.002c-.087.022-.19.058-.301.128a1.7 1.7 0 0 0-.525.524c.026.05-.032.097-.099.129a.5.5 0 0 1-.148.057l-.013.003a1.1 1.1 0 0 1-.347.017c-.073-.006-.314-.048-.33-.153-.917-.523-1.918-.863-2.923-1.088a15 15 0 0 0-.717-.145 10 10 0 0 0-.51-.084l-.086-.012-.013-.002-.037-.006q-.01 0-.02-.003l-.016-.001q-.69-.096-1.387-.152l-.061-.004-.293-.02-.088-.005h-.001l-.089-.005c-.014 0-.096-.005-.038-.003l-.039-.002q-.344-.014-.69-.017-.337 0-.673.01l-.099.003-.09.004c-.02 0-.05.003-.07.004h-.015a15 15 0 0 0-1.016.097l-.087.012-.087.012-.018.002-.015.002-.022.004-.048.007q-.153.026-.306.055a10 10 0 0 0-1.238.316 8.3 8.3 0 0 0-2.322 1.18c.017.128-.266.206-.34.219-.186.03-.436.002-.557-.155a8 8 0 0 1-.821-1.323c-.1-.038-.18-.101-.18-.2v-21.02H9.798l.001.03v23.593h16.118c.068 0 .256.01.367.072.136.039.224.106.18.191-.04.077.163.206.244.257l.023.016q.193.134.412.224c.171.07.25.091.433.132l.038.008-.03-.005.057.01.138.014.019.002h.149l.157-.017.045-.005.02-.004a2 2 0 0 0 .192-.044l.033-.01c-.032.009.005-.003.037-.014l.037-.012a2.5 2.5 0 0 0 .985-.646.4.4 0 0 1 .103-.075c.047-.156.314-.2.446-.2H46.2V16.03l-.06.005-.08.004h-.003l-.04.002-.06.005a8 8 0 0 0-.395.042 8 8 0 0 0-.325.048l-.137.024-.049.008v23.348c0 .069-.088.105-.19.124z" clip-rule="evenodd"/></g></svg>