<svg xmlns="http://www.w3.org/2000/svg" width="1024" height="1024" fill="none" viewBox="0 0 56 56"><path fill="#dc674f" d="m12.747 36.114.14-25.043 2.83-1.415 7.207 2.97 21.2 8.915.567 2.97.14 20.377-2.967 2.688-10.742-3.396-14.276-5.518z"/><g fill="#631505"><path d="M12.364 36.63a168 168 0 0 0 11.017 4.976 163 163 0 0 0 11.305 4.14 161 161 0 0 0 6.471 1.958c.181.05.428.058.569-.09.128-.139.003-.306-.149-.349a163 163 0 0 1-17.025-5.797 166 166 0 0 1-5.533-2.346 160 160 0 0 1-5.388-2.521l-.68-.335c-.178-.088-.411-.112-.587 0-.138.093-.167.282 0 .364"/><path d="M12.298 10.98v25.47c0 .269.831.272.831 0V10.981c-.002-.269-.831-.272-.831 0zM41.13 22.123V47.54c0 .343.83.343.83 0V22.123c0-.34-.83-.343-.83 0"/><path d="M12.563 11.31a96 96 0 0 0 5.568 2.25 200 200 0 0 0 5.65 1.987c1.9.643 3.805 1.274 5.704 1.925 1.886.646 3.767 1.314 5.63 2.03a85 85 0 0 1 5.508 2.324q.339.159.673.319a.9.9 0 0 0 .568.053c.072-.016.322-.12.149-.202a82 82 0 0 0-5.52-2.396 147 147 0 0 0-5.666-2.077c-1.897-.657-3.8-1.29-5.701-1.931a229 229 0 0 1-5.709-1.984 100 100 0 0 1-5.584-2.21l-.682-.298a.86.86 0 0 0-.588 0c-.154.059-.14.146 0 .21"/><path d="m41.638 22.413.053-.053a.15.15 0 0 0 .05-.096.12.12 0 0 0-.007-.103.2.2 0 0 0-.074-.088.3.3 0 0 0-.117-.067l-.099-.026a.6.6 0 0 0-.22 0l-.098.026a.4.4 0 0 0-.15.093l-.052.054a.15.15 0 0 0-.05.095.12.12 0 0 0 .007.104q.023.055.075.088a.3.3 0 0 0 .116.066l.099.027a.6.6 0 0 0 .22 0l.098-.027a.36.36 0 0 0 .15-.093zM12.364 12.066c1.156 2.545 2.665 4.9 4.272 7.18 1.58 2.236 3.227 4.422 4.694 6.736a70 70 0 0 1 2.534 4.337c.096.179.319.237.51.2.138-.027.388-.173.29-.354a73 73 0 0 0-4.657-7.51c-1.552-2.194-3.18-4.332-4.607-6.611a35 35 0 0 1-2.234-4.13c-.082-.184-.329-.237-.51-.2-.148.027-.377.165-.292.352m31.787 10.642v22.233c0 .313.83.316.83 0V22.708c.002-.313-.83-.316-.83 0"/><path d="M27.432 31.846c1.623-1.455 3.5-2.593 5.326-3.771q2.945-1.902 5.887-3.806l3.299-2.132c.146-.094.154-.25 0-.343-.16-.096-.428-.104-.587 0l-5.932 3.832c-1.92 1.242-3.86 2.46-5.76 3.733-1.025.69-2.029 1.415-2.95 2.242-.147.13.018.287.148.333.18.06.423.045.569-.088m14.464 15.523-.08-.104-.358.375c.874.03 1.59-.545 2.242-1.058.316-.25.605-.522.834-.854.231-.338.38-.72.515-1.106.125-.357-.696-.437-.8-.133-.122.348-.252.694-.448 1.007-.184.293-.444.532-.71.748-.257.21-.528.412-.807.593-.141.09-.284.175-.433.231a.8.8 0 0 1-.39.07c-.2-.009-.54.14-.36.374l.08.104c.189.253.978.096.715-.247"/><path d="M41.84 22.52a2.35 2.35 0 0 1 1.028-.831 3 3 0 0 1 .229-.079l.056-.013.119-.024.101-.016c.072-.01.013-.008.08-.005-.006 0 .138.01.08.002.063.008.023.006.071.019.072.024-.018-.024.04.021 0 0 .08.061.042.03.05.045.096.1.136.156.14.21.218.527.273.79.017.075.13.138.192.162a.6.6 0 0 0 .319.027c.175-.032.332-.141.29-.332-.075-.346-.176-.695-.402-.976-.321-.402-.837-.48-1.32-.418a3.02 3.02 0 0 0-2.054 1.215c-.257.365.524.548.72.272m-18.016 6.502a43 43 0 0 0-.003 3.452c.008.194.25.284.415.279.151-.005.422-.077.414-.28q-.066-1.723.003-3.451c.016-.373-.813-.38-.829 0m-11.423-17.97.006.014.042-.141-.013.01c.189-.02.38-.045.568-.066l-.015-.005q.104.08.204.16c-.005-.054.144-.168.18-.2a1.5 1.5 0 0 1 .24-.17c.17-.099.356-.168.531-.219.492-.143.996-.22 1.474-.407.154-.06.141-.196 0-.26a.8.8 0 0 0-.587 0c-.504.194-1.046.25-1.551.425-.226.08-.444.179-.646.309a2 2 0 0 0-.27.215c-.075.075-.216.187-.205.304.01.095.127.138.204.159.186.048.439.053.598-.072.053-.042.064-.082.043-.14l-.006-.014c-.02-.058-.143-.098-.19-.109a.9.9 0 0 0-.32-.019c-.111.014-.345.067-.287.226"/><path d="M15.493 10.19c1.828.764 3.653 1.527 5.494 2.259q2.78 1.106 5.608 2.076a93 93 0 0 1 5.565 2.115c1.841.766 3.666 1.566 5.496 2.359l5.568 2.409.702.303c.178.077.44.053.568-.109.125-.16.016-.348-.149-.42l-5.568-2.41c-1.843-.797-3.684-1.603-5.533-2.385a90 90 0 0 0-5.539-2.154c-1.88-.652-3.75-1.314-5.605-2.04a274 274 0 0 1-6.19-2.534c-.18-.075-.44-.053-.568.109-.122.162-.016.354.152.423zm10.873 20.106-.02 3.29c-.004.297.828.3.828 0l.021-3.29c.003-.298-.829-.3-.829 0"/><path d="m24.026 29.13 2.34 1.206a.66.66 0 0 0 .587 0c.147-.083.157-.242 0-.322l-2.34-1.205a.66.66 0 0 0-.587 0c-.146.082-.16.242 0 .322zm-.218 3.02c.048.67.367 1.36.975 1.693.646.354 1.61.388 2.205-.096.138-.114-.04-.202-.149-.228-.157-.037-.43-.05-.568.058a.9.9 0 0 1-.295.168.4.4 0 0 1-.074.016l-.075.008c.09-.006-.034-.003-.042-.003.042.003.031.003-.006-.003-.12-.016.035.011-.034-.005-.072-.016-.085-.018-.138-.04a1.2 1.2 0 0 1-.306-.173c-.425-.33-.627-.877-.664-1.398-.016-.242-.845-.224-.829.002zm.316-.99 2.02.838c.17.071.416.06.586 0 .152-.056.144-.144 0-.205l-2.019-.838a.9.9 0 0 0-.587 0c-.151.056-.143.146 0 .205m3.886-1.75-.013-.005c-.164-.05-.491-.05-.61.111-.017.024-.03.054-.022.083.037.125.189.165.306.178.263.03.443-.037.653-.183a15 15 0 0 0 1.195-.933c.139-.12-.031-.224-.148-.254-.16-.042-.43-.05-.569.067a15 15 0 0 1-.97.774c-.1.074-.204.17-.315.226l.403-.048-.029-.003q.15.09.306.179l-.008.016-.611.111.013.006c.165.05.428.047.568-.067.15-.125-.04-.223-.148-.258zm2.981-1.673q.738-.437 1.376-1.013c.13-.117-.032-.202-.148-.231-.15-.038-.439-.056-.569.06a8.7 8.7 0 0 1-1.376 1.014c-.162.096.061.21.149.231.18.043.404.035.568-.06zm3.239-2.027q.676-.321 1.299-.741c.153-.104.15-.29 0-.396a.56.56 0 0 0-.588 0 9 9 0 0 1-1.131.654c-.149.072-.282.226-.149.383.122.146.401.18.569.1m2.956-1.871a10 10 0 0 0 1.493-.835c.146-.099-.058-.17-.149-.19-.156-.031-.425-.047-.568.051a9.6 9.6 0 0 1-1.493.835c-.173.077.085.176.149.19a.96.96 0 0 0 .568-.051m2.264-1.469c.459-.15.9-.361 1.304-.627.148-.098-.061-.17-.149-.186-.16-.032-.422-.048-.569.048a5 5 0 0 1-1.174.571c-.034.011-.122.046-.122.096 0 .053.088.085.122.096a.96.96 0 0 0 .587.003zm-25.864-9.746 1.2 1.87c.096.146.36.151.51.133.086-.011.386-.086.29-.234l-1.2-1.87c-.096-.146-.359-.152-.51-.133-.085.01-.385.085-.29.234m2.434 3.76c.353.389.65.825.897 1.288.13.244.943.16.8-.11a6.8 6.8 0 0 0-.98-1.388c-.176-.189-.975-.072-.717.21m2.021 2.942a9 9 0 0 0 1.307 1.819c.136.146.393.16.569.093.146-.056.284-.213.148-.36a8.5 8.5 0 0 1-1.224-1.69c-.096-.174-.33-.216-.51-.184-.128.021-.386.146-.29.322m2.391 3.39.895 1.383c.109.168.321.216.51.181.114-.019.399-.152.29-.319l-.896-1.383c-.109-.167-.321-.215-.51-.18-.114.02-.398.15-.29.318zm1.841 2.99a8 8 0 0 0 1.1 1.718c.13.156.387.18.568.106.16-.067.279-.247.149-.404a7.3 7.3 0 0 1-1.018-1.577c-.087-.184-.321-.245-.51-.208-.148.032-.377.178-.29.364z"/></g><path fill="#dc674f" d="M22.852 12.06c.072-.353 1.06-1.91 1.272-1.981s2.97-.848 3.464-.636 3.32.78 3.818.99c.494.213 3.251 2.76 3.251 2.76l.354 1.556-.426 1.84.282 1.274-2.191-.707s-.072-.99 0-1.202c.071-.213 1.553-1.202 1.553-1.202l-.778-.99-3.461-1.984-2.473-.989-2.12.354-1.838.779z"/><path fill="#631505" d="M23.508 13.036c-.444-.79-.098-1.819.55-2.39.364-.322.81-.524 1.267-.644.255-.067.444-.101.715-.133a8 8 0 0 1 .369-.037l.088-.006c-.064.006.016 0 .024 0l.236-.01a9.5 9.5 0 0 1 3.249.43 7.6 7.6 0 0 1 2.63 1.466 6.7 6.7 0 0 1 1.888 2.63c.024.061.141.101.192.114.1.03.217.032.318.019.115-.016.354-.074.29-.237-.808-2.058-2.63-3.534-4.678-4.25-1.166-.406-2.417-.58-3.653-.563-1.158.013-2.406.151-3.39.822-.892.611-1.468 1.875-.897 2.89.13.232.94.144.802-.1z"/><path fill="#631505" d="M21.433 13.353c-.008.002.123-.035.077-.027.104-.021-.034-.005.075-.003q.08.001.22.027c.186.03.367.064.556.075.363.02.767-.054 1.03-.325.136-.138-.01-.284-.149-.332-.17-.059-.433-.05-.568.087l-.048.046-.032.018q.035-.012.003 0c-.024.01-.08.024-.024.01-.01.004-.13.017-.04.012q-.048.003-.096.002c-.048-.001-.085-.005-.023 0a3 3 0 0 1-.22-.032c-.391-.069-.795-.122-1.175.024-.138.053-.284.192-.149.333.125.133.396.149.563.085"/><path fill="#631505" d="M23.176 13.11c.12-.324.321-.621.563-.864a3.6 3.6 0 0 1 .832-.598 4.2 4.2 0 0 1 2.356-.465c.356.029.84.143 1.198.266.425.143.837.321 1.24.51.76.357 1.48.76 2.176 1.218.8.527 1.557 1.12 2.266 1.766.306.28.97-.098.587-.45a18.6 18.6 0 0 0-4.505-3.034c-.85-.407-1.756-.776-2.704-.888a5.35 5.35 0 0 0-2.843.433c-.85.392-1.63 1.038-1.966 1.937-.159.42.657.55.8.17z"/><path fill="#631505" d="M34.006 13.403c.138.205.253.426.332.66.061.178.157.465-.047.585.02-.013-.104.04-.045.021-.046.016-.096.024-.141.032l-.016.003-.144.024a3 3 0 0 0-.18.034c-.245.05-.492.12-.712.234-.404.21-.702.564-.802 1.01-.099.437.047.91.34 1.237.116.133.348.139.51.12.058-.008.403-.085.29-.21a1.28 1.28 0 0 1-.293-1.223c.122-.402.438-.7.837-.814.233-.067.43-.08.661-.136.207-.048.452-.13.577-.316.14-.213.042-.479-.032-.697a3 3 0 0 0-.332-.66c-.096-.14-.364-.135-.51-.12-.077.011-.386.075-.293.216"/><path fill="#631505" d="M34.58 14.3c-.831 1.148-.81 2.794.064 3.914.127.162.388.189.568.112.165-.072.274-.26.15-.423-.723-.928-.755-2.34-.065-3.292.28-.386-.488-.625-.717-.311"/></svg>