<svg xmlns="http://www.w3.org/2000/svg" width="1024" height="1024" fill="none" viewBox="0 0 56 56"><clipPath id="a"><path d="M0 0h56v56H0z"/></clipPath><g clip-path="url(#a)"><path fill="#fcf6c4" d="M56 28c0 15.464-12.536 28-28 28S0 43.464 0 28c0-.843.037-1.678.11-2.503l55.648-1.194c.16 1.21.242 2.444.242 3.697z"/><path fill="#c3dfc3" d="m19.62 54.725-2.497-11.068 1.127-12.624 2.204-8.808 3.107-6.292 4.363-4.96 2.65 1.916 4.614 8.79 2.016 12.504-.327 14.92-1.215 5.836A28.02 28.02 0 0 1 28 56a27.99 27.99 0 0 1-8.38-1.275z"/><path fill="#e75b14" d="m27.996 56 .713-20.22.894-23.24-1.786-1.781-1.34 1.474-.577 27.25-.593 16.39c.885.084 1.782.127 2.69.127z"/><path fill="#0b5f65" d="M28.797 55.989a28.182 28.182 0 0 1-1.356.006l1.457-43.637a.347.347 0 0 1 .058-.185c-.23-.221-.47-.432-.72-.632-.182.159-.36.32-.534.484.011.04.016.084.014.13-.071 2.17-.144 4.338-.217 6.505v.02c-.073 2.16-.145 4.322-.216 6.483l-1.028 30.784a28.129 28.129 0 0 1-1.353-.117l1.414-42.356c-1.955 2.251-3.432 4.891-4.593 7.633-1.555 3.664-2.611 7.538-3.198 11.474a52.534 52.534 0 0 0-.392 12.13c.276 3.414.88 6.794 1.761 10.098a27.787 27.787 0 0 1-1.5-.5 57.469 57.469 0 0 1-1.723-11.148c-.217-4.1.029-8.231.77-12.271a50.814 50.814 0 0 1 1.3-5.408l-.839-.02H17.9c-1-.022-1.998-.045-3-.064-4.932-.093-9.876-.107-14.8.224.022-.267.048-.534.078-.8 1.039-.067 2.08-.119 3.123-.158 5.227-.201 10.455-.089 15.683.037a43.057 43.057 0 0 1 2.032-5.198c1.555-3.306 3.631-6.423 6.45-8.776a.895.895 0 0 1 .925-.141c.092.039.19.118.255.212.05.019.096.042.138.07.373.25.722.526 1.06.823 1.344 1.189 2.363 2.677 3.19 4.258.889 1.696 1.59 3.5 2.204 5.314.359 1.065.678 2.144.96 3.232a1.37 1.37 0 0 1 .336-.06h.014l.246-.011c.086-.005.171-.01.256-.012a.666.666 0 0 1 .172.015 507.915 507.915 0 0 0 18.481-.518c.045.307.085.616.12.925a510.263 510.263 0 0 1-19.311.533.764.764 0 0 1-.097-.007 54.667 54.667 0 0 1 1.27 7.78c.382 4.165.314 8.36-.068 12.52a97.088 97.088 0 0 1-1.298 9.084c-.474.147-.954.282-1.438.404.695-3.613 1.224-7.257 1.499-10.93.31-4.117.29-8.266-.176-12.374-.453-4-1.319-7.962-2.716-11.739-.825-2.226-1.807-4.579-3.275-6.512l-.177 5.314v.01c-.073 2.164-.146 4.326-.217 6.488z"/></g></svg>