<svg xmlns="http://www.w3.org/2000/svg" width="20" height="20" viewBox="0 0 20 20"><title>emoji-travel-outline-20</title><path d="M16,8.2,17.2,7c1.6-1.6,1.9-3.9.8-5a2.875,2.875,0,0,0-1.8-.7A4.314,4.314,0,0,0,13,2.7L11.7,4,8.3,3.6,3.2,1.9.9,4.2,5.5,8,6.6,9.1,5.4,10.3a7.459,7.459,0,0,0-.7,1.2l-2.6.2L.9,12.9l2.9,1.7c-.1.6-.2,1.1-.2,1.1l.8.8,1-.2L7,19l1.2-1.2.2-2.5a7.459,7.459,0,0,0,1.2-.7l1.2-1.2,1.1,1.1,3.7,4.7,2.3-2.3-1.5-5.3ZM6.5,6.9l-3.6-3,.5-.5L8,5.1l2.5.2L7.6,8.1Zm1.6,7a9.58,9.58,0,0,1-3.2,1.2A12.814,12.814,0,0,1,6,11.8l8-8a3.029,3.029,0,0,1,2.2-1,1.445,1.445,0,0,1,.7.2c.4.4.3,1.8-.8,2.9ZM15.9,17,13,13.4l-1.1-1.1,2.8-2.8.2,2.5,1.5,4.7Z"/></svg>