<svg xmlns="http://www.w3.org/2000/svg" width="20" height="20" viewBox="0 0 20 20"><title>emoji-activity-outline-20</title><path d="M10,1a9,9,0,1,0,9,9A8.963,8.963,0,0,0,10,1Zm7.3,7.4c-.6.9-1.3,1.8-1.9,2.6L12.1,9.7c-.4-.9-.8-1.8-1.2-2.8l2.4-2.4c.7.1,1.5.3,2.3.5A7.805,7.805,0,0,1,17.3,8.4ZM11.1,2.6A16.605,16.605,0,0,1,12.4,4L10,6.4a26.2,26.2,0,0,0-2.8.1L6.1,5c.4-.7.9-1.4,1.3-2A7.512,7.512,0,0,1,10,2.5,3.75,3.75,0,0,1,11.1,2.6ZM5.6,10h0L3.8,11c-.4-.6-.8-1.3-1.2-1.9a6.18,6.18,0,0,1,.9-2.7l1.9-.7L6.5,7.3A12.238,12.238,0,0,0,5.6,10ZM3.9,14.3c0-.8.1-1.6.1-2.3l1.8-1c.9.6,1.8,1.2,2.6,1.8L9,16l-2.3.7A8.143,8.143,0,0,1,3.9,14.3ZM12.8,17c-1-.3-1.9-.6-2.8-.9l-.6-3.3a24.334,24.334,0,0,1,2.5-2L15.1,12c.1,1,.2,2.1.3,3.2A6.765,6.765,0,0,1,12.8,17Z"/></svg>