<svg xmlns="http://www.w3.org/2000/svg" width="20" height="20" viewBox="0 0 20 20"><title>emoji-food-solid-20</title><path d="M9.1,10.4a4.282,4.282,0,0,1-.6-2.2,4.645,4.645,0,0,1,.6-2.3,3.425,3.425,0,0,0,.4-1.8,4.711,4.711,0,0,0-.4-1.7l1.4-.6A6.874,6.874,0,0,1,11,4.2a4.645,4.645,0,0,1-.6,2.3A4.711,4.711,0,0,0,10,8.2a4.193,4.193,0,0,0,.4,1.6Zm4.3-.6A4.193,4.193,0,0,1,13,8.2a4.711,4.711,0,0,1,.4-1.7,4.708,4.708,0,0,0,0-4.6L12,2.5a3.287,3.287,0,0,1,.4,1.7A5.84,5.84,0,0,1,12,6a6.028,6.028,0,0,0-.6,2.3,4.645,4.645,0,0,0,.6,2.3Zm5.6.5h0C19,13,16.7,19,10,19a8.966,8.966,0,0,1-9-8.7H1C1,9.1,2.8,8,5.6,7.4a8.8,8.8,0,0,1,.5-1.5,3.425,3.425,0,0,0,.4-1.8,4.711,4.711,0,0,0-.4-1.7l1.4-.6A6.874,6.874,0,0,1,8,4.2a4.645,4.645,0,0,1-.6,2.3A4.711,4.711,0,0,0,7,8.2v.5a5.638,5.638,0,0,0,.4,1.2L6,10.4A5.732,5.732,0,0,1,5.6,9a5.574,5.574,0,0,0-3,1.4c.4.6,2.9,1.9,7.5,1.9s7.1-1.3,7.5-1.9A6.061,6.061,0,0,0,14.7,9a2.2,2.2,0,0,1-.1-.8,1.7,1.7,0,0,1,.1-.7C17.2,8,19,9.1,19,10.3Z"/></svg>