<svg xmlns="http://www.w3.org/2000/svg" width="20" height="20" viewBox="0 0 20 20"><title>emoji-smiley-solid-20</title><path d="M10,1a8.751,8.751,0,0,0-9,9,8.751,8.751,0,0,0,9,9,8.751,8.751,0,0,0,9-9A8.751,8.751,0,0,0,10,1Zm2.75,5.75A1.476,1.476,0,0,1,14,8.375,1.476,1.476,0,0,1,12.75,10,1.476,1.476,0,0,1,11.5,8.375,1.476,1.476,0,0,1,12.75,6.75Zm-5.5,0A1.476,1.476,0,0,1,8.5,8.375,1.476,1.476,0,0,1,7.25,10,1.476,1.476,0,0,1,6,8.375,1.476,1.476,0,0,1,7.25,6.75Zm7.358,6.438a5.762,5.762,0,0,1-9.214.021.749.749,0,0,1,1.212-.882,4.266,4.266,0,0,0,6.786-.015.749.749,0,1,1,1.216.876Z"/></svg>