<svg xmlns="http://www.w3.org/2000/svg" width="24" height="24" viewBox="0 0 24 24"><title>emoji-smiley-outline-24</title><path d="M12,18.663a6.817,6.817,0,0,1-5.491-2.7.75.75,0,1,1,1.207-.89A5.31,5.31,0,0,0,12,17.163a5.3,5.3,0,0,0,4.3-2.105.75.75,0,1,1,1.211.884A6.8,6.8,0,0,1,12,18.663ZM12,2.5A9.188,9.188,0,0,0,2.5,12,9.188,9.188,0,0,0,12,21.5,9.188,9.188,0,0,0,21.5,12,9.188,9.188,0,0,0,12,2.5M12,1A10.7,10.7,0,0,1,23,12,10.7,10.7,0,0,1,12,23,10.7,10.7,0,0,1,1,12,10.7,10.7,0,0,1,12,1ZM8.5,8C7.672,8,7,8.9,7,10s.672,2,1.5,2,1.5-.895,1.5-2S9.328,8,8.5,8Zm7,0C14.672,8,14,8.9,14,10s.672,2,1.5,2,1.5-.895,1.5-2S16.328,8,15.5,8Z"/></svg>