<svg xmlns="http://www.w3.org/2000/svg" width="20" height="20" viewBox="0 0 20 20"><title>emoji-activity-solid-20</title><path d="M10,1a9,9,0,1,0,9,9A8.963,8.963,0,0,0,10,1Zm5.5,14.1c-.1-1-.2-2.2-.3-3.2L12,10.7c-.9.7-1.7,1.4-2.5,2L10,16c.8.3,1.9.6,2.8.9a7.613,7.613,0,0,1-6.1-.2L9,16l-.6-3.3c-.8-.6-1.7-1.2-2.6-1.8L4,12c0,.7-.1,1.6-.1,2.3A7.14,7.14,0,0,1,2.5,10a2.769,2.769,0,0,1,.1-.9L3.8,11l1.8-1h0c.3-.9.6-1.9.9-2.8L5.3,5.6l-1.8.8A6.886,6.886,0,0,1,7.4,3c-.4.6-.9,1.4-1.3,2L7.2,6.6c1-.1,1.9-.2,2.8-.2L12.4,4a14.931,14.931,0,0,0-1.2-1.4A7.4,7.4,0,0,1,15.6,5c-.7-.2-1.5-.3-2.2-.5L11,6.9c.4,1,.8,1.9,1.2,2.8L15.5,11c.6-.8,1.3-1.7,1.9-2.6a8.752,8.752,0,0,1,.2,1.6A8.044,8.044,0,0,1,15.5,15.1Z"/></svg>