<svg xmlns="http://www.w3.org/2000/svg" width="24" height="24" viewBox="0 0 24 24"><title>message-outline-24</title><path d="M12,4c4.963,0,9,3.364,9,7.5S16.963,19,12,19a10.536,10.536,0,0,1-3.19-.5l-.465-.148-.464.155L4.739,19.556l.394-2.365.118-.707-.477-.536A6.651,6.651,0,0,1,3,11.5C3,7.364,7.037,4,12,4m0-1.5c-5.8,0-10.5,4.029-10.5,9a8.164,8.164,0,0,0,2.153,5.445l-.639,3.836c-.073.438.144.719.505.719a.9.9,0,0,0,.279-.049l4.558-1.519A12.019,12.019,0,0,0,12,20.5c5.8,0,10.5-4.029,10.5-9s-4.773-9-10.5-9Z"/></svg>