<?xml version="1.0" encoding="utf-8"?>
<!-- Generator: Adobe Illustrator 24.3.0, SVG Export Plug-In . SVG Version: 6.00 Build 0)  -->
<svg version="1.1" xmlns="http://www.w3.org/2000/svg" xmlns:xlink="http://www.w3.org/1999/xlink" x="0px" y="0px"
	 viewBox="0 0 24 24" style="enable-background:new 0 0 24 24;" xml:space="preserve">
<style type="text/css">
	.st0{display:none;}
	.st1{display:inline;}
</style>
<g id="katman_1" class="st0">
	<path class="st1" d="M22.1,10.9L5.3,1.3C4.7,1,3.9,1.2,3.6,1.8C3.4,2,3.4,2.3,3.4,2.6l1.3,7.5L14,12l-9.3,1.9l-1.3,7.5
		c-0.1,0.7,0.3,1.3,1,1.4c0.3,0,0.6,0,0.8-0.1l16.8-9.6c0.6-0.3,0.8-1.1,0.5-1.7C22.5,11.2,22.3,11,22.1,10.9z"/>
</g>
<g id="katman_2">
	<path d="M12,1C5.9,1,1,5.9,1,12s4.9,11,11,11s11-4.9,11-11S18.1,1,12,1z M17.9,12C17.9,12,17.9,12.1,17.9,12c0,0.1,0,0.1,0,0.1l0,0
		l0,0l0,0l-4,4.9c-0.1,0.2-0.4,0.2-0.5,0c-0.2-0.1-0.2-0.4-0.1-0.5l3.4-4.1H6.5c-0.2,0-0.4-0.2-0.4-0.4s0.2-0.4,0.4-0.4h10.2
		l-3.4-4.1c-0.1-0.1-0.1-0.3-0.1-0.4s0.2-0.2,0.3-0.3c0.1,0,0.3,0,0.4,0.1l3.9,4.7l0,0l0,0l0,0C17.9,11.9,17.9,11.9,17.9,12
		C17.9,11.9,17.9,12,17.9,12L17.9,12L17.9,12z"/>
</g>
</svg>
