<svg id="Export" xmlns="http://www.w3.org/2000/svg" viewBox="0 0 16 16"><title>settings-16</title><path d="M8,5.5A2.5,2.5,0,1,1,5.5,8,2.5,2.5,0,0,1,8,5.5m0-1A3.5,3.5,0,1,0,11.5,8,3.5,3.5,0,0,0,8,4.5ZM8,1.66a.48.48,0,0,1,.44.26L9,3a1.48,1.48,0,0,0,1.32.79,1.59,1.59,0,0,0,.43-.06L12,3.39l.15,0a.5.5,0,0,1,.47.64l-.36,1.2A1.5,1.5,0,0,0,13,7l1.1.6a.5.5,0,0,1,0,.88L13,9a1.5,1.5,0,0,0-.73,1.75l.36,1.2a.5.5,0,0,1-.47.64l-.15,0-1.2-.36a1.59,1.59,0,0,0-.43-.06A1.48,1.48,0,0,0,9,13l-.6,1.1a.5.5,0,0,1-.88,0L7,13a1.48,1.48,0,0,0-1.32-.79,1.59,1.59,0,0,0-.43.06L4,12.61l-.15,0A.5.5,0,0,1,3.39,12l.36-1.2A1.5,1.5,0,0,0,3,9l-1.1-.6a.5.5,0,0,1,0-.88L3,7a1.5,1.5,0,0,0,.73-1.75L3.39,4a.5.5,0,0,1,.47-.64l.15,0,1.2.36a1.59,1.59,0,0,0,.43.06A1.48,1.48,0,0,0,7,3l.6-1.1A.48.48,0,0,1,8,1.66m0-1a1.47,1.47,0,0,0-1.32.79l-.6,1.1a.5.5,0,0,1-.44.26.36.36,0,0,1-.14,0L4.3,2.43a1.72,1.72,0,0,0-.44-.06A1.5,1.5,0,0,0,2.43,4.3l.36,1.2a.49.49,0,0,1-.24.58l-1.1.6a1.5,1.5,0,0,0,0,2.64l1.1.6a.49.49,0,0,1,.24.58l-.36,1.2a1.5,1.5,0,0,0,1.43,1.93,1.72,1.72,0,0,0,.44-.06l1.2-.36a.36.36,0,0,1,.14,0,.5.5,0,0,1,.44.26l.6,1.1a1.5,1.5,0,0,0,2.64,0l.6-1.1a.5.5,0,0,1,.44-.26.36.36,0,0,1,.14,0l1.2.36a1.72,1.72,0,0,0,.44.06,1.5,1.5,0,0,0,1.43-1.93l-.36-1.2a.49.49,0,0,1,.24-.58l1.1-.6a1.5,1.5,0,0,0,0-2.64l-1.1-.6a.49.49,0,0,1-.24-.58l.36-1.2a1.5,1.5,0,0,0-1.43-1.93,1.72,1.72,0,0,0-.44.06l-1.2.36a.36.36,0,0,1-.14,0,.5.5,0,0,1-.44-.26l-.6-1.1A1.47,1.47,0,0,0,8,.66Z"/></svg>