<svg xmlns="http://www.w3.org/2000/svg" width="24" height="24" viewBox="0 0 24 24"><title>sticker-solid-24</title><path d="M8.75,21.982c-.021,0-.041,0-.062,0A7.326,7.326,0,0,1,5.072,21.2,5.55,5.55,0,0,1,2.8,18.928c-.522-.977-.8-1.947-.8-4.62V9.692c0-2.673.278-3.643.8-4.62A5.55,5.55,0,0,1,5.072,2.8c.977-.522,1.947-.8,4.62-.8h4.616c2.673,0,3.643.278,4.62.8A5.55,5.55,0,0,1,21.2,5.072c.522.977.8,1.947.8,4.62v2.257c0,.1-.026.2-.036.3H17.191c-2.8,0-3.872.3-4.975.89a6.172,6.172,0,0,0-2.575,2.575c-.591,1.1-.891,2.177-.891,4.977Zm8.441-8.232c-2.719,0-3.513.309-4.268.712a4.7,4.7,0,0,0-1.96,1.961c-.4.755-.713,1.549-.713,4.269v.9c.078-.044.158-.083.232-.134L20.734,14.4a2.971,2.971,0,0,0,.644-.647Z"/></svg>