<svg xmlns="http://www.w3.org/2000/svg" width="12" height="12" viewBox="0 0 12 12"><title>timer-40-12</title><path d="M1.074,2.579l.889.513a5.035,5.035,0,0,0-.5.866L.575,3.445A6,6,0,0,1,1.074,2.579ZM.026,5.5a6.07,6.07,0,0,0,0,1H1.041a4.915,4.915,0,0,1,0-1ZM11.8,4.447A6,6,0,0,0,5.5.025V1.041A4.991,4.991,0,1,1,1.456,8.047l-.88.508A6,6,0,0,0,11.8,4.447ZM2.581,1.076l.506.878a4.959,4.959,0,0,1,.866-.5L3.446.576A5.994,5.994,0,0,0,2.581,1.076ZM6.65,5.625A.751.751,0,0,0,5.625,5.35L2.411,7.784l.25.432L6.375,6.649A.749.749,0,0,0,6.65,5.625Z"/></svg>