<svg xmlns="http://www.w3.org/2000/svg" width="12" height="12" viewBox="0 0 12 12"><title>timer-15-12</title><path d="M1.05,6.5h-1a5.963,5.963,0,0,1,0-1h1A5.063,5.063,0,0,0,1.05,6.5Zm9.495,1.547a4.907,4.907,0,0,1-.5.865l.874.5a5.94,5.94,0,0,0,.491-.87ZM5.5,1.05A4.932,4.932,0,0,1,10.95,6.5h1A5.924,5.924,0,0,0,5.5.048Zm3.916,9.868-.5-.874a4.907,4.907,0,0,1-.865.5l.5.864A5.889,5.889,0,0,0,9.416,10.918Zm-5.463-.373a4.846,4.846,0,0,1-.865-.5l-.5.874a5.94,5.94,0,0,0,.87.491Zm2.547.4a5.063,5.063,0,0,1-1,0v1a5.963,5.963,0,0,0,1,0ZM2.584,1.082l.5.873a4.97,4.97,0,0,1,.865-.5l-.5-.863A5.94,5.94,0,0,0,2.584,1.082Zm-.628,7.83a4.907,4.907,0,0,1-.5-.865l-.864.5a5.94,5.94,0,0,0,.491.87Zm-.5-4.959a4.907,4.907,0,0,1,.5-.865l-.874-.5a5.94,5.94,0,0,0-.491.87ZM6,5.25a.75.75,0,0,0,0,1.5l4-.5v-.5Z"/></svg>