<svg xmlns="http://www.w3.org/2000/svg" width="24" height="24" viewBox="0 0 24 24"><title>viewed-once-24</title><path d="M3.23,15.63l-1.39.58A10.94,10.94,0,0,1,1,12H2.5A9.34,9.34,0,0,0,3.23,15.63Zm0-7.26A9.36,9.36,0,0,1,5.29,5.29L4.22,4.22A11.11,11.11,0,0,0,1.84,7.79Zm17.54,7.26a9.36,9.36,0,0,1-2.06,3.08l1.07,1.07a11.11,11.11,0,0,0,2.38-3.57Zm0-7.26A9.34,9.34,0,0,1,21.5,12H23a10.94,10.94,0,0,0-.84-4.21ZM8.37,3.23A9.34,9.34,0,0,1,12,2.5V1a10.94,10.94,0,0,0-4.21.84Zm0,17.54a9.36,9.36,0,0,1-3.08-2.06L4.22,19.78a11.11,11.11,0,0,0,3.57,2.38Zm7.26,0A9.34,9.34,0,0,1,12,21.5V23a10.94,10.94,0,0,0,4.21-.84Zm0-17.54a9.36,9.36,0,0,1,3.08,2.06l1.07-1.07a11.22,11.22,0,0,0-3.57-2.38Zm-5.58,4.4H8.59A1.94,1.94,0,0,1,6.73,9v1.23a2.17,2.17,0,0,0,1.73-.63h.07V16h1.52ZM13.4,9.72H11.83l1.87,3.14L11.78,16h1.57l1.32-2.26L16,16h1.56l-1.93-3.14,1.89-3.14H16L14.67,12Z"/></svg>