<svg width="16" height="16" fill="none" xmlns="http://www.w3.org/2000/svg"><g clip-path="url(#settings-compact__a)" fill-rule="evenodd" clip-rule="evenodd" fill="#000"><path d="M8 4.6a3.4 3.4 0 1 0 0 6.8 3.4 3.4 0 0 0 0-6.8ZM5.9 8a2.1 2.1 0 1 1 4.2 0 2.1 2.1 0 0 1-4.2 0Z"/><path d="M7.028.638c-.579 0-1.09.378-1.26.932l-.264.865a.017.017 0 0 1-.008.01l-1.055.61a.017.017 0 0 1-.012.001l-.882-.203a1.317 1.317 0 0 0-1.436.624l-.972 1.684a1.317 1.317 0 0 0 .177 1.556l.617.662a.017.017 0 0 1 .004.011v1.22a.017.017 0 0 1-.004.01l-.617.663a1.317 1.317 0 0 0-.177 1.556l.972 1.684c.289.5.872.754 1.436.624l.882-.203a.017.017 0 0 1 .012.002l1.055.609a.017.017 0 0 1 .008.01l.265.865c.17.554.68.932 1.259.932h1.944c.579 0 1.09-.378 1.259-.932l.265-.865a.016.016 0 0 1 .008-.01l1.055-.61a.017.017 0 0 1 .012-.001l.882.203a1.317 1.317 0 0 0 1.437-.624l.972-1.684a1.317 1.317 0 0 0-.178-1.556l-.617-.662a.017.017 0 0 1-.004-.012V7.39c0-.004.001-.008.004-.01l.617-.663a1.317 1.317 0 0 0 .177-1.556l-.972-1.684a1.317 1.317 0 0 0-1.436-.624l-.882.203a.016.016 0 0 1-.012-.002l-1.055-.61a.016.016 0 0 1-.008-.009l-.265-.865A1.317 1.317 0 0 0 8.972.638H7.028ZM7.012 1.95a.017.017 0 0 1 .016-.012h1.944c.007 0 .014.005.016.012l.265.866c.097.318.312.588.6.755l1.056.609c.289.167.63.218.954.143l.882-.204a.017.017 0 0 1 .019.008l.972 1.684a.017.017 0 0 1-.003.02l-.617.662a1.317 1.317 0 0 0-.353.897v1.22c0 .332.126.653.353.897l.617.662a.017.017 0 0 1 .003.02l-.972 1.684a.017.017 0 0 1-.018.008l-.883-.204a1.317 1.317 0 0 0-.954.143l-1.055.61a1.317 1.317 0 0 0-.601.754l-.265.866a.017.017 0 0 1-.016.012H7.028a.017.017 0 0 1-.016-.012l-.265-.866a1.317 1.317 0 0 0-.6-.755l-1.056-.61a1.317 1.317 0 0 0-.954-.142l-.882.204a.017.017 0 0 1-.019-.008l-.972-1.684a.017.017 0 0 1 .003-.02l.617-.662c.227-.244.353-.565.353-.898V7.39c0-.333-.126-.653-.353-.897l-.617-.662a.017.017 0 0 1-.002-.02l.972-1.684a.017.017 0 0 1 .018-.008l.882.204c.324.075.665.024.954-.143l1.055-.61c.289-.166.504-.436.601-.754l.265-.866Z"/></g><defs><clipPath id="settings-compact__a"><path fill="#fff" d="M0 0h16v16H0z"/></clipPath></defs></svg>