<svg width="20" height="20" fill="none" xmlns="http://www.w3.org/2000/svg"><path fill-rule="evenodd" clip-rule="evenodd" d="M8.836 1.284c-.55 0-1.036.36-1.196.887l-.398 1.31a.417.417 0 0 1-.19.24l-1.016.586a.417.417 0 0 1-.302.045L4.4 4.042a1.25 1.25 0 0 0-1.366.592L1.87 6.65a1.25 1.25 0 0 0 .17 1.48l.936 1a.417.417 0 0 1 .112.284v1.172c0 .106-.04.208-.112.285l-.936 1a1.25 1.25 0 0 0-.17 1.48l1.164 2.015c.275.477.83.717 1.366.592l1.334-.31a.416.416 0 0 1 .302.045l1.016.586c.091.053.16.139.19.24l.398 1.31c.16.527.646.887 1.196.887h2.328c.55 0 1.036-.36 1.196-.887l.398-1.31a.417.417 0 0 1 .19-.24l1.016-.586a.417.417 0 0 1 .303-.045l1.333.31a1.25 1.25 0 0 0 1.366-.592l1.164-2.016a1.25 1.25 0 0 0-.17-1.479l-.936-1a.417.417 0 0 1-.112-.285V9.414c0-.106.04-.208.112-.285l.936-1a1.25 1.25 0 0 0 .17-1.48l-1.163-2.015a1.25 1.25 0 0 0-1.366-.592l-1.335.31a.417.417 0 0 1-.302-.045l-1.016-.586a.417.417 0 0 1-.19-.24l-.398-1.31a1.25 1.25 0 0 0-1.196-.887H8.836ZM6.666 10a3.333 3.333 0 1 1 6.667 0 3.333 3.333 0 0 1-6.666 0Z" fill="#000"/></svg>