<svg width="20" height="20" fill="none" xmlns="http://www.w3.org/2000/svg"><path fill-rule="evenodd" clip-rule="evenodd" d="M10 5.938a4.062 4.062 0 1 0 0 8.125 4.062 4.062 0 0 0 0-8.125ZM7.396 10a2.604 2.604 0 1 1 5.208 0 2.604 2.604 0 0 1-5.208 0Z" fill="#000"/><path fill-rule="evenodd" clip-rule="evenodd" d="M8.836.971c-.688 0-1.295.45-1.495 1.109l-.398 1.31a.104.104 0 0 1-.047.06l-1.016.587a.104.104 0 0 1-.076.01l-1.333-.31a1.562 1.562 0 0 0-1.708.74L1.599 6.495a1.563 1.563 0 0 0 .213 1.849l.936 1a.102.102 0 0 1 .028.07v1.173c0 .027-.01.052-.028.072l-.936 1a1.562 1.562 0 0 0-.213 1.848l1.164 2.016a1.563 1.563 0 0 0 1.708.74l1.333-.31a.104.104 0 0 1 .076.011l1.016.587c.022.013.04.034.047.06l.398 1.31c.2.658.807 1.109 1.495 1.109h2.328c.688 0 1.295-.45 1.495-1.109l.398-1.31a.105.105 0 0 1 .047-.06l1.016-.587a.104.104 0 0 1 .076-.01l1.334.31a1.562 1.562 0 0 0 1.707-.74l1.164-2.017a1.562 1.562 0 0 0-.212-1.849l-.936-1a.104.104 0 0 1-.029-.07V9.413c0-.027.01-.052.029-.071l.936-1c.47-.503.556-1.253.212-1.85l-1.164-2.015a1.562 1.562 0 0 0-1.707-.74l-1.334.31a.104.104 0 0 1-.076-.011l-1.015-.587a.104.104 0 0 1-.048-.06l-.398-1.31A1.562 1.562 0 0 0 11.164.97H8.836Zm-.1 1.533a.104.104 0 0 1 .1-.074h2.328c.046 0 .086.03.1.074l.398 1.31c.115.38.37.701.713.9l1.016.586c.343.198.75.258 1.135.168l1.334-.31c.045-.01.091.01.114.049l1.164 2.016c.023.04.017.09-.014.123l-.936 1c-.271.29-.422.671-.422 1.068v1.172c0 .397.15.778.422 1.068l.936 1a.104.104 0 0 1 .014.123l-1.164 2.016a.104.104 0 0 1-.114.05l-1.334-.311a1.563 1.563 0 0 0-1.135.168l-1.016.587c-.343.198-.598.52-.713.899l-.399 1.31a.104.104 0 0 1-.1.074H8.837a.104.104 0 0 1-.1-.074l-.397-1.31a1.566 1.566 0 0 0-.714-.9l-1.016-.585a1.563 1.563 0 0 0-1.135-.17l-1.334.311a.104.104 0 0 1-.114-.049l-1.164-2.016a.104.104 0 0 1 .014-.123l.936-1c.271-.29.422-.671.422-1.068V9.414c0-.397-.15-.778-.422-1.068l-.936-1a.104.104 0 0 1-.014-.123l1.164-2.016c.023-.04.07-.06.114-.05l1.334.311c.386.09.792.03 1.135-.168l1.016-.587c.343-.198.598-.52.714-.899l.398-1.31Z" fill="#000"/></svg>