<svg xmlns="http://www.w3.org/2000/svg" width="20" height="20" fill="none"><path fill="#000" d="M10 5.417a.995.995 0 0 0-.993 1.071l.353 4.586a.642.642 0 0 0 1.28 0l.352-4.586A.996.996 0 0 0 10 5.417Zm0 7.291a1.042 1.042 0 1 0 0 2.084 1.042 1.042 0 0 0 0-2.084Z"/><path fill="#000" fill-rule="evenodd" d="M12.589 1.354H7.41c-.635 0-1.245.253-1.694.702l-3.66 3.661a2.396 2.396 0 0 0-.702 1.694v5.178c0 .635.253 1.245.702 1.694l3.661 3.661c.45.45 1.059.702 1.694.702h5.178c.635 0 1.245-.253 1.694-.702l3.661-3.661c.45-.45.702-1.059.702-1.694V7.41c0-.635-.253-1.245-.702-1.694l-3.661-3.661a2.396 2.396 0 0 0-1.694-.702ZM7.41 2.812h5.178c.248 0 .487.1.663.275l3.66 3.661a.938.938 0 0 1 .276.663v5.178a.938.938 0 0 1-.275.663l-3.661 3.66a.938.938 0 0 1-.663.276H7.41a.938.938 0 0 1-.663-.275l-3.661-3.661a.937.937 0 0 1-.275-.663V7.41c0-.249.1-.487.275-.663l3.661-3.661a.937.937 0 0 1 .663-.275Z" clip-rule="evenodd"/></svg>