<svg width="24" height="24" viewBox="0 0 24 24" fill="none" xmlns="http://www.w3.org/2000/svg">
<path fill-rule="evenodd" clip-rule="evenodd" d="M17.7327 4.16031C17.8212 3.75566 17.5649 3.35588 17.1603 3.26736C16.7556 3.17885 16.3558 3.43512 16.2673 3.83976L15.4119 7.75003L10.4474 7.75003L11.2327 4.16031C11.3212 3.75567 11.0649 3.35588 10.6602 3.26736C10.2556 3.17885 9.85582 3.43512 9.7673 3.83977L8.91193 7.75003H5.5C5.08579 7.75003 4.75 8.08582 4.75 8.50003C4.75 8.91425 5.08579 9.25003 5.5 9.25003H8.5838L7.38068 14.75H4C3.58579 14.75 3.25 15.0858 3.25 15.5C3.25 15.9142 3.58579 16.25 4 16.25H7.05255L6.2673 19.8398C6.17878 20.2444 6.43506 20.6442 6.8397 20.7327C7.24435 20.8212 7.64413 20.565 7.73265 20.1603L8.58802 16.25L13.5526 16.25L12.7673 19.8398C12.6788 20.2444 12.9351 20.6442 13.3397 20.7327C13.7444 20.8212 14.1442 20.565 14.2327 20.1603L15.088 16.25H18.5C18.9142 16.25 19.25 15.9142 19.25 15.5C19.25 15.0858 18.9142 14.75 18.5 14.75H15.4162L16.6193 9.25003H20C20.4142 9.25003 20.75 8.91425 20.75 8.50003C20.75 8.08582 20.4142 7.75003 20 7.75003H16.9474L17.7327 4.16031ZM15.0838 9.25003L10.1193 9.25003L8.91615 14.75L13.8807 14.75L15.0838 9.25003Z" fill="black"/>
</svg>
