<svg width="24" height="24" viewBox="0 0 24 24" fill="none" xmlns="http://www.w3.org/2000/svg">
<path fill-rule="evenodd" clip-rule="evenodd" d="M17.8547 4.18699C17.958 3.7149 17.659 3.24848 17.1869 3.14521C16.7149 3.04195 16.2484 3.34093 16.1452 3.81302L15.3113 7.62501L10.6027 7.62501L11.3548 4.18699C11.4581 3.71491 11.1591 3.24849 10.687 3.14522C10.2149 3.04195 9.74848 3.34094 9.64521 3.81302L8.81134 7.62501H5.5C5.01675 7.62501 4.625 8.01676 4.625 8.50001C4.625 8.98326 5.01675 9.37501 5.5 9.37501H8.42853L7.28009 14.625H4C3.51675 14.625 3.125 15.0168 3.125 15.5C3.125 15.9833 3.51675 16.375 4 16.375H6.89728L6.14521 19.813C6.04195 20.2851 6.34093 20.7515 6.81302 20.8548C7.2851 20.9581 7.75152 20.6591 7.85479 20.187L8.68866 16.375H13.3972L12.6452 19.813C12.5419 20.2851 12.8409 20.7515 13.313 20.8548C13.7851 20.9581 14.2515 20.6591 14.3547 20.187L15.1886 16.375H18.5C18.9832 16.375 19.375 15.9833 19.375 15.5C19.375 15.0168 18.9832 14.625 18.5 14.625H15.5714L16.7199 9.37501H20C20.4832 9.37501 20.875 8.98326 20.875 8.50001C20.875 8.01676 20.4832 7.62501 20 7.62501H17.1027L17.8547 4.18699ZM14.9285 9.37501H10.2199L9.07147 14.625H13.7801L14.9285 9.37501Z" fill="black"/>
</svg>
