<svg width="44" height="44" viewBox="0 0 44 44" fill="none" xmlns="http://www.w3.org/2000/svg">
<path d="M0 22C0 9.84974 9.84974 0 22 0C34.1503 0 44 9.84974 44 22C44 34.1503 34.1503 44 22 44C9.84974 44 0 34.1503 0 22Z" fill="#F8E0D9" style="fill:#F8E0D9;fill:color(display-p3 0.9712 0.8804 0.8521);fill-opacity:1;"/>
<path fill-rule="evenodd" clip-rule="evenodd" d="M20.2199 14.2196C20.2193 13.7612 19.2502 13.2917 18.7917 13.2917C18.3329 13.2917 17.6417 13.7617 17.6417 14.2205L17.6416 24.1893L16.5 23.8333L15.2811 21.3751C15.1945 21.2121 14.9776 20.7903 14.6667 20.625C14.301 20.0342 13.3668 20.266 12.7333 20.5514C12.6982 20.5672 12.6519 20.5913 12.489 20.6779C12.4495 20.6989 12.426 20.7114 12.4083 20.7211C12.3971 20.7272 12.3911 20.7307 12.3911 20.7307C12.2736 20.8038 12.2282 20.9525 12.2847 21.0788C12.2847 21.0788 12.2877 21.085 12.2936 21.0964C12.3028 21.1143 12.3153 21.1378 12.3363 21.1773L14.8212 25.8508H14.8363L15.9547 27.9541C16.9966 30.4587 19.4672 32.2197 22.3491 32.2197C25.986 32.2197 28.9679 29.4152 29.25 25.8508H29.2719V16.4358C29.2719 15.977 28.9 15.6051 28.4412 15.6051C27.9824 15.6051 27.6105 15.977 27.6105 16.4358V21.4202H25.949V13.6667C25.949 13.2079 25.5771 12.836 25.1183 12.836C24.6595 12.836 24.2876 13.2079 24.2876 13.6667V21.4202H23.5428V12.0053C23.5428 11.5465 22.2542 11.1745 21.7954 11.1745C21.3366 11.1745 20.9646 11.5465 20.9646 12.0053V21.4202H20.2199V14.2196Z" fill="#FDEEEB" style="fill:#FDEEEB;fill:color(display-p3 0.9922 0.9333 0.9216);fill-opacity:1;"/>
<path fill-rule="evenodd" clip-rule="evenodd" d="M30.7441 26.357C30.7957 26.161 30.8231 25.9552 30.8231 25.7431V16.6528C30.8231 15.3238 29.7458 14.2465 28.4169 14.2465C28.1357 14.2465 27.8657 14.2948 27.6148 14.3834V13.9792C27.6148 12.6502 26.5375 11.5729 25.2086 11.5729C24.8956 11.5729 24.5965 11.6327 24.3222 11.7414C24.0441 10.7199 23.1099 9.96875 22.0002 9.96875C20.7146 9.96875 19.6645 10.9769 19.5974 12.2458C19.3456 12.1563 19.0744 12.1076 18.7919 12.1076C17.463 12.1076 16.3856 13.185 16.3856 14.5139V20.4455C16.3558 20.3908 16.3282 20.3424 16.3006 20.2977C15.5239 19.0427 13.9374 18.5576 12.5918 19.1638C12.5034 19.2036 12.4082 19.2542 12.2847 19.32L12.2465 19.3403C12.1892 19.3707 12.1298 19.4023 12.0767 19.4351C11.2781 19.9293 10.9694 20.9389 11.3552 21.7952C11.3808 21.8521 11.4124 21.9115 11.4429 21.9687L14.9776 28.6166C16.2774 31.4941 19.1723 33.4966 22.5349 33.4966C26.7226 33.4966 30.1849 30.3908 30.7441 26.357ZM19.594 14.513C19.5935 14.0704 19.2346 13.7118 18.7919 13.7118C18.3489 13.7118 17.9898 14.0709 17.9898 14.5139L17.9897 24.1389H16.5333L15.0637 21.3751C14.98 21.2177 14.956 21.1734 14.9364 21.1418C14.5834 20.5714 13.8623 20.3509 13.2506 20.6264C13.2168 20.6417 13.1721 20.665 13.0147 20.7486C12.9766 20.7689 12.9539 20.781 12.9369 20.7903C12.926 20.7962 12.9202 20.7996 12.9202 20.7996C12.8068 20.8702 12.7629 21.0137 12.8175 21.1357C12.8175 21.1357 12.8204 21.1417 12.8261 21.1527C12.835 21.1699 12.8471 21.1926 12.8673 21.2307L15.2666 25.7431H15.2811L16.3609 27.7739C17.3669 30.1921 19.7523 31.8924 22.5349 31.8924C26.0464 31.8924 28.9254 29.1846 29.1978 25.7431H29.219V16.6528C29.219 16.2098 28.8599 15.8507 28.4169 15.8507C27.9739 15.8507 27.6148 16.2098 27.6148 16.6528V21.4653H26.0106V13.9792C26.0106 13.5362 25.6515 13.1771 25.2086 13.1771C24.7656 13.1771 24.4065 13.5362 24.4065 13.9792V21.4653H22.8023V12.375C22.8023 11.932 22.4432 11.5729 22.0002 11.5729C21.5573 11.5729 21.1981 11.932 21.1981 12.375V21.4653H19.594V14.513Z" fill="#C34922" style="fill:#C34922;fill:color(display-p3 0.7647 0.2863 0.1333);fill-opacity:1;"/>
</svg>
