<svg width="44" height="44" viewBox="0 0 44 44" fill="none" xmlns="http://www.w3.org/2000/svg">
<path d="M44 22C44 34.1503 34.1503 44 22 44C9.84974 44 0 34.1503 0 22C0 9.84974 9.84974 0 22 0C34.1503 0 44 9.84974 44 22Z" fill="#F8E0D9" style="fill:#F8E0D9;fill:color(display-p3 0.9712 0.8804 0.8521);fill-opacity:1;"/>
<path fill-rule="evenodd" clip-rule="evenodd" d="M22.3629 11.9167C16.7096 11.9167 12.1268 16.4995 12.1268 22.1528C12.1268 23.9025 12.5649 25.5468 13.3366 26.985C13.5576 27.3968 13.6093 27.8973 13.4413 28.3638L11.9167 32.599L16.1518 31.0743C16.6184 30.9064 17.1189 30.958 17.5307 31.179C18.9689 31.9507 20.6131 32.3889 22.3629 32.3889C28.0161 32.3889 32.599 27.806 32.599 22.1528C32.599 16.4995 28.0161 11.9167 22.3629 11.9167Z" fill="#FDEEEB" style="fill:#FDEEEB;fill:color(display-p3 0.9933 0.9318 0.9213);fill-opacity:1;"/>
<path d="M17.9963 17.9963C18.3617 17.6309 18.9542 17.6309 19.3196 17.9963L22 20.6766L24.6803 17.9963C25.0457 17.6309 25.6382 17.6309 26.0037 17.9963C26.3691 18.3617 26.3691 18.9542 26.0037 19.3197L23.3233 22L26.0037 24.6803C26.3691 25.0458 26.3691 25.6383 26.0037 26.0037C25.6382 26.3691 25.0457 26.3691 24.6803 26.0037L22 23.3234L19.3196 26.0037C18.9542 26.3691 18.3617 26.3691 17.9963 26.0037C17.6308 25.6383 17.6308 25.0458 17.9963 24.6803L20.6766 22L17.9963 19.3197C17.6308 18.9542 17.6308 18.3617 17.9963 17.9963Z" fill="#C34922" style="fill:#C34922;fill:color(display-p3 0.7647 0.2863 0.1333);fill-opacity:1;"/>
<path fill-rule="evenodd" clip-rule="evenodd" d="M11.1719 22C11.1719 16.0198 16.0198 11.1719 22 11.1719C27.9802 11.1719 32.8281 16.0198 32.8281 22C32.8281 27.9802 27.9802 32.8281 22 32.8281C20.2128 32.8281 18.5243 32.3944 17.0365 31.6258L12.6916 33.19C11.5209 33.6115 10.3885 32.4791 10.81 31.3084L12.3742 26.9635C11.6056 25.4757 11.1719 23.7872 11.1719 22ZM22 13.0434C17.0534 13.0434 13.0434 17.0534 13.0434 22C13.0434 23.531 13.4268 24.9698 14.102 26.2282C14.2954 26.5885 14.3406 27.0265 14.1936 27.4347L12.8596 31.1405L16.5653 29.8064C16.9735 29.6594 17.4115 29.7046 17.7718 29.898C19.0302 30.5732 20.469 30.9566 22 30.9566C26.9466 30.9566 30.9566 26.9466 30.9566 22C30.9566 17.0534 26.9466 13.0434 22 13.0434Z" fill="#C34922" style="fill:#C34922;fill:color(display-p3 0.7647 0.2863 0.1333);fill-opacity:1;"/>
</svg>
