<svg width="240" height="160" viewBox="0 0 240 160" fill="none" xmlns="http://www.w3.org/2000/svg">
<path d="M38 36C38 26.0589 46.0589 18 56 18L184 18C193.941 18 202 26.0589 202 36V124C202 133.941 193.941 142 184 142H56C46.0589 142 38 133.941 38 124V36Z" fill="#C0CBE2" style="fill:#C0CBE2;fill:color(display-p3 0.7542 0.7958 0.8858);fill-opacity:1;"/>
<path d="M184 140.5V142H56L56 140.5H184ZM200.5 124V36C200.5 26.8873 193.113 19.5 184 19.5H56C46.8873 19.5 39.5 26.8873 39.5 36V124C39.5 133.113 46.8873 140.5 56 140.5L56 142C46.0589 142 38 133.941 38 124V36C38 26.0589 46.0589 18 56 18L184 18C193.941 18 202 26.0589 202 36V124C202 133.941 193.941 142 184 142V140.5C193.113 140.5 200.5 133.113 200.5 124Z" fill="#61739A" style="fill:#61739A;fill:color(display-p3 0.3804 0.4510 0.6039);fill-opacity:1;"/>
<path d="M40 36C40 27.1634 47.1634 20 56 20H184C191.18 20 197 25.8203 197 33V118C197 127.941 188.941 136 179 136H58C48.0589 136 40 127.941 40 118V36Z" fill="#D9E0EE" style="fill:#D9E0EE;fill:color(display-p3 0.8510 0.8784 0.9333);fill-opacity:1;"/>
<path d="M46 114.5C46 113.672 46.6716 113 47.5 113H180.5C181.328 113 182 113.672 182 114.5C182 115.328 181.328 116 180.5 116H47.5C46.6716 116 46 115.328 46 114.5Z" fill="#61739A" style="fill:#61739A;fill:color(display-p3 0.3804 0.4510 0.6039);fill-opacity:1;"/>
<path d="M46 125.5C46 124.672 46.6716 124 47.5 124H120.5C121.328 124 122 124.672 122 125.5C122 126.328 121.328 127 120.5 127H47.5C46.6716 127 46 126.328 46 125.5Z" fill="#61739A" style="fill:#61739A;fill:color(display-p3 0.3804 0.4510 0.6039);fill-opacity:1;"/>
<path d="M46 36C46 30.4772 50.4772 26 56 26H184C189.523 26 194 30.4772 194 36V92C194 97.5229 189.523 102 184 102H56C50.4772 102 46 97.5229 46 92V36Z" fill="#EAEEF6" style="fill:#EAEEF6;fill:color(display-p3 0.9176 0.9333 0.9647);fill-opacity:1;"/>
<path d="M184 100.5V102H56L56 100.5H184ZM192.5 92V36C192.5 31.3056 188.694 27.5 184 27.5H56C51.3056 27.5 47.5 31.3056 47.5 36V92C47.5 96.6944 51.3056 100.5 56 100.5L56 102C50.6498 102 46.2805 97.7983 46.0127 92.5146L46 92V36C46 30.6498 50.2017 26.2805 55.4854 26.0127L56 26H184L184.515 26.0127C189.798 26.2805 194 30.6498 194 36V92C194 97.5229 189.523 102 184 102V100.5C188.694 100.5 192.5 96.6944 192.5 92Z" fill="#61739A" style="fill:#61739A;fill:color(display-p3 0.3804 0.4510 0.6039);fill-opacity:1;"/>
<path d="M98.0488 28C91.9119 50.2903 71.9734 66.859 48 67.9414V36C48 31.5817 51.5817 28 56 28H98.0488Z" fill="#F2F5FA" style="fill:#F2F5FA;fill:color(display-p3 0.9490 0.9608 0.9804);fill-opacity:1;"/>
<path d="M123.682 52.3227C124.786 51.2181 126.231 50.6663 127.681 50.6663C130.804 50.6663 133.336 53.1985 133.336 56.322C133.336 57.7719 132.785 59.2163 131.68 60.321L128.57 63.4308C127.919 64.0816 127.919 65.1369 128.57 65.7878C129.221 66.4387 130.276 66.4387 130.927 65.7878L134.037 62.678C135.792 60.9232 136.67 58.6199 136.67 56.322C136.67 51.3575 132.645 47.333 127.681 47.333C125.383 47.333 123.08 48.2107 121.325 49.9657L115.966 55.324C114.211 57.0789 113.333 59.3824 113.333 61.6803C113.333 65.1398 115.288 68.1401 118.146 69.6417C118.961 70.0699 119.968 69.7564 120.397 68.9416C120.825 68.1268 120.511 67.1191 119.696 66.691C117.892 65.7426 116.667 63.8531 116.667 61.6803C116.667 60.2303 117.219 58.7857 118.323 57.681L123.682 52.3227Z" fill="#566B98" style="fill:#566B98;fill:color(display-p3 0.3388 0.4201 0.5963);fill-opacity:1;"/>
<path d="M116.322 75.6767C115.217 76.7812 113.773 77.333 112.322 77.333C109.199 77.333 106.667 74.8009 106.667 71.6774C106.667 70.2274 107.219 68.783 108.323 67.6783L111.433 64.5686C112.084 63.9177 112.084 62.8624 111.433 62.2116C110.782 61.5607 109.727 61.5607 109.076 62.2116L105.966 65.3213C104.211 67.0762 103.333 69.3794 103.333 71.6774C103.333 76.6418 107.358 80.6663 112.322 80.6663C114.62 80.6663 116.924 79.7886 118.679 78.0337L124.037 72.6753C125.792 70.9205 126.67 68.617 126.67 66.3191C126.67 62.8595 124.715 59.8592 121.857 58.3576C121.043 57.9295 120.035 58.2429 119.607 59.0577C119.179 59.8726 119.492 60.8802 120.307 61.3084C122.112 62.2567 123.337 64.1462 123.337 66.3191C123.337 67.7691 122.785 69.2137 121.68 70.3183L116.322 75.6767Z" fill="#566B98" style="fill:#566B98;fill:color(display-p3 0.3388 0.4201 0.5963);fill-opacity:1;"/>
<path d="M170 126C170 112.745 180.745 102 194 102C207.255 102 218 112.745 218 126C218 139.255 207.255 150 194 150C180.745 150 170 139.255 170 126Z" fill="#FAAD9F" style="fill:#FAAD9F;fill:color(display-p3 0.9804 0.6784 0.6235);fill-opacity:1;"/>
<path d="M194 102C207.255 102 218 112.745 218 126C218 139.255 207.255 150 194 150C180.745 150 170 139.255 170 126C170 125.48 170.018 124.965 170.051 124.453C170.797 135.373 179.891 144 191 144C202.598 144 212 134.598 212 123C212 111.891 203.373 102.797 192.453 102.051C192.965 102.018 193.48 102 194 102Z" fill="#F99887" style="fill:#F99887;fill:color(display-p3 0.9765 0.5961 0.5294);fill-opacity:1;"/>
<path d="M216 126C216 113.85 206.15 104 194 104C181.85 104 172 113.85 172 126C172 138.15 181.85 148 194 148V150C180.745 150 170 139.255 170 126C170 112.745 180.745 102 194 102C207.255 102 218 112.745 218 126C218 139.255 207.255 150 194 150V148C206.15 148 216 138.15 216 126Z" fill="#C34922" style="fill:#C34922;fill:color(display-p3 0.7647 0.2863 0.1333);fill-opacity:1;"/>
<path d="M195.968 116.688C196.292 116.118 196.908 115.737 197.604 115.737L197.795 115.746C198.734 115.84 199.484 116.627 199.484 117.605V119.582C199.809 119.012 200.425 118.632 201.121 118.632L201.312 118.641C202.251 118.735 203 119.522 203 120.5V131.342H202.845C202.099 135.144 198.718 138 194.675 138C191.236 138 188.28 135.935 187.012 132.983L186.128 131.342H186.112L183.199 125.931C183.178 125.892 183.162 125.861 183.149 125.836C183.144 125.826 183.139 125.817 183.136 125.811C183.134 125.807 183.132 125.803 183.131 125.801L183.13 125.798L183.129 125.796L183.128 125.795L183.114 125.766C182.845 125.17 183.066 124.475 183.614 124.138L183.628 124.13L183.641 124.122L183.644 124.12L183.647 124.118C183.65 124.117 183.653 124.115 183.656 124.113C183.663 124.11 183.672 124.105 183.682 124.1C183.706 124.086 183.737 124.07 183.776 124.049C183.933 123.967 184.019 123.922 184.094 123.889C185.214 123.39 186.541 123.785 187.195 124.829C187.239 124.899 187.285 124.984 187.368 125.139L188.693 127.601L188.694 118.185C188.694 117.141 189.547 116.315 190.573 116.315L190.763 116.325C191.38 116.387 191.915 116.749 192.21 117.267V115.868C192.21 114.825 193.063 114 194.089 114C195.115 114 195.968 114.825 195.968 115.868V116.688Z" fill="#FDEEEB" style="fill:#FDEEEB;fill:color(display-p3 0.9922 0.9333 0.9216);fill-opacity:1;"/>
<path fill-rule="evenodd" clip-rule="evenodd" d="M203.539 130.753C203.595 130.539 203.625 130.315 203.625 130.083V120.167C203.625 118.717 202.45 117.542 201 117.542C200.693 117.542 200.399 117.594 200.125 117.691V117.25C200.125 115.8 198.95 114.625 197.5 114.625C197.159 114.625 196.833 114.69 196.533 114.809C196.23 113.694 195.211 112.875 194 112.875C192.598 112.875 191.452 113.975 191.379 115.359C191.104 115.261 190.808 115.208 190.5 115.208C189.05 115.208 187.875 116.384 187.875 117.833V124.304C187.843 124.245 187.813 124.192 187.782 124.143C186.935 122.774 185.204 122.245 183.736 122.906C183.64 122.949 183.536 123.005 183.401 123.076L183.36 123.098C183.297 123.132 183.232 123.166 183.175 123.202C182.303 123.741 181.967 124.842 182.387 125.777C182.415 125.839 182.45 125.903 182.483 125.966L186.339 133.218C187.757 136.357 190.915 138.542 194.583 138.542C199.152 138.542 202.929 135.154 203.539 130.753ZM191.375 117.832C191.375 117.35 190.983 116.958 190.5 116.958C190.017 116.958 189.625 117.35 189.625 117.833L189.625 127.341C189.625 127.889 189.181 128.333 188.633 128.333C188.266 128.333 187.929 128.131 187.756 127.807L186.433 125.318C186.342 125.147 186.316 125.098 186.294 125.064C185.909 124.441 185.123 124.201 184.455 124.502C184.418 124.518 184.37 124.544 184.198 124.635C184.156 124.657 184.132 124.67 184.113 124.68C184.101 124.687 184.095 124.69 184.095 124.69C183.971 124.767 183.923 124.924 183.983 125.057C183.983 125.057 183.986 125.064 183.992 125.076C184.002 125.094 184.015 125.119 184.037 125.161L186.654 130.083H186.67L187.848 132.299C188.946 134.937 191.548 136.792 194.583 136.792C198.414 136.792 201.555 133.838 201.852 130.083H201.875V120.167C201.875 119.683 201.483 119.292 201 119.292C200.517 119.292 200.125 119.683 200.125 120.167V124.542C200.125 125.025 199.733 125.417 199.25 125.417C198.767 125.417 198.375 125.025 198.375 124.542V117.25C198.375 116.767 197.983 116.375 197.5 116.375C197.017 116.375 196.625 116.767 196.625 117.25V124.542C196.625 125.025 196.233 125.417 195.75 125.417C195.267 125.417 194.875 125.025 194.875 124.542V115.5C194.875 115.017 194.483 114.625 194 114.625C193.517 114.625 193.125 115.017 193.125 115.5V124.542C193.125 125.025 192.733 125.417 192.25 125.417C191.767 125.417 191.375 125.025 191.375 124.542V117.832Z" fill="#C34922" style="fill:#C34922;fill:color(display-p3 0.7647 0.2863 0.1333);fill-opacity:1;"/>
</svg>
