<svg width="44" height="44" viewBox="0 0 44 44" fill="none" xmlns="http://www.w3.org/2000/svg">
<path d="M0 22C0 9.84974 9.84974 0 22 0C34.1503 0 44 9.84974 44 22C44 34.1503 34.1503 44 22 44C9.84974 44 0 34.1503 0 22Z" fill="#F8E0D9" style="fill:#F8E0D9;fill:color(display-p3 0.9712 0.8804 0.8521);fill-opacity:1;"/>
<path fill-rule="evenodd" clip-rule="evenodd" d="M18.3716 14.3802C17.4281 14.3802 16.3664 15.3392 16.3664 17.0705C16.3664 17.9132 16.6366 18.6778 17.0395 19.2128C17.4436 19.7493 17.9258 19.9948 18.3716 19.9948C18.8174 19.9948 19.2996 19.7493 19.7037 19.2128C20.1066 18.6778 20.3768 17.9132 20.3768 17.0705C20.3768 15.3392 19.315 14.3802 18.3716 14.3802Z" fill="#FDEEEB" style="fill:#FDEEEB;fill:color(display-p3 0.9922 0.9333 0.9216);fill-opacity:1;"/>
<path fill-rule="evenodd" clip-rule="evenodd" d="M12.2586 29.6198H24.3932C24.0704 27.3052 21.6289 25.2801 18.3259 25.2801C15.023 25.2801 12.5815 27.3052 12.2586 29.6198Z" fill="#FDEEEB" style="fill:#FDEEEB;fill:color(display-p3 0.9922 0.9333 0.9216);fill-opacity:1;"/>
<path fill-rule="evenodd" clip-rule="evenodd" d="M18.3716 14.3802C17.4281 14.3802 16.3664 15.3392 16.3664 17.0705C16.3664 17.9132 16.6366 18.6778 17.0395 19.2128C17.4436 19.7493 17.9258 19.9948 18.3716 19.9948C18.8174 19.9948 19.2996 19.7493 19.7037 19.2128C20.1066 18.6778 20.3768 17.9132 20.3768 17.0705C20.3768 15.3392 19.315 14.3802 18.3716 14.3802ZM14.4946 17.0702C14.4946 14.6671 16.0663 12.5084 18.3714 12.5084C20.6764 12.5084 22.2481 14.6671 22.2481 17.0702C22.2481 18.2948 21.8599 19.4602 21.1984 20.3384C20.5381 21.2151 19.5499 21.866 18.3714 21.866C17.1929 21.866 16.2046 21.2151 15.5443 20.3384C14.8828 19.4602 14.4946 18.2948 14.4946 17.0702Z" fill="#C34922" style="fill:#C34922;fill:color(display-p3 0.7647 0.2863 0.1333);fill-opacity:1;"/>
<path fill-rule="evenodd" clip-rule="evenodd" d="M12.2586 29.6198H24.3932C24.0704 27.3052 21.6289 25.2801 18.3259 25.2801C15.023 25.2801 12.5815 27.3052 12.2586 29.6198ZM10.3505 30.1412C10.3505 26.2609 14.0993 23.4082 18.3257 23.4082C22.5521 23.4082 26.3009 26.2609 26.3009 30.1412C26.3009 30.9441 25.631 31.491 24.9329 31.491H11.7186C11.0205 31.491 10.3505 30.9441 10.3505 30.1412Z" fill="#C34922" style="fill:#C34922;fill:color(display-p3 0.7647 0.2863 0.1333);fill-opacity:1;"/>
<path fill-rule="evenodd" clip-rule="evenodd" d="M27.9755 16.2347C28.5669 15.8726 29.3053 15.7167 30.1353 15.7167C31.13 15.7167 31.99 15.9606 32.615 16.4374C33.2527 16.9238 33.611 17.6293 33.611 18.4481C33.611 19.7635 32.8112 20.3882 32.1961 20.8687C32.173 20.8868 32.1501 20.9047 32.1275 20.9223C31.8032 21.1767 31.5448 21.3899 31.3566 21.6589C31.1807 21.9103 31.0536 22.2309 31.0536 22.715V22.8192C31.0536 23.3264 30.6424 23.7375 30.1353 23.7375C29.6281 23.7375 29.2169 23.3264 29.2169 22.8192V22.715C29.2169 21.9837 29.4042 21.4153 29.7018 20.9536C29.9919 20.5034 30.3706 20.1814 30.6993 19.9223C30.7708 19.8659 30.8385 19.8135 30.9025 19.7638C31.1542 19.5687 31.3506 19.4165 31.5082 19.2376C31.6801 19.0424 31.7743 18.8462 31.7743 18.5686C31.7743 18.1137 31.6083 17.816 31.359 17.6191C31.093 17.4092 30.679 17.274 30.1353 17.274C29.6094 17.274 29.2507 17.3833 29.0129 17.5418C28.7846 17.6939 28.6241 17.9198 28.5399 18.25C28.4435 18.6283 28.1044 18.9828 27.626 18.9828C27.1004 18.9828 26.5952 18.4956 26.7644 17.8827C26.9626 17.1645 27.3713 16.6046 27.9755 16.2347Z" fill="#C34922" style="fill:#C34922;fill:color(display-p3 0.7647 0.2863 0.1333);fill-opacity:1;"/>
<path fill-rule="evenodd" clip-rule="evenodd" d="M29.0658 26.4112C29.0658 25.8205 29.5446 25.3417 30.1353 25.3417C30.7259 25.3417 31.2047 25.8205 31.2047 26.4112C31.2047 27.0018 30.7259 27.4806 30.1353 27.4806C29.5446 27.4806 29.0658 27.0018 29.0658 26.4112Z" fill="#C34922" style="fill:#C34922;fill:color(display-p3 0.7647 0.2863 0.1333);fill-opacity:1;"/>
</svg>
