<svg width="240" height="160" viewBox="0 0 240 160" fill="none" xmlns="http://www.w3.org/2000/svg">
<path d="M50 66C50 50.536 62.536 38 78 38H130C145.464 38 158 50.536 158 66C158 81.464 145.464 94 130 94H78C62.536 94 50 81.464 50 66Z" fill="#F99887" style="fill:#F99887;fill:color(display-p3 0.9765 0.5961 0.5294);fill-opacity:1;"/>
<path d="M50 63C50 49.1929 61.1929 38 75 38H126C139.807 38 151 49.1929 151 63C151 76.8071 139.807 88 126 88H75C61.1929 88 50 76.8071 50 63Z" fill="#FBC1B7" style="fill:#FBC1B7;fill:color(display-p3 0.9843 0.7569 0.7176);fill-opacity:1;"/>
<path fill-rule="evenodd" clip-rule="evenodd" d="M97.5495 51.2998C95.8465 51.2998 94.0495 53.0093 94.0495 55.9209C94.0495 57.3444 94.5054 58.6425 95.1949 59.558C95.8861 60.4757 96.7344 60.9248 97.5495 60.9248C98.3646 60.9248 99.2128 60.4757 99.904 59.558C100.594 58.6425 101.049 57.3444 101.049 55.9209C101.049 53.0093 99.2525 51.2998 97.5495 51.2998Z" fill="#FDECE9" style="fill:#FDECE9;fill:color(display-p3 0.9922 0.9255 0.9137);fill-opacity:1;"/>
<path fill-rule="evenodd" clip-rule="evenodd" d="M87.2998 76.6748H107.65C107.249 72.6462 103.069 69.1359 97.4748 69.1359C91.8801 69.1359 87.7008 72.6462 87.2998 76.6748Z" fill="#FDECE9" style="fill:#FDECE9;fill:color(display-p3 0.9922 0.9255 0.9137);fill-opacity:1;"/>
<path fill-rule="evenodd" clip-rule="evenodd" d="M97.5625 51.3125C95.8595 51.3125 94.0625 53.022 94.0625 55.9336C94.0625 57.3571 94.5184 58.6552 95.2079 59.5707C95.8992 60.4884 96.7474 60.9375 97.5625 60.9375C98.3776 60.9375 99.2258 60.4884 99.9171 59.5707C100.607 58.6552 101.062 57.3571 101.062 55.9336C101.062 53.022 99.2655 51.3125 97.5625 51.3125ZM91.4375 55.9336C91.4375 52.0797 93.9497 48.6875 97.5625 48.6875C101.175 48.6875 103.688 52.0797 103.688 55.9336C103.688 57.8929 103.066 59.7529 102.014 61.15C100.963 62.5448 99.4053 63.5625 97.5625 63.5625C95.7197 63.5625 94.1617 62.5448 93.1112 61.15C92.0589 59.7529 91.4375 57.8929 91.4375 55.9336Z" fill="#C34922" style="fill:#C34922;fill:color(display-p3 0.7647 0.2863 0.1333);fill-opacity:1;"/>
<path fill-rule="evenodd" clip-rule="evenodd" d="M87.3128 76.6875H107.663C107.262 72.6589 103.082 69.1486 97.4878 69.1486C91.8931 69.1486 87.7139 72.6589 87.3128 76.6875ZM84.6562 77.3224C84.6562 71.1315 90.651 66.5236 97.4878 66.5236C104.325 66.5236 110.319 71.1315 110.319 77.3224C110.319 78.5034 109.333 79.3125 108.3 79.3125H86.6761C85.6421 79.3125 84.6562 78.5034 84.6562 77.3224Z" fill="#C34922" style="fill:#C34922;fill:color(display-p3 0.7647 0.2863 0.1333);fill-opacity:1;"/>
<path fill-rule="evenodd" clip-rule="evenodd" d="M113.393 54.7529C114.315 54.1882 115.48 53.9375 116.812 53.9375C118.407 53.9375 119.763 54.3285 120.738 55.0719C121.728 55.8271 122.281 56.9176 122.281 58.1883C122.281 60.2326 121.05 61.1949 120.042 61.983C120.007 62.0105 119.972 62.0378 119.938 62.0649C119.409 62.4797 118.961 62.8466 118.632 63.3169C118.318 63.7656 118.096 64.3342 118.096 65.1705V65.341C118.096 66.0501 117.522 66.625 116.812 66.625C116.103 66.625 115.529 66.0501 115.529 65.341V65.1705C115.529 64.0143 115.824 63.1255 116.287 62.4066C116.741 61.7019 117.337 61.1935 117.871 60.7724C117.983 60.6839 118.091 60.6005 118.194 60.5207C118.609 60.1994 118.95 59.9346 119.223 59.6248C119.532 59.2739 119.713 58.9032 119.713 58.3854C119.713 57.5793 119.415 57.0269 118.95 56.6601C118.466 56.2773 117.735 56.0482 116.813 56.0482C115.924 56.0482 115.29 56.233 114.855 56.5231C114.431 56.8056 114.139 57.2239 113.99 57.8102C113.852 58.3503 113.372 58.8445 112.706 58.8445C111.968 58.8445 111.275 58.1636 111.507 57.3214C111.818 56.1958 112.454 55.3272 113.393 54.7529Z" fill="#C34922" style="fill:#C34922;fill:color(display-p3 0.7647 0.2863 0.1333);fill-opacity:1;"/>
<path fill-rule="evenodd" clip-rule="evenodd" d="M115.281 71.2188C115.281 70.3731 115.967 69.6875 116.812 69.6875C117.658 69.6875 118.344 70.3731 118.344 71.2188C118.344 72.0644 117.658 72.75 116.812 72.75C115.967 72.75 115.281 72.0644 115.281 71.2188Z" fill="#C34922" style="fill:#C34922;fill:color(display-p3 0.7647 0.2863 0.1333);fill-opacity:1;"/>
<path d="M79.9893 38C79.7228 51.8525 68.4123 63 54.4961 63C52.962 63 51.4595 62.8641 50 62.6045C50.2113 48.9798 61.3211 38 74.9961 38H79.9893Z" fill="#FCCDC5" style="fill:#FCCDC5;fill:color(display-p3 0.9882 0.8039 0.7725);fill-opacity:1;"/>
<path d="M48.5 66C48.5 49.7076 61.7076 36.5 78 36.5V38L77.2773 38.0088C62.1474 38.3921 50 50.7776 50 66C50 81.464 62.536 94 78 94H130C145.464 94 158 81.464 158 66C158 50.7776 145.853 38.3921 130.723 38.0088L130 38V36.5C146.292 36.5 159.5 49.7076 159.5 66C159.5 82.2924 146.292 95.5 130 95.5H78C61.7076 95.5 48.5 82.2924 48.5 66ZM130 36.5V38H78V36.5H130Z" fill="#C34922" style="fill:#C34922;fill:color(display-p3 0.7647 0.2863 0.1333);fill-opacity:1;"/>
<path d="M198.968 117.289C200.53 118.851 200.53 121.384 198.968 122.946C197.406 124.508 194.873 124.508 193.311 122.946L173.512 103.147L179.169 97.49L198.968 117.289Z" fill="#B6C5E3" style="fill:#B6C5E3;fill:color(display-p3 0.7127 0.7720 0.8907);fill-opacity:1;"/>
<path d="M185.466 103.799C185.15 105.102 184.485 106.337 183.468 107.354C182.407 108.415 181.109 109.093 179.744 109.39L175.398 105.044L181.055 99.3872L185.466 103.799Z" fill="#98A8CA" style="fill:#98A8CA;fill:color(display-p3 0.5961 0.6588 0.7922);fill-opacity:1;"/>
<path d="M193.904 122.239C195.076 123.411 196.975 123.411 198.147 122.239C199.318 121.067 199.318 119.168 198.147 117.996L179.055 98.9042L174.812 103.147L193.904 122.239ZM171.984 103.147L179.055 96.0757L199.561 116.582C201.513 118.535 201.513 121.701 199.561 123.653C197.608 125.606 194.442 125.606 192.49 123.653L171.984 103.147Z" fill="#61739A" style="fill:#61739A;fill:color(display-p3 0.3804 0.4510 0.6039);fill-opacity:1;"/>
<path d="M187.398 82.3872C187.398 97.8512 174.862 110.387 159.398 110.387C143.934 110.387 131.398 97.8512 131.398 82.3872C131.398 66.9232 143.934 54.3872 159.398 54.3872C174.862 54.3872 187.398 66.9232 187.398 82.3872Z" fill="#C0CBE2" style="fill:#C0CBE2;fill:color(display-p3 0.7542 0.7958 0.8858);fill-opacity:1;"/>
<path d="M185.398 82.3872C185.398 68.0278 173.758 56.3872 159.398 56.3872C145.039 56.3872 133.398 68.0278 133.398 82.3872C133.398 96.7466 145.039 108.387 159.398 108.387V110.387C143.934 110.387 131.398 97.8512 131.398 82.3872C131.398 66.9232 143.934 54.3872 159.398 54.3872C174.862 54.3872 187.398 66.9232 187.398 82.3872C187.398 97.8512 174.862 110.387 159.398 110.387V108.387C173.758 108.387 185.398 96.7466 185.398 82.3872Z" fill="#61739A" style="fill:#61739A;fill:color(display-p3 0.3804 0.4510 0.6039);fill-opacity:1;"/>
<path d="M180.398 82.3872C180.398 93.9852 170.996 103.387 159.398 103.387C147.8 103.387 138.398 93.9852 138.398 82.3872C138.398 70.7892 147.8 61.3872 159.398 61.3872C170.996 61.3872 180.398 70.7892 180.398 82.3872Z" fill="#E8ECF5" style="fill:#E8ECF5;fill:color(display-p3 0.9098 0.9255 0.9608);fill-opacity:1;"/>
<path d="M178.398 82.3872C178.398 71.8938 169.892 63.3872 159.398 63.3872C148.905 63.3872 140.398 71.8938 140.398 82.3872C140.398 92.8806 148.905 101.387 159.398 101.387V103.387C147.8 103.387 138.398 93.9852 138.398 82.3872C138.398 70.7892 147.8 61.3872 159.398 61.3872C170.996 61.3872 180.398 70.7892 180.398 82.3872C180.398 93.9852 170.996 103.387 159.398 103.387V101.387C169.892 101.387 178.398 92.8806 178.398 82.3872Z" fill="#61739A" style="fill:#61739A;fill:color(display-p3 0.3804 0.4510 0.6039);fill-opacity:1;"/>
<path d="M177.514 77.6377C177.992 79.2615 178.25 80.9764 178.25 82.75C178.25 92.9673 169.743 101.25 159.25 101.25C148.757 101.25 140.25 92.9673 140.25 82.75C140.25 81.0273 140.492 79.3596 140.944 77.7773C146.657 79.5138 152.719 80.4492 159 80.4492C165.449 80.4492 171.667 79.4646 177.514 77.6377Z" fill="#D9E0EE" style="fill:#D9E0EE;fill:color(display-p3 0.8510 0.8784 0.9333);fill-opacity:1;"/>
</svg>
