<svg width="240" height="160" viewBox="0 0 240 160" fill="none" xmlns="http://www.w3.org/2000/svg">
<path d="M128 77.5C128 66.1782 137.178 57 148.5 57H218.5C229.822 57 239 66.1782 239 77.5C239 88.8218 229.822 98 218.5 98H148.5C137.178 98 128 88.8218 128 77.5Z" fill="#A9ADF8" style="fill:#A9ADF8;fill:color(display-p3 0.6627 0.6784 0.9725);fill-opacity:1;"/>
<path d="M130 75C130 65.6112 137.611 58 147 58H214C223.389 58 231 65.6112 231 75C231 84.3888 223.389 92 214 92H147C137.611 92 130 84.3888 130 75Z" fill="white" fill-opacity="0.4" style="fill:white;fill-opacity:0.4;"/>
<path d="M214.088 85.2344C213.127 85.2344 212.542 84.625 212.565 83.6875L212.752 79.3281L208.721 81.9531C208.463 82.1172 208.159 82.2109 207.807 82.2109C207.081 82.2109 206.377 81.6484 206.377 80.7109C206.377 80.125 206.659 79.7266 207.245 79.3984L211.44 77.125L207.245 74.8516C206.659 74.5234 206.377 74.125 206.377 73.5391C206.377 72.6016 207.081 72.0391 207.807 72.0391C208.159 72.0391 208.463 72.1328 208.721 72.2969L212.752 74.8516L212.565 70.3047C212.542 69.3672 213.127 68.7578 214.088 68.7578C215.002 68.7578 215.542 69.3203 215.518 70.3047L215.331 74.8516L219.315 72.2969C219.573 72.1328 219.877 72.0391 220.229 72.0391C220.956 72.0391 221.659 72.6016 221.659 73.5391C221.659 74.125 221.377 74.5234 220.792 74.8516L216.596 77.125L220.792 79.3984C221.377 79.7266 221.659 80.125 221.659 80.7109C221.659 81.6484 220.956 82.2109 220.229 82.2109C219.877 82.2109 219.573 82.1172 219.315 81.9531L215.331 79.3281L215.518 83.6875C215.542 84.6719 215.002 85.2344 214.088 85.2344Z" fill="#3E47DD" style="fill:#3E47DD;fill:color(display-p3 0.2447 0.2785 0.8652);fill-opacity:1;"/>
<path d="M195.278 85.2344C194.317 85.2344 193.731 84.625 193.754 83.6875L193.942 79.3281L189.911 81.9531C189.653 82.1172 189.348 82.2109 188.997 82.2109C188.27 82.2109 187.567 81.6484 187.567 80.7109C187.567 80.125 187.848 79.7266 188.434 79.3984L192.629 77.125L188.434 74.8516C187.848 74.5234 187.567 74.125 187.567 73.5391C187.567 72.6016 188.27 72.0391 188.997 72.0391C189.348 72.0391 189.653 72.1328 189.911 72.2969L193.942 74.8516L193.754 70.3047C193.731 69.3672 194.317 68.7578 195.278 68.7578C196.192 68.7578 196.731 69.3203 196.708 70.3047L196.52 74.8516L200.504 72.2969C200.762 72.1328 201.067 72.0391 201.418 72.0391C202.145 72.0391 202.848 72.6016 202.848 73.5391C202.848 74.125 202.567 74.5234 201.981 74.8516L197.786 77.125L201.981 79.3984C202.567 79.7266 202.848 80.125 202.848 80.7109C202.848 81.6484 202.145 82.2109 201.418 82.2109C201.067 82.2109 200.762 82.1172 200.504 81.9531L196.52 79.3281L196.708 83.6875C196.731 84.6719 196.192 85.2344 195.278 85.2344Z" fill="#3E47DD" style="fill:#3E47DD;fill:color(display-p3 0.2447 0.2785 0.8652);fill-opacity:1;"/>
<path d="M176.467 85.2344C175.506 85.2344 174.92 84.625 174.943 83.6875L175.131 79.3281L171.1 81.9531C170.842 82.1172 170.537 82.2109 170.186 82.2109C169.459 82.2109 168.756 81.6484 168.756 80.7109C168.756 80.125 169.037 79.7266 169.623 79.3984L173.818 77.125L169.623 74.8516C169.037 74.5234 168.756 74.125 168.756 73.5391C168.756 72.6016 169.459 72.0391 170.186 72.0391C170.537 72.0391 170.842 72.1328 171.1 72.2969L175.131 74.8516L174.943 70.3047C174.92 69.3672 175.506 68.7578 176.467 68.7578C177.381 68.7578 177.92 69.3203 177.896 70.3047L177.709 74.8516L181.693 72.2969C181.951 72.1328 182.256 72.0391 182.607 72.0391C183.334 72.0391 184.037 72.6016 184.037 73.5391C184.037 74.125 183.756 74.5234 183.17 74.8516L178.975 77.125L183.17 79.3984C183.756 79.7266 184.037 80.125 184.037 80.7109C184.037 81.6484 183.334 82.2109 182.607 82.2109C182.256 82.2109 181.951 82.1172 181.693 81.9531L177.709 79.3281L177.896 83.6875C177.92 84.6719 177.381 85.2344 176.467 85.2344Z" fill="#3E47DD" style="fill:#3E47DD;fill:color(display-p3 0.2447 0.2785 0.8652);fill-opacity:1;"/>
<path d="M157.656 85.2344C156.695 85.2344 156.109 84.625 156.133 83.6875L156.32 79.3281L152.289 81.9531C152.031 82.1172 151.727 82.2109 151.375 82.2109C150.648 82.2109 149.945 81.6484 149.945 80.7109C149.945 80.125 150.227 79.7266 150.812 79.3984L155.008 77.125L150.812 74.8516C150.227 74.5234 149.945 74.125 149.945 73.5391C149.945 72.6016 150.648 72.0391 151.375 72.0391C151.727 72.0391 152.031 72.1328 152.289 72.2969L156.32 74.8516L156.133 70.3047C156.109 69.3672 156.695 68.7578 157.656 68.7578C158.57 68.7578 159.109 69.3203 159.086 70.3047L158.898 74.8516L162.883 72.2969C163.141 72.1328 163.445 72.0391 163.797 72.0391C164.523 72.0391 165.227 72.6016 165.227 73.5391C165.227 74.125 164.945 74.5234 164.359 74.8516L160.164 77.125L164.359 79.3984C164.945 79.7266 165.227 80.125 165.227 80.7109C165.227 81.6484 164.523 82.2109 163.797 82.2109C163.445 82.2109 163.141 82.1172 162.883 81.9531L158.898 79.3281L159.086 83.6875C159.109 84.6719 158.57 85.2344 157.656 85.2344Z" fill="#3E47DD" style="fill:#3E47DD;fill:color(display-p3 0.2447 0.2785 0.8652);fill-opacity:1;"/>
<path d="M218.5 96.5V98H148.5V96.5H218.5ZM237.5 77.5C237.5 67.0066 228.993 58.5 218.5 58.5H148.5C138.007 58.5 129.5 67.0066 129.5 77.5C129.5 87.9934 138.007 96.5 148.5 96.5V98C137.178 98 128 88.8218 128 77.5C128 66.3551 136.893 57.2876 147.971 57.0068L148.5 57H218.5L219.029 57.0068C230.107 57.2876 239 66.3551 239 77.5C239 88.8218 229.822 98 218.5 98V96.5C228.993 96.5 237.5 87.9934 237.5 77.5Z" fill="#3E47DD" style="fill:#3E47DD;fill:color(display-p3 0.2447 0.2785 0.8652);fill-opacity:1;"/>
<path d="M0 48.5C0 37.1782 9.17816 28 20.5 28H91.5C102.822 28 112 37.1782 112 48.5C112 59.8218 102.822 69 91.5 69H20.5C9.17816 69 0 59.8218 0 48.5Z" fill="#F99887" style="fill:#F99887;fill:color(display-p3 0.9765 0.5961 0.5294);fill-opacity:1;"/>
<path d="M2 46C2 36.6112 9.3873 29 18.5 29H86.5C95.6127 29 103 36.6112 103 46C103 55.3888 95.6127 63 86.5 63H18.5C9.3873 63 2 55.3888 2 46Z" fill="#FBC1B7" style="fill:#FBC1B7;fill:color(display-p3 0.9843 0.7569 0.7176);fill-opacity:1;"/>
<path d="M17 41.5C17 40.6716 17.6716 40 18.5 40H90.5C91.3284 40 92 40.6716 92 41.5C92 42.3284 91.3284 43 90.5 43H18.5C17.6716 43 17 42.3284 17 41.5Z" fill="#C34922" style="fill:#C34922;fill:color(display-p3 0.7647 0.2863 0.1333);fill-opacity:1;"/>
<path d="M17 51.5C17 50.6716 17.6716 50 18.5 50H56.5C57.3284 50 58 50.6716 58 51.5C58 52.3284 57.3284 53 56.5 53H18.5C17.6716 53 17 52.3284 17 51.5Z" fill="#C34922" style="fill:#C34922;fill:color(display-p3 0.7647 0.2863 0.1333);fill-opacity:1;"/>
<path d="M91.5 67.5V69H20.5L20.5 67.5H91.5ZM110.5 48.5C110.5 38.0066 101.993 29.5 91.5 29.5H20.5C10.0066 29.5 1.5 38.0066 1.5 48.5C1.5 58.9934 10.0066 67.5 20.5 67.5L20.5 69C9.17816 69 0 59.8218 0 48.5C0 37.1782 9.17816 28 20.5 28H91.5L92.0293 28.0068C103.107 28.2876 112 37.3551 112 48.5C112 59.6449 103.107 68.7124 92.0293 68.9932L91.5 69V67.5C101.993 67.5 110.5 58.9934 110.5 48.5Z" fill="#C34922" style="fill:#C34922;fill:color(display-p3 0.7647 0.2863 0.1333);fill-opacity:1;"/>
<path d="M82 91C82 71.1178 98.1178 55 118 55C137.882 55 154 71.1178 154 91C154 110.882 137.882 127 118 127C98.1178 127 82 110.882 82 91Z" fill="#C0CBE2" style="fill:#C0CBE2;fill:color(display-p3 0.7542 0.7958 0.8858);fill-opacity:1;"/>
<path d="M118 55C121.151 55 124.207 55.4064 127.12 56.167C138.281 61.4588 146 72.8272 146 86C146 104.225 131.225 119 113 119C99.8272 119 88.4588 111.281 83.167 100.12C82.4064 97.2073 82 94.1511 82 91C82 71.1178 98.1178 55 118 55Z" fill="#D0D8E9" style="fill:#D0D8E9;fill:color(display-p3 0.8157 0.8471 0.9137);fill-opacity:1;"/>
<path d="M111.477 105.373C113.18 106.148 115.047 106.629 117.016 106.75L116.875 109C114.696 108.866 112.622 108.344 110.72 107.504L110.947 105.133L111.477 105.373ZM126.027 107.153C123.927 108.199 121.593 108.848 119.125 109L118.984 106.75C121.143 106.617 123.185 106.05 125.023 105.135L126.027 107.153ZM102.442 105.346C102.292 106.068 102.932 106.708 103.654 106.558L108.855 105.475L108.63 107.824L104.114 108.765C101.802 109.246 99.7535 107.198 100.235 104.886L101.176 100.37L103.526 100.145L102.442 105.346ZM133.026 100.975C131.695 102.976 129.976 104.695 127.975 106.026L126.729 104.148C128.479 102.984 129.984 101.478 131.148 99.7275L133.026 100.975ZM118 77.4746C125.47 77.4746 131.525 83.53 131.525 91C131.525 98.47 125.47 104.525 118 104.525C115.673 104.525 113.483 103.938 111.571 102.903L104.656 104.344L106.097 97.4287C105.062 95.5166 104.475 93.3268 104.475 91C104.475 83.5301 110.53 77.4747 118 77.4746ZM136 92.125C135.848 94.5927 135.199 96.9267 134.153 99.0273L132.135 98.0234C133.05 96.1854 133.617 94.1436 133.75 91.9844L136 92.125ZM102.25 91.9844C102.371 93.9527 102.852 95.8198 103.627 97.5234L103.867 98.0527L101.496 98.2803C100.656 96.3785 100.135 94.304 100.001 92.125L102.25 91.9844ZM103.865 83.9766C102.95 85.8146 102.383 87.8564 102.25 90.0156L100.001 89.875C100.153 87.4074 100.801 85.0742 101.847 82.9736L103.865 83.9766ZM134.153 82.9727C135.199 85.0733 135.848 87.4073 136 89.875L133.75 90.0156C133.617 87.8565 133.05 85.8146 132.135 83.9766L134.153 82.9727ZM109.272 77.8516C107.522 79.0161 106.016 80.5216 104.852 82.2725L102.974 81.0254C104.305 79.0244 106.024 77.3046 108.025 75.9736L109.272 77.8516ZM127.975 75.9736C129.976 77.3045 131.695 79.0244 133.026 81.0254L131.148 82.2725C129.984 80.5216 128.478 79.0161 126.728 77.8516L127.975 75.9736ZM117.016 75.25C114.856 75.3829 112.815 75.9502 110.977 76.8652L109.973 74.8467C112.073 73.8008 114.407 73.1519 116.875 73L117.016 75.25ZM119.125 73C121.593 73.1519 123.927 73.8008 126.027 74.8467L125.023 76.8652C123.185 75.9502 121.144 75.3829 118.984 75.25L119.125 73Z" fill="#566B98" style="fill:#566B98;fill:color(display-p3 0.3388 0.4201 0.5963);fill-opacity:1;"/>
<path d="M152 91C152 72.2223 136.778 57 118 57C99.2223 57 84 72.2223 84 91C84 109.778 99.2223 125 118 125V127C98.1178 127 82 110.882 82 91C82 71.1178 98.1178 55 118 55C137.882 55 154 71.1178 154 91C154 110.882 137.882 127 118 127V125C136.778 125 152 109.778 152 91Z" fill="#61739A" style="fill:#61739A;fill:color(display-p3 0.3804 0.4510 0.6039);fill-opacity:1;"/>
<path fill-rule="evenodd" clip-rule="evenodd" d="M140 107C132.268 107 126 113.268 126 121C126 128.732 132.268 135 140 135C147.732 135 154 128.732 154 121C154 113.268 147.732 107 140 107Z" fill="#C34922" style="fill:#C34922;fill:color(display-p3 0.7647 0.2863 0.1333);fill-opacity:1;"/>
<path d="M140 107C147.732 107 154 113.268 154 121C154 128.732 147.732 135 140 135C132.268 135 126 128.732 126 121C126 113.268 132.268 107 140 107ZM140 109C133.373 109 128 114.373 128 121C128 127.627 133.373 133 140 133C146.627 133 152 127.627 152 121C152 114.373 146.627 109 140 109Z" fill="#B4320A" style="fill:#B4320A;fill:color(display-p3 0.7065 0.1975 0.0388);fill-opacity:1;"/>
<path fill-rule="evenodd" clip-rule="evenodd" d="M145.537 117.537C146.044 117.029 146.044 116.206 145.537 115.698C145.029 115.19 144.206 115.19 143.698 115.698L140.117 119.279L136.537 115.698C136.029 115.19 135.206 115.19 134.698 115.698C134.19 116.206 134.19 117.029 134.698 117.537L138.279 121.117L134.698 124.698C134.19 125.206 134.19 126.029 134.698 126.537C135.206 127.044 136.029 127.044 136.537 126.537L140.117 122.956L143.698 126.537C144.206 127.044 145.029 127.044 145.537 126.537C146.044 126.029 146.044 125.206 145.537 124.698L141.956 121.117L145.537 117.537Z" fill="white" style="fill:white;fill-opacity:1;"/>
</svg>
