<svg width="240" height="160" viewBox="0 0 240 160" fill="none" xmlns="http://www.w3.org/2000/svg">
<path d="M17 98C17 82.536 29.536 70 45 70C60.464 70 73 82.536 73 98C73 113.464 60.464 126 45 126C29.536 126 17 113.464 17 98Z" fill="#FAAD9F" style="fill:#FAAD9F;fill:color(display-p3 0.9804 0.6784 0.6235);fill-opacity:1;"/>
<path d="M45 70C50.9418 70 56.4502 71.8523 60.9824 75.0088C64.7446 79.649 67 85.5608 67 92C67 106.912 54.9117 119 40 119C31.793 119 24.4422 115.337 19.4902 109.559C17.8911 106.035 17 102.122 17 98C17 82.536 29.536 70 45 70Z" fill="#FBBEB2" style="fill:#FBBEB2;fill:color(display-p3 0.9824 0.7433 0.6976);fill-opacity:1;"/>
<path d="M71 98C71 83.6406 59.3594 72 45 72C30.6406 72 19 83.6406 19 98C19 112.359 30.6406 124 45 124V126C29.536 126 17 113.464 17 98C17 82.536 29.536 70 45 70C60.464 70 73 82.536 73 98C73 113.464 60.464 126 45 126V124C59.3594 124 71 112.359 71 98Z" fill="#C34922" style="fill:#C34922;fill:color(display-p3 0.7650 0.2847 0.1350);fill-opacity:1;"/>
<path d="M41 99C42.6569 99 44 100.343 44 102V108C44 109.657 42.6569 111 41 111H35C33.3431 111 32 109.657 32 108V102C32 100.343 33.3431 99 35 99H41ZM55 99C56.6569 99 58 100.343 58 102V108C58 109.657 56.6569 111 55 111H49C47.3431 111 46 109.657 46 108V102C46 100.343 47.3431 99 49 99H55ZM41 85C42.6569 85 44 86.3431 44 88V94C44 95.6569 42.6569 97 41 97H35C33.3431 97 32 95.6569 32 94V88C32 86.3431 33.3431 85 35 85H41ZM55 85C56.6569 85 58 86.3431 58 88V94C58 95.6569 56.6569 97 55 97H49C47.3431 97 46 95.6569 46 94V88C46 86.3431 47.3431 85 49 85H55Z" fill="#C34922" style="fill:#C34922;fill:color(display-p3 0.7650 0.2847 0.1350);fill-opacity:1;"/>
<path d="M51 75C51 59.536 63.536 47 79 47C94.464 47 107 59.536 107 75C107 90.464 94.464 103 79 103C63.536 103 51 90.464 51 75Z" fill="#FAAD9F" style="fill:#FAAD9F;fill:color(display-p3 0.9804 0.6784 0.6235);fill-opacity:1;"/>
<path d="M79 47C84.9418 47 90.4502 48.8523 94.9824 52.0088C98.7446 56.649 101 62.5608 101 69C101 83.9117 88.9117 96 74 96C65.793 96 58.4422 92.3374 53.4902 86.5586C51.8911 83.0349 51 79.1216 51 75C51 59.536 63.536 47 79 47Z" fill="#FBBEB2" style="fill:#FBBEB2;fill:color(display-p3 0.9824 0.7433 0.6976);fill-opacity:1;"/>
<path d="M105 75C105 60.6406 93.3594 49 79 49C64.6406 49 53 60.6406 53 75C53 89.3594 64.6406 101 79 101V103C63.536 103 51 90.464 51 75C51 59.536 63.536 47 79 47C94.464 47 107 59.536 107 75C107 90.464 94.464 103 79 103V101C93.3594 101 105 89.3594 105 75Z" fill="#C34922" style="fill:#C34922;fill:color(display-p3 0.7650 0.2847 0.1350);fill-opacity:1;"/>
<path d="M69.2974 88C67.8638 88 67 87.1225 67 85.6236V63.4313C67 61.914 67.9373 61 69.4628 61C70.5104 61 71.1537 61.3656 71.9256 62.4076L84.2765 79.7921H84.4419V63.3764C84.4419 61.8775 85.3058 61 86.721 61C88.1546 61 89 61.8775 89 63.3764V85.6418C89 87.1408 88.1362 88 86.5923 88C85.5079 88 84.883 87.6527 84.1295 86.5924L71.7419 69.1896H71.5764V85.6236C71.5764 87.1225 70.7126 88 69.2974 88Z" fill="#C34922" style="fill:#C34922;fill:color(display-p3 0.7650 0.2847 0.1350);fill-opacity:1;"/>
<path d="M92 62C92 46.536 104.536 34 120 34C135.464 34 148 46.536 148 62C148 77.464 135.464 90 120 90C104.536 90 92 77.464 92 62Z" fill="#FAAD9F" style="fill:#FAAD9F;fill:color(display-p3 0.9804 0.6784 0.6235);fill-opacity:1;"/>
<path d="M120 34C125.942 34 131.45 35.8523 135.982 39.0088C139.745 43.649 142 49.5608 142 56C142 70.9117 129.912 83 115 83C106.793 83 99.4422 79.3374 94.4902 73.5586C92.8911 70.0349 92 66.1216 92 62C92 46.536 104.536 34 120 34Z" fill="#FBBEB2" style="fill:#FBBEB2;fill:color(display-p3 0.9824 0.7433 0.6976);fill-opacity:1;"/>
<path d="M146 62C146 47.6406 134.359 36 120 36C105.641 36 94 47.6406 94 62C94 76.3594 105.641 88 120 88V90C104.536 90 92 77.464 92 62C92 46.536 104.536 34 120 34C135.464 34 148 46.536 148 62C148 77.464 135.464 90 120 90V88C134.359 88 146 76.3594 146 62Z" fill="#C34922" style="fill:#C34922;fill:color(display-p3 0.7650 0.2847 0.1350);fill-opacity:1;"/>
<path d="M119.569 67.9049C118.133 67.9049 117.268 66.9745 117.268 65.5871V64.8362C117.268 62.192 118.949 60.4291 121.365 58.8132C123.699 57.2789 124.939 56.1526 124.939 53.998C124.939 51.5986 122.85 50.0317 120.141 50.0317C117.904 50.0317 116.191 51.0273 115.407 53.5737C115.048 54.553 114.232 55.1243 113.171 55.1243C111.8 55.1243 111 54.2592 111 52.986C111 52.2679 111.163 51.4844 111.539 50.7172C112.959 47.7465 116.305 46 120.353 46C125.821 46 129.885 48.9544 129.885 53.9491C129.885 57.0667 128.237 59.2213 125.315 61.0984C122.654 62.8285 121.92 63.6447 121.773 65.5218C121.773 65.6523 121.757 65.8156 121.757 65.9625C121.61 67.154 120.875 67.9049 119.569 67.9049ZM119.602 77.1271C117.986 77.1271 116.664 75.8376 116.664 74.2543C116.664 72.6547 117.986 71.3979 119.602 71.3979C121.234 71.3979 122.556 72.6547 122.556 74.2543C122.556 75.8376 121.234 77.1271 119.602 77.1271Z" fill="#C34922" style="fill:#C34922;fill:color(display-p3 0.7650 0.2847 0.1350);fill-opacity:1;"/>
<path d="M134 75C134 59.536 146.536 47 162 47C177.464 47 190 59.536 190 75C190 90.464 177.464 103 162 103C146.536 103 134 90.464 134 75Z" fill="#FAAD9F" style="fill:#FAAD9F;fill:color(display-p3 0.9804 0.6784 0.6235);fill-opacity:1;"/>
<path d="M162 47C167.942 47 173.45 48.8523 177.982 52.0088C181.745 56.649 184 62.5608 184 69C184 83.9117 171.912 96 157 96C148.793 96 141.442 92.3374 136.49 86.5586C134.891 83.0349 134 79.1216 134 75C134 59.536 146.536 47 162 47Z" fill="#FBBEB2" style="fill:#FBBEB2;fill:color(display-p3 0.9824 0.7433 0.6976);fill-opacity:1;"/>
<path d="M188 75C188 60.6406 176.359 49 162 49C147.641 49 136 60.6406 136 75C136 89.3594 147.641 101 162 101V103C146.536 103 134 90.464 134 75C134 59.536 146.536 47 162 47C177.464 47 190 59.536 190 75C190 90.464 177.464 103 162 103V101C176.359 101 188 89.3594 188 75Z" fill="#C34922" style="fill:#C34922;fill:color(display-p3 0.7650 0.2847 0.1350);fill-opacity:1;"/>
<path d="M180 72C179.683 72.6867 179.357 73.3352 178.984 73.9825C175.773 79.8268 169.023 84.1779 161.956 83.9944C154.966 83.9211 148.24 80.0512 144.895 74.057C144.539 73.3952 144.224 72.6947 144 72C144.565 72.436 145.16 72.8337 145.753 73.1828C151.172 76.2164 156.743 77.3009 162.016 77.4119C167.299 77.4777 172.605 76.1744 178.153 73.0799C178.769 72.7376 179.372 72.3907 180 72Z" fill="#C34922" style="fill:#C34922;fill:color(display-p3 0.7650 0.2847 0.1350);fill-opacity:1;"/>
<path d="M168 98C168 82.536 180.536 70 196 70C211.464 70 224 82.536 224 98C224 113.464 211.464 126 196 126C180.536 126 168 113.464 168 98Z" fill="#FAAD9F" style="fill:#FAAD9F;fill:color(display-p3 0.9804 0.6784 0.6235);fill-opacity:1;"/>
<path d="M196 70C201.942 70 207.45 71.8523 211.982 75.0088C215.745 79.649 218 85.5608 218 92C218 106.912 205.912 119 191 119C182.793 119 175.442 115.337 170.49 109.559C168.891 106.035 168 102.122 168 98C168 82.536 180.536 70 196 70Z" fill="#FBBEB2" style="fill:#FBBEB2;fill:color(display-p3 0.9824 0.7433 0.6976);fill-opacity:1;"/>
<path d="M222 98C222 83.6406 210.359 72 196 72C181.641 72 170 83.6406 170 98C170 112.359 181.641 124 196 124V126C180.536 126 168 113.464 168 98C168 82.536 180.536 70 196 70C211.464 70 224 82.536 224 98C224 113.464 211.464 126 196 126V124C210.359 124 222 112.359 222 98Z" fill="#C34922" style="fill:#C34922;fill:color(display-p3 0.7650 0.2847 0.1350);fill-opacity:1;"/>
<path d="M183.324 91.3224C182.585 91.3224 182.155 90.7788 182.155 90.2216C182.155 89.814 182.37 89.4606 182.881 89.1753L194.354 82.4756C194.865 82.1631 195.442 82 195.993 82C196.544 82 197.108 82.1631 197.646 82.4756L209.119 89.1753C209.616 89.4606 209.845 89.814 209.845 90.2216C209.845 90.7788 209.415 91.3224 208.676 91.3224H183.324ZM184.063 107.766C183.566 107.766 183.27 107.48 183.27 106.964V106.774C183.27 106.271 183.566 105.985 184.063 105.985H184.842V94.1354H184.063C183.566 94.1354 183.27 93.85 183.27 93.3472V93.157C183.27 92.6542 183.566 92.3552 184.063 92.3552H187.65C188.147 92.3552 188.443 92.6542 188.443 93.157V93.3472C188.443 93.85 188.147 94.1354 187.65 94.1354H186.871V105.985H187.65C188.147 105.985 188.443 106.271 188.443 106.774V106.964C188.443 107.48 188.147 107.766 187.65 107.766H184.063ZM190.834 107.766C190.324 107.766 190.042 107.48 190.042 106.964V106.774C190.042 106.271 190.324 105.985 190.834 105.985H191.6V94.1354H190.834C190.324 94.1354 190.042 93.85 190.042 93.3472V93.157C190.042 92.6542 190.324 92.3552 190.834 92.3552H194.408C194.919 92.3552 195.201 92.6542 195.201 93.157V93.3472C195.201 93.85 194.919 94.1354 194.408 94.1354H193.629V105.985H194.408C194.919 105.985 195.201 106.271 195.201 106.774V106.964C195.201 107.48 194.919 107.766 194.408 107.766H190.834ZM197.592 107.766C197.081 107.766 196.799 107.48 196.799 106.964V106.774C196.799 106.271 197.081 105.985 197.592 105.985H198.371V94.1354H197.592C197.081 94.1354 196.799 93.85 196.799 93.3472V93.157C196.799 92.6542 197.081 92.3552 197.592 92.3552H201.166C201.676 92.3552 201.972 92.6542 201.972 93.157V93.3472C201.972 93.85 201.676 94.1354 201.166 94.1354H200.4V105.985H201.166C201.676 105.985 201.972 106.271 201.972 106.774V106.964C201.972 107.48 201.676 107.766 201.166 107.766H197.592ZM204.35 107.766C203.853 107.766 203.557 107.48 203.557 106.964V106.774C203.557 106.271 203.853 105.985 204.35 105.985H205.142V94.1354H204.35C203.853 94.1354 203.557 93.85 203.557 93.3472V93.157C203.557 92.6542 203.853 92.3552 204.35 92.3552H207.937C208.434 92.3552 208.73 92.6542 208.73 93.157V93.3472C208.73 93.85 208.434 94.1354 207.937 94.1354H207.171V105.985H207.937C208.434 105.985 208.73 106.271 208.73 106.774V106.964C208.73 107.48 208.434 107.766 207.937 107.766H204.35ZM182.075 111C181.484 111 181 110.497 181 109.899C181 109.301 181.484 108.812 182.075 108.812H209.912C210.503 108.812 211 109.301 211 109.899C211 110.497 210.503 111 209.912 111H182.075Z" fill="#C34922" style="fill:#C34922;fill:color(display-p3 0.7650 0.2847 0.1350);fill-opacity:1;"/>
</svg>
