<svg width="240" height="160" viewBox="0 0 240 160" fill="none" xmlns="http://www.w3.org/2000/svg">
<path d="M18 60C18 48.9543 26.9543 40 38 40H90C101.046 40 110 48.9543 110 60C110 71.0457 101.046 80 90 80H26C21.5817 80 18 76.4183 18 72V60Z" fill="#C0CBE2" style="fill:#C0CBE2;fill:color(display-p3 0.7542 0.7958 0.8858);fill-opacity:1;"/>
<path d="M90 78.5V80H26L26 78.5H90ZM108.5 60C108.5 49.7827 100.217 41.5 90 41.5H38C27.7827 41.5 19.5 49.7827 19.5 60V72C19.5 75.5899 22.4101 78.5 26 78.5L26 80L25.5879 79.9893C21.4976 79.7817 18.2183 76.5024 18.0107 72.4121L18 72V60C18 48.9543 26.9543 40 38 40H90L90.5166 40.0068C101.324 40.2808 110 49.127 110 60C110 70.873 101.324 79.7192 90.5166 79.9932L90 80V78.5C100.217 78.5 108.5 70.2173 108.5 60Z" fill="#61739A" style="fill:#61739A;fill:color(display-p3 0.3804 0.4510 0.6039);fill-opacity:1;"/>
<path d="M20 60C20 50.0589 28.0589 42 38 42H85C93.2843 42 100 48.7157 100 57C100 65.2843 93.2843 72 85 72H29C24.0294 72 20 67.9706 20 63V60Z" fill="#D9E0EE" style="fill:#D9E0EE;fill:color(display-p3 0.8510 0.8784 0.9333);fill-opacity:1;"/>
<path d="M37 60.5C37 59.6716 37.6716 59 38.5 59H87.5C88.3284 59 89 59.6716 89 60.5C89 61.3284 88.3284 62 87.5 62H38.5C37.6716 62 37 61.3284 37 60.5Z" fill="#61739A" style="fill:#61739A;fill:color(display-p3 0.3804 0.4510 0.6039);fill-opacity:1;"/>
<path d="M18 92C18 87.5817 21.5817 84 26 84H174C185.046 84 194 92.9543 194 104V120C194 131.046 185.046 140 174 140H38C26.9543 140 18 131.046 18 120V92Z" fill="#C0CBE2" style="fill:#C0CBE2;fill:color(display-p3 0.7542 0.7958 0.8858);fill-opacity:1;"/>
<path d="M18 120V92C18 87.7199 21.3611 84.2252 25.5879 84.0107L26 84H174L174.517 84.0068C185.324 84.2808 194 93.127 194 104V120L193.993 120.517C193.724 131.152 185.152 139.724 174.517 139.993L174 140V138.5C184.217 138.5 192.5 130.217 192.5 120V104C192.5 93.7827 184.217 85.5 174 85.5H26C22.4101 85.5 19.5 88.4101 19.5 92V120C19.5 130.217 27.7827 138.5 38 138.5L38 140C27.127 140 18.2808 131.324 18.0068 120.517L18 120ZM174 138.5V140H38L38 138.5H174Z" fill="#61739A" style="fill:#61739A;fill:color(display-p3 0.3804 0.4510 0.6039);fill-opacity:1;"/>
<path d="M20 92C20 88.6863 22.6863 86 26 86H166C175.941 86 184 94.0589 184 104V114C184 123.941 175.941 132 166 132H38C28.0589 132 20 123.941 20 114V92Z" fill="#D9E0EE" style="fill:#D9E0EE;fill:color(display-p3 0.8510 0.8784 0.9333);fill-opacity:1;"/>
<path d="M38 103.5C38 102.672 38.6716 102 39.5 102H172.5C173.328 102 174 102.672 174 103.5C174 104.328 173.328 105 172.5 105H39.5C38.6716 105 38 104.328 38 103.5Z" fill="#61739A" style="fill:#61739A;fill:color(display-p3 0.3804 0.4510 0.6039);fill-opacity:1;"/>
<path d="M38 118.5C38 117.672 38.6716 117 39.5 117H112.5C113.328 117 114 117.672 114 118.5C114 119.328 113.328 120 112.5 120H39.5C38.6716 120 38 119.328 38 118.5Z" fill="#61739A" style="fill:#61739A;fill:color(display-p3 0.3804 0.4510 0.6039);fill-opacity:1;"/>
<path fill-rule="evenodd" clip-rule="evenodd" d="M207.5 12.5C213.851 12.5 219 17.6487 219 24C219 29.3131 215.396 33.7817 210.5 35.1016V91.75C210.5 104.591 200.091 115 187.25 115C174.409 115 164 104.591 164 91.75V65.9434C164 62.7913 167.452 60.9168 170.074 62.5225L170.325 62.6885L179.244 69.0586C180.592 70.0217 180.904 71.896 179.941 73.2441C178.978 74.5922 177.104 74.9044 175.756 73.9414L170 69.8291V91.75C170 101.277 177.723 109 187.25 109C196.777 109 204.5 101.277 204.5 91.75V35.1016C199.604 33.7817 196 29.3131 196 24C196 17.6487 201.149 12.5 207.5 12.5ZM207.5 16.5C203.358 16.5 200 19.8579 200 24C200 28.1421 203.358 31.5 207.5 31.5C211.642 31.5 215 28.1421 215 24C215 19.8579 211.642 16.5 207.5 16.5Z" fill="#F99887" style="fill:#F99887;fill:color(display-p3 0.9765 0.5961 0.5294);fill-opacity:1;"/>
<path d="M207.5 11C214.68 11 220.5 16.8203 220.5 24C220.5 29.5994 216.96 34.3637 212 36.1943V91.75C212 105.419 200.919 116.5 187.25 116.5C173.581 116.5 162.5 105.419 162.5 91.75V65.9434C162.5 61.6057 167.247 59.0328 170.857 61.2432L170.88 61.2568L170.901 61.2715L171.152 61.4375L171.175 61.4521L171.197 61.4678L180.116 67.8379C182.138 69.2826 182.606 72.0941 181.162 74.1162C179.717 76.1385 176.906 76.6065 174.884 75.1621L171.5 72.7441V91.75C171.5 100.448 178.552 107.5 187.25 107.5C195.948 107.5 203 100.448 203 91.75V36.1943C198.04 34.3637 194.5 29.5994 194.5 24C194.5 16.8203 200.32 11 207.5 11ZM207.5 12.5C201.149 12.5 196 17.6487 196 24C196 29.3131 199.604 33.7817 204.5 35.1016V91.75C204.5 101.277 196.777 109 187.25 109C177.723 109 170 101.277 170 91.75V69.8291L175.756 73.9414C177.104 74.9044 178.978 74.5922 179.941 73.2441C180.904 71.896 180.592 70.0217 179.244 69.0586L170.325 62.6885L170.074 62.5225C167.452 60.9168 164 62.7913 164 65.9434V91.75C164 104.591 174.409 115 187.25 115C200.091 115 210.5 104.591 210.5 91.75V35.1016C215.396 33.7817 219 29.3131 219 24C219 17.6487 213.851 12.5 207.5 12.5ZM207.5 16.5C211.642 16.5 215 19.8579 215 24C215 28.1421 211.642 31.5 207.5 31.5C203.358 31.5 200 28.1421 200 24C200 19.8579 203.358 16.5 207.5 16.5ZM207.5 18C204.186 18 201.5 20.6863 201.5 24C201.5 27.3137 204.186 30 207.5 30C210.814 30 213.5 27.3137 213.5 24C213.5 20.6863 210.814 18 207.5 18Z" fill="#C34922" style="fill:#C34922;fill:color(display-p3 0.7647 0.2863 0.1333);fill-opacity:1;"/>
<path d="M207.489 12.5C213.841 12.5 218.989 17.6487 218.989 24C218.989 25.6821 218.627 27.279 217.978 28.7188C217.937 28.7674 217.898 28.8164 217.857 28.8643C219.283 21.9386 215.037 15.0386 208.115 13.248C207.007 12.9614 205.895 12.8225 204.8 12.8193C205.663 12.6125 206.563 12.5 207.489 12.5Z" fill="#F57A64" style="fill:#F57A64;fill:color(display-p3 0.9626 0.4765 0.3913);fill-opacity:1;"/>
<path d="M210.5 35.082V91.7305C210.5 104.571 200.091 114.98 187.25 114.98C174.409 114.98 164 104.571 164 91.7305V83.5312C164.999 94.0753 166.933 102.957 172.5 107.48C175.91 111.175 184.298 114.09 192.5 111.98C198.728 110.378 205.999 103.98 207.5 95.9805C208.896 88.5368 209.138 48.3385 209.03 37.0107C209.02 35.9788 209.785 35.1307 210.78 35C210.687 35.0277 210.594 35.0567 210.5 35.082Z" fill="#F57A64" style="fill:#F57A64;fill:color(display-p3 0.9626 0.4765 0.3913);fill-opacity:1;"/>
<path d="M184 106H192.5V121H184V106Z" fill="#C0CBE2" style="fill:#C0CBE2;fill:color(display-p3 0.7542 0.7958 0.8858);fill-opacity:1;"/>
<path d="M178 103H184V116C184 117.105 183.105 118 182 118H178V103Z" fill="#D9E0EE" style="fill:#D9E0EE;fill:color(display-p3 0.8510 0.8784 0.9333);fill-opacity:1;"/>
<path d="M192.5 104H194V119H192.5V104Z" fill="#61739A" style="fill:#61739A;fill:color(display-p3 0.3804 0.4510 0.6039);fill-opacity:1;"/>
</svg>
