<svg width="240" height="160" viewBox="0 0 240 160" fill="none" xmlns="http://www.w3.org/2000/svg">
<path d="M18 99C18 94.5817 21.5817 91 26 91H90C101.046 91 110 99.9543 110 111C110 122.046 101.046 131 90 131H38C26.9543 131 18 122.046 18 111V99Z" fill="#A9ADF8" style="fill:#A9ADF8;fill:color(display-p3 0.6627 0.6784 0.9725);fill-opacity:1;"/>
<path d="M20 99C20 95.6863 22.6863 93 26 93H85C93.2843 93 100 99.7157 100 108C100 116.284 93.2843 123 85 123H38C28.0589 123 20 114.941 20 105V99Z" fill="#CBCEFB" style="fill:#CBCEFB;fill:color(display-p3 0.7961 0.8078 0.9843);fill-opacity:1;"/>
<path d="M37 110.5C37 109.672 37.6716 109 38.5 109H87.5C88.3284 109 89 109.672 89 110.5C89 111.328 88.3284 112 87.5 112H38.5C37.6716 112 37 111.328 37 110.5Z" fill="#3E47DD" style="fill:#3E47DD;fill:color(display-p3 0.2447 0.2785 0.8652);fill-opacity:1;"/>
<path d="M18 111V99C18 94.5817 21.5817 91 26 91H90L90.5166 91.0068C101.324 91.2808 110 100.127 110 111C110 121.873 101.324 130.719 90.5166 130.993L90 131V129.5C100.217 129.5 108.5 121.217 108.5 111C108.5 100.783 100.217 92.5 90 92.5H26C22.4101 92.5 19.5 95.4101 19.5 99V111C19.5 121.217 27.7827 129.5 38 129.5V131C26.9543 131 18 122.046 18 111ZM90 129.5V131H38V129.5H90Z" fill="#3E47DD" style="fill:#3E47DD;fill:color(display-p3 0.2447 0.2785 0.8652);fill-opacity:1;"/>
<path d="M18 48C18 38.0589 26.0589 30 36 30H176C185.941 30 194 38.0589 194 48V68C194 77.9411 185.941 86 176 86H24C20.6863 86 18 83.3137 18 80V48Z" fill="#C0CBE2" style="fill:#C0CBE2;fill:color(display-p3 0.7542 0.7958 0.8858);fill-opacity:1;"/>
<path d="M20 48C20 39.1634 27.1634 32 36 32H166C175.941 32 184 40.0589 184 50V60C184 69.9411 175.941 78 166 78H27C23.134 78 20 74.866 20 71V48Z" fill="#D9E0EE" style="fill:#D9E0EE;fill:color(display-p3 0.8510 0.8784 0.9333);fill-opacity:1;"/>
<path d="M38 49.5C38 48.6716 38.6716 48 39.5 48H172.5C173.328 48 174 48.6716 174 49.5C174 50.3284 173.328 51 172.5 51H39.5C38.6716 51 38 50.3284 38 49.5Z" fill="#61739A" style="fill:#61739A;fill:color(display-p3 0.3804 0.4510 0.6039);fill-opacity:1;"/>
<path d="M38 64.5C38 63.6716 38.6716 63 39.5 63H112.5C113.328 63 114 63.6716 114 64.5C114 65.3284 113.328 66 112.5 66H39.5C38.6716 66 38 65.3284 38 64.5Z" fill="#61739A" style="fill:#61739A;fill:color(display-p3 0.3804 0.4510 0.6039);fill-opacity:1;"/>
<path d="M176 84.5V86H24L24 84.5H176ZM192.5 68V48C192.5 38.8873 185.113 31.5 176 31.5H36C26.8873 31.5 19.5 38.8873 19.5 48V80C19.5 82.4853 21.5147 84.5 24 84.5L24 86C20.7898 86 18.1684 83.4789 18.0078 80.3086L18 80V48C18 38.2143 25.8089 30.2524 35.5352 30.0059L36 30H176L176.465 30.0059C186.191 30.2524 194 38.2143 194 48V68L193.994 68.4648C193.748 78.1911 185.786 86 176 86V84.5C185.113 84.5 192.5 77.1127 192.5 68Z" fill="#61739A" style="fill:#61739A;fill:color(display-p3 0.3804 0.4510 0.6039);fill-opacity:1;"/>
<path d="M164 88C164 96.8366 156.837 104 148 104C139.163 104 132 96.8366 132 88C132 79.1634 139.163 72 148 72C156.837 72 164 79.1634 164 88Z" fill="#FAAD9F" style="fill:#FAAD9F;fill:color(display-p3 0.9804 0.6784 0.6235);fill-opacity:1;"/>
<path d="M134 86.5C134 79.5964 139.596 74 146.5 74C153.404 74 159 79.5964 159 86.5C159 93.4036 153.404 99 146.5 99C139.596 99 134 93.4036 134 86.5Z" fill="white" fill-opacity="0.2" style="fill:white;fill-opacity:0.2;"/>
<path d="M162 88C162 80.268 155.732 74 148 74C140.268 74 134 80.268 134 88C134 95.732 140.268 102 148 102V104C139.163 104 132 96.8366 132 88C132 79.1634 139.163 72 148 72C156.837 72 164 79.1634 164 88C164 96.8366 156.837 104 148 104V102C155.732 102 162 95.732 162 88Z" fill="#C34922" style="fill:#C34922;fill:color(display-p3 0.7647 0.2863 0.1333);fill-opacity:1;"/>
<path d="M148 97C147.773 97 147.59 96.7604 147.59 96.4729V95.0355C146.568 94.9397 145.565 94.5084 144.82 93.622C144.385 93.0949 144 92.2325 144 91.4898C144 91.0905 144.233 90.787 144.587 90.787C144.909 90.787 145.091 91.0106 145.186 91.402C145.483 92.8154 146.41 93.5262 147.59 93.6699V88.4632L147.344 88.3913C145.722 87.9201 144.233 86.9219 144.233 84.7098C144.233 82.402 145.792 81.0843 147.59 80.9006V79.5191C147.59 79.2396 147.773 79 148 79C148.227 79 148.41 79.2396 148.41 79.5191V80.9006C149.42 80.9885 150.366 81.4516 151.047 82.3141C151.483 82.8651 151.817 83.7276 151.817 84.3665C151.817 84.7897 151.577 85.0772 151.249 85.0772C150.921 85.0772 150.726 84.8217 150.625 84.4463C150.309 83.1686 149.521 82.4099 148.41 82.2742V87.2174L148.757 87.3292C150.517 87.8642 152 88.7187 152 91.1145C152 93.5501 150.379 94.8917 148.41 95.0435V96.4729C148.41 96.7604 148.227 97 148 97ZM147.546 86.9539L147.59 86.9698V82.2822C146.467 82.4419 145.445 83.2165 145.445 84.5901C145.445 85.9716 146.397 86.6025 147.546 86.9539ZM148.562 88.7507L148.41 88.7028V93.6859C149.729 93.5741 150.795 92.8394 150.795 91.2342C150.795 89.669 149.773 89.11 148.562 88.7507Z" fill="#C34922" style="fill:#C34922;fill:color(display-p3 0.7647 0.2863 0.1333);fill-opacity:1;"/>
<path d="M148.41 79.5191C148.41 79.2396 148.227 79 148 79C147.773 79 147.59 79.2396 147.59 79.5191V80.9006C145.792 81.0843 144.233 82.402 144.233 84.7098L144.237 84.9141C144.326 86.9839 145.773 87.9349 147.344 88.3913L147.59 88.4632V93.6699C146.484 93.5352 145.6 92.9022 145.249 91.6592L145.186 91.402C145.103 91.0597 144.953 90.8461 144.701 90.7979L144.587 90.787C144.233 90.787 144 91.0905 144 91.4898L144.005 91.6299C144.049 92.3386 144.412 93.1278 144.82 93.622C145.565 94.5084 146.568 94.9397 147.59 95.0355V96.4729C147.59 96.7244 147.73 96.9394 147.917 96.9893L148 97C148.199 97 148.363 96.8165 148.401 96.5781L148.41 96.4729V95.0435C150.379 94.8917 152 93.5501 152 91.1145C152 88.7187 150.517 87.8642 148.757 87.3292L148.41 87.2174V82.2742C149.521 82.4099 150.309 83.1686 150.625 84.4463C150.726 84.8217 150.921 85.0772 151.249 85.0772C151.536 85.0772 151.755 84.8571 151.806 84.5186L151.817 84.3665C151.817 83.8074 151.561 83.0771 151.205 82.5342L151.047 82.3141C150.366 81.4516 149.42 80.9885 148.41 80.9006V79.5191ZM150.545 91.2344C150.545 90.5142 150.314 90.0513 149.962 89.7227C149.634 89.4162 149.184 89.2133 148.66 89.0459V93.4023C149.167 93.3206 149.605 93.1338 149.928 92.8359C150.301 92.4913 150.545 91.9767 150.545 91.2344ZM147.59 86.9698L147.546 86.9539C146.397 86.6025 145.445 85.9716 145.445 84.5901C145.445 83.2165 146.467 82.4419 147.59 82.2822V86.9698ZM150.782 91.5254C150.66 92.9288 149.646 93.5811 148.41 93.6859V88.7028L148.562 88.7507C149.773 89.11 150.795 89.669 150.795 91.2342L150.782 91.5254ZM145.694 84.5898C145.694 85.215 145.907 85.6534 146.239 85.9795C146.521 86.2563 146.901 86.4608 147.34 86.6201V82.5859C146.429 82.8126 145.694 83.4891 145.694 84.5898ZM148.66 80.6777C149.648 80.8176 150.568 81.3049 151.243 82.1592C151.707 82.7463 152.067 83.6617 152.067 84.3662C152.067 84.8754 151.762 85.3271 151.249 85.3271C151.011 85.3271 150.815 85.2309 150.668 85.0723C150.528 84.9208 150.439 84.7207 150.383 84.5117L150.382 84.5059C150.115 83.4259 149.504 82.779 148.66 82.5742V87.0352L148.834 87.0908C149.724 87.3616 150.58 87.7233 151.214 88.3457C151.858 88.9786 152.25 89.8584 152.25 91.1143C152.25 92.3907 151.824 93.4008 151.121 94.1113C150.473 94.7664 149.606 95.1513 148.66 95.2686V96.4727C148.66 96.6676 148.599 96.8544 148.488 96.9971C148.378 97.14 148.207 97.25 148 97.25C147.793 97.25 147.622 97.14 147.512 96.9971C147.401 96.8544 147.34 96.6676 147.34 96.4727V95.2568C146.341 95.1159 145.366 94.6609 144.629 93.7832L144.627 93.7812C144.164 93.2202 143.75 92.3034 143.75 91.4902C143.75 91.0031 144.05 90.5371 144.587 90.5371C144.814 90.5371 145.007 90.6195 145.154 90.7773C145.293 90.9263 145.376 91.1267 145.429 91.3428L145.431 91.3506C145.57 92.0128 145.852 92.4942 146.224 92.8262C146.531 93.1005 146.909 93.2804 147.34 93.373V88.6494L147.274 88.6309C146.441 88.3888 145.618 88.0059 145.002 87.3789C144.379 86.7453 143.983 85.8787 143.983 84.71C143.983 83.4966 144.395 82.5268 145.057 81.8359C145.664 81.2021 146.473 80.8169 147.34 80.6836V79.5195C147.34 79.327 147.402 79.142 147.513 79.001C147.623 78.8598 147.793 78.75 148 78.75C148.207 78.75 148.377 78.8598 148.487 79.001C148.598 79.142 148.66 79.327 148.66 79.5195V80.6777Z" fill="#C34922" style="fill:#C34922;fill:color(display-p3 0.7647 0.2863 0.1333);fill-opacity:1;"/>
<path d="M144 124C144 132.837 136.837 140 128 140C119.163 140 112 132.837 112 124C112 115.163 119.163 108 128 108C136.837 108 144 115.163 144 124Z" fill="#FAAD9F" style="fill:#FAAD9F;fill:color(display-p3 0.9804 0.6784 0.6235);fill-opacity:1;"/>
<path d="M114 122.5C114 115.596 119.596 110 126.5 110C133.404 110 139 115.596 139 122.5C139 129.404 133.404 135 126.5 135C119.596 135 114 129.404 114 122.5Z" fill="white" fill-opacity="0.2" style="fill:white;fill-opacity:0.2;"/>
<path d="M120 126.313V124.942H122.266C122.243 124.645 122.232 124.325 122.232 124.006V123.983C122.232 123.64 122.243 123.32 122.278 123.001H120V121.63H122.496C123.44 117.77 126.753 116 130.527 116C131.389 116 132.517 116.091 133 116.251V118.101C132.494 117.976 131.389 117.896 130.527 117.896C127.754 117.896 125.534 119.084 124.705 121.63H130.883V123.001H124.418C124.383 123.32 124.36 123.663 124.36 124.017V124.04C124.36 124.348 124.372 124.657 124.406 124.942H130.883V126.313H124.671C125.476 128.905 127.719 130.104 130.527 130.104C131.389 130.104 132.494 130.047 133 129.899V131.749C132.528 131.92 131.389 132 130.527 132C126.719 132 123.405 130.196 122.485 126.313H120Z" fill="#C34922" style="fill:#C34922;fill:color(display-p3 0.7647 0.2863 0.1333);fill-opacity:1;"/>
<path d="M130.883 126.313V124.942H124.406L124.385 124.725C124.379 124.651 124.374 124.576 124.37 124.5L124.36 124.04V124.017C124.36 123.663 124.383 123.32 124.418 123.001H130.883V121.63H124.705C125.534 119.084 127.754 117.896 130.527 117.896C131.389 117.896 132.494 117.976 133 118.101V116.251C132.517 116.091 131.389 116 130.527 116C126.753 116 123.44 117.77 122.496 121.63H120V123.001H122.278C122.243 123.32 122.232 123.64 122.232 123.983V124.006L122.24 124.482C122.246 124.639 122.255 124.794 122.266 124.942H120V126.313H122.485C123.405 130.196 126.719 132 130.527 132C131.389 132 132.528 131.92 133 131.749V129.899C132.494 130.047 131.389 130.104 130.527 130.104L130.526 129.854C130.953 129.854 131.439 129.84 131.879 129.808C132.325 129.775 132.704 129.725 132.93 129.659L133.25 129.564V131.924L133.085 131.983C132.816 132.081 132.384 132.146 131.933 132.188C131.473 132.23 130.964 132.25 130.526 132.25C126.704 132.25 123.31 130.458 122.292 126.562H119.75V124.692H122.002C121.99 124.469 121.981 124.237 121.981 124.006V123.982C121.981 123.731 121.988 123.49 122.005 123.251H119.75V121.38H122.305C123.345 117.508 126.739 115.75 130.526 115.75C130.966 115.75 131.472 115.773 131.93 115.816C132.381 115.859 132.808 115.924 133.078 116.014L133.25 116.07V118.421L132.939 118.344C132.464 118.226 131.385 118.146 130.526 118.146C127.953 118.146 125.926 119.19 125.062 121.38H131.133V123.251H124.647C124.626 123.497 124.61 123.755 124.61 124.018V124.04C124.61 124.263 124.616 124.483 124.633 124.692H131.133V126.562H125.022C125.867 128.797 127.916 129.854 130.526 129.854L130.527 130.104L130.007 130.09C127.445 129.949 125.426 128.743 124.671 126.313H130.883Z" fill="#C34922" style="fill:#C34922;fill:color(display-p3 0.7647 0.2863 0.1333);fill-opacity:1;"/>
<path d="M142 124C142 116.268 135.732 110 128 110C120.268 110 114 116.268 114 124C114 131.732 120.268 138 128 138V140C119.163 140 112 132.837 112 124C112 115.163 119.163 108 128 108C136.837 108 144 115.163 144 124C144 132.837 136.837 140 128 140V138C135.732 138 142 131.732 142 124Z" fill="#C34922" style="fill:#C34922;fill:color(display-p3 0.7647 0.2863 0.1333);fill-opacity:1;"/>
<path d="M224 124C224 132.837 216.837 140 208 140C199.163 140 192 132.837 192 124C192 115.163 199.163 108 208 108C216.837 108 224 115.163 224 124Z" fill="#FAAD9F" style="fill:#FAAD9F;fill:color(display-p3 0.9804 0.6784 0.6235);fill-opacity:1;"/>
<path d="M194 122.5C194 115.596 199.596 110 206.5 110C213.404 110 219 115.596 219 122.5C219 129.404 213.404 135 206.5 135C199.596 135 194 129.404 194 122.5Z" fill="white" fill-opacity="0.2" style="fill:white;fill-opacity:0.2;"/>
<path d="M222 124C222 116.268 215.732 110 208 110C200.268 110 194 116.268 194 124C194 131.732 200.268 138 208 138V140C199.163 140 192 132.837 192 124C192 115.163 199.163 108 208 108C216.837 108 224 115.163 224 124C224 132.837 216.837 140 208 140V138C215.732 138 222 131.732 222 124Z" fill="#C34922" style="fill:#C34922;fill:color(display-p3 0.7647 0.2863 0.1333);fill-opacity:1;"/>
<path d="M184 124C184 132.837 176.837 140 168 140C159.163 140 152 132.837 152 124C152 115.163 159.163 108 168 108C176.837 108 184 115.163 184 124Z" fill="#FAAD9F" style="fill:#FAAD9F;fill:color(display-p3 0.9804 0.6784 0.6235);fill-opacity:1;"/>
<path d="M154 122.5C154 115.596 159.596 110 166.5 110C173.404 110 179 115.596 179 122.5C179 129.404 173.404 135 166.5 135C159.596 135 154 129.404 154 122.5Z" fill="white" fill-opacity="0.2" style="fill:white;fill-opacity:0.2;"/>
<path d="M182 124C182 116.268 175.732 110 168 110C160.268 110 154 116.268 154 124C154 131.732 160.268 138 168 138V140C159.163 140 152 132.837 152 124C152 115.163 159.163 108 168 108C176.837 108 184 115.163 184 124C184 132.837 176.837 140 168 140V138C175.732 138 182 131.732 182 124Z" fill="#C34922" style="fill:#C34922;fill:color(display-p3 0.7647 0.2863 0.1333);fill-opacity:1;"/>
<path d="M184 52C184 60.8366 176.837 68 168 68C159.163 68 152 60.8366 152 52C152 43.1634 159.163 36 168 36C176.837 36 184 43.1634 184 52Z" fill="#FAAD9F" style="fill:#FAAD9F;fill:color(display-p3 0.9804 0.6784 0.6235);fill-opacity:1;"/>
<path d="M154 50.5C154 43.5964 159.596 38 166.5 38C173.404 38 179 43.5964 179 50.5C179 57.4036 173.404 63 166.5 63C159.596 63 154 57.4036 154 50.5Z" fill="white" fill-opacity="0.2" style="fill:white;fill-opacity:0.2;"/>
<path d="M160.395 48.4649C159.951 48.4649 159.693 48.1462 159.693 47.8196C159.693 47.5806 159.822 47.3735 160.129 47.2062L167.013 43.2788C167.319 43.0956 167.665 43 167.996 43C168.326 43 168.665 43.0956 168.987 43.2788L175.871 47.2062C176.17 47.3735 176.307 47.5806 176.307 47.8196C176.307 48.1462 176.049 48.4649 175.605 48.4649H160.395ZM167.682 44.4738L162.668 47.2619H173.332L168.318 44.4738C168.214 44.418 168.101 44.3861 167.996 44.3861C167.899 44.3861 167.778 44.418 167.682 44.4738ZM160.838 58.104C160.54 58.104 160.362 57.9367 160.362 57.634V57.5225C160.362 57.2277 160.54 57.0604 160.838 57.0604H161.305V50.1139H160.838C160.54 50.1139 160.362 49.9466 160.362 49.6518V49.5403C160.362 49.2455 160.54 49.0703 160.838 49.0703H162.99C163.288 49.0703 163.466 49.2455 163.466 49.5403V49.6518C163.466 49.9466 163.288 50.1139 162.99 50.1139H162.523V57.0604H162.99C163.288 57.0604 163.466 57.2277 163.466 57.5225V57.634C163.466 57.9367 163.288 58.104 162.99 58.104H160.838ZM164.901 58.104C164.594 58.104 164.425 57.9367 164.425 57.634V57.5225C164.425 57.2277 164.594 57.0604 164.901 57.0604H165.36V50.1139H164.901C164.594 50.1139 164.425 49.9466 164.425 49.6518V49.5403C164.425 49.2455 164.594 49.0703 164.901 49.0703H167.045C167.351 49.0703 167.52 49.2455 167.52 49.5403V49.6518C167.52 49.9466 167.351 50.1139 167.045 50.1139H166.577V57.0604H167.045C167.351 57.0604 167.52 57.2277 167.52 57.5225V57.634C167.52 57.9367 167.351 58.104 167.045 58.104H164.901ZM168.955 58.104C168.649 58.104 168.48 57.9367 168.48 57.634V57.5225C168.48 57.2277 168.649 57.0604 168.955 57.0604H169.423V50.1139H168.955C168.649 50.1139 168.48 49.9466 168.48 49.6518V49.5403C168.48 49.2455 168.649 49.0703 168.955 49.0703H171.099C171.406 49.0703 171.583 49.2455 171.583 49.5403V49.6518C171.583 49.9466 171.406 50.1139 171.099 50.1139H170.64V57.0604H171.099C171.406 57.0604 171.583 57.2277 171.583 57.5225V57.634C171.583 57.9367 171.406 58.104 171.099 58.104H168.955ZM173.01 58.104C172.712 58.104 172.534 57.9367 172.534 57.634V57.5225C172.534 57.2277 172.712 57.0604 173.01 57.0604H173.485V50.1139H173.01C172.712 50.1139 172.534 49.9466 172.534 49.6518V49.5403C172.534 49.2455 172.712 49.0703 173.01 49.0703H175.162C175.46 49.0703 175.638 49.2455 175.638 49.5403V49.6518C175.638 49.9466 175.46 50.1139 175.162 50.1139H174.703V57.0604H175.162C175.46 57.0604 175.638 57.2277 175.638 57.5225V57.634C175.638 57.9367 175.46 58.104 175.162 58.104H173.01ZM159.645 60C159.29 60 159 59.7052 159 59.3547C159 59.0042 159.29 58.7174 159.645 58.7174H176.347C176.702 58.7174 177 59.0042 177 59.3547C177 59.7052 176.702 60 176.347 60H159.645Z" fill="#C34922" style="fill:#C34922;fill:color(display-p3 0.7647 0.2863 0.1333);fill-opacity:1;"/>
<path d="M182 52C182 44.268 175.732 38 168 38C160.268 38 154 44.268 154 52C154 59.732 160.268 66 168 66V68C159.163 68 152 60.8366 152 52C152 43.1634 159.163 36 168 36C176.837 36 184 43.1634 184 52C184 60.8366 176.837 68 168 68V66C175.732 66 182 59.732 182 52Z" fill="#C34922" style="fill:#C34922;fill:color(display-p3 0.7647 0.2863 0.1333);fill-opacity:1;"/>
<path d="M204 88C204 96.8366 196.837 104 188 104C179.163 104 172 96.8366 172 88C172 79.1634 179.163 72 188 72C196.837 72 204 79.1634 204 88Z" fill="#FAAD9F" style="fill:#FAAD9F;fill:color(display-p3 0.9804 0.6784 0.6235);fill-opacity:1;"/>
<path d="M174 86.5C174 79.5964 179.596 74 186.5 74C193.404 74 199 79.5964 199 86.5C199 93.4036 193.404 99 186.5 99C179.596 99 174 93.4036 174 86.5Z" fill="white" fill-opacity="0.2" style="fill:white;fill-opacity:0.2;"/>
<path d="M183 95.1823V80.8177H184.858V79H186.111V80.8177H187.572V79H188.825V80.8592C190.912 81.1293 192.269 82.5107 192.269 84.453V84.4737C192.269 85.9902 191.142 87.4028 189.743 87.6521V87.7351C191.758 87.9844 193 89.3035 193 91.1939V91.2147C193 93.5205 191.497 94.9331 188.825 95.1512V97H187.572V95.1823H186.111V97H184.858V95.1823H183ZM184.879 87.0808H187.04C189.2 87.0808 190.37 86.2395 190.37 84.6815V84.6607C190.37 83.2481 189.378 82.4587 187.603 82.4587H184.879V87.0808ZM184.879 93.5413H187.718C189.962 93.5413 191.069 92.7519 191.069 91.1316V91.1108C191.069 89.4905 189.931 88.7219 187.541 88.7219H184.879V93.5413Z" fill="#C34922" style="fill:#C34922;fill:color(display-p3 0.7647 0.2863 0.1333);fill-opacity:1;"/>
<path d="M202 88C202 80.268 195.732 74 188 74C180.268 74 174 80.268 174 88C174 95.732 180.268 102 188 102V104C179.163 104 172 96.8366 172 88C172 79.1634 179.163 72 188 72C196.837 72 204 79.1634 204 88C204 96.8366 196.837 104 188 104V102C195.732 102 202 95.732 202 88Z" fill="#C34922" style="fill:#C34922;fill:color(display-p3 0.7647 0.2863 0.1333);fill-opacity:1;"/>
<path d="M167.161 128.907V131.393C167.161 131.706 167.26 131.987 167.459 132.191C167.658 132.396 167.936 132.5 168.246 132.5C168.556 132.5 168.833 132.396 169.032 132.191C169.231 131.987 169.33 131.706 169.33 131.393V128.907H172.547C172.983 128.907 173.355 128.55 173.355 128.1C173.355 127.65 172.983 127.293 172.547 127.293H169.33V125.94H172.547C172.983 125.94 173.355 125.583 173.355 125.133C173.355 124.683 172.983 124.326 172.547 124.326H170.118L174.29 117.695V117.693C174.42 117.483 174.5 117.267 174.5 117.005C174.5 116.364 173.949 116 173.398 116C172.995 116 172.645 116.239 172.445 116.564L172.444 116.567L168.249 123.545L164.055 116.575C163.86 116.235 163.5 116 163.102 116C162.551 116 162 116.364 162 117.005C162 117.267 162.08 117.483 162.21 117.693V117.695L166.374 124.326H164.022C163.587 124.326 163.213 124.683 163.213 125.133C163.213 125.583 163.587 125.94 164.022 125.94H167.161V127.293H164.022C163.587 127.293 163.213 127.65 163.213 128.1C163.213 128.55 163.587 128.907 164.022 128.907H167.161Z" fill="#C34922" style="fill:#C34922;fill:color(display-p3 0.7647 0.2863 0.1333);fill-opacity:1;"/>
<path d="M212.754 118.146L212.373 117.911C212.131 117.762 211.697 117.614 211.164 117.504C210.638 117.395 210.041 117.327 209.49 117.327C208.433 117.327 207.61 117.599 207.057 118.063C206.508 118.524 206.197 119.195 206.197 120.055C206.197 120.875 206.394 121.557 206.642 122.229H211.697V124.293H207.359C207.46 124.708 207.523 125.155 207.523 125.641C207.523 127.142 206.894 128.371 205.706 129.229H213.5V131.5H202V129.308L202.189 129.261C203.989 128.813 205.19 127.373 205.19 125.722C205.19 125.202 205.104 124.74 204.98 124.293H202V122.229H204.207C203.973 121.592 203.792 120.909 203.792 120.101C203.792 118.536 204.321 117.251 205.305 116.36C206.285 115.472 207.69 115 209.396 115C210.62 115 211.846 115.233 212.62 115.638L212.754 115.708V118.146Z" fill="#C34922" style="fill:#C34922;fill:color(display-p3 0.7647 0.2863 0.1333);fill-opacity:1;"/>
</svg>
