<svg width="24" height="24" viewBox="0 0 24 24" fill="none" xmlns="http://www.w3.org/2000/svg">
<path d="M5.25 6C5.25 5.58579 5.58579 5.25 6 5.25H7C7.41422 5.25 7.75 5.58579 7.75 6V7C7.75 7.41422 7.41422 7.75 7 7.75H6C5.58579 7.75 5.25 7.41422 5.25 7V6Z" fill="black"/>
<path fill-rule="evenodd" clip-rule="evenodd" d="M5.11738 1.875H7.88262C8.27475 1.87498 8.62034 1.87497 8.90645 1.89834C9.21069 1.9232 9.52389 1.97879 9.82823 2.13386C10.2751 2.36156 10.6384 2.72489 10.8661 3.17177C11.0212 3.47612 11.0768 3.78931 11.1017 4.09355C11.125 4.37965 11.125 4.72521 11.125 5.11731V7.88264C11.125 8.27474 11.125 8.62035 11.1017 8.90645C11.0768 9.21069 11.0212 9.52389 10.8661 9.82823C10.6384 10.2751 10.2751 10.6384 9.82823 10.8661C9.52389 11.0212 9.21069 11.0768 8.90645 11.1017C8.62035 11.125 8.2748 11.125 7.8827 11.125H5.11736C4.72526 11.125 4.37965 11.125 4.09355 11.1017C3.78931 11.0768 3.47612 11.0212 3.17177 10.8661C2.72489 10.6384 2.36156 10.2751 2.13386 9.82823C1.97879 9.52389 1.9232 9.21069 1.89834 8.90645C1.87497 8.62034 1.87498 8.27475 1.875 7.88262V5.11738C1.87498 4.72525 1.87497 4.37967 1.89834 4.09355C1.9232 3.78931 1.97879 3.47612 2.13386 3.17177C2.36156 2.72489 2.72489 2.36156 3.17177 2.13386C3.47612 1.97879 3.78931 1.9232 4.09355 1.89834C4.37967 1.87497 4.72525 1.87498 5.11738 1.875ZM4.23606 3.64253C4.04004 3.65855 3.98278 3.6847 3.96626 3.69312C3.84866 3.75304 3.75304 3.84866 3.69312 3.96626C3.6847 3.98278 3.65855 4.04004 3.64253 4.23606C3.62568 4.44229 3.625 4.71552 3.625 5.15V7.85C3.625 8.28448 3.62568 8.55771 3.64253 8.76395C3.65855 8.95996 3.6847 9.01722 3.69312 9.03375C3.75304 9.15135 3.84866 9.24696 3.96626 9.30688C3.98278 9.3153 4.04004 9.34146 4.23606 9.35747C4.44229 9.37432 4.71552 9.375 5.15 9.375H7.85C8.28448 9.375 8.55771 9.37432 8.76395 9.35747C8.95996 9.34146 9.01722 9.3153 9.03375 9.30688C9.15135 9.24696 9.24696 9.15135 9.30688 9.03375C9.3153 9.01722 9.34146 8.95996 9.35747 8.76395C9.37432 8.55771 9.375 8.28448 9.375 7.85V5.15C9.375 4.71552 9.37432 4.44229 9.35747 4.23606C9.34146 4.04004 9.3153 3.98278 9.30688 3.96626C9.24696 3.84866 9.15135 3.75304 9.03375 3.69312C9.01722 3.6847 8.95996 3.65855 8.76395 3.64253C8.55771 3.62568 8.28448 3.625 7.85 3.625H5.15C4.71552 3.625 4.44229 3.62568 4.23606 3.64253Z" fill="black"/>
<path d="M6 16.25C5.58579 16.25 5.25 16.5858 5.25 17V18C5.25 18.4142 5.58579 18.75 6 18.75H7C7.41422 18.75 7.75 18.4142 7.75 18V17C7.75 16.5858 7.41422 16.25 7 16.25H6Z" fill="black"/>
<path fill-rule="evenodd" clip-rule="evenodd" d="M5.11738 12.875H7.88262C8.27475 12.875 8.62034 12.875 8.90645 12.8983C9.21069 12.9232 9.52389 12.9788 9.82823 13.1339C10.2751 13.3616 10.6384 13.7249 10.8661 14.1718C11.0212 14.4761 11.0768 14.7893 11.1017 15.0936C11.125 15.3797 11.125 15.7252 11.125 16.1173V18.8826C11.125 19.2747 11.125 19.6204 11.1017 19.9065C11.0768 20.2107 11.0212 20.5239 10.8661 20.8282C10.6384 21.2751 10.2751 21.6384 9.82823 21.8661C9.52389 22.0212 9.21069 22.0768 8.90645 22.1017C8.62034 22.125 8.27476 22.125 7.88264 22.125H5.11736C4.72524 22.125 4.37966 22.125 4.09355 22.1017C3.78931 22.0768 3.47612 22.0212 3.17177 21.8661C2.72489 21.6384 2.36156 21.2751 2.13386 20.8282C1.97879 20.5239 1.9232 20.2107 1.89834 19.9065C1.87497 19.6203 1.87498 19.2748 1.875 18.8826V16.1174C1.87498 15.7253 1.87497 15.3797 1.89834 15.0936C1.9232 14.7893 1.97879 14.4761 2.13386 14.1718C2.36156 13.7249 2.72489 13.3616 3.17177 13.1339C3.47612 12.9788 3.78931 12.9232 4.09355 12.8983C4.37967 12.875 4.72525 12.875 5.11738 12.875ZM4.23606 14.6425C4.04004 14.6585 3.98278 14.6847 3.96626 14.6931C3.84866 14.753 3.75304 14.8487 3.69312 14.9663C3.6847 14.9828 3.65855 15.04 3.64253 15.2361C3.62568 15.4423 3.625 15.7155 3.625 16.15V18.85C3.625 19.2845 3.62568 19.5577 3.64253 19.7639C3.65855 19.96 3.6847 20.0172 3.69312 20.0337C3.75304 20.1513 3.84866 20.247 3.96626 20.3069C3.98278 20.3153 4.04004 20.3415 4.23606 20.3575C4.44229 20.3743 4.71552 20.375 5.15 20.375H7.85C8.28448 20.375 8.55771 20.3743 8.76395 20.3575C8.95996 20.3415 9.01722 20.3153 9.03375 20.3069C9.15135 20.247 9.24696 20.1513 9.30688 20.0337C9.3153 20.0172 9.34146 19.96 9.35747 19.7639C9.37432 19.5577 9.375 19.2845 9.375 18.85V16.15C9.375 15.7155 9.37432 15.4423 9.35747 15.2361C9.34146 15.04 9.3153 14.9828 9.30688 14.9663C9.24696 14.8487 9.15135 14.753 9.03375 14.6931C9.01722 14.6847 8.95996 14.6585 8.76395 14.6425C8.55771 14.6257 8.28448 14.625 7.85 14.625H5.15C4.71552 14.625 4.44229 14.6257 4.23606 14.6425Z" fill="black"/>
<path d="M17 5.25C16.5858 5.25 16.25 5.58579 16.25 6V7C16.25 7.41422 16.5858 7.75 17 7.75H18C18.4142 7.75 18.75 7.41422 18.75 7V6C18.75 5.58579 18.4142 5.25 18 5.25H17Z" fill="black"/>
<path fill-rule="evenodd" clip-rule="evenodd" d="M16.1174 1.875C15.7253 1.87498 15.3797 1.87497 15.0936 1.89834C14.7893 1.9232 14.4761 1.97879 14.1718 2.13386C13.7249 2.36156 13.3616 2.72489 13.1339 3.17177C12.9788 3.47612 12.9232 3.78931 12.8983 4.09355C12.875 4.37967 12.875 4.72525 12.875 5.11738V7.88262C12.875 8.27475 12.875 8.62034 12.8983 8.90645C12.9232 9.21069 12.9788 9.52389 13.1339 9.82823C13.3616 10.2751 13.7249 10.6384 14.1718 10.8661C14.4761 11.0212 14.7893 11.0768 15.0936 11.1017C15.3797 11.125 15.7252 11.125 16.1173 11.125H18.8826C19.2747 11.125 19.6204 11.125 19.9065 11.1017C20.2107 11.0768 20.5239 11.0212 20.8282 10.8661C21.2751 10.6384 21.6384 10.2751 21.8661 9.82823C22.0212 9.52389 22.0768 9.21069 22.1017 8.90645C22.125 8.62034 22.125 8.27476 22.125 7.88264V5.11736C22.125 4.72524 22.125 4.37966 22.1017 4.09355C22.0768 3.78931 22.0212 3.47612 21.8661 3.17177C21.6384 2.72489 21.2751 2.36156 20.8282 2.13386C20.5239 1.97879 20.2107 1.9232 19.9065 1.89834C19.6203 1.87497 19.2748 1.87498 18.8826 1.875H16.1174ZM14.9663 3.69312C14.9828 3.6847 15.04 3.65855 15.2361 3.64253C15.4423 3.62568 15.7155 3.625 16.15 3.625H18.85C19.2845 3.625 19.5577 3.62568 19.7639 3.64253C19.96 3.65855 20.0172 3.6847 20.0337 3.69312C20.1513 3.75304 20.247 3.84866 20.3069 3.96626C20.3153 3.98278 20.3415 4.04004 20.3575 4.23606C20.3743 4.44229 20.375 4.71552 20.375 5.15V7.85C20.375 8.28448 20.3743 8.55771 20.3575 8.76395C20.3415 8.95996 20.3153 9.01722 20.3069 9.03375C20.247 9.15135 20.1513 9.24696 20.0337 9.30688C20.0172 9.3153 19.96 9.34146 19.7639 9.35747C19.5577 9.37432 19.2845 9.375 18.85 9.375H16.15C15.7155 9.375 15.4423 9.37432 15.2361 9.35747C15.04 9.34146 14.9828 9.3153 14.9663 9.30688C14.8487 9.24696 14.753 9.15135 14.6931 9.03375C14.6847 9.01722 14.6585 8.95996 14.6425 8.76395C14.6257 8.55771 14.625 8.28448 14.625 7.85V5.15C14.625 4.71552 14.6257 4.44229 14.6425 4.23606C14.6585 4.04004 14.6847 3.98278 14.6931 3.96626C14.753 3.84866 14.8487 3.75304 14.9663 3.69312Z" fill="black"/>
<path d="M14.25 13.5C13.8358 13.5 13.5 13.8358 13.5 14.25V15.25C13.5 15.6642 13.8358 16 14.25 16H15.25C15.6642 16 16 15.6642 16 15.25V14.25C16 13.8358 15.6642 13.5 15.25 13.5H14.25Z" fill="black"/>
<path d="M16.25 17C16.25 16.5858 16.5858 16.25 17 16.25H18C18.4142 16.25 18.75 16.5858 18.75 17V18C18.75 18.4142 18.4142 18.75 18 18.75H17C16.5858 18.75 16.25 18.4142 16.25 18V17Z" fill="black"/>
<path d="M19 19.75C19 19.3358 19.3358 19 19.75 19H20.75C21.1642 19 21.5 19.3358 21.5 19.75V20.75C21.5 21.1642 21.1642 21.5 20.75 21.5H19.75C19.3358 21.5 19 21.1642 19 20.75V19.75Z" fill="black"/>
<path d="M19.75 13.5C19.3358 13.5 19 13.8358 19 14.25V15.25C19 15.6642 19.3358 16 19.75 16H20.75C21.1642 16 21.5 15.6642 21.5 15.25V14.25C21.5 13.8358 21.1642 13.5 20.75 13.5H19.75Z" fill="black"/>
<path d="M13.5 19.75C13.5 19.3358 13.8358 19 14.25 19H15.25C15.6642 19 16 19.3358 16 19.75V20.75C16 21.1642 15.6642 21.5 15.25 21.5H14.25C13.8358 21.5 13.5 21.1642 13.5 20.75V19.75Z" fill="black"/>
</svg>
