<svg width="20" height="20" fill="none" xmlns="http://www.w3.org/2000/svg"><g clip-path="url(#at__a)"><path d="M2.396 10a7.604 7.604 0 1 1 15.208 0c0 1.162-.244 1.932-.569 2.391-.305.431-.708.63-1.202.63-.61 0-1.354-.655-1.354-1.563V10a4.48 4.48 0 1 0-1.085 2.923c.494.916 1.422 1.556 2.44 1.556.964 0 1.811-.426 2.391-1.245.56-.791.837-1.896.837-3.234a9.062 9.062 0 1 0-4.53 7.85.73.73 0 0 0-.73-1.263A7.604 7.604 0 0 1 2.396 10Zm10.625 0a3.02 3.02 0 1 1-6.042 0 3.02 3.02 0 0 1 6.042 0Z" fill="#000"/></g><defs><clipPath id="at__a"><path fill="#fff" d="M0 0h20v20H0z"/></clipPath></defs></svg>