<svg width="24" height="24" viewBox="0 0 24 24" fill="none" xmlns="http://www.w3.org/2000/svg">
<path d="M12.6187 0.631282C12.277 0.289573 11.723 0.289573 11.3813 0.631282L7.88128 4.13128C7.53957 4.47299 7.53957 5.02701 7.88128 5.36872C8.22299 5.71043 8.77701 5.71043 9.11872 5.36872L11.251 3.23647L11.125 5V15.25C11.125 15.7332 11.5168 16.125 12 16.125C12.4832 16.125 12.875 15.7332 12.875 15.25V5L12.749 3.23647L14.8813 5.36872C15.223 5.71043 15.777 5.71043 16.1187 5.36872C16.4604 5.02701 16.4604 4.47299 16.1187 4.13128L12.6187 0.631282Z" fill="black"/>
<path d="M8.38134 7.375C7.74898 7.37499 7.23291 7.37499 6.81111 7.40206C6.37573 7.43 5.98108 7.48932 5.60186 7.63602C4.58422 8.02972 3.77972 8.83422 3.38602 9.85186C3.23932 10.2311 3.18 10.6257 3.15206 11.0611C3.12499 11.4829 3.12499 11.999 3.125 12.6313V17.8687C3.12499 18.501 3.12499 19.0171 3.15206 19.4389C3.18 19.8743 3.23932 20.2689 3.38602 20.6481C3.77972 21.6658 4.58422 22.4703 5.60186 22.864C5.98108 23.0107 6.37573 23.07 6.81111 23.0979C7.23292 23.125 7.74899 23.125 8.38137 23.125H15.6186C16.251 23.125 16.7671 23.125 17.1889 23.0979C17.6243 23.07 18.0189 23.0107 18.3981 22.864C19.4158 22.4703 20.2203 21.6658 20.614 20.6481C20.7607 20.2689 20.82 19.8743 20.8479 19.4389C20.875 19.0171 20.875 18.5011 20.875 17.8688V12.6313C20.875 11.999 20.875 11.4829 20.8479 11.0611C20.82 10.6257 20.7607 10.2311 20.614 9.85186C20.2203 8.83422 19.4158 8.02972 18.3981 7.63602C18.0189 7.48932 17.6243 7.43 17.1889 7.40206C16.7671 7.37499 16.251 7.37499 15.6187 7.375H15.5C15.0168 7.375 14.625 7.76675 14.625 8.25C14.625 8.73325 15.0168 9.125 15.5 9.125H15.59C16.2579 9.125 16.7177 9.12542 17.0768 9.14846C17.4287 9.17105 17.6236 9.21277 17.7667 9.26814C18.3248 9.48404 18.766 9.92522 18.9819 10.4833C19.0372 10.6264 19.079 10.8213 19.1015 11.1732C19.1246 11.5323 19.125 11.9921 19.125 12.66V17.84C19.125 18.5079 19.1246 18.9677 19.1015 19.3268C19.079 19.6787 19.0372 19.8736 18.9819 20.0167C18.766 20.5748 18.3248 21.016 17.7667 21.2319C17.6236 21.2872 17.4287 21.329 17.0768 21.3515C16.7177 21.3746 16.2579 21.375 15.59 21.375H8.41C7.74207 21.375 7.2823 21.3746 6.92318 21.3515C6.57129 21.329 6.37641 21.2872 6.23328 21.2319C5.67522 21.016 5.23404 20.5748 5.01814 20.0167C4.96277 19.8736 4.92105 19.6787 4.89846 19.3268C4.87542 18.9677 4.875 18.5079 4.875 17.84V12.66C4.875 11.9921 4.87542 11.5323 4.89846 11.1732C4.92105 10.8213 4.96277 10.6264 5.01814 10.4833C5.23404 9.92522 5.67522 9.48404 6.23328 9.26814C6.37641 9.21277 6.57129 9.17105 6.92318 9.14846C7.2823 9.12542 7.74207 9.125 8.41 9.125H8.5C8.98325 9.125 9.375 8.73325 9.375 8.25C9.375 7.76675 8.98325 7.375 8.5 7.375H8.38134Z" fill="black"/>
</svg>
