<svg width="20" height="20" fill="none" xmlns="http://www.w3.org/2000/svg"><path d="M6.667 8.23a.73.73 0 1 0 0 1.458h6.666a.73.73 0 0 0 0-1.459H6.667Zm-.73 3.645a.73.73 0 0 1 .73-.73h6.666a.73.73 0 1 1 0 1.46H6.667a.73.73 0 0 1-.73-.73Zm.73 2.188a.73.73 0 0 0 0 1.458h4.166a.73.73 0 0 0 0-1.459H6.667Z" fill="#000"/><path fill-rule="evenodd" clip-rule="evenodd" d="M7.72 1.354h4.56c.675 0 1.225 0 1.671.037.462.037.878.118 1.265.315a3.23 3.23 0 0 1 1.411 1.411c.198.388.278.803.316 1.265.036.447.036.997.036 1.67v7.895c0 .674 0 1.224-.036 1.671-.038.462-.119.877-.316 1.265a3.23 3.23 0 0 1-1.411 1.41c-.387.198-.803.279-1.265.316-.446.037-.996.037-1.67.037H7.719c-.674 0-1.224 0-1.67-.037-.462-.037-.878-.118-1.265-.315a3.23 3.23 0 0 1-1.411-1.411c-.198-.388-.278-.803-.316-1.265-.036-.447-.036-.997-.036-1.67V6.052c0-.674 0-1.224.036-1.671.038-.462.118-.877.316-1.265a3.23 3.23 0 0 1 1.41-1.41c.388-.198.804-.279 1.266-.316.446-.037.996-.037 1.67-.037Zm-1.553 1.49c-.371.03-.574.086-.721.162a1.77 1.77 0 0 0-.774.773c-.075.148-.13.35-.161.722a9.743 9.743 0 0 0-.027.603h11.031a9.696 9.696 0 0 0-.026-.603c-.03-.372-.086-.574-.161-.722a1.77 1.77 0 0 0-.774-.773c-.148-.076-.35-.131-.722-.162-.38-.03-.87-.031-1.582-.031h-4.5c-.712 0-1.202 0-1.583.031ZM4.48 13.917V6.563h11.042v7.354c0 .712 0 1.202-.032 1.582-.03.372-.086.574-.161.722a1.77 1.77 0 0 1-.774.773c-.148.076-.35.131-.722.162-.38.031-.87.032-1.582.032h-4.5c-.712 0-1.202-.001-1.583-.032-.371-.03-.574-.086-.721-.162a1.77 1.77 0 0 1-.774-.773c-.075-.148-.13-.35-.161-.722-.031-.38-.032-.87-.032-1.582Z" fill="#000"/></svg>