<svg xmlns="http://www.w3.org/2000/svg" width="36" height="36" fill="none"><path fill="#5151F6" fill-rule="evenodd" d="M10.302 5.625c-1.22 0-2.203 0-3 .065-.82.067-1.54.209-2.206.548a5.625 5.625 0 0 0-2.458 2.458c-.34.667-.481 1.387-.548 2.207-.065.796-.065 1.78-.065 2.999v8.196c0 1.22 0 2.203.065 3 .067.82.208 1.54.548 2.206a5.625 5.625 0 0 0 2.458 2.458c.667.34 1.387.481 2.207.548.796.065 1.78.065 2.999.065h7.296c1.22 0 2.203 0 3-.065.82-.067 1.54-.209 2.206-.548a5.625 5.625 0 0 0 2.458-2.458c.34-.667.48-1.387.548-2.207.065-.796.065-1.78.065-2.999v-.032l4.775 4.775c1.559 1.56 4.225.455 4.225-1.75V10.909c0-2.205-2.666-3.31-4.225-1.75l-4.775 4.775v-.032c0-1.22 0-2.203-.065-3-.067-.82-.209-1.54-.548-2.206a5.625 5.625 0 0 0-2.458-2.458c-.667-.34-1.387-.481-2.207-.548-.796-.065-1.78-.065-2.999-.065h-7.296Zm13.323 8.325c0-1.279-.001-2.17-.058-2.864-.055-.68-.159-1.072-.31-1.368a3.374 3.374 0 0 0-1.475-1.475c-.296-.151-.687-.255-1.368-.31-.694-.057-1.585-.058-2.864-.058h-7.2c-1.279 0-2.17 0-2.864.058-.68.055-1.072.159-1.368.31a3.375 3.375 0 0 0-1.475 1.475c-.151.296-.255.687-.31 1.368-.057.694-.058 1.585-.058 2.864v8.1c0 1.279 0 2.17.057 2.864.056.68.16 1.072.31 1.368.324.635.84 1.152 1.476 1.475.296.151.687.255 1.368.31.694.057 1.585.058 2.864.058h7.2c1.279 0 2.17 0 2.864-.058.68-.055 1.072-.159 1.368-.31a3.374 3.374 0 0 0 1.475-1.475c.151-.296.255-.687.31-1.368.057-.694.058-1.585.058-2.864v-8.1Zm2.25 4.05c0 .566.225 1.109.625 1.51l5.74 5.74a.21.21 0 0 0 .116.066.24.24 0 0 0 .13-.017.239.239 0 0 0 .104-.08.21.21 0 0 0 .035-.128V10.909a.21.21 0 0 0-.035-.128.238.238 0 0 0-.104-.08.24.24 0 0 0-.13-.017.21.21 0 0 0-.115.066L26.5 16.49c-.4.401-.625.944-.625 1.51Z" clip-rule="evenodd"/></svg>