<svg width="20" height="20" fill="none" xmlns="http://www.w3.org/2000/svg"><path d="M1.974 1.776A.73.73 0 1 0 .943 2.807l15.416 15.417a.73.73 0 1 0 1.032-1.031L1.974 1.776ZM1.338 4.97c-.156.324-.226.68-.26 1.104-.036.434-.036.973-.036 1.657v4.537c0 .685 0 1.224.035 1.658.036.443.111.812.283 1.148.28.549.725.995 1.274 1.275.336.17.706.246 1.148.282.434.036.973.036 1.658.036h4.12c.685 0 1.224 0 1.658-.036.442-.036.812-.111 1.148-.282.077-.04.151-.082.224-.127L1.338 4.97Zm12.62 7.023V7.73c0-.684 0-1.223-.035-1.657-.036-.443-.111-.812-.283-1.148a2.916 2.916 0 0 0-1.274-1.275c-.336-.17-.706-.246-1.148-.282-.434-.036-.973-.036-1.658-.036H5.3l8.658 8.66Zm1.25-3.731v3.476c0 .332.132.65.367.884L17.953 15a.833.833 0 0 0 1.422-.59V5.59A.833.833 0 0 0 17.953 5l-2.378 2.378a1.25 1.25 0 0 0-.367.884Z" fill="#fff"/></svg>