<svg width="20" height="20" fill="none" xmlns="http://www.w3.org/2000/svg"><path d="M5.44 3.333h4.12c.685 0 1.224 0 1.658.036.442.036.812.111 1.148.282.549.28.995.726 1.274 1.275.172.336.247.705.283 1.148.035.434.035.973.035 1.658v4.537c0 .684 0 1.223-.035 1.657-.036.443-.111.812-.283 1.148-.28.549-.725.995-1.274 1.275-.336.171-.706.246-1.148.282-.434.036-.973.036-1.658.036H5.44c-.684 0-1.224 0-1.658-.036-.442-.036-.812-.111-1.148-.282a2.916 2.916 0 0 1-1.274-1.275c-.172-.336-.247-.705-.283-1.148-.035-.434-.035-.973-.035-1.657V7.732c0-.685 0-1.224.035-1.658.036-.443.111-.812.283-1.148.28-.549.725-.995 1.274-1.275.336-.17.706-.246 1.148-.282.434-.036.974-.036 1.658-.036Zm9.768 8.405V8.262c0-.332.132-.65.367-.884L17.953 5a.833.833 0 0 1 1.422.59v8.82a.833.833 0 0 1-1.422.59l-2.378-2.378a1.25 1.25 0 0 1-.367-.884Z" fill="#000"/></svg>