<svg width="20" height="20" fill="none" xmlns="http://www.w3.org/2000/svg"><path d="M1.9 1.85a.625.625 0 1 0-.884.884L16.433 18.15a.625.625 0 1 0 .884-.884L1.9 1.85Zm-.197 3.043a2.783 2.783 0 0 0-.042.08c-.163.319-.236.673-.272 1.11-.035.43-.035.965-.035 1.653v4.528c0 .688 0 1.224.035 1.654.036.436.11.79.272 1.109.27.53.7.96 1.229 1.229.319.162.673.236 1.11.271.429.035.964.035 1.652.035h4.112c.688 0 1.224 0 1.653-.035.437-.035.791-.109 1.11-.271.117-.06.23-.127.336-.202L1.703 4.894Zm12.359 7.646V7.736c0-.688 0-1.224-.035-1.653-.035-.437-.109-.791-.271-1.11a2.81 2.81 0 0 0-1.23-1.229c-.318-.162-.672-.236-1.109-.271-.43-.035-.965-.035-1.653-.035H5.652l-.69.001 9.1 9.1Zm1.042-4.277v3.476c0 .304.12.596.336.81l2.378 2.378a.73.73 0 0 0 1.244-.515V5.589a.73.73 0 0 0-1.244-.515L15.44 7.452a1.146 1.146 0 0 0-.336.81Z" fill="#fff"/></svg>