<svg width="16" height="16" fill="none" xmlns="http://www.w3.org/2000/svg"><g clip-path="url(#video-slash-compact-light__a)" fill="#000"><path d="M1.139 1.111a.55.55 0 0 0-.778.778l13 13a.55.55 0 0 0 .778-.778l-13-13ZM.978 3.842A2.54 2.54 0 0 1 1 3.8l.859.86a2.888 2.888 0 0 0-.034.271c-.025.306-.025.7-.025 1.269v3.6c0 .57 0 .963.025 1.269.025.3.07.466.133.59.139.272.36.494.634.633.123.063.29.108.59.133.305.024.699.025 1.268.025H7.8c.569 0 .963 0 1.269-.025a2 2 0 0 0 .472-.084l.817.817c-.065.041-.132.08-.2.114-.305.155-.632.219-1 .249-.356.029-.795.029-1.335.029H4.427c-.54 0-.98 0-1.335-.03-.368-.03-.695-.093-1-.248a2.55 2.55 0 0 1-1.114-1.114c-.155-.305-.219-.632-.249-1-.03-.356-.03-.794-.03-1.335V6.177c0-.54 0-.98.03-1.335.03-.368.094-.695.249-1Z"/><path fill-rule="evenodd" clip-rule="evenodd" d="m10.45 9.15 1.1 1.099v-.047l1.78 1.781c.82.82 2.22.24 2.22-.919V4.936c0-1.159-1.4-1.739-2.22-.92l-1.78 1.782a12.753 12.753 0 0 0-.03-.956c-.03-.368-.093-.695-.248-1a2.55 2.55 0 0 0-1.114-1.114c-.305-.155-.632-.219-1-.249-.356-.03-.795-.029-1.335-.029H4.427c-.245 0-.469 0-.674.003L4.851 3.55H7.8c.569 0 .963 0 1.269.025.3.025.466.07.59.133.272.139.494.36.633.634.063.123.108.29.133.59.024.305.025.699.025 1.268v2.95ZM11.55 8c0 .414.164.812.457 1.105l2.101 2.1a.2.2 0 0 0 .342-.14v-6.13a.2.2 0 0 0-.341-.14l-2.101 2.1c-.293.293-.458.69-.458 1.105Z"/></g><defs><clipPath id="video-slash-compact-light__a"><path fill="#fff" d="M0 0h16v16H0z"/></clipPath></defs></svg>