<svg width="20" height="20" fill="none" xmlns="http://www.w3.org/2000/svg"><path d="M1.9 1.85a.625.625 0 0 0-.884.884L16.433 18.15a.625.625 0 0 0 .884-.884L1.9 1.85Zm-.518 2.981c.03-.056.06-.112.092-.167l.94.941a2.742 2.742 0 0 0-.09.554c-.032.385-.032.88-.032 1.591v4.5c0 .71 0 1.206.032 1.591.03.378.088.596.172.76.18.353.467.64.82.82.164.084.381.141.76.172.385.031.88.032 1.59.032H9.75c.71 0 1.206 0 1.591-.032.378-.03.596-.088.76-.172l.084-.046.902.903a3.12 3.12 0 0 1-.418.256c-.37.189-.77.268-1.226.305-.443.036-.989.036-1.666.036H5.64c-.678 0-1.224 0-1.666-.036-.456-.037-.856-.116-1.226-.305a3.125 3.125 0 0 1-1.366-1.365c-.188-.37-.267-.77-.304-1.226-.036-.443-.036-.989-.036-1.666V7.723c0-.677 0-1.224.036-1.666.037-.455.116-.856.304-1.226Z" fill="#000"/><path fill-rule="evenodd" clip-rule="evenodd" d="m13.125 11.601 1.249 1.25v-.509l2.511 2.51c.92.92 2.49.269 2.49-1.03V6.177c0-1.299-1.57-1.95-2.49-1.03l-2.51 2.51c0-.647-.001-1.173-.036-1.6-.037-.456-.116-.857-.305-1.227a3.125 3.125 0 0 0-1.365-1.365c-.37-.19-.77-.268-1.226-.305-.443-.036-.989-.036-1.666-.036H5.64c-.365 0-.692 0-.986.006L5.9 4.375h3.85c.711 0 1.207 0 1.592.032.378.03.596.088.76.172.353.18.64.467.82.82.083.164.141.382.172.76.031.385.032.88.032 1.591v3.851ZM14.375 10c0 .368.146.72.406.98l2.988 2.989a.208.208 0 0 0 .356-.148V6.178a.208.208 0 0 0-.356-.147L14.781 9.02c-.26.26-.406.613-.406.981Z" fill="#000"/></svg>