<svg width="20" height="20" fill="none" xmlns="http://www.w3.org/2000/svg"><path d="M5.653 3.438h4.111c.688 0 1.224 0 1.654.035.436.035.79.109 1.109.271.53.27.96.7 1.229 1.23.162.318.236.672.271 1.109.036.43.036.965.036 1.653v4.528c0 .688 0 1.224-.036 1.653-.035.437-.108.791-.271 1.11-.27.53-.7.96-1.23 1.229-.318.162-.672.236-1.108.271-.43.035-.966.035-1.654.035H5.653c-.688 0-1.224 0-1.654-.035-.436-.035-.79-.109-1.11-.271-.528-.27-.959-.7-1.228-1.23-.163-.318-.236-.672-.272-1.109-.035-.43-.035-.965-.035-1.653V7.736c0-.688 0-1.224.035-1.653.036-.437.11-.791.272-1.11.27-.529.7-.96 1.229-1.229.319-.162.673-.236 1.11-.271.429-.035.965-.035 1.653-.035Zm9.451 8.3V8.262c0-.304.121-.596.336-.81l2.378-2.378a.73.73 0 0 1 1.245.515v8.822a.73.73 0 0 1-1.245.515l-2.378-2.378a1.146 1.146 0 0 1-.336-.81Z" fill="#000"/></svg>