<svg width="16" height="16" fill="none" xmlns="http://www.w3.org/2000/svg"><path d="M4.183 2.6h3.385c.545 0 .978 0 1.328.029.359.029.664.09.944.233a2.4 2.4 0 0 1 1.049 1.048c.142.28.203.586.232.944.03.35.03.783.03 1.328v3.636c0 .545 0 .978-.03 1.328-.029.358-.09.664-.232.944a2.4 2.4 0 0 1-1.05 1.048c-.279.143-.584.204-.943.233-.35.029-.783.029-1.328.029H4.183c-.546 0-.98 0-1.33-.029-.357-.029-.663-.09-.942-.233A2.4 2.4 0 0 1 .86 12.09c-.142-.28-.203-.586-.232-.944C.6 10.796.6 10.363.6 9.818V6.183c0-.546 0-.98.029-1.33.029-.357.09-.663.233-.943A2.4 2.4 0 0 1 1.91 2.862c.28-.143.585-.204.943-.233.35-.029.783-.029 1.329-.029Zm8.327 7.476a1.4 1.4 0 0 1-.41-.99V6.914a1.4 1.4 0 0 1 .41-.99l1.817-1.817a.775.775 0 0 1 1.323.548v6.69a.775.775 0 0 1-1.323.548l-1.817-1.817Z" fill="#000"/></svg>