<svg width="20" height="20" fill="none" xmlns="http://www.w3.org/2000/svg"><path d="M15.809 3.355c.727.72.727 1.883 0 2.603l-7.051 6.974a.581.581 0 0 1-.814 0 .548.548 0 0 1 0-.783l4.752-4.7a.73.73 0 1 0-1.026-1.037l-4.751 4.7a2.006 2.006 0 0 0 0 2.857 2.04 2.04 0 0 0 2.865 0l7.05-6.975a3.283 3.283 0 0 0 0-4.675 3.35 3.35 0 0 0-4.704 0l-8.583 8.49a4.56 4.56 0 0 0 0 6.496 4.661 4.661 0 0 0 6.543 0l6.284-6.217a.73.73 0 0 0-1.025-1.037l-6.284 6.217a3.203 3.203 0 0 1-4.493 0 3.101 3.101 0 0 1 0-4.422l8.584-8.49a1.892 1.892 0 0 1 2.653 0Z" fill="#000"/></svg>