<svg width="24" height="24" fill="none" xmlns="http://www.w3.org/2000/svg"><path fill-rule="evenodd" clip-rule="evenodd" d="M9.825 6.89c.55-.356 1.248-.515 2.05-.515.954 0 1.762.245 2.341.708.587.47.909 1.141.909 1.918 0 .633-.182 1.107-.462 1.494-.252.35-.582.62-.872.857l-.053.044c-.315.26-.586.491-.785.79-.192.288-.328.654-.328 1.189v.125a.75.75 0 0 1-1.5 0v-.125c0-.714.174-1.261.446-1.705.268-.436.62-.752.94-1.016l.164-.135c.583-.477.95-.777.95-1.394 0-.522-.185-.88-.469-1.114-.293-.243-.731-.386-1.281-.386-.533 0-.913.116-1.176.301-.258.182-.438.454-.528.837-.077.323-.362.614-.751.614-.432 0-.83-.395-.705-.88.179-.7.551-1.244 1.11-1.606Zm4.432 1.46a2.441 2.441 0 0 1 .118.652c0-.236-.04-.454-.118-.652Z" fill="#000"/><path d="M10.75 16.625a1.125 1.125 0 1 1 2.25 0 1.125 1.125 0 0 1-2.25 0Z" fill="#000"/><path fill-rule="evenodd" clip-rule="evenodd" d="M1.25 12C1.25 6.063 6.063 1.25 12 1.25S22.75 6.063 22.75 12 17.937 22.75 12 22.75 1.25 17.937 1.25 12ZM12 2.75a9.25 9.25 0 1 0 0 18.5 9.25 9.25 0 0 0 0-18.5Z" fill="#000"/></svg>