<svg height="24" viewBox="0 0 24 24" width="24" xmlns="http://www.w3.org/2000/svg"><path d="m15 5h-1v-1h1m-5 1h-1v-1h1m5.53-1.84 1.31-1.31c.19-.19.19-.51 0-.71-.2-.19-.52-.19-.71 0l-1.48 1.48c-.8-.39-1.7-.62-2.65-.62-.96 0-1.86.23-2.66.63l-1.49-1.49c-.19-.19-.51-.19-.7 0-.2.2-.2.52 0 .71l1.31 1.31c-1.49 1.1-2.46 2.84-2.46 4.84h12c0-2-1-3.75-2.47-4.84m4.97 5.84a1.5 1.5 0 0 0 -1.5 1.5v7a1.5 1.5 0 0 0 1.5 1.5 1.5 1.5 0 0 0 1.5-1.5v-7a1.5 1.5 0 0 0 -1.5-1.5m-17 0a1.5 1.5 0 0 0 -1.5 1.5v7a1.5 1.5 0 0 0 1.5 1.5 1.5 1.5 0 0 0 1.5-1.5v-7a1.5 1.5 0 0 0 -1.5-1.5m2.5 10a1 1 0 0 0 1 1h1v3.5a1.5 1.5 0 0 0 1.5 1.5 1.5 1.5 0 0 0 1.5-1.5v-3.5h2v3.5a1.5 1.5 0 0 0 1.5 1.5 1.5 1.5 0 0 0 1.5-1.5v-3.5h1a1 1 0 0 0 1-1v-10h-12z"/></svg>