<svg width="16" height="16" fill="none" xmlns="http://www.w3.org/2000/svg"><path d="M8.65 1a.65.65 0 1 0-1.3 0v.881a6.608 6.608 0 0 0-2.65.844l.962.962a5.35 5.35 0 0 1 7.152 7.152l.96.96A6.62 6.62 0 0 0 14.65 8.5a6.623 6.623 0 0 0-1.51-4.22l.695-.696a.65.65 0 0 0-.92-.919l-.695.696a6.62 6.62 0 0 0-3.57-1.48V1Zm2.65 13.275-.962-.962a5.35 5.35 0 0 1-7.152-7.152l-.96-.961a6.65 6.65 0 0 0 9.075 9.075Z" fill="#000"/><path d="M8.65 6.675V5a.65.65 0 1 0-1.3 0v.375l1.3 1.3ZM2.46 2.04a.65.65 0 0 0-.92.92l12 12a.65.65 0 0 0 .92-.92l-12-12Z" fill="#000"/></svg>