<svg width="20" height="20" fill="none" xmlns="http://www.w3.org/2000/svg"><path d="M10.73 1.25a.73.73 0 0 0-1.46 0v.97a8.179 8.179 0 0 0-3.52 1.148l1.07 1.07A6.741 6.741 0 0 1 10 3.646a6.75 6.75 0 0 1 4.782 1.978l.005.005.006.005a6.75 6.75 0 0 1 1.978 4.783c0 1.15-.287 2.232-.792 3.18l1.07 1.07a8.191 8.191 0 0 0 1.18-4.25c0-2.01-.72-3.852-1.917-5.28l.685-.687a.73.73 0 1 0-1.03-1.03l-.687.685a8.192 8.192 0 0 0-4.55-1.886V1.25ZM2.951 6.167A8.23 8.23 0 0 0 14.25 17.465l-1.069-1.07a6.77 6.77 0 0 1-9.16-9.16L2.952 6.169Z" fill="#000"/><path d="M9.27 6.889V6.25a.73.73 0 1 1 1.46 0v2.097L9.27 6.889ZM3.016 2.401a.73.73 0 1 0-1.032 1.031L16.96 18.408a.73.73 0 0 0 1.031-1.031L3.016 2.4Z" fill="#000"/></svg>