<svg width="20" height="20" fill="none" xmlns="http://www.w3.org/2000/svg">
<path d="M2.58705 1.55585C2.30229 1.2711 1.84061 1.2711 1.55585 1.55585C1.2711 1.84061 1.2711 2.30229 1.55585 2.58705L17.3892 18.4204C17.6739 18.7051 18.1356 18.7051 18.4204 18.4204C18.7051 18.1356 18.7051 17.6739 18.4204 17.3892L2.58705 1.55585Z" fill="#000"/>
<path d="M1.75197 4.59525C1.75695 4.58548 1.76197 4.57573 1.76704 4.566L2.90669 5.70565C2.88314 5.82821 2.86432 5.97187 2.85024 6.14414C2.8135 6.59392 2.81293 7.17165 2.81293 8.00043L2.81293 12.0004C2.81293 12.4902 2.81313 12.8923 2.82087 13.2321L4.97298 11.08C5.78224 10.2708 7.02639 10.1614 7.95312 10.7521L9.94988 12.7488L9.47436 13.2244C9.1896 13.5091 8.72792 13.5091 8.44316 13.2244L7.33001 12.1112C6.96389 11.7451 6.3703 11.7451 6.00418 12.1112L3.16888 14.9465C3.37706 15.2653 3.66568 15.5254 4.00732 15.6995C4.19935 15.7973 4.45288 15.8646 4.89414 15.9006C5.34392 15.9374 5.92165 15.9379 6.75043 15.9379H13.139L14.5871 17.3861C14.2061 17.3963 13.7735 17.3963 13.2817 17.3963H6.7192C5.92894 17.3963 5.29155 17.3963 4.77539 17.3541C4.24394 17.3107 3.77713 17.2189 3.34525 16.9989C2.65925 16.6494 2.1015 16.0916 1.75197 15.4056C1.53191 14.9737 1.44017 14.5069 1.39675 13.9755C1.35458 13.4593 1.35459 12.8219 1.35459 12.0317V7.9692C1.35459 7.17894 1.35458 6.54155 1.39675 6.02539C1.44017 5.49394 1.53191 5.02713 1.75197 4.59525Z" fill="#000"/>
<path d="M15.0279 8.99667C14.1184 8.08718 12.6596 8.06177 11.7194 8.92044L12.7534 9.95442C13.1213 9.66366 13.6569 9.68814 13.9967 10.0279L17.1804 13.2116C17.1751 13.4554 17.1661 13.6674 17.1506 13.8567C17.1365 14.029 17.1177 14.1726 17.0942 14.2952L18.2338 15.4349C18.2389 15.4251 18.2439 15.4154 18.2489 15.4056C18.4689 14.9737 18.5607 14.5069 18.6041 13.9755C18.6463 13.4593 18.6463 12.8219 18.6463 12.0317V7.96922C18.6463 7.17895 18.6463 6.54155 18.6041 6.02539C18.5607 5.49394 18.4689 5.02713 18.2489 4.59525C17.8994 3.90925 17.3416 3.35151 16.6556 3.00197C16.2237 2.78191 15.7569 2.69018 15.2255 2.64675C14.7093 2.60458 14.0719 2.60459 13.2817 2.60459H6.71921C6.22739 2.60459 5.79475 2.60459 5.41371 2.61475L6.86189 4.06293L13.2504 4.06293C14.0792 4.06293 14.6569 4.0635 15.1067 4.10024C15.548 4.1363 15.8015 4.20351 15.9935 4.30135C16.4051 4.51107 16.7398 4.84572 16.9495 5.25732C17.0473 5.44935 17.1146 5.70288 17.1506 6.14415C17.1874 6.59392 17.1879 7.17165 17.1879 8.00043V11.1567L15.0279 8.99667Z" fill="#000"/>
</svg>
