<svg width="20" height="20" fill="none" xmlns="http://www.w3.org/2000/svg"><path d="M5.417 6.98a1.458 1.458 0 1 1 2.917 0 1.458 1.458 0 0 1-2.917 0Z" fill="#000"/><path d="M7.802 1.77h4.396c.907 0 1.632 0 2.217.049.602.049 1.12.152 1.596.395a4.062 4.062 0 0 1 1.776 1.775c.242.476.345.995.395 1.596.047.585.047 1.31.047 2.217v4.396c0 .907 0 1.632-.047 2.217-.05.601-.153 1.12-.395 1.596a4.062 4.062 0 0 1-1.776 1.775c-.476.243-.994.346-1.595.395-.586.048-1.31.048-2.218.048H7.802c-.907 0-1.632 0-2.217-.048-.601-.049-1.12-.152-1.596-.395a4.063 4.063 0 0 1-1.775-1.775c-.243-.476-.346-.995-.395-1.596-.048-.585-.048-1.31-.048-2.217V7.802c0-.907 0-1.632.048-2.217.049-.601.152-1.12.395-1.596a4.062 4.062 0 0 1 1.775-1.775c.477-.243.995-.346 1.596-.395.585-.048 1.31-.048 2.217-.048ZM5.704 3.273c-.511.042-.816.12-1.053.241-.49.25-.888.648-1.138 1.138-.12.237-.199.542-.24 1.052-.043.52-.044 1.185-.044 2.13v4.334c0 .404 0 .757.004 1.07l1.948-1.95a2.396 2.396 0 0 1 3.388 0l.598.598 2.472-2.472a2.396 2.396 0 0 1 3.389 0l1.743 1.743V7.833c0-.945 0-1.61-.043-2.13-.042-.51-.12-.815-.24-1.052a2.604 2.604 0 0 0-1.139-1.138c-.236-.12-.542-.2-1.052-.24-.52-.043-1.185-.044-2.13-.044H7.834c-.946 0-1.611 0-2.13.043ZM3.514 15.35a2.6 2.6 0 0 0 1.137 1.138c.237.12.542.2 1.053.24.519.043 1.184.044 2.13.044h4.333c.945 0 1.61 0 2.13-.043.51-.042.816-.12 1.052-.241.49-.25.889-.648 1.138-1.138.12-.237.2-.542.241-1.052.025-.303.035-.654.04-1.082l-2.772-2.77a.937.937 0 0 0-1.325 0l-2.989 2.987a.73.73 0 0 1-1.03 0L7.537 12.32a.938.938 0 0 0-1.326 0l-2.796 2.796c.029.086.061.163.097.234Z" fill="#000"/></svg>