<svg width="16" height="16" fill="none" xmlns="http://www.w3.org/2000/svg"><path d="M4.35 5.5a1.15 1.15 0 1 1 2.3 0 1.15 1.15 0 0 1-2.3 0Z" fill="#000"/><path d="M6.772 1.35h2.456c.816 0 1.469 0 1.995.043.54.044 1.006.137 1.434.355a3.65 3.65 0 0 1 1.595 1.595c.218.428.31.893.355 1.434.043.526.043 1.179.043 1.995v2.456c0 .816 0 1.469-.043 1.995-.044.54-.137 1.006-.355 1.434a3.65 3.65 0 0 1-1.595 1.595c-.428.218-.893.31-1.434.355-.526.043-1.179.043-1.995.043H6.772c-.816 0-1.468 0-1.995-.043-.54-.044-1.006-.137-1.434-.355a3.65 3.65 0 0 1-1.595-1.595c-.218-.428-.31-.893-.355-1.434-.043-.527-.043-1.179-.043-1.995V6.772c0-.816 0-1.469.043-1.995.044-.54.137-1.006.355-1.434a3.65 3.65 0 0 1 1.595-1.595c.428-.218.893-.31 1.434-.355.527-.043 1.179-.043 1.995-.043Zm-1.89 1.339c-.46.037-.735.108-.949.217a2.35 2.35 0 0 0-1.027 1.027c-.109.214-.18.49-.217.95C2.65 5.35 2.65 5.949 2.65 6.8v2.4c0 .481 0 .882.007 1.224l1.5-1.5a1.9 1.9 0 0 1 2.687 0l.656.657 1.907-1.907a1.9 1.9 0 0 1 2.687 0l1.256 1.257V6.8c0-.85 0-1.45-.039-1.917-.037-.46-.108-.736-.217-.95a2.35 2.35 0 0 0-1.027-1.027c-.214-.109-.49-.18-.95-.217-.467-.039-1.066-.039-1.917-.039H6.8c-.85 0-1.45 0-1.917.039Zm-1.976 9.378a2.35 2.35 0 0 0 1.027 1.027c.214.109.49.18.95.217.467.039 1.066.039 1.917.039h2.4c.85 0 1.45 0 1.918-.039.46-.037.735-.108.949-.217a2.35 2.35 0 0 0 1.027-1.027c.109-.214.18-.49.217-.95a9.07 9.07 0 0 0 .022-.365l-2.159-2.159a.6.6 0 0 0-.848 0L7.96 10.96a.65.65 0 0 1-.92 0L5.924 9.843a.6.6 0 0 0-.848 0l-2.187 2.188.017.036Z" fill="#000"/></svg>