<svg width="20" height="20" fill="none" xmlns="http://www.w3.org/2000/svg"><path fill-rule="evenodd" clip-rule="evenodd" d="M11.146 4.009c0-1.207-1.459-1.81-2.312-.958L5.948 5.938H3.333A2.396 2.396 0 0 0 .937 8.333v3.334a2.396 2.396 0 0 0 2.396 2.396h2.615l2.886 2.886c.853.853 2.312.248 2.312-.958V4.01Zm-4.38 3.173L9.687 4.26v11.48l-2.921-2.922a.729.729 0 0 0-.516-.214H3.333a.937.937 0 0 1-.937-.937V8.333c0-.517.42-.937.937-.937H6.25a.73.73 0 0 0 .516-.214Z" fill="#000"/><path d="M13.849 6.984a.73.73 0 1 0-1.031 1.032L14.802 10l-1.984 1.984a.73.73 0 0 0 1.03 1.032l1.985-1.985 1.985 1.985a.73.73 0 1 0 1.03-1.032L16.866 10l1.984-1.984a.73.73 0 1 0-1.031-1.032L15.833 8.97 13.85 6.984Z" fill="#000"/></svg>