<svg width="20" height="20" fill="none" xmlns="http://www.w3.org/2000/svg"><path fill-rule="evenodd" clip-rule="evenodd" d="M8.834 3.051c.853-.853 2.312-.249 2.312.958V15.99c0 1.207-1.459 1.81-2.312.958l-2.886-2.887H3.333a2.396 2.396 0 0 1-2.396-2.395V8.333a2.396 2.396 0 0 1 2.396-2.395h2.615L8.834 3.05Zm.854 1.21-2.923 2.92a.73.73 0 0 1-.516.214H3.333a.938.938 0 0 0-.937.937v3.334c0 .518.42.937.937.937H6.25a.73.73 0 0 1 .516.214l2.921 2.922V4.26Z" fill="#000"/><path d="M13.524 5.473a.73.73 0 0 1 1.003.242A8.194 8.194 0 0 1 15.729 10c0 1.568-.44 3.036-1.202 4.285a.729.729 0 1 1-1.245-.76A6.736 6.736 0 0 0 14.271 10a6.736 6.736 0 0 0-.989-3.524.73.73 0 0 1 .242-1.003Z" fill="#000"/><path d="M16.9 3.267a.73.73 0 1 0-1.184.85A10.055 10.055 0 0 1 17.604 10c0 2.196-.7 4.226-1.888 5.883a.73.73 0 0 0 1.185.85A11.513 11.513 0 0 0 19.062 10c0-2.51-.8-4.837-2.161-6.733Z" fill="#000"/></svg>