<svg width="20" height="20" fill="none" xmlns="http://www.w3.org/2000/svg"><path d="M4.266 2.818a.73.73 0 0 0-1.032 1.03l13.334 13.334a.73.73 0 1 0 1.03-1.031L4.267 2.818Zm-.412 5.515c0-.585.21-1.122.559-1.538l1.042 1.042a.933.933 0 0 0-.143.496v3.334c0 .517.42.937.938.937h3.219l3.135 3.136v-.754l1.402 1.402c-.276.93-1.502 1.314-2.255.56l-2.886-2.886H6.25a2.396 2.396 0 0 1-2.396-2.395V8.333Zm6.186-1.509 2.564-2.564v5.13l1.459 1.458V4.009c0-1.207-1.46-1.81-2.312-.958L9.009 5.793l1.031 1.031Z" fill="#000"/></svg>