<svg width="20" height="20" fill="none" xmlns="http://www.w3.org/2000/svg"><g clip-path="url(#check-circle__a)" fill="#000"><path d="M13.952 7.261a.73.73 0 0 0-1.237-.772l-3.622 5.794-1.857-2.322a.73.73 0 1 0-1.139.911l2.5 3.125a.73.73 0 0 0 1.188-.069l4.167-6.667Z"/><path d="M10 .938a9.063 9.063 0 1 0 0 18.125A9.063 9.063 0 0 0 10 .938ZM2.396 10a7.604 7.604 0 1 1 15.208 0 7.604 7.604 0 0 1-15.208 0Z"/></g><defs><clipPath id="check-circle__a"><path fill="#fff" d="M0 0h20v20H0z"/></clipPath></defs></svg>