<svg width="20" height="20" fill="none" xmlns="http://www.w3.org/2000/svg"><path d="M6.053 3.02c-.675 0-1.224 0-1.671.037-.462.038-.878.118-1.265.316a3.23 3.23 0 0 0-1.411 1.411c-.197.387-.278.803-.316 1.265-.036.446-.036.996-.036 1.67v2.895c0 .674 0 1.224.036 1.67.038.463.119.878.316 1.265a3.23 3.23 0 0 0 1.411 1.412c.387.197.803.277 1.265.315.447.037.996.037 1.67.037h2.843c.032.266.093.525.22.775.23.45.596.817 1.047 1.047.298.152.61.21.934.236.308.025.683.025 1.125.025h3.058c.442 0 .817 0 1.125-.025.323-.027.635-.084.933-.236.451-.23.818-.597 1.047-1.047.152-.299.21-.611.236-.934.026-.308.026-.683.026-1.125v-1.391c0-.442 0-.818-.026-1.125-.026-.323-.084-.636-.236-.934a2.396 2.396 0 0 0-1.047-1.047 2.269 2.269 0 0 0-.775-.22V7.719c0-.674 0-1.224-.036-1.67-.038-.462-.118-.878-.316-1.265a3.23 3.23 0 0 0-1.41-1.411c-.388-.198-.804-.278-1.266-.316-.446-.036-.996-.036-1.67-.036H6.053Zm9.051 6.25h-2.883c-.442 0-.817 0-1.125.026-.323.026-.636.084-.934.236-.45.23-.817.596-1.047 1.047-.152.298-.21.61-.236.934-.025.307-.025.683-.025 1.125v1.216h-2.77c-.713 0-1.203 0-1.583-.031-.372-.03-.574-.087-.722-.162a1.77 1.77 0 0 1-.774-.774c-.075-.147-.13-.35-.161-.721-.031-.38-.032-.87-.032-1.583V7.75c0-.712 0-1.202.032-1.583.03-.371.086-.574.161-.721.17-.333.441-.604.774-.774.148-.075.35-.13.722-.161.38-.031.87-.032 1.582-.032h5.75c.712 0 1.203 0 1.583.032.372.03.574.086.721.161.333.17.604.44.774.774.075.147.131.35.161.721.031.38.032.87.032 1.583v1.52Zm-4.28 1.561c.059-.03.158-.063.39-.082.242-.02.557-.02 1.036-.02h3c.479 0 .794 0 1.035.02.233.02.332.053.39.082.177.09.32.234.41.41.03.058.063.158.082.39.02.242.02.557.02 1.036V14c0 .479 0 .794-.02 1.035-.019.233-.052.332-.082.39a.938.938 0 0 1-.41.41c-.058.03-.157.063-.39.082-.241.02-.556.02-1.035.02h-3c-.479 0-.794 0-1.035-.02-.233-.019-.332-.052-.39-.082a.938.938 0 0 1-.41-.41c-.03-.058-.063-.157-.082-.39-.02-.241-.02-.556-.02-1.035v-1.333c0-.48 0-.794.02-1.036.019-.232.052-.332.082-.39a.938.938 0 0 1 .41-.41Z" fill="#000"/></svg>