<svg width="20" height="20" fill="none" xmlns="http://www.w3.org/2000/svg"><path d="M12.604 13.083c0 .712 0 1.203-.031 1.583-.03.372-.087.574-.162.721a1.77 1.77 0 0 1-.774.774c-.147.075-.35.131-.721.162-.38.03-.87.031-1.583.031H6.5c-.712 0-1.202 0-1.583-.031-.371-.03-.573-.087-.72-.162a1.771 1.771 0 0 1-.775-.774c-.075-.147-.13-.35-.161-.721-.031-.38-.032-.87-.032-1.583V6.917c0-.712 0-1.203.032-1.583.03-.372.086-.574.161-.721.17-.333.44-.604.774-.774.148-.075.35-.131.721-.162.38-.03.87-.031 1.583-.031h2.833c.713 0 1.203 0 1.583.031.372.03.574.087.721.162.333.17.604.44.774.774.075.147.131.35.162.721.03.38.031.87.031 1.583v.166a.73.73 0 0 0 1.459 0v-.197c0-.674 0-1.224-.037-1.67-.038-.463-.118-.878-.315-1.265a3.23 3.23 0 0 0-1.412-1.412c-.387-.197-.802-.277-1.264-.315-.447-.037-.997-.037-1.671-.037H6.469c-.674 0-1.224 0-1.67.037-.462.038-.878.118-1.265.315a3.23 3.23 0 0 0-1.411 1.412c-.198.387-.278.802-.316 1.264-.036.447-.036.997-.036 1.671v6.228c0 .674 0 1.224.036 1.67.038.463.118.878.316 1.265a3.23 3.23 0 0 0 1.411 1.412c.387.197.803.277 1.265.315.446.037.996.037 1.67.037h2.895c.674 0 1.224 0 1.67-.037.463-.038.878-.118 1.265-.316a3.228 3.228 0 0 0 1.412-1.41c.197-.388.277-.803.315-1.265.037-.447.037-.997.037-1.671v-.197a.73.73 0 1 0-1.459 0v.166Z" fill="#000"/><path d="m16.557 13.432 2.917-2.916a.73.73 0 0 0 0-1.032l-2.917-2.916a.73.73 0 1 0-1.03 1.03l1.776 1.778-1.47-.105H7.917a.73.73 0 1 0 0 1.458h7.916l1.47-.105-1.777 1.777a.73.73 0 0 0 1.031 1.031Z" fill="#000"/></svg>