<svg width="16" height="16" fill="none" xmlns="http://www.w3.org/2000/svg"><path d="M9.85 4.5v1a.65.65 0 1 0 1.3 0v-1A2.65 2.65 0 0 0 8.5 1.85H4A2.65 2.65 0 0 0 1.35 4.5v7A2.65 2.65 0 0 0 4 14.15h4.5a2.65 2.65 0 0 0 2.65-2.65v-1a.65.65 0 1 0-1.3 0v1a1.35 1.35 0 0 1-1.35 1.35H4a1.35 1.35 0 0 1-1.35-1.35v-7c0-.746.605-1.35 1.35-1.35h4.5c.746 0 1.35.604 1.35 1.35Z" fill="#000"/><path d="m13.085 10.96 2.5-2.5a.65.65 0 0 0 0-.92l-2.5-2.5a.65.65 0 1 0-.92.92l1.494 1.493-1.284-.103H6.25a.65.65 0 1 0 0 1.3h6.125l1.284-.103-1.494 1.493a.65.65 0 1 0 .92.92Z" fill="#000"/></svg>