<svg width="20" height="20" fill="none" xmlns="http://www.w3.org/2000/svg"><path d="M7.292 9.375c.69 0 1.25-.746 1.25-1.667 0-.92-.56-1.666-1.25-1.666s-1.25.746-1.25 1.666c0 .92.56 1.667 1.25 1.667Zm5.416 0c.69 0 1.25-.746 1.25-1.667 0-.92-.56-1.666-1.25-1.666s-1.25.746-1.25 1.666c0 .92.56 1.667 1.25 1.667Z" fill="#000"/><path fill-rule="evenodd" clip-rule="evenodd" d="M7.067 18.23c-.855 0-1.348 0-1.767-.083A4.375 4.375 0 0 1 1.854 14.7c-.083-.42-.083-.913-.083-1.768v-4.43c0-1.092 0-1.938.055-2.615.056-.686.171-1.235.422-1.727A4.375 4.375 0 0 1 4.16 2.248c.492-.25 1.041-.366 1.727-.422.677-.055 1.522-.055 2.615-.055h2.996c1.093 0 1.938 0 2.615.055.686.056 1.236.171 1.727.422a4.375 4.375 0 0 1 1.912 1.912c.251.492.366 1.041.422 1.727.055.677.055 1.522.055 2.615v.628c0 .437 0 .74-.081 1.022-.072.25-.19.485-.348.692-.18.234-.423.413-.774.673l-8.427 6.232a3.77 3.77 0 0 1-.233.164 2.082 2.082 0 0 1-.939.31c-.082.006-.165.006-.284.006h-.076Zm1.996-2.307.654-.604a.41.41 0 0 1 .038-.03l4.583-3.334a.42.42 0 0 1 .04-.026l.825-.466-1.661.1c-.733 0-1.264 0-1.683.027-.417.026-.696.078-.93.168a2.917 2.917 0 0 0-1.671 1.672c-.09.233-.142.512-.168.929-.026.396-.027.892-.027 1.564Zm-2.282.848c.2 0 .253-.001.291-.007a.625.625 0 0 0 .525-.525c.006-.038.007-.092.007-.292v-.229c0-.563 0-1.009.018-1.383a5.331 5.331 0 0 1-1.72-1.37.73.73 0 0 1 1.125-.93c.256.31.56.58.899.797a4.375 4.375 0 0 1 2.92-2.579c.558-.149 1.222-.149 2.372-.149h2.303c.298 0 .497 0 .65-.013a.687.687 0 0 0 .259-.055.626.626 0 0 0 .273-.273.687.687 0 0 0 .055-.259 8.92 8.92 0 0 0 .013-.65v-.708c0-.94 0-1.62-.044-2.156-.044-.53-.127-.88-.274-1.168a2.916 2.916 0 0 0-1.275-1.275c-.288-.147-.638-.23-1.168-.274-.535-.043-1.216-.044-2.156-.044H8.146c-.94 0-1.62 0-2.156.044-.53.044-.88.127-1.168.274-.55.28-.995.726-1.275 1.275-.147.288-.23.638-.274 1.168-.043.535-.044 1.216-.044 2.156v5.073c0 .605.001.862.033 1.07a2.917 2.917 0 0 0 2.45 2.45c.208.03.464.032 1.069.032Z" fill="#000"/></svg>