<svg width="20" height="20" fill="none" xmlns="http://www.w3.org/2000/svg"><path fill-rule="evenodd" clip-rule="evenodd" d="M5.3 18.147c.419.082.912.082 1.767.082h.076c.12 0 .202 0 .284-.006.334-.027.656-.133.94-.31.07-.043.136-.093.232-.164l8.427-6.232c.351-.26.594-.44.774-.673.158-.207.276-.441.348-.691.082-.284.081-.586.081-1.023v-.628c0-1.092 0-1.938-.055-2.615-.056-.686-.171-1.235-.422-1.727a4.375 4.375 0 0 0-1.912-1.912c-.492-.25-1.041-.366-1.727-.422-.677-.055-1.522-.055-2.615-.055H8.502c-1.092 0-1.938 0-2.615.055-.686.056-1.235.171-1.727.422A4.375 4.375 0 0 0 2.248 4.16c-.25.492-.366 1.041-.422 1.727-.055.677-.055 1.522-.055 2.615v4.431c0 .855 0 1.348.083 1.768A4.375 4.375 0 0 0 5.3 18.146Zm4.417-2.828-.654.604c0-.672.001-1.168.027-1.564.026-.417.078-.696.168-.93a2.917 2.917 0 0 1 1.672-1.671c.233-.09.512-.142.929-.168.42-.027.95-.027 1.683-.027l1.662-.1-.826.466a.42.42 0 0 0-.04.026l-4.583 3.333a.41.41 0 0 0-.038.03Zm-2.645 1.445a2.436 2.436 0 0 1-.291.007c-.605 0-.861-.001-1.07-.033a2.917 2.917 0 0 1-2.45-2.45c-.03-.207-.032-.464-.032-1.069V8.146c0-.94 0-1.62.044-2.156.044-.53.127-.88.274-1.168.28-.55.726-.995 1.275-1.275.288-.147.638-.23 1.168-.274.535-.043 1.216-.044 2.156-.044h3.708c.94 0 1.62 0 2.156.044.53.044.88.127 1.168.274.55.28.995.726 1.275 1.275.147.288.23.638.274 1.168.044.535.044 1.216.044 2.156v.708c0 .299 0 .498-.013.65a.687.687 0 0 1-.055.259.626.626 0 0 1-.273.273.687.687 0 0 1-.259.055 8.92 8.92 0 0 1-.65.013h-2.303c-1.15 0-1.814 0-2.371.15a4.375 4.375 0 0 0-3.094 3.093c-.149.557-.149 1.22-.149 2.371v.23c0 .199-.001.253-.007.291a.625.625 0 0 1-.525.525Z" fill="#000"/></svg>