<svg width="24" height="24" viewBox="0 0 24 24" fill="none" xmlns="http://www.w3.org/2000/svg">
<path d="M3.11872 1.88128C2.77701 1.53957 2.22299 1.53957 1.88128 1.88128C1.53957 2.22299 1.53957 2.77701 1.88128 3.11872L20.3813 21.6187C20.723 21.9604 21.277 21.9604 21.6187 21.6187C21.9604 21.277 21.9604 20.723 21.6187 20.3813L3.11872 1.88128Z" fill="black"/>
<path d="M2.18922 7.17316C2.23053 6.66753 2.30013 6.20963 2.42522 5.78398L3.9352 7.29396L3.93341 7.31566C3.87568 8.02215 3.875 8.92544 3.875 10.2V16.125C3.875 16.4871 3.87547 16.6259 3.88276 16.7371C4.00174 18.5523 5.44767 19.9983 7.26292 20.1172C7.37413 20.1245 7.51293 20.125 7.875 20.125C8.49013 20.125 8.79075 19.9718 8.94378 19.8188C9.09681 19.6658 9.25 19.3651 9.25 18.75L9.24999 18.64C9.24984 17.7 9.24975 17.0969 9.35328 16.5764C9.54812 15.5969 10.0052 14.7156 10.6492 14.0079L11.8886 15.2474C11.4833 15.7138 11.1954 16.2854 11.0697 16.9178C11.0042 17.2467 11 17.6626 11 18.75C11 18.9242 10.9914 19.0961 10.973 19.2644C11.0193 19.2321 11.0669 19.1984 11.1159 19.1634C12.169 18.4099 13.0333 17.7916 13.8495 17.2082L15.1039 18.4627C14.2175 19.0962 13.2895 19.76 12.1341 20.5866C11.3993 21.1124 10.8016 21.4616 10.1153 21.6576C9.44285 21.8496 8.74798 21.875 7.875 21.875H7.83831C7.5252 21.875 7.32446 21.875 7.14846 21.8635C4.45689 21.6871 2.31293 19.5431 2.13651 16.8515C2.12497 16.6755 2.12498 16.4748 2.125 16.1616L2.125 10.1616C2.125 8.93403 2.12499 7.95926 2.18922 7.17316Z" fill="black"/>
<path d="M15.6087 12.25L17.3588 14H18.3435L17.7687 14.4099L19.0234 15.6646L20.008 14.9624C20.0133 14.9587 20.0186 14.9548 20.0238 14.9509C20.6414 14.4894 21.1522 14.0085 21.4739 13.3114C21.7868 12.6335 21.875 11.8489 21.875 10.875V10.1616C21.875 8.93401 21.875 7.95926 21.8108 7.17316C21.7451 6.36866 21.6077 5.68501 21.2892 5.0598C20.7738 4.04843 19.9516 3.22616 18.9402 2.71084C18.315 2.39228 17.6313 2.25494 16.8268 2.18922C16.0407 2.12499 15.066 2.12499 13.8384 2.125H10.1616C8.93403 2.12499 7.95926 2.12499 7.17316 2.18922C6.66753 2.23053 6.20963 2.30012 5.78398 2.42522L7.29396 3.9352L7.31566 3.9334C8.02215 3.87568 8.92545 3.875 10.2 3.875H13.8C15.0746 3.875 15.9779 3.87568 16.6843 3.9334C17.3806 3.99029 17.8083 4.09819 18.1457 4.2701C18.8278 4.61764 19.3824 5.1722 19.7299 5.85428C19.9018 6.19168 20.0097 6.61939 20.0666 7.31566C20.1243 8.02215 20.125 8.92545 20.125 10.2V10.875C20.125 11.4901 19.9718 11.7908 19.8188 11.9438C19.6658 12.0968 19.3651 12.25 18.75 12.25L15.6087 12.25Z" fill="black"/>
</svg>
