<svg width="20" height="20" fill="none" xmlns="http://www.w3.org/2000/svg"><path d="M11.143.656a.625.625 0 0 1 .94.54v.37a6.563 6.563 0 0 1 6.354 6.559.73.73 0 0 1-1.458 0c0-2.75-2.173-4.99-4.896-5.1v.362a.625.625 0 0 1-.94.54L9.265 2.832a.625.625 0 0 1 0-1.08L11.143.656ZM4.167 3.854a.73.73 0 0 1 .729.73v1.77h4.717c.558 0 1.02 0 1.398.031.393.032.756.101 1.1.276.528.27.959.7 1.228 1.229.175.343.244.706.276 1.099.03.377.03.84.03 1.398v2.738a.73.73 0 1 1-1.457 0v-2.708c0-.596-.001-.998-.027-1.31-.024-.302-.069-.452-.121-.555a1.354 1.354 0 0 0-.592-.592c-.103-.052-.253-.097-.556-.122-.31-.025-.713-.025-1.309-.025H1.667a.73.73 0 1 1 0-1.459h1.77v-1.77a.73.73 0 0 1 .73-.73Z" fill="#000"/><path d="M4.896 9.792a.73.73 0 0 0-1.458 0v2.738c0 .558 0 1.02.03 1.398.032.392.101.756.276 1.099.27.53.7.96 1.23 1.229.342.175.706.244 1.098.276.378.03.84.03 1.398.03h4.718v1.771a.73.73 0 0 0 1.458 0v-1.77h1.77a.73.73 0 1 0 0-1.459H7.5c-.595 0-.998 0-1.309-.026-.302-.024-.453-.069-.556-.121a1.354 1.354 0 0 1-.592-.592c-.052-.103-.097-.254-.121-.556-.026-.31-.026-.714-.026-1.309V9.792Z" fill="#000"/></svg>