<svg width="20" height="20" fill="none" xmlns="http://www.w3.org/2000/svg"><path d="M5.729 2.083a.73.73 0 0 0-1.458 0v2.188H2.083a.73.73 0 1 0 0 1.458h10.625c.863 0 1.563.7 1.563 1.563a.73.73 0 1 0 1.458 0 3.02 3.02 0 0 0-3.02-3.021h-6.98V2.083ZM5 6.98a.73.73 0 0 1 .729.728V11c0 .712 0 1.202.032 1.583.03.371.086.573.161.72.17.334.44.605.774.775.147.075.35.13.721.161.38.031.87.032 1.583.032h.583a.73.73 0 0 1 0 1.458H8.97c-.674 0-1.224 0-1.67-.036-.463-.038-.878-.118-1.265-.316a3.23 3.23 0 0 1-1.411-1.411c-.198-.387-.278-.803-.316-1.265-.036-.446-.036-.996-.036-1.67V7.708A.73.73 0 0 1 5 6.98Z" fill="#000"/><path fill-rule="evenodd" clip-rule="evenodd" d="M12.604 11.667a2.396 2.396 0 0 1 4.792 0V13.5l.027.014c.314.16.569.415.729.728.103.203.144.418.163.652.018.226.018.502.018.838v.617c0 .336 0 .613-.018.838a1.7 1.7 0 0 1-.164.652c-.16.314-.414.569-.728.728a1.705 1.705 0 0 1-.652.164c-.225.018-.502.018-.837.018h-1.868c-.335 0-.612 0-.838-.018-.234-.02-.45-.06-.652-.164a1.666 1.666 0 0 1-.728-.728 1.704 1.704 0 0 1-.163-.652c-.019-.225-.019-.502-.019-.837v-.618c0-.336 0-.612.019-.838.02-.234.06-.45.163-.652a1.666 1.666 0 0 1 .756-.742v-1.834Zm1.458 1.666h1.875v-1.666a.937.937 0 1 0-1.875 0v1.666Z" fill="#000"/></svg>