<svg width="20" height="20" fill="none" xmlns="http://www.w3.org/2000/svg"><path d="M5.729 2.083a.73.73 0 0 0-1.458 0v2.188H2.083a.73.73 0 1 0 0 1.458H12.5c.978 0 1.77.793 1.77 1.771a.73.73 0 1 0 1.459 0 3.23 3.23 0 0 0-3.23-3.23H5.73V2.084ZM5 6.98a.73.73 0 0 1 .729.728v3.542c0 .592 0 1 .022 1.318.021.312.06.484.113.61.18.434.524.778.958.958.126.052.298.091.61.113.318.021.725.022 1.318.022a.73.73 0 0 1 0 1.458h-.026c-.56 0-1.018 0-1.392-.025-.385-.027-.735-.083-1.068-.22a3.23 3.23 0 0 1-1.748-1.748c-.138-.334-.194-.683-.22-1.069a22.121 22.121 0 0 1-.025-1.392V7.708A.73.73 0 0 1 5 6.98Zm14.479 4.687a2.396 2.396 0 1 0-4.792 0v1.666h-1.454c-.336 0-.613 0-.838.019-.234.019-.45.06-.652.163-.313.16-.568.415-.728.728a1.705 1.705 0 0 0-.163.652c-.019.226-.019.502-.019.838v.617c0 .336 0 .613.019.838.019.235.06.45.163.652.16.314.415.569.728.728.202.103.418.144.652.164.225.018.502.018.838.018h1.45c.336 0 .613 0 .838-.018a1.7 1.7 0 0 0 .652-.164c.314-.16.569-.414.729-.728.103-.202.144-.418.163-.652.018-.225.018-.502.018-.837v-.618c0-.336 0-.612-.018-.838-.02-.234-.06-.45-.164-.652a1.667 1.667 0 0 0-.755-.742v-1.834a.937.937 0 1 1 1.875 0v.833a.73.73 0 1 0 1.458 0v-.833Z" fill="#000"/></svg>